ply
format ascii 1.0
element vertex 384
property double x
property double y
property double z
element face 40
property list uchar int vertex_indices
property uchar red
property uchar green
property uchar blue
property uchar alpha
end_header
704803.29868532018736 7059393.5299726324156 21.80889597269399971
704830.43944002094213 7059393.5381471058354 23.139587462290656106
704830.44661123899277 7059417.4042486362159 22.993328973862105613
704803.305856538238 7059417.3960741627961 21.662637484265449217
704811.95831769844517 7059396.2328201103956 28.294205721002068543
704811.66516924533062 7059396.60181907285 27.354071180336173796
704810.76777932967525 7059398.8796317894012 26.740174206905063414
704808.42645351670217 7059405.7806099280715 27.027606581919823014
704808.28849473420996 7059406.6192669896409 27.896408416272603148
704808.30528880935162 7059407.0143724363297 28.771011472796086395
704808.78512516152114 7059406.7632776526734 31.005693720187988305
704809.66730323340744 7059405.4849680690095 33.503852504771195697
704810.36672410042956 7059403.4724039435387 33.514516960131004453
704811.97644138394389 7059398.8209823416546 33.500601977983016866
704812.04349625611212 7059396.3510358324274 29.01188164949416759
704831.64162581833079 7059400.4716062713414 26.308578369288170506
704831.49925644847099 7059400.8870130516589 24.812041777679500143
704831.20062054879963 7059401.7728082975373 24.432037617953483277
704829.51961759175174 7059406.768534982577 24.136002432398530715
704826.2994834567653 7059416.3442336115986 24.691150469599055128
704826.12519626447465 7059416.8626198163256 24.742064757566822664
704826.11351498460863 7059416.9352899761871 31.996124021056861153
704826.14477371040266 7059416.84700401593 32.883146439811760331
704826.29246082087047 7059416.4139445247129 34.027120597282646486
704826.48416705231648 7059415.8475459283218 34.69710175926366702
704827.16982886847109 7059413.8172330595553 36.23002493464264262
704830.71549923007842 7059403.27671257779 36.235069503100930888
704831.51127581414767 7059400.8956648781896 33.29705406037010107
704809.96794394159224 7059393.5845419801772 25.462325656801109375
704809.59196252713446 7059394.2652920279652 23.067847779602740133
704808.92245784553234 7059396.0885722236708 22.294101987077734606
704806.58075666427612 7059402.9881431758404 22.571126564842412421
704806.33355139067862 7059403.7206296017393 22.623916850192472339
704805.15569547971245 7059407.2313878554851 22.993608996053804816
704805.25199429236818 7059407.1149218408391 23.937538957325156019
704805.54563176503871 7059406.5454468391836 25.591618494727295996
704809.17227164178621 7059396.1855942578986 27.022489921495431275
704809.30650311848149 7059395.7963385824114 27.042265768744979226
704805.29625984642189 7059407.2173816617578 21.984000000000001762
704809.19340264739003 7059395.4237939463928 21.984000000000001762
704809.19340264739003 7059395.4237939463928 37.783000000000001251
704805.29625984642189 7059407.2173816617578 37.783000000000001251
704826.92756963765714 7059414.7398494333029 21.984000000000001762
704830.84900872863363 7059402.8770360965282 21.984000000000001762
704830.84900872863363 7059402.8770360965282 37.783000000000001251
704826.92756963765714 7059414.7398494333029 37.783000000000001251
704812.30659139517229 7059394.2659373255447 21.984000000000001762
704816.94558888243046 7059395.7719450648874 21.984000000000001762
704816.94558888243046 7059395.7719450648874 37.783000000000001251
704812.30659139517229 7059394.2659373255447 37.783000000000001251
704807.65509033796843 7059410.8346233814955 21.984000000000001762
704823.74691606254783 7059416.1841798843816 21.984000000000001762
704823.74691606254783 7059416.1841798843816 37.783000000000001251
704807.65509033796843 7059410.8346233814955 37.783000000000001251
704825.3789191886317 7059398.2966175414622 21.984000000000001762
704829.0789147822652 7059399.4067870927975 21.984000000000001762
704829.0789147822652 7059399.4067870927975 37.783000000000001251
704825.3789191886317 7059398.2966175414622 37.783000000000001251
704824.69913416169584 7059398.4604729581624 21.984000000000001762
704823.12052289722487 7059394.1485271891579 21.984000000000001762
704823.12052289722487 7059394.1485271891579 37.783000000000001251
704824.69913416169584 7059398.4604729581624 37.783000000000001251
704818.10733771696687 7059396.8055807435885 21.984000000000001762
704821.71259050397202 7059393.9449482774362 21.984000000000001762
704821.71259050397202 7059393.9449482774362 37.783000000000001251
704818.10733771696687 7059396.8055807435885 37.783000000000001251
704804.78117047424894 7059409.3697847705334 21.984000000000001762
704807.15099212841596 7059410.804912161082 21.984000000000001762
704807.15099212841596 7059410.804912161082 37.783000000000001251
704804.78117047424894 7059409.3697847705334 37.783000000000001251
704829.41121161729097 7059399.4289674684405 21.984000000000001762
704831.64206198463216 7059400.8534375298768 21.984000000000001762
704831.64206198463216 7059400.8534375298768 37.783000000000001251
704829.41121161729097 7059399.4289674684405 37.783000000000001251
704812.03708795062266 7059396.1833529956639 27.527064983727544956
704811.87521254806779 7059396.6743886657059 27.320104436654222724
704811.10706354642753 7059398.9980785492808 26.669613906293310635
704809.34694079356268 7059404.2894131932408 26.888329679975871755
704808.80703900079243 7059405.9123338526115 26.963083993558033313
704808.53773760295007 7059406.7052164496854 27.858198002959401407
704808.41652493539732 7059407.0524781392887 28.757203074732391457
704808.52758264017757 7059406.6738497940823 31.053074612094864193
704808.87626182776876 7059405.6203993018717 31.280143404408594421
704810.76737655617762 7059399.9344173343852 31.089279419526068438
704811.45857777469791 7059397.866535901092 30.485932862964549628
704811.71811043436173 7059397.0950137358159 30.005155312608625451
704811.97905500605702 7059396.329041252844 29.018845753107601837
704812.00984423828777 7059396.2506101094186 28.286031205214388962
704820.80346840480343 7059394.5582724893466 26.252471478292136453
704820.83452274359297 7059394.8729069987312 26.251258579730347265
704821.21817035262939 7059396.8859696928412 26.252499568428902421
704821.90245209762361 7059397.704919565469 26.27871021963073872
704823.85032996872906 7059398.3787633813918 26.367671578067529481
704823.96741564373951 7059398.021926051937 26.376459282197174616
704823.94998104381375 7059396.9036475494504 26.385293174258549698
704823.86145736963954 7059395.9195628045127 26.389505548962915782
704823.64098852674942 7059395.0058241290972 26.386687586549669504
704823.41368229675572 7059394.7338786125183 26.37798005106014898
704822.96944047545549 7059394.2039216337726 26.360949034067743924
704821.23965976189356 7059393.663882621564 26.281443101899640169
704820.93250534043182 7059393.7542659183964 26.265712519874796271
704820.80562129733153 7059394.2402452873066 26.255329819316102657
704831.64227601420134 7059400.4718440799043 26.308601208285377737
704831.50001746148337 7059400.8872672170401 24.812038144656522576
704831.20135234494228 7059401.7730528181419 24.43203426939589562
704829.52001882740296 7059406.7686698706821 24.136001628475238334
704826.29915334878024 7059416.3441157452762 24.69114248169261927
704826.1248234231025 7059416.8624914428219 24.742061702833776593
704826.11248733312823 7059416.9349386068061 31.996118691243278676
704826.14367313263938 7059416.8466270966455 32.883139959273187003
704826.2912882338278 7059416.4135445440188 34.027115702246646833
704827.16864283324685 7059413.8168328749016 36.230025488649516774
704830.71506579651032 7059403.276563603431 36.235066279730283156
704831.51127557805739 7059400.8956623580307 33.297050994041001104
704809.59564814821351 7059394.266237183474 23.070070483572628461
704808.98182004480623 7059396.1089351205155 22.289983680547717171
704806.67405171331484 7059403.0197057845071 22.568072978725464139
704806.42911847715732 7059403.7530555464327 22.620053542422731141
704805.25583994959015 7059407.2653012191877 22.990070824541810168
704805.29908964328934 7059407.1307168509811 23.937067712976382694
704805.49721778184175 7059406.5284369569272 25.598103495304709298
704805.84691255330108 7059405.4806289412081 25.672971400915226781
704806.42916319612414 7059403.7363835535944 25.72598606830432999
704808.9856130204862 7059396.0788739966229 25.802009978416201363
704809.36904216720723 7059394.9336818093434 25.190003630415041869
704810.15165971359238 7059405.6163990423083 33.789335982455668272
704810.37148975417949 7059405.8803684646264 33.783077011044952087
704812.0010716955876 7059406.6901133377105 33.741511563301173737
704812.18241358699743 7059406.7261748481542 33.737113780531217344
704812.83117339585442 7059406.8113115467131 33.721565309762809193
704813.29875867755618 7059406.5559565816075 33.711693086032028077
704814.01517911243718 7059405.8388523114845 33.697939795762067661
704814.22524788940791 7059405.1608646875247 33.695877275138627738
704814.36998980306089 7059404.6679981648922 33.69456449045901536
704815.31806151068304 7059401.2138311527669 33.686917011214973172
704815.15848043421283 7059399.4771868744865 33.697968835818755906
704814.88845390093047 7059399.1793620120734 33.705545703567622695
704813.67576247791294 7059398.7554175294936 33.735725071888737148
704813.11592012050096 7059398.8444458916783 33.748458006175496848
704812.13463081652299 7059399.6353938421234 33.768101786241459195
704811.4907712014392 7059400.6725990129635 33.778807767852413235
704811.08449465525337 7059401.6680889939889 33.78412678188396967
704810.92545679805335 7059402.1549022719264 33.785799785619019531
704810.17481925431639 7059405.2944277450442 33.790150006148905959
704824.09592059464194 7059404.9350041607395 33.655649064670797088
704823.65366482082754 7059405.4009651616216 33.652468012895042193
704823.34727713791654 7059405.5039854748175 33.650342741070289776
704822.69172771042213 7059405.3030142690986 33.645946016562902514
704821.12705132400151 7059404.7709973100573 33.635470535049989849
704820.15541586140171 7059404.367978207767 33.628991401805706118
704820.16600559651852 7059404.0449997065589 33.62917895499504084
704820.71686616842635 7059402.0860070129856 33.633633620165710454
704823.80807237396948 7059402.9879962084815 33.654382442354744853
704824.04598021658603 7059403.2730010366067 33.655902321814664901
704816.30886730283964 7059399.0485838828608 37.383880029374267906
704816.05505506973714 7059400.1230322783813 35.79329137405147776
704816.0527517106384 7059400.952840895392 34.653746826661517844
704817.05309022823349 7059401.3127794396132 34.618906202565995045
704818.81781646446325 7059401.9174010902643 34.599091457086615264
704828.4063362107845 7059405.1661522341892 34.541396368062123656
704829.48844987957273 7059405.5208615828305 34.551251482829684392
704829.82462588546332 7059405.4303451469168 34.82968846065341495
704829.82834649470169 7059404.3090427070856 36.369809397161589004
704828.90587378223427 7059403.4075349662453 37.183404198702191934
704828.10649059840944 7059403.0420899093151 37.31800513707275968
704824.80114753521048 7059401.763745944947 37.55526928196195513
704817.45412425382528 7059399.3909041853622 37.439705149954534136
704827.98403379356023 7059406.2150578461587 33.63974307622629567
704825.19196529197507 7059405.2919405875728 33.644397773788682571
704825.1099953004159 7059404.6879919553176 33.645585668971989435
704826.1279870554572 7059404.5019778413698 33.644840912326117177
704826.54101301380433 7059404.5990222766995 33.644224354813331956
704828.26099261292256 7059405.3299873536453 33.641061172168406301
704828.63200675719418 7059405.5050115659833 33.640347230511792986
704828.5250124570448 7059405.9220213247463 33.63970118112365526
704831.12578812881839 7059401.010466940701 34.20225403872973402
704830.14019220275804 7059400.7123725209385 34.206975818688079016
704828.70433963113464 7059400.2712514922023 34.213637897622902528
704819.82130767614581 7059397.3515258030966 34.248815124050452141
704817.51184840325732 7059396.3741302173585 34.25104779755929485
704818.54598947521299 7059396.3450231952593 34.235267489064426627
704820.44490156602114 7059396.9060130519792 34.225747853592110914
704831.02429209568072 7059400.3983562542126 34.184329492580218357
704812.83047490182798 7059409.8276979653165 37.301745028627919964
704812.73099151055794 7059410.045077146031 36.951467148057417944
704812.52860016422346 7059410.9702720120549 35.564028248874819838
704812.43777488998603 7059411.5709831416607 34.682175228430423886
704813.68894848483615 7059412.2667654724792 34.295242627704283223
704816.75632934679743 7059413.3165501356125 34.263254940509796143
704825.46423992456403 7059416.198115022853 34.310277851545833983
704825.64967550383881 7059416.2474643588066 34.328065942827379331
704826.02825473761186 7059416.2724462365732 34.470251434337114915
704826.98133600945584 7059414.3280222164467 37.633006195974303409
704817.86789295799099 7059411.3135268893093 37.582024828647263348
704816.00925202551298 7059410.7091953996569 37.557012233199202456
704812.70881285716314 7059409.8854826185852 26.35909908402027213
704812.41799780190922 7059411.1971517587081 26.35149347089100047
704812.20115599653218 7059411.415824951604 26.34760929249387118
704811.32714918686543 7059411.9581288369372 26.332751546116924146
704808.39887227059808 7059411.120019341819 26.289219659567606868
704807.64131585264113 7059410.8741035982966 26.278026254425640218
704805.80604593711905 7059410.2209930438548 26.251043859687342774
704805.20725857350044 7059409.95696084667 26.242360280382854398
704804.75450039946008 7059409.606075652875 26.236150299191649538
704804.75511477189139 7059409.4129826202989 26.236614212870335905
704804.90493087808136 7059409.1980104669929 26.239448134670965374
704811.0074223926058 7059408.6692388914526 26.335522219618724193
704811.81245074269827 7059408.8112345989794 26.347697850069380365
704816.00699518492911 7059398.2397992908955 31.834022784569242503
704815.72654205991421 7059398.2219329783693 31.838362203432552633
704815.5600269655697 7059398.2038861773908 31.840274126569056534
704812.10687672731001 7059397.4350782707334 31.844675920816371217
704812.31434874620754 7059396.5305279297754 31.75947836552222725
704812.50871230196208 7059396.486214382574 31.751406192868671496
704814.80485285457689 7059396.9366211052984 31.743047333889990114
704815.5045500950655 7059397.2696780292317 31.757992157066837535
704816.11687475908548 7059397.9250865774229 31.803582919941618457
704821.24400211707689 7059415.3649937966838 34.221373337626516786
704820.76801680563949 7059415.2369507532567 34.221335424372284706
704816.20199049613439 7059413.7480278508738 34.221259107364630836
704815.49297467514407 7059413.4630742128938 34.221306525021873313
704814.1950002212543 7059412.9239993542433 34.221412537064963999
704813.96100540529005 7059412.6429841602221 34.221634344188714749
704814.22299253626261 7059412.5490218736231 34.221836523627530369
704814.54503161227331 7059412.5259073628113 34.221983180784320666
704816.68394469725899 7059413.2591620618477 34.221979476686499311
704821.62200755579397 7059414.9989778585732 34.221919139503370388
704816.27177142922301 7059397.4098354214802 26.380329670930223074
704815.84392641438171 7059397.373166853562 26.390112569297343725
704809.51510503934696 7059394.58267401997 26.349077292325091548
704809.62544953019824 7059394.0914825974032 26.305188237547554309
704810.31081303523388 7059393.6737568015233 26.250149228435475379
704811.51109791407362 7059393.9939708076417 26.240662030762905488
704813.8091999044409 7059394.7544484538957 26.234675300740491366
704816.21612889831886 7059395.6586443642154 26.237304228587163379
704816.4901551468065 7059395.7685719421133 26.238180734042543918
704817.11912527575623 7059397.0248591434211 26.323145475311321206
704816.68454568006564 7059397.262458274141 26.355791359703289345
704811.93014367308933 7059408.4866758985445 31.791276846430264413
704809.28215536219068 7059407.7173936963081 31.75605983633431606
704808.74757413670886 7059407.4797048456967 31.756121767808508594
704808.61412482708693 7059407.3882067482919 31.75893703239489696
704809.05170323851053 7059406.4516927711666 31.857346675777080236
704809.24047374923248 7059406.1099546290934 31.894379589299205691
704812.85623958439101 7059407.9982270346954 31.869533666489587631
704813.01573631656356 7059408.1685248427093 31.860864001089794328
704812.60696733568329 7059408.3685853499919 31.827674651693087071
704812.5537612909684 7059408.3870501527563 31.824014113088196609
704826.09436442807782 7059411.1418359261006 33.613139895019230607
704822.76559876604006 7059411.1088722394779 33.5871516782008257
704822.39167954714503 7059411.0465058833361 33.593537769562317408
704821.11190716864076 7059410.6785701820627 33.639898887096933322
704818.3858401379548 7059409.5416183434427 33.794679730270217988
704818.06981709052343 7059409.3120081759989 33.828137343183698249
704818.49924923444632 7059408.2976987315342 33.993056488779984647
704818.78232809819747 7059408.2413648013026 34.004646997062991431
704821.8356563069392 7059408.9238989697769 33.92501590406664036
704822.96910176088568 7059409.2903643958271 33.877515758465051476
704825.84534085320774 7059410.4831490581855 33.715286898040176311
704809.43863188964315 7059405.3597322963178 31.762247841048520058
704809.89115137478802 7059405.181680591777 31.777478949341457337
704810.17826394399162 7059404.8533465769142 31.783940076376893558
704810.37235267239157 7059404.6110035898164 31.788004619942512363
704810.6306758383289 7059403.8708779914305 31.787204625259619206
704811.89047611737624 7059399.4353083558381 31.771018473955336958
704812.08489108085632 7059398.7040881551802 31.767825920222094283
704812.03206044901162 7059398.6396463699639 31.764780301818973385
704811.79601710278075 7059398.3573828209192 31.751256837189430371
704811.32837305520661 7059398.8131404118612 31.739557866923860274
704811.09322579344735 7059399.108837752603 31.734664536954369396
704809.60053287597839 7059404.0732005666941 31.749512755166506395
704822.38012466148939 7059410.2717697853222 35.512808224564651027
704821.76535009255167 7059410.0583534762263 35.515353234756730672
704821.16399827261921 7059409.8030031882226 35.516850234233061201
704818.70914852875285 7059408.7097257077694 35.521877533411498007
704818.88266742322594 7059408.4416141761467 35.514165402064463706
704819.26781342586037 7059408.446344550699 35.509823906101701141
704819.40485333825927 7059408.4482708433643 35.508284325263048231
704819.52424465096556 7059408.4625481972471 35.507211379973341536
704822.42845231422689 7059409.3311647009104 35.492215933744773793
704822.51874839002267 7059409.519464654848 35.495185251558723394
704807.66731075686403 7059405.9165781596676 26.045615110313519835
704808.10775040811859 7059406.0468677319586 26.191244866116903722
704808.62209367996547 7059406.193032508716 26.360687590204179287
704809.38062976091169 7059405.1466660387814 26.479257534607313573
704812.16817101661582 7059396.1632100148126 26.380301777506247163
704812.08555225213058 7059395.6253103781492 26.299552559503354132
704811.72506791120395 7059395.4042473118752 26.168452374171465635
704810.39215060905553 7059396.7210750905797 25.905791483819484711
704807.82994132814929 7059405.2935093222186 26.029544222517870367
704805.59181280178018 7059406.697630411014 26.130241364473477006
704805.71033744746819 7059406.9111389126629 26.420678965747356415
704805.96792367403395 7059406.9424428027123 26.832983688684180379
704806.0822843904607 7059406.6657573990524 26.869036767864599824
704806.74939188617282 7059404.9568413356319 27.031335173873230815
704807.58642286830582 7059401.6892724130303 26.666695349849760532
704807.28482181811705 7059401.8848574198782 26.301421149633824825
704806.01104488689452 7059405.4353220108896 26.136943868827074766
704805.81004733382724 7059405.9985682694241 26.112505188211798668
704815.04790493741166 7059404.5012912554666 37.477588657115120441
704814.64020109013654 7059404.7543642893434 36.944467098408495076
704814.30796716420446 7059405.8120464729145 35.34264787744905334
704814.3989862886956 7059406.265977458097 34.761845092114526778
704816.45279925479554 7059407.2056752191857 34.411195288426824845
704816.91541617247276 7059407.3847473813221 34.376898264425108209
704824.54904939758126 7059409.8888082224876 34.429038441114244051
704827.74898807646241 7059410.9189691953361 34.477650952685507946
704828.57294878060929 7059409.8112522726879 36.372579813105403446
704828.25475491897669 7059409.1197040956467 37.175444313543266617
704827.10640522127505 7059408.5657455120236 37.410639556153910235
704825.8794661895372 7059408.1435740171 37.429266919891233556
704824.60806292074267 7059407.7107849912718 37.44215016947418917
704807.38440433656797 7059400.9313132427633 26.120383454253897071
704807.23960742726922 7059401.7865592353046 26.324537456966936588
704807.53420250117779 7059401.793233146891 26.672524284571409225
704807.71495402022265 7059401.7367494972423 26.859560764161869884
704808.1986744357273 7059401.4598023481667 27.305128939915448427
704808.89351076516323 7059399.9361853413284 27.453164787497371435
704810.28881558030844 7059394.8661671532318 26.871835514204576612
704810.03704017028213 7059394.8759261742234 26.581186483148485422
704809.8059262256138 7059394.8859698623419 26.31486340262927115
704809.43845552066341 7059395.0240454431623 25.944773125695064664
704809.66778644081205 7059403.4647348187864 26.337618718344856461
704808.8997445841087 7059403.6956828441471 26.333443882085703081
704807.06372075318359 7059406.8888949789107 26.351912883042132307
704806.69527769403066 7059407.9611030938104 26.360266123376277392
704806.77834777918179 7059408.258190119639 26.364186821667317417
704808.09166745655239 7059408.8183453446254 26.381613183995796135
704809.03677122516092 7059409.2159576499835 26.394094553454124252
704809.20211365749128 7059409.2243828577921 26.395619596917640592
704809.61370015062857 7059409.0736276702955 26.397566103636563639
704815.4682791858213 7059399.2634038729593 31.479548230476211756
704814.80883755779359 7059399.1494604777545 31.433286550818593241
704813.06189165648539 7059398.7613800894469 31.341803388626431115
704812.61210298794322 7059398.039652923122 31.542296807514503598
704812.4739399967948 7059397.646624116227 31.665617381368065253
704812.69228640513029 7059397.4224994368851 31.775284764531534165
704813.17649666231591 7059397.4756484823301 31.820249089199933223
704815.15018516452983 7059398.2171205608174 31.814422523078974336
704815.87209138239268 7059398.5394725268707 31.793862094564246945
704828.47482733079232 7059408.4539570054039 37.457226056736544706
704826.64186012768187 7059408.0440455144271 37.7303463601419935
704823.92127509554848 7059407.1618094155565 37.758067429982475005
704815.51361764210742 7059404.209619323723 37.532395488669862971
704814.98390895675402 7059403.7298531495035 37.113011360270320438
704815.13680858619045 7059402.519411591813 35.373628491215640679
704815.62003063806333 7059402.1724260812625 34.674021707149222493
704815.90693419333547 7059402.0676498580724 34.398273581871762872
704817.4373902019579 7059402.5643118815497 34.383179915108485147
704828.92778840148821 7059406.4030059529468 34.421353010489838198
704829.09841634274926 7059406.6933534517884 34.74374837864888832
704829.10631852201186 7059406.7495580958202 34.817651046163518913
704829.11926705250517 7059407.2447516089305 35.494698643509764224
704828.85813654132653 7059407.9069043342024 36.527390699804527685
704830.26375315745827 7059403.1060210810974 37.419273910403717309
704829.72118894685991 7059402.9403491765261 37.441250081261387095
704827.37703220266849 7059402.1986325215548 37.500426853759563528
704817.94393827067688 7059399.0468268487602 37.508064336841925979
704816.60063665651251 7059398.3095294414088 37.111174231307813898
704816.5283750644885 7059397.9964971924201 36.712679079661029391
704816.83965840144083 7059396.9415150415152 35.11347122787265107
704817.02770575834438 7059396.5115091884509 34.433395225365529768
704817.30162658600602 7059396.5665348675102 34.38282125124533195
704819.63386923552025 7059397.2746989382431 34.282856459161848761
704822.84955634304788 7059398.3093501618132 34.225370394095079973
704825.13768680905923 7059399.1083672726527 34.271117255120771006
704830.171610408579 7059400.8717804849148 34.379435587601619773
704830.79252238594927 7059401.1926858900115 34.535442984124529175
704830.86113985301927 7059401.2371999248862 34.565169709268957376
704830.44147782737855 7059402.8868560073897 37.034843245564843528
704825.9360053059645 7059413.545240602456 37.482975690931198187
704821.52375787985511 7059412.1020318977535 37.510900912238867022
704814.98278726264834 7059409.9073546351865 37.475929563224781305
704813.82306245248765 7059409.5052645234391 37.451778643415309489
704813.1865007460583 7059409.1682788869366 37.27759104227880016
704812.9883900124114 7059408.9704278400168 37.094706454357947223
704813.51134748803452 7059407.5007107844576 34.820614318232401274
704813.54922282882035 7059407.4640715504065 34.752521318441722542
704813.82592372654472 7059407.5069092074409 34.684797710651764646
704814.86175025370903 7059407.6851303623989 34.455991395661840215
704815.38129317294806 7059407.8126745382324 34.394031222997000441
704826.57955647364724 7059411.2675523795187 34.035319927003001794
704827.20708823762834 7059412.062462261878 34.84740668126323726
704826.88831128063612 7059413.6024539070204 37.125035057601053268
4 0 1 2 3 151 47 171 255
11 4 5 6 7 8 9 10 11 12 13 14 104 165 85 255
13 15 16 17 18 19 20 21 22 23 24 25 26 27 57 123 160 255
10 28 29 30 31 32 33 34 35 36 37 170 81 74 255
4 38 39 40 41 122 40 149 255
4 42 43 44 45 75 158 63 255
4 46 47 48 49 188 116 138 255
4 50 51 52 53 141 74 52 255
4 54 55 56 57 93 32 127 255
4 58 59 60 61 46 150 41 255
4 62 63 64 65 159 108 116 255
4 66 67 68 69 112 67 190 255
4 70 71 72 73 64 185 105 255
14 74 75 76 77 78 79 80 81 82 83 84 85 86 87 177 143 179 255
14 88 89 90 91 92 93 94 95 96 97 98 99 100 101 130 101 94 255
12 102 103 104 105 106 107 108 109 110 111 112 113 83 59 168 255
11 114 115 116 117 118 119 120 121 122 123 124 35 177 83 255
19 125 126 127 128 129 130 131 132 133 134 135 136 137 138 139 140 141 142 143 148 135 157 255
10 144 145 146 147 148 149 150 151 152 153 101 94 71 255
13 154 155 156 157 158 159 160 161 162 163 164 165 166 53 52 146 255
8 167 168 169 170 171 172 173 174 166 170 60 255
8 175 176 177 178 179 180 181 182 119 128 135 255
12 183 184 185 186 187 188 189 190 191 192 193 194 72 86 49 255
13 195 196 197 198 199 200 201 202 203 204 205 206 207 184 44 124 255
9 208 209 210 211 212 213 214 215 216 137 163 38 255
10 217 218 219 220 221 222 223 224 225 226 90 121 113 255
11 227 228 229 230 231 232 233 234 235 236 237 43 79 187 255
10 238 239 240 241 242 243 244 245 246 247 155 37 102 255
11 248 249 250 251 252 253 254 255 256 257 258 108 155 176 255
12 259 260 261 262 263 264 265 266 267 268 269 270 61 113 91 255
10 271 272 273 274 275 276 277 278 279 280 174 71 165 255
9 281 282 283 284 285 286 287 288 289 126 190 80 255
9 290 291 292 293 294 295 296 297 298 79 148 154 255
13 299 300 301 302 303 304 305 306 307 308 309 310 311 32 106 69 255
10 312 313 314 315 316 317 318 319 320 321 144 64 143 255
9 322 323 324 325 326 327 328 329 330 97 182 58 255
9 331 332 333 334 335 336 337 338 339 50 140 132 255
14 340 341 342 343 344 345 346 347 348 349 350 351 352 353 163 99 47 255
16 354 355 356 357 358 359 360 361 362 363 364 365 366 367 368 369 115 57 121 255
14 370 371 372 373 374 375 376 377 378 379 380 381 382 383 68 175 36 255
