/* XPM */
static char * flip_xpm[] = {
"40 40 3 1",
" 	c None",
".	c #000000000000",
"X	c #FFFF00000000",
"                                        ",
"                                        ",
"                                        ",
"                                        ",
"                                        ",
"                         .........      ",
"                          ........      ",
"                           .......      ",
"                            ......      ",
"                            ......      ",
"      X                    .......      ",
"     XX                   ...  ...      ",
"    XXXXXX               ...    ..      ",
"    XXXXXXXXX           ...      .      ",
"     XX   XXXXX        ...              ",
"      X      XXXX     ...               ",
"               XXX   ...                ",
"                 XXX...                 ",
"                  XXX.                  ",
"                  ..XX                  ",
"                 ... XX                 ",
"                ...   XX                ",
"               ...     XX               ",
"              ...      XX               ",
"             ...        XX              ",
"            ...          XX             ",
"           ...           XX             ",
"          ...             XX            ",
"         ...              XX            ",
"        ...                XX           ",
"       ...                 XX           ",
"      ...                  XX           ",
"     ...                   XX           ",
"    ...                                 ",
"   ...          ....  .     .  ...      ",
"  ...           .     .     .  .  .     ",
"   .            ...   .     .  ...      ",
"                .     .     .  .        ",
"                .     ....  .  .        ",
"                                        "};
