/* XPM */
static const char *faces[] = {
/* width height ncolors chars_per_pixel */
"32 32 4 1",
/* colors */
"  c #00FF00",
". c #FF00FF",
"X c None",
"o c None",
/* pixels */
"XXXXXXXXXXXXXXXXXXXXXXXXXXXXXXXX",
"XXXXXXXXXXXXXXXXXXXXXXXXXXXXXXXX",
"XXXXXXXXXXXXXXXXXXXXXXXXXXXXXXXX",
"XXXX XXXXXXXXXXXXXXXXXXXXXXXXXXX",
"XXXX  XXXXXXXXXXXXXXXXXXXXXXXXXX",
"XXXX   XXXXXXXXXXXXXXXXXXXXXXXXX",
"XXXX    XXXXXXXXXXXXXXXXXXXXXXXX",
"XXXX     XXXXXXXXXXXXXXXXXXXXXXX",
"XXXX      XXXXXXXXXXXXXXXXXXXXXX",
"XXXX       .............XXXXXXXX",
"XXXX        ............XXXXXXXX",
"XXXX         ...........XXXXXXXX",
"XXXX          ..........XXXXXXXX",
"XXXX           .........XXXXXXXX",
"XXXX            ........XXXXXXXX",
"XXXX             .......XXXXXXXX",
"XXXX              ......XXXXXXXX",
"XXXX               .....XXXXXXXX",
"XXXX                ....XXXXXXXX",
"XXXX                 ...XXXXXXXX",
"XXXX                  ..XXXXXXXX",
"XXXX                   .XXXXXXXX",
"XXXX                    XXXXXXXX",
"XXXX                     XXXXXXX",
"XXXX                      XXXXXX",
"XXXX                       XXXXX",
"XXXX                        XXXX",
"XXXX                         XXX",
"XXXXXXXXXXXXXXXXXXXXXXXXXXXXXXXX",
"XXXXXXXXXXXXXXXXXXXXXXXXXXXXXXXX",
"XXXXXXXXXXXXXXXXXXXXXXXXXXXXXXXX",
"XXXXXXXXXXXXXXXXXXXXXXXXXXXXXXXX"
};
