/* XPM */
static const char * vertices_icon[] = {
/* width height ncolors chars_per_pixel */
"32 32 3 1",
/* colors */
"  c #FF0000",
". c None",
"X c None",
/* pixels */
"................................",
"........................... ....",
"............. ............   ...",
".. .........   ............ ....",
".   ......... ..................",
".. .............................",
"...................... .........",
"...... ..............   ........",
".....   ....... ...... .........",
"...... .......   ...............",
"............... ............ ...",
"...........................   ..",
"............................ ...",
"......... ......................",
"........   .....................",
"... ..... ......................",
"..   ............ ..............",
"... ............   .............",
"................. ........ .....",
".........................   ....",
".......................... .....",
"................................",
"................................",
"....... ........ ...............",
"......   ......   ..............",
"....... ........ ...............",
"................................",
"..................... ...... ...",
"... ......... ......   ....   ..",
"..   .......   ...... ...... ...",
"... ......... ..................",
"................................"
};
