<?xml version="1.0" encoding="UTF-8"?>
<svg xmlns="http://www.w3.org/2000/svg" xmlns:xlink="http://www.w3.org/1999/xlink" width="379pt" height="379pt" viewBox="0 0 379 379" version="1.1">
<g id="surface1">
<path style="fill:none;stroke-width:0.8;stroke-linecap:butt;stroke-linejoin:round;stroke:rgb(66.3%,66.3%,66.3%);stroke-opacity:1;stroke-miterlimit:10;" d="M 302.146875 417.853125 L 270.146875 385.853125 " transform="matrix(1,0,0,-1,-132.6,443.4)"/>
<path style="fill:none;stroke-width:0.8;stroke-linecap:butt;stroke-linejoin:round;stroke:rgb(66.3%,66.3%,66.3%);stroke-opacity:1;stroke-miterlimit:10;" d="M 302.146875 417.853125 L 331.998438 388.001562 " transform="matrix(1,0,0,-1,-132.6,443.4)"/>
<path style="fill:none;stroke-width:0.8;stroke-linecap:butt;stroke-linejoin:round;stroke:rgb(66.3%,66.3%,66.3%);stroke-opacity:1;stroke-miterlimit:10;" d="M 301.998438 422.001562 L 302.146875 417.853125 " transform="matrix(1,0,0,-1,-132.6,443.4)"/>
<path style="fill:none;stroke-width:0.8;stroke-linecap:butt;stroke-linejoin:round;stroke:rgb(66.3%,66.3%,66.3%);stroke-opacity:1;stroke-miterlimit:10;" d="M 332.057031 213.786719 L 317.514063 219.966406 " transform="matrix(1,0,0,-1,-132.6,443.4)"/>
<path style="fill:none;stroke-width:0.8;stroke-linecap:butt;stroke-linejoin:round;stroke:rgb(66.3%,66.3%,66.3%);stroke-opacity:1;stroke-miterlimit:10;" d="M 332.057031 213.786719 L 343.998438 176.001562 " transform="matrix(1,0,0,-1,-132.6,443.4)"/>
<path style="fill:none;stroke-width:0.8;stroke-linecap:butt;stroke-linejoin:round;stroke:rgb(66.3%,66.3%,66.3%);stroke-opacity:1;stroke-miterlimit:10;" d="M 343.322656 344.505469 L 388.873438 343.126562 " transform="matrix(1,0,0,-1,-132.6,443.4)"/>
<path style="fill:none;stroke-width:0.8;stroke-linecap:butt;stroke-linejoin:round;stroke:rgb(66.3%,66.3%,66.3%);stroke-opacity:1;stroke-miterlimit:10;" d="M 299.998438 132.001562 L 343.998438 176.001562 " transform="matrix(1,0,0,-1,-132.6,443.4)"/>
<path style="fill:none;stroke-width:0.8;stroke-linecap:butt;stroke-linejoin:round;stroke:rgb(66.3%,66.3%,66.3%);stroke-opacity:1;stroke-miterlimit:10;" d="M 279.334375 163.333594 L 299.998438 132.001562 " transform="matrix(1,0,0,-1,-132.6,443.4)"/>
<path style="fill:none;stroke-width:0.8;stroke-linecap:butt;stroke-linejoin:round;stroke:rgb(66.3%,66.3%,66.3%);stroke-opacity:1;stroke-miterlimit:10;" d="M 251.650781 199.833594 L 269.822656 218.009375 " transform="matrix(1,0,0,-1,-132.6,443.4)"/>
<path style="fill:none;stroke-width:0.8;stroke-linecap:butt;stroke-linejoin:round;stroke:rgb(66.3%,66.3%,66.3%);stroke-opacity:1;stroke-miterlimit:10;" d="M 251.650781 199.833594 L 279.334375 163.333594 " transform="matrix(1,0,0,-1,-132.6,443.4)"/>
<path style="fill:none;stroke-width:0.8;stroke-linecap:butt;stroke-linejoin:round;stroke:rgb(66.3%,66.3%,66.3%);stroke-opacity:1;stroke-miterlimit:10;" d="M 251.650781 199.833594 L 269.822656 218.009375 " transform="matrix(1,0,0,-1,-132.6,443.4)"/>
<path style="fill:none;stroke-width:0.8;stroke-linecap:butt;stroke-linejoin:round;stroke:rgb(66.3%,66.3%,66.3%);stroke-opacity:1;stroke-miterlimit:10;" d="M 251.650781 199.833594 L 234.475 222.474219 " transform="matrix(1,0,0,-1,-132.6,443.4)"/>
<path style="fill:none;stroke-width:0.8;stroke-linecap:butt;stroke-linejoin:round;stroke:rgb(66.3%,66.3%,66.3%);stroke-opacity:1;stroke-miterlimit:10;" d="M 164.498437 267.501562 L 200.498437 303.501562 " transform="matrix(1,0,0,-1,-132.6,443.4)"/>
<path style="fill:none;stroke-width:0.8;stroke-linecap:butt;stroke-linejoin:round;stroke:rgb(66.3%,66.3%,66.3%);stroke-opacity:1;stroke-miterlimit:10;" d="M 164.498437 267.501562 L 160.373437 267.626562 " transform="matrix(1,0,0,-1,-132.6,443.4)"/>
<path style="fill:none;stroke-width:0.8;stroke-linecap:butt;stroke-linejoin:round;stroke:rgb(66.3%,66.3%,66.3%);stroke-opacity:1;stroke-miterlimit:10;" d="M 187.998437 244.001562 L 223.998437 280.001562 " transform="matrix(1,0,0,-1,-132.6,443.4)"/>
<path style="fill:none;stroke-width:0.8;stroke-linecap:butt;stroke-linejoin:round;stroke:rgb(66.3%,66.3%,66.3%);stroke-opacity:1;stroke-miterlimit:10;" d="M 187.998437 244.001562 L 164.498437 267.501562 " transform="matrix(1,0,0,-1,-132.6,443.4)"/>
<path style="fill:none;stroke-width:0.8;stroke-linecap:butt;stroke-linejoin:round;stroke:rgb(66.3%,66.3%,66.3%);stroke-opacity:1;stroke-miterlimit:10;" d="M 210.963281 243.001562 L 245.963281 278.001562 " transform="matrix(1,0,0,-1,-132.6,443.4)"/>
<path style="fill:none;stroke-width:0.8;stroke-linecap:butt;stroke-linejoin:round;stroke:rgb(66.3%,66.3%,66.3%);stroke-opacity:1;stroke-miterlimit:10;" d="M 210.963281 243.001562 L 187.998437 244.001562 " transform="matrix(1,0,0,-1,-132.6,443.4)"/>
<path style="fill:none;stroke-width:0.8;stroke-linecap:butt;stroke-linejoin:round;stroke:rgb(66.3%,66.3%,66.3%);stroke-opacity:1;stroke-miterlimit:10;" d="M 319.826563 321.009375 L 343.322656 344.505469 " transform="matrix(1,0,0,-1,-132.6,443.4)"/>
<path style="fill:none;stroke-width:0.8;stroke-linecap:butt;stroke-linejoin:round;stroke:rgb(66.3%,66.3%,66.3%);stroke-opacity:1;stroke-miterlimit:10;" d="M 375.31875 291.317969 L 319.826563 321.009375 " transform="matrix(1,0,0,-1,-132.6,443.4)"/>
<path style="fill:none;stroke-width:0.8;stroke-linecap:butt;stroke-linejoin:round;stroke:rgb(66.3%,66.3%,66.3%);stroke-opacity:1;stroke-miterlimit:10;" d="M 367.998438 236.001562 L 401.998438 270.001562 " transform="matrix(1,0,0,-1,-132.6,443.4)"/>
<path style="fill:none;stroke-width:0.8;stroke-linecap:butt;stroke-linejoin:round;stroke:rgb(66.3%,66.3%,66.3%);stroke-opacity:1;stroke-miterlimit:10;" d="M 323.361719 283.360937 L 291.998438 252.001562 " transform="matrix(1,0,0,-1,-132.6,443.4)"/>
<path style="fill:none;stroke-width:0.8;stroke-linecap:butt;stroke-linejoin:round;stroke:rgb(66.3%,66.3%,66.3%);stroke-opacity:1;stroke-miterlimit:10;" d="M 323.361719 283.360937 L 367.998438 236.001562 " transform="matrix(1,0,0,-1,-132.6,443.4)"/>
<path style="fill:none;stroke-width:0.8;stroke-linecap:butt;stroke-linejoin:round;stroke:rgb(66.3%,66.3%,66.3%);stroke-opacity:1;stroke-miterlimit:10;" d="M 323.361719 283.360937 L 291.998438 252.001562 " transform="matrix(1,0,0,-1,-132.6,443.4)"/>
<path style="fill:none;stroke-width:0.8;stroke-linecap:butt;stroke-linejoin:round;stroke:rgb(66.3%,66.3%,66.3%);stroke-opacity:1;stroke-miterlimit:10;" d="M 297.0375 298.220312 L 319.826563 321.009375 " transform="matrix(1,0,0,-1,-132.6,443.4)"/>
<path style="fill:none;stroke-width:0.8;stroke-linecap:butt;stroke-linejoin:round;stroke:rgb(66.3%,66.3%,66.3%);stroke-opacity:1;stroke-miterlimit:10;" d="M 297.0375 298.220312 L 323.361719 283.360937 " transform="matrix(1,0,0,-1,-132.6,443.4)"/>
<path style="fill:none;stroke-width:0.8;stroke-linecap:butt;stroke-linejoin:round;stroke:rgb(66.3%,66.3%,66.3%);stroke-opacity:1;stroke-miterlimit:10;" d="M 297.0375 298.220312 L 288.240625 298.892187 " transform="matrix(1,0,0,-1,-132.6,443.4)"/>
<path style="fill:none;stroke-width:0.8;stroke-linecap:butt;stroke-linejoin:round;stroke:rgb(66.3%,66.3%,66.3%);stroke-opacity:1;stroke-miterlimit:10;" d="M 345.826563 213.825781 L 367.998438 236.001562 " transform="matrix(1,0,0,-1,-132.6,443.4)"/>
<path style="fill:none;stroke-width:0.8;stroke-linecap:butt;stroke-linejoin:round;stroke:rgb(66.3%,66.3%,66.3%);stroke-opacity:1;stroke-miterlimit:10;" d="M 381.420313 222.579687 L 401.998438 270.001562 " transform="matrix(1,0,0,-1,-132.6,443.4)"/>
<path style="fill:none;stroke-width:0.8;stroke-linecap:butt;stroke-linejoin:round;stroke:rgb(66.3%,66.3%,66.3%);stroke-opacity:1;stroke-miterlimit:10;" d="M 345.826563 213.825781 L 381.420313 222.579687 " transform="matrix(1,0,0,-1,-132.6,443.4)"/>
<path style="fill:none;stroke-width:0.8;stroke-linecap:butt;stroke-linejoin:round;stroke:rgb(66.3%,66.3%,66.3%);stroke-opacity:1;stroke-miterlimit:10;" d="M 345.826563 213.825781 L 332.057031 213.786719 " transform="matrix(1,0,0,-1,-132.6,443.4)"/>
<path style="fill:none;stroke-width:0.8;stroke-linecap:butt;stroke-linejoin:round;stroke:rgb(66.3%,66.3%,66.3%);stroke-opacity:1;stroke-miterlimit:10;" d="M 299.998438 356.001562 L 270.146875 385.853125 " transform="matrix(1,0,0,-1,-132.6,443.4)"/>
<path style="fill:none;stroke-width:0.8;stroke-linecap:butt;stroke-linejoin:round;stroke:rgb(66.3%,66.3%,66.3%);stroke-opacity:1;stroke-miterlimit:10;" d="M 299.998438 356.001562 L 331.998438 388.001562 " transform="matrix(1,0,0,-1,-132.6,443.4)"/>
<path style="fill:none;stroke-width:0.8;stroke-linecap:butt;stroke-linejoin:round;stroke:rgb(66.3%,66.3%,66.3%);stroke-opacity:1;stroke-miterlimit:10;" d="M 407.998438 276.001562 L 375.31875 291.317969 " transform="matrix(1,0,0,-1,-132.6,443.4)"/>
<path style="fill:none;stroke-width:0.8;stroke-linecap:butt;stroke-linejoin:round;stroke:rgb(66.3%,66.3%,66.3%);stroke-opacity:1;stroke-miterlimit:10;" d="M 407.998438 276.001562 L 439.998438 276.001562 " transform="matrix(1,0,0,-1,-132.6,443.4)"/>
<path style="fill:none;stroke-width:0.8;stroke-linecap:butt;stroke-linejoin:round;stroke:rgb(66.3%,66.3%,66.3%);stroke-opacity:1;stroke-miterlimit:10;" d="M 407.998438 276.001562 L 401.998438 270.001562 " transform="matrix(1,0,0,-1,-132.6,443.4)"/>
<path style="fill:none;stroke-width:0.8;stroke-linecap:butt;stroke-linejoin:round;stroke:rgb(66.3%,66.3%,66.3%);stroke-opacity:1;stroke-miterlimit:10;" d="M 239.584375 284.583594 L 223.998437 280.001562 " transform="matrix(1,0,0,-1,-132.6,443.4)"/>
<path style="fill:none;stroke-width:0.8;stroke-linecap:butt;stroke-linejoin:round;stroke:rgb(66.3%,66.3%,66.3%);stroke-opacity:1;stroke-miterlimit:10;" d="M 245.963281 278.001562 L 239.584375 284.583594 " transform="matrix(1,0,0,-1,-132.6,443.4)"/>
<path style="fill:none;stroke-width:0.8;stroke-linecap:butt;stroke-linejoin:round;stroke:rgb(66.3%,66.3%,66.3%);stroke-opacity:1;stroke-miterlimit:10;" d="M 341.404688 345.403906 L 331.998438 388.001562 " transform="matrix(1,0,0,-1,-132.6,443.4)"/>
<path style="fill:none;stroke-width:0.8;stroke-linecap:butt;stroke-linejoin:round;stroke:rgb(66.3%,66.3%,66.3%);stroke-opacity:1;stroke-miterlimit:10;" d="M 343.322656 344.505469 L 341.404688 345.403906 " transform="matrix(1,0,0,-1,-132.6,443.4)"/>
<path style="fill:none;stroke-width:0.8;stroke-linecap:butt;stroke-linejoin:round;stroke:rgb(66.3%,66.3%,66.3%);stroke-opacity:1;stroke-miterlimit:10;" d="M 257.94375 289.982031 L 245.963281 278.001562 " transform="matrix(1,0,0,-1,-132.6,443.4)"/>
<path style="fill:none;stroke-width:0.8;stroke-linecap:butt;stroke-linejoin:round;stroke:rgb(66.3%,66.3%,66.3%);stroke-opacity:1;stroke-miterlimit:10;" d="M 288.240625 298.892187 L 268.236719 324.235937 " transform="matrix(1,0,0,-1,-132.6,443.4)"/>
<path style="fill:none;stroke-width:0.8;stroke-linecap:butt;stroke-linejoin:round;stroke:rgb(66.3%,66.3%,66.3%);stroke-opacity:1;stroke-miterlimit:10;" d="M 244.338281 300.3375 L 257.94375 289.982031 " transform="matrix(1,0,0,-1,-132.6,443.4)"/>
<path style="fill:none;stroke-width:0.8;stroke-linecap:butt;stroke-linejoin:round;stroke:rgb(66.3%,66.3%,66.3%);stroke-opacity:1;stroke-miterlimit:10;" d="M 249.853906 318.607031 L 244.338281 300.3375 " transform="matrix(1,0,0,-1,-132.6,443.4)"/>
<path style="fill:none;stroke-width:0.8;stroke-linecap:butt;stroke-linejoin:round;stroke:rgb(66.3%,66.3%,66.3%);stroke-opacity:1;stroke-miterlimit:10;" d="M 268.236719 324.235937 L 249.853906 318.607031 " transform="matrix(1,0,0,-1,-132.6,443.4)"/>
<path style="fill:none;stroke-width:0.8;stroke-linecap:butt;stroke-linejoin:round;stroke:rgb(66.3%,66.3%,66.3%);stroke-opacity:1;stroke-miterlimit:10;" d="M 256.1625 339.525 L 268.236719 324.235937 " transform="matrix(1,0,0,-1,-132.6,443.4)"/>
<path style="fill:none;stroke-width:0.8;stroke-linecap:butt;stroke-linejoin:round;stroke:rgb(66.3%,66.3%,66.3%);stroke-opacity:1;stroke-miterlimit:10;" d="M 270.146875 385.853125 L 256.1625 339.525 " transform="matrix(1,0,0,-1,-132.6,443.4)"/>
<path style="fill:none;stroke-width:0.8;stroke-linecap:butt;stroke-linejoin:round;stroke:rgb(66.3%,66.3%,66.3%);stroke-opacity:1;stroke-miterlimit:10;" d="M 200.498437 303.501562 L 223.998437 280.001562 " transform="matrix(1,0,0,-1,-132.6,443.4)"/>
<path style="fill:none;stroke-width:0.8;stroke-linecap:butt;stroke-linejoin:round;stroke:rgb(66.3%,66.3%,66.3%);stroke-opacity:1;stroke-miterlimit:10;" d="M 257.94375 289.982031 L 288.240625 298.892187 " transform="matrix(1,0,0,-1,-132.6,443.4)"/>
<path style="fill:none;stroke-width:0.8;stroke-linecap:butt;stroke-linejoin:round;stroke:rgb(66.3%,66.3%,66.3%);stroke-opacity:1;stroke-miterlimit:10;" d="M 271.486719 215.485937 L 269.822656 218.009375 " transform="matrix(1,0,0,-1,-132.6,443.4)"/>
<path style="fill:none;stroke-width:0.8;stroke-linecap:butt;stroke-linejoin:round;stroke:rgb(66.3%,66.3%,66.3%);stroke-opacity:1;stroke-miterlimit:10;" d="M 308.775781 211.224219 L 271.486719 215.485937 " transform="matrix(1,0,0,-1,-132.6,443.4)"/>
<path style="fill:none;stroke-width:0.8;stroke-linecap:butt;stroke-linejoin:round;stroke:rgb(66.3%,66.3%,66.3%);stroke-opacity:1;stroke-miterlimit:10;" d="M 317.514063 219.966406 L 308.775781 211.224219 " transform="matrix(1,0,0,-1,-132.6,443.4)"/>
<path style="fill:none;stroke-width:0.8;stroke-linecap:butt;stroke-linejoin:round;stroke:rgb(66.3%,66.3%,66.3%);stroke-opacity:1;stroke-miterlimit:10;" d="M 304.869531 248.86875 L 317.514063 219.966406 " transform="matrix(1,0,0,-1,-132.6,443.4)"/>
<path style="fill:none;stroke-width:0.8;stroke-linecap:butt;stroke-linejoin:round;stroke:rgb(66.3%,66.3%,66.3%);stroke-opacity:1;stroke-miterlimit:10;" d="M 291.998438 252.001562 L 304.869531 248.86875 " transform="matrix(1,0,0,-1,-132.6,443.4)"/>
<path style="fill:none;stroke-width:0.8;stroke-linecap:butt;stroke-linejoin:round;stroke:rgb(66.3%,66.3%,66.3%);stroke-opacity:1;stroke-miterlimit:10;" d="M 244.338281 300.3375 L 239.584375 284.583594 " transform="matrix(1,0,0,-1,-132.6,443.4)"/>
<path style="fill:none;stroke-width:0.8;stroke-linecap:butt;stroke-linejoin:round;stroke:rgb(66.3%,66.3%,66.3%);stroke-opacity:1;stroke-miterlimit:10;" d="M 242.482812 325.845312 L 256.1625 339.525 " transform="matrix(1,0,0,-1,-132.6,443.4)"/>
<path style="fill:none;stroke-width:0.8;stroke-linecap:butt;stroke-linejoin:round;stroke:rgb(66.3%,66.3%,66.3%);stroke-opacity:1;stroke-miterlimit:10;" d="M 242.482812 325.845312 L 249.853906 318.607031 " transform="matrix(1,0,0,-1,-132.6,443.4)"/>
<path style="fill:none;stroke-width:0.8;stroke-linecap:butt;stroke-linejoin:round;stroke:rgb(66.3%,66.3%,66.3%);stroke-opacity:1;stroke-miterlimit:10;" d="M 242.482812 325.845312 L 256.1625 339.525 " transform="matrix(1,0,0,-1,-132.6,443.4)"/>
<path style="fill:none;stroke-width:0.8;stroke-linecap:butt;stroke-linejoin:round;stroke:rgb(66.3%,66.3%,66.3%);stroke-opacity:1;stroke-miterlimit:10;" d="M 242.482812 325.845312 L 223.998437 344.001562 " transform="matrix(1,0,0,-1,-132.6,443.4)"/>
<path style="fill:none;stroke-width:0.8;stroke-linecap:butt;stroke-linejoin:round;stroke:rgb(66.3%,66.3%,66.3%);stroke-opacity:1;stroke-miterlimit:10;" d="M 228.803125 312.165625 L 242.482812 325.845312 " transform="matrix(1,0,0,-1,-132.6,443.4)"/>
<path style="fill:none;stroke-width:0.8;stroke-linecap:butt;stroke-linejoin:round;stroke:rgb(66.3%,66.3%,66.3%);stroke-opacity:1;stroke-miterlimit:10;" d="M 228.803125 312.165625 L 244.338281 300.3375 " transform="matrix(1,0,0,-1,-132.6,443.4)"/>
<path style="fill:none;stroke-width:0.8;stroke-linecap:butt;stroke-linejoin:round;stroke:rgb(66.3%,66.3%,66.3%);stroke-opacity:1;stroke-miterlimit:10;" d="M 228.803125 312.165625 L 242.482812 325.845312 " transform="matrix(1,0,0,-1,-132.6,443.4)"/>
<path style="fill:none;stroke-width:0.8;stroke-linecap:butt;stroke-linejoin:round;stroke:rgb(66.3%,66.3%,66.3%);stroke-opacity:1;stroke-miterlimit:10;" d="M 228.803125 312.165625 L 200.498437 303.501562 " transform="matrix(1,0,0,-1,-132.6,443.4)"/>
<path style="fill:none;stroke-width:0.8;stroke-linecap:butt;stroke-linejoin:round;stroke:rgb(66.3%,66.3%,66.3%);stroke-opacity:1;stroke-miterlimit:10;" d="M 297.217188 333.107031 L 268.236719 324.235937 " transform="matrix(1,0,0,-1,-132.6,443.4)"/>
<path style="fill:none;stroke-width:0.8;stroke-linecap:butt;stroke-linejoin:round;stroke:rgb(66.3%,66.3%,66.3%);stroke-opacity:1;stroke-miterlimit:10;" d="M 297.217188 333.107031 L 299.998438 356.001562 " transform="matrix(1,0,0,-1,-132.6,443.4)"/>
<path style="fill:none;stroke-width:0.8;stroke-linecap:butt;stroke-linejoin:round;stroke:rgb(66.3%,66.3%,66.3%);stroke-opacity:1;stroke-miterlimit:10;" d="M 245.963281 278.001562 L 257.94375 289.982031 " transform="matrix(1,0,0,-1,-132.6,443.4)"/>
<path style="fill:none;stroke-width:0.8;stroke-linecap:butt;stroke-linejoin:round;stroke:rgb(66.3%,66.3%,66.3%);stroke-opacity:1;stroke-miterlimit:10;" d="M 270.25625 252.946875 L 245.963281 278.001562 " transform="matrix(1,0,0,-1,-132.6,443.4)"/>
<path style="fill:none;stroke-width:0.8;stroke-linecap:butt;stroke-linejoin:round;stroke:rgb(66.3%,66.3%,66.3%);stroke-opacity:1;stroke-miterlimit:10;" d="M 270.25625 252.946875 L 291.998438 252.001562 " transform="matrix(1,0,0,-1,-132.6,443.4)"/>
<path style="fill:none;stroke-width:0.8;stroke-linecap:butt;stroke-linejoin:round;stroke:rgb(66.3%,66.3%,66.3%);stroke-opacity:1;stroke-miterlimit:10;" d="M 270.25625 252.946875 L 269.822656 218.009375 " transform="matrix(1,0,0,-1,-132.6,443.4)"/>
<path style="fill:none;stroke-width:0.8;stroke-linecap:butt;stroke-linejoin:round;stroke:rgb(66.3%,66.3%,66.3%);stroke-opacity:1;stroke-miterlimit:10;" d="M 223.998437 344.001562 L 301.998438 422.001562 " transform="matrix(1,0,0,-1,-132.6,443.4)"/>
<path style="fill:none;stroke-width:0.8;stroke-linecap:butt;stroke-linejoin:round;stroke:rgb(66.3%,66.3%,66.3%);stroke-opacity:1;stroke-miterlimit:10;" d="M 319.826563 321.009375 L 297.0375 298.220312 " transform="matrix(1,0,0,-1,-132.6,443.4)"/>
<path style="fill:none;stroke-width:0.8;stroke-linecap:butt;stroke-linejoin:round;stroke:rgb(66.3%,66.3%,66.3%);stroke-opacity:1;stroke-miterlimit:10;" d="M 319.826563 321.009375 L 297.217188 333.107031 " transform="matrix(1,0,0,-1,-132.6,443.4)"/>
<path style="fill:none;stroke-width:0.8;stroke-linecap:butt;stroke-linejoin:round;stroke:rgb(66.3%,66.3%,66.3%);stroke-opacity:1;stroke-miterlimit:10;" d="M 319.826563 321.009375 L 343.322656 344.505469 " transform="matrix(1,0,0,-1,-132.6,443.4)"/>
<path style="fill:none;stroke-width:0.8;stroke-linecap:butt;stroke-linejoin:round;stroke:rgb(66.3%,66.3%,66.3%);stroke-opacity:1;stroke-miterlimit:10;" d="M 210.963281 243.001562 L 245.963281 278.001562 " transform="matrix(1,0,0,-1,-132.6,443.4)"/>
<path style="fill:none;stroke-width:0.8;stroke-linecap:butt;stroke-linejoin:round;stroke:rgb(66.3%,66.3%,66.3%);stroke-opacity:1;stroke-miterlimit:10;" d="M 210.963281 243.001562 L 234.475 222.474219 " transform="matrix(1,0,0,-1,-132.6,443.4)"/>
<path style="fill:none;stroke-width:0.8;stroke-linecap:butt;stroke-linejoin:round;stroke:rgb(66.3%,66.3%,66.3%);stroke-opacity:1;stroke-miterlimit:10;" d="M 301.998438 422.001562 L 280.998438 443.001562 " transform="matrix(1,0,0,-1,-132.6,443.4)"/>
<path style="fill:none;stroke-width:0.8;stroke-linecap:butt;stroke-linejoin:round;stroke:rgb(66.3%,66.3%,66.3%);stroke-opacity:1;stroke-miterlimit:10;" d="M 343.998438 176.001562 L 454.998438 65.001562 " transform="matrix(1,0,0,-1,-132.6,443.4)"/>
<path style="fill:none;stroke-width:0.8;stroke-linecap:butt;stroke-linejoin:round;stroke:rgb(66.3%,66.3%,66.3%);stroke-opacity:1;stroke-miterlimit:10;" d="M 388.873438 343.126562 L 488.748438 443.001562 " transform="matrix(1,0,0,-1,-132.6,443.4)"/>
<path style="fill:none;stroke-width:0.8;stroke-linecap:butt;stroke-linejoin:round;stroke:rgb(66.3%,66.3%,66.3%);stroke-opacity:1;stroke-miterlimit:10;" d="M 234.475 222.474219 L 132.998437 121.001562 " transform="matrix(1,0,0,-1,-132.6,443.4)"/>
<path style="fill:none;stroke-width:0.8;stroke-linecap:butt;stroke-linejoin:round;stroke:rgb(66.3%,66.3%,66.3%);stroke-opacity:1;stroke-miterlimit:10;" d="M 251.650781 199.833594 L 132.998437 81.185156 " transform="matrix(1,0,0,-1,-132.6,443.4)"/>
<path style="fill:none;stroke-width:0.8;stroke-linecap:butt;stroke-linejoin:round;stroke:rgb(66.3%,66.3%,66.3%);stroke-opacity:1;stroke-miterlimit:10;" d="M 160.373437 267.626562 L 132.998437 240.251562 " transform="matrix(1,0,0,-1,-132.6,443.4)"/>
<path style="fill:none;stroke-width:0.8;stroke-linecap:butt;stroke-linejoin:round;stroke:rgb(66.3%,66.3%,66.3%);stroke-opacity:1;stroke-miterlimit:10;" d="M 401.998438 270.001562 L 510.998438 161.001562 " transform="matrix(1,0,0,-1,-132.6,443.4)"/>
<path style="fill:none;stroke-width:0.8;stroke-linecap:butt;stroke-linejoin:round;stroke:rgb(66.3%,66.3%,66.3%);stroke-opacity:1;stroke-miterlimit:10;" d="M 251.650781 199.833594 L 132.998437 81.185156 " transform="matrix(1,0,0,-1,-132.6,443.4)"/>
<path style="fill:none;stroke-width:0.8;stroke-linecap:butt;stroke-linejoin:round;stroke:rgb(66.3%,66.3%,66.3%);stroke-opacity:1;stroke-miterlimit:10;" d="M 439.998438 276.001562 L 510.998438 347.001562 " transform="matrix(1,0,0,-1,-132.6,443.4)"/>
<path style="fill:none;stroke-width:0.8;stroke-linecap:butt;stroke-linejoin:round;stroke:rgb(66.3%,66.3%,66.3%);stroke-opacity:1;stroke-miterlimit:10;" d="M 223.998437 344.001562 L 132.998437 253.001562 " transform="matrix(1,0,0,-1,-132.6,443.4)"/>
<path style="fill:none;stroke-width:0.8;stroke-linecap:butt;stroke-linejoin:round;stroke:rgb(66.3%,66.3%,66.3%);stroke-opacity:1;stroke-miterlimit:10;" d="M 375.31875 291.317969 L 510.998438 427.001562 " transform="matrix(1,0,0,-1,-132.6,443.4)"/>
<path style="fill:none;stroke-width:0.8;stroke-linecap:butt;stroke-linejoin:round;stroke:rgb(66.3%,66.3%,66.3%);stroke-opacity:1;stroke-miterlimit:10;" d="M 299.998438 132.001562 L 366.998438 65.001562 " transform="matrix(1,0,0,-1,-132.6,443.4)"/>
<path style="fill:none;stroke-width:0.8;stroke-linecap:butt;stroke-linejoin:round;stroke:rgb(66.3%,66.3%,66.3%);stroke-opacity:1;stroke-miterlimit:10;" d="M 279.334375 163.333594 L 180.998437 65.001562 " transform="matrix(1,0,0,-1,-132.6,443.4)"/>
<path style="fill:none;stroke-width:0.8;stroke-linecap:butt;stroke-linejoin:round;stroke:rgb(66.3%,66.3%,66.3%);stroke-opacity:1;stroke-miterlimit:10;" d="M 223.998437 344.001562 L 132.998437 435.001562 " transform="matrix(1,0,0,-1,-132.6,443.4)"/>
<path style="fill:none;stroke-width:1.2;stroke-linecap:butt;stroke-linejoin:round;stroke:rgb(0%,0%,0%);stroke-opacity:1;stroke-miterlimit:10;" d="M 239.998437 360.001562 L 255.998437 140.001562 " transform="matrix(1,0,0,-1,-132.6,443.4)"/>
<path style="fill:none;stroke-width:1.2;stroke-linecap:butt;stroke-linejoin:round;stroke:rgb(0%,0%,0%);stroke-opacity:1;stroke-miterlimit:10;" d="M 207.998437 328.001562 L 399.998438 316.001562 " transform="matrix(1,0,0,-1,-132.6,443.4)"/>
<path style="fill:none;stroke-width:1.2;stroke-linecap:butt;stroke-linejoin:round;stroke:rgb(0%,0%,0%);stroke-opacity:1;stroke-miterlimit:10;" d="M 299.998438 356.001562 L 223.998437 280.001562 " transform="matrix(1,0,0,-1,-132.6,443.4)"/>
<path style="fill:none;stroke-width:1.2;stroke-linecap:butt;stroke-linejoin:round;stroke:rgb(0%,0%,0%);stroke-opacity:1;stroke-miterlimit:10;" d="M 223.998437 280.001562 L 311.998438 272.001562 " transform="matrix(1,0,0,-1,-132.6,443.4)"/>
<path style="fill:none;stroke-width:1.2;stroke-linecap:butt;stroke-linejoin:round;stroke:rgb(0%,0%,0%);stroke-opacity:1;stroke-miterlimit:10;" d="M 311.998438 272.001562 L 367.998438 236.001562 " transform="matrix(1,0,0,-1,-132.6,443.4)"/>
<path style="fill:none;stroke-width:1.2;stroke-linecap:butt;stroke-linejoin:round;stroke:rgb(0%,0%,0%);stroke-opacity:1;stroke-miterlimit:10;" d="M 367.998438 236.001562 L 299.998438 356.001562 " transform="matrix(1,0,0,-1,-132.6,443.4)"/>
<path style="fill:none;stroke-width:1.2;stroke-linecap:butt;stroke-linejoin:round;stroke:rgb(0%,0%,0%);stroke-opacity:1;stroke-miterlimit:10;" d="M 219.998437 208.001562 L 343.998438 176.001562 " transform="matrix(1,0,0,-1,-132.6,443.4)"/>
<path style="fill:none;stroke-width:1.2;stroke-linecap:butt;stroke-linejoin:round;stroke:rgb(0%,0%,0%);stroke-opacity:1;stroke-miterlimit:10;" d="M 343.998438 176.001562 L 435.998438 236.001562 " transform="matrix(1,0,0,-1,-132.6,443.4)"/>
<path style=" stroke:none;fill-rule:evenodd;fill:rgb(0%,0%,0%);fill-opacity:1;" d="M 233.199219 75.398438 C 233.199219 73 229.601562 73 229.601562 75.398438 C 229.601562 77.800781 233.199219 77.800781 233.199219 75.398438 Z "/>
<path style=" stroke:none;fill-rule:evenodd;fill:rgb(0%,0%,0%);fill-opacity:1;" d="M 157.199219 211.398438 C 157.199219 209 153.601562 209 153.601562 211.398438 C 153.601562 213.800781 157.199219 213.800781 157.199219 211.398438 Z "/>
<path style=" stroke:none;fill-rule:evenodd;fill:rgb(0%,0%,0%);fill-opacity:1;" d="M 77.199219 115.398438 C 77.199219 113 73.601562 113 73.601562 115.398438 C 73.601562 117.800781 77.199219 117.800781 77.199219 115.398438 Z "/>
<path style=" stroke:none;fill-rule:evenodd;fill:rgb(0%,0%,0%);fill-opacity:1;" d="M 109.199219 83.398438 C 109.199219 81 105.601562 81 105.601562 83.398438 C 105.601562 85.800781 109.199219 85.800781 109.199219 83.398438 Z "/>
<path style=" stroke:none;fill-rule:evenodd;fill:rgb(0%,0%,0%);fill-opacity:1;" d="M 169.199219 87.398438 C 169.199219 85 165.601562 85 165.601562 87.398438 C 165.601562 89.800781 169.199219 89.800781 169.199219 87.398438 Z "/>
<path style=" stroke:none;fill-rule:evenodd;fill:rgb(0%,0%,0%);fill-opacity:1;" d="M 93.199219 163.398438 C 93.199219 161 89.601562 161 89.601562 163.398438 C 89.601562 165.800781 93.199219 165.800781 93.199219 163.398438 Z "/>
<path style=" stroke:none;fill-rule:evenodd;fill:rgb(0%,0%,0%);fill-opacity:1;" d="M 181.199219 171.398438 C 181.199219 169 177.601562 169 177.601562 171.398438 C 177.601562 173.800781 181.199219 173.800781 181.199219 171.398438 Z "/>
<path style=" stroke:none;fill-rule:evenodd;fill:rgb(0%,0%,0%);fill-opacity:1;" d="M 237.199219 207.398438 C 237.199219 205 233.601562 205 233.601562 207.398438 C 233.601562 209.800781 237.199219 209.800781 237.199219 207.398438 Z "/>
<path style=" stroke:none;fill-rule:evenodd;fill:rgb(0%,0%,0%);fill-opacity:1;" d="M 89.199219 235.398438 C 89.199219 233 85.601562 233 85.601562 235.398438 C 85.601562 237.800781 89.199219 237.800781 89.199219 235.398438 Z "/>
<path style=" stroke:none;fill-rule:evenodd;fill:rgb(0%,0%,0%);fill-opacity:1;" d="M 213.199219 267.398438 C 213.199219 265 209.601562 265 209.601562 267.398438 C 209.601562 269.800781 213.199219 269.800781 213.199219 267.398438 Z "/>
<path style=" stroke:none;fill-rule:evenodd;fill:rgb(0%,0%,0%);fill-opacity:1;" d="M 305.199219 207.398438 C 305.199219 205 301.601562 205 301.601562 207.398438 C 301.601562 209.800781 305.199219 209.800781 305.199219 207.398438 Z "/>
<path style=" stroke:none;fill-rule:evenodd;fill:rgb(0%,0%,0%);fill-opacity:1;" d="M 125.199219 303.398438 C 125.199219 301 121.601562 301 121.601562 303.398438 C 121.601562 305.800781 125.199219 305.800781 125.199219 303.398438 Z "/>
<path style=" stroke:none;fill-rule:evenodd;fill:rgb(0%,0%,0%);fill-opacity:1;" d="M 269.199219 127.398438 C 269.199219 125 265.601562 125 265.601562 127.398438 C 265.601562 129.800781 269.199219 129.800781 269.199219 127.398438 Z "/>
<path style=" stroke:none;fill-rule:evenodd;fill:rgb(100%,100%,100%);fill-opacity:1;" d="M 120.550781 243.566406 C 120.550781 241.566406 117.550781 241.566406 117.550781 243.566406 C 117.550781 245.566406 120.550781 245.566406 120.550781 243.566406 Z "/>
<path style=" stroke:none;fill-rule:evenodd;fill:rgb(0%,0%,0%);fill-opacity:1;" d="M 120.847656 243.566406 C 120.847656 241.167969 117.25 241.167969 117.25 243.566406 C 117.25 245.96875 120.847656 245.96875 120.847656 243.566406 Z M 120.25 243.566406 C 120.25 241.96875 117.847656 241.96875 117.847656 243.566406 C 117.847656 245.167969 120.25 245.167969 120.25 243.566406 Z "/>
<path style=" stroke:none;fill-rule:evenodd;fill:rgb(100%,100%,100%);fill-opacity:1;" d="M 111.382812 117.554688 C 111.382812 115.554688 108.382812 115.554688 108.382812 117.554688 C 108.382812 119.554688 111.382812 119.554688 111.382812 117.554688 Z "/>
<path style=" stroke:none;fill-rule:evenodd;fill:rgb(0%,0%,0%);fill-opacity:1;" d="M 111.683594 117.554688 C 111.683594 115.15625 108.085938 115.15625 108.085938 117.554688 C 108.085938 119.953125 111.683594 119.953125 111.683594 117.554688 Z M 111.085938 117.554688 C 111.085938 115.953125 108.683594 115.953125 108.683594 117.554688 C 108.683594 119.15625 111.085938 119.15625 111.085938 117.554688 Z "/>
<path style=" stroke:none;fill-rule:evenodd;fill:rgb(100%,100%,100%);fill-opacity:1;" d="M 113.238281 143.0625 C 113.238281 141.0625 110.238281 141.0625 110.238281 143.0625 C 110.238281 145.0625 113.238281 145.0625 113.238281 143.0625 Z "/>
<path style=" stroke:none;fill-rule:evenodd;fill:rgb(0%,0%,0%);fill-opacity:1;" d="M 113.539062 143.0625 C 113.539062 140.660156 109.9375 140.660156 109.9375 143.0625 C 109.9375 145.460938 113.539062 145.460938 113.539062 143.0625 Z M 112.9375 143.0625 C 112.9375 141.460938 110.539062 141.460938 110.539062 143.0625 C 110.539062 144.660156 112.9375 144.660156 112.9375 143.0625 Z "/>
<path style=" stroke:none;fill-rule:evenodd;fill:rgb(100%,100%,100%);fill-opacity:1;" d="M 137.136719 119.164062 C 137.136719 117.164062 134.136719 117.164062 134.136719 119.164062 C 134.136719 121.164062 137.136719 121.164062 137.136719 119.164062 Z "/>
<path style=" stroke:none;fill-rule:evenodd;fill:rgb(0%,0%,0%);fill-opacity:1;" d="M 137.433594 119.164062 C 137.433594 116.765625 133.835938 116.765625 133.835938 119.164062 C 133.835938 121.566406 137.433594 121.566406 137.433594 119.164062 Z M 136.835938 119.164062 C 136.835938 117.566406 134.433594 117.566406 134.433594 119.164062 C 134.433594 120.765625 136.835938 120.765625 136.835938 119.164062 Z "/>
<path style=" stroke:none;fill-rule:evenodd;fill:rgb(100%,100%,100%);fill-opacity:1;" d="M 188.726562 122.390625 C 188.726562 120.390625 185.726562 120.390625 185.726562 122.390625 C 185.726562 124.390625 188.726562 124.390625 188.726562 122.390625 Z "/>
<path style=" stroke:none;fill-rule:evenodd;fill:rgb(0%,0%,0%);fill-opacity:1;" d="M 189.027344 122.390625 C 189.027344 119.988281 185.425781 119.988281 185.425781 122.390625 C 185.425781 124.789062 189.027344 124.789062 189.027344 122.390625 Z M 188.425781 122.390625 C 188.425781 120.789062 186.027344 120.789062 186.027344 122.390625 C 186.027344 123.988281 188.425781 123.988281 188.425781 122.390625 Z "/>
<path style=" stroke:none;fill-rule:evenodd;fill:rgb(100%,100%,100%);fill-opacity:1;" d="M 114.863281 165.398438 C 114.863281 163.398438 111.863281 163.398438 111.863281 165.398438 C 111.863281 167.398438 114.863281 167.398438 114.863281 165.398438 Z "/>
<path style=" stroke:none;fill-rule:evenodd;fill:rgb(0%,0%,0%);fill-opacity:1;" d="M 115.164062 165.398438 C 115.164062 162.996094 111.5625 162.996094 111.5625 165.398438 C 111.5625 167.796875 115.164062 167.796875 115.164062 165.398438 Z M 114.5625 165.398438 C 114.5625 163.796875 112.164062 163.796875 112.164062 165.398438 C 112.164062 166.996094 114.5625 166.996094 114.5625 165.398438 Z "/>
</g>
</svg>
