<?xml version="1.0" encoding="UTF-8"?>
<svg xmlns="http://www.w3.org/2000/svg" xmlns:xlink="http://www.w3.org/1999/xlink" width="331pt" height="387pt" viewBox="0 0 331 387" version="1.1">
<g id="surface1">
<path style="fill:none;stroke-width:1.2;stroke-linecap:butt;stroke-linejoin:round;stroke:rgb(0%,0%,0%);stroke-opacity:1;stroke-miterlimit:10;" d="M 79.998437 252.001562 L 159.998437 140.001562 " transform="matrix(1,0,0,-1,-4.6,403.4)"/>
<path style=" stroke:none;fill-rule:evenodd;fill:rgb(0%,0%,0%);fill-opacity:1;" d="M 137.199219 203.398438 C 137.199219 201 133.601562 201 133.601562 203.398438 C 133.601562 205.800781 137.199219 205.800781 137.199219 203.398438 Z "/>
<path style=" stroke:none;fill-rule:evenodd;fill:rgb(0%,0%,0%);fill-opacity:1;" d="M 101.199219 155.398438 C 101.199219 153 97.601562 153 97.601562 155.398438 C 97.601562 157.800781 101.199219 157.800781 101.199219 155.398438 Z "/>
<path style=" stroke:none;fill-rule:evenodd;fill:rgb(0%,0%,0%);fill-opacity:1;" d="M 185.199219 211.398438 C 185.199219 209 181.601562 209 181.601562 211.398438 C 181.601562 213.800781 185.199219 213.800781 185.199219 211.398438 Z "/>
<path style="fill:none;stroke-width:1.2;stroke-linecap:butt;stroke-linejoin:round;stroke:rgb(0%,0%,0%);stroke-opacity:1;stroke-miterlimit:10;" d="M 103.998437 248.001562 L 187.998437 192.001562 " transform="matrix(1,0,0,-1,-4.6,403.4)"/>
<path style=" stroke:none;fill-rule:evenodd;fill:rgb(0%,0%,0%);fill-opacity:1;" d="M 77.199219 151.398438 C 77.199219 149 73.601562 149 73.601562 151.398438 C 73.601562 153.800781 77.199219 153.800781 77.199219 151.398438 Z "/>
<path style=" stroke:none;fill-rule:evenodd;fill:rgb(0%,0%,0%);fill-opacity:1;" d="M 157.199219 263.398438 C 157.199219 261 153.601562 261 153.601562 263.398438 C 153.601562 265.800781 157.199219 265.800781 157.199219 263.398438 Z "/>
<path style=" stroke:none;fill-rule:evenodd;fill:rgb(0%,0%,0%);fill-opacity:1;" d="M 149.199219 135.398438 C 149.199219 133 145.601562 133 145.601562 135.398438 C 145.601562 137.800781 149.199219 137.800781 149.199219 135.398438 Z "/>
<path style=" stroke:none;fill-rule:evenodd;fill:rgb(0%,0%,0%);fill-opacity:1;" d="M 169.199219 311.398438 C 169.199219 309 165.601562 309 165.601562 311.398438 C 165.601562 313.800781 169.199219 313.800781 169.199219 311.398438 Z "/>
<path style=" stroke:none;fill-rule:evenodd;fill:rgb(0%,0%,0%);fill-opacity:1;" d="M 257.199219 207.398438 C 257.199219 205 253.601562 205 253.601562 207.398438 C 253.601562 209.800781 257.199219 209.800781 257.199219 207.398438 Z "/>
<path style=" stroke:none;fill-rule:evenodd;fill:rgb(0%,0%,0%);fill-opacity:1;" d="M 213.199219 103.398438 C 213.199219 101 209.601562 101 209.601562 103.398438 C 209.601562 105.800781 213.199219 105.800781 213.199219 103.398438 Z "/>
<path style=" stroke:none;fill-rule:evenodd;fill:rgb(0%,0%,0%);fill-opacity:1;" d="M 185.199219 75.398438 C 185.199219 73 181.601562 73 181.601562 75.398438 C 181.601562 77.800781 185.199219 77.800781 185.199219 75.398438 Z "/>
<path style=" stroke:none;fill-rule:evenodd;fill:rgb(0%,0%,0%);fill-opacity:1;" d="M 241.199219 79.398438 C 241.199219 77 237.601562 77 237.601562 79.398438 C 237.601562 81.800781 241.199219 81.800781 241.199219 79.398438 Z "/>
<path style=" stroke:none;fill-rule:evenodd;fill:rgb(0%,0%,0%);fill-opacity:1;" d="M 177.199219 163.398438 C 177.199219 161 173.601562 161 173.601562 163.398438 C 173.601562 165.800781 177.199219 165.800781 177.199219 163.398438 Z "/>
<path style=" stroke:none;fill-rule:evenodd;fill:rgb(0%,0%,0%);fill-opacity:1;" d="M 241.199219 159.398438 C 241.199219 157 237.601562 157 237.601562 159.398438 C 237.601562 161.800781 241.199219 161.800781 241.199219 159.398438 Z "/>
<path style="fill:none;stroke-width:1.2;stroke-linecap:butt;stroke-linejoin:round;stroke:rgb(0%,0%,0%);stroke-opacity:1;stroke-miterlimit:10;" d="M 171.998437 92.001562 L 259.998438 196.001562 " transform="matrix(1,0,0,-1,-4.6,403.4)"/>
<path style="fill:none;stroke-width:1.2;stroke-linecap:butt;stroke-linejoin:round;stroke:rgb(0%,0%,0%);stroke-opacity:1;stroke-miterlimit:10;" d="M 179.998437 240.001562 L 243.998437 244.001562 " transform="matrix(1,0,0,-1,-4.6,403.4)"/>
<path style="fill:none;stroke-width:1.2;stroke-linecap:butt;stroke-linejoin:round;stroke:rgb(0%,0%,0%);stroke-opacity:1;stroke-miterlimit:10;" d="M 215.998437 300.001562 L 179.998437 240.001562 " transform="matrix(1,0,0,-1,-4.6,403.4)"/>
<path style="fill:none;stroke-width:1.2;stroke-linecap:butt;stroke-linejoin:round;stroke:rgb(0%,0%,0%);stroke-opacity:1;stroke-miterlimit:10;" d="M 215.998437 300.001562 L 243.998437 244.001562 " transform="matrix(1,0,0,-1,-4.6,403.4)"/>
<path style="fill:none;stroke-width:1.2;stroke-linecap:butt;stroke-linejoin:round;stroke:rgb(0%,0%,0%);stroke-opacity:1;stroke-miterlimit:10;" d="M 215.998437 300.001562 L 187.998437 328.001562 " transform="matrix(1,0,0,-1,-4.6,403.4)"/>
<path style="fill:none;stroke-width:1.2;stroke-linecap:butt;stroke-linejoin:round;stroke:rgb(0%,0%,0%);stroke-opacity:1;stroke-miterlimit:10;" d="M 187.998437 328.001562 L 243.998437 324.001562 " transform="matrix(1,0,0,-1,-4.6,403.4)"/>
<path style="fill:none;stroke-width:1.2;stroke-linecap:butt;stroke-linejoin:round;stroke:rgb(0%,0%,0%);stroke-opacity:1;stroke-miterlimit:10;" d="M 215.998437 300.001562 L 243.998437 324.001562 " transform="matrix(1,0,0,-1,-4.6,403.4)"/>
<path style="fill:none;stroke-width:0.8;stroke-linecap:butt;stroke-linejoin:round;stroke:rgb(66.3%,66.3%,66.3%);stroke-opacity:1;stroke-miterlimit:10;" d="M 158.799219 246.798437 L 165.998437 254.001562 " transform="matrix(1,0,0,-1,-4.6,403.4)"/>
<path style="fill:none;stroke-width:0.8;stroke-linecap:butt;stroke-linejoin:round;stroke:rgb(66.3%,66.3%,66.3%);stroke-opacity:1;stroke-miterlimit:10;" d="M 136.400781 252.4 L 158.799219 246.798437 " transform="matrix(1,0,0,-1,-4.6,403.4)"/>
<path style="fill:none;stroke-width:0.8;stroke-linecap:butt;stroke-linejoin:round;stroke:rgb(66.3%,66.3%,66.3%);stroke-opacity:1;stroke-miterlimit:10;" d="M 127.998437 272.001562 L 136.400781 252.4 " transform="matrix(1,0,0,-1,-4.6,403.4)"/>
<path style="fill:none;stroke-width:0.8;stroke-linecap:butt;stroke-linejoin:round;stroke:rgb(66.3%,66.3%,66.3%);stroke-opacity:1;stroke-miterlimit:10;" d="M 117.428125 282.571875 L 127.998437 272.001562 " transform="matrix(1,0,0,-1,-4.6,403.4)"/>
<path style="fill:none;stroke-width:0.8;stroke-linecap:butt;stroke-linejoin:round;stroke:rgb(66.3%,66.3%,66.3%);stroke-opacity:1;stroke-miterlimit:10;" d="M 115.998437 288.001562 L 117.428125 282.571875 " transform="matrix(1,0,0,-1,-4.6,403.4)"/>
<path style="fill:none;stroke-width:0.8;stroke-linecap:butt;stroke-linejoin:round;stroke:rgb(66.3%,66.3%,66.3%);stroke-opacity:1;stroke-miterlimit:10;" d="M 171.201562 293.599219 L 157.998437 298.001562 " transform="matrix(1,0,0,-1,-4.6,403.4)"/>
<path style="fill:none;stroke-width:0.8;stroke-linecap:butt;stroke-linejoin:round;stroke:rgb(66.3%,66.3%,66.3%);stroke-opacity:1;stroke-miterlimit:10;" d="M 243.998437 324.001562 L 283.998438 284.001562 " transform="matrix(1,0,0,-1,-4.6,403.4)"/>
<path style="fill:none;stroke-width:0.8;stroke-linecap:butt;stroke-linejoin:round;stroke:rgb(66.3%,66.3%,66.3%);stroke-opacity:1;stroke-miterlimit:10;" d="M 216.666406 316.665625 L 243.998437 324.001562 " transform="matrix(1,0,0,-1,-4.6,403.4)"/>
<path style="fill:none;stroke-width:0.8;stroke-linecap:butt;stroke-linejoin:round;stroke:rgb(66.3%,66.3%,66.3%);stroke-opacity:1;stroke-miterlimit:10;" d="M 187.998437 328.001562 L 157.998437 298.001562 " transform="matrix(1,0,0,-1,-4.6,403.4)"/>
<path style="fill:none;stroke-width:0.8;stroke-linecap:butt;stroke-linejoin:round;stroke:rgb(66.3%,66.3%,66.3%);stroke-opacity:1;stroke-miterlimit:10;" d="M 187.998437 328.001562 L 216.666406 316.665625 " transform="matrix(1,0,0,-1,-4.6,403.4)"/>
<path style="fill:none;stroke-width:0.8;stroke-linecap:butt;stroke-linejoin:round;stroke:rgb(66.3%,66.3%,66.3%);stroke-opacity:1;stroke-miterlimit:10;" d="M 217.697656 210.802344 L 236.939844 219.060156 " transform="matrix(1,0,0,-1,-4.6,403.4)"/>
<path style="fill:none;stroke-width:0.8;stroke-linecap:butt;stroke-linejoin:round;stroke:rgb(66.3%,66.3%,66.3%);stroke-opacity:1;stroke-miterlimit:10;" d="M 215.998437 300.001562 L 216.666406 316.665625 " transform="matrix(1,0,0,-1,-4.6,403.4)"/>
<path style="fill:none;stroke-width:0.8;stroke-linecap:butt;stroke-linejoin:round;stroke:rgb(66.3%,66.3%,66.3%);stroke-opacity:1;stroke-miterlimit:10;" d="M 214.646875 258.001562 L 179.998437 240.001562 " transform="matrix(1,0,0,-1,-4.6,403.4)"/>
<path style="fill:none;stroke-width:0.8;stroke-linecap:butt;stroke-linejoin:round;stroke:rgb(66.3%,66.3%,66.3%);stroke-opacity:1;stroke-miterlimit:10;" d="M 214.646875 258.001562 L 215.998437 300.001562 " transform="matrix(1,0,0,-1,-4.6,403.4)"/>
<path style="fill:none;stroke-width:0.8;stroke-linecap:butt;stroke-linejoin:round;stroke:rgb(66.3%,66.3%,66.3%);stroke-opacity:1;stroke-miterlimit:10;" d="M 283.998438 284.001562 L 331.998438 284.001562 " transform="matrix(1,0,0,-1,-4.6,403.4)"/>
<path style="fill:none;stroke-width:0.8;stroke-linecap:butt;stroke-linejoin:round;stroke:rgb(66.3%,66.3%,66.3%);stroke-opacity:1;stroke-miterlimit:10;" d="M 147.201562 207.200781 L 156.799219 184.798437 " transform="matrix(1,0,0,-1,-4.6,403.4)"/>
<path style="fill:none;stroke-width:0.8;stroke-linecap:butt;stroke-linejoin:round;stroke:rgb(66.3%,66.3%,66.3%);stroke-opacity:1;stroke-miterlimit:10;" d="M 128.9125 211.771094 L 147.201562 207.200781 " transform="matrix(1,0,0,-1,-4.6,403.4)"/>
<path style="fill:none;stroke-width:0.8;stroke-linecap:butt;stroke-linejoin:round;stroke:rgb(66.3%,66.3%,66.3%);stroke-opacity:1;stroke-miterlimit:10;" d="M 155.998437 184.001562 L 156.799219 184.798437 " transform="matrix(1,0,0,-1,-4.6,403.4)"/>
<path style="fill:none;stroke-width:0.8;stroke-linecap:butt;stroke-linejoin:round;stroke:rgb(66.3%,66.3%,66.3%);stroke-opacity:1;stroke-miterlimit:10;" d="M 133.334375 193.333594 L 155.998437 184.001562 " transform="matrix(1,0,0,-1,-4.6,403.4)"/>
<path style="fill:none;stroke-width:0.8;stroke-linecap:butt;stroke-linejoin:round;stroke:rgb(66.3%,66.3%,66.3%);stroke-opacity:1;stroke-miterlimit:10;" d="M 128.572656 211.427344 L 133.334375 193.333594 " transform="matrix(1,0,0,-1,-4.6,403.4)"/>
<path style="fill:none;stroke-width:0.8;stroke-linecap:butt;stroke-linejoin:round;stroke:rgb(66.3%,66.3%,66.3%);stroke-opacity:1;stroke-miterlimit:10;" d="M 128.9125 211.771094 L 128.572656 211.427344 " transform="matrix(1,0,0,-1,-4.6,403.4)"/>
<path style="fill:none;stroke-width:0.8;stroke-linecap:butt;stroke-linejoin:round;stroke:rgb(66.3%,66.3%,66.3%);stroke-opacity:1;stroke-miterlimit:10;" d="M 243.998437 244.001562 L 214.646875 258.001562 " transform="matrix(1,0,0,-1,-4.6,403.4)"/>
<path style="fill:none;stroke-width:0.8;stroke-linecap:butt;stroke-linejoin:round;stroke:rgb(66.3%,66.3%,66.3%);stroke-opacity:1;stroke-miterlimit:10;" d="M 243.998437 244.001562 L 283.998438 284.001562 " transform="matrix(1,0,0,-1,-4.6,403.4)"/>
<path style="fill:none;stroke-width:0.8;stroke-linecap:butt;stroke-linejoin:round;stroke:rgb(66.3%,66.3%,66.3%);stroke-opacity:1;stroke-miterlimit:10;" d="M 206.584375 173.415625 L 217.697656 210.802344 " transform="matrix(1,0,0,-1,-4.6,403.4)"/>
<path style="fill:none;stroke-width:0.8;stroke-linecap:butt;stroke-linejoin:round;stroke:rgb(66.3%,66.3%,66.3%);stroke-opacity:1;stroke-miterlimit:10;" d="M 186.166406 165.833594 L 206.584375 173.415625 " transform="matrix(1,0,0,-1,-4.6,403.4)"/>
<path style="fill:none;stroke-width:0.8;stroke-linecap:butt;stroke-linejoin:round;stroke:rgb(66.3%,66.3%,66.3%);stroke-opacity:1;stroke-miterlimit:10;" d="M 165.998437 254.001562 L 179.998437 240.001562 " transform="matrix(1,0,0,-1,-4.6,403.4)"/>
<path style="fill:none;stroke-width:0.8;stroke-linecap:butt;stroke-linejoin:round;stroke:rgb(66.3%,66.3%,66.3%);stroke-opacity:1;stroke-miterlimit:10;" d="M 174.400781 290.4 L 171.201562 293.599219 " transform="matrix(1,0,0,-1,-4.6,403.4)"/>
<path style="fill:none;stroke-width:0.8;stroke-linecap:butt;stroke-linejoin:round;stroke:rgb(66.3%,66.3%,66.3%);stroke-opacity:1;stroke-miterlimit:10;" d="M 165.998437 254.001562 L 174.400781 290.4 " transform="matrix(1,0,0,-1,-4.6,403.4)"/>
<path style="fill:none;stroke-width:0.8;stroke-linecap:butt;stroke-linejoin:round;stroke:rgb(66.3%,66.3%,66.3%);stroke-opacity:1;stroke-miterlimit:10;" d="M 267.998438 220.001562 L 331.998438 284.001562 " transform="matrix(1,0,0,-1,-4.6,403.4)"/>
<path style="fill:none;stroke-width:0.8;stroke-linecap:butt;stroke-linejoin:round;stroke:rgb(66.3%,66.3%,66.3%);stroke-opacity:1;stroke-miterlimit:10;" d="M 267.998438 220.001562 L 236.939844 219.060156 " transform="matrix(1,0,0,-1,-4.6,403.4)"/>
<path style="fill:none;stroke-width:0.8;stroke-linecap:butt;stroke-linejoin:round;stroke:rgb(66.3%,66.3%,66.3%);stroke-opacity:1;stroke-miterlimit:10;" d="M 267.998438 220.001562 L 243.998437 244.001562 " transform="matrix(1,0,0,-1,-4.6,403.4)"/>
<path style="fill:none;stroke-width:0.8;stroke-linecap:butt;stroke-linejoin:round;stroke:rgb(66.3%,66.3%,66.3%);stroke-opacity:1;stroke-miterlimit:10;" d="M 215.998437 300.001562 L 283.998438 284.001562 " transform="matrix(1,0,0,-1,-4.6,403.4)"/>
<path style="fill:none;stroke-width:0.8;stroke-linecap:butt;stroke-linejoin:round;stroke:rgb(66.3%,66.3%,66.3%);stroke-opacity:1;stroke-miterlimit:10;" d="M 174.248437 125.751562 L 186.166406 165.833594 " transform="matrix(1,0,0,-1,-4.6,403.4)"/>
<path style="fill:none;stroke-width:0.8;stroke-linecap:butt;stroke-linejoin:round;stroke:rgb(66.3%,66.3%,66.3%);stroke-opacity:1;stroke-miterlimit:10;" d="M 147.998437 116.001562 L 174.248437 125.751562 " transform="matrix(1,0,0,-1,-4.6,403.4)"/>
<path style="fill:none;stroke-width:0.8;stroke-linecap:butt;stroke-linejoin:round;stroke:rgb(66.3%,66.3%,66.3%);stroke-opacity:1;stroke-miterlimit:10;" d="M 168.998437 173.001562 L 156.799219 184.798437 " transform="matrix(1,0,0,-1,-4.6,403.4)"/>
<path style="fill:none;stroke-width:0.8;stroke-linecap:butt;stroke-linejoin:round;stroke:rgb(66.3%,66.3%,66.3%);stroke-opacity:1;stroke-miterlimit:10;" d="M 215.998437 300.001562 L 171.201562 293.599219 " transform="matrix(1,0,0,-1,-4.6,403.4)"/>
<path style="fill:none;stroke-width:0.8;stroke-linecap:butt;stroke-linejoin:round;stroke:rgb(66.3%,66.3%,66.3%);stroke-opacity:1;stroke-miterlimit:10;" d="M 185.998437 166.001562 L 168.998437 173.001562 " transform="matrix(1,0,0,-1,-4.6,403.4)"/>
<path style="fill:none;stroke-width:0.8;stroke-linecap:butt;stroke-linejoin:round;stroke:rgb(66.3%,66.3%,66.3%);stroke-opacity:1;stroke-miterlimit:10;" d="M 185.998437 166.001562 L 186.166406 165.833594 " transform="matrix(1,0,0,-1,-4.6,403.4)"/>
<path style="fill:none;stroke-width:0.8;stroke-linecap:butt;stroke-linejoin:round;stroke:rgb(66.3%,66.3%,66.3%);stroke-opacity:1;stroke-miterlimit:10;" d="M 212.248437 216.251562 L 168.998437 173.001562 " transform="matrix(1,0,0,-1,-4.6,403.4)"/>
<path style="fill:none;stroke-width:0.8;stroke-linecap:butt;stroke-linejoin:round;stroke:rgb(66.3%,66.3%,66.3%);stroke-opacity:1;stroke-miterlimit:10;" d="M 212.248437 216.251562 L 217.697656 210.802344 " transform="matrix(1,0,0,-1,-4.6,403.4)"/>
<path style="fill:none;stroke-width:0.8;stroke-linecap:butt;stroke-linejoin:round;stroke:rgb(66.3%,66.3%,66.3%);stroke-opacity:1;stroke-miterlimit:10;" d="M 167.201562 227.200781 L 158.799219 246.798437 " transform="matrix(1,0,0,-1,-4.6,403.4)"/>
<path style="fill:none;stroke-width:0.8;stroke-linecap:butt;stroke-linejoin:round;stroke:rgb(66.3%,66.3%,66.3%);stroke-opacity:1;stroke-miterlimit:10;" d="M 201.334375 218.665625 L 167.201562 227.200781 " transform="matrix(1,0,0,-1,-4.6,403.4)"/>
<path style="fill:none;stroke-width:0.8;stroke-linecap:butt;stroke-linejoin:round;stroke:rgb(66.3%,66.3%,66.3%);stroke-opacity:1;stroke-miterlimit:10;" d="M 201.334375 218.665625 L 179.998437 240.001562 " transform="matrix(1,0,0,-1,-4.6,403.4)"/>
<path style="fill:none;stroke-width:0.8;stroke-linecap:butt;stroke-linejoin:round;stroke:rgb(66.3%,66.3%,66.3%);stroke-opacity:1;stroke-miterlimit:10;" d="M 201.334375 218.665625 L 212.248437 216.251562 " transform="matrix(1,0,0,-1,-4.6,403.4)"/>
<path style="fill:none;stroke-width:0.8;stroke-linecap:butt;stroke-linejoin:round;stroke:rgb(66.3%,66.3%,66.3%);stroke-opacity:1;stroke-miterlimit:10;" d="M 93.428125 258.571875 L 117.428125 282.571875 " transform="matrix(1,0,0,-1,-4.6,403.4)"/>
<path style="fill:none;stroke-width:0.8;stroke-linecap:butt;stroke-linejoin:round;stroke:rgb(66.3%,66.3%,66.3%);stroke-opacity:1;stroke-miterlimit:10;" d="M 97.834375 241.833594 L 93.428125 258.571875 " transform="matrix(1,0,0,-1,-4.6,403.4)"/>
<path style="fill:none;stroke-width:0.8;stroke-linecap:butt;stroke-linejoin:round;stroke:rgb(66.3%,66.3%,66.3%);stroke-opacity:1;stroke-miterlimit:10;" d="M 97.834375 241.833594 L 127.998437 272.001562 " transform="matrix(1,0,0,-1,-4.6,403.4)"/>
<path style="fill:none;stroke-width:0.8;stroke-linecap:butt;stroke-linejoin:round;stroke:rgb(66.3%,66.3%,66.3%);stroke-opacity:1;stroke-miterlimit:10;" d="M 97.834375 241.833594 L 128.9125 211.771094 " transform="matrix(1,0,0,-1,-4.6,403.4)"/>
<path style="fill:none;stroke-width:0.8;stroke-linecap:butt;stroke-linejoin:round;stroke:rgb(66.3%,66.3%,66.3%);stroke-opacity:1;stroke-miterlimit:10;" d="M 115.998437 288.001562 L 4.998437 399.001562 " transform="matrix(1,0,0,-1,-4.6,403.4)"/>
<path style="fill:none;stroke-width:0.8;stroke-linecap:butt;stroke-linejoin:round;stroke:rgb(66.3%,66.3%,66.3%);stroke-opacity:1;stroke-miterlimit:10;" d="M 157.998437 298.001562 L 52.998438 403.001562 " transform="matrix(1,0,0,-1,-4.6,403.4)"/>
<path style="fill:none;stroke-width:0.8;stroke-linecap:butt;stroke-linejoin:round;stroke:rgb(66.3%,66.3%,66.3%);stroke-opacity:1;stroke-miterlimit:10;" d="M 243.998437 324.001562 L 322.998438 403.001562 " transform="matrix(1,0,0,-1,-4.6,403.4)"/>
<path style="fill:none;stroke-width:0.8;stroke-linecap:butt;stroke-linejoin:round;stroke:rgb(66.3%,66.3%,66.3%);stroke-opacity:1;stroke-miterlimit:10;" d="M 331.998438 284.001562 L 334.998438 287.001562 " transform="matrix(1,0,0,-1,-4.6,403.4)"/>
<path style="fill:none;stroke-width:0.8;stroke-linecap:butt;stroke-linejoin:round;stroke:rgb(66.3%,66.3%,66.3%);stroke-opacity:1;stroke-miterlimit:10;" d="M 187.998437 328.001562 L 262.998438 403.001562 " transform="matrix(1,0,0,-1,-4.6,403.4)"/>
<path style="fill:none;stroke-width:0.8;stroke-linecap:butt;stroke-linejoin:round;stroke:rgb(66.3%,66.3%,66.3%);stroke-opacity:1;stroke-miterlimit:10;" d="M 236.939844 219.060156 L 334.998438 121.001562 " transform="matrix(1,0,0,-1,-4.6,403.4)"/>
<path style="fill:none;stroke-width:0.8;stroke-linecap:butt;stroke-linejoin:round;stroke:rgb(66.3%,66.3%,66.3%);stroke-opacity:1;stroke-miterlimit:10;" d="M 147.998437 116.001562 L 48.998438 17.001562 " transform="matrix(1,0,0,-1,-4.6,403.4)"/>
<path style="fill:none;stroke-width:0.8;stroke-linecap:butt;stroke-linejoin:round;stroke:rgb(66.3%,66.3%,66.3%);stroke-opacity:1;stroke-miterlimit:10;" d="M 147.998437 116.001562 L 246.998437 17.001562 " transform="matrix(1,0,0,-1,-4.6,403.4)"/>
<path style="fill:none;stroke-width:0.8;stroke-linecap:butt;stroke-linejoin:round;stroke:rgb(66.3%,66.3%,66.3%);stroke-opacity:1;stroke-miterlimit:10;" d="M 185.998437 166.001562 L 36.998438 17.001562 " transform="matrix(1,0,0,-1,-4.6,403.4)"/>
<path style="fill:none;stroke-width:0.8;stroke-linecap:butt;stroke-linejoin:round;stroke:rgb(66.3%,66.3%,66.3%);stroke-opacity:1;stroke-miterlimit:10;" d="M 115.998437 288.001562 L 4.998437 177.001562 " transform="matrix(1,0,0,-1,-4.6,403.4)"/>
</g>
</svg>
