ply
format ascii 1.0
element vertex 223
property double x
property double y
property double z
element face 40
property list uchar int vertex_indices
property uchar red
property uchar green
property uchar blue
property uchar alpha
end_header
0.40335259065787576471 0.35465072547903203626 0.85619646800032411793
0.56991843963696209308 0.66109826737876153935 0.69781204422228970685
1 0.96641289687684051035 0.4106241902207500849
1 0.12614928308943518243 0.62117716781331533404
0.51501778643630702348 0.15580190861472792418 0.85132298646325743618
0.59246384925596884408 -0.86301732877544212741 0.25346685159151172151
0.49132744275756545793 -0.60873348514193792447 0.18399991628239528718
0.34184532313551546645 -0.33994854768174714854 0.32856220318164253147
0.38656579635105547954 -0.47039365582093140006 0.40086336184615034561
0.50959641252523413257 -0.73029478981673756621 0.3712098771016697496
0.56440581472594875123 -0.82180322969965269309 0.30193467483566327481
-0.91988226360820857241 -0.70454675407136679866 0.34687841788853013281
-0.434002323687646685 -0.35845426670843416606 -0.99999999999999988898
0.38614661426348406703 0.6589590820614085187 -1
0.61814940337009094407 0.97137908337041267703 -0.87082229608176531244
0.62955568023460228844 1 -0.79487952621709379031
0.35384863746451122868 1.000000000000000222 0.99999999999999988898
-0.91505755274844446934 -0.57410689268766890159 1
-1.000000000000000222 -0.85130969500876263467 -0.65158846541908754801
-0.63695654162081205563 -0.51346617963542429131 -1
-0.46380555615368501687 -0.35566071729958503855 -1
-0.33525424807615483713 -0.24180668113659098406 -0.83493609061546558703
-1 -0.8611078859872400848 -0.16214169373906167637
-0.40568061915871972412 0.060360127140847805172 -0.80624322489599897779
-0.14485353252283805769 0.82019222922485890415 -0.57491547624080152623
-0.12033042575322080991 0.89154418835598647775 -0.54653920695953916997
-0.082843065198171167429 1 -0.45665660190278556385
-0.082834929732726630958 1 -0.45486215629485121648
-0.20846878479710923004 0.62950189220302910087 -0.22648066370373487466
-0.33168677330513973711 0.27141124970808960803 -0.40088574417486355639
0.56822521160052252842 0.81501276261769273201 1
-0.1660944742623846615 0.50791335813177473923 1
-0.32910923782500700607 0.13483865714640633215 0.85357537640428837733
0.18593601222227362779 0.47237099160649959062 0.91222946238743218839
0.55308013429445002096 0.75589947757933950712 0.97465331502284846543
-0.44525853506817025806 -0.020459918163220180976 -0.8713383708670601191
-0.51173657208075351566 0.021188806081958708183 -1
-0.9071188425394883792 0.12452989623934783425 -1
-0.99999999999999988898 0.14045464278415428772 -0.95573205925415516404
-1 0.14004972116187436315 -0.95358576036342834747
-0.91645643612356875174 0.033132918478467374146 -0.50261134966028864213
-0.72299347698213178859 -0.088001686877056992109 -0.12855735465174600307
-0.4521245726175396884 -0.11000157723780634722 -0.38720798435765502177
-0.056195914528415415179 0.86505369228053807795 0.13122889166647891401
0.06204992786921454534 0.98705960278543125597 0.10567335471659045076
0.073597046751425532207 1 0.10635935931667311882
0.046313927732982512753 1.000000000000000222 0.19954214526908234384
0.8902597060699840581 0.56778378352568981136 -0.85348130127477617179
0.53310926967491178985 0.33653480195417961873 -0.2983938196187665981
0.45254065531538723022 -0.45998306358639240443 0.51804238839203808897
1 -0.6622006630565480112 0.1841237441431989863
1.000000000000000222 0.28817073599636977566 -0.6984053630474199581
0.51394538154089275395 0.37750884186818189914 -1
-0.26343014108708007193 0.79944998396576383293 -1
-0.27683592810515234017 0.82530675810043385709 -0.95568405470938766477
-0.32938622632013081493 1 -0.60705541093233361671
0.34810979050293622272 1 0.27001014037635856502
0.83755886237768839564 0.5629930375539298204 -0.13866390444932244486
0.074620275563303209432 0.57688589203579332398 -0.41232621663467883266
0.4792573320582177443 1 -0.41203657720104702733
-0.18210413498392968856 1 0.72881576375245749055
-0.68293584465805168282 0.26329069902875462672 0.37691727469776736825
-1 -0.39324489186552846753 1.000000000000000222
-1 -1 0.0089128258686877875894
-0.2455138524389086363 -1 -0.080247471814213905406
-0.18777933722156039953 -0.9383065625444532154 0.013701257476656829998
-0.92810448540093448688 -0.38804345152906111194 1.000000000000000222
-0.52231660057250306473 -0.93507573696436629973 -1
0.63275294375400892299 0.57187081281844787117 -1
0.70709311153360421276 1 -0.53534357965971524074
0.26306327362890757904 0.99999999999999977796 0.27752290894039116642
-0.15181873780205468183 0.61989378067932188188 0.5036674023649856391
-0.75546851370851408891 -0.64393602644962388837 -0.16465358820878714385
-1 -0.19063767166873263337 -0.92487085772318300414
-1 1.000000000000000222 -0.3390016067277515921
-0.22195665208509551825 1.000000000000000222 -0.16616973649841632055
0.45096799029202710996 -0.061291794453426126643 -0.53891144916291755518
0.32123264575530441345 -0.17087384570762320646 -0.62165173136391949082
0.97512970373188545548 0.46914159852604236933 0.25799172183461899222
0.61625520612203565918 -0.11325500582488814971 0.57737685355110057728
0.41017993481401454625 -0.56963786913299419012 0.85514427758866840001
0.6554388251476399585 -0.64090410061723945834 1
1 -0.47802678569431628075 1
1 0.46701815965483983728 0.26873184729901278267
0.038965870061853674633 0.010424964782414917683 0.61641234574886316633
-0.64797567930690203042 0.41208845417198458616 0.17301673176432230683
-1 0.28433382354151492954 -0.009060216586503461525
-0.99999999999999988898 -0.030126155593106013902 0.033493229864638048021
-0.87416657294742017292 -0.11763908587725385724 0.11660002081135381613
-0.27396850741305756038 -0.49685078059663917438 0.5078312139828006222
-0.16430122013168638184 -0.40232721110141544951 0.55714889709858927969
-0.70233211725164357286 1 -0.45218000795412194304
-0.0029386133370163936007 0.99999999999999988898 0.85584597642563597919
0.11731729206839412727 0.79605744702823399983 1
0.13260921814553272569 0.7238285063340523795 1.000000000000000222
-0.32252226415604345888 0.52888067392409476852 0.071609372431644155443
-0.69040137489647535052 0.76968436557313646418 -0.52106139207294044358
0.38002767701747341977 0.43138900056129819705 0.24655721598851931819
0.8856557416665682414 0.56153017739146660059 -0.49664363765363295222
1 0.65122118075682933203 -0.50185395349411754395
0.99999999999999988898 0.91899805080311969263 0.2218370856917318279
0.27192136279294820689 0.54462242610416866651 0.78668098501979455417
-0.052918883102508099125 -1 -0.99999999999999988898
0.40374063566264417613 -0.7905705349674120308 -1
0.75021164650320093514 -0.6139623910911968796 -0.82923778227686462117
1 -0.48563018333127838666 -0.69642299112958860885
1 -0.46011558129284424457 -0.45044154939463809662
0.84365034467355204395 -0.51941484062169185343 -0.33085168466547293376
-0.045399777054309309321 -0.96263132009415064427 -0.67298053995043694009
-0.10578382945149647498 -1 -0.76626346140204359969
-0.79817271839286452195 0.17331638620254680161 0.81224892918275570786
-0.897529761503622181 0.037724563001789335193 1
0.75826413258357305835 -1 1
1 -1 0.85623978615230644795
1 -0.73279104310389164834 0.6026844186412849691
-0.16946049346190428242 0.67596547286987085368 -0.038611155223136531256
1.000000000000000222 1 -0.038620881314754919311
0.5467457248110856316 0.99999999999999988898 0.81107739506707754451
0.61200600850456277069 0.8603856505763685103 1
0.74143742892902542163 0.75155171003147547282 1
0.99999999999999977796 0.63255322448189077456 0.7805841899724481614
0.34685845338585863384 0.11741489789838849278 -1
0.25315074658013791975 -0.092443657368067200242 -0.67927016778041648948
0.1845528227724529402 -0.26881334377910964806 -0.41517961221010002415
0.296324941887204929 -0.20535574120564434319 -0.55700064804615756486
0.48045028536543765707 -0.069307112295522610435 -0.83122653129684342943
0.45148861765468178975 0.073772347566137069785 -1
-1 -1 0.2030297788513293622
-1 0.71075733849146738308 -1
-0.93551422444745568896 0.72416572995144012914 -1
0.063887896606013877543 0.12361676498889509479 -0.43155457606459002307
0.10611933305745695211 -0.33172071814910658594 -0.10517955128033361356
-0.73246338708991753919 -0.99999999999999977796 0.2421484365276410089
0.80962512303784639478 -0.99999999999999988898 -0.66861825831963783706
0.81528975789481639147 -0.97109100243880375203 -1
1 -0.70371952084870637023 -1
1 -0.78543826409481276585 0.3076277234364458435
0.832011054384178661 -0.99999999999999977796 -0.15010279422231542767
-0.5027470911967665268 -0.26330558036150730761 -0.74289107465514869766
-0.41744882566602170559 -0.31437932500205645336 -1
-0.54028033206581937975 -0.71438742282872991218 -1
-0.68442058944315253832 -0.30607300378858248724 -0.31376994212946884844
-0.34346232816495131379 0.99999999999999988898 0.9123837460968182711
-0.39927034854839660305 0.908518871728932087 0.83520992115525172217
-0.49878084949126111347 0.20029036948087175496 0.17331074915557354021
-0.36522223091569183673 0.39540095461339619387 0.33509109918396229322
-0.12346217835424103115 1.000000000000000222 0.86975571294712517023
-0.48779409373662674376 0.99999999999999988898 0.46689134027321133047
-0.52346788868444993348 0.10356403920026663323 0.85781475722624100921
-0.35612210635364283107 -0.23038289411860493616 1
0.57076913759730574238 -0.27098304866554667747 1
0.88199388523002175688 -0.11999682332965910803 0.9283369852361411656
0.72675960662157057524 0.19620554214529117854 0.79364549242100024262
-0.21854829716824117347 0.94682174518276196462 0.48490719910485513555
-0.28882394097371300035 1 0.46309729171051716712
0.44344625828474426577 -0.14398831629769684448 -0.47654418336745663076
-0.35083411077964499203 -0.49765732929836015153 0.35611194944230145643
0.10584097964187735852 -1 0.50782285209472433074
1 -1 -0.073843090453014126329
1 -0.23241729707850647402 -0.75959081665541461348
-0.19105831456432503801 0.9713867617622772288 -0.28841609511758498074
-0.018597422453814405063 -0.010155537837036061194 0.50042826203273338415
0.30643006852878595936 -0.55505233794400798963 1
1 -0.3085213126361965319 1
1.000000000000000222 0.87313970104958626983 0.10614943908083925017
0.85195853951394595605 1 -0.029617132879128912903
-0.11876909624511888808 1 -0.29062327576371982385
0.0042243042511926984922 1 0.17368993927878789707
-1.000000000000000222 0.24491422686268671249 0.17503706572644028849
-1.000000000000000222 0.28273825434222626951 1
-0.046157682805309532825 1 1
-0.31581696887735255519 0.70124405074529172488 -0.29528464811322346906
-0.97245564995658084761 0.63091242657458135312 -1
-1 0.60075029317246664284 -1
-1 -1.000000000000000222 0.73893984704891124693
-0.78054266986726994482 -1 1
0.58443830742056523952 0.49470719996679723973 1.000000000000000222
0.57241313793198456139 1 -1
1 0.27900110382289278199 -1
1 0.20428686940615053969 -0.078435958244999853806
0.72317658222446512539 0.66863178877325579741 -0.048389359837225059957
0.52845768235354473319 1 -0.085791609406627306056
-1 -1 -0.61125923729330067236
-1 -0.90191411241696251011 -0.69946665843280109165
-0.40776912536685722133 -0.33521051637077525776 -0.9271546356815512091
0.19507710763629912409 0.064929019293542722391 -1
0.22481932181904823453 0.08067402088236659552 -1
0.7778846255843219204 -0.1773264452205259023 -0.50468728434296228347
0.49763804710038272994 -1 0.10171670424623444062
0.31558257354591884303 -1 -0.23739906129329735318
0.54494521041349108792 -0.78509372738233285105 0.26115618809051721616
0.84483670083757778091 -0.51733533887643967653 1
0.4640711471131199195 -1 1
-0.71207987878007683591 0.546526468933654197 0.28336659284982834706
-1.0000000000000004441 0.46617113031515866606 0.16322024770967175078
-1.000000000000000222 0.34462146066366111663 1
-0.2391856325344622336 0.60307325664984512414 1
-0.052179057418737836982 0.89886664014013839541 0.67157225182260604779
-0.45083161250154579758 0.64231126891470324836 0.80029460911176175664
-0.22567310192605710695 0.0069186820174461120467 1
-0.058295580307270680742 -0.040173379326060645877 1
0.05725149015413953657 0.056499836588563251416 0.95490122043876990432
0.5826243409547987584 0.54360357164255557194 0.73324565257432139376
0.31897637396387024111 0.85482091342704369374 0.65049316702206749774
0.93643579147630318094 -0.55426881967225494208 0.80333222165922268942
0.99999999999999988898 -0.58982020351591568641 0.82096007763334599705
1 -0.51933911982904223947 1
0.75587767324786292455 -0.35615058515502645564 1
-1 -0.74793194673521257165 0.62326181098192134922
-0.65930904691709546483 -0.78394511107925235471 0.69446148190094403319
-0.38586787177264858517 -1 0.73157054495922846371
-1 -1 0.59627538802631674386
-0.21953125690376329437 0.99999999999999977796 -0.68919401358048015815
-1 1 -0.73565358295502170094
-1 0.81630765700870266954 -1
-0.32880247241388244062 0.78854329881625684351 -1
-0.21687052967426612149 0.90197144550371555205 -0.83010572615356337245
-0.20892432557709700314 0.98830633439510062743 -0.70539062753335146638
-0.5223008295039224258 -1.000000000000000222 -0.16874630051762132266
-1 -0.4000468853809336367 -0.045308390539949838782
-1 -0.093372765022726234019 0.19542237323447514408
-0.10943526188624341788 -0.42136960681741952861 0.58580738803739207388
0.42550790897131235413 -1 0.52075016184966660404
5 0 1 2 3 4 151 47 171 255
6 5 6 7 8 9 10 104 165 85 255
7 11 12 13 14 15 16 17 57 123 160 255
5 18 19 20 21 22 170 81 74 255
7 23 24 25 26 27 28 29 122 40 149 255
5 30 31 32 33 34 75 158 63 255
8 35 36 37 38 39 40 41 42 188 116 138 255
4 43 44 45 46 141 74 52 255
5 47 48 49 50 51 93 32 127 255
6 52 53 54 55 56 57 46 150 41 255
4 58 59 60 61 159 108 116 255
5 62 63 64 65 66 112 67 190 255
6 67 68 69 70 71 72 64 185 105 255
5 73 74 75 76 77 177 143 179 255
6 78 79 80 81 82 83 130 101 94 255
7 84 85 86 87 88 89 90 83 59 168 255
6 91 92 93 94 95 96 35 177 83 255
5 97 98 99 100 101 148 135 157 255
8 102 103 104 105 106 107 108 109 101 94 71 255
6 110 111 112 113 114 115 53 52 146 255
5 116 117 118 119 120 166 170 60 255
6 121 122 123 124 125 126 119 128 135 255
6 127 128 129 130 131 132 72 86 49 255
5 133 134 135 136 137 184 44 124 255
4 138 139 140 141 137 163 38 255
5 142 143 144 145 146 90 121 113 255
8 147 148 149 150 151 152 153 154 43 79 187 255
5 155 156 157 158 159 155 37 102 255
7 160 161 162 163 164 165 166 108 155 176 255
4 167 168 169 170 61 113 91 255
6 171 172 173 174 175 176 174 71 165 255
5 177 178 179 180 181 126 190 80 255
7 182 183 184 185 186 187 188 79 148 154 255
4 189 190 191 192 32 106 69 255
4 193 194 195 196 144 64 143 255
7 197 198 199 200 201 202 203 97 182 58 255
4 204 205 206 207 50 140 132 255
4 208 209 210 211 163 99 47 255
6 212 213 214 215 216 217 115 57 121 255
5 218 219 220 221 222 68 175 36 255
