ply
format ascii 1.0
element vertex 117
property double x
property double y
property double z
element face 20
property list uchar int vertex_indices
property uchar red
property uchar green
property uchar blue
property uchar alpha
end_header
0.62538078888644510478 -1 -1
-0.048008830677860520053 -0.3050525331338432844 -1
-0.62112434030694030351 0.24378725950733243222 -0.92852162618451772325
-0.68805956594387440717 -0.19348103652724121804 -0.079391353933158548273
-0.55412486606260147326 -0.97535728826445211581 1
-0.5302465917011391916 -1 1
0.26828125755919784989 -0.91046915783956383628 0.58771894318856165995
-0.68651149272570077819 -0.17211321889565711629 -0.43656247714954254935
-0.93159394830511799146 0.50707965625516415731 -1
-0.45911923352389416575 0.96759078454118041535 -1
-0.21089676997789097435 0.97060382619221452494 -0.85336750392973659274
0.89293737389306815366 0.64472308374931430741 0.0069232473640606917442
1 0.50408841022581385438 0.15727623727788236918
1 -0.043385520973015290203 0.49327185873017975748
-0.021681094326524957827 1 -0.80596163614904747785
0.068270763937482131789 0.88088338836638802043 -1
-0.066366240479461685586 0.61286829633013217844 -1
-0.10077559582957332229 1 -0.70350235446631881331
0.75115147735114451422 -0.1042487144629903606 0.48217996801354084946
0.9069625806216273789 0.13021842535212102554 0.13356243712218385244
1.000000000000000222 0.29075094291465042318 0.19062522073031296088
1 0.33096063028778599513 0.71014028338957091435
0.94967699755769929837 0.24976077472894403497 0.7520233280068298054
0.69543106323997649909 -0.17815095961936150415 0.73536449488289890031
-0.059918184530191744008 -1 0.47801819573748832726
0.12251703833224071583 -0.84229899929153706495 0.45414078483390613039
1 -0.71218489241714211246 0.5841590189825267565
1 -1.000000000000000222 0.69630983871468909996
1 -0.27532412731080968538 0.0010636087689977783907
1 1 -0.63474108987366295587
0.98790878813761218158 1 -0.67145315471401989527
0.83148036299461514087 0.70632348778026043945 -1
0.69563927790648372174 -0.12098402037333851056 -1
0.74467573861058189433 -0.40726515504699223325 -0.70838891675338389042
0.81210782424913996458 -0.63569123416071438015 -0.38976719888611666143
0.71162338070864761264 -0.12748496539130133032 -0.045446368095580627622
0.49000656151645460845 0.59954663559226917258 -0.47881167828596510327
0.40580874580674741736 0.7191480431888919167 -0.57263406431294072707
-0.095118047664316168754 0.5290385987903245546 -0.7230752711340533434
0.29741772872137783867 0.14580077627922638506 -0.36451342059710395427
0.44433360189554793607 0.030344216964031854589 -0.24296573988378092346
-0.92576947001015863492 -1 -0.67158959970535736517
-0.84511955058745125147 -0.60504425680491147332 -1
1 -0.19969574907482870452 -1
1 -1 -0.303282733650804881
0.24099807140790108217 0.59580318881492533301 1
-0.67120769442925598547 0.50504462555967088999 0.77542374886470621931
-0.2130809605135417506 0.27863269880837016057 0.15788696786056666266
0.21239625497403719079 0.16194046534022060735 -0.16435883753100771765
0.3710959505986978213 0.20019849485364199504 -0.064958839426568965036
1 0.36719657052464871327 0.37026447904396297961
1 0.40688533403905341457 0.47683218167873397952
0.24320652118897184701 0.59582042669127099899 1
-1 -1 -0.53158168575394082467
-1 -0.67519174345740262666 -1
-0.020360059329444155779 -0.22732673652870022396 -1.000000000000000222
0.0087631252032819902803 -0.37683309801639808256 -0.76519009272734539451
-0.20176870762085713507 -1 -0.0053024889961983887043
-1 0.40155047313753688965 1
-1 0.70250750469883427307 0.33717772492310549293
-0.60146815117430763031 0.7666915184081481982 -0.0021510364928737854551
0.26158800749397104202 0.77425356825395486027 -0.44752949395224778106
1 0.68399528433774881009 -0.61555312951508378561
1 0.6650266856346653821 -0.57377703383068168197
0.14810950453498900048 0.31201842003500207534 0.62685931280859485959
-0.51033440376058392118 0.29110557287580268726 1
-0.99999999999999988898 -0.17120431330513519175 0.44362122460589753503
-0.99999999999999988898 -0.99999999999999988898 0.11292937844067617303
-0.45305259090439908842 -1 0.220406836087417346
-0.43213061548300246706 -0.27122148048998062642 0.51530280271603357001
0.8204765983885644598 -0.048585351375921848049 1
0.69921978384843574972 -0.24946767151919743699 0.73744270842253167864
0.61239665657392927667 -0.78937848154795964284 0.16662474132020782536
0.68802256427662900062 -1 0.0057093767060547168102
0.89495551156040098473 -1 0.12243360947220538471
0.93328634535106047565 -0.64962601948967690912 0.48270425309336695285
0.9295541827604510976 -0.11224267386829517301 1.000000000000000222
-0.69321618065463885827 -0.027347497164555603644 0.11034496090058573681
-0.26956157114536760666 0.1438785653319240021 -0.56927416855145285268
-0.17908141395014182118 0.06230554138138824638 -0.61875900796348171085
-0.018567724073975444554 -0.36644220237867614065 -0.47655699876494805878
-0.1873187484338691422 -0.54206606393428358182 -0.1188689490711683644
-0.54378411375194213306 -0.38958983054235607479 0.21284659722257476266
-0.0057750661552286482181 0.28751455104294387777 -0.19428695046936783619
0.41033606938701178146 0.66914351385789405668 -1
0.7970853944441081973 -1 -1.000000000000000222
0.0044814652502842555748 -1 0.26573843057229828979
0.11576303047527028434 0.41733148952676762944 0.057587750449945809827
-0.19822919354582235751 0.55548784072981982618 -0.23117171284946549936
-0.31855795943125087 0.7319458869091761688 -0.46849111529973408441
0.011894414556912546316 0.79990992541473182609 -0.38339322223192229266
0.29600807393024219927 0.81792470717950027659 -0.26877985744560495274
0.49174803832281965832 0.65891260805008844414 -0.014026088043973677921
-1 1 -0.27350100043465369604
-1 0.20583759336389528816 -0.60748504094428557032
-0.86022261698960056364 0.3255320556683797828 -0.52677990607044289373
-0.60989143356161279463 0.57166397249149336623 -0.3688829401119393947
-0.71193800828285125348 1 -0.21091718969455625077
-0.22881905742356864475 -0.46619829302489923517 -0.99196168341223256437
-0.96676209395196543994 0.13766862413227656803 -0.98959046289514240868
-0.47274242625607304502 0.40207679039484089945 -0.63181098637688437591
-0.035296657964536161389 0.42532763253581429286 -0.42833681171393978016
0.99999999999999988898 0.19934540136945086419 -0.097801939473051546781
0.99999999999999988898 0.022732784555739155019 -0.19271981845600111294
0.56420693902612373272 -0.81790249600331010882 -0.83476382393286363559
-0.095193786295538068698 -0.64296975157332914019 -0.80070109852153747987
-0.0056968776155084943635 -0.47906544856349075889 -0.87157903529557867461
0.076521649059449581287 -0.44887061237955117043 -0.78735503034470366579
0.18261181811803048336 -0.41930339860327031642 -0.66702270893911908001
0.12628317168025504635 -0.61743465429447008663 -0.50459578759705692175
-0.094494398973179266621 -0.78562950964104838469 -0.62268884099901700147
0.25548011373890616715 0.46781319310305369275 -0.3890524089797486873
0.049520415836780191932 1 -0.16727439626315646071
-1 1 0.54981300259722565293
-1 0.064497289689608078289 0.40732979937235946899
-0.8884372048131750077 -0.087120011745806053005 0.3080119356761703564
0.1512886978197185428 -0.4820007096169158789 -0.46252626020950704522
6 0 1 2 3 4 5 151 47 171 255
8 6 7 8 9 10 11 12 13 104 165 85 255
4 14 15 16 17 57 123 160 255
6 18 19 20 21 22 23 170 81 74 255
4 24 25 26 27 122 40 149 255
7 28 29 30 31 32 33 34 75 158 63 255
6 35 36 37 38 39 40 188 116 138 255
4 41 42 43 44 141 74 52 255
8 45 46 47 48 49 50 51 52 93 32 127 255
5 53 54 55 56 57 46 150 41 255
8 58 59 60 61 62 63 64 65 159 108 116 255
4 66 67 68 69 112 67 190 255
7 70 71 72 73 74 75 76 64 185 105 255
6 77 78 79 80 81 82 177 143 179 255
4 83 84 85 86 130 101 94 255
6 87 88 89 90 91 92 83 59 168 255
5 93 94 95 96 97 35 177 83 255
7 98 99 100 101 102 103 104 148 135 157 255
6 105 106 107 108 109 110 101 94 71 255
6 111 112 113 114 115 116 53 52 146 255
