/* XPM */
static const char *demo_fill_xpm[] = {
/* width height ncolors chars_per_pixel */
"32 32 9 1",
/* colors */
"  c #000000",
". c #C0C0C0",
"o c #808080",
"O c #000080",
"+ c #FFFFFF",
"@ c #FFFF00",
"# c #808000",
"$ c #0000FF",
"X c None",
/* pixels */
"XXXXXXXXXXXXXXXXXXXXXXXXXXXXXXXX",
"XXXXXXXXXXXXXXXXXXXXXXXXXXXXXXXX",
"XXXXXXXXXXXXXXXXXXXXXXXXXXXXXXXX",
"XXXXXXXXXXXXXXXXXXXXXXXXXX  XXXX",
"XXXXXXXXXXXXXXXXXXXXXXXXX $O XXX",
"XXXXXXXXXXXXXXXXXXXXXXXX $OOO XX",
"XXXXXXXXXXXXXXX   XXXXX $OOOO XX",
"XXXXXXXXXXXXXX ... XXX $OOOO XXX",
"XXXXXXXXXXXXX ..++. X $OOOO XXXX",
"XXXXXXXXXXXX ..+.... $OOOO XXXXX",
"XXXXXXXXXXX o.+.+....OOOO XXXXXX",
"XXXXXXXXXX #@o.+......OO XXXXXXX",
"XXXXXXXXX #@.+o........ XXXXXXXX",
"XXXXXXXX #@.+#@o........ XXXXXXX",
"XXXXXX  #@.+#@.+o........ XXXXXX",
"XXX   ##@.+#@.+#@o.....o. XXXXXX",
"XXXX ##@.+#@.+#@.+o...o.. XXXXXX",
"XXXXX @..#@.+#@.+#@o.o.o XXXXXXX",
"XXXXXX ##@.+#@.+#@.+o.o. XXXXXXX",
"XXXXXXX ..+#@.+#@.+#@o. XXXXXXXX",
"XXXXXXXX ##@.+#@.+#@.+ XXXXXXXXX",
"XXXXXXXXX @.+#@.+#@.+ XXXXXXXXXX",
"XXXXXXXXXX ##@.+#@.+ XXXXXXXXXXX",
"XXXXXXXXXXX ..+#@.+ XXXXXXXXXXXX",
"XXXXXXXXXXXX ##@.+ XXXXXXXXXXXXX",
"XXXX@@@@@@@XX @.+ XXXXXXXXXXXXXX",
"XXX@@@@@@@@@X    XXXXXXXXXXXXXXX",
"XX@@@@@@@@@@@XXXXXXXXXXXXXXXXXXX",
"X@@@@@@@@@@XXXXXXXXXXXXXXXXXXXXX",
"XXXXXXXXXXXXXXXXXXXXXXXXXXXXXXXX",
"XXXXXXXXXXXXXXXXXXXXXXXXXXXXXXXX",
"XXXXXXXXXXXXXXXXXXXXXXXXXXXXXXXX"
};
