/* XPM */
static const char *zoomout_xpm[] = {
/* width height ncolors chars_per_pixel */
"32 32 8 1",
/* colors */
"  c #000000",
". c #C0C0C0",
"X c #008080",
"o c #FF0000",
"O c #808080",
"+ c #000080",
"# c #0000FF",
"@ c None",
/* pixels */
"@@@@@@@@@@@@@@@@@@@@@@@@@@@@@@@@",
"@@@@@@@@@@@@@@@@@@@@@@@@@@@@@@@@",
"@@@@@@@@@@@@@@@@@@@@@@@@@@@@@@@@",
"@@@@@@@@@@@@@@@@@@@@@@@@@@@@@@@@",
"@@@@@@@@@@O     O@@@@@@@@@@@@@@@",
"@@@@@@@@O  O...O  O@@@@@@@@@@@@@",
"@@@@@@@  O..@@@..O  @@@@@@@@@@@@",
"@@@@@@ O..@@@@@@@..O @@@@@@@@@@@",
"@@@@@O ..@@@@@@@@@.. O@@@@@@@@@@",
"@@@@@ O.@@@@@@@@@@@.O @@@@@@@@@@",
"@@@@O .@@@@@@@@@@@@@. O@@@@@@@@@",
"@@@@ O.@@@@@@@@@@@@@.O @@@@@@@@@",
"@@@@ .@@@ooooooooo@@@. @@@@@@@@@",
"@@@@ .@@@ooooooooo@@@. @@@@@@@@@",
"@@@@ .@@@ooooooooo@@@. @@@@@@@@@",
"@@@@ O.@@@@@@@@@@@@@.O @@@@@@@@@",
"@@@@O .@@@@@@@@@@@@@. O@@@@@@@@@",
"@@@@@ O.@@@@@@@@@@@.O @@@@@@@@@@",
"@@@@@O ..@@@@@@@@@.. O@@@@@@@@@@",
"@@@@@@ O..@@@@@@@..O +@@@@@@@@@@",
"@@@@@@@  O..@@@..O  ##+@@@@@@@@@",
"@@@@@@@@O  O...O  O+X##+@@@@@@@@",
"@@@@@@@@@@O     O@@@+X##+@@@@@@@",
"@@@@@@@@@@@@@@@@@@@@@+X##+@@@@@@",
"@@@@@@@@@@@@@@@@@@@@@@+X##+@@@@@",
"@@@@@@@@@@@@@@@@@@@@@@@+X##+@@@@",
"@@@@@@@@@@@@@@@@@@@@@@@@+X##+@@@",
"@@@@@@@@@@@@@@@@@@@@@@@@@+X+@@@@",
"@@@@@@@@@@@@@@@@@@@@@@@@@@+@@@@@",
"@@@@@@@@@@@@@@@@@@@@@@@@@@@@@@@@",
"@@@@@@@@@@@@@@@@@@@@@@@@@@@@@@@@",
"@@@@@@@@@@@@@@@@@@@@@@@@@@@@@@@@"
};
