/* XPM */
static const char *delete_xpm[] = {
/* width height ncolors chars_per_pixel */
"32 32 6 1",
/* colors */
"  c #000000",
". c #C0C0C0",
"X c #808080",
"o c #FFFFFF",
"O c #FFFF00",
"+ c None",
/* pixels */
"++++++++++++++++++++++++++++++++",
"++++++++++++++++++++++++++++++++",
"++++++++++++++++++++++++++++++++",
"++++++++++++++++++++++++++++++++",
"++++++++++++++++++++++++++++++++",
"++++++++++++++++++++++++++++++++",
"+++++++++++++++            +++++",
"+++++++++++++  oOoOoOoOoOoO ++++",
"++++++++++++ OoOoOoOoOoOoO O +++",
"+++++++++++ OoOoOoOoOoOoO O. +++",
"++++++++++ OoOoOoOoOoOoO O.O +++",
"+++++++++ OoOoOoOoOoOoO O.O. +++",
"++++++++ OoOoOoOoOoOoO O.O.O +++",
"+++++++ OoOoOoOoOoOoO O.O.O ++++",
"++++++ OoOoOoOoOoOoO O.O.O. ++++",
"+++++ OoOoOoOoOoOoO O.O.O. +X+++",
"++++ OoOoOoOoOoOoO O.O.O. +X.+++",
"+++              XO.O.O. +X.++++",
"++ .OOOOOOOOOOOO. .O.O. +X.+++++",
"++ OOOOOOOOOOOOOO O.O. +X.++++++",
"++ OOOOOOOOOOOOOO .O. +X.+++++++",
"++ OOOOOOOOOOOOOO O. +X.++++++++",
"++ OOOOOOOOOOOOOO . +X.+++++++++",
"++ OOOOOOOOOOOOOO  +X.++++++++++",
"++ .OOOOOOOOOOOO. +X.+++++++++++",
"+++              +X.++++++++++++",
"++++XXXXXXXXXXXXXX.+++++++++++++",
"++++..............++++++++++++++",
"++++++++++++++++++++++++++++++++",
"++++++++++++++++++++++++++++++++",
"++++++++++++++++++++++++++++++++",
"++++++++++++++++++++++++++++++++"
};
