/* XPM */
static const char *insert_xpm[] = {
/* columns rows colors chars-per-pixel */
"32 32 4 1",
"  c opaque",
". c navy",
"X c #c0c0c0",
"o c None",
/* pixels */
"oooooooooooooooooooooooooooooooo",
"oooooooooooooooooooooooooooooooo",
"oooooooooooooooooooooooooooooooo",
"oooooooooooooooooooooooooooooooo",
"oooooooooooooooooooooooooooooooo",
"ooooo......................ooooo",
"ooooo......................ooooo",
"ooooo......................ooooo",
"oooooooooooo.......ooooooooooooo",
"oooooooooooo.......ooooooooooooo",
"oooooooooooo.......ooooooooooooo",
"oooooooooooo.......ooooooooooooo",
"oooooooooooo.......ooooooooooooo",
"oooooooooooo.......ooooooooooooo",
"oooooooooooo.......ooooooooooooo",
"oooooooooooo.......ooooooooooooo",
"oooooooooooo.......ooooooooooooo",
"oooooooooooo.......ooooooooooooo",
"oooooooooooo.......ooooooooooooo",
"oooooooooooo.......ooooooooooooo",
"oooooooooooo.......ooooooooooooo",
"oooooooooooo.......ooooooooooooo",
"oooooooooooo.......ooooooooooooo",
"oooooooooooo.......ooooooooooooo",
"ooooo......................ooooo",
"ooooo......................ooooo",
"ooooo......................ooooo",
"oooooooooooooooooooooooooooooooo",
"oooooooooooooooooooooooooooooooo",
"oooooooooooooooooooooooooooooooo",
"oooooooooooooooooooooooooooooooo",
"oooooooooooooooooooooooooooooooo"
};
