<?xml version="1.0" encoding="UTF-8" standalone="no"?>
<!-- Created with Inkscape (http://www.inkscape.org/) -->

<svg
   xmlns:dc="http://purl.org/dc/elements/1.1/"
   xmlns:cc="http://creativecommons.org/ns#"
   xmlns:rdf="http://www.w3.org/1999/02/22-rdf-syntax-ns#"
   xmlns:svg="http://www.w3.org/2000/svg"
   xmlns="http://www.w3.org/2000/svg"
   xmlns:xlink="http://www.w3.org/1999/xlink"
   xmlns:sodipodi="http://sodipodi.sourceforge.net/DTD/sodipodi-0.dtd"
   xmlns:inkscape="http://www.inkscape.org/namespaces/inkscape"
   width="60.536667mm"
   height="62.088886mm"
   viewBox="0 0 60.536667 62.088887"
   version="1.1"
   id="svg11763"
   inkscape:version="0.92.3 (2405546, 2018-03-11)"
   sodipodi:docname="quad_mesh.svg">
  <defs
     id="defs11757">
    <clipPath
       id="clip2">
      <path
         id="path11765"
         d="M 0.398438,36 H 153.48828 v 82 H 0.398438 Z m 0,0"
         inkscape:connector-curvature="0" />
    </clipPath>
    <clipPath
       id="clip3">
      <path
         id="path11768"
         d="m 36,0.617188 h 82 V 153.79687 H 36 Z m 0,0"
         inkscape:connector-curvature="0" />
    </clipPath>
    <clipPath
       id="clip4">
      <path
         id="path11771"
         d="M 0.398438,36 H 153.48828 v 82 H 0.398438 Z m 0,0"
         inkscape:connector-curvature="0" />
    </clipPath>
    <clipPath
       id="clip5">
      <path
         id="path11774"
         d="M 0.398438,41 H 20 v 72 H 0.398438 Z m 0,0"
         inkscape:connector-curvature="0" />
    </clipPath>
    <clipPath
       id="clip6">
      <path
         id="path11777"
         d="M 0.398438,103 H 51 v 50.79687 H 0.398438 Z m 0,0"
         inkscape:connector-curvature="0" />
    </clipPath>
    <clipPath
       id="clip7">
      <path
         id="path11780"
         d="m 134,41 h 19.48828 v 72 H 134 Z m 0,0"
         inkscape:connector-curvature="0" />
    </clipPath>
    <clipPath
       id="clip8">
      <path
         id="path11783"
         d="m 102,0.617188 h 51.48828 V 51 H 102 Z m 0,0"
         inkscape:connector-curvature="0" />
    </clipPath>
    <clipPath
       id="clip9">
      <path
         id="path11786"
         d="m 103,103 h 50.48828 v 50.79687 H 103 Z m 0,0"
         inkscape:connector-curvature="0" />
    </clipPath>
    <clipPath
       id="clip10">
      <path
         id="path11789"
         d="m 41,134 h 72 v 19.79687 H 41 Z m 0,0"
         inkscape:connector-curvature="0" />
    </clipPath>
    <clipPath
       id="clip11">
      <path
         id="path11792"
         d="M 0.398438,44 H 6 v 5 H 0.398438 Z m 0,0"
         inkscape:connector-curvature="0" />
    </clipPath>
    <clipPath
       id="clip12">
      <path
         id="path11795"
         d="M 0.398438,105 H 5 v 5 H 0.398438 Z m 0,0"
         inkscape:connector-curvature="0" />
    </clipPath>
    <clipPath
       id="clip13">
      <path
         id="path11798"
         d="m 44,149 h 5 v 4.79687 h -5 z m 0,0"
         inkscape:connector-curvature="0" />
    </clipPath>
    <clipPath
       id="clip14">
      <path
         id="path11801"
         d="m 105,149 h 5 v 4.79687 h -5 z m 0,0"
         inkscape:connector-curvature="0" />
    </clipPath>
    <clipPath
       id="clip15">
      <path
         id="path11804"
         d="m 149,105 h 4.48828 v 5 H 149 Z m 0,0"
         inkscape:connector-curvature="0" />
    </clipPath>
    <clipPath
       id="clip16">
      <path
         id="path11807"
         d="m 148,44 h 5.48828 v 5 H 148 Z m 0,0"
         inkscape:connector-curvature="0" />
    </clipPath>
    <clipPath
       id="clip17">
      <path
         id="path11810"
         d="m 44,0.617188 h 6 V 5 h -6 z m 0,0"
         inkscape:connector-curvature="0" />
    </clipPath>
    <clipPath
       id="clip1">
      <rect
         id="rect11813"
         height="154"
         width="154"
         y="0"
         x="0" />
    </clipPath>
    <g
       clip-path="url(#clip1)"
       id="surface577293">
      <path
         id="path11816"
         d="M 46.058594,1.859375 C 63.175781,18.96875 90.925781,18.96875 107.86328,1.675781 c -0.17969,-0.152343 -0.17969,-0.132812 -0.17969,-0.109375 0,24.203125 19.625,43.828125 44.04688,43.867188 0.19531,0.05469 0.17969,0.07031 0.16406,0.08594 -17.11719,17.117188 -17.11719,44.863281 -0.0859,61.964846 -24.29296,-0.0117 -43.91406,19.61328 -43.91406,43.81249 0,0.0234 0,0.0469 0.0234,-0.0586 0.0195,-0.14062 0,-0.16016 -0.008,-0.17187 -17.117191,-17.11719 -44.871098,-17.11719 -61.808598,0.17578 0.175782,0.15625 0.175782,0.13281 0.175782,0.11718 0,-24.20703 -19.621094,-43.83203 -44.039063,-43.87109 -0.195312,-0.0547 -0.179687,-0.0703 -0.167969,-0.0859 C 19.1875,90.285156 19.1875,62.539062 2.15625,45.4375 26.453125,45.453125 46.074219,25.828125 46.074219,1.621094 c 0,-0.019532 0,-0.042969 -0.03125,0.0625 -0.01563,0.144531 0,0.15625 0.01563,0.175781 z m 0,0"
         style="fill:#bda63f;fill-opacity:1;fill-rule:nonzero;stroke:none"
         inkscape:connector-curvature="0" />
      <path
         id="path11818"
         d="m 45.464844,151.48437 c 0,-24.20703 -19.621094,-43.82812 -43.621094,-43.82031 l 74.125,-30.406248 -30.570312,74.101558 c 0.06641,0.17188 0.06641,0.14844 0.06641,0.125 z m 0,0"
         style="fill:#ff0000;fill-opacity:1;fill-rule:nonzero;stroke:none"
         inkscape:connector-curvature="0" />
      <path
         id="path11820"
         d="M 1.339844,107.65625 76.675781,76.207031 1.292969,45.773438 c 17.28125,16.902343 17.28125,44.648437 0.167969,61.765622 l -0.046876,0.0508"
         style="fill:#007f00;fill-opacity:1;fill-rule:nonzero;stroke:none"
         inkscape:connector-curvature="0" />
      <path
         id="path11822"
         d="m 151.89453,108.0625 c -17.11719,-17.117188 -17.11719,-44.871094 0,-61.988281 0.0156,-0.01563 0.0312,-0.02734 0.0898,-0.07813 L 76.675781,77.410156 152.22266,107.62891"
         style="fill:#0000ff;fill-opacity:1;fill-rule:nonzero;stroke:none"
         inkscape:connector-curvature="0" />
      <path
         id="path11824"
         d="m 45.976562,2.171875 c 0,24.207031 -19.625,43.832031 -43.621093,43.820313 L 76.472656,76.402344 45.910156,2.300781 c 0.06641,-0.171875 0.06641,-0.152343 0.06641,-0.128906 z m 0,0"
         style="fill:#ff0000;fill-opacity:1;fill-rule:nonzero;stroke:none"
         inkscape:connector-curvature="0" />
      <path
         id="path11826"
         d="m 107.89453,151.48437 c 0,-24.20703 19.6211,-43.82812 43.61328,-43.82031 L 77.390625,77.257812 107.95313,151.35937 c -0.0586,0.17188 -0.0586,0.14844 -0.0586,0.125 z m 0,0"
         style="fill:#ff00ff;fill-opacity:1;fill-rule:nonzero;stroke:none"
         inkscape:connector-curvature="0" />
      <path
         id="path11828"
         d="M 77.28125,75.992188 107.71094,151.375 C 90.8125,134.09375 63.0625,134.09375 45.945312,151.21094 c -0.01953,0.0117 -0.02734,0.0273 -0.07812,0.082 z m 0,0"
         style="fill:#0000ff;fill-opacity:1;fill-rule:nonzero;stroke:none"
         inkscape:connector-curvature="0" />
      <g
         id="g11832"
         clip-path="url(#clip2)"
         style="clip-rule:nonzero">
        <path
           id="path11830"
           transform="matrix(1.40717,0,0,1.40717,0.398,0.616474)"
           d="M 1.443811,32.49869 106.85263,75.975802"
           style="fill:none;stroke:#000000;stroke-width:1.20000005;stroke-linecap:butt;stroke-linejoin:miter;stroke-miterlimit:4;stroke-opacity:1"
           inkscape:connector-curvature="0" />
      </g>
      <path
         id="path11834"
         d="M 107.73828,1.589844 C 90.621094,18.707031 62.871094,18.707031 45.75,1.589844 45.742188,1.578125 45.722656,1.5625 45.675781,1.507812 L 77.089844,76.808594 107.30469,1.257812"
         style="fill:#007f00;fill-opacity:1;fill-rule:nonzero;stroke:none"
         inkscape:connector-curvature="0" />
      <path
         id="path11836"
         d="m 107.89453,2.539062 c 0,24.210938 19.6211,43.832032 43.61328,43.820313 L 77.390625,76.769531 107.95313,2.667969 c -0.0586,-0.171875 -0.0586,-0.148438 -0.0586,-0.128907 z m 0,0"
         style="fill:#ff00ff;fill-opacity:1;fill-rule:nonzero;stroke:none"
         inkscape:connector-curvature="0" />
      <g
         id="g11842"
         clip-path="url(#clip3)"
         style="clip-rule:nonzero">
        <path
           id="path11838"
           transform="matrix(1.40717,0,0,1.40717,0.398,0.616474)"
           d="M 76.317049,0.991525 32.728899,106.94443"
           style="fill:none;stroke:#000000;stroke-width:1.20000005;stroke-linecap:butt;stroke-linejoin:miter;stroke-miterlimit:4;stroke-opacity:1"
           inkscape:connector-curvature="0" />
        <path
           id="path11840"
           transform="matrix(1.40717,0,0,1.40717,0.398,0.616474)"
           d="M 32.420767,1.854849 76.214339,106.90279"
           style="fill:none;stroke:#000000;stroke-width:1.20000005;stroke-linecap:butt;stroke-linejoin:miter;stroke-miterlimit:4;stroke-opacity:1"
           inkscape:connector-curvature="0" />
      </g>
      <g
         id="g11846"
         clip-path="url(#clip4)"
         style="clip-rule:nonzero">
        <path
           id="path11844"
           transform="matrix(1.40717,0,0,1.40717,0.398,0.616474)"
           d="M 1.374412,76.081289 107.26069,32.476483"
           style="fill:none;stroke:#000000;stroke-width:1.20000005;stroke-linecap:butt;stroke-linejoin:miter;stroke-miterlimit:4;stroke-opacity:1"
           inkscape:connector-curvature="0" />
      </g>
      <g
         id="g11850"
         clip-path="url(#clip5)"
         style="clip-rule:nonzero">
        <path
           id="path11848"
           transform="matrix(1.40717,0,0,1.40717,0.398,0.616474)"
           d="m 1.116248,32.229422 c 12.164264,12.164264 12.164264,31.887472 0,44.051736 -0.011104,0.0111 -0.022208,0.01943 -0.030536,0.03054"
           style="fill:none;stroke:#007f00;stroke-width:0.60000002;stroke-linecap:butt;stroke-linejoin:miter;stroke-miterlimit:4;stroke-opacity:1"
           inkscape:connector-curvature="0" />
      </g>
      <g
         id="g11854"
         clip-path="url(#clip6)"
         style="clip-rule:nonzero">
        <path
           id="path11852"
           transform="matrix(1.40717,-1.40717,1.40717,1.40717,0.398,0.616474)"
           d="m -37.489461,38.877752 c 8.601318,8.601318 8.59993,22.546361 -0.0014,31.147678 -0.0069,0.0069 -0.01527,0.01527 -0.0236,0.0236"
           style="fill:none;stroke:#ff0000;stroke-width:0.42426401;stroke-linecap:butt;stroke-linejoin:miter;stroke-miterlimit:4;stroke-opacity:1"
           inkscape:connector-curvature="0" />
      </g>
      <g
         id="g11858"
         clip-path="url(#clip7)"
         style="clip-rule:nonzero">
        <path
           id="path11856"
           transform="matrix(-1.40717,0,0,-1.40717,0.398,0.616474)"
           d="m -107.59103,-76.353333 c 12.16426,12.164264 12.16426,31.887472 0,44.051736 -0.0111,0.01388 -0.0167,0.01943 -0.0305,0.03054"
           style="fill:none;stroke:#0000ff;stroke-width:0.60000002;stroke-linecap:butt;stroke-linejoin:miter;stroke-miterlimit:4;stroke-opacity:1"
           inkscape:connector-curvature="0" />
      </g>
      <g
         id="g11862"
         clip-path="url(#clip8)"
         style="clip-rule:nonzero">
        <path
           id="path11860"
           transform="matrix(-1.40717,1.40717,-1.40717,-1.40717,0.398,0.616474)"
           d="m -37.550336,-69.765878 c 8.59993,8.599929 8.598542,22.544973 -0.0028,31.14629 -0.0083,0.0083 -0.01527,0.01527 -0.0236,0.0236"
           style="fill:none;stroke:#ff00ff;stroke-width:0.42426401;stroke-linecap:butt;stroke-linejoin:miter;stroke-miterlimit:4;stroke-opacity:1"
           inkscape:connector-curvature="0" />
      </g>
      <g
         id="g11866"
         clip-path="url(#clip9)"
         style="clip-rule:nonzero">
        <path
           id="path11864"
           transform="matrix(-1.40717,-1.40717,-1.40717,1.40717,0.398,0.616474)"
           d="m -91.895845,-15.567495 c 8.601318,8.601317 8.59993,22.546361 0,31.14629 -0.0083,0.0083 -0.01666,0.01666 -0.02498,0.02498"
           style="fill:none;stroke:#ff00ff;stroke-width:0.42426401;stroke-linecap:butt;stroke-linejoin:miter;stroke-miterlimit:4;stroke-opacity:1"
           inkscape:connector-curvature="0" />
      </g>
      <g
         id="g11870"
         clip-path="url(#clip10)"
         style="clip-rule:nonzero">
        <path
           id="path11868"
           transform="matrix(0,-1.40717,1.40717,0,0.398,0.616474)"
           d="m -107.30808,32.281969 c 12.164262,12.164264 12.164262,31.88192 0,44.046184 -0.0111,0.0111 -0.025,0.02498 -0.0305,0.03609"
           style="fill:none;stroke:#0000ff;stroke-width:0.60000002;stroke-linecap:butt;stroke-linejoin:miter;stroke-miterlimit:4;stroke-opacity:1"
           inkscape:connector-curvature="0" />
      </g>
      <g
         id="g11874"
         clip-path="url(#clip11)"
         style="clip-rule:nonzero">
        <path
           id="path11872"
           d="m 5.042969,46.746094 c 0,1.199218 -0.972657,2.164062 -2.164063,2.164062 -1.199218,0 -2.167968,-0.964844 -2.167968,-2.164062 0,-1.195313 0.96875,-2.167969 2.167968,-2.167969 1.191406,0 2.164063,0.972656 2.164063,2.167969 z m 0,0"
           style="fill:#00ffff;fill-opacity:1;fill-rule:nonzero;stroke:none"
           inkscape:connector-curvature="0" />
      </g>
      <g
         id="g11878"
         clip-path="url(#clip12)"
         style="clip-rule:nonzero">
        <path
           id="path11876"
           d="m 4.730469,107.69922 c 0,1.19531 -0.96875,2.16406 -2.167969,2.16406 -1.195312,0 -2.164062,-0.96875 -2.164062,-2.16406 0,-1.19922 0.96875,-2.16406 2.164062,-2.16406 1.199219,0 2.167969,0.96484 2.167969,2.16406 z m 0,0"
           style="fill:#00ffff;fill-opacity:1;fill-rule:nonzero;stroke:none"
           inkscape:connector-curvature="0" />
      </g>
      <g
         id="g11882"
         clip-path="url(#clip13)"
         style="clip-rule:nonzero">
        <path
           id="path11880"
           d="m 48.335938,151.62891 c 0,1.19921 -0.972657,2.16796 -2.167969,2.16796 -1.195313,0 -2.164063,-0.96875 -2.164063,-2.16796 0,-1.19922 0.96875,-2.16407 2.164063,-2.16407 1.195312,0 2.167969,0.96485 2.167969,2.16407 z m 0,0"
           style="fill:#00ffff;fill-opacity:1;fill-rule:nonzero;stroke:none"
           inkscape:connector-curvature="0" />
      </g>
      <g
         id="g11886"
         clip-path="url(#clip14)"
         style="clip-rule:nonzero">
        <path
           id="path11884"
           d="m 110,151.22266 c 0,1.1914 -0.97656,2.16406 -2.16797,2.16406 -1.19922,0 -2.16406,-0.97266 -2.16406,-2.16406 0,-1.19922 0.96484,-2.16407 2.16406,-2.16407 1.19141,0 2.16797,0.96485 2.16797,2.16407 z m 0,0"
           style="fill:#00ffff;fill-opacity:1;fill-rule:nonzero;stroke:none"
           inkscape:connector-curvature="0" />
      </g>
      <g
         id="g11890"
         clip-path="url(#clip15)"
         style="clip-rule:nonzero">
        <path
           id="path11888"
           d="m 153.48828,107.73047 c 0,1.19531 -0.97266,2.16797 -2.16406,2.16797 -1.19922,0 -2.16797,-0.97266 -2.16797,-2.16797 0,-1.19531 0.96875,-2.16406 2.16797,-2.16406 1.1914,0 2.16406,0.96875 2.16406,2.16406 z m 0,0"
           style="fill:#00ffff;fill-opacity:1;fill-rule:nonzero;stroke:none"
           inkscape:connector-curvature="0" />
      </g>
      <g
         id="g11894"
         clip-path="url(#clip16)"
         style="clip-rule:nonzero">
        <path
           id="path11892"
           d="m 153.28516,46.476562 c 0,1.199219 -0.97266,2.164063 -2.16797,2.164063 -1.19532,0 -2.16407,-0.964844 -2.16407,-2.164063 0,-1.195312 0.96875,-2.167968 2.16407,-2.167968 1.19531,0 2.16797,0.972656 2.16797,2.167968 z m 0,0"
           style="fill:#00ffff;fill-opacity:1;fill-rule:nonzero;stroke:none"
           inkscape:connector-curvature="0" />
      </g>
      <path
         id="path11896"
         d="m 109.79297,3.390625 c 0,1.199219 -0.97266,2.167969 -2.16406,2.167969 -1.19922,0 -2.16407,-0.96875 -2.16407,-2.167969 0,-1.191406 0.96485,-2.164063 2.16407,-2.164063 1.1914,0 2.16406,0.972657 2.16406,2.164063 z m 0,0"
         style="fill:#00ffff;fill-opacity:1;fill-rule:nonzero;stroke:none"
         inkscape:connector-curvature="0" />
      <g
         id="g11900"
         clip-path="url(#clip17)"
         style="clip-rule:nonzero">
        <path
           id="path11898"
           d="m 49.148438,2.78125 c 0,1.199219 -0.96875,2.167969 -2.167969,2.167969 -1.191407,0 -2.164063,-0.96875 -2.164063,-2.167969 0,-1.195312 0.972656,-2.164062 2.164063,-2.164062 1.199219,0 2.167969,0.96875 2.167969,2.164062 z m 0,0"
           style="fill:#00ffff;fill-opacity:1;fill-rule:nonzero;stroke:none"
           inkscape:connector-curvature="0" />
      </g>
      <path
         id="path11902"
         d="m 79.023438,76.460938 c 0,1.125 -0.910157,2.039062 -2.039063,2.039062 -1.125,0 -2.042969,-0.914062 -2.042969,-2.039062 0,-1.125 0.917969,-2.039063 2.042969,-2.039063 1.128906,0 2.039063,0.914063 2.039063,2.039063 z m 0,0"
         style="fill:#ffff00;fill-opacity:1;fill-rule:nonzero;stroke:none"
         inkscape:connector-curvature="0" />
    </g>
  </defs>
  <sodipodi:namedview
     id="base"
     pagecolor="#ffffff"
     bordercolor="#666666"
     borderopacity="1.0"
     inkscape:pageopacity="0.0"
     inkscape:pageshadow="2"
     inkscape:zoom="0.35"
     inkscape:cx="104"
     inkscape:cy="106.66668"
     inkscape:document-units="mm"
     inkscape:current-layer="layer1"
     showgrid="false"
     fit-margin-top="0"
     fit-margin-left="0"
     fit-margin-right="0"
     fit-margin-bottom="0"
     inkscape:window-width="941"
     inkscape:window-height="728"
     inkscape:window-x="27"
     inkscape:window-y="110"
     inkscape:window-maximized="0" />
  <metadata
     id="metadata11760">
    <rdf:RDF>
      <cc:Work
         rdf:about="">
        <dc:format>image/svg+xml</dc:format>
        <dc:type
           rdf:resource="http://purl.org/dc/dcmitype/StillImage" />
        <dc:title></dc:title>
      </cc:Work>
    </rdf:RDF>
  </metadata>
  <g
     inkscape:label="Calque 1"
     inkscape:groupmode="layer"
     id="layer1"
     transform="translate(-78.316667,-114.96667)">
    <g
       id="surface577287"
       transform="matrix(0.38805555,0,0,0.38805555,78.316667,114.96667)"
       style="stroke-width:0.90909094">
      <rect
         id="rect11907"
         style="fill:#ffffff;fill-opacity:1;stroke:none;stroke-width:0.90909094"
         height="160"
         width="156"
         y="0"
         x="0" />
      <use
         id="use11909"
         transform="translate(1,2)"
         xlink:href="#surface577293"
         x="0"
         y="0"
         width="100%"
         height="100%"
         style="stroke-width:0.90909094" />
    </g>
  </g>
</svg>
