solid
facet normal 0.45463017720314342 -0.19906014641748687 -0.86815117352019233
outer loop
vertex 0.33766584136292238 -0.3981511963346705 -0.85291113513304562
vertex 0.35682208977308993 0 -0.93417235896271578
vertex 0.6442221683309296 -0.20868896680211613 -0.73581703769759277
endloop
endfacet
facet normal -0.41352099631704892 -0.73560707902607358 -0.53654693260858666
outer loop
vertex -0.3981511963346705 -0.85291113513304562 -0.33766584136292238
vertex -0.57735026918962584 -0.57735026918962584 -0.57735026918962584
vertex -0.20868896680211613 -0.73581703769759277 -0.6442221683309296
endloop
endfacet
facet normal -0.41352099631704881 -0.73560707902607358 0.53654693260858655
outer loop
vertex -0.20868896680211613 -0.73581703769759277 0.6442221683309296
vertex -0.57735026918962584 -0.57735026918962584 0.57735026918962584
vertex -0.3981511963346705 -0.85291113513304562 0.33766584136292238
endloop
endfacet
facet normal 0.4546301772031433 -0.19906014641748651 0.86815117352019255
outer loop
vertex 0.6442221683309296 -0.20868896680211613 0.73581703769759277
vertex 0.35682208977308999 0 0.93417235896271555
vertex 0.33766584136292238 -0.3981511963346705 0.85291113513304562
endloop
endfacet
facet normal 0.99117710981172991 0.13254409449411944 -0
outer loop
vertex 0.98188800969385182 0 -0.18946222953255437
vertex 0.93417235896271555 0.35682208977308993 0
vertex 0.98188800969385182 0 0.18946222953255437
endloop
endfacet
facet normal -0.45463017720314342 -0.19906014641748684 -0.86815117352019233
outer loop
vertex -0.6442221683309296 -0.20868896680211613 -0.73581703769759277
vertex -0.35682208977308988 0 -0.93417235896271578
vertex -0.33766584136292238 -0.3981511963346705 -0.85291113513304562
endloop
endfacet
facet normal 0.53654693260858666 0.41352099631704892 -0.73560707902607358
outer loop
vertex 0.33766584136292238 0.3981511963346705 -0.85291113513304562
vertex 0.57735026918962584 0.57735026918962584 -0.57735026918962584
vertex 0.6442221683309296 0.20868896680211613 -0.73581703769759277
endloop
endfacet
facet normal 0.7356070790260737 0.53654693260858666 0.41352099631704892
outer loop
vertex 0.73581703769759277 0.6442221683309296 0.20868896680211613
vertex 0.57735026918962584 0.57735026918962584 0.57735026918962584
vertex 0.85291113513304562 0.33766584136292238 0.3981511963346705
endloop
endfacet
facet normal -0.13254409449411941 0 0.99117710981172991
outer loop
vertex 0 0.1894622295325544 0.98188800969385182
vertex -0.35682208977308999 0 0.93417235896271555
vertex 0 -0.1894622295325544 0.98188800969385182
endloop
endfacet
facet normal -0.86815117352019266 -0.4546301772031433 0.19906014641748643
outer loop
vertex -0.85291113513304562 -0.33766584136292238 0.3981511963346705
vertex -0.93417235896271555 -0.35682208977308993 0
vertex -0.73581703769759277 -0.6442221683309296 0.20868896680211613
endloop
endfacet
facet normal -0.45463017720314342 0.19906014641748682 -0.86815117352019233
outer loop
vertex -0.33766584136292238 0.3981511963346705 -0.85291113513304562
vertex -0.35682208977308988 0 -0.93417235896271578
vertex -0.6442221683309296 0.20868896680211613 -0.73581703769759277
endloop
endfacet
facet normal 0.41352099631704892 0.73560707902607358 -0.53654693260858666
outer loop
vertex 0.3981511963346705 0.85291113513304562 -0.33766584136292238
vertex 0.57735026918962584 0.57735026918962584 -0.57735026918962584
vertex 0.20868896680211613 0.73581703769759277 -0.6442221683309296
endloop
endfacet
facet normal 0.41352099631704881 0.73560707902607358 0.53654693260858655
outer loop
vertex 0.20868896680211613 0.73581703769759277 0.6442221683309296
vertex 0.57735026918962584 0.57735026918962584 0.57735026918962584
vertex 0.3981511963346705 0.85291113513304562 0.33766584136292238
endloop
endfacet
facet normal -0.82301416068358291 -0.56802085464734264 -0
outer loop
vertex -0.73581703769759277 -0.6442221683309296 0.20868896680211613
vertex -0.93417235896271555 -0.35682208977308993 0
vertex -0.73581703769759277 -0.6442221683309296 -0.20868896680211613
endloop
endfacet
facet normal -0.99117710981172991 -0.13254409449411944 0
outer loop
vertex -0.98188800969385182 0 -0.1894622295325544
vertex -0.93417235896271555 -0.35682208977308993 0
vertex -0.98188800969385182 0 0.1894622295325544
endloop
endfacet
facet normal -0.53654693260858666 -0.41352099631704892 -0.73560707902607358
outer loop
vertex -0.33766584136292238 -0.3981511963346705 -0.85291113513304562
vertex -0.57735026918962584 -0.57735026918962584 -0.57735026918962584
vertex -0.6442221683309296 -0.20868896680211613 -0.73581703769759277
endloop
endfacet
facet normal 0.45463017720314353 0.19906014641748693 -0.86815117352019233
outer loop
vertex 0.6442221683309296 0.20868896680211613 -0.73581703769759277
vertex 0.35682208977308993 0 -0.93417235896271578
vertex 0.33766584136292238 0.3981511963346705 -0.85291113513304562
endloop
endfacet
facet normal 0.86815117352019266 0.4546301772031433 0.19906014641748643
outer loop
vertex 0.85291113513304562 0.33766584136292238 0.3981511963346705
vertex 0.93417235896271555 0.35682208977308993 0
vertex 0.73581703769759277 0.6442221683309296 0.20868896680211613
endloop
endfacet
facet normal 0.13254409449411941 -0 0.99117710981172991
outer loop
vertex 0 -0.1894622295325544 0.98188800969385182
vertex 0.35682208977308999 0 0.93417235896271555
vertex 0 0.1894622295325544 0.98188800969385182
endloop
endfacet
facet normal -0.7356070790260737 -0.53654693260858666 0.41352099631704892
outer loop
vertex -0.73581703769759277 -0.6442221683309296 0.20868896680211613
vertex -0.57735026918962584 -0.57735026918962584 0.57735026918962584
vertex -0.85291113513304562 -0.33766584136292238 0.3981511963346705
endloop
endfacet
facet normal 0.86815117352019255 -0.4546301772031433 -0.19906014641748648
outer loop
vertex 0.85291113513304562 -0.33766584136292238 -0.3981511963346705
vertex 0.93417235896271555 -0.35682208977308999 0
vertex 0.73581703769759277 -0.6442221683309296 -0.20868896680211613
endloop
endfacet
facet normal 0.19906014641748682 -0.86815117352019233 -0.45463017720314342
outer loop
vertex 0.3981511963346705 -0.85291113513304562 -0.33766584136292238
vertex 0 -0.93417235896271578 -0.35682208977308988
vertex 0.20868896680211613 -0.73581703769759277 -0.6442221683309296
endloop
endfacet
facet normal 0.41352099631704881 -0.73560707902607358 -0.53654693260858655
outer loop
vertex 0.20868896680211613 -0.73581703769759277 -0.6442221683309296
vertex 0.57735026918962584 -0.57735026918962584 -0.57735026918962584
vertex 0.3981511963346705 -0.85291113513304562 -0.33766584136292238
endloop
endfacet
facet normal 0 -0.99117710981172991 0.13254409449411883
outer loop
vertex 0.18946222953255437 -0.98188800969385182 0
vertex 0 -0.93417235896271578 0.35682208977308993
vertex -0.18946222953255437 -0.98188800969385182 0
endloop
endfacet
facet normal 0 -0.99117710981172991 -0.13254409449411883
outer loop
vertex -0.18946222953255437 -0.98188800969385182 0
vertex 0 -0.93417235896271578 -0.35682208977308988
vertex 0.18946222953255437 -0.98188800969385182 0
endloop
endfacet
facet normal 0.41352099631704892 -0.73560707902607358 0.53654693260858666
outer loop
vertex 0.3981511963346705 -0.85291113513304562 0.33766584136292238
vertex 0.57735026918962584 -0.57735026918962584 0.57735026918962584
vertex 0.20868896680211613 -0.73581703769759277 0.6442221683309296
endloop
endfacet
facet normal 0.19906014641748693 -0.86815117352019233 0.45463017720314353
outer loop
vertex 0.20868896680211613 -0.73581703769759277 0.6442221683309296
vertex 0 -0.93417235896271578 0.35682208977308993
vertex 0.3981511963346705 -0.85291113513304562 0.33766584136292238
endloop
endfacet
facet normal 0.86815117352019255 -0.4546301772031433 0.19906014641748651
outer loop
vertex 0.73581703769759277 -0.6442221683309296 0.20868896680211613
vertex 0.93417235896271555 -0.35682208977308999 0
vertex 0.85291113513304562 -0.33766584136292238 0.3981511963346705
endloop
endfacet
facet normal 0.73560707902607358 -0.53654693260858666 0.41352099631704892
outer loop
vertex 0.85291113513304562 -0.33766584136292238 0.3981511963346705
vertex 0.57735026918962584 -0.57735026918962584 0.57735026918962584
vertex 0.73581703769759277 -0.6442221683309296 0.20868896680211613
endloop
endfacet
facet normal 0.7356070790260737 -0.53654693260858666 -0.41352099631704892
outer loop
vertex 0.73581703769759277 -0.6442221683309296 -0.20868896680211613
vertex 0.57735026918962584 -0.57735026918962584 -0.57735026918962584
vertex 0.85291113513304562 -0.33766584136292238 -0.3981511963346705
endloop
endfacet
facet normal -0.19906014641748684 -0.86815117352019233 -0.45463017720314342
outer loop
vertex -0.20868896680211613 -0.73581703769759277 -0.6442221683309296
vertex 0 -0.93417235896271578 -0.35682208977308988
vertex -0.3981511963346705 -0.85291113513304562 -0.33766584136292238
endloop
endfacet
facet normal -0.86815117352019255 -0.4546301772031433 -0.19906014641748646
outer loop
vertex -0.73581703769759277 -0.6442221683309296 -0.20868896680211613
vertex -0.93417235896271555 -0.35682208977308993 0
vertex -0.85291113513304562 -0.33766584136292238 -0.3981511963346705
endloop
endfacet
facet normal 0.53654693260858655 -0.41352099631704881 -0.73560707902607358
outer loop
vertex 0.6442221683309296 -0.20868896680211613 -0.73581703769759277
vertex 0.57735026918962584 -0.57735026918962584 -0.57735026918962584
vertex 0.33766584136292238 -0.3981511963346705 -0.85291113513304562
endloop
endfacet
facet normal -0.13254409449411883 0 -0.99117710981172991
outer loop
vertex 0 -0.1894622295325544 -0.98188800969385182
vertex -0.35682208977308988 0 -0.93417235896271578
vertex 0 0.18946222953255437 -0.98188800969385182
endloop
endfacet
facet normal 0.99117710981172991 -0.13254409449411941 0
outer loop
vertex 0.98188800969385182 0 0.18946222953255437
vertex 0.93417235896271555 -0.35682208977308999 0
vertex 0.98188800969385182 0 -0.18946222953255437
endloop
endfacet
facet normal 0.73560707902607358 0.53654693260858666 -0.41352099631704892
outer loop
vertex 0.85291113513304562 0.33766584136292238 -0.3981511963346705
vertex 0.57735026918962584 0.57735026918962584 -0.57735026918962584
vertex 0.73581703769759277 0.6442221683309296 -0.20868896680211613
endloop
endfacet
facet normal 0.53654693260858666 -0.41352099631704892 0.73
