solid
facet normal 0.45463017720314342 -0.19906014641748687 -0.86815117352019233
outer loop
vertex 0.33766584136292238 -0.3981511963346705 -0.85291113513304562
vertex 0.35682208977308993 0 -0.93417235896271578
vertex 0.6442221683309296 -0.20868896680211613 -0.73581703769759277
endloop
endfacet
facet normal -0.41352099631704892 -0.73560707902607358 -0.53654693260858666
outer loop
vertex -0.3981511963346705 -0.85291113513304562 -0.33766584136292238
vertex -0.57735026918962584 -0.57735026918962584 -0.57735026918962584
vertex -0.20868896680211613 -0.73581703769759277 -0.6442221683309296
endloop
endfacet
facet normal -0.41352099631704881 -0.73560707902607358 0.53654693260858655
outer loop
vertex -0.20868896680211613 -0.73581703769759277 0.6442221683309296
vertex -0.57735026918962584 -0.57735026918962584 0.57735026918962584
vertex -0.3981511963346705 -0.85291113513304562 0.33766584136292238
endloop
endfacet
facet normal 0.4546301772031433 -0.19906014641748651 0.86815117352019255
outer loop
vertex 0.6442221683309296 -0.20868896680211613 0.73581703769759277
vertex 0.35682208977308999 0 0.93417235896271555
vertex 0.33766584136292238 -0.3981511963346705 0.85291113513304562
endloop
endfacet
facet normal 0.99117710981172991 0.13254409449411944 -0
outer loop
vertex 0.98188800969385182 0 -0.18946222953255437
vertex 0.93417235896271555 0.35682208977308993 0
vertex 0.98188800969385182 0 0.18946222953255437
endloop
endfacet
facet normal -0.45463017720314342 -0.19906014641748684 -0.86815117352019233
outer loop
vertex -0.6442221683309296 -0.20868896680211613 -0.73581703769759277
vertex -0.35682208977308988 0 -0.93417235896271578
vertex -0.33766584136292238 -0.3981511963346705 -0.85291113513304562
endloop
endfacet
facet normal 0.53654693260858666 0.41352099631704892 -0.73560707902607358
outer loop
vertex 0.33766584136292238 0.3981511963346705 -0.85291113513304562
vertex 0.57735026918962584 0.57735026918962584 -0.57735026918962584
vertex 0.6442221683309296 0.20868896680211613 -0.73581703769759277
endloop
endfacet
facet normal 0.7356070790260737 0.53654693260858666 0.41352099631704892
outer loop
vertex 0.73581703769759277 0.6442221683309296 0.20868896680211613
vertex 0.57735026918962584 0.57735026918962584 0.57735026918962584
vertex 0.85291113513304562 0.33766584136292238 0.3981511963346705
endloop
endfacet
facet normal -0.13254409449411941 0 0.99117710981172991
outer loop
vertex 0 0.1894622295325544 0.98188800969385182
vertex -0.35682208977308999 0 0.93417235896271555
vertex 0 -0.1894622295325544 0.98188800969385182
endloop
endfacet
facet normal -0.86815117352019266 -0.4546301772031433 0.19906014641748643
outer loop
vertex -0.85291113513304562 -0.33766584136292238 0.3981511963346705
vertex -0.93417235896271555 -0.35682208977308993 0
vertex -0.73581703769759277 -0.6442221683309296 0.20868896680211613
endloop
endfacet
facet normal -0.45463017720314342 0.19906014641748682 -0.86815117352019233
outer loop
vertex -0.33766584136292238 0.3981511963346705 -0.85291113513304562
vertex -0.35682208977308988 0 -0.93417235896271578
vertex -0.6442221683309296 0.20868896680211613 -0.73581703769759277
endloop
endfacet
facet normal 0.41352099631704892 0.73560707902607358 -0.53654693260858666
outer loop
vertex 0.3981511963346705 0.85291113513304562 -0.33766584136292238
vertex 0.57735026918962584 0.57735026918962584 -0.57735026918962584
vertex 0.20868896680211613 0.73581703769759277 -0.6442221683309296
endloop
endfacet
facet normal 0.41352099631704881 0.73560707902607358 0.53654693260858655
outer loop
vertex 0.20868896680211613 0.73581703769759277 0.6442221683309296
vertex 0.57735026918962584 0.57735026918962584 0.57735026918962584
vertex 0.3981511963346705 0.85291113513304562 0.33766584136292238
endloop
endfacet
facet normal -0.82301416068358291 -0.56802085464734264 -0
outer loop
vertex -0.73581703769759277 -0.6442221683309296 0.20868896680211613
vertex -0.93417235896271555 -0.35682208977308993 0
vertex -0.73581703769759277 -0.6442221683309296 -0.20868896680211613
endloop
endfacet
facet normal -0.99117710981172991 -0.13254409449411944 0
outer loop
vertex -0.98188800969385182 0 -0.1894622295325544
vertex -0.93417235896271555 -0.35682208977308993 0
vertex -0.98188800969385182 0 0.1894622295325544
endloop
endfacet
facet normal -0.53654693260858666 -0.41352099631704892 -0.73560707902607358
outer loop
vertex -0.33766584136292238 -0.3981511963346705 -0.85291113513304562
vertex -0.57735026918962584 -0.57735026918962584 -0.57735026918962584
vertex -0.6442221683309296 -0.20868896680211613 -0.73581703769759277
endloop
endfacet
facet normal 0.45463017720314353 0.19906014641748693 -0.86815117352019233
outer loop
vertex 0.6442221683309296 0.20868896680211613 -0.73581703769759277
vertex 0.35682208977308993 0 -0.93417235896271578
vertex 0.33766584136292238 0.3981511963346705 -0.85291113513304562
endloop
endfacet
facet normal 0.86815117352019266 0.4546301772031433 0.19906014641748643
outer loop
vertex 0.85291113513304562 0.33766584136292238 0.3981511963346705
vertex 0.93417235896271555 0.35682208977308993 0
vertex 0.73581703769759277 0.6442221683309296 0.20868896680211613
endloop
endfacet
facet normal 0.13254409449411941 -0 0.99117710981172991
outer loop
vertex 0 -0.1894622295325544 0.98188800969385182
vertex 0.35682208977308999 0 0.93417235896271555
vertex 0 0.1894622295325544 0.98188800969385182
endloop
endfacet
facet normal -0.7356070790260737 -0.53654693260858666 0.41352099631704892
outer loop
vertex -0.73581703769759277 -0.6442221683309296 0.20868896680211613
vertex -0.57735026918962584 -0.57735026918962584 0.57735026918962584
vertex -0.85291113513304562 -0.33766584136292238 0.3981511963346705
endloop
endfacet
facet normal 0.86815117352019255 -0.4546301772031433 -0.19906014641748648
outer loop
vertex 0.85291113513304562 -0.33766584136292238 -0.3981511963346705
vertex 0.93417235896271555 -0.35682208977308999 0
vertex 0.73581703769759277 -0.6442221683309296 -0.20868896680211613
endloop
endfacet
facet normal 0.19906014641748682 -0.86815117352019233 -0.45463017720314342
outer loop
vertex 0.3981511963346705 -0.85291113513304562 -0.33766584136292238
vertex 0 -0.93417235896271578 -0.35682208977308988
vertex 0.20868896680211613 -0.73581703769759277 -0.6442221683309296
endloop
endfacet
facet normal 0.41352099631704881 -0.73560707902607358 -0.53654693260858655
outer loop
vertex 0.20868896680211613 -0.73581703769759277 -0.6442221683309296
vertex 0.57735026918962584 -0.57735026918962584 -0.57735026918962584
vertex 0.3981511963346705 -0.85291113513304562 -0.33766584136292238
endloop
endfacet
facet normal 0 -0.99117710981172991 0.13254409449411883
outer loop
vertex 0.18946222953255437 -0.98188800969385182 0
vertex 0 -0.93417235896271578 0.35682208977308993
vertex -0.18946222953255437 -0.98188800969385182 0
endloop
endfacet
facet normal 0 -0.99117710981172991 -0.13254409449411883
outer loop
vertex -0.18946222953255437 -0.98188800969385182 0
vertex 0 -0.93417235896271578 -0.35682208977308988
vertex 0.18946222953255437 -0.98188800969385182 0
endloop
endfacet
facet normal 0.41352099631704892 -0.73560707902607358 0.53654693260858666
outer loop
vertex 0.3981511963346705 -0.85291113513304562 0.33766584136292238
vertex 0.57735026918962584 -0.57735026918962584 0.57735026918962584
vertex 0.20868896680211613 -0.73581703769759277 0.6442221683309296
endloop
endfacet
facet normal 0.19906014641748693 -0.86815117352019233 0.45463017720314353
outer loop
vertex 0.20868896680211613 -0.73581703769759277 0.6442221683309296
vertex 0 -0.93417235896271578 0.35682208977308993
vertex 0.3981511963346705 -0.85291113513304562 0.33766584136292238
endloop
endfacet
facet normal 0.86815117352019255 -0.4546301772031433 0.19906014641748651
outer loop
vertex 0.73581703769759277 -0.6442221683309296 0.20868896680211613
vertex 0.93417235896271555 -0.35682208977308999 0
vertex 0.85291113513304562 -0.33766584136292238 0.3981511963346705
endloop
endfacet
facet normal 0.73560707902607358 -0.53654693260858666 0.41352099631704892
outer loop
vertex 0.85291113513304562 -0.33766584136292238 0.3981511963346705
vertex 0.57735026918962584 -0.57735026918962584 0.57735026918962584
vertex 0.73581703769759277 -0.6442221683309296 0.20868896680211613
endloop
endfacet
facet normal 0.7356070790260737 -0.53654693260858666 -0.41352099631704892
outer loop
vertex 0.73581703769759277 -0.6442221683309296 -0.20868896680211613
vertex 0.57735026918962584 -0.57735026918962584 -0.57735026918962584
vertex 0.85291113513304562 -0.33766584136292238 -0.3981511963346705
endloop
endfacet
facet normal -0.19906014641748684 -0.86815117352019233 -0.45463017720314342
outer loop
vertex -0.20868896680211613 -0.73581703769759277 -0.6442221683309296
vertex 0 -0.93417235896271578 -0.35682208977308988
vertex -0.3981511963346705 -0.85291113513304562 -0.33766584136292238
endloop
endfacet
facet normal -0.86815117352019255 -0.4546301772031433 -0.19906014641748646
outer loop
vertex -0.73581703769759277 -0.6442221683309296 -0.20868896680211613
vertex -0.93417235896271555 -0.35682208977308993 0
vertex -0.85291113513304562 -0.33766584136292238 -0.3981511963346705
endloop
endfacet
facet normal 0.53654693260858655 -0.41352099631704881 -0.73560707902607358
outer loop
vertex 0.6442221683309296 -0.20868896680211613 -0.73581703769759277
vertex 0.57735026918962584 -0.57735026918962584 -0.57735026918962584
vertex 0.33766584136292238 -0.3981511963346705 -0.85291113513304562
endloop
endfacet
facet normal -0.13254409449411883 0 -0.99117710981172991
outer loop
vertex 0 -0.1894622295325544 -0.98188800969385182
vertex -0.35682208977308988 0 -0.93417235896271578
vertex 0 0.18946222953255437 -0.98188800969385182
endloop
endfacet
facet normal 0.99117710981172991 -0.13254409449411941 0
outer loop
vertex 0.98188800969385182 0 0.18946222953255437
vertex 0.93417235896271555 -0.35682208977308999 0
vertex 0.98188800969385182 0 -0.18946222953255437
endloop
endfacet
facet normal 0.73560707902607358 0.53654693260858666 -0.41352099631704892
outer loop
vertex 0.85291113513304562 0.33766584136292238 -0.3981511963346705
vertex 0.57735026918962584 0.57735026918962584 -0.57735026918962584
vertex 0.73581703769759277 0.6442221683309296 -0.20868896680211613
endloop
endfacet
facet normal 0.53654693260858666 -0.41352099631704892 0.73560707902607358
outer loop
vertex 0.33766584136292238 -0.3981511963346705 0.85291113513304562
vertex 0.57735026918962584 -0.57735026918962584 0.57735026918962584
vertex 0.6442221683309296 -0.20868896680211613 0.73581703769759277
endloop
endfacet
facet normal 0.53654693260858655 0.41352099631704881 0.73560707902607358
outer loop
vertex 0.6442221683309296 0.20868896680211613 0.73581703769759277
vertex 0.57735026918962584 0.57735026918962584 0.57735026918962584
vertex 0.33766584136292238 0.3981511963346705 0.85291113513304562
endloop
endfacet
facet normal -0.19906014641748687 -0.86815117352019233 0.45463017720314342
outer loop
vertex -0.3981511963346705 -0.85291113513304562 0.33766584136292238
vertex 0 -0.93417235896271578 0.35682208977308993
vertex -0.20868896680211613 -0.73581703769759277 0.6442221683309296
endloop
endfacet
facet normal -0.4546301772031433 -0.19906014641748648 0.86815117352019255
outer loop
vertex -0.33766584136292238 -0.3981511963346705 0.85291113513304562
vertex -0.35682208977308999 0 0.93417235896271555
vertex -0.6442221683309296 -0.20868896680211613 0.73581703769759277
endloop
endfacet
facet normal -0.86815117352019255 0.4546301772031433 -0.19906014641748648
outer loop
vertex -0.85291113513304562 0.33766584136292238 -0.3981511963346705
vertex -0.93417235896271555 0.35682208977308999 0
vertex -0.73581703769759277 0.6442221683309296 -0.20868896680211613
endloop
endfacet
facet normal -0.19906014641748687 0.86815117352019233 -0.45463017720314342
outer loop
vertex -0.3981511963346705 0.85291113513304562 -0.33766584136292238
vertex 0 0.93417235896271578 -0.35682208977308993
vertex -0.20868896680211613 0.73581703769759277 -0.6442221683309296
endloop
endfacet
facet normal -0.41352099631704881 0.73560707902607358 -0.53654693260858655
outer loop
vertex -0.20868896680211613 0.73581703769759277 -0.6442221683309296
vertex -0.57735026918962584 0.57735026918962584 -0.57735026918962584
vertex -0.3981511963346705 0.85291113513304562 -0.33766584136292238
endloop
endfacet
facet normal -0 0.99117710981172991 0.13254409449411883
outer loop
vertex -0.18946222953255437 0.98188800969385182 0
vertex 0 0.93417235896271578 0.35682208977308993
vertex 0.18946222953255437 0.98188800969385182 0
endloop
endfacet
facet normal 0 0.99117710981172991 -0.13254409449411883
outer loop
vertex 0.18946222953255437 0.98188800969385182 0
vertex 0 0.93417235896271578 -0.35682208977308993
vertex -0.18946222953255437 0.98188800969385182 0
endloop
endfacet
facet normal -0.41352099631704892 0.73560707902607358 0.53654693260858666
outer loop
vertex -0.3981511963346705 0.85291113513304562 0.33766584136292238
vertex -0.57735026918962584 0.57735026918962584 0.57735026918962584
vertex -0.20868896680211613 0.73581703769759277 0.6442221683309296
endloop
endfacet
facet normal -0.19906014641748693 0.86815117352019233 0.45463017720314353
outer loop
vertex -0.20868896680211613 0.73581703769759277 0.6442221683309296
vertex 0 0.93417235896271578 0.35682208977308993
vertex -0.3981511963346705 0.85291113513304562 0.33766584136292238
endloop
endfacet
facet normal -0.86815117352019255 0.4546301772031433 0.19906014641748651
outer loop
vertex -0.73581703769759277 0.6442221683309296 0.20868896680211613
vertex -0.93417235896271555 0.35682208977308999 0
vertex -0.85291113513304562 0.33766584136292238 0.3981511963346705
endloop
endfacet
facet normal -0.73560707902607358 0.53654693260858666 0.41352099631704892
outer loop
vertex -0.85291113513304562 0.33766584136292238 0.3981511963346705
vertex -0.57735026918962584 0.57735026918962584 0.57735026918962584
vertex -0.73581703769759277 0.6442221683309296 0.20868896680211613
endloop
endfacet
facet normal -0.7356070790260737 0.53654693260858666 -0.41352099631704892
outer loop
vertex -0.73581703769759277 0.6442221683309296 -0.20868896680211613
vertex -0.57735026918962584 0.57735026918962584 -0.57735026918962584
vertex -0.85291113513304562 0.33766584136292238 -0.3981511963346705
endloop
endfacet
facet normal -0.53654693260858655 0.41352099631704881 -0.73560707902607358
outer loop
vertex -0.6442221683309296 0.20868896680211613 -0.73581703769759277
vertex -0.57735026918962584 0.57735026918962584 -0.57735026918962584
vertex -0.33766584136292238 0.3981511963346705 -0.85291113513304562
endloop
endfacet
facet normal 0.13254409449411883 0 -0.99117710981172991
outer loop
vertex 0 0.18946222953255437 -0.98188800969385182
vertex 0.35682208977308993 0 -0.93417235896271578
vertex 0 -0.1894622295325544 -0.98188800969385182
endloop
endfacet
facet normal 0.19906014641748693 0.86815117352019233 -0.45463017720314353
outer loop
vertex 0.20868896680211613 0.73581703769759277 -0.6442221683309296
vertex 0 0.93417235896271578 -0.35682208977308993
vertex 0.3981511963346705 0.85291113513304562 -0.33766584136292238
endloop
endfacet
facet normal 0.86815117352019255 0.4546301772031433 -0.19906014641748646
outer loop
vertex 0.73581703769759277 0.6442221683309296 -0.20868896680211613
vertex 0.93417235896271555 0.35682208977308993 0
vertex 0.85291113513304562 0.33766584136292238 -0.3981511963346705
endloop
endfacet
facet normal 0.19906014641748687 0.86815117352019233 0.45463017720314342
outer loop
vertex 0.3981511963346705 0.85291113513304562 0.33766584136292238
vertex 0 0.93417235896271578 0.35682208977308993
vertex 0.20868896680211613 0.73581703769759277 0.6442221683309296
endloop
endfacet
facet normal 0.4546301772031433 0.19906014641748648 0.86815117352019255
outer loop
vertex 0.33766584136292238 0.3981511963346705 0.85291113513304562
vertex 0.35682208977308999 0 0.93417235896271555
vertex 0.6442221683309296 0.20868896680211613 0.73581703769759277
endloop
endfacet
facet normal -0.57085360499153404 -0.79364326343007319 -0.21037236529599829
outer loop
vertex -0.3981511963346705 -0.85291113513304562 -0.33766584136292238
vertex -0.52573111211913348 -0.85065080835203999 9.9692050928223507e-018
vertex -0.73581703769759277 -0.6442221683309296 -0.20868896680211613
endloop
endfacet
facet normal -0.53654693260858655 -0.41352099631704881 0.73560707902607358
outer loop
vertex -0.6442221683309296 -0.20868896680211613 0.73581703769759277
vertex -0.57735026918962584 -0.57735026918962584 0.57735026918962584
vertex -0.33766584136292238 -0.3981511963346705 0.85291113513304562
endloop
endfacet
facet normal -0.99117710981172991 0.13254409449411941 0
outer loop
vertex -0.98188800969385182 0 0.1894622295325544
vertex -0.93417235896271555 0.35682208977308999 0
vertex -0.98188800969385182 0 -0.1894622295325544
endloop
endfacet
facet normal -0.73560707902607358 -0.53654693260858666 -0.41352099631704892
outer loop
vertex -0.85291113513304562 -0.33766584136292238 -0.3981511963346705
vertex -0.57735026918962584 -0.57735026918962584 -0.57735026918962584
vertex -0.73581703769759277 -0.6442221683309296 -0.20868896680211613
endloop
endfacet
facet normal 0.71328817018071067 0 -0.70087087703816986
outer loop
vertex 0.6442221683309296 0.20868896680211613 -0.73581703769759277
vertex 0.85065080835203999 0 -0.52573111211913348
vertex 0.6442221683309296 -0.20868896680211613 -0.73581703769759277
endloop
endfacet
facet normal 0.71386388683154312 -0.38182201528058046 -0.58703517758720203
outer loop
vertex 0.85291113513304562 -0.33766584136292238 -0.3981511963346705
vertex 0.57735026918962584 -0.57735026918962584 -0.57735026918962584
vertex 0.6442221683309296 -0.20868896680211613 -0.73581703769759277
endloop
endfacet
facet normal -0.21037236529599823 -0.57085360499153415 -0.79364326343007319
outer loop
vertex -0.33766584136292238 -0.3981511963346705 -0.85291113513304562
vertex -4.9846025464111761e-018 -0.52573111211913359 -0.85065080835203988
vertex -0.20868896680211613 -0.73581703769759277 -0.6442221683309296
endloop
endfacet
facet normal -0 -0.82301416068358269 -0.56802085464734287
outer loop
vertex 0.20868896680211613 -0.73581703769759277 -0.6442221683309296
vertex 0 -0.93417235896271578 -0.35682208977308988
vertex -0.20868896680211613 -0.73581703769759277 -0.6442221683309296
endloop
endfacet
facet normal -0.57085360499153404 -0.79364326343007319 0.21037236529599829
outer loop
vertex -0.73581703769759277 -0.6442221683309296 0.20868896680211613
vertex -0.52573111211913348 -0.85065080835203999 9.9692050928223507e-018
vertex -0.3981511963346705 -0.85291113513304562 0.33766584136292238
endloop
endfacet
facet normal -0.20521316230662157 -0.94984286992792366 0.23597898309638049
outer loop
vertex -0.18946222953255437 -0.98188800969385182 0
vertex 0 -0.93417235896271578 0.35682208977308993
vertex -0.3981511963346705 -0.85291113513304562 0.33766584136292238
endloop
endfacet
facet normal 0.13001727204663566 -0.36048123969553592 0.9236605354767089
outer loop
vertex 0 -0.1894622295325544 0.98188800969385182
vertex 0 -0.52573111211913359 0.85065080835203988
vertex 0.33766584136292238 -0.3981511963346705 0.85291113513304562
endloop
endfacet
facet normal 0.38182201528058057 -0.58703517758720214 0.71386388683154312
outer loop
vertex 0.20868896680211613 -0.73581703769759277 0.6442221683309296
vertex 0.57735026918962584 -0.57735026918962584 0.57735026918962584
vertex 0.33766584136292238 -0.3981511963346705 0.85291113513304562
endloop
endfacet
facet normal 0.92366053547670901 0.13001727204663582 0.36048123969553569
outer loop
vertex 0.85291113513304562 0.33766584136292238 0.3981511963346705
vertex 0.85065080835203999 9.9692050928223507e-018 0.52573111211913348
vertex 0.98188800969385182 0 0.18946222953255437
endloop
endfacet
facet normal 0.94984286992792366 -0.23597898309638077 0.20521316230662104
outer loop
vertex 0.85291113513304562 -0.33766584136292238 0.3981511963346705
vertex 0.93417235896271555 -0.35682208977308999 0
vertex 0.98188800969385182 0 0.18946222953255437
endloop
endfacet
facet normal -0.13001727204663566 -0.36048123969553592 -0.9236605354767089
outer loop
vertex 0 -0.1894622295325544 -0.98188800969385182
vertex -4.9846025464111761e-018 -0.52573111211913359 -0.85065080835203988
vertex -0.33766584136292238 -0.3981511963346705 -0.85291113513304562
endloop
endfacet
facet normal -0.38182201528058057 -0.58703517758720214 -0.71386388683154312
outer loop
vertex -0.20868896680211613 -0.73581703769759277 -0.6442221683309296
vertex -0.57735026918962584 -0.57735026918962584 -0.57735026918962584
vertex -0.33766584136292238 -0.3981511963346705 -0.85291113513304562
endloop
endfacet
facet normal 0.79364326343007319 0.21037236529599831 -0.57085360499153415
outer loop
vertex 0.85291113513304562 0.33766584136292238 -0.3981511963346705
vertex 0.85065080835203999 0 -0.52573111211913348
vertex 0.6442221683309296 0.20868896680211613 -0.73581703769759277
endloop
endfacet
facet normal 0.56802085464734298 0 -0.82301416068358257
outer loop
vertex 0.6442221683309296 -0.20868896680211613 -0.73581703769759277
vertex 0.35682208977308993 0 -0.93417235896271578
vertex 0.6442221683309296 0.20868896680211613 -0.73581703769759277
endloop
endfacet
facet normal 0.79364326343007319 0.21037236529599831 0.57085360499153415
outer loop
vertex 0.6442221683309296 0.20868896680211613 0.73581703769759277
vertex 0.85065080835203999 9.9692050928223507e-018 0.52573111211913348
vertex 0.85291113513304562 0.33766584136292238 0.3981511963346705
endloop
endfacet
facet normal 0.94984286992792366 0.23597898309638082 0.20521316230662104
outer loop
vertex 0.98188800969385182 0 0.18946222953255437
vertex 0.93417235896271555 0.35682208977308993 0
vertex 0.85291113513304562 0.33766584136292238 0.3981511963346705
endloop
endfacet
facet normal -0.13001727204663571 -0.36048123969553592 0.92366053547670901
outer loop
vertex -0.33766584136292238 -0.3981511963346705 0.85291113513304562
vertex 0 -0.52573111211913359 0.85065080835203988
vertex 0 -0.1894622295325544 0.98188800969385182
endloop
endfacet
facet normal 0.23597898309638077 -0.20521316230662104 0.94984286992792366
outer loop
vertex 0.33766584136292238 -0.3981511963346705 0.85291113513304562
vertex 0.35682208977308999 0 0.93417235896271555
vertex 0 -0.1894622295325544 0.98188800969385182
endloop
endfacet
facet normal -0.70087087703816986 -0.71328817018071067 0
outer loop
vertex -0.73581703769759277 -0.6442221683309296 -0.20868896680211613
vertex -0.52573111211913348 -0.85065080835203999 9.9692050928223507e-018
vertex -0.73581703769759277 -0.6442221683309296 0.20868896680211613
endloop
endfacet
facet normal -0.58703517758720203 -0.71386388683154312 0.38182201528058046
outer loop
vertex -0.3981511963346705 -0.85291113513304562 0.33766584136292238
vertex -0.57735026918962584 -0.57735026918962584 0.57735026918962584
vertex -0.73581703769759277 -0.6442221683309296 0.20868896680211613
endloop
endfacet
facet normal -0.71328817018071078 0 -0.70087087703816997
outer loop
vertex -0.6442221683309296 -0.20868896680211613 -0.73581703769759277
vertex -0.85065080835203988 -4.9846025464111761e-018 -0.52573111211913359
vertex -0.6442221683309296 0.20868896680211613 -0.73581703769759277
endloop
endfacet
facet normal -0.71386388683154312 0.38182201528058046 -0.58703517758720203
outer loop
vertex -0.85291113513304562 0.33766584136292238 -0.3981511963346705
vertex -0.57735026918962584 0.57735026918962584 -0.57735026918962584
vertex -0.6442221683309296 0.20868896680211613 -0.73581703769759277
endloop
endfacet
facet normal 0.21037236529599831 0.57085360499153415 -0.79364326343007319
outer loop
vertex 0.33766584136292238 0.3981511963346705 -0.85291113513304562
vertex -9.9692050928223507e-018 0.52573111211913348 -0.85065080835203999
vertex 0.20868896680211613 0.73581703769759277 -0.6442221683309296
endloop
endfacet
facet normal 0 0.82301416068358257 -0.56802085464734298
outer loop
vertex -0.20868896680211613 0.73581703769759277 -0.6442221683309296
vertex 0 0.93417235896271578 -0.35682208977308993
vertex 0.20868896680211613 0.73581703769759277 -0.6442221683309296
endloop
endfacet
facet normal 0.57085360499153404 0.79364326343007319 0.21037236529599829
outer loop
vertex 0.73581703769759277 0.6442221683309296 0.20868896680211613
vertex 0.52573111211913348 0.85065080835203999 0
vertex 0.3981511963346705 0.85291113513304562 0.33766584136292238
endloop
endfacet
facet normal 0.20521316230662157 0.94984286992792366 0.23597898309638049
outer loop
vertex 0.18946222953255437 0.98188800969385182 0
vertex 0 0.93417235896271578 0.35682208977308993
vertex 0.3981511963346705 0.85291113513304562 0.33766584136292238
endloop
endfacet
facet normal -0.13001727204663566 0.36048123969553592 0.9236605354767089
outer loop
vertex 0 0.1894622295325544 0.98188800969385182
vertex 0 0.52573111211913359 0.85065080835203988
vertex -0.33766584136292238 0.3981511963346705 0.85291113513304562
endloop
endfacet
facet normal -0.38182201528058057 0.58703517758720214 0.71386388683154312
outer loop
vertex -0.20868896680211613 0.73581703769759277 0.6442221683309296
vertex -0.57735026918962584 0.57735026918962584 0.57735026918962584
vertex -0.33766584136292238 0.3981511963346705 0.85291113513304562
endloop
endfacet
facet normal -0.9236605354767089 -0.13001727204663571 0.36048123969553592
outer loop
vertex -0.85291113513304562 -0.33766584136292238 0.3981511963346705
vertex -0.85065080835203988 4.9846025464111761e-018 0.52573111211913359
vertex -0.98188800969385182 0 0.1894622295325544
endloop
endfacet
facet normal -0.94984286992792366 0.23597898309638077 0.20521316230662104
outer loop
vertex -0.85291113513304562 0.33766584136292238 0.3981511963346705
vertex -0.93417235896271555 0.35682208977308999 0
vertex -0.98188800969385182 0 0.1894622295325544
endloop
endfacet
facet normal -0.79364326343007319 -0.21037236529599823 -0.57085360499153415
outer loop
vertex -0.85291113513304562 -0.33766584136292238 -0.3981511963346705
vertex -0.85065080835203988 -4.9846025464111761e-018 -0.52573111211913359
vertex -0.6442221683309296 -0.20868896680211613 -0.73581703769759277
endloop
endfacet
facet normal -0.56802085464734287 -0 -0.82301416068358269
outer loop
vertex -0.6442221683309296 0.20868896680211613 -0.73581703769759277
vertex -0.35682208977308988 0 -0.93417235896271578
vertex -0.6442221683309296 -0.20868896680211613 -0.73581703769759277
endloop
endfacet
facet normal 0.1300172720466358 0.36048123969553575 -0.92366053547670901
outer loop
vertex 0 0.18946222953255437 -0.98188800969385182
vertex -9.9692050928223507e-018 0.52573111211913348 -0.85065080835203999
vertex 0.33766584136292238 0.3981511963346705 -0.85291113513304562
endloop
endfacet
facet normal 0.38182201528058057 0.58703517758720214 -0.71386388683154312
outer loop
vertex 0.20868896680211613 0.73581703769759277 -0.6442221683309296
vertex 0.57735026918962584 0.57735026918962584 -0.57735026918962584
vertex 0.33766584136292238 0.3981511963346705 -0.85291113513304562
endloop
endfacet
facet normal 0.70087087703816986 0.71328817018071067 -0
outer loop
vertex 0.73581703769759277 0.6442221683309296 -0.20868896680211613
vertex 0.52573111211913348 0.85065080835203999 0
vertex 0.73581703769759277 0.6442221683309296 0.20868896680211613
endloop
endfacet
facet normal 0.58703517758720203 0.71386388683154312 0.38182201528058046
outer loop
vertex 0.3981511963346705 0.85291113513304562 0.33766584136292238
vertex 0.57735026918962584 0.57735026918962584 0.57735026918962584
vertex 0.73581703769759277 0.6442221683309296 0.20868896680211613
endloop
endfacet
facet normal 0.13001727204663571 0.36048123969553592 0.92366053547670901
outer loop
vertex 0.33766584136292238 0.3981511963346705 0.85291113513304562
vertex 0 0.52573111211913359 0.85065080835203988
vertex 0 0.1894622295325544 0.98188800969385182
endloop
endfacet
facet normal -0.94984286992792366 -0.23597898309638082 -0.20521316230662104
outer loop
vertex -0.85291113513304562 -0.33766584136292238 -0.3981511963346705
vertex -0.93417235896271555 -0.35682208977308993 0
vertex -0.98188800969385182 0 -0.1894622295325544
endloop
endfacet
facet normal -0.79364326343007319 -0.21037236529599818 0.57085360499153415
outer loop
vertex -0.6442221683309296 -0.20868896680211613 0.73581703769759277
vertex -0.85065080835203988 4.9846025464111761e-018 0.52573111211913359
vertex -0.85291113513304562 -0.33766584136292238 0.3981511963346705
endloop
endfacet
facet normal -0.94984286992792366 -0.23597898309638082 0.20521316230662104
outer loop
vertex -0.98188800969385182 0 0.1894622295325544
vertex -0.93417235896271555 -0.35682208977308993 0
vertex -0.85291113513304562 -0.33766584136292238 0.3981511963346705
endloop
endfacet
facet normal 0.70087087703816986 -0.71328817018071067 0
outer loop
vertex 0.73581703769759277 -0.6442221683309296 0.20868896680211613
vertex 0.52573111211913348 -0.85065080835203999 -9.9692050928223507e-018
vertex 0.73581703769759277 -0.6442221683309296 -0.20868896680211613
endloop
endfacet
facet normal 0.58703517758720203 -0.71386388683154312 -0.38182201528058046
outer loop
vertex 0.3981511963346705 -0.85291113513304562 -0.33766584136292238
vertex 0.57735026918962584 -0.57735026918962584 -0.57735026918962584
vertex 0.73581703769759277 -0.6442221683309296 -0.20868896680211613
endloop
endfacet
facet normal 0 -0.70087087703816997 -0.71328817018071078
outer loop
vertex -0.20868896680211613 -0.73581703769759277 -0.6442221683309296
vertex -4.9846025464111761e-018 -0.52573111211913359 -0.85065080835203988
vertex 0.20868896680211613 -0.73581703769759277 -0.6442221683309296
endloop
endfacet
facet normal 0.38182201528058057 -0.58703517758720214 -0.71386388683154323
outer loop
vertex 0.33766584136292238 -0.3981511963346705 -0.85291113513304562
vertex 0.57735026918962584 -0.57735026918962584 -0.57735026918962584
vertex 0.20868896680211613 -0.73581703769759277 -0.6442221683309296
endloop
endfacet
facet normal 0.57085360499153404 -0.79364326343007319 -0.21037236529599829
outer loop
vertex 0.73581703769759277 -0.6442221683309296 -0.20868896680211613
vertex 0.52573111211913348 -0.85065080835203999 -9.9692050928223507e-018
vertex 0.3981511963346705 -0.85291113513304562 -0.33766584136292238
endloop
endfacet
facet normal 0.20521316230662154 -0.94984286992792366 -0.23597898309638052
outer loop
vertex 0.18946222953255437 -0.98188800969385182 0
vertex 0 -0.93417235896271578 -0.35682208977308988
vertex 0.3981511963346705 -0.85291113513304562 -0.33766584136292238
endloop
endfacet
facet normal -0.36048123969553569 -0.92366053547670901 0.13001727204663582
outer loop
vertex -0.3981511963346705 -0.85291113513304562 0.33766584136292238
vertex -0.52573111211913348 -0.85065080835203999 9.9692050928223507e-018
vertex -0.18946222953255437 -0.98188800969385182 0
endloop
endfacet
facet normal -0.20521316230662151 -0.94984286992792366 -0.23597898309638049
outer loop
vertex -0.3981511963346705 -0.85291113513304562 -0.33766584136292238
vertex 0 -0.93417235896271578 -0.35682208977308988
vertex -0.18946222953255437 -0.98188800969385182 0
endloop
endfacet
facet normal 0.36048123969553569 -0.92366053547670901 -0.13001727204663582
outer loop
vertex 0.3981511963346705 -0.85291113513304562 -0.33766584136292238
vertex 0.52573111211913348 -0.85065080835203999 -9.9692050928223507e-018
vertex 0.18946222953255437 -0.98188800969385182 0
endloop
endfacet
facet normal 0.20521316230662157 -0.94984286992792366 0.23597898309638049
outer loop
vertex 0.3981511963346705 -0.85291113513304562 0.33766584136292238
vertex 0 -0.93417235896271578 0.35682208977308993
vertex 0.18946222953255437 -0.98188800969385182 0
endloop
endfacet
facet normal 0.21037236529599823 -0.57085360499153415 0.79364326343007319
outer loop
vertex 0.33766584136292238 -0.3981511963346705 0.85291113513304562
vertex 0 -0.52573111211913359 0.85065080835203988
vertex 0.20868896680211613 -0.73581703769759277 0.6442221683309296
endloop
endfacet
facet normal 0 -0.82301416068358257 0.56802085464734298
outer loop
vertex -0.20868896680211613 -0.73581703769759277 0.6442221683309296
vertex 0 -0.93417235896271578 0.35682208977308993
vertex 0.20868896680211613 -0.73581703769759277 0.6442221683309296
endloop
endfacet
facet normal 0.36048123969553575 -0.92366053547670901 0.1300172720466358
outer loop
vertex 0.18946222953255437 -0.98188800969385182 0
vertex 0.52573111211913348 -0.85065080835203999 -9.9692050928223507e-018
vertex 0.3981511963346705 -0.85291113513304562 0.33766584136292238
endloop
endfacet
facet normal 0.58703517758720214 -0.71386388683154312 0.38182201528058057
outer loop
vertex 0.73581703769759277 -0.6442221683309296 0.20868896680211613
vertex 0.57735026918962584 -0.57735026918962584 0.57735026918962584
vertex 0.3981511963346705 -0.85291113513304562 0.33766584136292238
endloop
endfacet
facet normal 0.92366053547670901 -0.1300172720466358 0.36048123969553575
outer loop
vertex 0.98188800969385182 0 0.18946222953255437
vertex 0.85065080835203999 9.9692050928223507e-018 0.52573111211913348
vertex 0.85291113513304562 -0.33766584136292238 0.3981511963346705
endloop
endfacet
facet normal 0.71386388683154312 -0.38182201528058057 0.58703517758720214
outer loop
vertex 0.6442221683309296 -0.20868896680211613 0.73581703769759277
vertex 0.57735026918962584 -0.57735026918962584 0.57735026918962584
vertex 0.85291113513304562 -0.33766584136292238 0.3981511963346705
endloop
endfacet
facet normal 0.57085360499153404 -0.79364326343007319 0.21037236529599829
outer loop
vertex 0.3981511963346705 -0.85291113513304562 0.33766584136292238
vertex 0.52573111211913348 -0.85065080835203999 -9.9692050928223507e-018
vertex 0.73581703769759277 -0.6442221683309296 0.20868896680211613
endloop
endfacet
facet normal 0.8230141606835828 -0.56802085464734264 0
outer loop
vertex 0.73581703769759277 -0.6442221683309296 -0.20868896680211613
vertex 0.93417235896271555 -0.35682208977308999 0
vertex 0.73581703769759277 -0.6442221683309296 0.20868896680211613
endloop
endfacet
facet normal 0.79364326343007319 -0.21037236529599831 -0.57085360499153415
outer loop
vertex 0.6442221683309296 -0.20868896680211613 -0.73581703769759277
vertex 0.85065080835203999 0 -0.52573111211913348
vertex 0.85291113513304562 -0.33766584136292238 -0.3981511963346705
endloop
endfacet
facet normal 0.94984286992792366 -0.23597898309638077 -0.20521316230662104
outer loop
vertex 0.98188800969385182 0 -0.18946222953255437
vertex 0.93417235896271555 -0.35682208977308999 0
vertex 0.85291113513304562 -0.33766584136292238 -0.3981511963346705
endloop
endfacet
facet normal -0.36048123969553575 -0.92366053547670901 -0.1300172720466358
outer loop
vertex -0.18946222953255437 -0.98188800969385182 0
vertex -0.52573111211913348 -0.85065080835203999 9.9692050928223507e-018
vertex -0.3981511963346705 -0.85291113513304562 -0.33766584136292238
endloop
endfacet
facet normal -0.58703517758720214 -0.71386388683154312 -0.38182201528058057
outer loop
vertex -0.73581703769759277 -0.6442221683309296 -0.20868896680211613
vertex -0.57735026918962584 -0.57735026918962584 -0.57735026918962584
vertex -0.3981511963346705 -0.85291113513304562 -0.33766584136292238
endloop
endfacet
facet normal -0.9236605354767089 -0.13001727204663566 -0.36048123969553592
outer loop
vertex -0.98188800969385182 0 -0.1894622295325544
vertex -0.85065080835203988 -4.9846025464111761e-018 -0.52573111211913359
vertex -0.85291113513304562 -0.33766584136292238 -0.3981511963346705
endloop
endfacet
facet normal -0.71386388683154312 -0.38182201528058057 -0.58703517758720214
outer loop
vertex -0.6442221683309296 -0.20868896680211613 -0.73581703769759277
vertex -0.57735026918962584 -0.57735026918962584 -0.57735026918962584
vertex -0.85291113513304562 -0.33766584136292238 -0.3981511963346705
endloop
endfacet
facet normal 0.21037236529599818 -0.57085360499153415 -0.79364326343007319
outer loop
vertex 0.20868896680211613 -0.73581703769759277 -0.6442221683309296
vertex -4.9846025464111761e-018 -0.52573111211913359 -0.85065080835203988
vertex 0.33766584136292238 -0.3981511963346705 -0.85291113513304562
endloop
endfacet
facet normal 0.23597898309638055 -0.20521316230662157 -0.94984286992792366
outer loop
vertex 0 -0.1894622295325544 -0.98188800969385182
vertex 0.35682208977308993 0 -0.93417235896271578
vertex 0.33766584136292238 -0.3981511963346705 -0.85291113513304562
endloop
endfacet
facet normal -0.13001727204663582 0.36048123969553569 -0.92366053547670901
outer loop
vertex -0.33766584136292238 0.3981511963346705 -0.85291113513304562
vertex -9.9692050928223507e-018 0.52573111211913348 -0.85065080835203999
vertex 0 0.18946222953255437 -0.98188800969385182
endloop
endfacet
facet normal 0.23597898309638049 0.20521316230662157 -0.94984286992792366
outer loop
vertex 0.33766584136292238 0.3981511963346705 -0.85291113513304562
vertex 0.35682208977308993 0 -0.93417235896271578
vertex 0 0.18946222953255437 -0.98188800969385182
endloop
endfacet
facet normal 0.92366053547670901 -0.13001727204663582 -0.36048123969553569
outer loop
vertex 0.85291113513304562 -0.33766584136292238 -0.3981511963346705
vertex 0.85065080835203999 0 -0.52573111211913348
vertex 0.98188800969385182 0 -0.18946222953255437
endloop
endfacet
facet normal 0.94984286992792366 0.23597898309638082 -0.20521316230662104
outer loop
vertex 0.85291113513304562 0.33766584136292238 -0.3981511963346705
vertex 0.93417235896271555 0.35682208977308993 0
vertex 0.98188800969385182 0 -0.18946222953255437
endloop
endfacet
facet normal 0.57085360499153404 0.79364326343007319 -0.21037236529599829
outer loop
vertex 0.3981511963346705 0.85291113513304562 -0.33766584136292238
vertex 0.52573111211913348 0.85065080835203999 0
vertex 0.73581703769759277 0.6442221683309296 -0.20868896680211613
endloop
endfacet
facet normal 0.82301416068358291 0.56802085464734264 0
outer loop
vertex 0.73581703769759277 0.6442221683309296 0.20868896680211613
vertex 0.93417235896271555 0.35682208977308993 0
vertex 0.73581703769759277 0.6442221683309296 -0.20868896680211613
endloop
endfacet
facet normal 0.79364326343007319 -0.21037236529599831 0.57085360499153415
outer loop
vertex 0.85291113513304562 -0.33766584136292238 0.3981511963346705
vertex 0.85065080835203999 9.9692050928223507e-018 0.52573111211913348
vertex 0.6442221683309296 -0.20868896680211613 0.73581703769759277
endloop
endfacet
facet normal 0.56802085464734264 0 0.8230141606835828
outer loop
vertex 0.6442221683309296 0.20868896680211613 0.73581703769759277
vertex 0.35682208977308999 0 0.93417235896271555
vertex 0.6442221683309296 -0.20868896680211613 0.73581703769759277
endloop
endfacet
facet normal 0.21037236529599818 0.57085360499153415 0.79364326343007319
outer loop
vertex 0.20868896680211613 0.73581703769759277 0.6442221683309296
vertex 0 0.52573111211913359 0.85065080835203988
vertex 0.33766584136292238 0.3981511963346705 0.85291113513304562
endloop
endfacet
facet normal -0.9236605354767089 0.13001727204663571 -0.36048123969553592
outer loop
vertex -0.85291113513304562 0.33766584136292238 -0.3981511963346705
vertex -0.85065080835203988 -4.9846025464111761e-018 -0.52573111211913359
vertex -0.98188800969385182 0 -0.1894622295325544
endloop
endfacet
facet normal 0 -0.70087087703816997 0.71328817018071078
outer loop
vertex 0.20868896680211613 -0.73581703769759277 0.6442221683309296
vertex 0 -0.52573111211913359 0.85065080835203988
vertex -0.20868896680211613 -0.73581703769759277 0.6442221683309296
endloop
endfacet
facet normal -0.38182201528058057 -0.58703517758720214 0.71386388683154323
outer loop
vertex -0.33766584136292238 -0.3981511963346705 0.85291113513304562
vertex -0.57735026918962584 -0.57735026918962584 0.57735026918962584
vertex -0.20868896680211613 -0.73581703769759277 0.6442221683309296
endloop
endfacet
facet normal -0.71328817018071078 0 0.70087087703816997
outer loop
vertex -0.6442221683309296 0.20868896680211613 0.73581703769759277
vertex -0.85065080835203988 4.9846025464111761e-018 0.52573111211913359
vertex -0.6442221683309296 -0.20868896680211613 0.73581703769759277
endloop
endfacet
facet normal -0.71386388683154312 -0.38182201528058046 0.58703517758720203
outer loop
vertex -0.85291113513304562 -0.33766584136292238 0.3981511963346705
vertex -0.57735026918962584 -0.57735026918962584 0.57735026918962584
vertex -0.6442221683309296 -0.20868896680211613 0.73581703769759277
endloop
endfacet
facet normal -0.70087087703816986 0.71328817018071067 0
outer loop
vertex -0.73581703769759277 0.6442221683309296 0.20868896680211613
vertex -0.52573111211913348 0.85065080835203999 -9.9692050928223507e-018
vertex -0.73581703769759277 0.6442221683309296 -0.20868896680211613
endloop
endfacet
facet normal -0.58703517758720203 0.71386388683154312 -0.38182201528058046
outer loop
vertex -0.3981511963346705 0.85291113513304562 -0.33766584136292238
vertex -0.57735026918962584 0.57735026918962584 -0.57735026918962584
vertex -0.73581703769759277 0.6442221683309296 -0.20868896680211613
endloop
endfacet
facet normal 0 0.70087087703816986 -0.71328817018071067
outer loop
vertex 0.20868896680211613 0.73581703769759277 -0.6442221683309296
vertex -9.9692050928223507e-018 0.52573111211913348 -0.85065080835203999
vertex -0.20868896680211613 0.73581703769759277 -0.6442221683309296
endloop
endfacet
facet normal -0.38182201528058057 0.58703517758720214 -0.71386388683154323
outer loop
vertex -0.33766584136292238 0.3981511963346705 -0.85291113513304562
vertex -0.57735026918962584 0.57735026918962584 -0.57735026918962584
vertex -0.20868896680211613 0.73581703769759277 -0.6442221683309296
endloop
endfacet
facet normal -0.57085360499153404 0.79364326343007319 -0.21037236529599829
outer loop
vertex -0.73581703769759277 0.6442221683309296 -0.20868896680211613
vertex -0.52573111211913348 0.85065080835203999 -9.9692050928223507e-018
vertex -0.3981511963346705 0.85291113513304562 -0.33766584136292238
endloop
endfacet
facet normal -0.20521316230662157 0.94984286992792366 -0.23597898309638049
outer loop
vertex -0.18946222953255437 0.98188800969385182 0
vertex 0 0.93417235896271578 -0.35682208977308993
vertex -0.3981511963346705 0.85291113513304562 -0.33766584136292238
endloop
endfacet
facet normal 0.36048123969553569 0.92366053547670901 0.13001727204663582
outer loop
vertex 0.3981511963346705 0.85291113513304562 0.33766584136292238
vertex 0.52573111211913348 0.85065080835203999 0
vertex 0.18946222953255437 0.98188800969385182 0
endloop
endfacet
facet normal 0.20521316230662157 0.94984286992792366 -0.23597898309638049
outer loop
vertex 0.3981511963346705 0.85291113513304562 -0.33766584136292238
vertex 0 0.93417235896271578 -0.35682208977308993
vertex 0.18946222953255437 0.98188800969385182 0
endloop
endfacet
facet normal -0.36048123969553569 0.92366053547670901 -0.13001727204663582
outer loop
vertex -0.3981511963346705 0.85291113513304562 -0.33766584136292238
vertex -0.52573111211913348 0.85065080835203999 -9.9692050928223507e-018
vertex -0.18946222953255437 0.98188800969385182 0
endloop
endfacet
facet normal -0.20521316230662157 0.94984286992792366 0.23597898309638049
outer loop
vertex -0.3981511963346705 0.85291113513304562 0.33766584136292238
vertex 0 0.93417235896271578 0.35682208977308993
vertex -0.18946222953255437 0.98188800969385182 0
endloop
endfacet
facet normal -0.21037236529599823 0.57085360499153415 0.79364326343007319
outer loop
vertex -0.33766584136292238 0.3981511963346705 0.85291113513304562
vertex 0 0.52573111211913359 0.85065080835203988
vertex -0.20868896680211613 0.73581703769759277 0.6442221683309296
endloop
endfacet
facet normal 0 0.82301416068358257 0.56802085464734298
outer loop
vertex 0.20868896680211613 0.73581703769759277 0.6442221683309296
vertex 0 0.93417235896271578 0.35682208977308993
vertex -0.20868896680211613 0.73581703769759277 0.6442221683309296
endloop
endfacet
facet normal -0.36048123969553575 0.92366053547670901 0.1300172720466358
outer loop
vertex -0.18946222953255437 0.98188800969385182 0
vertex -0.52573111211913348 0.85065080835203999 -9.9692050928223507e-018
vertex -0.3981511963346705 0.85291113513304562 0.33766584136292238
endloop
endfacet
facet normal -0.58703517758720214 0.71386388683154312 0.38182201528058057
outer loop
vertex -0.73581703769759277 0.6442221683309296 0.20868896680211613
vertex -0.57735026918962584 0.57735026918962584 0.57735026918962584
vertex -0.3981511963346705 0.85291113513304562 0.33766584136292238
endloop
endfacet
facet normal -0.9236605354767089 0.13001727204663566 0.36048123969553592
outer loop
vertex -0.98188800969385182 0 0.1894622295325544
vertex -0.85065080835203988 4.9846025464111761e-018 0.52573111211913359
vertex -0.85291113513304562 0.33766584136292238 0.3981511963346705
endloop
endfacet
facet normal -0.71386388683154312 0.38182201528058057 0.58703517758720214
outer loop
vertex -0.6442221683309296 0.20868896680211613 0.73581703769759277
vertex -0.57735026918962584 0.57735026918962584 0.57735026918962584
vertex -0.85291113513304562 0.33766584136292238 0.3981511963346705
endloop
endfacet
facet normal -0.57085360499153404 0.79364326343007319 0.21037236529599829
outer loop
vertex -0.3981511963346705 0.85291113513304562 0.33766584136292238
vertex -0.52573111211913348 0.85065080835203999 -9.9692050928223507e-018
vertex -0.73581703769759277 0.6442221683309296 0.20868896680211613
endloop
endfacet
facet normal -0.8230141606835828 0.56802085464734264 0
outer loop
vertex -0.73581703769759277 0.6442221683309296 -0.20868896680211613
vertex -0.93417235896271555 0.35682208977308999 0
vertex -0.73581703769759277 0.6442221683309296 0.20868896680211613
endloop
endfacet
facet normal -0.79364326343007319 0.21037236529599818 -0.57085360499153415
outer loop
vertex -0.6442221683309296 0.20868896680211613 -0.73581703769759277
vertex -0.85065080835203988 -4.9846025464111761e-018 -0.52573111211913359
vertex -0.85291113513304562 0.33766584136292238 -0.3981511963346705
endloop
endfacet
facet normal -0.94984286992792366 0.23597898309638077 -0.20521316230662104
outer loop
vertex -0.98188800969385182 0 -0.1894622295325544
vertex -0.93417235896271555 0.35682208977308999 0
vertex -0.85291113513304562 0.33766584136292238 -0.3981511963346705
endloop
endfacet
facet normal -0.21037236529599831 0.57085360499153415 -0.79364326343007319
outer loop
vertex -0.20868896680211613 0.73581703769759277 -0.6442221683309296
vertex -9.9692050928223507e-018 0.52573111211913348 -0.85065080835203999
vertex -0.33766584136292238 0.3981511963346705 -0.85291113513304562
endloop
endfacet
facet normal -0.23597898309638052 0.20521316230662154 -0.94984286992792366
outer loop
vertex 0 0.18946222953255437 -0.98188800969385182
vertex -0.35682208977308988 0 -0.93417235896271578
vertex -0.33766584136292238 0.3981511963346705 -0.85291113513304562
endloop
endfacet
facet normal 0.13001727204663571 -0.36048123969553592 -0.92366053547670901
outer loop
vertex 0.33766584136292238 -0.3981511963346705 -0.85291113513304562
vertex -4.9846025464111761e-018 -0.52573111211913359 -0.85065080835203988
vertex 0 -0.1894622295325544 -0.98188800969385182
endloop
endfacet
facet normal -0.23597898309638049 -0.20521316230662151 -0.94984286992792366
outer loop
vertex -0.33766584136292238 -0.3981511963346705 -0.85291113513304562
vertex -0.35682208977308988 0 -0.93417235896271578
vertex 0 -0.1894622295325544 -0.98188800969385182
endloop
endfacet
facet normal 0.36048123969553575 0.92366053547670901 -0.1300172720466358
outer loop
vertex 0.18946222953255437 0.98188800969385182 0
vertex 0.52573111211913348 0.85065080835203999 0
vertex 0.3981511963346705 0.85291113513304562 -0.33766584136292238
endloop
endfacet
facet normal 0.58703517758720214 0.71386388683154312 -0.38182201528058057
outer loop
vertex 0.73581703769759277 0.6442221683309296 -0.20868896680211613
vertex 0.57735026918962584 0.57735026918962584 -0.57735026918962584
vertex 0.3981511963346705 0.85291113513304562 -0.33766584136292238
endloop
endfacet
facet normal 0.92366053547670901 0.1300172720466358 -0.36048123969553575
outer loop
vertex 0.98188800969385182 0 -0.18946222953255437
vertex 0.85065080835203999 0 -0.52573111211913348
vertex 0.85291113513304562 0.33766584136292238 -0.3981511963346705
endloop
endfacet
facet normal 0.71386388683154312 0.38182201528058057 -0.58703517758720214
outer loop
vertex 0.6442221683309296 0.20868896680211613 -0.73581703769759277
vertex 0.57735026918962584 0.57735026918962584 -0.57735026918962584
vertex 0.85291113513304562 0.33766584136292238 -0.3981511963346705
endloop
endfacet
facet normal -0 0.70087087703816997 0.71328817018071078
outer loop
vertex -0.20868896680211613 0.73581703769759277 0.6442221683309296
vertex 0 0.52573111211913359 0.85065080835203988
vertex 0.20868896680211613 0.73581703769759277 0.6442221683309296
endloop
endfacet
facet normal 0.38182201528058057 0.58703517758720214 0.71386388683154323
outer loop
vertex 0.33766584136292238 0.3981511963346705 0.85291113513304562
vertex 0.57735026918962584 0.57735026918962584 0.57735026918962584
vertex 0.20868896680211613 0.73581703769759277 0.6442221683309296
endloop
endfacet
facet normal 0.71328817018071067 -0 0.70087087703816986
outer loop
vertex 0.6442221683309296 -0.20868896680211613 0.73581703769759277
vertex 0.85065080835203999 9.9692050928223507e-018 0.52573111211913348
vertex 0.6442221683309296 0.20868896680211613 0.73581703769759277
endloop
endfacet
facet normal 0.71386388683154312 0.38182201528058046 0.58703517758720203
outer loop
vertex 0.85291113513304562 0.33766584136292238 0.3981511963346705
vertex 0.57735026918962584 0.57735026918962584 0.57735026918962584
vertex 0.6442221683309296 0.20868896680211613 0.73581703769759277
endloop
endfacet
facet normal -0.79364326343007319 0.21037236529599823 0.57085360499153415
outer loop
vertex -0.85291113513304562 0.33766584136292238 0.3981511963346705
vertex -0.85065080835203988 4.9846025464111761e-018 0.52573111211913359
vertex -0.6442221683309296 0.20868896680211613 0.73581703769759277
endloop
endfacet
facet normal -0.23597898309638077 -0.20521316230662104 0.94984286992792366
outer loop
vertex 0 -0.1894622295325544 0.98188800969385182
vertex -0.35682208977308999 0 0.93417235896271555
vertex -0.33766584136292238 -0.3981511963346705 0.85291113513304562
endloop
endfacet
facet normal -0.21037236529599818 -0.57085360499153415 0.79364326343007319
outer loop
vertex -0.20868896680211613 -0.73581703769759277 0.6442221683309296
vertex 0 -0.52573111211913359 0.85065080835203988
vertex -0.33766584136292238 -0.3981511963346705 0.85291113513304562
endloop
endfacet
endsolid
