/* XPM */
static const char * zoom_in_xpm[] = {
"16 16 110 2",
"  	c None",
". 	c #000000",
"+ 	c #B7B7B7",
"@ 	c #090909",
"# 	c #060606",
"$ 	c #CFCFFF",
"% 	c #F0F0F0",
"& 	c #4E4E5B",
"* 	c #ECECEF",
"= 	c #6C6CFF",
"- 	c #D7D7FF",
"; 	c #EDEDEF",
"> 	c #CDCDFF",
", 	c #7A7AAE",
"' 	c #6E6EFF",
") 	c #D5D5FF",
"! 	c #D2D2D6",
"~ 	c #6B6B73",
"{ 	c #F9F9F9",
"] 	c #5151A1",
"^ 	c #CCCCD0",
"/ 	c #6161AC",
"( 	c #ADADFF",
"_ 	c #484861",
": 	c #C0C0F0",
"< 	c #6464FF",
"[ 	c #AAAAFF",
"} 	c #EBEBFF",
"| 	c #6262FF",
"1 	c #9898A9",
"2 	c #5C5C8D",
"3 	c #595981",
"4 	c #FBFBFB",
"5 	c #8E8EA1",
"6 	c #E2E2FF",
"7 	c #AFAFC9",
"8 	c #434363",
"9 	c #555566",
"0 	c #B0B0DF",
"a 	c #9696FF",
"b 	c #F8F8FB",
"c 	c #3D3DAF",
"d 	c #D8D8FF",
"e 	c #B6B6FF",
"f 	c #3838A1",
"g 	c #A2A2FF",
"h 	c #8E8ECC",
"i 	c #8080C6",
"j 	c #26265B",
"k 	c #8B8BFF",
"l 	c #585870",
"m 	c #3F3F3F",
"n 	c #484848",
"o 	c #6565F9",
"p 	c #71717E",
"q 	c #7272DA",
"r 	c #464686",
"s 	c #E2E2E3",
"t 	c #9F9FFF",
"u 	c #7676F5",
"v 	c #8B8BA1",
"w 	c #4C4C5B",
"x 	c #686871",
"y 	c #B7B7DF",
"z 	c #030314",
"A 	c #3A3A76",
"B 	c #ABABE6",
"C 	c #DDDDFF",
"D 	c #4C4C7C",
"E 	c #9999FF",
"F 	c #CECED6",
"G 	c #6565AE",
"H 	c #5D5D6E",
"I 	c #D0D0FF",
"J 	c #6969FF",
"K 	c #2C2C6A",
"L 	c #9C9C9C",
"M 	c #AEAEB6",
"N 	c #28286D",
"O 	c #A4A4AA",
"P 	c #262667",
"Q 	c #E2E2ED",
"R 	c #8686F0",
"S 	c #AFAFE7",
"T 	c #7C7CAC",
"U 	c #C0C0E1",
"V 	c #464673",
"W 	c #5454E0",
"X 	c #2B2B61",
"Y 	c #434377",
"Z 	c #8787BE",
"` 	c #6B6B75",
" .	c #DBDBF0",
"..	c #B3B3D8",
"+.	c #C6C6C6",
"@.	c #8282FF",
"#.	c #6E6EFB",
"$.	c #25255D",
"%.	c #373799",
"&.	c #CECEF0",
"*.	c #8C8CB6",
"=.	c #6868EB",
"-.	c #FDFDFF",
";.	c #C0C0C0",
">.	c #6F6F8B",
",.	c #5454D0",
"'.	c #6868E0",
").	c #8686A9",
"!.	c #BCBCF0",
"~.	c #A1A1B8",
"    4 M p 9 l >.7 -.            ",
"  s x v ..!.B h 2 3 Q           ",
"{ ~ ~.) : . . [ t G V b         ",
"O 5 d >  .. . C a k ] *.        ",
"` U I } % . .   - @.'.Y         ",
"& y . . . . . . . . #.j         ",
"w 0 . . . . . . . . o $.        ",
"H S e 6 % . .   $ J W A         ",
"1 T ( g &.. . $ = | f ,         ",
"; _ i E R . . ' < c N ^         ",
"  F 8 / q u =.,.%.P z @ +       ",
"    * ).D X K r Z ! # . @ +     ",
"                    + # . @ +   ",
"                      + # . @ ;.",
"                        + # . m ",
"                          +.n L "};
