ply
format ascii 1.0
comment Generated by the CGAL library
element vertex 39
property double x
property double y
property double z
property double nx
property double ny
property double nz
element face 34
property list uchar int vertex_indices
property int patch_id
end_header
-1560.72314453125 -1230.3927001953125 406.32504272460938 -0.67154659980474085 -0.3530507835626584 0.65144478547033002 
-1560.6124267578125 -1231.9296875 405.60397338867188 -0.67088117429286209 -0.35417347441802383 0.65152098968344507 
-1560.2261962890625 -1230.31884765625 406.87734985351562 -0.67119593254731003 -0.35292010275638913 0.65187684511905053 
-1560.733642578125 -1230.1285400390625 406.45700073242188 -0.67228577081616459 -0.35143747309496975 0.65155471363711104 
-1560.22900390625 -1228.624267578125 407.78775024414062 -0.67230476682583395 -0.35033218775128916 0.65213009340825279 
-1560.741943359375 -1228.406982421875 407.37506103515625 -0.67342667625173747 -0.34931708645431231 0.65151675713185464 
-1560.1219482421875 -1226.951171875 408.7940673828125 -0.67337772026068898 -0.3480127857207308 0.65226493607384273 
-1564.645263671875 -1232.692138671875 401.43246459960938 -0.627994269166675 -0.365966139380341 0.68679835666727007 
-1560.6385498046875 -1226.6678466796875 408.41085815429688 -0.67520135121704961 -0.34615036273844557 0.65137014184771558 
-1559.9119873046875 -1225.35791015625 409.8580322265625 -0.67507756904859306 -0.34508658860548636 0.65206251397551596 
-1559.18798828125 -1222.360595703125 412.1846923828125 -0.67803892860281501 -0.34029111311710308 0.65150991522207058 
-1559.6981201171875 -1221.943359375 411.86990356445312 -0.68023648328935782 -0.33744764238225977 0.65069763750361176 
-1560.1097412109375 -1223.43310546875 410.66522216796875 -0.67810165042652848 -0.34056847221286191 0.65129967558982804 
-1558.677001953125 -1220.9552001953125 413.4498291015625 -0.68023648328935782 -0.33744764238225977 0.65069763750361176 
-1560.428466796875 -1225.02880859375 409.49569702148438 -0.67671751328258689 -0.34326670659011033 0.65132278891760809 
-1570.5811767578125 -1234.013671875 395.30059814453125 -0.62689628471780579 -0.36694277501206568 0.6872801816387959 
-1559.5947265625 -1223.806640625 411.00436401367188 -0.67658329995761335 -0.34252602805737564 0.65185194509313538 
-1565.1256103515625 -1229.8819580078125 402.48980712890625 -0.63496062575102152 -0.36747029843510626 0.67955175190259443 
-1560.6251220703125 -1231.800048828125 405.66241455078125 -0.63530838509952037 -0.36478640803362677 0.68067182425612704 
-1560.7208251953125 -1230.450927734375 406.29611206054688 -0.63522878015212947 -0.36521664945219173 0.68051538985488969 
-1578.0889892578125 -1221.53369140625 395.1453857421875 -0.624515610456151 -0.36937562002997937 0.68814381027809102 
-1585.6981201171875 -1209.114990234375 394.94659423828125 -0.62303435585991573 -0.37071746212603002 0.68876465842336543 
-1590.9146728515625 -1215.026611328125 387.05126953125 -0.6228858026732309 -0.3710056604212178 0.68874383972819742 
-1567.249755859375 -1217.4630126953125 407.17562866210938 -0.63709421509440145 -0.36510065032291139 0.67883169948598876 
-1572.876220703125 -1215.629638671875 403.043701171875 -0.62428282482369057 -0.36897504470419767 0.68856980112090926 
-1565.42529296875 -1228.0849609375 403.1741943359375 -0.62665158512758035 -0.36640869657895903 0.68778809085967707 
-1567.0460205078125 -1218.6314697265625 406.73785400390625 -0.62532162099985866 -0.36697974319566101 0.68869350105410165 
-1560.5648193359375 -1218.9259033203125 412.66275024414062 -0.64341990360612666 -0.36451776052482887 0.67315498208469504 
-1560.751953125 -1229.15283203125 406.96469116210938 -0.63498911939082359 -0.36608290925370907 0.68027356394880356 
-1560.7235107421875 -1227.8817138671875 407.67617797851562 -0.63458172111951983 -0.36699546024496221 0.68016201847837432 
-1559.8167724609375 -1222.329833984375 411.54672241210938 -0.64919823493659101 -0.36199440833352725 0.66895567871905703 
-1560.3228759765625 -1224.4298095703125 409.92172241210938 -0.64058153836852871 -0.36597222870208984 0.6750700856357319 
-1559.3382568359375 -1220.9000244140625 412.78689575195312 -0.65063052394867116 -0.36227933732596412 0.66740812330457733 
-1583.3018798828125 -1227.4427490234375 387.2410888671875 -0.62436473938742421 -0.36966795004497827 0.68812373808728411 
-1559.180419921875 -1220.4951171875 413.15994262695312 -0.68137312804881178 -0.33576403511484609 0.65037925327947999 
-1558.788330078125 -1219.5870361328125 414.03814697265625 -0.65114242233710518 -0.36264116528803242 0.6667120300935816 
-1567.4183349609375 -1216.478759765625 407.54739379882812 -0.6253361923585703 -0.36710931513923456 0.68861120907554751 
-1560.6402587890625 -1226.6875 408.3990478515625 -0.63357785099950215 -0.3686543186389899 0.68020077923483346 
-1560.11279296875 -1232.0726318359375 406.04025268554688 -0.67051415490577215 -0.35444387132997762 0.65175172431503126 
3 0 1 2 0 
3 2 3 0 0 
3 3 2 4 0 
3 3 4 5 0 
3 5 4 6 0 
3 8 5 6 0 
3 6 9 8 0 
3 10 11 12 0 
3 10 13 11 0 
3 8 9 14 0 
3 12 16 10 0 
3 17 18 19 1 
3 14 9 16 0 
3 20 21 22 2 
3 15 25 20 2 
3 14 16 12 0 
3 21 20 24 2 
3 25 26 24 2 
3 17 28 29 1 
3 30 27 31 1 
3 30 32 27 1 
3 15 20 33 2 
3 11 13 34 0 
3 27 32 35 1 
3 36 24 26 2 
3 17 37 31 1 
3 28 17 19 1 
3 17 29 37 1 
3 38 2 1 0 
3 31 27 17 1 
3 25 15 7 2 
3 22 33 20 2 
3 27 23 17 1 
3 25 24 20 2 
