ply
format ascii 1.0
comment Generated by the CGAL library
element vertex 89
property double x
property double y
property double z
property double nx
property double ny
property double nz
element face 105
property list uchar int vertex_indices
end_header
-1065.1728515625 -718.054443359375 514.73101806640625 -0.96713883622494201 0.25421971253557429 -0.003848275431265809 
-1065.098388671875 -717.7550048828125 511.04888916015625 -0.96786160775351837 0.25144477455228176 0.0044083542424293819 
-1064.9764404296875 -717.3057861328125 512.9432373046875 -0.98338931931464046 0.18139032322708917 -0.0065572324543215791 
-1064.947509765625 -717.131103515625 509.23046875 -0.98393181816886199 0.17826723674783973 0.0099483414299753586 
-1064.9495849609375 -717.18560791015625 511.09014892578125 -0.98378329523864427 0.17931297328515339 0.0041575979883005047 
-1064.88720703125 -716.60467529296875 511.1727294921875 -0.99933086501500046 0.034596058189424336 -0.011871604193410788 
-1064.884765625 -716.545654296875 509.29861450195312 -0.99944280886484205 0.031402485044275792 0.011311752357563773 
-1064.9107666015625 -716.02423095703125 511.23544311523438 -0.99914976342732897 -0.040177960211235264 -0.0092456344496806096 
-1064.9093017578125 -715.95831298828125 509.34622192382812 -0.99910026992220224 -0.042131200694585168 0.0048592766349587133 
-1065.09716796875 -717.70611572265625 509.1622314453125 -0.9679520454608086 0.25101782385702121 0.0076739686161946628 
-1065.1195068359375 -717.7259521484375 507.315185546875 -0.96816682149549327 0.2500552092020254 0.011198129586896768 
-1064.9688720703125 -717.1451416015625 507.36920166015625 -0.98402600934589624 0.17727577169854966 0.016312991738911597 
-1065.1658935546875 -717.8104248046875 505.508056640625 -0.96784261856759946 0.2511553269763328 0.014200965306043997 
-1064.9315185546875 -715.96173095703125 507.45596313476562 -0.99885896373292815 -0.043727365612161 0.019201251704021625 
-1064.9068603515625 -716.55316162109375 507.423583984375 -0.999298648413526 0.029572032483882443 0.022971856121619009 
-1064.978515625 -716.03131103515625 505.572265625 -0.99837695073345512 -0.045925342437960398 0.033679773843129146 
-1064.9520263671875 -716.6275634765625 505.55459594726562 -0.99914132370719999 0.02833071277496263 0.030232200950094514 
-1065.02099609375 -716.77008056640625 503.6864013671875 -0.99852526312464784 0.028275568218263703 0.046344267647541543 
-1065.1431884765625 -716.37451171875 501.80929565429688 -0.99690606730822018 -0.047744092800167573 0.062440328048044821 
-1065.2608642578125 -716.64508056640625 499.94113159179688 -0.99589555286541198 -0.047644252154170501 0.076955006461993145 
-1065.2296142578125 -717.253173828125 499.97283935546875 -0.99714475410077752 0.027475494842572952 0.070338016409732265 
-1065.11328125 -716.9786376953125 501.82528686523438 -0.99816075495291234 0.027873201869678007 0.053834857567976138 
-1065.0615234375 -716.62591552734375 516.86602783203125 -0.99856486291075774 -0.029914742720323913 -0.044422097293987016 
-1064.9866943359375 -716.35699462890625 514.9959716796875 -0.99880015224882202 -0.031697347724636012 -0.037330068509896903 
-1064.9652099609375 -716.92608642578125 514.90313720703125 -0.99900354019856941 0.038274028214957914 -0.022957034541200499 
-1065.401611328125 -716.98077392578125 498.08828735351562 -0.99466048467805002 -0.047635211852752365 0.091550023548714748 
-1065.3681640625 -717.5919189453125 498.1373291015625 -0.99660646256151475 0.028021185528686477 0.077397493126011893 
-1065.0401611328125 -717.18927001953125 516.7584228515625 -0.99854451493409369 0.041431784398203803 -0.034529102748498484 
-1065.565673828125 -717.381591796875 496.24566650390625 -0.99294328415206767 -0.046393387335974486 0.10913884766113424 
-1065.52978515625 -717.9949951171875 496.31143188476562 -0.99528778865950795 0.028706925115109468 0.09261819581325291 
-1066.447509765625 -720.85052490234375 489.3048095703125 -0.98134213494137457 0.17962243341299566 0.068581306516419097 
-1065.9786376953125 -719.61712646484375 492.7835693359375 -0.98134213494137457 0.17962243341299566 0.068581306516419097 
-1065.91796875 -718.98681640625 492.71188354492188 -0.99463626239940062 0.029637980889533126 0.099097404652908436 
-1066.60400390625 -721.4700927734375 489.422119140625 -0.96703766103647582 0.25124316942225505 0.041412944302020742 
-1065.049072265625 -716.16949462890625 503.68695068359375 -0.99772659445109713 -0.047304301488587087 0.047999435264310816 
-1066.3330078125 -720.75506591796875 491.3265380859375 -0.9456541011070666 0.32501264746268804 0.010251831479316685 
-1066.6820068359375 -721.6783447265625 488.91043090820312 -0.94609594314946932 0.32362583075549917 0.012991844516053348 
-1070.5931396484375 -733.49383544921875 498.41571044921875 -0.9467556120480124 0.32171564112164935 0.012363547762663747 
-1065.1190185546875 -717.72503662109375 507.35287475585938 -0.96798089704790358 0.25086008518348418 0.0090664553200853256 
-1065.244140625 -718.29864501953125 516.51507568359375 -0.96713883622494201 0.25421971253557429 -0.003848275431265809 
-1065.746826171875 -719.2264404296875 496.39959716796875 -0.96781391911443504 0.24956144446187611 0.032485433758217941 
-1065.591552734375 -718.6177978515625 496.34979248046875 -0.98273351670239428 0.17682343455309213 0.054482181881723983 
-1066.1343994140625 -720.23248291015625 492.8671875 -0.96744980239872946 0.25012522163092404 0.038448060324812433 
-1065.09814453125 -717.7572021484375 511.08221435546875 -0.94656382974102027 0.32243268391566737 0.0073539492078822282 
-1066.884521484375 -723.0499267578125 513.207275390625 -0.9455524262627738 0.3253669397995359 0.0081831335114880988 
-1065.169921875 -718.04351806640625 514.6329345703125 -0.94661712363307349 0.32229044946247937 0.0066998082002067694 
-1064.9149169921875 -716.73193359375 513.03826904296875 -0.99917019449577638 0.037295399552100046 -0.016369960400725924 
-1065.4307861328125 -718.2108154296875 498.1583251953125 -0.98354459926872195 0.17577328078103888 0.041758532215575898 
-1065.244384765625 -718.30084228515625 516.53448486328125 -0.94652557345794663 0.32256984224535518 0.0061673060498065018 
-1064.936279296875 -716.1558837890625 513.11651611328125 -0.99908519722467659 -0.035862952734821173 -0.023294147498222274 
-1066.2486572265625 -721.395751953125 527.6492919921875 -0.94537386136507506 0.32595992225210962 0.0042885117566063297 
-1066.671142578125 -722.65582275390625 530.4522705078125 -0.94496007971694118 0.32715848673443593 0.0042157204587147173 
-1067.14404296875 -724.05169677734375 533.08868408203125 -0.94454276614117016 0.3283613726755899 0.0042156689847705426 
-1065.083740234375 -717.37432861328125 503.66162109375 -0.98393692989049686 0.17613709112840739 0.029048978062690557 
-1067.6395263671875 -725.5057373046875 535.47015380859375 -0.9454790062109375 0.32566018309560069 0.0038592694279867145 
-1065.586181640625 -718.81793212890625 498.1842041015625 -0.96793491357770678 0.2496254142181813 0.028091914383300151 
-1070.3558349609375 -732.87396240234375 500.68130493164062 -0.94720624271151832 0.32042966171296788 0.011187746101925522 
-1065.1256103515625 -717.7359619140625 507.03680419921875 -0.94630103020822376 0.32317323637540923 0.0085685189792776995 
-1065.1834716796875 -717.84918212890625 504.97052001953125 -0.94608422651326129 0.32379396900881291 0.0090610140891682379 
-1070.622314453125 -734.10382080078125 520.24005126953125 -0.94659440719025179 0.32240612006455105 0.0036499343909709441 
-1065.3934326171875 -718.33831787109375 500.7784423828125 -0.94559057874865182 0.32521012599989729 0.0098402910993866735 
-1065.2757568359375 -718.05615234375 502.80926513671875 -0.94583694006667596 0.324502819268149 0.0095080540769540613 
-1065.1004638671875 -717.75018310546875 516.63836669921875 -0.98289763179607892 0.18360839035504239 -0.01414936044102571 
-1065.0263671875 -717.49407958984375 514.79547119140625 -0.98314524940209624 0.18257338432626186 -0.0096113429730130765 
-1065.171875 -718.04925537109375 514.6849365234375 -0.96721994822744539 0.25393094681207024 -0.0021554586572947627 
-1065.2921142578125 -717.8671875 499.97805786132812 -0.98352815745558475 0.17633469822161055 0.039729556945880443 
-1070.99658203125 -735.22784423828125 522.849853515625 -0.94699731520216179 0.32123612486964009 0.0018539359844361298 
-1071.28759765625 -736.09197998046875 524.44561767578125 -0.94689877465351635 0.32152468273678969 0.0021421836233036797 
-1065.0142822265625 -717.2265625 505.51480102539062 -0.98402051989658101 0.17681355880890978 0.020990041538559361 
-1065.1768798828125 -717.587890625 501.81414794921875 -0.98360232130774083 0.17695901975998951 0.034813486518982889 
-1070.33251953125 -733.21759033203125 517.54931640625 -0.94636795349054903 0.32305249892425042 0.0049779056748103989 
-1070.14697265625 -732.3492431640625 503.43771362304688 -0.94683891886046567 0.32154894691096042 0.010116149049762289 
-1065.0970458984375 -717.706787109375 509.20108032226562 -0.96759451940526431 0.25244053223073276 0.0058841910200123229 
-1066.0247802734375 -719.9464111328125 493.78286743164062 -0.94482609375696924 0.32740429618375061 0.010491872872355441 
-1065.56201171875 -718.757080078125 498.47775268554688 -0.94527293345588936 0.32612201652910405 0.010174065592898445 
-1065.3304443359375 -718.185791015625 501.80661010742188 -0.96825925974768645 0.24901599492991386 0.021564790328848591 
-1070.1253662109375 -732.56341552734375 514.77056884765625 -0.94625881549114654 0.32335282315962444 0.0060996606457111701 
-1065.873046875 -720.2645263671875 524.61962890625 -0.94571341080190696 0.3249705616316878 0.0045031880050566712 
-1065.123779296875 -717.87115478515625 512.89239501953125 -0.96729063873910515 0.25366958468963846 -0.00074967398284074647 
-1065.334716796875 -718.59613037109375 518.23358154296875 -0.94633148120072696 0.32315176167101917 0.0054467070193795087 
-1065.569580078125 -719.33465576171875 521.4974365234375 -0.94606730633455927 0.32393326205213951 0.0048881101799063765 
-1065.44580078125 -718.4652099609375 500.01171875 -0.96790856866366781 0.25011662232995313 0.024386019390326738 
-1070.0042724609375 -732.15130615234375 511.95281982421875 -0.94624332139716394 0.32337871403635204 0.0070557791532103384 
-1065.2354736328125 -717.9632568359375 503.66693115234375 -0.96798842466440305 0.2503736637845454 0.017647611703308398 
-1065.766357421875 -719.2763671875 496.20367431640625 -0.94505025247579322 0.32676058666408558 0.010370115639772219 
-1065.1219482421875 -717.86712646484375 512.8466796875 -0.96805588533526987 0.25073175440435669 0.0011790678776323984 
-1065.0968017578125 -717.70538330078125 509.11669921875 -0.94643763065181319 0.3227848324071555 0.0081094546096830908 
-1070.01611328125 -732.04833984375 506.250244140625 -0.94651214291769692 0.32254635156840883 0.0088664761465703668 
-1069.9681396484375 -731.97967529296875 509.10220336914062 -0.94630255511497618 0.32318806865197691 0.007806821624225517 
3 39 62 0 
3 3 4 5 
3 5 6 3 
3 6 5 7 
3 7 8 6 
3 4 3 9 
3 10 11 12 
3 8 13 14 
3 14 6 8 
3 6 14 11 
3 11 3 6 
3 3 11 10 
3 13 15 16 
3 16 14 13 
3 17 16 15 
3 18 19 20 
3 20 21 18 
3 22 23 24 
3 19 25 26 
3 24 27 22 
3 26 20 19 
3 25 28 29 
3 29 26 25 
3 30 31 32 
3 31 30 33 
3 15 34 17 
3 35 36 37 
3 1 2 4 
3 9 3 38 
3 20 26 47 
3 21 17 34 
3 40 41 42 
3 32 29 28 
3 43 44 45 
3 46 24 23 
3 41 47 26 
3 29 32 31 
3 44 48 45 
3 5 46 49 
3 50 44 51 
3 46 5 4 
3 44 52 51 
3 16 17 53 
3 54 52 44 
3 34 18 21 
3 55 47 40 
3 56 44 37 
3 44 57 58 
3 44 58 61 
3 62 63 64 
3 65 47 55 
3 4 2 46 
3 66 67 44 
3 53 68 16 
3 81 69 65 
3 56 71 44 
3 1 4 72 
3 73 35 44 
3 69 53 17 
3 27 24 63 
3 68 11 14 
3 53 69 75 
3 83 68 53 
3 49 7 5 
3 50 77 44 
3 64 63 78 
3 79 44 80 
3 55 81 65 
3 75 69 81 
3 75 83 53 
3 61 60 44 
3 12 68 83 
3 60 74 44 
3 85 2 1 
3 44 86 57 
3 42 31 33 
3 17 21 69 
3 63 2 85 
3 74 84 44 
3 14 16 68 
3 43 86 44 
3 23 49 46 
3 26 29 41 
3 2 63 24 
3 84 73 44 
3 24 46 2 
3 47 41 40 
3 37 44 35 
3 44 71 87 
3 65 69 21 
3 88 44 87 
3 21 20 65 
3 88 82 44 
3 44 82 76 
3 70 44 76 
3 70 59 44 
3 47 65 20 
3 44 59 66 
3 12 11 68 
3 54 44 67 
3 44 77 80 
3 41 31 42 
3 79 48 44 
3 31 41 29 
3 63 62 27 
