ply
format ascii 1.0
comment Generated by the CGAL library
element vertex 47
property double x
property double y
property double z
property double nx
property double ny
property double nz
element face 47
property list uchar int vertex_indices
end_header
-783.598876953125 676.40863037109375 384.8380126953125 -0.55393764904318121 -0.086099306866244188 -0.82809419170144261 
-783.9041748046875 675.75537109375 385.02651977539062 -0.52753539635236291 0.0013970635220877925 -0.8495319027610857 
-783.9654541015625 675.79412841796875 385.06463623046875 -0.52452244942662707 -0.0010877263700318337 -0.85139592252889917 
-784.8406982421875 676.29058837890625 385.59750366210938 -0.52156538773592065 -0.0026445744122577386 -0.85320721547702394 
-784.5921630859375 676.96905517578125 385.44418334960938 -0.55030070607585913 -0.088524242157212482 -0.83026055635740159 
-783.3736572265625 677.046630859375 384.53738403320312 -0.58155369244116595 -0.16847353703751125 -0.79587183021270202 
-784.90948486328125 676.3240966796875 385.63946533203125 -0.51792251497878372 -0.0041855287499338693 -0.85541729572597203 
-788.945556640625 678.04443359375 387.97451782226562 -0.49164462674449427 -0.097393941040430504 -0.86533229527267741 
-788.99407958984375 678.73736572265625 387.85198974609375 -0.49548861306452036 -0.18477467578169324 -0.84873397099042069 
-787.81109619140625 678.65167236328125 387.18002319335938 -0.50659177974174674 -0.1839628679185486 -0.84233154513248054 
-787.9700927734375 677.25506591796875 387.430419921875 -0.49510155114196225 -0.0086805253467221594 -0.8687917486581741 
-788.958251953125 677.333984375 387.98776245117188 -0.48818745692934112 -0.0086395835275814327 -0.8726960321287891 
-787.8192138671875 677.9561767578125 387.33743286132812 -0.51066974383825536 -0.096772571615810696 -0.85431345659016367 
-789.03607177734375 677.33575439453125 388.03085327148438 -0.48453801854008138 -0.007648966442177327 -0.87473676148977431 
-784.4197998046875 677.63037109375 385.17929077148438 -0.57131797884435231 -0.17112731147907187 -0.8026899839384749 
-785.82647705078125 676.72100830078125 386.1865234375 -0.51515740578699143 -0.0054129874770457885 -0.85707849513880019 
-785.6365966796875 677.41693115234375 386.06869506835938 -0.54034336825664098 -0.091571459113310827 -0.83644707678186514 
-786.6507568359375 678.43768310546875 386.50830078125 -0.52868001102979389 -0.18133099949634701 -0.82922645553503216 
-786.71368408203125 677.747314453125 386.70025634765625 -0.52346764685831448 -0.096042949046206236 -0.84661524592410142 
-787.89129638671875 677.2437744140625 387.38522338867188 -0.49901164298419748 -0.0087293721559902632 -0.86655131309575317 
-785.25469970703125 669.0960693359375 385.15957641601562 -0.48539104926498589 0.08073726190109444 -0.87056132686568966 
-785.6968994140625 669.5205078125 385.44512939453125 -0.48450286809640225 0.080993276174777765 -0.87103218081815803 
-786.79901123046875 676.98370361328125 386.75213623046875 -0.48491620449419137 0.080950146819573646 -0.87080614854790561 
-785.518310546875 678.0966796875 385.8397216796875 -0.5502775942976994 -0.17727155539631453 -0.81594691301659328 
-786.8453369140625 677.03924560546875 386.78359985351562 -0.50549799905554571 -0.0084860822346389739 -0.86278604494923683 
-786.69635009765625 670.1827392578125 386.06332397460938 -0.48495347442263831 0.080874795420174436 -0.87079239495482297 
-786.18084716796875 669.8846435546875 385.748046875 -0.48495203446903373 0.080935864490388726 -0.87078752293744921 
-787.24017333984375 670.413818359375 386.38711547851562 -0.48491891452252439 0.080943550574162179 -0.8708052526017197 
-787.80572509765625 670.57421875 386.71749877929688 -0.48523393985375884 0.080918860433881135 -0.87063204721632015 
-788.38616943359375 670.66204833984375 387.04888916015625 -0.48494548527687437 0.080876561108147463 -0.87079668015725509 
-794.27301025390625 675.99432373046875 390.82269287109375 -0.48498048354777895 0.081168311140199623 -0.87075004211565232 
-793.27337646484375 676.48870849609375 390.3121337890625 -0.4849865510717607 0.080839625704773738 -0.87077723913491822 
-784.33624267578125 667.749755859375 384.5223388671875 -0.48522059233074827 0.080830214181831339 -0.87064772052393102 
-784.75042724609375 668.46221923828125 384.81924438476562 -0.4855435152783999 0.080721005561114653 -0.87047780789190521 
-792.2403564453125 676.873046875 389.77224731445312 -0.48498060966563505 0.079962699717704255 -0.87086151304452841 
-791.182861328125 677.14361572265625 389.20809936523438 -0.48485912845348816 0.08159570400293692 -0.87077767922908367 
-779.05255126953125 662.15087890625 381.059814453125 -0.50147920074528518 0.070231149715858657 -0.86231444196966722 
-785.89324951171875 676.74365234375 386.22653198242188 -0.50147920074528518 0.070231149715858657 -0.86231444196966722 
-779.0474853515625 662.16192626953125 381.0574951171875 -0.50227784381080476 0.069745441859195678 -0.86188893771566322 
-790.11163330078125 677.298095703125 388.62652587890625 -0.48483987588525829 0.082517123623630048 -0.87070156716319846 
-789.03704833984375 677.3349609375 388.031494140625 -0.48489724188410227 0.081871615322317459 -0.87073055730099713 
-784.017822265625 666.97039794921875 384.27249145507812 -0.48513933774729773 0.080866093647885107 -0.87068966794618907 
-786.9215087890625 677.05816650390625 386.827880859375 -0.50184703296463518 -0.0088336143679385842 -0.86491128028358544 
-787.95648193359375 677.2525634765625 387.42202758789062 -0.48484494376310261 0.082198673798010352 -0.87072886625700097 
-785.89788818359375 676.7469482421875 386.22940063476562 -0.51143863085583874 -0.0066550435850977309 -0.85929403422995188 
-784.89007568359375 676.3138427734375 385.62789916992188 -0.48525159099453991 0.080837363697193201 -0.87062978014064929 
-783.94342041015625 675.77801513671875 385.0501708984375 -0.48558141636539193 0.080647488933896477 -0.87046348034207444 
3 0 1 2 
3 3 4 0 
3 5 0 4 
3 4 3 6 
3 7 8 9 
3 10 11 12 
3 7 11 13 
3 9 12 7 
3 4 14 5 
3 15 16 4 
3 17 18 12 
3 12 19 10 
3 12 9 17 
3 11 7 12 
3 20 21 22 
3 16 23 14 
3 24 18 16 
3 25 22 26 
3 25 27 22 
3 2 3 0 
3 28 29 22 
3 30 22 29 
3 31 22 30 
3 22 32 33 
3 18 17 23 
3 19 12 18 
3 34 22 31 
3 22 34 35 
3 36 37 38 
3 22 35 39 
3 39 40 22 
3 41 22 36 
3 42 19 18 
3 40 43 22 
3 37 36 22 
3 44 24 16 
3 20 22 33 
3 23 16 18 
3 18 24 42 
3 22 21 26 
3 14 4 16 
3 16 15 44 
3 22 27 28 
3 6 15 4 
3 38 37 45 
3 38 45 46 
3 41 32 22 
