ply
format ascii 1.0
comment Generated by the CGAL library
element vertex 93
property double x
property double y
property double z
property double nx
property double ny
property double nz
element face 121
property list uchar int vertex_indices
end_header
-227.79734802246094 -251.17311096191406 566.84674072265625 -0.60278251068713529 0.79787164506047592 -0.0073541021344234302 
-227.330322265625 -250.83805847167969 567.19525146484375 -0.57965668205490273 0.81483413530592341 -0.0065926390277171463 
-227.03874206542969 -250.63511657714844 566.6412353515625 -0.60852393290611073 0.79071886586653839 0.066800435950782638 
-230.22042846679688 -257.11685180664062 568.472412109375 -0.83302187757441915 0.34156548190763009 0.43520980348746485 
-229.85554504394531 -257.4466552734375 569.37371826171875 -0.82651772468459572 0.33062049420198819 0.45558592998009939 
-229.58308410644531 -256.83407592773438 569.4234619140625 -0.86025277404766864 0.25666731687691713 0.44055312187123918 
-229.90682983398438 -256.55157470703125 568.626708984375 -0.86862355614797926 0.26609413688961681 0.4179557728011522 
-229.4061279296875 -256.19345092773438 569.5264892578125 -0.90965080394170283 0.10023757386209432 0.40309780906680065 
-229.68934631347656 -255.95645141601562 568.82843017578125 -0.92121055558355558 0.11862658816301934 0.37053858754823144 
-229.45994567871094 -255.45870971679688 569.37957763671875 -0.91833560722349972 0.016899749535934556 0.39544166569934025 
-229.16058349609375 -254.86698913574219 570.04949951171875 -0.91606246461392338 0.062140490958867395 0.39619202453968633 
-229.51219177246094 -255.39967346191406 569.2454833984375 -0.93633035308698298 0.0029012983360094525 0.35110831997543307 
-230.11660766601562 -256.13937377929688 567.85015869140625 -0.88082175072266111 0.2980529193285511 0.36785527145005609 
-230.45513916015625 -256.63870239257812 567.591064453125 -0.84277352279153706 0.36575552639615772 0.39491224872395658 
-229.87251281738281 -255.60772705078125 568.14788818359375 -0.94159817915267396 0.16570062016143927 0.29314872248482238 
-229.57368469238281 -255.34837341308594 569.0687255859375 -0.94774082243246704 0.056397290282589781 0.31401700454563347 
-229.76655578613281 -254.90968322753906 568.24261474609375 -0.97278263562249212 0.12452575566378399 0.19541565957650703 
-229.70956420898438 -255.09333801269531 568.57586669921875 -0.96371071316104573 0.089542939655935405 0.25148304773165586 
-229.47735595703125 -254.15786743164062 569.0281982421875 -0.93651508405578787 0.20336983380609008 0.28562249217045893 
-229.71913146972656 -255.08941650390625 568.53173828125 -0.95897216347441649 0.083038114484704939 0.27106652545827548 
-229.094482421875 -254.03575134277344 569.9234619140625 -0.9080060249627504 0.21232084931130604 0.36117158744711725 
-228.90316772460938 -253.23527526855469 569.73724365234375 -0.87118188924511919 0.37079243049669824 0.32179976590677623 
-229.53385925292969 -254.98388671875 569.18426513671875 -0.94293032108106589 0.062454574900686059 0.32708077849352818 
-229.64768981933594 -255.24151611328125 568.82696533203125 -0.95745900960782893 0.024247974585291938 0.28754874482304127 
-230.48277282714844 -255.29936218261719 566.0382080078125 -0.84105344308659891 0.43310923362601073 0.32410723166888306 
-230.54501342773438 -256.02737426757812 566.7705078125 -0.84579617438134791 0.39629874266910792 0.3571780199854977 
-230.19786071777344 -255.61030578613281 567.127197265625 -0.88627368223667802 0.34072905892980404 0.31372387313599481 
-230.14436340332031 -254.97775268554688 566.48345947265625 -0.88174298469164847 0.38798334201428863 0.26832486889307716 
-229.94395446777344 -255.15719604492188 567.5177001953125 -0.94971345354052628 0.22609650550979796 0.21662115861656867 
-230.26693725585938 -254.49002075195312 565.4368896484375 -0.82949041201811069 0.47325215294360806 0.29661095074906579 
-229.73025512695312 -255.05764770507812 568.4765625 -0.96667156456177039 0.11945169520741228 0.22644508998822313 
-228.85600280761719 -252.29734802246094 566.54681396484375 -0.7649434586168028 0.63596113385874997 0.10205361992823604 
-229.89830017089844 -254.61546325683594 566.9566650390625 -0.94295980125404655 0.29717880117057915 0.15003857288626277 
-226.64875793457031 -249.97215270996094 565.57879638671875 -0.67007826892096323 0.68523815608781735 0.28538357163868655 
-227.39227294921875 -250.49429321289062 565.08856201171875 -0.68882540743506615 0.67025600556318843 0.2761819057765989 
-227.4580078125 -250.79679870605469 565.65875244140625 -0.67734471448727385 0.70754659798309283 0.20144962010067183 
-226.8092041015625 -250.34431457519531 566.0972900390625 -0.65407852691581814 0.72585368494254432 0.21287956379832002 
-227.59353637695312 -251.02464294433594 566.2490234375 -0.65273200667424558 0.75613639868664051 0.046890020731606474 
-228.12289428710938 -251.1500244140625 564.77056884765625 -0.72385968837924464 0.63705745873325681 0.2649244152807127 
-228.09228515625 -251.36589050292969 565.373291015625 -0.72589312739732381 0.66247988718925344 0.18493124848723294 
-228.8101806640625 -251.919921875 564.64398193359375 -0.75797861186534499 0.59862295502927965 0.2590733133047437 
-228.68948364257812 -252.03413391113281 565.259521484375 -0.77047796417003789 0.61187990445360974 0.1787923075924551 
-229.41038513183594 -252.75759887695312 564.7193603515625 -0.78803342227779993 0.55703822418800852 0.2621292470645134 
-229.21295166015625 -252.7626953125 565.32373046875 -0.81190233124958988 0.55393884253391645 0.18429965611380336 
-229.90461730957031 -253.62887573242188 564.98895263671875 -0.81136981512482409 0.5153339006383677 0.27588039792118912 
-229.64262390136719 -253.52273559570312 565.5599365234375 -0.84305075678848806 0.49910308606917952 0.20040342051616483 
-229.95819091796875 -254.27365112304688 565.9541015625 -0.8673879969325563 0.44075228566956187 0.23103135166982078 
-228.39976501464844 -251.74285888671875 566.5762939453125 -0.73618151656677433 0.66946574613892817 0.099259203160676879 
-229.78999328613281 -254.67294311523438 567.92236328125 -0.97058870739299385 0.17828307205096705 0.16177981116711426 
-229.72032165527344 -254.33946228027344 568.084228515625 -0.96907062759779405 0.19367188453779405 0.15294874915080792 
-226.55502319335938 -250.48091125488281 567.998046875 -0.44495142750878808 0.89083160396814165 0.091854670700186117 
-227.38490295410156 -250.87117004394531 567.76287841796875 -0.52625613949833261 0.84761655882165388 0.067828053574088956 
-226.49349975585938 -250.46479797363281 568.092529296875 -0.44548338216187389 0.88860431157989306 0.10921050159779655 
-227.05351257324219 -250.77000427246094 568.5067138671875 -0.49887059328290939 0.86026138769737548 0.10525433955207653 
-229.78599548339844 -254.61280822753906 567.88720703125 -0.98136544144227433 0.14445226684686721 0.12670995598457013 
-229.29090881347656 -253.36074829101562 568.83209228515625 -0.89984058188966021 0.35985013090435969 0.24656603673781355 
-229.55010986328125 -255.3758544921875 569.13824462890625 -0.93271486903303513 0.03201066599583216 0.35919116128767886 
-229.3304443359375 -255.54356384277344 569.67901611328125 -0.92432675525531738 0.01823295688686416 0.38116611707015396 
-228.59446716308594 -252.48904418945312 569.4951171875 -0.80954559549761906 0.51852737552472827 0.27525495389155619 
-228.97926330566406 -252.61445617675781 568.6014404296875 -0.83846059425282771 0.50662415888338785 0.20078793171128317 
-227.88177490234375 -251.24250793457031 566.796142578125 -0.64755755205591692 0.76106377815200577 -0.038093862502284997 
-229.22283935546875 -252.79789733886719 567.657958984375 -0.87769864683486787 0.4763098462390411 0.052668925563210268 
-229.53578186035156 -253.54550170898438 567.87841796875 -0.93879808920004593 0.33013052731126796 0.09834623862419338 
-228.13606262207031 -251.51329040527344 565.995849609375 -0.71406097658930656 0.69952759246972085 0.027893889758189894 
-228.25285339355469 -251.58872985839844 566.62103271484375 -0.70235677033155297 0.71037013773813384 -0.045488840162559142 
-228.67999267578125 -252.07109069824219 566.5286865234375 -0.77791190745384875 0.62587237306838595 -0.056007471566406092 
-229.25732421875 -252.9244384765625 566.67608642578125 -0.70470557953622026 0.55315626777362303 0.44430641408072857 
-229.73748779296875 -254.01133728027344 566.4959716796875 -0.92228965638068461 0.37533094683850193 0.092241368585424977 
-229.74847412109375 -254.21499633789062 567.43853759765625 -0.96193507609794038 0.258784794433499 0.087814233142818124 
-227.60566711425781 -251.02499389648438 566.976806640625 -0.58396187636093655 0.8111713426130317 -0.031457588597757907 
-228.24165344238281 -251.51512145996094 567.1993408203125 -0.69223030809914932 0.72152777081927999 -0.014658665884628519 
-227.22366333007812 -250.77397155761719 567.2918701171875 -0.48907057169844526 0.87215382605081637 0.01255705393307726 
-229.46644592285156 -253.36463928222656 566.1524658203125 -0.89309255798718312 0.44662594369047731 0.053953213903347813 
-228.01206970214844 -251.34950256347656 568.05810546875 -0.64582651551589076 0.75719935572777197 0.097761176046782347 
-228.78889465332031 -252.11613464355469 567.43035888671875 -0.79724847373573771 0.60339620244562486 0.017546908566334486 
-229.45277404785156 -253.31263732910156 566.82061767578125 -0.91748284866347896 0.3975891131411291 -0.012170436310918303 
-229.38047790527344 -253.16091918945312 566.7501220703125 -0.89028324173371354 0.45461200053919071 -0.026901272346583766 
-229.09626770019531 -252.71273803710938 565.94696044921875 -0.8424412464065687 0.53811945464750732 0.0268365214365851 
-228.64686584472656 -252.08680725097656 565.8929443359375 -0.78059791230292763 0.62474919465524537 0.018850546038069942 
-228.55026245117188 -251.93890380859375 568.3416748046875 -0.75284694650861994 0.64087666781602304 0.14999523919670943 
-228.17610168457031 -251.81742858886719 569.20477294921875 -0.72450671455055404 0.65245238886876544 0.22225188600010418 
-227.65530395507812 -251.23666381835938 568.8697509765625 -0.61818671443194562 0.76854332989529039 0.16488279526164926 
-229.77708435058594 -254.40751647949219 567.62640380859375 -0.97473859615455372 0.21201180876646439 0.070254267558789718 
-229.60641479492188 -253.69248962402344 567.0340576171875 -0.93889036268910686 0.34328617474762529 0.02528812125604156 
-229.0650634765625 -252.60606384277344 566.57391357421875 -0.83105452667589008 0.55374847014096074 -0.052067317081427041 
-229.0987548828125 -252.65925598144531 566.5859375 -0.86322052663742976 0.50277760746934486 -0.045442269080665648 
-229.31106567382812 -253.02285766601562 566.71337890625 -0.82580232145671528 0.52151470852682058 0.21464606837043443 
-228.99176025390625 -252.49404907226562 566.56146240234375 -0.79051030727377836 0.57808168359613799 0.20227461824107112 
-229.22453308105469 -255.59004211425781 569.89739990234375 -0.9109162688029796 -0.0062168728160644175 0.41254442393813362 
-229.46733093261719 -253.34527587890625 566.8388671875 -0.91469609895874449 0.40413153680585717 0.0029576187365768858 
-228.69120788574219 -252.08375549316406 566.52874755859375 -0.74882437450507167 0.60132074054050455 0.27870310931689896 
-229.62677001953125 -253.75138854980469 567.07440185546875 -0.94598492226587627 0.32330126265534631 0.02426562200073696 
-228.11189270019531 -251.44953918457031 566.67938232421875 -0.65995354118527549 0.74800528429018587 -0.070352101254852806 
3 0 1 2 
3 3 4 5 
3 5 6 3 
3 6 5 7 
3 7 8 6 
3 9 10 11 
3 6 12 13 
3 12 6 8 
3 8 14 12 
3 14 8 15 
3 16 17 18 
3 19 14 15 
3 18 20 21 
3 11 22 23 
3 24 25 26 
3 22 18 17 
3 27 26 28 
3 29 24 27 
3 17 23 22 
3 26 27 24 
3 20 18 22 
3 14 30 28 
3 22 10 20 
3 48 32 28 
3 33 34 35 
3 35 36 33 
3 36 35 37 
3 37 2 36 
3 2 37 0 
3 34 38 39 
3 39 35 34 
3 38 40 41 
3 41 39 38 
3 40 42 43 
3 43 41 40 
3 42 44 45 
3 45 43 42 
3 44 29 46 
3 46 45 44 
3 27 46 29 
3 46 27 32 
3 68 32 48 
3 28 32 27 
3 49 16 18 
3 50 51 52 
3 13 3 6 
3 53 52 51 
3 16 49 54 
3 49 18 55 
3 8 56 15 
3 21 55 18 
3 7 57 8 
3 55 21 58 
3 58 59 55 
3 0 37 60 
3 59 61 62 
3 63 37 35 
3 64 63 65 
3 64 60 37 
3 83 67 68 
3 69 70 51 
3 71 51 50 
3 83 72 67 
3 53 51 73 
3 73 70 74 
3 72 75 76 
3 77 78 41 
3 79 80 81 
3 77 72 76 
3 9 88 10 
3 49 62 82 
3 51 71 69 
3 72 83 75 
3 73 81 53 
3 84 77 85 
3 81 73 79 
3 74 79 73 
3 77 84 78 
3 41 43 77 
3 80 79 59 
3 62 55 59 
3 25 13 12 
3 86 74 87 
3 86 61 74 
3 61 59 79 
3 70 73 51 
3 79 74 61 
3 65 63 78 
3 59 58 80 
3 61 86 89 
3 57 56 8 
3 89 91 61 
3 91 62 61 
3 68 67 32 
3 76 85 77 
3 70 92 47 
3 91 82 62 
3 31 74 70 
3 35 39 63 
3 65 78 84 
3 26 12 14 
3 31 70 47 
3 74 31 87 
3 55 62 49 
3 30 14 19 
3 70 69 92 
3 67 72 45 
3 14 28 26 
3 47 90 31 
3 45 46 67 
3 12 26 25 
3 87 66 86 
3 48 28 30 
3 82 54 49 
3 72 77 43 
3 32 67 46 
3 43 45 72 
3 63 64 37 
3 78 63 39 
3 39 41 78 
3 10 22 11 
