ply
format ascii 1.0
comment Generated by the CGAL library
element vertex 66
property double x
property double y
property double z
property double nx
property double ny
property double nz
element face 79
property list uchar int vertex_indices
end_header
7547.5888671875 216.67570495605469 590.09002685546875 -0.67261930233485601 0.68291921239998321 0.28496424944465981 
7547.419921875 218.74113464355469 584.744873046875 -0.65230708718118013 0.69989783870094946 0.29092693136755826 
7547.10595703125 216.37539672851562 589.66796875 -0.67307656472973043 0.68253337814055537 0.2848089284690119 
7545.8671875 217.56082153320312 584.22747802734375 -0.56050120183547203 0.76733333780409008 0.31150915144731395 
7544.7412109375 216.93681335449219 584.03802490234375 -0.43562921201364607 0.83664999158298603 0.33203009084201868 
7545.369140625 211.52128601074219 598.5079345703125 -0.43562980049358241 0.83706951409634356 0.33097024865149582 
7544.166015625 211.0543212890625 598.38946533203125 -0.36925925456626296 0.86555851922070648 0.33831354203109487 
7544.85791015625 205.70933532714844 612.890380859375 -0.36947991270510072 0.86659867758446263 0.33539726611332404 
7546.0595703125 206.17857360839844 613.0020751953125 -0.43573702294541139 0.83815584065916715 0.3280671175287076 
7545.61279296875 200.43800354003906 627.4136962890625 -0.36960132076931557 0.86768015942057874 0.33245451513471219 
7547.5048828125 212.92300415039062 598.89263916015625 -0.6719421662130145 0.68371882320980237 0.28464415689341749 
7547.86572265625 213.26568603515625 598.92132568359375 -0.67269154352131244 0.68308906065212593 0.28438604482694035 
7547.4951171875 213.00320434570312 598.6771240234375 -0.67253529534521128 0.68310762552334559 0.28471081550721972 
7550.1943359375 194.63748168945312 649.4735107421875 -0.67172232804203669 0.68505909735279369 0.28192755655303026 
7550.4453125 196.00151062011719 646.75701904296875 -0.65105700714931958 0.70299793279248635 0.28621439504550028 
7549.76513671875 197.12631225585938 642.40325927734375 -0.67257000800350308 0.68429902058883618 0.28175243522519422 
7547.86572265625 213.26274108886719 598.92767333984375 -0.63007233731189882 0.71114147812991502 0.31190807594148695 
7548.8115234375 213.99432373046875 599.173828125 -0.59643931423657037 0.74250665821079875 0.30486719558791792 
7547.86572265625 213.26527404785156 598.9222412109375 -0.6306801000065918 0.71035452186108106 0.31247250235371132 
7550.38037109375 209.25587463378906 613.57342529296875 -0.54076678521012689 0.78007444438801166 0.31473027376825269 
7549.83984375 214.62496948242188 599.3795166015625 -0.54111684832866536 0.77907833193710008 0.31659044388761637 
7551.3916015625 196.75382995605469 646.943359375 -0.62979271225329503 0.72048548724560513 0.29027883536541438 
7549.8837890625 198.23516845703125 639.9952392578125 -0.65179687130124431 0.70201207087875461 0.28694928280522275 
7550.83447265625 198.9921875 640.1783447265625 -0.58563668654709966 0.75327465454065934 0.299344226930777 
7549.4189453125 200.56488037109375 633.23956298828125 -0.62981326975753105 0.71969165901322785 0.29219712726875902 
7549.6240234375 198.03121948242188 639.86907958984375 -0.67170523891123324 0.68482941999519453 0.28252564047931739 
7547.88818359375 209.96681213378906 606.90496826171875 -0.67271986571477005 0.68323709475406047 0.28396312194496787 
7548.17529296875 210.20228576660156 607.01995849609375 -0.67365124601577386 0.68245266045813924 0.28364126105875903 
7549.359375 208.62814331054688 613.376953125 -0.5954685967138551 0.73969868653188542 0.31346930227796754 
7549.41796875 200.56423950195312 633.2392578125 -0.67170523891123324 0.68482941999519453 0.28252564047931739 
7549.1279296875 202.35421752929688 628.216552734375 -0.67260287385386075 0.68390986792129271 0.28261752713412441 
7548.97216796875 202.17108154296875 628.28778076171875 -0.6714634853414817 0.68461924221039272 0.28360761810702034 
7549.3525390625 208.62251281738281 613.37530517578125 -0.59555336244115031 0.7396651252911427 0.31338745174795712 
7548.1953125 207.58027648925781 613.383544921875 -0.6635565860159206 0.69165427955002556 0.28514384919726282 
7548.615234375 206.24400329589844 617.60205078125 -0.6636785953542822 0.6916434642088729 0.28488601314511125 
7548.18408203125 207.66987609863281 613.13922119140625 -0.6634456134019221 0.69171526952600548 0.28525410419889285 
7550.369140625 201.31687927246094 633.4368896484375 -0.58629000897832773 0.7517359300109564 0.30192236900030223 
7549.02880859375 202.961181640625 626.51214599609375 -0.6509619243257132 0.70237237967935595 0.28796113165099746 
7546.8779296875 218.33732604980469 584.43212890625 -0.67298993060371914 0.682515660525854 0.2850560058005418 
7548.4208984375 206.00994873046875 617.703857421875 -0.67154089889060986 0.68456535563742449 0.28355439509589353 
7548.1962890625 207.57231140136719 613.40411376953125 -0.61789184841479627 0.72796830651171252 0.29710571919270706 
7547.5068359375 212.91087341308594 598.9256591796875 -0.6178103863140777 0.72750264946360743 0.29841283750180991 
7547.1845703125 206.80673217773438 613.17584228515625 -0.55989879412007537 0.76881657757594757 0.30892460307863545 
7548.4072265625 207.89077758789062 613.13787841796875 -0.6738511560800714 0.68241526861173629 0.28325610428572057 
7550.66943359375 206.7781982421875 620.23089599609375 -0.5956023794527745 0.74001151240598051 0.31247522637291825 
7548.69482421875 205.40447998046875 619.81561279296875 -0.63054408241822801 0.71828976818765067 0.29406456611480075 
7549.9765625 203.70454406738281 626.72967529296875 -0.58626845035035224 0.75158993414624742 0.30232743013798163 
7549.64111328125 206.14149475097656 620.0433349609375 -0.58595658360564429 0.75125255853532591 0.30376714013093709 
7548.40625 207.89013671875 613.1375732421875 -0.63005856132891302 0.7183142681228819 0.29504376202053295 
7551.0087890625 204.34696960449219 626.90673828125 -0.54037706549895503 0.78180530992543951 0.31108372579600768 
7548.94970703125 202.30809020996094 627.90533447265625 -0.64565536922788214 0.7064484798174866 0.2899304908952649 
7551.8681640625 199.64785766601562 640.3218994140625 -0.53992273219231612 0.78353749390532301 0.30749380303763896 
7547.31494140625 190.11790466308594 656.52960205078125 -0.3691456354663567 0.86950790067445183 0.32815775243142925 
7548.5146484375 190.59318542480469 656.61981201171875 -0.43529425594650728 0.84071908855331035 0.32204087455176844 
7547.63232421875 195.71504211425781 642.05609130859375 -0.43523411890095598 0.83978478833175785 0.32455010557861974 
7548.36669921875 219.46810913085938 585.00103759765625 -0.58684240103098573 0.74896447443266589 0.30768199880719088 
7547.9384765625 201.54020690917969 627.68377685546875 -0.55993496811254251 0.76948005129942276 0.30720234721929357 
7548.755859375 196.34757995605469 642.21533203125 -0.55974725205229403 0.77027170683036617 0.30555606928441154 
7546.81494140625 200.90997314453125 627.51788330078125 -0.4354159027611556 0.83871093962768706 0.32707331192185379 
7546.43212890625 195.24208068847656 641.95916748046875 -0.36935833090621295 0.86888423065650766 0.32956731801958938 
7546.49365234375 212.14736938476562 598.68951416015625 -0.5598482736456718 0.76816102792397278 0.31064215051204241 
7549.63720703125 191.22756958007812 656.76995849609375 -0.55951275304630865 0.77066800915755973 0.30498573546915891 
7550.6474609375 191.99917602539062 656.9766845703125 -0.61742339141887159 0.72960054307693822 0.29406020347992634 
7549.76708984375 197.11712646484375 642.429931640625 -0.61745042554446949 0.72932632344088544 0.29468302620129738 
7551.4033203125 201.96563720703125 633.60040283203125 -0.54009634633069603 0.78289102162292301 0.30883261638377646 
7546.8798828125 218.32182312011719 584.472412109375 -0.61809755210519868 0.7270348024276333 0.29895787686658032 
3 0 1 2 
3 3 4 5 
3 6 5 4 
3 5 6 7 
3 7 8 5 
3 8 7 9 
3 10 11 12 
3 0 12 11 
3 13 14 15 
3 16 17 18 
3 19 20 17 
3 14 21 22 
3 22 23 24 
3 15 22 25 
3 11 26 27 
3 22 15 14 
3 28 19 17 
3 29 30 31 
3 17 32 28 
3 33 34 35 
3 24 36 37 
3 38 2 1 
3 39 34 33 
3 40 41 42 
3 27 35 43 
3 28 32 44 
3 45 37 46 
3 46 47 45 
3 16 48 32 
3 49 44 47 
3 47 46 49 
3 32 17 16 
3 31 25 29 
3 50 37 39 
3 12 0 2 
3 36 23 51 
3 52 53 54 
3 17 55 1 
3 50 56 57 
3 58 56 42 
3 54 59 52 
3 1 18 17 
3 56 50 40 
3 44 19 28 
3 42 8 58 
3 31 30 50 
3 35 27 26 
3 8 42 60 
3 32 47 44 
3 57 54 53 
3 61 62 63 
3 21 23 22 
3 36 46 37 
3 55 17 20 
3 57 63 50 
3 5 60 3 
3 48 45 47 
3 56 58 54 
3 23 36 24 
3 22 29 25 
3 37 34 39 
3 60 5 8 
3 47 32 48 
3 54 57 56 
3 63 57 61 
3 34 43 35 
3 51 64 36 
3 40 42 56 
3 59 54 58 
3 58 9 59 
3 41 60 42 
3 65 3 60 
3 9 58 8 
3 53 61 57 
3 26 11 10 
3 37 50 30 
3 41 65 60 
3 64 49 46 
3 46 36 64 
