<?xml version="1.0" encoding="UTF-8"?>
<svg xmlns="http://www.w3.org/2000/svg" xmlns:xlink="http://www.w3.org/1999/xlink" width="1633" height="385" viewBox="0 0 1633 385">
<path fill-rule="evenodd" fill="rgb(100%, 100%, 100%)" fill-opacity="1" stroke-width="0.4" stroke-linecap="butt" stroke-linejoin="round" stroke="rgb(0%, 0%, 0%)" stroke-opacity="1" stroke-miterlimit="10" d="M -368 768 L -368 384 L 144 384 L 144 768 Z M -368 768 " transform="matrix(1, 0, 0, -1, 369, 769)"/>
<path fill="none" stroke-width="0.4" stroke-linecap="butt" stroke-linejoin="round" stroke="rgb(0%, 0%, 0%)" stroke-opacity="1" stroke-miterlimit="10" d="M -240 768 L -240 384 " transform="matrix(1, 0, 0, -1, 369, 769)"/>
<path fill="none" stroke-width="0.4" stroke-linecap="butt" stroke-linejoin="round" stroke="rgb(0%, 0%, 0%)" stroke-opacity="1" stroke-miterlimit="10" d="M 16 768 L 16 384 " transform="matrix(1, 0, 0, -1, 369, 769)"/>
<path fill="none" stroke-width="0.4" stroke-linecap="butt" stroke-linejoin="round" stroke="rgb(0%, 0%, 0%)" stroke-opacity="1" stroke-miterlimit="10" d="M -176 768 L -176 384 " transform="matrix(1, 0, 0, -1, 369, 769)"/>
<path fill="none" stroke-width="0.4" stroke-linecap="butt" stroke-linejoin="round" stroke="rgb(0%, 0%, 0%)" stroke-opacity="1" stroke-miterlimit="10" d="M -48 768 L -48 384 " transform="matrix(1, 0, 0, -1, 369, 769)"/>
<path fill="none" stroke-width="0.4" stroke-linecap="butt" stroke-linejoin="round" stroke="rgb(0%, 0%, 0%)" stroke-opacity="1" stroke-miterlimit="10" d="M -304 768 L -304 384 " transform="matrix(1, 0, 0, -1, 369, 769)"/>
<path fill="none" stroke-width="0.4" stroke-linecap="butt" stroke-linejoin="round" stroke="rgb(0%, 0%, 0%)" stroke-opacity="1" stroke-miterlimit="10" d="M 80 768 L 80 384 " transform="matrix(1, 0, 0, -1, 369, 769)"/>
<path fill="none" stroke-width="0.4" stroke-linecap="butt" stroke-linejoin="round" stroke="rgb(0%, 0%, 0%)" stroke-opacity="1" stroke-miterlimit="10" d="M -112 768 L -112 384 " transform="matrix(1, 0, 0, -1, 369, 769)"/>
<path fill="none" stroke-width="0.4" stroke-linecap="butt" stroke-linejoin="round" stroke="rgb(0%, 0%, 0%)" stroke-opacity="1" stroke-miterlimit="10" d="M -208 768 L -208 384 " transform="matrix(1, 0, 0, -1, 369, 769)"/>
<path fill="none" stroke-width="0.4" stroke-linecap="butt" stroke-linejoin="round" stroke="rgb(0%, 0%, 0%)" stroke-opacity="1" stroke-miterlimit="10" d="M -144 768 L -144 384 " transform="matrix(1, 0, 0, -1, 369, 769)"/>
<path fill="none" stroke-width="0.4" stroke-linecap="butt" stroke-linejoin="round" stroke="rgb(0%, 0%, 0%)" stroke-opacity="1" stroke-miterlimit="10" d="M -16 768 L -16 384 " transform="matrix(1, 0, 0, -1, 369, 769)"/>
<path fill="none" stroke-width="0.4" stroke-linecap="butt" stroke-linejoin="round" stroke="rgb(0%, 0%, 0%)" stroke-opacity="1" stroke-miterlimit="10" d="M -80 768 L -80 384 " transform="matrix(1, 0, 0, -1, 369, 769)"/>
<path fill="none" stroke-width="0.4" stroke-linecap="butt" stroke-linejoin="round" stroke="rgb(0%, 0%, 0%)" stroke-opacity="1" stroke-miterlimit="10" d="M -64 768 L -64 384 " transform="matrix(1, 0, 0, -1, 369, 769)"/>
<path fill="none" stroke-width="0.4" stroke-linecap="butt" stroke-linejoin="round" stroke="rgb(0%, 0%, 0%)" stroke-opacity="1" stroke-miterlimit="10" d="M -96 768 L -96 384 " transform="matrix(1, 0, 0, -1, 369, 769)"/>
<path fill="none" stroke-width="0.4" stroke-linecap="butt" stroke-linejoin="round" stroke="rgb(0%, 0%, 0%)" stroke-opacity="1" stroke-miterlimit="10" d="M -128 768 L -128 384 " transform="matrix(1, 0, 0, -1, 369, 769)"/>
<path fill="none" stroke-width="0.4" stroke-linecap="butt" stroke-linejoin="round" stroke="rgb(0%, 0%, 0%)" stroke-opacity="1" stroke-miterlimit="10" d="M -160 768 L -160 384 " transform="matrix(1, 0, 0, -1, 369, 769)"/>
<path fill="none" stroke-width="0.4" stroke-linecap="butt" stroke-linejoin="round" stroke="rgb(0%, 0%, 0%)" stroke-opacity="1" stroke-miterlimit="10" d="M -88 768 L -88 384 " transform="matrix(1, 0, 0, -1, 369, 769)"/>
<path fill="none" stroke-width="0.4" stroke-linecap="butt" stroke-linejoin="round" stroke="rgb(0%, 0%, 0%)" stroke-opacity="1" stroke-miterlimit="10" d="M -104 768 L -104 384 " transform="matrix(1, 0, 0, -1, 369, 769)"/>
<path fill="none" stroke-width="0.4" stroke-linecap="butt" stroke-linejoin="round" stroke="rgb(0%, 0%, 0%)" stroke-opacity="1" stroke-miterlimit="10" d="M -120 768 L -120 384 " transform="matrix(1, 0, 0, -1, 369, 769)"/>
<path fill="none" stroke-width="0.4" stroke-linecap="butt" stroke-linejoin="round" stroke="rgb(0%, 0%, 0%)" stroke-opacity="1" stroke-miterlimit="10" d="M -136 768 L -136 384 " transform="matrix(1, 0, 0, -1, 369, 769)"/>
<path fill="none" stroke-width="0.4" stroke-linecap="butt" stroke-linejoin="round" stroke="rgb(0%, 0%, 0%)" stroke-opacity="1" stroke-miterlimit="10" d="M -367.996094 703.996094 L 143.992188 703.996094 " transform="matrix(1, 0, 0, -1, 369, 769)"/>
<path fill="none" stroke-width="0.4" stroke-linecap="butt" stroke-linejoin="round" stroke="rgb(0%, 0%, 0%)" stroke-opacity="1" stroke-miterlimit="10" d="M -368.003906 512 L 143.988281 512 " transform="matrix(1, 0, 0, -1, 369, 769)"/>
<path fill="none" stroke-width="0.4" stroke-linecap="butt" stroke-linejoin="round" stroke="rgb(0%, 0%, 0%)" stroke-opacity="1" stroke-miterlimit="10" d="M -367.996094 639.996094 L 143.992188 639.996094 " transform="matrix(1, 0, 0, -1, 369, 769)"/>
<path fill="none" stroke-width="0.4" stroke-linecap="butt" stroke-linejoin="round" stroke="rgb(0%, 0%, 0%)" stroke-opacity="1" stroke-miterlimit="10" d="M -367.996094 575.996094 L 143.992188 575.996094 " transform="matrix(1, 0, 0, -1, 369, 769)"/>
<path fill="none" stroke-width="0.4" stroke-linecap="butt" stroke-linejoin="round" stroke="rgb(0%, 0%, 0%)" stroke-opacity="1" stroke-miterlimit="10" d="M -368.003906 480 L 143.988281 480 " transform="matrix(1, 0, 0, -1, 369, 769)"/>
<path fill="none" stroke-width="0.4" stroke-linecap="butt" stroke-linejoin="round" stroke="rgb(0%, 0%, 0%)" stroke-opacity="1" stroke-miterlimit="10" d="M -367.996094 544 L 143.992188 544 " transform="matrix(1, 0, 0, -1, 369, 769)"/>
<path fill="none" stroke-width="0.4" stroke-linecap="butt" stroke-linejoin="round" stroke="rgb(0%, 0%, 0%)" stroke-opacity="1" stroke-miterlimit="10" d="M -367.996094 671.996094 L 143.992188 671.996094 " transform="matrix(1, 0, 0, -1, 369, 769)"/>
<path fill="none" stroke-width="0.4" stroke-linecap="butt" stroke-linejoin="round" stroke="rgb(0%, 0%, 0%)" stroke-opacity="1" stroke-miterlimit="10" d="M -367.996094 607.996094 L 143.992188 607.996094 " transform="matrix(1, 0, 0, -1, 369, 769)"/>
<path fill="none" stroke-width="0.4" stroke-linecap="butt" stroke-linejoin="round" stroke="rgb(0%, 0%, 0%)" stroke-opacity="1" stroke-miterlimit="10" d="M -367.996094 623.996094 L 143.992188 623.996094 " transform="matrix(1, 0, 0, -1, 369, 769)"/>
<path fill="none" stroke-width="0.4" stroke-linecap="butt" stroke-linejoin="round" stroke="rgb(0%, 0%, 0%)" stroke-opacity="1" stroke-miterlimit="10" d="M -367.996094 591.996094 L 143.992188 591.996094 " transform="matrix(1, 0, 0, -1, 369, 769)"/>
<path fill="none" stroke-width="0.4" stroke-linecap="butt" stroke-linejoin="round" stroke="rgb(0%, 0%, 0%)" stroke-opacity="1" stroke-miterlimit="10" d="M -367.996094 560 L 143.992188 560 " transform="matrix(1, 0, 0, -1, 369, 769)"/>
<path fill="none" stroke-width="0.4" stroke-linecap="butt" stroke-linejoin="round" stroke="rgb(0%, 0%, 0%)" stroke-opacity="1" stroke-miterlimit="10" d="M -368.003906 528 L 143.988281 528 " transform="matrix(1, 0, 0, -1, 369, 769)"/>
<path fill="none" stroke-width="0.4" stroke-linecap="butt" stroke-linejoin="round" stroke="rgb(0%, 0%, 0%)" stroke-opacity="1" stroke-miterlimit="10" d="M -367.996094 599.996094 L 143.992188 599.996094 " transform="matrix(1, 0, 0, -1, 369, 769)"/>
<path fill="none" stroke-width="0.4" stroke-linecap="butt" stroke-linejoin="round" stroke="rgb(0%, 0%, 0%)" stroke-opacity="1" stroke-miterlimit="10" d="M -367.996094 584 L 143.992188 584 " transform="matrix(1, 0, 0, -1, 369, 769)"/>
<path fill="none" stroke-width="0.4" stroke-linecap="butt" stroke-linejoin="round" stroke="rgb(0%, 0%, 0%)" stroke-opacity="1" stroke-miterlimit="10" d="M -367.996094 568 L 143.992188 568 " transform="matrix(1, 0, 0, -1, 369, 769)"/>
<path fill="none" stroke-width="0.4" stroke-linecap="butt" stroke-linejoin="round" stroke="rgb(0%, 0%, 0%)" stroke-opacity="1" stroke-miterlimit="10" d="M -367.996094 552 L 143.992188 552 " transform="matrix(1, 0, 0, -1, 369, 769)"/>
<path fill="none" stroke-width="1.2" stroke-linecap="butt" stroke-linejoin="round" stroke="rgb(0%, 0%, 100%)" stroke-opacity="1" stroke-miterlimit="10" d="M -352 432 L 96 752 " transform="matrix(1, 0, 0, -1, 369, 769)"/>
<path fill="none" stroke-width="0.4" stroke-linecap="butt" stroke-linejoin="round" stroke="rgb(0%, 0%, 0%)" stroke-opacity="1" stroke-miterlimit="10" d="M -368.003906 448 L 143.988281 448 " transform="matrix(1, 0, 0, -1, 369, 769)"/>
<path fill="none" stroke-width="1.2" stroke-linecap="butt" stroke-linejoin="round" stroke="rgb(0%, 0%, 100%)" stroke-opacity="1" stroke-miterlimit="10" d="M -253.75 486.882812 L 91.363281 497.683594 " transform="matrix(1, 0, 0, -1, 369, 769)"/>
<path fill="none" stroke-width="1.2" stroke-linecap="butt" stroke-linejoin="round" stroke="rgb(0%, 0%, 100%)" stroke-opacity="1" stroke-miterlimit="10" d="M -132.511719 580.511719 L 5.535156 428.0625 " transform="matrix(1, 0, 0, -1, 369, 769)"/>
<path fill-rule="evenodd" fill="rgb(0%, 0%, 100%)" fill-opacity="1" d="M 118.25 282.117188 C 118.25 278.117188 112.25 278.117188 112.25 282.117188 C 112.25 286.117188 118.25 286.117188 118.25 282.117188 Z M 118.25 282.117188 "/>
<path fill-rule="evenodd" fill="rgb(0%, 0%, 100%)" fill-opacity="1" d="M 239.488281 188.488281 C 239.488281 184.488281 233.488281 184.488281 233.488281 188.488281 C 233.488281 192.488281 239.488281 192.488281 239.488281 188.488281 Z M 239.488281 188.488281 "/>
<path fill-rule="evenodd" fill="rgb(0%, 0%, 100%)" fill-opacity="1" d="M 377.535156 340.9375 C 377.535156 336.9375 371.535156 336.9375 371.535156 340.9375 C 371.535156 344.9375 377.535156 344.9375 377.535156 340.9375 Z M 377.535156 340.9375 "/>
<path fill-rule="evenodd" fill="rgb(0%, 0%, 100%)" fill-opacity="1" d="M 463.363281 271.316406 C 463.363281 267.316406 457.363281 267.316406 457.363281 271.316406 C 457.363281 275.316406 463.363281 275.316406 463.363281 271.316406 Z M 463.363281 271.316406 "/>
<path fill-rule="evenodd" fill="rgb(0%, 0%, 100%)" fill-opacity="1" d="M 468 17 C 468 13 462 13 462 17 C 462 21 468 21 468 17 Z M 468 17 "/>
<path fill-rule="evenodd" fill="rgb(0%, 0%, 100%)" fill-opacity="1" d="M 20 337 C 20 333 14 333 14 337 C 14 341 20 341 20 337 Z M 20 337 "/>
<path fill="none" stroke-width="1.2" stroke-linecap="butt" stroke-linejoin="round" stroke="rgb(0%, 0%, 100%)" stroke-opacity="1" stroke-miterlimit="10" d="M -244.746094 416.058594 L 134.578125 536.097656 " transform="matrix(1, 0, 0, -1, 369, 769)"/>
<path fill="none" stroke-width="1.2" stroke-linecap="butt" stroke-linejoin="round" stroke="rgb(0%, 0%, 100%)" stroke-opacity="1" stroke-miterlimit="10" d="M -288 752 L -288 656 " transform="matrix(1, 0, 0, -1, 369, 769)"/>
<path fill="none" stroke-width="1.2" stroke-linecap="butt" stroke-linejoin="round" stroke="rgb(0%, 0%, 100%)" stroke-opacity="1" stroke-miterlimit="10" d="M -256 688 L -256.152344 613.523438 " transform="matrix(1, 0, 0, -1, 369, 769)"/>
<path fill-rule="evenodd" fill="rgb(0%, 0%, 100%)" fill-opacity="1" d="M 84 17 C 84 13 78 13 78 17 C 78 21 84 21 84 17 Z M 84 17 "/>
<path fill-rule="evenodd" fill="rgb(0%, 0%, 100%)" fill-opacity="1" d="M 84 113 C 84 109 78 109 78 113 C 78 117 84 117 84 113 Z M 84 113 "/>
<path fill-rule="evenodd" fill="rgb(0%, 0%, 100%)" fill-opacity="1" d="M 116 81 C 116 77 110 77 110 81 C 110 85 116 85 116 81 Z M 116 81 "/>
<path fill-rule="evenodd" fill="rgb(0%, 0%, 100%)" fill-opacity="1" d="M 115.847656 155.476562 C 115.847656 151.476562 109.847656 151.476562 109.847656 155.476562 C 109.847656 159.476562 115.847656 159.476562 115.847656 155.476562 Z M 115.847656 155.476562 "/>
<path fill-rule="evenodd" fill="rgb(0%, 0%, 100%)" fill-opacity="1" d="M 506.578125 232.902344 C 506.578125 228.902344 500.578125 228.902344 500.578125 232.902344 C 500.578125 236.902344 506.578125 236.902344 506.578125 232.902344 Z M 506.578125 232.902344 "/>
<path fill-rule="evenodd" fill="rgb(0%, 0%, 100%)" fill-opacity="1" d="M 127.253906 352.941406 C 127.253906 348.941406 121.253906 348.941406 121.253906 352.941406 C 121.253906 356.941406 127.253906 356.941406 127.253906 352.941406 Z M 127.253906 352.941406 "/>
<path fill-rule="evenodd" fill="rgb(100%, 100%, 100%)" fill-opacity="1" stroke-width="0.4" stroke-linecap="butt" stroke-linejoin="round" stroke="rgb(0%, 0%, 0%)" stroke-opacity="1" stroke-miterlimit="10" d="M 192 768 L 192 384 L 704 384 L 704 768 Z M 192 768 " transform="matrix(1, 0, 0, -1, 369, 769)"/>
<path fill="none" stroke-width="0.4" stroke-linecap="butt" stroke-linejoin="round" stroke="rgb(0%, 0%, 0%)" stroke-opacity="1" stroke-miterlimit="10" d="M 320 768 L 320 384 " transform="matrix(1, 0, 0, -1, 369, 769)"/>
<path fill="none" stroke-width="0.4" stroke-linecap="butt" stroke-linejoin="round" stroke="rgb(0%, 0%, 0%)" stroke-opacity="1" stroke-miterlimit="10" d="M 576 768 L 576 384 " transform="matrix(1, 0, 0, -1, 369, 769)"/>
<path fill="none" stroke-width="0.4" stroke-linecap="butt" stroke-linejoin="round" stroke="rgb(0%, 0%, 0%)" stroke-opacity="1" stroke-miterlimit="10" d="M 384 768 L 384 384 " transform="matrix(1, 0, 0, -1, 369, 769)"/>
<path fill="none" stroke-width="0.4" stroke-linecap="butt" stroke-linejoin="round" stroke="rgb(0%, 0%, 0%)" stroke-opacity="1" stroke-miterlimit="10" d="M 512 768 L 512 384 " transform="matrix(1, 0, 0, -1, 369, 769)"/>
<path fill="none" stroke-width="0.4" stroke-linecap="butt" stroke-linejoin="round" stroke="rgb(0%, 0%, 0%)" stroke-opacity="1" stroke-miterlimit="10" d="M 256 768 L 256 384 " transform="matrix(1, 0, 0, -1, 369, 769)"/>
<path fill="none" stroke-width="0.4" stroke-linecap="butt" stroke-linejoin="round" stroke="rgb(0%, 0%, 0%)" stroke-opacity="1" stroke-miterlimit="10" d="M 640 768 L 640 384 " transform="matrix(1, 0, 0, -1, 369, 769)"/>
<path fill="none" stroke-width="0.4" stroke-linecap="butt" stroke-linejoin="round" stroke="rgb(0%, 0%, 0%)" stroke-opacity="1" stroke-miterlimit="10" d="M 448 768 L 448 384 " transform="matrix(1, 0, 0, -1, 369, 769)"/>
<path fill="none" stroke-width="0.4" stroke-linecap="butt" stroke-linejoin="round" stroke="rgb(0%, 0%, 0%)" stroke-opacity="1" stroke-miterlimit="10" d="M 352 768 L 352 384 " transform="matrix(1, 0, 0, -1, 369, 769)"/>
<path fill="none" stroke-width="0.4" stroke-linecap="butt" stroke-linejoin="round" stroke="rgb(0%, 0%, 0%)" stroke-opacity="1" stroke-miterlimit="10" d="M 416 768 L 416 384 " transform="matrix(1, 0, 0, -1, 369, 769)"/>
<path fill="none" stroke-width="0.4" stroke-linecap="butt" stroke-linejoin="round" stroke="rgb(0%, 0%, 0%)" stroke-opacity="1" stroke-miterlimit="10" d="M 544 768 L 544 384 " transform="matrix(1, 0, 0, -1, 369, 769)"/>
<path fill="none" stroke-width="0.4" stroke-linecap="butt" stroke-linejoin="round" stroke="rgb(0%, 0%, 0%)" stroke-opacity="1" stroke-miterlimit="10" d="M 480 768 L 480 384 " transform="matrix(1, 0, 0, -1, 369, 769)"/>
<path fill="none" stroke-width="0.4" stroke-linecap="butt" stroke-linejoin="round" stroke="rgb(0%, 0%, 0%)" stroke-opacity="1" stroke-miterlimit="10" d="M 496 768 L 496 384 " transform="matrix(1, 0, 0, -1, 369, 769)"/>
<path fill="none" stroke-width="0.4" stroke-linecap="butt" stroke-linejoin="round" stroke="rgb(0%, 0%, 0%)" stroke-opacity="1" stroke-miterlimit="10" d="M 464 768 L 464 384 " transform="matrix(1, 0, 0, -1, 369, 769)"/>
<path fill="none" stroke-width="0.4" stroke-linecap="butt" stroke-linejoin="round" stroke="rgb(0%, 0%, 0%)" stroke-opacity="1" stroke-miterlimit="10" d="M 432 768 L 432 384 " transform="matrix(1, 0, 0, -1, 369, 769)"/>
<path fill="none" stroke-width="0.4" stroke-linecap="butt" stroke-linejoin="round" stroke="rgb(0%, 0%, 0%)" stroke-opacity="1" stroke-miterlimit="10" d="M 400 768 L 400 384 " transform="matrix(1, 0, 0, -1, 369, 769)"/>
<path fill="none" stroke-width="0.4" stroke-linecap="butt" stroke-linejoin="round" stroke="rgb(0%, 0%, 0%)" stroke-opacity="1" stroke-miterlimit="10" d="M 472 768 L 472 384 " transform="matrix(1, 0, 0, -1, 369, 769)"/>
<path fill="none" stroke-width="0.4" stroke-linecap="butt" stroke-linejoin="round" stroke="rgb(0%, 0%, 0%)" stroke-opacity="1" stroke-miterlimit="10" d="M 456 768 L 456 384 " transform="matrix(1, 0, 0, -1, 369, 769)"/>
<path fill="none" stroke-width="0.4" stroke-linecap="butt" stroke-linejoin="round" stroke="rgb(0%, 0%, 0%)" stroke-opacity="1" stroke-miterlimit="10" d="M 440 768 L 440 384 " transform="matrix(1, 0, 0, -1, 369, 769)"/>
<path fill="none" stroke-width="0.4" stroke-linecap="butt" stroke-linejoin="round" stroke="rgb(0%, 0%, 0%)" stroke-opacity="1" stroke-miterlimit="10" d="M 424 768 L 424 384 " transform="matrix(1, 0, 0, -1, 369, 769)"/>
<path fill="none" stroke-width="0.4" stroke-linecap="butt" stroke-linejoin="round" stroke="rgb(0%, 0%, 0%)" stroke-opacity="1" stroke-miterlimit="10" d="M 192.003906 703.996094 L 703.992188 703.996094 " transform="matrix(1, 0, 0, -1, 369, 769)"/>
<path fill="none" stroke-width="0.4" stroke-linecap="butt" stroke-linejoin="round" stroke="rgb(0%, 0%, 0%)" stroke-opacity="1" stroke-miterlimit="10" d="M 191.996094 512 L 703.988281 512 " transform="matrix(1, 0, 0, -1, 369, 769)"/>
<path fill="none" stroke-width="0.4" stroke-linecap="butt" stroke-linejoin="round" stroke="rgb(0%, 0%, 0%)" stroke-opacity="1" stroke-miterlimit="10" d="M 192.003906 639.996094 L 703.992188 639.996094 " transform="matrix(1, 0, 0, -1, 369, 769)"/>
<path fill="none" stroke-width="0.4" stroke-linecap="butt" stroke-linejoin="round" stroke="rgb(0%, 0%, 0%)" stroke-opacity="1" stroke-miterlimit="10" d="M 192.003906 575.996094 L 703.992188 575.996094 " transform="matrix(1, 0, 0, -1, 369, 769)"/>
<path fill="none" stroke-width="0.4" stroke-linecap="butt" stroke-linejoin="round" stroke="rgb(0%, 0%, 0%)" stroke-opacity="1" stroke-miterlimit="10" d="M 191.996094 480 L 703.988281 480 " transform="matrix(1, 0, 0, -1, 369, 769)"/>
<path fill="none" stroke-width="0.4" stroke-linecap="butt" stroke-linejoin="round" stroke="rgb(0%, 0%, 0%)" stroke-opacity="1" stroke-miterlimit="10" d="M 192.003906 544 L 703.992188 544 " transform="matrix(1, 0, 0, -1, 369, 769)"/>
<path fill="none" stroke-width="0.4" stroke-linecap="butt" stroke-linejoin="round" stroke="rgb(0%, 0%, 0%)" stroke-opacity="1" stroke-miterlimit="10" d="M 192.003906 671.996094 L 703.992188 671.996094 " transform="matrix(1, 0, 0, -1, 369, 769)"/>
<path fill="none" stroke-width="0.4" stroke-linecap="butt" stroke-linejoin="round" stroke="rgb(0%, 0%, 0%)" stroke-opacity="1" stroke-miterlimit="10" d="M 192.003906 607.996094 L 703.992188 607.996094 " transform="matrix(1, 0, 0, -1, 369, 769)"/>
<path fill="none" stroke-width="0.4" stroke-linecap="butt" stroke-linejoin="round" stroke="rgb(0%, 0%, 0%)" stroke-opacity="1" stroke-miterlimit="10" d="M 192.003906 623.996094 L 703.992188 623.996094 " transform="matrix(1, 0, 0, -1, 369, 769)"/>
<path fill="none" stroke-width="0.4" stroke-linecap="butt" stroke-linejoin="round" stroke="rgb(0%, 0%, 0%)" stroke-opacity="1" stroke-miterlimit="10" d="M 192.003906 591.996094 L 703.992188 591.996094 " transform="matrix(1, 0, 0, -1, 369, 769)"/>
<path fill="none" stroke-width="0.4" stroke-linecap="butt" stroke-linejoin="round" stroke="rgb(0%, 0%, 0%)" stroke-opacity="1" stroke-miterlimit="10" d="M 192.003906 560 L 703.992188 560 " transform="matrix(1, 0, 0, -1, 369, 769)"/>
<path fill="none" stroke-width="0.4" stroke-linecap="butt" stroke-linejoin="round" stroke="rgb(0%, 0%, 0%)" stroke-opacity="1" stroke-miterlimit="10" d="M 191.996094 528 L 703.988281 528 " transform="matrix(1, 0, 0, -1, 369, 769)"/>
<path fill="none" stroke-width="0.4" stroke-linecap="butt" stroke-linejoin="round" stroke="rgb(0%, 0%, 0%)" stroke-opacity="1" stroke-miterlimit="10" d="M 192.003906 599.996094 L 703.992188 599.996094 " transform="matrix(1, 0, 0, -1, 369, 769)"/>
<path fill="none" stroke-width="0.4" stroke-linecap="butt" stroke-linejoin="round" stroke="rgb(0%, 0%, 0%)" stroke-opacity="1" stroke-miterlimit="10" d="M 192.003906 584 L 703.992188 584 " transform="matrix(1, 0, 0, -1, 369, 769)"/>
<path fill="none" stroke-width="0.4" stroke-linecap="butt" stroke-linejoin="round" stroke="rgb(0%, 0%, 0%)" stroke-opacity="1" stroke-miterlimit="10" d="M 192.003906 568 L 703.992188 568 " transform="matrix(1, 0, 0, -1, 369, 769)"/>
<path fill="none" stroke-width="0.4" stroke-linecap="butt" stroke-linejoin="round" stroke="rgb(0%, 0%, 0%)" stroke-opacity="1" stroke-miterlimit="10" d="M 192.003906 552 L 703.992188 552 " transform="matrix(1, 0, 0, -1, 369, 769)"/>
<path fill="none" stroke-width="1.2" stroke-linecap="butt" stroke-linejoin="round" stroke="rgb(0%, 0%, 100%)" stroke-opacity="1" stroke-miterlimit="10" d="M 208 432 L 656 752 " transform="matrix(1, 0, 0, -1, 369, 769)"/>
<path fill="none" stroke-width="0.4" stroke-linecap="butt" stroke-linejoin="round" stroke="rgb(0%, 0%, 0%)" stroke-opacity="1" stroke-miterlimit="10" d="M 191.996094 448 L 703.988281 448 " transform="matrix(1, 0, 0, -1, 369, 769)"/>
<path fill="none" stroke-width="1.2" stroke-linecap="butt" stroke-linejoin="round" stroke="rgb(0%, 0%, 100%)" stroke-opacity="1" stroke-miterlimit="10" d="M 306.25 486.882812 L 651.363281 497.683594 " transform="matrix(1, 0, 0, -1, 369, 769)"/>
<path fill="none" stroke-width="1.2" stroke-linecap="butt" stroke-linejoin="round" stroke="rgb(0%, 0%, 100%)" stroke-opacity="1" stroke-miterlimit="10" d="M 427.488281 580.511719 L 565.535156 428.0625 " transform="matrix(1, 0, 0, -1, 369, 769)"/>
<path fill-rule="evenodd" fill="rgb(0%, 0%, 100%)" fill-opacity="1" d="M 678.25 282.117188 C 678.25 278.117188 672.25 278.117188 672.25 282.117188 C 672.25 286.117188 678.25 286.117188 678.25 282.117188 Z M 678.25 282.117188 "/>
<path fill-rule="evenodd" fill="rgb(0%, 0%, 100%)" fill-opacity="1" d="M 799.488281 188.488281 C 799.488281 184.488281 793.488281 184.488281 793.488281 188.488281 C 793.488281 192.488281 799.488281 192.488281 799.488281 188.488281 Z M 799.488281 188.488281 "/>
<path fill-rule="evenodd" fill="rgb(0%, 0%, 100%)" fill-opacity="1" d="M 937.535156 340.9375 C 937.535156 336.9375 931.535156 336.9375 931.535156 340.9375 C 931.535156 344.9375 937.535156 344.9375 937.535156 340.9375 Z M 937.535156 340.9375 "/>
<path fill-rule="evenodd" fill="rgb(0%, 0%, 100%)" fill-opacity="1" d="M 1023.363281 271.316406 C 1023.363281 267.316406 1017.363281 267.316406 1017.363281 271.316406 C 1017.363281 275.316406 1023.363281 275.316406 1023.363281 271.316406 Z M 1023.363281 271.316406 "/>
<path fill-rule="evenodd" fill="rgb(0%, 0%, 100%)" fill-opacity="1" d="M 1028 17 C 1028 13 1022 13 1022 17 C 1022 21 1028 21 1028 17 Z M 1028 17 "/>
<path fill-rule="evenodd" fill="rgb(0%, 0%, 100%)" fill-opacity="1" d="M 580 337 C 580 333 574 333 574 337 C 574 341 580 341 580 337 Z M 580 337 "/>
<path fill="none" stroke-width="1.2" stroke-linecap="butt" stroke-linejoin="round" stroke="rgb(0%, 0%, 100%)" stroke-opacity="1" stroke-miterlimit="10" d="M 315.253906 416.058594 L 694.578125 536.097656 " transform="matrix(1, 0, 0, -1, 369, 769)"/>
<path fill="none" stroke-width="1.2" stroke-linecap="butt" stroke-linejoin="round" stroke="rgb(0%, 0%, 100%)" stroke-opacity="1" stroke-miterlimit="10" d="M 272 752 L 272 656 " transform="matrix(1, 0, 0, -1, 369, 769)"/>
<path fill="none" stroke-width="1.2" stroke-linecap="butt" stroke-linejoin="round" stroke="rgb(0%, 0%, 100%)" stroke-opacity="1" stroke-miterlimit="10" d="M 304 688 L 303.847656 613.523438 " transform="matrix(1, 0, 0, -1, 369, 769)"/>
<path fill-rule="evenodd" fill="rgb(0%, 0%, 100%)" fill-opacity="1" d="M 644 17 C 644 13 638 13 638 17 C 638 21 644 21 644 17 Z M 644 17 "/>
<path fill-rule="evenodd" fill="rgb(0%, 0%, 100%)" fill-opacity="1" d="M 644 113 C 644 109 638 109 638 113 C 638 117 644 117 644 113 Z M 644 113 "/>
<path fill-rule="evenodd" fill="rgb(0%, 0%, 100%)" fill-opacity="1" d="M 676 81 C 676 77 670 77 670 81 C 670 85 676 85 676 81 Z M 676 81 "/>
<path fill-rule="evenodd" fill="rgb(0%, 0%, 100%)" fill-opacity="1" d="M 675.847656 155.476562 C 675.847656 151.476562 669.847656 151.476562 669.847656 155.476562 C 669.847656 159.476562 675.847656 159.476562 675.847656 155.476562 Z M 675.847656 155.476562 "/>
<path fill-rule="evenodd" fill="rgb(0%, 0%, 100%)" fill-opacity="1" d="M 1066.578125 232.902344 C 1066.578125 228.902344 1060.578125 228.902344 1060.578125 232.902344 C 1060.578125 236.902344 1066.578125 236.902344 1066.578125 232.902344 Z M 1066.578125 232.902344 "/>
<path fill-rule="evenodd" fill="rgb(0%, 0%, 100%)" fill-opacity="1" d="M 687.253906 352.941406 C 687.253906 348.941406 681.253906 348.941406 681.253906 352.941406 C 681.253906 356.941406 687.253906 356.941406 687.253906 352.941406 Z M 687.253906 352.941406 "/>
<path fill="none" stroke-width="0.4" stroke-linecap="butt" stroke-linejoin="round" stroke="rgb(100%, 0%, 0%)" stroke-opacity="1" stroke-dasharray="4" stroke-miterlimit="10" d="M 306.25 768 L 306.25 384 " transform="matrix(1, 0, 0, -1, 369, 769)"/>
<path fill="none" stroke-width="0.4" stroke-linecap="butt" stroke-linejoin="round" stroke="rgb(100%, 0%, 0%)" stroke-opacity="1" stroke-dasharray="4" stroke-miterlimit="10" d="M 427.488281 768 L 427.488281 384 " transform="matrix(1, 0, 0, -1, 369, 769)"/>
<path fill="none" stroke-width="0.4" stroke-linecap="butt" stroke-linejoin="round" stroke="rgb(100%, 0%, 0%)" stroke-opacity="1" stroke-dasharray="4" stroke-miterlimit="10" d="M 506.597656 768 L 506.59375 384 " transform="matrix(1, 0, 0, -1, 369, 769)"/>
<path fill="none" stroke-width="0.4" stroke-linecap="butt" stroke-linejoin="round" stroke="rgb(100%, 0%, 0%)" stroke-opacity="1" stroke-dasharray="4" stroke-miterlimit="10" d="M 518.507812 768 L 518.503906 384 " transform="matrix(1, 0, 0, -1, 369, 769)"/>
<path fill="none" stroke-width="0.4" stroke-linecap="butt" stroke-linejoin="round" stroke="rgb(100%, 0%, 0%)" stroke-opacity="1" stroke-dasharray="4" stroke-miterlimit="10" d="M 564.613281 768 L 564.613281 384 " transform="matrix(1, 0, 0, -1, 369, 769)"/>
<path fill-rule="evenodd" fill="rgb(100%, 0%, 0%)" fill-opacity="1" d="M 678.25 266.820312 C 678.25 262.820312 672.25 262.820312 672.25 266.820312 C 672.25 270.820312 678.25 270.820312 678.25 266.820312 Z M 678.25 266.820312 "/>
<path fill-rule="evenodd" fill="rgb(100%, 0%, 0%)" fill-opacity="1" d="M 799.488281 180.222656 C 799.488281 176.222656 793.488281 176.222656 793.488281 180.222656 C 793.488281 184.222656 799.488281 184.222656 799.488281 180.222656 Z M 799.488281 180.222656 "/>
<path fill-rule="evenodd" fill="rgb(100%, 0%, 0%)" fill-opacity="1" d="M 878.59375 275.847656 C 878.59375 271.847656 872.59375 271.847656 872.59375 275.847656 C 872.59375 279.847656 878.59375 279.847656 878.59375 275.847656 Z M 878.59375 275.847656 "/>
<path fill-rule="evenodd" fill="rgb(100%, 0%, 0%)" fill-opacity="1" d="M 878.59375 292.390625 C 878.59375 288.390625 872.59375 288.390625 872.59375 292.390625 C 872.59375 296.390625 878.59375 296.390625 878.59375 292.390625 Z M 878.59375 292.390625 "/>
<path fill-rule="evenodd" fill="rgb(100%, 0%, 0%)" fill-opacity="1" d="M 890.503906 288.621094 C 890.503906 284.621094 884.503906 284.621094 884.503906 288.621094 C 884.503906 292.621094 890.503906 292.621094 890.503906 288.621094 Z M 890.503906 288.621094 "/>
<path fill-rule="evenodd" fill="rgb(100%, 0%, 0%)" fill-opacity="1" d="M 936.613281 274.03125 C 936.613281 270.03125 930.613281 270.03125 930.613281 274.03125 C 930.613281 278.03125 936.613281 278.03125 936.613281 274.03125 Z M 936.613281 274.03125 "/>
<path fill-rule="evenodd" fill="rgb(100%, 100%, 100%)" fill-opacity="1" stroke-width="0.4" stroke-linecap="butt" stroke-linejoin="round" stroke="rgb(0%, 0%, 0%)" stroke-opacity="1" stroke-miterlimit="10" d="M 752 768 L 752 384 L 1264 384 L 1264 768 Z M 752 768 " transform="matrix(1, 0, 0, -1, 369, 769)"/>
<path fill="none" stroke-width="0.4" stroke-linecap="butt" stroke-linejoin="round" stroke="rgb(0%, 0%, 0%)" stroke-opacity="1" stroke-miterlimit="10" d="M 880 768 L 880 384 " transform="matrix(1, 0, 0, -1, 369, 769)"/>
<path fill="none" stroke-width="0.4" stroke-linecap="butt" stroke-linejoin="round" stroke="rgb(0%, 0%, 0%)" stroke-opacity="1" stroke-miterlimit="10" d="M 1136 768 L 1136 384 " transform="matrix(1, 0, 0, -1, 369, 769)"/>
<path fill="none" stroke-width="0.4" stroke-linecap="butt" stroke-linejoin="round" stroke="rgb(0%, 0%, 0%)" stroke-opacity="1" stroke-miterlimit="10" d="M 944 768 L 944 384 " transform="matrix(1, 0, 0, -1, 369, 769)"/>
<path fill="none" stroke-width="0.4" stroke-linecap="butt" stroke-linejoin="round" stroke="rgb(0%, 0%, 0%)" stroke-opacity="1" stroke-miterlimit="10" d="M 1072 768 L 1072 384 " transform="matrix(1, 0, 0, -1, 369, 769)"/>
<path fill="none" stroke-width="0.4" stroke-linecap="butt" stroke-linejoin="round" stroke="rgb(0%, 0%, 0%)" stroke-opacity="1" stroke-miterlimit="10" d="M 816 768 L 816 384 " transform="matrix(1, 0, 0, -1, 369, 769)"/>
<path fill="none" stroke-width="0.4" stroke-linecap="butt" stroke-linejoin="round" stroke="rgb(0%, 0%, 0%)" stroke-opacity="1" stroke-miterlimit="10" d="M 1200 768 L 1200 384 " transform="matrix(1, 0, 0, -1, 369, 769)"/>
<path fill="none" stroke-width="0.4" stroke-linecap="butt" stroke-linejoin="round" stroke="rgb(0%, 0%, 0%)" stroke-opacity="1" stroke-miterlimit="10" d="M 1008 768 L 1008 384 " transform="matrix(1, 0, 0, -1, 369, 769)"/>
<path fill="none" stroke-width="0.4" stroke-linecap="butt" stroke-linejoin="round" stroke="rgb(0%, 0%, 0%)" stroke-opacity="1" stroke-miterlimit="10" d="M 912 768 L 912 384 " transform="matrix(1, 0, 0, -1, 369, 769)"/>
<path fill="none" stroke-width="0.4" stroke-linecap="butt" stroke-linejoin="round" stroke="rgb(0%, 0%, 0%)" stroke-opacity="1" stroke-miterlimit="10" d="M 976 768 L 976 384 " transform="matrix(1, 0, 0, -1, 369, 769)"/>
<path fill="none" stroke-width="0.4" stroke-linecap="butt" stroke-linejoin="round" stroke="rgb(0%, 0%, 0%)" stroke-opacity="1" stroke-miterlimit="10" d="M 1104 768 L 1104 384 " transform="matrix(1, 0, 0, -1, 369, 769)"/>
<path fill="none" stroke-width="0.4" stroke-linecap="butt" stroke-linejoin="round" stroke="rgb(0%, 0%, 0%)" stroke-opacity="1" stroke-miterlimit="10" d="M 1040 768 L 1040 384 " transform="matrix(1, 0, 0, -1, 369, 769)"/>
<path fill="none" stroke-width="0.4" stroke-linecap="butt" stroke-linejoin="round" stroke="rgb(0%, 0%, 0%)" stroke-opacity="1" stroke-miterlimit="10" d="M 1056 768 L 1056 384 " transform="matrix(1, 0, 0, -1, 369, 769)"/>
<path fill="none" stroke-width="0.4" stroke-linecap="butt" stroke-linejoin="round" stroke="rgb(0%, 0%, 0%)" stroke-opacity="1" stroke-miterlimit="10" d="M 1024 768 L 1024 384 " transform="matrix(1, 0, 0, -1, 369, 769)"/>
<path fill="none" stroke-width="0.4" stroke-linecap="butt" stroke-linejoin="round" stroke="rgb(0%, 0%, 0%)" stroke-opacity="1" stroke-miterlimit="10" d="M 992 768 L 992 384 " transform="matrix(1, 0, 0, -1, 369, 769)"/>
<path fill="none" stroke-width="0.4" stroke-linecap="butt" stroke-linejoin="round" stroke="rgb(0%, 0%, 0%)" stroke-opacity="1" stroke-miterlimit="10" d="M 960 768 L 960 384 " transform="matrix(1, 0, 0, -1, 369, 769)"/>
<path fill="none" stroke-width="0.4" stroke-linecap="butt" stroke-linejoin="round" stroke="rgb(0%, 0%, 0%)" stroke-opacity="1" stroke-miterlimit="10" d="M 1032 768 L 1032 384 " transform="matrix(1, 0, 0, -1, 369, 769)"/>
<path fill="none" stroke-width="0.4" stroke-linecap="butt" stroke-linejoin="round" stroke="rgb(0%, 0%, 0%)" stroke-opacity="1" stroke-miterlimit="10" d="M 1016 768 L 1016 384 " transform="matrix(1, 0, 0, -1, 369, 769)"/>
<path fill="none" stroke-width="0.4" stroke-linecap="butt" stroke-linejoin="round" stroke="rgb(0%, 0%, 0%)" stroke-opacity="1" stroke-miterlimit="10" d="M 1000 768 L 1000 384 " transform="matrix(1, 0, 0, -1, 369, 769)"/>
<path fill="none" stroke-width="0.4" stroke-linecap="butt" stroke-linejoin="round" stroke="rgb(0%, 0%, 0%)" stroke-opacity="1" stroke-miterlimit="10" d="M 984 768 L 984 384 " transform="matrix(1, 0, 0, -1, 369, 769)"/>
<path fill="none" stroke-width="0.4" stroke-linecap="butt" stroke-linejoin="round" stroke="rgb(0%, 0%, 0%)" stroke-opacity="1" stroke-miterlimit="10" d="M 752.003906 703.996094 L 1263.992188 703.996094 " transform="matrix(1, 0, 0, -1, 369, 769)"/>
<path fill="none" stroke-width="0.4" stroke-linecap="butt" stroke-linejoin="round" stroke="rgb(0%, 0%, 0%)" stroke-opacity="1" stroke-miterlimit="10" d="M 751.996094 512 L 1263.988281 512 " transform="matrix(1, 0, 0, -1, 369, 769)"/>
<path fill="none" stroke-width="0.4" stroke-linecap="butt" stroke-linejoin="round" stroke="rgb(0%, 0%, 0%)" stroke-opacity="1" stroke-miterlimit="10" d="M 752.003906 639.996094 L 1263.992188 639.996094 " transform="matrix(1, 0, 0, -1, 369, 769)"/>
<path fill="none" stroke-width="0.4" stroke-linecap="butt" stroke-linejoin="round" stroke="rgb(0%, 0%, 0%)" stroke-opacity="1" stroke-miterlimit="10" d="M 752.003906 575.996094 L 1263.992188 575.996094 " transform="matrix(1, 0, 0, -1, 369, 769)"/>
<path fill="none" stroke-width="0.4" stroke-linecap="butt" stroke-linejoin="round" stroke="rgb(0%, 0%, 0%)" stroke-opacity="1" stroke-miterlimit="10" d="M 751.996094 480 L 1263.988281 480 " transform="matrix(1, 0, 0, -1, 369, 769)"/>
<path fill="none" stroke-width="0.4" stroke-linecap="butt" stroke-linejoin="round" stroke="rgb(0%, 0%, 0%)" stroke-opacity="1" stroke-miterlimit="10" d="M 752.003906 544 L 1263.992188 544 " transform="matrix(1, 0, 0, -1, 369, 769)"/>
<path fill="none" stroke-width="0.4" stroke-linecap="butt" stroke-linejoin="round" stroke="rgb(0%, 0%, 0%)" stroke-opacity="1" stroke-miterlimit="10" d="M 752.003906 671.996094 L 1263.992188 671.996094 " transform="matrix(1, 0, 0, -1, 369, 769)"/>
<path fill="none" stroke-width="0.4" stroke-linecap="butt" stroke-linejoin="round" stroke="rgb(0%, 0%, 0%)" stroke-opacity="1" stroke-miterlimit="10" d="M 752.003906 607.996094 L 1263.992188 607.996094 " transform="matrix(1, 0, 0, -1, 369, 769)"/>
<path fill="none" stroke-width="0.4" stroke-linecap="butt" stroke-linejoin="round" stroke="rgb(0%, 0%, 0%)" stroke-opacity="1" stroke-miterlimit="10" d="M 752.003906 623.996094 L 1263.992188 623.996094 " transform="matrix(1, 0, 0, -1, 369, 769)"/>
<path fill="none" stroke-width="0.4" stroke-linecap="butt" stroke-linejoin="round" stroke="rgb(0%, 0%, 0%)" stroke-opacity="1" stroke-miterlimit="10" d="M 752.003906 591.996094 L 1263.992188 591.996094 " transform="matrix(1, 0, 0, -1, 369, 769)"/>
<path fill="none" stroke-width="0.4" stroke-linecap="butt" stroke-linejoin="round" stroke="rgb(0%, 0%, 0%)" stroke-opacity="1" stroke-miterlimit="10" d="M 752.003906 560 L 1263.992188 560 " transform="matrix(1, 0, 0, -1, 369, 769)"/>
<path fill="none" stroke-width="0.4" stroke-linecap="butt" stroke-linejoin="round" stroke="rgb(0%, 0%, 0%)" stroke-opacity="1" stroke-miterlimit="10" d="M 751.996094 528 L 1263.988281 528 " transform="matrix(1, 0, 0, -1, 369, 769)"/>
<path fill="none" stroke-width="0.4" stroke-linecap="butt" stroke-linejoin="round" stroke="rgb(0%, 0%, 0%)" stroke-opacity="1" stroke-miterlimit="10" d="M 752.003906 599.996094 L 1263.992188 599.996094 " transform="matrix(1, 0, 0, -1, 369, 769)"/>
<path fill="none" stroke-width="0.4" stroke-linecap="butt" stroke-linejoin="round" stroke="rgb(0%, 0%, 0%)" stroke-opacity="1" stroke-miterlimit="10" d="M 752.003906 584 L 1263.992188 584 " transform="matrix(1, 0, 0, -1, 369, 769)"/>
<path fill="none" stroke-width="0.4" stroke-linecap="butt" stroke-linejoin="round" stroke="rgb(0%, 0%, 0%)" stroke-opacity="1" stroke-miterlimit="10" d="M 752.003906 568 L 1263.992188 568 " transform="matrix(1, 0, 0, -1, 369, 769)"/>
<path fill="none" stroke-width="0.4" stroke-linecap="butt" stroke-linejoin="round" stroke="rgb(0%, 0%, 0%)" stroke-opacity="1" stroke-miterlimit="10" d="M 752.003906 552 L 1263.992188 552 " transform="matrix(1, 0, 0, -1, 369, 769)"/>
<path fill="none" stroke-width="0.4" stroke-linecap="butt" stroke-linejoin="round" stroke="rgb(0%, 0%, 0%)" stroke-opacity="1" stroke-miterlimit="10" d="M 751.996094 448 L 1263.988281 448 " transform="matrix(1, 0, 0, -1, 369, 769)"/>
<path fill="none" stroke-width="1.2" stroke-linecap="butt" stroke-linejoin="round" stroke="rgb(0%, 0%, 100%)" stroke-opacity="1" stroke-miterlimit="10" d="M 848 616 L 848 736 " transform="matrix(1, 0, 0, -1, 369, 769)"/>
<path fill="none" stroke-width="1.2" stroke-linecap="butt" stroke-linejoin="round" stroke="rgb(0%, 0%, 100%)" stroke-opacity="1" stroke-miterlimit="10" d="M 784 416 L 848 496 " transform="matrix(1, 0, 0, -1, 369, 769)"/>
<path fill="none" stroke-width="1.2" stroke-linecap="butt" stroke-linejoin="round" stroke="rgb(0%, 0%, 100%)" stroke-opacity="1" stroke-miterlimit="10" d="M 1088 464 L 1120 416 " transform="matrix(1, 0, 0, -1, 369, 769)"/>
<path fill="none" stroke-width="1.2" stroke-linecap="butt" stroke-linejoin="round" stroke="rgb(0%, 0%, 100%)" stroke-opacity="1" stroke-miterlimit="10" d="M 1088 464 L 1120 496 " transform="matrix(1, 0, 0, -1, 369, 769)"/>
<path fill="none" stroke-width="1.2" stroke-linecap="butt" stroke-linejoin="round" stroke="rgb(0%, 0%, 100%)" stroke-opacity="1" stroke-miterlimit="10" d="M 1120 496 L 1232 496 " transform="matrix(1, 0, 0, -1, 369, 769)"/>
<path fill="none" stroke-width="1.2" stroke-linecap="butt" stroke-linejoin="round" stroke="rgb(0%, 0%, 100%)" stroke-opacity="1" stroke-miterlimit="10" d="M 1120 496 L 848 496 " transform="matrix(1, 0, 0, -1, 369, 769)"/>
<path fill-rule="evenodd" fill="rgb(0%, 0%, 100%)" fill-opacity="1" d="M 1436 305 C 1436 301 1430 301 1430 305 C 1430 309 1436 309 1436 305 Z M 1436 305 "/>
<path fill-rule="evenodd" fill="rgb(0%, 0%, 100%)" fill-opacity="1" d="M 1436 273 C 1436 269 1430 269 1430 273 C 1430 277 1436 277 1436 273 Z M 1436 273 "/>
<path fill-rule="evenodd" fill="rgb(0%, 0%, 100%)" fill-opacity="1" d="M 1360 189.003906 C 1360 185.003906 1354 185.003906 1354 189.003906 C 1354 193.003906 1360 193.003906 1360 189.003906 Z M 1360 189.003906 "/>
<path fill-rule="evenodd" fill="rgb(0%, 0%, 100%)" fill-opacity="1" d="M 1360 181.003906 C 1360 177.003906 1354 177.003906 1354 181.003906 C 1354 185.003906 1360 185.003906 1360 181.003906 Z M 1360 181.003906 "/>
<path fill="none" stroke-width="1.2" stroke-linecap="butt" stroke-linejoin="round" stroke="rgb(0%, 0%, 100%)" stroke-opacity="1" stroke-miterlimit="10" d="M 1064 464 L 1088 464 " transform="matrix(1, 0, 0, -1, 369, 769)"/>
<path fill="none" stroke-width="1.2" stroke-linecap="butt" stroke-linejoin="round" stroke="rgb(0%, 0%, 100%)" stroke-opacity="1" stroke-miterlimit="10" d="M 848 416 L 1064 464 " transform="matrix(1, 0, 0, -1, 369, 769)"/>
<path fill="none" stroke-width="1.2" stroke-linecap="butt" stroke-linejoin="round" stroke="rgb(0%, 0%, 100%)" stroke-opacity="1" stroke-miterlimit="10" d="M 1088 464 L 1064 496 " transform="matrix(1, 0, 0, -1, 369, 769)"/>
<path fill="none" stroke-width="1.2" stroke-linecap="butt" stroke-linejoin="round" stroke="rgb(0%, 0%, 100%)" stroke-opacity="1" stroke-miterlimit="10" d="M 1064 496 L 988 579.996094 " transform="matrix(1, 0, 0, -1, 369, 769)"/>
<path fill="none" stroke-width="1.2" stroke-linecap="butt" stroke-linejoin="round" stroke="rgb(0%, 0%, 100%)" stroke-opacity="1" stroke-miterlimit="10" d="M 848 496 L 988 587.996094 " transform="matrix(1, 0, 0, -1, 369, 769)"/>
<path fill="none" stroke-width="1.2" stroke-linecap="butt" stroke-linejoin="round" stroke="rgb(0%, 0%, 100%)" stroke-opacity="1" stroke-miterlimit="10" d="M 988 587.996094 L 1232 736 " transform="matrix(1, 0, 0, -1, 369, 769)"/>
<path fill="none" stroke-width="1.2" stroke-linecap="butt" stroke-linejoin="round" stroke="rgb(0%, 0%, 100%)" stroke-opacity="1" stroke-miterlimit="10" d="M 1231.996094 536 L 1120 496 " transform="matrix(1, 0, 0, -1, 369, 769)"/>
<path fill-rule="evenodd" fill="rgb(0%, 0%, 100%)" fill-opacity="1" d="M 1156 353 C 1156 349 1150 349 1150 353 C 1150 357 1156 357 1156 353 Z M 1156 353 "/>
<path fill-rule="evenodd" fill="rgb(0%, 0%, 100%)" fill-opacity="1" d="M 1220 273 C 1220 269 1214 269 1214 273 C 1214 277 1220 277 1220 273 Z M 1220 273 "/>
<path fill-rule="evenodd" fill="rgb(0%, 0%, 100%)" fill-opacity="1" d="M 1220 153 C 1220 149 1214 149 1214 153 C 1214 157 1220 157 1220 153 Z M 1220 153 "/>
<path fill-rule="evenodd" fill="rgb(0%, 0%, 100%)" fill-opacity="1" d="M 1220 33 C 1220 29 1214 29 1214 33 C 1214 37 1220 37 1220 33 Z M 1220 33 "/>
<path fill-rule="evenodd" fill="rgb(0%, 0%, 100%)" fill-opacity="1" d="M 1220 113 C 1220 109 1214 109 1214 113 C 1214 117 1220 117 1220 113 Z M 1220 113 "/>
<path fill-rule="evenodd" fill="rgb(0%, 0%, 100%)" fill-opacity="1" d="M 1220 81 C 1220 77 1214 77 1214 81 C 1214 85 1220 85 1220 81 Z M 1220 81 "/>
<path fill-rule="evenodd" fill="rgb(0%, 0%, 100%)" fill-opacity="1" d="M 1220 353 C 1220 349 1214 349 1214 353 C 1214 357 1220 357 1220 353 Z M 1220 353 "/>
<path fill-rule="evenodd" fill="rgb(0%, 0%, 100%)" fill-opacity="1" d="M 1460 305 C 1460 301 1454 301 1454 305 C 1454 309 1460 309 1460 305 Z M 1460 305 "/>
<path fill-rule="evenodd" fill="rgb(0%, 0%, 100%)" fill-opacity="1" d="M 1492 353 C 1492 349 1486 349 1486 353 C 1486 357 1492 357 1492 353 Z M 1492 353 "/>
<path fill-rule="evenodd" fill="rgb(0%, 0%, 100%)" fill-opacity="1" d="M 1492 273 C 1492 269 1486 269 1486 273 C 1486 277 1492 277 1492 273 Z M 1492 273 "/>
<path fill-rule="evenodd" fill="rgb(0%, 0%, 100%)" fill-opacity="1" d="M 1604 273 C 1604 269 1598 269 1598 273 C 1598 277 1604 277 1604 273 Z M 1604 273 "/>
<path fill-rule="evenodd" fill="rgb(0%, 0%, 100%)" fill-opacity="1" d="M 1603.996094 233 C 1603.996094 229 1597.996094 229 1597.996094 233 C 1597.996094 237 1603.996094 237 1603.996094 233 Z M 1603.996094 233 "/>
<path fill-rule="evenodd" fill="rgb(0%, 0%, 100%)" fill-opacity="1" d="M 1604 33 C 1604 29 1598 29 1598 33 C 1598 37 1604 37 1604 33 Z M 1604 33 "/>
</svg>
