<?xml version="1.0" encoding="UTF-8"?>
<svg xmlns="http://www.w3.org/2000/svg" xmlns:xlink="http://www.w3.org/1999/xlink" width="1297" height="400" viewBox="0 0 1297 400">
<path fill-rule="evenodd" fill="rgb(100%, 100%, 100%)" fill-opacity="1" stroke-width="0.4" stroke-linecap="butt" stroke-linejoin="round" stroke="rgb(0%, 0%, 0%)" stroke-opacity="1" stroke-miterlimit="10" d="M -336 768 L -336 369.125 L 62.875 369.125 L 62.875 768 Z M -336 768 " transform="matrix(1, 0, 0, -1, 337, 769)"/>
<path fill="none" stroke-width="0.4" stroke-linecap="butt" stroke-linejoin="round" stroke="rgb(0%, 0%, 0%)" stroke-opacity="1" stroke-miterlimit="10" d="M -269.519531 768 L -269.519531 369.125 " transform="matrix(1, 0, 0, -1, 337, 769)"/>
<path fill="none" stroke-width="0.4" stroke-linecap="butt" stroke-linejoin="round" stroke="rgb(0%, 0%, 0%)" stroke-opacity="1" stroke-miterlimit="10" d="M -3.601562 768 L -3.601562 369.125 " transform="matrix(1, 0, 0, -1, 337, 769)"/>
<path fill="none" stroke-width="0.4" stroke-linecap="butt" stroke-linejoin="round" stroke="rgb(0%, 0%, 0%)" stroke-opacity="1" stroke-miterlimit="10" d="M -203.042969 768 L -203.042969 369.125 " transform="matrix(1, 0, 0, -1, 337, 769)"/>
<path fill="none" stroke-width="0.4" stroke-linecap="butt" stroke-linejoin="round" stroke="rgb(0%, 0%, 0%)" stroke-opacity="1" stroke-miterlimit="10" d="M -70.082031 768 L -70.082031 369.125 " transform="matrix(1, 0, 0, -1, 337, 769)"/>
<path fill="none" stroke-width="0.4" stroke-linecap="butt" stroke-linejoin="round" stroke="rgb(0%, 0%, 0%)" stroke-opacity="1" stroke-miterlimit="10" d="M -336 768 L -336 369.125 " transform="matrix(1, 0, 0, -1, 337, 769)"/>
<path fill="none" stroke-width="0.4" stroke-linecap="butt" stroke-linejoin="round" stroke="rgb(0%, 0%, 0%)" stroke-opacity="1" stroke-miterlimit="10" d="M 62.875 768 L 62.875 369.125 " transform="matrix(1, 0, 0, -1, 337, 769)"/>
<path fill="none" stroke-width="0.4" stroke-linecap="butt" stroke-linejoin="round" stroke="rgb(0%, 0%, 0%)" stroke-opacity="1" stroke-miterlimit="10" d="M -136.5625 768 L -136.5625 369.125 " transform="matrix(1, 0, 0, -1, 337, 769)"/>
<path fill="none" stroke-width="0.4" stroke-linecap="butt" stroke-linejoin="round" stroke="rgb(0%, 0%, 0%)" stroke-opacity="1" stroke-miterlimit="10" d="M -236.28125 768 L -236.28125 369.125 " transform="matrix(1, 0, 0, -1, 337, 769)"/>
<path fill="none" stroke-width="0.4" stroke-linecap="butt" stroke-linejoin="round" stroke="rgb(0%, 0%, 0%)" stroke-opacity="1" stroke-miterlimit="10" d="M -169.800781 768 L -169.800781 369.125 " transform="matrix(1, 0, 0, -1, 337, 769)"/>
<path fill="none" stroke-width="0.4" stroke-linecap="butt" stroke-linejoin="round" stroke="rgb(0%, 0%, 0%)" stroke-opacity="1" stroke-miterlimit="10" d="M -36.84375 768 L -36.84375 369.125 " transform="matrix(1, 0, 0, -1, 337, 769)"/>
<path fill="none" stroke-width="0.4" stroke-linecap="butt" stroke-linejoin="round" stroke="rgb(0%, 0%, 0%)" stroke-opacity="1" stroke-miterlimit="10" d="M -103.324219 768 L -103.324219 369.125 " transform="matrix(1, 0, 0, -1, 337, 769)"/>
<path fill="none" stroke-width="0.4" stroke-linecap="butt" stroke-linejoin="round" stroke="rgb(0%, 0%, 0%)" stroke-opacity="1" stroke-miterlimit="10" d="M -86.703125 768 L -86.703125 369.125 " transform="matrix(1, 0, 0, -1, 337, 769)"/>
<path fill="none" stroke-width="0.4" stroke-linecap="butt" stroke-linejoin="round" stroke="rgb(0%, 0%, 0%)" stroke-opacity="1" stroke-miterlimit="10" d="M -119.941406 768 L -119.941406 369.125 " transform="matrix(1, 0, 0, -1, 337, 769)"/>
<path fill="none" stroke-width="0.4" stroke-linecap="butt" stroke-linejoin="round" stroke="rgb(0%, 0%, 0%)" stroke-opacity="1" stroke-miterlimit="10" d="M -153.183594 768 L -153.183594 369.125 " transform="matrix(1, 0, 0, -1, 337, 769)"/>
<path fill="none" stroke-width="0.4" stroke-linecap="butt" stroke-linejoin="round" stroke="rgb(0%, 0%, 0%)" stroke-opacity="1" stroke-miterlimit="10" d="M -186.421875 768 L -186.421875 369.125 " transform="matrix(1, 0, 0, -1, 337, 769)"/>
<path fill="none" stroke-width="0.4" stroke-linecap="butt" stroke-linejoin="round" stroke="rgb(0%, 0%, 0%)" stroke-opacity="1" stroke-miterlimit="10" d="M -111.632812 768 L -111.632812 369.125 " transform="matrix(1, 0, 0, -1, 337, 769)"/>
<path fill="none" stroke-width="0.4" stroke-linecap="butt" stroke-linejoin="round" stroke="rgb(0%, 0%, 0%)" stroke-opacity="1" stroke-miterlimit="10" d="M -128.253906 768 L -128.253906 369.125 " transform="matrix(1, 0, 0, -1, 337, 769)"/>
<path fill="none" stroke-width="0.4" stroke-linecap="butt" stroke-linejoin="round" stroke="rgb(0%, 0%, 0%)" stroke-opacity="1" stroke-miterlimit="10" d="M -144.871094 768 L -144.871094 369.125 " transform="matrix(1, 0, 0, -1, 337, 769)"/>
<path fill="none" stroke-width="0.4" stroke-linecap="butt" stroke-linejoin="round" stroke="rgb(0%, 0%, 0%)" stroke-opacity="1" stroke-miterlimit="10" d="M -161.492188 768 L -161.492188 369.125 " transform="matrix(1, 0, 0, -1, 337, 769)"/>
<path fill="none" stroke-width="0.4" stroke-linecap="butt" stroke-linejoin="round" stroke="rgb(0%, 0%, 0%)" stroke-opacity="1" stroke-miterlimit="10" d="M -335.992188 701.519531 L 62.878906 701.519531 " transform="matrix(1, 0, 0, -1, 337, 769)"/>
<path fill="none" stroke-width="0.4" stroke-linecap="butt" stroke-linejoin="round" stroke="rgb(0%, 0%, 0%)" stroke-opacity="1" stroke-miterlimit="10" d="M -336.003906 502.082031 L 62.871094 502.082031 " transform="matrix(1, 0, 0, -1, 337, 769)"/>
<path fill="none" stroke-width="0.4" stroke-linecap="butt" stroke-linejoin="round" stroke="rgb(0%, 0%, 0%)" stroke-opacity="1" stroke-miterlimit="10" d="M -335.992188 635.042969 L 62.878906 635.042969 " transform="matrix(1, 0, 0, -1, 337, 769)"/>
<path fill="none" stroke-width="0.4" stroke-linecap="butt" stroke-linejoin="round" stroke="rgb(0%, 0%, 0%)" stroke-opacity="1" stroke-miterlimit="10" d="M -335.992188 568.5625 L 62.878906 568.5625 " transform="matrix(1, 0, 0, -1, 337, 769)"/>
<path fill="none" stroke-width="0.4" stroke-linecap="butt" stroke-linejoin="round" stroke="rgb(0%, 0%, 0%)" stroke-opacity="1" stroke-miterlimit="10" d="M -336.003906 468.84375 L 62.871094 468.84375 " transform="matrix(1, 0, 0, -1, 337, 769)"/>
<path fill="none" stroke-width="0.4" stroke-linecap="butt" stroke-linejoin="round" stroke="rgb(0%, 0%, 0%)" stroke-opacity="1" stroke-miterlimit="10" d="M -335.992188 535.324219 L 62.878906 535.324219 " transform="matrix(1, 0, 0, -1, 337, 769)"/>
<path fill="none" stroke-width="0.4" stroke-linecap="butt" stroke-linejoin="round" stroke="rgb(0%, 0%, 0%)" stroke-opacity="1" stroke-miterlimit="10" d="M -335.992188 668.28125 L 62.878906 668.28125 " transform="matrix(1, 0, 0, -1, 337, 769)"/>
<path fill="none" stroke-width="0.4" stroke-linecap="butt" stroke-linejoin="round" stroke="rgb(0%, 0%, 0%)" stroke-opacity="1" stroke-miterlimit="10" d="M -335.992188 601.800781 L 62.878906 601.800781 " transform="matrix(1, 0, 0, -1, 337, 769)"/>
<path fill="none" stroke-width="0.4" stroke-linecap="butt" stroke-linejoin="round" stroke="rgb(0%, 0%, 0%)" stroke-opacity="1" stroke-miterlimit="10" d="M -335.992188 618.421875 L 62.878906 618.421875 " transform="matrix(1, 0, 0, -1, 337, 769)"/>
<path fill="none" stroke-width="0.4" stroke-linecap="butt" stroke-linejoin="round" stroke="rgb(0%, 0%, 0%)" stroke-opacity="1" stroke-miterlimit="10" d="M -335.992188 585.183594 L 62.878906 585.183594 " transform="matrix(1, 0, 0, -1, 337, 769)"/>
<path fill="none" stroke-width="0.4" stroke-linecap="butt" stroke-linejoin="round" stroke="rgb(0%, 0%, 0%)" stroke-opacity="1" stroke-miterlimit="10" d="M -335.992188 551.941406 L 62.878906 551.941406 " transform="matrix(1, 0, 0, -1, 337, 769)"/>
<path fill="none" stroke-width="0.4" stroke-linecap="butt" stroke-linejoin="round" stroke="rgb(0%, 0%, 0%)" stroke-opacity="1" stroke-miterlimit="10" d="M -336.003906 518.703125 L 62.871094 518.703125 " transform="matrix(1, 0, 0, -1, 337, 769)"/>
<path fill="none" stroke-width="0.4" stroke-linecap="butt" stroke-linejoin="round" stroke="rgb(0%, 0%, 0%)" stroke-opacity="1" stroke-miterlimit="10" d="M -335.992188 593.492188 L 62.878906 593.492188 " transform="matrix(1, 0, 0, -1, 337, 769)"/>
<path fill="none" stroke-width="0.4" stroke-linecap="butt" stroke-linejoin="round" stroke="rgb(0%, 0%, 0%)" stroke-opacity="1" stroke-miterlimit="10" d="M -335.992188 576.871094 L 62.878906 576.871094 " transform="matrix(1, 0, 0, -1, 337, 769)"/>
<path fill="none" stroke-width="0.4" stroke-linecap="butt" stroke-linejoin="round" stroke="rgb(0%, 0%, 0%)" stroke-opacity="1" stroke-miterlimit="10" d="M -335.992188 560.253906 L 62.878906 560.253906 " transform="matrix(1, 0, 0, -1, 337, 769)"/>
<path fill="none" stroke-width="0.4" stroke-linecap="butt" stroke-linejoin="round" stroke="rgb(0%, 0%, 0%)" stroke-opacity="1" stroke-miterlimit="10" d="M -335.992188 543.632812 L 62.878906 543.632812 " transform="matrix(1, 0, 0, -1, 337, 769)"/>
<path fill="none" stroke-width="1.2" stroke-linecap="butt" stroke-linejoin="round" stroke="rgb(0%, 0%, 100%)" stroke-opacity="1" stroke-miterlimit="10" d="M -329.066406 459.792969 L 5.917969 761.46875 " transform="matrix(1, 0, 0, -1, 337, 769)"/>
<path fill="none" stroke-width="0.4" stroke-linecap="butt" stroke-linejoin="round" stroke="rgb(0%, 0%, 0%)" stroke-opacity="1" stroke-miterlimit="10" d="M -336.003906 435.601562 L 62.871094 435.601562 " transform="matrix(1, 0, 0, -1, 337, 769)"/>
<path fill="none" stroke-width="1.2" stroke-linecap="butt" stroke-linejoin="round" stroke="rgb(0%, 0%, 100%)" stroke-opacity="1" stroke-miterlimit="10" d="M -283.804688 475.992188 L 53.054688 496.246094 " transform="matrix(1, 0, 0, -1, 337, 769)"/>
<path fill="none" stroke-width="1.2" stroke-linecap="butt" stroke-linejoin="round" stroke="rgb(0%, 0%, 100%)" stroke-opacity="1" stroke-miterlimit="10" d="M -157.488281 596.175781 L -14.472656 414.890625 " transform="matrix(1, 0, 0, -1, 337, 769)"/>
<path fill-rule="evenodd" fill="rgb(0%, 0%, 100%)" fill-opacity="1" d="M 56.195312 293.007812 C 56.195312 289.007812 50.195312 289.007812 50.195312 293.007812 C 50.195312 297.007812 56.195312 297.007812 56.195312 293.007812 Z M 56.195312 293.007812 "/>
<path fill-rule="evenodd" fill="rgb(0%, 0%, 100%)" fill-opacity="1" d="M 182.511719 172.824219 C 182.511719 168.824219 176.511719 168.824219 176.511719 172.824219 C 176.511719 176.824219 182.511719 176.824219 182.511719 172.824219 Z M 182.511719 172.824219 "/>
<path fill-rule="evenodd" fill="rgb(0%, 0%, 100%)" fill-opacity="1" d="M 325.527344 354.109375 C 325.527344 350.109375 319.527344 350.109375 319.527344 354.109375 C 319.527344 358.109375 325.527344 358.109375 325.527344 354.109375 Z M 325.527344 354.109375 "/>
<path fill-rule="evenodd" fill="rgb(0%, 0%, 100%)" fill-opacity="1" d="M 393.054688 272.753906 C 393.054688 268.753906 387.054688 268.753906 387.054688 272.753906 C 387.054688 276.753906 393.054688 276.753906 393.054688 272.753906 Z M 393.054688 272.753906 "/>
<path fill-rule="evenodd" fill="rgb(0%, 0%, 100%)" fill-opacity="1" d="M 345.917969 7.53125 C 345.917969 3.53125 339.917969 3.53125 339.917969 7.53125 C 339.917969 11.53125 345.917969 11.53125 345.917969 7.53125 Z M 345.917969 7.53125 "/>
<path fill-rule="evenodd" fill="rgb(0%, 0%, 100%)" fill-opacity="1" d="M 10.933594 309.207031 C 10.933594 305.207031 4.933594 305.207031 4.933594 309.207031 C 4.933594 313.207031 10.933594 313.207031 10.933594 309.207031 Z M 10.933594 309.207031 "/>
<path fill="none" stroke-width="1.2" stroke-linecap="butt" stroke-linejoin="round" stroke="rgb(0%, 0%, 100%)" stroke-opacity="1" stroke-miterlimit="10" d="M -253.078125 385.667969 L 57.792969 513.691406 " transform="matrix(1, 0, 0, -1, 337, 769)"/>
<path fill="none" stroke-width="1.2" stroke-linecap="butt" stroke-linejoin="round" stroke="rgb(0%, 0%, 100%)" stroke-opacity="1" stroke-miterlimit="10" d="M -319.378906 751.378906 L -319.378906 651.660156 " transform="matrix(1, 0, 0, -1, 337, 769)"/>
<path fill="none" stroke-width="1.2" stroke-linecap="butt" stroke-linejoin="round" stroke="rgb(0%, 0%, 100%)" stroke-opacity="1" stroke-miterlimit="10" d="M -286.140625 684.902344 L -286.296875 607.539062 " transform="matrix(1, 0, 0, -1, 337, 769)"/>
<path fill-rule="evenodd" fill="rgb(0%, 0%, 100%)" fill-opacity="1" d="M 20.621094 17.621094 C 20.621094 13.621094 14.621094 13.621094 14.621094 17.621094 C 14.621094 21.621094 20.621094 21.621094 20.621094 17.621094 Z M 20.621094 17.621094 "/>
<path fill-rule="evenodd" fill="rgb(0%, 0%, 100%)" fill-opacity="1" d="M 20.621094 117.339844 C 20.621094 113.339844 14.621094 113.339844 14.621094 117.339844 C 14.621094 121.339844 20.621094 121.339844 20.621094 117.339844 Z M 20.621094 117.339844 "/>
<path fill-rule="evenodd" fill="rgb(0%, 0%, 100%)" fill-opacity="1" d="M 53.859375 84.097656 C 53.859375 80.097656 47.859375 80.097656 47.859375 84.097656 C 47.859375 88.097656 53.859375 88.097656 53.859375 84.097656 Z M 53.859375 84.097656 "/>
<path fill-rule="evenodd" fill="rgb(0%, 0%, 100%)" fill-opacity="1" d="M 53.703125 161.460938 C 53.703125 157.460938 47.703125 157.460938 47.703125 161.460938 C 47.703125 165.460938 53.703125 165.460938 53.703125 161.460938 Z M 53.703125 161.460938 "/>
<path fill-rule="evenodd" fill="rgb(0%, 0%, 100%)" fill-opacity="1" d="M 397.792969 255.308594 C 397.792969 251.308594 391.792969 251.308594 391.792969 255.308594 C 391.792969 259.308594 397.792969 259.308594 397.792969 255.308594 Z M 397.792969 255.308594 "/>
<path fill-rule="evenodd" fill="rgb(0%, 0%, 100%)" fill-opacity="1" d="M 87.097656 383.257812 C 87.097656 379.257812 81.097656 379.257812 81.097656 383.257812 C 81.097656 387.257812 87.097656 387.257812 87.097656 383.257812 Z M 87.097656 383.257812 "/>
<path fill-rule="evenodd" fill="rgb(100%, 100%, 100%)" fill-opacity="1" stroke-width="0.4" stroke-linecap="butt" stroke-linejoin="round" stroke="rgb(0%, 0%, 0%)" stroke-opacity="1" stroke-miterlimit="10" d="M 112.734375 768 L 112.734375 369.125 L 511.609375 369.125 L 511.609375 768 Z M 112.734375 768 " transform="matrix(1, 0, 0, -1, 337, 769)"/>
<path fill="none" stroke-width="0.4" stroke-linecap="butt" stroke-linejoin="round" stroke="rgb(0%, 0%, 0%)" stroke-opacity="1" stroke-miterlimit="10" d="M 179.214844 768 L 179.214844 369.125 " transform="matrix(1, 0, 0, -1, 337, 769)"/>
<path fill="none" stroke-width="0.4" stroke-linecap="butt" stroke-linejoin="round" stroke="rgb(0%, 0%, 0%)" stroke-opacity="1" stroke-miterlimit="10" d="M 445.132812 768 L 445.132812 369.125 " transform="matrix(1, 0, 0, -1, 337, 769)"/>
<path fill="none" stroke-width="0.4" stroke-linecap="butt" stroke-linejoin="round" stroke="rgb(0%, 0%, 0%)" stroke-opacity="1" stroke-miterlimit="10" d="M 245.695312 768 L 245.695312 369.125 " transform="matrix(1, 0, 0, -1, 337, 769)"/>
<path fill="none" stroke-width="0.4" stroke-linecap="butt" stroke-linejoin="round" stroke="rgb(0%, 0%, 0%)" stroke-opacity="1" stroke-miterlimit="10" d="M 378.652344 768 L 378.652344 369.125 " transform="matrix(1, 0, 0, -1, 337, 769)"/>
<path fill="none" stroke-width="0.4" stroke-linecap="butt" stroke-linejoin="round" stroke="rgb(0%, 0%, 0%)" stroke-opacity="1" stroke-miterlimit="10" d="M 112.734375 768 L 112.734375 369.125 " transform="matrix(1, 0, 0, -1, 337, 769)"/>
<path fill="none" stroke-width="0.4" stroke-linecap="butt" stroke-linejoin="round" stroke="rgb(0%, 0%, 0%)" stroke-opacity="1" stroke-miterlimit="10" d="M 511.609375 768 L 511.609375 369.125 " transform="matrix(1, 0, 0, -1, 337, 769)"/>
<path fill="none" stroke-width="0.4" stroke-linecap="butt" stroke-linejoin="round" stroke="rgb(0%, 0%, 0%)" stroke-opacity="1" stroke-miterlimit="10" d="M 312.171875 768 L 312.171875 369.125 " transform="matrix(1, 0, 0, -1, 337, 769)"/>
<path fill="none" stroke-width="0.4" stroke-linecap="butt" stroke-linejoin="round" stroke="rgb(0%, 0%, 0%)" stroke-opacity="1" stroke-miterlimit="10" d="M 212.453125 768 L 212.453125 369.125 " transform="matrix(1, 0, 0, -1, 337, 769)"/>
<path fill="none" stroke-width="0.4" stroke-linecap="butt" stroke-linejoin="round" stroke="rgb(0%, 0%, 0%)" stroke-opacity="1" stroke-miterlimit="10" d="M 278.933594 768 L 278.933594 369.125 " transform="matrix(1, 0, 0, -1, 337, 769)"/>
<path fill="none" stroke-width="0.4" stroke-linecap="butt" stroke-linejoin="round" stroke="rgb(0%, 0%, 0%)" stroke-opacity="1" stroke-miterlimit="10" d="M 411.890625 768 L 411.890625 369.125 " transform="matrix(1, 0, 0, -1, 337, 769)"/>
<path fill="none" stroke-width="0.4" stroke-linecap="butt" stroke-linejoin="round" stroke="rgb(0%, 0%, 0%)" stroke-opacity="1" stroke-miterlimit="10" d="M 345.414062 768 L 345.414062 369.125 " transform="matrix(1, 0, 0, -1, 337, 769)"/>
<path fill="none" stroke-width="0.4" stroke-linecap="butt" stroke-linejoin="round" stroke="rgb(0%, 0%, 0%)" stroke-opacity="1" stroke-miterlimit="10" d="M 362.03125 768 L 362.03125 369.125 " transform="matrix(1, 0, 0, -1, 337, 769)"/>
<path fill="none" stroke-width="0.4" stroke-linecap="butt" stroke-linejoin="round" stroke="rgb(0%, 0%, 0%)" stroke-opacity="1" stroke-miterlimit="10" d="M 328.792969 768 L 328.792969 369.125 " transform="matrix(1, 0, 0, -1, 337, 769)"/>
<path fill="none" stroke-width="0.4" stroke-linecap="butt" stroke-linejoin="round" stroke="rgb(0%, 0%, 0%)" stroke-opacity="1" stroke-miterlimit="10" d="M 295.554688 768 L 295.554688 369.125 " transform="matrix(1, 0, 0, -1, 337, 769)"/>
<path fill="none" stroke-width="0.4" stroke-linecap="butt" stroke-linejoin="round" stroke="rgb(0%, 0%, 0%)" stroke-opacity="1" stroke-miterlimit="10" d="M 262.3125 768 L 262.3125 369.125 " transform="matrix(1, 0, 0, -1, 337, 769)"/>
<path fill="none" stroke-width="0.4" stroke-linecap="butt" stroke-linejoin="round" stroke="rgb(0%, 0%, 0%)" stroke-opacity="1" stroke-miterlimit="10" d="M 337.101562 768 L 337.101562 369.125 " transform="matrix(1, 0, 0, -1, 337, 769)"/>
<path fill="none" stroke-width="0.4" stroke-linecap="butt" stroke-linejoin="round" stroke="rgb(0%, 0%, 0%)" stroke-opacity="1" stroke-miterlimit="10" d="M 320.484375 768 L 320.484375 369.125 " transform="matrix(1, 0, 0, -1, 337, 769)"/>
<path fill="none" stroke-width="0.4" stroke-linecap="butt" stroke-linejoin="round" stroke="rgb(0%, 0%, 0%)" stroke-opacity="1" stroke-miterlimit="10" d="M 303.863281 768 L 303.863281 369.125 " transform="matrix(1, 0, 0, -1, 337, 769)"/>
<path fill="none" stroke-width="0.4" stroke-linecap="butt" stroke-linejoin="round" stroke="rgb(0%, 0%, 0%)" stroke-opacity="1" stroke-miterlimit="10" d="M 287.242188 768 L 287.242188 369.125 " transform="matrix(1, 0, 0, -1, 337, 769)"/>
<path fill="none" stroke-width="0.4" stroke-linecap="butt" stroke-linejoin="round" stroke="rgb(0%, 0%, 0%)" stroke-opacity="1" stroke-miterlimit="10" d="M 112.742188 701.519531 L 511.617188 701.519531 " transform="matrix(1, 0, 0, -1, 337, 769)"/>
<path fill="none" stroke-width="0.4" stroke-linecap="butt" stroke-linejoin="round" stroke="rgb(0%, 0%, 0%)" stroke-opacity="1" stroke-miterlimit="10" d="M 112.734375 502.082031 L 511.605469 502.082031 " transform="matrix(1, 0, 0, -1, 337, 769)"/>
<path fill="none" stroke-width="0.4" stroke-linecap="butt" stroke-linejoin="round" stroke="rgb(0%, 0%, 0%)" stroke-opacity="1" stroke-miterlimit="10" d="M 112.742188 635.042969 L 511.617188 635.042969 " transform="matrix(1, 0, 0, -1, 337, 769)"/>
<path fill="none" stroke-width="0.4" stroke-linecap="butt" stroke-linejoin="round" stroke="rgb(0%, 0%, 0%)" stroke-opacity="1" stroke-miterlimit="10" d="M 112.742188 568.5625 L 511.617188 568.5625 " transform="matrix(1, 0, 0, -1, 337, 769)"/>
<path fill="none" stroke-width="0.4" stroke-linecap="butt" stroke-linejoin="round" stroke="rgb(0%, 0%, 0%)" stroke-opacity="1" stroke-miterlimit="10" d="M 112.734375 468.84375 L 511.605469 468.84375 " transform="matrix(1, 0, 0, -1, 337, 769)"/>
<path fill="none" stroke-width="0.4" stroke-linecap="butt" stroke-linejoin="round" stroke="rgb(0%, 0%, 0%)" stroke-opacity="1" stroke-miterlimit="10" d="M 112.742188 535.324219 L 511.617188 535.324219 " transform="matrix(1, 0, 0, -1, 337, 769)"/>
<path fill="none" stroke-width="0.4" stroke-linecap="butt" stroke-linejoin="round" stroke="rgb(0%, 0%, 0%)" stroke-opacity="1" stroke-miterlimit="10" d="M 112.742188 668.28125 L 511.617188 668.28125 " transform="matrix(1, 0, 0, -1, 337, 769)"/>
<path fill="none" stroke-width="0.4" stroke-linecap="butt" stroke-linejoin="round" stroke="rgb(0%, 0%, 0%)" stroke-opacity="1" stroke-miterlimit="10" d="M 112.742188 601.800781 L 511.617188 601.800781 " transform="matrix(1, 0, 0, -1, 337, 769)"/>
<path fill="none" stroke-width="0.4" stroke-linecap="butt" stroke-linejoin="round" stroke="rgb(0%, 0%, 0%)" stroke-opacity="1" stroke-miterlimit="10" d="M 112.742188 618.421875 L 511.617188 618.421875 " transform="matrix(1, 0, 0, -1, 337, 769)"/>
<path fill="none" stroke-width="0.4" stroke-linecap="butt" stroke-linejoin="round" stroke="rgb(0%, 0%, 0%)" stroke-opacity="1" stroke-miterlimit="10" d="M 112.742188 585.183594 L 511.617188 585.183594 " transform="matrix(1, 0, 0, -1, 337, 769)"/>
<path fill="none" stroke-width="0.4" stroke-linecap="butt" stroke-linejoin="round" stroke="rgb(0%, 0%, 0%)" stroke-opacity="1" stroke-miterlimit="10" d="M 112.742188 551.941406 L 511.617188 551.941406 " transform="matrix(1, 0, 0, -1, 337, 769)"/>
<path fill="none" stroke-width="0.4" stroke-linecap="butt" stroke-linejoin="round" stroke="rgb(0%, 0%, 0%)" stroke-opacity="1" stroke-miterlimit="10" d="M 112.734375 518.703125 L 511.605469 518.703125 " transform="matrix(1, 0, 0, -1, 337, 769)"/>
<path fill="none" stroke-width="0.4" stroke-linecap="butt" stroke-linejoin="round" stroke="rgb(0%, 0%, 0%)" stroke-opacity="1" stroke-miterlimit="10" d="M 112.742188 593.492188 L 511.617188 593.492188 " transform="matrix(1, 0, 0, -1, 337, 769)"/>
<path fill="none" stroke-width="0.4" stroke-linecap="butt" stroke-linejoin="round" stroke="rgb(0%, 0%, 0%)" stroke-opacity="1" stroke-miterlimit="10" d="M 112.742188 576.871094 L 511.617188 576.871094 " transform="matrix(1, 0, 0, -1, 337, 769)"/>
<path fill="none" stroke-width="0.4" stroke-linecap="butt" stroke-linejoin="round" stroke="rgb(0%, 0%, 0%)" stroke-opacity="1" stroke-miterlimit="10" d="M 112.742188 560.253906 L 511.617188 560.253906 " transform="matrix(1, 0, 0, -1, 337, 769)"/>
<path fill="none" stroke-width="0.4" stroke-linecap="butt" stroke-linejoin="round" stroke="rgb(0%, 0%, 0%)" stroke-opacity="1" stroke-miterlimit="10" d="M 112.742188 543.632812 L 511.617188 543.632812 " transform="matrix(1, 0, 0, -1, 337, 769)"/>
<path fill="none" stroke-width="1.2" stroke-linecap="butt" stroke-linejoin="round" stroke="rgb(0%, 0%, 100%)" stroke-opacity="1" stroke-miterlimit="10" d="M 119.667969 459.792969 L 454.652344 761.46875 " transform="matrix(1, 0, 0, -1, 337, 769)"/>
<path fill="none" stroke-width="0.4" stroke-linecap="butt" stroke-linejoin="round" stroke="rgb(0%, 0%, 0%)" stroke-opacity="1" stroke-miterlimit="10" d="M 112.734375 435.601562 L 511.605469 435.601562 " transform="matrix(1, 0, 0, -1, 337, 769)"/>
<path fill="none" stroke-width="1.2" stroke-linecap="butt" stroke-linejoin="round" stroke="rgb(0%, 0%, 100%)" stroke-opacity="1" stroke-miterlimit="10" d="M 164.929688 475.992188 L 501.789062 496.246094 " transform="matrix(1, 0, 0, -1, 337, 769)"/>
<path fill="none" stroke-width="1.2" stroke-linecap="butt" stroke-linejoin="round" stroke="rgb(0%, 0%, 100%)" stroke-opacity="1" stroke-miterlimit="10" d="M 291.246094 596.175781 L 434.261719 414.890625 " transform="matrix(1, 0, 0, -1, 337, 769)"/>
<path fill-rule="evenodd" fill="rgb(0%, 0%, 100%)" fill-opacity="1" d="M 504.929688 293.007812 C 504.929688 289.007812 498.929688 289.007812 498.929688 293.007812 C 498.929688 297.007812 504.929688 297.007812 504.929688 293.007812 Z M 504.929688 293.007812 "/>
<path fill-rule="evenodd" fill="rgb(0%, 0%, 100%)" fill-opacity="1" d="M 631.246094 172.824219 C 631.246094 168.824219 625.246094 168.824219 625.246094 172.824219 C 625.246094 176.824219 631.246094 176.824219 631.246094 172.824219 Z M 631.246094 172.824219 "/>
<path fill-rule="evenodd" fill="rgb(0%, 0%, 100%)" fill-opacity="1" d="M 774.261719 354.109375 C 774.261719 350.109375 768.261719 350.109375 768.261719 354.109375 C 768.261719 358.109375 774.261719 358.109375 774.261719 354.109375 Z M 774.261719 354.109375 "/>
<path fill-rule="evenodd" fill="rgb(0%, 0%, 100%)" fill-opacity="1" d="M 841.789062 272.753906 C 841.789062 268.753906 835.789062 268.753906 835.789062 272.753906 C 835.789062 276.753906 841.789062 276.753906 841.789062 272.753906 Z M 841.789062 272.753906 "/>
<path fill-rule="evenodd" fill="rgb(0%, 0%, 100%)" fill-opacity="1" d="M 794.652344 7.53125 C 794.652344 3.53125 788.652344 3.53125 788.652344 7.53125 C 788.652344 11.53125 794.652344 11.53125 794.652344 7.53125 Z M 794.652344 7.53125 "/>
<path fill-rule="evenodd" fill="rgb(0%, 0%, 100%)" fill-opacity="1" d="M 459.667969 309.207031 C 459.667969 305.207031 453.667969 305.207031 453.667969 309.207031 C 453.667969 313.207031 459.667969 313.207031 459.667969 309.207031 Z M 459.667969 309.207031 "/>
<path fill="none" stroke-width="1.2" stroke-linecap="butt" stroke-linejoin="round" stroke="rgb(0%, 0%, 100%)" stroke-opacity="1" stroke-miterlimit="10" d="M 195.65625 385.667969 L 506.527344 513.691406 " transform="matrix(1, 0, 0, -1, 337, 769)"/>
<path fill="none" stroke-width="1.2" stroke-linecap="butt" stroke-linejoin="round" stroke="rgb(0%, 0%, 100%)" stroke-opacity="1" stroke-miterlimit="10" d="M 129.355469 751.378906 L 129.355469 651.660156 " transform="matrix(1, 0, 0, -1, 337, 769)"/>
<path fill="none" stroke-width="1.2" stroke-linecap="butt" stroke-linejoin="round" stroke="rgb(0%, 0%, 100%)" stroke-opacity="1" stroke-miterlimit="10" d="M 162.59375 684.902344 L 162.4375 607.539062 " transform="matrix(1, 0, 0, -1, 337, 769)"/>
<path fill-rule="evenodd" fill="rgb(0%, 0%, 100%)" fill-opacity="1" d="M 469.355469 17.621094 C 469.355469 13.621094 463.355469 13.621094 463.355469 17.621094 C 463.355469 21.621094 469.355469 21.621094 469.355469 17.621094 Z M 469.355469 17.621094 "/>
<path fill-rule="evenodd" fill="rgb(0%, 0%, 100%)" fill-opacity="1" d="M 469.355469 117.339844 C 469.355469 113.339844 463.355469 113.339844 463.355469 117.339844 C 463.355469 121.339844 469.355469 121.339844 469.355469 117.339844 Z M 469.355469 117.339844 "/>
<path fill-rule="evenodd" fill="rgb(0%, 0%, 100%)" fill-opacity="1" d="M 502.59375 84.097656 C 502.59375 80.097656 496.59375 80.097656 496.59375 84.097656 C 496.59375 88.097656 502.59375 88.097656 502.59375 84.097656 Z M 502.59375 84.097656 "/>
<path fill-rule="evenodd" fill="rgb(0%, 0%, 100%)" fill-opacity="1" d="M 502.4375 161.460938 C 502.4375 157.460938 496.4375 157.460938 496.4375 161.460938 C 496.4375 165.460938 502.4375 165.460938 502.4375 161.460938 Z M 502.4375 161.460938 "/>
<path fill-rule="evenodd" fill="rgb(0%, 0%, 100%)" fill-opacity="1" d="M 846.527344 255.308594 C 846.527344 251.308594 840.527344 251.308594 840.527344 255.308594 C 840.527344 259.308594 846.527344 259.308594 846.527344 255.308594 Z M 846.527344 255.308594 "/>
<path fill-rule="evenodd" fill="rgb(0%, 0%, 100%)" fill-opacity="1" d="M 535.835938 383.257812 C 535.835938 379.257812 529.835938 379.257812 529.835938 383.257812 C 529.835938 387.257812 535.835938 387.257812 535.835938 383.257812 Z M 535.835938 383.257812 "/>
<path fill="none" stroke-width="0.4" stroke-linecap="butt" stroke-linejoin="round" stroke="rgb(100%, 0%, 0%)" stroke-opacity="1" stroke-dasharray="4" stroke-miterlimit="10" d="M 164.933594 768 L 164.929688 369.125 " transform="matrix(1, 0, 0, -1, 337, 769)"/>
<path fill="none" stroke-width="0.4" stroke-linecap="butt" stroke-linejoin="round" stroke="rgb(100%, 0%, 0%)" stroke-opacity="1" stroke-dasharray="4" stroke-miterlimit="10" d="M 290.867188 768 L 290.867188 369.125 " transform="matrix(1, 0, 0, -1, 337, 769)"/>
<path fill="none" stroke-width="0.4" stroke-linecap="butt" stroke-linejoin="round" stroke="rgb(100%, 0%, 0%)" stroke-opacity="1" stroke-dasharray="4" stroke-miterlimit="10" d="M 375.90625 768 L 375.902344 369.125 " transform="matrix(1, 0, 0, -1, 337, 769)"/>
<path fill="none" stroke-width="0.4" stroke-linecap="butt" stroke-linejoin="round" stroke="rgb(100%, 0%, 0%)" stroke-opacity="1" stroke-dasharray="4" stroke-miterlimit="10" d="M 393.238281 768 L 393.234375 369.125 " transform="matrix(1, 0, 0, -1, 337, 769)"/>
<path fill="none" stroke-width="0.4" stroke-linecap="butt" stroke-linejoin="round" stroke="rgb(100%, 0%, 0%)" stroke-opacity="1" stroke-dasharray="4" stroke-miterlimit="10" d="M 458.007812 768 L 458.007812 369.125 " transform="matrix(1, 0, 0, -1, 337, 769)"/>
<path fill-rule="evenodd" fill="rgb(100%, 0%, 0%)" fill-opacity="1" d="M 504.929688 268.441406 C 504.929688 264.441406 498.929688 264.441406 498.929688 268.441406 C 498.929688 272.441406 504.929688 272.441406 504.929688 268.441406 Z M 504.929688 268.441406 "/>
<path fill-rule="evenodd" fill="rgb(100%, 0%, 0%)" fill-opacity="1" d="M 630.867188 155.027344 C 630.867188 151.027344 624.867188 151.027344 624.867188 155.027344 C 624.867188 159.027344 630.867188 159.027344 630.867188 155.027344 Z M 630.867188 155.027344 "/>
<path fill-rule="evenodd" fill="rgb(100%, 0%, 0%)" fill-opacity="1" d="M 716.046875 280.3125 C 716.046875 276.3125 710.046875 276.3125 710.046875 280.3125 C 710.046875 284.3125 716.046875 284.3125 716.046875 280.3125 Z M 716.046875 280.3125 "/>
<path fill-rule="evenodd" fill="rgb(100%, 0%, 0%)" fill-opacity="1" d="M 733.152344 302 C 733.152344 298 727.152344 298 727.152344 302 C 727.152344 306 733.152344 306 733.152344 302 Z M 733.152344 302 "/>
<path fill-rule="evenodd" fill="rgb(100%, 0%, 0%)" fill-opacity="1" d="M 797.734375 275.402344 C 797.734375 271.402344 791.734375 271.402344 791.734375 275.402344 C 791.734375 279.402344 797.734375 279.402344 797.734375 275.402344 Z M 797.734375 275.402344 "/>
<path fill-rule="evenodd" fill="rgb(100%, 0%, 0%)" fill-opacity="1" d="M 504.929688 268.441406 C 504.929688 264.441406 498.929688 264.441406 498.929688 268.441406 C 498.929688 272.441406 504.929688 272.441406 504.929688 268.441406 Z M 504.929688 268.441406 "/>
<path fill-rule="evenodd" fill="rgb(100%, 0%, 0%)" fill-opacity="1" d="M 716.046875 280.3125 C 716.046875 276.3125 710.046875 276.3125 710.046875 280.3125 C 710.046875 284.3125 716.046875 284.3125 716.046875 280.3125 Z M 716.046875 280.3125 "/>
<path fill-rule="evenodd" fill="rgb(100%, 0%, 0%)" fill-opacity="1" d="M 715.90625 309.101562 C 715.90625 305.101562 709.90625 305.101562 709.90625 309.101562 C 709.90625 313.101562 715.90625 313.101562 715.90625 309.101562 Z M 715.90625 309.101562 "/>
<path fill-rule="evenodd" fill="rgb(100%, 0%, 0%)" fill-opacity="1" d="M 715.90625 309.101562 C 715.90625 305.101562 709.90625 305.101562 709.90625 309.101562 C 709.90625 313.101562 715.90625 313.101562 715.90625 309.101562 Z M 715.90625 309.101562 "/>
<path fill-rule="evenodd" fill="rgb(100%, 0%, 0%)" fill-opacity="1" d="M 733.234375 279.28125 C 733.234375 275.28125 727.234375 275.28125 727.234375 279.28125 C 727.234375 283.28125 733.234375 283.28125 733.234375 279.28125 Z M 733.234375 279.28125 "/>
<path fill-rule="evenodd" fill="rgb(100%, 0%, 0%)" fill-opacity="1" d="M 733.234375 279.28125 C 733.234375 275.28125 727.234375 275.28125 727.234375 279.28125 C 727.234375 283.28125 733.234375 283.28125 733.234375 279.28125 Z M 733.234375 279.28125 "/>
<path fill-rule="evenodd" fill="rgb(100%, 100%, 100%)" fill-opacity="1" stroke-width="0.4" stroke-linecap="butt" stroke-linejoin="round" stroke="rgb(0%, 0%, 0%)" stroke-opacity="1" stroke-miterlimit="10" d="M 561.46875 768 L 561.46875 369.125 L 960.347656 369.125 L 960.347656 768 Z M 561.46875 768 " transform="matrix(1, 0, 0, -1, 337, 769)"/>
<path fill="none" stroke-width="0.4" stroke-linecap="butt" stroke-linejoin="round" stroke="rgb(0%, 0%, 0%)" stroke-opacity="1" stroke-miterlimit="10" d="M 627.949219 768 L 627.949219 369.125 " transform="matrix(1, 0, 0, -1, 337, 769)"/>
<path fill="none" stroke-width="0.4" stroke-linecap="butt" stroke-linejoin="round" stroke="rgb(0%, 0%, 0%)" stroke-opacity="1" stroke-miterlimit="10" d="M 893.867188 768 L 893.867188 369.125 " transform="matrix(1, 0, 0, -1, 337, 769)"/>
<path fill="none" stroke-width="0.4" stroke-linecap="butt" stroke-linejoin="round" stroke="rgb(0%, 0%, 0%)" stroke-opacity="1" stroke-miterlimit="10" d="M 694.429688 768 L 694.429688 369.125 " transform="matrix(1, 0, 0, -1, 337, 769)"/>
<path fill="none" stroke-width="0.4" stroke-linecap="butt" stroke-linejoin="round" stroke="rgb(0%, 0%, 0%)" stroke-opacity="1" stroke-miterlimit="10" d="M 827.386719 768 L 827.386719 369.125 " transform="matrix(1, 0, 0, -1, 337, 769)"/>
<path fill="none" stroke-width="0.4" stroke-linecap="butt" stroke-linejoin="round" stroke="rgb(0%, 0%, 0%)" stroke-opacity="1" stroke-miterlimit="10" d="M 561.46875 768 L 561.46875 369.125 " transform="matrix(1, 0, 0, -1, 337, 769)"/>
<path fill="none" stroke-width="0.4" stroke-linecap="butt" stroke-linejoin="round" stroke="rgb(0%, 0%, 0%)" stroke-opacity="1" stroke-miterlimit="10" d="M 760.910156 768 L 760.910156 369.125 " transform="matrix(1, 0, 0, -1, 337, 769)"/>
<path fill="none" stroke-width="0.4" stroke-linecap="butt" stroke-linejoin="round" stroke="rgb(0%, 0%, 0%)" stroke-opacity="1" stroke-miterlimit="10" d="M 661.191406 768 L 661.191406 369.125 " transform="matrix(1, 0, 0, -1, 337, 769)"/>
<path fill="none" stroke-width="0.4" stroke-linecap="butt" stroke-linejoin="round" stroke="rgb(0%, 0%, 0%)" stroke-opacity="1" stroke-miterlimit="10" d="M 727.667969 768 L 727.667969 369.125 " transform="matrix(1, 0, 0, -1, 337, 769)"/>
<path fill="none" stroke-width="0.4" stroke-linecap="butt" stroke-linejoin="round" stroke="rgb(0%, 0%, 0%)" stroke-opacity="1" stroke-miterlimit="10" d="M 860.628906 768 L 860.628906 369.125 " transform="matrix(1, 0, 0, -1, 337, 769)"/>
<path fill="none" stroke-width="0.4" stroke-linecap="butt" stroke-linejoin="round" stroke="rgb(0%, 0%, 0%)" stroke-opacity="1" stroke-miterlimit="10" d="M 794.148438 768 L 794.148438 369.125 " transform="matrix(1, 0, 0, -1, 337, 769)"/>
<path fill="none" stroke-width="0.4" stroke-linecap="butt" stroke-linejoin="round" stroke="rgb(0%, 0%, 0%)" stroke-opacity="1" stroke-miterlimit="10" d="M 810.769531 768 L 810.769531 369.125 " transform="matrix(1, 0, 0, -1, 337, 769)"/>
<path fill="none" stroke-width="0.4" stroke-linecap="butt" stroke-linejoin="round" stroke="rgb(0%, 0%, 0%)" stroke-opacity="1" stroke-miterlimit="10" d="M 777.527344 768 L 777.527344 369.125 " transform="matrix(1, 0, 0, -1, 337, 769)"/>
<path fill="none" stroke-width="0.4" stroke-linecap="butt" stroke-linejoin="round" stroke="rgb(0%, 0%, 0%)" stroke-opacity="1" stroke-miterlimit="10" d="M 744.289062 768 L 744.289062 369.125 " transform="matrix(1, 0, 0, -1, 337, 769)"/>
<path fill="none" stroke-width="0.4" stroke-linecap="butt" stroke-linejoin="round" stroke="rgb(0%, 0%, 0%)" stroke-opacity="1" stroke-miterlimit="10" d="M 711.050781 768 L 711.050781 369.125 " transform="matrix(1, 0, 0, -1, 337, 769)"/>
<path fill="none" stroke-width="0.4" stroke-linecap="butt" stroke-linejoin="round" stroke="rgb(0%, 0%, 0%)" stroke-opacity="1" stroke-miterlimit="10" d="M 785.839844 768 L 785.839844 369.125 " transform="matrix(1, 0, 0, -1, 337, 769)"/>
<path fill="none" stroke-width="0.4" stroke-linecap="butt" stroke-linejoin="round" stroke="rgb(0%, 0%, 0%)" stroke-opacity="1" stroke-miterlimit="10" d="M 769.21875 768 L 769.21875 369.125 " transform="matrix(1, 0, 0, -1, 337, 769)"/>
<path fill="none" stroke-width="0.4" stroke-linecap="butt" stroke-linejoin="round" stroke="rgb(0%, 0%, 0%)" stroke-opacity="1" stroke-miterlimit="10" d="M 752.597656 768 L 752.597656 369.125 " transform="matrix(1, 0, 0, -1, 337, 769)"/>
<path fill="none" stroke-width="0.4" stroke-linecap="butt" stroke-linejoin="round" stroke="rgb(0%, 0%, 0%)" stroke-opacity="1" stroke-miterlimit="10" d="M 735.980469 768 L 735.980469 369.125 " transform="matrix(1, 0, 0, -1, 337, 769)"/>
<path fill="none" stroke-width="0.4" stroke-linecap="butt" stroke-linejoin="round" stroke="rgb(0%, 0%, 0%)" stroke-opacity="1" stroke-miterlimit="10" d="M 561.480469 701.519531 L 960.351562 701.519531 " transform="matrix(1, 0, 0, -1, 337, 769)"/>
<path fill="none" stroke-width="0.4" stroke-linecap="butt" stroke-linejoin="round" stroke="rgb(0%, 0%, 0%)" stroke-opacity="1" stroke-miterlimit="10" d="M 561.460938 502.082031 L 960.335938 502.082031 " transform="matrix(1, 0, 0, -1, 337, 769)"/>
<path fill="none" stroke-width="0.4" stroke-linecap="butt" stroke-linejoin="round" stroke="rgb(0%, 0%, 0%)" stroke-opacity="1" stroke-miterlimit="10" d="M 561.480469 635.042969 L 960.351562 635.042969 " transform="matrix(1, 0, 0, -1, 337, 769)"/>
<path fill="none" stroke-width="0.4" stroke-linecap="butt" stroke-linejoin="round" stroke="rgb(0%, 0%, 0%)" stroke-opacity="1" stroke-miterlimit="10" d="M 561.480469 568.5625 L 960.351562 568.5625 " transform="matrix(1, 0, 0, -1, 337, 769)"/>
<path fill="none" stroke-width="0.4" stroke-linecap="butt" stroke-linejoin="round" stroke="rgb(0%, 0%, 0%)" stroke-opacity="1" stroke-miterlimit="10" d="M 561.460938 468.84375 L 960.335938 468.84375 " transform="matrix(1, 0, 0, -1, 337, 769)"/>
<path fill="none" stroke-width="0.4" stroke-linecap="butt" stroke-linejoin="round" stroke="rgb(0%, 0%, 0%)" stroke-opacity="1" stroke-miterlimit="10" d="M 561.480469 535.324219 L 960.351562 535.324219 " transform="matrix(1, 0, 0, -1, 337, 769)"/>
<path fill="none" stroke-width="0.4" stroke-linecap="butt" stroke-linejoin="round" stroke="rgb(0%, 0%, 0%)" stroke-opacity="1" stroke-miterlimit="10" d="M 561.480469 668.28125 L 960.351562 668.28125 " transform="matrix(1, 0, 0, -1, 337, 769)"/>
<path fill="none" stroke-width="0.4" stroke-linecap="butt" stroke-linejoin="round" stroke="rgb(0%, 0%, 0%)" stroke-opacity="1" stroke-miterlimit="10" d="M 561.480469 601.800781 L 960.351562 601.800781 " transform="matrix(1, 0, 0, -1, 337, 769)"/>
<path fill="none" stroke-width="0.4" stroke-linecap="butt" stroke-linejoin="round" stroke="rgb(0%, 0%, 0%)" stroke-opacity="1" stroke-miterlimit="10" d="M 561.480469 618.421875 L 960.351562 618.421875 " transform="matrix(1, 0, 0, -1, 337, 769)"/>
<path fill="none" stroke-width="0.4" stroke-linecap="butt" stroke-linejoin="round" stroke="rgb(0%, 0%, 0%)" stroke-opacity="1" stroke-miterlimit="10" d="M 561.480469 585.183594 L 960.351562 585.183594 " transform="matrix(1, 0, 0, -1, 337, 769)"/>
<path fill="none" stroke-width="0.4" stroke-linecap="butt" stroke-linejoin="round" stroke="rgb(0%, 0%, 0%)" stroke-opacity="1" stroke-miterlimit="10" d="M 561.480469 551.941406 L 960.351562 551.941406 " transform="matrix(1, 0, 0, -1, 337, 769)"/>
<path fill="none" stroke-width="0.4" stroke-linecap="butt" stroke-linejoin="round" stroke="rgb(0%, 0%, 0%)" stroke-opacity="1" stroke-miterlimit="10" d="M 561.460938 518.703125 L 960.335938 518.703125 " transform="matrix(1, 0, 0, -1, 337, 769)"/>
<path fill="none" stroke-width="0.4" stroke-linecap="butt" stroke-linejoin="round" stroke="rgb(0%, 0%, 0%)" stroke-opacity="1" stroke-miterlimit="10" d="M 561.480469 593.492188 L 960.351562 593.492188 " transform="matrix(1, 0, 0, -1, 337, 769)"/>
<path fill="none" stroke-width="0.4" stroke-linecap="butt" stroke-linejoin="round" stroke="rgb(0%, 0%, 0%)" stroke-opacity="1" stroke-miterlimit="10" d="M 561.480469 576.871094 L 960.351562 576.871094 " transform="matrix(1, 0, 0, -1, 337, 769)"/>
<path fill="none" stroke-width="0.4" stroke-linecap="butt" stroke-linejoin="round" stroke="rgb(0%, 0%, 0%)" stroke-opacity="1" stroke-miterlimit="10" d="M 561.480469 560.253906 L 960.351562 560.253906 " transform="matrix(1, 0, 0, -1, 337, 769)"/>
<path fill="none" stroke-width="0.4" stroke-linecap="butt" stroke-linejoin="round" stroke="rgb(0%, 0%, 0%)" stroke-opacity="1" stroke-miterlimit="10" d="M 561.480469 543.632812 L 960.351562 543.632812 " transform="matrix(1, 0, 0, -1, 337, 769)"/>
<path fill="none" stroke-width="0.4" stroke-linecap="butt" stroke-linejoin="round" stroke="rgb(0%, 0%, 0%)" stroke-opacity="1" stroke-miterlimit="10" d="M 561.460938 435.601562 L 960.335938 435.601562 " transform="matrix(1, 0, 0, -1, 337, 769)"/>
<path fill="none" stroke-width="1.2" stroke-linecap="butt" stroke-linejoin="round" stroke="rgb(0%, 0%, 100%)" stroke-opacity="1" stroke-miterlimit="10" d="M 594.710938 610.113281 L 594.710938 734.761719 " transform="matrix(1, 0, 0, -1, 337, 769)"/>
<path fill="none" stroke-width="1.2" stroke-linecap="butt" stroke-linejoin="round" stroke="rgb(0%, 0%, 100%)" stroke-opacity="1" stroke-miterlimit="10" d="M 594.710938 452.222656 L 594.710938 485.464844 " transform="matrix(1, 0, 0, -1, 337, 769)"/>
<path fill="none" stroke-width="1.2" stroke-linecap="butt" stroke-linejoin="round" stroke="rgb(0%, 0%, 100%)" stroke-opacity="1" stroke-miterlimit="10" d="M 844.007812 452.222656 L 877.246094 402.363281 " transform="matrix(1, 0, 0, -1, 337, 769)"/>
<path fill="none" stroke-width="1.2" stroke-linecap="butt" stroke-linejoin="round" stroke="rgb(0%, 0%, 100%)" stroke-opacity="1" stroke-miterlimit="10" d="M 844.007812 452.222656 L 927.105469 485.464844 " transform="matrix(1, 0, 0, -1, 337, 769)"/>
<path fill="none" stroke-width="1.2" stroke-linecap="butt" stroke-linejoin="round" stroke="rgb(0%, 0%, 100%)" stroke-opacity="1" stroke-miterlimit="10" d="M 877.246094 485.464844 L 927.105469 485.464844 " transform="matrix(1, 0, 0, -1, 337, 769)"/>
<path fill="none" stroke-width="1.2" stroke-linecap="butt" stroke-linejoin="round" stroke="rgb(0%, 0%, 100%)" stroke-opacity="1" stroke-miterlimit="10" d="M 877.246094 485.464844 L 594.710938 485.464844 " transform="matrix(1, 0, 0, -1, 337, 769)"/>
<path fill-rule="evenodd" fill="rgb(0%, 0%, 100%)" fill-opacity="1" d="M 1159.078125 316.777344 C 1159.078125 312.777344 1153.078125 312.777344 1153.078125 316.777344 C 1153.078125 320.777344 1159.078125 320.777344 1159.078125 316.777344 Z M 1159.078125 316.777344 "/>
<path fill-rule="evenodd" fill="rgb(0%, 0%, 100%)" fill-opacity="1" d="M 1159.078125 283.539062 C 1159.078125 279.539062 1153.078125 279.539062 1153.078125 283.539062 C 1153.078125 287.539062 1159.078125 287.539062 1159.078125 283.539062 Z M 1159.078125 283.539062 "/>
<path fill-rule="evenodd" fill="rgb(0%, 0%, 100%)" fill-opacity="1" d="M 1080.132812 171.355469 C 1080.132812 167.355469 1074.132812 167.355469 1074.132812 171.355469 C 1074.132812 175.355469 1080.132812 175.355469 1080.132812 171.355469 Z M 1080.132812 171.355469 "/>
<path fill="none" stroke-width="1.2" stroke-linecap="butt" stroke-linejoin="round" stroke="rgb(0%, 0%, 100%)" stroke-opacity="1" stroke-miterlimit="10" d="M 819.078125 452.222656 L 844.007812 452.222656 " transform="matrix(1, 0, 0, -1, 337, 769)"/>
<path fill="none" stroke-width="1.2" stroke-linecap="butt" stroke-linejoin="round" stroke="rgb(0%, 0%, 100%)" stroke-opacity="1" stroke-miterlimit="10" d="M 594.710938 402.363281 L 819.078125 452.222656 " transform="matrix(1, 0, 0, -1, 337, 769)"/>
<path fill="none" stroke-width="1.2" stroke-linecap="butt" stroke-linejoin="round" stroke="rgb(0%, 0%, 100%)" stroke-opacity="1" stroke-miterlimit="10" d="M 844.007812 452.222656 L 819.078125 485.460938 " transform="matrix(1, 0, 0, -1, 337, 769)"/>
<path fill="none" stroke-width="1.2" stroke-linecap="butt" stroke-linejoin="round" stroke="rgb(0%, 0%, 100%)" stroke-opacity="1" stroke-miterlimit="10" d="M 819.078125 485.460938 L 740.132812 597.644531 " transform="matrix(1, 0, 0, -1, 337, 769)"/>
<path fill="none" stroke-width="1.2" stroke-linecap="butt" stroke-linejoin="round" stroke="rgb(0%, 0%, 100%)" stroke-opacity="1" stroke-miterlimit="10" d="M 594.710938 485.464844 L 740.132812 610.113281 " transform="matrix(1, 0, 0, -1, 337, 769)"/>
<path fill="none" stroke-width="1.2" stroke-linecap="butt" stroke-linejoin="round" stroke="rgb(0%, 0%, 100%)" stroke-opacity="1" stroke-miterlimit="10" d="M 740.132812 610.113281 L 927.105469 734.761719 " transform="matrix(1, 0, 0, -1, 337, 769)"/>
<path fill-rule="evenodd" fill="rgb(0%, 0%, 100%)" fill-opacity="1" d="M 934.710938 283.535156 C 934.710938 279.535156 928.710938 279.535156 928.710938 283.535156 C 928.710938 287.535156 934.710938 287.535156 934.710938 283.535156 Z M 934.710938 283.535156 "/>
<path fill-rule="evenodd" fill="rgb(0%, 0%, 100%)" fill-opacity="1" d="M 934.710938 158.886719 C 934.710938 154.886719 928.710938 154.886719 928.710938 158.886719 C 928.710938 162.886719 934.710938 162.886719 934.710938 158.886719 Z M 934.710938 158.886719 "/>
<path fill-rule="evenodd" fill="rgb(0%, 0%, 100%)" fill-opacity="1" d="M 934.710938 34.238281 C 934.710938 30.238281 928.710938 30.238281 928.710938 34.238281 C 928.710938 38.238281 934.710938 38.238281 934.710938 34.238281 Z M 934.710938 34.238281 "/>
<path fill-rule="evenodd" fill="rgb(0%, 0%, 100%)" fill-opacity="1" d="M 934.710938 117.339844 C 934.710938 113.339844 928.710938 113.339844 928.710938 117.339844 C 928.710938 121.339844 934.710938 121.339844 934.710938 117.339844 Z M 934.710938 117.339844 "/>
<path fill-rule="evenodd" fill="rgb(0%, 0%, 100%)" fill-opacity="1" d="M 934.710938 84.097656 C 934.710938 80.097656 928.710938 80.097656 928.710938 84.097656 C 928.710938 88.097656 934.710938 88.097656 934.710938 84.097656 Z M 934.710938 84.097656 "/>
<path fill-rule="evenodd" fill="rgb(0%, 0%, 100%)" fill-opacity="1" d="M 934.710938 366.636719 C 934.710938 362.636719 928.710938 362.636719 928.710938 366.636719 C 928.710938 370.636719 934.710938 370.636719 934.710938 366.636719 Z M 934.710938 366.636719 "/>
<path fill-rule="evenodd" fill="rgb(0%, 0%, 100%)" fill-opacity="1" d="M 1184.007812 316.777344 C 1184.007812 312.777344 1178.007812 312.777344 1178.007812 316.777344 C 1178.007812 320.777344 1184.007812 320.777344 1184.007812 316.777344 Z M 1184.007812 316.777344 "/>
<path fill-rule="evenodd" fill="rgb(0%, 0%, 100%)" fill-opacity="1" d="M 1217.246094 366.636719 C 1217.246094 362.636719 1211.246094 362.636719 1211.246094 366.636719 C 1211.246094 370.636719 1217.246094 370.636719 1217.246094 366.636719 Z M 1217.246094 366.636719 "/>
<path fill-rule="evenodd" fill="rgb(0%, 0%, 100%)" fill-opacity="1" d="M 1184.007812 283.535156 C 1184.007812 279.535156 1178.007812 279.535156 1178.007812 283.535156 C 1178.007812 287.535156 1184.007812 287.535156 1184.007812 283.535156 Z M 1184.007812 283.535156 "/>
<path fill-rule="evenodd" fill="rgb(0%, 0%, 100%)" fill-opacity="1" d="M 1080.132812 158.886719 C 1080.132812 154.886719 1074.132812 154.886719 1074.132812 158.886719 C 1074.132812 162.886719 1080.132812 162.886719 1080.132812 158.886719 Z M 1080.132812 158.886719 "/>
<path fill-rule="evenodd" fill="rgb(0%, 0%, 100%)" fill-opacity="1" d="M 1267.105469 34.238281 C 1267.105469 30.238281 1261.105469 30.238281 1261.105469 34.238281 C 1261.105469 38.238281 1267.105469 38.238281 1267.105469 34.238281 Z M 1267.105469 34.238281 "/>
<path fill="none" stroke-width="1.2" stroke-linecap="butt" stroke-linejoin="round" stroke="rgb(0%, 0%, 100%)" stroke-opacity="1" stroke-miterlimit="10" d="M 927.105469 510.394531 L 927.105469 485.464844 " transform="matrix(1, 0, 0, -1, 337, 769)"/>
<path fill-rule="evenodd" fill="rgb(0%, 0%, 100%)" fill-opacity="1" d="M 1267.105469 258.605469 C 1267.105469 254.605469 1261.105469 254.605469 1261.105469 258.605469 C 1261.105469 262.605469 1267.105469 262.605469 1267.105469 258.605469 Z M 1267.105469 258.605469 "/>
<path fill-rule="evenodd" fill="rgb(0%, 0%, 100%)" fill-opacity="1" d="M 1267.105469 283.535156 C 1267.105469 279.535156 1261.105469 279.535156 1261.105469 283.535156 C 1261.105469 287.535156 1267.105469 287.535156 1267.105469 283.535156 Z M 1267.105469 283.535156 "/>
<path fill-rule="evenodd" fill="rgb(0%, 0%, 100%)" fill-opacity="1" d="M 934.710938 316.777344 C 934.710938 312.777344 928.710938 312.777344 928.710938 316.777344 C 928.710938 320.777344 934.710938 320.777344 934.710938 316.777344 Z M 934.710938 316.777344 "/>
</svg>
