<?xml version="1.0" encoding="UTF-8"?>
<svg xmlns="http://www.w3.org/2000/svg" xmlns:xlink="http://www.w3.org/1999/xlink" width="1120" height="432" viewBox="0 0 1120 432">
<defs>
<g>
<g id="glyph-0-0">
<path d="M 7.578125 6.046875 C 7.578125 6.015625 7.578125 5.96875 7.515625 5.890625 C 6.375 4.734375 3.328125 1.5625 3.328125 -6.171875 C 3.328125 -13.90625 6.3125 -17.046875 7.53125 -18.28125 C 7.53125 -18.3125 7.578125 -18.359375 7.578125 -18.4375 C 7.578125 -18.515625 7.515625 -18.5625 7.40625 -18.5625 C 7.140625 -18.5625 5.03125 -16.734375 3.8125 -14 C 2.578125 -11.25 2.234375 -8.578125 2.234375 -6.1875 C 2.234375 -4.40625 2.40625 -1.390625 3.890625 1.8125 C 5.078125 4.390625 7.109375 6.1875 7.40625 6.1875 C 7.53125 6.1875 7.578125 6.140625 7.578125 6.046875 Z M 7.578125 6.046875 "/>
</g>
<g id="glyph-0-1">
<path d="M 8.921875 -6.421875 C 8.921875 -8.046875 8.921875 -8.921875 7.875 -9.890625 C 6.96875 -10.703125 5.890625 -10.953125 5.0625 -10.953125 C 3.09375 -10.953125 1.6875 -9.421875 1.6875 -7.78125 C 1.6875 -6.859375 2.421875 -6.8125 2.578125 -6.8125 C 2.90625 -6.8125 3.46875 -7.015625 3.46875 -7.703125 C 3.46875 -8.328125 3 -8.59375 2.578125 -8.59375 C 2.484375 -8.59375 2.359375 -8.578125 2.28125 -8.546875 C 2.796875 -10.109375 4.140625 -10.5625 5 -10.5625 C 6.25 -10.5625 7.609375 -9.46875 7.609375 -7.390625 L 7.609375 -6.296875 C 6.140625 -6.25 4.390625 -6.046875 3 -5.296875 C 1.4375 -4.4375 0.984375 -3.203125 0.984375 -2.25 C 0.984375 -0.34375 3.21875 0.203125 4.53125 0.203125 C 5.890625 0.203125 7.15625 -0.5625 7.703125 -1.984375 C 7.75 -0.890625 8.453125 0.09375 9.546875 0.09375 C 10.0625 0.09375 11.375 -0.25 11.375 -2.203125 L 11.375 -3.59375 L 10.921875 -3.59375 L 10.921875 -2.1875 C 10.921875 -0.671875 10.265625 -0.46875 9.9375 -0.46875 C 8.921875 -0.46875 8.921875 -1.765625 8.921875 -2.84375 Z M 7.609375 -3.4375 C 7.609375 -1.28125 6.078125 -0.203125 4.703125 -0.203125 C 3.46875 -0.203125 2.5 -1.109375 2.5 -2.25 C 2.5 -3 2.828125 -4.3125 4.265625 -5.109375 C 5.453125 -5.78125 6.8125 -5.875 7.609375 -5.921875 Z M 7.609375 -3.4375 "/>
</g>
<g id="glyph-0-2">
<path d="M 6.515625 -6.171875 C 6.515625 -7.953125 6.34375 -10.984375 4.859375 -14.171875 C 3.671875 -16.75 1.640625 -18.5625 1.34375 -18.5625 C 1.265625 -18.5625 1.171875 -18.53125 1.171875 -18.40625 C 1.171875 -18.359375 1.1875 -18.34375 1.21875 -18.28125 C 2.40625 -17.046875 5.421875 -13.90625 5.421875 -6.1875 C 5.421875 1.53125 2.421875 4.6875 1.21875 5.921875 C 1.1875 5.96875 1.171875 6 1.171875 6.046875 C 1.171875 6.171875 1.265625 6.1875 1.34375 6.1875 C 1.609375 6.1875 3.71875 4.359375 4.9375 1.640625 C 6.171875 -1.109375 6.515625 -3.796875 6.515625 -6.171875 Z M 6.515625 -6.171875 "/>
</g>
<g id="glyph-0-3">
<path d="M 3.71875 -17.203125 L 0.765625 -16.921875 L 0.765625 -16.28125 C 2.234375 -16.28125 2.453125 -16.125 2.453125 -14.9375 L 2.453125 0 L 2.90625 0 L 3.625 -1.765625 C 4.34375 -0.59375 5.40625 0.203125 6.84375 0.203125 C 9.3125 0.203125 11.828125 -1.984375 11.828125 -5.359375 C 11.828125 -8.53125 9.59375 -10.859375 7.09375 -10.859375 C 5.546875 -10.859375 4.453125 -10.03125 3.71875 -9.0625 Z M 3.765625 -7.8125 C 3.765625 -8.25 3.765625 -8.328125 4.109375 -8.84375 C 5.078125 -10.328125 6.46875 -10.453125 6.9375 -10.453125 C 7.6875 -10.453125 10.234375 -10.0625 10.234375 -5.375 C 10.234375 -0.46875 7.3125 -0.203125 6.71875 -0.203125 C 5.953125 -0.203125 4.828125 -0.5 4.046875 -1.9375 C 3.765625 -2.40625 3.765625 -2.453125 3.765625 -2.90625 Z M 3.765625 -7.8125 "/>
</g>
</g>
</defs>
<path fill-rule="evenodd" fill="rgb(100%, 100%, 100%)" fill-opacity="1" d="M 603.847656 1 L 603.847656 431.605469 L 1120.578125 431.605469 L 1120.578125 1 Z M 603.847656 1 "/>
<path fill-rule="evenodd" fill="rgb(100%, 100%, 100%)" fill-opacity="1" d="M 1 1 L 1 431.605469 L 517.726562 431.605469 L 517.726562 1 Z M 1 1 "/>
<path fill-rule="evenodd" fill="rgb(100%, 0%, 0%)" fill-opacity="0.3" d="M 431.605469 1 L 431.605469 87.121094 L 517.726562 87.121094 L 517.726562 1 Z M 431.605469 1 "/>
<path fill-rule="evenodd" fill="rgb(100%, 0%, 0%)" fill-opacity="0.3" d="M 345.484375 173.242188 L 345.484375 259.363281 L 431.605469 259.363281 L 431.605469 173.242188 Z M 345.484375 173.242188 "/>
<path fill-rule="evenodd" fill="rgb(100%, 0%, 0%)" fill-opacity="0.3" d="M 173.242188 259.363281 L 173.242188 345.484375 L 259.363281 345.484375 L 259.363281 259.363281 Z M 173.242188 259.363281 "/>
<path fill-rule="evenodd" fill="rgb(100%, 0%, 0%)" fill-opacity="0.3" d="M 1 345.484375 L 1 431.605469 L 87.121094 431.605469 L 87.121094 345.484375 Z M 1 345.484375 "/>
<path fill-rule="evenodd" fill="rgb(100%, 0%, 0%)" fill-opacity="0.3" d="M 173.242188 173.242188 L 173.242188 259.363281 L 259.363281 259.363281 L 259.363281 173.242188 Z M 173.242188 173.242188 "/>
<path fill-rule="evenodd" fill="rgb(100%, 0%, 0%)" fill-opacity="0.3" d="M 87.121094 1 L 87.121094 87.121094 L 173.242188 87.121094 L 173.242188 1 Z M 87.121094 1 "/>
<path fill="none" stroke-width="0.4" stroke-linecap="butt" stroke-linejoin="round" stroke="rgb(0%, 0%, 0%)" stroke-opacity="1" stroke-miterlimit="10" d="M -304 768 L -304 337.394531 L 212.726562 337.394531 L 212.726562 768 Z M -304 768 " transform="matrix(1, 0, 0, -1, 305, 769)"/>
<path fill="none" stroke-width="0.4" stroke-linecap="butt" stroke-linejoin="round" stroke="rgb(0%, 0%, 0%)" stroke-opacity="1" stroke-miterlimit="10" d="M -217.878906 768 L -217.878906 337.394531 " transform="matrix(1, 0, 0, -1, 305, 769)"/>
<path fill="none" stroke-width="0.4" stroke-linecap="butt" stroke-linejoin="round" stroke="rgb(0%, 0%, 0%)" stroke-opacity="1" stroke-miterlimit="10" d="M -131.757812 768 L -131.757812 337.394531 " transform="matrix(1, 0, 0, -1, 305, 769)"/>
<path fill="none" stroke-width="0.4" stroke-linecap="butt" stroke-linejoin="round" stroke="rgb(0%, 0%, 0%)" stroke-opacity="1" stroke-miterlimit="10" d="M -45.636719 768 L -45.636719 337.394531 " transform="matrix(1, 0, 0, -1, 305, 769)"/>
<path fill="none" stroke-width="0.4" stroke-linecap="butt" stroke-linejoin="round" stroke="rgb(0%, 0%, 0%)" stroke-opacity="1" stroke-miterlimit="10" d="M 40.484375 768 L 40.484375 337.394531 " transform="matrix(1, 0, 0, -1, 305, 769)"/>
<path fill="none" stroke-width="0.4" stroke-linecap="butt" stroke-linejoin="round" stroke="rgb(0%, 0%, 0%)" stroke-opacity="1" stroke-miterlimit="10" d="M 126.605469 768 L 126.605469 337.394531 " transform="matrix(1, 0, 0, -1, 305, 769)"/>
<path fill="none" stroke-width="0.4" stroke-linecap="butt" stroke-linejoin="round" stroke="rgb(0%, 0%, 0%)" stroke-opacity="1" stroke-miterlimit="10" d="M -304 681.878906 L 212.726562 681.878906 " transform="matrix(1, 0, 0, -1, 305, 769)"/>
<path fill="none" stroke-width="0.4" stroke-linecap="butt" stroke-linejoin="round" stroke="rgb(0%, 0%, 0%)" stroke-opacity="1" stroke-miterlimit="10" d="M -304 595.757812 L 212.726562 595.757812 " transform="matrix(1, 0, 0, -1, 305, 769)"/>
<path fill="none" stroke-width="0.4" stroke-linecap="butt" stroke-linejoin="round" stroke="rgb(0%, 0%, 0%)" stroke-opacity="1" stroke-miterlimit="10" d="M -304 509.636719 L 212.726562 509.636719 " transform="matrix(1, 0, 0, -1, 305, 769)"/>
<path fill="none" stroke-width="0.4" stroke-linecap="butt" stroke-linejoin="round" stroke="rgb(0%, 0%, 0%)" stroke-opacity="1" stroke-miterlimit="10" d="M -304 423.515625 L 212.726562 423.515625 " transform="matrix(1, 0, 0, -1, 305, 769)"/>
<path fill="none" stroke-width="0.8" stroke-linecap="butt" stroke-linejoin="round" stroke="rgb(0%, 0%, 100%)" stroke-opacity="1" stroke-miterlimit="10" d="M -206.363281 699.289062 L -31.316406 437.121094 " transform="matrix(1, 0, 0, -1, 305, 769)"/>
<path fill-rule="evenodd" fill="rgb(0%, 0%, 100%)" fill-opacity="1" d="M 100.4375 69.710938 C 100.4375 67.3125 96.835938 67.3125 96.835938 69.710938 C 96.835938 72.109375 100.4375 72.109375 100.4375 69.710938 Z M 100.4375 69.710938 "/>
<path fill-rule="evenodd" fill="rgb(0%, 0%, 100%)" fill-opacity="1" d="M 275.484375 331.878906 C 275.484375 329.476562 271.882812 329.476562 271.882812 331.878906 C 271.882812 334.277344 275.484375 334.277344 275.484375 331.878906 Z M 275.484375 331.878906 "/>
<path fill="none" stroke-width="0.8" stroke-linecap="butt" stroke-linejoin="round" stroke="rgb(0%, 39.2%, 0%)" stroke-opacity="1" stroke-miterlimit="10" d="M -262.542969 411.882812 L 67.199219 534.824219 " transform="matrix(1, 0, 0, -1, 305, 769)"/>
<path fill-rule="evenodd" fill="rgb(0%, 39.2%, 0%)" fill-opacity="1" d="M 44.257812 357.117188 C 44.257812 354.714844 40.65625 354.714844 40.65625 357.117188 C 40.65625 359.515625 44.257812 359.515625 44.257812 357.117188 Z M 44.257812 357.117188 "/>
<path fill-rule="evenodd" fill="rgb(0%, 39.2%, 0%)" fill-opacity="1" d="M 374 234.175781 C 374 231.777344 370.402344 231.777344 370.402344 234.175781 C 370.402344 236.574219 374 236.574219 374 234.175781 Z M 374 234.175781 "/>
<path fill="none" stroke-width="0.8" stroke-linecap="butt" stroke-linejoin="round" stroke="rgb(54.5%, 0%, 0%)" stroke-opacity="1" stroke-miterlimit="10" d="M -79.351562 571.460938 L 194.210938 703.359375 " transform="matrix(1, 0, 0, -1, 305, 769)"/>
<path fill-rule="evenodd" fill="rgb(54.5%, 0%, 0%)" fill-opacity="1" d="M 227.445312 197.539062 C 227.445312 195.136719 223.847656 195.136719 223.847656 197.539062 C 223.847656 199.9375 227.445312 199.9375 227.445312 197.539062 Z M 227.445312 197.539062 "/>
<path fill-rule="evenodd" fill="rgb(54.5%, 0%, 0%)" fill-opacity="1" d="M 501.011719 65.640625 C 501.011719 63.238281 497.410156 63.238281 497.410156 65.640625 C 497.410156 68.039062 501.011719 68.039062 501.011719 65.640625 Z M 501.011719 65.640625 "/>
<path fill-rule="evenodd" fill="rgb(100%, 0%, 0%)" fill-opacity="0.3" d="M 259.363281 259.363281 L 259.363281 345.484375 L 345.484375 345.484375 L 345.484375 259.363281 Z M 259.363281 259.363281 "/>
<g fill="rgb(0%, 0%, 0%)" fill-opacity="1">
<use xlink:href="#glyph-0-0" x="455.206089" y="224.640266"/>
<use xlink:href="#glyph-0-1" x="463.980722" y="224.640266"/>
<use xlink:href="#glyph-0-2" x="475.333214" y="224.640266"/>
</g>
<path fill="none" stroke-width="0.4" stroke-linecap="butt" stroke-linejoin="round" stroke="rgb(0%, 0%, 0%)" stroke-opacity="1" stroke-miterlimit="10" d="M 298.847656 509.636719 L 815.574219 509.636719 " transform="matrix(1, 0, 0, -1, 305, 769)"/>
<path fill="none" stroke-width="0.8" stroke-linecap="butt" stroke-linejoin="round" stroke="rgb(0%, 0%, 100%)" stroke-opacity="1" stroke-miterlimit="10" d="M 514.152344 552.695312 L 514.152344 466.574219 " transform="matrix(1, 0, 0, -1, 305, 769)"/>
<path fill="none" stroke-width="0.4" stroke-linecap="butt" stroke-linejoin="round" stroke="rgb(0%, 0%, 0%)" stroke-opacity="1" stroke-miterlimit="10" d="M 298.847656 768 L 298.847656 337.394531 L 815.574219 337.394531 L 815.574219 768 Z M 298.847656 768 " transform="matrix(1, 0, 0, -1, 305, 769)"/>
<path fill="none" stroke-width="0.4" stroke-linecap="butt" stroke-linejoin="round" stroke="rgb(0%, 0%, 0%)" stroke-opacity="1" stroke-miterlimit="10" d="M 384.96875 768 L 384.96875 337.394531 " transform="matrix(1, 0, 0, -1, 305, 769)"/>
<path fill="none" stroke-width="0.4" stroke-linecap="butt" stroke-linejoin="round" stroke="rgb(0%, 0%, 0%)" stroke-opacity="1" stroke-miterlimit="10" d="M 471.089844 768 L 471.089844 337.394531 " transform="matrix(1, 0, 0, -1, 305, 769)"/>
<path fill="none" stroke-width="0.4" stroke-linecap="butt" stroke-linejoin="round" stroke="rgb(0%, 0%, 0%)" stroke-opacity="1" stroke-miterlimit="10" d="M 557.210938 768 L 557.210938 337.394531 " transform="matrix(1, 0, 0, -1, 305, 769)"/>
<path fill="none" stroke-width="0.4" stroke-linecap="butt" stroke-linejoin="round" stroke="rgb(0%, 0%, 0%)" stroke-opacity="1" stroke-miterlimit="10" d="M 643.332031 768 L 643.332031 337.394531 " transform="matrix(1, 0, 0, -1, 305, 769)"/>
<path fill="none" stroke-width="0.4" stroke-linecap="butt" stroke-linejoin="round" stroke="rgb(0%, 0%, 0%)" stroke-opacity="1" stroke-miterlimit="10" d="M 729.453125 768 L 729.453125 337.394531 " transform="matrix(1, 0, 0, -1, 305, 769)"/>
<path fill="none" stroke-width="0.4" stroke-linecap="butt" stroke-linejoin="round" stroke="rgb(0%, 0%, 0%)" stroke-opacity="1" stroke-miterlimit="10" d="M 298.847656 681.878906 L 815.574219 681.878906 " transform="matrix(1, 0, 0, -1, 305, 769)"/>
<path fill="none" stroke-width="0.4" stroke-linecap="butt" stroke-linejoin="round" stroke="rgb(0%, 0%, 0%)" stroke-opacity="1" stroke-miterlimit="10" d="M 298.847656 595.757812 L 815.574219 595.757812 " transform="matrix(1, 0, 0, -1, 305, 769)"/>
<path fill="none" stroke-width="0.4" stroke-linecap="butt" stroke-linejoin="round" stroke="rgb(0%, 0%, 0%)" stroke-opacity="1" stroke-miterlimit="10" d="M 298.847656 423.515625 L 815.574219 423.515625 " transform="matrix(1, 0, 0, -1, 305, 769)"/>
<path fill="none" stroke-width="0.8" stroke-linecap="butt" stroke-linejoin="round" stroke="rgb(0%, 0%, 100%)" stroke-opacity="1" stroke-miterlimit="10" d="M 428.03125 724.9375 L 514.152344 552.695312 " transform="matrix(1, 0, 0, -1, 305, 769)"/>
<path fill-rule="evenodd" fill="rgb(0%, 0%, 100%)" fill-opacity="1" d="M 734.828125 44.0625 C 734.828125 41.660156 731.230469 41.660156 731.230469 44.0625 C 731.230469 46.460938 734.828125 46.460938 734.828125 44.0625 Z M 734.828125 44.0625 "/>
<path fill="none" stroke-width="0.8" stroke-linecap="butt" stroke-linejoin="round" stroke="rgb(0%, 39.2%, 0%)" stroke-opacity="1" stroke-miterlimit="10" d="M 341.910156 380.453125 L 514.074219 465.957031 " transform="matrix(1, 0, 0, -1, 305, 769)"/>
<path fill-rule="evenodd" fill="rgb(0%, 39.2%, 0%)" fill-opacity="1" d="M 993.195312 216.304688 C 993.195312 213.902344 989.59375 213.902344 989.59375 216.304688 C 989.59375 218.703125 993.195312 218.703125 993.195312 216.304688 Z M 993.195312 216.304688 "/>
<path fill-rule="evenodd" fill="rgb(0%, 39.2%, 0%)" fill-opacity="1" d="M 648.707031 388.546875 C 648.707031 386.144531 645.109375 386.144531 645.109375 388.546875 C 645.109375 390.945312 648.707031 390.945312 648.707031 388.546875 Z M 648.707031 388.546875 "/>
<path fill="none" stroke-width="0.8" stroke-linecap="butt" stroke-linejoin="round" stroke="rgb(54.5%, 0%, 0%)" stroke-opacity="1" stroke-miterlimit="10" d="M 514.152344 552.695312 L 772.515625 724.9375 " transform="matrix(1, 0, 0, -1, 305, 769)"/>
<path fill-rule="evenodd" fill="rgb(54.5%, 0%, 0%)" fill-opacity="1" d="M 820.953125 216.304688 C 820.953125 213.902344 817.351562 213.902344 817.351562 216.304688 C 817.351562 218.703125 820.953125 218.703125 820.953125 216.304688 Z M 820.953125 216.304688 "/>
<path fill-rule="evenodd" fill="rgb(54.5%, 0%, 0%)" fill-opacity="1" d="M 1079.316406 44.0625 C 1079.316406 41.660156 1075.714844 41.660156 1075.714844 44.0625 C 1075.714844 46.460938 1079.316406 46.460938 1079.316406 44.0625 Z M 1079.316406 44.0625 "/>
<g fill="rgb(0%, 0%, 0%)" fill-opacity="1">
<use xlink:href="#glyph-0-0" x="1058.054678" y="224.640266"/>
<use xlink:href="#glyph-0-3" x="1066.829311" y="224.640266"/>
<use xlink:href="#glyph-0-2" x="1079.470732" y="224.640266"/>
</g>
<path fill="none" stroke-width="0.8" stroke-linecap="butt" stroke-linejoin="round" stroke="rgb(0%, 0%, 100%)" stroke-opacity="1" stroke-miterlimit="10" d="M 514.152344 467.117188 L 600.273438 467.117188 " transform="matrix(1, 0, 0, -1, 305, 769)"/>
<path fill="none" stroke-width="0.8" stroke-linecap="butt" stroke-linejoin="round" stroke="rgb(0%, 39.2%, 0%)" stroke-opacity="1" stroke-miterlimit="10" d="M 513.800781 465.953125 L 600.628906 465.949219 " transform="matrix(1, 0, 0, -1, 305, 769)"/>
<path fill="none" stroke-width="0.8" stroke-linecap="butt" stroke-linejoin="round" stroke="rgb(0%, 39.2%, 0%)" stroke-opacity="1" stroke-miterlimit="10" d="M 600.195312 465.957031 L 686.394531 552.695312 " transform="matrix(1, 0, 0, -1, 305, 769)"/>
<path fill-rule="evenodd" fill="rgb(0%, 0%, 100%)" fill-opacity="1" d="M 907.070312 301.882812 C 907.070312 299.484375 903.472656 299.484375 903.472656 301.882812 C 903.472656 304.285156 907.070312 304.285156 907.070312 301.882812 Z M 907.070312 301.882812 "/>
<path fill-rule="evenodd" fill="rgb(0%, 0%, 100%)" fill-opacity="1" d="M 820.949219 301.882812 C 820.949219 299.484375 817.351562 299.484375 817.351562 301.882812 C 817.351562 304.285156 820.949219 304.285156 820.949219 301.882812 Z M 820.949219 301.882812 "/>
<path fill-rule="evenodd" fill="rgb(0%, 39.2%, 0%)" fill-opacity="1" d="M 816.726562 301.863281 C 816.726562 303.199219 817.8125 304.285156 819.148438 304.28125 C 820.484375 304.273438 821.5625 303.183594 821.550781 301.847656 "/>
<path fill-rule="evenodd" fill="rgb(0%, 39.2%, 0%)" fill-opacity="1" d="M 902.890625 301.863281 C 902.886719 303.199219 903.972656 304.285156 905.308594 304.28125 C 906.644531 304.273438 907.726562 303.183594 907.710938 301.847656 "/>
<path fill-rule="evenodd" fill="rgb(0%, 0%, 100%)" fill-opacity="1" d="M 819.1875 213.933594 C 817.851562 213.929688 816.765625 215.015625 816.769531 216.351562 C 816.773438 217.691406 817.867188 218.769531 819.203125 218.757812 "/>
</svg>
