<?xml version="1.0" encoding="UTF-8"?>
<svg xmlns="http://www.w3.org/2000/svg" xmlns:xlink="http://www.w3.org/1999/xlink" width="1120" height="432" viewBox="0 0 1120 432">
<path fill-rule="evenodd" fill="rgb(100%, 100%, 100%)" fill-opacity="1" d="M 603.847656 1.003906 L 603.847656 431.609375 L 1120.574219 431.609375 L 1120.574219 1.003906 Z M 603.847656 1.003906 "/>
<path fill-rule="evenodd" fill="rgb(100%, 100%, 100%)" fill-opacity="1" d="M 1 1.003906 L 1 431.609375 L 517.726562 431.609375 L 517.726562 1.003906 Z M 1 1.003906 "/>
<path fill-rule="evenodd" fill="rgb(100%, 0%, 0%)" fill-opacity="0.3" d="M 431.605469 1.003906 L 431.605469 87.125 L 517.726562 87.125 L 517.726562 1.003906 Z M 431.605469 1.003906 "/>
<path fill-rule="evenodd" fill="rgb(100%, 0%, 0%)" fill-opacity="0.3" d="M 345.484375 173.246094 L 345.484375 259.367188 L 431.605469 259.367188 L 431.605469 173.246094 Z M 345.484375 173.246094 "/>
<path fill-rule="evenodd" fill="rgb(100%, 0%, 0%)" fill-opacity="0.3" d="M 173.242188 259.367188 L 173.242188 345.488281 L 259.363281 345.488281 L 259.363281 259.367188 Z M 173.242188 259.367188 "/>
<path fill-rule="evenodd" fill="rgb(100%, 0%, 0%)" fill-opacity="0.3" d="M 1 345.488281 L 1 431.609375 L 87.121094 431.609375 L 87.121094 345.488281 Z M 1 345.488281 "/>
<path fill-rule="evenodd" fill="rgb(100%, 0%, 0%)" fill-opacity="0.3" d="M 173.242188 173.246094 L 173.242188 259.367188 L 259.363281 259.367188 L 259.363281 173.246094 Z M 173.242188 173.246094 "/>
<path fill-rule="evenodd" fill="rgb(100%, 0%, 0%)" fill-opacity="0.3" d="M 87.121094 1.003906 L 87.121094 87.125 L 173.242188 87.125 L 173.242188 1.003906 Z M 87.121094 1.003906 "/>
<path fill="none" stroke-width="0.4" stroke-linecap="butt" stroke-linejoin="round" stroke="rgb(0%, 0%, 0%)" stroke-opacity="1" stroke-miterlimit="10" d="M -304 767.996094 L -304 337.390625 L 212.726562 337.390625 L 212.726562 767.996094 Z M -304 767.996094 " transform="matrix(1, 0, 0, -1, 305, 769)"/>
<path fill="none" stroke-width="0.4" stroke-linecap="butt" stroke-linejoin="round" stroke="rgb(0%, 0%, 0%)" stroke-opacity="1" stroke-miterlimit="10" d="M -217.878906 767.996094 L -217.878906 337.390625 " transform="matrix(1, 0, 0, -1, 305, 769)"/>
<path fill="none" stroke-width="0.4" stroke-linecap="butt" stroke-linejoin="round" stroke="rgb(0%, 0%, 0%)" stroke-opacity="1" stroke-miterlimit="10" d="M -131.757812 767.996094 L -131.757812 337.390625 " transform="matrix(1, 0, 0, -1, 305, 769)"/>
<path fill="none" stroke-width="0.4" stroke-linecap="butt" stroke-linejoin="round" stroke="rgb(0%, 0%, 0%)" stroke-opacity="1" stroke-miterlimit="10" d="M -45.636719 767.996094 L -45.636719 337.390625 " transform="matrix(1, 0, 0, -1, 305, 769)"/>
<path fill="none" stroke-width="0.4" stroke-linecap="butt" stroke-linejoin="round" stroke="rgb(0%, 0%, 0%)" stroke-opacity="1" stroke-miterlimit="10" d="M 40.484375 767.996094 L 40.484375 337.390625 " transform="matrix(1, 0, 0, -1, 305, 769)"/>
<path fill="none" stroke-width="0.4" stroke-linecap="butt" stroke-linejoin="round" stroke="rgb(0%, 0%, 0%)" stroke-opacity="1" stroke-miterlimit="10" d="M 126.605469 767.996094 L 126.605469 337.390625 " transform="matrix(1, 0, 0, -1, 305, 769)"/>
<path fill="none" stroke-width="0.4" stroke-linecap="butt" stroke-linejoin="round" stroke="rgb(0%, 0%, 0%)" stroke-opacity="1" stroke-miterlimit="10" d="M -304 681.875 L 212.726562 681.875 " transform="matrix(1, 0, 0, -1, 305, 769)"/>
<path fill="none" stroke-width="0.4" stroke-linecap="butt" stroke-linejoin="round" stroke="rgb(0%, 0%, 0%)" stroke-opacity="1" stroke-miterlimit="10" d="M -304 595.753906 L 212.726562 595.753906 " transform="matrix(1, 0, 0, -1, 305, 769)"/>
<path fill="none" stroke-width="0.4" stroke-linecap="butt" stroke-linejoin="round" stroke="rgb(0%, 0%, 0%)" stroke-opacity="1" stroke-miterlimit="10" d="M -304 509.632812 L 212.726562 509.632812 " transform="matrix(1, 0, 0, -1, 305, 769)"/>
<path fill="none" stroke-width="0.4" stroke-linecap="butt" stroke-linejoin="round" stroke="rgb(0%, 0%, 0%)" stroke-opacity="1" stroke-miterlimit="10" d="M -304 423.511719 L 212.726562 423.511719 " transform="matrix(1, 0, 0, -1, 305, 769)"/>
<path fill="none" stroke-width="0.8" stroke-linecap="butt" stroke-linejoin="round" stroke="rgb(0%, 0%, 100%)" stroke-opacity="1" stroke-miterlimit="10" d="M -206.363281 699.285156 L -31.316406 437.121094 " transform="matrix(1, 0, 0, -1, 305, 769)"/>
<path fill-rule="evenodd" fill="rgb(0%, 0%, 100%)" fill-opacity="1" d="M 100.4375 69.714844 C 100.4375 67.3125 96.835938 67.3125 96.835938 69.714844 C 96.835938 72.113281 100.4375 72.113281 100.4375 69.714844 Z M 100.4375 69.714844 "/>
<path fill-rule="evenodd" fill="rgb(0%, 0%, 100%)" fill-opacity="1" d="M 275.484375 331.878906 C 275.484375 329.480469 271.882812 329.480469 271.882812 331.878906 C 271.882812 334.277344 275.484375 334.277344 275.484375 331.878906 Z M 275.484375 331.878906 "/>
<path fill="none" stroke-width="0.8" stroke-linecap="butt" stroke-linejoin="round" stroke="rgb(0%, 39.2%, 0%)" stroke-opacity="1" stroke-miterlimit="10" d="M -262.542969 411.882812 L 67.199219 534.824219 " transform="matrix(1, 0, 0, -1, 305, 769)"/>
<path fill-rule="evenodd" fill="rgb(0%, 39.2%, 0%)" fill-opacity="1" d="M 44.257812 357.117188 C 44.257812 354.71875 40.65625 354.71875 40.65625 357.117188 C 40.65625 359.519531 44.257812 359.519531 44.257812 357.117188 Z M 44.257812 357.117188 "/>
<path fill-rule="evenodd" fill="rgb(0%, 39.2%, 0%)" fill-opacity="1" d="M 374 234.175781 C 374 231.777344 370.398438 231.777344 370.398438 234.175781 C 370.398438 236.578125 374 236.578125 374 234.175781 Z M 374 234.175781 "/>
<path fill="none" stroke-width="0.8" stroke-linecap="butt" stroke-linejoin="round" stroke="rgb(54.5%, 0%, 0%)" stroke-opacity="1" stroke-miterlimit="10" d="M -79.355469 571.460938 L 194.210938 703.359375 " transform="matrix(1, 0, 0, -1, 305, 769)"/>
<path fill-rule="evenodd" fill="rgb(54.5%, 0%, 0%)" fill-opacity="1" d="M 227.445312 197.539062 C 227.445312 195.140625 223.847656 195.140625 223.847656 197.539062 C 223.847656 199.941406 227.445312 199.941406 227.445312 197.539062 Z M 227.445312 197.539062 "/>
<path fill-rule="evenodd" fill="rgb(54.5%, 0%, 0%)" fill-opacity="1" d="M 501.011719 65.640625 C 501.011719 63.242188 497.410156 63.242188 497.410156 65.640625 C 497.410156 68.042969 501.011719 68.042969 501.011719 65.640625 Z M 501.011719 65.640625 "/>
<path fill-rule="evenodd" fill="rgb(100%, 0%, 0%)" fill-opacity="0.3" d="M 259.363281 259.367188 L 259.363281 345.488281 L 345.484375 345.488281 L 345.484375 259.367188 Z M 259.363281 259.367188 "/>
<path fill="none" stroke-width="0.4" stroke-linecap="butt" stroke-linejoin="round" stroke="rgb(0%, 0%, 0%)" stroke-opacity="1" stroke-miterlimit="10" d="M 298.847656 509.632812 L 815.574219 509.632812 " transform="matrix(1, 0, 0, -1, 305, 769)"/>
<path fill="none" stroke-width="0.8" stroke-linecap="butt" stroke-linejoin="round" stroke="rgb(0%, 0%, 100%)" stroke-opacity="1" stroke-miterlimit="10" d="M 514.148438 552.695312 L 514.148438 466.574219 " transform="matrix(1, 0, 0, -1, 305, 769)"/>
<path fill="none" stroke-width="0.4" stroke-linecap="butt" stroke-linejoin="round" stroke="rgb(0%, 0%, 0%)" stroke-opacity="1" stroke-miterlimit="10" d="M 298.847656 767.996094 L 298.847656 337.390625 L 815.574219 337.390625 L 815.574219 767.996094 Z M 298.847656 767.996094 " transform="matrix(1, 0, 0, -1, 305, 769)"/>
<path fill="none" stroke-width="0.4" stroke-linecap="butt" stroke-linejoin="round" stroke="rgb(0%, 0%, 0%)" stroke-opacity="1" stroke-miterlimit="10" d="M 384.96875 767.996094 L 384.96875 337.390625 " transform="matrix(1, 0, 0, -1, 305, 769)"/>
<path fill="none" stroke-width="0.4" stroke-linecap="butt" stroke-linejoin="round" stroke="rgb(0%, 0%, 0%)" stroke-opacity="1" stroke-miterlimit="10" d="M 471.089844 767.996094 L 471.089844 337.390625 " transform="matrix(1, 0, 0, -1, 305, 769)"/>
<path fill="none" stroke-width="0.4" stroke-linecap="butt" stroke-linejoin="round" stroke="rgb(0%, 0%, 0%)" stroke-opacity="1" stroke-miterlimit="10" d="M 557.210938 767.996094 L 557.210938 337.390625 " transform="matrix(1, 0, 0, -1, 305, 769)"/>
<path fill="none" stroke-width="0.4" stroke-linecap="butt" stroke-linejoin="round" stroke="rgb(0%, 0%, 0%)" stroke-opacity="1" stroke-miterlimit="10" d="M 643.332031 767.996094 L 643.332031 337.390625 " transform="matrix(1, 0, 0, -1, 305, 769)"/>
<path fill="none" stroke-width="0.4" stroke-linecap="butt" stroke-linejoin="round" stroke="rgb(0%, 0%, 0%)" stroke-opacity="1" stroke-miterlimit="10" d="M 729.453125 767.996094 L 729.453125 337.390625 " transform="matrix(1, 0, 0, -1, 305, 769)"/>
<path fill="none" stroke-width="0.4" stroke-linecap="butt" stroke-linejoin="round" stroke="rgb(0%, 0%, 0%)" stroke-opacity="1" stroke-miterlimit="10" d="M 298.847656 681.875 L 815.574219 681.875 " transform="matrix(1, 0, 0, -1, 305, 769)"/>
<path fill="none" stroke-width="0.4" stroke-linecap="butt" stroke-linejoin="round" stroke="rgb(0%, 0%, 0%)" stroke-opacity="1" stroke-miterlimit="10" d="M 298.847656 595.753906 L 815.574219 595.753906 " transform="matrix(1, 0, 0, -1, 305, 769)"/>
<path fill="none" stroke-width="0.4" stroke-linecap="butt" stroke-linejoin="round" stroke="rgb(0%, 0%, 0%)" stroke-opacity="1" stroke-miterlimit="10" d="M 298.847656 423.511719 L 815.574219 423.511719 " transform="matrix(1, 0, 0, -1, 305, 769)"/>
<path fill="none" stroke-width="0.8" stroke-linecap="butt" stroke-linejoin="round" stroke="rgb(0%, 0%, 100%)" stroke-opacity="1" stroke-miterlimit="10" d="M 428.03125 724.9375 L 514.148438 552.695312 " transform="matrix(1, 0, 0, -1, 305, 769)"/>
<path fill-rule="evenodd" fill="rgb(0%, 0%, 100%)" fill-opacity="1" d="M 734.828125 44.0625 C 734.828125 41.664062 731.230469 41.664062 731.230469 44.0625 C 731.230469 46.464844 734.828125 46.464844 734.828125 44.0625 Z M 734.828125 44.0625 "/>
<path fill="none" stroke-width="0.8" stroke-linecap="butt" stroke-linejoin="round" stroke="rgb(0%, 39.2%, 0%)" stroke-opacity="1" stroke-miterlimit="10" d="M 341.910156 380.453125 L 514.074219 465.957031 " transform="matrix(1, 0, 0, -1, 305, 769)"/>
<path fill-rule="evenodd" fill="rgb(0%, 39.2%, 0%)" fill-opacity="1" d="M 993.195312 216.304688 C 993.195312 213.90625 989.59375 213.90625 989.59375 216.304688 C 989.59375 218.703125 993.195312 218.703125 993.195312 216.304688 Z M 993.195312 216.304688 "/>
<path fill-rule="evenodd" fill="rgb(0%, 39.2%, 0%)" fill-opacity="1" d="M 648.707031 388.546875 C 648.707031 386.148438 645.105469 386.148438 645.105469 388.546875 C 645.105469 390.949219 648.707031 390.949219 648.707031 388.546875 Z M 648.707031 388.546875 "/>
<path fill="none" stroke-width="0.8" stroke-linecap="butt" stroke-linejoin="round" stroke="rgb(54.5%, 0%, 0%)" stroke-opacity="1" stroke-miterlimit="10" d="M 514.148438 552.695312 L 772.511719 724.9375 " transform="matrix(1, 0, 0, -1, 305, 769)"/>
<path fill-rule="evenodd" fill="rgb(54.5%, 0%, 0%)" fill-opacity="1" d="M 820.949219 216.304688 C 820.949219 213.90625 817.351562 213.90625 817.351562 216.304688 C 817.351562 218.707031 820.949219 218.707031 820.949219 216.304688 Z M 820.949219 216.304688 "/>
<path fill-rule="evenodd" fill="rgb(54.5%, 0%, 0%)" fill-opacity="1" d="M 1079.3125 44.0625 C 1079.3125 41.664062 1075.714844 41.664062 1075.714844 44.0625 C 1075.714844 46.464844 1079.3125 46.464844 1079.3125 44.0625 Z M 1079.3125 44.0625 "/>
<path fill="none" stroke-width="0.8" stroke-linecap="butt" stroke-linejoin="round" stroke="rgb(0%, 0%, 100%)" stroke-opacity="1" stroke-miterlimit="10" d="M 514.148438 467.113281 L 600.269531 467.113281 " transform="matrix(1, 0, 0, -1, 305, 769)"/>
<path fill="none" stroke-width="0.8" stroke-linecap="butt" stroke-linejoin="round" stroke="rgb(0%, 39.2%, 0%)" stroke-opacity="1" stroke-miterlimit="10" d="M 513.800781 465.953125 L 600.625 465.949219 " transform="matrix(1, 0, 0, -1, 305, 769)"/>
<path fill="none" stroke-width="0.8" stroke-linecap="butt" stroke-linejoin="round" stroke="rgb(0%, 39.2%, 0%)" stroke-opacity="1" stroke-miterlimit="10" d="M 600.195312 465.957031 L 686.390625 552.695312 " transform="matrix(1, 0, 0, -1, 305, 769)"/>
<path fill-rule="evenodd" fill="rgb(0%, 0%, 100%)" fill-opacity="1" d="M 907.070312 301.886719 C 907.070312 299.484375 903.472656 299.484375 903.472656 301.886719 C 903.472656 304.285156 907.070312 304.285156 907.070312 301.886719 Z M 907.070312 301.886719 "/>
<path fill-rule="evenodd" fill="rgb(0%, 0%, 100%)" fill-opacity="1" d="M 820.949219 301.886719 C 820.949219 299.484375 817.347656 299.484375 817.347656 301.886719 C 817.347656 304.285156 820.949219 304.285156 820.949219 301.886719 Z M 820.949219 301.886719 "/>
<path fill-rule="evenodd" fill="rgb(0%, 39.2%, 0%)" fill-opacity="1" d="M 816.730469 301.863281 C 816.726562 303.199219 817.8125 304.285156 819.148438 304.28125 C 820.484375 304.277344 821.5625 303.183594 821.550781 301.847656 "/>
<path fill-rule="evenodd" fill="rgb(0%, 39.2%, 0%)" fill-opacity="1" d="M 902.890625 301.863281 C 902.886719 303.199219 903.972656 304.285156 905.308594 304.28125 C 906.648438 304.277344 907.726562 303.183594 907.714844 301.847656 "/>
<path fill-rule="evenodd" fill="rgb(0%, 0%, 100%)" fill-opacity="1" d="M 819.1875 213.933594 C 817.847656 213.929688 816.765625 215.015625 816.769531 216.351562 C 816.773438 217.691406 817.863281 218.769531 819.203125 218.757812 "/>
</svg>
