/* XPM */
const char* green_icon[] = {
/* columns rows colors chars-per-pixel */
  "16 16 2 1",
  "g c green",
  ". c None",
/* pixels */
  "................",
  "................",
  "..gggggggggggg..",
  "..gggggggggggg..",
  "..gggggggggggg..",
  "..ggg......ggg..",
  "..ggg......ggg..",
  "..ggg......ggg..",
  "..ggg......ggg..",
  "..ggg......ggg..",
  "..ggg......ggg..",
  "..gggggggggggg..",
  "..gggggggggggg..",
  "..gggggggggggg..",
  "................",
  "................"};
