<?xml version="1.0" encoding="UTF-8" standalone="no"?>
<!-- Created with Inkscape (http://www.inkscape.org/) -->

<svg
   xmlns:dc="http://purl.org/dc/elements/1.1/"
   xmlns:cc="http://creativecommons.org/ns#"
   xmlns:rdf="http://www.w3.org/1999/02/22-rdf-syntax-ns#"
   xmlns:svg="http://www.w3.org/2000/svg"
   xmlns="http://www.w3.org/2000/svg"
   xmlns:sodipodi="http://sodipodi.sourceforge.net/DTD/sodipodi-0.dtd"
   xmlns:inkscape="http://www.inkscape.org/namespaces/inkscape"
   width="744.09448819"
   height="1052.3622047"
   id="svg2"
   version="1.1"
   inkscape:version="0.48.4 r9939"
   sodipodi:docname="dt.svg">
  <defs
     id="defs4" />
  <sodipodi:namedview
     id="base"
     pagecolor="#ffffff"
     bordercolor="#666666"
     borderopacity="1.0"
     inkscape:pageopacity="0.0"
     inkscape:pageshadow="2"
     inkscape:zoom="1.01"
     inkscape:cx="218.53448"
     inkscape:cy="546.08245"
     inkscape:document-units="px"
     inkscape:current-layer="layer1"
     showgrid="false"
     inkscape:window-width="1770"
     inkscape:window-height="850"
     inkscape:window-x="2059"
     inkscape:window-y="153"
     inkscape:window-maximized="0" />
  <metadata
     id="metadata7">
    <rdf:RDF>
      <cc:Work
         rdf:about="">
        <dc:format>image/svg+xml</dc:format>
        <dc:type
           rdf:resource="http://purl.org/dc/dcmitype/StillImage" />
        <dc:title></dc:title>
      </cc:Work>
    </rdf:RDF>
  </metadata>
  <g
     inkscape:label="Layer 1"
     inkscape:groupmode="layer"
     id="layer1">
    <path
       inkscape:connector-curvature="0"
       d="m 419.073,335.48718 127.5,107.5"
       style="fill:#333333;stroke:#333333;stroke-width:5;stroke-linecap:butt;stroke-linejoin:miter;stroke-miterlimit:10;stroke-opacity:1;stroke-dasharray:none"
       id="path2999" />
    <path
       inkscape:connector-curvature="0"
       d="m 582.823,725.48718 -201.25,3.75"
       style="fill:none;stroke:#333333;stroke-width:5;stroke-linecap:butt;stroke-linejoin:miter;stroke-miterlimit:10;stroke-opacity:1;stroke-dasharray:none"
       id="path3001" />
    <path
       inkscape:connector-curvature="0"
       d="m 381.573,729.23718 -167.5,-55"
       style="fill:none;stroke:#333333;stroke-width:5;stroke-linecap:butt;stroke-linejoin:miter;stroke-miterlimit:10;stroke-opacity:1;stroke-dasharray:none"
       id="path3003" />
    <path
       inkscape:connector-curvature="0"
       d="m 214.073,674.23718 -38.75,-187.5"
       style="fill:none;stroke:#333333;stroke-width:5;stroke-linecap:butt;stroke-linejoin:miter;stroke-miterlimit:10;stroke-opacity:1;stroke-dasharray:none"
       id="path3005" />
    <path
       inkscape:connector-curvature="0"
       d="m 214.073,674.23718 52.5,-87.5"
       style="fill:none;stroke:#333333;stroke-width:5;stroke-linecap:butt;stroke-linejoin:miter;stroke-miterlimit:10;stroke-opacity:1;stroke-dasharray:none"
       id="path3007" />
    <path
       inkscape:connector-curvature="0"
       d="m 330.323,654.23718 -116.25,20"
       style="fill:none;stroke:#333333;stroke-width:5;stroke-linecap:butt;stroke-linejoin:miter;stroke-miterlimit:10;stroke-opacity:1;stroke-dasharray:none"
       id="path3009" />
    <path
       inkscape:connector-curvature="0"
       d="m 381.573,729.23718 107.5,-58.75"
       style="fill:none;stroke:#333333;stroke-width:5;stroke-linecap:butt;stroke-linejoin:miter;stroke-miterlimit:10;stroke-opacity:1;stroke-dasharray:none"
       id="path3011" />
    <path
       inkscape:connector-curvature="0"
       d="m 489.073,670.48718 -158.75,-16.25"
       style="fill:none;stroke:#333333;stroke-width:5;stroke-linecap:butt;stroke-linejoin:miter;stroke-miterlimit:10;stroke-opacity:1;stroke-dasharray:none"
       id="path3013" />
    <path
       inkscape:connector-curvature="0"
       d="m 330.323,654.23718 51.25,75"
       style="fill:none;stroke:#333333;stroke-width:5;stroke-linecap:butt;stroke-linejoin:miter;stroke-miterlimit:10;stroke-opacity:1;stroke-dasharray:none"
       id="path3015" />
    <path
       inkscape:connector-curvature="0"
       d="m 325.323,507.98718 -150,-21.25"
       style="fill:none;stroke:#333333;stroke-width:5;stroke-linecap:butt;stroke-linejoin:miter;stroke-miterlimit:10;stroke-opacity:1;stroke-dasharray:none"
       id="path3017" />
    <path
       inkscape:connector-curvature="0"
       d="m 175.323,486.73718 91.25,100"
       style="fill:none;stroke:#333333;stroke-width:5;stroke-linecap:butt;stroke-linejoin:miter;stroke-miterlimit:10;stroke-opacity:1;stroke-dasharray:none"
       id="path3019" />
    <path
       inkscape:connector-curvature="0"
       d="m 266.573,586.73718 58.75,-78.75"
       style="fill:none;stroke:#333333;stroke-width:5;stroke-linecap:butt;stroke-linejoin:miter;stroke-miterlimit:10;stroke-opacity:1;stroke-dasharray:none"
       id="path3021" />
    <path
       inkscape:connector-curvature="0"
       d="m 385.323,551.73718 -118.75,35"
       style="fill:none;stroke:#333333;stroke-width:5;stroke-linecap:butt;stroke-linejoin:miter;stroke-miterlimit:10;stroke-opacity:1;stroke-dasharray:none"
       id="path3023" />
    <path
       inkscape:connector-curvature="0"
       d="m 266.573,586.73718 63.75,67.5"
       style="fill:none;stroke:#333333;stroke-width:5;stroke-linecap:butt;stroke-linejoin:miter;stroke-miterlimit:10;stroke-opacity:1;stroke-dasharray:none"
       id="path3025" />
    <path
       inkscape:connector-curvature="0"
       d="m 330.323,654.23718 55,-102.5"
       style="fill:none;stroke:#333333;stroke-width:5;stroke-linecap:butt;stroke-linejoin:miter;stroke-miterlimit:10;stroke-opacity:1;stroke-dasharray:none"
       id="path3027" />
    <path
       inkscape:connector-curvature="0"
       d="m 175.323,486.73718 96.25,-140"
       style="fill:none;stroke:#333333;stroke-width:5;stroke-linecap:butt;stroke-linejoin:miter;stroke-miterlimit:10;stroke-opacity:1;stroke-dasharray:none"
       id="path3029" />
    <path
       inkscape:connector-curvature="0"
       d="m 325.323,507.98718 -53.75,-161.25"
       style="fill:none;stroke:#333333;stroke-width:5;stroke-linecap:butt;stroke-linejoin:miter;stroke-miterlimit:10;stroke-opacity:1;stroke-dasharray:none"
       id="path3031" />
    <path
       inkscape:connector-curvature="0"
       d="m 384.073,416.73718 -112.5,-70"
       style="fill:none;stroke:#333333;stroke-width:5;stroke-linecap:butt;stroke-linejoin:miter;stroke-miterlimit:10;stroke-opacity:1;stroke-dasharray:none"
       id="path3033" />
    <path
       inkscape:connector-curvature="0"
       d="m 325.323,507.98718 58.75,-91.25"
       style="fill:none;stroke:#333333;stroke-width:5;stroke-linecap:butt;stroke-linejoin:miter;stroke-miterlimit:10;stroke-opacity:1;stroke-dasharray:none"
       id="path3035" />
    <path
       inkscape:connector-curvature="0"
       d="m 385.323,551.73718 -1.25,-135"
       style="fill:none;stroke:#333333;stroke-width:5;stroke-linecap:butt;stroke-linejoin:miter;stroke-miterlimit:10;stroke-opacity:1;stroke-dasharray:none"
       id="path3037" />
    <path
       inkscape:connector-curvature="0"
       d="m 325.323,507.98718 60,43.75"
       style="fill:none;stroke:#333333;stroke-width:5;stroke-linecap:butt;stroke-linejoin:miter;stroke-miterlimit:10;stroke-opacity:1;stroke-dasharray:none"
       id="path3039" />
    <path
       inkscape:connector-curvature="0"
       d="m 487.823,474.23718 -103.75,-57.5"
       style="fill:#333333;stroke:#333333;stroke-width:5;stroke-linecap:butt;stroke-linejoin:miter;stroke-miterlimit:10;stroke-opacity:1;stroke-dasharray:none"
       id="path3041" />
    <path
       inkscape:connector-curvature="0"
       d="m 489.073,670.48718 -1.25,-196.25"
       style="fill:none;stroke:#333333;stroke-width:5;stroke-linecap:butt;stroke-linejoin:miter;stroke-miterlimit:10;stroke-opacity:1;stroke-dasharray:none"
       id="path3043" />
    <path
       inkscape:connector-curvature="0"
       d="m 487.823,474.23718 -102.5,77.5"
       style="fill:none;stroke:#333333;stroke-width:5;stroke-linecap:butt;stroke-linejoin:miter;stroke-miterlimit:10;stroke-opacity:1;stroke-dasharray:none"
       id="path3045" />
    <path
       inkscape:connector-curvature="0"
       d="m 385.323,551.73718 103.75,118.75"
       style="fill:none;stroke:#333333;stroke-width:5;stroke-linecap:butt;stroke-linejoin:miter;stroke-miterlimit:10;stroke-opacity:1;stroke-dasharray:none"
       id="path3047" />
    <path
       inkscape:connector-curvature="0"
       d="m 271.573,346.73718 147.5,-11.25"
       style="fill:none;stroke:#333333;stroke-width:5;stroke-linecap:butt;stroke-linejoin:miter;stroke-miterlimit:10;stroke-opacity:1;stroke-dasharray:none"
       id="path3049" />
    <path
       inkscape:connector-curvature="0"
       d="m 384.073,416.73718 35,-81.25"
       style="fill:none;stroke:#333333;stroke-width:5;stroke-linecap:butt;stroke-linejoin:miter;stroke-miterlimit:10;stroke-opacity:1;stroke-dasharray:none"
       id="path3051" />
    <path
       inkscape:connector-curvature="0"
       d="m 487.823,474.23718 -68.75,-138.75"
       style="fill:#333333;stroke:#333333;stroke-width:5;stroke-linecap:butt;stroke-linejoin:miter;stroke-miterlimit:10;stroke-opacity:1;stroke-dasharray:none"
       id="path3053" />
    <path
       inkscape:connector-curvature="0"
       d="m 487.823,474.23718 58.75,-31.25"
       style="fill:none;stroke:#333333;stroke-width:5;stroke-linecap:butt;stroke-linejoin:miter;stroke-miterlimit:10;stroke-opacity:1;stroke-dasharray:none"
       id="path3055" />
    <path
       inkscape:connector-curvature="0"
       d="m 582.823,725.48718 -36.25,-282.5"
       style="fill:none;stroke:#333333;stroke-width:5;stroke-linecap:butt;stroke-linejoin:miter;stroke-miterlimit:10;stroke-opacity:1;stroke-dasharray:none"
       id="path3057" />
    <path
       inkscape:connector-curvature="0"
       d="m 546.573,442.98718 -57.5,227.5"
       style="fill:#333333;stroke:#333333;stroke-width:5;stroke-linecap:butt;stroke-linejoin:miter;stroke-miterlimit:10;stroke-opacity:1;stroke-dasharray:none"
       id="path3059" />
    <path
       inkscape:connector-curvature="0"
       d="m 489.073,670.48718 93.75,55"
       style="fill:none;stroke:#333333;stroke-width:5;stroke-linecap:butt;stroke-linejoin:miter;stroke-miterlimit:10;stroke-opacity:1;stroke-dasharray:none"
       id="path3061" />
    <path
       inkscape:connector-curvature="0"
       d="m 551.573,442.98718 c 0,-2.76125 -2.23875,-5 -5,-5 -2.76125,0 -5,2.23875 -5,5 0,2.76125 2.23875,5 5,5 2.76125,0 5,-2.23875 5,-5"
       style="fill:#000000;fill-opacity:1;fill-rule:nonzero;stroke:none"
       id="path3063" />
    <path
       inkscape:connector-curvature="0"
       d="m 386.573,729.23718 c 0,-2.76138 -2.23875,-5 -5,-5 -2.76125,0 -5,2.23862 -5,5 0,2.76137 2.23875,5 5,5 2.76125,0 5,-2.23863 5,-5"
       style="fill:#000000;fill-opacity:1;fill-rule:nonzero;stroke:none"
       id="path3065" />
    <path
       inkscape:connector-curvature="0"
       d="m 219.073,674.23718 c 0,-2.76138 -2.23863,-5 -5,-5 -2.76138,0 -5,2.23862 -5,5 0,2.76137 2.23862,5 5,5 2.76137,0 5,-2.23863 5,-5"
       style="fill:#000000;fill-opacity:1;fill-rule:nonzero;stroke:none"
       id="path3067" />
    <path
       inkscape:connector-curvature="0"
       d="m 180.323,486.73718 c 0,-2.76125 -2.23863,-5 -5,-5 -2.76138,0 -5,2.23875 -5,5 0,2.76125 2.23862,5 5,5 2.76137,0 5,-2.23875 5,-5"
       style="fill:#1a1a1a;fill-opacity:1;fill-rule:nonzero;stroke:none"
       id="path3069" />
    <path
       inkscape:connector-curvature="0"
       d="m 271.573,586.73718 c 0,-2.76125 -2.23875,-5 -5,-5 -2.76125,0 -5,2.23875 -5,5 0,2.76125 2.23875,5 5,5 2.76125,0 5,-2.23875 5,-5"
       style="fill:#000000;fill-opacity:1;fill-rule:nonzero;stroke:none"
       id="path3071" />
    <path
       inkscape:connector-curvature="0"
       d="m 330.323,507.98718 c 0,-2.76125 -2.23875,-5 -5,-5 -2.76125,0 -5,2.23875 -5,5 0,2.76125 2.23875,5 5,5 2.76125,0 5,-2.23875 5,-5"
       style="fill:#000000;fill-opacity:1;fill-rule:nonzero;stroke:none"
       id="path3073" />
    <path
       inkscape:connector-curvature="0"
       d="m 335.323,654.23718 c 0,-2.76125 -2.23875,-5 -5,-5 -2.76125,0 -5,2.23875 -5,5 0,2.76137 2.23875,5 5,5 2.76125,0 5,-2.23863 5,-5"
       style="fill:#000000;fill-opacity:1;fill-rule:nonzero;stroke:none"
       id="path3075" />
    <path
       inkscape:connector-curvature="0"
       d="m 276.573,346.73718 c 0,-2.76125 -2.23875,-5 -5,-5 -2.76125,0 -5,2.23875 -5,5 0,2.76125 2.23875,5 5,5 2.76125,0 5,-2.23875 5,-5"
       style="fill:#000000;fill-opacity:1;fill-rule:nonzero;stroke:none"
       id="path3077" />
    <path
       inkscape:connector-curvature="0"
       d="m 389.073,416.73718 c 0,-2.76125 -2.23875,-5 -5,-5 -2.76125,0 -5,2.23875 -5,5 0,2.76125 2.23875,5 5,5 2.76125,0 5,-2.23875 5,-5"
       style="fill:#000000;fill-opacity:1;fill-rule:nonzero;stroke:none"
       id="path3079" />
    <path
       inkscape:connector-curvature="0"
       d="m 390.323,551.73718 c 0,-2.76125 -2.23875,-5 -5,-5 -2.76125,0 -5,2.23875 -5,5 0,2.76125 2.23875,5 5,5 2.76125,0 5,-2.23875 5,-5"
       style="fill:#000000;fill-opacity:1;fill-rule:nonzero;stroke:none"
       id="path3081" />
    <path
       inkscape:connector-curvature="0"
       d="m 424.073,335.48718 c 0,-2.76125 -2.23875,-5 -5,-5 -2.76125,0 -5,2.23875 -5,5 0,2.76125 2.23875,5 5,5 2.76125,0 5,-2.23875 5,-5"
       style="fill:#000000;fill-opacity:1;fill-rule:nonzero;stroke:none"
       id="path3083" />
    <path
       inkscape:connector-curvature="0"
       d="m 492.823,474.23718 c 0,-2.76125 -2.23875,-5 -5,-5 -2.76125,0 -5,2.23875 -5,5 0,2.76125 2.23875,5 5,5 2.76125,0 5,-2.23875 5,-5"
       style="fill:#000000;fill-opacity:1;fill-rule:nonzero;stroke:none"
       id="path3085" />
    <path
       inkscape:connector-curvature="0"
       d="m 494.073,670.48718 c 0,-2.76138 -2.23875,-5 -5,-5 -2.76125,0 -5,2.23862 -5,5 0,2.76137 2.23875,5 5,5 2.76125,0 5,-2.23863 5,-5"
       style="fill:#000000;fill-opacity:1;fill-rule:nonzero;stroke:none"
       id="path3087" />
    <path
       inkscape:connector-curvature="0"
       d="m 587.823,725.48718 c 0,-2.76138 -2.23875,-5 -5,-5 -2.76125,0 -5,2.23862 -5,5 0,2.76137 2.23875,5 5,5 2.76125,0 5,-2.23863 5,-5"
       style="fill:#000000;fill-opacity:1;fill-rule:nonzero;stroke:none"
       id="path3089" />
    <path
       inkscape:connector-curvature="0"
       d="m 353.26425,440.72968 c 0,-52.4225 -42.49625,-94.91875 -94.91875,-94.91875 -52.422,0 -94.9185,42.49625 -94.9185,94.91875 0,52.4225 42.4965,94.91875 94.9185,94.91875 52.4225,0 94.91875,-42.49625 94.91875,-94.91875"
       style="fill:none;stroke:#ff0000;stroke-width:2.5;stroke-linecap:butt;stroke-linejoin:miter;stroke-miterlimit:10;stroke-opacity:1;stroke-dasharray:none"
       id="path3091" />
    <path
       inkscape:connector-curvature="0"
       d="m 330.648,647.92843 c 0,-33.83125 -27.425,-61.25625 -61.25625,-61.25625 -33.831,0 -61.2565,27.425 -61.2565,61.25625 0,33.831 27.4255,61.2565 61.2565,61.2565 33.83125,0 61.25625,-27.4255 61.25625,-61.2565"
       style="fill:none;stroke:#ff0000;stroke-width:2.5;stroke-linecap:butt;stroke-linejoin:miter;stroke-miterlimit:10;stroke-opacity:1;stroke-dasharray:none"
       id="path3093" />
    <path
       inkscape:connector-curvature="0"
       d="m 579.87175,572.40593 c 0,-54.33 -44.0425,-98.3725 -98.3725,-98.3725 -54.33,0 -98.3725,44.0425 -98.3725,98.3725 0,54.33 44.0425,98.37275 98.3725,98.37275 54.33,0 98.3725,-44.04275 98.3725,-98.37275"
       style="fill:none;stroke:#ff0000;stroke-width:2.50000000000000000;stroke-linecap:butt;stroke-linejoin:miter;stroke-miterlimit:10;stroke-opacity:1;stroke-dasharray:none"
       id="path3095" />
  </g>
</svg>
