/* XPM */
static char *arrow_xpm[] = {
/* columns rows colors chars-per-pixel */
"32 32 3 1",
"  c black",
". c #808080",
"X c None",
/* pixels */
"XXXXXXXXXXXXXXXXXXXXXXXXXXXXXXXX",
"XXXXXXXXXXXXXXXXXXXXXXXXXXXXXXXX",
"XXXXXXXXXXXXXXXXXXXXXXXXXXXXXXXX",
"XXXXXXXXXXXXXXXXXXXXXXXXXXXXXXXX",
"XXXXXXXXXXXXXXXXXXXXXXXXXXXXXXXX",
"XXXXXXXXXXXXXXXXXXXXXXXXXXXXXXXX",
"XXXXXXXXXXXXXXXXXXXXXXXXXXXXXXXX",
"XXXXXXXXXXXXXXXXXXXXXXXXXXXXXXXX",
"XXXXXXXXXXXXXXXXXXXXXXXXXXXXXXXX",
"XXXXXXXXXXXXXXXXXXXXXXXXXXXXXXXX",
"XXXXXXXXXXXXX XXXXXXXXXXXXXXXXXX",
"XXXXXXXXXXXXX  XXXXXXXXXXXXXXXXX",
"XXXXXXXXXXXXX   XXXXXXXXXXXXXXXX",
"XXXXXXXXXXXXX    XXXXXXXXXXXXXXX",
"XXXXXXXXXXXXX     XXXXXXXXXXXXXX",
"XXXXXXXXXXXXX      XXXXXXXXXXXXX",
"XXXXXXXXXXXXX       XXXXXXXXXXXX",
"XXXXXXXXXXXXX    .XXXXXXXXXXXXXX",
"XXXXXXXXXXXXX  . .XXXXXXXXXXXXXX",
"XXXXXXXXXXXXX XX. XXXXXXXXXXXXXX",
"XXXXXXXXXXXXXXXXX .XXXXXXXXXXXXX",
"XXXXXXXXXXXXXXXXX. XXXXXXXXXXXXX",
"XXXXXXXXXXXXXXXXXXXXXXXXXXXXXXXX",
"XXXXXXXXXXXXXXXXXXXXXXXXXXXXXXXX",
"XXXXXXXXXXXXXXXXXXXXXXXXXXXXXXXX",
"XXXXXXXXXXXXXXXXXXXXXXXXXXXXXXXX",
"XXXXXXXXXXXXXXXXXXXXXXXXXXXXXXXX",
"XXXXXXXXXXXXXXXXXXXXXXXXXXXXXXXX",
"XXXXXXXXXXXXXXXXXXXXXXXXXXXXXXXX",
"XXXXXXXXXXXXXXXXXXXXXXXXXXXXXXXX",
"XXXXXXXXXXXXXXXXXXXXXXXXXXXXXXXX",
"XXXXXXXXXXXXXXXXXXXXXXXXXXXXXXXX"
};

/* XPM */
static char * arrow_small_xpm[] = {
"16 16 2 1",
" 	c None",
".	c #000000",
"                ",
"                ",
"    .           ",
"    ..          ",
"    ...         ",
"    ....        ",
"    .....       ",
"    ......      ",
"    .......     ",
"    .. .        ",
"    .   .       ",
"    .   .       ",
"         .      ",
"         .      ",
"                ",
"                "};