/* XPM */
static char *back_xpm[] = {
/* columns rows colors chars-per-pixel */
"32 32 6 1",
"  c opaque",
". c blue",
"X c cyan",
"o c magenta",
"O c #c0c0c0",
"+ c None",
/* pixels */
"++++++++++++++++++++++++++++++++",
"++++++++++++++++++++++++++++++++",
"++++++++++++++++++++++++++++++++",
"++++              ++++++++++++++",
"++++ oooooooooooo ++++++++++++++",
"++++ oooooooooooo ++++++++++++++",
"++++ oooooooooooo ++++++++++++++",
"++++ oooooooooooo ++++++++++++++",
"++++ oooooooooooo ++++++++++++++",
"++++ oooooooooooo ++++++++++++++",
"++++ oooooooooooo ++++++++++++++",
"++++ oooooooooooo ++++++++++++++",
"++++ oooooooooooo ++++++++++++++",
"++++ oooooooooooo ++++++++++++++",
"++++ oooooooooooo ++++++++++++++",
"++++ oooooooooooo ++++++++++++++",
"++++ oooooooooooo ++++++++++++++",
"++++ oooooooooooo ++++++++++++++",
"++++ oooooooooooo ++++++++++++++",
"++++              +++++ ++++++++",
"++++++++++++++++++++++. ++++++++",
"+++++++++++++++++++++.O ++++++++",
"++++++++++++++++++++.OO ...... +",
"+++++++++++++++++++.OOOOOOOOOX +",
"+++++++++++++++++++ XXXXXXXXXX +",
"++++++++++++++++++++ XX        +",
"+++++++++++++++++++++ X ++++++++",
"++++++++++++++++++++++  ++++++++",
"+++++++++++++++++++++++ ++++++++",
"++++++++++++++++++++++++++++++++",
"++++++++++++++++++++++++++++++++",
"++++++++++++++++++++++++++++++++"
};
