/* XPM */
static char *constrained_xpm[] = {
/* columns rows colors chars-per-pixel */
"32 32 3 1",
"  c opaque",
". c red",
"X c None",
/* pixels */
"XXXXXXXXXXXXXXXXXXXXXXXXXXXXXXXX",
"XXXXXXXXXXXXXXXXXXXXXXXXXXXXXXXX",
"XXX...........................XX",
"XXX...........................XX",
"XXXXXXXXXXXXXXXXXXXXXXXXXXXXXXXX",
"XXXXXXXXXXXXXXXXXXXXXXXXXXXXXXXX",
"XXXXXXXXXXXXXXXXXXXXXXXXXXXXXXXX",
"XXX.....................XXXXXXXX",
"XXX.....................XXXXXXXX",
"XXXXXXXXXXXXXXXXXXXXXXXXXXXXXXXX",
"XXXXXXXXXXXXXXXXXXXXXXXXXXXXXXXX",
"XXXXXXXXXXXXXXXXXXXXXXXXXXXXXXXX",
"XXX.............XXXXXXXXXXXXXXXX",
"XXX.............XXXXXXXXXXXXXXXX",
"XXXXXXXXXXXXXXXXXXXXXXXXXXXXXXXX",
"XXXXXXXXXXXXXXXXXXXXXXXXXXXXXXXX",
"XXXXXXXXXXXXXXXXXXXXXXXXXXXXXXXX",
"XXX.....XXXXXXXXXXXXXXXXXXXXXXXX",
"XXX.....XXXXXXXXXXXXXXXXXXXXXXXX",
"XXXXXXXXXXXXXXXXXXXXXXXXXXXXXXXX",
"XXXXXXXXXXXXXXXXXXXXXXXXXXXXXXXX",
"XXXXXXXXXXXXXXXXXXXXXXXXXXXXXXXX",
"XXX.............XXXXXXXXXXXXXXXX",
"XXX.............XXXXXXXXXXXXXXXX",
"XXXXXXXXXXXXXXXXXXXXXXXXXXXXXXXX",
"XXXXXXXXXXXXXXXXXXXXXXXXXXXXXXXX",
"XXXXXXXXXXXXXXXXXXXXXXXXXXXXXXXX",
"XXX.....................XXXXXXXX",
"XXX.....................XXXXXXXX",
"XXXXXXXXXXXXXXXXXXXXXXXXXXXXXXXX",
"XXXXXXXXXXXXXXXXXXXXXXXXXXXXXXXX",
"XXXXXXXXXXXXXXXXXXXXXXXXXXXXXXXX"
};

/* XPM */
static char * constrained_small_xpm[] = {
"16 16 4 1",
" 	c None",
".	c #35E8D9",
"+	c #F40C3A",
"@	c #000000",
"    ........    ",
"   ..........   ",
"  .....+++++..  ",
" ...++++..++@.. ",
"..++++...++..@..",
".+++.....++...@.",
".@.++...++....@.",
"..@.++..++..@@@.",
"..@..++++.@@..@.",
"...@..++@@...@..",
"...@...@....@...",
"....@..@...@....",
" ...@..@..@.... ",
"  ...@.@.@....  ",
"   ..@.@@....   ",
"    ..@@....    "};