/* XPM */
static char *forward_xpm[] = {
/* columns rows colors chars-per-pixel */
"32 32 7 1",
"  c opaque",
". c blue",
"X c cyan",
"o c magenta",
"O c #c0c0c0",
"+ c white",
"@ c None",
/* pixels */
"@@@@@@@@@@@@@@@@@@@@@@@@@@@@@@@@",
"@@@@@@@@@@@@@@@@@@@@@@@@@@@@@@@@",
"@@@@@@@@@@@@@@@@@@@@@@@@@@@@@@@@",
"@@@@@@@@@@@@@@@@@@@@@@@@@@@@@@@@",
"@@@@@@@@@@@@@@              @@@@",
"@@@@@@@@@@@@@@ oooooooooooo @@@@",
"@@@@@@@@@@@@@@ oooooooooooo @@@@",
"@@@@@@@@@@@@@@ oooooooooooo @@@@",
"@@@@@@@@@@@@@@ oooooooooooo @@@@",
"@@@@@@@@@@@@@@ oooooooooooo @@@@",
"@@@@@@@@@@@@@@ oooooooooooo @@@@",
"@@@@@@@@@@@@@@ oooooooooooo @@@@",
"@@@@@@@@@@@@@@ oooooooooooo @@@@",
"@@@@@@@@@@@@@@ oooooooooooo @@@@",
"@@@@@@@@@@@@@@ oooooooooooo @@@@",
"@@@@@@@@@@@@@@ oooooooooooo @@@@",
"@@@@@@@@@@@@@@ oooooooooooo @@@@",
"@@@@@@@@@@@@@@ oooooooooooo @@@@",
"@@@@@@@@@@@@@@ oooooooooooo @@@@",
"@@@@@@@@.@@@@@ oooooooooooo @@@@",
"@@@@@@@@. @@@@              @@@@",
"@@@@@@@@.X @@@@@@@@@@@@@@@@@@@@@",
"@........+X @@@@@@@@@@@@@@@@@@@@",
"@.++++++++OX @@@@@@@@@@@@@@@@@@@",
"@.XXXXXXXXX. @@@@@@@@@@@@@@@@@@@",
"@        X. @@@@@@@@@@@@@@@@@@@@",
"@@@@@@@@ . @@@@@@@@@@@@@@@@@@@@@",
"@@@@@@@@  @@@@@@@@@@@@@@@@@@@@@@",
"@@@@@@@@ @@@@@@@@@@@@@@@@@@@@@@@",
"@@@@@@@@@@@@@@@@@@@@@@@@@@@@@@@@",
"@@@@@@@@@@@@@@@@@@@@@@@@@@@@@@@@",
"@@@@@@@@@@@@@@@@@@@@@@@@@@@@@@@@"
};
