/* XPM */
static char *green_approx_xpm[] = {
/* columns rows colors chars-per-pixel */
"32 32 3 1",
"  c black",
". c green",
"X c None",
/* pixels */
"XXXXXXXXXXXXXXXXXXXXXXXXXXXXXXXX",
"XXXXXXXXXX.  .       ..XXXXXXXXX",
"XXXXXXXX.  . .XXXXXXXX. XXXXXXXX",
"XXXXXX.  .XX .XXXXXX.  . XXXXXXX",
"XXXX.  .XXXX .XXXXX  .XX. XXXXXX",
"XX.  .XXXXXX .XXX. .XXXXX XXXXXX",
"XX   .XXXXXX .X.  XXXXXXX. XXXXX",
"XXXX.  .XXXX .  .XXXXXXXXX .XXXX",
"XXXXXX.  .XX  .XXXXXXXXXXXX .XXX",
"XXXXXXXXX  . ...XXXXXXXXXXX .XXX",
"XXXXXXXXX .X ...       .XXXX .XX",
"XXXXXXXX .XX .XXXXX....       XX",
"XXXXXXX .XXX. XXXXXXXXXXXXX  XXX",
"XXXXXX .XXXX. XXXXXXXXXXXX .XXXX",
"XXXXX. XXXXX. XXXXXXXXXXX .XXXXX",
"XXXX. XXXXXX. XXXXXXXXX  XXXXXXX",
"XXX. XXXXXXX. XXXXXXXX .XXXXXXXX",
"XX. .XXXXXXX. XXXXXX. .XXXXXXXXX",
"XX  ...XXXXX. XXXXX  XXXXXXXXXXX",
"XX.   ..XXXX. XXX. .XXXXXXXXXXXX",
"XX. XX  .XXX. XX. .XXXXXXXXXXXXX",
"XXX XXXX  .X. X  XXXXXXXXXXXXXXX",
"XXX XXXXXX     .XXXXXXXXXXXXXXXX",
"XXX .XXXXXX.  .  XXXXXXXXXXXXXXX",
"XXX. XXXXX.  XX..  XXXXXXXXXXXXX",
"XXX. XXX.  XXXXXXX.  ..XXXXXXXXX",
"XXX. XX. XXXXXXXXXXXX  ....XXXXX",
"XXXX X  XXXXXXXXXXXXXXX    ...XX",
"XXXX  XXXXX     ...........   XX",
"XXXX............      XXXXXXXXXX",
"XXXXXXXXXXXXXXXXXXXXXXXXXXXXXXXX",
"XXXXXXXXXXXXXXXXXXXXXXXXXXXXXXXX"
};
