/* XPM */
static char *handtool_xpm[] = {
/* columns rows colors chars-per-pixel */
"32 32 3 1",
"  c black",
". c red",
"X c None",
/* pixels */
"XXXXXXXXXXXXXXXXXXXXXXXXXXXXXXXX",
"XXXXXXXXXXXXXXXXXXXXXXXXXXXXXXXX",
"XXXXXXXXXXXXXXXXXXXXXXXXXXXXXXXX",
"XX  XXXXXXXXXXXXXXXXXXXXXX   XXX",
"XX     XXXXXXXXXXXXXXXX     XXXX",
"XXX  XXXXXXXXXXXXXXXXXXXX   XXXX",
"XXX X XXXXXXXXXXXXXXXXXX X XXXXX",
"XXXXXX XXXXXXXXXXXXXXX  XX XXXXX",
"XXXXXXX  XXXXXXXXXXXX XXXXXXXXXX",
"XXXXXXXXX XXXXXXXXX  XXXXXXXXXXX",
"XXXXXXXXXX XXXXXXX XXXXXXXXXXXXX",
"XXXXXXXXXXX X..X. XXXXXXXXXXXXXX",
"XXXXXXXXXXXX.... XXXXXXXXXXXXXXX",
"XXXXXXXXXXX.......XXXXXXXXXXXXXX",
"XXXXXXXXXXXX....XXXXXXXXXXXXXXXX",
"XXXXXXXXXXXX.....XXXXXXXXXXXXXXX",
"XXXXXXXXXXX. .XX. XXXXXXXXXXXXXX",
"XXXXXXXXXXX XXXXXX XXXXXXXXXXXXX",
"XXXXXXXXXX XXXXXXXX XXXXXXXXXXXX",
"XXXXXXXXX XXXXXXXXXX XXXXXXXXXXX",
"XXXXXXXXX XXXXXXXXXX XXXXXXXXXXX",
"XXXXXXXX XXXXXXXXXXXX XXXXXXXXXX",
"XXXXXXX XXXXXXXXXXXXXX XXXXXXXXX",
"XXXXXX XXXXXXXXXXXXXXXX XXXXXXXX",
"XXXXXX XXXXXXXXXXXXXXXXX XX XXXX",
"XXXXX XXXXXXXXXXXXXXXXXXX   XXXX",
"XX X XXXXXXXXXXXXXXXXXX     XXXX",
"XX  XXXXXXXXXXXXXXXXXXXXX   XXXX",
"XX    XXXXXXXXXXXXXXXXXXXXXXXXXX",
"XX  XXXXXXXXXXXXXXXXXXXXXXXXXXXX",
"XXXXXXXXXXXXXXXXXXXXXXXXXXXXXXXX",
"XXXXXXXXXXXXXXXXXXXXXXXXXXXXXXXX"
};
