/* XPM */
static char *holddown_xpm[] = {
/* columns rows colors chars-per-pixel */
"32 32 4 1",
"  c black",
". c #c0c0c0",
"X c white",
"o c None",
/* pixels */
"oooooooooooooooooooooooooooooooo",
"oooooooooooooooooooooooooooooooo",
"oooooooooooooooooooooooooooooooo",
"oooooooooooooooooooooooooooooooo",
"oooooooooooooooooooooooooooooooo",
"oooooooooooooooooooooooooooooooo",
"oooooooooooooooooooooooooooooooo",
"oooooooooooooooooooooooooooooooo",
"oooooooooooooooooooooooooooooooo",
"oooooooooooooooooooooooooooooooo",
"ooooooooooooo       oooooooooooo",
"ooooooo ooo    .X .X  oooooooooo",
"oooooooo  o .X .X .X . ooo   ooo",
"oooooooooo o XXXXXXX .    oooooo",
"oooooooo     XX..X.XXX oo  ooooo",
"oooooo  oo X .XXXXXX.X oooo  ooo",
"oooooooooo XX.XXXXXXXX ooooooooo",
"oooooooooo XXXXXXXXXXX ooooooooo",
"oooooooooo .XXXXXXXXX oooooooooo",
"ooooooooooo .XXXXXXXX oooooooooo",
"oooooooooooo .XXXXXX ooooooooooo",
"ooooooooooooo oXXXXX ooooooooooo",
"ooooooooooooo oXXXXX ooooooooooo",
"oooooooooooooooooooooooooooooooo",
"oooooooooooooooooooooooooooooooo",
"oooooooooooooooooooooooooooooooo",
"oooooooooooooooooooooooooooooooo",
"oooooooooooooooooooooooooooooooo",
"oooooooooooooooooooooooooooooooo",
"oooooooooooooooooooooooooooooooo",
"oooooooooooooooooooooooooooooooo",
"oooooooooooooooooooooooooooooooo"
};
