/* XPM */
static char *line_xpm[] = {
/* columns rows colors chars-per-pixel */
"32 32 3 1",
"  c opaque",
". c navy",
"X c None",
/* pixels */
"XXXXXXXXXXXXXXXXXXXXXXXXXXXXXXXX",
"XXXXXXXXXXXXXXXXXXXXXXXXXXXXXXXX",
"XXXXXXXXXXXXXXXXXXXXXXXXXXXXXXXX",
"XXXXXXXXXXXXXXXXXXXXXXXXXXXXXXXX",
"XXXXXXXXXXXXXXXXXXXXXXXXXXXXXXXX",
"XXXXXXXXXXXXXXXXXXXXXXXXXXXXXXXX",
"XXXXXXXXXXXXX XXXXXXXXXXXXXXXXXX",
"XXXXXXXXXXXX   XXXXXXXXXXXXXXXXX",
"XXXXXXXXXXXXX   XXXXXXXXXXXXXXXX",
"XXXXXXXXXXXXXX   XXXXXXXXXXXXXXX",
"XXXXXXXXXXXXXXX   XXXXXXXXXXXXXX",
"XXXXXXXXXXXXXXXX   XXXXXXXXXXXXX",
"XXXXXXXXXXXXXXXXX   XXXXXXXXXXXX",
"XXXXXXXXXXXXXXXXXX   XXXXXXXXXXX",
"XXXXXXXXXXXXXXXXXXX   XXXXXXXXXX",
"XXXXXXXXXXXXXXXXXXXX   XXXXXXXXX",
"XXXXXXXXXXXXXXXXXXXXX   XXXXXXXX",
"XXXXXXXXXXXXXXXXXXXXXX   XXXXXXX",
"XXXXXXXXXXXXXXXXXXXXXXX   XXXXXX",
"XXXXX........XXXXXXXXXXX XXXXXXX",
"XXXXXXX......XXXXXXXXXXXXXXXXXXX",
"XXXXXXX......XXXXXXXXXXXXXXXXXXX",
"XXXXXX.......XXXXXXXXXXXXXXXXXXX",
"XXXXX........XXXXXXXXXXXXXXXXXXX",
"XXXX.........XXXXXXXXXXXXXXXXXXX",
"XXX.......XX.XXXXXXXXXXXXXXXXXXX",
"XXX......XXX.XXXXXXXXXXXXXXXXXXX",
"XXX.....XXXXXXXXXXXXXXXXXXXXXXXX",
"XXX....XXXXXXXXXXXXXXXXXXXXXXXXX",
"XXXXXXXXXXXXXXXXXXXXXXXXXXXXXXXX",
"XXXXXXXXXXXXXXXXXXXXXXXXXXXXXXXX",
"XXXXXXXXXXXXXXXXXXXXXXXXXXXXXXXX"
};
