/* XPM */
static char *min_rectangle_xpm[] = {
/* columns rows colors chars-per-pixel */
"32 32 5 1",
"  c black",
". c navy",
"X c green",
"o c cyan",
"O c None",
/* pixels */
"OOOOOOOOOOOOOOOOOOOOOOOOOOOOOOOO",
"OOOOOOOOOOOOOOOOOOOOOOOOOOOOOOOO",
"OooooooooooooooooooooooooooooooO",
"Oo............................oO",
"Oo............................oO",
"Oo..XX...................XX...oO",
"Oo..XX...................XX...oO",
"Oo...........XX.....XX........oO",
"Oo...........XX.....XX........oO",
"Oo............................oO",
"Oo............................oO",
"Oo.......................XX...oO",
"Oo....XX.....XX..........XX...oO",
"Oo....XX.....XX.....XX........oO",
"Oo..................XX........oO",
"Oo............................oO",
"Oo............................oO",
"Oo.............XX.............oO",
"Oo.............XX.............oO",
"Oo.....XX.................XX..oO",
"Oo.....XX.................XX..oO",
"Oo............................oO",
"Oo............................oO",
"Oo............................oO",
"Oo..XX........................oO",
"Oo..XX.......XX..XX..XX...XX..oO",
"Oo...........XX..XX..XX...XX..oO",
"Oo............................oO",
"Oo............................oO",
"OooooooooooooooooooooooooooooooO",
"OOOOOOOOOOOOOOOOOOOOOOOOOOOOOOOO",
"OOOOOOOOOOOOOOOOOOOOOOOOOOOOOOOO"
};
