/* XPM */
static char *notool_xpm[] = {
/* columns rows colors chars-per-pixel */
"32 32 3 1",
"  c black",
". c red",
"X c None",
/* pixels */
"XXXXXXXXXXXXXXXXXXXXXXXXXXXXXXXX",
"XXXXXXXXXXXXXXXXXXXXXXXXXXXXXXXX",
"XXXXXXXXXXXXXXXXXXXXXXXXXXXXXXXX",
"XXXXXXXXXXXXXXXXXXXXXXXXXXXXXXXX",
"XXXXXXXXXXXXXXXXXXXXXXXXXXXXXXXX",
"XXXXXXXXXXX..........XXXXXXXXXXX",
"XXXXXXXXXX............XXXXXXXXXX",
"XXXXXXXX................XXXXXXXX",
"XXXXXXX.....XXXXXXXX.....XXXXXXX",
"XXXXXXX....XXXXXXXX......XXXXXXX",
"XXXXXX....XXXXXXXX........XXXXXX",
"XXXXX....XXXXXXXX....XX....XXXXX",
"XXXXX...XXXXXXXX....XXXX...XXXXX",
"XXXXX...XXXXXXX....XXXXX...XXXXX",
"XXXXX...XXXXXX....XXXXXX...XXXXX",
"XXXXX...XXXXX....XXXXXXX...XXXXX",
"XXXXX...XXXX....XXXXXXXX...XXXXX",
"XXXXX...XXX....XXXXXXXXX...XXXXX",
"XXXXX...XX....XXXXXXXXXX...XXXXX",
"XXXXX........XXXXXXXXXX....XXXXX",
"XXXXXX......XXXXXXXXXX....XXXXXX",
"XXXXXXX....XXXXXXXXXX....XXXXXXX",
"XXXXXXX.....XXXXXXXX.....XXXXXXX",
"XXXXXXXX................XXXXXXXX",
"XXXXXXXXXX............XXXXXXXXXX",
"XXXXXXXXXXX..........XXXXXXXXXXX",
"XXXXXXXXXXXXXXXXXXXXXXXXXXXXXXXX",
"XXXXXXXXXXXXXXXXXXXXXXXXXXXXXXXX",
"XXXXXXXXXXXXXXXXXXXXXXXXXXXXXXXX",
"XXXXXXXXXXXXXXXXXXXXXXXXXXXXXXXX",
"XXXXXXXXXXXXXXXXXXXXXXXXXXXXXXXX",
"XXXXXXXXXXXXXXXXXXXXXXXXXXXXXXXX"
};
