/* XPM */
static char *points_xpm[] = {
/* columns rows colors chars-per-pixel */
"32 32 2 1",
"  c black",
". c None",
/* pixels */
"................................",
".  ......  ..................  .",
".  ......  ..................  .",
"................................",
"................................",
".......................  .......",
".......  ......  ......  .......",
".......  ......  ...............",
"................................",
"................................",
".........  .....................",
".........  ...............  ....",
"....  ..........  ........  ....",
"....  ..........  ..............",
"................................",
"........  ...........  .........",
"........  ...........  .........",
"................................",
"............................  ..",
".....  .........  ..........  ..",
".....  .........  ..............",
"................................",
"................................",
"..........  ....................",
"..........  ............  ......",
"....................  ..  ......",
"....................  ..........",
"................................",
"................................",
".  ............  ............  .",
".  ............  ............  .",
"................................"
};

/* XPM */
static char * points_small_xpm[] = {
"16 16 3 1",
" 	c None",
".	c #35E8D9",
"+	c #000000",
"    ....+...    ",
"   ....+++...   ",
"  ......+.....  ",
" .............. ",
"...+.........+..",
"..+++.......+++.",
"...+....+....+..",
".......+++......",
"........+.......",
"............+...",
"..+........+++..",
".+++...+....+...",
" .+...+++...... ",
"  .....+......  ",
"   ..........   ",
"    ........    "};
