/* XPM */
static char *polygon_xpm[] = {
/* columns rows colors chars-per-pixel */
"32 32 4 1",
"  c opaque",
". c navy",
"X c #c0c0c0",
"o c None",
/* pixels */
"oooooooooooooooooooooooooooooooo",
"oooooo                        oo",
"oooooo XXXXXXXXXXXXXXXXXXXXXX oo",
"oooooo XXXXXXXXXXXXXXXXXXXXXX oo",
"oooooo XXXXXXXXXXXXXXXXXXXXXX oo",
"oooooo XXXXXXXXXXXXXXXXXXXXXX oo",
"oooooo XXXXXXXXXXXX           oo",
"oooooo XXXXXXXXXXXX oooooooooooo",
"oooooo XXXXXXXXXXXX oooooooooooo",
"oooooo         XXXX oooooooooooo",
"oooooooooooooo XXXX oooooooooooo",
"oooooooooooooo XXXX         oooo",
"oooooooooooooo XXXXXXXXXXXX oooo",
"oooooooooooooo XXXXXXXXXXXX oooo",
"oooooooooooooo XXXXXXXXXXXX oooo",
"oooooooooooooo XXXXXXXXXXXX oooo",
"oooooooooooooo      XXXXXXX oooo",
"ooooooooooooooooooo XXXXXXX oooo",
"ooooooooooooooooooo XXXXXXX oooo",
"ooooo........oooooo XXXXXXX oooo",
"ooooooo......oooooo XXXXXXX oooo",
"ooooooo......oooooo         oooo",
"oooooo.......ooooooooooooooooooo",
"ooooo........ooooooooooooooooooo",
"oooo.........ooooooooooooooooooo",
"ooo.......oo.ooooooooooooooooooo",
"ooo......ooo.ooooooooooooooooooo",
"ooo.....oooooooooooooooooooooooo",
"ooo....ooooooooooooooooooooooooo",
"oooooooooooooooooooooooooooooooo",
"oooooooooooooooooooooooooooooooo",
"oooooooooooooooooooooooooooooooo"
};
