/* XPM */
static char *voronoi_xpm[] = {
/* columns rows colors chars-per-pixel */
"32 32 3 1",
"  c black",
". c red",
"X c None",
/* pixels */
"XXXXXXXXXXXXXXXXXXXXXXXX.XXXXXXX",
"XXXXXXXXXXXXXXXXXXXXXXX.XXXXXXXX",
"XXXXXXXXXXXXXXXXXXXXXXX.XXXXXXXX",
"XXXXXXXXXXXXXXXXXXXXXX.XXXXXXXXX",
"XXXXXXXXXXXXX  XXXXXXX.XXXXXXXXX",
"XXXXXXXXXXXX     XXXX.XXXXXXXXXX",
".XXXXXXXXXXX  X    X..XXXXXXXXXX",
"..XXXXXXXXX X XXX   .XXXXXXXXXXX",
"X..XXXXXXX  X XXXXX.. XXXXXXXXXX",
"XX..XXXXXX XX XXXX..X   XXXXXXXX",
"XXX...XXX XXX XXXX..XXX  XXXXXXX",
"XXXX...X  XXX XXX..XXXX XXXXXXXX",
"XXXXXX.. XXXX XXX..XXXX XXXXXXXX",
"XXXXXXX..XXXX XX..XXXX XXXXXXXXX",
"XXXXXX  ..........XXX XXXXXXXXXX",
"XXXXX  XX..........X  XXXXXXXXXX",
"XXXXX XXX..XX XXXX.. XXXXXXXXXXX",
"XXXX  XXX.XXX XXXXX...XXXXXXXXXX",
"XXXX  XX..XXX XXXX  ...XXXXXXXXX",
"XXXXX  ..XXXX XXX  XXX..XXXXXXXX",
"XXXXXX . XXXX XXX XXXXX..XXXXXXX",
"XXXXXX..  XXX XX  XXXXXX..XXXXXX",
"XXXXXX.XX   X X  XXXXXXXX..XXXXX",
"XXXXX.XXXX      XXXXXXXXXX..XXXX",
"XXXX..XXXXXX    XXXXXXXXXXX...XX",
"XXXX.XXXXXXXX  XXXXXXXXXXXXX...X",
"XXX.XXXXXXXXXXXXXXXXXXXXXXXXXX..",
"XX..XXXXXXXXXXXXXXXXXXXXXXXXXXX.",
"XX.XXXXXXXXXXXXXXXXXXXXXXXXXXXXX",
"X.XXXXXXXXXXXXXXXXXXXXXXXXXXXXXX",
"X.XXXXXXXXXXXXXXXXXXXXXXXXXXXXXX",
".XXXXXXXXXXXXXXXXXXXXXXXXXXXXXXX"
};
