/* XPM */
static char *ymonotone_xpm[] = {
/* columns rows colors chars-per-pixel */
"32 32 3 1",
"  c black",
". c red",
"X c None",
/* pixels */
"XXXXXXXXXXXXXXXXXXXXXXXXXXXXXXXX",
"XXXXXXXXXXXX...........XXXXXXXXX",
"XXXXXXXXXX...XXXXXXXXX..XXXXXXXX",
"XXXXXXXX  XX.XXXXXXX  X.XXXXXXXX",
"XXXXXX..XXXX.XXXXXX XXXX XXXXXXX",
"XXXX..XXXXXX.XXXX  XXXXXX.XXXXXX",
"XX  XXXXXXXX.XX  XXXXXXXX.XXXXXX",
"XXXX  XXXXXX.X XXXXXXXXXXX XXXXX",
"XXXXXX...XXX..XXXXXXXXXXXXX XXXX",
"XXXXXXXXX.......XXXXXXXXXXXX.XXX",
"XXXXXXXXX.XX.XXX........XXXX.XXX",
"XXXXXXXX XXX.XXXXXXXXXXX......XX",
"XXXXXXX XXXX.XXXXXXXXXXXXXX..XXX",
"XXXXXX XXXXX.XXXXXXXXXXXXX XXXXX",
"XXXXX XXXXXX.XXXXXXXXXXXX XXXXXX",
"XXXX XXXXXXX.XXXXXXXXXX..XXXXXXX",
"XXX XXXXXXXX.XXXXXXXXX XXXXXXXXX",
"XX.XXXXXXXXX.XXXXXXX..XXXXXXXXXX",
"XX...XXXXXXX.XXXXXX XXXXXXXXXXXX",
"XX.XX..XXXXX.XXXX..XXXXXXXXXXXXX",
"XX.XXXX XXXX.XXX XXXXXXXXXXXXXXX",
"XXX.XXXX..XX.XX XXXXXXXXXXXXXXXX",
"XXX.XXXXXX.....XXXXXXXXXXXXXXXXX",
"XXX.XXXXXXXX...XXXXXXXXXXXXXXXXX",
"XXX.XXXXXX..XXX....XXXXXXXXXXXXX",
"XXX.XXXXX XXXXXXXXX....XXXXXXXXX",
"XXX.XXXX XXXXXXXXXXXXXX....XXXXX",
"XXXX.X..XXXXXXXXXXXXXXX.......XX",
"XXXX..XXXXX............XXXXXXXXX",
"XXXX.......XXXXXXXXXXXXXXXXXXXXX",
"XXXXXXXXXXXXXXXXXXXXXXXXXXXXXXXX",
"XXXXXXXXXXXXXXXXXXXXXXXXXXXXXXXX"
};
