/* XPM */
static char *zoomin_reg_xpm[] = {
/* columns rows colors chars-per-pixel */
"32 32 7 1",
"  c black",
". c #008080",
"X c magenta",
"o c #808080",
"O c #c0c0c0",
"+ c white",
"@ c None",
/* pixels */
"@@@@@@@@@@@@@@@@@@@@@@@@@@@@@@@@",
"@@@@@@@@@@@@@@@@@@@@@@@@@@@@@@@@",
"@@@@@@@@@@@       OO@@@@@@@@@@@@",
"@@@@@@@@O  @@@@@@O  O@@@@@@@@@@@",
"@@@@@@@O @@@@@@@@@@O O@@@@@@@@@@",
"@@@@@@O @@@@@@@@@@@@O O@@@@@@@@@",
"@@@@@O @@@@@@@@@@@@@@O O@@@@@@@@",
"@@@@@ O@@@@@@@@@@@@@@@O @@@@@@@@",
"@@@@@ @@@@@@@@@@@@@@@@@ @@@@@@@@",
"@@@@ o@@@@@@@@@@@@@@@@@O @@@@@@@",
"@@@@ @..@@@@@@@@@@@@@@@@ @@@@@@@",
"@@@@ @.@@@@@@@@@@@@@@@@@ @@@@@@@",
"@@@o @.@@@      @@@@@@@@ @@@@@@@",
"@@@o @.@@ XXXXXX @@@@@@@ @@@@@@@",
"@@@o @.  XXXXXXXX  @@@@@ @@@@@@@",
"@@@@o . XXXXXXXXXX @@@@@ @@@@@@@",
"@@@@o oXXXXXXXXXXXX @@o  @@@@@@@",
"@@@@@o XXXXXXXXXXXXX @   @@@@@@@",
"@@@@@oo XXXXXXXXXXXX   +  @@@@@@",
"@@@@@ oo XXXXXXXXXX     +  @@@@@",
"@@@@@ Xoo  .......       +O @@@@",
"@@@@@ XXooo       Ooo   OO+O @@@",
"@@@@@ XXXXooooooo..ooo OOOO+O @@",
"@@@@@@ XXXXXXXXXXXX ooo OOOO+O @",
"@@@@@@@ XXXXXXXXXX @@ooo OOOO+  ",
"@@@@@@@  XXXXXXXX  @@@ooo OO    ",
"@@@@@@@@@ XXXXXX @@@@@@ooo     @",
"@@@@@@@@@@      @@@@@@@@ooo   @@",
"@@@@@@@@@@@@@@@@@@@@@@@@@oo@@@@@",
"@@@@@@@@@@@@@@@@@@@@@@@@@@@@@@@@",
"@@@@@@@@@@@@@@@@@@@@@@@@@@@@@@@@",
"@@@@@@@@@@@@@@@@@@@@@@@@@@@@@@@@"
};
