/* XPM */
static char *zoomin_xpm[] = {
/* columns rows colors chars-per-pixel */
"32 32 5 1",
"  c black",
". c #808080",
"X c #c0c0c0",
"o c white",
"O c None",
/* pixels */
"OOOOOOOOOOOOOOOOOOOOOOOOOOOOOOOO",
"OOOOOOOOOOOOOOOOOOOOOOOOOOOOOOOO",
"OOOOOOOOOOOOOOOOOOOOOOOOOOOOOOOO",
"OOOOOOOOOO       XXOOOOOOOOOOOOO",
"OOOOOOOX  OOOOOOX  XOOOOOOOOOOOO",
"OOOOOOX OOOOOOOOOOX XOOOOOOOOOOO",
"OOOOOX OOOOOOOOOOOOX XOOOOOOOOOO",
"OOOOX OOOOOOOOOOOOOOX XOOOOOOOOO",
"OOOO XOOOOOOO  OOOOOOX OOOOOOOOO",
"OOOO OOOOOOOO  OOOOOOO OOOOOOOOO",
"OOO .OOOOOOOO  OOOOOOOX OOOOOOOO",
"OOO OOOOOOOOO  OOOOOOOO OOOOOOOO",
"OOO OOOOO          OOOO OOOOOOOO",
"OO. OOOOO          OOOO OOOOOOOO",
"OO. OOOOOOOOO  OOOOOOOO OOOOOOOO",
"OO. OOOOOOOOO  OOOOOOOO OOOOOOOO",
"OOO. OOOOOOOO  OOOOOOOO OOOOOOOO",
"OOO. .OOOOOOO  OOOOOO.  OOOOOOOO",
"OOOO. OOOOOOOOOOOOOOO   OOOOOOOO",
"OOOO.. OOOOOOOOOOOOO  o  OOOOOOO",
"OOOOO.. OOOOOOOOOOO    o  OOOOOO",
"OOOOOO..  OOOOOOX       oX OOOOO",
"OOOOOOO...       X..   XXoX OOOO",
"OOOOOOOOO.......OO... XXXXoX OOO",
"OOOOOOOOOOOOOOOOOOO... XXXXoX OO",
"OOOOOOOOOOOOOOOOOOOO... XXXXo  O",
"OOOOOOOOOOOOOOOOOOOOO... XX    O",
"OOOOOOOOOOOOOOOOOOOOOO...     OO",
"OOOOOOOOOOOOOOOOOOOOOOO...   OOO",
"OOOOOOOOOOOOOOOOOOOOOOOO..OOOOOO",
"OOOOOOOOOOOOOOOOOOOOOOOOOOOOOOOO",
"OOOOOOOOOOOOOOOOOOOOOOOOOOOOOOOO"
};
