ply
format ascii 1.0
element vertex 300
property float x
property float y
property float z
property float radius
element edge 845
property int vertex1
property int vertex2
element face 698
property list uchar int vertex_indices
end_header
0.292241 0.268609 0.335797 0.125419
0.509108 0.631928 0.402568 0.038311
0.530809 0.402372 0.306695 0.0523174
0.495237 0.904902 0.496295 0.0167723
0.0436681 0.110153 0.116404 0.0358564
0.635365 0.201108 0.0293981 0.0146085
0.582216 0.48969 0.170144 0.0143696
0.473949 0.0824282 0.245105 0.037915
0.421641 0.424545 0.574464 0.0193086
0.230355 0.0545828 0.245289 0.0365218
0.549039 0.942961 0.440443 0.0260452
0.038319 0.21075 0.220615 0.0152119
0.323168 0.396965 0.370722 0.0657394
0.260659 0.319309 0.290908 0.138947
0.455968 0.335906 0.283121 0.107875
0.570917 0.655097 0.414655 0.0394747
0.159192 0.311363 0.325367 0.0739702
0.496583 0.243316 0.290811 0.0442671
0.649114 0.412652 0.394639 0.0176377
0.328173 0.578202 0.256272 0.0157385
0.561808 0.614954 0.36709 0.0632062
0.460137 0.323521 0.21668 0.0659041
0.438231 0.392001 0.582266 0.0171071
0.576956 0.541479 0.276719 0.0109053
0.522681 0.82741 0.460949 0.0175838
0.238555 0.347454 0.349499 0.124682
0.19 0.229861 0.164481 0.042117
0.405373 0.529292 0.179188 0.0112372
0.499129 0.561779 0.394673 0.050149
0.557029 0.704259 0.416662 0.0333877
0.310875 0.29796 0.248018 0.104538
0.122342 0.301256 0.312996 0.0468133
0.708378 0.197294 0.0408716 0.010462
0.595165 0.508947 0.222574 0.0105584
0.392914 0.484814 0.396074 0.0391789
0.219349 0.414101 0.257843 0.0629138
0.618255 0.626569 0.424718 0.0249551
0.510868 0.922569 0.487773 0.019434
0.477099 0.143208 0.266793 0.0408923
0.160102 0.240786 0.197114 0.0505272
0.415453 0.587113 0.309513 0.0120275
0.563201 0.382626 0.487156 0.0173097
0.497551 0.580536 0.348336 0.0333484
0.586011 0.664989 0.328892 0.0216558
0.258451 0.199953 0.319457 0.0817277
0.446588 0.516391 0.164589 0.0113689
0.353857 0.358583 0.334032 0.102629
0.51669 0.8108 0.46668 0.0270737
0.521065 0.50311 0.434595 0.0259579
0.651349 0.63369 0.351348 0.0129074
0.329487 0.567024 0.228901 0.0155169
0.352837 0.459417 0.400296 0.0430227
0.540311 0.795611 0.356971 0.0122974
0.234728 0.283366 0.210958 0.0714203
0.552961 0.552691 0.348714 0.0558729
0.624873 0.653642 0.4365 0.0189295
0.660189 0.211619 0.014467 0.0136202
0.0226232 0.0786476 0.124012 0.0143634
0.594772 0.575976 0.387807 0.0470725
0.508686 0.356123 0.54733 0.013783
0.489615 0.541302 0.431369 0.0259637
0.0342459 0.102249 0.1169 0.0305594
0.482217 0.533414 0.207811 0.0209178
0.402207 0.311462 0.254503 0.0872453
0.657039 0.235175 0.0729382 0.0343767
0.531397 0.778336 0.448598 0.0258374
0.591129 0.684889 0.317968 0.01819
0.539731 0.52507 0.21525 0.0191218
0.377733 0.566538 0.247458 0.0175431
0.469735 0.4169 0.540096 0.0183572
0.263498 0.304026 0.44955 0.0565619
0.531047 0.935405 0.471138 0.0229774
0.0612814 0.223308 0.162381 0.0175747
0.271062 0.0228596 0.266324 0.016358
0.516352 0.047678 0.261783 0.0111617
0.537234 0.496179 0.158163 0.0149972
0.568639 0.544682 0.307315 0.0223757
0.529572 0.458518 0.465403 0.0191568
0.36538 0.545767 0.198785 0.0130629
0.372842 0.583106 0.288492 0.0151062
0.194682 0.265159 0.372306 0.073281
0.474961 0.34786 0.289029 0.0944744
0.544804 0.986984 0.3845 0.0140125
0.4394 0.45875 0.535677 0.0178515
0.649195 0.20997 0.018536 0.0151895
0.0862445 0.0829746 0.117179 0.0102854
0.0179961 0.0905004 0.107546 0.0174698
0.542323 0.492425 0.402765 0.0445148
0.540817 0.989024 0.391569 0.0127164
0.539536 0.345819 0.525511 0.0101465
0.471653 0.58572 0.374681 0.018987
0.583464 0.719727 0.31475 0.0196418
0.626675 0.177573 0.0630672 0.0122082
0.600134 0.345911 0.474678 0.0101451
0.205057 0.42239 0.394503 0.0547253
0.461507 0.0408293 0.267003 0.01514
0.628866 0.189852 0.0450907 0.013696
0.548537 0.951716 0.405317 0.0209196
0.4971 0.480832 0.47428 0.0175086
0.0107515 0.08656 0.0996649 0.0102691
0.501019 0.885078 0.495649 0.0280077
0.442449 0.58929 0.330417 0.0160638
0.185446 0.319609 0.26815 0.0897433
0.424748 0.551912 0.22901 0.0197108
0.508926 0.851611 0.505175 0.0246712
0.0467955 0.0756286 0.125371 0.0106843
0.559294 0.955371 0.410739 0.020888
0.548534 0.743607 0.449264 0.0287184
0.25058 0.38932 0.231213 0.068807
0.699273 0.175549 0.060311 0.0113196
0.519905 0.822068 0.3949 0.0115126
0.696151 0.208867 0.0181964 0.010728
0.0321028 0.215359 0.189719 0.0166737
0.563718 0.660648 0.377402 0.0429194
0.0579411 0.113713 0.0922513 0.0257341
0.0689493 0.209989 0.18479 0.0181028
0.561323 0.968029 0.39839 0.0144247
0.560508 0.715592 0.436403 0.0288188
0.222608 0.0130505 0.270662 0.0117672
0.410333 0.258427 0.347674 0.0385905
0.210911 0.252834 0.175051 0.0472946
0.658723 0.396438 0.395904 0.0141967
0.519596 0.388238 0.519605 0.0177384
0.134639 0.20986 0.16764 0.0465702
0.540462 0.761451 0.459884 0.0266892
0.452359 0.517797 0.387386 0.0329913
0.505868 0.322251 0.211444 0.0585137
0.260857 0.178896 0.288614 0.0569148
0.493454 0.572271 0.300762 0.0183293
0.523695 0.842688 0.467421 0.0128496
0.501291 0.438544 0.341471 0.0698537
0.511604 0.0666634 0.219243 0.0145268
0.0374905 0.108651 0.080593 0.0173405
0.566856 0.754678 0.325435 0.0174501
0.10059 0.27469 0.304312 0.0319286
0.0605364 0.128698 0.124583 0.0363684
0.451719 0.260559 0.338372 0.0391339
0.708245 0.186693 0.0512154 0.0106056
0.551722 0.476942 0.34577 0.0442458
0.0909701 0.10633 0.0660505 0.0134099
0.567063 0.549847 0.291877 0.0149976
0.079124 0.121555 0.0650784 0.0165685
0.106279 0.092422 0.100588 0.0116566
0.577665 0.592807 0.383631 0.0635722
0.531828 0.915052 0.483151 0.0298768
0.411657 0.415245 0.35199 0.0884053
0.241829 0.10641 0.270567 0.0428125
0.58128 0.707841 0.344928 0.0103185
0.486683 0.501268 0.374523 0.0563131
0.490729 0.442818 0.505093 0.0181921
0.101627 0.175599 0.151269 0.0393839
0.513781 0.887593 0.4957 0.0334603
0.556238 0.95047 0.426373 0.0237012
0.563612 0.346318 0.507365 0.0118413
0.554274 0.299921 0.170884 0.039404
0.544656 0.555398 0.286341 0.0153942
0.56004 0.767689 0.343282 0.0162875
0.469666 0.573034 0.293274 0.0166239
0.647245 0.635129 0.439529 0.0171937
0.142107 0.203408 0.151201 0.0409037
0.58587 0.783299 0.518422 0.0157345
0.507824 0.875389 0.507596 0.026446
0.592613 0.404969 0.448849 0.0185968
0.584727 0.582376 0.324504 0.033395
0.549894 0.281688 0.141253 0.0414305
0.471792 0.516254 0.469671 0.0163313
0.469355 0.366819 0.568637 0.0122985
0.378456 0.310682 0.282365 0.107447
0.0800532 0.100772 0.111093 0.0220456
0.581536 0.95083 0.382497 0.014731
0.454098 0.230078 0.261681 0.0319972
0.0666098 0.236502 0.271978 0.0168878
0.562278 0.95918 0.417005 0.0160481
0.592185 0.275796 0.135342 0.0367051
0.670489 0.213609 0.0152306 0.0144971
0.649316 0.654009 0.454282 0.0227448
0.494424 0.847689 0.481329 0.0211228
0.533911 0.777222 0.468688 0.0259837
0.0242528 0.0975072 0.0783123 0.0142597
0.544186 0.93122 0.465035 0.0275697
0.492155 0.505257 0.158657 0.0128839
0.488517 0.86229 0.483538 0.0183727
0.614361 0.255988 0.106162 0.0391201
0.610409 0.755586 0.512064 0.0162078
0.627991 0.181141 0.0475996 0.0142172
0.0523716 0.207475 0.223958 0.0146391
0.0890904 0.10764 0.080823 0.0118503
0.662027 0.170153 0.0709968 0.0109737
0.253888 0.0514013 0.219506 0.0180667
0.101984 0.0898039 0.104814 0.0133786
0.42132 0.369675 0.319165 0.109046
0.645517 0.672107 0.465125 0.0223772
0.457032 0.489812 0.501739 0.0165428
0.639863 0.383219 0.416771 0.0135545
0.292307 0.257007 0.424754 0.0627746
0.58874 0.527413 0.255323 0.0100638
0.554557 0.946936 0.436313 0.0252234
0.103227 0.0990573 0.074162 0.0136862
0.474399 0.161852 0.28457 0.0357586
0.705817 0.203664 0.0289106 0.0100202
0.408911 0.405483 0.585438 0.0103961
0.631085 0.442004 0.391686 0.019345
0.0169026 0.088911 0.0894316 0.0144963
0.60777 0.346868 0.464483 0.0125313
0.49623 0.549282 0.247803 0.0191818
0.639294 0.71348 0.50036 0.0144856
0.557596 0.811188 0.524113 0.0109883
0.608384 0.370047 0.456216 0.0155365
0.515954 0.833406 0.496531 0.0261202
0.111393 0.202313 0.157689 0.0449992
0.527274 0.783691 0.474789 0.0229386
0.528636 0.974079 0.381628 0.0109728
0.433975 0.569148 0.273079 0.0175017
0.627446 0.253592 0.101477 0.0369412
0.50879 0.834155 0.41197 0.0103132
0.518858 0.868194 0.496306 0.0251775
0.483084 0.311924 0.160236 0.034687
0.650784 0.679467 0.479457 0.0176326
0.517773 0.89709 0.493333 0.0334924
0.529237 0.420341 0.491415 0.0192373
0.621444 0.353708 0.433134 0.019897
0.592523 0.762867 0.496441 0.0135526
0.622509 0.180015 0.0649869 0.015493
0.113363 0.192829 0.154936 0.0464931
0.0597128 0.111612 0.071192 0.0130019
0.464299 0.219205 0.334147 0.0210006
0.527475 0.843784 0.518266 0.0135357
0.67444 0.215971 0.0485256 0.0325522
0.0979465 0.172042 0.133637 0.0334689
0.571756 0.455257 0.430866 0.0223908
0.543305 0.946311 0.386068 0.0118085
0.512004 0.833852 0.450755 0.0144606
0.491362 0.848406 0.443771 0.0116637
0.650294 0.19127 0.0632348 0.0218205
0.51967 0.820524 0.440057 0.0109323
0.518765 0.625193 0.43004 0.0301603
0.65407 0.369257 0.411114 0.0100442
0.589782 0.948415 0.376059 0.0134825
0.63975 0.171868 0.0697922 0.0102968
0.0676781 0.07815 0.123873 0.0101873
0.657547 0.383657 0.402605 0.0130394
0.551621 0.938846 0.450718 0.0252385
0.520531 0.861062 0.474936 0.0133032
0.0273395 0.107148 0.0700056 0.0114438
0.464062 0.176131 0.258461 0.0295135
0.628004 0.720369 0.491384 0.019337
0.538978 0.924341 0.473815 0.0285859
0.585525 0.343591 0.489405 0.0103465
0.522356 0.812827 0.484463 0.0275327
0.565108 0.956266 0.395074 0.0168049
0.541704 0.796002 0.382509 0.0117526
0.0449225 0.222412 0.173278 0.0168313
0.523934 0.90502 0.489467 0.0319669
0.616675 0.398314 0.430175 0.0167037
0.0863427 0.0995524 0.107861 0.0187702
0.0303911 0.109002 0.0640976 0.010104
0.0131329 0.0914033 0.0939846 0.0114643
0.544118 0.957615 0.396529 0.0188567
0.558262 0.798415 0.498969 0.0100291
0.57191 0.76509 0.489096 0.014498
0.168954 0.21684 0.159481 0.0414709
0.577699 0.957151 0.371923 0.0157195
0.635821 0.401731 0.411146 0.0162151
0.0721155 0.14164 0.133041 0.0351594
0.0516446 0.114692 0.115734 0.038605
0.624802 0.431866 0.404399 0.0197204
0.194971 0.296462 0.243639 0.085046
0.567525 0.931636 0.376727 0.0176893
0.542619 0.496745 0.370043 0.0643291
0.0593704 0.122446 0.0625211 0.0178491
0.55392 0.942691 0.443641 0.024849
0.653068 0.368208 0.426378 0.0183218
0.560615 0.425237 0.462802 0.0193529
0.541851 0.791801 0.480172 0.0226883
0.656651 0.213564 0.0573957 0.0365395
0.63712 0.35984 0.443387 0.0165821
0.676748 0.175941 0.0757847 0.0124786
0.11058 0.103974 0.0961869 0.014571
0.601895 0.472269 0.385706 0.0235106
0.586307 0.441002 0.430211 0.0214919
0.083517 0.153545 0.141835 0.0347633
0.0385507 0.11178 0.0634987 0.0111164
0.525936 0.965916 0.375948 0.0105455
0.446615 0.0499401 0.239355 0.0107804
0.687095 0.187159 0.0594588 0.0128127
0.600619 0.460867 0.401814 0.0246221
0.702969 0.20158 0.0394822 0.0134579
0.619888 0.349443 0.456882 0.0104958
0.606728 0.424701 0.424832 0.019812
0.554409 0.767737 0.467454 0.0206006
0.575919 0.764915 0.488325 0.0122581
0.625541 0.375699 0.433669 0.0128446
0.643154 0.361944 0.418416 0.0140842
0.586082 0.944005 0.376491 0.0155019
0.533078 0.831549 0.487243 0.0148706
0.0684081 0.138652 0.125754 0.0354646
0.528648 0.913599 0.48319 0.0306762
0.535793 0.830321 0.512438 0.0128445
0.0718188 0.116257 0.100356 0.0238664
0.553404 0.949436 0.390634 0.0152512
0 25
0 30
0 44
0 46
0 70
0 80
0 119
0 167
0 190
0 194
1 15
1 20
1 28
1 29
1 42
1 90
1 113
1 235
2 81
2 130
2 138
3 37
3 100
3 151
3 218
4 61
4 86
4 105
4 132
4 135
4 202
4 264
5 84
5 96
5 274
6 33
6 67
6 75
7 38
7 74
7 95
7 131
7 283
8 22
8 69
8 83
8 200
9 73
9 118
9 146
9 188
10 71
10 97
10 152
10 179
10 196
10 241
10 246
10 270
11 112
11 115
11 171
11 185
12 25
12 46
12 51
12 145
13 16
13 25
13 30
13 31
13 35
13 44
13 46
13 53
13 80
13 102
13 108
13 127
13 167
13 266
14 17
14 21
14 63
14 81
14 126
14 130
14 136
14 167
14 170
14 190
14 225
15 20
15 29
15 36
15 55
15 113
15 117
15 143
15 235
16 25
16 31
16 80
16 102
16 134
16 266
17 38
17 136
17 170
17 198
17 225
17 244
18 121
18 201
18 240
18 262
18 265
19 50
19 68
19 79
20 28
20 42
20 43
20 49
20 54
20 87
20 113
20 128
20 143
20 163
20 268
21 63
21 126
21 164
21 216
22 69
22 166
22 200
23 67
23 76
23 140
23 155
23 195
24 47
24 65
24 129
24 231
24 234
25 35
25 46
25 70
25 80
25 94
25 102
25 194
26 39
26 53
26 120
26 260
27 45
27 62
27 78
27 103
28 42
28 48
28 60
28 87
28 90
28 125
28 143
28 148
28 235
29 65
29 107
29 113
29 117
29 235
30 44
30 53
30 63
30 108
30 127
30 167
31 102
31 134
32 137
32 199
32 227
32 284
32 286
33 67
33 195
34 51
34 125
34 145
35 94
35 102
35 108
36 55
36 143
36 158
36 175
37 71
37 218
37 252
37 296
38 198
38 244
39 53
39 120
39 123
39 260
39 266
40 79
40 101
40 157
40 212
41 89
41 93
41 122
41 153
41 162
41 207
41 219
41 247
41 272
42 54
42 90
42 101
42 128
42 148
42 157
43 66
43 113
43 147
44 80
44 127
44 146
45 62
45 103
45 180
46 51
46 119
46 145
46 167
46 190
47 65
47 110
47 129
47 176
47 177
47 208
47 210
47 231
47 234
47 248
47 250
47 273
48 60
48 77
48 87
48 98
48 148
48 165
48 229
49 143
50 68
50 78
51 145
52 110
52 133
52 156
52 250
53 120
53 266
54 58
54 76
54 128
54 138
54 140
54 143
54 148
54 155
54 163
54 268
55 158
55 175
55 191
56 84
56 174
56 227
56 274
57 61
57 86
57 99
57 105
58 143
59 69
59 89
59 122
59 166
60 148
60 165
61 86
61 105
61 132
62 67
62 103
62 180
62 204
63 167
63 170
63 190
64 182
64 213
64 227
64 274
65 107
65 110
65 124
65 177
65 210
65 234
65 289
66 91
66 113
66 147
67 75
67 155
67 180
67 195
67 204
68 78
68 79
68 103
68 212
69 83
69 122
69 149
69 166
70 80
70 194
71 179
71 241
71 246
71 296
72 115
72 209
72 223
72 251
73 118
73 146
73 188
74 95
74 131
75 180
76 140
76 155
76 163
77 87
77 98
77 149
77 219
77 229
77 272
78 103
79 212
80 194
81 126
81 130
81 190
82 88
82 116
82 211
82 257
83 149
83 192
84 274
85 168
85 189
85 239
85 254
86 99
86 132
86 202
86 256
87 148
87 229
87 268
87 285
88 116
88 211
88 257
89 122
89 153
90 101
91 133
91 147
91 156
92 184
92 222
92 238
93 203
93 207
93 247
95 283
96 184
96 233
96 274
97 106
97 152
97 196
97 230
97 249
97 257
98 149
98 165
98 192
99 202
99 256
100 104
100 151
100 161
100 181
100 218
100 242
101 157
101 212
102 134
102 266
103 204
103 212
104 161
104 176
104 181
104 208
104 215
104 226
105 239
105 264
106 116
106 152
106 172
106 249
106 257
107 117
107 124
107 259
107 289
109 137
109 276
109 284
110 214
110 234
110 250
111 174
111 199
111 227
111 286
112 115
112 185
112 251
113 143
113 147
114 132
114 135
114 141
114 168
114 186
114 224
114 254
114 264
114 281
114 295
114 298
115 150
115 185
115 209
115 223
115 251
116 169
116 172
116 237
116 249
116 257
117 289
119 136
119 167
119 190
120 266
121 240
121 262
122 149
122 153
122 219
123 159
123 209
123 223
123 260
124 177
124 210
124 289
125 145
125 148
126 154
126 164
126 216
127 146
128 155
128 157
128 204
129 176
129 181
129 231
129 242
129 248
129 294
130 138
130 145
130 148
130 190
130 268
132 178
132 202
132 224
132 243
132 255
132 264
132 281
133 147
133 156
134 171
134 266
135 168
135 263
135 264
135 280
135 295
135 298
136 167
136 170
136 190
136 225
137 199
137 284
137 286
138 268
139 141
139 186
139 197
139 224
139 269
139 277
140 155
140 163
141 186
141 197
141 224
141 269
142 189
142 197
142 254
142 277
143 163
143 235
143 268
144 246
144 252
144 296
145 148
145 190
146 188
147 156
148 268
149 192
149 219
150 209
150 223
150 228
150 280
151 161
151 215
151 218
151 242
152 172
152 196
152 257
153 247
154 164
154 173
155 163
155 204
156 250
157 204
157 212
158 175
159 209
159 223
159 228
159 260
160 183
160 206
160 221
160 258
160 290
161 181
161 215
161 218
162 207
162 253
162 272
162 279
162 288
164 173
164 182
164 216
165 192
167 170
167 190
168 239
168 254
168 263
168 264
168 295
168 298
169 237
169 249
169 261
169 267
169 293
169 299
170 198
170 225
170 244
171 185
172 196
173 182
173 213
174 227
175 191
175 217
176 181
176 208
176 231
176 232
176 248
177 210
177 273
177 289
178 202
178 243
178 255
178 256
179 241
179 246
179 296
181 232
181 242
182 213
182 274
183 205
183 221
183 245
184 222
184 233
184 238
184 274
186 197
186 224
186 254
186 277
186 298
187 233
187 238
187 276
187 284
189 254
189 277
191 217
191 245
193 236
193 240
193 253
193 262
193 271
193 291
193 292
196 241
196 270
197 254
197 277
198 225
198 244
199 286
201 265
201 278
201 285
202 256
203 207
203 220
203 287
204 212
205 217
205 245
206 226
206 258
206 297
207 220
207 253
207 275
207 287
207 291
208 215
208 226
208 248
208 294
208 297
209 223
209 228
210 248
210 273
211 257
211 282
213 274
214 231
214 232
214 234
215 218
215 242
215 294
217 245
218 252
218 296
219 272
220 271
220 275
220 287
220 291
220 292
221 245
221 259
221 273
221 289
221 290
222 233
222 238
223 228
223 251
224 269
224 281
226 248
226 258
226 297
227 274
227 284
227 286
228 263
228 280
228 295
229 268
229 272
229 279
229 285
230 249
230 257
230 267
230 282
230 299
231 232
231 234
233 238
233 274
233 276
233 284
234 250
236 240
236 271
236 292
237 249
237 261
237 293
239 264
240 262
241 270
242 294
243 255
246 296
248 258
248 273
248 294
248 297
249 257
249 261
249 267
249 299
252 296
253 262
253 288
253 291
254 277
254 298
255 281
257 282
257 299
258 259
258 273
258 290
258 297
259 273
259 289
259 290
261 267
261 293
261 299
262 265
262 288
263 280
263 295
264 295
265 285
265 288
267 293
267 299
268 278
268 285
269 281
271 275
271 291
271 292
272 279
273 289
273 290
273 294
274 276
274 284
275 287
275 291
276 284
278 285
279 285
279 288
284 286
285 288
289 290
295 298
3 0 25 46
3 0 25 70
3 0 25 80
3 0 25 194
3 0 30 44
3 0 30 167
3 0 44 80
3 0 46 119
3 0 46 167
3 0 46 190
3 0 70 80
3 0 70 194
3 0 80 194
3 0 119 167
3 0 119 190
3 0 167 190
3 1 15 20
3 1 15 29
3 1 15 113
3 1 15 235
3 1 20 28
3 1 20 42
3 1 20 113
3 1 28 42
3 1 28 90
3 1 28 235
3 1 29 113
3 1 29 235
3 1 42 90
3 2 81 130
3 2 130 138
3 3 37 218
3 3 100 151
3 3 100 218
3 3 151 218
3 4 61 86
3 4 61 105
3 4 61 132
3 4 86 132
3 4 86 202
3 4 105 264
3 4 132 202
3 4 132 264
3 4 135 264
3 5 84 274
3 5 96 274
3 6 33 67
3 6 67 75
3 7 74 95
3 7 74 131
3 7 95 283
3 8 22 69
3 8 22 200
3 8 69 83
3 9 73 118
3 9 73 146
3 9 73 188
3 9 146 188
3 10 71 179
3 10 71 241
3 10 71 246
3 10 97 152
3 10 97 196
3 10 152 196
3 10 179 241
3 10 179 246
3 10 196 241
3 10 196 270
3 10 241 270
3 11 112 115
3 11 112 185
3 11 115 185
3 11 171 185
3 12 25 46
3 12 46 51
3 12 46 145
3 12 51 145
3 13 16 25
3 13 16 31
3 13 16 80
3 13 16 102
3 13 16 266
3 13 25 35
3 13 25 46
3 13 25 80
3 13 25 102
3 13 30 44
3 13 30 53
3 13 30 108
3 13 30 127
3 13 30 167
3 13 31 102
3 13 35 102
3 13 35 108
3 13 44 80
3 13 44 127
3 13 46 167
3 13 53 266
3 13 102 266
3 14 17 136
3 14 17 170
3 14 17 225
3 14 21 63
3 14 21 126
3 14 63 167
3 14 63 170
3 14 63 190
3 14 81 126
3 14 81 130
3 14 81 190
3 14 130 190
3 14 136 167
3 14 136 170
3 14 136 190
3 14 136 225
3 14 167 170
3 14 167 190
3 14 170 225
3 15 20 113
3 15 20 143
3 15 29 113
3 15 29 117
3 15 29 235
3 15 36 55
3 15 36 143
3 15 113 143
3 15 143 235
3 16 25 80
3 16 25 102
3 16 31 102
3 16 31 134
3 16 102 134
3 16 102 266
3 16 134 266
3 17 38 198
3 17 38 244
3 17 136 170
3 17 136 225
3 17 170 198
3 17 170 225
3 17 170 244
3 17 198 225
3 17 198 244
3 18 121 240
3 18 121 262
3 18 201 265
3 18 240 262
3 18 262 265
3 19 50 68
3 19 68 79
3 20 28 42
3 20 28 87
3 20 28 143
3 20 42 54
3 20 42 128
3 20 43 113
3 20 49 143
3 20 54 128
3 20 54 143
3 20 54 163
3 20 54 268
3 20 87 268
3 20 113 143
3 20 143 163
3 20 143 268
3 21 126 164
3 21 126 216
3 21 164 216
3 22 69 166
3 23 67 155
3 23 67 195
3 23 76 140
3 23 76 155
3 23 140 155
3 24 47 65
3 24 47 129
3 24 47 231
3 24 47 234
3 24 65 234
3 24 129 231
3 24 231 234
3 25 35 94
3 25 35 102
3 25 70 80
3 25 70 194
3 25 80 194
3 26 39 53
3 26 39 120
3 26 39 260
3 26 53 120
3 27 45 62
3 27 45 103
3 27 62 103
3 27 78 103
3 28 42 90
3 28 42 148
3 28 48 60
3 28 48 87
3 28 48 148
3 28 60 148
3 28 87 148
3 28 125 148
3 28 143 235
3 29 65 107
3 29 107 117
3 30 44 127
3 30 63 167
3 31 102 134
3 32 137 199
3 32 137 284
3 32 137 286
3 32 199 286
3 32 227 284
3 32 227 286
3 32 284 286
3 33 67 195
3 34 51 145
3 34 125 145
3 36 55 158
3 36 55 175
3 36 158 175
3 37 71 296
3 37 218 252
3 37 218 296
3 37 252 296
3 38 198 244
3 39 53 120
3 39 53 266
3 39 120 266
3 39 123 260
3 40 79 212
3 40 101 157
3 40 101 212
3 40 157 212
3 41 89 122
3 41 89 153
3 41 93 207
3 41 93 247
3 41 122 153
3 41 122 219
3 41 153 247
3 41 162 207
3 41 162 272
3 41 219 272
3 42 54 128
3 42 54 148
3 42 90 101
3 42 101 157
3 42 128 157
3 43 66 113
3 43 66 147
3 43 113 147
3 44 127 146
3 45 62 103
3 45 62 180
3 46 51 145
3 46 119 167
3 46 119 190
3 46 145 190
3 46 167 190
3 47 65 110
3 47 65 177
3 47 65 210
3 47 65 234
3 47 110 234
3 47 110 250
3 47 129 176
3 47 129 231
3 47 129 248
3 47 176 208
3 47 176 231
3 47 176 248
3 47 177 210
3 47 177 273
3 47 208 248
3 47 210 248
3 47 210 273
3 47 231 234
3 47 234 250
3 47 248 273
3 48 60 148
3 48 60 165
3 48 77 87
3 48 77 98
3 48 77 229
3 48 87 148
3 48 87 229
3 48 98 165
3 50 68 78
3 52 110 250
3 52 133 156
3 52 156 250
3 53 120 266
3 54 58 143
3 54 76 140
3 54 76 155
3 54 76 163
3 54 128 155
3 54 138 268
3 54 140 155
3 54 140 163
3 54 143 163
3 54 143 268
3 54 148 268
3 54 155 163
3 55 158 175
3 55 175 191
3 56 84 274
3 56 174 227
3 56 227 274
3 57 61 86
3 57 61 105
3 57 86 99
3 59 69 122
3 59 69 166
3 59 89 122
3 61 86 132
3 62 67 180
3 62 67 204
3 62 103 204
3 63 167 170
3 63 167 190
3 64 182 213
3 64 182 274
3 64 213 274
3 64 227 274
3 65 107 124
3 65 107 289
3 65 110 234
3 65 124 177
3 65 124 210
3 65 124 289
3 65 177 210
3 65 177 289
3 66 91 147
3 66 113 147
3 67 75 180
3 67 155 204
3 68 78 103
3 68 79 212
3 68 103 212
3 69 83 149
3 69 122 149
3 70 80 194
3 71 179 241
3 71 179 246
3 71 179 296
3 71 246 296
3 72 115 209
3 72 115 223
3 72 115 251
3 72 209 223
3 72 223 251
3 73 146 188
3 76 140 155
3 76 140 163
3 76 155 163
3 77 87 229
3 77 98 149
3 77 149 219
3 77 219 272
3 77 229 272
3 81 130 190
3 82 88 116
3 82 88 211
3 82 88 257
3 82 116 257
3 82 211 257
3 83 149 192
3 85 168 239
3 85 168 254
3 85 189 254
3 86 99 202
3 86 99 256
3 86 132 202
3 86 202 256
3 87 148 268
3 87 229 268
3 87 229 285
3 87 268 285
3 88 116 257
3 88 211 257
3 89 122 153
3 91 133 147
3 91 133 156
3 91 147 156
3 92 184 222
3 92 184 238
3 92 222 238
3 93 203 207
3 96 184 233
3 96 184 274
3 96 233 274
3 97 106 152
3 97 106 249
3 97 106 257
3 97 152 196
3 97 152 257
3 97 230 249
3 97 230 257
3 97 249 257
3 98 149 192
3 98 165 192
3 99 202 256
3 100 104 161
3 100 104 181
3 100 151 161
3 100 151 218
3 100 151 242
3 100 161 181
3 100 161 218
3 100 181 242
3 101 157 212
3 102 134 266
3 103 204 212
3 104 161 181
3 104 161 215
3 104 176 181
3 104 176 208
3 104 208 215
3 104 208 226
3 105 239 264
3 106 116 172
3 106 116 249
3 106 116 257
3 106 152 172
3 106 152 257
3 106 249 257
3 107 117 289
3 107 124 289
3 107 259 289
3 109 137 284
3 109 276 284
3 110 214 234
3 110 234 250
3 111 174 227
3 111 199 286
3 111 227 286
3 112 115 185
3 112 115 251
3 114 132 224
3 114 132 264
3 114 132 281
3 114 135 168
3 114 135 264
3 114 135 295
3 114 135 298
3 114 141 186
3 114 141 224
3 114 168 254
3 114 168 264
3 114 168 295
3 114 168 298
3 114 186 224
3 114 186 254
3 114 186 298
3 114 224 281
3 114 254 298
3 114 264 295
3 114 295 298
3 115 150 209
3 115 150 223
3 115 209 223
3 115 223 251
3 116 169 237
3 116 169 249
3 116 237 249
3 116 249 257
3 119 136 167
3 119 136 190
3 119 167 190
3 121 240 262
3 122 149 219
3 123 159 209
3 123 159 223
3 123 159 260
3 123 209 223
3 124 177 210
3 124 177 289
3 125 145 148
3 126 154 164
3 126 164 216
3 128 155 204
3 128 157 204
3 129 176 181
3 129 176 231
3 129 176 248
3 129 181 242
3 129 242 294
3 129 248 294
3 130 138 268
3 130 145 148
3 130 145 190
3 130 148 268
3 132 178 202
3 132 178 243
3 132 178 255
3 132 224 281
3 132 243 255
3 132 255 281
3 133 147 156
3 135 168 263
3 135 168 264
3 135 168 295
3 135 168 298
3 135 263 280
3 135 263 295
3 135 264 295
3 135 295 298
3 136 167 170
3 136 167 190
3 136 170 225
3 137 199 286
3 137 284 286
3 139 141 186
3 139 141 197
3 139 141 224
3 139 141 269
3 139 186 197
3 139 186 224
3 139 186 277
3 139 197 277
3 139 224 269
3 140 155 163
3 141 186 197
3 141 186 224
3 141 224 269
3 142 189 254
3 142 189 277
3 142 197 254
3 142 197 277
3 142 254 277
3 144 246 296
3 144 252 296
3 150 209 223
3 150 209 228
3 150 223 228
3 150 228 280
3 151 161 215
3 151 161 218
3 151 215 218
3 151 215 242
3 152 172 196
3 154 164 173
3 157 204 212
3 159 209 223
3 159 209 228
3 159 223 228
3 160 183 221
3 160 206 258
3 160 221 290
3 160 258 290
3 161 215 218
3 162 207 253
3 162 253 288
3 162 272 279
3 162 279 288
3 164 173 182
3 168 239 264
3 168 254 298
3 168 263 295
3 168 264 295
3 168 295 298
3 169 237 249
3 169 237 261
3 169 237 293
3 169 249 261
3 169 249 267
3 169 249 299
3 169 261 267
3 169 261 293
3 169 261 299
3 169 267 293
3 169 267 299
3 170 198 225
3 170 198 244
3 173 182 213
3 175 191 217
3 176 181 232
3 176 208 248
3 176 231 232
3 177 210 273
3 177 273 289
3 178 202 256
3 178 243 255
3 179 246 296
3 182 213 274
3 183 205 245
3 183 221 245
3 184 222 233
3 184 222 238
3 184 233 238
3 184 233 274
3 186 197 254
3 186 197 277
3 186 254 277
3 186 254 298
3 187 233 238
3 187 233 276
3 187 233 284
3 187 276 284
3 189 254 277
3 191 217 245
3 193 236 240
3 193 236 271
3 193 236 292
3 193 240 262
3 193 253 262
3 193 253 291
3 193 271 291
3 193 271 292
3 196 241 270
3 197 254 277
3 201 265 285
3 201 278 285
3 203 207 220
3 203 207 287
3 203 220 287
3 205 217 245
3 206 226 258
3 206 226 297
3 206 258 297
3 207 220 275
3 207 220 287
3 207 220 291
3 207 253 291
3 207 275 287
3 207 275 291
3 208 215 294
3 208 226 248
3 208 226 297
3 208 248 294
3 208 248 297
3 209 223 228
3 210 248 273
3 211 257 282
3 214 231 232
3 214 231 234
3 215 242 294
3 218 252 296
3 220 271 275
3 220 271 291
3 220 271 292
3 220 275 287
3 220 275 291
3 221 259 273
3 221 259 289
3 221 259 290
3 221 273 289
3 221 273 290
3 221 289 290
3 222 233 238
3 224 269 281
3 226 248 258
3 226 248 297
3 226 258 297
3 227 274 284
3 227 284 286
3 228 263 280
3 228 263 295
3 229 268 285
3 229 272 279
3 229 279 285
3 230 249 257
3 230 249 267
3 230 249 299
3 230 257 282
3 230 257 299
3 230 267 299
3 233 274 276
3 233 274 284
3 233 276 284
3 236 271 292
3 237 249 261
3 237 261 293
3 248 258 273
3 248 258 297
3 248 273 294
3 249 257 299
3 249 261 267
3 249 261 299
3 249 267 299
3 253 262 288
3 258 259 273
3 258 259 290
3 258 273 290
3 259 273 289
3 259 273 290
3 259 289 290
3 261 267 293
3 261 267 299
3 262 265 288
3 265 285 288
3 268 278 285
3 271 275 291
3 273 289 290
3 274 276 284
3 279 285 288
