<?xml version="1.0" encoding="utf-8"?>
<!-- Generator: Adobe Illustrator 24.0.3, SVG Export Plug-In . SVG Version: 6.00 Build 0)  -->
<svg version="1.1" id="Layer_1" xmlns="http://www.w3.org/2000/svg" xmlns:xlink="http://www.w3.org/1999/xlink" x="0px" y="0px"
	 width="297.2px" height="255px" viewBox="0 0 297.2 255" style="enable-background:new 0 0 297.2 255;" xml:space="preserve">
<style type="text/css">
	.st0{fill:none;stroke:#000000;stroke-miterlimit:10;}
	.st1{fill:none;stroke:#000000;stroke-width:2;stroke-miterlimit:10;}
	.st2{fill:#4D4DFF;}
	.st3{stroke:#000000;stroke-width:0.5;stroke-linecap:round;stroke-linejoin:round;stroke-miterlimit:10;}
	.st4{fill:#5E7CEA;stroke:#000000;stroke-width:0.5;stroke-linecap:round;stroke-linejoin:round;stroke-miterlimit:10;}
</style>
<path class="st0" d="M29.2,235.7"/>
<g>
	<g>
		<line class="st1" x1="29.2" y1="7.2" x2="29.2" y2="255"/>
		<g>
			<polygon points="24.8,10.5 29.2,8.6 33.6,10.5 29.2,0 			"/>
		</g>
	</g>
</g>
<path class="st0" d="M29.2,6.9"/>
<path class="st0" d="M274.1,170.1"/>
<g>
	<g>
		<line class="st1" x1="0" y1="170.1" x2="290.1" y2="170.1"/>
		<g>
			<polygon points="286.7,174.5 288.6,170.1 286.7,165.6 297.2,170.1 			"/>
		</g>
	</g>
</g>
<path class="st0" d="M0,170.1"/>
<path class="st2" d="M32.9,170.3c0,2.2-1.8,4-4,4c-2.2,0-4-1.8-4-4c0-2.2,1.8-4,4-4C31.1,166.3,32.9,168.1,32.9,170.3z"/>
<path class="st3" d="M32.9,170.3c0,2.2-1.8,4-4,4c-2.2,0-4-1.8-4-4c0-2.2,1.8-4,4-4C31.1,166.3,32.9,168.1,32.9,170.3z"/>
<path class="st2" d="M278.1,88.6c0,2.2-1.8,4-4,4c-2.2,0-4-1.8-4-4c0-2.2,1.8-4,4-4C276.3,84.6,278.1,86.4,278.1,88.6z"/>
<path class="st3" d="M278.1,88.6c0,2.2-1.8,4-4,4c-2.2,0-4-1.8-4-4c0-2.2,1.8-4,4-4C276.3,84.6,278.1,86.4,278.1,88.6z"/>
<path class="st2" d="M196.3,6.9c0,2.2-1.8,4-4,4c-2.2,0-4-1.8-4-4c0-2.2,1.8-4,4-4C194.6,2.9,196.3,4.7,196.3,6.9z"/>
<path class="st3" d="M196.3,6.9c0,2.2-1.8,4-4,4c-2.2,0-4-1.8-4-4c0-2.2,1.8-4,4-4C194.6,2.9,196.3,4.7,196.3,6.9z"/>
<path class="st2" d="M163.7,235.7c0,2.2-1.8,4-4,4s-4-1.8-4-4c0-2.2,1.8-4,4-4S163.7,233.5,163.7,235.7z"/>
<path class="st3" d="M163.7,235.7c0,2.2-1.8,4-4,4s-4-1.8-4-4c0-2.2,1.8-4,4-4S163.7,233.5,163.7,235.7z"/>
<path class="st2" d="M98.3,104.9c0,2.2-1.8,4-4,4c-2.2,0-4-1.8-4-4c0-2.2,1.8-4,4-4C96.5,100.9,98.3,102.7,98.3,104.9z"/>
<path class="st4" d="M98.3,104.9c0,2.2-1.8,4-4,4c-2.2,0-4-1.8-4-4c0-2.2,1.8-4,4-4C96.5,100.9,98.3,102.7,98.3,104.9z"/>
<path class="st2" d="M131,72.3c0,2.2-1.8,4-4,4s-4-1.8-4-4c0-2.2,1.8-4,4-4S131,70,131,72.3z"/>
<path class="st4" d="M131,72.3c0,2.2-1.8,4-4,4s-4-1.8-4-4c0-2.2,1.8-4,4-4S131,70,131,72.3z"/>
<path class="st2" d="M163.7,39.6c0,2.2-1.8,4-4,4s-4-1.8-4-4c0-2.2,1.8-4,4-4S163.7,37.4,163.7,39.6z"/>
<path class="st4" d="M163.7,39.6c0,2.2-1.8,4-4,4s-4-1.8-4-4c0-2.2,1.8-4,4-4S163.7,37.4,163.7,39.6z"/>
<g>
	<g>
		<path d="M36.6,178.6l-1.6-0.3v-0.6h4v0.6l-2,0.3H36.6z M37.1,177.7l2.6,6.8l-0.7,0.9l2.7-7.6h0.9l-3,8h-0.7l-3.4-8H37.1z
			 M41.7,178.6l-1.7-0.3v-0.6h3.2v0.6l-1.2,0.3H41.7z"/>
		<path d="M48.4,184.8c0,2.8-1.1,3.7-2.3,3.7c-1.2,0-2.3-1-2.3-3.7c0-2.8,1.1-3.8,2.3-3.8C47.3,181.1,48.4,182,48.4,184.8z
			 M46.1,188c0.7,0,1.3-0.7,1.3-3.2c0-2.6-0.6-3.3-1.3-3.3c-0.7,0-1.3,0.6-1.3,3.3C44.8,187.4,45.4,188,46.1,188z"/>
	</g>
</g>
<g>
	<g>
		<path d="M282.7,97l-1.6-0.3V96h4v0.6l-2,0.3H282.7z M283.3,96l2.6,6.8l-0.7,0.9l2.7-7.6h0.9l-3,8H285l-3.4-8H283.3z M287.8,97
			l-1.7-0.3V96h3.2v0.6l-1.2,0.3H287.8z"/>
		<path d="M294.4,106.3v0.4h-4.1v-0.4l1.6-0.3h0.9L294.4,106.3z M292.7,99.4l0.2,0.1l0,1.6v3.2c0,0.8,0,1.6,0,2.3h-1
			c0-0.8,0-1.6,0-2.3v-4l-1.5,0.1V100L292.7,99.4z"/>
	</g>
</g>
<g>
	<g>
		<path d="M202,15.1l-1.6-0.3v-0.6h4v0.6l-2,0.3H202z M202.6,14.2l2.6,6.8l-0.7,0.9l2.7-7.6h0.9l-3,8h-0.7l-3.4-8H202.6z
			 M207.1,15.1l-1.7-0.3v-0.6h3.2v0.6l-1.2,0.3H207.1z"/>
		<path d="M209.3,24.1c0.6-0.6,1.2-1.2,1.6-1.7c1.1-1.2,1.6-2.1,1.6-3c0-0.9-0.5-1.5-1.3-1.5c-0.3,0-0.7,0.1-1.1,0.2l0.6-0.4l-0.3,1
			c-0.1,0.5-0.3,0.7-0.6,0.7c-0.2,0-0.4-0.1-0.6-0.4c0.1-1.2,1.1-1.7,2.2-1.7c1.4,0,2,0.8,2,1.9c0,1-0.5,1.7-2.2,3.4
			c-0.4,0.4-0.9,0.9-1.4,1.4l-0.1-0.2h4.1v0.9h-4.5V24.1z"/>
	</g>
</g>
<g>
	<g>
		<path d="M168.1,244l-1.6-0.3V243h4v0.6l-2,0.3H168.1z M168.7,243l2.6,6.8l-0.7,0.9l2.7-7.6h0.9l-3,8h-0.7l-3.4-8H168.7z
			 M173.2,244l-1.7-0.3V243h3.2v0.6l-1.2,0.3H173.2z"/>
		<path d="M177.2,249.7c1,0,1.6-0.5,1.6-1.5c0-0.8-0.5-1.3-1.4-1.3c-0.2,0-0.6,0-0.9,0.2l0.5-0.3l-0.2,0.8c-0.1,0.5-0.3,0.7-0.6,0.7
			c-0.2,0-0.5-0.1-0.6-0.4c0.2-0.9,1-1.4,2.1-1.4c1.3,0,2.1,0.7,2.1,1.7c0,0.9-0.7,1.7-1.9,1.9v-0.2c1.4,0.1,2.1,0.8,2.1,1.9
			c0,1.2-1,2.1-2.5,2.1c-1.1,0-1.9-0.5-2.1-1.6c0.1-0.2,0.3-0.4,0.6-0.4c0.4,0,0.5,0.2,0.6,0.8l0.2,0.8l-0.4-0.4
			c0.4,0.2,0.7,0.2,1,0.2c1.1,0,1.7-0.6,1.7-1.6c0-1-0.6-1.6-1.7-1.6h-0.5v-0.6H177.2z"/>
	</g>
</g>
</svg>
