<?xml version="1.0" encoding="utf-8"?>
<!-- Generator: Adobe Illustrator 24.0.3, SVG Export Plug-In . SVG Version: 6.00 Build 0)  -->
<svg version="1.1" xmlns="http://www.w3.org/2000/svg" xmlns:xlink="http://www.w3.org/1999/xlink" x="0px" y="0px" width="581.6px"
	 height="271px" viewBox="0 0 581.6 271" style="enable-background:new 0 0 581.6 271;" xml:space="preserve">
<style type="text/css">
	.st0{fill-rule:evenodd;clip-rule:evenodd;fill-opacity:4.705882e-02;}
	.st1{fill-rule:evenodd;clip-rule:evenodd;fill-opacity:4.705882e-02;stroke:#000000;stroke-width:0.25;stroke-miterlimit:10;}
	.st2{fill:none;stroke:#000000;stroke-width:2;stroke-linecap:round;stroke-linejoin:round;stroke-miterlimit:10;}
	.st3{fill:none;stroke:#000000;stroke-width:2;stroke-linejoin:round;}
	.st4{fill:none;stroke:#000000;stroke-width:2;stroke-linejoin:round;stroke-dasharray:8.9096,7.9196;}
	.st5{fill:none;stroke:#000000;stroke-width:2;stroke-linejoin:round;stroke-dasharray:9.2828,8.2514;}
	.st6{fill:none;stroke:#000000;stroke-width:2;stroke-linejoin:round;stroke-dasharray:9.5426,8.4823;}
	.st7{fill:none;stroke:#000000;stroke-width:2;stroke-linejoin:round;stroke-dasharray:9.1784,8.1585;}
	.st8{stroke:#000000;stroke-width:0.5;stroke-linecap:round;stroke-linejoin:round;stroke-miterlimit:10;}
	.st9{fill:#00CC00;}
	.st10{fill:#78BF5A;stroke:#000000;stroke-width:0.5;stroke-linecap:round;stroke-linejoin:round;stroke-miterlimit:10;}
	.st11{fill:none;stroke:#000000;stroke-miterlimit:10;}
</style>
<g id="Layer_1">
	<path class="st0" d="M4.2,181.9l43.6,61.5l161.9-44.4l26.5-134.7L100,5.2L8.9,66L4.2,181.9z"/>
	<path class="st1" d="M315.5,180.9l43.6,61.5L521,198.1l26.5-134.7L411.2,4.2L320.2,65L315.5,180.9z"/>
	<path class="st2" d="M4.2,181.9l43.6,61.5"/>
	<path class="st2" d="M47.8,243.4l161.9-44.4"/>
	<path class="st2" d="M209.7,199.1l26.5-134.7"/>
	<path class="st2" d="M236.2,64.4L100,5.2"/>
	<path class="st2" d="M100,5.2L8.9,66"/>
	<path class="st2" d="M8.9,66l-4.7,116"/>
	<g>
		<g>
			<line class="st3" x1="109.3" y1="123.6" x2="107.3" y2="127.6"/>
			<line class="st4" x1="103.7" y1="134.6" x2="51.7" y2="235.9"/>
			<line class="st3" x1="49.9" y1="239.4" x2="47.8" y2="243.4"/>
		</g>
	</g>
	<g>
		<g>
			<line class="st3" x1="109.3" y1="123.6" x2="113.4" y2="121.7"/>
			<line class="st5" x1="120.9" y1="118.2" x2="228.4" y2="68"/>
			<line class="st3" x1="232.1" y1="66.3" x2="236.2" y2="64.4"/>
		</g>
	</g>
	<g>
		<g>
			<line class="st3" x1="109.3" y1="123.6" x2="112.9" y2="126.3"/>
			<line class="st6" x1="119.7" y1="131.4" x2="202.8" y2="193.8"/>
			<line class="st3" x1="206.1" y1="196.4" x2="209.7" y2="199.1"/>
		</g>
	</g>
	<path class="st2" d="M315.5,180.9l43.6,61.5"/>
	<path class="st2" d="M359.1,242.4L521,198.1"/>
	<path class="st2" d="M521,198.1l26.5-134.7"/>
	<path class="st2" d="M547.5,63.4L411.2,4.2"/>
	<path class="st2" d="M411.2,4.2L320.2,65"/>
	<path class="st2" d="M320.2,65l-4.7,116"/>
	<g>
		<g>
			<line class="st3" x1="420.6" y1="122.6" x2="418.5" y2="126.6"/>
			<line class="st4" x1="414.9" y1="133.6" x2="363" y2="234.9"/>
			<line class="st3" x1="361.1" y1="238.4" x2="359.1" y2="242.4"/>
		</g>
	</g>
	<g>
		<g>
			<line class="st3" x1="420.6" y1="122.6" x2="424.7" y2="120.7"/>
			<line class="st5" x1="432.1" y1="117.2" x2="539.6" y2="67.1"/>
			<line class="st3" x1="543.4" y1="65.3" x2="547.5" y2="63.4"/>
		</g>
	</g>
	<g>
		<g>
			<line class="st3" x1="359.1" y1="242.4" x2="362.4" y2="239.3"/>
			<line class="st7" x1="368.3" y1="233.7" x2="541.2" y2="69.3"/>
			<line class="st3" x1="544.2" y1="66.5" x2="547.5" y2="63.4"/>
		</g>
	</g>
	<path d="M6.4,181.9c0,1.2-1,2.2-2.2,2.2c-1.2,0-2.2-1-2.2-2.2c0-1.2,1-2.2,2.2-2.2C5.4,179.8,6.4,180.7,6.4,181.9z"/>
	<path class="st8" d="M8.2,181.9c0,2.2-1.8,4-4,4c-2.2,0-4-1.8-4-4c0-2.2,1.8-4,4-4C6.5,177.9,8.2,179.7,8.2,181.9z"/>
	<path d="M50,243.4c0,1.2-1,2.2-2.2,2.2c-1.2,0-2.2-1-2.2-2.2c0-1.2,1-2.2,2.2-2.2C49,241.3,50,242.2,50,243.4z"/>
	<path class="st8" d="M51.8,243.4c0,2.2-1.8,4-4,4c-2.2,0-4-1.8-4-4s1.8-4,4-4C50,239.4,51.8,241.2,51.8,243.4z"/>
	<path d="M211.9,199.1c0,1.2-1,2.2-2.2,2.2c-1.2,0-2.2-1-2.2-2.2c0-1.2,1-2.2,2.2-2.2C210.9,196.9,211.9,197.9,211.9,199.1z"/>
	<path class="st8" d="M213.7,199.1c0,2.2-1.8,4-4,4c-2.2,0-4-1.8-4-4c0-2.2,1.8-4,4-4C212,195.1,213.7,196.9,213.7,199.1z"/>
	<path d="M238.4,64.4c0,1.2-1,2.2-2.2,2.2c-1.2,0-2.2-1-2.2-2.2c0-1.2,1-2.2,2.2-2.2C237.4,62.2,238.4,63.2,238.4,64.4z"/>
	<path class="st8" d="M240.2,64.4c0,2.2-1.8,4-4,4c-2.2,0-4-1.8-4-4c0-2.2,1.8-4,4-4C238.4,60.4,240.2,62.2,240.2,64.4z"/>
	<path d="M102.2,5.2c0,1.2-1,2.2-2.2,2.2c-1.2,0-2.2-1-2.2-2.2c0-1.2,1-2.2,2.2-2.2C101.2,3.1,102.2,4,102.2,5.2z"/>
	<path class="st8" d="M104,5.2c0,2.2-1.8,4-4,4c-2.2,0-4-1.8-4-4c0-2.2,1.8-4,4-4C102.2,1.2,104,3,104,5.2z"/>
	<path d="M11.1,66c0,1.2-1,2.2-2.2,2.2c-1.2,0-2.2-1-2.2-2.2c0-1.2,1-2.2,2.2-2.2C10.1,63.8,11.1,64.8,11.1,66z"/>
	<path class="st8" d="M12.9,66c0,2.2-1.8,4-4,4c-2.2,0-4-1.8-4-4c0-2.2,1.8-4,4-4C11.1,62,12.9,63.7,12.9,66z"/>
	<path class="st9" d="M111.5,123.6c0,1.2-1,2.2-2.2,2.2s-2.2-1-2.2-2.2c0-1.2,1-2.2,2.2-2.2S111.5,122.4,111.5,123.6z"/>
	<path class="st10" d="M113.3,123.6c0,2.2-1.8,4-4,4c-2.2,0-4-1.8-4-4c0-2.2,1.8-4,4-4C111.5,119.6,113.3,121.3,113.3,123.6z"/>
	<path d="M317.7,180.9c0,1.2-1,2.2-2.2,2.2c-1.2,0-2.2-1-2.2-2.2c0-1.2,1-2.2,2.2-2.2C316.7,178.8,317.7,179.7,317.7,180.9z"/>
	<path class="st8" d="M319.5,180.9c0,2.2-1.8,4-4,4c-2.2,0-4-1.8-4-4c0-2.2,1.8-4,4-4C317.7,176.9,319.5,178.7,319.5,180.9z"/>
	<path d="M361.3,242.4c0,1.2-1,2.2-2.2,2.2s-2.2-1-2.2-2.2s1-2.2,2.2-2.2S361.3,241.2,361.3,242.4z"/>
	<path class="st8" d="M363.1,242.4c0,2.2-1.8,4-4,4s-4-1.8-4-4s1.8-4,4-4S363.1,240.2,363.1,242.4z"/>
	<path d="M523.2,198.1c0,1.2-1,2.2-2.2,2.2c-1.2,0-2.2-1-2.2-2.2c0-1.2,1-2.2,2.2-2.2C522.2,195.9,523.2,196.9,523.2,198.1z"/>
	<path class="st8" d="M525,198.1c0,2.2-1.8,4-4,4c-2.2,0-4-1.8-4-4c0-2.2,1.8-4,4-4C523.2,194.1,525,195.9,525,198.1z"/>
	<path d="M549.6,63.4c0,1.2-1,2.2-2.2,2.2c-1.2,0-2.2-1-2.2-2.2c0-1.2,1-2.2,2.2-2.2C548.7,61.2,549.6,62.2,549.6,63.4z"/>
	<path class="st8" d="M551.5,63.4c0,2.2-1.8,4-4,4c-2.2,0-4-1.8-4-4s1.8-4,4-4C549.7,59.4,551.5,61.2,551.5,63.4z"/>
	<path d="M413.4,4.2c0,1.2-1,2.2-2.2,2.2s-2.2-1-2.2-2.2c0-1.2,1-2.2,2.2-2.2S413.4,3.1,413.4,4.2z"/>
	<path class="st8" d="M415.2,4.2c0,2.2-1.8,4-4,4c-2.2,0-4-1.8-4-4c0-2.2,1.8-4,4-4C413.5,0.2,415.2,2,415.2,4.2z"/>
	<path d="M322.3,65c0,1.2-1,2.2-2.2,2.2c-1.2,0-2.2-1-2.2-2.2c0-1.2,1-2.2,2.2-2.2C321.4,62.8,322.3,63.8,322.3,65z"/>
	<path class="st8" d="M324.2,65c0,2.2-1.8,4-4,4c-2.2,0-4-1.8-4-4c0-2.2,1.8-4,4-4C322.4,61,324.2,62.8,324.2,65z"/>
	<path class="st9" d="M422.8,122.6c0,1.2-1,2.2-2.2,2.2c-1.2,0-2.2-1-2.2-2.2c0-1.2,1-2.2,2.2-2.2
		C421.8,120.4,422.8,121.4,422.8,122.6z"/>
	<path class="st10" d="M424.6,122.6c0,2.2-1.8,4-4,4c-2.2,0-4-1.8-4-4c0-2.2,1.8-4,4-4C422.8,118.6,424.6,120.4,424.6,122.6z"/>
	<g>
		<g>
			<path d="M53.7,254.4l-1.8-0.3v-0.7h4.3v0.7l-2.2,0.3H53.7z M54.3,253.4l2.8,7.3l-0.7,0.9l2.9-8.3h1l-3.3,8.6h-0.7l-3.6-8.6H54.3z
				 M59.2,254.4l-1.8-0.3v-0.7h3.4v0.7l-1.3,0.3H59.2z"/>
			<path d="M62.3,265c0-0.5,0-1.8,0-2.5v-0.6c0-0.7,0-1,0-1.5l-1-0.1v-0.4l1.8-0.7l0.2,0.1l0,1.6v1.6c0,0.7,0,2,0,2.5H62.3z
				 M64.2,264.5v0.4h-2.8v-0.4l1.3-0.2H63L64.2,264.5z M62,257c0-0.5,0.3-0.8,0.8-0.8c0.4,0,0.8,0.3,0.8,0.8c0,0.4-0.3,0.8-0.8,0.8
				C62.4,257.8,62,257.5,62,257z"/>
			<path d="M65.1,261.6h2.8v0.8h-2.8V261.6z"/>
			<path d="M73.6,264.5v0.4h-4.4v-0.4l1.7-0.3h1L73.6,264.5z M71.8,257.1l0.2,0.1l0,1.7v3.5c0,0.8,0,1.7,0,2.5h-1c0-0.8,0-1.7,0-2.5
				v-4.3l-1.6,0.1v-0.5L71.8,257.1z"/>
		</g>
	</g>
	<g>
		<g>
			<path d="M219.7,209.1l-1.8-0.3v-0.7h4.3v0.7l-2.2,0.3H219.7z M220.3,208.1l2.8,7.3l-0.7,0.9l2.9-8.3h1l-3.3,8.6h-0.7l-3.6-8.6
				H220.3z M225.2,209.1l-1.8-0.3v-0.7h3.4v0.7l-1.3,0.3H225.2z"/>
			<path d="M228.3,219.7c0-0.5,0-1.8,0-2.5v-0.6c0-0.7,0-1,0-1.5l-1-0.1v-0.4l1.8-0.7l0.2,0.1l0,1.6v1.6c0,0.7,0,2,0,2.5H228.3z
				 M230.2,219.3v0.4h-2.8v-0.4l1.3-0.2h0.2L230.2,219.3z M228,211.7c0-0.5,0.3-0.8,0.8-0.8s0.8,0.3,0.8,0.8c0,0.4-0.3,0.8-0.8,0.8
				S228,212.2,228,211.7z"/>
		</g>
	</g>
	<g>
		<g>
			<path d="M246.3,73.4l-1.8-0.3v-0.7h4.3v0.7l-2.2,0.3H246.3z M246.9,72.4l2.8,7.3l-0.7,0.9l2.9-8.3h1l-3.3,8.6h-0.7l-3.6-8.6
				H246.9z M251.8,73.4l-1.8-0.3v-0.7h3.4v0.7l-1.3,0.3H251.8z"/>
			<path d="M255,84c0-0.5,0-1.8,0-2.5v-0.6c0-0.7,0-1,0-1.5l-1-0.1v-0.4l1.8-0.7l0.2,0.1l0,1.6v1.6c0,0.7,0,2,0,2.5H255z
				 M256.8,83.5V84H254v-0.4l1.3-0.2h0.2L256.8,83.5z M254.7,76c0-0.5,0.3-0.8,0.8-0.8c0.4,0,0.8,0.3,0.8,0.8c0,0.4-0.3,0.8-0.8,0.8
				C255,76.8,254.7,76.5,254.7,76z"/>
			<path d="M257.5,80.3v-0.7h5.7v0.7H257.5z M260,77h0.7v6H260V77z"/>
			<path d="M268.9,83.5V84h-4.4v-0.4l1.7-0.3h1L268.9,83.5z M267,76.1l0.2,0.1l0,1.7v3.5c0,0.8,0,1.7,0,2.5h-1c0-0.8,0-1.7,0-2.5
				v-4.3l-1.6,0.1v-0.5L267,76.1z"/>
		</g>
	</g>
	<g>
		<g>
			<path d="M105.9,103.9l-1.8-0.3v-0.7h4.3v0.7l-2.2,0.3H105.9z M106.5,102.9l2.8,7.3l-0.7,0.9l2.9-8.3h1l-3.3,8.6h-0.7l-3.6-8.6
				H106.5z M111.4,103.9l-1.8-0.3v-0.7h3.4v0.7l-1.3,0.3H111.4z"/>
		</g>
	</g>
	<g>
		<g>
			<path d="M112.4,189.2l1.8-0.3h0.4l2,0.3v0.7h-4.1V189.2z M117.8,177.8h1.1l4.1,12.2h-1.7l-3.6-10.8h0.4l-3.7,10.8h-0.8
				L117.8,177.8z M115.7,185.2h4.9l0.3,0.8h-5.4L115.7,185.2z M119.2,189.2l2.3-0.3h0.4l2.2,0.3v0.7h-4.9V189.2z"/>
			<path d="M125.6,192.9c0-0.5,0-1.8,0-2.5v-0.6c0-0.7,0-1,0-1.5l-1-0.1v-0.4l1.8-0.7l0.2,0.1l0,1.6v1.6c0,0.7,0,2,0,2.5H125.6z
				 M127.4,192.5v0.4h-2.8v-0.4l1.3-0.2h0.2L127.4,192.5z M125.3,185c0-0.5,0.3-0.8,0.8-0.8c0.4,0,0.8,0.3,0.8,0.8
				c0,0.4-0.3,0.8-0.8,0.8C125.6,185.7,125.3,185.4,125.3,185z"/>
			<path d="M128.3,189.5h2.8v0.8h-2.8V189.5z"/>
			<path d="M136.9,192.5v0.4h-4.4v-0.4l1.7-0.3h1L136.9,192.5z M135,185.1l0.2,0.1l0,1.7v3.5c0,0.8,0,1.7,0,2.5h-1
				c0-0.8,0-1.7,0-2.5v-4.3l-1.6,0.1v-0.5L135,185.1z"/>
		</g>
	</g>
	<g>
		<g>
			<path d="M180.9,129.7l1.8-0.3h0.4l2,0.3v0.7h-4.1V129.7z M186.2,118.3h1.1l4.1,12.2h-1.7l-3.6-10.8h0.4l-3.7,10.8H182
				L186.2,118.3z M184.1,125.7h4.9l0.3,0.8h-5.4L184.1,125.7z M187.7,129.7l2.3-0.3h0.4l2.2,0.3v0.7h-4.9V129.7z"/>
			<path d="M194,133.5c0-0.5,0-1.8,0-2.5v-0.6c0-0.7,0-1,0-1.5l-1-0.1v-0.4l1.8-0.7l0.2,0.1l0,1.6v1.6c0,0.7,0,2,0,2.5H194z
				 M195.9,133v0.4h-2.8V133l1.3-0.2h0.2L195.9,133z M193.7,125.5c0-0.5,0.3-0.8,0.8-0.8c0.4,0,0.8,0.3,0.8,0.8
				c0,0.4-0.3,0.8-0.8,0.8C194.1,126.3,193.7,126,193.7,125.5z"/>
		</g>
	</g>
	<g>
		<g>
			<path d="M418,103.9l-1.8-0.3v-0.7h4.3v0.7l-2.2,0.3H418z M418.6,102.9l2.8,7.3l-0.7,0.9l2.9-8.3h1l-3.3,8.6h-0.7l-3.6-8.6H418.6z
				 M423.5,103.9l-1.8-0.3v-0.7h3.4v0.7l-1.3,0.3H423.5z"/>
		</g>
	</g>
	<g>
		<g>
			<path d="M363.2,254.4l-1.8-0.3v-0.7h4.3v0.7l-2.2,0.3H363.2z M363.8,253.4l2.8,7.3l-0.7,0.9l2.9-8.3h1l-3.3,8.6h-0.7l-3.6-8.6
				H363.8z M368.7,254.4l-1.8-0.3v-0.7h3.4v0.7l-1.3,0.3H368.7z"/>
			<path d="M371.9,265c0-0.5,0-1.8,0-2.5v-0.6c0-0.7,0-1,0-1.5l-1-0.1v-0.4l1.8-0.7l0.2,0.1l0,1.6v1.6c0,0.7,0,2,0,2.5H371.9z
				 M373.7,264.5v0.4h-2.8v-0.4l1.3-0.2h0.2L373.7,264.5z M371.6,257c0-0.5,0.3-0.8,0.8-0.8c0.4,0,0.8,0.3,0.8,0.8
				c0,0.4-0.3,0.8-0.8,0.8C371.9,257.8,371.6,257.5,371.6,257z"/>
			<path d="M374.6,261.6h2.8v0.8h-2.8V261.6z"/>
			<path d="M383.1,264.5v0.4h-4.4v-0.4l1.7-0.3h1L383.1,264.5z M381.3,257.1l0.2,0.1l0,1.7v3.5c0,0.8,0,1.7,0,2.5h-1
				c0-0.8,0-1.7,0-2.5v-4.3l-1.6,0.1v-0.5L381.3,257.1z"/>
		</g>
	</g>
	<g>
		<g>
			<path d="M531,209.1l-1.8-0.3v-0.7h4.3v0.7l-2.2,0.3H531z M531.6,208.1l2.8,7.3l-0.7,0.9l2.9-8.3h1l-3.3,8.6h-0.7l-3.6-8.6H531.6z
				 M536.5,209.1l-1.8-0.3v-0.7h3.4v0.7l-1.3,0.3H536.5z"/>
			<path d="M539.6,219.7c0-0.5,0-1.8,0-2.5v-0.6c0-0.7,0-1,0-1.5l-1-0.1v-0.4l1.8-0.7l0.2,0.1l0,1.6v1.6c0,0.7,0,2,0,2.5H539.6z
				 M541.5,219.3v0.4h-2.8v-0.4l1.3-0.2h0.2L541.5,219.3z M539.3,211.7c0-0.5,0.3-0.8,0.8-0.8s0.8,0.3,0.8,0.8
				c0,0.4-0.3,0.8-0.8,0.8S539.3,212.2,539.3,211.7z"/>
		</g>
	</g>
	<g>
		<g>
			<path d="M558.4,73.4l-1.8-0.3v-0.7h4.3v0.7l-2.2,0.3H558.4z M559,72.4l2.8,7.3l-0.7,0.9l2.9-8.3h1l-3.3,8.6h-0.7l-3.6-8.6H559z
				 M563.9,73.4l-1.8-0.3v-0.7h3.4v0.7l-1.3,0.3H563.9z"/>
			<path d="M567,84c0-0.5,0-1.8,0-2.5v-0.6c0-0.7,0-1,0-1.5l-1-0.1v-0.4l1.8-0.7l0.2,0.1l0,1.6v1.6c0,0.7,0,2,0,2.5H567z
				 M568.9,83.5V84h-2.8v-0.4l1.3-0.2h0.2L568.9,83.5z M566.7,76c0-0.5,0.3-0.8,0.8-0.8c0.4,0,0.8,0.3,0.8,0.8
				c0,0.4-0.3,0.8-0.8,0.8C567.1,76.8,566.7,76.5,566.7,76z"/>
			<path d="M569.6,80.3v-0.7h5.7v0.7H569.6z M572.1,77h0.7v6h-0.7V77z"/>
			<path d="M580.9,83.5V84h-4.4v-0.4l1.7-0.3h1L580.9,83.5z M579.1,76.1l0.2,0.1l0,1.7v3.5c0,0.8,0,1.7,0,2.5h-1c0-0.8,0-1.7,0-2.5
				v-4.3l-1.6,0.1v-0.5L579.1,76.1z"/>
		</g>
	</g>
	<g>
		<g>
			<path d="M428.3,134.4v-0.7h2.5v1h-0.2L428.3,134.4z M430.8,144.8v1h-2.5V145l2.3-0.3H430.8z M430,139.3c0-1.9,0-3.7-0.1-5.6h1.7
				c-0.1,1.8-0.1,3.7-0.1,5.6v0.6c0,2.1,0,4,0.1,5.9H430c0.1-1.8,0.1-3.7,0.1-5.6V139.3z M430.8,139.1h1.8c2.2,0,3.2-0.7,3.2-2.4
				s-1-2.2-2.8-2.2h-2.1v-0.8h2.7c2.5,0,3.9,1.2,3.9,3c0,1.4-1,2.6-3.4,2.9v-0.2c2.8,0.2,4,1.5,4,3c0,1.6-1.4,3.3-4.8,3.3h-2.4v-0.8
				h2c2.3,0,3.5-0.9,3.5-2.5c0-1.7-1.1-2.5-3.6-2.5h-1.8V139.1z"/>
			<path d="M440.1,148.8c0-0.5,0-1.8,0-2.5v-0.6c0-0.7,0-1,0-1.5l-1-0.1v-0.4l1.8-0.7l0.2,0.1l0,1.6v1.6c0,0.7,0,2,0,2.5H440.1z
				 M442,148.3v0.4h-2.8v-0.4l1.3-0.2h0.2L442,148.3z M439.8,140.8c0-0.5,0.3-0.8,0.8-0.8c0.4,0,0.8,0.3,0.8,0.8
				c0,0.4-0.3,0.8-0.8,0.8C440.2,141.6,439.8,141.3,439.8,140.8z"/>
		</g>
	</g>
	<g>
		<g>
			<path d="M164.3,12.1v-0.7h2.5v1h-0.2L164.3,12.1z M167.1,22.5l2.3,0.3v0.7h-5v-0.7l2.3-0.3H167.1z M166.1,17c0-1.9,0-3.7-0.1-5.6
				h1.7c-0.1,1.8-0.1,3.7-0.1,5.6v1.1c0,1.8,0,3.5,0.1,5.4H166c0.1-1.8,0.1-3.7,0.1-5.6V17z M168.7,18.7h-1.8v-0.8h2.1
				c2.2,0,3.1-1.2,3.1-2.9c0-1.7-1-2.8-3.2-2.8h-2v-0.8h2.3c3,0,4.5,1.5,4.5,3.6C173.7,17,172.3,18.7,168.7,18.7z"/>
		</g>
	</g>
	<g>
		<g>
			<path d="M477.2,12.1v-0.7h2.5v1h-0.2L477.2,12.1z M479.9,22.5l2.3,0.3v0.7h-5v-0.7l2.3-0.3H479.9z M478.9,17c0-1.9,0-3.7-0.1-5.6
				h1.7c-0.1,1.8-0.1,3.7-0.1,5.6v1.1c0,1.8,0,3.5,0.1,5.4h-1.7c0.1-1.8,0.1-3.7,0.1-5.6V17z M481.5,18.7h-1.8v-0.8h2.1
				c2.2,0,3.1-1.2,3.1-2.9c0-1.7-1-2.8-3.2-2.8h-2v-0.8h2.3c3,0,4.5,1.5,4.5,3.6C486.6,17,485.2,18.7,481.5,18.7z"/>
		</g>
	</g>
	<g>
		<g>
			<path d="M151.5,78.2v-0.8c0-1,0-1.5-0.1-2.3l-1.4-0.2v-0.6l2.4-1.1l0.3,0.2l0.2,2.3v2.6c0,1.1,0,3,0.1,3.8h-1.5
				C151.5,81.2,151.5,79.3,151.5,78.2z M150.1,81.3l2-0.4h0.4l2,0.4V82h-4.3V81.3z M152.2,75.7h1l-0.5,0.1c0.6-1.7,1.7-2.7,2.7-2.7
				c0.5,0,1.1,0.3,1.3,0.6c0,0.8-0.3,1.3-1,1.3c-0.4,0-0.8-0.2-1.1-0.4l-0.5-0.4l0.9-0.2c-1.1,0.6-1.8,1.5-2.2,2.9h-0.7V75.7z"/>
			<path d="M158.2,85c0-0.5,0-1.8,0-2.5v-0.6c0-0.7,0-1,0-1.5l-1-0.1v-0.4l1.8-0.7l0.2,0.1l0,1.6v1.6c0,0.7,0,2,0,2.5H158.2z
				 M160.1,84.5V85h-2.8v-0.4l1.3-0.2h0.2L160.1,84.5z M157.9,77c0-0.5,0.3-0.8,0.8-0.8c0.4,0,0.8,0.3,0.8,0.8
				c0,0.4-0.3,0.8-0.8,0.8C158.3,77.8,157.9,77.5,157.9,77z"/>
			<path d="M160.8,81.3v-0.7h5.7v0.7H160.8z M163.3,78h0.7v6h-0.7V78z"/>
			<path d="M172.1,84.5V85h-4.4v-0.4l1.7-0.3h1L172.1,84.5z M170.3,77.1l0.2,0.1l0,1.7v3.5c0,0.8,0,1.7,0,2.5h-1c0-0.8,0-1.7,0-2.5
				v-4.3l-1.6,0.1v-0.5L170.3,77.1z"/>
		</g>
	</g>
	<g>
		<g>
			<path d="M162.7,149.1v-0.8c0-1,0-1.5-0.1-2.3l-1.4-0.2v-0.6l2.4-1.1l0.3,0.2l0.2,2.3v2.6c0,1.1,0,3,0.1,3.8h-1.5
				C162.6,152.1,162.7,150.3,162.7,149.1z M161.3,152.3l2-0.4h0.4l2,0.4v0.6h-4.3V152.3z M163.4,146.7h1l-0.5,0.1
				c0.6-1.7,1.7-2.7,2.7-2.7c0.5,0,1.1,0.3,1.3,0.6c0,0.8-0.3,1.3-1,1.3c-0.4,0-0.8-0.2-1.1-0.4l-0.5-0.4l0.9-0.2
				c-1.1,0.6-1.8,1.5-2.2,2.9h-0.7V146.7z"/>
			<path d="M169.4,155.9c0-0.5,0-1.8,0-2.5v-0.6c0-0.7,0-1,0-1.5l-1-0.1v-0.4l1.8-0.7l0.2,0.1l0,1.6v1.6c0,0.7,0,2,0,2.5H169.4z
				 M171.3,155.5v0.4h-2.8v-0.4l1.3-0.2h0.2L171.3,155.5z M169.1,148c0-0.5,0.3-0.8,0.8-0.8c0.4,0,0.8,0.3,0.8,0.8
				c0,0.4-0.3,0.8-0.8,0.8C169.5,148.7,169.1,148.4,169.1,148z"/>
		</g>
	</g>
	<g>
		<g>
			<path d="M55.6,170.2v-0.8c0-1,0-1.5-0.1-2.3l-1.4-0.2v-0.6l2.4-1.1l0.3,0.2l0.2,2.3v2.6c0,1.1,0,3,0.1,3.8h-1.5
				C55.6,173.1,55.6,171.3,55.6,170.2z M54.2,173.3l2-0.4h0.4l2,0.4v0.6h-4.3V173.3z M56.3,167.7h1l-0.5,0.1
				c0.6-1.7,1.7-2.7,2.7-2.7c0.5,0,1.1,0.3,1.3,0.6c0,0.8-0.3,1.3-1,1.3c-0.4,0-0.8-0.2-1.1-0.4l-0.5-0.4l0.9-0.2
				c-1.1,0.6-1.8,1.5-2.2,2.9h-0.7V167.7z"/>
			<path d="M62.3,176.9c0-0.5,0-1.8,0-2.5v-0.6c0-0.7,0-1,0-1.5l-1-0.1v-0.4l1.8-0.7l0.2,0.1l0,1.6v1.6c0,0.7,0,2,0,2.5H62.3z
				 M64.2,176.5v0.4h-2.8v-0.4l1.3-0.2H63L64.2,176.5z M62,169c0-0.5,0.3-0.8,0.8-0.8c0.4,0,0.8,0.3,0.8,0.8c0,0.4-0.3,0.8-0.8,0.8
				C62.4,169.7,62,169.4,62,169z"/>
			<path d="M65.1,173.5h2.8v0.8h-2.8V173.5z"/>
			<path d="M73.6,176.5v0.4h-4.4v-0.4l1.7-0.3h1L73.6,176.5z M71.8,169.1l0.2,0.1l0,1.7v3.5c0,0.8,0,1.7,0,2.5h-1c0-0.8,0-1.7,0-2.5
				v-4.3l-1.6,0.1v-0.5L71.8,169.1z"/>
		</g>
	</g>
	<g>
		<g>
			<path d="M69.3,222.9c0-2.9,2-4.6,3.9-4.6c1.3,0,2.3,0.8,2.7,2.6l-0.4,0.5c-0.4-1.5-1.3-2.3-2.3-2.3c-1.6,0-2.3,1.6-2.3,3.5
				c0,2.6,0.9,3.9,2.3,3.9c1.1,0,2.2-1.1,2.3-2.7l0.1-3.4l0.1-1.6l1.3-0.3l0.3,0.2c-0.3,2.3-0.6,4.8-0.6,6.2c0,1,0.2,1.3,0.8,1.3
				c0.2,0,0.5-0.1,0.8-0.2l0.1,0.5c-0.3,0.5-0.8,0.9-1.4,0.9c-0.8,0-1.3-0.5-1.4-2.2l0.4,0c-0.6,1.5-1.6,2.2-3,2.2
				C70.9,227.3,69.3,225.8,69.3,222.9z"/>
		</g>
	</g>
	<g>
		<g>
			<path d="M211.5,98.2l0-8.8c0-2.6,1.6-4.3,3.8-4.3c1.8,0,3.2,1.1,3.2,3c0,1.4-1,3.3-3.6,3.5l-0.1-0.2c3-0.1,4.7,1,4.7,3.4
				c0,2.5-1.9,3.8-3.7,3.8c-1.3,0-2.6-0.6-3.3-2.2l0.2-0.2c0.8,0.7,1.7,1.2,2.8,1.2c1.7,0,2.6-1.1,2.6-2.7c0-1.5-0.8-2.9-3.5-2.8
				l-0.2-1c1.7-0.3,2.7-1.3,2.7-2.9c0-1.4-0.7-2.3-1.9-2.3c-1.3,0-2.2,1.2-2.2,3.2v7.7l-0.1,0.3l0.3,4.5l-1.4,0.3l-0.2-0.2
				L211.5,98.2z"/>
		</g>
	</g>
</g>
<g id="Layer_2">
	<g>
		<g>
			<path class="st11" d="M61.2,227.1c3.6,2.6,6.3,6.4,7.6,10.8"/>
			<g>
				<polygon points="61.5,229.9 61.8,227.6 63.8,226.2 58.2,225.3 				"/>
			</g>
		</g>
	</g>
	<g>
		<g>
			<path class="st11" d="M227.9,84.1c-4.9-2.2-8.9-6-11.3-11"/>
			<g>
				<polygon points="227.2,81.4 227.3,83.8 225.6,85.6 231.3,85.4 				"/>
			</g>
		</g>
	</g>
</g>
</svg>
