<?xml version="1.0" encoding="utf-8"?>
<!-- Generator: Adobe Illustrator 24.0.3, SVG Export Plug-In . SVG Version: 6.00 Build 0)  -->
<svg version="1.1" id="Layer_1" xmlns="http://www.w3.org/2000/svg" xmlns:xlink="http://www.w3.org/1999/xlink" x="0px" y="0px"
	 width="478.6px" height="389.9px" viewBox="0 0 478.6 389.9" style="enable-background:new 0 0 478.6 389.9;" xml:space="preserve"
	>
<style type="text/css">
	.st0{fill-rule:evenodd;clip-rule:evenodd;fill-opacity:4.705882e-02;}
	.st1{fill:none;stroke:#000000;stroke-miterlimit:10;}
	.st2{fill:none;stroke:#000000;stroke-width:2;stroke-miterlimit:10;}
	.st3{fill-rule:evenodd;clip-rule:evenodd;fill:#BC0404;fill-opacity:0.2471;}
	.st4{fill:none;stroke:#000000;stroke-width:2;stroke-linecap:round;stroke-linejoin:round;stroke-miterlimit:10;}
	.st5{fill:none;stroke:#000000;stroke-linecap:round;stroke-linejoin:round;stroke-miterlimit:10;}
	.st6{fill:none;stroke:#CC0000;stroke-linecap:round;stroke-linejoin:round;stroke-miterlimit:10;}
	.st7{stroke:#000000;stroke-width:0.5;stroke-linecap:round;stroke-linejoin:round;stroke-miterlimit:10;}
	.st8{stroke:#000000;stroke-width:0.5;stroke-miterlimit:10;}
	.st9{fill:#00CC00;}
	.st10{fill:#78BF5A;stroke:#000000;stroke-width:0.5;stroke-linecap:round;stroke-linejoin:round;stroke-miterlimit:10;}
</style>
<path class="st0" d="M185.3,194.9l23.8,190.7l47.7-190.7l71.5,119.2v-143L447.5,51.9l-190.7,95.3l-47.7-143v143L18.4,194.9H185.3z"
	/>
<path class="st1" d="M185,385.6"/>
<g>
	<g>
		<line class="st2" x1="185" y1="7.9" x2="185" y2="389.1"/>
		<g>
			<polygon points="180.6,11.3 185,9.4 189.4,11.3 185,0.7 			"/>
		</g>
	</g>
</g>
<path class="st1" d="M185,4.2"/>
<path class="st1" d="M447.5,195.1"/>
<g>
	<g>
		<line class="st2" x1="0" y1="195.1" x2="471.4" y2="195.1"/>
		<g>
			<polygon points="468,199.5 469.9,195.1 468,190.7 478.6,195.1 			"/>
		</g>
	</g>
</g>
<path class="st1" d="M0,195.1"/>
<path class="st1" d="M185,195.1v3"/>
<path class="st1" d="M328,195.1v3"/>
<path class="st3" d="M235.3,159.2l21.5-11.9l7.2,21.5l-7.2,26.2L235.3,159.2z"/>
<path class="st4" d="M185.3,194.9l23.8,190.7"/>
<path class="st4" d="M209.1,385.6l47.7-190.7"/>
<path class="st4" d="M256.8,194.9l71.5,119.2"/>
<path class="st4" d="M328.3,314.1v-143"/>
<path class="st4" d="M328.3,171.1L447.5,51.9"/>
<path class="st4" d="M447.5,51.9l-190.7,95.3"/>
<path class="st4" d="M256.8,147.3l-47.7-143"/>
<path class="st4" d="M209.1,4.2v143"/>
<path class="st4" d="M209.1,147.3L18.4,194.9"/>
<path class="st5" d="M18.4,194.9h166.9"/>
<path class="st6" d="M235.3,159.2l21.5-11.9"/>
<path class="st6" d="M256.8,147.3l7.2,21.5"/>
<path class="st6" d="M263.9,168.7l-7.2,26.2"/>
<path class="st6" d="M256.8,194.9l-21.5-35.8"/>
<path d="M188.3,194.9c0,1.7-1.3,3-3,3s-3-1.3-3-3c0-1.7,1.3-3,3-3S188.3,193.3,188.3,194.9z"/>
<path class="st7" d="M189.3,194.9c0,2.2-1.8,4-4,4c-2.2,0-4-1.8-4-4c0-2.2,1.8-4,4-4C187.5,190.9,189.3,192.7,189.3,194.9z"/>
<path class="st8" d="M213.1,385.6c0,2.2-1.8,4-4,4c-2.2,0-4-1.8-4-4s1.8-4,4-4C211.3,381.6,213.1,383.4,213.1,385.6z"/>
<path class="st5" d="M212.1,385.6c0,1.7-1.3,3-3,3c-1.7,0-3-1.3-3-3s1.3-3,3-3C210.8,382.6,212.1,384,212.1,385.6z"/>
<path class="st8" d="M260.8,194.9c0,2.2-1.8,4-4,4c-2.2,0-4-1.8-4-4c0-2.2,1.8-4,4-4C259,190.9,260.8,192.7,260.8,194.9z"/>
<path class="st5" d="M259.8,194.9c0,1.7-1.3,3-3,3c-1.7,0-3-1.3-3-3c0-1.7,1.3-3,3-3C258.4,191.9,259.8,193.3,259.8,194.9z"/>
<path class="st8" d="M332.3,314.1c0,2.2-1.8,4-4,4c-2.2,0-4-1.8-4-4c0-2.2,1.8-4,4-4C330.5,310.1,332.3,311.9,332.3,314.1z"/>
<path class="st5" d="M331.3,314.1c0,1.7-1.3,3-3,3s-3-1.3-3-3s1.3-3,3-3S331.3,312.5,331.3,314.1z"/>
<path class="st8" d="M332.3,171.1c0,2.2-1.8,4-4,4c-2.2,0-4-1.8-4-4c0-2.2,1.8-4,4-4C330.5,167.1,332.3,168.9,332.3,171.1z"/>
<path class="st5" d="M331.3,171.1c0,1.7-1.3,3-3,3s-3-1.3-3-3c0-1.7,1.3-3,3-3S331.3,169.5,331.3,171.1z"/>
<path d="M450.5,51.9c0,1.7-1.3,3-3,3s-3-1.3-3-3s1.3-3,3-3S450.5,50.3,450.5,51.9z"/>
<path class="st7" d="M451.5,51.9c0,2.2-1.8,4-4,4c-2.2,0-4-1.8-4-4c0-2.2,1.8-4,4-4C449.7,47.9,451.5,49.7,451.5,51.9z"/>
<path d="M259.8,147.3c0,1.7-1.3,3-3,3c-1.7,0-3-1.3-3-3s1.3-3,3-3C258.4,144.3,259.8,145.6,259.8,147.3z"/>
<path class="st5" d="M259.8,147.3c0,1.7-1.3,3-3,3c-1.7,0-3-1.3-3-3s1.3-3,3-3C258.4,144.3,259.8,145.6,259.8,147.3z"/>
<path d="M212.1,4.2c0,1.7-1.3,3-3,3c-1.7,0-3-1.3-3-3c0-1.7,1.3-3,3-3C210.8,1.2,212.1,2.6,212.1,4.2z"/>
<path class="st7" d="M213.1,4.2c0,2.2-1.8,4-4,4c-2.2,0-4-1.8-4-4c0-2.2,1.8-4,4-4C211.3,0.2,213.1,2,213.1,4.2z"/>
<path d="M212.1,147.3c0,1.7-1.3,3-3,3c-1.7,0-3-1.3-3-3s1.3-3,3-3C210.8,144.3,212.1,145.6,212.1,147.3z"/>
<path class="st7" d="M213.1,147.3c0,2.2-1.8,4-4,4c-2.2,0-4-1.8-4-4s1.8-4,4-4C211.3,143.3,213.1,145.1,213.1,147.3z"/>
<path d="M21.4,194.9c0,1.7-1.3,3-3,3s-3-1.3-3-3c0-1.7,1.3-3,3-3S21.4,193.3,21.4,194.9z"/>
<path class="st7" d="M22.4,194.9c0,2.2-1.8,4-4,4s-4-1.8-4-4c0-2.2,1.8-4,4-4S22.4,192.7,22.4,194.9z"/>
<path class="st9" d="M401.7,87.5c0,1.7-1.3,3-3,3s-3-1.3-3-3s1.3-3,3-3S401.7,85.9,401.7,87.5z"/>
<path class="st10" d="M402.7,87.5c0,2.2-1.8,4-4,4c-2.2,0-4-1.8-4-4c0-2.2,1.8-4,4-4C400.9,83.5,402.7,85.3,402.7,87.5z"/>
<path class="st9" d="M223,110.7c0,1.7-1.3,3-3,3c-1.7,0-3-1.3-3-3s1.3-3,3-3C221.7,107.7,223,109,223,110.7z"/>
<path class="st10" d="M224,110.7c0,2.2-1.8,4-4,4c-2.2,0-4-1.8-4-4c0-2.2,1.8-4,4-4C222.2,106.7,224,108.5,224,110.7z"/>
<path class="st9" d="M91.9,186.5c0,1.7-1.3,3-3,3s-3-1.3-3-3s1.3-3,3-3S91.9,184.9,91.9,186.5z"/>
<path class="st10" d="M92.9,186.5c0,2.2-1.8,4-4,4c-2.2,0-4-1.8-4-4c0-2.2,1.8-4,4-4C91.1,182.5,92.9,184.3,92.9,186.5z"/>
<path class="st9" d="M217.9,302.2c0,1.7-1.3,3-3,3s-3-1.3-3-3s1.3-3,3-3S217.9,300.6,217.9,302.2z"/>
<path class="st10" d="M218.9,302.2c0,2.2-1.8,4-4,4c-2.2,0-4-1.8-4-4c0-2.2,1.8-4,4-4C217.1,298.2,218.9,300,218.9,302.2z"/>
<path class="st9" d="M319.4,267.5c0,1.7-1.3,3-3,3s-3-1.3-3-3s1.3-3,3-3S319.4,265.9,319.4,267.5z"/>
<path class="st10" d="M320.4,267.5c0,2.2-1.8,4-4,4c-2.2,0-4-1.8-4-4c0-2.2,1.8-4,4-4C318.7,263.5,320.4,265.3,320.4,267.5z"/>
<path class="st9" d="M214.5,168.7c0,1.7-1.3,3-3,3s-3-1.3-3-3s1.3-3,3-3S214.5,167.1,214.5,168.7z"/>
<path class="st10" d="M215.5,168.7c0,2.2-1.8,4-4,4c-2.2,0-4-1.8-4-4c0-2.2,1.8-4,4-4C213.7,164.7,215.5,166.5,215.5,168.7z"/>
<path class="st9" d="M255.1,166.4c0,1.7-1.3,3-3,3s-3-1.3-3-3c0-1.7,1.3-3,3-3S255.1,164.7,255.1,166.4z"/>
<path class="st10" d="M256.1,166.4c0,2.2-1.8,4-4,4c-2.2,0-4-1.8-4-4c0-2.2,1.8-4,4-4C254.3,162.4,256.1,164.2,256.1,166.4z"/>
<path class="st9" d="M319.4,168.7c0,1.7-1.3,3-3,3s-3-1.3-3-3s1.3-3,3-3S319.4,167.1,319.4,168.7z"/>
<path class="st10" d="M320.4,168.7c0,2.2-1.8,4-4,4c-2.2,0-4-1.8-4-4c0-2.2,1.8-4,4-4C318.6,164.7,320.4,166.5,320.4,168.7z"/>
<g>
	<g>
		<path d="M337.6,318.2l-1.6-0.3v-0.6h4v0.6l-2,0.3H337.6z M338.1,317.3l2.6,6.8l-0.7,0.9l2.7-7.6h0.9l-3,8h-0.7l-3.4-8H338.1z
			 M342.7,318.2l-1.7-0.3v-0.6h3.2v0.6l-1.2,0.3H342.7z"/>
		<path d="M345.6,328c0-0.5,0-1.6,0-2.3v-0.5c0-0.6,0-1,0-1.4l-0.9-0.1v-0.4l1.7-0.7l0.2,0.1l0,1.5v1.5c0,0.7,0,1.8,0,2.3H345.6z
			 M347.3,327.6v0.4h-2.6v-0.4l1.2-0.2h0.2L347.3,327.6z M345.3,320.6c0-0.4,0.3-0.7,0.7-0.7s0.7,0.3,0.7,0.7c0,0.4-0.3,0.7-0.7,0.7
			S345.3,321,345.3,320.6z"/>
		<path d="M348.1,324.8h2.6v0.7h-2.6V324.8z"/>
		<path d="M356,327.6v0.4h-4.1v-0.4l1.6-0.3h0.9L356,327.6z M354.3,320.7l0.2,0.1l0,1.6v3.2c0,0.8,0,1.6,0,2.3h-1c0-0.8,0-1.6,0-2.3
			v-4l-1.5,0.1v-0.4L354.3,320.7z"/>
	</g>
</g>
<g>
	<g>
		<path d="M337.6,174.9l-1.6-0.3v-0.6h4v0.6l-2,0.3H337.6z M338.1,173.9l2.6,6.8l-0.7,0.9l2.7-7.6h0.9l-3,8h-0.7l-3.4-8H338.1z
			 M342.7,174.9l-1.7-0.3v-0.6h3.2v0.6l-1.2,0.3H342.7z"/>
		<path d="M345.6,184.6c0-0.5,0-1.6,0-2.3v-0.5c0-0.6,0-1,0-1.4l-0.9-0.1v-0.4l1.7-0.7l0.2,0.1l0,1.5v1.5c0,0.7,0,1.8,0,2.3H345.6z
			 M347.3,184.2v0.4h-2.6v-0.4l1.2-0.2h0.2L347.3,184.2z M345.3,177.2c0-0.4,0.3-0.7,0.7-0.7s0.7,0.3,0.7,0.7c0,0.4-0.3,0.7-0.7,0.7
			S345.3,177.7,345.3,177.2z"/>
	</g>
</g>
<g>
	<g>
		<path d="M457.1,54.1l-1.6-0.3v-0.6h4v0.6l-2,0.3H457.1z M457.6,53.2l2.6,6.8l-0.7,0.9l2.7-7.6h0.9l-3,8h-0.7l-3.4-8H457.6z
			 M462.2,54.1l-1.7-0.3v-0.6h3.2v0.6l-1.2,0.3H462.2z"/>
		<path d="M465.1,63.9c0-0.5,0-1.6,0-2.3v-0.5c0-0.6,0-1,0-1.4l-0.9-0.1v-0.4l1.7-0.7l0.2,0.1l0,1.5v1.5c0,0.7,0,1.8,0,2.3H465.1z
			 M466.8,63.5v0.4h-2.6v-0.4l1.2-0.2h0.2L466.8,63.5z M464.8,56.5c0-0.4,0.3-0.7,0.7-0.7s0.7,0.3,0.7,0.7c0,0.4-0.3,0.7-0.7,0.7
			S464.8,57,464.8,56.5z"/>
		<path d="M467.5,60.6v-0.6h5.2v0.6H467.5z M469.8,57.5h0.7v5.6h-0.7V57.5z"/>
		<path d="M478,63.5v0.4h-4.1v-0.4l1.6-0.3h0.9L478,63.5z M476.2,56.6l0.2,0.1l0,1.6v3.2c0,0.8,0,1.6,0,2.3h-1c0-0.8,0-1.6,0-2.3v-4
			l-1.5,0.1v-0.4L476.2,56.6z"/>
	</g>
</g>
<g>
	<g>
		<path d="M167.2,202.7l-1.6-0.3v-0.6h4v0.6l-2,0.3H167.2z M167.7,201.8l2.6,6.8l-0.7,0.9l2.7-7.6h0.9l-3,8h-0.7l-3.4-8H167.7z
			 M172.3,202.7l-1.7-0.3v-0.6h3.2v0.6l-1.2,0.3H172.3z"/>
		<path d="M179,208.9c0,2.8-1.1,3.7-2.3,3.7c-1.2,0-2.3-1-2.3-3.7c0-2.8,1.1-3.8,2.3-3.8C177.9,205.1,179,206.1,179,208.9z
			 M176.7,212.1c0.7,0,1.3-0.7,1.3-3.2c0-2.6-0.6-3.3-1.3-3.3c-0.7,0-1.3,0.6-1.3,3.3C175.4,211.4,176,212.1,176.7,212.1z"/>
	</g>
</g>
</svg>
