<?xml version="1.0" encoding="utf-8"?>
<!-- Generator: Adobe Illustrator 24.0.3, SVG Export Plug-In . SVG Version: 6.00 Build 0)  -->
<svg version="1.1" xmlns="http://www.w3.org/2000/svg" xmlns:xlink="http://www.w3.org/1999/xlink" x="0px" y="0px" width="269.5px"
	 height="270px" viewBox="0 0 269.5 270" style="enable-background:new 0 0 269.5 270;" xml:space="preserve">
<style type="text/css">
	.st0{fill-rule:evenodd;clip-rule:evenodd;fill-opacity:4.705882e-02;}
	.st1{fill:none;stroke:#000000;stroke-width:2;stroke-linecap:round;stroke-linejoin:round;stroke-miterlimit:10;}
	.st2{fill:none;stroke:#000000;stroke-width:2;stroke-linejoin:round;}
	.st3{fill:none;stroke:#000000;stroke-width:2;stroke-linejoin:round;stroke-dasharray:9.3326,8.2956;}
	.st4{fill:none;stroke:#000000;stroke-width:2;stroke-linejoin:round;stroke-dasharray:8.4624,7.5221;}
	.st5{fill:none;stroke:#000000;stroke-width:2;stroke-linejoin:round;stroke-dasharray:8.6129,7.6559;}
	.st6{stroke:#000000;stroke-width:0.5;stroke-linecap:round;stroke-linejoin:round;stroke-miterlimit:10;}
	.st7{fill:#00CC00;}
	.st8{fill:#78BF5A;stroke:#000000;stroke-width:0.5;stroke-linecap:round;stroke-linejoin:round;stroke-miterlimit:10;}
</style>
<g id="Layer_1">
	<path class="st0" d="M4.2,180.9l43.6,61.5l161.9-44.4l26.5-134.7L100,4.2L8.9,65L4.2,180.9z"/>
	<path class="st1" d="M4.2,180.9l43.6,61.5"/>
	<path class="st1" d="M47.8,242.4l161.9-44.4"/>
	<path class="st1" d="M209.7,198.1l26.5-134.7"/>
	<path class="st1" d="M236.2,63.4L100,4.2"/>
	<path class="st1" d="M100,4.2L8.9,65"/>
	<path class="st1" d="M8.9,65l-4.7,116"/>
	<g>
		<g>
			<line class="st2" x1="109.3" y1="122.6" x2="107.3" y2="126.6"/>
			<line class="st3" x1="103.5" y1="134" x2="57.1" y2="224.4"/>
			<line class="st2" x1="55.2" y1="228.1" x2="53.2" y2="232.1"/>
			<g>
				<polygon points="50.7,227 53.8,230.7 58.7,231.1 49.9,238.4 				"/>
			</g>
		</g>
	</g>
	<g>
		<g>
			<line class="st2" x1="109.3" y1="122.6" x2="113.4" y2="120.7"/>
			<line class="st4" x1="120.2" y1="117.5" x2="218.2" y2="71.8"/>
			<line class="st2" x1="221.6" y1="70.2" x2="225.7" y2="68.3"/>
			<g>
				<polygon points="224.5,73.8 224.4,68.9 220.8,65.7 232.2,65.3 				"/>
			</g>
		</g>
	</g>
	<g>
		<g>
			<line class="st2" x1="109.3" y1="122.6" x2="112.9" y2="125.3"/>
			<line class="st5" x1="119" y1="129.9" x2="194" y2="186.2"/>
			<line class="st2" x1="197.1" y1="188.5" x2="200.7" y2="191.2"/>
			<g>
				<polygon points="195.3,192.8 199.5,190.3 200.6,185.7 206.4,195.5 				"/>
			</g>
		</g>
	</g>
	<path d="M6.4,180.9c0,1.2-1,2.2-2.2,2.2c-1.2,0-2.2-1-2.2-2.2c0-1.2,1-2.2,2.2-2.2C5.4,178.8,6.4,179.7,6.4,180.9z"/>
	<path class="st6" d="M8.2,180.9c0,2.2-1.8,4-4,4c-2.2,0-4-1.8-4-4c0-2.2,1.8-4,4-4C6.5,176.9,8.2,178.7,8.2,180.9z"/>
	<path d="M50,242.4c0,1.2-1,2.2-2.2,2.2c-1.2,0-2.2-1-2.2-2.2s1-2.2,2.2-2.2C49,240.3,50,241.2,50,242.4z"/>
	<path class="st6" d="M51.8,242.4c0,2.2-1.8,4-4,4c-2.2,0-4-1.8-4-4s1.8-4,4-4C50,238.4,51.8,240.2,51.8,242.4z"/>
	<path d="M211.9,198.1c0,1.2-1,2.2-2.2,2.2c-1.2,0-2.2-1-2.2-2.2c0-1.2,1-2.2,2.2-2.2C210.9,195.9,211.9,196.9,211.9,198.1z"/>
	<path class="st6" d="M213.7,198.1c0,2.2-1.8,4-4,4c-2.2,0-4-1.8-4-4c0-2.2,1.8-4,4-4C212,194.1,213.7,195.9,213.7,198.1z"/>
	<path d="M238.4,63.4c0,1.2-1,2.2-2.2,2.2c-1.2,0-2.2-1-2.2-2.2c0-1.2,1-2.2,2.2-2.2C237.4,61.2,238.4,62.2,238.4,63.4z"/>
	<path class="st6" d="M240.2,63.4c0,2.2-1.8,4-4,4c-2.2,0-4-1.8-4-4c0-2.2,1.8-4,4-4C238.4,59.4,240.2,61.2,240.2,63.4z"/>
	<path d="M102.2,4.2c0,1.2-1,2.2-2.2,2.2c-1.2,0-2.2-1-2.2-2.2c0-1.2,1-2.2,2.2-2.2C101.2,2.1,102.2,3.1,102.2,4.2z"/>
	<path class="st6" d="M104,4.2c0,2.2-1.8,4-4,4c-2.2,0-4-1.8-4-4c0-2.2,1.8-4,4-4C102.2,0.2,104,2,104,4.2z"/>
	<path d="M11.1,65c0,1.2-1,2.2-2.2,2.2c-1.2,0-2.2-1-2.2-2.2c0-1.2,1-2.2,2.2-2.2C10.1,62.8,11.1,63.8,11.1,65z"/>
	<path class="st6" d="M12.9,65c0,2.2-1.8,4-4,4c-2.2,0-4-1.8-4-4c0-2.2,1.8-4,4-4C11.1,61,12.9,62.8,12.9,65z"/>
	<path class="st7" d="M111.5,122.6c0,1.2-1,2.2-2.2,2.2s-2.2-1-2.2-2.2c0-1.2,1-2.2,2.2-2.2S111.5,121.4,111.5,122.6z"/>
	<path class="st8" d="M113.3,122.6c0,2.2-1.8,4-4,4c-2.2,0-4-1.8-4-4c0-2.2,1.8-4,4-4C111.5,118.6,113.3,120.4,113.3,122.6z"/>
	<g>
		<g>
			<path d="M53.7,253.4l-1.8-0.3v-0.7h4.3v0.7l-2.2,0.3H53.7z M54.3,252.4l2.8,7.3l-0.7,0.9l2.9-8.3h1l-3.3,8.6h-0.7l-3.6-8.6H54.3z
				 M59.2,253.4l-1.8-0.3v-0.7h3.4v0.7l-1.3,0.3H59.2z"/>
			<path d="M62.3,264c0-0.5,0-1.8,0-2.5v-0.6c0-0.7,0-1,0-1.5l-1-0.1v-0.4l1.8-0.7l0.2,0.1l0,1.6v1.6c0,0.7,0,2,0,2.5H62.3z
				 M64.2,263.6v0.4h-2.8v-0.4l1.3-0.2H63L64.2,263.6z M62,256c0-0.5,0.3-0.8,0.8-0.8c0.4,0,0.8,0.3,0.8,0.8c0,0.4-0.3,0.8-0.8,0.8
				C62.4,256.8,62,256.5,62,256z"/>
			<path d="M65.1,260.6h2.8v0.8h-2.8V260.6z"/>
			<path d="M73.6,263.6v0.4h-4.4v-0.4l1.7-0.3h1L73.6,263.6z M71.8,256.1l0.2,0.1l0,1.7v3.5c0,0.8,0,1.7,0,2.5h-1c0-0.8,0-1.7,0-2.5
				v-4.3l-1.6,0.1v-0.5L71.8,256.1z"/>
		</g>
	</g>
	<g>
		<g>
			<path d="M219.7,208.1l-1.8-0.3v-0.7h4.3v0.7l-2.2,0.3H219.7z M220.3,207.2l2.8,7.3l-0.7,0.9l2.9-8.3h1l-3.3,8.6h-0.7l-3.6-8.6
				H220.3z M225.2,208.1l-1.8-0.3v-0.7h3.4v0.7l-1.3,0.3H225.2z"/>
			<path d="M228.3,218.7c0-0.5,0-1.8,0-2.5v-0.6c0-0.7,0-1,0-1.5l-1-0.1v-0.4l1.8-0.7l0.2,0.1l0,1.6v1.6c0,0.7,0,2,0,2.5H228.3z
				 M230.2,218.3v0.4h-2.8v-0.4l1.3-0.2h0.2L230.2,218.3z M228,210.7c0-0.5,0.3-0.8,0.8-0.8s0.8,0.3,0.8,0.8c0,0.4-0.3,0.8-0.8,0.8
				S228,211.2,228,210.7z"/>
		</g>
	</g>
	<g>
		<g>
			<path d="M246.3,72.4l-1.8-0.3v-0.7h4.3v0.7l-2.2,0.3H246.3z M246.9,71.4l2.8,7.3l-0.7,0.9l2.9-8.3h1l-3.3,8.6h-0.7l-3.6-8.6
				H246.9z M251.8,72.4l-1.8-0.3v-0.7h3.4v0.7l-1.3,0.3H251.8z"/>
			<path d="M255,83c0-0.5,0-1.8,0-2.5v-0.6c0-0.7,0-1,0-1.5l-1-0.1v-0.4l1.8-0.7l0.2,0.1l0,1.6v1.6c0,0.7,0,2,0,2.5H255z
				 M256.8,82.6V83H254v-0.4l1.3-0.2h0.2L256.8,82.6z M254.7,75c0-0.5,0.3-0.8,0.8-0.8c0.4,0,0.8,0.3,0.8,0.8c0,0.4-0.3,0.8-0.8,0.8
				C255,75.8,254.7,75.5,254.7,75z"/>
			<path d="M257.5,79.3v-0.7h5.7v0.7H257.5z M260,76h0.7v6H260V76z"/>
			<path d="M268.9,82.6V83h-4.4v-0.4l1.7-0.3h1L268.9,82.6z M267,75.1l0.2,0.1l0,1.7v3.5c0,0.8,0,1.7,0,2.5h-1c0-0.8,0-1.7,0-2.5
				v-4.3l-1.6,0.1v-0.5L267,75.1z"/>
		</g>
	</g>
	<g>
		<g>
			<path d="M105.9,102.9l-1.8-0.3v-0.7h4.3v0.7l-2.2,0.3H105.9z M106.5,101.9l2.8,7.3l-0.7,0.9l2.9-8.3h1l-3.3,8.6h-0.7l-3.6-8.6
				H106.5z M111.4,102.9l-1.8-0.3v-0.7h3.4v0.7l-1.3,0.3H111.4z"/>
		</g>
	</g>
	<g>
		<g>
			<path d="M164.3,11.1v-0.7h2.5v1h-0.2L164.3,11.1z M167.1,21.5l2.3,0.3v0.7h-5v-0.7l2.3-0.3H167.1z M166.1,16c0-1.9,0-3.7-0.1-5.6
				h1.7c-0.1,1.8-0.1,3.7-0.1,5.6v1.1c0,1.8,0,3.5,0.1,5.4H166c0.1-1.8,0.1-3.7,0.1-5.6V16z M168.7,17.7h-1.8v-0.8h2.1
				c2.2,0,3.1-1.2,3.1-2.9c0-1.7-1-2.8-3.2-2.8h-2v-0.8h2.3c3,0,4.5,1.5,4.5,3.6C173.7,16,172.3,17.7,168.7,17.7z"/>
		</g>
	</g>
	<g>
		<g>
			<path d="M151.2,79.2c0.9,0,1.5-0.4,2.4-1.5l0.2,0.5c-0.7,1.2-1.5,2-2.9,2c-2.2,0-3.7-1.8-3.7-4.4c0-2.7,1.6-4.6,3.8-4.6
				c1,0,1.9,0.4,2.8,1.8l-0.2,0.5c-1-1-1.8-1.3-2.4-1.3c-1.4,0-2.5,1.1-2.5,3.5C148.7,78.1,149.8,79.2,151.2,79.2z M156.2,79.3V80
				l-2.8,0.2l-0.2-1.8V73l0.1-0.2v-4.5l-1.5-0.2v-0.6l2.8-0.8l0.3,0.1l-0.1,2.6V80l-0.3-0.9L156.2,79.3z"/>
			<path d="M157.8,83c0-0.5,0-1.8,0-2.5v-0.6c0-0.7,0-1,0-1.5l-1-0.1v-0.4l1.8-0.7l0.2,0.1l0,1.6v1.6c0,0.7,0,2,0,2.5H157.8z
				 M159.7,82.6V83h-2.8v-0.4l1.3-0.2h0.2L159.7,82.6z M157.5,75c0-0.5,0.3-0.8,0.8-0.8c0.4,0,0.8,0.3,0.8,0.8
				c0,0.4-0.3,0.8-0.8,0.8C157.9,75.8,157.5,75.5,157.5,75z"/>
			<path d="M160.4,79.3v-0.7h5.7v0.7H160.4z M162.9,76h0.7v6h-0.7V76z"/>
			<path d="M171.8,82.6V83h-4.4v-0.4l1.7-0.3h1L171.8,82.6z M169.9,75.1l0.2,0.1l0,1.7v3.5c0,0.8,0,1.7,0,2.5h-1c0-0.8,0-1.7,0-2.5
				v-4.3l-1.6,0.1v-0.5L169.9,75.1z"/>
		</g>
	</g>
	<g>
		<g>
			<path d="M167.4,150.2c0.9,0,1.5-0.4,2.4-1.5l0.2,0.5c-0.7,1.2-1.5,2-2.9,2c-2.2,0-3.7-1.8-3.7-4.4c0-2.7,1.6-4.6,3.8-4.6
				c1,0,1.9,0.4,2.8,1.8l-0.2,0.5c-1-1-1.8-1.3-2.4-1.3c-1.4,0-2.5,1.1-2.5,3.5C164.9,149.1,166,150.2,167.4,150.2z M172.4,150.3
				v0.6l-2.8,0.2l-0.2-1.8V144l0.1-0.2v-4.5L168,139v-0.6l2.8-0.8l0.3,0.1l-0.1,2.6v10.6l-0.3-0.9L172.4,150.3z"/>
			<path d="M174,153.9c0-0.5,0-1.8,0-2.5v-0.6c0-0.7,0-1,0-1.5l-1-0.1v-0.4l1.8-0.7l0.2,0.1l0,1.6v1.6c0,0.7,0,2,0,2.5H174z
				 M175.9,153.5v0.4h-2.8v-0.4l1.3-0.2h0.2L175.9,153.5z M173.7,146c0-0.5,0.3-0.8,0.8-0.8c0.4,0,0.8,0.3,0.8,0.8
				c0,0.4-0.3,0.8-0.8,0.8C174.1,146.7,173.7,146.4,173.7,146z"/>
		</g>
	</g>
	<g>
		<g>
			<path d="M54.4,172.2c0.9,0,1.5-0.4,2.4-1.5l0.2,0.5c-0.7,1.2-1.5,2-2.9,2c-2.2,0-3.7-1.8-3.7-4.4c0-2.7,1.6-4.6,3.8-4.6
				c1,0,1.9,0.4,2.8,1.8l-0.2,0.5c-1-1-1.8-1.3-2.4-1.3c-1.4,0-2.5,1.1-2.5,3.5C51.8,171.1,52.9,172.2,54.4,172.2z M59.4,172.3v0.6
				l-2.8,0.2l-0.2-1.8V166l0.1-0.2v-4.5l-1.5-0.2v-0.6l2.8-0.8l0.3,0.1l-0.1,2.6V173l-0.3-0.9L59.4,172.3z"/>
			<path d="M61,176c0-0.5,0-1.8,0-2.5v-0.6c0-0.7,0-1,0-1.5l-1-0.1v-0.4l1.8-0.7l0.2,0.1l0,1.6v1.6c0,0.7,0,2,0,2.5H61z M62.8,175.5
				v0.4H60v-0.4l1.3-0.2h0.2L62.8,175.5z M60.7,168c0-0.5,0.3-0.8,0.8-0.8c0.4,0,0.8,0.3,0.8,0.8c0,0.4-0.3,0.8-0.8,0.8
				C61,168.8,60.7,168.4,60.7,168z"/>
			<path d="M63.7,172.6h2.8v0.8h-2.8V172.6z"/>
			<path d="M72.2,175.5v0.4h-4.4v-0.4l1.7-0.3h1L72.2,175.5z M70.4,168.1l0.2,0.1l0,1.7v3.5c0,0.8,0,1.7,0,2.5h-1c0-0.8,0-1.7,0-2.5
				v-4.3l-1.6,0.1v-0.5L70.4,168.1z"/>
		</g>
	</g>
</g>
<g id="Layer_2">
</g>
</svg>
