<?xml version="1.0" encoding="utf-8"?>
<!-- Generator: Adobe Illustrator 24.0.3, SVG Export Plug-In . SVG Version: 6.00 Build 0)  -->
<svg version="1.1" id="Layer_1" xmlns="http://www.w3.org/2000/svg" xmlns:xlink="http://www.w3.org/1999/xlink" x="0px" y="0px"
	 width="656px" height="262px" viewBox="0 0 656 262" style="enable-background:new 0 0 656 262;" xml:space="preserve">
<style type="text/css">
	.st0{fill-rule:evenodd;clip-rule:evenodd;fill-opacity:4.705882e-02;}
	.st1{fill:none;stroke:#000000;stroke-linejoin:round;}
	.st2{fill:none;stroke:#000000;stroke-linejoin:round;stroke-dasharray:4.5422,4.0375;}
	.st3{fill:none;stroke:#000000;stroke-width:2;stroke-linecap:round;stroke-linejoin:round;stroke-miterlimit:10;}
	.st4{fill:none;stroke:#E80F2E;stroke-width:2;stroke-linecap:round;stroke-linejoin:round;stroke-miterlimit:10;}
	.st5{stroke:#000000;stroke-width:0.5;stroke-linecap:round;stroke-linejoin:round;stroke-miterlimit:10;}
	.st6{fill:none;stroke:#000000;stroke-linejoin:round;stroke-dasharray:4.5089,4.0079;}
</style>
<path class="st0" d="M10.4,160.7l38.9,54.1l144.5-39l23.6-118.6L95.8,5.2L14.5,58.5L10.4,160.7z"/>
<g>
	<g>
		<line class="st1" x1="1" y1="260" x2="2.3" y2="258.7"/>
		<line class="st2" x1="4.8" y1="256.5" x2="273.8" y2="4.2"/>
		<line class="st1" x1="275" y1="3.2" x2="276.4" y2="1.8"/>
	</g>
</g>
<path class="st3" d="M10.4,160.7l38.9,54.1"/>
<path class="st4" d="M49.2,214.8l144.5-39"/>
<path class="st4" d="M193.8,175.8l23.6-118.6"/>
<path class="st3" d="M217.3,57.2L95.8,5.2"/>
<path class="st3" d="M95.8,5.2L14.5,58.5"/>
<path class="st3" d="M14.5,58.5l-4.2,102.1"/>
<path class="st4" d="M1,260l48.2-45.2"/>
<path class="st4" d="M217.3,57.2l59-55.4"/>
<path d="M12.5,160.7c0,1.2-0.9,2.1-2.1,2.1s-2.1-0.9-2.1-2.1c0-1.2,0.9-2.1,2.1-2.1C11.5,158.6,12.5,159.5,12.5,160.7z"/>
<path class="st5" d="M14.4,160.7c0,2.2-1.8,3.9-4,3.9s-4-1.8-4-3.9c0-2.2,1.8-3.9,4-3.9C12.6,156.8,14.4,158.5,14.4,160.7z"/>
<path d="M51.3,214.8c0,1.2-0.9,2.1-2.1,2.1s-2.1-0.9-2.1-2.1s0.9-2.1,2.1-2.1S51.3,213.6,51.3,214.8z"/>
<path class="st5" d="M53.2,214.8c0,2.2-1.8,3.9-4,3.9s-4-1.8-4-3.9c0-2.2,1.8-3.9,4-3.9S53.2,212.6,53.2,214.8z"/>
<path d="M195.8,175.8c0,1.2-0.9,2.1-2.1,2.1c-1.2,0-2.1-0.9-2.1-2.1s0.9-2.1,2.1-2.1C194.9,173.7,195.8,174.6,195.8,175.8z"/>
<path class="st5" d="M197.8,175.8c0,2.2-1.8,3.9-4,3.9s-4-1.8-4-3.9c0-2.2,1.8-3.9,4-3.9C196,171.8,197.8,173.6,197.8,175.8z"/>
<path d="M219.4,57.2c0,1.2-0.9,2.1-2.1,2.1c-1.2,0-2.1-0.9-2.1-2.1s0.9-2.1,2.1-2.1C218.5,55.1,219.4,56.1,219.4,57.2z"/>
<path class="st5" d="M221.3,57.2c0,2.2-1.8,3.9-4,3.9s-4-1.8-4-3.9c0-2.2,1.8-3.9,4-3.9C219.5,53.2,221.3,55,221.3,57.2z"/>
<path d="M97.9,5.2c0,1.2-0.9,2.1-2.1,2.1c-1.2,0-2.1-0.9-2.1-2.1s0.9-2.1,2.1-2.1C97,3.1,97.9,4,97.9,5.2z"/>
<path class="st5" d="M99.8,5.2c0,2.2-1.8,3.9-4,3.9s-4-1.8-4-3.9s1.8-3.9,4-3.9C98,1.2,99.8,3,99.8,5.2z"/>
<path d="M16.6,58.5c0,1.2-0.9,2.1-2.1,2.1s-2.1-0.9-2.1-2.1s0.9-2.1,2.1-2.1C15.7,56.5,16.6,57.5,16.6,58.5z"/>
<path class="st5" d="M18.5,58.5c0,2.2-1.8,3.9-4,3.9s-4-1.8-4-3.9c0-2.2,1.8-3.9,4-3.9S18.5,56.4,18.5,58.5z"/>
<g>
	<g>
		<path d="M159.6,12.8v-0.7h2.5v1h-0.2L159.6,12.8z M162.3,23.2l2.3,0.3v0.7h-5v-0.7l2.3-0.3H162.3z M161.3,17.7
			c0-1.9,0-3.7-0.1-5.6h1.7c-0.1,1.8-0.1,3.7-0.1,5.6v1.1c0,1.8,0,3.5,0.1,5.4h-1.7c0.1-1.8,0.1-3.7,0.1-5.6V17.7z M163.9,19.4h-1.8
			v-0.8h2.1c2.2,0,3.1-1.2,3.1-2.9s-1-2.8-3.2-2.8h-2v-0.8h2.3c3,0,4.5,1.5,4.5,3.6C169,17.7,167.6,19.4,163.9,19.4z"/>
	</g>
</g>
<g>
	<g>
		<path d="M155.2,145.5v-1.6h13.7v1.6H155.2z M161.2,137.5h1.7V152h-1.7V137.5z"/>
	</g>
</g>
<g>
	<g>
		<path d="M220.5,208.9H233v1.9h-12.5V208.9z"/>
	</g>
</g>
<path class="st0" d="M392.3,162l38.9,54.9l41.7-124.5l126.4-35.3L477.7,4.2l-81.3,54.2L392.3,162z"/>
<g>
	<g>
		<line class="st1" x1="384.6" y1="261" x2="386" y2="259.7"/>
		<line class="st6" x1="388.5" y1="257.5" x2="628.1" y2="29.7"/>
		<line class="st1" x1="629.3" y1="28.5" x2="630.7" y2="27.2"/>
	</g>
</g>
<path class="st3" d="M392.3,162l38.9,54.9"/>
<path class="st4" d="M431.1,216.9l41.7-124.5"/>
<path class="st4" d="M472.8,92.3l126.4-35.3"/>
<path class="st3" d="M599.2,57.1L477.7,4.2"/>
<path class="st3" d="M477.7,4.2l-81.3,54.2"/>
<path class="st3" d="M396.4,58.5L392.3,162"/>
<path class="st4" d="M384.6,261l46.5-44.2"/>
<path class="st4" d="M599.2,57.1l55.8-53"/>
<path d="M394.3,162c0,1.2-0.9,2.1-2.1,2.1c-1.2,0-2.1-0.9-2.1-2.1s0.9-2.1,2.1-2.1C393.4,159.9,394.3,160.8,394.3,162z"/>
<path class="st5" d="M396.3,162c0,2.2-1.8,4-4,4s-4-1.8-4-4s1.8-4,4-4S396.3,159.8,396.3,162z"/>
<path d="M433.2,216.9c0,1.2-0.9,2.1-2.1,2.1s-2.1-0.9-2.1-2.1c0-1.2,0.9-2.1,2.1-2.1S433.2,215.7,433.2,216.9z"/>
<path class="st5" d="M435.1,216.9c0,2.2-1.8,4-4,4s-4-1.8-4-4s1.8-4,4-4S435.1,214.7,435.1,216.9z"/>
<path d="M474.9,92.3c0,1.2-0.9,2.1-2.1,2.1s-2.1-0.9-2.1-2.1s0.9-2.1,2.1-2.1S474.9,91.2,474.9,92.3z"/>
<path class="st5" d="M476.8,92.3c0,2.2-1.8,4-4,4s-4-1.8-4-4s1.8-4,4-4S476.8,90.1,476.8,92.3z"/>
<path d="M601.3,57.1c0,1.2-0.9,2.1-2.1,2.1s-2.1-0.9-2.1-2.1s0.9-2.1,2.1-2.1S601.3,56,601.3,57.1z"/>
<path class="st5" d="M603.2,57.1c0,2.2-1.8,4-4,4s-4-1.8-4-4s1.8-4,4-4S603.2,54.9,603.2,57.1z"/>
<path d="M479.8,4.2c0,1.2-0.9,2.1-2.1,2.1s-2.1-0.9-2.1-2.1s0.9-2.1,2.1-2.1C478.9,2.2,479.8,3.2,479.8,4.2z"/>
<path class="st5" d="M481.7,4.2c0,2.2-1.8,4-4,4s-4-1.8-4-4s1.8-4,4-4C479.9,0.3,481.7,2.1,481.7,4.2z"/>
<path d="M398.5,58.5c0,1.2-0.9,2.1-2.1,2.1c-1.2,0-2.1-0.9-2.1-2.1s0.9-2.1,2.1-2.1C397.6,56.4,398.5,57.3,398.5,58.5z"/>
<path class="st5" d="M400.4,58.5c0,2.2-1.8,4-4,4s-4-1.8-4-4s1.8-4,4-4S400.4,56.3,400.4,58.5z"/>
<g>
	<g>
		<path d="M547.5,13.6v-0.7h2.5v1h-0.2L547.5,13.6z M550.2,24l2.3,0.3V25h-5v-0.7l2.3-0.3H550.2z M549.2,18.5c0-1.9,0-3.7-0.1-5.6
			h1.7c-0.1,1.8-0.1,3.7-0.1,5.6v1.1c0,1.8,0,3.5,0.1,5.4h-1.7c0.1-1.8,0.1-3.7,0.1-5.6V18.5z M551.8,20.2H550v-0.8h2.1
			c2.2,0,3.1-1.2,3.1-2.9s-1-2.8-3.2-2.8h-2v-0.8h2.3c3,0,4.5,1.5,4.5,3.6C556.9,18.5,555.5,20.2,551.8,20.2z"/>
		<path d="M557.8,8.5h1.5l-0.1,4.3h-1.3L557.8,8.5z"/>
	</g>
</g>
<g>
	<g>
		<path d="M437.1,70.3v-1.7h14.2v1.7H437.1z M443.3,62h1.8v15h-1.8V62z"/>
	</g>
</g>
<g>
	<g>
		<path d="M498.1,124.4h12.5v1.9h-12.5V124.4z"/>
	</g>
</g>
<g>
	<g>
		<path d="M55.1,227.7l-1.8-0.3v-0.7h4.3v0.7l-2.2,0.3H55.1z M55.7,226.7l2.8,7.3l-0.7,0.9l2.9-8.3h1l-3.3,8.6h-0.7l-3.6-8.6h1.6
			V226.7z M60.6,227.7l-1.8-0.3v-0.7h3.4v0.7l-1.3,0.3H60.6z"/>
		<path d="M63.7,238.3c0-0.5,0-1.8,0-2.5v-0.6c0-0.7,0-1,0-1.5l-1-0.1v-0.4l1.8-0.7l0.2,0.1v1.6v1.6c0,0.7,0,2,0,2.5H63.7z
			 M65.6,237.9v0.4h-2.8v-0.4l1.3-0.2h0.2L65.6,237.9z M63.5,230.3c0-0.5,0.3-0.8,0.8-0.8c0.4,0,0.8,0.3,0.8,0.8
			c0,0.4-0.3,0.8-0.8,0.8C63.8,231.1,63.5,230.8,63.5,230.3z"/>
		<path d="M66.4,234.9h2.8v0.8h-2.8V234.9z"/>
		<path d="M75.1,237.9v0.4h-4.4v-0.4l1.7-0.3h1L75.1,237.9z M73.1,230.4l0.2,0.1v1.7v3.5c0,0.8,0,1.7,0,2.5h-1c0-0.8,0-1.7,0-2.5
			v-4.3l-1.6,0.1V231L73.1,230.4z"/>
	</g>
</g>
<g>
	<g>
		<path d="M202.2,187.7l-1.8-0.3v-0.6h4.3v0.7l-2.2,0.3h-0.3V187.7z M202.8,186.8l2.8,7.3l-0.7,0.9l2.9-8.3h1l-3.3,8.6h-0.7
			l-3.6-8.6h1.6V186.8z M207.7,187.7l-1.8-0.3v-0.6h3.4v0.7l-1.3,0.3h-0.3V187.7z"/>
		<path d="M210.9,198.3c0-0.5,0-1.8,0-2.5v-0.6c0-0.7,0-1,0-1.5l-1-0.1v-0.4l1.8-0.7l0.2,0.1v1.6v1.6c0,0.7,0,2,0,2.5L210.9,198.3
			L210.9,198.3z M212.7,197.9v0.4h-2.8v-0.4l1.3-0.2h0.2L212.7,197.9z M210.6,190.3c0-0.5,0.3-0.8,0.8-0.8c0.4,0,0.8,0.3,0.8,0.8
			c0,0.4-0.3,0.8-0.8,0.8S210.6,190.8,210.6,190.3z"/>
	</g>
</g>
<g>
	<g>
		<path d="M227.9,66.7l-1.8-0.3v-0.7h4.3v0.7l-2.2,0.3H227.9z M228.5,65.7l2.8,7.3l-0.7,0.9l2.9-8.3h1l-3.3,8.6h-0.7l-3.6-8.6
			L228.5,65.7L228.5,65.7z M233.4,66.7l-1.8-0.3v-0.7h3.4v0.7l-1.3,0.3H233.4z"/>
		<path d="M236.6,77.3c0-0.5,0-1.8,0-2.5v-0.6c0-0.7,0-1,0-1.5l-1-0.1v-0.4l1.8-0.7l0.2,0.1v1.6v1.6c0,0.7,0,2,0,2.5H236.6z
			 M238.4,76.9v0.4h-2.7v-0.4l1.3-0.2h0.2L238.4,76.9z M236.3,69.3c0-0.5,0.3-0.8,0.8-0.8c0.4,0,0.8,0.3,0.8,0.8
			c0,0.4-0.3,0.8-0.8,0.8S236.3,69.8,236.3,69.3z"/>
		<path d="M239.1,73.7V73h5.7v0.7H239.1z M241.6,70.3h0.7v6h-0.7V70.3z"/>
		<path d="M250.5,76.9v0.4h-4.4v-0.4l1.7-0.3h1L250.5,76.9z M248.6,69.4l0.2,0.1v1.7v3.6c0,0.8,0,1.7,0,2.5h-1c0-0.8,0-1.7,0-2.5
			v-4.3l-1.6,0.1v-0.5L248.6,69.4z"/>
	</g>
</g>
<g>
	<g>
		<path d="M438.2,227.7l-1.8-0.3v-0.7h4.3v0.7l-2.2,0.3H438.2z M438.8,226.7l2.8,7.3l-0.7,0.9l2.9-8.3h1l-3.3,8.6h-0.7l-3.6-8.6h1.6
			V226.7z M443.7,227.7l-1.8-0.3v-0.7h3.4v0.7l-1.3,0.3H443.7z"/>
		<path d="M446.8,238.3c0-0.5,0-1.8,0-2.5v-0.6c0-0.7,0-1,0-1.5l-1-0.1v-0.4l1.8-0.7l0.2,0.1v1.6v1.6c0,0.7,0,2,0,2.5H446.8z
			 M448.7,237.9v0.4h-2.8v-0.4l1.3-0.2h0.2L448.7,237.9z M446.5,230.3c0-0.5,0.3-0.8,0.8-0.8c0.4,0,0.8,0.3,0.8,0.8
			c0,0.4-0.3,0.8-0.8,0.8C446.9,231.1,446.5,230.8,446.5,230.3z"/>
		<path d="M449.5,234.9h2.8v0.8h-2.8V234.9z"/>
		<path d="M458.1,237.9v0.4h-4.4v-0.4l1.7-0.3h1L458.1,237.9z M456.2,230.4l0.2,0.1v1.7v3.5c0,0.8,0,1.7,0,2.5h-1c0-0.8,0-1.7,0-2.5
			v-4.3l-1.6,0.1V231L456.2,230.4z"/>
	</g>
</g>
<g>
	<g>
		<path d="M607.9,67.7l-1.8-0.3v-0.7h4.3v0.7l-2.2,0.3H607.9z M608.5,66.7l2.8,7.3l-0.7,0.9l2.9-8.3h1l-3.3,8.6h-0.7l-3.6-8.6
			L608.5,66.7L608.5,66.7z M613.4,67.7l-1.8-0.3v-0.7h3.4v0.7l-1.3,0.3H613.4z"/>
		<path d="M616.6,78.3c0-0.5,0-1.8,0-2.5v-0.6c0-0.7,0-1,0-1.5l-1-0.1v-0.4l1.8-0.7l0.2,0.1v1.6v1.6c0,0.7,0,2,0,2.5H616.6z
			 M618.4,77.9v0.4h-2.8v-0.4l1.3-0.2h0.2L618.4,77.9z M616.3,70.3c0-0.5,0.3-0.8,0.8-0.8c0.4,0,0.8,0.3,0.8,0.8
			c0,0.4-0.3,0.8-0.8,0.8S616.3,70.8,616.3,70.3z"/>
		<path d="M619.2,74.7V74h5.7v0.7H619.2z M621.6,71.3h0.7v6h-0.7V71.3z"/>
		<path d="M630.5,77.9v0.4h-4.4v-0.4l1.7-0.3h1L630.5,77.9z M628.6,70.4l0.2,0.1v1.7v3.6c0,0.8,0,1.7,0,2.5h-1c0-0.8,0-1.7,0-2.5
			v-4.3l-1.6,0.1v-0.5L628.6,70.4z"/>
	</g>
</g>
<g>
	<g>
		<path d="M481.8,104.5l-1.8-0.3v-0.7h4.3v0.7l-2.2,0.3H481.8z M482.4,103.5l2.8,7.3l-0.7,0.9l2.9-8.3h1l-3.3,8.6h-0.7l-3.6-8.6
			L482.4,103.5L482.4,103.5z M487.3,104.5l-1.8-0.3v-0.7h3.4v0.7l-1.3,0.3H487.3z"/>
		<path d="M490.5,115.1c0-0.5,0-1.8,0-2.5V112c0-0.7,0-1,0-1.5l-1-0.1V110l1.8-0.7l0.2,0.1v1.6v1.6c0,0.7,0,2,0,2.5H490.5z
			 M492.3,114.6v0.4h-2.8v-0.4l1.3-0.2h0.2L492.3,114.6z M490.2,107.1c0-0.5,0.3-0.8,0.8-0.8s0.8,0.3,0.8,0.8c0,0.4-0.3,0.8-0.8,0.8
			S490.2,107.5,490.2,107.1z"/>
	</g>
</g>
<g id="Layer_2_1_">
</g>
</svg>
