<?xml version="1.0" encoding="utf-8"?>
<!-- Generator: Adobe Illustrator 24.0.3, SVG Export Plug-In . SVG Version: 6.00 Build 0)  -->
<svg version="1.1" id="Layer_1" xmlns="http://www.w3.org/2000/svg" xmlns:xlink="http://www.w3.org/1999/xlink" x="0px" y="0px"
	 width="758.8px" height="142.4px" viewBox="0 0 758.8 142.4" style="enable-background:new 0 0 758.8 142.4;" xml:space="preserve"
	>
<style type="text/css">
	.st0{fill:none;stroke:#231F20;stroke-width:0.75;stroke-linejoin:round;stroke-miterlimit:10;}
	.st1{fill:none;stroke:#231F20;stroke-width:0.5;stroke-linejoin:round;stroke-miterlimit:10;}
	.st2{fill:none;stroke:#231F20;stroke-linejoin:round;stroke-miterlimit:10;}
	.st3{fill:none;}
	.st4{fill:none;stroke:#231F20;stroke-width:2;stroke-linejoin:round;stroke-miterlimit:10;}
	.st5{fill:#231F20;}
</style>
<g>
	<path class="st0" d="M139.8,7.6c-9.7,5.6-19.1,11.6-27.7,18.7c-8.8,7.3-17.2,16.3-21.6,27c-4.5,11.2-4.8,23.3,0,34.5
		c4.4,10.2,12.9,18.7,22.9,23.6c10.4,5.1,22.9,5.9,33.3,0.2c1.9-1,4-2.2,6-3.1"/>
	<path class="st0" d="M139.6,6.9c-10.3,5.4-20.4,11.6-29.6,18.8c-8.9,7-17,15-22.3,25.1c-5.3,9.9-6.7,21.8-3.4,32.6
		c3.4,11.2,11.1,20.5,20.9,26.7c4.9,3.1,10.4,5.4,16.1,6.6c5.8,1.2,11.6,0.7,17.3-1c5-1.5,9.7-4,14.2-6.6"/>
	<path class="st0" d="M139.4,6.2c-9.8,4.9-19.4,10.3-28.4,16.5c-9.6,6.7-18.7,14.2-25.3,24c-6.5,9.5-9.5,21.1-7.4,32.5
		c2.1,11.5,9,22.1,18.5,29c8.9,6.5,20.5,12,31.8,10.7c9-1,16.4-5.1,24.1-9.5"/>
	<path class="st0" d="M139.1,5.4c-10.3,5-20.4,10.3-30.2,16.4c-9.6,6-19.1,13.1-26.2,22.1c-7.3,9.3-11.9,20.8-10.5,32.8
		c1.4,11.4,7,21.8,15.6,29.4c8.8,7.8,19.7,13,31.4,14.6c11.5,1.5,21.9-3.9,31.4-9.7c0.6-0.4,1.2-0.8,1.9-1.1"/>
	<path class="st0" d="M152.5,110.2c-4.8,2.8-9.3,6.1-14.3,8.5c-5.3,2.6-11,4.2-17,4.3c-11.2,0.1-22.8-4.4-32.1-10.5
		c-9.9-6.5-17.5-15.6-21.3-26.9C64.2,74.9,65.6,62.9,71,53c5.3-9.9,14.1-17.6,23.2-24c9.5-6.7,19.8-12.4,30.3-17.5
		c4.8-2.3,9.6-4.5,14.4-6.8"/>
	<path class="st0" d="M138.7,4c-10.7,4.5-21.3,9.4-31.6,14.6c-10.1,5.1-20,11-28.8,18.2c-9,7.3-16.6,17.1-18.8,28.7
		c-2.3,11.4,0.6,23.4,7.1,33c6.6,9.7,16.4,16.5,27.1,21c9.8,4.2,21.2,7.1,31.9,5c10-2,18.6-8.4,26.9-14"/>
	<path class="st0" d="M138.5,3.2c-10.5,4.1-20.9,8.5-31.2,13.2C97,21.2,86.7,26.3,77.2,32.6C67.5,39,58.2,47,53.4,57.9
		c-4.6,10.6-3.9,22.8,0.5,33.4c4.4,10.8,12.8,19.3,22.9,25.1c9.9,5.7,21.2,9.7,32.6,11.1c5.6,0.7,11.1,0.5,16.6-1.1
		c5.3-1.6,10.3-4.4,14.9-7.4c3.9-2.5,7.6-5.4,11.5-8"/>
	<path class="st0" d="M138.2,2.5c-10.8,4-21.5,8.2-32.2,12.4c-10.4,4.1-20.8,8.8-30.7,14c-10,5.3-20.7,11.6-27.6,20.8
		c-7,9.4-8.9,20.4-7,31.8c1.9,11.2,7.7,22.1,16.3,29.4c9,7.7,20,12.2,31.2,15.5c5.4,1.6,11,2.9,16.6,3.6c5.7,0.7,11.6,1.1,17.2-0.5
		c11.1-3.1,20.1-11.2,29.3-17.8c0.3-0.2,0.6-0.4,0.9-0.6"/>
	<path class="st0" d="M152.1,111.7c-2.5,1.6-4.9,3.7-7.2,5.6c-2.4,1.9-4.8,3.7-7.3,5.5c-4.6,3.5-9.4,6.7-14.6,9.2
		c-5.2,2.5-11,2.5-16.6,2c-5.8-0.5-11.5-1.6-17.2-2.7c-11.1-2.2-22.6-5.1-32.9-10c-5.1-2.4-9.7-5.5-13.7-9.4
		c-4.2-4.1-7.2-9.2-9.6-14.5c-4.7-10.4-7.4-22.9-5.5-34.3c2-11.9,11.1-19.8,21-25.6c9.8-5.8,20.4-10.4,31-14.5
		c11.1-4.3,22.1-8.5,33.3-12.5c8.3-3,16.7-5.9,25.1-8.8"/>
	<path class="st1" d="M158.2,67.4c0.2,3.7,0.6,7.5,1.4,11.1"/>
	<path class="st2" d="M158.8,82.2c-2-7.2-2.8-14.7-2.9-22.2"/>
	<path class="st2" d="M157.9,86c-4.1-10.5-5.1-22.2-4.3-33.3"/>
	<path class="st2" d="M157.1,89.7c-5.6-9.8-7.3-21.9-6.8-33.1c0.1-3.8,0.5-7.6,1.1-11.4"/>
	<path class="st2" d="M156.2,93.4c-4.1-4-6.5-10.2-8-15.6c-1.5-5.5-2.4-11.3-2.3-17c0.1-7.8,1-15.4,3.2-22.9"/>
	<path class="st2" d="M146.8,30.5c-4.6,10.5-7.4,22.2-6.7,33.7c0.6,10.9,3.7,23.3,12.3,30.7c0.9,0.8,1.9,1.5,3,2.1"/>
	<path class="st2" d="M154.6,100.9c-11.8-1.9-18.8-14-21.6-24.6c-2.9-11-1.9-23,1.8-33.7c2.4-6.9,5.7-13.3,9.8-19.4"/>
	<path class="st2" d="M153.7,104.6c-5.9,1.1-11.2,0.4-16.6-2.1c-5.1-2.4-9.2-6.8-12.4-11.4c-6.7-9.6-8.6-22.3-6.7-33.7
		c1.8-11.2,7.3-21.5,14.1-30.4c3.1-4,6.6-7.7,10.2-11.3"/>
	<path class="st2" d="M152.9,108.3c-2.5,1-4.9,2.4-7.5,3.4c-2.9,1.1-5.9,1.9-8.9,2.3c-5.8,0.9-11.8-0.2-17.2-2.4
		c-10.7-4.4-19.7-13-24.5-23.5c-4.9-10.7-4.9-22.4-1.1-33.3c3.7-10.9,11.8-20,20.2-27.7c7.9-7.2,17-13.1,26.1-18.7"/>
	<rect x="0.2" y="0.2" class="st3" width="162.6" height="140.8"/>
	<polygon class="st4" points="1,44.5 22.9,126.3 117.6,140.2 152,112 160.4,74.8 137.8,1 	"/>
	<rect x="0.3" y="0.2" class="st3" width="162.5" height="140.7"/>
	<path class="st5" d="M163.4,74.8c0-1.6-1.4-3-3-3c-1.6,0-3,1.4-3,3s1.4,3,3,3S163.4,76.4,163.4,74.8"/>
	<circle class="st3" cx="160.4" cy="74.8" r="2.4"/>
	<rect x="0.2" y="0.2" class="st3" width="162.6" height="140.8"/>
	<g>
		<g>
			<path d="M29.5,7l-2.3-0.2V6.1h4.9v0.7l-2.2,0.3L29.5,7L29.5,7z M35.7,6h0.6l3.3,10.1h-0.5L41.9,6h0.9l-3.3,12.2h-0.7L35.3,7.9
				h0.6l-3.2,10.3H32L28.5,6h1.7l2.7,10.1h-0.5L35.7,6z M35.9,7l-2.3-0.3V6h4.9v0.7L36.2,7H35.9z M41.8,7l-1.9-0.3V6H44v0.7L42.2,7
				H41.8z"/>
			<path d="M45,6.8V6.1h2.5v1h-0.2L45,6.8z M47.7,17.1l2.3,0.3v0.7h-5v-0.7l2.3-0.3H47.7z M46.8,11.6c0-1.9,0-3.7-0.1-5.6h1.7
				c-0.1,1.8-0.1,3.7-0.1,5.6v1.1c0,1.8,0,3.5,0.1,5.4h-1.7c0.1-1.8,0.1-3.7,0.1-5.6V11.6z M49.3,13.3h-1.8v-0.8h2.1
				c2.2,0,3.1-1.2,3.1-2.9s-1-2.8-3.2-2.8h-2V6h2.3c3,0,4.5,1.5,4.5,3.6C54.4,11.6,53,13.3,49.3,13.3z"/>
		</g>
	</g>
</g>
<g>
	<path class="st0" d="M338.3,7.6c-2.6-0.7-5.7,1.1-8,2.1c-2.7,1.2-5.3,2.5-8,3.9c-5.1,2.6-10,5.3-14.9,8.2
		c-10,5.7-19.5,12.4-27.9,20.4c-8.3,7.9-15.2,18.4-16.1,30.1c-0.9,11.8,3.3,23.2,11.2,31.9c7.8,8.6,18.3,14.4,29.2,18.2
		c5.4,1.9,11.2,3.2,17,2.9c5.6-0.3,11.1-2.8,15.9-5.7c2.7-1.6,5.4-3.2,7.9-5c1.2-0.9,2.5-1.8,3.7-2.7c1.3-1,2-2,3-3.2"/>
	<path class="st0" d="M338,6.9c-2.9-0.3-5.6,1-8.2,2.2s-5.3,2.4-7.9,3.7c-5,2.4-9.9,5-14.8,7.6c-9.9,5.4-19.6,11.3-28.3,18.5
		c-9.1,7.6-17,16.9-19.9,28.6c-2.8,11.4,0.4,23.6,7.1,33c6.8,9.6,17.4,16.1,28.1,20.6c10,4.2,22.1,8.2,32.8,4.1
		c4.5-1.7,8.7-4.3,12.7-6.9c2.1-1.4,4.1-2.9,6.2-4.3c2.1-1.3,4-2.9,5.4-4.9"/>
	<path class="st0" d="M337.8,6.2c-2.9-0.3-5.7,1.1-8.3,2.3c-2.5,1.1-5,2.2-7.5,3.4c-5,2.3-10,4.8-15,7.3c-10,5.1-19.9,10.6-29,17.3
		c-9.1,6.6-18,14.6-22.5,25.1c-4.7,11-3.7,23.3,1.6,34c5,10.1,14.2,17.6,24.1,22.6c9.9,5,21,9.3,32,10.3c6.2,0.6,11.9-1,17.3-4
		c5-2.8,9.6-6,14.3-9.3c2.3-1.6,4.8-3.3,6.4-5.7"/>
	<path class="st0" d="M337.6,5.4c-2.7-0.4-5.4,1.1-7.9,2.1c-2.7,1.1-5.4,2.3-8.1,3.4c-5.4,2.4-10.8,4.9-16.1,7.4
		c-10.4,4.9-20.7,10.4-30.4,16.7c-9.6,6.3-19.3,13.9-24.7,24.2c-5.5,10.6-5.2,23.3-0.6,34.1c4.7,10.9,13.4,18.7,23.6,24.2
		c10.3,5.5,21.9,9.4,33.3,11.6c5.5,1.1,11.4,1.5,16.7-0.6c2.8-1.1,5.5-2.6,8.1-4.2c2.5-1.5,5-3.1,7.3-4.9c2-1.5,4.1-3.2,6.2-4.5
		s4.5-3.1,5.8-5.2"/>
	<path class="st0" d="M337.4,4.7c-2.6-0.4-5.6,1.1-7.9,2.1c-2.7,1.1-5.3,2.2-8,3.2c-5.3,2.2-10.5,4.5-15.7,6.8
		c-10.5,4.6-20.8,9.7-30.8,15.3c-10.1,5.7-20.3,12.3-27.6,21.4c-7.5,9.4-9.2,21.6-6.4,33.1c2.7,11.3,9.3,20.8,18.9,27.3
		c9.3,6.3,20.5,10.4,31.3,13.3c5.4,1.5,10.9,2.9,16.4,3.8c5.7,0.9,11.7,1.1,17-1.9c4.8-2.7,9.4-5.7,13.9-9c2.1-1.5,4.6-3,6.5-4.8
		c1.9-1.9,4.4-3,6-5.3"/>
	<path class="st0" d="M337.1,4c-2.7-0.2-5.5,1.2-7.9,2.2c-2.8,1.1-5.5,2.1-8.3,3.2c-5.3,2.1-10.6,4.1-15.8,6.4
		c-10.3,4.5-20.7,8.9-30.7,13.9c-9.9,5-19.8,10.3-28.2,17.5c-4.2,3.6-8,7.8-10.5,12.8c-2.7,5.4-3.5,11.4-3.1,17.4
		c0.6,11.4,4.8,23.2,12.7,31.6c7.8,8.2,18.7,12.3,29.1,15.9c5.7,2,11.6,3.5,17.5,5c5.4,1.3,11,2.6,16.5,3.3c2.8,0.3,5.7,0.6,8.6,0.2
		c2.9-0.5,5.4-1.8,7.9-3.2c5.1-2.8,10-6.6,14.6-10.2c1.8-1.4,4-2.7,5.7-4.4c1.8-1.8,4.1-2.8,5.7-4.9"/>
	<path class="st0" d="M350.7,110.9c-1.8,2.4-4.6,3.8-6.8,5.7c-2.3,2-4.8,3.8-7.2,5.6c-4.7,3.6-9.4,7.2-14.5,10.3
		c-5.3,3.2-10.8,2.6-16.7,1.7c-5.4-0.9-10.8-1.9-16.1-3.1c-10.9-2.5-21.9-5.1-32.4-9c-5.3-2-10.7-4.5-15.2-8s-7.8-8.2-10.3-13.4
		c-2.6-5.4-4.3-11.2-5.5-17.1c-1.1-5.6-1.7-11.5-0.9-17.3c1.7-11.6,11.1-19.2,20.6-24.9c9.7-5.8,20-10.7,30.4-15.3s21-8.9,31.7-13
		c4.5-1.7,9-3.4,13.5-5.2c2.5-1,5-1.9,7.6-2.8c2.4-0.9,5.3-2.4,7.9-2.2"/>
	<path class="st0" d="M350.7,111.3c-0.8,1.2-2.4,2.1-3.5,3.1c-1.2,1-2.4,1.9-3.6,2.8c-2.4,1.9-4.9,3.8-7.3,5.8
		c-2.3,1.9-4.6,3.8-7,5.5c-2.4,1.7-4.6,3.7-7.1,5.1c-2.6,1.5-4.6,3.2-7.7,3.3c-2.8,0.1-5.7-0.4-8.5-0.8c-5.4-0.8-10.7-1.8-16-2.8
		c-11.1-2.1-22.4-4.3-33.3-7.3c-10.8-3-22.7-6.2-28.6-16.8c-2.7-5-4.6-10.4-6.2-15.8c-1.6-5.4-2.9-10.9-3.8-16.4
		c-0.9-5.6-1.8-11.7-0.3-17.2c1.7-6.1,6.3-10.2,11.3-13.6c9.4-6.4,20.3-10.9,30.7-15.3c10.5-4.5,21.3-8.7,32-12.6c11-4,22-8,33-12
		c1.9-0.7,3.7-1.4,5.6-2c2-0.7,4.1-1.7,6.2-1.7"/>
	<path class="st0" d="M336.4,1.7c-1.3-0.1-2.9,0.7-4.1,1.1c-1.5,0.5-2.9,0.9-4.4,1.5c-2.8,1-5.6,1.9-8.4,2.8
		c-5.6,1.9-11.2,3.8-16.8,5.7c-11.1,3.7-22.1,7.6-33.1,11.5c-11.1,3.9-22.2,7.9-33,12.3c-5.4,2.2-10.9,4.3-16.1,7
		c-5.1,2.7-11.1,5.5-11.5,12c-0.3,5.5,1.1,11.2,2.3,16.6c1.3,5.6,2.6,11.1,4.1,16.7c1.5,5.5,2.9,11.1,4.7,16.6
		c1.7,5.2,3.2,11.8,7.8,15.3c4.3,3.3,10.7,4.4,15.9,5.5c5.5,1.2,11.1,2.4,16.7,3.4c11.6,2.1,23.2,4.2,34.8,6
		c5.8,0.9,11.6,2,17.5,2.6c1.4,0.1,3,0.3,4.3-0.3s2.5-1.5,3.7-2.5c2.4-2,5-3.8,7.4-5.8c3.9-3.2,7.8-6.2,11.7-9.3
		c1.9-1.5,3.8-3,5.6-4.5c1.6-1.3,3.9-2.6,5.1-4.3"/>
	<path class="st1" d="M356.6,67.4c-0.2,1.9-0.3,3.8-0.1,5.8c0.1,1.5,0.1,4.3,1.5,5.3"/>
	<path class="st2" d="M354.3,60c-1,3.8-1.1,7.8-0.7,11.7c0.2,2,0.5,3.9,1,5.8c0.4,1.6,0.8,4.2,2.6,4.7"/>
	<path class="st2" d="M356.4,86c-1.6,0.1-2.3-0.9-3-2.2c-0.6-1.2-1.1-2.5-1.5-3.8c-0.9-2.7-1.4-5.5-1.7-8.4
		c-0.6-5.6-0.5-11.5,1.1-16.9c0.2-0.7,0.5-1.3,0.8-2"/>
	<path class="st2" d="M349.8,45.3c-3.3,4.2-4.1,10.4-4.5,15.6c-0.3,5.5,0,11.1,1.3,16.4c0.7,2.7,1.5,5.3,2.8,7.8
		c0.6,1.2,1.3,2.4,2.2,3.4c0.4,0.5,1,1.2,1.7,1.5c0.9,0.4,1.3,0.1,2.2-0.3"/>
	<path class="st2" d="M347.5,37.9c-4.5,3.3-6.1,10.2-7.2,15.4c-1.1,5.6-1.4,11.4-0.9,17.1c0.5,5,1.6,10.2,3.9,14.8
		c1.7,3.5,6.6,12.3,11.3,8.3"/>
	<path class="st2" d="M353.8,97.1c-1.3,1.3-2.1,1.9-4,2c-1.2,0.1-2.5-0.3-3.6-0.8c-2.6-1.1-4.8-3.1-6.6-5.3
		c-3.8-4.6-6.1-10.2-7.4-16c-2.7-11.2-1.1-23.5,3.4-34c1.1-2.5,2.4-5,3.9-7.3c1.4-2.1,3.2-4.4,5.7-5.3"/>
	<path class="st2" d="M343,23.1c-2.9,0.2-5.2,2.5-7.2,4.4c-1.8,1.9-3.5,3.9-5,6.1c-3.4,4.8-6.3,10-8.2,15.6
		c-3.8,10.8-4.7,22.6-1,33.6c3.4,10.3,12.2,22.6,24.5,21.7c2.8-0.2,5.3-1.3,7-3.7"/>
	<path class="st2" d="M340.8,15.8c-3.2-0.1-5.7,1.6-8.2,3.3c-2.1,1.5-4.2,3.1-6.1,4.8c-4.3,3.7-8.2,7.7-11.8,12.1
		c-7.1,8.8-12.4,19.2-13.6,30.6c-1.1,11.4,2.2,22.9,9.4,31.9c3.6,4.4,8,8.2,13.1,10.7c5.3,2.6,10.9,3.2,16.7,2.1
		c2.2-0.4,4.5-1.2,6.5-2.3c2.3-1.2,3.8-2.5,5.4-4.5"/>
	<path class="st2" d="M338.5,8.4c-2.7-0.7-5.7,1.1-8.1,2.2c-2.6,1.3-5.2,2.6-7.8,4c-5,2.7-9.9,5.6-14.7,8.6
		c-9.6,5.9-19,12.9-26.6,21.3c-7.5,8.4-13,18.6-13.3,30.1c-0.3,11.7,4.8,22.7,12.9,30.9c7.8,7.9,18.5,14.1,29.3,16.9
		c5.7,1.5,11.3,2.1,17,0.7c5.4-1.4,10.8-4.3,15.4-7.4c1.5-1,3.1-2.1,4.6-3.1c0.9-0.5,1.7-1.2,2.4-1.9c0.7-0.7,1.1-1.5,1.7-2.2"/>
	<rect x="198.6" y="0.2" class="st3" width="162.6" height="140.8"/>
	<polygon class="st4" points="199.4,44.5 221.4,126.3 316,140.2 350.5,112 358.9,74.8 336.2,1 	"/>
	<rect x="198.7" y="0.2" class="st3" width="162.5" height="140.7"/>
	<path class="st5" d="M361.9,74.8c0-1.6-1.4-3-3-3c-1.6,0-3,1.4-3,3s1.4,3,3,3C360.5,77.8,361.9,76.4,361.9,74.8"/>
	<circle class="st2" cx="358.9" cy="74.8" r="2.4"/>
	<rect x="198.6" y="0.2" class="st3" width="162.6" height="140.8"/>
	<g>
		<g>
			<path d="M221.8,6.8V6.1h2.5v1h-0.1L221.8,6.8z M224.4,17.1v1h-2.5v-0.7l2.3-0.3H224.4z M223.6,11.6c0-1.9,0-3.7-0.1-5.6h1.7
				c-0.1,1.8-0.1,3.7-0.1,5.6v0.7c0,2.1,0,3.9,0.1,5.8h-1.7c0.1-1.8,0.1-3.7,0.1-5.8V11.6z M224.4,17.3h2.3c2.8,0,4.4-1.9,4.4-5.2
				c0-3.4-1.5-5.2-4.2-5.2h-2.5V6.1h2.8c3.4,0,5.8,2.1,5.8,6s-2.7,6-6.2,6h-2.4L224.4,17.3L224.4,17.3z"/>
			<path d="M234.6,6.8V6.1h5v0.7l-2.3,0.3h-0.4L234.6,6.8z M237.3,17.1l2.3,0.3v0.7h-5v-0.7l2.3-0.3H237.3z M236.3,11.6
				c0-1.9,0-3.7-0.1-5.6h1.7c-0.1,1.8-0.1,3.7-0.1,5.6v0.5c0,2.2,0,4.1,0.1,5.9h-1.7c0.1-1.8,0.1-3.7,0.1-5.6V11.6z M237.1,12.4
				v-0.8h7.6v0.8H237.1z M242.2,6.8V6.1h5v0.7l-2.3,0.3h-0.4L242.2,6.8z M244.9,17.1l2.3,0.3v0.7h-5v-0.7l2.3-0.3H244.9z
				 M243.9,11.6c0-1.9,0-3.7-0.1-5.6h1.7c-0.1,1.8-0.1,3.7-0.1,5.6v0.9c0,1.9,0,3.7,0.1,5.6h-1.7c0.1-1.8,0.1-3.7,0.1-5.9V11.6z"/>
		</g>
	</g>
</g>
<g>
	<path class="st0" d="M536.7,8.8c-4.2,4-9.5,6.7-14.4,9.6c-5,2.9-9.9,5.8-14.8,9c-9.4,6.1-18.7,13.1-25.6,22
		c-7.2,9.3-11,20.8-7.6,32.4c3.2,11,11.9,19.1,21.6,24.6c5.2,2.9,11,4.9,16.9,5.8c6,0.9,12,0.4,17.9-0.5c6.1-0.9,12.9-3.6,19-1.8"/>
	<path class="st0" d="M536.5,8.1c-4.4,3.9-9.7,6.7-14.8,9.4c-5.1,2.8-10.2,5.6-15.1,8.7c-9.9,6.1-19.6,12.8-27.3,21.6
		c-7.5,8.6-12.6,19.6-10.4,31.3c2.2,12,10.7,21,20.7,27.2c5,3.1,10.6,5.4,16.3,6.9c5.8,1.5,11.5,1.5,17.4,1
		c4.3-0.4,8.6-1.5,12.8-2.5c4.3-1,9.1-2.7,13.6-1.4"/>
	<path class="st0" d="M536.3,7.3c-4.5,3.8-9.8,6.4-15,9.1c-4.9,2.6-9.8,5.2-14.7,7.9c-10,5.5-19.7,11.9-28,19.7
		c-8.5,8-16.1,18.8-15.4,31.1s7.7,22.5,17.5,29.6c9.4,6.7,20.8,11.4,32.3,11.9c5.7,0.2,11.4-0.9,16.9-2.3c5.3-1.4,10.8-3.8,16.3-4.1
		c1.1-0.1,2.2,0,3.3,0.4"/>
	<path class="st0" d="M549.4,111c-2.5-0.8-5.6,0.1-8,0.9c-2.9,0.9-5.7,1.9-8.5,2.9c-5.4,1.8-10.8,3.5-16.5,4
		c-11.2,1.2-22.9-2.5-32.8-7.7c-10.3-5.5-19.8-13-24.1-24.2c-4.5-11.6-2-23.6,5.3-33.5c6.8-9.2,16.6-16.1,26.2-22
		c9.9-6.2,20.4-11.3,30.8-16.5c4.9-2.4,10-4.7,14.2-8.2"/>
	<path class="st0" d="M549.4,111.3c-2.8-0.8-5.7,0.5-8.3,1.4c-2.7,0.9-5.3,2.2-7.9,3.2c-5.5,2.1-11,4.3-16.8,5.2
		c-11.3,1.7-22.7-1.7-33.1-6c-10.6-4.4-21.3-10.9-27.3-21c-6.1-10-7.6-22.9-2.1-33.5c5.2-10.1,14.6-17.6,23.9-23.7
		c9.6-6.3,19.7-11.7,30-16.7c4.9-2.3,9.7-4.6,14.6-6.8c4.6-2.1,9.6-4.1,13.5-7.5"/>
	<path class="st0" d="M535.6,5.1c-4.3,3.6-10.2,5.6-15.3,7.8c-5.3,2.2-10.6,4.5-15.8,6.9c-10.9,5-21.7,10.3-32,16.5
		c-9.4,5.8-19.5,12.5-25.4,22.1c-6.4,10.2-5.5,22.8-0.8,33.5c4.9,11,15,18.3,25.7,23c10.3,4.5,21.3,8.4,32.5,9.5
		c11.6,1.2,22.3-3.9,32.4-8.9c1.9-0.9,3.9-1.9,5.8-2.6c2.2-0.9,4.2-1.6,6.5-1.3"/>
	<path class="st0" d="M549.2,112.1c-2.8-0.2-5.5,1.2-7.9,2.5c-2.5,1.4-5.1,2.8-7.7,4.2c-5.1,2.6-10.1,5.5-15.5,7.5
		c-11.2,4.2-24,0.4-35.1-2.6c-10.9-3-22.4-6.7-31.8-13.2c-9.8-6.8-15.1-17.6-16.9-29.1c-0.9-5.5-1.2-11.3,0.5-16.8
		c1.6-5.5,5.2-10,9.3-13.8c8.4-7.6,18.7-13.3,28.8-18.4c9.8-5,19.8-9.5,29.9-13.7c5.2-2.2,10.4-4.3,15.6-6.4
		c5.4-2.2,11.1-4.1,16.1-7.1c0.4-0.2,0.7-0.5,1-0.8"/>
	<path class="st0" d="M535.1,3.7c-2.4,1.8-5.3,2.6-8,3.7c-2.6,1.2-5.4,2-8.1,3c-5.2,2-10.5,3.9-15.8,5.9
		c-10.1,3.9-20.1,7.9-30.1,12.2c-10.4,4.5-20.7,9.4-30.6,15c-4.9,2.8-9.9,6-13.7,10.2c-3.9,4.2-5.3,9.4-5.4,15
		c-0.1,6,1.2,12,2.6,17.7c1.4,5.6,3.1,11.2,5.7,16.3c2.7,5.4,6.6,9.6,11.8,12.5c5,2.8,10.6,4.8,16.1,6.5c11,3.5,22.2,6.2,33.6,8.3
		c5.2,1,10.8,2.2,16.1,1.9c5.9-0.4,10.8-3.3,15.9-6.1c3.8-2.1,7.4-4.5,11.1-6.8c2-1.3,4-2.6,6.1-3.8c2-1.1,4.3-3,6.7-2.7"/>
	<path class="st0" d="M549,112.8c-1.2-0.3-2.8,1.2-3.8,1.8c-1.3,0.8-2.5,1.7-3.7,2.6c-2.2,1.7-4.5,3.2-6.7,4.8
		c-4.6,3.3-9.2,6.6-13.9,9.7c-2.3,1.5-4.7,3.3-7.3,4c-2.7,0.8-5.8,0.3-8.6,0c-5.6-0.7-11.3-1.6-16.8-2.6c-11.5-2-22.9-4.2-34.3-6.8
		c-5.5-1.3-11.2-2.4-16.5-4.3c-2.8-1-5.6-2-7.8-3.9c-2.3-1.9-3.7-4.6-4.9-7.3c-2.4-5.5-4-11.3-5.6-17c-1.6-5.6-3-11.2-4.2-16.8
		c-1.3-5.6-2.5-11.4-2.7-17.2c-0.1-2.8,0.4-5.9,2.3-8.1c2-2.3,4.6-4,7.2-5.4c10.2-5.3,21-9.7,31.8-13.9c11-4.3,22-8.3,33-12.4
		s22.1-7.8,33.1-11.6c2.5-0.9,5.1-1.7,7.6-2.6c2.6-0.9,5.4-1.7,7.7-3.1"/>
	<path class="st2" d="M555.1,68.6c-1.7,3.8-2.3,8.3,1.4,11.1"/>
	<path class="st2" d="M552.8,61.2c-2.1,4-3.4,8-3.1,12.6c0.3,4,2.8,7.4,6,9.6"/>
	<path class="st2" d="M550.5,53.8c-3.1,5-5.5,10.6-5.5,16.6c0,6.1,2.9,11.5,7.7,15.2c0.7,0.5,1.4,1,2.1,1.5"/>
	<path class="st2" d="M554,90.9c-4.9-2.9-9.5-6.7-11.9-11.9c-2.5-5.3-2.8-11.3-1.4-16.9c1.4-5.7,4.3-10.8,7.6-15.5"/>
	<path class="st2" d="M553.1,94.6c-5.2-2.8-10.1-6-13.8-10.7c-3.4-4.2-5.3-9.6-5.5-14.9c-0.5-11.3,5.6-21.2,12.2-29.9"/>
	<path class="st2" d="M543.7,31.7c-7.1,8.6-14.5,17.7-16.7,28.9c-2.4,12.1,2.6,23.4,12.5,30.6c4,2.9,8.4,4.9,12.8,7.1"/>
	<path class="st2" d="M541.5,24.3c-7.7,8.4-16,16.5-20.9,26.9c-4.9,10.3-5.4,22.5,1.1,32.3c3.1,4.7,7.5,8.4,12.4,11.2
		c5.1,2.9,10.7,4.5,16.1,6.7c0.5,0.2,0.9,0.4,1.4,0.6"/>
	<path class="st2" d="M539.2,16.9c-8.2,8.3-17.6,15.1-25,24.1c-7.3,8.9-12.8,20-11.1,31.8c1.6,11.6,9.9,20.9,20.3,25.8
		c4.4,2.1,9.1,3.1,13.9,4.1c4.5,0.9,9,1.4,13.3,3"/>
	<path class="st2" d="M549.8,109.5c-5.3-1.5-10.9,0.1-16.3,0.7c-5.8,0.7-11.6,1.3-17.4,0.5c-11.3-1.4-22.1-7.1-29.7-15.5
		c-7.8-8.6-11.2-20.3-8.2-31.6c3-11,11.1-20,19.6-27.1c8.9-7.5,18.9-13.4,28.7-19.5c3.6-2.2,7.2-4.6,10.3-7.4"/>
	<rect x="397.1" y="1.4" class="st3" width="162.6" height="140.8"/>
	<polygon class="st4" points="397.9,45.7 419.8,127.5 514.5,141.4 548.9,113.2 557.3,76 534.7,2.2 	"/>
	<rect x="397.2" y="1.4" class="st3" width="162.5" height="140.7"/>
	<path class="st5" d="M560.3,76c0-1.6-1.4-3-3-3c-1.6,0-3,1.4-3,3c0,1.6,1.4,3,3,3S560.3,77.6,560.3,76"/>
	<circle class="st3" cx="557.3" cy="76" r="2.4"/>
	<rect x="397.1" y="1.4" class="st3" width="162.6" height="140.8"/>
	<g>
		<g>
			<path d="M424.4,6h2.4v1h-0.2l-2.2-0.3L424.4,6L424.4,6z M424.4,17.4l1.9-0.3h0.4l1.8,0.3v0.7h-4L424.4,17.4L424.4,17.4z M426,6
				h0.8l0.2,5.4v6.7h-0.9V6H426z M426,6h1.6l4.4,10.8h-0.6L435.6,6h1l-4.7,12.1H431L426,6z M434.2,17.4l2.2-0.3h0.4l2.3,0.3v0.7
				h-4.9V17.4z M435.8,12.5V6h1.6c-0.1,1.8-0.1,3.7-0.1,5.6v0.9c0,1.9,0,3.7,0.1,5.6h-1.7C435.8,16.3,435.8,14.4,435.8,12.5z
				 M436.6,6h2.5v0.7L436.8,7h-0.2V6z"/>
			<path d="M442.5,7l-2.3-0.3V6h4.9v0.9l-2.2,0.2L442.5,7L442.5,7z M441.2,6h1.7l3.6,10.2h-0.3L449.7,6h1l-4.1,12.2h-0.7L441.2,6z
				 M449.5,7l-1.8-0.2V6h4.2v0.7l-2,0.3H449.5z"/>
		</g>
	</g>
</g>
<g>
	<path class="st0" d="M748.1,109.6c-2.8,0.2-5.7,1.3-8.4,2.2c-2.8,0.9-5.7,1.6-8.5,2.3c-5.7,1.4-11.8,1.8-17.7,1.1
		c-11.1-1.4-22.2-7-29.6-15.5c-7.6-8.6-11.9-19.6-11-31.2c1-11.5,6.8-21.9,14.7-30.2c7.8-8.2,17.2-14.3,27-19.9
		c6.6-3.7,13.6-6.9,20.5-9.9"/>
	<path class="st0" d="M748.1,109.9c-2.8,0.5-5.4,1.5-8,2.4c-2.8,0.9-5.6,1.7-8.3,2.6c-5.1,1.7-11.2,2.5-16.6,2.2
		c-11.7-0.6-22.6-5.4-31.4-13.1c-8.5-7.6-14.1-18.2-14.7-29.6c-0.6-11.4,4-22.5,11.1-31.2c7.2-8.8,16.4-15.7,26.2-21.4
		c9.2-5.4,18.9-10,28.7-14"/>
	<path class="st0" d="M748,110.3c-5.5,1.2-10.6,3.9-15.9,5.6c-5.3,1.7-10.7,2.9-16.3,3.2c-11.2,0.5-23.1-3.8-32-10.5
		c-9.5-7.2-16.5-16.7-18.7-28.6c-2.1-11.6,1.5-23.4,8.3-32.9c6.6-9.3,15.7-16.3,25.3-22.4c9.8-6.2,20.4-11,30.9-15.6
		c1.7-0.7,3.4-1.4,5.1-2.1"/>
	<path class="st0" d="M734.5,6.3c-10.7,4.2-21.3,8.7-31.4,14.1c-10.1,5.4-20,11.7-28.1,19.9c-8.1,8.3-14.4,18.8-15.2,30.7
		c-0.7,11.5,3.4,22.9,11.2,31.4c7.8,8.4,18,14.5,29.1,17.4c5.7,1.5,11.7,2.1,17.6,1.2c5.9-0.9,11.5-2.7,17-4.9
		c2-0.8,3.9-1.6,5.8-2.5c2.4-1,4.8-2.5,7.4-2.9"/>
	<path class="st0" d="M747.8,111c-2.5,0.6-5,2-7.3,3.2c-2.7,1.4-5.4,2.6-8.1,3.8c-5.2,2.3-10.8,4.4-16.5,5.2
		c-11.6,1.5-23.3-1.7-33.6-7.2c-10-5.3-19-13-23.9-23.3c-5-10.5-5.7-23-1.1-33.7c4.6-10.8,12.8-19.3,22.1-26.2s19.6-12.3,30.1-17.1
		c8.1-3.7,16.5-7,24.8-10.3"/>
	<path class="st0" d="M734,4.8c-10.7,4-21.3,8.1-31.7,12.8s-20.6,10.1-29.9,16.8c-9.3,6.7-17.2,15.1-21.7,25.7
		c-4.6,10.7-3.6,23.1,1.2,33.5c4.9,10.8,14.4,18.4,24.6,23.9c9.8,5.2,21.7,9.3,32.9,8.8c11.4-0.4,21.7-6.4,31.6-11.7
		c2.2-1.2,4.3-2.5,6.7-3.3"/>
	<path class="st0" d="M733.8,4.1c-10.7,3.8-21.3,7.8-31.8,12.2c-10.3,4.3-20.6,9-30.1,14.9S653,44,646.8,53.6
		c-6.5,10.1-8.3,22.4-5.2,34s10.8,20.8,20.7,27.4c9.5,6.3,20.6,10.2,31.6,12.8c5.7,1.3,11.5,2,17.3,1.4c5.5-0.6,10.6-3,15.5-5.4
		c3.6-1.8,7.1-3.9,10.6-5.9c3.3-2,6.7-4.6,10.3-6"/>
	<path class="st0" d="M733.6,3.4c-10.8,3.7-21.6,7.5-32.3,11.7c-10.8,4.2-21.5,8.7-31.8,13.9c-10,5.1-20.1,11.2-27.7,19.5
		c-8,8.6-11.7,19.7-10.7,31.4c0.9,11.3,5.6,22.5,13.8,30.5c8.2,7.8,19.1,12.5,29.7,15.9c5.2,1.7,10.5,3.1,15.9,4.3
		c5.6,1.2,11.3,2.2,17.1,2.1c6-0.1,11.3-2.7,16.5-5.5c5.1-2.8,9.9-6,14.7-9.2c1.4-0.9,2.9-1.9,4.3-2.9c1.4-1,3.1-2.5,4.7-2.9"/>
	<path class="st0" d="M733.3,2.6c-11.3,3.7-22.6,7.5-33.8,11.5c-11,3.9-22,8-32.8,12.4c-10.5,4.4-21.1,9.3-30.5,15.8
		c-4.7,3.2-9.1,7.2-12.2,12c-3.2,4.9-4.7,10.7-4.9,16.5c-0.4,11.1,2.4,22.7,7.1,32.7c2.5,5.2,6.1,9.8,10.7,13.3
		c4.6,3.4,10.1,5.9,15.5,7.8c10.9,3.9,22.1,6.5,33.4,8.7c5.7,1.1,11.4,2.2,17.2,2.7c2.7,0.2,5.6,0.5,8.3-0.1
		c2.8-0.6,5.2-1.9,7.7-3.3c5.1-2.9,10-6.4,14.7-10c2.2-1.6,4.5-3.2,6.6-4.9c1.1-0.9,2.4-1.7,3.6-2.7c1-0.8,2.4-2.1,3.6-2.5"/>
	<rect x="595.6" y="1.1" class="st3" width="162.5" height="140.7"/>
	<path class="st2" d="M753.5,68.3c-0.6,3.7-0.8,7.8,1.4,11.1"/>
	<path class="st2" d="M751.2,60.9c-2.4,7.7-2.4,15.7,2.9,22.2"/>
	<path class="st2" d="M749,53.5c-5.1,10.6-5.6,24,3.5,32.6c0.3,0.2,0.5,0.5,0.8,0.7"/>
	<path class="st2" d="M752.4,90.6c-9.4-6.8-13.8-17.6-12-29c0.9-5.5,3.3-10.7,6.3-15.4"/>
	<path class="st2" d="M751.6,94.3c-10.4-5.6-17.9-15.8-18-27.9c-0.1-10.4,4.4-19.7,10.9-27.6"/>
	<path class="st2" d="M742.2,31.4c-8.7,8.3-15.4,18.7-16.5,30.9c-1.1,12,4.7,23.4,14.4,30.2c3.3,2.3,6.9,4.1,10.6,5.5"/>
	<path class="st2" d="M739.9,24c-8.9,6.8-16.9,15-21.4,25.4c-4.6,10.6-4.6,22.8,1.1,32.9c6,10.8,16.9,16,28.4,18.9
		c0.6,0.2,1.3,0.3,1.9,0.5"/>
	<path class="st2" d="M737.6,16.6c-9.8,5.8-19.1,12.7-26.3,21.7c-7.1,8.9-11.3,19.7-10.7,31.2c0.6,11.4,7.3,22.6,17,28.6
		c4.6,2.9,9.7,4.9,15.1,5.9c5.4,1,10.9,1.1,16.3,1.5"/>
	<path class="st2" d="M735.4,9.3c-10.6,4.9-21.1,10.1-30.7,16.8c-9.2,6.5-17.6,14.5-23,24.5c-5.4,9.9-6.9,21.7-3.5,32.6
		c3.5,11.1,12.1,20.5,22.4,25.7c10.3,5.2,21.5,5.9,32.7,3.7c4.9-1,9.8-2.8,14.8-3.4"/>
	<rect x="595.5" y="1.1" class="st3" width="162.6" height="140.8"/>
	<polygon class="st4" points="596.3,45.4 618.3,127.2 712.9,141.1 747.4,112.9 755.8,75.7 733.1,1.9 	"/>
	<rect x="595.6" y="1.1" class="st3" width="162.5" height="140.7"/>
	<path class="st5" d="M758.8,75.7c0-1.6-1.4-3-3-3c-1.6,0-3,1.4-3,3c0,1.6,1.4,3,3,3C757.4,78.7,758.8,77.3,758.8,75.7"/>
	<circle class="st3" cx="755.8" cy="75.7" r="3"/>
	<rect x="595.5" y="1.1" class="st3" width="162.6" height="140.8"/>
	<g>
		<g>
			<path d="M617.7,6.8V6.1h5v0.7l-2.3,0.3H620L617.7,6.8z M620.4,17.1l2.3,0.3v0.7h-5v-0.7l2.3-0.3H620.4z M619.4,11.6
				c0-1.9,0-3.7-0.1-5.6h1.7c-0.1,1.8-0.1,3.7-0.1,5.6v0.5c0,2.2,0,4.1,0.1,5.9h-1.7c0.1-1.8,0.1-3.7,0.1-5.6V11.6z M620.2,12.4
				v-0.8h7.6v0.8H620.2z M625.2,6.8V6.1h5v0.7l-2.3,0.3h-0.4L625.2,6.8z M627.9,17.1l2.3,0.3v0.7h-5v-0.7l2.3-0.3H627.9z
				 M626.9,11.6c0-1.9,0-3.7-0.1-5.6h1.7c-0.1,1.8-0.1,3.7-0.1,5.6v0.9c0,1.9,0,3.7,0.1,5.6h-1.7c0.1-1.8,0.1-3.7,0.1-5.9V11.6z"/>
			<path d="M631.8,6h2.4v1H634l-2.2-0.3V6z M631.8,17.4l1.9-0.3h0.4l1.8,0.3v0.7h-4v-0.7H631.8z M633.4,6h0.8l0.2,5.4v6.7h-0.9
				L633.4,6L633.4,6z M633.4,6h1.6l4.4,10.8h-0.6L643,6h1l-4.7,12.1h-0.9L633.4,6z M641.6,17.4l2.2-0.3h0.4l2.3,0.3v0.7h-4.9V17.4z
				 M643.2,12.5V6h1.6c-0.1,1.8-0.1,3.7-0.1,5.6v0.9c0,1.9,0,3.7,0.1,5.6h-1.6C643.2,16.3,643.2,14.4,643.2,12.5z M644,6h2.5v0.7
				L644.2,7H644V6z"/>
		</g>
	</g>
</g>
</svg>
