<?xml version="1.0" encoding="utf-8"?>
<!-- Generator: Adobe Illustrator 24.0.3, SVG Export Plug-In . SVG Version: 6.00 Build 0)  -->
<svg version="1.1" id="Layer_1" xmlns="http://www.w3.org/2000/svg" xmlns:xlink="http://www.w3.org/1999/xlink" x="0px" y="0px"
	 width="669.2px" height="151.4px" viewBox="0 0 669.2 151.4" style="enable-background:new 0 0 669.2 151.4;" xml:space="preserve"
	>
<style type="text/css">
	.st0{fill:none;stroke:#000000;stroke-miterlimit:10;}
	.st1{fill:none;stroke:#000000;stroke-width:2;stroke-miterlimit:10;}
	.st2{fill:none;stroke:#000000;stroke-width:2;stroke-linecap:round;stroke-linejoin:round;stroke-miterlimit:10;}
	.st3{fill:none;stroke:#000000;stroke-linejoin:round;stroke-miterlimit:10;stroke-dasharray:9,8;}
	.st4{fill:none;stroke:#000000;stroke-width:2;stroke-miterlimit:10;stroke-dasharray:8,7;}
	.st5{stroke:#000000;stroke-width:0.5;stroke-linecap:round;stroke-linejoin:round;stroke-miterlimit:10;}
	.st6{fill:#0099FF;}
	.st7{fill:#5E7CEA;stroke:#000000;stroke-width:0.25;stroke-linecap:round;stroke-linejoin:round;stroke-miterlimit:10;}
	.st8{fill:#5E7CEA;stroke:#000000;stroke-width:0.5;stroke-linecap:round;stroke-linejoin:round;stroke-miterlimit:10;}
	.st9{fill:#00CC00;}
	.st10{fill:#78BF5A;stroke:#000000;stroke-width:0.5;stroke-linecap:round;stroke-linejoin:round;stroke-miterlimit:10;}
</style>
<path class="st0" d="M83.8,151.4"/>
<g>
	<g>
		<line class="st1" x1="83.8" y1="7.2" x2="83.8" y2="151.4"/>
		<g>
			<polygon points="79.4,10.5 83.8,8.6 88.2,10.5 83.8,0 			"/>
		</g>
	</g>
</g>
<path class="st0" d="M669.2,128"/>
<g>
	<g>
		<line class="st1" x1="0" y1="128" x2="662" y2="128"/>
		<g>
			<polygon points="658.7,132.4 660.6,128 658.7,123.6 669.2,128 			"/>
		</g>
	</g>
</g>
<path class="st0" d="M0,128"/>
<path class="st0" d="M34.7,128"/>
<path class="st0" d="M182.7,128"/>
<path class="st0" d="M81.5,29.1h2.3"/>
<path class="st2" d="M84.1,29.3H576"/>
<path class="st3" d="M669.2,29.3"/>
<path class="st4" d="M576,29.3h93.2"/>
<path class="st3" d="M0,29.3"/>
<path class="st4" d="M84.1,29.3H0"/>
<path d="M86.4,29.3c0,1.3-1,2.3-2.3,2.3s-2.3-1-2.3-2.3s1-2.3,2.3-2.3S86.4,28.1,86.4,29.3z"/>
<path class="st5" d="M88.6,29.3c0,2.5-2.1,4.5-4.5,4.5s-4.5-2-4.5-4.5s2.1-4.5,4.5-4.5S88.6,26.9,88.6,29.3z"/>
<path d="M578.3,29.3c0,1.3-1,2.3-2.3,2.3s-2.3-1-2.3-2.3s1-2.3,2.3-2.3S578.3,28.1,578.3,29.3z"/>
<path class="st5" d="M580.5,29.3c0,2.5-2,4.5-4.5,4.5s-4.5-2-4.5-4.5s2-4.5,4.5-4.5S580.5,26.9,580.5,29.3z"/>
<path class="st6" d="M627.5,29.3c0,1.3-1,2.3-2.3,2.3s-2.3-1-2.3-2.3s1-2.3,2.3-2.3S627.5,28.1,627.5,29.3z"/>
<path class="st7" d="M629.7,29.3c0,2.5-2,4.5-4.5,4.5s-4.5-2-4.5-4.5s2-4.5,4.5-4.5S629.7,26.9,629.7,29.3z"/>
<path class="st6" d="M37.2,29.3c0,1.3-1,2.3-2.3,2.3s-2.3-1-2.3-2.3s1-2.3,2.3-2.3S37.2,28.1,37.2,29.3z"/>
<path class="st8" d="M39.4,29.3c0,2.5-2,4.5-4.5,4.5s-4.5-2-4.5-4.5s2-4.5,4.5-4.5C37.3,24.8,39.4,26.9,39.4,29.3z"/>
<path class="st9" d="M184.8,29.3c0,1.3-1,2.3-2.3,2.3s-2.3-1-2.3-2.3s1-2.3,2.3-2.3S184.8,28.1,184.8,29.3z"/>
<path class="st10" d="M187,29.3c0,2.5-2,4.5-4.5,4.5s-4.5-2-4.5-4.5s2-4.5,4.5-4.5S187,26.9,187,29.3z"/>
<path class="st9" d="M332.4,29.3c0,1.3-1,2.3-2.3,2.3s-2.3-1-2.3-2.3s1-2.3,2.3-2.3S332.4,28.1,332.4,29.3z"/>
<path class="st10" d="M334.6,29.3c0,2.5-2,4.5-4.5,4.5s-4.5-2-4.5-4.5s2-4.5,4.5-4.5C332.5,24.8,334.6,26.9,334.6,29.3z"/>
<path class="st9" d="M480,29.3c0,1.3-1,2.3-2.3,2.3s-2.3-1-2.3-2.3s1-2.3,2.3-2.3C478.9,27,480,28.1,480,29.3z"/>
<path class="st10" d="M482.2,29.3c0,2.5-2,4.5-4.5,4.5s-4.5-2-4.5-4.5s2-4.5,4.5-4.5C480.1,24.8,482.2,26.9,482.2,29.3z"/>
<g>
	<g>
		<path d="M93,39.9l-1.8-0.3v-0.7h4.3v0.7l-2.2,0.3H93z M93.6,38.9l2.8,7.3l-0.7,0.9l2.9-8.3h1l-3.3,8.6h-0.7L92,38.8L93.6,38.9
			L93.6,38.9z M98.5,39.9l-1.8-0.3v-0.7h3.4v0.7l-1.3,0.3H98.5z"/>
		<path d="M105.8,46.6c0,3-1.2,4-2.5,4s-2.5-1-2.5-4s1.2-4.1,2.5-4.1C104.6,42.5,105.8,43.6,105.8,46.6z M103.3,50
			c0.7,0,1.4-0.7,1.4-3.5S104,43,103.3,43c-0.8,0-1.4,0.7-1.4,3.5S102.6,50,103.3,50z"/>
	</g>
</g>
<g>
	<g>
		<path d="M583.8,39.9l-1.8-0.3v-0.7h4.3v0.7l-2.2,0.3H583.8z M584.3,38.9l2.8,7.3l-0.7,0.9l2.9-8.3h1l-3.3,8.6h-0.7l-3.6-8.6
			L584.3,38.9L584.3,38.9z M589.3,39.9l-1.8-0.3v-0.7h3.4v0.7l-1.3,0.3H589.3z"/>
		<path d="M596.4,50v0.4H592V50l1.7-0.3h1L596.4,50z M594.5,42.6l0.2,0.1v1.7v3.5c0,0.8,0,1.7,0,2.5h-1c0-0.8,0-1.7,0-2.5v-4.3
			l-1.6,0.1v-0.5L594.5,42.6z"/>
	</g>
</g>
</svg>
