<?xml version="1.0" encoding="utf-8"?>
<!-- Generator: Adobe Illustrator 24.0.3, SVG Export Plug-In . SVG Version: 6.00 Build 0)  -->
<svg version="1.1" id="Layer_1" xmlns="http://www.w3.org/2000/svg" xmlns:xlink="http://www.w3.org/1999/xlink" x="0px" y="0px"
	 width="333.8px" height="288.9px" viewBox="0 0 333.8 288.9" style="enable-background:new 0 0 333.8 288.9;" xml:space="preserve"
	>
<style type="text/css">
	.st0{fill:none;stroke:#000000;stroke-miterlimit:10;}
	.st1{fill:none;stroke:#000000;stroke-width:2;stroke-miterlimit:10;}
	.st2{fill-rule:evenodd;clip-rule:evenodd;fill-opacity:4.705882e-02;}
	.st3{fill:none;stroke:#000000;stroke-width:2;stroke-linecap:round;stroke-linejoin:round;stroke-miterlimit:10;}
	.st4{stroke:#000000;stroke-width:0.5;stroke-linecap:round;stroke-linejoin:round;stroke-miterlimit:10;}
	.st5{stroke:#000000;stroke-width:0.5;stroke-miterlimit:10;}
</style>
<path class="st0" d="M27.4,288.9"/>
<g>
	<g>
		<line class="st1" x1="27.4" y1="7.4" x2="27.4" y2="288.9"/>
		<g>
			<polygon points="22.9,10.8 27.4,8.9 31.8,10.8 27.4,0.3 			"/>
		</g>
	</g>
</g>
<path class="st0" d="M27.4,3.8"/>
<path class="st0" d="M330.2,260.3"/>
<g>
	<g>
		<line class="st1" x1="0" y1="260.3" x2="326.7" y2="260.3"/>
		<g>
			<polygon points="323.3,264.8 325.2,260.3 323.3,255.9 333.8,260.3 			"/>
		</g>
	</g>
</g>
<path class="st0" d="M0,260.3"/>
<path class="st0" d="M27.4,260.3v3.1"/>
<path class="st2" d="M48.8,226.9l20.7,8l23.4,2l22-4.7l20.7-14l15.4-16l16-10.7l18-0.7l18,8l14,16l12,16.7l14,10.7l19.4,4.7l20-2.7
	l15.4-10.7l12.7-16l6.7-18.7l2.7-20l4-42.1l3.3-40.8l2.7-36.7l-2-21.4l-14-16l-22-6.7l-19.4,6.7l-19.4,8.7l-20,3.3l-15.4-8.7
	l-12-13.4l-14.7-8L172.8,8l-11.7,12.4l2,20l9.4,17.4l12,16.7l18.7,29.4l10.7,19.4l-2,20.7l-14.7,10.7l-18-0.7l-6.3-17.9l9.6-18.2
	l-2.7-17.4l-16-10L135,93.3l-28.7,11.4l-33.4,24.7l-26.7,35.4l-10.7,32.1l2.7,20L48.8,226.9z"/>
<path class="st3" d="M48.8,226.9l20.7,8"/>
<path class="st3" d="M69.5,234.9l23.4,2"/>
<path class="st3" d="M92.9,236.9l22-4.7"/>
<path class="st3" d="M115,232.2l20.7-14"/>
<path class="st3" d="M135.7,218.2l15.4-16"/>
<path class="st3" d="M151,202.2l16-10.7"/>
<path class="st3" d="M167.1,191.5l18-0.7"/>
<path class="st3" d="M185.1,190.8l18,8"/>
<path class="st3" d="M203.1,198.8l14,16"/>
<path class="st3" d="M217.2,214.9l12,16.7"/>
<path class="st3" d="M229.2,231.6l14,10.7"/>
<path class="st3" d="M243.2,242.3l19.4,4.7"/>
<path class="st3" d="M262.6,246.9l20-2.7"/>
<path class="st3" d="M282.6,244.3l15.4-10.7"/>
<path class="st3" d="M298,233.6l12.7-16"/>
<path class="st3" d="M310.7,217.5l6.7-18.7"/>
<path class="st3" d="M317.4,198.8l2.7-20"/>
<path class="st3" d="M320.1,178.8l4-42.1"/>
<path class="st3" d="M324.1,136.7l3.3-40.8"/>
<path class="st3" d="M327.4,95.9l2.7-36.7"/>
<path class="st3" d="M330.1,59.2l-2-21.4"/>
<path class="st3" d="M328.1,37.8l-14-16"/>
<path class="st3" d="M314,21.8l-22-6.7"/>
<path class="st3" d="M292,15.1l-19.4,6.7"/>
<path class="st3" d="M272.6,21.8l-19.4,8.7"/>
<path class="st3" d="M253.2,30.5l-20,3.3"/>
<path class="st3" d="M233.2,33.8l-15.4-8.7"/>
<path class="st3" d="M217.8,25.1l-12-13.4"/>
<path class="st3" d="M205.8,11.8l-14.7-8"/>
<path class="st3" d="M191.1,3.8L172.8,8"/>
<path class="st3" d="M172.8,8l-11.7,12.4"/>
<path class="st3" d="M161.1,20.5l2,20"/>
<path class="st3" d="M163.1,40.5l9.4,17.4"/>
<path class="st3" d="M172.4,57.9l12,16.7"/>
<path class="st3" d="M184.4,74.6l18.7,29.4"/>
<path class="st3" d="M203.1,104l10.7,19.4"/>
<path class="st3" d="M213.8,123.3l-2,20.7"/>
<path class="st3" d="M211.8,144l-14.7,10.7"/>
<path class="st3" d="M197.1,154.7l-18-0.7"/>
<path class="st3" d="M179.1,154.1l-6.3-17.9"/>
<path class="st3" d="M172.8,136.2l9.6-18.2"/>
<path class="st3" d="M182.4,118l-2.7-17.4"/>
<path class="st3" d="M179.8,100.6l-16-10"/>
<path class="st3" d="M163.7,90.6L135,93.3"/>
<path class="st3" d="M135,93.3l-28.7,11.4"/>
<path class="st3" d="M106.3,104.6l-33.4,24.7"/>
<path class="st3" d="M72.9,129.3l-26.7,35.4"/>
<path class="st3" d="M46.1,164.8l-10.7,32.1"/>
<path class="st3" d="M35.5,196.8l2.7,20"/>
<path class="st3" d="M38.1,216.9l10.7,10"/>
<path d="M50.9,226.9c0,1.2-0.9,2.1-2.1,2.1c-1.2,0-2.1-0.9-2.1-2.1c0-1.2,0.9-2.1,2.1-2.1C50,224.8,50.9,225.7,50.9,226.9z"/>
<path class="st4" d="M51.8,226.9c0,1.7-1.3,3-3,3c-1.7,0-3-1.3-3-3s1.3-3,3-3C50.5,223.9,51.8,225.2,51.8,226.9z"/>
<path d="M71.6,234.9c0,1.2-0.9,2.1-2.1,2.1c-1.2,0-2.1-0.9-2.1-2.1c0-1.2,0.9-2.1,2.1-2.1C70.7,232.8,71.6,233.7,71.6,234.9z"/>
<path class="st4" d="M72.5,234.9c0,1.7-1.3,3-3,3c-1.7,0-3-1.3-3-3c0-1.7,1.3-3,3-3C71.2,231.9,72.5,233.2,72.5,234.9z"/>
<path d="M95,236.9c0,1.2-0.9,2.1-2.1,2.1c-1.2,0-2.1-0.9-2.1-2.1c0-1.2,0.9-2.1,2.1-2.1C94.1,234.8,95,235.8,95,236.9z"/>
<path class="st4" d="M95.9,236.9c0,1.7-1.3,3-3,3c-1.7,0-3-1.3-3-3c0-1.7,1.3-3,3-3C94.6,233.9,95.9,235.3,95.9,236.9z"/>
<path d="M117,232.2c0,1.2-0.9,2.1-2.1,2.1c-1.2,0-2.1-0.9-2.1-2.1c0-1.2,0.9-2.1,2.1-2.1C116.1,230.1,117,231.1,117,232.2z"/>
<path class="st4" d="M118,232.2c0,1.7-1.3,3-3,3c-1.7,0-3-1.3-3-3c0-1.7,1.3-3,3-3C116.6,229.2,118,230.6,118,232.2z"/>
<path d="M137.8,218.2c0,1.2-0.9,2.1-2.1,2.1c-1.2,0-2.1-0.9-2.1-2.1c0-1.2,0.9-2.1,2.1-2.1C136.8,216.1,137.8,217,137.8,218.2z"/>
<path class="st4" d="M138.7,218.2c0,1.7-1.3,3-3,3c-1.7,0-3-1.3-3-3c0-1.7,1.3-3,3-3C137.3,215.2,138.7,216.5,138.7,218.2z"/>
<path d="M153.1,202.2c0,1.2-0.9,2.1-2.1,2.1c-1.2,0-2.1-0.9-2.1-2.1c0-1.2,0.9-2.1,2.1-2.1C152.2,200.1,153.1,201,153.1,202.2z"/>
<path class="st4" d="M154,202.2c0,1.7-1.3,3-3,3c-1.7,0-3-1.3-3-3c0-1.7,1.3-3,3-3C152.7,199.2,154,200.5,154,202.2z"/>
<path d="M169.2,191.5c0,1.2-0.9,2.1-2.1,2.1c-1.2,0-2.1-0.9-2.1-2.1c0-1.2,0.9-2.1,2.1-2.1C168.2,189.4,169.2,190.3,169.2,191.5z"/>
<path class="st4" d="M170.1,191.5c0,1.7-1.3,3-3,3c-1.7,0-3-1.3-3-3c0-1.7,1.3-3,3-3C168.7,188.5,170.1,189.8,170.1,191.5z"/>
<path d="M187.2,190.8c0,1.2-0.9,2.1-2.1,2.1c-1.2,0-2.1-0.9-2.1-2.1c0-1.2,0.9-2.1,2.1-2.1C186.3,188.7,187.2,189.7,187.2,190.8z"/>
<path class="st4" d="M188.1,190.8c0,1.7-1.3,3-3,3c-1.7,0-3-1.3-3-3c0-1.7,1.3-3,3-3C186.8,187.8,188.1,189.2,188.1,190.8z"/>
<path d="M205.2,198.8c0,1.2-0.9,2.1-2.1,2.1c-1.2,0-2.1-0.9-2.1-2.1c0-1.2,0.9-2.1,2.1-2.1C204.3,196.7,205.2,197.7,205.2,198.8z"/>
<path class="st4" d="M206.1,198.8c0,1.7-1.3,3-3,3c-1.7,0-3-1.3-3-3c0-1.7,1.3-3,3-3C204.8,195.8,206.1,197.2,206.1,198.8z"/>
<path d="M219.3,214.9c0,1.2-0.9,2.1-2.1,2.1c-1.2,0-2.1-0.9-2.1-2.1c0-1.2,0.9-2.1,2.1-2.1C218.3,212.8,219.3,213.7,219.3,214.9z"/>
<path class="st4" d="M220.2,214.9c0,1.7-1.3,3-3,3c-1.7,0-3-1.3-3-3c0-1.7,1.3-3,3-3C218.8,211.9,220.2,213.2,220.2,214.9z"/>
<path d="M231.3,231.6c0,1.2-0.9,2.1-2.1,2.1c-1.2,0-2.1-0.9-2.1-2.1c0-1.2,0.9-2.1,2.1-2.1C230.4,229.5,231.3,230.4,231.3,231.6z"/>
<path class="st4" d="M232.2,231.6c0,1.7-1.3,3-3,3s-3-1.3-3-3s1.3-3,3-3S232.2,229.9,232.2,231.6z"/>
<path d="M245.3,242.3c0,1.2-0.9,2.1-2.1,2.1c-1.2,0-2.1-0.9-2.1-2.1c0-1.2,0.9-2.1,2.1-2.1C244.4,240.2,245.3,241.1,245.3,242.3z"/>
<path class="st4" d="M246.2,242.3c0,1.7-1.3,3-3,3s-3-1.3-3-3s1.3-3,3-3S246.2,240.6,246.2,242.3z"/>
<path d="M264.7,246.9c0,1.2-0.9,2.1-2.1,2.1s-2.1-0.9-2.1-2.1c0-1.2,0.9-2.1,2.1-2.1S264.7,245.8,264.7,246.9z"/>
<path class="st4" d="M265.6,246.9c0,1.7-1.3,3-3,3s-3-1.3-3-3s1.3-3,3-3S265.6,245.3,265.6,246.9z"/>
<path d="M284.7,244.3c0,1.2-0.9,2.1-2.1,2.1c-1.2,0-2.1-0.9-2.1-2.1s0.9-2.1,2.1-2.1C283.8,242.2,284.7,243.1,284.7,244.3z"/>
<path class="st4" d="M285.6,244.3c0,1.7-1.3,3-3,3s-3-1.3-3-3s1.3-3,3-3S285.6,242.6,285.6,244.3z"/>
<path d="M300.1,233.6c0,1.2-0.9,2.1-2.1,2.1c-1.2,0-2.1-0.9-2.1-2.1c0-1.2,0.9-2.1,2.1-2.1C299.2,231.5,300.1,232.4,300.1,233.6z"/>
<path class="st4" d="M301,233.6c0,1.7-1.3,3-3,3c-1.7,0-3-1.3-3-3c0-1.7,1.3-3,3-3C299.7,230.6,301,231.9,301,233.6z"/>
<path d="M312.8,217.5c0,1.2-0.9,2.1-2.1,2.1c-1.2,0-2.1-0.9-2.1-2.1s0.9-2.1,2.1-2.1C311.9,215.4,312.8,216.4,312.8,217.5z"/>
<path class="st4" d="M313.7,217.5c0,1.7-1.3,3-3,3c-1.7,0-3-1.3-3-3s1.3-3,3-3C312.4,214.5,313.7,215.9,313.7,217.5z"/>
<path d="M319.5,198.8c0,1.2-0.9,2.1-2.1,2.1s-2.1-0.9-2.1-2.1c0-1.2,0.9-2.1,2.1-2.1S319.5,197.7,319.5,198.8z"/>
<path class="st4" d="M320.4,198.8c0,1.7-1.3,3-3,3s-3-1.3-3-3c0-1.7,1.3-3,3-3S320.4,197.2,320.4,198.8z"/>
<path d="M322.1,178.8c0,1.2-0.9,2.1-2.1,2.1c-1.2,0-2.1-0.9-2.1-2.1c0-1.2,0.9-2.1,2.1-2.1C321.2,176.7,322.1,177.6,322.1,178.8z"/>
<path class="st4" d="M323.1,178.8c0,1.7-1.3,3-3,3c-1.7,0-3-1.3-3-3c0-1.7,1.3-3,3-3C321.7,175.8,323.1,177.1,323.1,178.8z"/>
<path d="M326.2,136.7c0,1.2-0.9,2.1-2.1,2.1s-2.1-0.9-2.1-2.1c0-1.2,0.9-2.1,2.1-2.1S326.2,135.5,326.2,136.7z"/>
<path class="st4" d="M327.1,136.7c0,1.7-1.3,3-3,3s-3-1.3-3-3c0-1.7,1.3-3,3-3S327.1,135,327.1,136.7z"/>
<path d="M329.5,95.9c0,1.2-0.9,2.1-2.1,2.1c-1.2,0-2.1-0.9-2.1-2.1c0-1.2,0.9-2.1,2.1-2.1C328.6,93.9,329.5,94.8,329.5,95.9z"/>
<path class="st4" d="M330.4,95.9c0,1.7-1.3,3-3,3c-1.7,0-3-1.3-3-3c0-1.7,1.3-3,3-3C329.1,92.9,330.4,94.3,330.4,95.9z"/>
<path class="st5" d="M333.1,59.2c0,1.7-1.3,3-3,3s-3-1.3-3-3c0-1.7,1.3-3,3-3S333.1,57.5,333.1,59.2z"/>
<path d="M330.2,37.8c0,1.2-0.9,2.1-2.1,2.1c-1.2,0-2.1-0.9-2.1-2.1c0-1.2,0.9-2.1,2.1-2.1C329.2,35.7,330.2,36.7,330.2,37.8z"/>
<path class="st4" d="M331.1,37.8c0,1.7-1.3,3-3,3c-1.7,0-3-1.3-3-3c0-1.7,1.3-3,3-3C329.7,34.8,331.1,36.2,331.1,37.8z"/>
<path d="M316.1,21.8c0,1.2-0.9,2.1-2.1,2.1s-2.1-0.9-2.1-2.1c0-1.2,0.9-2.1,2.1-2.1S316.1,20.6,316.1,21.8z"/>
<path class="st4" d="M317,21.8c0,1.7-1.3,3-3,3s-3-1.3-3-3c0-1.7,1.3-3,3-3S317,20.1,317,21.8z"/>
<path d="M294.1,15.1c0,1.2-0.9,2.1-2.1,2.1s-2.1-0.9-2.1-2.1c0-1.2,0.9-2.1,2.1-2.1S294.1,14,294.1,15.1z"/>
<path class="st4" d="M295,15.1c0,1.7-1.3,3-3,3s-3-1.3-3-3c0-1.7,1.3-3,3-3S295,13.5,295,15.1z"/>
<path d="M274.7,21.8c0,1.2-0.9,2.1-2.1,2.1c-1.2,0-2.1-0.9-2.1-2.1c0-1.2,0.9-2.1,2.1-2.1C273.8,19.7,274.7,20.6,274.7,21.8z"/>
<path class="st4" d="M275.6,21.8c0,1.7-1.3,3-3,3c-1.7,0-3-1.3-3-3c0-1.7,1.3-3,3-3C274.3,18.8,275.6,20.1,275.6,21.8z"/>
<path d="M255.3,30.5c0,1.2-0.9,2.1-2.1,2.1c-1.2,0-2.1-0.9-2.1-2.1c0-1.2,0.9-2.1,2.1-2.1C254.4,28.4,255.3,29.3,255.3,30.5z"/>
<path class="st4" d="M256.2,30.5c0,1.7-1.3,3-3,3c-1.7,0-3-1.3-3-3c0-1.7,1.3-3,3-3C254.9,27.5,256.2,28.8,256.2,30.5z"/>
<path d="M235.3,33.8c0,1.2-0.9,2.1-2.1,2.1c-1.2,0-2.1-0.9-2.1-2.1c0-1.2,0.9-2.1,2.1-2.1C234.4,31.7,235.3,32.7,235.3,33.8z"/>
<path class="st4" d="M236.2,33.8c0,1.7-1.3,3-3,3c-1.7,0-3-1.3-3-3c0-1.7,1.3-3,3-3C234.9,30.8,236.2,32.2,236.2,33.8z"/>
<path d="M219.9,25.1c0,1.2-0.9,2.1-2.1,2.1c-1.2,0-2.1-0.9-2.1-2.1c0-1.2,0.9-2.1,2.1-2.1C219,23,219.9,24,219.9,25.1z"/>
<path class="st4" d="M220.8,25.1c0,1.7-1.3,3-3,3c-1.7,0-3-1.3-3-3c0-1.7,1.3-3,3-3C219.5,22.1,220.8,23.5,220.8,25.1z"/>
<path class="st5" d="M208.8,11.8c0,1.7-1.3,3-3,3s-3-1.3-3-3c0-1.7,1.3-3,3-3S208.8,10.1,208.8,11.8z"/>
<path d="M193.2,3.8c0,1.2-0.9,2.1-2.1,2.1c-1.2,0-2.1-0.9-2.1-2.1s0.9-2.1,2.1-2.1C192.3,1.7,193.2,2.6,193.2,3.8z"/>
<path class="st4" d="M194.1,3.8c0,1.7-1.3,3-3,3c-1.7,0-3-1.3-3-3s1.3-3,3-3C192.8,0.8,194.1,2.1,194.1,3.8z"/>
<path d="M174.9,8c0,1.2-0.9,2.1-2.1,2.1c-1.2,0-2.1-0.9-2.1-2.1c0-1.2,0.9-2.1,2.1-2.1C174,5.9,174.9,6.9,174.9,8z"/>
<path class="st4" d="M175.8,8c0,1.7-1.3,3-3,3c-1.7,0-3-1.3-3-3c0-1.7,1.3-3,3-3C174.5,5,175.8,6.4,175.8,8z"/>
<path d="M163.1,20.5c0,1.2-0.9,2.1-2.1,2.1c-1.2,0-2.1-0.9-2.1-2.1c0-1.2,0.9-2.1,2.1-2.1C162.2,18.4,163.1,19.3,163.1,20.5z"/>
<path class="st4" d="M164.1,20.5c0,1.7-1.3,3-3,3c-1.7,0-3-1.3-3-3c0-1.7,1.3-3,3-3C162.7,17.5,164.1,18.8,164.1,20.5z"/>
<path d="M165.2,40.5c0,1.2-0.9,2.1-2.1,2.1c-1.2,0-2.1-0.9-2.1-2.1c0-1.2,0.9-2.1,2.1-2.1C164.2,38.4,165.2,39.3,165.2,40.5z"/>
<path class="st4" d="M166.1,40.5c0,1.7-1.3,3-3,3c-1.7,0-3-1.3-3-3c0-1.7,1.3-3,3-3C164.7,37.5,166.1,38.8,166.1,40.5z"/>
<path d="M174.5,57.9c0,1.2-0.9,2.1-2.1,2.1c-1.2,0-2.1-0.9-2.1-2.1c0-1.2,0.9-2.1,2.1-2.1C173.6,55.8,174.5,56.7,174.5,57.9z"/>
<path class="st4" d="M175.4,57.9c0,1.7-1.3,3-3,3c-1.7,0-3-1.3-3-3c0-1.7,1.3-3,3-3C174.1,54.9,175.4,56.2,175.4,57.9z"/>
<path d="M186.5,74.6c0,1.2-0.9,2.1-2.1,2.1c-1.2,0-2.1-0.9-2.1-2.1c0-1.2,0.9-2.1,2.1-2.1C185.6,72.5,186.5,73.4,186.5,74.6z"/>
<path class="st4" d="M187.4,74.6c0,1.7-1.3,3-3,3c-1.7,0-3-1.3-3-3c0-1.7,1.3-3,3-3C186.1,71.6,187.4,72.9,187.4,74.6z"/>
<path d="M205.2,104c0,1.2-0.9,2.1-2.1,2.1c-1.2,0-2.1-0.9-2.1-2.1c0-1.2,0.9-2.1,2.1-2.1C204.3,101.9,205.2,102.8,205.2,104z"/>
<path class="st4" d="M206.1,104c0,1.7-1.3,3-3,3c-1.7,0-3-1.3-3-3c0-1.7,1.3-3,3-3C204.8,101,206.1,102.3,206.1,104z"/>
<path d="M215.9,123.3c0,1.2-0.9,2.1-2.1,2.1c-1.2,0-2.1-0.9-2.1-2.1c0-1.2,0.9-2.1,2.1-2.1C215,121.2,215.9,122.2,215.9,123.3z"/>
<path class="st4" d="M216.8,123.3c0,1.7-1.3,3-3,3s-3-1.3-3-3c0-1.7,1.3-3,3-3S216.8,121.7,216.8,123.3z"/>
<path d="M213.9,144c0,1.2-0.9,2.1-2.1,2.1c-1.2,0-2.1-0.9-2.1-2.1c0-1.2,0.9-2.1,2.1-2.1C213,142,213.9,142.9,213.9,144z"/>
<path class="st4" d="M214.8,144c0,1.7-1.3,3-3,3s-3-1.3-3-3c0-1.7,1.3-3,3-3S214.8,142.4,214.8,144z"/>
<path d="M199.2,154.7c0,1.2-0.9,2.1-2.1,2.1c-1.2,0-2.1-0.9-2.1-2.1c0-1.2,0.9-2.1,2.1-2.1C198.3,152.6,199.2,153.6,199.2,154.7z"/>
<path class="st4" d="M200.1,154.7c0,1.7-1.3,3-3,3c-1.7,0-3-1.3-3-3c0-1.7,1.3-3,3-3C198.8,151.7,200.1,153.1,200.1,154.7z"/>
<path d="M181.2,154.1c0,1.2-0.9,2.1-2.1,2.1c-1.2,0-2.1-0.9-2.1-2.1c0-1.2,0.9-2.1,2.1-2.1C180.2,152,181.2,152.9,181.2,154.1z"/>
<path class="st4" d="M182.1,154.1c0,1.7-1.3,3-3,3c-1.7,0-3-1.3-3-3c0-1.7,1.3-3,3-3C180.7,151.1,182.1,152.4,182.1,154.1z"/>
<path d="M174.9,136.2c0,1.2-0.9,2.1-2.1,2.1c-1.2,0-2.1-0.9-2.1-2.1c0-1.2,0.9-2.1,2.1-2.1C174,134.1,174.9,135,174.9,136.2z"/>
<path class="st4" d="M175.8,136.2c0,1.7-1.3,3-3,3c-1.7,0-3-1.3-3-3c0-1.7,1.3-3,3-3C174.5,133.2,175.8,134.5,175.8,136.2z"/>
<path d="M184.5,118c0,1.2-0.9,2.1-2.1,2.1c-1.2,0-2.1-0.9-2.1-2.1c0-1.2,0.9-2.1,2.1-2.1C183.6,115.9,184.5,116.8,184.5,118z"/>
<path class="st4" d="M185.4,118c0,1.7-1.3,3-3,3c-1.7,0-3-1.3-3-3c0-1.7,1.3-3,3-3C184.1,115,185.4,116.3,185.4,118z"/>
<path d="M181.9,100.6c0,1.2-0.9,2.1-2.1,2.1c-1.2,0-2.1-0.9-2.1-2.1s0.9-2.1,2.1-2.1C180.9,98.5,181.9,99.5,181.9,100.6z"/>
<path class="st4" d="M182.8,100.6c0,1.7-1.3,3-3,3c-1.7,0-3-1.3-3-3s1.3-3,3-3C181.4,97.6,182.8,99,182.8,100.6z"/>
<path d="M165.8,90.6c0,1.2-0.9,2.1-2.1,2.1c-1.2,0-2.1-0.9-2.1-2.1c0-1.2,0.9-2.1,2.1-2.1C164.9,88.5,165.8,89.4,165.8,90.6z"/>
<path class="st4" d="M166.7,90.6c0,1.7-1.3,3-3,3c-1.7,0-3-1.3-3-3c0-1.7,1.3-3,3-3C165.4,87.6,166.7,88.9,166.7,90.6z"/>
<path d="M137.1,93.3c0,1.2-0.9,2.1-2.1,2.1c-1.2,0-2.1-0.9-2.1-2.1c0-1.2,0.9-2.1,2.1-2.1C136.2,91.2,137.1,92.1,137.1,93.3z"/>
<path class="st4" d="M138,93.3c0,1.7-1.3,3-3,3c-1.7,0-3-1.3-3-3c0-1.7,1.3-3,3-3C136.7,90.3,138,91.6,138,93.3z"/>
<path d="M108.4,104.6c0,1.2-0.9,2.1-2.1,2.1c-1.2,0-2.1-0.9-2.1-2.1c0-1.2,0.9-2.1,2.1-2.1C107.4,102.5,108.4,103.5,108.4,104.6z"/>
<path class="st4" d="M109.3,104.6c0,1.7-1.3,3-3,3c-1.7,0-3-1.3-3-3c0-1.7,1.3-3,3-3C107.9,101.6,109.3,103,109.3,104.6z"/>
<path d="M75,129.3c0,1.2-0.9,2.1-2.1,2.1c-1.2,0-2.1-0.9-2.1-2.1c0-1.2,0.9-2.1,2.1-2.1C74,127.3,75,128.2,75,129.3z"/>
<path class="st4" d="M75.9,129.3c0,1.7-1.3,3-3,3c-1.7,0-3-1.3-3-3c0-1.7,1.3-3,3-3C74.5,126.3,75.9,127.7,75.9,129.3z"/>
<path d="M48.2,164.8c0,1.2-0.9,2.1-2.1,2.1c-1.2,0-2.1-0.9-2.1-2.1c0-1.2,0.9-2.1,2.1-2.1C47.3,162.7,48.2,163.6,48.2,164.8z"/>
<path class="st4" d="M49.1,164.8c0,1.7-1.3,3-3,3c-1.7,0-3-1.3-3-3c0-1.7,1.3-3,3-3C47.8,161.8,49.1,163.1,49.1,164.8z"/>
<path d="M37.5,196.8c0,1.2-0.9,2.1-2.1,2.1c-1.2,0-2.1-0.9-2.1-2.1c0-1.2,0.9-2.1,2.1-2.1C36.6,194.7,37.5,195.7,37.5,196.8z"/>
<path class="st4" d="M38.5,196.8c0,1.7-1.3,3-3,3c-1.7,0-3-1.3-3-3s1.3-3,3-3C37.1,193.8,38.5,195.2,38.5,196.8z"/>
<path d="M40.2,216.9c0,1.2-0.9,2.1-2.1,2.1c-1.2,0-2.1-0.9-2.1-2.1c0-1.2,0.9-2.1,2.1-2.1C39.3,214.8,40.2,215.7,40.2,216.9z"/>
<path class="st4" d="M41.1,216.9c0,1.7-1.3,3-3,3c-1.7,0-3-1.3-3-3s1.3-3,3-3C39.8,213.9,41.1,215.2,41.1,216.9z"/>
<g>
	<g>
		<path d="M46.7,237.3l-1.6-0.3v-0.6h4v0.6l-2,0.3H46.7z M47.2,236.4l2.6,6.8l-0.7,0.9l2.7-7.6h0.9l-3,8H49l-3.4-8H47.2z
			 M51.8,237.3l-1.7-0.3v-0.6h3.2v0.6l-1.2,0.3H51.8z"/>
		<path d="M58.5,243.5c0,2.8-1.1,3.7-2.3,3.7c-1.2,0-2.3-1-2.3-3.7c0-2.8,1.1-3.8,2.3-3.8C57.4,239.7,58.5,240.7,58.5,243.5z
			 M56.2,246.7c0.7,0,1.3-0.7,1.3-3.2c0-2.6-0.6-3.3-1.3-3.3c-0.7,0-1.3,0.6-1.3,3.3C54.9,246,55.5,246.7,56.2,246.7z"/>
	</g>
</g>
</svg>
