<?xml version="1.0" encoding="utf-8"?>
<!-- Generator: Adobe Illustrator 24.0.3, SVG Export Plug-In . SVG Version: 6.00 Build 0)  -->
<svg version="1.1" id="Layer_1" xmlns="http://www.w3.org/2000/svg" xmlns:xlink="http://www.w3.org/1999/xlink" x="0px" y="0px"
	 width="319.8px" height="319.2px" viewBox="0 0 319.8 319.2" style="enable-background:new 0 0 319.8 319.2;" xml:space="preserve"
	>
<style type="text/css">
	.st0{fill:none;stroke:#000000;stroke-miterlimit:10;}
	.st1{fill:none;stroke:#000000;stroke-width:2;stroke-miterlimit:10;}
	.st2{fill-rule:evenodd;clip-rule:evenodd;fill-opacity:4.705882e-02;stroke:#000000;stroke-width:0.75;stroke-miterlimit:10;}
	.st3{fill:none;stroke:#000000;stroke-width:2;stroke-linecap:round;stroke-linejoin:round;stroke-miterlimit:10;}
	.st4{stroke:#000000;stroke-width:0.5;stroke-linecap:round;stroke-linejoin:round;stroke-miterlimit:10;}
	.st5{fill:#FF0033;}
	.st6{fill:#E80F2E;stroke:#000000;stroke-width:0.5;stroke-linecap:round;stroke-linejoin:round;stroke-miterlimit:10;}
	.st7{fill:#FF0033;stroke:#FFFFFF;stroke-miterlimit:10;}
	.st8{fill:#00CC00;}
	.st9{fill:#78BF5A;stroke:#000000;stroke-width:0.5;stroke-linecap:round;stroke-linejoin:round;stroke-miterlimit:10;}
	.st10{fill:#0099FF;}
	.st11{fill:#5E7CEA;stroke:#000000;stroke-width:0.5;stroke-linecap:round;stroke-linejoin:round;stroke-miterlimit:10;}
</style>
<path class="st0" d="M18.8,319.2"/>
<g>
	<g>
		<line class="st1" x1="18.8" y1="7.2" x2="18.8" y2="319.2"/>
		<g>
			<polygon points="14.3,10.5 18.8,8.6 23.2,10.5 18.8,0 			"/>
		</g>
	</g>
</g>
<path class="st0" d="M18.8,4.2"/>
<path class="st0" d="M315.5,300.8"/>
<g>
	<g>
		<line class="st1" x1="0" y1="300.8" x2="312.4" y2="300.8"/>
		<g>
			<polygon points="309,305.2 310.9,300.8 309,296.3 319.5,300.8 			"/>
		</g>
	</g>
</g>
<path class="st0" d="M0,300.8"/>
<path class="st0" d="M18.8,300.8v2.2"/>
<path class="st2" d="M18.7,301.1l296.8-74.2L167.1,4.2L18.7,301.1z"/>
<path class="st1" d="M18.7,301.1l296.8-74.2"/>
<path class="st1" d="M315.5,226.9L167.1,4.2"/>
<path class="st3" d="M167.1,4.2L18.7,301.1"/>
<path d="M20.9,301.1c0,1.2-1,2.2-2.2,2.2c-1.2,0-2.2-1-2.2-2.2c0-1.2,1-2.2,2.2-2.2C19.9,298.8,20.9,299.8,20.9,301.1z"/>
<path class="st4" d="M22.7,301.1c0,2.2-1.8,4-4,4c-2.2,0-4-1.8-4-4c0-2.2,1.8-4,4-4C20.9,297.1,22.7,298.8,22.7,301.1z"/>
<path class="st5" d="M317.7,226.9c0,1.2-1,2.2-2.2,2.2s-2.2-1-2.2-2.2s1-2.2,2.2-2.2S317.7,225.6,317.7,226.9z"/>
<path class="st6" d="M319.5,226.9c0,2.2-1.8,4-4,4c-2.2,0-4-1.8-4-4s1.8-4,4-4C317.7,222.9,319.5,224.6,319.5,226.9z"/>
<path class="st7" d="M169.3,4.2c0,1.2-1,2.2-2.2,2.2c-1.2,0-2.2-1-2.2-2.2c0-1.2,1-2.2,2.2-2.2C168.4,2,169.3,3,169.3,4.2z"/>
<path class="st6" d="M171.1,4.2c0,2.2-1.8,4-4,4c-2.2,0-4-1.8-4-4c0-2.2,1.8-4,4-4C169.3,0.2,171.1,2,171.1,4.2z"/>
<path class="st8" d="M95.1,226.9c0,1.2-1,2.2-2.2,2.2c-1.2,0-2.2-1-2.2-2.2s1-2.2,2.2-2.2C94.2,224.6,95.1,225.6,95.1,226.9z"/>
<path class="st9" d="M96.9,226.9c0,2.2-1.8,4-4,4c-2.2,0-4-1.8-4-4s1.8-4,4-4C95.1,222.9,96.9,224.6,96.9,226.9z"/>
<path class="st8" d="M169.3,226.9c0,1.2-1,2.2-2.2,2.2c-1.2,0-2.2-1-2.2-2.2s1-2.2,2.2-2.2C168.4,224.6,169.3,225.6,169.3,226.9z"/>
<path class="st9" d="M171.1,226.9c0,2.2-1.8,4-4,4c-2.2,0-4-1.8-4-4s1.8-4,4-4C169.3,222.9,171.1,224.6,171.1,226.9z"/>
<path class="st8" d="M169,190.2c0,1.2-1,2.2-2.2,2.2c-1.2,0-2.2-1-2.2-2.2c0-1.2,1-2.2,2.2-2.2C168,188,169,189,169,190.2z"/>
<path class="st9" d="M170.8,190.2c0,2.2-1.8,4-4,4s-4-1.8-4-4c0-2.2,1.8-4,4-4S170.8,188,170.8,190.2z"/>
<path class="st8" d="M169.3,152.7c0,1.2-1,2.2-2.2,2.2c-1.2,0-2.2-1-2.2-2.2c0-1.2,1-2.2,2.2-2.2
	C168.4,150.4,169.3,151.4,169.3,152.7z"/>
<path class="st9" d="M171.1,152.7c0,2.2-1.8,4-4,4c-2.2,0-4-1.8-4-4c0-2.2,1.8-4,4-4C169.3,148.7,171.1,150.4,171.1,152.7z"/>
<path class="st8" d="M169,115.6c0,1.2-1,2.2-2.2,2.2c-1.2,0-2.2-1-2.2-2.2c0-1.2,1-2.2,2.2-2.2C168,113.4,169,114.4,169,115.6z"/>
<path class="st9" d="M170.8,115.6c0,2.2-1.8,4-4,4s-4-1.8-4-4c0-2.2,1.8-4,4-4S170.8,113.4,170.8,115.6z"/>
<path class="st8" d="M169.3,78.5c0,1.2-1,2.2-2.2,2.2c-1.2,0-2.2-1-2.2-2.2s1-2.2,2.2-2.2C168.4,76.2,169.3,77.2,169.3,78.5z"/>
<path class="st9" d="M171.1,78.5c0,2.2-1.8,4-4,4c-2.2,0-4-1.8-4-4s1.8-4,4-4C169.3,74.5,171.1,76.2,171.1,78.5z"/>
<path class="st8" d="M131.8,152.9c0,1.2-1,2.2-2.2,2.2c-1.2,0-2.2-1-2.2-2.2c0-1.2,1-2.2,2.2-2.2
	C130.8,150.7,131.8,151.7,131.8,152.9z"/>
<path class="st9" d="M133.6,152.9c0,2.2-1.8,4-4,4c-2.2,0-4-1.8-4-4s1.8-4,4-4C131.8,148.9,133.6,150.7,133.6,152.9z"/>
<path class="st8" d="M206.3,152.9c0,1.2-1,2.2-2.2,2.2s-2.2-1-2.2-2.2c0-1.2,1-2.2,2.2-2.2S206.3,151.7,206.3,152.9z"/>
<path class="st9" d="M208.1,152.9c0,2.2-1.8,4-4,4s-4-1.8-4-4s1.8-4,4-4S208.1,150.7,208.1,152.9z"/>
<path class="st8" d="M243.6,190.2c0,1.2-1,2.2-2.2,2.2s-2.2-1-2.2-2.2c0-1.2,1-2.2,2.2-2.2S243.6,189,243.6,190.2z"/>
<path class="st9" d="M245.4,190.2c0,2.2-1.8,4-4,4s-4-1.8-4-4c0-2.2,1.8-4,4-4S245.4,188,245.4,190.2z"/>
<path class="st5" d="M169.5,263.9c0,1.2-1,2.2-2.2,2.2c-1.2,0-2.2-1-2.2-2.2s1-2.2,2.2-2.2C168.5,261.7,169.5,262.7,169.5,263.9z"/>
<path class="st6" d="M171.2,263.9c0,2.2-1.8,4-4,4c-2.2,0-4-1.8-4-4c0-2.2,1.8-4,4-4C169.5,259.9,171.2,261.7,171.2,263.9z"/>
<path class="st5" d="M95.1,152.7c0,1.2-1,2.2-2.2,2.2c-1.2,0-2.2-1-2.2-2.2c0-1.2,1-2.2,2.2-2.2C94.2,150.4,95.1,151.4,95.1,152.7z"
	/>
<path class="st6" d="M96.9,152.7c0,2.2-1.8,4-4,4c-2.2,0-4-1.8-4-4c0-2.2,1.8-4,4-4C95.1,148.7,96.9,150.4,96.9,152.7z"/>
<path class="st5" d="M243.6,115.6c0,1.2-1,2.2-2.2,2.2c-1.2,0-2.2-1-2.2-2.2s1-2.2,2.2-2.2C242.6,113.4,243.6,114.4,243.6,115.6z"/>
<path class="st6" d="M245.4,115.6c0,2.2-1.8,4-4,4c-2.2,0-4-1.8-4-4c0-2.2,1.8-4,4-4C243.6,111.6,245.4,113.4,245.4,115.6z"/>
<path class="st10" d="M58.5,152.9c0,1.2-1,2.2-2.2,2.2c-1.2,0-2.2-1-2.2-2.2c0-1.2,1-2.2,2.2-2.2C57.5,150.7,58.5,151.7,58.5,152.9z
	"/>
<path class="st11" d="M60.3,152.9c0,2.2-1.8,4-4,4c-2.2,0-4-1.8-4-4s1.8-4,4-4C58.5,148.9,60.3,150.7,60.3,152.9z"/>
<path class="st10" d="M95.7,41.1c0,1.2-1,2.2-2.2,2.2c-1.2,0-2.2-1-2.2-2.2c0-1.2,1-2.2,2.2-2.2C94.7,38.9,95.7,39.9,95.7,41.1z"/>
<path class="st11" d="M97.5,41.1c0,2.2-1.8,4-4,4c-2.2,0-4-1.8-4-4c0-2.2,1.8-4,4-4C95.7,37.1,97.5,38.9,97.5,41.1z"/>
<path class="st10" d="M243.6,41.1c0,1.2-1,2.2-2.2,2.2s-2.2-1-2.2-2.2c0-1.2,1-2.2,2.2-2.2S243.6,39.9,243.6,41.1z"/>
<path class="st11" d="M245.4,41.1c0,2.2-1.8,4-4,4s-4-1.8-4-4c0-2.2,1.8-4,4-4S245.4,38.9,245.4,41.1z"/>
<path class="st10" d="M280.8,78.4c0,1.2-1,2.2-2.2,2.2c-1.2,0-2.2-1-2.2-2.2s1-2.2,2.2-2.2C279.9,76.2,280.8,77.2,280.8,78.4z"/>
<path class="st11" d="M282.6,78.4c0,2.2-1.8,4-4,4c-2.2,0-4-1.8-4-4c0-2.2,1.8-4,4-4C280.8,74.4,282.6,76.2,282.6,78.4z"/>
<g>
	<g>
		<path d="M164.9,23.5l-1.6-0.3v-0.6h4v0.6l-2,0.3H164.9z M165.5,22.6l2.6,6.8l-0.7,0.9l2.7-7.6h0.9l-3,8h-0.7l-3.4-8H165.5z
			 M170,23.5l-1.7-0.3v-0.6h3.2v0.6l-1.2,0.3H170z"/>
		<path d="M172.2,32.6c0.6-0.6,1.2-1.2,1.6-1.7c1.1-1.2,1.6-2.1,1.6-3c0-0.9-0.5-1.5-1.3-1.5c-0.3,0-0.7,0.1-1.1,0.2l0.6-0.4l-0.3,1
			c-0.1,0.5-0.3,0.7-0.6,0.7c-0.2,0-0.4-0.1-0.6-0.4c0.1-1.2,1.1-1.7,2.2-1.7c1.4,0,2,0.8,2,1.9c0,1-0.5,1.7-2.2,3.4
			c-0.4,0.4-0.9,0.9-1.4,1.4l-0.1-0.2h4.1v0.9h-4.5V32.6z"/>
	</g>
</g>
<g>
	<g>
		<path d="M289.8,213.8l-1.6-0.3v-0.6h4v0.6l-2,0.3H289.8z M290.3,212.9l2.6,6.8l-0.7,0.9l2.7-7.6h0.9l-3,8h-0.7l-3.4-8H290.3z
			 M294.9,213.8l-1.7-0.3v-0.6h3.2v0.6l-1.2,0.3H294.9z"/>
		<path d="M301.5,223.2v0.4h-4.1v-0.4l1.6-0.3h0.9L301.5,223.2z M299.7,216.3l0.2,0.1l0,1.6v3.2c0,0.8,0,1.6,0,2.3h-1
			c0-0.8,0-1.6,0-2.3v-4l-1.5,0.1v-0.4L299.7,216.3z"/>
	</g>
</g>
<g>
	<g>
		<path d="M38,278.8l-1.6-0.3v-0.6h4v0.6l-2,0.3H38z M38.5,277.9l2.6,6.8l-0.7,0.9l2.7-7.6H44l-3,8h-0.7l-3.4-8H38.5z M43.1,278.8
			l-1.7-0.3v-0.6h3.2v0.6l-1.2,0.3H43.1z"/>
		<path d="M49.8,285c0,2.8-1.1,3.7-2.3,3.7c-1.2,0-2.3-1-2.3-3.7c0-2.8,1.1-3.8,2.3-3.8C48.6,281.2,49.8,282.2,49.8,285z
			 M47.5,288.2c0.7,0,1.3-0.7,1.3-3.2c0-2.6-0.6-3.3-1.3-3.3c-0.7,0-1.3,0.6-1.3,3.3C46.2,287.6,46.8,288.2,47.5,288.2z"/>
	</g>
</g>
</svg>
