<?xml version="1.0" encoding="utf-8"?>
<!-- Generator: Adobe Illustrator 24.0.3, SVG Export Plug-In . SVG Version: 6.00 Build 0)  -->
<svg version="1.1" id="Layer_1" xmlns="http://www.w3.org/2000/svg" xmlns:xlink="http://www.w3.org/1999/xlink" x="0px" y="0px"
	 width="581.6px" height="271px" viewBox="0 0 581.6 271" style="enable-background:new 0 0 581.6 271;" xml:space="preserve">
<style type="text/css">
	.st0{fill-rule:evenodd;clip-rule:evenodd;fill-opacity:4.705882e-02;}
	.st1{fill-rule:evenodd;clip-rule:evenodd;fill-opacity:4.705882e-02;stroke:#000000;stroke-width:0.25;stroke-miterlimit:10;}
	.st2{fill:none;stroke:#000000;stroke-width:2;stroke-linecap:round;stroke-linejoin:round;stroke-miterlimit:10;}
	.st3{fill:none;stroke:#000000;stroke-width:2;stroke-linejoin:round;}
	.st4{fill:none;stroke:#000000;stroke-width:2;stroke-linejoin:round;stroke-dasharray:8.9096,7.9196;}
	.st5{fill:none;stroke:#000000;stroke-width:2;stroke-linejoin:round;stroke-dasharray:9.2828,8.2514;}
	.st6{fill:none;stroke:#000000;stroke-width:2;stroke-linejoin:round;stroke-dasharray:9.5426,8.4823;}
	.st7{fill:none;stroke:#000000;stroke-width:2;stroke-linejoin:round;stroke-dasharray:9.1784,8.1585;}
	.st8{stroke:#000000;stroke-width:0.5;stroke-linecap:round;stroke-linejoin:round;stroke-miterlimit:10;}
	.st9{fill:#00CC00;}
	.st10{fill:#78BF5A;stroke:#000000;stroke-width:0.5;stroke-linecap:round;stroke-linejoin:round;stroke-miterlimit:10;}
</style>
<path class="st0" d="M4.2,181.9l43.6,61.5l161.9-44.4l26.5-134.7L100,5.2L8.9,66L4.2,181.9z"/>
<path class="st1" d="M315.5,180.9l43.6,61.5L521,198.1l26.5-134.7L411.2,4.2L320.2,65L315.5,180.9z"/>
<path class="st2" d="M4.2,181.9l43.6,61.5"/>
<path class="st2" d="M47.8,243.4l161.9-44.4"/>
<path class="st2" d="M209.7,199.1l26.5-134.7"/>
<path class="st2" d="M236.2,64.4L100,5.2"/>
<path class="st2" d="M100,5.2L8.9,66"/>
<path class="st2" d="M8.9,66l-4.7,116"/>
<g>
	<g>
		<line class="st3" x1="109.3" y1="123.6" x2="107.3" y2="127.6"/>
		<line class="st4" x1="103.7" y1="134.6" x2="51.7" y2="235.9"/>
		<line class="st3" x1="49.9" y1="239.4" x2="47.8" y2="243.4"/>
	</g>
</g>
<g>
	<g>
		<line class="st3" x1="109.3" y1="123.6" x2="113.4" y2="121.7"/>
		<line class="st5" x1="120.9" y1="118.2" x2="228.4" y2="68"/>
		<line class="st3" x1="232.1" y1="66.3" x2="236.2" y2="64.4"/>
	</g>
</g>
<g>
	<g>
		<line class="st3" x1="109.3" y1="123.6" x2="112.9" y2="126.3"/>
		<line class="st6" x1="119.7" y1="131.4" x2="202.8" y2="193.8"/>
		<line class="st3" x1="206.1" y1="196.4" x2="209.7" y2="199.1"/>
	</g>
</g>
<path class="st2" d="M315.5,180.9l43.6,61.5"/>
<path class="st2" d="M359.1,242.4L521,198.1"/>
<path class="st2" d="M521,198.1l26.5-134.7"/>
<path class="st2" d="M547.5,63.4L411.2,4.2"/>
<path class="st2" d="M411.2,4.2L320.2,65"/>
<path class="st2" d="M320.2,65l-4.7,116"/>
<g>
	<g>
		<line class="st3" x1="420.6" y1="122.6" x2="418.5" y2="126.6"/>
		<line class="st4" x1="414.9" y1="133.6" x2="363" y2="234.9"/>
		<line class="st3" x1="361.1" y1="238.4" x2="359.1" y2="242.4"/>
	</g>
</g>
<g>
	<g>
		<line class="st3" x1="420.6" y1="122.6" x2="424.7" y2="120.7"/>
		<line class="st5" x1="432.1" y1="117.2" x2="539.6" y2="67.1"/>
		<line class="st3" x1="543.4" y1="65.3" x2="547.5" y2="63.4"/>
	</g>
</g>
<g>
	<g>
		<line class="st3" x1="359.1" y1="242.4" x2="362.4" y2="239.3"/>
		<line class="st7" x1="368.3" y1="233.7" x2="541.2" y2="69.3"/>
		<line class="st3" x1="544.2" y1="66.5" x2="547.5" y2="63.4"/>
	</g>
</g>
<path d="M6.4,181.9c0,1.2-1,2.2-2.2,2.2c-1.2,0-2.2-1-2.2-2.2c0-1.2,1-2.2,2.2-2.2C5.4,179.8,6.4,180.7,6.4,181.9z"/>
<path class="st8" d="M8.2,181.9c0,2.2-1.8,4-4,4c-2.2,0-4-1.8-4-4c0-2.2,1.8-4,4-4C6.5,177.9,8.2,179.7,8.2,181.9z"/>
<path d="M50,243.4c0,1.2-1,2.2-2.2,2.2c-1.2,0-2.2-1-2.2-2.2c0-1.2,1-2.2,2.2-2.2C49,241.3,50,242.2,50,243.4z"/>
<path class="st8" d="M51.8,243.4c0,2.2-1.8,4-4,4c-2.2,0-4-1.8-4-4s1.8-4,4-4C50,239.4,51.8,241.2,51.8,243.4z"/>
<path d="M211.9,199.1c0,1.2-1,2.2-2.2,2.2c-1.2,0-2.2-1-2.2-2.2c0-1.2,1-2.2,2.2-2.2C210.9,196.9,211.9,197.9,211.9,199.1z"/>
<path class="st8" d="M213.7,199.1c0,2.2-1.8,4-4,4c-2.2,0-4-1.8-4-4c0-2.2,1.8-4,4-4C212,195.1,213.7,196.9,213.7,199.1z"/>
<path d="M238.4,64.4c0,1.2-1,2.2-2.2,2.2c-1.2,0-2.2-1-2.2-2.2c0-1.2,1-2.2,2.2-2.2C237.4,62.2,238.4,63.2,238.4,64.4z"/>
<path class="st8" d="M240.2,64.4c0,2.2-1.8,4-4,4c-2.2,0-4-1.8-4-4c0-2.2,1.8-4,4-4C238.4,60.4,240.2,62.2,240.2,64.4z"/>
<path d="M102.2,5.2c0,1.2-1,2.2-2.2,2.2c-1.2,0-2.2-1-2.2-2.2c0-1.2,1-2.2,2.2-2.2C101.2,3.1,102.2,4,102.2,5.2z"/>
<path class="st8" d="M104,5.2c0,2.2-1.8,4-4,4c-2.2,0-4-1.8-4-4c0-2.2,1.8-4,4-4C102.2,1.2,104,3,104,5.2z"/>
<path d="M11.1,66c0,1.2-1,2.2-2.2,2.2c-1.2,0-2.2-1-2.2-2.2c0-1.2,1-2.2,2.2-2.2C10.1,63.8,11.1,64.8,11.1,66z"/>
<path class="st8" d="M12.9,66c0,2.2-1.8,4-4,4c-2.2,0-4-1.8-4-4c0-2.2,1.8-4,4-4C11.1,62,12.9,63.7,12.9,66z"/>
<path class="st9" d="M111.5,123.6c0,1.2-1,2.2-2.2,2.2s-2.2-1-2.2-2.2c0-1.2,1-2.2,2.2-2.2S111.5,122.4,111.5,123.6z"/>
<path class="st10" d="M113.3,123.6c0,2.2-1.8,4-4,4c-2.2,0-4-1.8-4-4c0-2.2,1.8-4,4-4C111.5,119.6,113.3,121.3,113.3,123.6z"/>
<path d="M317.7,180.9c0,1.2-1,2.2-2.2,2.2c-1.2,0-2.2-1-2.2-2.2c0-1.2,1-2.2,2.2-2.2C316.7,178.8,317.7,179.7,317.7,180.9z"/>
<path class="st8" d="M319.5,180.9c0,2.2-1.8,4-4,4c-2.2,0-4-1.8-4-4c0-2.2,1.8-4,4-4C317.7,176.9,319.5,178.7,319.5,180.9z"/>
<path d="M361.3,242.4c0,1.2-1,2.2-2.2,2.2s-2.2-1-2.2-2.2s1-2.2,2.2-2.2S361.3,241.2,361.3,242.4z"/>
<path class="st8" d="M363.1,242.4c0,2.2-1.8,4-4,4s-4-1.8-4-4s1.8-4,4-4S363.1,240.2,363.1,242.4z"/>
<path d="M523.2,198.1c0,1.2-1,2.2-2.2,2.2c-1.2,0-2.2-1-2.2-2.2c0-1.2,1-2.2,2.2-2.2C522.2,195.9,523.2,196.9,523.2,198.1z"/>
<path class="st8" d="M525,198.1c0,2.2-1.8,4-4,4c-2.2,0-4-1.8-4-4c0-2.2,1.8-4,4-4C523.2,194.1,525,195.9,525,198.1z"/>
<path d="M549.6,63.4c0,1.2-1,2.2-2.2,2.2c-1.2,0-2.2-1-2.2-2.2c0-1.2,1-2.2,2.2-2.2C548.7,61.2,549.6,62.2,549.6,63.4z"/>
<path class="st8" d="M551.5,63.4c0,2.2-1.8,4-4,4c-2.2,0-4-1.8-4-4s1.8-4,4-4C549.7,59.4,551.5,61.2,551.5,63.4z"/>
<path d="M413.4,4.2c0,1.2-1,2.2-2.2,2.2s-2.2-1-2.2-2.2c0-1.2,1-2.2,2.2-2.2S413.4,3.1,413.4,4.2z"/>
<path class="st8" d="M415.2,4.2c0,2.2-1.8,4-4,4c-2.2,0-4-1.8-4-4c0-2.2,1.8-4,4-4C413.5,0.2,415.2,2,415.2,4.2z"/>
<path d="M322.3,65c0,1.2-1,2.2-2.2,2.2c-1.2,0-2.2-1-2.2-2.2c0-1.2,1-2.2,2.2-2.2C321.4,62.8,322.3,63.8,322.3,65z"/>
<path class="st8" d="M324.2,65c0,2.2-1.8,4-4,4c-2.2,0-4-1.8-4-4c0-2.2,1.8-4,4-4C322.4,61,324.2,62.8,324.2,65z"/>
<path class="st9" d="M422.8,122.6c0,1.2-1,2.2-2.2,2.2c-1.2,0-2.2-1-2.2-2.2c0-1.2,1-2.2,2.2-2.2
	C421.8,120.4,422.8,121.4,422.8,122.6z"/>
<path class="st10" d="M424.6,122.6c0,2.2-1.8,4-4,4c-2.2,0-4-1.8-4-4c0-2.2,1.8-4,4-4C422.8,118.6,424.6,120.4,424.6,122.6z"/>
<g>
	<g>
		<path d="M53.7,254.4l-1.8-0.3v-0.7h4.3v0.7l-2.2,0.3H53.7z M54.3,253.4l2.8,7.3l-0.7,0.9l2.9-8.3h1l-3.3,8.6h-0.7l-3.6-8.6H54.3z
			 M59.2,254.4l-1.8-0.3v-0.7h3.4v0.7l-1.3,0.3H59.2z"/>
		<path d="M62.3,265c0-0.5,0-1.8,0-2.5v-0.6c0-0.7,0-1,0-1.5l-1-0.1v-0.4l1.8-0.7l0.2,0.1l0,1.6v1.6c0,0.7,0,2,0,2.5H62.3z
			 M64.2,264.5v0.4h-2.8v-0.4l1.3-0.2H63L64.2,264.5z M62,257c0-0.5,0.3-0.8,0.8-0.8c0.4,0,0.8,0.3,0.8,0.8c0,0.4-0.3,0.8-0.8,0.8
			C62.4,257.8,62,257.5,62,257z"/>
		<path d="M65.1,261.6h2.8v0.8h-2.8V261.6z"/>
		<path d="M73.6,264.5v0.4h-4.4v-0.4l1.7-0.3h1L73.6,264.5z M71.8,257.1l0.2,0.1l0,1.7v3.5c0,0.8,0,1.7,0,2.5h-1c0-0.8,0-1.7,0-2.5
			v-4.3l-1.6,0.1v-0.5L71.8,257.1z"/>
	</g>
</g>
<g>
	<g>
		<path d="M219.7,209.1l-1.8-0.3v-0.7h4.3v0.7l-2.2,0.3H219.7z M220.3,208.1l2.8,7.3l-0.7,0.9l2.9-8.3h1l-3.3,8.6h-0.7l-3.6-8.6
			H220.3z M225.2,209.1l-1.8-0.3v-0.7h3.4v0.7l-1.3,0.3H225.2z"/>
		<path d="M228.3,219.7c0-0.5,0-1.8,0-2.5v-0.6c0-0.7,0-1,0-1.5l-1-0.1v-0.4l1.8-0.7l0.2,0.1l0,1.6v1.6c0,0.7,0,2,0,2.5H228.3z
			 M230.2,219.3v0.4h-2.8v-0.4l1.3-0.2h0.2L230.2,219.3z M228,211.7c0-0.5,0.3-0.8,0.8-0.8s0.8,0.3,0.8,0.8c0,0.4-0.3,0.8-0.8,0.8
			S228,212.2,228,211.7z"/>
	</g>
</g>
<g>
	<g>
		<path d="M246.3,73.4l-1.8-0.3v-0.7h4.3v0.7l-2.2,0.3H246.3z M246.9,72.4l2.8,7.3l-0.7,0.9l2.9-8.3h1l-3.3,8.6h-0.7l-3.6-8.6H246.9
			z M251.8,73.4l-1.8-0.3v-0.7h3.4v0.7l-1.3,0.3H251.8z"/>
		<path d="M255,84c0-0.5,0-1.8,0-2.5v-0.6c0-0.7,0-1,0-1.5l-1-0.1v-0.4l1.8-0.7l0.2,0.1l0,1.6v1.6c0,0.7,0,2,0,2.5H255z M256.8,83.5
			V84H254v-0.4l1.3-0.2h0.2L256.8,83.5z M254.7,76c0-0.5,0.3-0.8,0.8-0.8c0.4,0,0.8,0.3,0.8,0.8c0,0.4-0.3,0.8-0.8,0.8
			C255,76.8,254.7,76.5,254.7,76z"/>
		<path d="M257.5,80.3v-0.7h5.7v0.7H257.5z M260,77h0.7v6H260V77z"/>
		<path d="M268.9,83.5V84h-4.4v-0.4l1.7-0.3h1L268.9,83.5z M267,76.1l0.2,0.1l0,1.7v3.5c0,0.8,0,1.7,0,2.5h-1c0-0.8,0-1.7,0-2.5
			v-4.3l-1.6,0.1v-0.5L267,76.1z"/>
	</g>
</g>
<g>
	<g>
		<path d="M105.9,103.9l-1.8-0.3v-0.7h4.3v0.7l-2.2,0.3H105.9z M106.5,102.9l2.8,7.3l-0.7,0.9l2.9-8.3h1l-3.3,8.6h-0.7l-3.6-8.6
			H106.5z M111.4,103.9l-1.8-0.3v-0.7h3.4v0.7l-1.3,0.3H111.4z"/>
	</g>
</g>
<g>
	<g>
		<path d="M112.4,189.2l1.8-0.3h0.4l2,0.3v0.7h-4.1V189.2z M117.8,177.8h1.1l4.1,12.2h-1.7l-3.6-10.8h0.4l-3.7,10.8h-0.8
			L117.8,177.8z M115.7,185.2h4.9l0.3,0.8h-5.4L115.7,185.2z M119.2,189.2l2.3-0.3h0.4l2.2,0.3v0.7h-4.9V189.2z"/>
		<path d="M125.6,192.9c0-0.5,0-1.8,0-2.5v-0.6c0-0.7,0-1,0-1.5l-1-0.1v-0.4l1.8-0.7l0.2,0.1l0,1.6v1.6c0,0.7,0,2,0,2.5H125.6z
			 M127.4,192.5v0.4h-2.8v-0.4l1.3-0.2h0.2L127.4,192.5z M125.3,185c0-0.5,0.3-0.8,0.8-0.8c0.4,0,0.8,0.3,0.8,0.8
			c0,0.4-0.3,0.8-0.8,0.8C125.6,185.7,125.3,185.4,125.3,185z"/>
		<path d="M128.3,189.5h2.8v0.8h-2.8V189.5z"/>
		<path d="M136.9,192.5v0.4h-4.4v-0.4l1.7-0.3h1L136.9,192.5z M135,185.1l0.2,0.1l0,1.7v3.5c0,0.8,0,1.7,0,2.5h-1c0-0.8,0-1.7,0-2.5
			v-4.3l-1.6,0.1v-0.5L135,185.1z"/>
	</g>
</g>
<g>
	<g>
		<path d="M175.9,135.7l1.8-0.3h0.4l2,0.3v0.7h-4.1V135.7z M181.2,124.3h1.1l4.1,12.2h-1.7l-3.6-10.8h0.4l-3.7,10.8H177L181.2,124.3
			z M179.1,131.7h4.9l0.3,0.8h-5.4L179.1,131.7z M182.7,135.7l2.3-0.3h0.4l2.2,0.3v0.7h-4.9V135.7z"/>
		<path d="M189,139.5c0-0.5,0-1.8,0-2.5v-0.6c0-0.7,0-1,0-1.5l-1-0.1v-0.4l1.8-0.7l0.2,0.1l0,1.6v1.6c0,0.7,0,2,0,2.5H189z
			 M190.9,139v0.4h-2.8V139l1.3-0.2h0.2L190.9,139z M188.7,131.5c0-0.5,0.3-0.8,0.8-0.8c0.4,0,0.8,0.3,0.8,0.8
			c0,0.4-0.3,0.8-0.8,0.8C189.1,132.3,188.7,132,188.7,131.5z"/>
	</g>
</g>
<g>
	<g>
		<path d="M418,103.9l-1.8-0.3v-0.7h4.3v0.7l-2.2,0.3H418z M418.6,102.9l2.8,7.3l-0.7,0.9l2.9-8.3h1l-3.3,8.6h-0.7l-3.6-8.6H418.6z
			 M423.5,103.9l-1.8-0.3v-0.7h3.4v0.7l-1.3,0.3H423.5z"/>
	</g>
</g>
<g>
	<g>
		<path d="M363.2,254.4l-1.8-0.3v-0.7h4.3v0.7l-2.2,0.3H363.2z M363.8,253.4l2.8,7.3l-0.7,0.9l2.9-8.3h1l-3.3,8.6h-0.7l-3.6-8.6
			H363.8z M368.7,254.4l-1.8-0.3v-0.7h3.4v0.7l-1.3,0.3H368.7z"/>
		<path d="M371.9,265c0-0.5,0-1.8,0-2.5v-0.6c0-0.7,0-1,0-1.5l-1-0.1v-0.4l1.8-0.7l0.2,0.1l0,1.6v1.6c0,0.7,0,2,0,2.5H371.9z
			 M373.7,264.5v0.4h-2.8v-0.4l1.3-0.2h0.2L373.7,264.5z M371.6,257c0-0.5,0.3-0.8,0.8-0.8c0.4,0,0.8,0.3,0.8,0.8
			c0,0.4-0.3,0.8-0.8,0.8C371.9,257.8,371.6,257.5,371.6,257z"/>
		<path d="M374.6,261.6h2.8v0.8h-2.8V261.6z"/>
		<path d="M383.1,264.5v0.4h-4.4v-0.4l1.7-0.3h1L383.1,264.5z M381.3,257.1l0.2,0.1l0,1.7v3.5c0,0.8,0,1.7,0,2.5h-1
			c0-0.8,0-1.7,0-2.5v-4.3l-1.6,0.1v-0.5L381.3,257.1z"/>
	</g>
</g>
<g>
	<g>
		<path d="M531,209.1l-1.8-0.3v-0.7h4.3v0.7l-2.2,0.3H531z M531.6,208.1l2.8,7.3l-0.7,0.9l2.9-8.3h1l-3.3,8.6h-0.7l-3.6-8.6H531.6z
			 M536.5,209.1l-1.8-0.3v-0.7h3.4v0.7l-1.3,0.3H536.5z"/>
		<path d="M539.6,219.7c0-0.5,0-1.8,0-2.5v-0.6c0-0.7,0-1,0-1.5l-1-0.1v-0.4l1.8-0.7l0.2,0.1l0,1.6v1.6c0,0.7,0,2,0,2.5H539.6z
			 M541.5,219.3v0.4h-2.8v-0.4l1.3-0.2h0.2L541.5,219.3z M539.3,211.7c0-0.5,0.3-0.8,0.8-0.8s0.8,0.3,0.8,0.8c0,0.4-0.3,0.8-0.8,0.8
			S539.3,212.2,539.3,211.7z"/>
	</g>
</g>
<g>
	<g>
		<path d="M558.4,73.4l-1.8-0.3v-0.7h4.3v0.7l-2.2,0.3H558.4z M559,72.4l2.8,7.3l-0.7,0.9l2.9-8.3h1l-3.3,8.6h-0.7l-3.6-8.6H559z
			 M563.9,73.4l-1.8-0.3v-0.7h3.4v0.7l-1.3,0.3H563.9z"/>
		<path d="M567,84c0-0.5,0-1.8,0-2.5v-0.6c0-0.7,0-1,0-1.5l-1-0.1v-0.4l1.8-0.7l0.2,0.1l0,1.6v1.6c0,0.7,0,2,0,2.5H567z M568.9,83.5
			V84h-2.8v-0.4l1.3-0.2h0.2L568.9,83.5z M566.7,76c0-0.5,0.3-0.8,0.8-0.8c0.4,0,0.8,0.3,0.8,0.8c0,0.4-0.3,0.8-0.8,0.8
			C567.1,76.8,566.7,76.5,566.7,76z"/>
		<path d="M569.6,80.3v-0.7h5.7v0.7H569.6z M572.1,77h0.7v6h-0.7V77z"/>
		<path d="M580.9,83.5V84h-4.4v-0.4l1.7-0.3h1L580.9,83.5z M579.1,76.1l0.2,0.1l0,1.7v3.5c0,0.8,0,1.7,0,2.5h-1c0-0.8,0-1.7,0-2.5
			v-4.3l-1.6,0.1v-0.5L579.1,76.1z"/>
	</g>
</g>
<g>
	<g>
		<path d="M489.6,174v1l-1.1,0.3l0.5-2.7h1.1l-0.1,2.6c-1.1,0.6-2.4,0.9-3.6,0.9c-3.6,0-6.1-2.6-6.1-6.3c0-3.6,2.6-6.3,6.1-6.3
			c1,0,2.3,0.2,3.5,0.9l0.1,2.6h-1.1l-0.5-2.7l1.1,0.3v1.1c-1-1-2-1.3-2.9-1.3c-2.4,0-4.4,1.9-4.4,5.4c0,3.5,1.8,5.4,4.3,5.4
			C487.4,175.1,488.5,174.8,489.6,174z"/>
		<path d="M492.1,178.8c0-0.5,0-1.8,0-2.5v-0.6c0-0.7,0-1,0-1.5l-1-0.1v-0.4l1.8-0.7l0.2,0.1l0,1.6v1.6c0,0.7,0,2,0,2.5H492.1z
			 M493.9,178.3v0.4h-2.8v-0.4l1.3-0.2h0.2L493.9,178.3z M491.8,170.8c0-0.5,0.3-0.8,0.8-0.8c0.4,0,0.8,0.3,0.8,0.8
			c0,0.4-0.3,0.8-0.8,0.8C492.1,171.6,491.8,171.3,491.8,170.8z"/>
	</g>
</g>
<g>
	<g>
		<path d="M164.3,12.1v-0.7h2.5v1h-0.2L164.3,12.1z M167.1,22.5l2.3,0.3v0.7h-5v-0.7l2.3-0.3H167.1z M166.1,17c0-1.9,0-3.7-0.1-5.6
			h1.7c-0.1,1.8-0.1,3.7-0.1,5.6v1.1c0,1.8,0,3.5,0.1,5.4H166c0.1-1.8,0.1-3.7,0.1-5.6V17z M168.7,18.7h-1.8v-0.8h2.1
			c2.2,0,3.1-1.2,3.1-2.9c0-1.7-1-2.8-3.2-2.8h-2v-0.8h2.3c3,0,4.5,1.5,4.5,3.6C173.7,17,172.3,18.7,168.7,18.7z"/>
	</g>
</g>
<g>
	<g>
		<path d="M477.2,12.1v-0.7h2.5v1h-0.2L477.2,12.1z M479.9,22.5l2.3,0.3v0.7h-5v-0.7l2.3-0.3H479.9z M478.9,17c0-1.9,0-3.7-0.1-5.6
			h1.7c-0.1,1.8-0.1,3.7-0.1,5.6v1.1c0,1.8,0,3.5,0.1,5.4h-1.7c0.1-1.8,0.1-3.7,0.1-5.6V17z M481.5,18.7h-1.8v-0.8h2.1
			c2.2,0,3.1-1.2,3.1-2.9c0-1.7-1-2.8-3.2-2.8h-2v-0.8h2.3c3,0,4.5,1.5,4.5,3.6C486.6,17,485.2,18.7,481.5,18.7z"/>
	</g>
</g>
</svg>
