/* XPM */
static const char *demo_arrow_down_xpm[] = {
/* width height ncolors chars_per_pixel */
"32 32 3 1",
/* colors */
"  c #000000",
". c #808080",
"X c None",
/* pixels */
"XXXXXXXXXXXXXXXXXXXXXXXXXXXXXXXX",
"XXXXXXXXXXXXXXXXXXXXXXXXXXXXXXXX",
"XXXXXXXXXXXXXXXXXXXXXXXXXXXXXXXX",
"XXXXXXXXXXXXXXXXXXXXXXXXXXXXXXXX",
"XXXXXXXXXXXXXX.  .XXXXXXXXXXXXXX",
"XXXXXXXXXXXXXX.  .XXXXXXXXXXXXXX",
"XXXXXXXXXXXXXX.  .XXXXXXXXXXXXXX",
"XXXXXXXXXXXXXX.  .XXXXXXXXXXXXXX",
"XXXXXXXXXXXXXX.  .XXXXXXXXXXXXXX",
"XXXXXXXXXXXXXX.  .XXXXXXXXXXXXXX",
"XXXXXXXXXXXXXX.  .XXXXXXXXXXXXXX",
"XXXXXXXXXXXXXX.  .XXXXXXXXXXXXXX",
"XXXXXXXXXXXXXX.  .XXXXXXXXXXXXXX",
"XXXXXXXXXXXXXX.  .XXXXXXXXXXXXXX",
"XXXXXXXXXXXXXX.  .XXXXXXXXXXXXXX",
"XXXXXXXXXXXXXX.  .XXXXXXXXXXXXXX",
"XXXXXXXXXXXXXX.  .XXXXXXXXXXXXXX",
"XXXXXXXXXXXXXX.  .XXXXXXXXXXXXXX",
"XXXXXXXXXX.XXX.  .XXX.XXXXXXXXXX",
"XXXXXXXXXX..XX.  .XX..XXXXXXXXXX",
"XXXXXXXXXXX. ..  .. .XXXXXXXXXXX",
"XXXXXXXXXXXX..     .XXXXXXXXXXXX",
"XXXXXXXXXXXXX.    .XXXXXXXXXXXXX",
"XXXXXXXXXXXXX.    .XXXXXXXXXXXXX",
"XXXXXXXXXXXXXX.  .XXXXXXXXXXXXXX",
"XXXXXXXXXXXXXX.  .XXXXXXXXXXXXXX",
"XXXXXXXXXXXXXXX..XXXXXXXXXXXXXXX",
"XXXXXXXXXXXXXXX..XXXXXXXXXXXXXXX",
"XXXXXXXXXXXXXXX..XXXXXXXXXXXXXXX",
"XXXXXXXXXXXXXXXXXXXXXXXXXXXXXXXX",
"XXXXXXXXXXXXXXXXXXXXXXXXXXXXXXXX",
"XXXXXXXXXXXXXXXXXXXXXXXXXXXXXXXX"
};
