/* XPM */
static const char *demo_conic_line_xpm[] = {
/* width height ncolors chars_per_pixel */
"32 32 3 1",
/* colors */
"  c #FF0000",
". c #000080",
"X c None",
/* pixels */
"XXXXXXXXXXXXXXXXXXXXXXXXXXXXXXXX",
"XXXXXXXXXXXXXXXXXXXXXXXXXXXXXXXX",
"XXXXXXXXXXXXXXXXXXXXXXXXXXXXXXXX",
"XXXXXXXXXXXXXXXXXXXXXXXXXXXXXXXX",
"XXXXXXXXXXXXXXXXXXXXXXXXXXXXXXXX",
"XXXXXXXXXXXXXXXXXXXXXXXXXXXXXXXX",
"XXXXXXXXXXXXXXXXXXXXXXXXXXXXXXXX",
"XXXXXXXXXXXXXXXXXXXXX.......XXXX",
"XXXXXXXXXXXXXXXXXXXXXXXX....XXXX",
"XXXXXXXXXXXXXXXXXXXXXXX.....XXXX",
"XXXXXXXXXXXXXXXXXXXXXX...X..XXXX",
"XXXXXXXXXXXXXXXXXXXXX..XXX..XXXX",
"XXXXXXXXXXXXXXXXXXX...XXXXXXXXXX",
"XXXXXXXXXXXXXXXXXX...XXXXXXXXXXX",
"XXXXXXXXXXXXXXXX...XXXXXXXXXXXXX",
"XXXXXXXXXXXXXXX...XXXXXXXXXXXXXX",
"XXXXXXXXXXXXXX..XXXXXXXXXXXXXXXX",
"XXXXXXXXXXXX...XXXXXXXXXXXXXXXXX",
"XXXXXXXXXXX...XXXXXXXXXXXXXXXXXX",
"XXXXXXXXXX..XXXXXXXXXXXXXXXXXXXX",
"XXXX..XX...XXXXXXXXXXXXXXXXXXXXX",
"XXXX..X...XXXXXXXXXXXXXXXXXXXXXX",
"XXXX.....XXXXXXXXXXXXXXXXXXXXXXX",
"XXXX....XXXXXXXXXXXXXXXXXXXXXXXX",
"XXXX......XXXXXXXXXXXXXXXXXXXXXX",
"XXXXXXXXXXXXXXXXXXXXXXXXXXXXXXXX",
"XXXXXXXXXXXXXXXXXXXXXXXXXXXXXXXX",
"XXXXXXXXXXXXXXXXXXXXXXXXXXXXXXXX",
"XXXXXXXXXXXXXXXXXXXXXXXXXXXXXXXX",
"XXXXXXXXXXXXXXXXXXXXXXXXXXXXXXXX",
"XXXXXXXXXXXXXXXXXXXXXXXXXXXXXXXX",
"XXXXXXXXXXXXXXXXXXXXXXXXXXXXXXXX"
};
