/* XPM */
static const char *demo_conic_5points_xpm[] = {
/* width height ncolors chars_per_pixel */
"32 32 3 1",
/* colors */
"  c #FF0000",
". c #000080",
"X c None",
/* pixels */
"XXXXXXXXXXXXXXXXXXXXXXXXXXXXXXXX",
"XXXXXXXXXXXXXXXXXXXXXXXXXXXXXXXX",
"XXX  XXXXXXXXXXXXXXXXXXXXXXXXXXX",
"XX    XXXXXXXXXXXXXXXXXXXXXXXXXX",
"XX    XXXXXXXXXXXXXXXXXXXXXXXXXX",
"XXX  XXXXXXXXXXXXXXXXXXXXXXXXXXX",
"XXX..XXXXXXXXXXXXXXXXXXXXXXXXXXX",
"XXX..XXXXXXXXXXXXXXXXXXXXXXXXXXX",
"XXX..XXXXXXXXXXXXXXXXXXXXXXXXXXX",
"XXXX..XXXXXXXXXXXXXXXXXXXXXXXXXX",
"XXXX..XXXXXXXXXXXXXXXXXXXXXXXXXX",
"XXXX..XXXXXXXXXXXXXXXXXXXXXXXXXX",
"XXXX..XXXXXXXXXXXXXXXXXXXXXXXXXX",
"XXXXX  XXXXXXXXXXXXXXXXXXXXXXXXX",
"XXXX    XXXXXXXXXXXXXXXXXXXXXXXX",
"XXXX    XXXXXXXXXXXXXXXXXXXX  XX",
"XXXXX  XXXXXXXXXXXXXXXXXXXX    X",
"XXXXXX..XXXXXXXXXXXXXXXXXXX    X",
"XXXXXX..XXXXXXXXXXXXXXXXXX.X  XX",
"XXXXXX..XXXXXXXXXXXXXXXXX....XXX",
"XXXXXXX..XXXXXXXXXXXXXXX...XXXXX",
"XXXXXXX..XXXXXXXXXXXXXX...XXXXXX",
"XXXXXXX..XXXXXXXXXXX  X..XXXXXXX",
"XXXXXXXXX  XXXXXXXX    .XXXXXXXX",
"XXXXXXXX    XXXXXXX    XXXXXXXXX",
"XXXXXXXX    XXXXX..X  XXXXXXXXXX",
"XXXXXXXXX  X.XX.....XXXXXXXXXXXX",
"XXXXXXXXXX........XXXXXXXXXXXXXX",
"XXXXXXXXXXXX....XXXXXXXXXXXXXXXX",
"XXXXXXXXXXXXXXXXXXXXXXXXXXXXXXXX",
"XXXXXXXXXXXXXXXXXXXXXXXXXXXXXXXX",
"XXXXXXXXXXXXXXXXXXXXXXXXXXXXXXXX"
};
