/* XPM */
static const char *demo_conic_segment_xpm[] = {
/* width height ncolors chars_per_pixel */
"32 32 3 1",
/* colors */
"  c #FF0000",
". c #000080",
"X c None",
/* pixels */
"XXXXXXXXXXXXXXXXXXXXXXXXXXXXXXXX",
"XXXXXXXXXXXXXXXXXXXXXXXXXXXXXXXX",
"XXXXXXXXXXXXXXXXXXXXXXXXXXXXXXXX",
"XXXXXXXXXXXXXXXXXXXXXXXXXXXXXXXX",
"XXXXXXXXXXXXXXXXXXXXXXXXXXXXXXXX",
"XXXXXXXXXXXXXXXXXXXXXXXXXXX  XXX",
"XXXXXXXXXXXXXXXXXXXXXXXXXX    XX",
"XXXXXXXXXXXXXXXXXXXXXXXXXX    XX",
"XXXXXXXXXXXXXXXXXXXXXXXXX.X  XXX",
"XXXXXXXXXXXXXXXXXXXXXXX...XXXXXX",
"XXXXXXXXXXXXXXXXXXXXXX...XXXXXXX",
"XXXXXXXXXXXXXXXXXXXXX..XXXXXXXXX",
"XXXXXXXXXXXXXXXXXXX...XXXXXXXXXX",
"XXXXXXXXXXXXXXXXXX...XXXXXXXXXXX",
"XXXXXXXXXXXXXXXX...XXXXXXXXXXXXX",
"XXXXXXXXXXXXXXX...XXXXXXXXXXXXXX",
"XXXXXXXXXXXXXX..XXXXXXXXXXXXXXXX",
"XXXXXXXXXXXX...XXXXXXXXXXXXXXXXX",
"XXXXXXXXXXX...XXXXXXXXXXXXXXXXXX",
"XXXXXXXXXX..XXXXXXXXXXXXXXXXXXXX",
"XXXXXXXX...XXXXXXXXXXXXXXXXXXXXX",
"XXXXXXX...XXXXXXXXXXXXXXXXXXXXXX",
"XXXX  X.XXXXXXXXXXXXXXXXXXXXXXXX",
"XXX    XXXXXXXXXXXXXXXXXXXXXXXXX",
"XXX    XXXXXXXXXXXXXXXXXXXXXXXXX",
"XXXX  XXXXXXXXXXXXXXXXXXXXXXXXXX",
"XXXXXXXXXXXXXXXXXXXXXXXXXXXXXXXX",
"XXXXXXXXXXXXXXXXXXXXXXXXXXXXXXXX",
"XXXXXXXXXXXXXXXXXXXXXXXXXXXXXXXX",
"XXXXXXXXXXXXXXXXXXXXXXXXXXXXXXXX",
"XXXXXXXXXXXXXXXXXXXXXXXXXXXXXXXX",
"XXXXXXXXXXXXXXXXXXXXXXXXXXXXXXXX"
};
