/* XPM */
static const char *insert_xpm[] = {
/* width height ncolors chars_per_pixel */
"32 32 9 1",
/* colors */
"  c #000000",
". c #800000",
"X c #00FFFF",
"o c #008080",
"O c #FF0000",
"+ c #808080",
"# c #808000",
"$ c #0000FF",
"@ c None",
/* pixels */
"@@@@@@@@@@@@@@@@@@@@@@@@@@@@@@@@",
"@@@@@@@@@@@@@@@@@@@@@@@@@@@@@@@@",
"@@@@@@@@@@@@@@@@@@@...@@@@@@@@@@",
"@@@@@@@@@@@@@@@@@@.O#O.@@@@@@@@@",
"@@@@@@@@@@@@@@@@@@.#OOO.@@@@@@@@",
"@@@@@@@@@@@@@@@@@ X OOO.@@@@@@@@",
"@@@@@@@@@@@@@@@@@ X$ O.@@@@@@@@@",
"@@@@@@@@@@@@@@@@ X$$o @+@@@@@@@@",
"@@@@@@@@@@@@@@@@ X$$o @+@@@@@@@@",
"@@@@@@@@@@@@@@@ X$$o @+@@@@@@@@@",
"@@@@@@@@@@@@@@@ X$$o @+@@@@@@@@@",
"@@@@@@@@@@@@@@ X$$o @+@@@@@@@@@@",
"@@@@@@@@@@@@@@ X$$o @+@@@@@@@@@@",
"@@@@@@@@@@@@@ X$$o @+@@@@@@@@@@@",
"@@@@@@@@@@@@@ X$$o @+@@@@@@@@@@@",
"@@@@@@@@@@@@ X$$o @+@@@@@@@@@@@@",
"@@@@@@@@@@@@ X$$o @+@@@@@@@@@@@@",
"@@@@@@@@@@@ X$$o @+@@@@@@@@@@@@@",
"@@@@@@@@@@@ X$$o @+@@@@@@@@@@@@@",
"@@@@@@@@@@ X$$o @+@@@@@@@@@@@@@@",
"@@@@@@@@@@ X$$o @+@@@@@@@@@@@@@@",
"@@@@@@@@@ X$$o @+@@@@@@@@@@@@@@@",
"@@@@@@@@@ X$$o @+@@@@@@@@@@@@@@@",
"@@@@@@@@@  $o @+@@@@@@@@@@@@@@@@",
"@@@@@@@@@     @+@@@@@@@@@@@@@@@@",
"@@@@@@@@@    @+@@@@@@@@@@@@@@@@@",
"@@@@@@@@@   @+@@@@@@@@@@@@@@@@@@",
"@@@@@@@@@  @+@@@@@@@@@@@@@@@@@@@",
"@@@@@@@@@ @+@@@@@@@@@@@@@@@@@@@@",
"@@@@@@@@@@@@@@@@@@@@@@@@@@@@@@@@",
"@@@@@@@@@@@@@@@@@@@@@@@@@@@@@@@@",
"@@@@@@@@@@@@@@@@@@@@@@@@@@@@@@@@"
};
