/* XPM */
static const char *lower_env_xpm[] = {
/* width height ncolors chars_per_pixel */
"32 32 5 1",
/* colors */
"  c #000000",
". c #00FFFF",
"X c #FF0000",
"o c None",
"O c None",
/* pixels */
"oooooooooooooooooooooooooooooooo",
"oooooooooooooooooooooooooooooooo",
"oooooooooooooooooooooooooooooooo",
"oooooooooooooooooooooooooooooooo",
"oooooooooooooooooooooooooooooooo",
"oooooooooooooooooooooooooooooooo",
"oooooooooooooooooooooooooooooooo",
"oooooooooooooooooooooooooooooooo",
"oo                           ooo",
"oo   .....................   ooo",
"oo .  ...................  . ooo",
"oo ..   ................  .. ooo",
"oo ....  .............  .... ooo",
"oo .....  ...........  ..... ooo",
"oo ......  .........  ...... ooo",
"oo .......  .......  ....... ooo",
"oo ......     ...     ...... ooo",
"oo .....  ..      ...  ..... ooo",
"oo ....  .....  ......  .... ooo",
"oo ...  ...............  ... ooo",
"oo ..  .................  .. ooo",
"oo .  ...................  . ooo",
"oo   .....................   ooo",
"oo                           ooo",
"ooXXXXXXXXXXXXXXXXXXXXXXXXXXXooo",
"oooXXXXXXXXXXXXXXXXXXXXXXXXXoooo",
"oooooooooooooooooooooooooooooooo",
"oooooooooooooooooooooooooooooooo",
"oooooooooooooooooooooooooooooooo",
"oooooooooooooooooooooooooooooooo",
"oooooooooooooooooooooooooooooooo",
"oooooooooooooooooooooooooooooooo"
};
