/* XPM */
static const char *pointlocation_xpm[] = {
/* width height ncolors chars_per_pixel */
"32 32 5 1",
/* colors */
"  c #000000",
". c #C0C0C0",
"X c #FF0000",
"o c #808080",
"O c None",
/* pixels */
"OOOOOOOOOOOOOOOOOOOOOOOOOOOOOOOO",
"OOOOOOOOOOOOOOOOOOOOOOOOOOOOOOOO",
"OOOOOOOOOOOOOOOOOOOOOOOOOOOOOOOO",
"OOOOOOOOOOOOO.    .OOOOOOOOOOOOO",
"OOOOOOOOOO..        ..OOOOOOOOOO",
"OOOOOOOOO.o   O  O   o.OOOOOOOOO",
"OOOOOOO.   oOOO  OOOo   .OOOOOOO",
"OOOOOO.o .OOOOO  OOOOO. o.OOOOOO",
"OOOOOO  .OOOOOO  OOOOOO.  OOOOOO",
"OOOOO. oOOOOOOO  OOOOOOOo .OOOOO",
"OOOO.o OOOOOOOO  OOOOOOOO o.OOOO",
"OOOO. OOOOOOOOO  OOOOOOOOO .OOOO",
"OOOO  OOOOOOOOOOOOOOOOOOOO  OOOO",
"OOO. OOOOOOOOOOOOOOOOOOOOOO .OOO",
"OOO  OOOOOOOOOOXXOOOOOOOOOO  OOO",
"OOO         OOXXXXOO         OOO",
"OOO         OOXXXXOO         OOO",
"OOO  OOOOOOOOOOXXOOOOOOOOOO  OOO",
"OOO. OOOOOOOOOOOOOOOOOOOOOO .OOO",
"OOOO  OOOOOOOOOOOOOOOOOOOO  OOOO",
"OOOO. OOOOOOOOO  OOOOOOOOO .OOOO",
"OOOO.o OOOOOOOO  OOOOOOOO o.OOOO",
"OOOOO. oOOOOOOO  OOOOOOOo .OOOOO",
"OOOOOO  .OOOOOO  OOOOOO.  OOOOOO",
"OOOOOO.o .OOOOO  OOOOO. o.OOOOOO",
"OOOOOOO.   oOOO  OOOo   .OOOOOOO",
"OOOOOOOOO.o   O  O   o.OOOOOOOOO",
"OOOOOOOOOO..        ..OOOOOOOOOO",
"OOOOOOOOOOOOO.    .OOOOOOOOOOOOO",
"OOOOOOOOOOOOOOOOOOOOOOOOOOOOOOOO",
"OOOOOOOOOOOOOOOOOOOOOOOOOOOOOOOO",
"OOOOOOOOOOOOOOOOOOOOOOOOOOOOOOOO"
};
