/* XPM */
static const char *snapvertex_xpm[] = {
/* width height ncolors chars_per_pixel */
"32 32 7 1",
/* colors */
"  c #000000",
". c #C0C0C0",
"X c #FF0000",
"o c #808080",
"O c #FFFFFF",
"+ c #FFFF00",
"@ c None",
/* pixels */
"@@@@@@@@@@@@@@@@@@@@@@@@@@@@@@@@",
"@@@@@@@@@@@@@@@@@@@@@@@@@@@@@@@@",
"@@@@@@@@@@@@@@@@@@@@@@@@@@@@@@@@",
"@@@@@@@@@@@@@@@@@@@@@@@@@@@@@@@@",
"@@@@@@@@@@@@@@@@@@@@@@@@@@@@@@@@",
"@@@@@@@@@@@@@@@@@@@@@@@@@@@@@@@@",
"@@@@@@@@@@@@@X.X.@@@@@@@@@@@@@@@",
"@@@@@@@@@@@X.+O+O.X@@@@@@@@@@@@@",
"@@@@@@@@@@.O+O+O+O+X@@@@@@@@@@@@",
"@@@@@@@@@XO+O+O+O+O+X@@@@@@@@@@@",
"@@@@@@@@XO+O+O+O+O+O+.@@@@@@@@@@",
"@@@@@@@@.+O+O+O+O+O+OX@@@@@@@@@@",
"@@@@@@@.+O+O+OXX+O+O+OX@@@@@@@@@",
"@@@@@@@XO+O+OXXXX+O+O+.@@@@@@@@@",
"@@@@@@@.+O+O.XXXX.+O+OX@@@@@@@@@",
"@@@@@@@XO+O o.XX.o +O+.@@@@@@@@@",
"@@@@@@@@XO  +O+O+O  +.@@@@@@@@@@",
"@@@@@@@@.  +O+O+O+O  X@@@@@@@@@@",
"@@@@@@@@ X+O+O+O+O+OX @@@@@@@@@@",
"@@@@@@@  @X+O+O+O+O.@  @@@@@@@@@",
"@@@@@@  @@@X.O+O+.X@@@  @@@@@@@@",
"@@@@@  @@@@@@.X.X@@@@@@  @@@@@@@",
"@@@@  @@@@@@@@@@@@@@@@@@  @@@@@@",
"@@@  @@@@@@@@@@@@@@@@@@@@  @@@@@",
"@@@@@@@@@@@@@@@@@@@@@@@@@@  @@@@",
"@@@@@@@@@@@@@@@@@@@@@@@@@@@  @@@",
"@@@@@@@@@@@@@@@@@@@@@@@@@@@@  @@",
"@@@@@@@@@@@@@@@@@@@@@@@@@@@@@ @@",
"@@@@@@@@@@@@@@@@@@@@@@@@@@@@@@@@",
"@@@@@@@@@@@@@@@@@@@@@@@@@@@@@@@@",
"@@@@@@@@@@@@@@@@@@@@@@@@@@@@@@@@",
"@@@@@@@@@@@@@@@@@@@@@@@@@@@@@@@@"
};
