/* XPM */
static const char *snapgrid_xpm[] = {
/* width height ncolors chars_per_pixel */
"32 32 4 1",
/* colors */
"  c #008080",
"+ c #FFFF00",
"x c red",
". c None",
/* pixels */
"................................",
"................................",
"..... ...... ...... ...... .....",
"..... ...... ...... ...... .....",
"..... ...... ...... ...... .....",
"..                            ..",
"..... xx.... ....xx ...... .....",
"..... xx.... ....xx ...... .....",
"..... .xxx.. ...xx. ...... .....",
"..... ..xxx+++xxx.. ...... .....",
"..... ..+xx. .xx+.. ...... .....",
"..... .++.xx xx.++. ...... .....",
"..     ++   x   ++            ..",
"..... .++.xx xxh++. ...... .....",
"..... ..+xx. .xx+.. ...... .....",
"..... ..xxx+++xxx.. ...... .....",
"..... .xx... ...xx. ...... .....",
"..... xx.... ....xx ...... .....",
"..... xx.... ....xx ...... .....",
"..                            ..",
"..... ...... ...... ...... .....",
"..... ...... ...... ...... .....",
"..... ...... ...... ...... .....",
"..... ...... ...... ...... .....",
"..... ...... ...... ...... .....",
"..... ...... ...... ...... .....",
"..                            ..",
"..... ...... ...... ...... .....",
"..... ...... ...... ...... .....",
"..... ...... ...... ...... .....",
"................................",
"................................"
};
