<?xml version="1.0" standalone="no"?>
<!DOCTYPE svg PUBLIC "-//W3C//DTD SVG 1.1//EN"
"http://www.w3.org/Graphics/SVG/1.1/DTD/svg11.dtd">
<!-- Creator: fig2dev Version 3.2.6 -->
<!-- CreationDate: Mon Nov 21 08:46:35 2016 -->
<!-- Magnification: 1.050 -->
<svg	xmlns="http://www.w3.org/2000/svg"
	xmlns:xlink="http://www.w3.org/1999/xlink"
	width="7.3in" height="4.0in"
	viewBox="-12 -311 8753 4858">
<g style="stroke-width:.025in; fill:none">
<!-- Line -->
<polyline points="6452,2237
8283,2414
" style="stroke:#535353;stroke-width:16;
stroke-linejoin:round; stroke-linecap:butt;
"/>
<!-- Arrowhead on XXXpoint 6452 2237 - 8348 2419-->
<polyline points="8166 2497
8332 2418
8184 2309
" style="stroke:#535353;stroke-width:16;stroke-miterlimit:8;
"/>
<!-- Line -->
<polyline points="848,2207
2684,2386
" style="stroke:#535353;stroke-width:16;
stroke-linejoin:round; stroke-linecap:butt;
"/>
<!-- Arrowhead on XXXpoint 848 2207 - 2749 2391-->
<polyline points="2567 2469
2733 2390
2585 2280
" style="stroke:#535353;stroke-width:16;stroke-miterlimit:8;
"/>
<!-- Line -->
<polyline points="1742,2544
1773,2298
" style="stroke:#9f9f9f;stroke-width:8;
stroke-linejoin:round; stroke-linecap:butt;
"/>
<!-- Line -->
<polyline points="7402,2529
7375,2326
" style="stroke:#9f9f9f;stroke-width:8;
stroke-linejoin:round; stroke-linecap:butt;
"/>
<!-- Line -->
<polyline points="2690,2638
845,2455
" style="stroke:#535353;stroke-width:16;
stroke-linejoin:round; stroke-linecap:butt;
"/>
<!-- Arrowhead on XXXpoint 2690 2638 - 780 2450-->
<polyline points="961 2373
795 2452
942 2561
" style="stroke:#535353;stroke-width:16;stroke-miterlimit:8;
"/>
<!-- Line -->
<polyline points="8351,2622
6507,2439
" style="stroke:#000000;stroke-width:16;
stroke-linejoin:round; stroke-linecap:butt;
"/>
<!-- Arrowhead on XXXpoint 8351 2622 - 6441 2434-->
<polyline points="6623 2358
6457 2436
6604 2545
" style="stroke:#000000;stroke-width:16;stroke-miterlimit:8;
"/>
<!-- Line -->
<polyline points="6398,519
6451,2202
" style="stroke:#535353;stroke-width:16;
stroke-linejoin:round; stroke-linecap:butt;
"/>
<!-- Arrowhead on XXXpoint 6398 519 - 6452 2267-->
<polyline points="6352 2096
6452 2251
6541 2091
" style="stroke:#535353;stroke-width:16;stroke-miterlimit:8;
"/>
<!-- Line -->
<polyline points="797,480
846,2138
" style="stroke:#000000;stroke-width:48;
stroke-linejoin:round; stroke-linecap:butt;
"/>
<!-- Arrowhead on XXXpoint 797 480 - 849 2269-->
<polyline points="749 2098
849 2254
938 2093
" style="stroke:#000000;stroke-width:16;stroke-miterlimit:8;
"/>
<!-- Line -->
<polyline points="599,1443
822,1374
" style="stroke:#9f9f9f;stroke-width:8;
stroke-linejoin:round; stroke-linecap:butt;
"/>
<!-- Line -->
<polyline points="6261,1427
6426,1406
" style="stroke:#9f9f9f;stroke-width:8;
stroke-linejoin:round; stroke-linecap:butt;
"/>
<!-- Line -->
<polyline points="632,2282
566,580
" style="stroke:#535353;stroke-width:16;
stroke-linejoin:round; stroke-linecap:butt;
"/>
<!-- Arrowhead on XXXpoint 632 2282 - 564 515-->
<polyline points="665 684
565 531
476 691
" style="stroke:#535353;stroke-width:16;stroke-miterlimit:8;
"/>
<!-- Line -->
<polyline points="8318,2417
6447,566
" style="stroke:#000000;stroke-width:48;
stroke-linejoin:round; stroke-linecap:butt;
"/>
<!-- Arrowhead on XXXpoint 8318 2417 - 6353 474-->
<polyline points="6542 529
6365 486
6410 663
" style="stroke:#000000;stroke-width:16;stroke-miterlimit:8;
"/>
<!-- Line -->
<polyline points="6291,2265
6227,564
" style="stroke:#535353;stroke-width:16;
stroke-linejoin:round; stroke-linecap:butt;
"/>
<!-- Arrowhead on XXXpoint 6291 2265 - 6225 499-->
<polyline points="6326 668
6226 515
6137 676
" style="stroke:#535353;stroke-width:16;stroke-miterlimit:8;
"/>
<!-- Line -->
<polyline points="7503,1391
7380,1491
" style="stroke:#9f9f9f;stroke-width:8;
stroke-linejoin:round; stroke-linecap:butt;
"/>
<!-- Line -->
<polyline points="6519,412
8393,2277
" style="stroke:#000000;stroke-width:48;
stroke-linejoin:round; stroke-linecap:butt;
"/>
<!-- Arrowhead on XXXpoint 6519 412 - 8487 2370-->
<polyline points="8297 2313
8475 2359
8430 2180
" style="stroke:#000000;stroke-width:16;stroke-miterlimit:8;
"/>
<!-- Line -->
<polyline points="2719,2389
2796,706
" style="stroke:#000000;stroke-width:48;
stroke-linejoin:round; stroke-linecap:butt;
"/>
<!-- Arrowhead on XXXpoint 2719 2389 - 2802 575-->
<polyline points="2888 751
2801 591
2699 743
" style="stroke:#000000;stroke-width:16;stroke-miterlimit:8;
"/>
<!-- Line -->
<polyline points="8443,2326
8527,602
" style="stroke:#000000;stroke-width:16;
stroke-linejoin:round; stroke-linecap:butt;
"/>
<!-- Arrowhead on XXXpoint 8443 2326 - 8530 537-->
<polyline points="8615 714
8529 553
8426 705
" style="stroke:#000000;stroke-width:16;stroke-miterlimit:8;
"/>
<!-- Line -->
<polyline points="2925,1648
2760,1543
" style="stroke:#9f9f9f;stroke-width:8;
stroke-linejoin:round; stroke-linecap:butt;
"/>
<!-- Line -->
<polyline points="583,2971
392,2792
" style="stroke:#9f9f9f;stroke-width:8;
stroke-linejoin:round; stroke-linecap:butt;
"/>
<!-- Line -->
<polyline points="8486,1476
8587,1632
" style="stroke:#9f9f9f;stroke-width:8;
stroke-linejoin:round; stroke-linecap:butt;
"/>
<!-- Line -->
<polyline points="6245,2956
6053,2776
" style="stroke:#9f9f9f;stroke-width:8;
stroke-linejoin:round; stroke-linecap:butt;
"/>
<!-- Line -->
<polyline points="811,2453
380,3425
" style="stroke:#535353;stroke-width:16;
stroke-linejoin:round; stroke-linecap:butt;
"/>
<!-- Arrowhead on XXXpoint 811 2453 - 353 3485-->
<polyline points="337 3288
360 3470
510 3364
" style="stroke:#535353;stroke-width:16;stroke-miterlimit:8;
"/>
<!-- Line -->
<polyline points="6473,2437
6002,3503
" style="stroke:#000000;stroke-width:16;
stroke-linejoin:round; stroke-linecap:butt;
"/>
<!-- Arrowhead on XXXpoint 6473 2437 - 5975 3563-->
<polyline points="5959 3365
5982 3548
6131 3442
" style="stroke:#000000;stroke-width:16;stroke-miterlimit:8;
"/>
<!-- Line -->
<polyline points="122,3365
617,2312
" style="stroke:#535353;stroke-width:16;
stroke-linejoin:round; stroke-linecap:butt;
"/>
<!-- Arrowhead on XXXpoint 122 3365 - 644 2253-->
<polyline points="655 2450
637 2267
483 2369
" style="stroke:#535353;stroke-width:16;stroke-miterlimit:8;
"/>
<!-- Line -->
<polyline points="2975,734
2883,2467
" style="stroke:#535353;stroke-width:16;
stroke-linejoin:round; stroke-linecap:butt;
"/>
<!-- Arrowhead on XXXpoint 2975 734 - 2880 2532-->
<polyline points="2794 2353
2881 2516
2983 2363
" style="stroke:#535353;stroke-width:16;stroke-miterlimit:8;
"/>
<!-- Line -->
<polyline points="5784,3350
6277,2296
" style="stroke:#535353;stroke-width:16;
stroke-linejoin:round; stroke-linecap:butt;
"/>
<!-- Arrowhead on XXXpoint 5784 3350 - 6304 2236-->
<polyline points="6316 2432
6297 2250
6144 2352
" style="stroke:#535353;stroke-width:16;stroke-miterlimit:8;
"/>
<!-- Line -->
<polyline points="8636,720
8543,2452
" style="stroke:#535353;stroke-width:16;
stroke-linejoin:round; stroke-linecap:butt;
"/>
<!-- Arrowhead on XXXpoint 8636 720 - 8540 2517-->
<polyline points="8455 2339
8541 2501
8643 2348
" style="stroke:#535353;stroke-width:16;stroke-miterlimit:8;
"/>
<!-- Line -->
<polyline points="2800,638
831,482
" style="stroke:#535353;stroke-width:16;
stroke-linejoin:round; stroke-linecap:butt;
"/>
<!-- Arrowhead on XXXpoint 2800 638 - 766 477-->
<polyline points="945 396
782 478
931 584
" style="stroke:#535353;stroke-width:16;stroke-miterlimit:8;
"/>
<!-- Line -->
<polyline points="8529,569
6553,414
" style="stroke:#000000;stroke-width:16;
stroke-linejoin:round; stroke-linecap:butt;
"/>
<!-- Arrowhead on XXXpoint 8529 569 - 6488 409-->
<polyline points="6667 327
6503 410
6653 516
" style="stroke:#000000;stroke-width:16;stroke-miterlimit:8;
"/>
<!-- Line -->
<polyline points="2455,3676
2683,2670
" style="stroke:#535353;stroke-width:16;
stroke-linejoin:round; stroke-linecap:butt;
"/>
<!-- Arrowhead on XXXpoint 2455 3676 - 2697 2606-->
<polyline points="2750 2796
2693 2622
2566 2754
" style="stroke:#535353;stroke-width:16;stroke-miterlimit:8;
"/>
<!-- Line -->
<polyline points="8092,3772
8344,2655
" style="stroke:#000000;stroke-width:16;
stroke-linejoin:round; stroke-linecap:butt;
"/>
<!-- Arrowhead on XXXpoint 8092 3772 - 8358 2591-->
<polyline points="8411 2781
8354 2606
8227 2739
" style="stroke:#000000;stroke-width:16;stroke-miterlimit:8;
"/>
<!-- Line -->
<polyline points="1755,458
1788,559
" style="stroke:#9f9f9f;stroke-width:8;
stroke-linejoin:round; stroke-linecap:butt;
"/>
<!-- Line -->
<polyline points="2770,3037
2570,3181
" style="stroke:#9f9f9f;stroke-width:8;
stroke-linejoin:round; stroke-linecap:butt;
"/>
<!-- Line -->
<polyline points="8232,3165
8432,3022
" style="stroke:#9f9f9f;stroke-width:8;
stroke-linejoin:round; stroke-linecap:butt;
"/>
<!-- Line -->
<polyline points="7512,488
7416,443
" style="stroke:#9f9f9f;stroke-width:8;
stroke-linejoin:round; stroke-linecap:butt;
"/>
<!-- Line -->
<polyline points="2882,2501
2651,3611
" style="stroke:#535353;stroke-width:16;
stroke-linejoin:round; stroke-linecap:butt;
"/>
<!-- Arrowhead on XXXpoint 2882 2501 - 2638 3675-->
<polyline points="2580 3485
2641 3659
2765 3524
" style="stroke:#535353;stroke-width:16;stroke-miterlimit:8;
"/>
<!-- Line -->
<polyline points="8542,2487
8312,3595
" style="stroke:#535353;stroke-width:16;
stroke-linejoin:round; stroke-linecap:butt;
"/>
<!-- Arrowhead on XXXpoint 8542 2487 - 8299 3659-->
<polyline points="8241 3469
8302 3644
8426 3508
" style="stroke:#535353;stroke-width:16;stroke-miterlimit:8;
"/>
<!-- Line -->
<polyline points="747,383
2751,534
" style="stroke:#535353;stroke-width:16;
stroke-linejoin:round; stroke-linecap:butt;
"/>
<!-- Arrowhead on XXXpoint 747 383 - 2816 538-->
<polyline points="2636 619
2801 537
2650 431
" style="stroke:#535353;stroke-width:16;stroke-miterlimit:8;
"/>
<!-- Line -->
<polyline points="6408,367
8412,518
" style="stroke:#535353;stroke-width:16;
stroke-linejoin:round; stroke-linecap:butt;
"/>
<!-- Arrowhead on XXXpoint 6408 367 - 8477 522-->
<polyline points="8297 603
8461 521
8311 415
" style="stroke:#535353;stroke-width:16;stroke-miterlimit:8;
"/>
<!-- Line -->
<polyline points="5989,3534
8057,3767
" style="stroke:#000000;stroke-width:16;
stroke-linejoin:round; stroke-linecap:butt;
"/>
<!-- Arrowhead on XXXpoint 5989 3534 - 8122 3775-->
<polyline points="7939 3848
8107 3773
7961 3660
" style="stroke:#000000;stroke-width:16;stroke-miterlimit:8;
"/>
<!-- Line -->
<polyline points="376,3439
2446,3672
" style="stroke:#535353;stroke-width:16;
stroke-linejoin:round; stroke-linecap:butt;
"/>
<!-- Arrowhead on XXXpoint 376 3439 - 2511 3679-->
<polyline points="2327 3753
2495 3677
2349 3565
" style="stroke:#535353;stroke-width:16;stroke-miterlimit:8;
"/>
<!-- Line -->
<polyline points="6919,3655
7027,3653
" style="stroke:#000000;stroke-width:8;
stroke-linejoin:round; stroke-linecap:butt;
"/>
<!-- Line -->
<polyline points="6227,531
5689,1438
" style="stroke:#535353;stroke-width:16;
stroke-linejoin:round; stroke-linecap:butt;
"/>
<!-- Arrowhead on XXXpoint 6227 531 - 5655 1493-->
<polyline points="5662 1296
5664 1480
5825 1393
" style="stroke:#535353;stroke-width:16;stroke-miterlimit:8;
"/>
<!-- Line -->
<polyline points="6158,801
5967,970
" style="stroke:#9f9f9f;stroke-width:8;
stroke-linejoin:round; stroke-linecap:butt;
"/>
<!-- Line -->
<polyline points="566,546
27,1454
" style="stroke:#535353;stroke-width:16;
stroke-linejoin:round; stroke-linecap:butt;
"/>
<!-- Arrowhead on XXXpoint 566 546 - -5 1509-->
<polyline points="2 1312
3 1496
164 1408
" style="stroke:#535353;stroke-width:16;stroke-miterlimit:8;
"/>
<!-- Line -->
<polyline points="497,815
305,985
" style="stroke:#9f9f9f;stroke-width:8;
stroke-linejoin:round; stroke-linecap:butt;
"/>
<!-- Line -->
<polyline points="1327,3623
1451,3575
" style="stroke:#9f9f9f;stroke-width:8;
stroke-linejoin:round; stroke-linecap:butt;
"/>
<!-- Line -->
<polyline points="8145,3797
5899,3541
" style="stroke:#000000;stroke-width:16;
stroke-linejoin:round; stroke-linecap:butt;
"/>
<!-- Arrowhead on XXXpoint 8145 3797 - 5834 3533-->
<polyline points="6016 3459
5849 3535
5994 3647
" style="stroke:#000000;stroke-width:16;stroke-miterlimit:8;
"/>
<!-- Line -->
<polyline points="5872,1291
6390,396
" style="stroke:#535353;stroke-width:16;
stroke-linejoin:round; stroke-linecap:butt;
"/>
<!-- Arrowhead on XXXpoint 5872 1291 - 6424 340-->
<polyline points="6417 536
6415 353
6254 441
" style="stroke:#535353;stroke-width:16;stroke-miterlimit:8;
"/>
<!-- Line -->
<polyline points="212,1307
729,412
" style="stroke:#535353;stroke-width:16;
stroke-linejoin:round; stroke-linecap:butt;
"/>
<!-- Arrowhead on XXXpoint 212 1307 - 763 355-->
<polyline points="756 552
754 369
593 457
" style="stroke:#535353;stroke-width:16;stroke-miterlimit:8;
"/>
<!-- Line -->
<polyline points="2411,3745
301,3507
" style="stroke:#535353;stroke-width:16;
stroke-linejoin:round; stroke-linecap:butt;
"/>
<!-- Arrowhead on XXXpoint 2411 3745 - 236 3500-->
<polyline points="418 3425
251 3502
396 3613
" style="stroke:#535353;stroke-width:16;stroke-miterlimit:8;
"/>
<!-- Line -->
<polyline points="5672,1467
5782,3315
" style="stroke:#535353;stroke-width:16;
stroke-linejoin:round; stroke-linecap:butt;
"/>
<!-- Arrowhead on XXXpoint 5672 1467 - 5785 3380-->
<polyline points="5680 3212
5784 3364
5868 3201
" style="stroke:#535353;stroke-width:16;stroke-miterlimit:8;
"/>
<!-- Line -->
<polyline points="10,1483
120,3331
" style="stroke:#535353;stroke-width:16;
stroke-linejoin:round; stroke-linecap:butt;
"/>
<!-- Arrowhead on XXXpoint 10 1483 - 123 3396-->
<polyline points="18 3228
122 3380
206 3216
" style="stroke:#535353;stroke-width:16;stroke-miterlimit:8;
"/>
<!-- Line -->
<polyline points="8523,1184
8322,976
" style="stroke:#9f9f9f;stroke-width:8;
stroke-linejoin:round; stroke-linecap:butt;
"/>
<!-- Line -->
<polyline points="5812,2629
5731,2445
" style="stroke:#9f9f9f;stroke-width:8;
stroke-linejoin:round; stroke-linecap:butt;
"/>
<!-- Line -->
<polyline points="2861,1200
2661,992
" style="stroke:#9f9f9f;stroke-width:8;
stroke-linejoin:round; stroke-linecap:butt;
"/>
<!-- Line -->
<polyline points="8393,1712
8627,752
" style="stroke:#535353;stroke-width:16;
stroke-linejoin:round; stroke-linecap:butt;
"/>
<!-- Arrowhead on XXXpoint 8393 1712 - 8643 688-->
<polyline points="8692 879
8639 704
8509 834
" style="stroke:#535353;stroke-width:16;stroke-miterlimit:8;
"/>
<!-- Line -->
<polyline points="2732,1728
2966,767
" style="stroke:#535353;stroke-width:16;
stroke-linejoin:round; stroke-linecap:butt;
"/>
<!-- Arrowhead on XXXpoint 2732 1728 - 2982 703-->
<polyline points="3032 894
2978 719
2849 849
" style="stroke:#535353;stroke-width:16;stroke-miterlimit:8;
"/>
<!-- Line -->
<polyline points="219,2592
69,2460
" style="stroke:#9f9f9f;stroke-width:8;
stroke-linejoin:round; stroke-linecap:butt;
"/>
<!-- Line -->
<polyline points="8447,520
8186,1461
" style="stroke:#535353;stroke-width:16;
stroke-linejoin:round; stroke-linecap:butt;
"/>
<!-- Arrowhead on XXXpoint 8447 520 - 8170 1524-->
<polyline points="8124 1331
8174 1508
8306 1381
" style="stroke:#535353;stroke-width:16;stroke-miterlimit:8;
"/>
<!-- Line -->
<polyline points="5865,3538
5758,1681
" style="stroke:#000000;stroke-width:16;
stroke-linejoin:round; stroke-linecap:butt;
"/>
<!-- Arrowhead on XXXpoint 5865 3538 - 5755 1616-->
<polyline points="5859 1783
5756 1632
5670 1794
" style="stroke:#000000;stroke-width:16;stroke-miterlimit:8;
"/>
<!-- Line -->
<polyline points="2786,536
2524,1477
" style="stroke:#535353;stroke-width:16;
stroke-linejoin:round; stroke-linecap:butt;
"/>
<!-- Arrowhead on XXXpoint 2786 536 - 2507 1540-->
<polyline points="2461 1346
2511 1524
2643 1397
" style="stroke:#535353;stroke-width:16;stroke-miterlimit:8;
"/>
<!-- Line -->
<polyline points="267,3504
163,1638
" style="stroke:#535353;stroke-width:16;
stroke-linejoin:round; stroke-linecap:butt;
"/>
<!-- Arrowhead on XXXpoint 267 3504 - 160 1573-->
<polyline points="264 1740
161 1589
75 1751
" style="stroke:#535353;stroke-width:16;stroke-miterlimit:8;
"/>
<!-- Line -->
<polyline points="5757,1648
7080,2901
" style="stroke:#000000;stroke-width:32;
stroke-linejoin:round; stroke-linecap:butt;
"/>
<!-- Arrowhead on XXXpoint 5757 1648 - 7151 2969-->
<polyline points="6960 2917
7140 2957
7089 2780
" style="stroke:#000000;stroke-width:16;stroke-miterlimit:8;
"/>
<!-- Line -->
<polyline points="6452,2319
6594,2212
" style="stroke:#9f9f9f;stroke-width:8;
stroke-linejoin:round; stroke-linecap:butt;
"/>
<!-- Line -->
<polyline points="8306,3629
8392,1745
" style="stroke:#535353;stroke-width:16;
stroke-linejoin:round; stroke-linecap:butt;
"/>
<!-- Arrowhead on XXXpoint 8306 3629 - 8394 1680-->
<polyline points="8480 1857
8393 1696
8291 1848
" style="stroke:#535353;stroke-width:16;stroke-miterlimit:8;
"/>
<!-- Line -->
<polyline points="7107,2919
7202,2788
5942,1580
" style="stroke:#000000;stroke-width:48;
stroke-linejoin:round; stroke-linecap:butt;
"/>
<!-- Arrowhead on XXXpoint 7202 2788 - 5846 1488-->
<polyline points="6036 1540
5858 1500
5905 1676
" style="stroke:#000000;stroke-width:16;stroke-miterlimit:8;
"/>
<!-- Line -->
<polyline points="2645,3645
2731,1761
" style="stroke:#535353;stroke-width:16;
stroke-linejoin:round; stroke-linecap:butt;
"/>
<!-- Arrowhead on XXXpoint 2645 3645 - 2733 1696-->
<polyline points="2819 1872
2732 1712
2630 1864
" style="stroke:#535353;stroke-width:16;stroke-miterlimit:8;
"/>
<!-- Line -->
<polyline points="8349,2707
8179,2747
" style="stroke:#9f9f9f;stroke-width:8;
stroke-linejoin:round; stroke-linecap:butt;
"/>
<!-- Line -->
<polyline points="2687,2723
2444,2817
" style="stroke:#9f9f9f;stroke-width:8;
stroke-linejoin:round; stroke-linecap:butt;
"/>
<!-- Line -->
<polyline points="2480,1816
2411,3711
" style="stroke:#535353;stroke-width:16;
stroke-linejoin:round; stroke-linecap:butt;
"/>
<!-- Arrowhead on XXXpoint 2480 1816 - 2409 3776-->
<polyline points="2321 3598
2410 3760
2510 3606
" style="stroke:#535353;stroke-width:16;stroke-miterlimit:8;
"/>
<!-- Line -->
<polyline points="8219,1741
8145,3773
" style="stroke:#000000;stroke-width:16;
stroke-linejoin:round; stroke-linecap:butt;
"/>
<!-- Arrowhead on XXXpoint 8219 1741 - 8143 3838-->
<polyline points="8055 3660
8144 3822
8244 3668
" style="stroke:#000000;stroke-width:16;stroke-miterlimit:8;
"/>
<!-- Line -->
<polyline points="8178,1495
5906,1293
" style="stroke:#535353;stroke-width:16;
stroke-linejoin:round; stroke-linecap:butt;
"/>
<!-- Arrowhead on XXXpoint 8178 1495 - 5841 1288-->
<polyline points="6022 1208
5857 1289
6005 1396
" style="stroke:#535353;stroke-width:16;stroke-miterlimit:8;
"/>
<!-- Line -->
<polyline points="2516,1510
245,1309
" style="stroke:#535353;stroke-width:16;
stroke-linejoin:round; stroke-linecap:butt;
"/>
<!-- Arrowhead on XXXpoint 2516 1510 - 180 1303-->
<polyline points="361 1224
196 1304
344 1412
" style="stroke:#535353;stroke-width:16;stroke-miterlimit:8;
"/>
<!-- Line -->
<polyline points="7041,1634
7011,1391
" style="stroke:#9f9f9f;stroke-width:8;
stroke-linejoin:round; stroke-linecap:butt;
"/>
<!-- Line -->
<polyline points="1307,1709
1349,1406
" style="stroke:#9f9f9f;stroke-width:8;
stroke-linejoin:round; stroke-linecap:butt;
"/>
<!-- Line -->
<polyline points="162,1605
2411,1809
" style="stroke:#000000;stroke-width:48;
stroke-linejoin:round; stroke-linecap:butt;
"/>
<!-- Arrowhead on XXXpoint 162 1605 - 2542 1821-->
<polyline points="2361 1900
2527 1820
2377 1711
" style="stroke:#000000;stroke-width:16;stroke-miterlimit:8;
"/>
<!-- Line -->
<polyline points="5892,1532
8184,1738
" style="stroke:#000000;stroke-width:16;
stroke-linejoin:round; stroke-linecap:butt;
"/>
<!-- Arrowhead on XXXpoint 5892 1532 - 8249 1743-->
<polyline points="8068 1822
8234 1742
8085 1633
" style="stroke:#000000;stroke-width:16;stroke-miterlimit:8;
"/>
<!-- Line -->
<polyline points="765,2550
674,2433
690,2332
" style="stroke:#ff0000;stroke-width:8;
stroke-linejoin:miter; stroke-linecap:butt;
"/>
<!-- Line -->
<polyline points="928,2221
822,2306
" style="stroke:#ff0000;stroke-width:8;
stroke-linejoin:miter; stroke-linecap:butt;
"/>
<!-- Line -->
<polyline points="634,2187
735,2303
" style="stroke:#ff0000;stroke-width:8;
stroke-linejoin:miter; stroke-linecap:butt;
"/>
<!-- Line -->
<polyline points="2316,3745
2350,3800
2576,3823
" style="stroke:#ff0000;stroke-width:8;
stroke-linejoin:miter; stroke-linecap:butt;
"/>
<!-- Line -->
<polyline points="2500,3484
2562,3534
2576,3767
" style="stroke:#ff0000;stroke-width:8;
stroke-linejoin:miter; stroke-linecap:butt;
"/>
<!-- Line -->
<polyline points="2690,3470
2772,3585
2609,3736
" style="stroke:#ff0000;stroke-width:8;
stroke-linejoin:miter; stroke-linecap:butt;
"/>
<!-- Line -->
<polyline points="2855,2654
2779,2529
" style="stroke:#ff0000;stroke-width:8;
stroke-linejoin:miter; stroke-linecap:butt;
"/>
<!-- Line -->
<polyline points="2749,2332
2803,2382
2776,2460
" style="stroke:#ff0000;stroke-width:8;
stroke-linejoin:miter; stroke-linecap:butt;
"/>
<!-- Line -->
<polyline points="2548,2614
2572,2560
2725,2501
" style="stroke:#ff0000;stroke-width:8;
stroke-linejoin:miter; stroke-linecap:butt;
"/>
<!-- Line -->
<polyline points="259,3438
165,3476
" style="stroke:#ff0000;stroke-width:8;
stroke-linejoin:miter; stroke-linecap:butt;
"/>
<!-- Line -->
<polyline points="508,3464
321,3580
166,3553
" style="stroke:#ff0000;stroke-width:8;
stroke-linejoin:miter; stroke-linecap:butt;
"/>
<!-- Line -->
<polyline points="180,3258
208,3325
174,3500
" style="stroke:#ff0000;stroke-width:8;
stroke-linejoin:miter; stroke-linecap:butt;
"/>
<!-- Line -->
<polyline points="24,1569
214,1481
" style="stroke:#ff0000;stroke-width:8;
stroke-linejoin:miter; stroke-linecap:butt;
"/>
<!-- Line -->
<polyline points="319,1617
260,1500
" style="stroke:#ff0000;stroke-width:8;
stroke-linejoin:miter; stroke-linecap:butt;
"/>
<!-- Line -->
<polyline points="267,1229
262,1420
" style="stroke:#ff0000;stroke-width:8;
stroke-linejoin:miter; stroke-linecap:butt;
"/>
<!-- Line -->
<polyline points="851,379
775,317
640,311
" style="stroke:#ff0000;stroke-width:8;
stroke-linejoin:miter; stroke-linecap:butt;
"/>
<!-- Line -->
<polyline points="754,611
611,536
607,370
" style="stroke:#ff0000;stroke-width:8;
stroke-linejoin:miter; stroke-linecap:butt;
"/>
<!-- Line -->
<polyline points="479,688
450,541
551,354
" style="stroke:#ff0000;stroke-width:8;
stroke-linejoin:miter; stroke-linecap:butt;
"/>
<!-- Line -->
<polyline points="2717,619
2899,565
" style="stroke:#ff0000;stroke-width:8;
stroke-linejoin:miter; stroke-linecap:butt;
"/>
<!-- Line -->
<polyline points="2744,693
2855,659
2933,590
" style="stroke:#ff0000;stroke-width:8;
stroke-linejoin:miter; stroke-linecap:butt;
"/>
<!-- Line -->
<polyline points="2977,878
3024,775
2984,571
" style="stroke:#ff0000;stroke-width:8;
stroke-linejoin:miter; stroke-linecap:butt;
"/>
<!-- Line -->
<polyline points="2401,1503
2509,1634
" style="stroke:#ff0000;stroke-width:8;
stroke-linejoin:miter; stroke-linecap:butt;
"/>
<!-- Line -->
<polyline points="2762,1610
2601,1630
" style="stroke:#ff0000;stroke-width:8;
stroke-linejoin:miter; stroke-linecap:butt;
"/>
<!-- Line -->
<polyline points="2481,1928
2548,1888
2554,1679
" style="stroke:#ff0000;stroke-width:8;
stroke-linejoin:miter; stroke-linecap:butt;
"/>
<!-- Line -->
<polyline points="6120,3531
5951,3638
5763,3540
" style="stroke:#ff0000;stroke-width:8;
stroke-linejoin:miter; stroke-linecap:butt;
"/>
<!-- Line -->
<polyline points="5862,3353
5787,3446
" style="stroke:#ff0000;stroke-width:8;
stroke-linejoin:miter; stroke-linecap:butt;
"/>
<!-- Line -->
<polyline points="5853,3185
5935,3406
5798,3481
" style="stroke:#ff0000;stroke-width:8;
stroke-linejoin:miter; stroke-linecap:butt;
"/>
<!-- Line -->
<polyline points="5670,1607
5779,1505
" style="stroke:#ff0000;stroke-width:8;
stroke-linejoin:miter; stroke-linecap:butt;
"/>
<!-- Line -->
<polyline points="5841,1697
5808,1513
" style="stroke:#ff0000;stroke-width:8;
stroke-linejoin:miter; stroke-linecap:butt;
"/>
<!-- Line -->
<polyline points="6024,1538
6005,1481
5849,1471
" style="stroke:#ff0000;stroke-width:8;
stroke-linejoin:miter; stroke-linecap:butt;
"/>
<!-- Line -->
<polyline points="5935,1186
5841,1224
5837,1471
" style="stroke:#ff0000;stroke-width:8;
stroke-linejoin:miter; stroke-linecap:butt;
"/>
<!-- Line -->
<polyline points="6406,2608
6358,2482
" style="stroke:#ff0000;stroke-width:8;
stroke-linejoin:miter; stroke-linecap:butt;
"/>
<!-- Line -->
<polyline points="6283,2246
6344,2393
" style="stroke:#ff0000;stroke-width:8;
stroke-linejoin:miter; stroke-linecap:butt;
"/>
<!-- Line -->
<polyline points="6508,2241
6397,2375
" style="stroke:#ff0000;stroke-width:8;
stroke-linejoin:miter; stroke-linecap:butt;
"/>
<!-- Line -->
<polyline points="7169,2723
7300,2783
7276,2915
" style="stroke:#ff0000;stroke-width:8;
stroke-linejoin:miter; stroke-linecap:butt;
"/>
<!-- Line -->
<polyline points="6146,648
6091,510
6209,343
" style="stroke:#ff0000;stroke-width:8;
stroke-linejoin:miter; stroke-linecap:butt;
"/>
<!-- Line -->
<polyline points="6544,363
6411,293
6259,325
" style="stroke:#ff0000;stroke-width:8;
stroke-linejoin:miter; stroke-linecap:butt;
"/>
<!-- Line -->
<polyline points="6564,467
6454,456
6275,338
" style="stroke:#ff0000;stroke-width:8;
stroke-linejoin:miter; stroke-linecap:butt;
"/>
<!-- Line -->
<polyline points="6426,681
6337,640
6238,383
" style="stroke:#ff0000;stroke-width:8;
stroke-linejoin:miter; stroke-linecap:butt;
"/>
<!-- Line -->
<polyline points="8470,555
8627,496
" style="stroke:#ff0000;stroke-width:8;
stroke-linejoin:miter; stroke-linecap:butt;
"/>
<!-- Line -->
<polyline points="8411,657
8657,565
" style="stroke:#ff0000;stroke-width:8;
stroke-linejoin:miter; stroke-linecap:butt;
"/>
<!-- Line -->
<polyline points="8647,876
8689,742
8661,574
" style="stroke:#ff0000;stroke-width:8;
stroke-linejoin:miter; stroke-linecap:butt;
"/>
<!-- Line -->
<polyline points="8072,1483
8108,1561
8224,1591
" style="stroke:#ff0000;stroke-width:8;
stroke-linejoin:miter; stroke-linecap:butt;
"/>
<!-- Line -->
<polyline points="8215,1846
8272,1778
8240,1650
" style="stroke:#ff0000;stroke-width:8;
stroke-linejoin:miter; stroke-linecap:butt;
"/>
<!-- Line -->
<polyline points="8416,1632
8268,1605
" style="stroke:#ff0000;stroke-width:8;
stroke-linejoin:miter; stroke-linecap:butt;
"/>
<!-- Line -->
<polyline points="8456,2207
8504,2282
8422,2477
" style="stroke:#ff0000;stroke-width:8;
stroke-linejoin:miter; stroke-linecap:butt;
"/>
<!-- Line -->
<polyline points="8539,2528
8440,2493
" style="stroke:#ff0000;stroke-width:8;
stroke-linejoin:miter; stroke-linecap:butt;
"/>
<!-- Line -->
<polyline points="8259,2616
8363,2528
" style="stroke:#ff0000;stroke-width:8;
stroke-linejoin:miter; stroke-linecap:butt;
"/>
<!-- Line -->
<polyline points="8106,3652
8268,3770
" style="stroke:#ff0000;stroke-width:8;
stroke-linejoin:miter; stroke-linecap:butt;
"/>
<!-- Line -->
<polyline points="8028,3783
8125,3856
8253,3802
" style="stroke:#ff0000;stroke-width:8;
stroke-linejoin:miter; stroke-linecap:butt;
"/>
<!-- Line -->
<polyline points="8338,3455
8411,3591
8304,3774
" style="stroke:#ff0000;stroke-width:8;
stroke-linejoin:miter; stroke-linecap:butt;
"/>
<!-- Line -->
<polyline points="8280,2351
8382,2469
" style="stroke:#ff0000;stroke-width:8;
stroke-linejoin:miter; stroke-linecap:butt;
"/>
<!-- Circle -->
<circle cx="604" cy="313" r="75"
 style="fill:#787878;stroke:#787878;stroke-width:8;"/>
<!-- Circle -->
<circle cx="2739" cy="2493" r="75"
 style="fill:#787878;stroke:#787878;stroke-width:8;"/>
<!-- Circle -->
<circle cx="760" cy="2332" r="75"
 style="fill:#787878;stroke:#787878;stroke-width:8;"/>
<!-- Circle -->
<circle cx="2545" cy="1671" r="75"
 style="fill:#787878;stroke:#787878;stroke-width:8;"/>
<!-- Circle -->
<circle cx="229" cy="1458" r="75"
 style="fill:#787878;stroke:#787878;stroke-width:8;"/>
<!-- Circle -->
<circle cx="136" cy="3497" r="75"
 style="fill:#787878;stroke:#787878;stroke-width:8;"/>
<!-- Circle -->
<circle cx="2588" cy="3774" r="75"
 style="fill:#787878;stroke:#787878;stroke-width:8;"/>
<!-- Circle -->
<circle cx="2944" cy="528" r="75"
 style="fill:#787878;stroke:#787878;stroke-width:8;"/>
<!-- Circle -->
<circle cx="5753" cy="3479" r="75"
 style="fill:#787878;stroke:#787878;stroke-width:8;"/>
<!-- Circle -->
<circle cx="7255" cy="2949" r="75"
 style="fill:#787878;stroke:#787878;stroke-width:8;"/>
<!-- Circle -->
<circle cx="6372" cy="2422" r="75"
 style="fill:#787878;stroke:#787878;stroke-width:8;"/>
<!-- Circle -->
<circle cx="5825" cy="1483" r="75"
 style="fill:#787878;stroke:#787878;stroke-width:8;"/>
<!-- Circle -->
<circle cx="6235" cy="354" r="75"
 style="fill:#787878;stroke:#787878;stroke-width:8;"/>
<!-- Circle -->
<circle cx="8657" cy="534" r="75"
 style="fill:#787878;stroke:#787878;stroke-width:8;"/>
<!-- Circle -->
<circle cx="8264" cy="1596" r="75"
 style="fill:#787878;stroke:#787878;stroke-width:8;"/>
<!-- Circle -->
<circle cx="8293" cy="3778" r="75"
 style="fill:#787878;stroke:#787878;stroke-width:8;"/>
<!-- Circle -->
<circle cx="8411" cy="2512" r="75"
 style="fill:#787878;stroke:#787878;stroke-width:8;"/>
<!-- Arc -->
<path style="stroke:#000000;stroke-width:16;stroke-linecap:butt;"
d="M 3165,666 A 5017 5017  0  0  1  5983  512 " />
<!-- Arrowhead on XXXpoint 5816 476 - 5983 512-->
<polygon points="5751 558
5964 508
5791 373
5809 474
5751 558

" style="stroke:#000000;stroke-width:16;stroke-miterlimit:8;
fill:white;"/>
<!-- Arc -->
<path style="stroke:#000000;stroke-width:16;stroke-linecap:butt;"
d="M 5699,3425 A 2797 2797  0  0  1  2907  3522 " />
<!-- Arrowhead on XXXpoint 3060 3597 - 2907 3522-->
<polygon points="3141 3532
2923 3530
3058 3701
3064 3600
3141 3532

" style="stroke:#000000;stroke-width:16;stroke-miterlimit:8;
fill:white;"/>
<!-- Text -->
<text xml:space="preserve" x="6334" y="3042" fill="#000000"  font-family="Times" font-style="normal" font-weight="normal" font-size="265" text-anchor="start">dh4</text>
<!-- Text -->
<text xml:space="preserve" x="7233" y="1082" fill="#000000"  font-family="Times" font-style="normal" font-weight="normal" font-size="265" text-anchor="start">dh5</text>
<!-- Text -->
<text xml:space="preserve" x="3734" y="4455" fill="#000000"  font-family="Times" font-style="normal" font-weight="normal" font-size="189" text-anchor="start">lcc.remove_cell&#60;1&#62;(dh5)</text>
<!-- Text -->
<text xml:space="preserve" x="1409" y="2121" fill="#000000"  font-family="Times" font-style="normal" font-weight="normal" font-size="265" text-anchor="start">dh1</text>
<!-- Text -->
<text xml:space="preserve" x="2080" y="1087" fill="#000000"  font-family="Times" font-style="normal" font-weight="normal" font-size="265" text-anchor="start">dh3</text>
<!-- Text -->
<text xml:space="preserve" x="874" y="1079" fill="#000000"  font-family="Times" font-style="normal" font-weight="normal" font-size="265" text-anchor="start">dh2</text>
<!-- Text -->
<text xml:space="preserve" x="7342" y="3181" fill="#000000"  font-family="Times" font-style="normal" font-weight="normal" font-size="265" text-anchor="start">p</text>
<!-- Text -->
<text xml:space="preserve" x="2023" y="-94" fill="#000000"  font-family="Times" font-style="normal" font-weight="normal" font-size="189" text-anchor="start">dh4=lcc.insert_dangling_cell_1_in_cell_2(dh1,p)</text>
<!-- Text -->
<text xml:space="preserve" x="2321" y="220" fill="#000000"  font-family="Times" font-style="normal" font-weight="normal" font-size="189" text-anchor="start">dh5=lcc.insert_cell_1_in_cell_2(dh2,dh3)</text>
<!-- Text -->
<text xml:space="preserve" x="3560" y="4146" fill="#000000"  font-family="Times" font-style="normal" font-weight="normal" font-size="189" text-anchor="start">lcc.remove_cell&#60;1&#62;(dh4)</text>
</g>
</svg>
