<?xml version="1.0" standalone="no"?>
<!DOCTYPE svg PUBLIC "-//W3C//DTD SVG 1.1//EN"
"http://www.w3.org/Graphics/SVG/1.1/DTD/svg11.dtd">
<!-- Creator: fig2dev Version 3.2.6 -->
<!-- CreationDate: Mon Nov 21 08:46:35 2016 -->
<!-- Magnification: 1.050 -->
<svg	xmlns="http://www.w3.org/2000/svg"
	xmlns:xlink="http://www.w3.org/1999/xlink"
	width="8.4in" height="3.4in"
	viewBox="46 774 10051 4035">
<g style="stroke-width:.025in; fill:none">
<!-- Line -->
<polyline points="6491,2878
7964,3209
" style="stroke:#5e5e5e;stroke-width:16;
stroke-linejoin:round; stroke-linecap:butt;
"/>
<!-- Arrowhead on XXXpoint 6491 2878 - 8028 3223-->
<polyline points="7837 3277
8012 3219
7879 3092
" style="stroke:#5e5e5e;stroke-width:16;stroke-miterlimit:8;
"/>
<!-- Line -->
<polyline points="1282,2741
2755,3071
" style="stroke:#5e5e5e;stroke-width:16;
stroke-linejoin:round; stroke-linecap:butt;
"/>
<!-- Arrowhead on XXXpoint 1282 2741 - 2819 3085-->
<polyline points="2628 3140
2804 3082
2670 2955
" style="stroke:#5e5e5e;stroke-width:16;stroke-miterlimit:8;
"/>
<!-- Line -->
<polyline points="6470,1356
6491,2844
" style="stroke:#5e5e5e;stroke-width:16;
stroke-linejoin:round; stroke-linecap:butt;
"/>
<!-- Arrowhead on XXXpoint 6470 1356 - 6491 2909-->
<polyline points="6393 2737
6491 2893
6582 2733
" style="stroke:#5e5e5e;stroke-width:16;stroke-miterlimit:8;
"/>
<!-- Line -->
<polyline points="1261,1218
1282,2706
" style="stroke:#5e5e5e;stroke-width:16;
stroke-linejoin:round; stroke-linecap:butt;
"/>
<!-- Arrowhead on XXXpoint 1261 1218 - 1282 2771-->
<polyline points="1185 2599
1282 2755
1374 2596
" style="stroke:#5e5e5e;stroke-width:16;stroke-miterlimit:8;
"/>
<!-- Line -->
<polyline points="7938,3414
6460,3068
" style="stroke:#5e5e5e;stroke-width:16;
stroke-linejoin:round; stroke-linecap:butt;
"/>
<!-- Arrowhead on XXXpoint 7938 3414 - 6396 3055-->
<polyline points="6586 3001
6412 3058
6543 3185
" style="stroke:#5e5e5e;stroke-width:16;stroke-miterlimit:8;
"/>
<!-- Line -->
<polyline points="2729,3277
1252,2932
" style="stroke:#5e5e5e;stroke-width:16;
stroke-linejoin:round; stroke-linecap:butt;
"/>
<!-- Arrowhead on XXXpoint 2729 3277 - 1188 2917-->
<polyline points="1378 2865
1204 2921
1335 3048
" style="stroke:#5e5e5e;stroke-width:16;stroke-miterlimit:8;
"/>
<!-- Line -->
<polyline points="6301,2908
6264,1412
" style="stroke:#5e5e5e;stroke-width:16;
stroke-linejoin:round; stroke-linecap:butt;
"/>
<!-- Arrowhead on XXXpoint 6301 2908 - 6263 1346-->
<polyline points="6361 1517
6263 1362
6172 1522
" style="stroke:#5e5e5e;stroke-width:16;stroke-miterlimit:8;
"/>
<!-- Line -->
<polyline points="1092,2770
1056,1275
" style="stroke:#5e5e5e;stroke-width:16;
stroke-linejoin:round; stroke-linecap:butt;
"/>
<!-- Arrowhead on XXXpoint 1092 2770 - 1055 1210-->
<polyline points="1152 1380
1055 1226
963 1385
" style="stroke:#5e5e5e;stroke-width:16;stroke-miterlimit:8;
"/>
<!-- Line -->
<polyline points="6428,3062
5596,3815
" style="stroke:#5e5e5e;stroke-width:16;
stroke-linejoin:round; stroke-linecap:butt;
"/>
<!-- Arrowhead on XXXpoint 6428 3062 - 5548 3859-->
<polyline points="5612 3672
5560 3848
5739 3813
" style="stroke:#5e5e5e;stroke-width:16;stroke-miterlimit:8;
"/>
<!-- Line -->
<polyline points="1219,2924
388,3677
" style="stroke:#5e5e5e;stroke-width:16;
stroke-linejoin:round; stroke-linecap:butt;
"/>
<!-- Arrowhead on XXXpoint 1219 2924 - 340 3721-->
<polyline points="404 3534
351 3711
531 3675
" style="stroke:#5e5e5e;stroke-width:16;stroke-miterlimit:8;
"/>
<!-- Line -->
<polyline points="5425,3662
6275,2930
" style="stroke:#5e5e5e;stroke-width:16;
stroke-linejoin:round; stroke-linecap:butt;
"/>
<!-- Arrowhead on XXXpoint 5425 3662 - 6324 2887-->
<polyline points="6254 3071
6311 2897
6130 2928
" style="stroke:#5e5e5e;stroke-width:16;stroke-miterlimit:8;
"/>
<!-- Line -->
<polyline points="217,3525
1066,2792
" style="stroke:#5e5e5e;stroke-width:16;
stroke-linejoin:round; stroke-linecap:butt;
"/>
<!-- Arrowhead on XXXpoint 217 3525 - 1116 2749-->
<polyline points="1045 2934
1103 2760
921 2790
" style="stroke:#5e5e5e;stroke-width:16;stroke-miterlimit:8;
"/>
<!-- Line -->
<polyline points="7997,3216
8089,1647
" style="stroke:#5e5e5e;stroke-width:16;
stroke-linejoin:round; stroke-linecap:butt;
"/>
<!-- Arrowhead on XXXpoint 7997 3216 - 8092 1582-->
<polyline points="8176 1759
8091 1597
7987 1749
" style="stroke:#5e5e5e;stroke-width:16;stroke-miterlimit:8;
"/>
<!-- Line -->
<polyline points="2789,3079
2880,1509
" style="stroke:#5e5e5e;stroke-width:16;
stroke-linejoin:round; stroke-linecap:butt;
"/>
<!-- Arrowhead on XXXpoint 2789 3079 - 2883 1444-->
<polyline points="2967 1622
2882 1460
2779 1611
" style="stroke:#5e5e5e;stroke-width:16;stroke-miterlimit:8;
"/>
<!-- Line -->
<polyline points="8091,1613
6503,1360
" style="stroke:#5e5e5e;stroke-width:16;
stroke-linejoin:round; stroke-linecap:butt;
"/>
<!-- Arrowhead on XXXpoint 8091 1613 - 6438 1351-->
<polyline points="6624 1283
6454 1353
6595 1470
" style="stroke:#5e5e5e;stroke-width:16;stroke-miterlimit:8;
"/>
<!-- Line -->
<polyline points="2882,1476
1295,1223
" style="stroke:#5e5e5e;stroke-width:16;
stroke-linejoin:round; stroke-linecap:butt;
"/>
<!-- Arrowhead on XXXpoint 2882 1476 - 1230 1213-->
<polyline points="1416 1146
1246 1215
1386 1333
" style="stroke:#5e5e5e;stroke-width:16;stroke-miterlimit:8;
"/>
<!-- Line -->
<polyline points="8192,1690
8090,3280
" style="stroke:#5e5e5e;stroke-width:16;
stroke-linejoin:round; stroke-linecap:butt;
"/>
<!-- Arrowhead on XXXpoint 8192 1690 - 8087 3345-->
<polyline points="8003 3166
8088 3330
8192 3177
" style="stroke:#5e5e5e;stroke-width:16;stroke-miterlimit:8;
"/>
<!-- Line -->
<polyline points="2983,1552
2881,3143
" style="stroke:#5e5e5e;stroke-width:16;
stroke-linejoin:round; stroke-linecap:butt;
"/>
<!-- Arrowhead on XXXpoint 2983 1552 - 2878 3208-->
<polyline points="2794 3028
2879 3192
2983 3040
" style="stroke:#5e5e5e;stroke-width:16;stroke-miterlimit:8;
"/>
<!-- Line -->
<polyline points="6395,1253
8010,1504
" style="stroke:#5e5e5e;stroke-width:16;
stroke-linejoin:round; stroke-linecap:butt;
"/>
<!-- Arrowhead on XXXpoint 6395 1253 - 8075 1513-->
<polyline points="7888 1580
8059 1511
7918 1394
" style="stroke:#5e5e5e;stroke-width:16;stroke-miterlimit:8;
"/>
<!-- Line -->
<polyline points="1187,1116
2802,1366
" style="stroke:#5e5e5e;stroke-width:16;
stroke-linejoin:round; stroke-linecap:butt;
"/>
<!-- Arrowhead on XXXpoint 1187 1116 - 2867 1376-->
<polyline points="2680 1442
2851 1374
2709 1256
" style="stroke:#5e5e5e;stroke-width:16;stroke-miterlimit:8;
"/>
<!-- Line -->
<polyline points="8577,1721
8448,3317
" style="stroke:#5e5e5e;stroke-width:16;
stroke-linejoin:round; stroke-linecap:butt;
"/>
<!-- Arrowhead on XXXpoint 8577 1721 - 8443 3382-->
<polyline points="8362 3202
8444 3366
8550 3216
" style="stroke:#5e5e5e;stroke-width:16;stroke-miterlimit:8;
"/>
<!-- Line -->
<polyline points="3369,1584
3239,3181
" style="stroke:#5e5e5e;stroke-width:16;
stroke-linejoin:round; stroke-linecap:butt;
"/>
<!-- Arrowhead on XXXpoint 3369 1584 - 3234 3246-->
<polyline points="3153 3065
3235 3230
3341 3080
" style="stroke:#5e5e5e;stroke-width:16;stroke-miterlimit:8;
"/>
<!-- Line -->
<polyline points="8270,3367
8391,1763
" style="stroke:#5e5e5e;stroke-width:16;
stroke-linejoin:round; stroke-linecap:butt;
"/>
<!-- Arrowhead on XXXpoint 8270 3367 - 8395 1698-->
<polyline points="8476 1878
8394 1714
8288 1863
" style="stroke:#5e5e5e;stroke-width:16;stroke-miterlimit:8;
"/>
<!-- Line -->
<polyline points="3062,3231
3183,1626
" style="stroke:#5e5e5e;stroke-width:16;
stroke-linejoin:round; stroke-linecap:butt;
"/>
<!-- Arrowhead on XXXpoint 3062 3231 - 3187 1561-->
<polyline points="3268 1740
3186 1576
3080 1725
" style="stroke:#5e5e5e;stroke-width:16;stroke-miterlimit:8;
"/>
<!-- Line -->
<polyline points="7250,4304
7917,3440
" style="stroke:#5e5e5e;stroke-width:16;
stroke-linejoin:round; stroke-linecap:butt;
"/>
<!-- Arrowhead on XXXpoint 7250 4304 - 7956 3388-->
<polyline points="7925 3583
7947 3401
7776 3467
" style="stroke:#5e5e5e;stroke-width:16;stroke-miterlimit:8;
"/>
<!-- Line -->
<polyline points="2041,4166
2708,3303
" style="stroke:#5e5e5e;stroke-width:16;
stroke-linejoin:round; stroke-linecap:butt;
"/>
<!-- Arrowhead on XXXpoint 2041 4166 - 2748 3252-->
<polyline points="2717 3446
2739 3265
2567 3331
" style="stroke:#5e5e5e;stroke-width:16;stroke-miterlimit:8;
"/>
<!-- Line -->
<polyline points="6264,1378
5337,1939
" style="stroke:#5e5e5e;stroke-width:16;
stroke-linejoin:round; stroke-linecap:butt;
"/>
<!-- Arrowhead on XXXpoint 6264 1378 - 5281 1972-->
<polyline points="5380 1801
5295 1964
5478 1963
" style="stroke:#5e5e5e;stroke-width:16;stroke-miterlimit:8;
"/>
<!-- Line -->
<polyline points="1056,1241
130,1801
" style="stroke:#5e5e5e;stroke-width:16;
stroke-linejoin:round; stroke-linecap:butt;
"/>
<!-- Arrowhead on XXXpoint 1056 1241 - 74 1835-->
<polyline points="173 1664
88 1826
270 1825
" style="stroke:#5e5e5e;stroke-width:16;stroke-miterlimit:8;
"/>
<!-- Line -->
<polyline points="8089,3315
7435,4175
" style="stroke:#5e5e5e;stroke-width:16;
stroke-linejoin:round; stroke-linecap:butt;
"/>
<!-- Arrowhead on XXXpoint 8089 3315 - 7395 4226-->
<polyline points="7424 4031
7404 4214
7574 4145
" style="stroke:#5e5e5e;stroke-width:16;stroke-miterlimit:8;
"/>
<!-- Line -->
<polyline points="2880,3177
2226,4037
" style="stroke:#5e5e5e;stroke-width:16;
stroke-linejoin:round; stroke-linecap:butt;
"/>
<!-- Arrowhead on XXXpoint 2880 3177 - 2186 4089-->
<polyline points="2216 3893
2196 4076
2366 4008
" style="stroke:#5e5e5e;stroke-width:16;stroke-miterlimit:8;
"/>
<!-- Line -->
<polyline points="5447,1821
6366,1270
" style="stroke:#5e5e5e;stroke-width:16;
stroke-linejoin:round; stroke-linecap:butt;
"/>
<!-- Arrowhead on XXXpoint 5447 1821 - 6422 1236-->
<polyline points="6321 1406
6408 1245
6224 1245
" style="stroke:#5e5e5e;stroke-width:16;stroke-miterlimit:8;
"/>
<!-- Line -->
<polyline points="8464,3534
7851,4426
" style="stroke:#5e5e5e;stroke-width:16;
stroke-linejoin:round; stroke-linecap:butt;
"/>
<!-- Arrowhead on XXXpoint 8464 3534 - 7815 4479-->
<polyline points="7835 4282
7824 4466
7991 4389
" style="stroke:#5e5e5e;stroke-width:16;stroke-miterlimit:8;
"/>
<!-- Line -->
<polyline points="240,1683
1158,1132
" style="stroke:#5e5e5e;stroke-width:16;
stroke-linejoin:round; stroke-linecap:butt;
"/>
<!-- Arrowhead on XXXpoint 240 1683 - 1213 1099-->
<polyline points="1112 1269
1200 1107
1016 1107
" style="stroke:#5e5e5e;stroke-width:16;stroke-miterlimit:8;
"/>
<!-- Line -->
<polyline points="3255,3397
2643,4289
" style="stroke:#5e5e5e;stroke-width:16;
stroke-linejoin:round; stroke-linecap:butt;
"/>
<!-- Arrowhead on XXXpoint 3255 3397 - 2606 4343-->
<polyline points="2626 4145
2616 4329
2783 4253
" style="stroke:#5e5e5e;stroke-width:16;stroke-miterlimit:8;
"/>
<!-- Line -->
<polyline points="7626,4272
8250,3395
" style="stroke:#5e5e5e;stroke-width:16;
stroke-linejoin:round; stroke-linecap:butt;
"/>
<!-- Arrowhead on XXXpoint 7626 4272 - 8288 3341-->
<polyline points="8264 3538
8279 3355
8110 3428
" style="stroke:#5e5e5e;stroke-width:16;stroke-miterlimit:8;
"/>
<!-- Line -->
<polyline points="2417,4135
3042,3258
" style="stroke:#5e5e5e;stroke-width:16;
stroke-linejoin:round; stroke-linecap:butt;
"/>
<!-- Arrowhead on XXXpoint 2417 4135 - 3080 3205-->
<polyline points="3056 3401
3070 3218
2901 3291
" style="stroke:#5e5e5e;stroke-width:16;stroke-miterlimit:8;
"/>
<!-- Line -->
<polyline points="5572,3838
7216,4295
" style="stroke:#5e5e5e;stroke-width:16;
stroke-linejoin:round; stroke-linecap:butt;
"/>
<!-- Arrowhead on XXXpoint 5572 3838 - 7279 4312-->
<polyline points="7086 4356
7264 4308
7137 4175
" style="stroke:#5e5e5e;stroke-width:16;stroke-miterlimit:8;
"/>
<!-- Line -->
<polyline points="364,3700
2008,4157
" style="stroke:#5e5e5e;stroke-width:16;
stroke-linejoin:round; stroke-linecap:butt;
"/>
<!-- Arrowhead on XXXpoint 364 3700 - 2071 4175-->
<polyline points="1878 4219
2055 4171
1928 4037
" style="stroke:#5e5e5e;stroke-width:16;stroke-miterlimit:8;
"/>
<!-- Line -->
<polyline points="8446,3352
9851,3294
" style="stroke:#5e5e5e;stroke-width:16;
stroke-linejoin:round; stroke-linecap:butt;
"/>
<!-- Arrowhead on XXXpoint 8446 3352 - 9917 3292-->
<polyline points="9746 3394
9901 3293
9739 3205
" style="stroke:#5e5e5e;stroke-width:16;stroke-miterlimit:8;
"/>
<!-- Line -->
<polyline points="3237,3215
4643,3156
" style="stroke:#5e5e5e;stroke-width:16;
stroke-linejoin:round; stroke-linecap:butt;
"/>
<!-- Arrowhead on XXXpoint 3237 3215 - 4708 3154-->
<polyline points="4538 3256
4692 3155
4531 3067
" style="stroke:#5e5e5e;stroke-width:16;stroke-miterlimit:8;
"/>
<!-- Line -->
<polyline points="9904,3501
8497,3533
" style="stroke:#5e5e5e;stroke-width:16;
stroke-linejoin:round; stroke-linecap:butt;
"/>
<!-- Arrowhead on XXXpoint 9904 3501 - 8432 3534-->
<polyline points="8602 3436
8448 3534
8607 3625
" style="stroke:#5e5e5e;stroke-width:16;stroke-miterlimit:8;
"/>
<!-- Line -->
<polyline points="4696,3364
3289,3396
" style="stroke:#5e5e5e;stroke-width:16;
stroke-linejoin:round; stroke-linecap:butt;
"/>
<!-- Arrowhead on XXXpoint 4696 3364 - 3224 3397-->
<polyline points="3394 3298
3239 3397
3398 3487
" style="stroke:#5e5e5e;stroke-width:16;stroke-miterlimit:8;
"/>
<!-- Line -->
<polyline points="5309,1956
5423,3628
" style="stroke:#5e5e5e;stroke-width:16;
stroke-linejoin:round; stroke-linecap:butt;
"/>
<!-- Arrowhead on XXXpoint 5309 1956 - 5427 3693-->
<polyline points="5320 3526
5426 3677
5509 3513
" style="stroke:#5e5e5e;stroke-width:16;stroke-miterlimit:8;
"/>
<!-- Line -->
<polyline points="101,1819
215,3490
" style="stroke:#5e5e5e;stroke-width:16;
stroke-linejoin:round; stroke-linecap:butt;
"/>
<!-- Arrowhead on XXXpoint 101 1819 - 219 3555-->
<polyline points="113 3388
218 3540
301 3376
" style="stroke:#5e5e5e;stroke-width:16;stroke-miterlimit:8;
"/>
<!-- Line -->
<polyline points="7183,4248
5507,3785
" style="stroke:#5e5e5e;stroke-width:16;
stroke-linejoin:round; stroke-linecap:butt;
"/>
<!-- Arrowhead on XXXpoint 7183 4248 - 5444 3769-->
<polyline points="5636 3723
5460 3773
5586 3905
" style="stroke:#5e5e5e;stroke-width:16;stroke-miterlimit:8;
"/>
<!-- Line -->
<polyline points="1974,4111
299,3649
" style="stroke:#5e5e5e;stroke-width:16;
stroke-linejoin:round; stroke-linecap:butt;
"/>
<!-- Arrowhead on XXXpoint 1974 4111 - 236 3632-->
<polyline points="428 3587
251 3636
377 3769
" style="stroke:#5e5e5e;stroke-width:16;stroke-miterlimit:8;
"/>
<!-- Line -->
<polyline points="5475,3777
5362,2080
" style="stroke:#5e5e5e;stroke-width:16;
stroke-linejoin:round; stroke-linecap:butt;
"/>
<!-- Arrowhead on XXXpoint 5475 3777 - 5359 2015-->
<polyline points="5464 2181
5360 2031
5276 2194
" style="stroke:#5e5e5e;stroke-width:16;stroke-miterlimit:8;
"/>
<!-- Line -->
<polyline points="266,3640
154,1943
" style="stroke:#5e5e5e;stroke-width:16;
stroke-linejoin:round; stroke-linecap:butt;
"/>
<!-- Arrowhead on XXXpoint 266 3640 - 151 1878-->
<polyline points="256 2044
152 1893
67 2056
" style="stroke:#5e5e5e;stroke-width:16;stroke-miterlimit:8;
"/>
<!-- Line -->
<polyline points="9886,3294
8598,1746
" style="stroke:#5e5e5e;stroke-width:16;
stroke-linejoin:round; stroke-linecap:butt;
"/>
<!-- Arrowhead on XXXpoint 9886 3294 - 8556 1696-->
<polyline points="8740 1769
8566 1709
8594 1889
" style="stroke:#5e5e5e;stroke-width:16;stroke-miterlimit:8;
"/>
<!-- Line -->
<polyline points="4678,3156
3390,1609
" style="stroke:#5e5e5e;stroke-width:16;
stroke-linejoin:round; stroke-linecap:butt;
"/>
<!-- Arrowhead on XXXpoint 4678 3156 - 3348 1559-->
<polyline points="3531 1631
3358 1571
3385 1752
" style="stroke:#5e5e5e;stroke-width:16;stroke-miterlimit:8;
"/>
<!-- Line -->
<polyline points="8595,1637
9900,3201
" style="stroke:#5e5e5e;stroke-width:16;
stroke-linejoin:round; stroke-linecap:butt;
"/>
<!-- Arrowhead on XXXpoint 8595 1637 - 9942 3251-->
<polyline points="9757 3177
9931 3238
9902 3057
" style="stroke:#5e5e5e;stroke-width:16;stroke-miterlimit:8;
"/>
<!-- Line -->
<polyline points="3387,1500
4691,3063
" style="stroke:#5e5e5e;stroke-width:16;
stroke-linejoin:round; stroke-linecap:butt;
"/>
<!-- Arrowhead on XXXpoint 3387 1500 - 4733 3113-->
<polyline points="4549 3040
4723 3101
4695 2919
" style="stroke:#5e5e5e;stroke-width:16;stroke-miterlimit:8;
"/>
<!-- Line -->
<polyline points="7474,2380
7848,2019
" style="stroke:#000000;stroke-width:16;
stroke-linejoin:round; stroke-linecap:butt;
"/>
<!-- Arrowhead on XXXpoint 7474 2380 - 7896 1974-->
<polyline points="7836 2162
7884 1986
7704 2026
" style="stroke:#000000;stroke-width:16;stroke-miterlimit:8;
"/>
<!-- Line -->
<polyline points="7870,1997
8161,1718
" style="stroke:#000000;stroke-width:16;
stroke-linejoin:round; stroke-linecap:butt;
"/>
<!-- Arrowhead on XXXpoint 7870 1997 - 8208 1673-->
<polyline points="8149 1861
8197 1685
8017 1724
" style="stroke:#000000;stroke-width:16;stroke-miterlimit:8;
"/>
<!-- Line -->
<polyline points="2265,2242
2958,1575
" style="stroke:#000000;stroke-width:16;
stroke-linejoin:round; stroke-linecap:butt;
"/>
<!-- Arrowhead on XXXpoint 2265 2242 - 3005 1530-->
<polyline points="2945 1718
2994 1542
2814 1583
" style="stroke:#000000;stroke-width:16;stroke-miterlimit:8;
"/>
<!-- Line -->
<polyline points="8045,1513
7742,1779
" style="stroke:#000000;stroke-width:16;
stroke-linejoin:round; stroke-linecap:butt;
"/>
<!-- Arrowhead on XXXpoint 8045 1513 - 7693 1822-->
<polyline points="7761 1636
7706 1812
7886 1778
" style="stroke:#000000;stroke-width:16;stroke-miterlimit:8;
"/>
<!-- Line -->
<polyline points="7717,1802
7364,2112
" style="stroke:#000000;stroke-width:63;
stroke-linejoin:round; stroke-linecap:butt;
"/>
<!-- Arrowhead on XXXpoint 7717 1802 - 7240 2221-->
<polyline points="7309 2035
7253 2211
7434 2177
" style="stroke:#000000;stroke-width:16;stroke-miterlimit:8;
"/>
<!-- Line -->
<polyline points="2836,1372
2156,1974
" style="stroke:#000000;stroke-width:63;
stroke-linejoin:round; stroke-linecap:butt;
"/>
<!-- Arrowhead on XXXpoint 2836 1372 - 2032 2083-->
<polyline points="2099 1898
2045 2073
2224 2038
" style="stroke:#000000;stroke-width:16;stroke-miterlimit:8;
"/>
<!-- Line -->
<polyline points="8072,2062
7733,2409
" style="stroke:#000000;stroke-width:16;
stroke-linejoin:round; stroke-linecap:butt;
"/>
<!-- Arrowhead on XXXpoint 8072 2062 - 7688 2456-->
<polyline points="7741 2265
7699 2445
7877 2397
" style="stroke:#000000;stroke-width:16;stroke-miterlimit:8;
"/>
<!-- Line -->
<polyline points="8380,1742
8093,2039
" style="stroke:#000000;stroke-width:16;
stroke-linejoin:round; stroke-linecap:butt;
"/>
<!-- Arrowhead on XXXpoint 8380 1742 - 8048 2087-->
<polyline points="8100 1896
8059 2075
8236 2027
" style="stroke:#000000;stroke-width:16;stroke-miterlimit:8;
"/>
<!-- Line -->
<polyline points="3185,1592
2524,2272
" style="stroke:#000000;stroke-width:16;
stroke-linejoin:round; stroke-linecap:butt;
"/>
<!-- Arrowhead on XXXpoint 3185 1592 - 2479 2320-->
<polyline points="2532 2129
2491 2308
2668 2260
" style="stroke:#000000;stroke-width:16;stroke-miterlimit:8;
"/>
<!-- Line -->
<polyline points="7833,4454
9872,3514
" style="stroke:#5e5e5e;stroke-width:16;
stroke-linejoin:round; stroke-linecap:butt;
"/>
<!-- Arrowhead on XXXpoint 7833 4454 - 9932 3487-->
<polyline points="9814 3645
9918 3493
9735 3472
" style="stroke:#5e5e5e;stroke-width:16;stroke-miterlimit:8;
"/>
<!-- Line -->
<polyline points="2624,4318
4664,3378
" style="stroke:#5e5e5e;stroke-width:16;
stroke-linejoin:round; stroke-linecap:butt;
"/>
<!-- Arrowhead on XXXpoint 2624 4318 - 4724 3351-->
<polyline points="4605 3508
4709 3357
4527 3336
" style="stroke:#5e5e5e;stroke-width:16;stroke-miterlimit:8;
"/>
<!-- Line -->
<polyline points="8245,1998
8571,1661
" style="stroke:#000000;stroke-width:16;
stroke-linejoin:round; stroke-linecap:butt;
"/>
<!-- Arrowhead on XXXpoint 8245 1998 - 8616 1614-->
<polyline points="8562 1804
8604 1626
8427 1673
" style="stroke:#000000;stroke-width:16;stroke-miterlimit:8;
"/>
<!-- Line -->
<polyline points="7927,2324
8220,2022
" style="stroke:#000000;stroke-width:16;
stroke-linejoin:round; stroke-linecap:butt;
"/>
<!-- Arrowhead on XXXpoint 7927 2324 - 8265 1974-->
<polyline points="8212 2164
8254 1986
8076 2033
" style="stroke:#000000;stroke-width:16;stroke-miterlimit:8;
"/>
<!-- Line -->
<polyline points="2713,2196
3363,1524
" style="stroke:#000000;stroke-width:16;
stroke-linejoin:round; stroke-linecap:butt;
"/>
<!-- Arrowhead on XXXpoint 2713 2196 - 3408 1477-->
<polyline points="3355 1667
3397 1488
3219 1535
" style="stroke:#000000;stroke-width:16;stroke-miterlimit:8;
"/>
<!-- Line -->
<polyline points="9849,3417
7779,4371
" style="stroke:#5e5e5e;stroke-width:16;
stroke-linejoin:round; stroke-linecap:butt;
"/>
<!-- Arrowhead on XXXpoint 9849 3417 - 7719 4398-->
<polyline points="7837 4240
7734 4392
7916 4411
" style="stroke:#5e5e5e;stroke-width:16;stroke-miterlimit:8;
"/>
<!-- Line -->
<polyline points="4641,3279
2571,4234
" style="stroke:#5e5e5e;stroke-width:16;
stroke-linejoin:round; stroke-linecap:butt;
"/>
<!-- Arrowhead on XXXpoint 4641 3279 - 2511 4261-->
<polyline points="2628 4102
2525 4255
2707 4274
" style="stroke:#5e5e5e;stroke-width:16;stroke-miterlimit:8;
"/>
<!-- Line -->
<polyline points="7415,4202
7472,2413
" style="stroke:#5e5e5e;stroke-width:16;
stroke-linejoin:round; stroke-linecap:butt;
"/>
<!-- Arrowhead on XXXpoint 7415 4202 - 7474 2348-->
<polyline points="7563 2523
7474 2364
7374 2518
" style="stroke:#5e5e5e;stroke-width:16;stroke-miterlimit:8;
"/>
<!-- Line -->
<polyline points="2206,4065
2264,2276
" style="stroke:#5e5e5e;stroke-width:16;
stroke-linejoin:round; stroke-linecap:butt;
"/>
<!-- Arrowhead on XXXpoint 2206 4065 - 2265 2211-->
<polyline points="2354 2386
2265 2226
2165 2381
" style="stroke:#5e5e5e;stroke-width:16;stroke-miterlimit:8;
"/>
<!-- Line -->
<polyline points="7300,2170
5480,1826
" style="stroke:#5e5e5e;stroke-width:16;
stroke-linejoin:round; stroke-linecap:butt;
"/>
<!-- Arrowhead on XXXpoint 7300 2170 - 5416 1815-->
<polyline points="5604 1754
5432 1818
5568 1940
" style="stroke:#5e5e5e;stroke-width:16;stroke-miterlimit:8;
"/>
<!-- Line -->
<polyline points="2092,2032
272,1689
" style="stroke:#5e5e5e;stroke-width:16;
stroke-linejoin:round; stroke-linecap:butt;
"/>
<!-- Arrowhead on XXXpoint 2092 2032 - 208 1677-->
<polyline points="396 1616
224 1680
361 1802
" style="stroke:#5e5e5e;stroke-width:16;stroke-miterlimit:8;
"/>
<!-- Line -->
<polyline points="7218,2416
7183,4214
" style="stroke:#5e5e5e;stroke-width:16;
stroke-linejoin:round; stroke-linecap:butt;
"/>
<!-- Arrowhead on XXXpoint 7218 2416 - 7182 4279-->
<polyline points="7089 4103
7182 4263
7278 4107
" style="stroke:#5e5e5e;stroke-width:16;stroke-miterlimit:8;
"/>
<!-- Line -->
<polyline points="2010,2279
1974,4076
" style="stroke:#5e5e5e;stroke-width:16;
stroke-linejoin:round; stroke-linecap:butt;
"/>
<!-- Arrowhead on XXXpoint 2010 2279 - 1973 4141-->
<polyline points="1881 3966
1973 4125
2070 3969
" style="stroke:#5e5e5e;stroke-width:16;stroke-miterlimit:8;
"/>
<!-- Line -->
<polyline points="7710,2434
7627,4238
" style="stroke:#5e5e5e;stroke-width:16;
stroke-linejoin:round; stroke-linecap:butt;
"/>
<!-- Arrowhead on XXXpoint 7710 2434 - 7624 4303-->
<polyline points="7537 4125
7625 4287
7725 4134
" style="stroke:#5e5e5e;stroke-width:16;stroke-miterlimit:8;
"/>
<!-- Line -->
<polyline points="2501,2298
2418,4100
" style="stroke:#5e5e5e;stroke-width:16;
stroke-linejoin:round; stroke-linecap:butt;
"/>
<!-- Arrowhead on XXXpoint 2501 2298 - 2415 4165-->
<polyline points="2329 3988
2416 4150
2517 3996
" style="stroke:#5e5e5e;stroke-width:16;stroke-miterlimit:8;
"/>
<!-- Line -->
<polyline points="5361,2047
7185,2410
" style="stroke:#5e5e5e;stroke-width:16;
stroke-linejoin:round; stroke-linecap:butt;
"/>
<!-- Arrowhead on XXXpoint 5361 2047 - 7249 2422-->
<polyline points="7060 2480
7233 2418
7097 2295
" style="stroke:#5e5e5e;stroke-width:16;stroke-miterlimit:8;
"/>
<!-- Line -->
<polyline points="153,1909
1976,2272
" style="stroke:#5e5e5e;stroke-width:16;
stroke-linejoin:round; stroke-linecap:butt;
"/>
<!-- Arrowhead on XXXpoint 153 1909 - 2040 2284-->
<polyline points="1851 2343
2025 2281
1888 2157
" style="stroke:#5e5e5e;stroke-width:16;stroke-miterlimit:8;
"/>
<!-- Line -->
<polyline points="7749,4386
7836,2563
" style="stroke:#5e5e5e;stroke-width:16;
stroke-linejoin:round; stroke-linecap:butt;
"/>
<!-- Arrowhead on XXXpoint 7749 4386 - 7839 2498-->
<polyline points="7924 2676
7838 2514
7735 2666
" style="stroke:#5e5e5e;stroke-width:16;stroke-miterlimit:8;
"/>
<!-- Line -->
<polyline points="2540,4248
2627,2426
" style="stroke:#5e5e5e;stroke-width:16;
stroke-linejoin:round; stroke-linecap:butt;
"/>
<!-- Arrowhead on XXXpoint 2540 4248 - 2630 2361-->
<polyline points="2716 2538
2629 2376
2527 2529
" style="stroke:#5e5e5e;stroke-width:16;stroke-miterlimit:8;
"/>
<!-- Line -->
<polyline points="9922,3227
7952,2346
" style="stroke:#5e5e5e;stroke-width:16;
stroke-linejoin:round; stroke-linecap:butt;
"/>
<!-- Arrowhead on XXXpoint 9922 3227 - 7892 2320-->
<polyline points="8089 2304
7907 2326
8012 2476
" style="stroke:#5e5e5e;stroke-width:16;stroke-miterlimit:8;
"/>
<!-- Line -->
<polyline points="4713,3089
2744,2208
" style="stroke:#5e5e5e;stroke-width:16;
stroke-linejoin:round; stroke-linecap:butt;
"/>
<!-- Arrowhead on XXXpoint 4713 3089 - 2684 2182-->
<polyline points="2880 2166
2699 2188
2804 2339
" style="stroke:#5e5e5e;stroke-width:16;stroke-miterlimit:8;
"/>
<!-- Line -->
<polyline points="7838,2530
9818,3403
" style="stroke:#5e5e5e;stroke-width:16;
stroke-linejoin:round; stroke-linecap:butt;
"/>
<!-- Arrowhead on XXXpoint 7838 2530 - 9878 3429-->
<polyline points="9680 3445
9863 3423
9757 3273
" style="stroke:#5e5e5e;stroke-width:16;stroke-miterlimit:8;
"/>
<!-- Line -->
<polyline points="2629,2392
4609,3266
" style="stroke:#5e5e5e;stroke-width:16;
stroke-linejoin:round; stroke-linecap:butt;
"/>
<!-- Arrowhead on XXXpoint 2629 2392 - 4669 3292-->
<polyline points="4472 3308
4655 3286
4549 3135
" style="stroke:#5e5e5e;stroke-width:16;stroke-miterlimit:8;
"/>
<!-- Line -->
<polyline points="217,1920
277,1848
" style="stroke:#ff0000;stroke-width:8;
stroke-linejoin:miter; stroke-linecap:butt;
"/>
<!-- Line -->
<polyline points="318,1629
426,1693
350,1801
" style="stroke:#ff0000;stroke-width:8;
stroke-linejoin:miter; stroke-linecap:butt;
"/>
<!-- Line -->
<polyline points="102,1870
295,1822
" style="stroke:#ff0000;stroke-width:8;
stroke-linejoin:miter; stroke-linecap:butt;
"/>
<!-- Line -->
<polyline points="1079,2678
1165,2781
" style="stroke:#ff0000;stroke-width:8;
stroke-linejoin:miter; stroke-linecap:butt;
"/>
<!-- Line -->
<polyline points="1354,2755
1247,2796
" style="stroke:#ff0000;stroke-width:8;
stroke-linejoin:miter; stroke-linecap:butt;
"/>
<!-- Line -->
<polyline points="1175,2960
1187,2833
" style="stroke:#ff0000;stroke-width:8;
stroke-linejoin:miter; stroke-linecap:butt;
"/>
<!-- Line -->
<polyline points="250,3531
176,3681
" style="stroke:#ff0000;stroke-width:8;
stroke-linejoin:miter; stroke-linecap:butt;
"/>
<!-- Line -->
<polyline points="277,3460
350,3531
206,3661
" style="stroke:#ff0000;stroke-width:8;
stroke-linejoin:miter; stroke-linecap:butt;
"/>
<!-- Line -->
<polyline points="422,3720
291,3781
213,3688
" style="stroke:#ff0000;stroke-width:8;
stroke-linejoin:miter; stroke-linecap:butt;
"/>
<!-- Line -->
<polyline points="960,1301
1007,1394
1139,1309
" style="stroke:#ff0000;stroke-width:8;
stroke-linejoin:miter; stroke-linecap:butt;
"/>
<!-- Line -->
<polyline points="1268,1398
1180,1316
" style="stroke:#ff0000;stroke-width:8;
stroke-linejoin:miter; stroke-linecap:butt;
"/>
<!-- Line -->
<polyline points="1272,1130
1168,1243
" style="stroke:#ff0000;stroke-width:8;
stroke-linejoin:miter; stroke-linecap:butt;
"/>
<!-- Line -->
<polyline points="2822,1468
3051,1438
" style="stroke:#ff0000;stroke-width:8;
stroke-linejoin:miter; stroke-linecap:butt;
"/>
<!-- Line -->
<polyline points="2818,1404
3051,1404
" style="stroke:#ff0000;stroke-width:8;
stroke-linejoin:miter; stroke-linecap:butt;
"/>
<!-- Line -->
<polyline points="2981,1638
3047,1483
" style="stroke:#ff0000;stroke-width:8;
stroke-linejoin:miter; stroke-linecap:butt;
"/>
<!-- Line -->
<polyline points="3114,1647
3070,1479
" style="stroke:#ff0000;stroke-width:8;
stroke-linejoin:miter; stroke-linecap:butt;
"/>
<!-- Line -->
<polyline points="3427,1542
3371,1438
3108,1435
" style="stroke:#ff0000;stroke-width:8;
stroke-linejoin:miter; stroke-linecap:butt;
"/>
<!-- Line -->
<polyline points="3360,1714
3152,1479
" style="stroke:#ff0000;stroke-width:8;
stroke-linejoin:miter; stroke-linecap:butt;
"/>
<!-- Line -->
<polyline points="2308,2192
2283,2136
2328,2091
" style="stroke:#ff0000;stroke-width:8;
stroke-linejoin:miter; stroke-linecap:butt;
"/>
<!-- Line -->
<polyline points="2011,2358
2358,2274
2388,2129
" style="stroke:#ff0000;stroke-width:8;
stroke-linejoin:miter; stroke-linecap:butt;
"/>
<!-- Line -->
<polyline points="2001,2017
2064,2073
2361,2065
" style="stroke:#ff0000;stroke-width:8;
stroke-linejoin:miter; stroke-linecap:butt;
"/>
<!-- Line -->
<polyline points="2494,2374
2435,2299
2398,2120
" style="stroke:#ff0000;stroke-width:8;
stroke-linejoin:miter; stroke-linecap:butt;
"/>
<!-- Line -->
<polyline points="2781,2139
2603,2069
2427,2065
" style="stroke:#ff0000;stroke-width:8;
stroke-linejoin:miter; stroke-linecap:butt;
"/>
<!-- Line -->
<polyline points="2685,2417
2687,2317
2409,2079
" style="stroke:#ff0000;stroke-width:8;
stroke-linejoin:miter; stroke-linecap:butt;
"/>
<!-- Line -->
<polyline points="2788,2964
2981,3099
" style="stroke:#ff0000;stroke-width:8;
stroke-linejoin:miter; stroke-linecap:butt;
"/>
<!-- Line -->
<polyline points="3078,3002
3000,3103
" style="stroke:#ff0000;stroke-width:8;
stroke-linejoin:miter; stroke-linecap:butt;
"/>
<!-- Line -->
<polyline points="2826,3236
2881,3247
2952,3176
" style="stroke:#ff0000;stroke-width:8;
stroke-linejoin:miter; stroke-linecap:butt;
"/>
<!-- Line -->
<polyline points="2668,3265
2754,3187
2970,3142
" style="stroke:#ff0000;stroke-width:8;
stroke-linejoin:miter; stroke-linecap:butt;
"/>
<!-- Line -->
<polyline points="3306,3213
3237,3258
3056,3140
" style="stroke:#ff0000;stroke-width:8;
stroke-linejoin:miter; stroke-linecap:butt;
"/>
<!-- Line -->
<polyline points="3227,3437
3047,3176
" style="stroke:#ff0000;stroke-width:8;
stroke-linejoin:miter; stroke-linecap:butt;
"/>
<!-- Line -->
<polyline points="2097,4093
2216,4220
" style="stroke:#ff0000;stroke-width:8;
stroke-linejoin:miter; stroke-linecap:butt;
"/>
<!-- Line -->
<polyline points="2197,3960
2179,4074
2238,4185
" style="stroke:#ff0000;stroke-width:8;
stroke-linejoin:miter; stroke-linecap:butt;
"/>
<!-- Line -->
<polyline points="1860,4082
1892,4234
2197,4230
" style="stroke:#ff0000;stroke-width:8;
stroke-linejoin:miter; stroke-linecap:butt;
"/>
<!-- Line -->
<polyline points="2480,4056
2488,4123
2242,4193
" style="stroke:#ff0000;stroke-width:8;
stroke-linejoin:miter; stroke-linecap:butt;
"/>
<!-- Line -->
<polyline points="2548,4152
2306,4223
" style="stroke:#ff0000;stroke-width:8;
stroke-linejoin:miter; stroke-linecap:butt;
"/>
<!-- Line -->
<polyline points="2744,4264
2569,4279
2290,4230
" style="stroke:#ff0000;stroke-width:8;
stroke-linejoin:miter; stroke-linecap:butt;
"/>
<!-- Line -->
<polyline points="4506,2991
4487,3043
4803,3273
" style="stroke:#ff0000;stroke-width:8;
stroke-linejoin:miter; stroke-linecap:butt;
"/>
<!-- Line -->
<polyline points="4646,3103
4734,3118
4794,3228
" style="stroke:#ff0000;stroke-width:8;
stroke-linejoin:miter; stroke-linecap:butt;
"/>
<!-- Line -->
<polyline points="4572,3318
4747,3285
" style="stroke:#ff0000;stroke-width:8;
stroke-linejoin:miter; stroke-linecap:butt;
"/>
<!-- Line -->
<polyline points="4490,3373
4508,3400
4788,3314
" style="stroke:#ff0000;stroke-width:8;
stroke-linejoin:miter; stroke-linecap:butt;
"/>
<!-- Line -->
<polyline points="5320,2062
5260,2033
5215,1896
" style="stroke:#ff0000;stroke-width:8;
stroke-linejoin:miter; stroke-linecap:butt;
"/>
<!-- Line -->
<polyline points="5420,2055
5231,1874
" style="stroke:#ff0000;stroke-width:8;
stroke-linejoin:miter; stroke-linecap:butt;
"/>
<!-- Line -->
<polyline points="5524,1765
5252,1828
" style="stroke:#ff0000;stroke-width:8;
stroke-linejoin:miter; stroke-linecap:butt;
"/>
<!-- Line -->
<polyline points="6475,1260
6346,1176
" style="stroke:#ff0000;stroke-width:8;
stroke-linejoin:miter; stroke-linecap:butt;
"/>
<!-- Line -->
<polyline points="6469,1437
6316,1191
" style="stroke:#ff0000;stroke-width:8;
stroke-linejoin:miter; stroke-linecap:butt;
"/>
<!-- Line -->
<polyline points="6208,1418
6305,1198
" style="stroke:#ff0000;stroke-width:8;
stroke-linejoin:miter; stroke-linecap:butt;
"/>
<!-- Line -->
<polyline points="8039,1603
8330,1551
" style="stroke:#ff0000;stroke-width:8;
stroke-linejoin:miter; stroke-linecap:butt;
"/>
<!-- Line -->
<polyline points="8003,1551
8352,1503
" style="stroke:#ff0000;stroke-width:8;
stroke-linejoin:miter; stroke-linecap:butt;
"/>
<!-- Line -->
<polyline points="8188,1793
8333,1562
" style="stroke:#ff0000;stroke-width:8;
stroke-linejoin:miter; stroke-linecap:butt;
"/>
<!-- Line -->
<polyline points="8330,1778
8355,1577
" style="stroke:#ff0000;stroke-width:8;
stroke-linejoin:miter; stroke-linecap:butt;
"/>
<!-- Line -->
<polyline points="8563,1829
8400,1577
" style="stroke:#ff0000;stroke-width:8;
stroke-linejoin:miter; stroke-linecap:butt;
"/>
<!-- Line -->
<polyline points="8634,1678
8594,1543
8418,1547
" style="stroke:#ff0000;stroke-width:8;
stroke-linejoin:miter; stroke-linecap:butt;
"/>
<!-- Line -->
<polyline points="7906,1970
7874,1910
7951,1828
" style="stroke:#ff0000;stroke-width:8;
stroke-linejoin:miter; stroke-linecap:butt;
"/>
<!-- Line -->
<polyline points="7691,1858
7973,1824
" style="stroke:#ff0000;stroke-width:8;
stroke-linejoin:miter; stroke-linecap:butt;
"/>
<!-- Line -->
<polyline points="8029,2107
8003,1910
" style="stroke:#ff0000;stroke-width:8;
stroke-linejoin:miter; stroke-linecap:butt;
"/>
<!-- Line -->
<polyline points="8300,1947
8020,1869
" style="stroke:#ff0000;stroke-width:8;
stroke-linejoin:miter; stroke-linecap:butt;
"/>
<!-- Line -->
<polyline points="7208,2155
7253,2226
7615,2434
" style="stroke:#ff0000;stroke-width:8;
stroke-linejoin:miter; stroke-linecap:butt;
"/>
<!-- Line -->
<polyline points="7574,2267
7605,2390
" style="stroke:#ff0000;stroke-width:8;
stroke-linejoin:miter; stroke-linecap:butt;
"/>
<!-- Line -->
<polyline points="7966,2278
7764,2240
7605,2374
" style="stroke:#ff0000;stroke-width:8;
stroke-linejoin:miter; stroke-linecap:butt;
"/>
<!-- Line -->
<polyline points="7697,2578
7609,2449
" style="stroke:#ff0000;stroke-width:8;
stroke-linejoin:miter; stroke-linecap:butt;
"/>
<!-- Line -->
<polyline points="7223,2509
7556,2431
" style="stroke:#ff0000;stroke-width:8;
stroke-linejoin:miter; stroke-linecap:butt;
"/>
<!-- Line -->
<polyline points="7943,2572
7874,2474
7634,2441
" style="stroke:#ff0000;stroke-width:8;
stroke-linejoin:miter; stroke-linecap:butt;
"/>
<!-- Line -->
<polyline points="6290,2782
6405,2937
" style="stroke:#ff0000;stroke-width:8;
stroke-linejoin:miter; stroke-linecap:butt;
"/>
<!-- Line -->
<polyline points="6583,2897
6438,2941
" style="stroke:#ff0000;stroke-width:8;
stroke-linejoin:miter; stroke-linecap:butt;
"/>
<!-- Line -->
<polyline points="6349,3126
6374,2978
" style="stroke:#ff0000;stroke-width:8;
stroke-linejoin:miter; stroke-linecap:butt;
"/>
<!-- Line -->
<polyline points="5498,3603
5512,3673
5394,3822
" style="stroke:#ff0000;stroke-width:8;
stroke-linejoin:miter; stroke-linecap:butt;
"/>
<!-- Line -->
<polyline points="5674,3877
5569,3913
5387,3872
" style="stroke:#ff0000;stroke-width:8;
stroke-linejoin:miter; stroke-linecap:butt;
"/>
<!-- Line -->
<polyline points="5469,3653
5361,3791
" style="stroke:#ff0000;stroke-width:8;
stroke-linejoin:miter; stroke-linecap:butt;
"/>
<!-- Line -->
<polyline points="7304,4223
7475,4417
" style="stroke:#ff0000;stroke-width:8;
stroke-linejoin:miter; stroke-linecap:butt;
"/>
<!-- Line -->
<polyline points="7423,4027
7337,4094
7475,4354
" style="stroke:#ff0000;stroke-width:8;
stroke-linejoin:miter; stroke-linecap:butt;
"/>
<!-- Line -->
<polyline points="7103,4223
7126,4372
7445,4436
" style="stroke:#ff0000;stroke-width:8;
stroke-linejoin:miter; stroke-linecap:butt;
"/>
<!-- Line -->
<polyline points="7697,4169
7687,4277
7505,4384
" style="stroke:#ff0000;stroke-width:8;
stroke-linejoin:miter; stroke-linecap:butt;
"/>
<!-- Line -->
<polyline points="7757,4302
7508,4406
" style="stroke:#ff0000;stroke-width:8;
stroke-linejoin:miter; stroke-linecap:butt;
"/>
<!-- Line -->
<polyline points="7939,4410
7876,4502
7471,4443
" style="stroke:#ff0000;stroke-width:8;
stroke-linejoin:miter; stroke-linecap:butt;
"/>
<!-- Line -->
<polyline points="8051,3366
8229,3310
" style="stroke:#ff0000;stroke-width:8;
stroke-linejoin:miter; stroke-linecap:butt;
"/>
<!-- Line -->
<polyline points="7857,3390
7966,3321
8214,3267
" style="stroke:#ff0000;stroke-width:8;
stroke-linejoin:miter; stroke-linecap:butt;
"/>
<!-- Line -->
<polyline points="8003,3131
8214,3222
" style="stroke:#ff0000;stroke-width:8;
stroke-linejoin:miter; stroke-linecap:butt;
"/>
<!-- Line -->
<polyline points="8292,3084
8234,3109
8222,3185
" style="stroke:#ff0000;stroke-width:8;
stroke-linejoin:miter; stroke-linecap:butt;
"/>
<!-- Line -->
<polyline points="8385,3637
8270,3248
" style="stroke:#ff0000;stroke-width:8;
stroke-linejoin:miter; stroke-linecap:butt;
"/>
<!-- Line -->
<polyline points="8545,3349
8437,3396
8281,3254
" style="stroke:#ff0000;stroke-width:8;
stroke-linejoin:miter; stroke-linecap:butt;
"/>
<!-- Line -->
<polyline points="9741,3144
9760,3213
9993,3381
" style="stroke:#ff0000;stroke-width:8;
stroke-linejoin:miter; stroke-linecap:butt;
"/>
<!-- Line -->
<polyline points="9823,3213
9972,3254
10009,3344
" style="stroke:#ff0000;stroke-width:8;
stroke-linejoin:miter; stroke-linecap:butt;
"/>
<!-- Line -->
<polyline points="9763,3455
9972,3444
" style="stroke:#ff0000;stroke-width:8;
stroke-linejoin:miter; stroke-linecap:butt;
"/>
<!-- Line -->
<polyline points="9745,3496
10005,3459
" style="stroke:#ff0000;stroke-width:8;
stroke-linejoin:miter; stroke-linecap:butt;
"/>
<!-- Circle -->
<circle cx="318" cy="1838" r="78"
 style="fill:#787878;stroke:#787878;stroke-width:8;"/>
<!-- Circle -->
<circle cx="1161" cy="1283" r="78"
 style="fill:#787878;stroke:#787878;stroke-width:8;"/>
<!-- Circle -->
<circle cx="1198" cy="2818" r="78"
 style="fill:#787878;stroke:#787878;stroke-width:8;"/>
<!-- Circle -->
<circle cx="161" cy="3677" r="78"
 style="fill:#787878;stroke:#787878;stroke-width:8;"/>
<!-- Circle -->
<circle cx="3012" cy="3149" r="78"
 style="fill:#787878;stroke:#787878;stroke-width:8;"/>
<!-- Circle -->
<circle cx="3097" cy="1447" r="78"
 style="fill:#787878;stroke:#787878;stroke-width:8;"/>
<!-- Circle -->
<circle cx="2395" cy="2082" r="78"
 style="fill:#787878;stroke:#787878;stroke-width:8;"/>
<!-- Circle -->
<circle cx="4795" cy="3264" r="78"
 style="fill:#787878;stroke:#787878;stroke-width:8;"/>
<!-- Circle -->
<circle cx="2242" cy="4226" r="78"
 style="fill:#787878;stroke:#787878;stroke-width:8;"/>
<!-- Arc -->
<path style="stroke:#000000;stroke-width:16;stroke-linecap:butt;"
d="M 5993,4061 A 2412 2412  0  0  1  3488  4072 " />
<!-- Arrowhead on XXXpoint 3637 4155 - 3488 4072-->
<polygon points="3722 4094
3505 4081
3631 4259
3643 4157
3722 4094

" style="stroke:#000000;stroke-width:16;stroke-miterlimit:8;
fill:white;"/>
<!-- Arc -->
<path style="stroke:#000000;stroke-width:16;stroke-linecap:butt;"
d="M 3496,1469 A 2091 2091  0  0  1  5790  1497 " />
<!-- Arrowhead on XXXpoint 5645 1407 - 5790 1497-->
<polygon points="5556 1464
5774 1487
5655 1303
5639 1404
5556 1464

" style="stroke:#000000;stroke-width:16;stroke-miterlimit:8;
fill:white;"/>
<!-- Circle -->
<circle cx="10010" cy="3398" r="78"
 style="fill:#787878;stroke:#787878;stroke-width:8;"/>
<!-- Circle -->
<circle cx="8374" cy="1532" r="78"
 style="fill:#787878;stroke:#787878;stroke-width:8;"/>
<!-- Circle -->
<circle cx="8008" cy="1863" r="78"
 style="fill:#787878;stroke:#787878;stroke-width:8;"/>
<!-- Circle -->
<circle cx="7594" cy="2432" r="78"
 style="fill:#787878;stroke:#787878;stroke-width:8;"/>
<!-- Circle -->
<circle cx="6310" cy="1166" r="78"
 style="fill:#787878;stroke:#787878;stroke-width:8;"/>
<!-- Circle -->
<circle cx="6403" cy="2961" r="78"
 style="fill:#787878;stroke:#787878;stroke-width:8;"/>
<!-- Circle -->
<circle cx="8238" cy="3246" r="78"
 style="fill:#787878;stroke:#787878;stroke-width:8;"/>
<!-- Circle -->
<circle cx="7476" cy="4417" r="78"
 style="fill:#787878;stroke:#787878;stroke-width:8;"/>
<!-- Circle -->
<circle cx="5373" cy="3846" r="78"
 style="fill:#787878;stroke:#787878;stroke-width:8;"/>
<!-- Circle -->
<circle cx="5213" cy="1851" r="78"
 style="fill:#787878;stroke:#787878;stroke-width:8;"/>
<!-- Text -->
<text xml:space="preserve" x="1959" y="1744" fill="#000000"  font-family="Times" font-style="normal" font-weight="normal" font-size="202" text-anchor="start">dh1</text>
<!-- Text -->
<text xml:space="preserve" x="7053" y="1955" fill="#000000"  font-family="Times" font-style="normal" font-weight="normal" font-size="202" text-anchor="start">dh2</text>
<!-- Text -->
<text xml:space="preserve" x="2881" y="992" fill="#000000"  font-family="Times" font-style="normal" font-weight="normal" font-size="202" text-anchor="start">dh2=lcc.insert_barycenter_in_cell&#60;1&#62;(dh1)</text>
<!-- Text -->
<text xml:space="preserve" x="3401" y="4724" fill="#000000"  font-family="Times" font-style="normal" font-weight="normal" font-size="202" text-anchor="start">lcc.remove_cell&#60;0&#62;(dh2)</text>
<!-- Line -->
<polyline points="8224,3815
" style="stroke:#9f9f9f;stroke-width:16;
stroke-linejoin:miter; stroke-linecap:butt;
"/>
<!-- Line -->
<polyline points="9111,3282
9118,3545
" style="stroke:#9f9f9f;stroke-width:16;
stroke-linejoin:miter; stroke-linecap:butt;
"/>
<!-- Line -->
<polyline points="8748,3878
8848,4041
" style="stroke:#9f9f9f;stroke-width:16;
stroke-linejoin:miter; stroke-linecap:butt;
"/>
<!-- Line -->
<polyline points="7654,3249
7809,3302
" style="stroke:#9f9f9f;stroke-width:16;
stroke-linejoin:miter; stroke-linecap:butt;
"/>
<!-- Line -->
<polyline points="8792,2698
8669,2941
" style="stroke:#9f9f9f;stroke-width:16;
stroke-linejoin:miter; stroke-linecap:butt;
"/>
<!-- Line -->
<polyline points="9133,2444
9249,2370
" style="stroke:#9f9f9f;stroke-width:16;
stroke-linejoin:miter; stroke-linecap:butt;
"/>
<!-- Line -->
<polyline points="8291,2601
8535,2649
" style="stroke:#9f9f9f;stroke-width:16;
stroke-linejoin:miter; stroke-linecap:butt;
"/>
<!-- Line -->
<polyline points="7912,3800
8245,3913
" style="stroke:#9f9f9f;stroke-width:16;
stroke-linejoin:miter; stroke-linecap:butt;
"/>
<!-- Line -->
<polyline points="8050,2058
8197,2050
" style="stroke:#9f9f9f;stroke-width:16;
stroke-linejoin:miter; stroke-linecap:butt;
"/>
<!-- Line -->
<polyline points="3016,3677
" style="stroke:#9f9f9f;stroke-width:16;
stroke-linejoin:miter; stroke-linecap:butt;
"/>
<!-- Line -->
<polyline points="3903,3145
3909,3407
" style="stroke:#9f9f9f;stroke-width:16;
stroke-linejoin:miter; stroke-linecap:butt;
"/>
<!-- Line -->
<polyline points="3540,3740
3639,3904
" style="stroke:#9f9f9f;stroke-width:16;
stroke-linejoin:miter; stroke-linecap:butt;
"/>
<!-- Line -->
<polyline points="2446,3111
2601,3165
" style="stroke:#9f9f9f;stroke-width:16;
stroke-linejoin:miter; stroke-linecap:butt;
"/>
<!-- Line -->
<polyline points="3584,2560
3461,2804
" style="stroke:#9f9f9f;stroke-width:16;
stroke-linejoin:miter; stroke-linecap:butt;
"/>
<!-- Line -->
<polyline points="3926,2306
4040,2233
" style="stroke:#9f9f9f;stroke-width:16;
stroke-linejoin:miter; stroke-linecap:butt;
"/>
<!-- Line -->
<polyline points="3083,2464
3327,2513
" style="stroke:#9f9f9f;stroke-width:16;
stroke-linejoin:miter; stroke-linecap:butt;
"/>
<!-- Line -->
<polyline points="2704,3662
3037,3776
" style="stroke:#9f9f9f;stroke-width:16;
stroke-linejoin:miter; stroke-linecap:butt;
"/>
<!-- Line -->
<polyline points="2841,1921
2988,1913
" style="stroke:#9f9f9f;stroke-width:16;
stroke-linejoin:miter; stroke-linecap:butt;
"/>
<!-- Line -->
<polyline points="1385,1886
1241,2176
" style="stroke:#9f9f9f;stroke-width:8;
stroke-linejoin:miter; stroke-linecap:butt;
"/>
<!-- Line -->
<polyline points="620,3121
872,3286
" style="stroke:#9f9f9f;stroke-width:8;
stroke-linejoin:miter; stroke-linecap:butt;
"/>
<!-- Line -->
<polyline points="1934,2847
1877,3121
" style="stroke:#9f9f9f;stroke-width:8;
stroke-linejoin:miter; stroke-linecap:butt;
"/>
<!-- Line -->
<polyline points="2347,3713
2483,3713
" style="stroke:#9f9f9f;stroke-width:8;
stroke-linejoin:miter; stroke-linecap:butt;
"/>
<!-- Line -->
<polyline points="1248,3879
1082,3923
" style="stroke:#9f9f9f;stroke-width:8;
stroke-linejoin:miter; stroke-linecap:butt;
"/>
<!-- Line -->
<polyline points="1906,1206
1985,1372
" style="stroke:#9f9f9f;stroke-width:8;
stroke-linejoin:miter; stroke-linecap:butt;
"/>
<!-- Line -->
<polyline points="2491,1647
2693,1899
" style="stroke:#9f9f9f;stroke-width:8;
stroke-linejoin:miter; stroke-linecap:butt;
"/>
<!-- Line -->
<polyline points="800,1335
800,1372
800,1407
" style="stroke:#9f9f9f;stroke-width:8;
stroke-linejoin:miter; stroke-linecap:butt;
"/>
<!-- Line -->
<polyline points="120,2643
156,2658
179,2695
215,2709
" style="stroke:#9f9f9f;stroke-width:8;
stroke-linejoin:miter; stroke-linecap:butt;
"/>
<!-- Line -->
<polyline points="1045,1966
1261,1906
" style="stroke:#9f9f9f;stroke-width:8;
stroke-linejoin:miter; stroke-linecap:butt;
"/>
<!-- Line -->
<polyline points="1969,3054
2288,3063
" style="stroke:#9f9f9f;stroke-width:8;
stroke-linejoin:miter; stroke-linecap:butt;
"/>
<!-- Line -->
<polyline points="2780,2362
2960,2383
" style="stroke:#9f9f9f;stroke-width:8;
stroke-linejoin:miter; stroke-linecap:butt;
"/>
<!-- Line -->
<polyline points="6594,2024
6450,2313
" style="stroke:#9f9f9f;stroke-width:8;
stroke-linejoin:miter; stroke-linecap:butt;
"/>
<!-- Line -->
<polyline points="5828,3258
6080,3423
" style="stroke:#9f9f9f;stroke-width:8;
stroke-linejoin:miter; stroke-linecap:butt;
"/>
<!-- Line -->
<polyline points="7143,2984
7085,3258
" style="stroke:#9f9f9f;stroke-width:8;
stroke-linejoin:miter; stroke-linecap:butt;
"/>
<!-- Line -->
<polyline points="7554,3849
7692,3849
" style="stroke:#9f9f9f;stroke-width:8;
stroke-linejoin:miter; stroke-linecap:butt;
"/>
<!-- Line -->
<polyline points="6456,4016
6290,4059
" style="stroke:#9f9f9f;stroke-width:8;
stroke-linejoin:miter; stroke-linecap:butt;
"/>
<!-- Line -->
<polyline points="7113,1342
7193,1509
" style="stroke:#9f9f9f;stroke-width:8;
stroke-linejoin:miter; stroke-linecap:butt;
"/>
<!-- Line -->
<polyline points="6008,1472
6008,1509
6008,1545
" style="stroke:#9f9f9f;stroke-width:8;
stroke-linejoin:miter; stroke-linecap:butt;
"/>
<!-- Line -->
<polyline points="5329,2781
5364,2795
5387,2832
5423,2847
" style="stroke:#9f9f9f;stroke-width:8;
stroke-linejoin:miter; stroke-linecap:butt;
"/>
<!-- Line -->
<polyline points="6254,2103
6470,2044
" style="stroke:#9f9f9f;stroke-width:8;
stroke-linejoin:miter; stroke-linecap:butt;
"/>
<!-- Line -->
<polyline points="7177,3191
7497,3201
" style="stroke:#9f9f9f;stroke-width:8;
stroke-linejoin:miter; stroke-linecap:butt;
"/>
<!-- Line -->
<polyline points="7988,2499
8169,2520
" style="stroke:#9f9f9f;stroke-width:8;
stroke-linejoin:miter; stroke-linecap:butt;
"/>
<!-- Line -->
<polyline points="7856,1627
8059,1879
" style="stroke:#9f9f9f;stroke-width:8;
stroke-linejoin:miter; stroke-linecap:butt;
"/>
</g>
</svg>
