<?xml version="1.0" standalone="no"?>
<!DOCTYPE svg PUBLIC "-//W3C//DTD SVG 1.1//EN"
"http://www.w3.org/Graphics/SVG/1.1/DTD/svg11.dtd">
<!-- Creator: fig2dev Version 3.2.6 -->
<!-- CreationDate: Mon Nov 21 08:46:35 2016 -->
<!-- Magnification: 1.050 -->
<svg	xmlns="http://www.w3.org/2000/svg"
	xmlns:xlink="http://www.w3.org/1999/xlink"
	width="13.7in" height="4.2in"
	viewBox="-11581 -19 16456 5082">
<g style="stroke-width:.025in; fill:none">
<!-- Line -->
<polyline points="-9508,1449
-10548,1381
" style="stroke:#000000;stroke-width:16;
stroke-linejoin:round; stroke-linecap:butt;
"/>
<!-- Arrowhead on XXXpoint -10548 1381 - -9443 1451-->
<polyline points="-9612 1513
-9462 1450
-9604 1367
" style="stroke:#000000;stroke-width:16;stroke-miterlimit:8;
"/>
<!-- Line -->
<polyline points="-10172,2938
-9144,3020
" style="stroke:#000000;stroke-width:16;
stroke-linejoin:round; stroke-linecap:butt;
"/>
<!-- Arrowhead on XXXpoint -9144 3020 - -10237 2932-->
<polyline points="-10066 2871
-10218 2933
-10077 3017
" style="stroke:#000000;stroke-width:16;stroke-miterlimit:8;
"/>
<!-- Line -->
<polyline points="-9966,1419
-10172,1650
" style="stroke:#a0a0a0;stroke-width:16;
stroke-linejoin:round; stroke-linecap:butt;
"/>
<!-- Line -->
<polyline points="-9679,2967
-10065,2819
" style="stroke:#a0a0a0;stroke-width:16;
stroke-linejoin:round; stroke-linecap:butt;
"/>
<!-- Line -->
<polyline points="-10523,1357
-9517,280
" style="stroke:#000000;stroke-width:16;
stroke-linejoin:round; stroke-linecap:butt;
"/>
<!-- Arrowhead on XXXpoint -9517 280 - -10569 1403-->
<polyline points="-10509 1232
-10556 1390
-10402 1332
" style="stroke:#000000;stroke-width:16;stroke-miterlimit:8;
"/>
<!-- Line -->
<polyline points="-8303,3836
-10186,2941
" style="stroke:#000000;stroke-width:16;
stroke-linejoin:round; stroke-linecap:butt;
"/>
<!-- Arrowhead on XXXpoint -10186 2941 - -8243 3862-->
<polyline points="-8424 3857
-8260 3854
-8361 3724
" style="stroke:#000000;stroke-width:16;stroke-miterlimit:8;
"/>
<!-- Line -->
<polyline points="-10724,1611
-9568,1694
" style="stroke:#000000;stroke-width:16;
stroke-linejoin:round; stroke-linecap:butt;
"/>
<!-- Arrowhead on XXXpoint -9568 1694 - -10789 1606-->
<polyline points="-10618 1544
-10770 1607
-10628 1690
" style="stroke:#000000;stroke-width:16;stroke-miterlimit:8;
"/>
<!-- Line -->
<polyline points="-10157,1655
-10065,2819
" style="stroke:#0000ff;stroke-width:16;
stroke-linejoin:round; stroke-linecap:butt;
"/>
<!-- Line -->
<polyline points="-9491,2883
-10663,2771
" style="stroke:#000000;stroke-width:16;
stroke-linejoin:round; stroke-linecap:butt;
"/>
<!-- Arrowhead on XXXpoint -10663 2771 - -9426 2888-->
<polyline points="-9597 2944
-9445 2886
-9584 2798
" style="stroke:#000000;stroke-width:16;stroke-miterlimit:8;
"/>
<!-- Line -->
<polyline points="-10202,713
-9986,774
" style="stroke:#a0a0a0;stroke-width:16;
stroke-linejoin:round; stroke-linecap:butt;
"/>
<!-- Line -->
<polyline points="-9252,3374
-9360,3468
" style="stroke:#a0a0a0;stroke-width:16;
stroke-linejoin:round; stroke-linecap:butt;
"/>
<!-- Line -->
<polyline points="-9508,322
-9475,1463
" style="stroke:#000000;stroke-width:16;
stroke-linejoin:round; stroke-linecap:butt;
"/>
<!-- Arrowhead on XXXpoint -9475 1463 - -9509 256-->
<polyline points="-9430 418
-9508 275
-9576 423
" style="stroke:#000000;stroke-width:16;stroke-miterlimit:8;
"/>
<!-- Line -->
<polyline points="-9196,2973
-8254,3845
" style="stroke:#000000;stroke-width:16;
stroke-linejoin:round; stroke-linecap:butt;
"/>
<!-- Arrowhead on XXXpoint -8254 3845 - -9245 2928-->
<polyline points="-9072 2985
-9231 2940
-9172 3093
" style="stroke:#000000;stroke-width:16;stroke-miterlimit:8;
"/>
<!-- Line -->
<polyline points="-9628,86
-10770,1335
" style="stroke:#000000;stroke-width:16;
stroke-linejoin:round; stroke-linecap:butt;
"/>
<!-- Arrowhead on XXXpoint -10770 1335 - -9584 36-->
<polyline points="-9640 207
-9596 50
-9749 109
" style="stroke:#000000;stroke-width:16;stroke-miterlimit:8;
"/>
<!-- Line -->
<polyline points="-10423,2967
-8202,4014
" style="stroke:#000000;stroke-width:16;
stroke-linejoin:round; stroke-linecap:butt;
"/>
<!-- Arrowhead on XXXpoint -8202 4014 - -10482 2939-->
<polyline points="-10301 2943
-10466 2948
-10364 3076
" style="stroke:#000000;stroke-width:16;stroke-miterlimit:8;
"/>
<!-- Line -->
<polyline points="-9481,848
-9320,755
" style="stroke:#a0a0a0;stroke-width:16;
stroke-linejoin:round; stroke-linecap:butt;
"/>
<!-- Line -->
<polyline points="-1760,4353
-1836,3805
-1402,3713
-1471,3135
-908,3076
-1120,2665
-781,2648
-1940,1586
-2953,3345
-1772,4386
" style="stroke:#b1b1b1;stroke-width:16;
stroke-linejoin:round; stroke-linecap:butt;
"/>
<!-- Line -->
<polyline points="-2006,5007
-1981,4603
-1517,4588
-1639,4056
-1160,3965
-1302,3325
-1006,3323
-2451,1976
-3530,3669
-1975,5039
" style="stroke:#b1b1b1;stroke-width:16;
stroke-linejoin:round; stroke-linecap:butt;
"/>
<!-- Line -->
<polyline points="4002,4941
4174,3403
2197,1586
1475,2721
4002,4941
" style="stroke:#b1b1b1;stroke-width:16;
stroke-linejoin:round; stroke-linecap:butt;
"/>
<!-- Line -->
<polyline points="4680,4733
4852,3195
2875,1378
2153,2513
4680,4733
" style="stroke:#b1b1b1;stroke-width:16;
stroke-linejoin:round; stroke-linecap:butt;
"/>
<!-- Line -->
<polyline points="-8685,3446
-8448,3567
" style="stroke:#a0a0a0;stroke-width:16;
stroke-linejoin:round; stroke-linecap:butt;
"/>
<!-- Line -->
<polyline points="-2451,1976
-4124,2284
-4353,2504
-4116,2764
-4719,3084
-4596,3563
-5150,3973
-3530,3669
-2451,1976
" style="stroke:#b1b1b1;stroke-width:16;
stroke-linejoin:round; stroke-linecap:butt;
"/>
<!-- Line -->
<polyline points="-2645,1640
-4079,1875
-4056,2133
-4474,2391
-4391,2734
-4862,2909
-4771,3267
-5228,3533
-3787,3266
-2654,1636
" style="stroke:#b1b1b1;stroke-width:16;
stroke-linejoin:round; stroke-linecap:butt;
"/>
<!-- Line -->
<polyline points="2200,1575
1079,1782
925,1930
1084,2103
681,2318
763,2639
391,2914
1478,2710
2200,1575
" style="stroke:#b1b1b1;stroke-width:16;
stroke-linejoin:round; stroke-linecap:butt;
"/>
<!-- Line -->
<polyline points="-11089,1744
-10979,2939
" style="stroke:#0000ff;stroke-width:16;
stroke-linejoin:round; stroke-linecap:butt;
"/>
<!-- Line -->
<polyline points="-11113,1454
-11100,1740
" style="stroke:#a0a0a0;stroke-width:16;
stroke-linejoin:round; stroke-linecap:butt;
"/>
<!-- Line -->
<polyline points="-11443,1875
-10759,1609
" style="stroke:#000000;stroke-width:16;
stroke-linejoin:round; stroke-linecap:butt;
"/>
<!-- Arrowhead on XXXpoint -10759 1609 - -11504 1897-->
<polyline points="-11375 1769
-11486 1890
-11322 1905
" style="stroke:#000000;stroke-width:16;stroke-miterlimit:8;
"/>
<!-- Line -->
<polyline points="-2653,1640
-2684,166
-2811,656
-3091,555
-3117,1100
-3508,980
-3598,1439
-3961,1313
-3799,3264
-2653,1640
" style="stroke:#b1b1b1;stroke-width:16;
stroke-linejoin:round; stroke-linecap:butt;
"/>
<!-- Line -->
<polyline points="-2377,1828
-2406,779
-2515,1119
-2729,1103
-2726,1394
-2931,1372
-2979,1595
-3132,1617
-3068,3004
-2385,1827
" style="stroke:#b1b1b1;stroke-width:16;
stroke-linejoin:round; stroke-linecap:butt;
"/>
<!-- Line -->
<polyline points="2876,1388
2814,275
2705,615
2491,599
2494,890
2289,868
2241,1091
2088,1113
2152,2500
2873,1377
" style="stroke:#b1b1b1;stroke-width:16;
stroke-linejoin:round; stroke-linecap:butt;
"/>
<!-- Line -->
<polyline points="-10686,2780
-11334,3133
" style="stroke:#000000;stroke-width:16;
stroke-linejoin:round; stroke-linecap:butt;
"/>
<!-- Arrowhead on XXXpoint -11334 3133 - -10628 2747-->
<polyline points="-10739 2891
-10645 2756
-10809 2762
" style="stroke:#000000;stroke-width:16;stroke-miterlimit:8;
"/>
<!-- Line -->
<polyline points="-10767,3139
-10979,2939
" style="stroke:#a0a0a0;stroke-width:16;
stroke-linejoin:round; stroke-linecap:butt;
"/>
<!-- Line -->
<polyline points="-9308,1395
-9334,135
" style="stroke:#000000;stroke-width:16;
stroke-linejoin:round; stroke-linecap:butt;
"/>
<!-- Arrowhead on XXXpoint -9334 135 - -9307 1459-->
<polyline points="-9382 1294
-9307 1440
-9236 1291
" style="stroke:#000000;stroke-width:16;stroke-miterlimit:8;
"/>
<!-- Line -->
<polyline points="-10802,1346
-11491,1586
" style="stroke:#000000;stroke-width:16;
stroke-linejoin:round; stroke-linecap:butt;
"/>
<!-- Arrowhead on XXXpoint -11491 1586 - -10740 1324-->
<polyline points="-10872 1447
-10758 1331
-10919 1309
" style="stroke:#000000;stroke-width:16;stroke-miterlimit:8;
"/>
<!-- Line -->
<polyline points="-11084,3327
-10454,2953
" style="stroke:#000000;stroke-width:16;
stroke-linejoin:round; stroke-linecap:butt;
"/>
<!-- Arrowhead on XXXpoint -10454 2953 - -11140 3359-->
<polyline points="-11035 3211
-11124 3350
-10960 3337
" style="stroke:#000000;stroke-width:16;stroke-miterlimit:8;
"/>
<!-- Line -->
<polyline points="-7941,4025
-8966,3099
" style="stroke:#000000;stroke-width:16;
stroke-linejoin:round; stroke-linecap:butt;
"/>
<!-- Arrowhead on XXXpoint -8966 3099 - -7892 4068-->
<polyline points="-8064 4011
-7906 4055
-7965 3902
" style="stroke:#000000;stroke-width:16;stroke-miterlimit:8;
"/>
<!-- Line -->
<polyline points="-8088,1977
-8090,801
" style="stroke:#000000;stroke-width:16;
stroke-linejoin:round; stroke-linecap:butt;
"/>
<!-- Arrowhead on XXXpoint -8090 801 - -8087 2041-->
<polyline points="-8160 1876
-8087 2023
-8013 1876
" style="stroke:#000000;stroke-width:16;stroke-miterlimit:8;
"/>
<!-- Line -->
<polyline points="-7048,2919
-8088,2011
" style="stroke:#000000;stroke-width:16;
stroke-linejoin:round; stroke-linecap:butt;
"/>
<!-- Arrowhead on XXXpoint -8088 2011 - -6999 2961-->
<polyline points="-7171 2907
-7013 2949
-7075 2796
" style="stroke:#000000;stroke-width:16;stroke-miterlimit:8;
"/>
<!-- Line -->
<polyline points="-8334,1164
-9320,755
" style="stroke:#0000ff;stroke-width:16;
stroke-linejoin:round; stroke-linecap:butt;
"/>
<!-- Line -->
<polyline points="-8088,1341
-8334,1164
" style="stroke:#a0a0a0;stroke-width:16;
stroke-linejoin:round; stroke-linecap:butt;
"/>
<!-- Line -->
<polyline points="-7575,2807
-8448,3567
" style="stroke:#0000ff;stroke-width:16;
stroke-linejoin:round; stroke-linecap:butt;
"/>
<!-- Line -->
<polyline points="-7563,2471
-7568,2809
" style="stroke:#a0a0a0;stroke-width:16;
stroke-linejoin:round; stroke-linecap:butt;
"/>
<!-- Line -->
<polyline points="-8061,828
-7023,2941
" style="stroke:#000000;stroke-width:16;
stroke-linejoin:round; stroke-linecap:butt;
"/>
<!-- Arrowhead on XXXpoint -7023 2941 - -8091 768-->
<polyline points="-7951 883
-8082 785
-8083 949
" style="stroke:#000000;stroke-width:16;stroke-miterlimit:8;
"/>
<!-- Line -->
<polyline points="-8337,499
-8331,1848
" style="stroke:#000000;stroke-width:16;
stroke-linejoin:round; stroke-linecap:butt;
"/>
<!-- Arrowhead on XXXpoint -8331 1848 - -8337 433-->
<polyline points="-8262 598
-8337 452
-8409 599
" style="stroke:#000000;stroke-width:16;stroke-miterlimit:8;
"/>
<!-- Line -->
<polyline points="-8079,2360
-7018,3294
" style="stroke:#000000;stroke-width:16;
stroke-linejoin:round; stroke-linecap:butt;
"/>
<!-- Arrowhead on XXXpoint -7018 3294 - -8129 2316-->
<polyline points="-7955 2369
-8115 2328
-8053 2479
" style="stroke:#000000;stroke-width:16;stroke-miterlimit:8;
"/>
<!-- Line -->
<polyline points="-9887,1840
-9723,3065
" style="stroke:#0000ff;stroke-width:16;
stroke-linejoin:round; stroke-linecap:butt;
"/>
<!-- Line -->
<polyline points="-9598,1709
-10184,1990
" style="stroke:#000000;stroke-width:16;
stroke-linejoin:round; stroke-linecap:butt;
"/>
<!-- Arrowhead on XXXpoint -10184 1990 - -9539 1680-->
<polyline points="-9655 1818
-9555 1689
-9719 1686
" style="stroke:#000000;stroke-width:16;stroke-miterlimit:8;
"/>
<!-- Line -->
<polyline points="-7485,1717
-7560,1828
" style="stroke:#a0a0a0;stroke-width:16;
stroke-linejoin:round; stroke-linecap:butt;
"/>
<!-- Line -->
<polyline points="-9995,3253
-9451,2876
" style="stroke:#000000;stroke-width:16;
stroke-linejoin:round; stroke-linecap:butt;
"/>
<!-- Arrowhead on XXXpoint -9451 2876 - -10049 3290-->
<polyline points="-9953 3134
-10033 3279
-9870 3255
" style="stroke:#000000;stroke-width:16;stroke-miterlimit:8;
"/>
<!-- Line -->
<polyline points="-9591,1558
-9860,1835
" style="stroke:#a0a0a0;stroke-width:16;
stroke-linejoin:round; stroke-linecap:butt;
"/>
<!-- Line -->
<polyline points="-9215,3301
-9723,3065
" style="stroke:#a0a0a0;stroke-width:16;
stroke-linejoin:round; stroke-linecap:butt;
"/>
<!-- Line -->
<polyline points="-9872,1687
-9308,1428
" style="stroke:#000000;stroke-width:16;
stroke-linejoin:round; stroke-linecap:butt;
"/>
<!-- Arrowhead on XXXpoint -9308 1428 - -9932 1713-->
<polyline points="-9812 1577
-9916 1706
-9751 1711
" style="stroke:#000000;stroke-width:16;stroke-miterlimit:8;
"/>
<!-- Line -->
<polyline points="-6941,2868
-8019,616
" style="stroke:#000000;stroke-width:16;
stroke-linejoin:round; stroke-linecap:butt;
"/>
<!-- Arrowhead on XXXpoint -8019 616 - -6914 2927-->
<polyline points="-7051 2809
-6922 2910
-6919 2745
" style="stroke:#000000;stroke-width:16;stroke-miterlimit:8;
"/>
<!-- Line -->
<polyline points="-8993,3121
-9493,3524
" style="stroke:#000000;stroke-width:16;
stroke-linejoin:round; stroke-linecap:butt;
"/>
<!-- Arrowhead on XXXpoint -9493 3524 - -8941 3079-->
<polyline points="-9023 3239
-8956 3090
-9116 3125
" style="stroke:#000000;stroke-width:16;stroke-miterlimit:8;
"/>
<!-- Line -->
<polyline points="-8571,2003
-9591,1558
" style="stroke:#0000ff;stroke-width:16;
stroke-linejoin:round; stroke-linecap:butt;
"/>
<!-- Line -->
<polyline points="-8338,2527
-9215,3301
" style="stroke:#0000ff;stroke-width:16;
stroke-linejoin:round; stroke-linecap:butt;
"/>
<!-- Line -->
<polyline points="-4016,3300
-4441,3379
" style="stroke:#2a2a2a;stroke-width:16;
stroke-linejoin:miter; stroke-linecap:butt;
"/>
<!-- Arrowhead on XXXpoint -4441 3379 - -3952 3288-->
<polyline points="-4137 3417
-3970 3291
-4172 3232
" style="stroke:#2a2a2a;stroke-width:16;stroke-miterlimit:8;
"/>
<!-- Line -->
<polyline points="-4437,3379
-4901,3463
" style="stroke:#2a2a2a;stroke-width:16;
stroke-linejoin:miter; stroke-linecap:butt;
stroke-dasharray:31 31;"/>
<!-- Line -->
<polyline points="-4310,3817
-4708,3879
" style="stroke:#2a2a2a;stroke-width:16;
stroke-linejoin:miter; stroke-linecap:butt;
stroke-dasharray:31 31;"/>
<!-- Line -->
<polyline points="-3928,3759
-4318,3821
" style="stroke:#2a2a2a;stroke-width:16;
stroke-linejoin:miter; stroke-linecap:butt;
"/>
<!-- Line -->
<polyline points="-3172,3982
-2781,4314
" style="stroke:#2a2a2a;stroke-width:16;
stroke-linejoin:miter; stroke-linecap:butt;
"/>
<!-- Arrowhead on XXXpoint -2781 4314 - -3222 3939-->
<polyline points="-3002 4002
-3207 3951
-3124 4144
" style="stroke:#2a2a2a;stroke-width:16;stroke-miterlimit:8;
"/>
<!-- Line -->
<polyline points="-2786,4312
-2497,4571
" style="stroke:#2a2a2a;stroke-width:16;
stroke-linejoin:miter; stroke-linecap:butt;
stroke-dasharray:31 31;"/>
<!-- Line -->
<polyline points="-2321,3912
-2032,4172
" style="stroke:#2a2a2a;stroke-width:16;
stroke-linejoin:miter; stroke-linecap:butt;
stroke-dasharray:31 31;"/>
<!-- Line -->
<polyline points="-2728,3535
-2316,3910
" style="stroke:#2a2a2a;stroke-width:16;
stroke-linejoin:miter; stroke-linecap:butt;
"/>
<!-- Line -->
<polyline points="-1738,2646
-2184,2218
" style="stroke:#2a2a2a;stroke-width:16;
stroke-linejoin:miter; stroke-linecap:butt;
"/>
<!-- Line -->
<polyline points="-1744,2640
-1455,2900
" style="stroke:#2a2a2a;stroke-width:16;
stroke-linejoin:miter; stroke-linecap:butt;
stroke-dasharray:31 31;"/>
<!-- Line -->
<polyline points="-1355,2111
-1065,2371
" style="stroke:#2a2a2a;stroke-width:16;
stroke-linejoin:miter; stroke-linecap:butt;
stroke-dasharray:31 31;"/>
<!-- Line -->
<polyline points="-1701,1812
-1349,2118
" style="stroke:#2a2a2a;stroke-width:16;
stroke-linejoin:miter; stroke-linecap:butt;
"/>
<!-- Arrowhead on XXXpoint -1349 2118 - -1751 1767-->
<polyline points="-1533 1833
-1737 1780
-1656 1974
" style="stroke:#2a2a2a;stroke-width:16;stroke-miterlimit:8;
"/>
<!-- Line -->
<polyline points="-1926,930
-1924,1331
" style="stroke:#2a2a2a;stroke-width:16;
stroke-linejoin:miter; stroke-linecap:butt;
"/>
<!-- Line -->
<polyline points="-1948,614
-1925,953
" style="stroke:#2a2a2a;stroke-width:16;
stroke-linejoin:miter; stroke-linecap:butt;
stroke-dasharray:31 31;"/>
<!-- Line -->
<polyline points="-2683,393
-2669,763
" style="stroke:#2a2a2a;stroke-width:16;
stroke-linejoin:miter; stroke-linecap:butt;
stroke-dasharray:31 31;"/>
<!-- Line -->
<polyline points="-2648,1104
-2662,707
" style="stroke:#2a2a2a;stroke-width:16;
stroke-linejoin:miter; stroke-linecap:butt;
"/>
<!-- Arrowhead on XXXpoint -2662 707 - -2647 1168-->
<polyline points="-2748 963
-2648 1149
-2560 958
" style="stroke:#2a2a2a;stroke-width:16;stroke-miterlimit:8;
"/>
<!-- Line -->
<polyline points="-3925,1791
-3882,2221
" style="stroke:#2a2a2a;stroke-width:16;
stroke-linejoin:miter; stroke-linecap:butt;
stroke-dasharray:31 31;"/>
<!-- Line -->
<polyline points="-3859,2604
-3887,2207
" style="stroke:#2a2a2a;stroke-width:16;
stroke-linejoin:miter; stroke-linecap:butt;
"/>
<!-- Line -->
<polyline points="-3338,1754
-3779,1822
" style="stroke:#2a2a2a;stroke-width:16;
stroke-linejoin:miter; stroke-linecap:butt;
stroke-dasharray:31 31;"/>
<!-- Line -->
<polyline points="-2865,1678
-3344,1754
" style="stroke:#2a2a2a;stroke-width:16;
stroke-linejoin:miter; stroke-linecap:butt;
"/>
<!-- Line -->
<polyline points="-3248,2133
-3650,2199
" style="stroke:#2a2a2a;stroke-width:16;
stroke-linejoin:miter; stroke-linecap:butt;
stroke-dasharray:31 31;"/>
<!-- Line -->
<polyline points="-2891,2074
-3261,2133
" style="stroke:#2a2a2a;stroke-width:16;
stroke-linejoin:miter; stroke-linecap:butt;
"/>
<!-- Arrowhead on XXXpoint -3261 2133 - -2826 2064-->
<polyline points="-3015 2188
-2845 2067
-3044 2003
" style="stroke:#2a2a2a;stroke-width:16;stroke-miterlimit:8;
"/>
<!-- Line -->
<polyline points="-2978,2980
-3004,2549
" style="stroke:#2a2a2a;stroke-width:16;
stroke-linejoin:miter; stroke-linecap:butt;
"/>
<!-- Arrowhead on XXXpoint -3004 2549 - -2975 3044-->
<polyline points="-3080 2843
-2976 3025
-2893 2831
" style="stroke:#2a2a2a;stroke-width:16;stroke-miterlimit:8;
"/>
<!-- Line -->
<polyline points="-3011,2229
-2994,2575
" style="stroke:#2a2a2a;stroke-width:16;
stroke-linejoin:miter; stroke-linecap:butt;
stroke-dasharray:31 31;"/>
<!-- Line -->
<polyline points="-10211,182
-9606,60
" style="stroke:#000000;stroke-width:16;
stroke-linejoin:round; stroke-linecap:butt;
"/>
<!-- Arrowhead on XXXpoint -9606 60 - -10275 193-->
<polyline points="-10127 89
-10257 190
-10098 233
" style="stroke:#000000;stroke-width:16;stroke-miterlimit:8;
"/>
<!-- Line -->
<polyline points="-9908,120
-9603,183
" style="stroke:#a0a0a0;stroke-width:16;
stroke-linejoin:round; stroke-linecap:butt;
"/>
<!-- Line -->
<polyline points="-3213,3974
-2216,2261
" style="stroke:#000000;stroke-width:48;
stroke-linejoin:miter; stroke-linecap:butt;
"/>
<!-- Arrowhead on XXXpoint -3213 3974 - -2149 2148-->
<polyline points="-2150 2383
-2157 2161
-2352 2264
" style="stroke:#000000;stroke-width:16;stroke-miterlimit:8;
"/>
<!-- Line -->
<polyline points="-1738,1783
-2700,3489
" style="stroke:#000000;stroke-width:48;
stroke-linejoin:miter; stroke-linecap:butt;
"/>
<!-- Arrowhead on XXXpoint -1738 1783 - -2763 3605-->
<polyline points="-2765 3370
-2755 3591
-2560 3484
" style="stroke:#000000;stroke-width:16;stroke-miterlimit:8;
"/>
<!-- Line -->
<polyline points="-2990,3057
-1948,1355
" style="stroke:#000000;stroke-width:48;
stroke-linejoin:miter; stroke-linecap:butt;
"/>
<!-- Arrowhead on XXXpoint -2990 3057 - -1879 1243-->
<polyline points="-1885 1478
-1887 1256
-2085 1355
" style="stroke:#000000;stroke-width:16;stroke-miterlimit:8;
"/>
<!-- Line -->
<polyline points="-2643,1118
-3802,2599
" style="stroke:#000000;stroke-width:48;
stroke-linejoin:miter; stroke-linecap:butt;
"/>
<!-- Arrowhead on XXXpoint -2643 1118 - -3882 2703-->
<polyline points="-3848 2470
-3872 2690
-3664 2614
" style="stroke:#000000;stroke-width:16;stroke-miterlimit:8;
"/>
<!-- Line -->
<polyline points="-3963,3279
-2822,1707
" style="stroke:#000000;stroke-width:48;
stroke-linejoin:miter; stroke-linecap:butt;
"/>
<!-- Arrowhead on XXXpoint -3963 3279 - -2743 1601-->
<polyline points="-2767 1834
-2752 1613
-2957 1696
" style="stroke:#000000;stroke-width:16;stroke-miterlimit:8;
"/>
<!-- Line -->
<polyline points="-2813,2056
-3918,3701
" style="stroke:#000000;stroke-width:48;
stroke-linejoin:miter; stroke-linecap:butt;
"/>
<!-- Arrowhead on XXXpoint -2813 2056 - -3990 3811-->
<polyline points="-3974 3575
-3982 3798
-3779 3707
" style="stroke:#000000;stroke-width:16;stroke-miterlimit:8;
"/>
<!-- Line -->
<polyline points="1794,2742
2239,1975
" style="stroke:#000000;stroke-width:48;
stroke-linejoin:miter; stroke-linecap:butt;
"/>
<!-- Arrowhead on XXXpoint 1794 2742 - 2305 1862-->
<polyline points="2302 2024
2298 1876
2165 1945
" style="stroke:#000000;stroke-width:16;stroke-miterlimit:8;
"/>
<!-- Line -->
<polyline points="2951,1600
2407,2458
" style="stroke:#000000;stroke-width:48;
stroke-linejoin:miter; stroke-linecap:butt;
"/>
<!-- Arrowhead on XXXpoint 2951 1600 - 2337 2570-->
<polyline points="2345 2407
2345 2556
2478 2491
" style="stroke:#000000;stroke-width:16;stroke-miterlimit:8;
"/>
<!-- Line -->
<polyline points="2356,2537
4481,4338
" style="stroke:#000000;stroke-width:48;
stroke-linejoin:miter; stroke-linecap:butt;
"/>
<!-- Arrowhead on XXXpoint 2356 2537 - 4581 4423-->
<polyline points="4422 4390
4570 4412
4523 4270
" style="stroke:#000000;stroke-width:16;stroke-miterlimit:8;
"/>
<!-- Line -->
<polyline points="4562,4403
4676,3362
" style="stroke:#000000;stroke-width:48;
stroke-linejoin:miter; stroke-linecap:butt;
"/>
<!-- Arrowhead on XXXpoint 4562 4403 - 4689 3231-->
<polyline points="4751 3380
4687 3247
4595 3363
" style="stroke:#000000;stroke-width:16;stroke-miterlimit:8;
"/>
<!-- Line -->
<polyline points="4693,3268
3024,1671
" style="stroke:#000000;stroke-width:48;
stroke-linejoin:miter; stroke-linecap:butt;
"/>
<!-- Arrowhead on XXXpoint 4693 3268 - 2929 1580-->
<polyline points="3085 1619
2940 1590
2976 1734
" style="stroke:#000000;stroke-width:16;stroke-miterlimit:8;
"/>
<!-- Line -->
<polyline points="2292,1888
3965,3393
" style="stroke:#000000;stroke-width:48;
stroke-linejoin:miter; stroke-linecap:butt;
"/>
<!-- Arrowhead on XXXpoint 2292 1888 - 4062 3481-->
<polyline points="3904 3444
4051 3470
4009 3327
" style="stroke:#000000;stroke-width:16;stroke-miterlimit:8;
"/>
<!-- Line -->
<polyline points="3850,4593
1862,2798
" style="stroke:#000000;stroke-width:48;
stroke-linejoin:miter; stroke-linecap:butt;
"/>
<!-- Arrowhead on XXXpoint 3850 4593 - 1764 2710-->
<polyline points="1922 2746
1776 2721
1816 2864
" style="stroke:#000000;stroke-width:16;stroke-miterlimit:8;
"/>
<!-- Line -->
<polyline points="4029,3429
3865,4493
" style="stroke:#000000;stroke-width:48;
stroke-linejoin:miter; stroke-linecap:butt;
"/>
<!-- Arrowhead on XXXpoint 4029 3429 - 3845 4623-->
<polyline points="3788 4470
3847 4607
3944 4494
" style="stroke:#000000;stroke-width:16;stroke-miterlimit:8;
"/>
<!-- Text -->
<text xml:space="preserve" x="-1499" y="1520" fill="#343434"  font-family="Times" font-style="italic" font-weight="normal" font-size="202" text-anchor="start">2</text>
<!-- Text -->
<text xml:space="preserve" x="-1734" y="1409" fill="#343434"  font-family="Times,Symbol" font-style="normal" font-weight="normal" font-size="303" text-anchor="start">&#946;</text>
<!-- Text -->
<text xml:space="preserve" x="-2362" y="3545" fill="#343434"  font-family="Times,Symbol" font-style="normal" font-weight="normal" font-size="303" text-anchor="start">&#946;</text>
<!-- Text -->
<text xml:space="preserve" x="-2142" y="3665" fill="#343434"  font-family="Times" font-style="italic" font-weight="normal" font-size="202" text-anchor="start">3</text>
<!-- Text -->
<text xml:space="preserve" x="3237" y="2433" fill="#343434"  font-family="Times" font-style="italic" font-weight="normal" font-size="202" text-anchor="start">0</text>
<!-- Text -->
<text xml:space="preserve" x="3019" y="2359" fill="#343434"  font-family="Times,Symbol" font-style="normal" font-weight="normal" font-size="303" text-anchor="start">&#946;</text>
<!-- Text -->
<text xml:space="preserve" x="2958" y="2882" fill="#343434"  font-family="Times" font-style="italic" font-weight="normal" font-size="202" text-anchor="start">1</text>
<!-- Text -->
<text xml:space="preserve" x="2747" y="2823" fill="#343434"  font-family="Times,Symbol" font-style="normal" font-weight="normal" font-size="303" text-anchor="start">&#946;</text>
<!-- Text -->
<text xml:space="preserve" x="1661" y="2446" fill="#343434"  font-family="Times" font-style="italic" font-weight="normal" font-size="202" text-anchor="start">3</text>
<!-- Text -->
<text xml:space="preserve" x="1428" y="2386" fill="#343434"  font-family="Times,Symbol" font-style="normal" font-weight="normal" font-size="303" text-anchor="start">&#946;</text>
<!-- Line -->
<polyline points="-10218,1988
-11476,1886
" style="stroke:#000000;stroke-width:16;
stroke-linejoin:round; stroke-linecap:butt;
"/>
<!-- Arrowhead on XXXpoint -11476 1886 - -10153 1992-->
<polyline points="-10323 2052
-10172 1991
-10311 1906
" style="stroke:#000000;stroke-width:16;stroke-miterlimit:8;
"/>
<!-- Line -->
<polyline points="-8223,4040
-8657,4544
" style="stroke:#000000;stroke-width:16;
stroke-linejoin:round; stroke-linecap:butt;
"/>
<!-- Arrowhead on XXXpoint -8657 4544 - -8181 3990-->
<polyline points="-8233 4162
-8194 4004
-8345 4067
" style="stroke:#000000;stroke-width:16;stroke-miterlimit:8;
"/>
<!-- Line -->
<polyline points="-10829,1930
-10689,3201
" style="stroke:#0000ff;stroke-width:16;
stroke-linejoin:round; stroke-linecap:butt;
"/>
<!-- Line -->
<polyline points="-8120,4302
-8418,4265
" style="stroke:#a0a0a0;stroke-width:16;
stroke-linejoin:round; stroke-linecap:butt;
"/>
<!-- Line -->
<polyline points="-11299,3137
-10024,3272
" style="stroke:#000000;stroke-width:16;
stroke-linejoin:round; stroke-linecap:butt;
"/>
<!-- Arrowhead on XXXpoint -10024 3272 - -11364 3129-->
<polyline points="-11191 3074
-11345 3131
-11207 3219
" style="stroke:#000000;stroke-width:16;stroke-miterlimit:8;
"/>
<!-- Line -->
<polyline points="-9357,138
-9937,260
" style="stroke:#000000;stroke-width:16;
stroke-linejoin:round; stroke-linecap:butt;
"/>
<!-- Arrowhead on XXXpoint -9937 260 - -9293 123-->
<polyline points="-9439 229
-9311 128
-9469 86
" style="stroke:#000000;stroke-width:16;stroke-miterlimit:8;
"/>
<!-- Line -->
<polyline points="-8571,2003
-8332,2516
" style="stroke:#a0a0a0;stroke-width:16;
stroke-linejoin:round; stroke-linecap:butt;
"/>
<!-- Line -->
<polyline points="-8360,1867
-8837,2174
" style="stroke:#000000;stroke-width:16;
stroke-linejoin:round; stroke-linecap:butt;
"/>
<!-- Arrowhead on XXXpoint -8837 2174 - -8304 1830-->
<polyline points="-8403 1982
-8320 1841
-8482 1858
" style="stroke:#000000;stroke-width:16;stroke-miterlimit:8;
"/>
<!-- Line -->
<polyline points="-8489,2657
-8106,2337
" style="stroke:#000000;stroke-width:16;
stroke-linejoin:round; stroke-linecap:butt;
"/>
<!-- Arrowhead on XXXpoint -8106 2337 - -8539 2698-->
<polyline points="-8458 2535
-8524 2686
-8364 2648
" style="stroke:#000000;stroke-width:16;stroke-miterlimit:8;
"/>
<!-- Line -->
<polyline points="-8323,4560
-7917,4047
" style="stroke:#000000;stroke-width:16;
stroke-linejoin:round; stroke-linecap:butt;
"/>
<!-- Arrowhead on XXXpoint -7917 4047 - -8363 4611-->
<polyline points="-8318 4435
-8351 4596
-8202 4525
" style="stroke:#000000;stroke-width:16;stroke-miterlimit:8;
"/>
<!-- Line -->
<polyline points="-8582,549
-9606,187
" style="stroke:#0000ff;stroke-width:16;
stroke-linejoin:round; stroke-linecap:butt;
"/>
<!-- Line -->
<polyline points="-10795,1715
-10840,1938
" style="stroke:#a0a0a0;stroke-width:16;
stroke-linejoin:round; stroke-linecap:butt;
"/>
<!-- Line -->
<polyline points="-10590,3450
-10689,3201
" style="stroke:#a0a0a0;stroke-width:16;
stroke-linejoin:round; stroke-linecap:butt;
"/>
<!-- Line -->
<polyline points="-11468,1561
-10244,187
" style="stroke:#000000;stroke-width:16;
stroke-linejoin:round; stroke-linecap:butt;
"/>
<!-- Arrowhead on XXXpoint -10244 187 - -11511 1609-->
<polyline points="-11456 1437
-11499 1595
-11345 1534
" style="stroke:#000000;stroke-width:16;stroke-miterlimit:8;
"/>
<!-- Line -->
<polyline points="-7201,3519
-8120,4302
" style="stroke:#0000ff;stroke-width:16;
stroke-linejoin:round; stroke-linecap:butt;
"/>
<!-- Line -->
<polyline points="-8687,4531
-11113,3343
" style="stroke:#000000;stroke-width:16;
stroke-linejoin:round; stroke-linecap:butt;
"/>
<!-- Arrowhead on XXXpoint -11113 3343 - -8628 4558-->
<polyline points="-8809 4551
-8645 4550
-8744 4418
" style="stroke:#000000;stroke-width:16;stroke-miterlimit:8;
"/>
<!-- Line -->
<polyline points="-10886,907
-10894,1126
" style="stroke:#a0a0a0;stroke-width:16;
stroke-linejoin:round; stroke-linecap:butt;
"/>
<!-- Line -->
<polyline points="-11330,1680
-10238,1748
" style="stroke:#000000;stroke-width:16;
stroke-linejoin:round; stroke-linecap:butt;
"/>
<!-- Arrowhead on XXXpoint -10238 1748 - -11395 1676-->
<polyline points="-11225 1612
-11376 1677
-11233 1759
" style="stroke:#000000;stroke-width:16;stroke-miterlimit:8;
"/>
<!-- Line -->
<polyline points="-8582,549
-8339,754
" style="stroke:#a0a0a0;stroke-width:16;
stroke-linejoin:round; stroke-linecap:butt;
"/>
<!-- Line -->
<polyline points="-8823,630
-8337,465
" style="stroke:#000000;stroke-width:16;
stroke-linejoin:round; stroke-linecap:butt;
"/>
<!-- Arrowhead on XXXpoint -8337 465 - -8885 650-->
<polyline points="-8751 527
-8867 644
-8704 666
" style="stroke:#000000;stroke-width:16;stroke-miterlimit:8;
"/>
<!-- Line -->
<polyline points="-9937,3524
-11254,3377
" style="stroke:#000000;stroke-width:16;
stroke-linejoin:round; stroke-linecap:butt;
"/>
<!-- Arrowhead on XXXpoint -11254 3377 - -9871 3530-->
<polyline points="-10044 3585
-9890 3528
-10028 3439
" style="stroke:#000000;stroke-width:16;stroke-miterlimit:8;
"/>
<!-- Line -->
<polyline points="-9922,3926
-10039,3973
" style="stroke:#a0a0a0;stroke-width:16;
stroke-linejoin:round; stroke-linecap:butt;
"/>
<!-- Line -->
<polyline points="-7191,3223
-7194,3528
" style="stroke:#a0a0a0;stroke-width:16;
stroke-linejoin:round; stroke-linecap:butt;
"/>
<!-- Line -->
<polyline points="-7038,3321
-7342,3719
" style="stroke:#000000;stroke-width:16;
stroke-linejoin:round; stroke-linecap:butt;
"/>
<!-- Arrowhead on XXXpoint -7342 3719 - -6998 3269-->
<polyline points="-7040 3444
-7009 3283
-7156 3355
" style="stroke:#000000;stroke-width:16;stroke-miterlimit:8;
"/>
<!-- Line -->
<polyline points="-8011,617
-8600,860
" style="stroke:#000000;stroke-width:16;
stroke-linejoin:round; stroke-linecap:butt;
"/>
<!-- Arrowhead on XXXpoint -8600 860 - -7951 591-->
<polyline points="-8075 722
-7968 598
-8131 586
" style="stroke:#000000;stroke-width:16;stroke-miterlimit:8;
"/>
<!-- Line -->
<polyline points="-7365,3441
-6932,2898
" style="stroke:#000000;stroke-width:16;
stroke-linejoin:round; stroke-linecap:butt;
"/>
<!-- Arrowhead on XXXpoint -6932 2898 - -7406 3491-->
<polyline points="-7360 3316
-7395 3477
-7246 3407
" style="stroke:#000000;stroke-width:16;stroke-miterlimit:8;
"/>
<!-- Line -->
<polyline points="-10305,465
-11369,1673
" style="stroke:#000000;stroke-width:16;
stroke-linejoin:round; stroke-linecap:butt;
"/>
<!-- Arrowhead on XXXpoint -11369 1673 - -10262 414-->
<polyline points="-10316 586
-10275 428
-10426 489
" style="stroke:#000000;stroke-width:16;stroke-miterlimit:8;
"/>
<!-- Line -->
<polyline points="-9945,295
-9904,1700
" style="stroke:#000000;stroke-width:16;
stroke-linejoin:round; stroke-linecap:butt;
"/>
<!-- Arrowhead on XXXpoint -9904 1700 - -9946 228-->
<polyline points="-9867 391
-9945 247
-10013 395
" style="stroke:#000000;stroke-width:16;stroke-miterlimit:8;
"/>
<!-- Line -->
<polyline points="-11223,3393
-8746,4608
" style="stroke:#000000;stroke-width:16;
stroke-linejoin:round; stroke-linecap:butt;
"/>
<!-- Arrowhead on XXXpoint -8746 4608 - -11281 3362-->
<polyline points="-11100 3369
-11265 3371
-11165 3501
" style="stroke:#000000;stroke-width:16;stroke-miterlimit:8;
"/>
<!-- Line -->
<polyline points="-9468,3547
-8344,4586
" style="stroke:#000000;stroke-width:16;
stroke-linejoin:round; stroke-linecap:butt;
"/>
<!-- Arrowhead on XXXpoint -8344 4586 - -9517 3502-->
<polyline points="-9344 3560
-9503 3514
-9444 3668
" style="stroke:#000000;stroke-width:16;stroke-miterlimit:8;
"/>
<!-- Line -->
<polyline points="-10268,1105
-9925,958
" style="stroke:#a0a0a0;stroke-width:16;
stroke-linejoin:round; stroke-linecap:butt;
"/>
<!-- Line -->
<polyline points="-8925,4048
-9333,4060
" style="stroke:#a0a0a0;stroke-width:16;
stroke-linejoin:round; stroke-linecap:butt;
"/>
<!-- Line -->
<polyline points="-8847,1417
-9925,958
" style="stroke:#0000ff;stroke-width:16;
stroke-linejoin:round; stroke-linecap:butt;
"/>
<!-- Line -->
<polyline points="-7937,3193
-8925,4048
" style="stroke:#0000ff;stroke-width:16;
stroke-linejoin:round; stroke-linecap:butt;
"/>
<!-- Line -->
<polyline points="-10245,1724
-10281,452
" style="stroke:#000000;stroke-width:16;
stroke-linejoin:round; stroke-linecap:butt;
"/>
<!-- Arrowhead on XXXpoint -10281 452 - -10244 1788-->
<polyline points="-10321 1625
-10244 1770
-10174 1620
" style="stroke:#000000;stroke-width:16;stroke-miterlimit:8;
"/>
<!-- Line -->
<polyline points="-8770,4585
-9903,3527
" style="stroke:#000000;stroke-width:16;
stroke-linejoin:round; stroke-linecap:butt;
"/>
<!-- Arrowhead on XXXpoint -9903 3527 - -8723 4629-->
<polyline points="-8893 4570
-8737 4617
-8793 4462
" style="stroke:#000000;stroke-width:16;stroke-miterlimit:8;
"/>
<!-- Line -->
<polyline points="-8837,2140
-8855,641
" style="stroke:#000000;stroke-width:16;
stroke-linejoin:round; stroke-linecap:butt;
"/>
<!-- Arrowhead on XXXpoint -8855 641 - -8836 2204-->
<polyline points="-8911 2039
-8836 2185
-8764 2037
" style="stroke:#000000;stroke-width:16;stroke-miterlimit:8;
"/>
<!-- Line -->
<polyline points="-7371,3704
-8511,2686
" style="stroke:#000000;stroke-width:16;
stroke-linejoin:round; stroke-linecap:butt;
"/>
<!-- Arrowhead on XXXpoint -8511 2686 - -7321 3746-->
<polyline points="-7492 3691
-7335 3734
-7395 3581
" style="stroke:#000000;stroke-width:16;stroke-miterlimit:8;
"/>
<!-- Line -->
<polyline points="-8847,1417
-8751,1773
" style="stroke:#a0a0a0;stroke-width:16;
stroke-linejoin:round; stroke-linecap:butt;
"/>
<!-- Line -->
<polyline points="-8188,3054
-7938,3188
" style="stroke:#a0a0a0;stroke-width:16;
stroke-linejoin:round; stroke-linecap:butt;
"/>
<!-- Line -->
<polyline points="-8585,892
-7387,3467
" style="stroke:#000000;stroke-width:16;
stroke-linejoin:round; stroke-linecap:butt;
"/>
<!-- Arrowhead on XXXpoint -7387 3467 - -8613 831-->
<polyline points="-8476 950
-8605 848
-8609 1012
" style="stroke:#000000;stroke-width:16;stroke-miterlimit:8;
"/>
<!-- Line -->
<polyline points="-8750,1123
-8719,2588
" style="stroke:#000000;stroke-width:16;
stroke-linejoin:round; stroke-linecap:butt;
"/>
<!-- Arrowhead on XXXpoint -8719 2588 - -8751 1057-->
<polyline points="-8675 1220
-8751 1076
-8820 1224
" style="stroke:#000000;stroke-width:16;stroke-miterlimit:8;
"/>
<!-- Line -->
<polyline points="-8712,2590
-7570,3611
" style="stroke:#000000;stroke-width:16;
stroke-linejoin:round; stroke-linecap:butt;
"/>
<!-- Arrowhead on XXXpoint -7570 3611 - -8762 2545-->
<polyline points="-8590 2601
-8748 2558
-8687 2710
" style="stroke:#000000;stroke-width:16;stroke-miterlimit:8;
"/>
<!-- Line -->
<polyline points="-3278,3520
-3017,3617
" style="stroke:#ff0000;stroke-width:48;
stroke-linejoin:miter; stroke-linecap:butt;
"/>
<!-- Line -->
<polyline points="-2818,2750
-3288,2977
-3351,3319
" style="stroke:#ff0000;stroke-width:48;
stroke-linejoin:miter; stroke-linecap:butt;
"/>
<!-- Line -->
<polyline points="-3832,3108
-3451,3365
" style="stroke:#ff0000;stroke-width:48;
stroke-linejoin:miter; stroke-linecap:butt;
"/>
<!-- Line -->
<polyline points="-2927,2207
-2754,2207
-2437,1539
" style="stroke:#ff0000;stroke-width:48;
stroke-linejoin:miter; stroke-linecap:butt;
"/>
<!-- Line -->
<polyline points="-2783,1241
-2437,1449
" style="stroke:#ff0000;stroke-width:48;
stroke-linejoin:miter; stroke-linecap:butt;
"/>
<!-- Line -->
<polyline points="-1896,2028
-2401,1495
" style="stroke:#ff0000;stroke-width:48;
stroke-linejoin:miter; stroke-linecap:butt;
"/>
<!-- Line -->
<polyline points="-7994,2161
-8190,2278
" style="stroke:#a0a0a0;stroke-width:16;
stroke-linejoin:round; stroke-linecap:butt;
"/>
<!-- Line -->
<polyline points="-7927,795
-7934,446
-8719,124
" style="stroke:#ff0000;stroke-width:16;
stroke-linejoin:miter; stroke-linecap:butt;
"/>
<!-- Line -->
<polyline points="-8077,1038
-8269,438
-8704,146
" style="stroke:#ff0000;stroke-width:16;
stroke-linejoin:miter; stroke-linecap:butt;
"/>
<!-- Line -->
<polyline points="-8433,496
-8740,175
" style="stroke:#ff0000;stroke-width:16;
stroke-linejoin:miter; stroke-linecap:butt;
"/>
<!-- Line -->
<polyline points="-9790,81
-9282,3
-8819,139
" style="stroke:#ff0000;stroke-width:16;
stroke-linejoin:miter; stroke-linecap:butt;
"/>
<!-- Line -->
<polyline points="-9333,232
-8848,175
" style="stroke:#ff0000;stroke-width:16;
stroke-linejoin:miter; stroke-linecap:butt;
"/>
<!-- Line -->
<polyline points="-9703,475
-9248,296
-8855,224
" style="stroke:#ff0000;stroke-width:16;
stroke-linejoin:miter; stroke-linecap:butt;
"/>
<!-- Line -->
<polyline points="-8854,840
-9083,598
" style="stroke:#ff0000;stroke-width:16;
stroke-linejoin:miter; stroke-linecap:butt;
"/>
<!-- Line -->
<polyline points="-8502,840
-9083,603
" style="stroke:#ff0000;stroke-width:16;
stroke-linejoin:miter; stroke-linecap:butt;
"/>
<!-- Line -->
<polyline points="-8646,1292
-8746,818
-9055,625
" style="stroke:#ff0000;stroke-width:16;
stroke-linejoin:miter; stroke-linecap:butt;
"/>
<!-- Line -->
<polyline points="-9864,232
-9620,548
-9126,633
" style="stroke:#ff0000;stroke-width:16;
stroke-linejoin:miter; stroke-linecap:butt;
"/>
<!-- Line -->
<polyline points="-10329,275
-9686,625
-9205,647
" style="stroke:#ff0000;stroke-width:16;
stroke-linejoin:miter; stroke-linecap:butt;
"/>
<!-- Line -->
<polyline points="-10266,654
-9693,733
-9205,661
" style="stroke:#ff0000;stroke-width:16;
stroke-linejoin:miter; stroke-linecap:butt;
"/>
<!-- Line -->
<polyline points="-9485,1350
-9227,1908
" style="stroke:#ff0000;stroke-width:16;
stroke-linejoin:miter; stroke-linecap:butt;
"/>
<!-- Line -->
<polyline points="-9377,1449
-9133,1923
" style="stroke:#ff0000;stroke-width:16;
stroke-linejoin:miter; stroke-linecap:butt;
"/>
<!-- Line -->
<polyline points="-9793,1672
-9728,1937
-9212,1966
" style="stroke:#ff0000;stroke-width:16;
stroke-linejoin:miter; stroke-linecap:butt;
"/>
<!-- Line -->
<polyline points="-10072,1908
-9577,2403
" style="stroke:#ff0000;stroke-width:16;
stroke-linejoin:miter; stroke-linecap:butt;
"/>
<!-- Line -->
<polyline points="-9935,1507
-10014,1794
-9555,2345
" style="stroke:#ff0000;stroke-width:16;
stroke-linejoin:miter; stroke-linecap:butt;
"/>
<!-- Line -->
<polyline points="-10394,1715
-9643,2431
" style="stroke:#ff0000;stroke-width:16;
stroke-linejoin:miter; stroke-linecap:butt;
"/>
<!-- Line -->
<polyline points="-11183,1901
-11426,2553
" style="stroke:#ff0000;stroke-width:16;
stroke-linejoin:miter; stroke-linecap:butt;
"/>
<!-- Line -->
<polyline points="-11254,1543
-11542,1843
-11484,2567
" style="stroke:#ff0000;stroke-width:16;
stroke-linejoin:miter; stroke-linecap:butt;
"/>
<!-- Line -->
<polyline points="-11304,1507
-11447,2524
" style="stroke:#ff0000;stroke-width:16;
stroke-linejoin:miter; stroke-linecap:butt;
"/>
<!-- Line -->
<polyline points="-10889,1628
-10831,2181
" style="stroke:#ff0000;stroke-width:16;
stroke-linejoin:miter; stroke-linecap:butt;
"/>
<!-- Line -->
<polyline points="-10703,1264
-10803,2137
" style="stroke:#ff0000;stroke-width:16;
stroke-linejoin:miter; stroke-linecap:butt;
"/>
<!-- Line -->
<polyline points="-10416,1393
-10738,2087
" style="stroke:#ff0000;stroke-width:16;
stroke-linejoin:miter; stroke-linecap:butt;
"/>
<!-- Line -->
<polyline points="-11204,3047
-11346,2682
" style="stroke:#ff0000;stroke-width:16;
stroke-linejoin:miter; stroke-linecap:butt;
"/>
<!-- Line -->
<polyline points="-11011,3392
-11361,3262
-11369,2725
" style="stroke:#ff0000;stroke-width:16;
stroke-linejoin:miter; stroke-linecap:butt;
"/>
<!-- Line -->
<polyline points="-11018,3414
-11455,3320
-11455,2747
" style="stroke:#ff0000;stroke-width:16;
stroke-linejoin:miter; stroke-linecap:butt;
"/>
<!-- Line -->
<polyline points="-10537,2775
-10703,2209
" style="stroke:#ff0000;stroke-width:16;
stroke-linejoin:miter; stroke-linecap:butt;
"/>
<!-- Line -->
<polyline points="-10574,3020
-10738,2253
" style="stroke:#ff0000;stroke-width:16;
stroke-linejoin:miter; stroke-linecap:butt;
"/>
<!-- Line -->
<polyline points="-10014,3026
-10366,2897
-10660,2223
" style="stroke:#ff0000;stroke-width:16;
stroke-linejoin:miter; stroke-linecap:butt;
"/>
<!-- Line -->
<polyline points="-9534,2940
-9291,2904
-9198,2052
" style="stroke:#ff0000;stroke-width:16;
stroke-linejoin:miter; stroke-linecap:butt;
"/>
<!-- Line -->
<polyline points="-9249,3013
-9120,2113
" style="stroke:#ff0000;stroke-width:16;
stroke-linejoin:miter; stroke-linecap:butt;
"/>
<!-- Line -->
<polyline points="-8903,3155
-9081,2100
" style="stroke:#ff0000;stroke-width:16;
stroke-linejoin:miter; stroke-linecap:butt;
"/>
<!-- Line -->
<polyline points="-7156,2664
-7427,3946
" style="stroke:#ff0000;stroke-width:16;
stroke-linejoin:miter; stroke-linecap:butt;
"/>
<!-- Line -->
<polyline points="-6992,3000
-6906,3294
-7328,3939
" style="stroke:#ff0000;stroke-width:16;
stroke-linejoin:miter; stroke-linecap:butt;
"/>
<!-- Line -->
<polyline points="-7112,3223
-7393,3897
" style="stroke:#ff0000;stroke-width:16;
stroke-linejoin:miter; stroke-linecap:butt;
"/>
<!-- Line -->
<polyline points="-8295,3960
-7407,4039
" style="stroke:#ff0000;stroke-width:16;
stroke-linejoin:miter; stroke-linecap:butt;
"/>
<!-- Line -->
<polyline points="-8417,3702
-7543,3932
" style="stroke:#ff0000;stroke-width:16;
stroke-linejoin:miter; stroke-linecap:butt;
"/>
<!-- Line -->
<polyline points="-8016,4154
-7457,4068
" style="stroke:#ff0000;stroke-width:16;
stroke-linejoin:miter; stroke-linecap:butt;
"/>
<!-- Line -->
<polyline points="-8618,4476
-8398,4671
-8016,4720
" style="stroke:#ff0000;stroke-width:16;
stroke-linejoin:miter; stroke-linecap:butt;
"/>
<!-- Line -->
<polyline points="-8432,4476
-8338,4412
-8024,4677
" style="stroke:#ff0000;stroke-width:16;
stroke-linejoin:miter; stroke-linecap:butt;
"/>
<!-- Line -->
<polyline points="-8961,4513
-8890,4684
-8079,4798
" style="stroke:#ff0000;stroke-width:16;
stroke-linejoin:miter; stroke-linecap:butt;
"/>
<!-- Line -->
<polyline points="-7750,3472
-8016,4544
" style="stroke:#ff0000;stroke-width:16;
stroke-linejoin:miter; stroke-linecap:butt;
"/>
<!-- Line -->
<polyline points="-7275,3631
-7671,3721
-7929,4659
" style="stroke:#ff0000;stroke-width:16;
stroke-linejoin:miter; stroke-linecap:butt;
"/>
<!-- Line -->
<polyline points="-7426,3336
-7714,3659
-7973,4617
" style="stroke:#ff0000;stroke-width:16;
stroke-linejoin:miter; stroke-linecap:butt;
"/>
<!-- Line -->
<polyline points="-9361,3430
-9505,2517
" style="stroke:#ff0000;stroke-width:16;
stroke-linejoin:miter; stroke-linecap:butt;
"/>
<!-- Line -->
<polyline points="-9686,3711
-9555,2567
" style="stroke:#ff0000;stroke-width:16;
stroke-linejoin:miter; stroke-linecap:butt;
"/>
<!-- Line -->
<polyline points="-10122,3257
-9598,2560
" style="stroke:#ff0000;stroke-width:16;
stroke-linejoin:miter; stroke-linecap:butt;
"/>
<!-- Line -->
<polyline points="-8714,2473
-9468,2415
" style="stroke:#ff0000;stroke-width:16;
stroke-linejoin:miter; stroke-linecap:butt;
"/>
<!-- Line -->
<polyline points="-8792,2143
-8814,2330
-9476,2373
" style="stroke:#ff0000;stroke-width:16;
stroke-linejoin:miter; stroke-linecap:butt;
"/>
<!-- Line -->
<polyline points="-8426,2754
-8771,2754
-9483,2473
" style="stroke:#ff0000;stroke-width:16;
stroke-linejoin:miter; stroke-linecap:butt;
"/>
<!-- Line -->
<polyline points="-8332,1704
-8605,1704
-9087,1919
" style="stroke:#ff0000;stroke-width:16;
stroke-linejoin:miter; stroke-linecap:butt;
"/>
<!-- Line -->
<polyline points="-7966,2107
-8361,2228
-8642,1855
-9044,1984
" style="stroke:#ff0000;stroke-width:16;
stroke-linejoin:miter; stroke-linecap:butt;
"/>
<!-- Line -->
<polyline points="-8203,2423
-8915,2243
-9066,2093
" style="stroke:#ff0000;stroke-width:16;
stroke-linejoin:miter; stroke-linecap:butt;
"/>
<!-- Line -->
<polyline points="4582,4197
4684,4391
4269,4671
" style="stroke:#ff0000;stroke-width:48;
stroke-linejoin:miter; stroke-linecap:butt;
"/>
<!-- Line -->
<polyline points="3730,4472
3800,4693
4188,4688
" style="stroke:#ff0000;stroke-width:48;
stroke-linejoin:miter; stroke-linecap:butt;
"/>
<!-- Line -->
<polyline points="4010,3566
4388,3409
" style="stroke:#ff0000;stroke-width:48;
stroke-linejoin:miter; stroke-linecap:butt;
"/>
<!-- Line -->
<polyline points="4560,3119
4393,3409
" style="stroke:#ff0000;stroke-width:48;
stroke-linejoin:miter; stroke-linecap:butt;
"/>
<!-- Line -->
<polyline points="2672,1647
2882,1706
" style="stroke:#ff0000;stroke-width:48;
stroke-linejoin:miter; stroke-linecap:butt;
"/>
<!-- Line -->
<polyline points="2382,1948
2516,1668
" style="stroke:#ff0000;stroke-width:48;
stroke-linejoin:miter; stroke-linecap:butt;
"/>
<!-- Line -->
<polyline points="2246,2687
2446,2591
" style="stroke:#ff0000;stroke-width:48;
stroke-linejoin:miter; stroke-linecap:butt;
"/>
<!-- Line -->
<polyline points="1923,2509
2117,2660
" style="stroke:#ff0000;stroke-width:48;
stroke-linejoin:miter; stroke-linecap:butt;
"/>
<!-- Arc -->
<path style="stroke:#343434;stroke-width:32;stroke-linecap:butt;"
d="M -2487,3193 A 396 396  0  0  1 -3068  3724 " />
<!-- Arc -->
<path style="stroke:#343434;stroke-width:32;stroke-linecap:butt;"
d="M -2087,1588 A 274 274  0  1  1 -1867  2035 " />
<!-- Circle -->
<circle cx="-2393" cy="1477" r="198"
 style="fill:#5a5a5a;stroke:#5a5a5a;stroke-width:8;"/>
<!-- Circle -->
<circle cx="-3334" cy="3415" r="198"
 style="fill:#5a5a5a;stroke:#5a5a5a;stroke-width:8;"/>
<!-- Circle -->
<circle cx="-7434" cy="3971" r="155"
 style="fill:#5a5a5a;stroke:#5a5a5a;stroke-width:8;"/>
<!-- Circle -->
<circle cx="-7990" cy="4685" r="155"
 style="fill:#5a5a5a;stroke:#5a5a5a;stroke-width:8;"/>
<!-- Circle -->
<circle cx="-10767" cy="2202" r="155"
 style="fill:#5a5a5a;stroke:#5a5a5a;stroke-width:8;"/>
<!-- Circle -->
<circle cx="-11417" cy="2650" r="155"
 style="fill:#5a5a5a;stroke:#5a5a5a;stroke-width:8;"/>
<!-- Circle -->
<circle cx="-9126" cy="2009" r="155"
 style="fill:#5a5a5a;stroke:#5a5a5a;stroke-width:8;"/>
<!-- Circle -->
<circle cx="-9547" cy="2466" r="155"
 style="fill:#5a5a5a;stroke:#5a5a5a;stroke-width:8;"/>
<!-- Circle -->
<circle cx="-9119" cy="583" r="155"
 style="fill:#5a5a5a;stroke:#5a5a5a;stroke-width:8;"/>
<!-- Circle -->
<circle cx="-8732" cy="182" r="155"
 style="fill:#5a5a5a;stroke:#5a5a5a;stroke-width:8;"/>
<!-- Arc -->
<path style="stroke:#343434;stroke-width:32;stroke-linecap:butt;"
d="M 2502,2290 A 346 346  0  0  0  1885  2598 " />
<!-- Arc -->
<path style="stroke:#343434;stroke-width:32;stroke-linecap:butt;"
d="M 2530,2310 A 221 221  0  0  1  2599  2729 " />
<!-- Arrowhead on XXXpoint 2700 2629 - 2599 2729-->
<polyline points="2658 2581
2613 2716
2746 2671
" style="stroke:#343434;stroke-width:16;stroke-miterlimit:8;
"/>
<!-- Arc -->
<path style="stroke:#343434;stroke-width:32;stroke-linecap:butt;"
d="M 2832,1787 A 194 194  0  1  0  3211  1870 " />
<!-- Arrowhead on XXXpoint 3135 1990 - 3211 1870-->
<polyline points="3187 2026
3202 1886
3081 1959
" style="stroke:#343434;stroke-width:16;stroke-miterlimit:8;
"/>
<!-- Circle -->
<circle cx="2578" cy="1650" r="133"
 style="fill:#5a5a5a;stroke:#5a5a5a;stroke-width:8;"/>
<!-- Circle -->
<circle cx="4393" cy="3408" r="133"
 style="fill:#5a5a5a;stroke:#5a5a5a;stroke-width:8;"/>
<!-- Circle -->
<circle cx="4223" cy="4680" r="133"
 style="fill:#5a5a5a;stroke:#5a5a5a;stroke-width:8;"/>
<!-- Circle -->
<circle cx="2161" cy="2696" r="133"
 style="fill:#5a5a5a;stroke:#5a5a5a;stroke-width:8;"/>
<!-- Line -->
<polyline points="-7584,3581
-8743,1088
" style="stroke:#000000;stroke-width:16;
stroke-linejoin:round; stroke-linecap:butt;
"/>
<!-- Arrowhead on XXXpoint -8743 1088 - -7556 3639-->
<polyline points="-7692 3520
-7564 3623
-7559 3458
" style="stroke:#000000;stroke-width:16;stroke-miterlimit:8;
"/>
</g>
</svg>
