<?xml version="1.0" standalone="no"?>
<!DOCTYPE svg PUBLIC "-//W3C//DTD SVG 1.1//EN"
"http://www.w3.org/Graphics/SVG/1.1/DTD/svg11.dtd">
<!-- Creator: fig2dev Version 3.2.6 -->
<!-- CreationDate: Mon Nov 21 08:46:35 2016 -->
<!-- Magnification: 1.050 -->
<svg	xmlns="http://www.w3.org/2000/svg"
	xmlns:xlink="http://www.w3.org/1999/xlink"
	width="8.9in" height="3.2in"
	viewBox="-5589 553 10712 3793">
<g style="stroke-width:.025in; fill:none">
<!-- Line -->
<polyline points="-4092,2412
-3891,2875
" style="stroke:#808080;stroke-width:16;
stroke-linejoin:miter; stroke-linecap:butt;
"/>
<!-- Line -->
<polyline points="-3208,1574
-2671,1582
" style="stroke:#808080;stroke-width:16;
stroke-linejoin:miter; stroke-linecap:butt;
"/>
<!-- Line -->
<polyline points="-2906,3054
-2396,2847
" style="stroke:#808080;stroke-width:16;
stroke-linejoin:miter; stroke-linecap:butt;
"/>
<!-- Line -->
<polyline points="-4065,896
-4076,1110
" style="stroke:#808080;stroke-width:16;
stroke-linejoin:miter; stroke-linecap:butt;
"/>
<!-- Line -->
<polyline points="-5153,1737
-4896,1771
" style="stroke:#808080;stroke-width:16;
stroke-linejoin:miter; stroke-linecap:butt;
"/>
<!-- Line -->
<polyline points="-3734,3330
-3809,3504
" style="stroke:#808080;stroke-width:16;
stroke-linejoin:miter; stroke-linecap:butt;
"/>
<!-- Line -->
<polyline points="-2376,1016
-2351,1238
" style="stroke:#808080;stroke-width:16;
stroke-linejoin:miter; stroke-linecap:butt;
"/>
<!-- Line -->
<polyline points="-1670,1901
-1471,1869
" style="stroke:#808080;stroke-width:16;
stroke-linejoin:miter; stroke-linecap:butt;
"/>
<!-- Line -->
<polyline points="-1746,2969
-1574,3179
" style="stroke:#808080;stroke-width:16;
stroke-linejoin:miter; stroke-linecap:butt;
"/>
<!-- Line -->
<polyline points="1835,2439
2035,2902
" style="stroke:#808080;stroke-width:16;
stroke-linejoin:miter; stroke-linecap:butt;
"/>
<!-- Line -->
<polyline points="2719,1602
3255,1609
" style="stroke:#808080;stroke-width:16;
stroke-linejoin:miter; stroke-linecap:butt;
"/>
<!-- Line -->
<polyline points="3021,3081
3530,2874
" style="stroke:#808080;stroke-width:16;
stroke-linejoin:miter; stroke-linecap:butt;
"/>
<!-- Line -->
<polyline points="-5142,2530
-5367,2649
-5407,2862
" style="stroke:#ff0000;stroke-width:16;
stroke-linejoin:miter; stroke-linecap:butt;
"/>
<!-- Line -->
<polyline points="-4982,2683
-5049,2803
-5295,2876
" style="stroke:#ff0000;stroke-width:16;
stroke-linejoin:miter; stroke-linecap:butt;
"/>
<!-- Line -->
<polyline points="-4858,2911
-4965,2845
-5201,2907
" style="stroke:#ff0000;stroke-width:16;
stroke-linejoin:miter; stroke-linecap:butt;
"/>
<!-- Line -->
<polyline points="-4843,3011
-4995,3066
-5216,3062
" style="stroke:#ff0000;stroke-width:16;
stroke-linejoin:miter; stroke-linecap:butt;
"/>
<!-- Line -->
<polyline points="-3064,2139
-2965,2198
-2948,2312
" style="stroke:#ff0000;stroke-width:16;
stroke-linejoin:miter; stroke-linecap:butt;
"/>
<!-- Line -->
<polyline points="-2772,2151
-2852,2195
-2866,2326
" style="stroke:#ff0000;stroke-width:16;
stroke-linejoin:miter; stroke-linecap:butt;
"/>
<!-- Line -->
<polyline points="-3251,2351
-3168,2401
-2995,2391
" style="stroke:#ff0000;stroke-width:16;
stroke-linejoin:miter; stroke-linecap:butt;
"/>
<!-- Line -->
<polyline points="-3191,2596
-3138,2503
-2992,2475
" style="stroke:#ff0000;stroke-width:16;
stroke-linejoin:miter; stroke-linecap:butt;
"/>
<!-- Line -->
<polyline points="-2945,2699
-2896,2637
-2886,2536
" style="stroke:#ff0000;stroke-width:16;
stroke-linejoin:miter; stroke-linecap:butt;
"/>
<!-- Line -->
<polyline points="-2692,2435
-2777,2437
" style="stroke:#ff0000;stroke-width:16;
stroke-linejoin:miter; stroke-linecap:butt;
"/>
<!-- Line -->
<polyline points="-2530,3716
-2392,3777
-2325,3971
" style="stroke:#ff0000;stroke-width:16;
stroke-linejoin:miter; stroke-linecap:butt;
"/>
<!-- Line -->
<polyline points="-2259,3666
-2308,3746
-2257,3927
" style="stroke:#ff0000;stroke-width:16;
stroke-linejoin:miter; stroke-linecap:butt;
"/>
<!-- Line -->
<polyline points="-2638,3828
-2612,3946
-2400,4054
" style="stroke:#ff0000;stroke-width:16;
stroke-linejoin:miter; stroke-linecap:butt;
"/>
<!-- Line -->
<polyline points="-2066,3657
-2047,3799
-2141,3938
" style="stroke:#ff0000;stroke-width:16;
stroke-linejoin:miter; stroke-linecap:butt;
"/>
<!-- Line -->
<polyline points="-1341,2411
-1193,2450
-1113,2548
" style="stroke:#ff0000;stroke-width:16;
stroke-linejoin:miter; stroke-linecap:butt;
"/>
<!-- Line -->
<polyline points="-1344,2642
-1276,2682
-1155,2664
" style="stroke:#ff0000;stroke-width:16;
stroke-linejoin:miter; stroke-linecap:butt;
"/>
<!-- Line -->
<polyline points="-1818,1274
-1653,1140
" style="stroke:#ff0000;stroke-width:16;
stroke-linejoin:miter; stroke-linecap:butt;
"/>
<!-- Line -->
<polyline points="-2056,1140
-1951,1045
-1687,1035
" style="stroke:#ff0000;stroke-width:16;
stroke-linejoin:miter; stroke-linecap:butt;
"/>
<!-- Line -->
<polyline points="-3267,1042
-3243,954
-3164,892
" style="stroke:#ff0000;stroke-width:16;
stroke-linejoin:miter; stroke-linecap:butt;
"/>
<!-- Line -->
<polyline points="-2898,899
-2807,976
-2746,1089
" style="stroke:#ff0000;stroke-width:16;
stroke-linejoin:miter; stroke-linecap:butt;
"/>
<!-- Line -->
<polyline points="-3119,1204
-3041,1125
-3043,952
" style="stroke:#ff0000;stroke-width:16;
stroke-linejoin:miter; stroke-linecap:butt;
"/>
<!-- Line -->
<polyline points="-2886,1223
-2982,1160
-2984,946
" style="stroke:#ff0000;stroke-width:16;
stroke-linejoin:miter; stroke-linecap:butt;
"/>
<!-- Line -->
<polyline points="-4942,1128
-5195,1075
-5261,862
" style="stroke:#ff0000;stroke-width:16;
stroke-linejoin:miter; stroke-linecap:butt;
"/>
<!-- Line -->
<polyline points="-4677,962
-4744,769
-5142,743
" style="stroke:#ff0000;stroke-width:16;
stroke-linejoin:miter; stroke-linecap:butt;
"/>
<!-- Line -->
<polyline points="956,2699
829,2840
638,2906
" style="stroke:#ff0000;stroke-width:16;
stroke-linejoin:miter; stroke-linecap:butt;
"/>
<!-- Line -->
<polyline points="1095,3030
911,3091
660,3044
" style="stroke:#ff0000;stroke-width:16;
stroke-linejoin:miter; stroke-linecap:butt;
"/>
<!-- Line -->
<polyline points="978,1118
870,1079
786,922
" style="stroke:#ff0000;stroke-width:16;
stroke-linejoin:miter; stroke-linecap:butt;
"/>
<!-- Line -->
<polyline points="2640,1074
2643,997
2754,931
" style="stroke:#ff0000;stroke-width:16;
stroke-linejoin:miter; stroke-linecap:butt;
"/>
<!-- Line -->
<polyline points="3047,1214
2950,1174
2892,940
" style="stroke:#ff0000;stroke-width:16;
stroke-linejoin:miter; stroke-linecap:butt;
"/>
<!-- Line -->
<polyline points="3952,1163
4073,1076
4214,1068
" style="stroke:#ff0000;stroke-width:16;
stroke-linejoin:miter; stroke-linecap:butt;
"/>
<!-- Line -->
<polyline points="4598,2468
4697,2502
4791,2620
" style="stroke:#ff0000;stroke-width:16;
stroke-linejoin:miter; stroke-linecap:butt;
"/>
<!-- Line -->
<polyline points="2855,2178
2957,2233
2979,2347
" style="stroke:#ff0000;stroke-width:16;
stroke-linejoin:miter; stroke-linecap:butt;
"/>
<!-- Line -->
<polyline points="2774,2625
2784,2524
2897,2482
" style="stroke:#ff0000;stroke-width:16;
stroke-linejoin:miter; stroke-linecap:butt;
"/>
<!-- Line -->
<polyline points="3248,2502
3097,2459
" style="stroke:#ff0000;stroke-width:16;
stroke-linejoin:miter; stroke-linecap:butt;
"/>
<!-- Line -->
<polyline points="3376,3720
3524,3793
3610,4072
" style="stroke:#ff0000;stroke-width:16;
stroke-linejoin:miter; stroke-linecap:butt;
"/>
<!-- Line -->
<polyline points="-3006,2580
-4983,2949
" style="stroke:#000000;stroke-width:32;
stroke-linejoin:miter; stroke-linecap:butt;
"/>
<!-- Line -->
<polyline points="-5144,2707
-3054,2299
" style="stroke:#000000;stroke-width:32;
stroke-linejoin:miter; stroke-linecap:butt;
"/>
<!-- Line -->
<polyline points="-4916,952
-5158,2701
" style="stroke:#000000;stroke-width:32;
stroke-linejoin:miter; stroke-linecap:butt;
"/>
<!-- Line -->
<polyline points="-3147,1065
-4916,952
" style="stroke:#000000;stroke-width:32;
stroke-linejoin:miter; stroke-linecap:butt;
"/>
<!-- Line -->
<polyline points="-3054,2299
-3147,1065
" style="stroke:#000000;stroke-width:32;
stroke-linejoin:miter; stroke-linecap:butt;
"/>
<!-- Line -->
<polyline points="-2886,1085
-2745,2285
" style="stroke:#000000;stroke-width:32;
stroke-linejoin:miter; stroke-linecap:butt;
"/>
<!-- Line -->
<polyline points="-1881,1152
-2899,1079
" style="stroke:#000000;stroke-width:32;
stroke-linejoin:miter; stroke-linecap:butt;
"/>
<!-- Line -->
<polyline points="-1291,2560
-1881,1152
" style="stroke:#000000;stroke-width:32;
stroke-linejoin:miter; stroke-linecap:butt;
"/>
<!-- Line -->
<polyline points="-2190,3779
-1291,2560
" style="stroke:#000000;stroke-width:32;
stroke-linejoin:miter; stroke-linecap:butt;
"/>
<!-- Line -->
<polyline points="-2745,2285
-2202,3779
" style="stroke:#000000;stroke-width:32;
stroke-linejoin:miter; stroke-linecap:butt;
"/>
<!-- Line -->
<polyline points="-2483,3866
-3006,2580
" style="stroke:#000000;stroke-width:32;
stroke-linejoin:miter; stroke-linecap:butt;
"/>
<!-- Line -->
<polyline points="-4983,2949
-2511,3860
" style="stroke:#000000;stroke-width:32;
stroke-linejoin:miter; stroke-linecap:butt;
"/>
<!-- Line -->
<polyline points="1011,979
775,2677
" style="stroke:#000000;stroke-width:32;
stroke-linejoin:miter; stroke-linecap:butt;
"/>
<!-- Arrowhead on XXXpoint 1011 979 - 762 2774-->
<polyline points="682 2487
767 2738
916 2519
" style="stroke:#000000;stroke-width:32;stroke-miterlimit:8;
"/>
<!-- Line -->
<polyline points="2780,1092
1061,981
" style="stroke:#000000;stroke-width:32;
stroke-linejoin:miter; stroke-linecap:butt;
"/>
<!-- Arrowhead on XXXpoint 2780 1092 - 963 976-->
<polyline points="1243 875
1000 978
1228 1110
" style="stroke:#000000;stroke-width:32;stroke-miterlimit:8;
"/>
<!-- Line -->
<polyline points="2873,2326
2783,1143
" style="stroke:#000000;stroke-width:32;
stroke-linejoin:miter; stroke-linecap:butt;
"/>
<!-- Arrowhead on XXXpoint 2873 2326 - 2775 1045-->
<polyline points="2914 1308
2779 1082
2678 1325
" style="stroke:#000000;stroke-width:32;stroke-miterlimit:8;
"/>
<!-- Line -->
<polyline points="3041,1112
3175,2261
" style="stroke:#000000;stroke-width:32;
stroke-linejoin:miter; stroke-linecap:butt;
"/>
<!-- Arrowhead on XXXpoint 3041 1112 - 3187 2359-->
<polyline points="3038 2100
3183 2322
3272 2073
" style="stroke:#000000;stroke-width:32;stroke-miterlimit:8;
"/>
<!-- Line -->
<polyline points="4046,1180
3078,1109
" style="stroke:#000000;stroke-width:32;
stroke-linejoin:miter; stroke-linecap:butt;
"/>
<!-- Arrowhead on XXXpoint 4046 1180 - 2980 1102-->
<polyline points="3260 1004
3017 1105
3244 1239
" style="stroke:#000000;stroke-width:32;stroke-miterlimit:8;
"/>
<!-- Line -->
<polyline points="4636,2587
4065,1227
" style="stroke:#000000;stroke-width:32;
stroke-linejoin:miter; stroke-linecap:butt;
"/>
<!-- Arrowhead on XXXpoint 4636 2587 - 4027 1135-->
<polyline points="4241 1341
4041 1170
4024 1434
" style="stroke:#000000;stroke-width:32;stroke-miterlimit:8;
"/>
<!-- Line -->
<polyline points="3737,3806
4605,2628
" style="stroke:#000000;stroke-width:32;
stroke-linejoin:miter; stroke-linecap:butt;
"/>
<!-- Arrowhead on XXXpoint 3737 3806 - 4663 2549-->
<polyline points="4596 2838
4641 2579
4406 2699
" style="stroke:#000000;stroke-width:32;stroke-miterlimit:8;
"/>
<!-- Line -->
<polyline points="3182,2312
3707,3757
" style="stroke:#000000;stroke-width:32;
stroke-linejoin:miter; stroke-linecap:butt;
"/>
<!-- Arrowhead on XXXpoint 3182 2312 - 3740 3850-->
<polyline points="3535 3633
3728 3816
3757 3553
" style="stroke:#000000;stroke-width:32;stroke-miterlimit:8;
"/>
<!-- Line -->
<polyline points="783,2734
2822,2334
" style="stroke:#000000;stroke-width:32;
stroke-linejoin:miter; stroke-linecap:butt;
"/>
<!-- Arrowhead on XXXpoint 783 2734 - 2919 2317-->
<polyline points="2672 2485
2882 2324
2627 2253
" style="stroke:#000000;stroke-width:32;stroke-miterlimit:8;
"/>
<!-- Line -->
<polyline points="2920,2607
994,2966
" style="stroke:#000000;stroke-width:32;
stroke-linejoin:miter; stroke-linecap:butt;
"/>
<!-- Arrowhead on XXXpoint 2920 2607 - 896 2984-->
<polyline points="1143 2817
933 2977
1186 3049
" style="stroke:#000000;stroke-width:32;stroke-miterlimit:8;
"/>
<!-- Line -->
<polyline points="943,2976
3367,3869
" style="stroke:#000000;stroke-width:32;
stroke-linejoin:miter; stroke-linecap:butt;
"/>
<!-- Arrowhead on XXXpoint 943 2976 - 3460 3903-->
<polyline points="3162 3919
3425 3890
3244 3697
" style="stroke:#000000;stroke-width:32;stroke-miterlimit:8;
"/>
<!-- Line -->
<polyline points="3443,3893
2939,2655
" style="stroke:#000000;stroke-width:32;
stroke-linejoin:miter; stroke-linecap:butt;
"/>
<!-- Arrowhead on XXXpoint 3443 3893 - 2902 2563-->
<polyline points="3113 2772
2916 2598
2895 2860
" style="stroke:#000000;stroke-width:32;stroke-miterlimit:8;
"/>
<!-- Arc -->
<path style="stroke:#343434;stroke-width:16;stroke-linecap:butt;"
d="M -2678,3397 A 196 196  0  1  1 -2359  3287 " />
<!-- Arc -->
<path style="stroke:#343434;stroke-width:16;stroke-linecap:butt;"
d="M -3448,2409 A 311 311  0  0  1 -3070  1984 " />
<!-- Arc -->
<path style="stroke:#343434;stroke-width:16;stroke-linecap:butt;"
d="M -1484,2114 A 216 216  0  1  1 -1643  1719 " />
<!-- Arc -->
<path style="stroke:#2a2a2a;stroke-width:16;stroke-linecap:butt;"
d="M 2478,2436 A 311 311  0  0  1  2856  2011 " />
<!-- Arrowhead on XXXpoint 2714 2001 - 2856 2011-->
<polyline points="2706 2062
2837 2010
2716 1938
" style="stroke:#2a2a2a;stroke-width:16;stroke-miterlimit:8;
"/>
<!-- Arc -->
<path style="stroke:#2a2a2a;stroke-width:16;stroke-linecap:butt;"
d="M 3249,3424 A 196 196  0  1  1  3568  3314 " />
<!-- Circle -->
<circle cx="-5228" cy="780" r="198"
 style="fill:#5a5a5a;stroke:#5a5a5a;stroke-width:8;"/>
<!-- Circle -->
<circle cx="-5382" cy="2993" r="198"
 style="fill:#5a5a5a;stroke:#5a5a5a;stroke-width:8;"/>
<!-- Circle -->
<circle cx="-2233" cy="4115" r="198"
 style="fill:#5a5a5a;stroke:#5a5a5a;stroke-width:8;"/>
<!-- Circle -->
<circle cx="-987" cy="2654" r="198"
 style="fill:#5a5a5a;stroke:#5a5a5a;stroke-width:8;"/>
<!-- Circle -->
<circle cx="-1532" cy="1017" r="198"
 style="fill:#5a5a5a;stroke:#5a5a5a;stroke-width:8;"/>
<!-- Circle -->
<circle cx="-3025" cy="760" r="198"
 style="fill:#5a5a5a;stroke:#5a5a5a;stroke-width:8;"/>
<!-- Circle -->
<circle cx="-2895" cy="2422" r="131"
 style="fill:#5a5a5a;stroke:#5a5a5a;stroke-width:8;"/>
<!-- Circle -->
<circle cx="676" cy="804" r="198"
 style="fill:#5a5a5a;stroke:#5a5a5a;stroke-width:8;"/>
<!-- Circle -->
<circle cx="521" cy="3017" r="198"
 style="fill:#5a5a5a;stroke:#5a5a5a;stroke-width:8;"/>
<!-- Circle -->
<circle cx="3671" cy="4139" r="198"
 style="fill:#5a5a5a;stroke:#5a5a5a;stroke-width:8;"/>
<!-- Circle -->
<circle cx="4916" cy="2678" r="198"
 style="fill:#5a5a5a;stroke:#5a5a5a;stroke-width:8;"/>
<!-- Circle -->
<circle cx="4371" cy="1041" r="198"
 style="fill:#5a5a5a;stroke:#5a5a5a;stroke-width:8;"/>
<!-- Circle -->
<circle cx="2878" cy="784" r="198"
 style="fill:#5a5a5a;stroke:#5a5a5a;stroke-width:8;"/>
<!-- Circle -->
<circle cx="3008" cy="2446" r="131"
 style="fill:#5a5a5a;stroke:#5a5a5a;stroke-width:8;"/>
<!-- Text -->
<text xml:space="preserve" x="-3537" y="2093" fill="#000000"  font-family="Times,Symbol" font-style="normal" font-weight="normal" font-size="202" text-anchor="start">&#49;</text>
<!-- Text -->
<text xml:space="preserve" x="-3758" y="1994" fill="#000000"  font-family="Times,Symbol" font-style="normal" font-weight="normal" font-size="278" text-anchor="start">&#945;</text>
<!-- Text -->
<text xml:space="preserve" x="-2124" y="3241" fill="#000000"  font-family="Times,Symbol" font-style="normal" font-weight="normal" font-size="202" text-anchor="start">&#50;</text>
<!-- Text -->
<text xml:space="preserve" x="-2368" y="3155" fill="#000000"  font-family="Times,Symbol" font-style="normal" font-weight="normal" font-size="278" text-anchor="start">&#945;</text>
<!-- Text -->
<text xml:space="preserve" x="-1872" y="2290" fill="#000000"  font-family="Times,Symbol" font-style="normal" font-weight="normal" font-size="202" text-anchor="start">&#48;</text>
<!-- Text -->
<text xml:space="preserve" x="-2128" y="2183" fill="#000000"  font-family="Times,Symbol" font-style="normal" font-weight="normal" font-size="278" text-anchor="start">&#945;</text>
<!-- Text -->
<text xml:space="preserve" x="2374" y="2132" fill="#000000"  font-family="Times,Symbol" font-style="normal" font-weight="normal" font-size="202" text-anchor="start">&#49;</text>
<!-- Text -->
<text xml:space="preserve" x="2170" y="2037" fill="#000000"  font-family="Times,Symbol" font-style="normal" font-weight="normal" font-size="278" text-anchor="start">&#946;</text>
<!-- Text -->
<text xml:space="preserve" x="3791" y="3331" fill="#000000"  font-family="Times,Symbol" font-style="normal" font-weight="normal" font-size="202" text-anchor="start">&#50;</text>
<!-- Text -->
<text xml:space="preserve" x="3586" y="3236" fill="#000000"  font-family="Times,Symbol" font-style="normal" font-weight="normal" font-size="278" text-anchor="start">&#946;</text>
<!-- Circle -->
<circle cx="-4906" cy="950" r="67"
 style="fill:#5d5d5d;stroke:#5d5d5d;stroke-width:0;"/>
<!-- Circle -->
<circle cx="-5140" cy="2702" r="67"
 style="fill:#5d5d5d;stroke:#5d5d5d;stroke-width:0;"/>
<!-- Circle -->
<circle cx="-4985" cy="2955" r="67"
 style="fill:#5d5d5d;stroke:#5d5d5d;stroke-width:0;"/>
<!-- Circle -->
<circle cx="-3149" cy="1071" r="67"
 style="fill:#5d5d5d;stroke:#5d5d5d;stroke-width:0;"/>
<!-- Circle -->
<circle cx="-2879" cy="1088" r="67"
 style="fill:#5d5d5d;stroke:#5d5d5d;stroke-width:0;"/>
<!-- Circle -->
<circle cx="-2489" cy="3861" r="67"
 style="fill:#5d5d5d;stroke:#5d5d5d;stroke-width:0;"/>
<!-- Circle -->
<circle cx="-2183" cy="3779" r="67"
 style="fill:#5d5d5d;stroke:#5d5d5d;stroke-width:0;"/>
<!-- Circle -->
<circle cx="-1295" cy="2560" r="67"
 style="fill:#5d5d5d;stroke:#5d5d5d;stroke-width:0;"/>
<!-- Circle -->
<circle cx="-1879" cy="1158" r="67"
 style="fill:#5d5d5d;stroke:#5d5d5d;stroke-width:0;"/>
<!-- Circle -->
<circle cx="-3069" cy="2286" r="67"
 style="fill:#5d5d5d;stroke:#5d5d5d;stroke-width:0;"/>
<!-- Circle -->
<circle cx="-3021" cy="2604" r="67"
 style="fill:#5d5d5d;stroke:#5d5d5d;stroke-width:0;"/>
<!-- Circle -->
<circle cx="-2719" cy="2270" r="67"
 style="fill:#5d5d5d;stroke:#5d5d5d;stroke-width:0;"/>
</g>
</svg>
