<?xml version="1.0" standalone="no"?>
<!DOCTYPE svg PUBLIC "-//W3C//DTD SVG 1.1//EN"
"http://www.w3.org/Graphics/SVG/1.1/DTD/svg11.dtd">
<!-- Creator: fig2dev Version 3.2.6 -->
<!-- CreationDate: Mon Nov 21 08:46:35 2016 -->
<!-- Magnification: 1.050 -->
<svg	xmlns="http://www.w3.org/2000/svg"
	xmlns:xlink="http://www.w3.org/1999/xlink"
	width="11.9in" height="3.2in"
	viewBox="-253 -405 14228 3870">
<g style="stroke-width:.025in; fill:none">
<!-- Line -->
<polyline points="3314,1917
3825,409
" style="stroke:#000000;stroke-width:16;
stroke-linejoin:round; stroke-linecap:butt;
"/>
<!-- Arrowhead on XXXpoint 3314 1917 - 3846 347-->
<polyline points="3879 653
3840 365
3633 569
" style="stroke:#000000;stroke-width:16;stroke-miterlimit:8;
"/>
<!-- Line -->
<polyline points="11251,1917
11774,377
" style="stroke:#000000;stroke-width:16;
stroke-linejoin:round; stroke-linecap:butt;
"/>
<!-- Line -->
<polyline points="4307,367
3782,1883
" style="stroke:#000000;stroke-width:16;
stroke-linejoin:round; stroke-linecap:butt;
"/>
<!-- Arrowhead on XXXpoint 4307 367 - 3761 1945-->
<polyline points="3729 1638
3767 1927
3975 1723
" style="stroke:#000000;stroke-width:16;stroke-miterlimit:8;
"/>
<!-- Line -->
<polyline points="12244,367
11709,1916
" style="stroke:#000000;stroke-width:16;
stroke-linejoin:round; stroke-linecap:butt;
"/>
<!-- Line -->
<polyline points="395,2702
3280,1925
" style="stroke:#000000;stroke-width:16;
stroke-linejoin:round; stroke-linecap:butt;
"/>
<!-- Arrowhead on XXXpoint 395 2702 - 3343 1908-->
<polyline points="3107 2107
3325 1913
3040 1855
" style="stroke:#000000;stroke-width:16;stroke-miterlimit:8;
"/>
<!-- Line -->
<polyline points="8332,2702
11251,1917
" style="stroke:#000000;stroke-width:16;
stroke-linejoin:round; stroke-linecap:butt;
"/>
<!-- Line -->
<polyline points="3455,2160
513,2977
" style="stroke:#000000;stroke-width:16;
stroke-linejoin:round; stroke-linecap:butt;
"/>
<!-- Arrowhead on XXXpoint 3455 2160 - 450 2995-->
<polyline points="683 2794
468 2990
752 3045
" style="stroke:#000000;stroke-width:16;stroke-miterlimit:8;
"/>
<!-- Line -->
<polyline points="11392,2160
8417,2986
" style="stroke:#000000;stroke-width:16;
stroke-linejoin:round; stroke-linecap:butt;
"/>
<!-- Line -->
<polyline points="3837,377
1089,775
" style="stroke:#000000;stroke-width:16;
stroke-linejoin:round; stroke-linecap:butt;
"/>
<!-- Arrowhead on XXXpoint 3837 377 - 1024 785-->
<polyline points="1281 615
1043 782
1319 873
" style="stroke:#000000;stroke-width:16;stroke-miterlimit:8;
"/>
<!-- Line -->
<polyline points="3772,1916
5702,2707
" style="stroke:#000000;stroke-width:16;
stroke-linejoin:round; stroke-linecap:butt;
"/>
<!-- Arrowhead on XXXpoint 3772 1916 - 5763 2732-->
<polyline points="5456 2746
5746 2725
5554 2506
" style="stroke:#000000;stroke-width:16;stroke-miterlimit:8;
"/>
<!-- Line -->
<polyline points="11774,377
8993,781
" style="stroke:#000000;stroke-width:16;
stroke-linejoin:round; stroke-linecap:butt;
"/>
<!-- Line -->
<polyline points="11709,1916
13672,2721
" style="stroke:#000000;stroke-width:16;
stroke-linejoin:round; stroke-linecap:butt;
"/>
<!-- Line -->
<polyline points="5390,3025
3485,2173
" style="stroke:#000000;stroke-width:16;
stroke-linejoin:round; stroke-linecap:butt;
"/>
<!-- Arrowhead on XXXpoint 5390 3025 - 3425 2146-->
<polyline points="3732 2141
3442 2154
3626 2379
" style="stroke:#000000;stroke-width:16;stroke-miterlimit:8;
"/>
<!-- Line -->
<polyline points="13327,3025
11392,2160
" style="stroke:#000000;stroke-width:16;
stroke-linejoin:round; stroke-linecap:butt;
"/>
<!-- Line -->
<polyline points="5250,788
4338,380
" style="stroke:#000000;stroke-width:16;
stroke-linejoin:round; stroke-linecap:butt;
"/>
<!-- Arrowhead on XXXpoint 5250 788 - 4278 353-->
<polyline points="4584 348
4295 361
4478 585
" style="stroke:#000000;stroke-width:16;stroke-miterlimit:8;
"/>
<!-- Line -->
<polyline points="13187,788
12244,367
" style="stroke:#000000;stroke-width:16;
stroke-linejoin:round; stroke-linecap:butt;
"/>
<!-- Line -->
<polyline points="4876,2786
5194,2820
5597,3100
" style="stroke:#ff0000;stroke-width:8;
stroke-linejoin:miter; stroke-linecap:butt;
"/>
<!-- Line -->
<polyline points="5683,2400
5895,2561
5948,3036
" style="stroke:#ff0000;stroke-width:8;
stroke-linejoin:miter; stroke-linecap:butt;
"/>
<!-- Line -->
<polyline points="3982,-73
3637,-23
3620,387
" style="stroke:#ff0000;stroke-width:8;
stroke-linejoin:miter; stroke-linecap:butt;
"/>
<!-- Line -->
<polyline points="4362,44
4155,356
4261,504
" style="stroke:#ff0000;stroke-width:8;
stroke-linejoin:miter; stroke-linecap:butt;
"/>
<!-- Line -->
<polyline points="5491,724
5545,1100
5243,1141
" style="stroke:#ff0000;stroke-width:8;
stroke-linejoin:miter; stroke-linecap:butt;
"/>
<!-- Line -->
<polyline points="1123,360
1480,271
1673,493
" style="stroke:#ff0000;stroke-width:8;
stroke-linejoin:miter; stroke-linecap:butt;
"/>
<!-- Line -->
<polyline points="12813,2786
13131,2820
13534,3100
" style="stroke:#ff0000;stroke-width:8;
stroke-linejoin:miter; stroke-linecap:butt;
"/>
<!-- Line -->
<polyline points="13620,2400
13832,2561
13885,3036
" style="stroke:#ff0000;stroke-width:8;
stroke-linejoin:miter; stroke-linecap:butt;
"/>
<!-- Line -->
<polyline points="11919,-73
11574,-23
11558,387
" style="stroke:#ff0000;stroke-width:8;
stroke-linejoin:miter; stroke-linecap:butt;
"/>
<!-- Line -->
<polyline points="12299,44
12092,356
12198,504
" style="stroke:#ff0000;stroke-width:8;
stroke-linejoin:miter; stroke-linecap:butt;
"/>
<!-- Line -->
<polyline points="13428,724
13482,1100
13180,1141
" style="stroke:#ff0000;stroke-width:8;
stroke-linejoin:miter; stroke-linecap:butt;
"/>
<!-- Line -->
<polyline points="9060,360
9417,271
9610,493
" style="stroke:#ff0000;stroke-width:8;
stroke-linejoin:miter; stroke-linecap:butt;
"/>
<!-- Line -->
<polyline points="1213,566
4012,188
" style="stroke:#000000;stroke-width:16;
stroke-linejoin:round; stroke-linecap:butt;
"/>
<!-- Arrowhead on XXXpoint 1213 566 - 4077 181-->
<polyline points="3817 346
4058 183
3782 89
" style="stroke:#000000;stroke-width:16;stroke-miterlimit:8;
"/>
<!-- Line -->
<polyline points="9150,566
11984,185
" style="stroke:#000000;stroke-width:16;
stroke-linejoin:round; stroke-linecap:butt;
"/>
<!-- Line -->
<polyline points="1056,781
406,2669
" style="stroke:#000000;stroke-width:16;
stroke-linejoin:round; stroke-linecap:butt;
"/>
<!-- Arrowhead on XXXpoint 1056 781 - 385 2731-->
<polyline points="352 2425
391 2713
598 2509
" style="stroke:#000000;stroke-width:16;stroke-miterlimit:8;
"/>
<!-- Line -->
<polyline points="8993,781
8332,2702
" style="stroke:#000000;stroke-width:16;
stroke-linejoin:round; stroke-linecap:butt;
"/>
<!-- Line -->
<polyline points="4047,185
4929,564
" style="stroke:#000000;stroke-width:16;
stroke-linejoin:round; stroke-linecap:butt;
"/>
<!-- Arrowhead on XXXpoint 4047 185 - 4988 590-->
<polyline points="4681 599
4972 582
4784 360
" style="stroke:#000000;stroke-width:16;stroke-miterlimit:8;
"/>
<!-- Line -->
<polyline points="11984,185
12897,578
" style="stroke:#000000;stroke-width:16;
stroke-linejoin:round; stroke-linecap:butt;
"/>
<!-- Line -->
<polyline points="114,2844
771,871
" style="stroke:#000000;stroke-width:16;
stroke-linejoin:round; stroke-linecap:butt;
"/>
<!-- Arrowhead on XXXpoint 114 2844 - 791 809-->
<polyline points="826 1114
785 827
579 1033
" style="stroke:#000000;stroke-width:16;stroke-miterlimit:8;
"/>
<!-- Line -->
<polyline points="8051,2844
8719,839
" style="stroke:#000000;stroke-width:16;
stroke-linejoin:round; stroke-linecap:butt;
"/>
<!-- Line -->
<polyline points="5735,2721
5257,820
" style="stroke:#000000;stroke-width:16;
stroke-linejoin:round; stroke-linecap:butt;
"/>
<!-- Arrowhead on XXXpoint 5735 2721 - 5241 756-->
<polyline points="5435 995
5246 774
5183 1058
" style="stroke:#000000;stroke-width:16;stroke-miterlimit:8;
"/>
<!-- Line -->
<polyline points="13672,2721
13187,788
" style="stroke:#000000;stroke-width:16;
stroke-linejoin:round; stroke-linecap:butt;
"/>
<!-- Line -->
<polyline points="603,2667
222,3117
" style="stroke:#ff0000;stroke-width:8;
stroke-linejoin:miter; stroke-linecap:butt;
"/>
<!-- Line -->
<polyline points="2068,2909
1634,2970
1624,3134
" style="stroke:#ff0000;stroke-width:8;
stroke-linejoin:miter; stroke-linecap:butt;
"/>
<!-- Line -->
<polyline points="2416,907
2678,850
2973,976
" style="stroke:#ff0000;stroke-width:8;
stroke-linejoin:miter; stroke-linecap:butt;
"/>
<!-- Line -->
<polyline points="935,1145
797,721
" style="stroke:#ff0000;stroke-width:8;
stroke-linejoin:miter; stroke-linecap:butt;
"/>
<!-- Line -->
<polyline points="4617,612
4774,769
5250,697
" style="stroke:#ff0000;stroke-width:8;
stroke-linejoin:miter; stroke-linecap:butt;
"/>
<!-- Line -->
<polyline points="8540,2667
8159,3117
" style="stroke:#ff0000;stroke-width:8;
stroke-linejoin:miter; stroke-linecap:butt;
"/>
<!-- Line -->
<polyline points="10005,2909
9571,2970
9561,3134
" style="stroke:#ff0000;stroke-width:8;
stroke-linejoin:miter; stroke-linecap:butt;
"/>
<!-- Line -->
<polyline points="10353,907
10615,850
10910,976
" style="stroke:#ff0000;stroke-width:8;
stroke-linejoin:miter; stroke-linecap:butt;
"/>
<!-- Line -->
<polyline points="8872,1145
8804,734
" style="stroke:#ff0000;stroke-width:8;
stroke-linejoin:miter; stroke-linecap:butt;
"/>
<!-- Line -->
<polyline points="12554,612
12711,769
13187,697
" style="stroke:#ff0000;stroke-width:8;
stroke-linejoin:miter; stroke-linecap:butt;
"/>
<!-- Line -->
<polyline points="5182,849
5683,2845
" style="stroke:#000000;stroke-width:16;
stroke-linejoin:round; stroke-linecap:butt;
"/>
<!-- Arrowhead on XXXpoint 5182 849 - 5699 2909-->
<polyline points="5505 2669
5695 2891
5757 2606
" style="stroke:#000000;stroke-width:16;stroke-miterlimit:8;
"/>
<!-- Line -->
<polyline points="13119,849
13629,2878
" style="stroke:#000000;stroke-width:16;
stroke-linejoin:round; stroke-linecap:butt;
"/>
<!-- Line -->
<polyline points="480,2986
2270,3344
" style="stroke:#000000;stroke-width:16;
stroke-linejoin:round; stroke-linecap:butt;
"/>
<!-- Arrowhead on XXXpoint 480 2986 - 2334 3356-->
<polyline points="2035 3429
2317 3353
2087 3174
" style="stroke:#000000;stroke-width:16;stroke-miterlimit:8;
"/>
<!-- Line -->
<polyline points="8417,2986
10241,3351
" style="stroke:#000000;stroke-width:16;
stroke-linejoin:round; stroke-linecap:butt;
"/>
<!-- Line -->
<polyline points="2386,651
1247,567
" style="stroke:#000000;stroke-width:16;
stroke-linejoin:round; stroke-linecap:butt;
"/>
<!-- Arrowhead on XXXpoint 2386 651 - 1182 563-->
<polyline points="1469 453
1201 564
1450 712
" style="stroke:#000000;stroke-width:16;stroke-miterlimit:8;
"/>
<!-- Line -->
<polyline points="10323,651
9150,566
" style="stroke:#000000;stroke-width:16;
stroke-linejoin:round; stroke-linecap:butt;
"/>
<!-- Line -->
<polyline points="4960,578
2419,650
" style="stroke:#000000;stroke-width:16;
stroke-linejoin:round; stroke-linecap:butt;
"/>
<!-- Arrowhead on XXXpoint 4960 578 - 2354 651-->
<polyline points="2629 513
2373 650
2637 772
" style="stroke:#000000;stroke-width:16;stroke-miterlimit:8;
"/>
<!-- Line -->
<polyline points="12897,578
10323,651
" style="stroke:#000000;stroke-width:16;
stroke-linejoin:round; stroke-linecap:butt;
"/>
<!-- Line -->
<polyline points="1837,3159
146,2849
" style="stroke:#000000;stroke-width:16;
stroke-linejoin:round; stroke-linecap:butt;
"/>
<!-- Arrowhead on XXXpoint 1837 3159 - 82 2837-->
<polyline points="380 2759
100 2840
332 3015
" style="stroke:#000000;stroke-width:16;stroke-miterlimit:8;
"/>
<!-- Line -->
<polyline points="9774,3159
8051,2844
" style="stroke:#000000;stroke-width:16;
stroke-linejoin:round; stroke-linecap:butt;
"/>
<!-- Line -->
<polyline points="782,839
1840,986
" style="stroke:#000000;stroke-width:16;
stroke-linejoin:round; stroke-linecap:butt;
"/>
<!-- Arrowhead on XXXpoint 782 839 - 1905 996-->
<polyline points="1610 1086
1886 994
1646 829
" style="stroke:#000000;stroke-width:16;stroke-miterlimit:8;
"/>
<!-- Line -->
<polyline points="8719,839
9812,992
" style="stroke:#000000;stroke-width:16;
stroke-linejoin:round; stroke-linecap:butt;
"/>
<!-- Line -->
<polyline points="2304,3351
5355,3027
" style="stroke:#000000;stroke-width:16;
stroke-linejoin:round; stroke-linecap:butt;
"/>
<!-- Arrowhead on XXXpoint 2304 3351 - 5420 3021-->
<polyline points="5155 3180
5401 3023
5128 2920
" style="stroke:#000000;stroke-width:16;stroke-miterlimit:8;
"/>
<!-- Line -->
<polyline points="10241,3351
13327,3025
" style="stroke:#000000;stroke-width:16;
stroke-linejoin:round; stroke-linecap:butt;
"/>
<!-- Line -->
<polyline points="2570,983
5147,850
" style="stroke:#000000;stroke-width:16;
stroke-linejoin:round; stroke-linecap:butt;
"/>
<!-- Arrowhead on XXXpoint 2570 983 - 5212 847-->
<polyline points="4939 991
5193 848
4927 731
" style="stroke:#000000;stroke-width:16;stroke-miterlimit:8;
"/>
<!-- Line -->
<polyline points="10507,983
13119,849
" style="stroke:#000000;stroke-width:16;
stroke-linejoin:round; stroke-linecap:butt;
"/>
<!-- Line -->
<polyline points="5692,2878
2602,3169
" style="stroke:#000000;stroke-width:16;
stroke-linejoin:round; stroke-linecap:butt;
"/>
<!-- Arrowhead on XXXpoint 5692 2878 - 2537 3174-->
<polyline points="2803 3018
2556 3172
2827 3277
" style="stroke:#000000;stroke-width:16;stroke-miterlimit:8;
"/>
<!-- Line -->
<polyline points="13629,2878
10506,3172
" style="stroke:#000000;stroke-width:16;
stroke-linejoin:round; stroke-linecap:butt;
"/>
<!-- Line -->
<polyline points="1875,992
1837,3124
" style="stroke:#000000;stroke-width:16;
stroke-linejoin:round; stroke-linecap:butt;
"/>
<!-- Arrowhead on XXXpoint 1875 992 - 1836 3189-->
<polyline points="1710 2907
1836 3170
1970 2912
" style="stroke:#000000;stroke-width:16;stroke-miterlimit:8;
"/>
<!-- Line -->
<polyline points="9812,992
9774,3159
" style="stroke:#000000;stroke-width:16;
stroke-linejoin:round; stroke-linecap:butt;
"/>
<!-- Line -->
<polyline points="2569,3172
2570,1017
" style="stroke:#000000;stroke-width:16;
stroke-linejoin:round; stroke-linecap:butt;
"/>
<!-- Arrowhead on XXXpoint 2569 3172 - 2570 952-->
<polyline points="2699 1230
2570 971
2438 1230
" style="stroke:#000000;stroke-width:16;stroke-miterlimit:8;
"/>
<!-- Line -->
<polyline points="10506,3172
10507,983
" style="stroke:#000000;stroke-width:16;
stroke-linejoin:round; stroke-linecap:butt;
"/>
<!-- Line -->
<polyline points="2444,1740
2562,1658
" style="stroke:#000000;stroke-width:8;
stroke-linejoin:miter; stroke-linecap:butt;
"/>
<!-- Line -->
<polyline points="222,2494
-65,2737
-49,2981
" style="stroke:#ff0000;stroke-width:8;
stroke-linejoin:miter; stroke-linecap:butt;
"/>
<!-- Line -->
<polyline points="219,3215
534,3301
868,3070
" style="stroke:#ff0000;stroke-width:8;
stroke-linejoin:miter; stroke-linecap:butt;
"/>
<!-- Line -->
<polyline points="2580,2660
2359,2726
" style="stroke:#ff0000;stroke-width:8;
stroke-linejoin:miter; stroke-linecap:butt;
"/>
<!-- Line -->
<polyline points="2535,3341
2331,3174
" style="stroke:#ff0000;stroke-width:8;
stroke-linejoin:miter; stroke-linecap:butt;
"/>
<!-- Line -->
<polyline points="2275,786
2298,665
" style="stroke:#ff0000;stroke-width:8;
stroke-linejoin:miter; stroke-linecap:butt;
"/>
<!-- Line -->
<polyline points="4277,60
4155,232
" style="stroke:#ff0000;stroke-width:8;
stroke-linejoin:miter; stroke-linecap:butt;
"/>
<!-- Line -->
<polyline points="5150,536
4981,662
" style="stroke:#ff0000;stroke-width:8;
stroke-linejoin:miter; stroke-linecap:butt;
"/>
<!-- Line -->
<polyline points="3609,1682
3464,1440
" style="stroke:#ff0000;stroke-width:8;
stroke-linejoin:miter; stroke-linecap:butt;
"/>
<!-- Line -->
<polyline points="3311,2019
3188,2212
" style="stroke:#ff0000;stroke-width:8;
stroke-linejoin:miter; stroke-linecap:butt;
"/>
<!-- Line -->
<polyline points="5661,3027
5482,2901
" style="stroke:#ff0000;stroke-width:8;
stroke-linejoin:miter; stroke-linecap:butt;
"/>
<!-- Line -->
<polyline points="3625,1967
3843,2122
4066,2041
" style="stroke:#ff0000;stroke-width:8;
stroke-linejoin:miter; stroke-linecap:butt;
"/>
<!-- Line -->
<polyline points="962,860
928,747
" style="stroke:#ff0000;stroke-width:8;
stroke-linejoin:miter; stroke-linecap:butt;
"/>
<!-- Line -->
<polyline points="2062,1184
1841,1250
" style="stroke:#ff0000;stroke-width:8;
stroke-linejoin:miter; stroke-linecap:butt;
"/>
<!-- Line -->
<polyline points="8159,2494
7871,2737
7887,2981
" style="stroke:#ff0000;stroke-width:8;
stroke-linejoin:miter; stroke-linecap:butt;
"/>
<!-- Line -->
<polyline points="8156,3215
8471,3301
8805,3070
" style="stroke:#ff0000;stroke-width:8;
stroke-linejoin:miter; stroke-linecap:butt;
"/>
<!-- Line -->
<polyline points="10517,2660
10296,2726
" style="stroke:#ff0000;stroke-width:8;
stroke-linejoin:miter; stroke-linecap:butt;
"/>
<!-- Line -->
<polyline points="10472,3341
10268,3174
" style="stroke:#ff0000;stroke-width:8;
stroke-linejoin:miter; stroke-linecap:butt;
"/>
<!-- Line -->
<polyline points="10212,786
10235,665
" style="stroke:#ff0000;stroke-width:8;
stroke-linejoin:miter; stroke-linecap:butt;
"/>
<!-- Line -->
<polyline points="12214,60
12092,232
" style="stroke:#ff0000;stroke-width:8;
stroke-linejoin:miter; stroke-linecap:butt;
"/>
<!-- Line -->
<polyline points="13087,536
12918,662
" style="stroke:#ff0000;stroke-width:8;
stroke-linejoin:miter; stroke-linecap:butt;
"/>
<!-- Line -->
<polyline points="11546,1682
11401,1440
" style="stroke:#ff0000;stroke-width:8;
stroke-linejoin:miter; stroke-linecap:butt;
"/>
<!-- Line -->
<polyline points="11248,2019
11125,2212
" style="stroke:#ff0000;stroke-width:8;
stroke-linejoin:miter; stroke-linecap:butt;
"/>
<!-- Line -->
<polyline points="13598,3027
13419,2901
" style="stroke:#ff0000;stroke-width:8;
stroke-linejoin:miter; stroke-linecap:butt;
"/>
<!-- Line -->
<polyline points="11562,1967
11780,2122
12003,2041
" style="stroke:#ff0000;stroke-width:8;
stroke-linejoin:miter; stroke-linecap:butt;
"/>
<!-- Line -->
<polyline points="8899,860
8865,747
" style="stroke:#ff0000;stroke-width:8;
stroke-linejoin:miter; stroke-linecap:butt;
"/>
<!-- Line -->
<polyline points="10000,1184
9778,1250
" style="stroke:#ff0000;stroke-width:8;
stroke-linejoin:miter; stroke-linecap:butt;
"/>
<!-- Line -->
<polyline points="10512,2530
10662,2553
" style="stroke:#000000;stroke-width:8;
stroke-linejoin:miter; stroke-linecap:butt;
"/>
<!-- Line -->
<polyline points="8088,3022
8264,2573
8397,2458
" style="stroke:#ff0000;stroke-width:8;
stroke-linejoin:miter; stroke-linecap:butt;
"/>
<!-- Line -->
<polyline points="8242,2890
8115,3053
" style="stroke:#ff0000;stroke-width:8;
stroke-linejoin:miter; stroke-linecap:butt;
"/>
<!-- Line -->
<polyline points="8551,2957
8355,2931
8173,3169
" style="stroke:#ff0000;stroke-width:8;
stroke-linejoin:miter; stroke-linecap:butt;
"/>
<!-- Line -->
<polyline points="9790,2856
9979,2859
" style="stroke:#ff0000;stroke-width:8;
stroke-linejoin:miter; stroke-linecap:butt;
"/>
<!-- Line -->
<polyline points="9989,3287
10087,3149
" style="stroke:#ff0000;stroke-width:8;
stroke-linejoin:miter; stroke-linecap:butt;
"/>
<!-- Line -->
<polyline points="10706,3143
10612,2999
10435,2973
" style="stroke:#ff0000;stroke-width:8;
stroke-linejoin:miter; stroke-linecap:butt;
"/>
<!-- Line -->
<polyline points="8651,1005
8524,804
8662,637
" style="stroke:#ff0000;stroke-width:8;
stroke-linejoin:miter; stroke-linecap:butt;
"/>
<!-- Line -->
<polyline points="9223,739
9069,604
" style="stroke:#ff0000;stroke-width:8;
stroke-linejoin:miter; stroke-linecap:butt;
"/>
<!-- Line -->
<polyline points="9435,578
9212,425
9091,445
" style="stroke:#ff0000;stroke-width:8;
stroke-linejoin:miter; stroke-linecap:butt;
"/>
<!-- Line -->
<polyline points="9616,963
9744,853
9943,856
" style="stroke:#ff0000;stroke-width:8;
stroke-linejoin:miter; stroke-linecap:butt;
"/>
<!-- Line -->
<polyline points="10556,641
10533,781
10291,856
" style="stroke:#ff0000;stroke-width:8;
stroke-linejoin:miter; stroke-linecap:butt;
"/>
<!-- Line -->
<polyline points="10497,1169
10327,1101
" style="stroke:#ff0000;stroke-width:8;
stroke-linejoin:miter; stroke-linecap:butt;
"/>
<!-- Line -->
<polyline points="11779,206
11799,67
11962,-20
" style="stroke:#ff0000;stroke-width:8;
stroke-linejoin:miter; stroke-linecap:butt;
"/>
<!-- Line -->
<polyline points="11708,559
12014,347
12109,67
" style="stroke:#ff0000;stroke-width:8;
stroke-linejoin:miter; stroke-linecap:butt;
"/>
<!-- Line -->
<polyline points="12425,438
12412,187
12321,2
" style="stroke:#ff0000;stroke-width:8;
stroke-linejoin:miter; stroke-linecap:butt;
"/>
<!-- Line -->
<polyline points="12696,471
12869,383
13093,423
" style="stroke:#ff0000;stroke-width:8;
stroke-linejoin:miter; stroke-linecap:butt;
"/>
<!-- Line -->
<polyline points="13244,985
13348,898
13351,728
" style="stroke:#ff0000;stroke-width:8;
stroke-linejoin:miter; stroke-linecap:butt;
"/>
<!-- Line -->
<polyline points="12943,872
13047,781
13208,719
" style="stroke:#ff0000;stroke-width:8;
stroke-linejoin:miter; stroke-linecap:butt;
"/>
<!-- Line -->
<polyline points="11009,1971
11065,1828
11133,1805
" style="stroke:#ff0000;stroke-width:8;
stroke-linejoin:miter; stroke-linecap:butt;
"/>
<!-- Line -->
<polyline points="11604,2242
11607,2121
11496,2039
" style="stroke:#ff0000;stroke-width:8;
stroke-linejoin:miter; stroke-linecap:butt;
"/>
<!-- Line -->
<polyline points="11779,1714
11587,1788
" style="stroke:#ff0000;stroke-width:8;
stroke-linejoin:miter; stroke-linecap:butt;
"/>
<!-- Line -->
<polyline points="13051,3059
13198,3241
13488,3245
" style="stroke:#ff0000;stroke-width:8;
stroke-linejoin:miter; stroke-linecap:butt;
"/>
<!-- Line -->
<polyline points="13495,2651
13501,2726
13759,2840
13759,2991
" style="stroke:#ff0000;stroke-width:8;
stroke-linejoin:miter; stroke-linecap:butt;
"/>
<!-- Line -->
<polyline points="13544,2508
13792,2613
13818,2981
" style="stroke:#ff0000;stroke-width:8;
stroke-linejoin:miter; stroke-linecap:butt;
"/>
<!-- Text -->
<text xml:space="preserve" x="2302" y="1828" fill="#000000"  font-family="Times" font-style="normal" font-weight="normal" font-size="265" text-anchor="start">r</text>
<!-- Text -->
<text xml:space="preserve" x="10691" y="2650" fill="#000000"  font-family="Times" font-style="normal" font-weight="normal" font-size="265" text-anchor="start">r</text>
<!-- Circle -->
<circle cx="2258" cy="2942" r="234"
 style="stroke:#000000;stroke-width:16;"/>
<!-- Circle -->
<circle cx="2186" cy="997" r="234"
 style="stroke:#000000;stroke-width:16;"/>
<!-- Circle -->
<circle cx="5382" cy="508" r="234"
 style="stroke:#000000;stroke-width:16;"/>
<!-- Circle -->
<circle cx="5788" cy="3215" r="234"
 style="stroke:#000000;stroke-width:16;"/>
<!-- Circle -->
<circle cx="4216" cy="-155" r="234"
 style="stroke:#000000;stroke-width:16;"/>
<!-- Circle -->
<circle cx="914" cy="508" r="234"
 style="stroke:#000000;stroke-width:16;"/>
<!-- Circle -->
<circle cx="-3" cy="3208" r="234"
 style="stroke:#000000;stroke-width:16;"/>
<!-- Circle -->
<circle cx="10195" cy="2942" r="234"
 style="stroke:#000000;stroke-width:16;"/>
<!-- Circle -->
<circle cx="10123" cy="997" r="234"
 style="stroke:#000000;stroke-width:16;"/>
<!-- Circle -->
<circle cx="13319" cy="508" r="234"
 style="stroke:#000000;stroke-width:16;"/>
<!-- Circle -->
<circle cx="13725" cy="3215" r="234"
 style="stroke:#000000;stroke-width:16;"/>
<!-- Circle -->
<circle cx="12153" cy="-155" r="234"
 style="stroke:#000000;stroke-width:16;"/>
<!-- Circle -->
<circle cx="7933" cy="3208" r="234"
 style="stroke:#000000;stroke-width:16;"/>
<!-- Circle -->
<circle cx="8851" cy="508" r="234"
 style="stroke:#000000;stroke-width:16;"/>
<!-- Text -->
<text xml:space="preserve" x="2133" y="3019" fill="#000000"  font-family="Times" font-style="normal" font-weight="normal" font-size="215" text-anchor="start">p0</text>
<!-- Text -->
<text xml:space="preserve" x="2067" y="1050" fill="#000000"  font-family="Times" font-style="normal" font-weight="normal" font-size="215" text-anchor="start">p5</text>
<!-- Text -->
<text xml:space="preserve" x="5262" y="561" fill="#000000"  font-family="Times" font-style="normal" font-weight="normal" font-size="215" text-anchor="start">p6</text>
<!-- Text -->
<text xml:space="preserve" x="5669" y="3269" fill="#000000"  font-family="Times" font-style="normal" font-weight="normal" font-size="215" text-anchor="start">p1</text>
<!-- Text -->
<text xml:space="preserve" x="4096" y="-101" fill="#000000"  font-family="Times" font-style="normal" font-weight="normal" font-size="215" text-anchor="start">p7</text>
<!-- Text -->
<text xml:space="preserve" x="794" y="561" fill="#000000"  font-family="Times" font-style="normal" font-weight="normal" font-size="215" text-anchor="start">p4</text>
<!-- Text -->
<text xml:space="preserve" x="-122" y="3261" fill="#000000"  font-family="Times" font-style="normal" font-weight="normal" font-size="215" text-anchor="start">p3</text>
<!-- Text -->
<text xml:space="preserve" x="10070" y="3019" fill="#000000"  font-family="Times" font-style="normal" font-weight="normal" font-size="215" text-anchor="start">p0</text>
<!-- Text -->
<text xml:space="preserve" x="10004" y="1050" fill="#000000"  font-family="Times" font-style="normal" font-weight="normal" font-size="215" text-anchor="start">p5</text>
<!-- Text -->
<text xml:space="preserve" x="13200" y="561" fill="#000000"  font-family="Times" font-style="normal" font-weight="normal" font-size="215" text-anchor="start">p6</text>
<!-- Text -->
<text xml:space="preserve" x="13606" y="3269" fill="#000000"  font-family="Times" font-style="normal" font-weight="normal" font-size="215" text-anchor="start">p1</text>
<!-- Text -->
<text xml:space="preserve" x="12033" y="-101" fill="#000000"  font-family="Times" font-style="normal" font-weight="normal" font-size="215" text-anchor="start">p7</text>
<!-- Text -->
<text xml:space="preserve" x="7814" y="3261" fill="#000000"  font-family="Times" font-style="normal" font-weight="normal" font-size="215" text-anchor="start">p3</text>
<!-- Text -->
<text xml:space="preserve" x="8731" y="561" fill="#000000"  font-family="Times" font-style="normal" font-weight="normal" font-size="215" text-anchor="start">p4</text>
<!-- Circle -->
<circle cx="3424" cy="1836" r="234"
 style="fill:#ffffff;stroke:#000000;stroke-width:16;"/>
<!-- Circle -->
<circle cx="11361" cy="1836" r="234"
 style="fill:#ffffff;stroke:#000000;stroke-width:16;"/>
<!-- Text -->
<text xml:space="preserve" x="3303" y="1889" fill="#000000"  font-family="Times" font-style="normal" font-weight="normal" font-size="215" text-anchor="start">p2</text>
<!-- Text -->
<text xml:space="preserve" x="11240" y="1889" fill="#000000"  font-family="Times" font-style="normal" font-weight="normal" font-size="215" text-anchor="start">p2</text>
<!-- Line -->
<polyline points="11517,557
11622,993
" style="stroke:#9f9f9f;stroke-width:16;
stroke-linejoin:miter; stroke-linecap:butt;
"/>
<!-- Line -->
<polyline points="11485,1142
12027,1148
" style="stroke:#9f9f9f;stroke-width:16;
stroke-linejoin:miter; stroke-linecap:butt;
"/>
<!-- Line -->
<polyline points="13334,1858
13453,1633
" style="stroke:#9f9f9f;stroke-width:16;
stroke-linejoin:miter; stroke-linecap:butt;
"/>
<!-- Line -->
<polyline points="12226,2617
12618,2237
" style="stroke:#9f9f9f;stroke-width:16;
stroke-linejoin:miter; stroke-linecap:butt;
"/>
<!-- Line -->
<polyline points="10078,2175
10352,2511
" style="stroke:#9f9f9f;stroke-width:16;
stroke-linejoin:miter; stroke-linecap:butt;
"/>
<!-- Line -->
<polyline points="9158,2991
9269,3252
" style="stroke:#9f9f9f;stroke-width:16;
stroke-linejoin:miter; stroke-linecap:butt;
"/>
<!-- Line -->
<polyline points="12033,2965
11902,3252
" style="stroke:#9f9f9f;stroke-width:16;
stroke-linejoin:miter; stroke-linecap:butt;
"/>
<!-- Line -->
<polyline points="8323,1790
8722,1758
" style="stroke:#9f9f9f;stroke-width:16;
stroke-linejoin:miter; stroke-linecap:butt;
"/>
<!-- Line -->
<polyline points="10645,320
10520,581
" style="stroke:#9f9f9f;stroke-width:16;
stroke-linejoin:miter; stroke-linecap:butt;
"/>
<!-- Line -->
<polyline points="9275,993
9736,563
" style="stroke:#9f9f9f;stroke-width:16;
stroke-linejoin:miter; stroke-linecap:butt;
"/>
<!-- Line -->
<polyline points="9723,2019
10570,2013
" style="stroke:#9f9f9f;stroke-width:16;
stroke-linejoin:miter; stroke-linecap:butt;
"/>
<!-- Line -->
<polyline points="12512,339
12543,538
" style="stroke:#9f9f9f;stroke-width:16;
stroke-linejoin:miter; stroke-linecap:butt;
"/>
<!-- Circle -->
<circle cx="9188" cy="566" r="83"
 style="fill:#535353;stroke:#535353;stroke-width:0;"/>
<!-- Circle -->
<circle cx="11963" cy="192" r="83"
 style="fill:#535353;stroke:#535353;stroke-width:0;"/>
<!-- Circle -->
<circle cx="12898" cy="528" r="83"
 style="fill:#535353;stroke:#535353;stroke-width:0;"/>
<!-- Circle -->
<circle cx="12253" cy="422" r="83"
 style="fill:#535353;stroke:#535353;stroke-width:0;"/>
<!-- Circle -->
<circle cx="11752" cy="409" r="83"
 style="fill:#535353;stroke:#535353;stroke-width:0;"/>
<!-- Circle -->
<circle cx="9795" cy="988" r="83"
 style="fill:#535353;stroke:#535353;stroke-width:0;"/>
<!-- Circle -->
<circle cx="10539" cy="1015" r="83"
 style="fill:#535353;stroke:#535353;stroke-width:0;"/>
<!-- Circle -->
<circle cx="13063" cy="902" r="83"
 style="fill:#535353;stroke:#535353;stroke-width:0;"/>
<!-- Circle -->
<circle cx="13228" cy="824" r="83"
 style="fill:#535353;stroke:#535353;stroke-width:0;"/>
<!-- Circle -->
<circle cx="11732" cy="1911" r="83"
 style="fill:#535353;stroke:#535353;stroke-width:0;"/>
<!-- Circle -->
<circle cx="8351" cy="2682" r="83"
 style="fill:#535353;stroke:#535353;stroke-width:0;"/>
<!-- Circle -->
<circle cx="8068" cy="2827" r="83"
 style="fill:#535353;stroke:#535353;stroke-width:0;"/>
<!-- Circle -->
<circle cx="8437" cy="3032" r="83"
 style="fill:#535353;stroke:#535353;stroke-width:0;"/>
<!-- Circle -->
<circle cx="10229" cy="3360" r="83"
 style="fill:#535353;stroke:#535353;stroke-width:0;"/>
<!-- Circle -->
<circle cx="9761" cy="3137" r="83"
 style="fill:#535353;stroke:#535353;stroke-width:0;"/>
<!-- Circle -->
<circle cx="10499" cy="3176" r="83"
 style="fill:#535353;stroke:#535353;stroke-width:0;"/>
<!-- Circle -->
<circle cx="13274" cy="3064" r="83"
 style="fill:#535353;stroke:#535353;stroke-width:0;"/>
<!-- Circle -->
<circle cx="13610" cy="2887" r="83"
 style="fill:#535353;stroke:#535353;stroke-width:0;"/>
<!-- Circle -->
<circle cx="13709" cy="2708" r="83"
 style="fill:#535353;stroke:#535353;stroke-width:0;"/>
<!-- Circle -->
<circle cx="11416" cy="2187" r="83"
 style="fill:#535353;stroke:#535353;stroke-width:0;"/>
<!-- Circle -->
<circle cx="10348" cy="685" r="83"
 style="fill:#535353;stroke:#535353;stroke-width:0;"/>
<!-- Circle -->
<circle cx="8714" cy="851" r="83"
 style="fill:#535353;stroke:#535353;stroke-width:0;"/>
<!-- Circle -->
<circle cx="9032" cy="773" r="83"
 style="fill:#535353;stroke:#535353;stroke-width:0;"/>
</g>
</svg>
