<?xml version="1.0" standalone="no"?>
<!DOCTYPE svg PUBLIC "-//W3C//DTD SVG 1.1//EN"
"http://www.w3.org/Graphics/SVG/1.1/DTD/svg11.dtd">
<!-- Creator: fig2dev Version 3.2.6 -->
<!-- CreationDate: Mon Nov 21 08:46:35 2016 -->
<!-- Magnification: 1.050 -->
<svg	xmlns="http://www.w3.org/2000/svg"
	xmlns:xlink="http://www.w3.org/1999/xlink"
	width="8.6in" height="3.8in"
	viewBox="-5540 517 10303 4574">
<g style="stroke-width:.025in; fill:none">
<!-- Line -->
<polyline points="3113,2553
1409,2343
4605,3928
3113,2553
" style="stroke:#000000;stroke-width:32;
stroke-linejoin:round; stroke-linecap:butt;
fill:#ffffff;
"/>
<!-- Line -->
<polyline points="1409,2343
3113,2553
" style="stroke:#000000;stroke-width:32;
stroke-linejoin:round; stroke-linecap:butt;
"/>
<!-- Line -->
<polyline points="4605,3928
1409,2343
" style="stroke:#000000;stroke-width:32;
stroke-linejoin:round; stroke-linecap:butt;
"/>
<!-- Line -->
<polyline points="3113,2553
4605,3928
" style="stroke:#000000;stroke-width:32;
stroke-linejoin:round; stroke-linecap:butt;
"/>
<!-- Line -->
<polyline points="3113,2553
4605,3928
3164,627
3113,2553
" style="stroke:#000000;stroke-width:32;
stroke-linejoin:round; stroke-linecap:butt;
fill:#dddddd;
"/>
<!-- Line -->
<polyline points="4605,3928
3113,2553
" style="stroke:#000000;stroke-width:32;
stroke-linejoin:round; stroke-linecap:butt;
"/>
<!-- Line -->
<polyline points="3164,627
4605,3928
" style="stroke:#000000;stroke-width:32;
stroke-linejoin:round; stroke-linecap:butt;
"/>
<!-- Line -->
<polyline points="3113,2553
3164,627
" style="stroke:#000000;stroke-width:32;
stroke-linejoin:round; stroke-linecap:butt;
"/>
<!-- Line -->
<polyline points="3113,2553
3164,627
1409,2343
3113,2553
" style="stroke:#000000;stroke-width:32;
stroke-linejoin:round; stroke-linecap:butt;
fill:#505050;
"/>
<!-- Line -->
<polyline points="3164,627
3113,2553
" style="stroke:#000000;stroke-width:32;
stroke-linejoin:round; stroke-linecap:butt;
"/>
<!-- Line -->
<polyline points="1409,2343
3164,627
" style="stroke:#000000;stroke-width:32;
stroke-linejoin:round; stroke-linecap:butt;
"/>
<!-- Line -->
<polyline points="3113,2553
1409,2343
" style="stroke:#000000;stroke-width:32;
stroke-linejoin:round; stroke-linecap:butt;
"/>
<!-- Line -->
<polyline points="2428,3249
3113,2553
4605,3928
4229,4971
2428,3249
" style="stroke:#000000;stroke-width:32;
stroke-linejoin:round; stroke-linecap:butt;
fill:#ffffff;
"/>
<!-- Line -->
<polyline points="3113,2553
2428,3249
" style="stroke:#000000;stroke-width:32;
stroke-linejoin:round; stroke-linecap:butt;
"/>
<!-- Line -->
<polyline points="4605,3928
3113,2553
" style="stroke:#000000;stroke-width:32;
stroke-linejoin:round; stroke-linecap:butt;
"/>
<!-- Line -->
<polyline points="4229,4971
4605,3928
" style="stroke:#000000;stroke-width:32;
stroke-linejoin:round; stroke-linecap:butt;
"/>
<!-- Line -->
<polyline points="2428,3249
4229,4971
" style="stroke:#000000;stroke-width:32;
stroke-linejoin:round; stroke-linecap:butt;
"/>
<!-- Line -->
<polyline points="2428,3249
3113,2553
3164,627
2431,928
2428,3249
" style="stroke:#000000;stroke-width:32;
stroke-linejoin:round; stroke-linecap:butt;
fill:#dddddd;
"/>
<!-- Line -->
<polyline points="3113,2553
2428,3249
" style="stroke:#000000;stroke-width:32;
stroke-linejoin:round; stroke-linecap:butt;
"/>
<!-- Line -->
<polyline points="3164,627
3113,2553
" style="stroke:#000000;stroke-width:32;
stroke-linejoin:round; stroke-linecap:butt;
"/>
<!-- Line -->
<polyline points="2431,928
3164,627
" style="stroke:#000000;stroke-width:32;
stroke-linejoin:round; stroke-linecap:butt;
"/>
<!-- Line -->
<polyline points="2428,3249
2431,928
" style="stroke:#000000;stroke-width:32;
stroke-linejoin:round; stroke-linecap:butt;
"/>
<!-- Line -->
<polyline points="3113,2553
2428,3249
438,2942
1409,2343
3113,2553
" style="stroke:#000000;stroke-width:32;
stroke-linejoin:round; stroke-linecap:butt;
fill:#ffffff;
"/>
<!-- Line -->
<polyline points="438,2942
2428,3249
3113,2553
1409,2343
438,2942
" style="stroke:#000000;stroke-width:32;
stroke-linejoin:round; stroke-linecap:butt;
fill:#505050;
"/>
<!-- Line -->
<polyline points="2428,3249
3113,2553
" style="stroke:#000000;stroke-width:32;
stroke-linejoin:round; stroke-linecap:butt;
"/>
<!-- Line -->
<polyline points="438,2942
2428,3249
" style="stroke:#000000;stroke-width:32;
stroke-linejoin:round; stroke-linecap:butt;
"/>
<!-- Line -->
<polyline points="1409,2343
438,2942
" style="stroke:#000000;stroke-width:32;
stroke-linejoin:round; stroke-linecap:butt;
"/>
<!-- Line -->
<polyline points="3113,2553
1409,2343
" style="stroke:#000000;stroke-width:32;
stroke-linejoin:round; stroke-linecap:butt;
"/>
<!-- Line -->
<polyline points="2428,3249
438,2942
" style="stroke:#000000;stroke-width:32;
stroke-linejoin:round; stroke-linecap:butt;
"/>
<!-- Line -->
<polyline points="3113,2553
2428,3249
" style="stroke:#000000;stroke-width:32;
stroke-linejoin:round; stroke-linecap:butt;
"/>
<!-- Line -->
<polyline points="1409,2343
3113,2553
" style="stroke:#000000;stroke-width:32;
stroke-linejoin:round; stroke-linecap:butt;
"/>
<!-- Line -->
<polyline points="438,2942
1409,2343
" style="stroke:#000000;stroke-width:32;
stroke-linejoin:round; stroke-linecap:butt;
"/>
<!-- Line -->
<polyline points="2431,928
438,2942
1409,2343
3164,627
2431,928
" style="stroke:#000000;stroke-width:32;
stroke-linejoin:round; stroke-linecap:butt;
fill:#505050;
"/>
<!-- Line -->
<polyline points="438,2942
2431,928
" style="stroke:#000000;stroke-width:32;
stroke-linejoin:round; stroke-linecap:butt;
"/>
<!-- Line -->
<polyline points="1409,2343
438,2942
" style="stroke:#000000;stroke-width:32;
stroke-linejoin:round; stroke-linecap:butt;
"/>
<!-- Line -->
<polyline points="3164,627
1409,2343
" style="stroke:#000000;stroke-width:32;
stroke-linejoin:round; stroke-linecap:butt;
"/>
<!-- Line -->
<polyline points="2431,928
3164,627
" style="stroke:#000000;stroke-width:32;
stroke-linejoin:round; stroke-linecap:butt;
"/>
<!-- Line -->
<polyline points="-2944,2562
-5461,3044
-2325,4288
-2965,2576
" style="stroke:#000000;stroke-width:8;
stroke-linejoin:round; stroke-linecap:butt;
fill:#dddddd;
"/>
<!-- Line -->
<polyline points="-2339,4268
-1205,2713
-1817,1194
-3109,1084
-2951,2576
-2332,4226
" style="stroke:#000000;stroke-width:8;
stroke-linejoin:round; stroke-linecap:butt;
fill:#ffffff;
"/>
<!-- Line -->
<polyline points="-3117,1084
-2965,2556
-5441,3044
-5124,946
-3123,1084
" style="stroke:#505050;stroke-width:8;
stroke-linejoin:round; stroke-linecap:butt;
fill:#505050;
"/>
<!-- Line -->
<polyline points="438,2942
4229,4971
4605,3928
1409,2343
438,2942
" style="stroke:#000000;stroke-width:32;
stroke-linejoin:round; stroke-linecap:butt;
fill:#ffffff;
"/>
<!-- Line -->
<polyline points="4229,4971
438,2942
" style="stroke:#000000;stroke-width:32;
stroke-linejoin:round; stroke-linecap:butt;
"/>
<!-- Line -->
<polyline points="4605,3928
4229,4971
" style="stroke:#000000;stroke-width:32;
stroke-linejoin:round; stroke-linecap:butt;
"/>
<!-- Line -->
<polyline points="1409,2343
4605,3928
" style="stroke:#000000;stroke-width:32;
stroke-linejoin:round; stroke-linecap:butt;
"/>
<!-- Line -->
<polyline points="438,2942
1409,2343
" style="stroke:#000000;stroke-width:32;
stroke-linejoin:round; stroke-linecap:butt;
"/>
<!-- Line -->
<polyline points="3113,2553
2428,3249
4229,4971
4605,3928
3113,2553
" style="stroke:#000000;stroke-width:32;
stroke-linejoin:round; stroke-linecap:butt;
fill:#dddddd;
"/>
<!-- Line -->
<polyline points="2428,3249
3113,2553
" style="stroke:#000000;stroke-width:32;
stroke-linejoin:round; stroke-linecap:butt;
"/>
<!-- Line -->
<polyline points="4229,4971
2428,3249
" style="stroke:#000000;stroke-width:32;
stroke-linejoin:round; stroke-linecap:butt;
"/>
<!-- Line -->
<polyline points="4605,3928
4229,4971
" style="stroke:#000000;stroke-width:32;
stroke-linejoin:round; stroke-linecap:butt;
"/>
<!-- Line -->
<polyline points="3113,2553
4605,3928
" style="stroke:#000000;stroke-width:32;
stroke-linejoin:round; stroke-linecap:butt;
"/>
<!-- Line -->
<polyline points="438,2942
2428,3249
4229,4971
438,2942
" style="stroke:#000000;stroke-width:32;
stroke-linejoin:round; stroke-linecap:butt;
fill:#ffffff;
"/>
<!-- Line -->
<polyline points="2428,3249
438,2942
2431,928
2428,3249
" style="stroke:#000000;stroke-width:32;
stroke-linejoin:round; stroke-linecap:butt;
fill:#505050;
"/>
<!-- Line -->
<polyline points="2428,3249
438,2942
" style="stroke:#000000;stroke-width:32;
stroke-linejoin:round; stroke-linecap:butt;
"/>
<!-- Line -->
<polyline points="4229,4971
2428,3249
" style="stroke:#000000;stroke-width:32;
stroke-linejoin:round; stroke-linecap:butt;
"/>
<!-- Line -->
<polyline points="438,2942
4229,4971
" style="stroke:#000000;stroke-width:32;
stroke-linejoin:round; stroke-linecap:butt;
"/>
<!-- Line -->
<polyline points="438,2942
2428,3249
" style="stroke:#000000;stroke-width:32;
stroke-linejoin:round; stroke-linecap:butt;
"/>
<!-- Line -->
<polyline points="2431,928
438,2942
" style="stroke:#000000;stroke-width:32;
stroke-linejoin:round; stroke-linecap:butt;
"/>
<!-- Line -->
<polyline points="2428,3249
2431,928
" style="stroke:#000000;stroke-width:32;
stroke-linejoin:round; stroke-linecap:butt;
"/>
<!-- Line -->
<polyline points="3113,2553
2428,3249
2431,928
3164,627
3113,2553
" style="stroke:#000000;stroke-width:32;
stroke-linejoin:round; stroke-linecap:butt;
fill:#505050;
"/>
<!-- Line -->
<polyline points="2428,3249
3113,2553
" style="stroke:#000000;stroke-width:32;
stroke-linejoin:round; stroke-linecap:butt;
"/>
<!-- Line -->
<polyline points="2431,928
2428,3249
" style="stroke:#000000;stroke-width:32;
stroke-linejoin:round; stroke-linecap:butt;
"/>
<!-- Line -->
<polyline points="3164,627
2431,928
" style="stroke:#000000;stroke-width:32;
stroke-linejoin:round; stroke-linecap:butt;
"/>
<!-- Line -->
<polyline points="3113,2553
3164,627
" style="stroke:#000000;stroke-width:32;
stroke-linejoin:round; stroke-linecap:butt;
"/>
<!-- Line -->
<polyline points="4229,4971
2431,928
3164,627
4605,3928
4229,4971
" style="stroke:#000000;stroke-width:32;
stroke-linejoin:round; stroke-linecap:butt;
fill:#dddddd;
"/>
<!-- Line -->
<polyline points="2431,928
4229,4971
" style="stroke:#000000;stroke-width:32;
stroke-linejoin:round; stroke-linecap:butt;
"/>
<!-- Line -->
<polyline points="3164,627
2431,928
" style="stroke:#000000;stroke-width:32;
stroke-linejoin:round; stroke-linecap:butt;
"/>
<!-- Line -->
<polyline points="4605,3928
3164,627
" style="stroke:#000000;stroke-width:32;
stroke-linejoin:round; stroke-linecap:butt;
"/>
<!-- Line -->
<polyline points="4229,4971
4605,3928
" style="stroke:#000000;stroke-width:32;
stroke-linejoin:round; stroke-linecap:butt;
"/>
<!-- Line -->
<polyline points="4229,4971
2428,3249
2431,928
4229,4971
" style="stroke:#000000;stroke-width:32;
stroke-linejoin:round; stroke-linecap:butt;
fill:#dddddd;
"/>
<!-- Line -->
<polyline points="2428,3249
4229,4971
" style="stroke:#000000;stroke-width:32;
stroke-linejoin:round; stroke-linecap:butt;
"/>
<!-- Line -->
<polyline points="2431,928
2428,3249
" style="stroke:#000000;stroke-width:32;
stroke-linejoin:round; stroke-linecap:butt;
"/>
<!-- Line -->
<polyline points="4229,4971
2431,928
" style="stroke:#000000;stroke-width:32;
stroke-linejoin:round; stroke-linecap:butt;
"/>
<!-- Line -->
<polyline points="2410,3267
3106,2572
" style="stroke:#000000;stroke-width:32;
stroke-linejoin:miter; stroke-linecap:butt;
stroke-dasharray:83 83;"/>
<!-- Line -->
<polyline points="3159,629
3117,2535
" style="stroke:#000000;stroke-width:32;
stroke-linejoin:miter; stroke-linecap:butt;
stroke-dasharray:83 83;"/>
<!-- Line -->
<polyline points="3126,2561
4649,3970
" style="stroke:#000000;stroke-width:32;
stroke-linejoin:miter; stroke-linecap:butt;
stroke-dasharray:83 83;"/>
<!-- Line -->
<polyline points="1416,2350
4618,3939
" style="stroke:#000000;stroke-width:32;
stroke-linejoin:miter; stroke-linecap:butt;
stroke-dasharray:83 83;"/>
<!-- Line -->
<polyline points="1406,2346
3139,642
" style="stroke:#000000;stroke-width:32;
stroke-linejoin:miter; stroke-linecap:butt;
stroke-dasharray:83 83;"/>
<!-- Line -->
<polyline points="438,2937
1413,2342
" style="stroke:#000000;stroke-width:32;
stroke-linejoin:miter; stroke-linecap:butt;
stroke-dasharray:83 83;"/>
<!-- Line -->
<polyline points="1422,2344
3099,2553
" style="stroke:#000000;stroke-width:32;
stroke-linejoin:miter; stroke-linecap:butt;
stroke-dasharray:83 83;"/>
<!-- Circle -->
<circle cx="3159" cy="637" r="95"
 style="fill:#808080;stroke:#808080;stroke-width:32;"/>
<!-- Circle -->
<circle cx="2453" cy="925" r="95"
 style="fill:#808080;stroke:#808080;stroke-width:32;"/>
<!-- Circle -->
<circle cx="2434" cy="3261" r="95"
 style="fill:#808080;stroke:#808080;stroke-width:32;"/>
<!-- Circle -->
<circle cx="461" cy="2935" r="95"
 style="fill:#808080;stroke:#808080;stroke-width:32;"/>
<!-- Circle -->
<circle cx="4199" cy="4972" r="95"
 style="fill:#808080;stroke:#808080;stroke-width:32;"/>
<!-- Circle -->
<circle cx="4643" cy="3949" r="95"
 style="fill:#808080;stroke:#808080;stroke-width:32;"/>
<!-- Circle -->
<circle cx="1413" cy="2346" r="95"
 style="fill:#808080;stroke:#808080;stroke-width:32;"/>
<!-- Circle -->
<circle cx="3114" cy="2573" r="95"
 style="fill:#808080;stroke:#808080;stroke-width:32;"/>
<!-- Line -->
<polyline points="3076,2373
3232,2726
" style="stroke:#000000;stroke-width:32;
stroke-linejoin:miter; stroke-linecap:butt;
"/>
<!-- Line -->
<polyline points="-2965,2535
-3109,1090
" style="stroke:#000000;stroke-width:63;
stroke-linejoin:miter; stroke-linecap:butt;
"/>
<!-- Line -->
<polyline points="-5372,3029
-3006,2562
" style="stroke:#000000;stroke-width:63;
stroke-linejoin:miter; stroke-linecap:butt;
"/>
<!-- Line -->
<polyline points="-5083,953
-3130,1077
" style="stroke:#000000;stroke-width:63;
stroke-linejoin:miter; stroke-linecap:butt;
"/>
<!-- Line -->
<polyline points="-3075,1090
-1830,1187
" style="stroke:#000000;stroke-width:63;
stroke-linejoin:miter; stroke-linecap:butt;
"/>
<!-- Line -->
<polyline points="-1809,1222
-1211,2659
" style="stroke:#000000;stroke-width:63;
stroke-linejoin:miter; stroke-linecap:butt;
"/>
<!-- Line -->
<polyline points="-1177,2700
-2270,4172
" style="stroke:#000000;stroke-width:63;
stroke-linejoin:miter; stroke-linecap:butt;
"/>
<!-- Line -->
<polyline points="-5124,960
-5420,2940
" style="stroke:#000000;stroke-width:63;
stroke-linejoin:miter; stroke-linecap:butt;
"/>
<!-- Line -->
<polyline points="-5385,3085
-2381,4261
" style="stroke:#000000;stroke-width:63;
stroke-linejoin:miter; stroke-linecap:butt;
"/>
<!-- Line -->
<polyline points="-2339,4226
-2944,2624
" style="stroke:#000000;stroke-width:63;
stroke-linejoin:miter; stroke-linecap:butt;
"/>
<!-- Circle -->
<circle cx="-5420" cy="3029" r="95"
 style="fill:#808080;stroke:#808080;stroke-width:32;"/>
<!-- Circle -->
<circle cx="-5118" cy="953" r="95"
 style="fill:#808080;stroke:#808080;stroke-width:32;"/>
<!-- Circle -->
<circle cx="-3117" cy="1077" r="95"
 style="fill:#808080;stroke:#808080;stroke-width:32;"/>
<!-- Circle -->
<circle cx="-2965" cy="2576" r="95"
 style="fill:#808080;stroke:#808080;stroke-width:32;"/>
<!-- Circle -->
<circle cx="-2346" cy="4261" r="95"
 style="fill:#808080;stroke:#808080;stroke-width:32;"/>
<!-- Circle -->
<circle cx="-1218" cy="2713" r="95"
 style="fill:#808080;stroke:#808080;stroke-width:32;"/>
<!-- Circle -->
<circle cx="-1830" cy="1214" r="95"
 style="fill:#808080;stroke:#808080;stroke-width:32;"/>
</g>
</svg>
