<svg height="511pt" viewBox="1 1 511.999 511" width="511pt" xmlns="http://www.w3.org/2000/svg"><path d="m256 169.820312c-47.742188 0-86.582031 38.839844-86.582031 86.582032 0 47.738281 38.839843 86.578125 86.582031 86.578125 47.738281 0 86.578125-38.839844 86.578125-86.578125 0-47.742188-38.835937-86.582032-86.578125-86.582032zm0 0" fill="#ff9f4d"/><path d="m256 169.820312c-3.902344 0-7.742188.265626-11.511719.769532 42.320313 5.644531 75.070313 41.972656 75.070313 85.8125 0 43.835937-32.75 80.164062-75.070313 85.8125 3.769531.5 7.609375.765625 11.511719.765625 47.738281 0 86.578125-38.839844 86.578125-86.578125 0-47.742188-38.835937-86.582032-86.578125-86.582032zm0 0" fill="#fb900d"/><path d="m256.667969.503906c-.113281 0-.222657-.003906-.335938-.003906.113281 0 .222657.003906.335938.003906zm0 0" fill="#76cde6"/><path d="m.335938 256.164062c0-34.113281 6.625-67.210937 19.261718-97.824218-12.75 30.671875-19.453125 63.851562-19.496094 98.0625h.234376c0-.082032 0-.160156 0-.238282zm0 0" fill="#76cde6"/><path d="m.00390625 256.402344 66.98828175 45.882812 57.722656-45.882812c.046875-17.417969 3.507812-34.046875 9.734375-49.257813.128906-.3125.253906-.625.386719-.9375.125-.308593.253906-.613281.382812-.921875 6.351562-15.164062 15.660156-29.367187 27.949219-41.714844l-14.601563-71.320312-73.582031-16.867188c-.058594.058594-.113281.109376-.171875.167969-24.121094 24.121094-42.839844 52.210938-55.550781 82.789063-12.636719 30.613281-19.261719 63.710937-19.261719 97.824218 0 .078126.00390625.160157.00390625.238282zm0 0" fill="#a3e2ee"/><path d="m256.332031.503906c-.109375 0-.21875-.003906-.332031-.003906-68.363281 0-132.640625 26.59375-181.015625 74.882812l88.183594 88.1875c25.710937-25.582031 59.460937-38.296874 93.164062-38.152343l24.355469-70.203125zm0 0" fill="#65cee3"/><path d="m256.332031 125.417969c5.394531.023437 10.785157.378906 16.144531 1.058593.226563.03125.457032.0625.6875.09375.757813.097657 1.519532.207032 2.273438.316407.492188.074219.980469.152343 1.46875.230469.496094.082031.992188.164062 1.484375.246093.671875.117188 1.347656.242188 2.015625.367188.316406.058593.632812.121093.945312.183593.792969.15625 1.585938.320313 2.378907.488282.199219.046875.402343.089844.605469.132812.867187.191406 1.730468.394532 2.597656.601563.136718.035156.273437.066406.410156.101562.902344.222657 1.800781.453125 2.695312.695313.117188.03125.234376.0625.351563.09375.898437.246094 1.796875.496094 2.691406.761718.128907.039063.261719.078126.390625.117188.863282.257812 1.722656.523438 2.582032.800781.183593.058594.367187.117188.550781.175781.792969.261719 1.585937.527344 2.378906.800782.261719.089844.519531.183594.78125.273437.699219.25 1.402344.503907 2.101563.765625.359374.132813.71875.273438 1.074218.410156.59375.226563 1.183594.457032 1.773438.691407.46875.1875.929687.378906 1.394531.574219.476563.195312.949219.394531 1.425781.597656.570313.242187 1.140625.492187 1.710938.746094.363281.160156.722656.324218 1.082031.488281.667969.304687 1.332031.613281 1.992187.929687l.785157.375c.738281.359375 1.476562.726563 2.207031 1.097656.1875.09375.367188.1875.554688.28125.789062.40625 1.574218.820313 2.355468 1.242188.132813.070312.261719.140625.394532.214844.808593.4375 1.613281.890625 2.410156 1.347656.113281.0625.230468.128906.34375.195312.792968.457032 1.585937.925782 2.367187 1.398438.132813.082031.265625.160156.394531.242188.75.453124 1.492188.917968 2.230469 1.390624.1875.117188.371094.234376.554688.355469.671875.429688 1.335937.867188 1.996093 1.3125.277344.1875.554688.375.832032.5625.554687.378907 1.105468.761719 1.652344 1.144531.421874.296876.839843.597657 1.253906.898438.394531.28125.785156.566406 1.175781.855469.625.460937 1.25.933593 1.867187 1.40625.171876.132812.347657.265625.515626.394531 4.449218 3.445312 8.675781 7.167969 12.648437 11.144531l78.96875-9.710937 9.355469-78.617188c-.078125-.078125-.152344-.160156-.234375-.238281-24.167969-24.167969-52.3125-42.914063-82.957031-55.625-30.558594-12.636719-63.597657-19.28125-97.65625-19.324219v124.914063zm0 0" fill="#f195d6"/><path d="m348.855469 164.015625c23.660156 23.695313 38.335937 56.355469 38.429687 92.386719l61.058594 34.53125 63.652344-34.53125c-.0625-68.246094-26.621094-132.398438-74.8125-180.710938zm0 0" fill="#e480be"/><path d="m511.996094 256.402344h-124.710938c-.046875 17.417968-3.507812 34.046875-9.738281 49.257812-.125.308594-.25.617188-.378906.925782-.128907.3125-.257813.621093-.390625.933593-6.351563 15.160157-15.660156 29.367188-27.945313 41.710938l12.449219 76.351562 75.734375 11.835938c.054687-.054688.113281-.109375.167969-.164063 24.125-24.125 42.84375-52.210937 55.550781-82.792968 12.640625-30.609376 19.265625-63.707032 19.261719-97.824219.003906-.078125 0-.15625 0-.234375zm0 0" fill="#f9e075"/><path d="m256.332031 512.300781c68.242188-.085937 132.386719-26.671875 180.683594-74.882812l-88.183594-88.183594c-25.539062 25.410156-59.015625 38.128906-92.5 38.152344l-35.695312 61.691406zm0 0" fill="#f9cd45"/><path d="m256.332031 512.300781v-124.914062c-5.617187.003906-11.234375-.351563-16.816406-1.0625-.21875-.027344-.433594-.058594-.652344-.085938-.769531-.101562-1.542969-.210937-2.3125-.324219-.480469-.074218-.957031-.148437-1.433593-.226562-.507813-.082031-1.015626-.164062-1.519532-.25-.660156-.117188-1.320312-.234375-1.980468-.359375-.328126-.0625-.65625-.128906-.988282-.191406-.78125-.152344-1.558594-.316407-2.339844-.484375-.214843-.042969-.425781-.089844-.640624-.140625-.855469-.1875-1.707032-.382813-2.558594-.589844-.152344-.039063-.304688-.074219-.457032-.113281-.886718-.21875-1.773437-.445313-2.65625-.683594-.128906-.035156-.257812-.066406-.386718-.101562-.886719-.242188-1.769532-.492188-2.652344-.753907-.144531-.042969-.289062-.085937-.433594-.128906-.851562-.25-1.699218-.515625-2.542968-.785156-.195313-.0625-.390626-.125-.585938-.191407-.78125-.253906-1.5625-.515624-2.339844-.785156-.277344-.097656-.550781-.191406-.824218-.289062-.6875-.246094-1.375-.496094-2.058594-.75-.375-.140625-.746094-.28125-1.117188-.425782-.578125-.222656-1.15625-.445312-1.730468-.675781-.480469-.191406-.960938-.390625-1.4375-.589843-.464844-.1875-.925782-.382813-1.386719-.578126-.582031-.25-1.164063-.507812-1.746094-.765624-.347656-.15625-.699219-.3125-1.046875-.472657-.679688-.308593-1.355469-.625-2.027344-.945312-.25-.117188-.5-.234375-.746094-.355469-.753906-.367188-1.503906-.738281-2.25-1.117188-.171874-.085937-.34375-.175781-.511718-.261718-.800782-.414063-1.597656-.832032-2.390625-1.261719-.121094-.066406-.242188-.128906-.363281-.195313-.816407-.445312-1.632813-.902343-2.441407-1.363281-.101562-.0625-.207031-.121093-.308593-.179687-.808594-.464844-1.605469-.9375-2.402344-1.417969-.117188-.074219-.238282-.144531-.359375-.21875-.761719-.464844-1.515625-.9375-2.265625-1.414063-.171875-.109374-.34375-.222656-.515625-.332031-.683594-.441406-1.359375-.886719-2.03125-1.335937-.265625-.179688-.53125-.359375-.796875-.539063-.566406-.386719-1.125-.773437-1.683594-1.167969-.410156-.289062-.816406-.582031-1.222656-.875-.402344-.289062-.804688-.582031-1.207032-.875-.613281-.457031-1.222656-.917968-1.832031-1.386718-.183593-.136719-.367187-.277344-.550781-.417969-4.269531-3.308594-8.332031-6.867187-12.164062-10.664063l-70.429688 12.574219-17.898438 75.753907c24.113282 24.050781 52.171876 42.71875 82.71875 55.386718 30.65625 12.683594 63.8125 19.332032 97.992188 19.332032.113281 0 .222656-.003907.332031-.003907zm0 0" fill="#66cbb5"/><path d="m.00390625 256.402344c.06249995 68.351562 26.70703175 132.609375 75.04687475 180.949218.078125.078126.160157.152344.238281.230469l88.328126-88.328125c-23.933594-23.730468-38.808594-56.585937-38.902344-92.851562zm0 0" fill="#00a983"/><path d="m413.929688 75.214844c3.976562 3.976562 7.792968 8.070312 11.46875 12.257812l11.785156-11.78125c-.082032-.078125-.15625-.160156-.234375-.238281-24.167969-24.167969-52.3125-42.914063-82.960938-55.625-30.558593-12.640625-63.597656-19.28125-97.65625-19.324219v.738282c59.539063 5.398437 114.804688 31.179687 157.597657 73.972656zm0 0" fill="#e480be"/><path d="m437.183594 75.691406-11.785156 11.78125c41.113281 46.75 63.578124 106.109375 63.578124 168.929688h23.019532c-.0625-68.246094-26.621094-132.398438-74.8125-180.710938zm0 0" fill="#ce6cba"/><path d="m511.996094 256.402344h-23.015625c0 62.929687-22.550781 122.386718-63.800781 169.179687l11.839843 11.835938c.054688-.054688.113281-.109375.167969-.164063 10.527344-10.527344 20.023438-21.808594 28.441406-33.722656 30.113282-42.757812 46.347656-93.636719 46.371094-147.011719-.003906-.039062-.003906-.078125-.003906-.117187zm0 0" fill="#f9cd45"/><path d="m425.179688 425.582031c-3.613282 4.097657-7.351563 8.109375-11.25 12.003907-42.792969 42.792968-98.058594 68.574218-157.597657 73.972656v.738281c68.242188-.085937 132.386719-26.667969 180.683594-74.878906zm0 0" fill="#f8b53c"/></svg>