/* XPM */
static const char *del_P_xpm[] = {
/* width height ncolors chars_per_pixel */
"32 32 8 1",
/* colors */
"  c #800000",
". c #5A5AF9",
"X c #AFAFD6",
"o c #AAAADB",
"O c None",
"+ c #808000",
"@ c #0000FF",
"# c None",
/* pixels */
"OOOOOOOOOOOOOOOOOOOOOOOOOOOOOOOO",
"OOOOOOOOOOOOOOOOOOOOOOOOOOOOOOOO",
"OOOOOOOOOOOOOOOOOOOOOOOOOOOOOOOO",
"OOOOOOOOOOOOOOOOOOOOOOOOOOOOOOOO",
"OOOOOOOOOOOOOO    OOOOOOOOOOOOOO",
"OOOOOOOOOOO   ++++   OOOOOOOOOOO",
"OOOOOOOOO  +OOOOOOOO+  OOOOOOOOO",
"OOOOOOOO +OOOOOOOOOOOO+ OOOOOOOO",
"OOOOOOO   +OOOOOOOOOOOO+ OOOOOOO",
"OOOOOO +O  +@@@@@@@.oOOO+ OOOOOO",
"OOOOOO +OO  +@@OOOo.@oOO+ OOOOOO",
"OOOOO +OOOO  +@OOOOo@.OOO+ OOOOO",
"OOOOO +OOOOO  +OOOOO@@OOO+ OOOOO",
"OOOO +OOOOOOO  +OOOO@@OOOO+ OOOO",
"OOOO +OOOOOOO@  +OOX@.OOOO+ OOOO",
"OOOO +OOOOOOO@@  +X.@oOOOO+ OOOO",
"OOOO +OOOOOOO@@@  +.oOOOOO+ OOOO",
"OOOO +OOOOOOO@@OO  +OOOOOO+ OOOO",
"OOOO +OOOOOOO@@OOO  +OOOOO+ OOOO",
"OOOOO +OOOOOO@@OOOO  +OOO+ OOOOO",
"OOOOO +OOOOOO@@OOOOO  +OO+ OOOOO",
"OOOOOO +OOOOX@@XOOOOO  ++ OOOOOO",
"OOOOOO +OOO@@@@@@OOOOO  + OOOOOO",
"OOOOOOO +OOOOOOOOOOOOOO  OOOOOOO",
"OOOOOOOO +OOOOOOOOOOOO+ OOOOOOOO",
"OOOOOOOOO  +OOOOOOOO+  OOOOOOOOO",
"OOOOOOOOOOO   ++++   OOOOOOOOOOO",
"OOOOOOOOOOOOOO    OOOOOOOOOOOOOO",
"OOOOOOOOOOOOOOOOOOOOOOOOOOOOOOOO",
"OOOOOOOOOOOOOOOOOOOOOOOOOOOOOOOO",
"OOOOOOOOOOOOOOOOOOOOOOOOOOOOOOOO",
"OOOOOOOOOOOOOOOOOOOOOOOOOOOOOOOO"
};
