<?xml version="1.0" standalone="no"?><!DOCTYPE svg PUBLIC "-//W3C//DTD SVG 1.1//EN" "http://www.w3.org/Graphics/SVG/1.1/DTD/svg11.dtd"><svg class="icon" height="512" viewBox="0 0 1024 1024" version="1.1" xmlns="http://www.w3.org/2000/svg"><path d="M514.133333 0.938667c20.821333 0 37.802667 16.981333 37.802667 37.802666v712.533334h-75.605333V38.826667c0-20.821333 16.896-37.802667 37.802666-37.802667z" fill="#00C1DE" /><path d="M157.013333 925.610667h709.12a42.666667 42.666667 0 0 0 42.666667-42.666667V242.432a42.666667 42.666667 0 0 0-42.666667-42.666667H692.394667c-18.858667-8.192-28.672-20.48-29.269334-37.205333-0.597333-16.64 9.216-28.842667 29.269334-36.522667h237.226666a51.2 51.2 0 0 1 51.2 51.2v773.034667a51.2 51.2 0 0 1-51.2 51.2H94.122667a51.2 51.2 0 0 1-51.2-51.2V177.237333a51.2 51.2 0 0 1 51.2-51.2h241.493333c18.090667 5.290667 27.136 17.322667 27.136 35.84 0 18.688-9.130667 31.232-27.221333 37.888H157.013333a42.666667 42.666667 0 0 0-42.666666 42.666667v640.512a42.666667 42.666667 0 0 0 42.666666 42.666667z" fill="#00C1DE" /><path d="M314.88 585.642667a32.085333 32.085333 0 0 1 44.629333-0.853334l152.405334 141.482667 152.405333-141.482667a32.085333 32.085333 0 0 1 44.544 0.853334 30.037333 30.037333 0 0 1-0.682667 43.093333L512 813.909333l-196.352-185.173333a30.037333 30.037333 0 0 1-0.682667-43.093333z" fill="#00C1DE" /></svg>