/* XPM */
static const char *make_P_xpm[] = {
/* width height ncolors chars_per_pixel */
"32 32 15 1",
/* colors */
"  c #D9D9FF",
". c #7C7CFF",
"X c #B2B2FF",
"o c #6868FF",
"O c #E9E9FF",
"+ c #F0F0FF",
"@ c #004080",
"# c #8C8CFF",
"$ c #A7A7FF",
"% c #F8F8FF",
"& c None",
"* c #FFFFFF",
"= c #9A9AFF",
"- c #0000FF",
"; c None",
/* pixels */
"&&&&&&&&&&&&&&&&&&&&&&&&&&&&&&&&",
"&&&&&&&&&&&&&&&&&&&&&&&&&&&&&&&&",
"&&&&&&&&&&&&&&&&&&&&&&&&&&&&&&&&",
"&&&&&&&&&&&&&&&&&&&&&&&&&&&&&&&&",
"&&&&&&&&&&&&&@----@&&&&&&&&&&&&&",
"&&&&&&&&&&&@--------@&&&&&&&&&&&",
"&&&&&&&&&--------------&&&&&&&&&",
"&&&&&&&&----------------&&&&&&&&",
"&&&&&&&------------------&&&&&&&",
"&&&&&&--------------------&&&&&&",
"&&&&&&-----******% .------&&&&&&",
"&&&&&-------.**--#O*=------&&&&&",
"&&&&&--------**---.*+------&&&&&",
"&&&&---------**----**-------&&&&",
"&&&&---------**---o*+-------&&&&",
"&&&&---------**$-oO*X-------&&&&",
"&&&&---------*****O$--------&&&&",
"&&&&---------**-------------&&&&",
"&&&&---------**-------------&&&&",
"&&&&&--------**------------&&&&&",
"&&&&&-------o**.-----------&&&&&",
"&&&&&&-----******---------&&&&&&",
"&&&&&&--------------------&&&&&&",
"&&&&&&&------------------&&&&&&&",
"&&&&&&&&----------------&&&&&&&&",
"&&&&&&&&&--------------&&&&&&&&&",
"&&&&&&&&&&&@--------@&&&&&&&&&&&",
"&&&&&&&&&&&&&@----@&&&&&&&&&&&&&",
"&&&&&&&&&&&&&&&&&&&&&&&&&&&&&&&&",
"&&&&&&&&&&&&&&&&&&&&&&&&&&&&&&&&",
"&&&&&&&&&&&&&&&&&&&&&&&&&&&&&&&&",
"&&&&&&&&&&&&&&&&&&&&&&&&&&&&&&&&"
};
