/* XPM */
static char * P_xpm[] = {
"32 32 12 1",
" 	c None",
".	c #0000FF",
"+	c #3838FD",
"@	c #7070F4",
"#	c #AAAADB",
"$	c #A4A4E0",
"%	c #5A5AF9",
"&	c #9E9EE3",
"*	c #4C4CFB",
"=	c #AFAFD6",
"-	c #9898E7",
";	c #9191EA",
"                                ",
"                                ",
"                                ",
"                                ",
"                                ",
"                                ",
"                                ",
"                                ",
"                                ",
"          .......+@#            ",
"           #..   $%.&           ",
"            ..    #.*           ",
"            ..     ..           ",
"            ..     ..           ",
"            ..    =.*           ",
"            ..-  =%.;           ",
"            ......%-            ",
"            ..                  ",
"            ..                  ",
"            ..                  ",
"            ..                  ",
"           =..#                 ",
"          ......                ",
"                                ",
"                                ",
"                                ",
"                                ",
"                                ",
"                                ",
"                                ",
"                                ",
"                                "};
