/* XPM */
static char * Q_xpm[] = {
"32 32 14 1",
" 	c None",
".	c #FEFEFE",
"+	c #EA9191",
"@	c #F95A5A",
"#	c #FF0000",
"$	c #ED8A8A",
"%	c #D6AFAF",
"&	c #E39E9E",
"*	c #DBAAAA",
"=	c #FB4C4C",
"-	c #E79898",
";	c #F27A7A",
">	c #E0A4A4",
",	c #F66666",
"                                ",
"                                ",
"                                ",
"                                ",
"                                ",
"          .                     ",
"                                ",
"                                ",
"             +@##@$             ",
"           %@@&  &@@*           ",
"           @=      =@           ",
"          $#-      +#$          ",
"          @#%      *#@          ",
"          ##        ##          ",
"          ##        ##          ",
"          ##        ##          ",
"          =#%       #@          ",
"          ;#-      -#$          ",
"          %#=      =@           ",
"           -#@&  &@@            ",
"            >,###=+             ",
"               -##              ",
"                -##@            ",
"                 --@#           ",
"                                ",
"                                ",
"                                ",
"                                ",
"                                ",
"                                ",
"                                ",
"                                "};
