/* XPM */
static const char *symm_diff_xpm[] = {
/* width height ncolors chars_per_pixel */
"32 32 27 1",
/* colors */
"  c #000000",
". c #9898E7",
"X c #9191EA",
"o c #F66666",
"O c #5A5AF9",
"+ c #D6AFAF",
"@ c #DBAAAA",
"# c #E39E9E",
"$ c #FB4C4C",
"% c #C0C0C0",
"& c #A4A4E0",
"* c #E0A4A4",
"= c #FF0000",
"- c #F27A7A",
"; c #3838FD",
": c #AFAFD6",
"> c #AAAADB",
", c #9E9EE3",
"< c #7070F4",
"1 c None",
"2 c #4C4CFB",
"3 c #E79898",
"4 c #EA9191",
"5 c #ED8A8A",
"6 c #F95A5A",
"7 c #0000FF",
"8 c None",
/* pixels */
"11111111111111111111111111111111",
"11111111111111111111111111111111",
"11111111111111111111111111111111",
"11111111111111111111111111111111",
"11111111111111111111111111111111",
"11111111111111111111111111111111",
"11111111111111111111111111111111",
"11111111111111111111111111111111",
"11111111111111111111111111111111",
"777777;<>11111111111111146=65111",
"1>7711&O7,111111111111+66#1#66@1",
"1177111>72111%%11111116$11111$61",
"1177111177111  1111115=3111114=5",
"117711117711%  %111116=+11111@=6",
"1177111:7211    %1111==1111111==",
"1177.1:O7X1  %%  1111==1111111==",
"1177777O.1%  11  %111==1111111==",
"1177111111  1111  111$=+111111=6",
"117711111%  1111  %11-=3111113=5",
"11771111%  %1111%  %1+=$11111$61",
"11771111%          %113=6#1#6611",
"1:77>11%            %11*o==$4111",
"77777711111111111111111113==1111",
"111111111111111111111111113==611",
"111111111111111111111111111336=1",
"11111111111111111111111111111111",
"11111111111111111111111111111111",
"11111111111111111111111111111111",
"11111111111111111111111111111111",
"11111111111111111111111111111111",
"11111111111111111111111111111111",
"11111111111111111111111111111111"
};
