/* XPM */
static char *symm_diff_xpm[] = {
/* width height ncolors chars_per_pixel */
"32 32 28 1",
/* colors */
"  c #000000",
". c #9898E7",
"X c #9191EA",
"o c #F66666",
"O c #5A5AF9",
"+ c #D6AFAF",
"@ c #DBAAAA",
"# c #E39E9E",
"$ c #FB4C4C",
"% c #C0C0C0",
"& c #A4A4E0",
"* c #E0A4A4",
"= c #FF0000",
"- c #F27A7A",
"; c #3838FD",
": c #AFAFD6",
"> c #AAAADB",
", c #9E9EE3",
"< c #808080",
"1 c #7070F4",
"2 c None",
"3 c #4C4CFB",
"4 c #E79898",
"5 c #EA9191",
"6 c #ED8A8A",
"7 c #F95A5A",
"8 c #0000FF",
"9 c None",
/* pixels */
"22222222222222222222222222222222",
"22222222222222222222222222222222",
"22222222222222222222222222222222",
"22222222222222222222222222222222",
"22222222222222222222222222222222",
"22222222222222222222222222222222",
"22222222222222222222222222222222",
"22222222222222222222222222222222",
"22222222222222222222222222222222",
"888888;1>22222222222222257=76222",
"2>8822&O8,222222222222+77#2#77@2",
"2288222>832222<22222227$22222$72",
"22882222882222 2222226=4222225=6",
"2288222288222 2 222227=+22222@=7",
"2288222:8322% 2 %2222==2222222==",
"2288.2:O8X22 %22 2222==2222222==",
"2288888O.222 222 2222==2222222==",
"22882222222 22222 222$=+222222=7",
"2288222222% 22222 %22-=4222224=6",
"2288222222 %22222% 22+=$22222$72",
"228822222%         %224=7#2#7722",
"2:88>222222222222222222*o==$5222",
"88888822222222222222222224==2222",
"222222222222222222222222224==722",
"222222222222222222222222222447=2",
"22222222222222222222222222222222",
"22222222222222222222222222222222",
"22222222222222222222222222222222",
"22222222222222222222222222222222",
"22222222222222222222222222222222",
"22222222222222222222222222222222",
"22222222222222222222222222222222"
};
