<svg id="Layer_1" data-name="Layer 1" xmlns="http://www.w3.org/2000/svg" width="543.37939" height="347.36377" viewBox="0 0 543.37939 347.36377"><defs><style>.cls-1,.cls-2,.cls-3{fill:none;stroke-width:2px;}.cls-1{stroke:#e80f2e;}.cls-1,.cls-2{stroke-linecap:round;stroke-linejoin:round;}.cls-2{stroke:#78bf5a;}.cls-3{stroke:#000;stroke-miterlimit:10;}</style></defs><polyline class="cls-1" points="90.931 303.748 91.07 303.671 91.51 303.425 91.95 303.179 92.39 302.933 92.831 302.687 93.271 302.441 93.711 302.195 94.152 301.949 94.592 301.703 95.032 301.458 95.473 301.212 95.913 300.966 96.353 300.72 96.794 300.474 97.234 300.228 97.674 299.983 98.115 299.737 98.555 299.491 98.995 299.245 99.436 298.999 99.876 298.754 100.316 298.508 100.757 298.262 101.197 298.017 101.637 297.771 102.078 297.525 102.518 297.28 102.958 297.034 103.399 296.788 103.839 296.543 104.279 296.297 104.72 296.051 105.16 295.806 105.6 295.56 106.04 295.315 106.481 295.069 106.921 294.823 107.361 294.578 107.802 294.332 108.242 294.087 108.682 293.841 109.123 293.596 109.563 293.35 110.003 293.104 110.444 292.859 110.884 292.613 111.324 292.368 111.765 292.122 112.205 291.877 112.645 291.631 113.086 291.386 113.526 291.14 113.966 290.895 114.407 290.649 114.847 290.404 115.287 290.158 115.728 289.913 116.168 289.667 116.608 289.422 117.049 289.176 117.489 288.931 117.929 288.685 118.369 288.44 118.81 288.194 119.25 287.949 119.69 287.703 120.131 287.458 120.571 287.212 121.011 286.967 121.452 286.721 121.892 286.476 122.332 286.23 122.773 285.985 123.213 285.739 123.653 285.493 124.094 285.248 124.534 285.002 124.974 284.757 125.415 284.511 125.855 284.266 126.295 284.02 126.736 283.775 127.176 283.529 127.616 283.283 128.057 283.038 128.497 282.792 128.937 282.547 129.378 282.301 129.818 282.055 130.258 281.81 130.699 281.564 131.139 281.318 131.579 281.073 132.019 280.827 132.46 280.581 132.9 280.336 133.34 280.09 133.781 279.844 134.221 279.598 134.661 279.353 135.102 279.107 135.542 278.861 135.982 278.615 136.423 278.37 136.863 278.124 137.303 277.878 137.744 277.632 138.184 277.386 138.624 277.14 139.065 276.894 139.505 276.648 139.945 276.403 140.386 276.157 140.826 275.911 141.266 275.665 141.707 275.419 142.147 275.173 142.587 274.927 143.028 274.681 143.468 274.435 143.908 274.188 144.349 273.942 144.789 273.696 145.229 273.45 145.67 273.204 146.11 272.958 146.55 272.712 146.99 272.465 147.431 272.219 147.871 271.973 148.311 271.726 148.752 271.48 149.192 271.234 149.632 270.987 150.073 270.741 150.513 270.495 150.953 270.248 151.394 270.002 151.834 269.755 152.274 269.509 152.715 269.262 153.155 269.016 153.595 268.769 154.036 268.522 154.476 268.276 154.916 268.029 155.357 267.782 155.797 267.536 156.237 267.289 156.678 267.042 157.118 266.795 157.558 266.549 157.999 266.302 158.439 266.055 158.879 265.808 159.319 265.561 159.76 265.314 160.2 265.067 160.64 264.82 161.081 264.573 161.521 264.326 161.961 264.079 162.402 263.831 162.842 263.584 163.282 263.337 163.723 263.09 164.163 262.842 164.603 262.595 165.044 262.348 165.484 262.1 165.924 261.853 166.365 261.605 166.805 261.358 167.245 261.11 167.686 260.863 168.126 260.615 168.566 260.367 169.007 260.12 169.447 259.872 169.887 259.624 170.328 259.376 170.768 259.128 171.208 258.88 171.649 258.633 172.089 258.385 172.529 258.137 172.969 257.888 173.41 257.64 173.85 257.392 174.29 257.144 174.731 256.896 175.171 256.648 175.611 256.399 176.052 256.151 176.492 255.903 176.932 255.654 177.373 255.406 177.813 255.157 178.253 254.909 178.694 254.66 179.134 254.411 179.574 254.163 180.015 253.914 180.455 253.665 180.895 253.416 181.336 253.167 181.776 252.918 182.216 252.669 182.657 252.42 183.097 252.171 183.537 251.922 183.978 251.673 184.418 251.424 184.858 251.175 185.299 250.925 185.739 250.676 186.179 250.426 186.62 250.177 187.06 249.928 187.5 249.678 187.94 249.428 188.381 249.179 188.821 248.929 189.261 248.679 189.702 248.429 190.142 248.18 190.582 247.93 191.023 247.68 191.463 247.43 191.903 247.18 192.344 246.929 192.784 246.679 193.224 246.429 193.665 246.179 194.105 245.928 194.545 245.678 194.986 245.427 195.426 245.177 195.866 244.926 196.307 244.676 196.747 244.425 197.187 244.174 197.628 243.923 198.068 243.673 198.508 243.422 198.949 243.171 199.389 242.92 199.829 242.669 200.269 242.417 200.71 242.166 201.15 241.915 201.59 241.664 202.031 241.412 202.471 241.161 202.911 240.909 203.352 240.658 203.792 240.406 204.232 240.154 204.673 239.903 205.113 239.651 205.553 239.399 205.994 239.147 206.434 238.895 206.874 238.643 207.315 238.391 207.755 238.138 208.195 237.886 208.636 237.634 209.076 237.382 209.516 237.129 209.957 236.877 210.397 236.624 210.837 236.371 211.278 236.119 211.718 235.866 212.158 235.613 212.599 235.36 213.039 235.107 213.479 234.854 213.919 234.601 214.36 234.348 214.8 234.094 215.24 233.841 215.681 233.588 216.121 233.334 216.561 233.081 217.002 232.827 217.442 232.573 217.882 232.32 218.323 232.066 218.763 231.812 219.203 231.558 219.644 231.304 220.084 231.05 220.524 230.796 220.965 230.541 221.405 230.287 221.845 230.033 222.286 229.778"/><polyline class="cls-1" points="222.286 229.778 222.726 229.524 223.166 229.269 223.607 229.015 224.047 228.76 224.487 228.505 224.928 228.25 225.368 227.995 225.808 227.74 226.249 227.485 226.689 227.23 227.129 226.974 227.57 226.719 228.01 226.464 228.45 226.208 228.89 225.953 229.331 225.697 229.771 225.441 230.211 225.185 230.652 224.93 231.092 224.674 231.532 224.418 231.973 224.161 232.413 223.905 232.853 223.649 233.294 223.393 233.734 223.136 234.174 222.88 234.615 222.623 235.055 222.366 235.495 222.11 235.936 221.853 236.376 221.596 236.816 221.339 237.257 221.082 237.697 220.825 238.137 220.568 238.578 220.31 239.018 220.053 239.458 219.795 239.899 219.538 240.339 219.28 240.779 219.022 241.219 218.765 241.66 218.507 242.1 218.249 242.54 217.991 242.981 217.733 243.421 217.474 243.861 217.216 244.302 216.958 244.742 216.699 245.182 216.441 245.623 216.182 246.063 215.923 246.503 215.665 246.944 215.406 247.384 215.147 247.824 214.888 248.265 214.629 248.705 214.369 249.145 214.11 249.586 213.851 250.026 213.591 250.466 213.331 250.907 213.072 251.347 212.812 251.787 212.552 252.228 212.292 252.668 212.032 253.108 211.772 253.549 211.512 253.989 211.252 254.429 210.991 254.869 210.731 255.31 210.47 255.75 210.21 256.19 209.949 256.631 209.688 257.071 209.427 257.511 209.166 257.952 208.905 258.392 208.644 258.832 208.383 259.273 208.121 259.713 207.86 260.153 207.599 260.594 207.337 261.034 207.075 261.474 206.813 261.915 206.552 262.355 206.29 262.795 206.027 263.236 205.765 263.676 205.503 264.116 205.241 264.557 204.978 264.997 204.716 265.437 204.453 265.878 204.19 266.318 203.928 266.758 203.665 267.199 203.402 267.639 203.139 268.079 202.875 268.519 202.612 268.96 202.349 269.4 202.085 269.84 201.822 270.281 201.558 270.721 201.294 271.161 201.031 271.602 200.767 272.042 200.503 272.482 200.238 272.923 199.974 273.363 199.71 273.803 199.446 274.244 199.181 274.684 198.916 275.124 198.652 275.565 198.387 276.005 198.122 276.445 197.857 276.886 197.592 277.326 197.327 277.766 197.062 278.207 196.796 278.647 196.531 279.087 196.265 279.528 196 279.968 195.734 280.408 195.468 280.849 195.202 281.289 194.936 281.729 194.67 282.17 194.404 282.61 194.137 283.05 193.871 283.49 193.605 283.931 193.338 284.371 193.071 284.811 192.804 285.252 192.537 285.692 192.27 286.132 192.003 286.573 191.736 287.013 191.469 287.453 191.202 287.894 190.934 288.334 190.666 288.774 190.399 289.215 190.131 289.655 189.863 290.095 189.595 290.536 189.327 290.976 189.059 291.416 188.791 291.857 188.522 292.297 188.254 292.737 187.985 293.178 187.716 293.618 187.448 294.058 187.179 294.499 186.91 294.939 186.641 295.379 186.372 295.82 186.102 296.26 185.833 296.7 185.563 297.14 185.294 297.581 185.024 298.021 184.755 298.461 184.485 298.902 184.215 299.342 183.945 299.782 183.674 300.223 183.404 300.663 183.134 301.103 182.863 301.544 182.593 301.984 182.322 302.424 182.051 302.865 181.781 303.305 181.51 303.745 181.238 304.186 180.967 304.626 180.696 305.066 180.425 305.507 180.153 305.947 179.882 306.387 179.61 306.828 179.338 307.268 179.066 307.708 178.794 308.149 178.522 308.589 178.25 309.029 177.978 309.47 177.706 309.91 177.433 310.35 177.161 310.79 176.888 311.231 176.615 311.671 176.342 312.111 176.069 312.552 175.796 312.992 175.523 313.432 175.25 313.873 174.976 314.313 174.703 314.753 174.429 315.194 174.156 315.634 173.882 316.074 173.608 316.515 173.334 316.955 173.06 317.395 172.786 317.836 172.512 318.276 172.237 318.716 171.963 319.157 171.688 319.597 171.414 320.037 171.139 320.478 170.864 320.918 170.589 321.358 170.314 321.799 170.039 322.239 169.763 322.679 169.488 323.119 169.213 323.56 168.937 324 168.661 324.44 168.386 324.881 168.11 325.321 167.834 325.761 167.558 326.202 167.281 326.642 167.005 327.082 166.729 327.523 166.452 327.963 166.176 328.403 165.899 328.844 165.622 329.284 165.345 329.724 165.069 330.165 164.791 330.605 164.514 331.045 164.237 331.486 163.96 331.926 163.682 332.366 163.405 332.807 163.127 333.247 162.849 333.687 162.571 334.128 162.293 334.568 162.015 335.008 161.737 335.449 161.459 335.889 161.181 336.329 160.902 336.769 160.624 337.21 160.345 337.65 160.066 338.09 159.787 338.531 159.508 338.971 159.229 339.411 158.95 339.852 158.671 340.292 158.392 340.732 158.112 341.173 157.833 341.613 157.553 342.053 157.273 342.494 156.994 342.934 156.714 343.374 156.434 343.815 156.153 344.255 155.873 344.695 155.593 345.136 155.313 345.576 155.032 346.016 154.751 346.457 154.471 346.897 154.19 347.337 153.909 347.778 153.628 348.218 153.347 348.658 153.066 349.099 152.785 349.539 152.503 349.979 152.222 350.419 151.94 350.86 151.659 351.3 151.377 351.74 151.095 352.181 150.813 352.621 150.531 353.061 150.249 353.502 149.967 353.942 149.684"/><polyline class="cls-1" points="353.942 149.684 354.382 149.402 354.823 149.119 355.263 148.837 355.703 148.554 356.144 148.271 356.584 147.988 357.024 147.706 357.465 147.422 357.905 147.139 358.345 146.856 358.786 146.573 359.226 146.289 359.666 146.006 360.107 145.722 360.547 145.438 360.987 145.155 361.428 144.871 361.868 144.587 362.308 144.303 362.749 144.018 363.189 143.734 363.629 143.45 364.07 143.165 364.51 142.881 364.95 142.596 365.39 142.311 365.831 142.027 366.271 141.742 366.711 141.457 367.152 141.172 367.592 140.886 368.032 140.601 368.473 140.316 368.913 140.03 369.353 139.745 369.794 139.459 370.234 139.174 370.674 138.888 371.115 138.602 371.555 138.316 371.995 138.03 372.436 137.744 372.876 137.457 373.316 137.171 373.757 136.885 374.197 136.598 374.637 136.312 375.078 136.025 375.518 135.738 375.958 135.451 376.399 135.164 376.839 134.877 377.279 134.59 377.72 134.303 378.16 134.016 378.6 133.728 379.04 133.441 379.481 133.153 379.921 132.866 380.361 132.578 380.802 132.29 381.242 132.002 381.682 131.714 382.123 131.426 382.563 131.138 383.003 130.85 383.444 130.562 383.884 130.273 384.324 129.985 384.765 129.696 385.205 129.408 385.645 129.119 386.086 128.83 386.526 128.541 386.966 128.252 387.407 127.963 387.847 127.674 388.287 127.385 388.728 127.096 389.168 126.806 389.608 126.517 390.049 126.227 390.489 125.938 390.929 125.648 391.37 125.358 391.81 125.068 392.25 124.779 392.69 124.489 393.131 124.198 393.571 123.908 394.011 123.618 394.452 123.328 394.892 123.037 395.332 122.747 395.773 122.456 396.213 122.166 396.653 121.875 397.094 121.584 397.534 121.293 397.974 121.002 398.415 120.711 398.855 120.42 399.295 120.129 399.736 119.838 400.176 119.547 400.616 119.255 401.057 118.964 401.497 118.672 401.937 118.381 402.378 118.089 402.818 117.797 403.258 117.505 403.699 117.214 404.139 116.922 404.579 116.63 405.019 116.337 405.46 116.045 405.9 115.753 406.34 115.461 406.781 115.168 407.221 114.876 407.661 114.583 408.102 114.291 408.542 113.998 408.982 113.705 409.423 113.412 409.863 113.12 410.303 112.827 410.744 112.534 411.184 112.241 411.624 111.947 412.065 111.654 412.505 111.361 412.945 111.067 413.386 110.774 413.826 110.481 414.266 110.187 414.707 109.893 415.147 109.6 415.587 109.306 416.028 109.012 416.468 108.718 416.908 108.424 417.349 108.13 417.789 107.836 418.229 107.542 418.669 107.248 419.11 106.953 419.55 106.659 419.99 106.365 420.431 106.07 420.871 105.776 421.311 105.481 421.752 105.186 422.192 104.892 422.632 104.597 423.073 104.302 423.513 104.007 423.953 103.712 424.394 103.417 424.834 103.122 425.274 102.827 425.715 102.532 426.155 102.237 426.595 101.941 427.036 101.646 427.476 101.35 427.916 101.055 428.357 100.759 428.797 100.464 429.237 100.168 429.678 99.872 430.118 99.577 430.558 99.281 430.999 98.985 431.439 98.689 431.879 98.393 432.319 98.097 432.76 97.801 433.2 97.505 433.64 97.208 434.081 96.912 434.521 96.616 434.961 96.319 435.402 96.023 435.842 95.727 436.282 95.43 436.723 95.133 437.163 94.837 437.603 94.54 438.044 94.243 438.484 93.947 438.924 93.65 439.365 93.353 439.805 93.056 440.245 92.759 440.686 92.462 441.126 92.165 441.566 91.868 442.007 91.57 442.447 91.273 442.887 90.976 443.328 90.679 443.768 90.381 444.208 90.084 444.649 89.786 445.089 89.489 445.529 89.191 445.97 88.894 446.41 88.596 446.85 88.298 447.29 88.001 447.731 87.703 448.171 87.405 448.611 87.107 449.052 86.809 449.492 86.511 449.932 86.213 450.373 85.915 450.813 85.617 451.253 85.319 451.694 85.021 452.134 84.723 452.574 84.424 453.015 84.126 453.455 83.828 453.895 83.529 454.336 83.231 454.776 82.933 455.216 82.634 455.657 82.336 456.097 82.037 456.537 81.738 456.978 81.44 457.418 81.141 457.858 80.842 458.299 80.544 458.739 80.245 459.179 79.946 459.62 79.647 460.06 79.348 460.5 79.049 460.94 78.75 461.381 78.451 461.821 78.152 462.261 77.853 462.702 77.554 463.142 77.255 463.582 76.956 464.023 76.657 464.463 76.358 464.903 76.058 465.344 75.759 465.784 75.46 466.224 75.16 466.665 74.861 467.105 74.562 467.545 74.262 467.986 73.963 468.426 73.663 468.866 73.364 469.307 73.064 469.747 72.764 470.187 72.465 470.628 72.165 471.068 71.866 471.508 71.566 471.949 71.266 472.389 70.966 472.829 70.667 473.27 70.367 473.71 70.067 474.15 69.767 474.59 69.467 475.031 69.167 475.471 68.868 475.911 68.568 476.352 68.268 476.792 67.968 477.232 67.668 477.673 67.368 478.113 67.068 478.553 66.767 478.994 66.467 479.434 66.167 479.874 65.867 480.315 65.567 480.755 65.267 481.195 64.967 481.636 64.666 482.076 64.366 482.516 64.066 482.957 63.766 483.397 63.465 483.837 63.165 484.278 62.865 484.718 62.564 485.158 62.264 485.599 61.964"/><polyline class="cls-1" points="485.599 61.964 486.039 61.663 486.479 61.363 486.92 61.062 487.36 60.762 487.8 60.462 488.24 60.161 488.681 59.861 489.121 59.56 489.561 59.26 490.002 58.959 490.442 58.659 490.882 58.358 491.323 58.057 491.763 57.757 492.203 57.456 492.644 57.156 493.084 56.855 493.524 56.554 493.965 56.254 494.405 55.953 494.845 55.653 495.286 55.352 495.726 55.051 496.166 54.751 496.607 54.45 497.047 54.149 497.487 53.849 497.928 53.548 498.368 53.247 498.808 52.946 499.249 52.646 499.689 52.345 500.129 52.044 500.569 51.743 501.01 51.443 501.45 51.142 501.89 50.841 502.331 50.54 502.771 50.24 503.211 49.939 503.652 49.638 504.092 49.337 504.532 49.037 504.973 48.736 505.413 48.435 505.853 48.134 506.294 47.834 506.734 47.533 507.174 47.232 507.615 46.931 508.055 46.63 508.495 46.33 508.936 46.029 509.376 45.728 509.816 45.427 510.257 45.127 510.697 44.826 511.137 44.525 511.578 44.224 512.018 43.924 512.458 43.623 512.899 43.322 513.339 43.021 513.779 42.721 514.22 42.42 514.66 42.119 515.1 41.818 515.54 41.518 515.981 41.217 516.421 40.916 516.861 40.615 517.302 40.315 517.742 40.014 518.182 39.713 518.623 39.413 519.063 39.112 519.503 38.811 519.944 38.511 520.384 38.21 520.824 37.909 521.265 37.609 521.705 37.308"/><polyline class="cls-2" points="91.476 303.748 91.51 303.729 91.95 303.487 92.39 303.246 92.831 303.004 93.271 302.762 93.711 302.52 94.152 302.278 94.592 302.036 95.032 301.794 95.473 301.552 95.913 301.311 96.353 301.069 96.794 300.827 97.234 300.585 97.674 300.343 98.115 300.102 98.555 299.86 98.995 299.618 99.436 299.377 99.876 299.135 100.316 298.893 100.757 298.652 101.197 298.41 101.637 298.168 102.078 297.927 102.518 297.685 102.958 297.443 103.399 297.202 103.839 296.96 104.279 296.719 104.72 296.477 105.16 296.236 105.6 295.994 106.04 295.753 106.481 295.511 106.921 295.27 107.361 295.028 107.802 294.787 108.242 294.545 108.682 294.304 109.123 294.062 109.563 293.821 110.003 293.579 110.444 293.338 110.884 293.097 111.324 292.855 111.765 292.614 112.205 292.372 112.645 292.131 113.086 291.89 113.526 291.648 113.966 291.407 114.407 291.165 114.847 290.924 115.287 290.683 115.728 290.441 116.168 290.2 116.608 289.959 117.049 289.717 117.489 289.476 117.929 289.235 118.369 288.993 118.81 288.752 119.25 288.511 119.69 288.269 120.131 288.028 120.571 287.787 121.011 287.545 121.452 287.304 121.892 287.063 122.332 286.821 122.773 286.58 123.213 286.339 123.653 286.097 124.094 285.856 124.534 285.615 124.974 285.373 125.415 285.132 125.855 284.891 126.295 284.649 126.736 284.408 127.176 284.167 127.616 283.925 128.057 283.684 128.497 283.442 128.937 283.201 129.378 282.96 129.818 282.718 130.258 282.477 130.699 282.236 131.139 281.994 131.579 281.753 132.019 281.511 132.46 281.27 132.9 281.028 133.34 280.787 133.781 280.546 134.221 280.304 134.661 280.063 135.102 279.821 135.542 279.58 135.982 279.338 136.423 279.097 136.863 278.855 137.303 278.614 137.744 278.372 138.184 278.131 138.624 277.889 139.065 277.648 139.505 277.406 139.945 277.164 140.386 276.923 140.826 276.681 141.266 276.44 141.707 276.198 142.147 275.956 142.587 275.715 143.028 275.473 143.468 275.231 143.908 274.99 144.349 274.748 144.789 274.506 145.229 274.264 145.67 274.023 146.11 273.781 146.55 273.539 146.99 273.297 147.431 273.055 147.871 272.814 148.311 272.572 148.752 272.33 149.192 272.088 149.632 271.846 150.073 271.604 150.513 271.362 150.953 271.12 151.394 270.878 151.834 270.636 152.274 270.394 152.715 270.152 153.155 269.91 153.595 269.668 154.036 269.426 154.476 269.184 154.916 268.941 155.357 268.699 155.797 268.457 156.237 268.215 156.678 267.972 157.118 267.73 157.558 267.488 157.999 267.246 158.439 267.003 158.879 266.761 159.319 266.518 159.76 266.276 160.2 266.033 160.64 265.791 161.081 265.548 161.521 265.306 161.961 265.063 162.402 264.821 162.842 264.578 163.282 264.335 163.723 264.093 164.163 263.85 164.603 263.607 165.044 263.365 165.484 263.122 165.924 262.879 166.365 262.636 166.805 262.393 167.245 262.15 167.686 261.907 168.126 261.664 168.566 261.421 169.007 261.178 169.447 260.935 169.887 260.692 170.328 260.449 170.768 260.206 171.208 259.963 171.649 259.719 172.089 259.476 172.529 259.233 172.969 258.989 173.41 258.746 173.85 258.503 174.29 258.259 174.731 258.016 175.171 257.772 175.611 257.528 176.052 257.285 176.492 257.041 176.932 256.798 177.373 256.554 177.813 256.31 178.253 256.066 178.694 255.822 179.134 255.579 179.574 255.335 180.015 255.091 180.455 254.847 180.895 254.603 181.336 254.359 181.776 254.115 182.216 253.87 182.657 253.626 183.097 253.382 183.537 253.138 183.978 252.893 184.418 252.649 184.858 252.405 185.299 252.16 185.739 251.916 186.179 251.671 186.62 251.427 187.06 251.182 187.5 250.937 187.94 250.693 188.381 250.448 188.821 250.203 189.261 249.958 189.702 249.713 190.142 249.468 190.582 249.223 191.023 248.978 191.463 248.733 191.903 248.488 192.344 248.243 192.784 247.998 193.224 247.752 193.665 247.507 194.105 247.262 194.545 247.016 194.986 246.771 195.426 246.525 195.866 246.28 196.307 246.034 196.747 245.788 197.187 245.543 197.628 245.297 198.068 245.051 198.508 244.805 198.949 244.559 199.389 244.313 199.829 244.067 200.269 243.821 200.71 243.575 201.15 243.329 201.59 243.083 202.031 242.836 202.471 242.59 202.911 242.344 203.352 242.097 203.792 241.851 204.232 241.604 204.673 241.357 205.113 241.111 205.553 240.864 205.994 240.617 206.434 240.37 206.874 240.123 207.315 239.876 207.755 239.629 208.195 239.382 208.636 239.135 209.076 238.888 209.516 238.641 209.957 238.393 210.397 238.146 210.837 237.899 211.278 237.651 211.718 237.404 212.158 237.156 212.599 236.908 213.039 236.66 213.479 236.413 213.919 236.165 214.36 235.917 214.8 235.669 215.24 235.421 215.681 235.173 216.121 234.925 216.561 234.676 217.002 234.428 217.442 234.18 217.882 233.931 218.323 233.683 218.763 233.434 219.203 233.186 219.644 232.937 220.084 232.688 220.524 232.439 220.965 232.19 221.405 231.942 221.845 231.693 222.286 231.443 222.726 231.194"/><polyline class="cls-2" points="222.726 231.194 223.166 230.945 223.607 230.696 224.047 230.446 224.487 230.197 224.928 229.948 225.368 229.698 225.808 229.448 226.249 229.199 226.689 228.949 227.129 228.699 227.57 228.449 228.01 228.199 228.45 227.949 228.89 227.699 229.331 227.449 229.771 227.199 230.211 226.949 230.652 226.698 231.092 226.448 231.532 226.197 231.973 225.947 232.413 225.696 232.853 225.445 233.294 225.194 233.734 224.943 234.174 224.693 234.615 224.442 235.055 224.19 235.495 223.939 235.936 223.688 236.376 223.437 236.816 223.185 237.257 222.934 237.697 222.682 238.137 222.431 238.578 222.179 239.018 221.927 239.458 221.675 239.899 221.423 240.339 221.171 240.779 220.919 241.219 220.667 241.66 220.415 242.1 220.163 242.54 219.91 242.981 219.658 243.421 219.405 243.861 219.153 244.302 218.9 244.742 218.647 245.182 218.395 245.623 218.142 246.063 217.889 246.503 217.636 246.944 217.382 247.384 217.129 247.824 216.876 248.265 216.623 248.705 216.369 249.145 216.116 249.586 215.862 250.026 215.608 250.466 215.354 250.907 215.101 251.347 214.847 251.787 214.593 252.228 214.338 252.668 214.084 253.108 213.83 253.549 213.576 253.989 213.321 254.429 213.067 254.869 212.812 255.31 212.557 255.75 212.303 256.19 212.048 256.631 211.793 257.071 211.538 257.511 211.283 257.952 211.028 258.392 210.772 258.832 210.517 259.273 210.262 259.713 210.006 260.153 209.75 260.594 209.495 261.034 209.239 261.474 208.983 261.915 208.727 262.355 208.471 262.795 208.215 263.236 207.959 263.676 207.703 264.116 207.446 264.557 207.19 264.997 206.933 265.437 206.677 265.878 206.42 266.318 206.163 266.758 205.906 267.199 205.649 267.639 205.392 268.079 205.135 268.519 204.878 268.96 204.621 269.4 204.363 269.84 204.106 270.281 203.848 270.721 203.59 271.161 203.333 271.602 203.075 272.042 202.817 272.482 202.559 272.923 202.301 273.363 202.043 273.803 201.784 274.244 201.526 274.684 201.268 275.124 201.009 275.565 200.75 276.005 200.492 276.445 200.233 276.886 199.974 277.326 199.715 277.766 199.456 278.207 199.197 278.647 198.937 279.087 198.678 279.528 198.419 279.968 198.159 280.408 197.899 280.849 197.64 281.289 197.38 281.729 197.12 282.17 196.86 282.61 196.6 283.05 196.34 283.49 196.079 283.931 195.819 284.371 195.559 284.811 195.298 285.252 195.037 285.692 194.777 286.132 194.516 286.573 194.255 287.013 193.994 287.453 193.733 287.894 193.472 288.334 193.21 288.774 192.949 289.215 192.688 289.655 192.426 290.095 192.164 290.536 191.903 290.976 191.641 291.416 191.379 291.857 191.117 292.297 190.855 292.737 190.593 293.178 190.33 293.618 190.068 294.058 189.805 294.499 189.543 294.939 189.28 295.379 189.017 295.82 188.754 296.26 188.491 296.7 188.228 297.14 187.965 297.581 187.702 298.021 187.439 298.461 187.175 298.902 186.912 299.342 186.648 299.782 186.384 300.223 186.121 300.663 185.857 301.103 185.593 301.544 185.329 301.984 185.064 302.424 184.8 302.865 184.536 303.305 184.271 303.745 184.007 304.186 183.742 304.626 183.477 305.066 183.212 305.507 182.947 305.947 182.682 306.387 182.417 306.828 182.152 307.268 181.887 307.708 181.621 308.149 181.356 308.589 181.09 309.029 180.824 309.47 180.559 309.91 180.293 310.35 180.027 310.79 179.761 311.231 179.494 311.671 179.228 312.111 178.962 312.552 178.695 312.992 178.429 313.432 178.162 313.873 177.895 314.313 177.628 314.753 177.361 315.194 177.094 315.634 176.827 316.074 176.56 316.515 176.293 316.955 176.025 317.395 175.758 317.836 175.49 318.276 175.222 318.716 174.954 319.157 174.687 319.597 174.419 320.037 174.15 320.478 173.882 320.918 173.614 321.358 173.346 321.799 173.077 322.239 172.808 322.679 172.54 323.119 172.271 323.56 172.002 324 171.733 324.44 171.464 324.881 171.195 325.321 170.926 325.761 170.656 326.202 170.387 326.642 170.117 327.082 169.848 327.523 169.578 327.963 169.308 328.403 169.038 328.844 168.768 329.284 168.498 329.724 168.228 330.165 167.957 330.605 167.687 331.045 167.417 331.486 167.146 331.926 166.875 332.366 166.604 332.807 166.334 333.247 166.063 333.687 165.792 334.128 165.52 334.568 165.249 335.008 164.978 335.449 164.706 335.889 164.435 336.329 164.163 336.769 163.891 337.21 163.619 337.65 163.348 338.09 163.076 338.531 162.803 338.971 162.531 339.411 162.259 339.852 161.986 340.292 161.714 340.732 161.441 341.173 161.169 341.613 160.896 342.053 160.623 342.494 160.35 342.934 160.077 343.374 159.804 343.815 159.531 344.255 159.257 344.695 158.984 345.136 158.71 345.576 158.437 346.016 158.163 346.457 157.889 346.897 157.615 347.337 157.341 347.778 157.067 348.218 156.793 348.658 156.519 349.099 156.244 349.539 155.97 349.979 155.695 350.419 155.421 350.86 155.146 351.3 154.871 351.74 154.596 352.181 154.321 352.621 154.046 353.061 153.771 353.502 153.495 353.942 153.22 354.382 152.944"/><polyline class="cls-2" points="354.382 152.944 354.823 152.669 355.263 152.393 355.703 152.117 356.144 151.842 356.584 151.566 357.024 151.29 357.465 151.013 357.905 150.737 358.345 150.461 358.786 150.185 359.226 149.908 359.666 149.631 360.107 149.355 360.547 149.078 360.987 148.801 361.428 148.524 361.868 148.247 362.308 147.97 362.749 147.693 363.189 147.415 363.629 147.138 364.07 146.861 364.51 146.583 364.95 146.305 365.39 146.028 365.831 145.75 366.271 145.472 366.711 145.194 367.152 144.916 367.592 144.638 368.032 144.359 368.473 144.081 368.913 143.802 369.353 143.524 369.794 143.245 370.234 142.967 370.674 142.688 371.115 142.409 371.555 142.13 371.995 141.851 372.436 141.572 372.876 141.292 373.316 141.013 373.757 140.734 374.197 140.454 374.637 140.174 375.078 139.895 375.518 139.615 375.958 139.335 376.399 139.055 376.839 138.775 377.279 138.495 377.72 138.215 378.16 137.935 378.6 137.654 379.04 137.374 379.481 137.093 379.921 136.813 380.361 136.532 380.802 136.251 381.242 135.97 381.682 135.689 382.123 135.408 382.563 135.127 383.003 134.846 383.444 134.565 383.884 134.283 384.324 134.002 384.765 133.72 385.205 133.439 385.645 133.157 386.086 132.875 386.526 132.594 386.966 132.312 387.407 132.03 387.847 131.747 388.287 131.465 388.728 131.183 389.168 130.901 389.608 130.618 390.049 130.336 390.489 130.053 390.929 129.771 391.37 129.488 391.81 129.205 392.25 128.922 392.69 128.639 393.131 128.356 393.571 128.073 394.011 127.79 394.452 127.506 394.892 127.223 395.332 126.94 395.773 126.656 396.213 126.372 396.653 126.089 397.094 125.805 397.534 125.521 397.974 125.237 398.415 124.953 398.855 124.669 399.295 124.385 399.736 124.101 400.176 123.817 400.616 123.532 401.057 123.248 401.497 122.963 401.937 122.679 402.378 122.394 402.818 122.109 403.258 121.824 403.699 121.54 404.139 121.255 404.579 120.97 405.019 120.684 405.46 120.399 405.9 120.114 406.34 119.829 406.781 119.543 407.221 119.258 407.661 118.972 408.102 118.687 408.542 118.401 408.982 118.115 409.423 117.83 409.863 117.544 410.303 117.258 410.744 116.972 411.184 116.686 411.624 116.399 412.065 116.113 412.505 115.827 412.945 115.54 413.386 115.254 413.826 114.968 414.266 114.681 414.707 114.394 415.147 114.108 415.587 113.821 416.028 113.534 416.468 113.247 416.908 112.96 417.349 112.673 417.789 112.386 418.229 112.099 418.669 111.811 419.11 111.524 419.55 111.237 419.99 110.949 420.431 110.662 420.871 110.374 421.311 110.087 421.752 109.799 422.192 109.511 422.632 109.223 423.073 108.935 423.513 108.648 423.953 108.36 424.394 108.071 424.834 107.783 425.274 107.495 425.715 107.207 426.155 106.919 426.595 106.63 427.036 106.342 427.476 106.053 427.916 105.765 428.357 105.476 428.797 105.187 429.237 104.899 429.678 104.61 430.118 104.321 430.558 104.032 430.999 103.743 431.439 103.454 431.879 103.165 432.319 102.876 432.76 102.587 433.2 102.297 433.64 102.008 434.081 101.719 434.521 101.429 434.961 101.14 435.402 100.85 435.842 100.561 436.282 100.271 436.723 99.981 437.163 99.691 437.603 99.402 438.044 99.112 438.484 98.822 438.924 98.532 439.365 98.242 439.805 97.952 440.245 97.662 440.686 97.371 441.126 97.081 441.566 96.791 442.007 96.501 442.447 96.21 442.887 95.92 443.328 95.629 443.768 95.339 444.208 95.048 444.649 94.757 445.089 94.467 445.529 94.176 445.97 93.885 446.41 93.594 446.85 93.304 447.29 93.013 447.731 92.722 448.171 92.431 448.611 92.139 449.052 91.848 449.492 91.557 449.932 91.266 450.373 90.975 450.813 90.683 451.253 90.392 451.694 90.101 452.134 89.809 452.574 89.518 453.015 89.226 453.455 88.935 453.895 88.643 454.336 88.351 454.776 88.06 455.216 87.768 455.657 87.476 456.097 87.184 456.537 86.892 456.978 86.601 457.418 86.309 457.858 86.017 458.299 85.725 458.739 85.433 459.179 85.14 459.62 84.848 460.06 84.556 460.5 84.264 460.94 83.972 461.381 83.679 461.821 83.387 462.261 83.095 462.702 82.802 463.142 82.51 463.582 82.217 464.023 81.925 464.463 81.632 464.903 81.339 465.344 81.047 465.784 80.754 466.224 80.461 466.665 80.169 467.105 79.876 467.545 79.583 467.986 79.29 468.426 78.997 468.866 78.704 469.307 78.412 469.747 78.119 470.187 77.826 470.628 77.533 471.068 77.239 471.508 76.946 471.949 76.653 472.389 76.36 472.829 76.067 473.27 75.774 473.71 75.48 474.15 75.187 474.59 74.894 475.031 74.6 475.471 74.307 475.911 74.014 476.352 73.72 476.792 73.427 477.232 73.133 477.673 72.84 478.113 72.546 478.553 72.253 478.994 71.959 479.434 71.666 479.874 71.372 480.315 71.078 480.755 70.785 481.195 70.491 481.636 70.197 482.076 69.903 482.516 69.61 482.957 69.316 483.397 69.022 483.837 68.728 484.278 68.434 484.718 68.14 485.158 67.846 485.599 67.552 486.039 67.258"/><polyline class="cls-2" points="486.039 67.258 486.479 66.965 486.92 66.67 487.36 66.376 487.8 66.082 488.24 65.788 488.681 65.494 489.121 65.2 489.561 64.906 490.002 64.612 490.442 64.318 490.882 64.024 491.323 63.729 491.763 63.435 492.203 63.141 492.644 62.847 493.084 62.552 493.524 62.258 493.965 61.964 494.405 61.67 494.845 61.375 495.286 61.081 495.726 60.787 496.166 60.492 496.607 60.198 497.047 59.904 497.487 59.609 497.928 59.315 498.368 59.02 498.808 58.726 499.249 58.431 499.689 58.137 500.129 57.842 500.569 57.548 501.01 57.253 501.45 56.959 501.89 56.665 502.331 56.37 502.771 56.075 503.211 55.781 503.652 55.486 504.092 55.192 504.532 54.897 504.973 54.603 505.413 54.308 505.853 54.014 506.294 53.719 506.734 53.424 507.174 53.13 507.615 52.835 508.055 52.54 508.495 52.246 508.936 51.951 509.376 51.657 509.816 51.362 510.257 51.067 510.697 50.773 511.137 50.478 511.578 50.183 512.018 49.889 512.458 49.594 512.899 49.299 513.339 49.005 513.779 48.71 514.22 48.415 514.66 48.121 515.1 47.826 515.54 47.531 515.981 47.237 516.421 46.942 516.861 46.647 517.302 46.353 517.742 46.058 518.182 45.763 518.623 45.469 519.063 45.174 519.503 44.879 519.944 44.585 520.384 44.29 520.824 43.995 521.265 43.701 521.705 43.406"/><line class="cls-3" x1="81.3824" y1="303.74814" x2="521.70498" y2="303.74814"/><line class="cls-3" x1="81.3824" y1="303.74814" x2="81.3824" y2="5.76428"/><line class="cls-3" x1="81.3824" y1="299.74815" x2="81.3824" y2="307.74815"/><path class="cls-3" d="M126.9586,304.89464v4m44.03226-6v8" transform="translate(-1.54395 -3.14648)"/><path class="cls-3" d="M215.02311,304.89464v4m44.03227-6v8" transform="translate(-1.54395 -3.14648)"/><path class="cls-3" d="M303.08764,304.89464v4m44.03226-6v8" transform="translate(-1.54395 -3.14648)"/><path class="cls-3" d="M391.15217,304.89464v4m44.03223-6v8" transform="translate(-1.54395 -3.14648)"/><path class="cls-3" d="M479.21669,304.89464v4m44.03224-6v8" transform="translate(-1.54395 -3.14648)"/><line class="cls-3" x1="77.3824" y1="303.74814" x2="85.3824" y2="303.74814"/><path class="cls-3" d="M84.92635,291.99544h-4m-2-14.8992h8" transform="translate(-1.54395 -3.14648)"/><path class="cls-3" d="M84.92635,262.19705h-4m-2-14.89919h8" transform="translate(-1.54395 -3.14648)"/><path class="cls-3" d="M84.92635,232.39867h-4m-2-14.8992h8" transform="translate(-1.54395 -3.14648)"/><path class="cls-3" d="M84.92635,202.60027h-4m-2-14.8992h8" transform="translate(-1.54395 -3.14648)"/><path class="cls-3" d="M84.92635,172.8019h-4m-2-14.8992h8" transform="translate(-1.54395 -3.14648)"/><path class="cls-3" d="M84.92635,143.0035h-4m-2-14.89919h8" transform="translate(-1.54395 -3.14648)"/><path class="cls-3" d="M84.92635,113.20513h-4m-2-14.8992h8" transform="translate(-1.54395 -3.14648)"/><path class="cls-3" d="M84.92635,83.40673h-4m-2-14.89919h8" transform="translate(-1.54395 -3.14648)"/><path class="cls-3" d="M84.92635,53.60834h-4m-2-14.89918h8" transform="translate(-1.54395 -3.14648)"/><path class="cls-3" d="M84.92635,23.81h-4m-2-14.8992h8" transform="translate(-1.54395 -3.14648)"/><path d="M79.398,321.83545c0,4.46582-1.85449,6.03223-3.72754,6.03223-1.9082,0-3.7627-1.56641-3.7627-6.03223,0-4.4834,1.8545-6.08594,3.7627-6.08594C77.54346,315.74951,79.398,317.35205,79.398,321.83545Zm-3.72754,5.22168c1.09863,0,2.125-1.0625,2.125-5.22168,0-4.21289-1.02637-5.27539-2.125-5.27539-1.13379,0-2.16016,1.04394-2.16016,5.27539C73.51025,326.01318,74.53662,327.05713,75.67041,327.05713Z" transform="translate(-1.54395 -3.14648)"/><path d="M153.69238,326.481c.9541-.93653,1.89063-1.90821,2.66455-2.71875,1.80078-1.89063,2.61084-3.38477,2.61084-4.78907a2.15843,2.15843,0,0,0-2.17871-2.41308,4.6829,4.6829,0,0,0-1.83642.39648l1.0083-.64843-.43213,1.584c-.23389.86426-.522,1.207-1.02637,1.207a1.00708,1.00708,0,0,1-.90039-.57617c.19824-1.89063,1.80078-2.77344,3.60156-2.77344,2.30469,0,3.3125,1.26074,3.3125,3.06153,0,1.5664-.77392,2.79-3.52881,5.49121-.57617.57617-1.44042,1.40429-2.34082,2.251l-.21582-.36035h6.60791v1.44043h-7.34619Z" transform="translate(-1.54395 -3.14648)"/><path d="M169.98438,321.83545c0,4.46582-1.8545,6.03223-3.72706,6.03223-1.90869,0-3.76318-1.56641-3.76318-6.03223,0-4.4834,1.85449-6.08594,3.76318-6.08594C168.12988,315.74951,169.98438,317.35205,169.98438,321.83545Zm-3.72706,5.22168c1.09815,0,2.12452-1.0625,2.12452-5.22168,0-4.21289-1.02637-5.27539-2.12452-5.27539-1.13427,0-2.16064,1.04394-2.16064,5.27539C164.09668,326.01318,165.12305,327.05713,166.25732,327.05713Z" transform="translate(-1.54395 -3.14648)"/><path d="M178.93018,321.83545c0,4.46582-1.8545,6.03223-3.72706,6.03223-1.90869,0-3.76318-1.56641-3.76318-6.03223,0-4.4834,1.85449-6.08594,3.76318-6.08594C177.07568,315.74951,178.93018,317.35205,178.93018,321.83545Zm-3.72706,5.22168c1.09815,0,2.12452-1.0625,2.12452-5.22168,0-4.21289-1.02637-5.27539-2.12452-5.27539-1.13427,0-2.16064,1.04394-2.16064,5.27539C173.04248,326.01318,174.06885,327.05713,175.20312,327.05713Z" transform="translate(-1.54395 -3.14648)"/><path d="M187.87646,321.83545c0,4.46582-1.85449,6.03223-3.72705,6.03223-1.90869,0-3.76318-1.56641-3.76318-6.03223,0-4.4834,1.85449-6.08594,3.76318-6.08594C186.022,315.74951,187.87646,317.35205,187.87646,321.83545Zm-3.72705,5.22168c1.09815,0,2.12452-1.0625,2.12452-5.22168,0-4.21289-1.02637-5.27539-2.12452-5.27539-1.13427,0-2.16064,1.04394-2.16064,5.27539C181.98877,326.01318,183.01514,327.05713,184.14941,327.05713Z" transform="translate(-1.54395 -3.14648)"/><path d="M240.71045,324.08643V323.186l5.36572-7.34668h.99024V327.6333H245.626V316.9917h.5039l-4.53711,6.28418-.01806-.26953H248.957v1.08008Z" transform="translate(-1.54395 -3.14648)"/><path d="M257.45264,321.83545c0,4.46582-1.8545,6.03223-3.727,6.03223-1.9087,0-3.76319-1.56641-3.76319-6.03223,0-4.4834,1.85449-6.08594,3.76319-6.08594C255.59814,315.74951,257.45264,317.35205,257.45264,321.83545Zm-3.727,5.22168c1.09814,0,2.12451-1.0625,2.12451-5.22168,0-4.21289-1.02637-5.27539-2.12451-5.27539-1.13428,0-2.16065,1.04394-2.16065,5.27539C251.56494,326.01318,252.59131,327.05713,253.72559,327.05713Z" transform="translate(-1.54395 -3.14648)"/><path d="M266.39844,321.83545c0,4.46582-1.85449,6.03223-3.72705,6.03223-1.90869,0-3.76319-1.56641-3.76319-6.03223,0-4.4834,1.8545-6.08594,3.76319-6.08594C264.544,315.74951,266.39844,317.35205,266.39844,321.83545Zm-3.72705,5.22168c1.09814,0,2.12451-1.0625,2.12451-5.22168,0-4.21289-1.02637-5.27539-2.12451-5.27539-1.13428,0-2.16065,1.04394-2.16065,5.27539C260.51074,326.01318,261.53711,327.05713,262.67139,327.05713Z" transform="translate(-1.54395 -3.14648)"/><path d="M275.34473,321.83545c0,4.46582-1.8545,6.03223-3.72705,6.03223-1.9087,0-3.76319-1.56641-3.76319-6.03223,0-4.4834,1.85449-6.08594,3.76319-6.08594C273.49023,315.74951,275.34473,317.35205,275.34473,321.83545Zm-3.72705,5.22168c1.09814,0,2.12451-1.0625,2.12451-5.22168,0-4.21289-1.02637-5.27539-2.12451-5.27539-1.13428,0-2.16065,1.04394-2.16065,5.27539C269.457,326.01318,270.4834,327.05713,271.61768,327.05713Z" transform="translate(-1.54395 -3.14648)"/><path d="M335.02,324.26611c0-1.9082-.86426-2.70019-2.124-2.70019a3.37781,3.37781,0,0,0-2.53907,1.06152l-.30566-.25195a3.89818,3.89818,0,0,1,3.20508-1.89063,3.209,3.209,0,0,1,3.29492,3.51172c0,2.57422-1.56641,3.8711-3.65527,3.8711-2.39454,0-3.8711-1.87305-3.8711-5.13184,0-3.51074,2.376-6.46387,6.8418-6.98633l.1084.5586c-3.83594.93652-5.40235,2.88085-5.40235,6.19335,0,3.09766.90039,4.55567,2.35938,4.55567C334.21045,327.05713,335.02,326.13916,335.02,324.26611Z" transform="translate(-1.54395 -3.14648)"/><path d="M345.479,321.83545c0,4.46582-1.85449,6.03223-3.72754,6.03223-1.9082,0-3.76269-1.56641-3.76269-6.03223,0-4.4834,1.85449-6.08594,3.76269-6.08594C343.62451,315.74951,345.479,317.35205,345.479,321.83545Zm-3.72754,5.22168c1.09864,0,2.125-1.0625,2.125-5.22168,0-4.21289-1.02636-5.27539-2.125-5.27539-1.13378,0-2.16015,1.04394-2.16015,5.27539C339.59131,326.01318,340.61768,327.05713,341.75146,327.05713Z" transform="translate(-1.54395 -3.14648)"/><path d="M354.42432,321.83545c0,4.46582-1.8545,6.03223-3.72657,6.03223-1.90918,0-3.76367-1.56641-3.76367-6.03223,0-4.4834,1.85449-6.08594,3.76367-6.08594C352.56982,315.74951,354.42432,317.35205,354.42432,321.83545Zm-3.72657,5.22168c1.09766,0,2.124-1.0625,2.124-5.22168,0-4.21289-1.02637-5.27539-2.124-5.27539-1.13476,0-2.16113,1.04394-2.16113,5.27539C348.53662,326.01318,349.563,327.05713,350.69775,327.05713Z" transform="translate(-1.54395 -3.14648)"/><path d="M363.37061,321.83545c0,4.46582-1.8545,6.03223-3.72657,6.03223-1.90918,0-3.76367-1.56641-3.76367-6.03223,0-4.4834,1.85449-6.08594,3.76367-6.08594C361.51611,315.74951,363.37061,317.35205,363.37061,321.83545Zm-3.72657,5.22168c1.09766,0,2.124-1.0625,2.124-5.22168,0-4.21289-1.02637-5.27539-2.124-5.27539-1.13476,0-2.16113,1.04394-2.16113,5.27539C357.48291,326.01318,358.50928,327.05713,359.644,327.05713Z" transform="translate(-1.54395 -3.14648)"/><path d="M420.7583,321.979l.77344.252c-1.44043.81054-2.17871,1.47656-2.17871,2.82715a2.19954,2.19954,0,0,0,2.30468,2.25,2.09021,2.09021,0,0,0,2.14356-2.17774c0-1.0625-.667-1.71094-2.791-2.71973-1.90918-.89941-2.70117-2.05175-2.70117-3.43847a3.03845,3.03845,0,0,1,3.33106-2.98926,2.78209,2.78209,0,0,1,3.06054,2.791c0,.90039-.55761,2.08886-2.57422,3.13281l-.68457-.252c1.47657-.99024,1.9629-1.71,1.9629-2.84473a1.86711,1.86711,0,1,0-3.72754-.19824c0,.99023.50488,1.90918,2.57519,2.86328,2.0166.93554,3.00684,1.85449,3.00684,3.56445,0,1.80078-1.60254,3.06152-3.63672,3.06152-2.14258,0-3.71-.99023-3.71-2.93554C417.9126,323.77979,418.90381,322.86084,420.7583,321.979Z" transform="translate(-1.54395 -3.14648)"/><path d="M434.29541,322.06885c0,4.46582-1.85449,6.03222-3.72754,6.03222-1.9082,0-3.76269-1.5664-3.76269-6.03222,0-4.4834,1.85449-6.08594,3.76269-6.08594C432.44092,315.98291,434.29541,317.58545,434.29541,322.06885Zm-3.72754,5.22168c1.09863,0,2.125-1.0625,2.125-5.22168,0-4.21289-1.02637-5.27539-2.125-5.27539-1.13379,0-2.16016,1.04394-2.16016,5.27539C428.40771,326.24658,429.43408,327.29053,430.56787,327.29053Z" transform="translate(-1.54395 -3.14648)"/><path d="M443.24072,322.06885c0,4.46582-1.85449,6.03222-3.72656,6.03222-1.90918,0-3.76367-1.5664-3.76367-6.03222,0-4.4834,1.85449-6.08594,3.76367-6.08594C441.38623,315.98291,443.24072,317.58545,443.24072,322.06885Zm-3.72656,5.22168c1.09766,0,2.124-1.0625,2.124-5.22168,0-4.21289-1.02636-5.27539-2.124-5.27539-1.13477,0-2.16113,1.04394-2.16113,5.27539C437.353,326.24658,438.37939,327.29053,439.51416,327.29053Z" transform="translate(-1.54395 -3.14648)"/><path d="M452.187,322.06885c0,4.46582-1.85449,6.03222-3.72656,6.03222-1.90918,0-3.76367-1.5664-3.76367-6.03222,0-4.4834,1.85449-6.08594,3.76367-6.08594C450.33252,315.98291,452.187,317.58545,452.187,322.06885Zm-3.72656,5.22168c1.09766,0,2.124-1.0625,2.124-5.22168,0-4.21289-1.02636-5.27539-2.124-5.27539-1.13477,0-2.16113,1.04394-2.16113,5.27539C446.29932,326.24658,447.32568,327.29053,448.46045,327.29053Z" transform="translate(-1.54395 -3.14648)"/><path d="M508.88818,327.23682v.62988h-6.64453v-.62988l2.59278-.43262h1.44043Zm-2.791-11.16407.252.18067-.07226,2.57422v5.24023c0,1.25977.01855,2.53809.05371,3.79883h-1.54786c.03614-1.26074.05372-2.53906.05372-3.79883v-6.51855l-2.41211.19824v-.71973Z" transform="translate(-1.54395 -3.14648)"/><path d="M518.08545,322.06885c0,4.46582-1.85449,6.03222-3.72656,6.03222-1.90918,0-3.76368-1.5664-3.76368-6.03222,0-4.4834,1.8545-6.08594,3.76368-6.08594C516.231,315.98291,518.08545,317.58545,518.08545,322.06885Zm-3.72656,5.22168c1.09765,0,2.124-1.0625,2.124-5.22168,0-4.21289-1.02637-5.27539-2.124-5.27539-1.13477,0-2.16114,1.04394-2.16114,5.27539C512.19775,326.24658,513.22412,327.29053,514.35889,327.29053Z" transform="translate(-1.54395 -3.14648)"/><path d="M527.03174,322.06885c0,4.46582-1.85449,6.03222-3.72754,6.03222-1.9082,0-3.7627-1.5664-3.7627-6.03222,0-4.4834,1.8545-6.08594,3.7627-6.08594C525.17725,315.98291,527.03174,317.58545,527.03174,322.06885Zm-3.72754,5.22168c1.09863,0,2.125-1.0625,2.125-5.22168,0-4.21289-1.02637-5.27539-2.125-5.27539-1.13379,0-2.16016,1.04394-2.16016,5.27539C521.144,326.24658,522.17041,327.29053,523.3042,327.29053Z" transform="translate(-1.54395 -3.14648)"/><path d="M535.978,322.06885c0,4.46582-1.85449,6.03222-3.72754,6.03222-1.9082,0-3.7627-1.5664-3.7627-6.03222,0-4.4834,1.8545-6.08594,3.7627-6.08594C534.12354,315.98291,535.978,317.58545,535.978,322.06885Zm-3.72754,5.22168c1.09863,0,2.125-1.0625,2.125-5.22168,0-4.21289-1.02637-5.27539-2.125-5.27539-1.13379,0-2.16016,1.04394-2.16016,5.27539C530.09033,326.24658,531.1167,327.29053,532.25049,327.29053Z" transform="translate(-1.54395 -3.14648)"/><path d="M544.92334,322.06885c0,4.46582-1.85449,6.03222-3.72656,6.03222-1.90918,0-3.76367-1.5664-3.76367-6.03222,0-4.4834,1.85449-6.08594,3.76367-6.08594C543.06885,315.98291,544.92334,317.58545,544.92334,322.06885Zm-3.72656,5.22168c1.09765,0,2.124-1.0625,2.124-5.22168,0-4.21289-1.02637-5.27539-2.124-5.27539-1.13477,0-2.16114,1.04394-2.16114,5.27539C539.03564,326.24658,540.062,327.29053,541.19678,327.29053Z" transform="translate(-1.54395 -3.14648)"/><path d="M34.26514,277.437c0,4.46582-1.8545,6.03223-3.72705,6.03223-1.9087,0-3.76319-1.56641-3.76319-6.03223,0-4.4834,1.85449-6.08594,3.76319-6.08594C32.41064,271.35107,34.26514,272.95361,34.26514,277.437Zm-3.72705,5.22168c1.09814,0,2.12451-1.0625,2.12451-5.22168,0-4.21289-1.02637-5.27539-2.12451-5.27539-1.13428,0-2.16065,1.04395-2.16065,5.27539C28.37744,281.61475,29.40381,282.65869,30.53809,282.65869Z" transform="translate(-1.54395 -3.14648)"/><path d="M36.42285,282.2085a1.2605,1.2605,0,1,1,1.26026,1.26074A1.2679,1.2679,0,0,1,36.42285,282.2085Z" transform="translate(-1.54395 -3.14648)"/><path d="M48.61084,277.437c0,4.46582-1.85449,6.03223-3.72705,6.03223-1.90869,0-3.76318-1.56641-3.76318-6.03223,0-4.4834,1.85449-6.08594,3.76318-6.08594C46.75635,271.35107,48.61084,272.95361,48.61084,277.437Zm-3.72705,5.22168c1.09814,0,2.12451-1.0625,2.12451-5.22168,0-4.21289-1.02637-5.27539-2.12451-5.27539-1.13428,0-2.16065,1.04395-2.16065,5.27539C42.72314,281.61475,43.74951,282.65869,44.88379,282.65869Z" transform="translate(-1.54395 -3.14648)"/><path d="M57.55664,277.437c0,4.46582-1.85449,6.03223-3.727,6.03223-1.90869,0-3.76318-1.56641-3.76318-6.03223,0-4.4834,1.85449-6.08594,3.76318-6.08594C55.70215,271.35107,57.55664,272.95361,57.55664,277.437Zm-3.727,5.22168c1.09814,0,2.12451-1.0625,2.12451-5.22168,0-4.21289-1.02637-5.27539-2.12451-5.27539-1.13428,0-2.16064,1.04395-2.16064,5.27539C51.669,281.61475,52.69531,282.65869,53.82959,282.65869Z" transform="translate(-1.54395 -3.14648)"/><path d="M66.50244,277.437c0,4.46582-1.85449,6.03223-3.72705,6.03223-1.90869,0-3.76318-1.56641-3.76318-6.03223,0-4.4834,1.85449-6.08594,3.76318-6.08594C64.648,271.35107,66.50244,272.95361,66.50244,277.437Zm-3.72705,5.22168c1.09815,0,2.12451-1.0625,2.12451-5.22168,0-4.21289-1.02636-5.27539-2.12451-5.27539-1.13428,0-2.16064,1.04395-2.16064,5.27539C60.61475,281.61475,61.64111,282.65869,62.77539,282.65869Z" transform="translate(-1.54395 -3.14648)"/><path d="M68.10254,282.08252c.9541-.93652,1.89062-1.9082,2.66455-2.71875,1.80078-1.89063,2.61084-3.38477,2.61084-4.78906a2.15844,2.15844,0,0,0-2.17871-2.41309,4.68284,4.68284,0,0,0-1.83643.39649l1.0083-.64844-.43213,1.584c-.23388.86426-.522,1.207-1.02636,1.207a1.007,1.007,0,0,1-.90039-.57617c.19824-1.89062,1.80078-2.77344,3.60156-2.77344,2.30469,0,3.3125,1.26075,3.3125,3.06153,0,1.5664-.77393,2.79-3.52881,5.49121-.57617.57617-1.44043,1.4043-2.34082,2.251l-.21582-.36036h6.60791v1.44043H68.10254Z" transform="translate(-1.54395 -3.14648)"/><path d="M33.52734,247.78662c0,4.46582-1.85449,6.03223-3.72705,6.03223-1.90869,0-3.76318-1.56641-3.76318-6.03223,0-4.4834,1.85449-6.08594,3.76318-6.08594C31.67285,241.70068,33.52734,243.30322,33.52734,247.78662Zm-3.72705,5.22168c1.09815,0,2.12451-1.0625,2.12451-5.22168,0-4.21289-1.02636-5.27539-2.12451-5.27539-1.13427,0-2.16064,1.04395-2.16064,5.27539C27.63965,251.96436,28.666,253.0083,29.80029,253.0083Z" transform="translate(-1.54395 -3.14648)"/><path d="M35.68506,252.55811a1.2605,1.2605,0,1,1,1.26025,1.26074A1.26789,1.26789,0,0,1,35.68506,252.55811Z" transform="translate(-1.54395 -3.14648)"/><path d="M47.87305,247.78662c0,4.46582-1.8545,6.03223-3.727,6.03223-1.9087,0-3.76319-1.56641-3.76319-6.03223,0-4.4834,1.85449-6.08594,3.76319-6.08594C46.01855,241.70068,47.87305,243.30322,47.87305,247.78662Zm-3.727,5.22168c1.09814,0,2.12451-1.0625,2.12451-5.22168,0-4.21289-1.02637-5.27539-2.12451-5.27539-1.13428,0-2.16065,1.04395-2.16065,5.27539C41.98535,251.96436,43.01172,253.0083,44.146,253.0083Z" transform="translate(-1.54395 -3.14648)"/><path d="M56.81885,247.78662c0,4.46582-1.85449,6.03223-3.727,6.03223-1.90869,0-3.76319-1.56641-3.76319-6.03223,0-4.4834,1.8545-6.08594,3.76319-6.08594C54.96436,241.70068,56.81885,243.30322,56.81885,247.78662Zm-3.727,5.22168c1.09814,0,2.12451-1.0625,2.12451-5.22168,0-4.21289-1.02637-5.27539-2.12451-5.27539-1.13428,0-2.16065,1.04395-2.16065,5.27539C50.93115,251.96436,51.95752,253.0083,53.0918,253.0083Z" transform="translate(-1.54395 -3.14648)"/><path d="M65.76465,247.78662c0,4.46582-1.85449,6.03223-3.72705,6.03223-1.90869,0-3.76319-1.56641-3.76319-6.03223,0-4.4834,1.8545-6.08594,3.76319-6.08594C63.91016,241.70068,65.76465,243.30322,65.76465,247.78662ZM62.0376,253.0083c1.09814,0,2.12451-1.0625,2.12451-5.22168,0-4.21289-1.02637-5.27539-2.12451-5.27539-1.13428,0-2.16065,1.04395-2.16065,5.27539C59.877,251.96436,60.90332,253.0083,62.0376,253.0083Z" transform="translate(-1.54395 -3.14648)"/><path d="M66.91455,250.0376v-.90039l5.36572-7.34668h.99024v11.79394H71.83008v-10.6416h.5039l-4.5371,6.28418-.01807-.26953h7.38232v1.08008Z" transform="translate(-1.54395 -3.14648)"/><path d="M33.52686,218.32764c0,4.46582-1.8545,6.03222-3.72657,6.03222-1.90918,0-3.76367-1.5664-3.76367-6.03222,0-4.4834,1.85449-6.08594,3.76367-6.08594C31.67236,212.2417,33.52686,213.84424,33.52686,218.32764Zm-3.72657,5.22168c1.09766,0,2.124-1.0625,2.124-5.22168,0-4.21289-1.02637-5.27539-2.124-5.27539-1.13476,0-2.16113,1.04394-2.16113,5.27539C27.63916,222.50537,28.66553,223.54932,29.80029,223.54932Z" transform="translate(-1.54395 -3.14648)"/><path d="M35.68506,223.09912a1.26026,1.26026,0,1,1,1.25976,1.26074A1.26749,1.26749,0,0,1,35.68506,223.09912Z" transform="translate(-1.54395 -3.14648)"/><path d="M47.87256,218.32764c0,4.46582-1.85449,6.03222-3.72656,6.03222-1.90918,0-3.76368-1.5664-3.76368-6.03222,0-4.4834,1.8545-6.08594,3.76368-6.08594C46.01807,212.2417,47.87256,213.84424,47.87256,218.32764ZM44.146,223.54932c1.09765,0,2.124-1.0625,2.124-5.22168,0-4.21289-1.02637-5.27539-2.124-5.27539-1.13477,0-2.16114,1.04394-2.16114,5.27539C41.98486,222.50537,43.01123,223.54932,44.146,223.54932Z" transform="translate(-1.54395 -3.14648)"/><path d="M56.81885,218.32764c0,4.46582-1.85449,6.03222-3.72754,6.03222-1.9082,0-3.7627-1.5664-3.7627-6.03222,0-4.4834,1.8545-6.08594,3.7627-6.08594C54.96436,212.2417,56.81885,213.84424,56.81885,218.32764Zm-3.72754,5.22168c1.09863,0,2.125-1.0625,2.125-5.22168,0-4.21289-1.02637-5.27539-2.125-5.27539-1.13379,0-2.16016,1.04394-2.16016,5.27539C50.93115,222.50537,51.95752,223.54932,53.09131,223.54932Z" transform="translate(-1.54395 -3.14648)"/><path d="M65.76416,218.32764c0,4.46582-1.85449,6.03222-3.72656,6.03222-1.90918,0-3.76367-1.5664-3.76367-6.03222,0-4.4834,1.85449-6.08594,3.76367-6.08594C63.90967,212.2417,65.76416,213.84424,65.76416,218.32764Zm-3.72656,5.22168c1.09765,0,2.124-1.0625,2.124-5.22168,0-4.21289-1.02637-5.27539-2.124-5.27539-1.13477,0-2.16114,1.04394-2.16114,5.27539C59.87646,222.50537,60.90283,223.54932,62.0376,223.54932Z" transform="translate(-1.54395 -3.14648)"/><path d="M73.19775,220.7583c0-1.9082-.86425-2.70019-2.124-2.70019a3.37778,3.37778,0,0,0-2.53906,1.06152l-.30567-.25195a3.89818,3.89818,0,0,1,3.20508-1.89063,3.209,3.209,0,0,1,3.29492,3.51172c0,2.57422-1.5664,3.87109-3.65527,3.87109-2.39453,0-3.87109-1.873-3.87109-5.13183,0-3.51074,2.376-6.46387,6.84179-6.98633l.1084.55859c-3.83594.93653-5.40234,2.88086-5.40234,6.19336,0,3.09766.90039,4.55567,2.35937,4.55567C72.38818,223.54932,73.19775,222.63135,73.19775,220.7583Z" transform="translate(-1.54395 -3.14648)"/><path d="M33.52686,188.41846c0,4.46582-1.8545,6.03222-3.72706,6.03222-1.90869,0-3.76318-1.5664-3.76318-6.03222,0-4.4834,1.85449-6.08594,3.76318-6.08594C31.67236,182.33252,33.52686,183.93506,33.52686,188.41846Zm-3.72706,5.22168c1.09815,0,2.12452-1.0625,2.12452-5.22168,0-4.21289-1.02637-5.27539-2.12452-5.27539-1.13427,0-2.16064,1.04394-2.16064,5.27539C27.63916,192.59619,28.66553,193.64014,29.7998,193.64014Z" transform="translate(-1.54395 -3.14648)"/><path d="M35.68457,193.18994a1.2605,1.2605,0,1,1,1.26025,1.26074A1.2679,1.2679,0,0,1,35.68457,193.18994Z" transform="translate(-1.54395 -3.14648)"/><path d="M47.87256,188.41846c0,4.46582-1.85449,6.03222-3.727,6.03222-1.90869,0-3.76319-1.5664-3.76319-6.03222,0-4.4834,1.8545-6.08594,3.76319-6.08594C46.01807,182.33252,47.87256,183.93506,47.87256,188.41846Zm-3.727,5.22168c1.09814,0,2.12451-1.0625,2.12451-5.22168,0-4.21289-1.02637-5.27539-2.12451-5.27539-1.13428,0-2.16065,1.04394-2.16065,5.27539C41.98486,192.59619,43.01123,193.64014,44.14551,193.64014Z" transform="translate(-1.54395 -3.14648)"/><path d="M56.81836,188.41846c0,4.46582-1.85449,6.03222-3.727,6.03222-1.90869,0-3.76319-1.5664-3.76319-6.03222,0-4.4834,1.8545-6.08594,3.76319-6.08594C54.96387,182.33252,56.81836,183.93506,56.81836,188.41846Zm-3.727,5.22168c1.09814,0,2.12451-1.0625,2.12451-5.22168,0-4.21289-1.02637-5.27539-2.12451-5.27539-1.13428,0-2.16065,1.04394-2.16065,5.27539C50.93066,192.59619,51.957,193.64014,53.09131,193.64014Z" transform="translate(-1.54395 -3.14648)"/><path d="M65.76416,188.41846c0,4.46582-1.85449,6.03222-3.72705,6.03222-1.90869,0-3.76318-1.5664-3.76318-6.03222,0-4.4834,1.85449-6.08594,3.76318-6.08594C63.90967,182.33252,65.76416,183.93506,65.76416,188.41846Zm-3.72705,5.22168c1.09814,0,2.12451-1.0625,2.12451-5.22168,0-4.21289-1.02637-5.27539-2.12451-5.27539-1.13428,0-2.16065,1.04394-2.16065,5.27539C59.87646,192.59619,60.90283,193.64014,62.03711,193.64014Z" transform="translate(-1.54395 -3.14648)"/><path d="M70.11914,188.32861l.77393.252c-1.44043.81054-2.17871,1.47656-2.17871,2.82714a2.19926,2.19926,0,0,0,2.30468,2.25A2.09009,2.09009,0,0,0,73.16211,191.48c0-1.0625-.6665-1.71094-2.791-2.71973-1.90869-.89941-2.70068-2.05175-2.70068-3.43847a3.03844,3.03844,0,0,1,3.331-2.98926,2.7821,2.7821,0,0,1,3.06055,2.791c0,.90039-.5581,2.08886-2.57471,3.13281l-.68408-.252c1.47657-.99023,1.9624-1.71,1.9624-2.84472a1.86687,1.86687,0,1,0-3.727-.19824c0,.99023.5044,1.90918,2.57471,2.86328,2.0166.93554,3.00733,1.85449,3.00733,3.56445,0,1.80078-1.60254,3.06152-3.63721,3.06152-2.14258,0-3.70947-.99023-3.70947-2.93554C67.27393,190.12939,68.26465,189.21045,70.11914,188.32861Z" transform="translate(-1.54395 -3.14648)"/><path d="M33.52686,158.48193c0,4.46582-1.8545,6.03223-3.72706,6.03223-1.90869,0-3.76318-1.56641-3.76318-6.03223,0-4.48339,1.85449-6.08593,3.76318-6.08593C31.67236,152.396,33.52686,153.99854,33.52686,158.48193Zm-3.72706,5.22168c1.09815,0,2.12452-1.0625,2.12452-5.22168,0-4.21289-1.02637-5.27539-2.12452-5.27539-1.13427,0-2.16064,1.044-2.16064,5.27539C27.63916,162.65967,28.66553,163.70361,29.7998,163.70361Z" transform="translate(-1.54395 -3.14648)"/><path d="M35.68457,163.25342a1.2605,1.2605,0,1,1,1.26025,1.26074A1.2679,1.2679,0,0,1,35.68457,163.25342Z" transform="translate(-1.54395 -3.14648)"/><path d="M47.87256,158.48193c0,4.46582-1.85449,6.03223-3.727,6.03223-1.90869,0-3.76319-1.56641-3.76319-6.03223,0-4.48339,1.8545-6.08593,3.76319-6.08593C46.01807,152.396,47.87256,153.99854,47.87256,158.48193Zm-3.727,5.22168c1.09814,0,2.12451-1.0625,2.12451-5.22168,0-4.21289-1.02637-5.27539-2.12451-5.27539-1.13428,0-2.16065,1.044-2.16065,5.27539C41.98486,162.65967,43.01123,163.70361,44.14551,163.70361Z" transform="translate(-1.54395 -3.14648)"/><path d="M56.81836,158.48193c0,4.46582-1.85449,6.03223-3.727,6.03223-1.90869,0-3.76319-1.56641-3.76319-6.03223,0-4.48339,1.8545-6.08593,3.76319-6.08593C54.96387,152.396,56.81836,153.99854,56.81836,158.48193Zm-3.727,5.22168c1.09814,0,2.12451-1.0625,2.12451-5.22168,0-4.21289-1.02637-5.27539-2.12451-5.27539-1.13428,0-2.16065,1.044-2.16065,5.27539C50.93066,162.65967,51.957,163.70361,53.09131,163.70361Z" transform="translate(-1.54395 -3.14648)"/><path d="M65.51221,163.6499v.62989h-6.644v-.62989l2.59278-.43261h1.44043Zm-2.791-11.16406.252.18066-.07177,2.57422V160.481c0,1.25976.01806,2.53808.05371,3.79883H61.40674c.03613-1.26075.0542-2.53907.0542-3.79883V153.9624l-2.4126.19824v-.71972Z" transform="translate(-1.54395 -3.14648)"/><path d="M74.71045,158.48193c0,4.46582-1.85449,6.03223-3.727,6.03223-1.90869,0-3.76319-1.56641-3.76319-6.03223,0-4.48339,1.8545-6.08593,3.76319-6.08593C72.856,152.396,74.71045,153.99854,74.71045,158.48193Zm-3.727,5.22168c1.09814,0,2.12451-1.0625,2.12451-5.22168,0-4.21289-1.02637-5.27539-2.12451-5.27539-1.13428,0-2.16065,1.044-2.16065,5.27539C68.82275,162.65967,69.84912,163.70361,70.9834,163.70361Z" transform="translate(-1.54395 -3.14648)"/><path d="M32.52686,128.60205c0,4.46582-1.8545,6.03223-3.72706,6.03223-1.90869,0-3.76318-1.56641-3.76318-6.03223,0-4.4834,1.85449-6.08594,3.76318-6.08594C30.67236,122.51611,32.52686,124.11865,32.52686,128.60205Zm-3.72706,5.22168c1.09815,0,2.12452-1.0625,2.12452-5.22168,0-4.21289-1.02637-5.27539-2.12452-5.27539-1.13427,0-2.16064,1.04395-2.16064,5.27539C26.63916,132.77979,27.66553,133.82373,28.7998,133.82373Z" transform="translate(-1.54395 -3.14648)"/><path d="M34.68457,133.37354a1.2605,1.2605,0,1,1,1.26025,1.26074A1.26791,1.26791,0,0,1,34.68457,133.37354Z" transform="translate(-1.54395 -3.14648)"/><path d="M46.87256,128.60205c0,4.46582-1.85449,6.03223-3.727,6.03223-1.90869,0-3.76319-1.56641-3.76319-6.03223,0-4.4834,1.8545-6.08594,3.76319-6.08594C45.01807,122.51611,46.87256,124.11865,46.87256,128.60205Zm-3.727,5.22168c1.09814,0,2.12451-1.0625,2.12451-5.22168,0-4.21289-1.02637-5.27539-2.12451-5.27539-1.13428,0-2.16065,1.04395-2.16065,5.27539C40.98486,132.77979,42.01123,133.82373,43.14551,133.82373Z" transform="translate(-1.54395 -3.14648)"/><path d="M55.81836,128.60205c0,4.46582-1.85449,6.03223-3.727,6.03223-1.90869,0-3.76319-1.56641-3.76319-6.03223,0-4.4834,1.8545-6.08594,3.76319-6.08594C53.96387,122.51611,55.81836,124.11865,55.81836,128.60205Zm-3.727,5.22168c1.09814,0,2.12451-1.0625,2.12451-5.22168,0-4.21289-1.02637-5.27539-2.12451-5.27539-1.13428,0-2.16065,1.04395-2.16065,5.27539C49.93066,132.77979,50.957,133.82373,52.09131,133.82373Z" transform="translate(-1.54395 -3.14648)"/><path d="M64.51221,133.77v.62988h-6.644V133.77l2.59278-.43262h1.44043Zm-2.791-11.16406.252.18066-.07177,2.57422v5.24023c0,1.25977.01806,2.53809.05371,3.79883H60.40674c.03613-1.26074.0542-2.53906.0542-3.79883v-6.51855l-2.4126.19824V123.561Z" transform="translate(-1.54395 -3.14648)"/><path d="M66.36426,133.24756c.9541-.93652,1.89062-1.9082,2.66455-2.71875,1.80078-1.89063,2.61084-3.38477,2.61084-4.78906a2.15844,2.15844,0,0,0-2.17871-2.41309,4.683,4.683,0,0,0-1.83643.39648l1.0083-.64843-.43213,1.584c-.23388.86426-.522,1.207-1.02636,1.207a1.007,1.007,0,0,1-.90039-.57617c.19824-1.89062,1.80078-2.77344,3.60156-2.77344,2.30469,0,3.3125,1.26075,3.3125,3.06153,0,1.5664-.77393,2.79-3.52881,5.49121-.57617.57617-1.44043,1.40429-2.34082,2.251l-.21582-.36035h6.60791v1.44043H66.36426Z" transform="translate(-1.54395 -3.14648)"/><path d="M33.52686,99.17285c0,4.46582-1.8545,6.03223-3.72706,6.03223-1.90869,0-3.76318-1.56641-3.76318-6.03223,0-4.4834,1.85449-6.08594,3.76318-6.08594C31.67236,93.08691,33.52686,94.68945,33.52686,99.17285Zm-3.72706,5.22168c1.09815,0,2.12452-1.0625,2.12452-5.22168,0-4.21289-1.02637-5.27539-2.12452-5.27539-1.13427,0-2.16064,1.044-2.16064,5.27539C27.63916,103.35059,28.66553,104.39453,29.7998,104.39453Z" transform="translate(-1.54395 -3.14648)"/><path d="M35.68457,103.94434a1.2605,1.2605,0,1,1,1.26025,1.26074A1.2679,1.2679,0,0,1,35.68457,103.94434Z" transform="translate(-1.54395 -3.14648)"/><path d="M47.87256,99.17285c0,4.46582-1.85449,6.03223-3.727,6.03223-1.90869,0-3.76319-1.56641-3.76319-6.03223,0-4.4834,1.8545-6.08594,3.76319-6.08594C46.01807,93.08691,47.87256,94.68945,47.87256,99.17285Zm-3.727,5.22168c1.09814,0,2.12451-1.0625,2.12451-5.22168,0-4.21289-1.02637-5.27539-2.12451-5.27539-1.13428,0-2.16065,1.044-2.16065,5.27539C41.98486,103.35059,43.01123,104.39453,44.14551,104.39453Z" transform="translate(-1.54395 -3.14648)"/><path d="M56.81836,99.17285c0,4.46582-1.85449,6.03223-3.727,6.03223-1.90869,0-3.76319-1.56641-3.76319-6.03223,0-4.4834,1.8545-6.08594,3.76319-6.08594C54.96387,93.08691,56.81836,94.68945,56.81836,99.17285Zm-3.727,5.22168c1.09814,0,2.12451-1.0625,2.12451-5.22168,0-4.21289-1.02637-5.27539-2.12451-5.27539-1.13428,0-2.16065,1.044-2.16065,5.27539C50.93066,103.35059,51.957,104.39453,53.09131,104.39453Z" transform="translate(-1.54395 -3.14648)"/><path d="M65.51221,104.34082v.62988h-6.644v-.62988l2.59278-.43262h1.44043Zm-2.791-11.16406.252.18066-.07177,2.57422v5.24024c0,1.25976.01806,2.53808.05371,3.79882H61.40674c.03613-1.26074.0542-2.53906.0542-3.79882V94.65332l-2.4126.19824v-.71972Z" transform="translate(-1.54395 -3.14648)"/><path d="M66.91406,101.42383v-.90039l5.36573-7.34668H73.27V104.9707H71.82959V94.3291h.50391l-4.53711,6.28418-.01807-.26953h7.38232v1.08008Z" transform="translate(-1.54395 -3.14648)"/><path d="M33.52686,68.99756c0,4.46582-1.8545,6.03223-3.72706,6.03223-1.90869,0-3.76318-1.56641-3.76318-6.03223,0-4.4834,1.85449-6.08594,3.76318-6.08594C31.67236,62.91162,33.52686,64.51416,33.52686,68.99756ZM29.7998,74.21924c1.09815,0,2.12452-1.0625,2.12452-5.22168,0-4.21289-1.02637-5.27539-2.12452-5.27539-1.13427,0-2.16064,1.04394-2.16064,5.27539C27.63916,73.17529,28.66553,74.21924,29.7998,74.21924Z" transform="translate(-1.54395 -3.14648)"/><path d="M35.68457,73.769a1.2605,1.2605,0,1,1,1.26025,1.26075A1.2679,1.2679,0,0,1,35.68457,73.769Z" transform="translate(-1.54395 -3.14648)"/><path d="M47.87256,68.99756c0,4.46582-1.85449,6.03223-3.727,6.03223-1.90869,0-3.76319-1.56641-3.76319-6.03223,0-4.4834,1.8545-6.08594,3.76319-6.08594C46.01807,62.91162,47.87256,64.51416,47.87256,68.99756Zm-3.727,5.22168c1.09814,0,2.12451-1.0625,2.12451-5.22168,0-4.21289-1.02637-5.27539-2.12451-5.27539-1.13428,0-2.16065,1.04394-2.16065,5.27539C41.98486,73.17529,43.01123,74.21924,44.14551,74.21924Z" transform="translate(-1.54395 -3.14648)"/><path d="M56.81836,68.99756c0,4.46582-1.85449,6.03223-3.727,6.03223-1.90869,0-3.76319-1.56641-3.76319-6.03223,0-4.4834,1.8545-6.08594,3.76319-6.08594C54.96387,62.91162,56.81836,64.51416,56.81836,68.99756Zm-3.727,5.22168c1.09814,0,2.12451-1.0625,2.12451-5.22168,0-4.21289-1.02637-5.27539-2.12451-5.27539-1.13428,0-2.16065,1.04394-2.16065,5.27539C50.93066,73.17529,51.957,74.21924,53.09131,74.21924Z" transform="translate(-1.54395 -3.14648)"/><path d="M65.51221,74.16553v.62988h-6.644v-.62988l2.59278-.43262h1.44043Zm-2.791-11.16407.252.18067-.07177,2.57422v5.24023c0,1.25977.01806,2.53809.05371,3.79883H61.40674c.03613-1.26074.0542-2.53906.0542-3.79883V64.478l-2.4126.19824v-.71973Z" transform="translate(-1.54395 -3.14648)"/><path d="M73.19775,71.42822c0-1.9082-.86425-2.70019-2.12451-2.70019a3.37676,3.37676,0,0,0-2.53857,1.06152l-.30615-.252A3.89945,3.89945,0,0,1,71.43359,67.647a3.209,3.209,0,0,1,3.29493,3.51172c0,2.57422-1.56641,3.8711-3.65528,3.8711-2.39453,0-3.87109-1.87305-3.87109-5.13184,0-3.51074,2.37646-6.46387,6.84228-6.98633l.10791.55859c-3.83545.93653-5.40185,2.88086-5.40185,6.19336,0,3.09766.90039,4.55567,2.35889,4.55567C72.3877,74.21924,73.19775,73.30127,73.19775,71.42822Z" transform="translate(-1.54395 -3.14648)"/><path d="M33.52686,39.12256c0,4.46582-1.8545,6.03223-3.72706,6.03223-1.90869,0-3.76318-1.56641-3.76318-6.03223,0-4.4834,1.85449-6.08594,3.76318-6.08594C31.67236,33.03662,33.52686,34.63916,33.52686,39.12256ZM29.7998,44.34424c1.09815,0,2.12452-1.0625,2.12452-5.22168,0-4.21289-1.02637-5.27539-2.12452-5.27539-1.13427,0-2.16064,1.04394-2.16064,5.27539C27.63916,43.30029,28.66553,44.34424,29.7998,44.34424Z" transform="translate(-1.54395 -3.14648)"/><path d="M35.68457,43.894a1.2605,1.2605,0,1,1,1.26025,1.26075A1.2679,1.2679,0,0,1,35.68457,43.894Z" transform="translate(-1.54395 -3.14648)"/><path d="M47.87256,39.12256c0,4.46582-1.85449,6.03223-3.727,6.03223-1.90869,0-3.76319-1.56641-3.76319-6.03223,0-4.4834,1.8545-6.08594,3.76319-6.08594C46.01807,33.03662,47.87256,34.63916,47.87256,39.12256Zm-3.727,5.22168c1.09814,0,2.12451-1.0625,2.12451-5.22168,0-4.21289-1.02637-5.27539-2.12451-5.27539-1.13428,0-2.16065,1.04394-2.16065,5.27539C41.98486,43.30029,43.01123,44.34424,44.14551,44.34424Z" transform="translate(-1.54395 -3.14648)"/><path d="M56.81836,39.12256c0,4.46582-1.85449,6.03223-3.727,6.03223-1.90869,0-3.76319-1.56641-3.76319-6.03223,0-4.4834,1.8545-6.08594,3.76319-6.08594C54.96387,33.03662,56.81836,34.63916,56.81836,39.12256Zm-3.727,5.22168c1.09814,0,2.12451-1.0625,2.12451-5.22168,0-4.21289-1.02637-5.27539-2.12451-5.27539-1.13428,0-2.16065,1.04394-2.16065,5.27539C50.93066,43.30029,51.957,44.34424,53.09131,44.34424Z" transform="translate(-1.54395 -3.14648)"/><path d="M65.51221,44.29053v.62988h-6.644v-.62988l2.59278-.43262h1.44043Zm-2.791-11.16407.252.18067-.07177,2.57422v5.24023c0,1.25977.01806,2.53809.05371,3.79883H61.40674c.03613-1.26074.0542-2.53906.0542-3.79883V34.603l-2.4126.19824v-.71973Z" transform="translate(-1.54395 -3.14648)"/><path d="M70.11914,39.03271l.77393.252c-1.44043.81054-2.17871,1.47656-2.17871,2.82715a2.19926,2.19926,0,0,0,2.30468,2.25,2.09009,2.09009,0,0,0,2.14307-2.17774c0-1.0625-.6665-1.71094-2.791-2.71972-1.90869-.89942-2.70068-2.05176-2.70068-3.43848a3.03844,3.03844,0,0,1,3.331-2.98926,2.7821,2.7821,0,0,1,3.06055,2.791c0,.90039-.5581,2.08886-2.57471,3.13281l-.68408-.252c1.47657-.99024,1.9624-1.71,1.9624-2.84473a1.86687,1.86687,0,1,0-3.727-.19824c0,.99023.5044,1.90918,2.57471,2.86328,2.0166.93555,3.00733,1.85449,3.00733,3.56445,0,1.80078-1.60254,3.06153-3.63721,3.06153-2.14258,0-3.70947-.99024-3.70947-2.93555C67.27393,40.8335,68.26465,39.91455,70.11914,39.03271Z" transform="translate(-1.54395 -3.14648)"/><path d="M33.52686,9.23242c0,4.46582-1.8545,6.03223-3.72706,6.03223-1.90869,0-3.76318-1.56641-3.76318-6.03223,0-4.4834,1.85449-6.08594,3.76318-6.08594C31.67236,3.14648,33.52686,4.749,33.52686,9.23242ZM29.7998,14.4541c1.09815,0,2.12452-1.0625,2.12452-5.22168,0-4.21289-1.02637-5.27539-2.12452-5.27539-1.13427,0-2.16064,1.044-2.16064,5.27539C27.63916,13.41016,28.66553,14.4541,29.7998,14.4541Z" transform="translate(-1.54395 -3.14648)"/><path d="M35.68457,14.00391a1.2605,1.2605,0,1,1,1.26025,1.26074A1.2679,1.2679,0,0,1,35.68457,14.00391Z" transform="translate(-1.54395 -3.14648)"/><path d="M47.87256,9.23242c0,4.46582-1.85449,6.03223-3.727,6.03223-1.90869,0-3.76319-1.56641-3.76319-6.03223,0-4.4834,1.8545-6.08594,3.76319-6.08594C46.01807,3.14648,47.87256,4.749,47.87256,9.23242Zm-3.727,5.22168c1.09814,0,2.12451-1.0625,2.12451-5.22168,0-4.21289-1.02637-5.27539-2.12451-5.27539-1.13428,0-2.16065,1.044-2.16065,5.27539C41.98486,13.41016,43.01123,14.4541,44.14551,14.4541Z" transform="translate(-1.54395 -3.14648)"/><path d="M56.81836,9.23242c0,4.46582-1.85449,6.03223-3.727,6.03223-1.90869,0-3.76319-1.56641-3.76319-6.03223,0-4.4834,1.8545-6.08594,3.76319-6.08594C54.96387,3.14648,56.81836,4.749,56.81836,9.23242Zm-3.727,5.22168c1.09814,0,2.12451-1.0625,2.12451-5.22168,0-4.21289-1.02637-5.27539-2.12451-5.27539-1.13428,0-2.16065,1.044-2.16065,5.27539C50.93066,13.41016,51.957,14.4541,53.09131,14.4541Z" transform="translate(-1.54395 -3.14648)"/><path d="M58.418,13.87793c.9541-.93652,1.89062-1.9082,2.66455-2.71875,1.80078-1.89063,2.61084-3.38477,2.61084-4.78906A2.15844,2.15844,0,0,0,61.51465,3.957a4.683,4.683,0,0,0-1.83643.39649l1.0083-.64844-.43213,1.584c-.23388.86426-.522,1.207-1.02636,1.207a1.007,1.007,0,0,1-.90039-.57617c.19824-1.89062,1.80078-2.77344,3.60156-2.77344,2.30469,0,3.3125,1.26075,3.3125,3.06153,0,1.5664-.77393,2.79-3.52881,5.49121-.57617.57617-1.44043,1.4043-2.34082,2.251l-.21582-.36036h6.60791v1.44043H58.418Z" transform="translate(-1.54395 -3.14648)"/><path d="M74.71045,9.23242c0,4.46582-1.85449,6.03223-3.727,6.03223-1.90869,0-3.76319-1.56641-3.76319-6.03223,0-4.4834,1.8545-6.08594,3.76319-6.08594C72.856,3.14648,74.71045,4.749,74.71045,9.23242Zm-3.727,5.22168c1.09814,0,2.12451-1.0625,2.12451-5.22168,0-4.21289-1.02637-5.27539-2.12451-5.27539-1.13428,0-2.16065,1.044-2.16065,5.27539C68.82275,13.41016,69.84912,14.4541,70.9834,14.4541Z" transform="translate(-1.54395 -3.14648)"/><path d="M189.314,349.55518l1.89063-.26954h.35986l2.0708.26954v.7207H189.314ZM190.44824,338.77l1.11621.43262-2.16064-.27051v-.71973H192.105l7.47217,10.28125v1.90821H199.001Zm.396-.55762.90039.71973v11.34375h-.90039Zm5.94189,0h4.32129v.71973l-1.80029.27051h-.36035l-2.16065-.27051Zm1.89063,0h.90039v12.18946l-.90039-.9004Z" transform="translate(-1.54395 -3.14648)"/><path d="M204.59668,347.08936c0,1.60253.46826,2.16015,1.4585,2.16015a3.96587,3.96587,0,0,0,2.75488-1.35058h.37793v.91894h-.918l.62988-.27051a4.26506,4.26506,0,0,1-3.4209,1.96289c-1.44043,0-2.34082-.86425-2.32275-3.24121l.0542-4.7539.37793.34277-1.67432-.36035v-.62988l2.59278-.23438.18017.17969-.09033,2.52148Zm4.28516,3.33105-.252-2.10742.0542-5.79785.37793.34277-1.67431-.36035v-.62988l2.55664-.23438.18017.17969-.0542,2.52148v5.38282l-.43213-.43165,1.67481.36036v.62988Z" transform="translate(-1.54395 -3.14648)"/><path d="M214.01025,350.27588c.03565-.81055.05371-2.665.05371-3.78125v-.8457c0-.99024-.01806-1.54883-.05371-2.26954l-1.44043-.1621v-.62989l2.44873-1.08008.27.17969.21582,2.08887v2.71875c0,1.11621.01807,2.9707.0542,3.78125Zm2.8086-.62988v.62988h-4.14112V349.646l1.98047-.36036h.36035Zm4.0874-4.80762v1.65625c0,1.15234.01807,2.9707.05371,3.78125h-1.54834c.03613-.81055.0542-2.62891.0542-3.78125v-1.5127c0-1.67382-.43213-2.21386-1.5127-2.21386a3.7962,3.7962,0,0,0-2.59277,1.24218h-.37793v-.81054h.918l-.77393.32422a4.774,4.774,0,0,1,3.49317-2.01661C220.168,341.50732,220.90625,342.46143,220.90625,344.83838Zm-.48633,4.44726,1.80078.36036v.62988h-4.1416V349.646l1.981-.36036Zm5.8877-4.6455v1.85449c0,1.15234.01806,2.9707.0542,3.78125h-1.54834c.03564-.81055.05371-2.62891.05371-3.78125V344.9458c0-1.69238-.46778-2.17773-1.53028-2.17773a3.73367,3.73367,0,0,0-2.5747,1.24218h-.43213v-.63086h.97217l-.82813.14454a4.41372,4.41372,0,0,1,3.54688-2.01661C225.46143,341.50732,226.30762,342.40771,226.30762,344.64014Zm-.48584,4.6455,1.80029.36036v.62988H223.481V349.646l1.98047-.36036Z" transform="translate(-1.54395 -3.14648)"/><path d="M228.69727,349.646l1.94482-.36036-.59424.99024c.03613-.81055.05371-2.665.05371-3.78125v-7.92188l-1.49414-.18066v-.62988l2.70069-.81055.25195.14453-.07178,2.55664v3.457l.05371.23438V348.853l-.17969,1.60254-2.665-.17969Zm7.4541-3.56543c0-2.32227-.9541-3.583-2.32227-3.583-.64844,0-1.53076.28808-2.84521,1.60254l-.16162-.32422c1.04394-1.584,2.21435-2.26856,3.439-2.26856,1.9082,0,3.4209,1.63868,3.4209,4.41114,0,2.77343-1.58447,4.59179-3.69092,4.59179-1.09863,0-2.21484-.48632-3.16894-2.35937l.16162-.28809a3.64461,3.64461,0,0,0,2.75488,1.65723C235.03516,349.52,236.15137,348.40283,236.15137,346.08057Z" transform="translate(-1.54395 -3.14648)"/><path d="M246.772,344.9458a3.6193,3.6193,0,0,1-.12646,1.00879H240.002v-.75586h4.28516c.86426,0,1.0625-.41406,1.0625-.91894a1.9978,1.9978,0,0,0-1.999-1.96192c-1.15235,0-2.48438.97168-2.48438,3.54688,0,2.28613,1.15234,3.51074,2.95264,3.51074a3.11937,3.11937,0,0,0,2.521-1.27832l.41407.32422a3.65744,3.65744,0,0,1-3.439,2.08886c-2.41308,0-3.97949-1.6748-3.97949-4.41211,0-2.7539,1.87256-4.59082,4.10547-4.59082A3.21376,3.21376,0,0,1,246.772,344.9458Z" transform="translate(-1.54395 -3.14648)"/><path d="M249.79346,346.49463v-.8457c0-.99024-.01807-1.54883-.05371-2.26954l-1.44043-.1621v-.62989l2.44873-1.08008.27.17969.21582,2.251v2.55664c0,1.11621.01806,2.9707.0542,3.78125h-1.54834C249.77539,349.46533,249.79346,347.61084,249.79346,346.49463Zm-1.3501,3.15137,1.98047-.36036h.35986l1.981.36036v.62988h-4.32129Zm2.07031-5.582H251.54l-.4502.126c.57618-1.6748,1.67481-2.68262,2.73682-2.68262a1.54435,1.54435,0,0,1,1.27832.61231c0,.8457-.32373,1.31445-1.04394,1.31445a1.63939,1.63939,0,0,1-1.08057-.43262l-.48633-.41406.88232-.17969a4.29989,4.29989,0,0,0-2.17822,2.86231h-.68457Z" transform="translate(-1.54395 -3.14648)"/><path d="M260.269,346.04443c0-2.98828,2.03467-4.53711,4.10547-4.53711a4.18386,4.18386,0,0,1,4.105,4.53711,4.11978,4.11978,0,1,1-8.21045,0Zm6.59034,0c0-2.41211-.91846-3.72656-2.48487-3.72656-1.60254,0-2.48486,1.31445-2.48486,3.72656,0,2.41309.88232,3.65528,2.48486,3.65528C265.94092,349.69971,266.85938,348.45752,266.85938,346.04443Z" transform="translate(-1.54395 -3.14648)"/><path d="M271.44727,342.67725h-1.51221v-.77344l2.03467-.27051-.52246.27051c.18017-2.07129.46826-3.16895,1.27832-4.0332a3.28108,3.28108,0,0,1,2.50293-1.09864c.84619,0,1.53027.26953,1.71044.9541-.03613.4502-.43212.792-1.08056.792a2.09452,2.09452,0,0,1-1.27832-.50391l-.88184-.666,1.51221-.36035.41406.54a1.68333,1.68333,0,0,0-.70215-.21582,1.86083,1.86083,0,0,0-1.49463,1.00879,7.404,7.404,0,0,0-.54,4.123v4.05078q0,1.89111.05419,3.78125h-1.54834q.05347-1.89111.05372-3.78125Zm3.11523,6.96875v.62988h-4.60938V349.646l2.03418-.36036h.36036Zm.81006-7.9043v.93555h-3.20508v-.93555Z" transform="translate(-1.54395 -3.14648)"/><path d="M282.15674,345.86475c0,2.26855,1.20605,3.51074,2.89844,3.51074a2.90538,2.90538,0,0,0,2.52148-1.4043l.43164.21582a3.227,3.227,0,0,1-3.33105,2.32324c-2.46631,0-4.01465-1.72851-4.01465-4.48339a4.215,4.215,0,0,1,4.123-4.51954,3.0776,3.0776,0,0,1,3.16895,2.32227.74508.74508,0,0,1-.81055.667.929.929,0,0,1-.9541-.81054l-.45019-1.585.82812.667a3.74442,3.74442,0,0,0-1.72851-.4502C283.273,342.31787,282.15674,343.56006,282.15674,345.86475Z" transform="translate(-1.54395 -3.14648)"/><path d="M289.46436,346.04443c0-2.98828,2.03418-4.53711,4.10546-4.53711a4.18379,4.18379,0,0,1,4.1045,4.53711,4.11956,4.11956,0,1,1-8.21,0Zm6.58984,0c0-2.41211-.918-3.72656-2.48438-3.72656-1.60253,0-2.48535,1.31445-2.48535,3.72656,0,2.41309.88282,3.65528,2.48535,3.65528C295.13623,349.69971,296.0542,348.45752,296.0542,346.04443Z" transform="translate(-1.54395 -3.14648)"/><path d="M300.5708,350.27588c.03516-.81055.05371-2.665.05371-3.78125v-.8457c0-.99024-.01855-1.54883-.05371-2.26954l-1.44043-.1621v-.62989l2.44824-1.08008.27051.17969.21582,2.08887v2.71875c0,1.11621.01758,2.9707.05371,3.78125Zm2.80859-.62988v.62988h-4.1416V349.646l1.98047-.36036h.36035Zm4.15918-4.80762v1.65625c0,1.15234.01758,2.9707.05372,3.78125h-1.54786c.03516-.81055.05371-2.62891.05371-3.78125v-1.5127c0-1.67382-.43261-2.21386-1.51269-2.21386a3.94289,3.94289,0,0,0-2.665,1.24218h-.37793v-.81054h.918l-.77344.32422a4.87665,4.87665,0,0,1,3.56445-2.01661C306.80029,341.50732,307.53857,342.46143,307.53857,344.83838Zm-.48632,4.44726,1.80078.36036v.62988h-4.1416V349.646l1.98046-.36036Z" transform="translate(-1.54395 -3.14648)"/><path d="M313.42236,349.60986a2.05348,2.05348,0,0,0,1.22461-.5039l.41407.48535a2.57475,2.57475,0,0,1-2.08887.91894,1.82,1.82,0,0,1-2.0166-2.03515c0-.43164.01855-.80957.01855-1.51172v-4.28613h-1.51269v-.77344l2.23242-.28809-.71973.59375.54-2.917h1.04395l-.14356,3.15137v5.833C312.41455,349.21338,312.811,349.60986,313.42236,349.60986Zm1.47657-7.86816v.93555h-3.20508v-.93555Z" transform="translate(-1.54395 -3.14648)"/><path d="M315.94189,346.04443c0-2.98828,2.03418-4.53711,4.10547-4.53711a4.18379,4.18379,0,0,1,4.1045,4.53711,4.11956,4.11956,0,1,1-8.21,0Zm6.58985,0c0-2.41211-.918-3.72656-2.48438-3.72656-1.60254,0-2.48535,1.31445-2.48535,3.72656,0,2.41309.88281,3.65528,2.48535,3.65528C321.61377,349.69971,322.53174,348.45752,322.53174,346.04443Z" transform="translate(-1.54395 -3.14648)"/><path d="M327.93018,347.08936c0,1.60253.46875,2.16015,1.459,2.16015a3.96675,3.96675,0,0,0,2.75488-1.35058h.37793v.91894h-.918l.62989-.27051a4.26638,4.26638,0,0,1-3.4209,1.96289c-1.44043,0-2.34082-.86425-2.32324-3.24121l.05468-4.7539.37793.34277-1.6748-.36035v-.62988l2.59277-.23438.18067.17969-.09082,2.52148Zm4.28515,3.33105-.252-2.10742.05469-5.79785.37793.34277-1.67481-.36035v-.62988l2.55664-.23438.18067.17969-.05469,2.52148v5.38282l-.43164-.43165,1.6748.36036v.62988Z" transform="translate(-1.54395 -3.14648)"/><path d="M337.398,346.49463v-.8457c0-.99024-.01856-1.54883-.05371-2.26954l-1.44043-.1621v-.62989l2.44824-1.08008.27051.17969.21582,2.251v2.55664c0,1.11621.01758,2.9707.05371,3.78125h-1.54785C337.37939,349.46533,337.398,347.61084,337.398,346.49463Zm-1.35059,3.15137,1.98047-.36036h.36035l1.98047.36036v.62988h-4.32129Zm2.07032-5.582H339.144l-.45019.126c.57617-1.6748,1.6748-2.68262,2.7373-2.68262a1.54435,1.54435,0,0,1,1.27832.61231c0,.8457-.32422,1.31445-1.04394,1.31445a1.63966,1.63966,0,0,1-1.08106-.43262l-.48633-.41406.88282-.17969a4.30048,4.30048,0,0,0-2.17871,2.86231h-.68457Z" transform="translate(-1.54395 -3.14648)"/><path d="M348.81006,342.73193l-1.76465-.30664v-.68359h4.32129v.68359l-2.19727.30664Zm.57617-.99023,2.80859,7.32812-.73828.93555,2.89844-8.26367h.97266l-3.27735,8.64258H351.312l-3.63672-8.64258Zm4.93262.99023-1.79981-.30664v-.68359h3.4209v.68359l-1.26074.30664Z" transform="translate(-1.54395 -3.14648)"/><path d="M364.022,344.9458a3.62193,3.62193,0,0,1-.126,1.00879h-6.64356v-.75586h4.28516c.86426,0,1.06152-.41406,1.06152-.91894a1.99759,1.99759,0,0,0-1.99805-1.96192c-1.15234,0-2.48437.97168-2.48437,3.54688,0,2.28613,1.15234,3.51074,2.95215,3.51074a3.12032,3.12032,0,0,0,2.52148-1.27832l.41406.32422a3.65764,3.65764,0,0,1-3.43945,2.08886c-2.41308,0-3.97949-1.6748-3.97949-4.41211,0-2.7539,1.87305-4.59082,4.10547-4.59082A3.21376,3.21376,0,0,1,364.022,344.9458Z" transform="translate(-1.54395 -3.14648)"/><path d="M367.04346,346.49463v-.8457c0-.99024-.01758-1.54883-.05371-2.26954l-1.44043-.1621v-.62989l2.44922-1.08008.26953.17969.21582,2.251v2.55664c0,1.11621.01855,2.9707.05468,3.78125h-1.54882C367.02588,349.46533,367.04346,347.61084,367.04346,346.49463Zm-1.34961,3.15137,1.98047-.36036h.35937l1.98145.36036v.62988h-4.32129Zm2.07031-5.582h1.02637l-.4502.126c.57617-1.6748,1.67481-2.68262,2.73633-2.68262a1.54435,1.54435,0,0,1,1.27832.61231c0,.8457-.32324,1.31445-1.04394,1.31445a1.63913,1.63913,0,0,1-1.08008-.43262l-.48633-.41406.88183-.17969a4.30335,4.30335,0,0,0-2.17871,2.86231h-.68359Z" transform="translate(-1.54395 -3.14648)"/><path d="M376.9624,349.60986a2.05578,2.05578,0,0,0,1.22461-.5039l.41406.48535a2.57471,2.57471,0,0,1-2.08886.91894,1.82,1.82,0,0,1-2.0166-2.03515c0-.43164.01757-.80957.01757-1.51172v-4.28613h-1.51172v-.77344l2.23243-.28809-.72071.59375.541-2.917h1.04394l-.14453,3.15137v5.833C375.95361,349.21338,376.3501,349.60986,376.9624,349.60986Zm1.47656-7.86816v.93555h-3.20507v-.93555Z" transform="translate(-1.54395 -3.14648)"/><path d="M380.65186,350.27588c.03613-.81055.05371-2.665.05371-3.78125v-.8457c0-.99024-.01758-1.54883-.05371-2.26954l-1.47657-.1621v-.62989l2.71875-1.08008.27051.17969-.05469,2.43067v2.37695c0,1.11621.01856,2.9707.05469,3.78125Zm2.77246-.62988v.62988h-4.14063V349.646l1.98047-.36036h.35938Zm-3.22266-11.30762a1.18975,1.18975,0,1,1,1.18848,1.13476A1.12148,1.12148,0,0,1,380.20166,338.33838Z" transform="translate(-1.54395 -3.14648)"/><path d="M386.26709,345.86475c0,2.26855,1.207,3.51074,2.89941,3.51074a2.905,2.905,0,0,0,2.52051-1.4043l.43262.21582a3.227,3.227,0,0,1-3.33106,2.32324c-2.46679,0-4.01562-1.72851-4.01562-4.48339a4.215,4.215,0,0,1,4.12305-4.51954,3.07682,3.07682,0,0,1,3.16894,2.32227.74473.74473,0,0,1-.80957.667.92928.92928,0,0,1-.95508-.81054l-.45019-1.585.8291.667a3.74445,3.74445,0,0,0-1.72852-.4502C387.3833,342.31787,386.26709,343.56006,386.26709,345.86475Z" transform="translate(-1.54395 -3.14648)"/><path d="M401.01123,344.9458a3.6215,3.6215,0,0,1-.126,1.00879H394.2417v-.75586h4.28516c.86425,0,1.06152-.41406,1.06152-.91894a1.99759,1.99759,0,0,0-1.998-1.96192c-1.15234,0-2.48437.97168-2.48437,3.54688,0,2.28613,1.15234,3.51074,2.95215,3.51074a3.12032,3.12032,0,0,0,2.52148-1.27832l.41406.32422a3.65765,3.65765,0,0,1-3.43945,2.08886c-2.41309,0-3.97949-1.6748-3.97949-4.41211,0-2.7539,1.873-4.59082,4.10547-4.59082A3.21376,3.21376,0,0,1,401.01123,344.9458Z" transform="translate(-1.54395 -3.14648)"/><path d="M402.84424,349.82568l-.07129-1.96289h.9541l.48633,2.125-.88281-.41406v-.6123a3.42308,3.42308,0,0,0,2.21484.73828c1.38672,0,2.03516-.5586,2.03516-1.38672,0-.77344-.541-1.16992-1.67481-1.584l-.82812-.30664c-1.31446-.48535-2.17871-1.1875-2.17871-2.41211,0-1.29687,1.09765-2.50293,3.09668-2.50293a4.59054,4.59054,0,0,1,2.50293.73829l-.07227,1.81835h-.90039l-.36035-1.81835.64843.28808v.46777a2.944,2.944,0,0,0-1.83593-.68359c-1.11719,0-1.69336.48535-1.69336,1.24219,0,.80957.45019,1.11621,1.6748,1.5664l.54.19825c1.80078.666,2.48535,1.51172,2.48535,2.6289,0,1.332-1.1709,2.55664-3.47558,2.55664A5.48992,5.48992,0,0,1,402.84424,349.82568Z" transform="translate(-1.54395 -3.14648)"/><path d="M3.86719,176.76807l-.90039-.80957,3.20508.57617v1.00781l-3.20508-.14355v-9.83106l3.20508-.144v1.0083l-3.20508.57617.90039-.81055Zm4.68066-3.47461c-1.85449,0-3.72656,0-5.581.0542v-1.72852c1.81836.05371,3.6914.05371,5.58105.05371h.90039c1.85449,0,3.72754,0,5.582-.05371v1.72852c-1.81836-.0542-3.6914-.0542-5.582-.0542Zm5.49219-.99024.26953-2.521h.7207v5.40185h-.7207l-.26953-2.521Z" transform="translate(-1.54395 -3.14648)"/><path d="M3.09277,165.51855a1.18975,1.18975,0,1,1,1.13477-1.18847A1.12147,1.12147,0,0,1,3.09277,165.51855Zm11.9375-.45019c-.81054-.03613-2.665-.0542-3.78125-.0542h-.8457c-.99023,0-1.54883.01807-2.26953.0542l-.16211,1.47656H7.3418l-1.08008-2.71924.17969-.27,2.43066.0542H11.249c1.11621,0,2.97071-.01806,3.78125-.0542Zm-.62988-2.773h.62988v4.14111h-.62988L14.04,164.45605v-.35986Z" transform="translate(-1.54395 -3.14648)"/><path d="M9.39453,147.353H11.249c1.15235,0,2.97071-.01807,3.78125-.0542v1.54834c-.81054-.03565-2.6289-.05371-3.78125-.05371H9.7002c-1.69239,0-2.17774.46777-2.17774,1.53027a3.73364,3.73364,0,0,0,1.24219,2.57471v.43213H8.13379v-.97217l.14453.82812a4.4137,4.4137,0,0,1-2.0166-3.54687C6.26172,148.19922,7.16211,147.353,9.39453,147.353Zm.19824,5.40136H11.249c1.15235,0,2.97071-.01806,3.78125-.05371V154.249c-.81054-.03613-2.6289-.0542-3.78125-.0542H9.73633c-1.67383,0-2.21387.43213-2.21387,1.5127a3.79622,3.79622,0,0,0,1.24219,2.59277v.37793H7.9541v-.918l.32422.77393a4.77394,4.77394,0,0,1-2.0166-3.49316C6.26172,153.49268,7.21582,152.75439,9.59277,152.75439Zm5.4375,6.896c-.81054-.03564-2.665-.05371-3.78125-.05371h-.8457c-.99023,0-1.54883.01807-2.26953.05371l-.16211,1.44043H7.3418l-1.08008-2.44873.17969-.27,2.08886-.21582H11.249c1.11621,0,2.97071-.01807,3.78125-.0542ZM14.04,147.83887l.36035-1.8003h.62988v4.14112h-.62988L14.04,148.19922Zm0,5.40185.36035-1.80078h.62988v4.1416h-.62988L14.04,153.60059Zm.36035,3.60108h.62988v4.14111h-.62988L14.04,159.00244v-.36035Z" transform="translate(-1.54395 -3.14648)"/><path d="M9.7002,137.23877a3.64,3.64,0,0,1,1.00878.126v6.644H9.95312v-4.28516c0-.86425-.41406-1.062-.91894-1.062a1.99769,1.99769,0,0,0-1.96191,1.99854c0,1.15234.97168,2.48437,3.54687,2.48437,2.28613,0,3.51074-1.15234,3.51074-2.95264a3.11939,3.11939,0,0,0-1.27832-2.521l.32422-.41406a3.65743,3.65743,0,0,1,2.08887,3.439c0,2.41309-1.67481,3.97949-4.41211,3.97949-2.75391,0-4.59082-1.87256-4.59082-4.10547A3.21376,3.21376,0,0,1,9.7002,137.23877Z" transform="translate(-1.54395 -3.14648)"/><path d="M18.127,126.51221l.37793.45019a11.18389,11.18389,0,0,1-8.48047,3.727,11.18537,11.18537,0,0,1-8.48046-3.727l.3789-.45019c3.09668,2.12451,5.2207,2.77295,8.10156,2.77295S15.03027,128.63672,18.127,126.51221Z" transform="translate(-1.54395 -3.14648)"/><path d="M14.58008,125.48779l-1.96289.07178v-.9541l2.125-.48633-.41407.88232h-.6123a3.42209,3.42209,0,0,0,.73828-2.21484c0-1.38623-.55859-2.03467-1.38672-2.03467-.77343,0-1.16992.54053-1.584,1.67481l-.30664.82812c-.48535,1.31446-1.1875,2.17871-2.41211,2.17871-1.29688,0-2.50293-1.09814-2.50293-3.09716A4.589,4.589,0,0,1,7,119.834l1.81836.07178v.90039L7,121.1665l.28809-.64843h.46777a2.94422,2.94422,0,0,0-.68359,1.83642c0,1.1167.48535,1.69287,1.24218,1.69287.80957,0,1.11621-.45019,1.56641-1.6748l.19824-.54c.666-1.80078,1.51172-2.48486,2.62891-2.48486,1.332,0,2.55664,1.17041,2.55664,3.47509A5.48728,5.48728,0,0,1,14.58008,125.48779Z" transform="translate(-1.54395 -3.14648)"/><path d="M1.92285,118.35938l-.3789-.4502a11.18537,11.18537,0,0,1,8.48046-3.72705,11.18389,11.18389,0,0,1,8.48047,3.72705l-.37793.4502c-3.09668-2.12452-5.22168-2.773-8.10254-2.773S5.01953,116.23486,1.92285,118.35938Z" transform="translate(-1.54395 -3.14648)"/></svg>