<?xml version="1.0" encoding="utf-8"?>
<!-- Generator: Adobe Illustrator 24.0.3, SVG Export Plug-In . SVG Version: 6.00 Build 0)  -->
<svg version="1.1" id="Layer_1" xmlns="http://www.w3.org/2000/svg" xmlns:xlink="http://www.w3.org/1999/xlink" x="0px" y="0px"
	 width="801px" height="174.1px" viewBox="0 0 801 174.1" style="enable-background:new 0 0 801 174.1;" xml:space="preserve">
<style type="text/css">
	.st0{fill:none;stroke:#B62025;stroke-width:1.5;stroke-miterlimit:10;}
	.st1{fill:none;stroke:#000000;stroke-width:1.5;stroke-miterlimit:10;}
	.st2{fill:none;stroke:#384D9F;stroke-width:1.5;stroke-miterlimit:10;}
	.st3{fill:none;stroke:#157B3E;stroke-width:1.5;stroke-miterlimit:10;}
</style>
<g>
	<path class="st0" d="M0.5,173.6h173.1 M173.6,173.6l-8-65.1 M165.7,108.5l30.4-4.4 M196.1,104.1l-22.4-38.7 M173.6,65.4l13.2-21.3
		 M186.9,44.1V0.9 M186.9,0.9L87.1,22.1 M87.1,22.1L0.5,0.5 M0.5,0.5l7.9,151.3 M8.4,151.8l-7.9,21.9"/>
</g>
<line class="st1" x1="205.1" y1="173.3" x2="378.2" y2="173.3"/>
<line class="st1" x1="374.2" y1="173.6" x2="374.2" y2="108"/>
<line class="st1" x1="370.1" y1="106" x2="400.8" y2="106"/>
<line class="st2" x1="389.4" y1="106.9" x2="389.4" y2="62.1"/>
<line class="st2" x1="384.8" y1="67" x2="384.8" y2="41.9"/>
<line class="st2" x1="391.4" y1="43.8" x2="391.4" y2="0.6"/>
<line class="st2" x1="392.5" y1="12.8" x2="290.5" y2="12.8"/>
<line class="st2" x1="293" y1="7.8" x2="203.7" y2="7.8"/>
<line class="st2" x1="210.6" y1="0.1" x2="210.6" y2="151.6"/>
<line class="st2" x1="207.4" y1="150.8" x2="207.4" y2="174"/>
<line class="st1" x1="409" y1="173.3" x2="582.2" y2="173.3"/>
<line class="st1" x1="578.2" y1="173.6" x2="578.2" y2="108"/>
<line class="st1" x1="574" y1="106" x2="604.8" y2="106"/>
<line class="st1" x1="593.6" y1="106.9" x2="593.6" y2="0.6"/>
<line class="st1" x1="596.5" y1="11.1" x2="407.7" y2="11.1"/>
<line class="st1" x1="413" y1="0.1" x2="413" y2="174"/>
<g>
	<path class="st3" d="M619.9,168.2h165.2 M785.1,168.2v-67.3 M785.1,100.9h15.4 M800.5,100.9V6 M800.5,6H619.9 M619.9,6v162.2"/>
</g>
</svg>
