<?xml version="1.0" encoding="utf-8"?>
<!-- Generator: Adobe Illustrator 24.0.3, SVG Export Plug-In . SVG Version: 6.00 Build 0)  -->
<svg version="1.1" id="Layer_1" xmlns="http://www.w3.org/2000/svg" xmlns:xlink="http://www.w3.org/1999/xlink" x="0px" y="0px"
	 width="901px" height="228.3px" viewBox="0 0 901 228.3" style="enable-background:new 0 0 901 228.3;" xml:space="preserve">
<style type="text/css">
	.st0{fill:none;stroke:#B62025;stroke-width:2;stroke-linecap:round;stroke-linejoin:round;stroke-miterlimit:10;}
	.st1{fill:none;stroke:#157B3E;stroke-width:2;stroke-linecap:round;stroke-linejoin:round;stroke-miterlimit:10;}
	.st2{fill:none;stroke:#384A9F;stroke-width:2;stroke-linecap:round;stroke-linejoin:round;stroke-miterlimit:10;}
	.st3{fill:none;stroke:#000000;stroke-linecap:round;stroke-linejoin:round;stroke-miterlimit:10;}
	.st4{fill:none;stroke:#B62126;stroke-width:2;stroke-linecap:round;stroke-linejoin:round;stroke-miterlimit:10;}
	.st5{fill:none;stroke:#384C9F;stroke-width:2;stroke-linecap:round;stroke-linejoin:round;stroke-miterlimit:10;}
	.st6{fill:none;stroke:#157C3E;stroke-width:2;stroke-linecap:round;stroke-linejoin:round;stroke-miterlimit:10;}
	.st7{fill:none;stroke:#B62227;stroke-width:2;stroke-linecap:round;stroke-linejoin:round;stroke-miterlimit:10;}
	.st8{fill:none;stroke:#157D3F;stroke-width:2;stroke-linecap:round;stroke-linejoin:round;stroke-miterlimit:10;}
	.st9{fill:none;stroke:#384D9F;stroke-width:2;stroke-linecap:round;stroke-linejoin:round;stroke-miterlimit:10;}
</style>
<g>
	<g>
		<line class="st0" x1="253.1" y1="214.7" x2="253.1" y2="110.8"/>
		<line class="st0" x1="218.5" y1="214.7" x2="218.5" y2="110.8"/>
		<line class="st0" x1="183.8" y1="214.7" x2="177.3" y2="111.2"/>
		<line class="st1" x1="149.2" y1="214.7" x2="80" y2="214.7"/>
		<line class="st1" x1="114.6" y1="180.1" x2="10.7" y2="180.1"/>
		<line class="st2" x1="114.6" y1="145.5" x2="45.3" y2="41.6"/>
		<line class="st2" x1="80" y1="7" x2="149.2" y2="110.8"/>
	</g>
	<rect x="0.5" y="0.5" class="st3" width="266.7" height="227.3"/>
</g>
<g>
	<g>
		<line class="st4" x1="639.5" y1="145.5" x2="639.5" y2="41.6"/>
		<line class="st4" x1="570.2" y1="41.6" x2="573.7" y2="145.5"/>
		<line class="st4" x1="639.5" y1="214.7" x2="466.4" y2="214.7"/>
		<line class="st4" x1="535.6" y1="180.1" x2="535.6" y2="145.5"/>
		<line class="st4" x1="535.6" y1="110.8" x2="466.4" y2="110.8"/>
		<line class="st5" x1="466.4" y1="41.6" x2="362.5" y2="7"/>
		<line class="st6" x1="431.7" y1="110.8" x2="362.5" y2="187"/>
		<line class="st6" x1="293.2" y1="76.2" x2="362.5" y2="145.5"/>
	</g>
	<rect x="284.5" y="0.5" class="st3" width="367.1" height="227.3"/>
</g>
<g>
	<g>
		<line class="st7" x1="712.7" y1="214.7" x2="816.5" y2="214.7"/>
		<line class="st7" x1="851.2" y1="214.7" x2="885.8" y2="214.7"/>
		<line class="st8" x1="678" y1="145.5" x2="781.9" y2="145.5"/>
		<line class="st8" x1="816.5" y1="142" x2="851.2" y2="142"/>
		<line class="st8" x1="781.9" y1="148.9" x2="851.2" y2="148.9"/>
		<line class="st9" x1="712.7" y1="110.8" x2="747.3" y2="76.2"/>
		<line class="st9" x1="816.5" y1="7" x2="781.9" y2="41.6"/>
	</g>
	<rect x="667.5" y="0.5" class="st3" width="233" height="227.3"/>
</g>
</svg>
