<?xml version="1.0" encoding="utf-8"?>
<!-- Generator: Adobe Illustrator 24.0.3, SVG Export Plug-In . SVG Version: 6.00 Build 0)  -->
<svg version="1.1" id="Layer_1" xmlns="http://www.w3.org/2000/svg" xmlns:xlink="http://www.w3.org/1999/xlink" x="0px" y="0px"
	 width="481px" height="316.7px" viewBox="0 0 481 316.7" style="enable-background:new 0 0 481 316.7;" xml:space="preserve">
<style type="text/css">
	.st0{fill:none;stroke:#B70909;stroke-width:1.5;stroke-linecap:round;stroke-linejoin:round;stroke-miterlimit:10;}
	.st1{fill:none;stroke:#0D7A0A;stroke-width:1.5;stroke-linecap:round;stroke-linejoin:round;stroke-miterlimit:10;}
</style>
<g>
	<path class="st0" d="M477.4,176.3l-1.6-6.6 M475.8,169.7l4.5-8.4 M480.3,161.3l-3.3-36.8 M477,124.6l-13.3,5.9 M463.7,130.4
		l-5.6-0.7 M458.1,129.7l-2.6-4.8 M455.5,125l-17.2,2.4 M438.3,127.4l-2.8,5.6 M435.5,133l-19.6-3.4 M415.8,129.6l-38.7,7.5
		 M377.1,137.2l-3-5.4 M374.1,131.8l-16.2,0 M357.9,131.8L355,138 M355,137.9l-8.5,0.7 M346.5,138.6l-4.6-9.9 M341.9,128.8
		l-29.8-4.6 M312.1,124.2l-3.5,6.5 M308.6,130.7l-78.4,4.9 M230.2,135.6l-2.6,11.4 M227.7,147l-8.4,0.2 M219.3,147.2l-3.5-5.5
		 M215.8,141.8l-14.5,2 M201.3,143.7l-4.4,5.8 M196.8,149.5l-43.6-3.5 M153.2,146l-4.6-19.3 M148.7,126.7l6.5-5.8 M155.2,120.9
		l-3.1-14.3 M152.2,106.6l-4.2-2 M147.9,104.6l-3.6-56.1 M144.3,48.5l5.7-18.6 M150,29.9l-4.5-5.7 M145.6,24.2l1.6-21 M147.1,3.2
		l-35.4,2 M111.7,5.2l-5.8-4.4 M105.9,0.8l-6.7,11 M99.3,11.8l-5.3-6.4 M93.9,5.4l2.6,30.3 M96.5,35.7l-16.2,2.6 M80.3,38.3L82,58.6
		 M82,58.6l8.7,3 M90.7,61.6L93,93.4 M93,93.4l-8.6,5.9 M84.4,99.3l1.8,22.3 M86.2,121.6l15.3-0.8 M101.5,120.9l1.6,20.7
		 M103.1,141.6l9.7,1.1 M112.8,142.7l-2.8,28.6 M110,171.3l-6.2,2.3 M103.8,173.6l0.1,23 M103.8,196.6l19-1 M122.8,195.6l2.8-7.7
		 M125.6,187.9l19.7-1.9 M145.3,186l4.2,4.6 M149.5,190.6l-0.8,8.2 M148.8,198.8l7.5,1.7 M156.2,200.5l2.2,13.5 M158.4,214l20.7-1.6
		 M179.1,212.4l1.8-7.9 M180.9,204.4l18-1.2 M198.9,203.2l5-8.3 M203.9,194.9l32.3-2.2 M236.2,192.8l7.3,6.9 M243.6,199.7l19.7-3.9
		 M263.2,195.7l3.8-7.5 M267,188.2l31.8-2.3 M298.8,185.9l3.8,8.7 M302.6,194.6l28.2-2.6 M330.9,192.1l-1.3-8.1 M329.6,183.9
		l5.5-8.2 M335,175.8l9.6,1.6 M344.6,177.4l-0.3,8.3 M344.3,185.7l21.2-1.5 M365.5,184.2l1.2,13.3 M366.7,197.5l3.6,2.4
		 M370.4,199.9l20.2-1.7 M390.6,198.1l1.4-8.6 M392,189.6l32.8-2.1 M424.8,187.5l12.9,7.6 M437.7,195.1l15.1,0.2 M452.8,195.4
		l1.8-17.4 M454.6,178l22.8-1.7"/>
</g>
<g>
	<line class="st1" x1="400.8" y1="278.4" x2="397.7" y2="229.4"/>
	<line class="st1" x1="397.7" y1="229.4" x2="377.1" y2="230.7"/>
	<line class="st1" x1="377.2" y1="230.7" x2="377" y2="227.6"/>
	<line class="st1" x1="377" y1="227.6" x2="356.9" y2="228.9"/>
	<line class="st1" x1="356.9" y1="228.9" x2="357.2" y2="232.9"/>
	<line class="st1" x1="357.2" y1="232.9" x2="295.9" y2="236.8"/>
	<line class="st1" x1="295.9" y1="236.8" x2="295.7" y2="233.3"/>
	<line class="st1" x1="295.7" y1="233.3" x2="276.6" y2="234.5"/>
	<line class="st1" x1="276.6" y1="234.5" x2="276.9" y2="240"/>
	<line class="st1" x1="276.9" y1="240" x2="264.8" y2="240.8"/>
	<line class="st1" x1="264.8" y1="240.8" x2="264" y2="227.5"/>
	<line class="st1" x1="264" y1="227.5" x2="230.6" y2="229.6"/>
	<line class="st1" x1="230.6" y1="229.6" x2="230.8" y2="232.7"/>
	<line class="st1" x1="230.8" y1="232.7" x2="148.9" y2="237.8"/>
	<line class="st1" x1="148.9" y1="237.8" x2="149.6" y2="248.9"/>
	<line class="st1" x1="149.6" y1="248.9" x2="138" y2="249.6"/>
	<line class="st1" x1="138" y1="249.6" x2="137.7" y2="244.3"/>
	<line class="st1" x1="137.7" y1="244.3" x2="119.1" y2="245.4"/>
	<line class="st1" x1="119.1" y1="245.4" x2="119.3" y2="248.4"/>
	<line class="st1" x1="119.3" y1="248.4" x2="72.1" y2="251.3"/>
	<line class="st1" x1="72.1" y1="251.3" x2="70.5" y2="226"/>
	<line class="st1" x1="70.5" y1="226" x2="74.6" y2="225.8"/>
	<line class="st1" x1="74.6" y1="225.8" x2="73.5" y2="207.5"/>
	<line class="st1" x1="73.5" y1="207.5" x2="69.1" y2="207.8"/>
	<polyline class="st1" points="69.1,207.8 62.6,105.4 14.8,108.9 16.7,138.6 	"/>
	<line class="st1" x1="16.7" y1="138.6" x2="0.8" y2="139.6"/>
	<line class="st1" x1="0.8" y1="139.6" x2="2.2" y2="162.4"/>
	<line class="st1" x1="2.2" y1="162.4" x2="11.1" y2="161.9"/>
	<line class="st1" x1="11.1" y1="161.9" x2="13.3" y2="198.2"/>
	<line class="st1" x1="13.3" y1="198.1" x2="4.7" y2="198.7"/>
	<line class="st1" x1="4.7" y1="198.7" x2="6.3" y2="223.8"/>
	<line class="st1" x1="6.3" y1="223.8" x2="21.9" y2="222.8"/>
	<line class="st1" x1="21.9" y1="222.8" x2="23.3" y2="244.5"/>
	<line class="st1" x1="23.3" y1="244.5" x2="30.7" y2="244.1"/>
	<line class="st1" x1="30.7" y1="244.1" x2="32.6" y2="274.2"/>
	<line class="st1" x1="32.6" y1="274.2" x2="23.3" y2="274.8"/>
	<line class="st1" x1="23.3" y1="274.8" x2="24.8" y2="298.7"/>
	<line class="st1" x1="24.8" y1="298.7" x2="44.8" y2="297.5"/>
	<line class="st1" x1="44.8" y1="297.5" x2="44.3" y2="289.7"/>
	<line class="st1" x1="44.3" y1="289.7" x2="68.4" y2="288.2"/>
	<line class="st1" x1="68.4" y1="288.2" x2="69.3" y2="301.9"/>
	<line class="st1" x1="69.3" y1="301.9" x2="77.1" y2="301.4"/>
	<line class="st1" x1="77.1" y1="301.4" x2="78" y2="316"/>
	<line class="st1" x1="78" y1="316" x2="100.6" y2="314.5"/>
	<line class="st1" x1="100.6" y1="314.5" x2="100.1" y2="306.5"/>
	<line class="st1" x1="100.1" y1="306.5" x2="121.9" y2="305.2"/>
	<line class="st1" x1="121.9" y1="305.2" x2="121.4" y2="297.1"/>
	<line class="st1" x1="121.4" y1="297.1" x2="159.9" y2="294.7"/>
	<line class="st1" x1="159.9" y1="294.7" x2="160.3" y2="300.6"/>
	<line class="st1" x1="160.3" y1="300.6" x2="185.7" y2="299"/>
	<line class="st1" x1="185.7" y1="299" x2="185.2" y2="290.3"/>
	<line class="st1" x1="185.2" y1="290.3" x2="220.8" y2="288.1"/>
	<line class="st1" x1="220.7" y1="288" x2="221.3" y2="296.4"/>
	<line class="st1" x1="221.3" y1="296.4" x2="252.3" y2="294.5"/>
	<line class="st1" x1="252.3" y1="294.5" x2="251.3" y2="279.2"/>
	<line class="st1" x1="251.3" y1="279.2" x2="264.4" y2="278.4"/>
	<line class="st1" x1="264.4" y1="278.4" x2="265" y2="287.6"/>
	<line class="st1" x1="265" y1="287.6" x2="286" y2="286.3"/>
	<line class="st1" x1="286" y1="286.3" x2="287" y2="301.9"/>
	<line class="st1" x1="287" y1="301.9" x2="311.8" y2="300.3"/>
	<line class="st1" x1="311.8" y1="300.3" x2="311.4" y2="292.4"/>
	<line class="st1" x1="311.3" y1="292.4" x2="351.3" y2="289.9"/>
	<line class="st1" x1="351.3" y1="289.9" x2="351.8" y2="298.2"/>
	<line class="st1" x1="351.8" y1="298.2" x2="374.5" y2="296.8"/>
	<line class="st1" x1="374.5" y1="296.8" x2="373.4" y2="280.1"/>
	<line class="st1" x1="373.4" y1="280" x2="400.8" y2="278.3"/>
</g>
</svg>
