<svg id="Layer_1" data-name="Layer 1" xmlns="http://www.w3.org/2000/svg" width="516.41309" height="352.60303" viewBox="0 0 516.41309 352.60303"><defs><style>.cls-1,.cls-10,.cls-11,.cls-12,.cls-13,.cls-14,.cls-15,.cls-2,.cls-3,.cls-4,.cls-5,.cls-6,.cls-7,.cls-8,.cls-9{fill:none;stroke-width:2px;}.cls-1,.cls-2,.cls-3,.cls-4,.cls-5,.cls-6,.cls-7,.cls-8,.cls-9{stroke:#78bf5a;}.cls-1,.cls-10,.cls-11,.cls-12,.cls-13,.cls-14,.cls-2,.cls-3,.cls-4,.cls-5,.cls-6,.cls-7,.cls-8,.cls-9{stroke-linecap:round;stroke-linejoin:round;}.cls-2{stroke-dasharray:6.59956 6.59956;}.cls-3{stroke-dasharray:6.59956 6.59956 6.59956 6.59956;}.cls-4{stroke-dasharray:5.46778 5.46778;}.cls-5{stroke-dasharray:5.46778 5.46778 5.46778 5.46778;}.cls-6{stroke-dasharray:5.47138 5.47138;}.cls-7{stroke-dasharray:5.47138 5.47138 5.47138 5.47138;}.cls-8{stroke-dasharray:5.00146 5.00146;}.cls-9{stroke-dasharray:5.00146 5.00146 5.00146 5.00146;}.cls-10,.cls-11,.cls-12,.cls-13,.cls-14{stroke:#e80f2e;}.cls-11{stroke-dasharray:10.87732 10.87732;}.cls-12{stroke-dasharray:10.88739 10.88739;}.cls-13{stroke-dasharray:10.8955 10.8955;}.cls-14{stroke-dasharray:9.52538 9.52538;}.cls-15{stroke:#000;stroke-miterlimit:10;}</style></defs><polyline class="cls-1" points="55.394 304.41 55.728 304.38 56.168 304.342 56.609 304.303 57.049 304.264 57.49 304.226 57.93 304.187 58.371 304.148 58.811 304.109 59.252 304.07 59.692 304.031 60.132 303.992 60.573 303.953 61.013 303.914 61.454 303.874 61.894 303.835 62.335 303.796 62.775 303.756 63.216 303.716 63.656 303.677 64.097 303.637 64.537 303.597 64.978 303.557 65.418 303.517 65.859 303.477 66.299 303.437 66.74 303.397 67.18 303.357 67.621 303.316 68.061 303.276 68.502 303.235 68.942 303.194 69.382 303.153 69.823 303.113 70.263 303.072 70.704 303.03 71.144 302.989 71.585 302.948 72.025 302.906 72.466 302.865 72.906 302.823 73.347 302.782 73.787 302.74 74.228 302.698 74.668 302.656 75.109 302.614 75.549 302.572 75.99 302.53 76.43 302.487 76.871 302.445 77.311 302.402 77.752 302.36 78.192 302.317 78.632 302.274 79.073 302.232 79.513 302.189 79.954 302.146 80.394 302.103 80.835 302.06 81.275 302.017 81.716 301.973 82.156 301.93 82.597 301.887 83.037 301.844 83.478 301.8 83.918 301.757 84.359 301.713 84.799 301.67 85.24 301.626 85.68 301.583 86.121 301.539 86.561 301.496 87.002 301.452 87.442 301.408 87.882 301.365 88.323 301.321 88.763 301.277 89.204 301.234 89.644 301.19 90.085 301.147 90.525 301.103 90.966 301.059 91.406 301.016 91.847 300.972 92.287 300.929 92.728 300.885 93.168 300.842 93.609 300.798 94.049 300.755 94.49 300.712 94.93 300.669 95.371 300.625 95.811 300.582 96.252 300.539 96.692 300.496 97.132 300.453 97.573 300.41 98.013 300.367 98.454 300.324 98.894 300.281 99.335 300.239 99.775 300.196 100.216 300.153 100.656 300.111 101.097 300.068 101.537 300.026 101.978 299.984 102.418 299.941 102.859 299.899 103.299 299.857 103.74 299.815 104.18 299.773 104.621 299.731 105.061 299.69 105.502 299.648 105.942 299.606 106.382 299.565 106.823 299.523 107.263 299.482 107.704 299.44 108.144 299.399 108.585 299.358 109.025 299.317 109.466 299.275 109.906 299.234 110.347 299.193 110.787 299.153 111.228 299.112 111.668 299.071 112.109 299.03 112.549 298.989 112.99 298.949 113.43 298.908 113.871 298.868 114.311 298.827 114.752 298.787 115.192 298.746 115.632 298.706 116.073 298.665 116.513 298.625 116.954 298.585 117.394 298.545 117.835 298.504 118.275 298.464 118.716 298.424 119.156 298.384 119.597 298.344 120.037 298.304 120.478 298.264 120.918 298.224 121.359 298.184 121.799 298.144 122.24 298.104 122.68 298.064 123.121 298.024 123.561 297.984 124.002 297.944 124.442 297.904 124.882 297.864 125.323 297.824 125.763 297.784 126.204 297.744 126.644 297.704 127.085 297.664 127.525 297.624 127.966 297.585 128.406 297.545 128.847 297.505 129.287 297.465 129.728 297.425 130.168 297.385 130.609 297.345 131.049 297.305 131.49 297.266 131.93 297.226 132.371 297.186 132.811 297.146 133.252 297.106 133.692 297.067 134.132 297.027 134.573 296.987 135.013 296.947 135.454 296.907 135.894 296.868 136.335 296.828 136.775 296.788 137.216 296.749 137.656 296.709 138.097 296.669 138.537 296.63 138.978 296.59 139.418 296.551 139.859 296.511 140.299 296.472 140.74 296.432 141.18 296.393 141.621 296.353 142.061 296.314 142.502 296.275 142.942 296.235 143.382 296.196 143.823 296.157 144.263 296.118 144.704 296.079 145.144 296.04 145.585 296.001 146.025 295.962 146.466 295.923 146.906 295.884 147.347 295.845 147.787 295.806 148.228 295.767 148.668 295.729 149.109 295.69 149.549 295.651 149.99 295.613 150.43 295.574 150.871 295.536 151.311 295.497 151.752 295.459 152.192 295.421 152.632 295.382 153.073 295.344 153.513 295.306 153.954 295.268 154.394 295.23 154.835 295.192 155.275 295.154 155.716 295.116 156.156 295.078 156.597 295.04 157.037 295.002 157.478 294.964 157.918 294.927 158.359 294.889 158.799 294.851 159.24 294.814 159.68 294.776 160.121 294.738 160.561 294.701 161.002 294.663 161.442 294.626 161.882 294.588 162.323 294.551 162.763 294.513 163.204 294.476 163.644 294.438 164.085 294.401 164.525 294.363 164.966 294.326 165.406 294.288 165.847 294.251 166.287 294.213 166.728 294.176 167.168 294.138 167.609 294.101 168.049 294.063 168.49 294.026 168.93 293.988 169.371 293.951 169.811 293.913 170.252 293.876 170.692 293.838 171.132 293.801 171.573 293.763 172.013 293.726 172.454 293.688 172.894 293.65 173.335 293.613 173.775 293.575 174.216 293.537 174.656 293.499 175.097 293.462 175.537 293.424 175.978 293.386 176.418 293.348 176.859 293.31 177.299 293.273 177.74 293.235 178.18 293.197 178.621 293.159 179.061 293.121 179.502 293.083 179.942 293.045 180.382 293.007 180.823 292.969 181.263 292.931 181.704 292.893 182.144 292.855 182.585 292.817 183.025 292.779 183.466 292.741 183.906 292.703 184.347 292.665 184.787 292.627 185.228 292.589 185.668 292.551 186.109 292.513 186.549 292.475 186.99 292.438"/><polyline class="cls-1" points="186.99 292.438 187.43 292.4 187.871 292.362 188.311 292.324 188.752 292.286 189.192 292.248 189.632 292.211 190.073 292.173 190.513 292.136 190.954 292.098 191.394 292.06 191.835 292.023 192.275 291.986 192.716 291.948 193.156 291.911 193.597 291.874 194.037 291.837 194.478 291.799 194.918 291.762 195.359 291.725 195.799 291.689 196.24 291.652 196.68 291.615 197.121 291.578 197.561 291.542 198.002 291.505 198.442 291.469 198.882 291.433 199.323 291.396 199.763 291.36 200.204 291.324 200.644 291.288 201.085 291.252 201.525 291.216 201.966 291.18 202.406 291.145 202.847 291.109 203.287 291.074 203.728 291.038 204.168 291.003 204.609 290.968 205.049 290.932 205.49 290.897 205.93 290.862 206.371 290.827 206.811 290.792 207.252 290.757 207.692 290.723 208.132 290.688 208.573 290.653 209.013 290.618 209.454 290.584 209.894 290.549 210.335 290.515 210.775 290.48 211.216 290.446 211.656 290.412 212.097 290.377 212.537 290.343 212.978 290.309 213.418 290.274 213.859 290.24 214.299 290.206 214.74 290.171 215.18 290.137 215.621 290.103 216.061 290.069 216.502 290.034 216.942 290 217.382 289.966 217.823 289.931 218.263 289.897 218.704 289.863 219.144 289.828 219.585 289.794 220.025 289.759 220.466 289.725 220.906 289.69 221.347 289.655 221.787 289.621 222.228 289.586 222.668 289.551 223.109 289.516 223.549 289.481 223.99 289.446 224.43 289.411 224.871 289.376 225.311 289.341 225.752 289.306 226.192 289.27 226.632 289.235 227.073 289.199 227.513 289.164 227.954 289.128 228.394 289.092 228.835 289.056 229.275 289.02 229.716 288.984 230.156 288.948 230.597 288.912 231.037 288.875 231.478 288.839 231.918 288.803 232.359 288.766 232.799 288.729 233.24 288.693 233.68 288.656 234.121 288.619 234.561 288.582 235.002 288.545 235.442 288.508 235.882 288.471 236.323 288.434 236.763 288.396 237.204 288.359 237.644 288.322 238.085 288.284 238.525 288.247 238.966 288.209 239.406 288.172 239.847 288.134 240.287 288.096 240.728 288.059 241.168 288.021 241.609 287.983 242.049 287.946 242.49 287.908 242.93 287.87 243.371 287.832 243.811 287.795 244.252 287.757 244.692 287.719 245.132 287.682 245.573 287.644 246.013 287.606 246.454 287.569 246.894 287.531 247.335 287.493 247.775 287.456 248.216 287.418 248.656 287.381 249.097 287.343 249.537 287.306 249.978 287.269 250.418 287.231 250.859 287.194 251.299 287.157 251.74 287.12 252.18 287.083 252.621 287.046 253.061 287.009 253.502 286.973 253.942 286.936 254.382 286.899 254.823 286.863 255.263 286.826 255.704 286.79 256.144 286.754 256.585 286.718 257.025 286.682 257.466 286.646 257.906 286.61 258.347 286.574 258.787 286.538 259.228 286.503 259.668 286.467 260.109 286.432 260.549 286.396 260.99 286.361 261.43 286.326 261.871 286.291 262.311 286.256 262.752 286.221 263.192 286.186 263.632 286.151 264.073 286.116 264.513 286.082 264.954 286.047 265.394 286.013 265.835 285.978 266.275 285.944 266.716 285.91 267.156 285.875 267.597 285.841 268.037 285.807 268.478 285.773 268.918 285.739 269.359 285.705 269.799 285.671 270.24 285.637 270.68 285.603 271.121 285.569 271.561 285.535 272.002 285.501 272.442 285.468 272.882 285.434 273.323 285.4 273.763 285.366 274.204 285.332 274.644 285.298 275.085 285.264 275.525 285.231 275.966 285.197 276.406 285.163 276.847 285.129 277.287 285.095 277.728 285.061 278.168 285.027 278.609 284.993 279.049 284.959 279.49 284.924 279.93 284.89 280.371 284.856 280.811 284.822 281.252 284.787 281.692 284.753 282.132 284.718 282.573 284.684 283.013 284.649 283.454 284.614 283.894 284.579 284.335 284.545 284.775 284.51 285.216 284.475 285.656 284.44 286.097 284.404 286.537 284.369 286.978 284.334 287.418 284.298 287.859 284.263 288.299 284.227 288.74 284.192 289.18 284.156 289.621 284.12 290.061 284.084 290.502 284.048 290.942 284.012 291.382 283.976 291.823 283.94 292.263 283.903 292.704 283.867 293.144 283.83 293.585 283.794 294.025 283.757 294.466 283.72 294.906 283.684 295.347 283.647 295.787 283.61 296.228 283.573 296.668 283.535 297.109 283.498 297.549 283.461 297.99 283.424 298.43 283.386 298.871 283.349 299.311 283.311 299.752 283.274 300.192 283.236 300.632 283.198 301.073 283.16 301.513 283.123 301.954 283.085 302.394 283.047 302.835 283.009 303.275 282.971 303.716 282.933 304.156 282.894 304.597 282.856 305.037 282.818 305.478 282.78 305.918 282.742 306.359 282.703 306.799 282.665 307.24 282.626 307.68 282.588 308.121 282.549 308.561 282.511 309.002 282.472 309.442 282.434 309.882 282.395 310.323 282.357 310.763 282.318 311.204 282.279 311.644 282.241 312.085 282.202 312.525 282.163 312.966 282.125 313.406 282.086 313.847 282.047 314.287 282.008 314.728 281.97 315.168 281.931 315.609 281.892 316.049 281.853 316.49 281.814 316.93 281.776 317.371 281.737 317.811 281.698 318.252 281.659 318.692 281.62"/><polyline class="cls-1" points="318.692 281.62 319.132 281.581 319.573 281.542 320.013 281.504 320.454 281.465 320.894 281.426 321.335 281.387 321.775 281.348 322.216 281.309 322.656 281.27 323.097 281.231 323.537 281.192 323.978 281.153 324.418 281.115 324.859 281.076 325.299 281.037 325.74 280.998 326.18 280.959 326.621 280.92 327.061 280.881 327.502 280.842 327.942 280.803 328.383 280.764 328.823 280.725 329.263 280.686 329.704 280.647 330.144 280.608 330.585 280.569 331.025 280.53 331.466 280.492 331.906 280.453 332.347 280.414 332.787 280.375 333.228 280.336 333.668 280.297 334.109 280.258 334.549 280.219 334.99 280.18 335.43 280.141 335.871 280.102 336.311 280.063 336.752 280.024 337.192 279.985 337.632 279.946 338.073 279.907 338.513 279.868 338.954 279.829 339.394 279.79 339.835 279.751 340.275 279.712 340.716 279.673 341.156 279.633 341.597 279.594 342.037 279.555 342.478 279.516 342.918 279.477 343.359 279.438 343.799 279.399 344.24 279.36 344.68 279.321 345.121 279.282 345.561 279.243 346.002 279.203 346.442 279.164 346.882 279.125 347.323 279.086 347.763 279.047 348.204 279.007 348.644 278.968 349.085 278.929 349.525 278.89 349.966 278.85 350.406 278.811 350.847 278.772 351.287 278.732 351.728 278.693 352.168 278.653 352.609 278.614 353.049 278.574 353.49 278.535 353.93 278.495 354.371 278.456 354.811 278.416 355.252 278.377 355.692 278.337 356.132 278.297 356.573 278.257 357.013 278.218 357.454 278.178 357.894 278.138 358.335 278.098 358.775 278.058 359.216 278.018 359.656 277.978 360.097 277.938 360.537 277.898 360.978 277.858 361.418 277.817 361.859 277.777 362.299 277.737 362.74 277.696 363.18 277.656 363.621 277.615 364.061 277.575 364.502 277.534 364.942 277.494 365.382 277.453 365.823 277.412 366.263 277.371 366.704 277.33 367.144 277.289 367.585 277.248 368.025 277.207 368.466 277.166 368.906 277.125 369.347 277.083 369.787 277.042 370.228 277.001 370.668 276.959 371.109 276.918 371.549 276.876 371.99 276.834 372.43 276.793 372.871 276.751 373.311 276.709 373.752 276.667 374.192 276.625 374.632 276.583 375.073 276.541 375.513 276.499 375.954 276.457 376.394 276.414 376.835 276.372 377.275 276.329 377.716 276.287 378.156 276.245 378.597 276.202 379.037 276.159 379.478 276.117 379.918 276.074 380.359 276.031 380.799 275.988 381.24 275.945 381.68 275.903 382.121 275.86 382.561 275.817 383.002 275.774 383.442 275.731 383.882 275.687 384.323 275.644 384.763 275.601 385.204 275.558 385.644 275.515 386.085 275.471 386.525 275.428 386.966 275.385 387.406 275.341 387.847 275.298 388.287 275.254 388.728 275.211 389.168 275.167 389.609 275.124 390.049 275.08 390.49 275.037 390.93 274.993 391.371 274.95 391.811 274.906 392.252 274.862 392.692 274.819 393.132 274.775 393.573 274.731 394.013 274.688 394.454 274.644 394.894 274.6 395.335 274.557 395.775 274.513 396.216 274.469 396.656 274.425 397.097 274.381 397.537 274.338 397.978 274.294 398.418 274.25 398.859 274.206 399.299 274.162 399.74 274.118 400.18 274.074 400.621 274.03 401.061 273.986 401.502 273.942 401.942 273.898 402.382 273.854 402.823 273.81 403.263 273.766 403.704 273.722 404.144 273.678 404.585 273.634 405.025 273.589 405.466 273.545 405.906 273.501 406.347 273.456 406.787 273.412 407.228 273.368 407.668 273.323 408.109 273.279 408.549 273.234 408.99 273.19 409.43 273.145 409.871 273.1 410.311 273.056 410.752 273.011 411.192 272.966 411.632 272.921 412.073 272.876 412.513 272.831 412.954 272.786 413.394 272.741 413.835 272.696 414.275 272.651 414.716 272.606 415.156 272.56 415.597 272.515 416.037 272.47 416.478 272.424 416.918 272.379 417.359 272.333 417.799 272.287 418.24 272.242 418.68 272.196 419.121 272.15 419.561 272.104 420.002 272.058 420.442 272.012 420.883 271.966 421.323 271.92 421.763 271.874 422.204 271.828 422.644 271.782 423.085 271.735 423.525 271.689 423.966 271.642 424.406 271.596 424.847 271.55 425.287 271.503 425.728 271.456 426.168 271.41 426.609 271.363 427.049 271.317 427.49 271.27 427.93 271.223 428.371 271.176 428.811 271.13 429.252 271.083 429.692 271.036 430.132 270.989 430.573 270.942 431.013 270.895 431.454 270.849 431.894 270.802 432.335 270.755 432.775 270.708 433.216 270.661 433.656 270.614 434.097 270.568 434.537 270.521 434.978 270.474 435.418 270.427 435.859 270.38 436.299 270.334 436.74 270.287 437.18 270.24 437.621 270.194 438.061 270.147 438.502 270.101 438.942 270.054 439.382 270.008 439.823 269.961 440.263 269.915 440.704 269.869 441.144 269.822 441.585 269.776 442.025 269.73 442.466 269.684 442.906 269.638 443.347 269.592 443.787 269.546 444.228 269.5 444.668 269.454 445.109 269.408 445.549 269.363 445.99 269.317 446.43 269.271 446.871 269.226 447.311 269.18 447.752 269.135 448.192 269.09 448.632 269.045 449.073 268.999 449.513 268.954 449.954 268.909 450.394 268.864"/><polyline class="cls-1" points="450.394 268.864 450.835 268.819 451.275 268.774 451.716 268.729 452.156 268.684 452.597 268.639 453.037 268.595 453.478 268.55 453.918 268.505 454.359 268.461 454.799 268.416 455.24 268.371 455.68 268.327 456.121 268.282 456.561 268.238 457.002 268.193 457.442 268.149 457.882 268.104 458.323 268.06 458.763 268.015 459.204 267.971 459.644 267.926 460.085 267.882 460.525 267.837 460.966 267.792 461.406 267.748 461.847 267.703 462.287 267.659 462.728 267.614 463.168 267.569 463.609 267.524 464.049 267.48 464.49 267.435 464.93 267.39 465.371 267.345 465.811 267.3 466.252 267.255 466.692 267.21 467.132 267.164 467.573 267.119 468.013 267.074 468.454 267.028 468.894 266.983 469.335 266.937 469.775 266.892 470.216 266.846 470.656 266.8 471.097 266.754 471.537 266.708 471.978 266.662 472.418 266.616 472.859 266.57 473.299 266.523 473.74 266.477 474.18 266.431 474.621 266.384 475.061 266.337 475.502 266.29 475.942 266.244 476.382 266.197 476.823 266.15 477.263 266.103 477.704 266.055 478.144 266.008 478.585 265.961 479.025 265.913 479.466 265.866 479.906 265.818 480.347 265.771 480.787 265.723 481.228 265.675 481.668 265.628 482.109 265.58 482.549 265.532 482.99 265.484 483.43 265.436 483.871 265.388 484.311 265.34 484.752 265.292 485.192 265.244 485.632 265.196 486.073 265.148 486.514 265.1 486.954 265.052 487.394 265.004 487.835 264.956 488.275 264.907 488.716 264.859 489.156 264.811 489.597 264.763 490.037 264.715 490.478 264.668 490.918 264.62 491.359 264.572 491.799 264.524 492.24 264.476 492.68 264.429 493.121 264.381 493.561 264.334 494.002 264.286 494.442 264.239 494.882 264.192"/><polyline class="cls-1" points="59.139 304.41 59.252 304.408 59.692 304.4 60.133 304.392 60.573 304.385 61.013 304.377 61.454 304.37 61.894 304.363 62.139 304.359"/><polyline class="cls-2" points="68.738 304.267 68.942 304.264 69.383 304.259 69.823 304.254 70.263 304.249 70.704 304.244 71.144 304.239 71.585 304.235 72.025 304.23 72.466 304.225 72.906 304.221 73.347 304.216 73.787 304.212 74.228 304.208 74.668 304.203 75.109 304.199 75.549 304.195 75.99 304.191 76.43 304.187 76.871 304.183 77.311 304.179 77.752 304.175 78.192 304.172 78.633 304.168"/><polyline class="cls-3" points="81.936 304.14 82.156 304.138 82.597 304.135 83.037 304.131 83.478 304.128 83.918 304.124 84.359 304.121 84.799 304.117 85.24 304.113 85.68 304.11 86.121 304.106 86.561 304.103 87.002 304.099 87.442 304.096 87.883 304.092 88.323 304.088 88.763 304.085 89.204 304.081 89.644 304.077 90.085 304.073 90.525 304.07 90.966 304.066 91.406 304.062 91.847 304.058 92.287 304.054 92.728 304.05 93.168 304.046 93.609 304.042 94.049 304.038 94.49 304.034 94.93 304.03 95.371 304.025 95.811 304.021 96.252 304.017 96.692 304.012 97.133 304.008 97.573 304.004 98.013 303.999 98.454 303.994 98.894 303.99 99.335 303.985 99.775 303.98 100.216 303.976 100.656 303.971 101.097 303.966 101.537 303.961 101.978 303.956 102.418 303.951 102.859 303.946 103.299 303.941 103.74 303.935 104.18 303.93 104.621 303.925 105.061 303.919 105.502 303.914 105.942 303.908 106.383 303.903 106.823 303.897 107.263 303.892 107.704 303.886 108.144 303.88 108.585 303.874 109.025 303.869 109.466 303.863 109.906 303.857 110.347 303.851 110.787 303.845 111.228 303.839 111.668 303.833 112.109 303.826 112.549 303.82 112.99 303.814 113.43 303.808 113.871 303.801 114.311 303.795 114.752 303.789 115.192 303.782 115.633 303.776 116.073 303.769 116.513 303.763 116.954 303.756 117.394 303.75 117.835 303.743 118.275 303.736 118.716 303.73 119.156 303.723 119.597 303.716 120.037 303.71 120.478 303.703 120.918 303.696 121.359 303.689 121.799 303.682 122.24 303.676 122.68 303.669 123.121 303.662 123.561 303.655 124.002 303.648 124.442 303.641 124.883 303.634 125.323 303.627 125.763 303.62 126.204 303.613 126.644 303.606 127.085 303.599 127.525 303.592 127.966 303.585 128.406 303.578 128.847 303.571 129.287 303.564 129.728 303.557 130.168 303.55 130.609 303.543 131.049 303.536 131.49 303.529 131.93 303.521 132.371 303.514 132.811 303.507 133.252 303.5 133.692 303.493 134.132 303.486 134.573 303.479 135.013 303.471 135.454 303.464 135.894 303.457 136.335 303.45 136.775 303.443 137.216 303.435 137.656 303.428 138.097 303.421 138.537 303.414 138.978 303.407 139.418 303.399 139.859 303.392 140.299 303.385 140.74 303.377 141.18 303.37 141.621 303.363 142.061 303.356 142.502 303.348 142.942 303.341 143.383 303.333 143.823 303.326 144.263 303.319 144.704 303.311 145.144 303.304 145.585 303.296 146.025 303.289 146.466 303.282 146.906 303.274 147.347 303.267 147.787 303.259 148.228 303.251 148.668 303.244 149.109 303.236 149.549 303.229 149.99 303.221 150.43 303.213 150.871 303.206 151.311 303.198 151.752 303.19 152.192 303.182 152.633 303.175 153.073 303.167 153.513 303.159 153.954 303.151 154.394 303.143 154.835 303.135 155.275 303.127 155.716 303.119 156.156 303.111 156.597 303.103 157.037 303.095 157.478 303.087 157.918 303.078 158.359 303.07 158.799 303.062 159.24 303.054 159.68 303.045 160.121 303.037 160.561 303.029 161.002 303.02 161.442 303.012 161.883 303.003 162.323 302.995 162.763 302.986 163.204 302.977 163.644 302.969 164.085 302.96 164.525 302.951 164.966 302.942 165.406 302.933 165.847 302.924 166.287 302.915 166.728 302.906 167.168 302.897 167.609 302.888 168.049 302.879 168.49 302.87 168.93 302.861 169.371 302.852 169.811 302.842 170.252 302.833 170.692 302.823 171.133 302.814 171.573 302.805 172.013 302.795 172.454 302.785 172.894 302.776 173.335 302.766 173.775 302.756 174.216 302.747 174.656 302.737 175.097 302.727 175.537 302.717 175.978 302.707 176.418 302.697 176.859 302.687 177.299 302.677 177.74 302.667 178.18 302.657 178.621 302.647 179.061 302.637 179.502 302.626 179.942 302.616 180.383 302.606 180.823 302.596 181.263 302.585 181.704 302.575 182.144 302.564 182.585 302.554 183.025 302.543 183.466 302.533 183.906 302.522 184.216 302.515"/><polyline class="cls-1" points="187.514 302.434 187.871 302.425 188.311 302.414 188.752 302.403 189.192 302.392 189.633 302.381 190.073 302.37 190.513 302.359"/><polyline class="cls-1" points="190.513 302.359 190.954 302.348 191.394 302.337 191.835 302.326 192.275 302.315 192.716 302.304 193.156 302.293 193.513 302.284"/><polyline class="cls-4" points="198.979 302.146 199.323 302.137 199.763 302.126 200.204 302.115 200.644 302.104 201.085 302.093 201.525 302.082 201.966 302.071 202.406 302.06 202.847 302.049 203.287 302.038 203.728 302.027 204.168 302.016 204.609 302.005 205.049 301.994 205.49 301.983 205.93 301.972 206.371 301.961 206.811 301.95 207.178 301.941"/><polyline class="cls-5" points="209.911 301.875 210.335 301.865 210.775 301.854 211.216 301.844 211.656 301.833 212.097 301.823 212.537 301.812 212.978 301.802 213.418 301.791 213.859 301.781 214.299 301.771 214.74 301.76 215.18 301.75 215.621 301.74 216.061 301.73 216.502 301.72 216.942 301.71 217.383 301.7 217.823 301.69 218.263 301.68 218.704 301.67 219.144 301.66 219.585 301.65 220.025 301.64 220.466 301.63 220.906 301.62 221.347 301.611 221.787 301.601 222.228 301.591 222.668 301.582 223.109 301.572 223.549 301.562 223.99 301.553 224.43 301.543 224.871 301.534 225.311 301.524 225.752 301.514 226.192 301.505 226.633 301.495 227.073 301.486 227.513 301.477 227.954 301.467 228.394 301.458 228.835 301.448 229.275 301.439 229.716 301.429 230.156 301.42 230.597 301.411 231.037 301.401 231.478 301.392 231.918 301.382 232.359 301.373 232.799 301.364 233.24 301.354 233.68 301.345 234.121 301.335 234.561 301.326 235.002 301.317 235.442 301.307 235.883 301.298 236.323 301.288 236.763 301.279 237.204 301.269 237.644 301.26 238.085 301.25 238.525 301.241 238.966 301.231 239.406 301.221 239.847 301.212 240.287 301.202 240.728 301.192 241.168 301.183 241.609 301.173 242.049 301.163 242.49 301.153 242.93 301.144 243.371 301.134 243.811 301.124 244.252 301.114 244.692 301.104 245.133 301.094 245.573 301.084 246.013 301.074 246.454 301.064 246.894 301.053 247.335 301.043 247.775 301.033 248.216 301.023 248.656 301.012 249.097 301.002 249.537 300.991 249.978 300.981 250.418 300.97 250.859 300.96 251.299 300.949 251.74 300.938 252.18 300.928 252.621 300.917 253.061 300.906 253.502 300.895 253.942 300.884 254.383 300.873 254.823 300.862 255.263 300.851 255.704 300.84 256.144 300.829 256.585 300.818 257.025 300.806 257.466 300.795 257.906 300.783 258.347 300.772 258.787 300.76 259.228 300.749 259.668 300.737 260.109 300.725 260.549 300.714 260.99 300.702 261.43 300.69 261.871 300.678 262.311 300.666 262.752 300.654 263.192 300.642 263.633 300.629 264.073 300.617 264.513 300.605 264.954 300.592 265.394 300.58 265.835 300.567 266.275 300.554 266.716 300.542 267.156 300.529 267.597 300.516 268.037 300.503 268.478 300.49 268.918 300.477 269.359 300.464 269.799 300.451 270.24 300.437 270.68 300.424 271.121 300.41 271.561 300.397 272.002 300.383 272.442 300.369 272.883 300.356 273.323 300.342 273.763 300.328 274.204 300.314 274.644 300.3 275.085 300.285 275.525 300.271 275.966 300.257 276.406 300.242 276.847 300.228 277.287 300.213 277.728 300.198 278.168 300.183 278.609 300.169 279.049 300.154 279.49 300.139 279.93 300.123 280.371 300.108 280.811 300.093 281.252 300.077 281.692 300.062 282.133 300.046 282.573 300.031 283.013 300.015 283.454 299.999 283.894 299.984 284.335 299.968 284.775 299.952 285.216 299.936 285.656 299.919 286.097 299.903 286.537 299.887 286.978 299.871 287.418 299.854 287.859 299.838 288.299 299.821 288.74 299.805 289.18 299.788 289.621 299.771 290.061 299.755 290.502 299.738 290.942 299.721 291.383 299.704 291.823 299.688 292.263 299.671 292.704 299.654 293.144 299.637 293.585 299.62 294.025 299.603 294.466 299.586 294.906 299.569 295.347 299.552 295.787 299.535 296.228 299.518 296.668 299.501 297.109 299.484 297.549 299.467 297.99 299.45 298.43 299.432 298.871 299.415 299.311 299.398 299.752 299.382 300.192 299.365 300.633 299.348 301.073 299.331 301.513 299.314 301.954 299.297 302.394 299.28 302.835 299.264 303.275 299.247 303.716 299.23 304.156 299.214 304.597 299.197 305.037 299.18 305.478 299.164 305.918 299.148 306.359 299.131 306.799 299.115 307.24 299.099 307.68 299.083 308.121 299.066 308.561 299.05 309.002 299.034 309.442 299.018 309.883 299.003 310.323 298.987 310.763 298.971 311.204 298.955 311.644 298.94 312.085 298.924 312.525 298.909 312.966 298.893 313.406 298.878 313.847 298.863 314.287 298.847 314.728 298.832 315.168 298.817 315.609 298.802 316.049 298.787 316.49 298.772"/><polyline class="cls-1" points="319.217 298.68 319.573 298.669 320.013 298.654 320.454 298.639 320.894 298.625 321.335 298.61 321.775 298.596 322.216 298.581"/><polyline class="cls-1" points="322.216 298.581 322.656 298.567 323.097 298.552 323.537 298.538 323.978 298.523 324.418 298.509 324.859 298.494 325.214 298.483"/><polyline class="cls-6" points="330.683 298.3 331.025 298.289 331.466 298.274 331.906 298.259 332.347 298.243 332.787 298.228 333.228 298.213 333.668 298.198 334.109 298.182 334.549 298.167 334.99 298.151 335.43 298.135 335.871 298.12 336.311 298.104 336.752 298.088 337.192 298.072 337.633 298.056 338.073 298.04 338.513 298.024 338.884 298.01"/><polyline class="cls-7" points="341.618 297.907 342.037 297.891 342.478 297.873 342.918 297.856 343.359 297.839 343.799 297.822 344.24 297.804 344.68 297.787 345.121 297.769 345.561 297.752 346.002 297.734 346.442 297.716 346.882 297.698 347.323 297.68 347.763 297.662 348.204 297.644 348.644 297.626 349.085 297.608 349.525 297.589 349.966 297.571 350.406 297.553 350.847 297.534 351.287 297.516 351.728 297.497 352.168 297.478 352.609 297.46 353.049 297.441 353.49 297.422 353.93 297.403 354.371 297.385 354.811 297.366 355.252 297.347 355.692 297.328 356.133 297.309 356.573 297.29 357.013 297.271 357.454 297.252 357.894 297.233 358.335 297.214 358.775 297.195 359.216 297.176 359.656 297.157 360.097 297.137 360.537 297.118 360.978 297.099 361.418 297.08 361.859 297.061 362.299 297.042 362.74 297.023 363.18 297.004 363.621 296.985 364.061 296.966 364.502 296.947 364.942 296.928 365.382 296.909 365.823 296.89 366.263 296.871 366.704 296.852 367.144 296.833 367.585 296.814 368.025 296.795 368.466 296.776 368.906 296.758 369.347 296.739 369.787 296.72 370.228 296.701 370.668 296.683 371.109 296.664 371.549 296.645 371.99 296.627 372.43 296.608 372.871 296.59 373.311 296.571 373.752 296.553 374.192 296.534 374.632 296.516 375.073 296.498 375.513 296.479 375.954 296.461 376.394 296.443 376.835 296.424 377.275 296.406 377.716 296.388 378.156 296.37 378.597 296.352 379.037 296.334 379.478 296.316 379.918 296.298 380.359 296.28 380.799 296.262 381.24 296.244 381.68 296.226 382.121 296.208 382.561 296.191 383.002 296.173 383.442 296.155 383.883 296.138 384.323 296.12 384.763 296.103 385.204 296.085 385.644 296.068 386.085 296.05 386.525 296.033 386.966 296.016 387.406 295.999 387.847 295.981 388.287 295.964 388.728 295.947 389.168 295.93 389.609 295.913 390.049 295.896 390.49 295.879 390.93 295.863 391.371 295.846 391.811 295.829 392.252 295.813 392.692 295.796 393.133 295.779 393.573 295.763 394.013 295.746 394.454 295.73 394.894 295.714 395.335 295.697 395.775 295.681 396.216 295.665 396.656 295.649 397.097 295.633 397.537 295.617 397.978 295.601 398.418 295.585 398.859 295.569 399.299 295.553 399.74 295.538 400.18 295.522 400.621 295.506 401.061 295.491 401.502 295.475 401.942 295.46 402.383 295.444 402.823 295.429 403.263 295.413 403.704 295.398 404.144 295.382 404.585 295.367 405.025 295.351 405.466 295.336 405.906 295.321 406.347 295.305 406.787 295.29 407.228 295.274 407.668 295.259 408.109 295.243 408.549 295.228 408.99 295.213 409.43 295.197 409.871 295.181 410.311 295.166 410.752 295.15 411.192 295.134 411.633 295.118 412.073 295.102 412.513 295.086 412.954 295.07 413.394 295.054 413.835 295.038 414.275 295.021 414.716 295.005 415.156 294.988 415.597 294.972 416.037 294.955 416.478 294.938 416.918 294.92 417.359 294.903 417.799 294.885 418.24 294.868 418.68 294.85 419.121 294.832 419.561 294.813 420.002 294.795 420.442 294.776 420.883 294.757 421.323 294.738 421.763 294.719 422.204 294.699 422.644 294.68 423.085 294.659 423.525 294.639 423.966 294.619 424.406 294.598 424.847 294.577 425.287 294.555 425.728 294.534 426.168 294.512 426.609 294.49 427.049 294.467 427.49 294.445 427.93 294.422 428.371 294.398 428.811 294.375 429.252 294.351 429.692 294.327 430.132 294.303 430.573 294.278 431.013 294.253 431.454 294.228 431.894 294.202 432.335 294.177 432.775 294.15 433.216 294.124 433.656 294.097 434.097 294.071 434.537 294.043 434.978 294.016 435.418 293.988 435.859 293.961 436.299 293.932 436.74 293.904 437.18 293.875 437.621 293.847 438.061 293.818 438.502 293.788 438.942 293.759 439.382 293.729 439.823 293.7 440.263 293.67 440.704 293.639 441.144 293.609 441.585 293.579 442.025 293.548 442.466 293.517 442.906 293.487 443.347 293.456 443.787 293.425 444.228 293.393 444.668 293.362 445.109 293.331 445.549 293.3 445.99 293.268 446.43 293.237 446.871 293.206 447.311 293.174 447.752 293.143 448.192 293.111"/><polyline class="cls-1" points="450.925 292.918 451.275 292.893 451.716 292.862 452.156 292.831 452.597 292.801 453.037 292.77 453.478 292.74 453.918 292.71"/><polyline class="cls-1" points="453.918 292.71 454.359 292.68 454.799 292.65 455.24 292.62 455.68 292.591 456.121 292.561 456.561 292.532 456.911 292.509"/><polyline class="cls-8" points="461.903 292.198 462.287 292.175 462.728 292.149 463.168 292.124 463.609 292.099 464.049 292.074 464.49 292.049 464.93 292.025 465.371 292.001 465.811 291.977 466.252 291.954 466.692 291.931 467.132 291.908 467.573 291.885 468.013 291.863 468.454 291.841 468.894 291.819 469.335 291.797 469.395 291.794"/><polyline class="cls-9" points="471.893 291.677 471.978 291.673 472.418 291.653 472.859 291.633 473.299 291.614 473.74 291.595 474.18 291.576 474.621 291.557 475.061 291.539 475.502 291.52 475.942 291.502 476.382 291.484 476.823 291.466 477.263 291.449 477.704 291.431 478.144 291.414 478.585 291.397 479.025 291.38 479.466 291.363 479.906 291.346 480.347 291.33 480.787 291.313 481.228 291.297 481.668 291.281 482.109 291.265 482.549 291.249 482.99 291.233 483.43 291.217 483.871 291.201 484.311 291.186 484.752 291.17 485.192 291.155 485.632 291.139 486.073 291.124 486.513 291.109 486.954 291.094 487.394 291.079 487.835 291.063 488.275 291.048 488.716 291.033 489.156 291.019 489.385 291.011"/><polyline class="cls-1" points="491.884 290.927 492.24 290.915 492.68 290.9 493.121 290.886 493.561 290.871 494.002 290.856 494.442 290.842 494.883 290.827"/><polyline class="cls-10" points="64.875 304.41 64.978 304.389 65.418 304.305 65.859 304.223 66.299 304.143 66.74 304.066 67.18 303.991 67.621 303.918 68.061 303.848 68.502 303.779 68.942 303.713 69.382 303.648 69.823 303.585 70.263 303.524 70.704 303.465 71.144 303.407 71.585 303.351 72.025 303.296 72.466 303.242 72.906 303.19 73.347 303.139 73.787 303.089 74.228 303.04 74.668 302.992 75.109 302.945 75.549 302.899 75.99 302.854 76.43 302.809 76.871 302.764 77.311 302.721 77.752 302.677 78.192 302.634 78.632 302.592 79.073 302.549 79.513 302.507 79.954 302.465 80.394 302.423 80.835 302.381 81.275 302.339 81.716 302.296 82.156 302.254 82.597 302.211 83.037 302.168 83.478 302.125 83.918 302.081 84.359 302.037 84.799 301.992 85.24 301.947 85.68 301.901 86.121 301.855 86.561 301.808 87.002 301.76 87.442 301.712 87.882 301.663 88.323 301.613 88.763 301.562 89.204 301.511 89.644 301.458 90.085 301.405 90.525 301.351 90.966 301.296 91.406 301.241 91.847 301.184 92.287 301.126 92.728 301.068 93.168 301.008 93.609 300.948 94.049 300.887 94.49 300.824 94.93 300.761 95.371 300.697 95.811 300.632 96.252 300.566 96.692 300.499 97.132 300.431 97.573 300.363 98.013 300.293 98.454 300.222 98.894 300.151 99.335 300.079 99.775 300.005 100.216 299.931 100.656 299.856 101.097 299.781 101.537 299.704 101.978 299.627 102.418 299.549 102.859 299.47 103.299 299.39 103.74 299.31 104.18 299.229 104.621 299.147 105.061 299.065 105.502 298.982 105.942 298.898 106.382 298.813 106.823 298.728 107.263 298.643 107.704 298.557 108.144 298.47 108.585 298.382 109.025 298.295 109.466 298.206 109.906 298.117 110.347 298.028 110.787 297.938 111.228 297.848 111.668 297.757 112.109 297.665 112.549 297.574 112.99 297.482 113.43 297.389 113.871 297.296 114.311 297.203 114.752 297.109 115.192 297.015 115.632 296.921 116.073 296.826 116.513 296.731 116.954 296.636 117.394 296.54 117.835 296.444 118.275 296.348 118.716 296.251 119.156 296.154 119.597 296.057 120.037 295.959 120.478 295.861 120.918 295.763 121.359 295.665 121.799 295.566 122.24 295.467 122.68 295.368 123.121 295.269 123.561 295.169 124.002 295.069 124.442 294.968 124.882 294.868 125.323 294.767 125.763 294.666 126.204 294.564 126.644 294.462 127.085 294.36 127.525 294.258 127.966 294.156 128.406 294.053 128.847 293.95 129.287 293.846 129.728 293.743 130.168 293.639 130.609 293.534 131.049 293.43 131.49 293.325 131.93 293.22 132.371 293.114 132.811 293.009 133.252 292.903 133.692 292.796 134.132 292.689 134.573 292.582 135.013 292.475 135.454 292.368 135.894 292.26 136.335 292.151 136.775 292.043 137.216 291.934 137.656 291.825 138.097 291.715 138.537 291.605 138.978 291.495 139.418 291.384 139.859 291.273 140.299 291.162 140.74 291.05 141.18 290.938 141.621 290.826 142.061 290.713 142.502 290.6 142.942 290.486 143.382 290.372 143.823 290.258 144.263 290.143 144.704 290.028 145.144 289.913 145.585 289.797 146.025 289.68 146.466 289.564 146.906 289.447 147.347 289.329 147.787 289.211 148.228 289.093 148.668 288.974 149.109 288.855 149.549 288.735 149.99 288.615 150.43 288.494 150.871 288.373 151.311 288.251 151.752 288.129 152.192 288.007 152.632 287.883 153.073 287.76 153.513 287.636 153.954 287.511 154.394 287.386 154.835 287.26 155.275 287.134 155.716 287.007 156.156 286.879 156.597 286.751 157.037 286.623 157.478 286.494 157.918 286.364 158.359 286.233 158.799 286.102 159.24 285.971 159.68 285.839 160.121 285.706 160.561 285.572 161.002 285.438 161.442 285.303 161.882 285.167 162.323 285.031 162.763 284.894 163.204 284.756 163.644 284.618 164.085 284.478 164.525 284.339 164.966 284.198 165.406 284.057 165.847 283.914 166.287 283.771 166.728 283.628 167.168 283.483 167.609 283.338 168.049 283.192 168.49 283.045 168.93 282.898 169.371 282.749 169.811 282.6 170.252 282.45 170.692 282.3 171.132 282.148 171.573 281.996 172.013 281.843 172.454 281.689 172.894 281.534 173.335 281.378 173.775 281.222 174.216 281.065 174.656 280.907 175.097 280.748 175.537 280.588 175.978 280.428 176.418 280.267 176.859 280.105 177.299 279.942 177.74 279.779 178.18 279.615 178.621 279.45 179.061 279.284 179.502 279.118 179.942 278.95 180.382 278.782 180.823 278.614 181.263 278.445 181.704 278.275 182.144 278.104 182.585 277.932 183.025 277.76 183.466 277.588 183.906 277.414 184.347 277.241 184.787 277.066 185.228 276.891 185.668 276.715 186.109 276.539 186.549 276.362 186.99 276.184 187.43 276.006 187.871 275.828 188.311 275.649 188.752 275.469 189.192 275.289 189.632 275.109 190.073 274.928 190.513 274.746 190.954 274.564 191.394 274.382 191.835 274.199 192.275 274.016 192.716 273.833 193.156 273.649 193.597 273.464 194.037 273.28 194.478 273.094 194.918 272.909 195.359 272.723 195.799 272.537 196.24 272.351"/><polyline class="cls-10" points="196.24 272.351 196.68 272.164 197.121 271.977 197.561 271.79 198.002 271.602 198.442 271.414 198.882 271.226 199.323 271.037 199.763 270.848 200.204 270.659 200.644 270.47 201.085 270.28 201.525 270.09 201.966 269.9 202.406 269.709 202.847 269.518 203.287 269.327 203.728 269.136 204.168 268.944 204.609 268.752 205.049 268.56 205.49 268.367 205.93 268.174 206.371 267.981 206.811 267.788 207.252 267.594 207.692 267.4 208.132 267.205 208.573 267.01 209.013 266.815 209.454 266.62 209.894 266.424 210.335 266.227 210.775 266.031 211.216 265.834 211.656 265.636 212.097 265.439 212.537 265.24 212.978 265.042 213.418 264.842 213.859 264.643 214.299 264.443 214.74 264.242 215.18 264.041 215.621 263.84 216.061 263.638 216.502 263.435 216.942 263.232 217.382 263.028 217.823 262.824 218.263 262.62 218.704 262.414 219.144 262.209 219.585 262.002 220.025 261.795 220.466 261.587 220.906 261.379 221.347 261.17 221.787 260.961 222.228 260.751 222.668 260.54 223.109 260.329 223.549 260.116 223.99 259.904 224.43 259.69 224.871 259.476 225.311 259.261 225.752 259.046 226.192 258.83 226.632 258.613 227.073 258.395 227.513 258.177 227.954 257.958 228.394 257.738 228.835 257.518 229.275 257.297 229.716 257.075 230.156 256.852 230.597 256.629 231.037 256.405 231.478 256.18 231.918 255.955 232.359 255.729 232.799 255.502 233.24 255.274 233.68 255.046 234.121 254.817 234.561 254.588 235.002 254.357 235.442 254.126 235.882 253.894 236.323 253.662 236.763 253.429 237.204 253.195 237.644 252.96 238.085 252.725 238.525 252.489 238.966 252.252 239.406 252.015 239.847 251.777 240.287 251.538 240.728 251.299 241.168 251.059 241.609 250.818 242.049 250.577 242.49 250.335 242.93 250.092 243.371 249.849 243.811 249.605 244.252 249.361 244.692 249.116 245.132 248.87 245.573 248.623 246.013 248.376 246.454 248.128 246.894 247.88 247.335 247.631 247.775 247.381 248.216 247.131 248.656 246.88 249.097 246.628 249.537 246.376 249.978 246.123 250.418 245.87 250.859 245.615 251.299 245.361 251.74 245.105 252.18 244.849 252.621 244.592 253.061 244.334 253.502 244.076 253.942 243.817 254.382 243.558 254.823 243.298 255.263 243.037 255.704 242.775 256.144 242.513 256.585 242.249 257.025 241.986 257.466 241.721 257.906 241.456 258.347 241.19 258.787 240.923 259.228 240.656 259.668 240.387 260.109 240.118 260.549 239.849 260.99 239.578 261.43 239.307 261.871 239.034 262.311 238.762 262.752 238.488 263.192 238.213 263.632 237.938 264.073 237.662 264.513 237.385 264.954 237.107 265.394 236.828 265.835 236.549 266.275 236.268 266.716 235.987 267.156 235.705 267.597 235.422 268.037 235.138 268.478 234.854 268.918 234.568 269.359 234.282 269.799 233.995 270.24 233.707 270.68 233.418 271.121 233.128 271.561 232.838 272.002 232.546 272.442 232.254 272.882 231.961 273.323 231.667 273.763 231.373 274.204 231.077 274.644 230.781 275.085 230.484 275.525 230.186 275.966 229.887 276.406 229.588 276.847 229.288 277.287 228.987 277.728 228.686 278.168 228.383 278.609 228.081 279.049 227.777 279.49 227.473 279.93 227.168 280.371 226.862 280.811 226.556 281.252 226.25 281.692 225.942 282.132 225.635 282.573 225.326 283.013 225.018 283.454 224.708 283.894 224.399 284.335 224.088 284.775 223.778 285.216 223.467 285.656 223.155 286.097 222.844 286.537 222.532 286.978 222.219 287.418 221.907 287.859 221.594 288.299 221.28 288.74 220.967 289.18 220.653 289.621 220.34 290.061 220.026 290.502 219.712 290.942 219.397 291.382 219.083 291.823 218.769 292.263 218.454 292.704 218.14 293.144 217.825 293.585 217.511 294.025 217.196 294.466 216.882 294.906 216.567 295.347 216.253 295.787 215.938 296.228 215.624 296.668 215.31 297.109 214.996 297.549 214.682 297.99 214.368 298.43 214.054 298.871 213.74 299.311 213.426 299.752 213.113 300.192 212.799 300.632 212.486 301.073 212.173 301.513 211.86 301.954 211.547 302.394 211.234 302.835 210.922 303.275 210.609 303.716 210.296 304.156 209.984 304.597 209.672 305.037 209.359 305.478 209.047 305.918 208.735 306.359 208.422 306.799 208.11 307.24 207.798 307.68 207.485 308.121 207.173 308.561 206.86 309.002 206.548 309.442 206.235 309.882 205.922 310.323 205.609 310.763 205.296 311.204 204.982 311.644 204.668 312.085 204.354 312.525 204.039 312.966 203.725 313.406 203.409 313.847 203.094 314.287 202.778 314.728 202.461 315.168 202.144 315.609 201.826 316.049 201.508 316.49 201.189 316.93 200.87 317.371 200.55 317.811 200.229 318.252 199.908 318.692 199.585 319.132 199.262 319.573 198.938 320.013 198.614 320.454 198.288 320.894 197.961 321.335 197.634 321.775 197.305 322.216 196.976 322.656 196.646 323.097 196.314 323.537 195.981 323.978 195.648 324.418 195.313 324.859 194.977 325.299 194.64 325.74 194.302 326.18 193.962 326.621 193.622 327.061 193.28 327.502 192.937 327.942 192.592"/><polyline class="cls-10" points="327.942 192.592 328.383 192.247 328.823 191.9 329.263 191.552 329.704 191.203 330.144 190.852 330.585 190.5 331.025 190.147 331.466 189.792 331.906 189.437 332.347 189.08 332.787 188.721 333.228 188.362 333.668 188.001 334.109 187.639 334.549 187.276 334.99 186.911 335.43 186.546 335.871 186.179 336.311 185.811 336.752 185.442 337.192 185.072 337.632 184.7 338.073 184.328 338.513 183.954 338.954 183.58 339.394 183.204 339.835 182.828 340.275 182.45 340.716 182.072 341.156 181.692 341.597 181.312 342.037 180.931 342.478 180.549 342.918 180.167 343.359 179.783 343.799 179.399 344.24 179.014 344.68 178.629 345.121 178.243 345.561 177.857 346.002 177.469 346.442 177.082 346.882 176.694 347.323 176.305 347.763 175.916 348.204 175.527 348.644 175.138 349.085 174.748 349.525 174.358 349.966 173.967 350.406 173.577 350.847 173.186 351.287 172.795 351.728 172.404 352.168 172.013 352.609 171.621 353.049 171.23 353.49 170.839 353.93 170.447 354.371 170.056 354.811 169.665 355.252 169.274 355.692 168.883 356.132 168.492 356.573 168.101 357.013 167.71 357.454 167.319 357.894 166.929 358.335 166.539 358.775 166.148 359.216 165.758 359.656 165.369 360.097 164.979 360.537 164.589 360.978 164.2 361.418 163.811 361.859 163.422 362.299 163.033 362.74 162.644 363.18 162.256 363.621 161.867 364.061 161.479 364.502 161.091 364.942 160.703 365.382 160.315 365.823 159.927 366.263 159.539 366.704 159.151 367.144 158.763 367.585 158.375 368.025 157.987 368.466 157.599 368.906 157.211 369.347 156.823 369.787 156.435 370.228 156.046 370.668 155.657 371.109 155.268 371.549 154.879 371.99 154.489 372.43 154.1 372.871 153.709 373.311 153.319 373.752 152.928 374.192 152.536 374.632 152.144 375.073 151.752 375.513 151.359 375.954 150.965 376.394 150.571 376.835 150.176 377.275 149.78 377.716 149.384 378.156 148.987 378.597 148.589 379.037 148.191 379.478 147.791 379.918 147.391 380.359 146.99 380.799 146.587 381.24 146.184 381.68 145.78 382.121 145.375 382.561 144.969 383.002 144.562 383.442 144.154 383.882 143.744 384.323 143.334 384.763 142.922 385.204 142.51 385.644 142.096 386.085 141.681 386.525 141.265 386.966 140.847 387.406 140.428 387.847 140.008 388.287 139.587 388.728 139.165 389.168 138.741 389.609 138.316 390.049 137.89 390.49 137.462 390.93 137.033 391.371 136.603 391.811 136.172 392.252 135.739 392.692 135.305 393.132 134.87 393.573 134.433 394.013 133.995 394.454 133.556 394.894 133.116 395.335 132.674 395.775 132.231 396.216 131.787 396.656 131.342 397.097 130.895 397.537 130.447 397.978 129.998 398.418 129.548 398.859 129.097 399.299 128.644 399.74 128.191 400.18 127.736 400.621 127.28 401.061 126.823 401.502 126.365 401.942 125.906 402.382 125.446 402.823 124.985 403.263 124.523 403.704 124.06 404.144 123.595 404.585 123.13 405.025 122.664 405.466 122.197 405.906 121.73 406.347 121.261 406.787 120.791 407.228 120.321 407.668 119.85 408.109 119.378 408.549 118.905 408.99 118.431 409.43 117.957 409.871 117.482 410.311 117.006 410.752 116.529 411.192 116.052 411.632 115.574 412.073 115.095 412.513 114.616 412.954 114.136 413.394 113.656 413.835 113.174 414.275 112.693 414.716 112.21 415.156 111.728 415.597 111.244 416.037 110.76 416.478 110.276 416.918 109.79 417.359 109.305 417.799 108.819 418.24 108.332 418.68 107.845 419.121 107.357 419.561 106.869 420.002 106.381 420.442 105.892 420.883 105.402 421.323 104.912 421.763 104.422 422.204 103.931 422.644 103.44 423.085 102.948 423.525 102.456 423.966 101.964 424.406 101.471 424.847 100.978 425.287 100.484 425.728 99.99 426.168 99.495 426.609 99 427.049 98.505 427.49 98.009 427.93 97.513 428.371 97.017 428.811 96.52 429.252 96.023 429.692 95.525 430.132 95.027 430.573 94.529 431.013 94.03 431.454 93.531 431.894 93.031 432.335 92.532 432.775 92.031 433.216 91.531 433.656 91.03 434.097 90.528 434.537 90.027 434.978 89.525 435.418 89.022 435.859 88.519 436.299 88.016 436.74 87.513 437.18 87.009 437.621 86.504 438.061 86 438.502 85.495 438.942 84.989 439.382 84.483 439.823 83.977 440.263 83.471 440.704 82.964 441.144 82.456 441.585 81.948 442.025 81.44 442.466 80.932 442.906 80.422 443.347 79.913 443.787 79.403 444.228 78.893 444.668 78.382 445.109 77.871 445.549 77.359 445.99 76.847 446.43 76.334 446.871 75.821 447.311 75.308 447.752 74.794 448.192 74.279 448.632 73.764 449.073 73.248 449.513 72.732 449.954 72.215 450.394 71.698 450.835 71.18 451.275 70.662 451.716 70.142 452.156 69.623 452.597 69.102 453.037 68.581 453.478 68.06 453.918 67.537 454.359 67.014 454.799 66.49 455.24 65.966 455.68 65.441 456.121 64.915 456.561 64.388 457.002 63.861 457.442 63.332 457.882 62.803 458.323 62.273 458.763 61.743 459.204 61.211 459.644 60.679"/><polyline class="cls-10" points="459.644 60.679 460.085 60.145 460.525 59.611 460.966 59.076 461.406 58.541 461.847 58.004 462.287 57.466 462.728 56.928 463.168 56.388 463.609 55.848 464.049 55.307 464.49 54.764 464.93 54.221 465.371 53.678 465.811 53.133 466.252 52.587 466.692 52.04 467.132 51.493 467.573 50.944 468.013 50.395 468.454 49.845 468.894 49.294 469.335 48.743 469.775 48.19 470.216 47.637 470.656 47.083 471.097 46.528 471.537 45.973 471.978 45.417 472.418 44.86 472.859 44.303 473.299 43.745 473.74 43.187 474.18 42.628 474.621 42.069 475.061 41.509 475.502 40.949 475.942 40.389 476.382 39.829 476.823 39.268 477.263 38.708 477.704 38.147 478.144 37.586 478.585 37.025 479.025 36.465 479.466 35.904 479.906 35.344 480.347 34.785 480.787 34.225 481.228 33.666 481.668 33.108 482.109 32.55 482.549 31.994 482.99 31.437 483.43 30.882 483.871 30.328 484.311 29.775 484.752 29.223 485.192 28.672 485.632 28.122 486.073 27.574 486.514 27.027 486.954 26.482 487.394 25.938 487.835 25.397 488.275 24.857 488.716 24.319 489.156 23.783 489.597 23.249 490.037 22.717 490.478 22.187 490.918 21.66 491.359 21.135 491.799 20.613 492.24 20.094 492.68 19.577 493.121 19.062 493.561 18.551 494.002 18.043 494.442 17.537 494.882 17.035"/><polyline class="cls-10" points="59.322 304.41 59.692 304.403 60.133 304.395 60.573 304.387 61.013 304.379 61.454 304.372 61.894 304.364 62.335 304.357 62.775 304.35 63.216 304.343 63.656 304.336 64.097 304.329 64.537 304.323 64.978 304.316 65.321 304.311"/><polyline class="cls-11" points="76.198 304.185 76.43 304.182 76.871 304.178 77.311 304.174 77.752 304.17 78.192 304.166 78.633 304.162 79.073 304.158 79.513 304.154 79.954 304.15 80.394 304.146 80.835 304.142 81.275 304.138 81.716 304.134 82.156 304.13 82.597 304.126 83.037 304.122 83.478 304.118 83.918 304.114 84.359 304.11 84.799 304.106 85.24 304.102 85.68 304.098 86.121 304.094 86.561 304.089 87.002 304.085 87.442 304.081 87.883 304.077 88.323 304.072 88.763 304.068 89.204 304.063 89.644 304.059 90.085 304.054 90.525 304.05 90.966 304.045 91.406 304.041 91.847 304.036 92.287 304.031 92.728 304.026 93.168 304.021 93.609 304.016 94.049 304.011 94.49 304.006 94.93 304.001 95.371 303.996 95.811 303.99 96.252 303.985 96.692 303.98 97.133 303.974 97.573 303.969 98.013 303.963 98.454 303.957 98.894 303.951 99.335 303.946 99.775 303.94 100.216 303.934 100.656 303.928 101.097 303.922 101.537 303.916 101.978 303.91 102.418 303.903 102.859 303.897 103.299 303.891 103.74 303.884 104.18 303.878 104.621 303.872 105.061 303.865 105.502 303.858 105.942 303.852 106.383 303.845 106.823 303.839 107.263 303.832 107.704 303.825 108.144 303.818 108.585 303.812 109.025 303.805 109.466 303.798 109.906 303.791 110.347 303.784 110.787 303.778 111.228 303.771 111.668 303.764 112.109 303.757 112.549 303.75 112.99 303.743 113.43 303.736 113.871 303.729 114.311 303.723 114.752 303.716 115.192 303.709 115.633 303.702 116.073 303.695 116.513 303.688 116.954 303.681 117.394 303.675 117.835 303.668 118.275 303.661 118.716 303.654 119.156 303.648 119.597 303.641 120.037 303.634 120.478 303.628 120.918 303.621 121.359 303.615 121.799 303.608 122.24 303.602 122.68 303.595 123.121 303.589 123.561 303.582 124.002 303.576 124.442 303.569 124.883 303.563 125.323 303.557 125.763 303.551 126.204 303.544 126.644 303.538 127.085 303.532 127.525 303.526 127.966 303.52 128.406 303.514 128.847 303.508 129.287 303.502 129.728 303.496 130.168 303.49 130.609 303.484 131.049 303.478 131.49 303.472 131.93 303.466 132.371 303.46 132.811 303.454 133.252 303.448 133.692 303.443 134.132 303.437 134.573 303.431 135.013 303.425 135.454 303.419 135.894 303.413 136.335 303.408 136.775 303.402 137.216 303.396 137.656 303.39 138.097 303.384 138.537 303.378 138.978 303.372 139.418 303.366 139.859 303.36 140.299 303.354 140.74 303.348 141.18 303.342 141.621 303.336 142.061 303.33 142.502 303.323 142.942 303.317 143.383 303.311 143.823 303.305 144.263 303.298 144.704 303.292 145.144 303.285 145.585 303.278 146.025 303.272 146.466 303.265 146.906 303.258 147.347 303.251 147.787 303.244 148.228 303.237 148.668 303.23 149.109 303.223 149.549 303.216 149.99 303.208 150.43 303.201 150.871 303.193 151.311 303.186 151.752 303.178 152.192 303.17 152.633 303.162 153.073 303.154 153.513 303.146 153.954 303.138 154.394 303.13 154.835 303.122 155.275 303.113 155.716 303.105 156.156 303.096 156.597 303.087 157.037 303.079 157.478 303.07 157.918 303.061 158.359 303.052 158.799 303.043 159.24 303.033 159.68 303.024 160.121 303.015 160.561 303.005 161.002 302.996 161.442 302.986 161.883 302.977 162.323 302.967 162.763 302.957 163.204 302.947 163.644 302.937 164.085 302.927 164.525 302.917 164.966 302.907 165.406 302.897 165.847 302.887 166.287 302.876 166.728 302.866 167.168 302.856 167.609 302.845 168.049 302.835 168.49 302.824 168.93 302.814 169.371 302.803 169.811 302.793 170.252 302.782 170.692 302.771 171.133 302.761 171.573 302.75 172.013 302.739 172.454 302.729 172.894 302.718 173.335 302.707 173.775 302.696 174.216 302.686 174.656 302.675 175.097 302.664 175.537 302.654 175.978 302.643 176.418 302.632 176.859 302.621 177.299 302.611 177.74 302.6 178.18 302.589 178.621 302.579 179.061 302.568 179.502 302.558 179.518 302.557"/><polyline class="cls-10" points="184.956 302.429 185.228 302.422 185.668 302.412 186.109 302.402 186.549 302.392 186.99 302.382 187.43 302.372 187.871 302.362 188.311 302.351 188.752 302.341 189.192 302.331 189.633 302.321 190.073 302.311 190.513 302.301 190.954 302.291"/><polyline class="cls-10" points="190.954 302.291 191.394 302.281 191.835 302.272 192.275 302.262 192.716 302.252 193.156 302.242 193.597 302.232 194.037 302.222 194.478 302.212 194.918 302.202 195.359 302.192 195.799 302.182 196.24 302.172 196.68 302.162 196.952 302.156"/><polyline class="cls-12" points="207.837 301.896 208.133 301.889 208.573 301.877 209.013 301.866 209.454 301.854 209.894 301.843 210.335 301.831 210.775 301.82 211.216 301.808 211.656 301.796 212.097 301.785 212.537 301.773 212.978 301.761 213.418 301.749 213.859 301.737 214.299 301.724 214.74 301.712 215.18 301.7 215.621 301.688 216.061 301.675 216.502 301.663 216.942 301.65 217.383 301.638 217.823 301.625 218.263 301.612 218.704 301.6 219.144 301.587 219.585 301.574 220.025 301.562 220.466 301.549 220.906 301.536 221.347 301.523 221.787 301.51 222.228 301.497 222.668 301.484 223.109 301.471 223.549 301.458 223.99 301.446 224.43 301.433 224.871 301.42 225.311 301.407 225.752 301.394 226.192 301.381 226.633 301.368 227.073 301.355 227.513 301.343 227.954 301.33 228.394 301.317 228.835 301.305 229.275 301.292 229.716 301.279 230.156 301.267 230.597 301.254 231.037 301.242 231.478 301.23 231.918 301.217 232.359 301.205 232.799 301.193 233.24 301.181 233.68 301.169 234.121 301.157 234.561 301.145 235.002 301.134 235.442 301.122 235.883 301.111 236.323 301.099 236.763 301.088 237.204 301.077 237.644 301.065 238.085 301.054 238.525 301.044 238.966 301.033 239.406 301.022 239.847 301.011 240.287 301.001 240.728 300.991 241.168 300.98 241.609 300.97 242.049 300.96 242.49 300.95 242.93 300.94 243.371 300.931 243.811 300.921 244.252 300.911 244.692 300.902 245.133 300.893 245.573 300.883 246.013 300.874 246.454 300.865 246.894 300.856 247.335 300.847 247.775 300.839 248.216 300.83 248.656 300.821 249.097 300.813 249.537 300.805 249.978 300.796 250.418 300.788 250.859 300.78 251.299 300.771 251.74 300.763 252.18 300.755 252.621 300.747 253.061 300.739 253.502 300.731 253.942 300.723 254.383 300.715 254.823 300.707 255.263 300.699 255.704 300.692 256.144 300.684 256.585 300.676 257.025 300.668 257.466 300.66 257.906 300.652 258.347 300.644 258.787 300.636 259.228 300.628 259.668 300.62 260.109 300.612 260.549 300.604 260.99 300.596 261.43 300.587 261.871 300.579 262.311 300.571 262.752 300.562 263.192 300.554 263.633 300.545 264.073 300.536 264.513 300.527 264.954 300.518 265.394 300.509 265.835 300.5 266.275 300.491 266.716 300.481 267.156 300.472 267.597 300.462 268.037 300.452 268.478 300.442 268.918 300.432 269.359 300.422 269.799 300.411 270.24 300.401 270.68 300.39 271.121 300.379 271.561 300.368 272.002 300.357 272.442 300.345 272.883 300.334 273.323 300.322 273.763 300.31 274.204 300.298 274.644 300.286 275.085 300.273 275.525 300.261 275.966 300.248 276.406 300.235 276.847 300.222 277.287 300.208 277.728 300.195 278.168 300.181 278.609 300.167 279.049 300.153 279.49 300.139 279.93 300.125 280.371 300.11 280.811 300.096 281.252 300.081 281.692 300.066 282.133 300.051 282.573 300.035 283.013 300.02 283.454 300.004 283.894 299.988 284.335 299.972 284.775 299.956 285.216 299.94 285.656 299.924 286.097 299.907 286.537 299.891 286.978 299.874 287.418 299.857 287.859 299.84 288.299 299.823 288.74 299.806 289.18 299.789 289.621 299.772 290.061 299.754 290.502 299.737 290.942 299.719 291.383 299.702 291.823 299.684 292.263 299.666 292.704 299.648 293.144 299.63 293.585 299.612 294.025 299.594 294.466 299.576 294.906 299.558 295.347 299.54 295.787 299.522 296.228 299.504 296.668 299.486 297.109 299.468 297.549 299.45 297.99 299.432 298.43 299.413 298.871 299.395 299.311 299.377 299.752 299.359 300.192 299.341 300.633 299.323 301.073 299.305 301.513 299.287 301.954 299.269 302.394 299.251 302.835 299.233 303.275 299.215 303.716 299.197 304.156 299.179 304.597 299.162 305.037 299.144 305.478 299.126 305.918 299.109 306.359 299.091 306.799 299.073 307.24 299.056 307.68 299.039 308.121 299.021 308.561 299.004 309.002 298.987 309.442 298.97 309.883 298.953 310.323 298.935 310.763 298.918 311.204 298.901 311.22 298.901"/><polyline class="cls-10" points="316.66 298.696 316.93 298.686 317.371 298.67 317.811 298.654 318.252 298.638 318.692 298.621 319.133 298.605 319.573 298.589 320.013 298.573 320.454 298.557 320.894 298.541 321.335 298.525 321.775 298.509 322.216 298.493 322.656 298.477"/><polyline class="cls-10" points="322.656 298.477 323.097 298.461 323.537 298.446 323.978 298.43 324.418 298.414 324.859 298.398 325.299 298.382 325.74 298.366 326.18 298.35 326.621 298.334 327.061 298.318 327.502 298.302 327.942 298.286 328.383 298.27 328.652 298.261"/><polyline class="cls-13" points="339.54 297.857 339.835 297.846 340.275 297.829 340.716 297.812 341.156 297.796 341.597 297.779 342.037 297.762 342.478 297.745 342.918 297.728 343.359 297.711 343.799 297.694 344.24 297.677 344.68 297.66 345.121 297.643 345.561 297.625 346.002 297.608 346.442 297.591 346.882 297.574 347.323 297.557 347.763 297.539 348.204 297.522 348.644 297.505 349.085 297.487 349.525 297.47 349.966 297.453 350.406 297.435 350.847 297.418 351.287 297.4 351.728 297.383 352.168 297.365 352.609 297.348 353.049 297.33 353.49 297.313 353.93 297.295 354.371 297.278 354.811 297.26 355.252 297.242 355.692 297.225 356.133 297.207 356.573 297.19 357.013 297.172 357.454 297.154 357.894 297.137 358.335 297.119 358.775 297.101 359.216 297.084 359.656 297.066 360.097 297.048 360.537 297.03 360.978 297.013 361.418 296.995 361.859 296.977 362.299 296.959 362.74 296.942 363.18 296.924 363.621 296.906 364.061 296.888 364.502 296.87 364.942 296.853 365.382 296.835 365.823 296.817 366.263 296.799 366.704 296.781 367.144 296.763 367.585 296.746 368.025 296.728 368.466 296.71 368.906 296.692 369.347 296.674 369.787 296.656 370.228 296.638 370.668 296.62 371.109 296.603 371.549 296.585 371.99 296.567 372.43 296.549 372.871 296.531 373.311 296.513 373.752 296.496 374.192 296.478 374.632 296.46 375.073 296.442 375.513 296.424 375.954 296.407 376.394 296.389 376.835 296.371 377.275 296.354 377.716 296.336 378.156 296.318 378.597 296.301 379.037 296.283 379.478 296.266 379.918 296.248 380.359 296.231 380.799 296.213 381.24 296.196 381.68 296.179 382.121 296.162 382.561 296.144 383.002 296.127 383.442 296.11 383.883 296.093 384.323 296.076 384.763 296.06 385.204 296.043 385.644 296.026 386.085 296.009 386.525 295.993 386.966 295.976 387.406 295.96 387.847 295.944 388.287 295.927 388.728 295.911 389.168 295.895 389.609 295.879 390.049 295.863 390.49 295.847 390.93 295.832 391.371 295.816 391.811 295.8 392.252 295.785 392.692 295.77 393.133 295.754 393.573 295.739 394.013 295.724 394.454 295.709 394.894 295.694 395.335 295.679 395.775 295.665 396.216 295.65 396.656 295.635 397.097 295.621 397.537 295.606 397.978 295.592 398.418 295.578 398.859 295.563 399.299 295.549 399.74 295.535 400.18 295.521 400.621 295.507 401.061 295.493 401.502 295.479 401.942 295.465 402.383 295.451 402.823 295.437 403.263 295.423 403.704 295.409 404.144 295.395 404.585 295.381 405.025 295.367 405.466 295.353 405.906 295.339 406.347 295.325 406.787 295.311 407.228 295.297 407.668 295.283 408.109 295.268 408.549 295.254 408.99 295.239 409.43 295.225 409.871 295.21 410.311 295.195 410.752 295.18 411.192 295.165 411.633 295.15 412.073 295.134 412.513 295.118 412.954 295.102 413.394 295.086 413.835 295.07 414.275 295.054 414.716 295.037 415.156 295.02 415.597 295.003 416.037 294.985 416.478 294.968 416.918 294.95 417.359 294.931 417.799 294.913 418.24 294.894 418.68 294.875 419.121 294.856 419.561 294.836 420.002 294.816 420.442 294.795 420.883 294.775 421.323 294.754 421.763 294.732 422.204 294.711 422.644 294.688 423.085 294.666 423.525 294.643 423.966 294.62 424.406 294.597 424.847 294.573 425.287 294.549 425.728 294.524 426.168 294.499 426.609 294.474 427.049 294.448 427.49 294.422 427.93 294.396 428.371 294.369 428.811 294.342 429.252 294.315 429.692 294.287 430.132 294.259 430.573 294.231 431.013 294.202 431.454 294.173 431.894 294.144 432.335 294.114 432.775 294.084 433.216 294.054 433.656 294.023 434.097 293.993 434.537 293.962 434.978 293.93 435.418 293.899 435.859 293.867 436.299 293.835 436.74 293.803 437.18 293.771 437.621 293.738 438.061 293.706 438.502 293.673 438.942 293.64 439.382 293.607 439.823 293.574 440.263 293.541 440.704 293.507 441.144 293.474 441.585 293.44 442.025 293.407 442.466 293.373 442.906 293.34 442.941 293.337"/><polyline class="cls-10" points="448.373 292.928 448.632 292.909 449.073 292.877 449.513 292.845 449.954 292.813 450.394 292.781 450.835 292.75 451.275 292.719 451.716 292.688 452.156 292.657 452.597 292.626 453.037 292.596 453.478 292.566 453.918 292.536 454.359 292.507"/><polyline class="cls-10" points="454.359 292.507 454.799 292.478 455.24 292.449 455.68 292.42 456.121 292.392 456.561 292.364 457.002 292.337 457.442 292.309 457.883 292.282 458.323 292.255 458.763 292.229 459.204 292.203 459.644 292.177 460.085 292.151 460.347 292.136"/><polyline class="cls-14" points="469.86 291.652 470.216 291.636 470.656 291.616 471.097 291.596 471.537 291.576 471.978 291.557 472.418 291.537 472.859 291.518 473.299 291.498 473.74 291.479 474.18 291.459 474.621 291.44 475.061 291.42 475.502 291.401 475.942 291.382 476.382 291.362 476.823 291.343 477.263 291.324 477.704 291.304 478.144 291.285 478.585 291.265 479.025 291.245 479.466 291.226 479.906 291.206 480.347 291.186 480.787 291.166 481.228 291.146 481.668 291.126 482.109 291.106 482.549 291.085 482.99 291.065 483.43 291.044 483.871 291.023 484.134 291.011"/><polyline class="cls-10" points="488.891 290.777 489.156 290.763 489.597 290.741 490.037 290.718 490.478 290.695 490.918 290.672 491.359 290.649 491.799 290.626 492.24 290.603 492.68 290.579 493.121 290.556 493.561 290.532 494.002 290.509 494.442 290.485 494.883 290.461"/><line class="cls-15" x1="54.4063" y1="304.40954" x2="494.88249" y2="304.40954"/><line class="cls-15" x1="54.4063" y1="304.40954" x2="54.4063" y2="6.39368"/><line class="cls-15" x1="54.4063" y1="300.40955" x2="54.4063" y2="308.40955"/><path class="cls-15" d="M99.99785,305.556v4m44.04763-6v8" transform="translate(-1.54395 -3.14648)"/><path class="cls-15" d="M188.0931,305.556v4m44.04762-6v8" transform="translate(-1.54395 -3.14648)"/><path class="cls-15" d="M276.18834,305.556v4m44.04762-6v8" transform="translate(-1.54395 -3.14648)"/><path class="cls-15" d="M364.28358,305.556v4m44.04761-6v8" transform="translate(-1.54395 -3.14648)"/><path class="cls-15" d="M452.37881,305.556v4m44.04762-6v8" transform="translate(-1.54395 -3.14648)"/><line class="cls-15" x1="50.4063" y1="304.40954" x2="58.4063" y2="304.40954"/><path class="cls-15" d="M57.95024,297.62216h-4m4-9.93386h-4m4-9.93386h-4m4-9.93385h-4m-2-9.93387h8" transform="translate(-1.54395 -3.14648)"/><path class="cls-15" d="M57.95024,247.95286h-4m4-9.93387h-4m4-9.93385h-4m4-9.93386h-4m-2-9.93389h8" transform="translate(-1.54395 -3.14648)"/><path class="cls-15" d="M57.95024,198.28353h-4m4-9.93384h-4m4-9.93386h-4m4-9.93387h-4m-2-9.93386h8" transform="translate(-1.54395 -3.14648)"/><path class="cls-15" d="M57.95024,148.61423h-4m4-9.93386h-4m4-9.93386h-4m4-9.93387h-4m-2-9.93386h8" transform="translate(-1.54395 -3.14648)"/><path class="cls-15" d="M57.95024,98.94492h-4m4-9.93386h-4m4-9.93388h-4m4-9.93384h-4m-2-9.93383h8" transform="translate(-1.54395 -3.14648)"/><path class="cls-15" d="M57.95024,49.27558h-4m4-9.93385h-4m4-9.93385h-4m4-9.93385h-4m-2-9.93385h8" transform="translate(-1.54395 -3.14648)"/><path d="M50.29883,322.71729c0,4.46582-1.85449,6.03222-3.72705,6.03222-1.90869,0-3.76319-1.5664-3.76319-6.03222,0-4.4834,1.8545-6.08594,3.76319-6.08594C48.44434,316.63135,50.29883,318.23389,50.29883,322.71729ZM46.57178,327.939c1.09814,0,2.12451-1.0625,2.12451-5.22167,0-4.2129-1.02637-5.2754-2.12451-5.2754-1.13428,0-2.16065,1.04395-2.16065,5.2754C44.41113,326.895,45.4375,327.939,46.57178,327.939Z" transform="translate(-1.54395 -3.14648)"/><path d="M127.25293,327.12939c.9541-.93652,1.89062-1.9082,2.66455-2.71875,1.80078-1.89062,2.61084-3.38476,2.61084-4.78906a2.15843,2.15843,0,0,0-2.17871-2.41308,4.683,4.683,0,0,0-1.83643.39648l1.0083-.64844-.43212,1.584c-.23389.86426-.522,1.207-1.02637,1.207a1.00707,1.00707,0,0,1-.90039-.57617c.19824-1.89063,1.80078-2.77344,3.60156-2.77344,2.30469,0,3.3125,1.26074,3.3125,3.06152,0,1.56641-.77393,2.79-3.52881,5.49121-.57617.57618-1.44043,1.4043-2.34082,2.251l-.21582-.36035h6.60791v1.44043h-7.34619Z" transform="translate(-1.54395 -3.14648)"/><path d="M143.54492,322.48389c0,4.46582-1.85449,6.03222-3.727,6.03222-1.90869,0-3.76318-1.5664-3.76318-6.03222,0-4.4834,1.85449-6.08594,3.76318-6.08594C141.69043,316.398,143.54492,318.00049,143.54492,322.48389Zm-3.727,5.22168c1.09815,0,2.12451-1.0625,2.12451-5.22168,0-4.21289-1.02636-5.27539-2.12451-5.27539-1.13428,0-2.16064,1.04394-2.16064,5.27539C137.65723,326.66162,138.68359,327.70557,139.81787,327.70557Z" transform="translate(-1.54395 -3.14648)"/><path d="M152.49072,322.48389c0,4.46582-1.85449,6.03222-3.72705,6.03222-1.90869,0-3.76318-1.5664-3.76318-6.03222,0-4.4834,1.85449-6.08594,3.76318-6.08594C150.63623,316.398,152.49072,318.00049,152.49072,322.48389Zm-3.72705,5.22168c1.09815,0,2.12451-1.0625,2.12451-5.22168,0-4.21289-1.02636-5.27539-2.12451-5.27539-1.13428,0-2.16064,1.04394-2.16064,5.27539C146.603,326.66162,147.62939,327.70557,148.76367,327.70557Z" transform="translate(-1.54395 -3.14648)"/><path d="M161.437,322.48389c0,4.46582-1.85449,6.03222-3.727,6.03222-1.90869,0-3.76318-1.5664-3.76318-6.03222,0-4.4834,1.85449-6.08594,3.76318-6.08594C159.58252,316.398,161.437,318.00049,161.437,322.48389Zm-3.727,5.22168c1.09815,0,2.12451-1.0625,2.12451-5.22168,0-4.21289-1.02636-5.27539-2.12451-5.27539-1.13428,0-2.16064,1.04394-2.16064,5.27539C155.54932,326.66162,156.57568,327.70557,157.71,327.70557Z" transform="translate(-1.54395 -3.14648)"/><path d="M215.09375,324.96826v-.90039l5.36572-7.34668h.99024v11.79395h-1.44043v-10.6416h.5039l-4.53711,6.28417-.01806-.26953h7.38232v1.08008Z" transform="translate(-1.54395 -3.14648)"/><path d="M231.83594,322.71729c0,4.46582-1.85449,6.03222-3.727,6.03222-1.90869,0-3.76319-1.5664-3.76319-6.03222,0-4.4834,1.8545-6.08594,3.76319-6.08594C229.98145,316.63135,231.83594,318.23389,231.83594,322.71729Zm-3.727,5.22167c1.09814,0,2.12451-1.0625,2.12451-5.22167,0-4.2129-1.02637-5.2754-2.12451-5.2754-1.13428,0-2.16065,1.04395-2.16065,5.2754C225.94824,326.895,226.97461,327.939,228.10889,327.939Z" transform="translate(-1.54395 -3.14648)"/><path d="M240.78174,322.71729c0,4.46582-1.85449,6.03222-3.72705,6.03222-1.90869,0-3.76319-1.5664-3.76319-6.03222,0-4.4834,1.8545-6.08594,3.76319-6.08594C238.92725,316.63135,240.78174,318.23389,240.78174,322.71729Zm-3.72705,5.22167c1.09814,0,2.12451-1.0625,2.12451-5.22167,0-4.2129-1.02637-5.2754-2.12451-5.2754-1.13428,0-2.16065,1.04395-2.16065,5.2754C234.894,326.895,235.92041,327.939,237.05469,327.939Z" transform="translate(-1.54395 -3.14648)"/><path d="M249.728,322.71729c0,4.46582-1.85449,6.03222-3.727,6.03222-1.90869,0-3.76319-1.5664-3.76319-6.03222,0-4.4834,1.8545-6.08594,3.76319-6.08594C247.87354,316.63135,249.728,318.23389,249.728,322.71729Zm-3.727,5.22167c1.09814,0,2.12451-1.0625,2.12451-5.22167,0-4.2129-1.02637-5.2754-2.12451-5.2754-1.13428,0-2.16065,1.04395-2.16065,5.2754C243.84033,326.895,244.8667,327.939,246.001,327.939Z" transform="translate(-1.54395 -3.14648)"/><path d="M309.4043,325.148c0-1.9082-.86426-2.7002-2.124-2.7002a3.37779,3.37779,0,0,0-2.53906,1.06153l-.30566-.252a3.89815,3.89815,0,0,1,3.20507-1.89062,3.209,3.209,0,0,1,3.29493,3.51172c0,2.57422-1.56641,3.87109-3.65528,3.87109-2.39453,0-3.87109-1.873-3.87109-5.13183,0-3.51075,2.376-6.46387,6.8418-6.98633l.1084.55859c-3.83594.93652-5.40235,2.88086-5.40235,6.19336,0,3.09766.90039,4.55566,2.35938,4.55566C308.59473,327.939,309.4043,327.021,309.4043,325.148Z" transform="translate(-1.54395 -3.14648)"/><path d="M319.86328,322.71729c0,4.46582-1.85449,6.03222-3.72754,6.03222-1.9082,0-3.76269-1.5664-3.76269-6.03222,0-4.4834,1.85449-6.08594,3.76269-6.08594C318.00879,316.63135,319.86328,318.23389,319.86328,322.71729Zm-3.72754,5.22167c1.09864,0,2.125-1.0625,2.125-5.22167,0-4.2129-1.02636-5.2754-2.125-5.2754-1.13379,0-2.16015,1.04395-2.16015,5.2754C313.97559,326.895,315.002,327.939,316.13574,327.939Z" transform="translate(-1.54395 -3.14648)"/><path d="M328.80859,322.71729c0,4.46582-1.85449,6.03222-3.72656,6.03222-1.90918,0-3.76367-1.5664-3.76367-6.03222,0-4.4834,1.85449-6.08594,3.76367-6.08594C326.9541,316.63135,328.80859,318.23389,328.80859,322.71729ZM325.082,327.939c1.09766,0,2.124-1.0625,2.124-5.22167,0-4.2129-1.02636-5.2754-2.124-5.2754-1.13476,0-2.16113,1.04395-2.16113,5.2754C322.9209,326.895,323.94727,327.939,325.082,327.939Z" transform="translate(-1.54395 -3.14648)"/><path d="M337.75488,322.71729c0,4.46582-1.85449,6.03222-3.72656,6.03222-1.90918,0-3.76367-1.5664-3.76367-6.03222,0-4.4834,1.85449-6.08594,3.76367-6.08594C335.90039,316.63135,337.75488,318.23389,337.75488,322.71729Zm-3.72656,5.22167c1.09766,0,2.124-1.0625,2.124-5.22167,0-4.2129-1.02636-5.2754-2.124-5.2754-1.13477,0-2.16113,1.04395-2.16113,5.2754C331.86719,326.895,332.89355,327.939,334.02832,327.939Z" transform="translate(-1.54395 -3.14648)"/><path d="M394.68945,322.394l.77344.252c-1.44043.81054-2.17871,1.47656-2.17871,2.82714a2.19954,2.19954,0,0,0,2.30469,2.25,2.0902,2.0902,0,0,0,2.14355-2.17773c0-1.0625-.667-1.71094-2.791-2.71973-1.90918-.89941-2.70118-2.05175-2.70118-3.43847a3.03845,3.03845,0,0,1,3.33106-2.98926,2.7821,2.7821,0,0,1,3.06055,2.791c0,.9004-.55762,2.08887-2.57422,3.13282l-.68457-.252c1.47656-.99023,1.96289-1.71,1.96289-2.84472a1.86711,1.86711,0,1,0-3.72754-.19824c0,.99023.50488,1.90918,2.57519,2.86328,2.01661.93554,3.00684,1.85449,3.00684,3.56445,0,1.80078-1.60254,3.06152-3.63672,3.06152-2.14258,0-3.71-.99023-3.71-2.93554C391.84375,324.19482,392.835,323.27588,394.68945,322.394Z" transform="translate(-1.54395 -3.14648)"/><path d="M408.22656,322.48389c0,4.46582-1.85449,6.03222-3.72754,6.03222-1.9082,0-3.76269-1.5664-3.76269-6.03222,0-4.4834,1.85449-6.08594,3.76269-6.08594C406.37207,316.398,408.22656,318.00049,408.22656,322.48389Zm-3.72754,5.22168c1.09864,0,2.125-1.0625,2.125-5.22168,0-4.21289-1.02636-5.27539-2.125-5.27539-1.13379,0-2.16015,1.04394-2.16015,5.27539C402.33887,326.66162,403.36523,327.70557,404.499,327.70557Z" transform="translate(-1.54395 -3.14648)"/><path d="M417.17188,322.48389c0,4.46582-1.8545,6.03222-3.72657,6.03222-1.90918,0-3.76367-1.5664-3.76367-6.03222,0-4.4834,1.85449-6.08594,3.76367-6.08594C415.31738,316.398,417.17188,318.00049,417.17188,322.48389Zm-3.72657,5.22168c1.09766,0,2.124-1.0625,2.124-5.22168,0-4.21289-1.02637-5.27539-2.124-5.27539-1.13476,0-2.16113,1.04394-2.16113,5.27539C411.28418,326.66162,412.31055,327.70557,413.44531,327.70557Z" transform="translate(-1.54395 -3.14648)"/><path d="M426.11816,322.48389c0,4.46582-1.85449,6.03222-3.72656,6.03222-1.90918,0-3.76367-1.5664-3.76367-6.03222,0-4.4834,1.85449-6.08594,3.76367-6.08594C424.26367,316.398,426.11816,318.00049,426.11816,322.48389Zm-3.72656,5.22168c1.09766,0,2.124-1.0625,2.124-5.22168,0-4.21289-1.02636-5.27539-2.124-5.27539-1.13476,0-2.16113,1.04394-2.16113,5.27539C420.23047,326.66162,421.25684,327.70557,422.3916,327.70557Z" transform="translate(-1.54395 -3.14648)"/><path d="M481.9209,327.65186v.62988h-6.64356v-.62988l2.59278-.43262h1.44043Zm-2.791-11.16407.252.18067-.07129,2.57422v5.24023c0,1.25977.01757,2.53809.05371,3.79883h-1.54883c.03613-1.26074.05469-2.53906.05469-3.79883v-6.51855l-2.41309.19824v-.71973Z" transform="translate(-1.54395 -3.14648)"/><path d="M491.11914,322.48389c0,4.46582-1.85449,6.03222-3.72754,6.03222-1.9082,0-3.76269-1.5664-3.76269-6.03222,0-4.4834,1.85449-6.08594,3.76269-6.08594C489.26465,316.398,491.11914,318.00049,491.11914,322.48389Zm-3.72754,5.22168c1.09863,0,2.125-1.0625,2.125-5.22168,0-4.21289-1.02637-5.27539-2.125-5.27539-1.13379,0-2.16015,1.04394-2.16015,5.27539C485.23145,326.66162,486.25781,327.70557,487.3916,327.70557Z" transform="translate(-1.54395 -3.14648)"/><path d="M500.06445,322.48389c0,4.46582-1.85449,6.03222-3.72656,6.03222-1.90918,0-3.76367-1.5664-3.76367-6.03222,0-4.4834,1.85449-6.08594,3.76367-6.08594C498.21,316.398,500.06445,318.00049,500.06445,322.48389Zm-3.72656,5.22168c1.09766,0,2.124-1.0625,2.124-5.22168,0-4.21289-1.02636-5.27539-2.124-5.27539-1.13477,0-2.16113,1.04394-2.16113,5.27539C494.17676,326.66162,495.20312,327.70557,496.33789,327.70557Z" transform="translate(-1.54395 -3.14648)"/><path d="M509.01074,322.48389c0,4.46582-1.85449,6.03222-3.72656,6.03222-1.90918,0-3.76367-1.5664-3.76367-6.03222,0-4.4834,1.85449-6.08594,3.76367-6.08594C507.15625,316.398,509.01074,318.00049,509.01074,322.48389Zm-3.72656,5.22168c1.09766,0,2.124-1.0625,2.124-5.22168,0-4.21289-1.02636-5.27539-2.124-5.27539-1.13477,0-2.16113,1.04394-2.16113,5.27539C503.12305,326.66162,504.14941,327.70557,505.28418,327.70557Z" transform="translate(-1.54395 -3.14648)"/><path d="M517.957,322.48389c0,4.46582-1.85449,6.03222-3.72754,6.03222-1.9082,0-3.76269-1.5664-3.76269-6.03222,0-4.4834,1.85449-6.08594,3.76269-6.08594C516.10254,316.398,517.957,318.00049,517.957,322.48389Zm-3.72754,5.22168c1.09863,0,2.125-1.0625,2.125-5.22168,0-4.21289-1.02637-5.27539-2.125-5.27539-1.13379,0-2.16015,1.04394-2.16015,5.27539C512.06934,326.66162,513.0957,327.70557,514.22949,327.70557Z" transform="translate(-1.54395 -3.14648)"/><path d="M32.52393,257.28076c0,4.46582-1.8545,6.03223-3.727,6.03223-1.9087,0-3.76319-1.56641-3.76319-6.03223,0-4.4834,1.85449-6.08594,3.76319-6.08594C30.66943,251.19482,32.52393,252.79736,32.52393,257.28076Zm-3.727,5.22168c1.09814,0,2.12451-1.0625,2.12451-5.22168,0-4.21289-1.02637-5.27539-2.12451-5.27539-1.13428,0-2.16065,1.04395-2.16065,5.27539C26.63623,261.4585,27.6626,262.50244,28.79688,262.50244Z" transform="translate(-1.54395 -3.14648)"/><path d="M34.68164,262.05225a1.2605,1.2605,0,1,1,1.26025,1.26074A1.2679,1.2679,0,0,1,34.68164,262.05225Z" transform="translate(-1.54395 -3.14648)"/><path d="M40.42383,256.23682a6.631,6.631,0,0,1,2.48437-.48633c2.32276,0,3.9253,1.2959,3.9253,3.6914,0,2.30469-1.65625,3.8711-4.15918,3.8711a3.066,3.066,0,0,1-3.34912-2.52149.91485.91485,0,0,1,.90039-.59375c.54,0,.77441.27051,1.02636,1.20606l.35987,1.29687-.72022-.55859a4.13072,4.13072,0,0,0,1.67481.36035,2.83687,2.83687,0,0,0-.126-5.67187,7.83285,7.83285,0,0,0-1.65674.19824l-.5039-.126.37792-5.47363h5.85157v1.44043H41.01807l.48584-.81055-.30616,4.44727h-.77392Z" transform="translate(-1.54395 -3.14648)"/><path d="M32.00977,213.3501V213.98H25.36572v-.62988l2.59278-.43262h1.44043Zm-2.791-11.16406.252.18066-.07177,2.57422v5.24023c0,1.25977.01806,2.53809.05371,3.79883H27.9043c.03613-1.26074.0542-2.53906.0542-3.79883V203.6626l-2.4126.19824v-.71973Z" transform="translate(-1.54395 -3.14648)"/><path d="M34.41943,212.95361a1.2605,1.2605,0,1,1,1.26026,1.26075A1.2679,1.2679,0,0,1,34.41943,212.95361Z" transform="translate(-1.54395 -3.14648)"/><path d="M46.60742,208.18213c0,4.46582-1.85449,6.03223-3.727,6.03223-1.90869,0-3.76318-1.56641-3.76318-6.03223,0-4.4834,1.85449-6.08594,3.76318-6.08594C44.75293,202.09619,46.60742,203.69873,46.60742,208.18213Zm-3.727,5.22168c1.09815,0,2.12451-1.0625,2.12451-5.22168,0-4.21289-1.02636-5.27539-2.12451-5.27539-1.13428,0-2.16064,1.04394-2.16064,5.27539C40.71973,212.35986,41.74609,213.40381,42.88037,213.40381Z" transform="translate(-1.54395 -3.14648)"/><path d="M32.01025,163.874v.62989h-6.644V163.874l2.59277-.43261h1.44043ZM29.21924,152.71l.252.18066-.07178,2.57422v5.24024c0,1.25976.01807,2.53808.05371,3.79883H27.90479c.03613-1.26075.05419-2.53907.05419-3.79883v-6.51856l-2.41259.19825V153.665Z" transform="translate(-1.54395 -3.14648)"/><path d="M34.41992,163.47754a1.2605,1.2605,0,1,1,1.26026,1.26074A1.2679,1.2679,0,0,1,34.41992,163.47754Z" transform="translate(-1.54395 -3.14648)"/><path d="M40.16211,157.66211a6.631,6.631,0,0,1,2.48437-.48633c2.32276,0,3.9253,1.2959,3.9253,3.69141,0,2.30469-1.65625,3.87109-4.15918,3.87109a3.066,3.066,0,0,1-3.34912-2.52148.91485.91485,0,0,1,.90039-.59375c.54,0,.77441.2705,1.02636,1.20605l.35987,1.29688-.72022-.5586a4.13072,4.13072,0,0,0,1.67481.36035,2.83687,2.83687,0,0,0-.126-5.67187,7.83285,7.83285,0,0,0-1.65674.19824l-.5039-.126.37793-5.47363h5.85156v1.44043H40.75635l.48584-.81054-.30615,4.44726h-.77393Z" transform="translate(-1.54395 -3.14648)"/><path d="M26.24854,114.24561c.9541-.93653,1.89062-1.90821,2.66455-2.71875,1.80078-1.89063,2.61084-3.38477,2.61084-4.78907a2.15844,2.15844,0,0,0-2.17872-2.41308,4.68294,4.68294,0,0,0-1.83642.39648l1.0083-.64844-.43213,1.584c-.23389.86426-.522,1.207-1.02637,1.207a1.00709,1.00709,0,0,1-.90039-.57617c.19825-1.89063,1.80078-2.77344,3.60157-2.77344,2.30468,0,3.3125,1.26074,3.3125,3.06152,0,1.56641-.77393,2.79-3.52881,5.49121-.57617.57618-1.44043,1.4043-2.34082,2.251l-.21582-.36035h6.60791V115.398H26.24854Z" transform="translate(-1.54395 -3.14648)"/><path d="M35.75244,114.37158a1.2605,1.2605,0,1,1,1.26026,1.26074A1.2679,1.2679,0,0,1,35.75244,114.37158Z" transform="translate(-1.54395 -3.14648)"/><path d="M47.94043,109.6001c0,4.46582-1.85449,6.03222-3.727,6.03222-1.90869,0-3.76318-1.5664-3.76318-6.03222,0-4.4834,1.85449-6.08594,3.76318-6.08594C46.08594,103.51416,47.94043,105.1167,47.94043,109.6001Zm-3.727,5.22168c1.09814,0,2.12451-1.0625,2.12451-5.22168,0-4.21289-1.02637-5.27539-2.12451-5.27539-1.13428,0-2.16065,1.04394-2.16065,5.27539C42.05273,113.77783,43.0791,114.82178,44.21338,114.82178Z" transform="translate(-1.54395 -3.14648)"/><path d="M27.041,63.67285c.9541-.93652,1.89062-1.9082,2.66455-2.71875,1.80078-1.89062,2.61084-3.38476,2.61084-4.78906A2.15844,2.15844,0,0,0,30.1377,53.752a4.683,4.683,0,0,0-1.83643.39649L29.30957,53.5l-.43213,1.584c-.23389.86426-.522,1.207-1.02637,1.207a1.00708,1.00708,0,0,1-.90039-.57618c.19825-1.89062,1.80078-2.77343,3.60157-2.77343,2.30468,0,3.3125,1.26074,3.3125,3.06152,0,1.56641-.77393,2.79-3.52881,5.49121-.57617.57617-1.44043,1.4043-2.34082,2.251l-.21582-.36035h6.60791V64.8252H27.041Z" transform="translate(-1.54395 -3.14648)"/><path d="M36.54492,63.79883a1.2605,1.2605,0,1,1,1.26026,1.26074A1.2679,1.2679,0,0,1,36.54492,63.79883Z" transform="translate(-1.54395 -3.14648)"/><path d="M42.28711,57.9834a6.631,6.631,0,0,1,2.48437-.48633c2.32276,0,3.9253,1.2959,3.9253,3.69141,0,2.30468-1.65625,3.87109-4.15918,3.87109a3.066,3.066,0,0,1-3.34912-2.52148.91485.91485,0,0,1,.90039-.59375c.54,0,.77441.2705,1.02636,1.20605l.35987,1.29688-.72022-.5586a4.13072,4.13072,0,0,0,1.67481.36035,2.83687,2.83687,0,0,0-.126-5.67187,7.83285,7.83285,0,0,0-1.65674.19824l-.5039-.126.37793-5.47363h5.85156v1.44043H42.88135l.48584-.81055L43.061,58.25293h-.77393Z" transform="translate(-1.54395 -3.14648)"/><path d="M29.92188,8.44043a2.30224,2.30224,0,0,0,2.61083-2.41309A1.96129,1.96129,0,0,0,30.2998,3.957a5.12016,5.12016,0,0,0-1.53027.252l.77393-.5039-.3418,1.24219c-.21631.77441-.41406,1.15234-1.04443,1.15234a.867.867,0,0,1-.90039-.666,3.099,3.099,0,0,1,3.33105-2.28711c2.0708,0,3.42139,1.15235,3.42139,2.82715,0,1.5127-1.15235,2.70117-3.043,3.11524V8.78223c2.30469.19824,3.4209,1.36816,3.4209,3.02539,0,1.96191-1.60254,3.457-4.01514,3.457-1.72852,0-3.09717-.73828-3.42139-2.53906a.9635.9635,0,0,1,.90039-.57618c.59424,0,.79248.39649,1.04444,1.27832l.37793,1.36817-.72022-.64746a4.34855,4.34855,0,0,0,1.62061.30566,2.38,2.38,0,0,0,2.6831-2.59277c0-1.56641-.91845-2.52051-2.77295-2.52051h-.88232V8.44043Z" transform="translate(-1.54395 -3.14648)"/><path d="M36.54492,14.00391a1.2605,1.2605,0,1,1,1.26026,1.26074A1.2679,1.2679,0,0,1,36.54492,14.00391Z" transform="translate(-1.54395 -3.14648)"/><path d="M48.73291,9.23242c0,4.46582-1.85449,6.03223-3.727,6.03223-1.90869,0-3.76318-1.56641-3.76318-6.03223,0-4.4834,1.85449-6.08594,3.76318-6.08594C46.87842,3.14648,48.73291,4.749,48.73291,9.23242Zm-3.727,5.22168c1.09814,0,2.12451-1.0625,2.12451-5.22168,0-4.21289-1.02637-5.27539-2.12451-5.27539-1.13428,0-2.16065,1.044-2.16065,5.27539C42.84521,13.41016,43.87158,14.4541,45.00586,14.4541Z" transform="translate(-1.54395 -3.14648)"/><path d="M171.16748,350.70752l1.89063-.26953h.35986l2.0708.26953v.7207h-4.32129Zm1.13428-10.78516,1.11621.43262-2.16065-.27051v-.71972h2.70118l7.47216,10.28125v1.9082h-.57617Zm.396-.55761.90039.71972v11.34375h-.90039Zm5.9419,0h4.32129v.71972l-1.8003.27051h-.36035l-2.16064-.27051Zm1.89062,0h.90039V351.5542l-.90039-.90039Z" transform="translate(-1.54395 -3.14648)"/><path d="M186.4502,348.2417c0,1.60254.46826,2.16016,1.45849,2.16016a3.96587,3.96587,0,0,0,2.75488-1.35059h.37793v.91894h-.918l.62988-.2705a4.26506,4.26506,0,0,1-3.4209,1.96289c-1.44043,0-2.34082-.86426-2.32275-3.24121l.05419-4.75391.37793.34277-1.67431-.36035V343.02l2.59277-.23438.18018.17969-.09033,2.52149Zm4.28515,3.33105-.252-2.10742.0542-5.79785.37793.34277-1.67432-.36035V343.02l2.55664-.23438.18018.17969-.0542,2.52149v5.38281l-.43213-.43164,1.6748.36035v.62988Z" transform="translate(-1.54395 -3.14648)"/><path d="M195.86377,351.42822c.03564-.81054.05371-2.665.05371-3.78125v-.8457c0-.99023-.01807-1.54883-.05371-2.26953l-1.44043-.16211v-.62988l2.44873-1.08008.27.17969.21582,2.08886V347.647c0,1.11621.01807,2.97071.0542,3.78125Zm2.80859-.62988v.62988h-4.14111v-.62988l1.98047-.36035h.36035Zm4.08741-4.80762V347.647c0,1.15235.01806,2.97071.05371,3.78125h-1.54834c.03613-.81054.0542-2.6289.0542-3.78125v-1.51269c0-1.67383-.43213-2.21387-1.5127-2.21387a3.79622,3.79622,0,0,0-2.59277,1.24219h-.37793v-.81055h.918l-.77393.32422a4.77394,4.77394,0,0,1,3.49316-2.0166C202.02148,342.65967,202.75977,343.61377,202.75977,345.99072Zm-.48633,4.44727,1.80078.36035v.62988h-4.1416v-.62988l1.981-.36035Zm5.88769-4.64551V347.647c0,1.15235.01807,2.97071.0542,3.78125H206.667c.03565-.81054.05371-2.6289.05371-3.78125v-1.54883c0-1.69238-.46777-2.17773-1.53027-2.17773a3.73364,3.73364,0,0,0-2.57471,1.24219h-.43213v-.63086h.97217l-.82812.14453a4.4137,4.4137,0,0,1,3.54687-2.0166C207.31494,342.65967,208.16113,343.56006,208.16113,345.79248Zm-.48584,4.64551,1.8003.36035v.62988h-4.14112v-.62988l1.98047-.36035Z" transform="translate(-1.54395 -3.14648)"/><path d="M210.55078,350.79834l1.94483-.36035-.59424.99023c.03613-.81054.05371-2.665.05371-3.78125V339.7251l-1.49414-.18067v-.62988l2.70068-.81055.25195.14454-.07177,2.55664v3.457l.05371.23437v5.50879l-.17969,1.60254-2.665-.17969Zm7.4541-3.56543c0-2.32227-.9541-3.583-2.32226-3.583-.64844,0-1.53076.28809-2.84522,1.60254l-.16162-.32422c1.04395-1.584,2.21436-2.26855,3.439-2.26855,1.9082,0,3.42089,1.63867,3.42089,4.41113,0,2.77344-1.58447,4.5918-3.69091,4.5918-1.09864,0-2.21485-.48633-3.16895-2.35938l.16162-.28808a3.64464,3.64464,0,0,0,2.75489,1.65722C216.88867,350.67236,218.00488,349.55518,218.00488,347.23291Z" transform="translate(-1.54395 -3.14648)"/><path d="M228.62549,346.09814a3.61881,3.61881,0,0,1-.12647,1.00879h-6.64355v-.75586h4.28515c.86426,0,1.0625-.41406,1.0625-.91894a1.9978,1.9978,0,0,0-1.999-1.96192c-1.15234,0-2.48437.97168-2.48437,3.54688,0,2.28613,1.15234,3.51074,2.95263,3.51074a3.11939,3.11939,0,0,0,2.521-1.27832l.41406.32422a3.65744,3.65744,0,0,1-3.439,2.08887c-2.41309,0-3.9795-1.67481-3.9795-4.41211,0-2.75391,1.87256-4.59082,4.10547-4.59082A3.21376,3.21376,0,0,1,228.62549,346.09814Z" transform="translate(-1.54395 -3.14648)"/><path d="M231.647,347.647v-.8457c0-.99023-.01806-1.54883-.05371-2.26953l-1.44043-.16211v-.62988l2.44873-1.08008.27.17969.21582,2.251V347.647c0,1.11621.01807,2.97071.0542,3.78125h-1.54834C231.62891,350.61768,231.647,348.76318,231.647,347.647Zm-1.35009,3.15137,1.98046-.36035h.35987l1.98095.36035v.62988h-4.32128Zm2.07031-5.582h1.02636l-.45019.126c.57617-1.67481,1.6748-2.68262,2.73682-2.68262a1.54435,1.54435,0,0,1,1.27832.6123c0,.84571-.32373,1.31446-1.04395,1.31446a1.63941,1.63941,0,0,1-1.08057-.43262l-.48632-.41406.88232-.17969a4.29984,4.29984,0,0,0-2.17822,2.8623h-.68457Z" transform="translate(-1.54395 -3.14648)"/><path d="M242.12256,347.19678c0-2.98828,2.03467-4.53711,4.10547-4.53711a4.18386,4.18386,0,0,1,4.105,4.53711,4.11978,4.11978,0,1,1-8.21045,0Zm6.59033,0c0-2.41211-.91846-3.72657-2.48486-3.72657-1.60254,0-2.48487,1.31446-2.48487,3.72657,0,2.41308.88233,3.65527,2.48487,3.65527C247.79443,350.85205,248.71289,349.60986,248.71289,347.19678Z" transform="translate(-1.54395 -3.14648)"/><path d="M253.30078,343.82959h-1.51221v-.77344l2.03467-.27051-.52246.27051c.18018-2.07129.46826-3.16894,1.27832-4.0332a3.28108,3.28108,0,0,1,2.50293-1.09863c.84668,0,1.53027.26953,1.71094.9541-.03613.45019-.43262.792-1.08106.792a2.09675,2.09675,0,0,1-1.27832-.50391l-.88183-.666,1.51269-.36035.41407.54a1.68757,1.68757,0,0,0-.70215-.21582,1.86221,1.86221,0,0,0-1.49512,1.00878,7.40413,7.40413,0,0,0-.54,4.123V347.647q0,1.89111.0542,3.78125h-1.54834q.05346-1.89111.05371-3.78125Zm3.11524,6.96875v.62988h-4.60938v-.62988l2.03418-.36035h.36035Zm.81054-7.9043v.93555H254.021V342.894Z" transform="translate(-1.54395 -3.14648)"/><path d="M263.74023,351.42822c.03614-.81054.05469-2.665.05469-3.78125v-.8457c0-.99023-.01855-1.54883-.05469-2.26953l-1.47656-.16211v-.62988l2.71875-1.08008.27051.17969-.05371,2.43066v2.377c0,1.11621.01758,2.97071.05371,3.78125Zm2.77344-.62988v.62988h-4.1416v-.62988l1.98047-.36035h.36035ZM263.29,339.49072a1.18975,1.18975,0,1,1,1.18848,1.13477A1.12147,1.12147,0,0,1,263.29,339.49072Z" transform="translate(-1.54395 -3.14648)"/><path d="M269.15918,351.42822c.03516-.81054.05371-2.665.05371-3.78125v-.8457c0-.99023-.01855-1.54883-.05371-2.26953l-1.44043-.16211v-.62988l2.44824-1.08008.27051.17969.21582,2.08886V347.647c0,1.11621.01758,2.97071.05371,3.78125Zm2.80859-.62988v.62988h-4.1416v-.62988l1.98047-.36035h.36035Zm4.15918-4.80762V347.647c0,1.15235.01758,2.97071.05371,3.78125h-1.54785c.03516-.81054.05371-2.6289.05371-3.78125v-1.51269c0-1.67383-.43261-2.21387-1.51269-2.21387a3.9429,3.9429,0,0,0-2.665,1.24219h-.37793v-.81055h.918l-.77344.32422a4.87663,4.87663,0,0,1,3.56445-2.0166C275.38867,342.65967,276.127,343.61377,276.127,345.99072Zm-.48633,4.44727,1.80079.36035v.62988H273.2998v-.62988l1.98047-.36035Z" transform="translate(-1.54395 -3.14648)"/><path d="M282.94727,355.11963v.62988h-4.60938v-.62988l2.03418-.36035h.36035Zm-3.09668-8.31836c0-.99023-.01856-1.54883-.05469-2.26953l-1.44043-.16211v-.62988l2.44922-1.08008.27051.17969.14355,1.53027.07227.03613v5.61817l-.05469.10742v1.80078c0,1.26074.01855,2.55664.05469,3.81738H279.7959q.05419-1.89111.05469-3.78125Zm3.67285-3.15137c-.666,0-1.56641.32422-2.88086,1.60254l-.16211-.32422c1.04394-1.584,2.21484-2.26855,3.43945-2.26855,1.9082,0,3.4209,1.69238,3.4209,4.46484,0,2.77344-1.585,4.53809-3.69141,4.53809-1.09863,0-2.21484-.50489-3.16894-2.377l.16211-.28808a3.51,3.51,0,0,0,2.68262,1.6748c1.36816,0,2.48535-1.0625,2.48535-3.38574C285.81055,344.96436,284.85547,343.6499,283.52344,343.6499Z" transform="translate(-1.54395 -3.14648)"/><path d="M291.11816,348.2417c0,1.60254.46875,2.16016,1.459,2.16016a3.96676,3.96676,0,0,0,2.75488-1.35059H295.71v.91894h-.918l.62989-.2705a4.26638,4.26638,0,0,1-3.4209,1.96289c-1.44043,0-2.34082-.86426-2.32325-3.24121l.05469-4.75391.37793.34277-1.6748-.36035V343.02l2.59277-.23438.18066.17969-.09082,2.52149Zm4.28516,3.33105-.252-2.10742.05468-5.79785.37793.34277-1.6748-.36035V343.02l2.55664-.23438.18066.17969-.05468,2.52149v5.38281l-.43164-.43164,1.6748.36035v.62988Z" transform="translate(-1.54395 -3.14648)"/><path d="M302.585,350.76221a2.05573,2.05573,0,0,0,1.22461-.50391l.41406.48535a2.57472,2.57472,0,0,1-2.08886.91895,1.82,1.82,0,0,1-2.01661-2.03516c0-.43164.01758-.80957.01758-1.51172v-4.28613H298.624v-.77344l2.23243-.28808-.72071.59375.541-2.917h1.04394l-.14453,3.15137v5.833C301.57617,350.36572,301.97266,350.76221,302.585,350.76221Zm1.47656-7.86817v.93555h-3.20507V342.894Z" transform="translate(-1.54395 -3.14648)"/><path d="M309.42383,350.978l-.07227-1.96289h.9541l.48633,2.125-.88183-.41407v-.6123a3.42114,3.42114,0,0,0,2.21484.73828c1.38574,0,2.03418-.55859,2.03418-1.38672,0-.77344-.54-1.16992-1.6748-1.584l-.82813-.30664c-1.31445-.48535-2.17871-1.1875-2.17871-2.41211,0-1.29688,1.09863-2.50293,3.09766-2.50293a4.5873,4.5873,0,0,1,2.502.73828l-.07129,1.81836h-.90039l-.36035-1.81836.64843.28809v.46777a2.9445,2.9445,0,0,0-1.83691-.6836c-1.11621,0-1.69238.48536-1.69238,1.24219,0,.80957.45019,1.11621,1.6748,1.56641l.54.19824c1.80078.666,2.48438,1.51172,2.48438,2.62891,0,1.332-1.16993,2.55664-3.47461,2.55664A5.4845,5.4845,0,0,1,309.42383,350.978Z" transform="translate(-1.54395 -3.14648)"/><path d="M324.5459,346.09814a3.62144,3.62144,0,0,1-.126,1.00879h-6.64355v-.75586h4.28515c.86426,0,1.06153-.41406,1.06153-.91894a1.99759,1.99759,0,0,0-1.998-1.96192c-1.15234,0-2.48438.97168-2.48438,3.54688,0,2.28613,1.15235,3.51074,2.95215,3.51074a3.12033,3.12033,0,0,0,2.52149-1.27832l.41406.32422a3.65766,3.65766,0,0,1-3.43945,2.08887c-2.41309,0-3.97949-1.67481-3.97949-4.41211,0-2.75391,1.873-4.59082,4.10546-4.59082A3.21376,3.21376,0,0,1,324.5459,346.09814Z" transform="translate(-1.54395 -3.14648)"/><path d="M332.93359,353.08447c0-.80957-.50488-1.42187-1.81836-1.42187h-2.125a7.09182,7.09182,0,0,1-.90039-.05469v-.05371c-.918-.19824-1.38672-.666-1.38672-1.42285,0-.62989.41407-1.31348,1.63868-2.376l.39648.26953a2.13193,2.13193,0,0,0-.77441,1.5127c0,.48633.19824.81054,1.04394.81054h2.377c1.92675,0,2.84472.84571,2.84472,2.30469,0,1.54785-1.47656,3.09668-4.39355,3.09668-2.59278,0-3.72656-.90039-3.72656-2.19629,0-.88281.55761-1.54883,2.377-2.32324l.08984.1084a2.59075,2.59075,0,0,0-1.00879,1.94433c0,1.18848.91895,1.65625,2.32324,1.65625C331.87109,354.939,332.93359,354.11084,332.93359,353.08447Zm-3.16894-10.4248c1.83594,0,3.20508.97265,3.20508,2.95312a2.91078,2.91078,0,0,1-3.22364,2.95215c-1.85449,0-3.22265-.97168-3.22265-2.95215C326.52344,343.70361,327.92773,342.65967,329.76465,342.65967Zm-1.83692,2.9707c0,1.31445.64844,2.21484,1.76465,2.21484,1.16992,0,1.87207-.9541,1.87207-2.2871,0-1.27832-.64746-2.17872-1.78222-2.17872C328.62988,343.37939,327.92773,344.31592,327.92773,345.63037Zm6.12207-2.9707.26954.17969v1.11621h-2.64649v-.48536Z" transform="translate(-1.54395 -3.14648)"/><path d="M336.80176,351.42822c.03613-.81054.05371-2.665.05371-3.78125v-.8457c0-.99023-.01758-1.54883-.05371-2.26953l-1.44043-.16211v-.62988l2.44922-1.08008.26953.17969.21582,2.08886V347.647c0,1.11621.01855,2.97071.05469,3.78125Zm2.80859-.62988v.62988h-4.14062v-.62988l1.98047-.36035h.36035Zm4.08789-4.80762V347.647c0,1.15235.01758,2.97071.05371,3.78125h-1.54883c.03614-.81054.05469-2.6289.05469-3.78125v-1.51269c0-1.67383-.43261-2.21387-1.51269-2.21387a3.79444,3.79444,0,0,0-2.59278,1.24219h-.37793v-.81055h.918l-.77441.32422a4.77481,4.77481,0,0,1,3.49316-2.0166C342.96,342.65967,343.69824,343.61377,343.69824,345.99072Zm-.48633,4.44727,1.80079.36035v.62988h-4.14161v-.62988l1.98047-.36035Zm5.8877-4.64551V347.647c0,1.15235.01758,2.97071.05371,3.78125h-1.54785c.03515-.81054.05371-2.6289.05371-3.78125v-1.54883c0-1.69238-.46875-2.17773-1.53027-2.17773a3.73546,3.73546,0,0,0-2.5752,1.24219h-.43164v-.63086h.97168l-.82813.14453a4.41441,4.41441,0,0,1,3.54688-2.0166C348.25293,342.65967,349.09961,343.56006,349.09961,345.79248Zm-.48633,4.64551,1.80078.36035v.62988h-4.1416v-.62988l1.98047-.36035Z" transform="translate(-1.54395 -3.14648)"/><path d="M359.21387,346.09814a3.61619,3.61619,0,0,1-.127,1.00879h-6.64355v-.75586h4.28516c.86425,0,1.0625-.41406,1.0625-.91894a1.9978,1.9978,0,0,0-1.999-1.96192c-1.15234,0-2.48437.97168-2.48437,3.54688,0,2.28613,1.15234,3.51074,2.95312,3.51074a3.11845,3.11845,0,0,0,2.52051-1.27832l.41406.32422a3.65721,3.65721,0,0,1-3.43847,2.08887c-2.41309,0-3.9795-1.67481-3.9795-4.41211,0-2.75391,1.87207-4.59082,4.10547-4.59082A3.21376,3.21376,0,0,1,359.21387,346.09814Z" transform="translate(-1.54395 -3.14648)"/><path d="M362.18164,351.42822c.03516-.81054.05371-2.665.05371-3.78125v-.8457c0-.99023-.01855-1.54883-.05371-2.26953l-1.44043-.16211v-.62988l2.44824-1.08008.27051.17969.21582,2.08886V347.647c0,1.11621.01758,2.97071.05371,3.78125Zm2.80859-.62988v.62988h-4.1416v-.62988l1.98047-.36035h.36035Zm4.15918-4.80762V347.647c0,1.15235.01758,2.97071.05371,3.78125h-1.54785c.03516-.81054.05371-2.6289.05371-3.78125v-1.51269c0-1.67383-.43261-2.21387-1.51269-2.21387a3.9429,3.9429,0,0,0-2.665,1.24219h-.37793v-.81055h.918l-.77344.32422a4.87663,4.87663,0,0,1,3.56445-2.0166C368.41113,342.65967,369.14941,343.61377,369.14941,345.99072Zm-.48632,4.44727,1.80078.36035v.62988h-4.1416v-.62988l1.98046-.36035Z" transform="translate(-1.54395 -3.14648)"/><path d="M375.0332,350.76221a2.05344,2.05344,0,0,0,1.22461-.50391l.41407.48535a2.57475,2.57475,0,0,1-2.08887.91895,1.82,1.82,0,0,1-2.0166-2.03516c0-.43164.01855-.80957.01855-1.51172v-4.28613h-1.51269v-.77344l2.23242-.28808-.71973.59375.54-2.917H374.169l-.14356,3.15137v5.833C374.02539,350.36572,374.42188,350.76221,375.0332,350.76221Zm1.47657-7.86817v.93555h-3.20508V342.894Z" transform="translate(-1.54395 -3.14648)"/><path d="M377.66113,350.978l-.07226-1.96289h.9541l.48633,2.125-.88184-.41407v-.6123a3.42114,3.42114,0,0,0,2.21484.73828c1.38575,0,2.03418-.55859,2.03418-1.38672,0-.77344-.54-1.16992-1.6748-1.584l-.82813-.30664c-1.31445-.48535-2.17871-1.1875-2.17871-2.41211,0-1.29688,1.09864-2.50293,3.09766-2.50293a4.58727,4.58727,0,0,1,2.502.73828l-.07129,1.81836h-.90039l-.36035-1.81836.64844.28809v.46777a2.94452,2.94452,0,0,0-1.83691-.6836c-1.11622,0-1.69239.48536-1.69239,1.24219,0,.80957.4502,1.11621,1.67481,1.56641l.54.19824c1.80078.666,2.48437,1.51172,2.48437,2.62891,0,1.332-1.16992,2.55664-3.47461,2.55664A5.48453,5.48453,0,0,1,377.66113,350.978Z" transform="translate(-1.54395 -3.14648)"/><path d="M3.86719,165.60352l-.90039-.81006,3.20508.57617v1.00781l-3.20508-.14355v-9.83106l3.20508-.144v1.0083l-3.20508.57617.90039-.81055Zm4.68066-3.4751c-1.85449,0-3.72656,0-5.581.0542V160.4541c1.81836.05371,3.6914.05371,5.58105.05371h.90039c1.85449,0,3.72754,0,5.582-.05371v1.72852c-1.81836-.0542-3.6914-.0542-5.582-.0542Zm5.49219-.99024.26953-2.521h.7207V164.019h-.7207l-.26953-2.521Z" transform="translate(-1.54395 -3.14648)"/><path d="M3.09277,154.35352A1.18975,1.18975,0,1,1,4.22754,153.165,1.12148,1.12148,0,0,1,3.09277,154.35352Zm11.9375-.4502c-.81054-.03613-2.665-.0542-3.78125-.0542h-.8457c-.99023,0-1.54883.01807-2.26953.0542l-.16211,1.47656H7.3418l-1.08008-2.71924.17969-.27,2.43066.0542H11.249c1.11621,0,2.97071-.01806,3.78125-.0542Zm-.62988-2.773h.62988v4.14111h-.62988L14.04,153.291v-.35987Z" transform="translate(-1.54395 -3.14648)"/><path d="M9.39453,136.188H11.249c1.15235,0,2.97071-.01807,3.78125-.0542v1.54834c-.81054-.03565-2.6289-.05371-3.78125-.05371H9.7002c-1.69239,0-2.17774.46777-2.17774,1.53027a3.73364,3.73364,0,0,0,1.24219,2.57471v.43213H8.13379v-.97217l.14453.82812a4.4137,4.4137,0,0,1-2.0166-3.54687C6.26172,137.03418,7.16211,136.188,9.39453,136.188Zm.19824,5.40137H11.249c1.15235,0,2.97071-.01807,3.78125-.05372V143.084c-.81054-.03613-2.6289-.05419-3.78125-.05419H9.73633c-1.67383,0-2.21387.43212-2.21387,1.51269a3.79622,3.79622,0,0,0,1.24219,2.59277v.37793H7.9541v-.918l.32422.77393a4.77394,4.77394,0,0,1-2.0166-3.49316C6.26172,142.32764,7.21582,141.58936,9.59277,141.58936Zm5.4375,6.896c-.81054-.03564-2.665-.05371-3.78125-.05371h-.8457c-.99023,0-1.54883.01807-2.26953.05371l-.16211,1.44043H7.3418l-1.08008-2.44873.17969-.27,2.08886-.21582H11.249c1.11621,0,2.97071-.01807,3.78125-.0542ZM14.04,136.67383l.36035-1.80029h.62988v4.14111h-.62988L14.04,137.03418Zm0,5.40185.36035-1.80078h.62988v4.1416h-.62988l-.36035-1.981Zm.36035,3.60108h.62988v4.14111h-.62988L14.04,147.8374v-.36035Z" transform="translate(-1.54395 -3.14648)"/><path d="M9.7002,126.07373a3.64,3.64,0,0,1,1.00878.126v6.644H9.95312v-4.28516c0-.86425-.41406-1.062-.91894-1.062a1.99769,1.99769,0,0,0-1.96191,1.99854c0,1.15234.97168,2.48437,3.54687,2.48437,2.28613,0,3.51074-1.15234,3.51074-2.95263a3.11939,3.11939,0,0,0-1.27832-2.521l.32422-.41406a3.65743,3.65743,0,0,1,2.08887,3.439c0,2.41309-1.67481,3.97949-4.41211,3.97949-2.75391,0-4.59082-1.87255-4.59082-4.10546A3.21376,3.21376,0,0,1,9.7002,126.07373Z" transform="translate(-1.54395 -3.14648)"/><path d="M18.127,115.34717l.37793.45019a11.18389,11.18389,0,0,1-8.48047,3.72705A11.18537,11.18537,0,0,1,1.544,115.79736l.3789-.45019c3.09668,2.12451,5.2207,2.77295,8.10156,2.77295S15.03027,117.47168,18.127,115.34717Z" transform="translate(-1.54395 -3.14648)"/><path d="M14.58008,114.32275l-1.96289.07178v-.9541l2.125-.48633-.41407.88233h-.6123a3.42213,3.42213,0,0,0,.73828-2.21485c0-1.38623-.55859-2.03467-1.38672-2.03467-.77343,0-1.16992.54053-1.584,1.67481l-.30664.82812c-.48535,1.31446-1.1875,2.17871-2.41211,2.17871-1.29688,0-2.50293-1.09814-2.50293-3.09716A4.58892,4.58892,0,0,1,7,108.669l1.81836.07177v.90039L7,110.00146l.28809-.64843h.46777a2.94422,2.94422,0,0,0-.68359,1.83642c0,1.1167.48535,1.69287,1.24218,1.69287.80957,0,1.11621-.45019,1.56641-1.6748l.19824-.54c.666-1.80078,1.51172-2.48486,2.62891-2.48486,1.332,0,2.55664,1.17041,2.55664,3.47509A5.48725,5.48725,0,0,1,14.58008,114.32275Z" transform="translate(-1.54395 -3.14648)"/><path d="M1.92285,107.19434l-.3789-.4502a11.18537,11.18537,0,0,1,8.48046-3.72705,11.18389,11.18389,0,0,1,8.48047,3.72705l-.37793.4502c-3.09668-2.12452-5.22168-2.77295-8.10254-2.77295S5.01953,105.06982,1.92285,107.19434Z" transform="translate(-1.54395 -3.14648)"/></svg>