<?xml version="1.0" encoding="utf-8"?>
<!-- Generator: Adobe Illustrator 24.0.3, SVG Export Plug-In . SVG Version: 6.00 Build 0)  -->
<svg version="1.1" id="Layer_1" xmlns="http://www.w3.org/2000/svg" xmlns:xlink="http://www.w3.org/1999/xlink" x="0px" y="0px"
	 width="902.92px" height="401.82px" viewBox="0 0 902.92 401.82" style="enable-background:new 0 0 902.92 401.82;"
	 xml:space="preserve">
<style type="text/css">
	.st0{fill:none;stroke:#B70909;stroke-linecap:round;stroke-linejoin:round;stroke-miterlimit:10;}
	.st1{fill:none;stroke:#0D7A0A;stroke-linecap:round;stroke-linejoin:round;stroke-miterlimit:10;}
	.st2{fill:none;stroke:#000000;stroke-linecap:round;stroke-linejoin:round;}
</style>
<g>
	<path class="st0" d="M0.5,241.32l400,160 M0.5,239.68l400,153.47 M0.5,238.05l400,146.94 M0.5,236.42l400,140.41 M0.5,234.79
		l400,133.88 M0.5,233.15l400,127.35 M0.5,231.52l400,120.82 M0.5,229.89l400,114.29 M0.5,228.26l400,107.76 M0.5,226.62l400,101.22
		 M0.5,224.99l400,94.69 M0.5,223.36l400,88.16 M0.5,221.72l400,81.63 M0.5,220.09l400,75.1 M0.5,218.46l400,68.57 M0.5,216.83
		l400,62.04 M0.5,215.19l400,55.51 M0.5,213.56l400,48.98 M0.5,211.93l400,42.45 M0.5,210.3l400,35.92 M0.5,208.66l400,29.39
		 M0.5,207.03l400,22.86 M0.5,205.4l400,16.33 M0.5,203.77l400,9.8 M0.5,202.13l400,3.27 M0.5,200.5l400-3.27 M0.5,198.87l400-9.8
		 M0.5,197.23l400-16.33 M0.5,195.6l400-22.86 M0.5,193.97l400-29.39 M0.5,192.34l400-35.92 M0.5,190.7l400-42.45 M0.5,189.07
		l400-48.98 M0.5,187.44l400-55.51 M0.5,185.81l400-62.04 M0.5,184.17l400-68.57 M0.5,182.54l400-75.1 M0.5,180.91l400-81.63
		 M0.5,179.28l400-88.16 M0.5,177.64l400-94.69 M0.5,176.01l400-101.22 M0.5,174.38l400-107.76 M0.5,172.74l400-114.29 M0.5,171.11
		l400-120.82 M0.5,169.48l400-127.35 M0.5,167.85l400-133.88 M0.5,166.21l400-140.41 M0.5,164.58l400-146.94 M0.5,162.95l400-153.47
		 M0.5,161.32l400-160 M160.5,401.32l-160-400 M162.13,401.32L8.66,1.32 M163.77,401.32L16.83,1.32 M165.4,401.32L24.99,1.32
		 M167.03,401.32L33.15,1.32 M168.66,401.32L41.32,1.32 M170.3,401.32L49.48,1.32 M171.93,401.32L57.64,1.32 M173.56,401.32
		L65.81,1.32 M175.19,401.32L73.97,1.32 M176.83,401.32l-94.69-400 M178.46,401.32L90.3,1.32 M180.09,401.32l-81.63-400
		 M181.72,401.32l-75.1-400 M183.36,401.32l-68.57-400 M184.99,401.32l-62.04-400 M186.62,401.32l-55.51-400 M188.26,401.32
		l-48.98-400 M189.89,401.32l-42.45-400 M191.52,401.32l-35.92-400 M193.15,401.32l-29.39-400 M194.79,401.32l-22.86-400
		 M196.42,401.32l-16.33-400 M198.05,401.32l-9.8-400 M199.68,401.32l-3.27-400 M201.32,401.32l3.27-400 M202.95,401.32l9.8-400
		 M204.58,401.32l16.33-400 M206.21,401.32l22.86-400 M207.85,401.32l29.39-400 M209.48,401.32l35.92-400 M211.11,401.32l42.45-400
		 M212.74,401.32l48.98-400 M214.38,401.32l55.51-400 M216.01,401.32l62.04-400 M217.64,401.32l68.57-400 M219.28,401.32l75.1-400
		 M220.91,401.32l81.63-400 M222.54,401.32l88.16-400 M224.17,401.32l94.69-400 M225.81,401.32l101.22-400 M227.44,401.32
		l107.76-400 M229.07,401.32l114.29-400 M230.7,401.32l120.82-400 M232.34,401.32l127.35-400 M233.97,401.32l133.88-400
		 M235.6,401.32l140.41-400 M237.23,401.32l146.94-400 M238.87,401.32l153.47-400 M240.5,401.32l160-400"/>
</g>
<g>
	<path class="st1" d="M502.42,311.92h400 M503.53,307.37h397.79 M504.6,302.82h395.66 M505.62,298.27h393.61 M506.6,293.73h391.64
		 M507.54,289.18H897.3 M508.44,284.63H896.4 M509.3,280.08h386.25 M510.11,275.54h384.63 M510.87,270.99h383.1 M511.6,266.44
		h381.66 M512.27,261.89h380.3 M891.95,257.35H512.9 M891.36,252.8H513.48 M890.83,248.25H514.02 M890.34,243.7H514.51
		 M889.9,239.16H514.95 M889.51,234.61H515.35 M889.16,230.06H515.68 M888.87,225.51H515.99 M888.62,220.96H516.23 M888.42,216.42
		h-372 M888.27,211.87h-371.7 M888.17,207.32h-371.5 M888.13,202.77h-371.4 M888.13,198.23h-371.4 M888.17,193.68h-371.5
		 M888.27,189.13h-371.7 M888.42,184.58h-372 M888.62,180.04H516.23 M888.87,175.49H515.99 M889.16,170.94H515.68 M889.51,166.39
		H515.35 M889.9,161.85H514.95 M890.34,157.3H514.51 M890.83,152.75H514.02 M891.36,148.2H513.48 M512.9,143.65h379.05
		 M512.27,139.11h380.3 M511.6,134.56h381.66 M510.87,130.01h383.1 M510.11,125.46h384.63 M509.3,120.92h386.25 M508.44,116.37
		H896.4 M507.54,111.82H897.3 M506.6,107.27h391.64 M505.62,102.73h393.61 M504.6,98.18h395.66 M503.53,93.63h397.79 M502.42,89.08
		h400 M591.01,400.5V0.5 M595.55,399.39V1.6 M600.1,398.33V2.67 M604.65,397.3V3.69 M609.2,396.32V4.68 M613.75,395.38V5.62
		 M618.29,394.48V6.52 M622.84,393.63V7.38 M627.39,392.82V8.19 M631.94,392.05V8.95 M636.48,391.33V9.67 M641.03,390.65V10.35
		 M645.58,390.02V10.98 M650.13,389.44V11.56 M654.67,388.9V12.09 M659.22,388.42V12.59 M663.77,387.97V13.02 M668.32,387.58V13.42
		 M672.86,387.24V13.76 M677.41,386.94V14.05 M681.96,386.7V14.31 M686.51,386.5v-372 M691.05,386.35V14.65 M695.6,386.25V14.75
		 M700.15,386.2V14.8 M704.7,386.2V14.8 M709.24,386.25V14.75 M713.79,386.35V14.65 M718.34,386.5v-372 M722.89,386.7V14.31
		 M727.44,386.94V14.05 M731.98,387.24V13.76 M736.53,387.58V13.42 M741.08,387.97V13.02 M745.63,388.42V12.59 M750.17,388.9V12.09
		 M754.72,389.44V11.56 M759.27,390.02V10.98 M763.82,390.65V10.35 M768.36,391.33V9.67 M772.91,392.05V8.95 M777.46,392.82V8.19
		 M782.01,393.63V7.38 M786.56,394.48V6.52 M791.1,395.38V5.62 M795.65,396.32V4.68 M800.2,397.3V3.69 M804.75,398.33V2.67
		 M809.29,399.39V1.6 M813.84,400.5V0.5"/>
</g>
<g>
	<g>
		<line class="st2" x1="419" y1="201.32" x2="490.78" y2="201.32"/>
		<g>
			<polygon points="487.97,205.02 489.54,201.32 487.97,197.61 496.75,201.32 			"/>
		</g>
	</g>
</g>
</svg>
