<?xml version="1.0" encoding="utf-8"?>
<!-- Generator: Adobe Illustrator 24.0.3, SVG Export Plug-In . SVG Version: 6.00 Build 0)  -->
<svg version="1.1" id="Layer_1" xmlns="http://www.w3.org/2000/svg" xmlns:xlink="http://www.w3.org/1999/xlink" x="0px" y="0px"
	 width="874.2px" height="399.2px" viewBox="0 0 874.2 399.2" style="enable-background:new 0 0 874.2 399.2;" xml:space="preserve"
	>
<style type="text/css">
	.st0{fill:none;stroke:#B70909;stroke-linecap:round;stroke-linejoin:round;stroke-miterlimit:10;}
	.st1{fill:none;stroke:#0D7A0A;stroke-linecap:round;stroke-linejoin:round;stroke-miterlimit:10;}
	.st2{fill:none;stroke:#000000;stroke-linecap:round;stroke-linejoin:round;}
	.st3{fill:none;stroke:#000000;stroke-linecap:round;stroke-linejoin:round;stroke-miterlimit:10;}
	.st4{font-family:'MyriadPro-Regular';}
	.st5{font-size:12px;}
</style>
<g>
	<path class="st0" d="M200.5,200.1h100 M300.5,200.1h100 M200.5,200.1l99.2-12.5 M299.7,189.6l99.2-12.5 M200.5,200.1l96.9-24.9
		 M297.4,179.2l96.9-24.9 M200.5,200.1l93-36.8 M293.5,169.3l93-36.8 M200.5,200.1l87.6-48.2 M288.1,159.9l87.6-48.2 M200.5,200.1
		l80.9-58.8 M281.4,151.3l80.9-58.8 M200.5,200.1l72.9-68.4 M273.4,143.6l72.9-68.4 M200.5,200.1l63.7-77.1 M264.2,133.1L328,56
		 M200.5,200.1l53.6-84.4 M254.1,123.7l53.6-84.4 M200.5,200.1l42.6-90.5 M243.1,115.6l42.6-90.5 M200.5,200.1l30.9-95.1 M231.4,109
		l30.9-95.1 M200.5,200.1l18.7-98.2 M219.2,103.9L238,5.6 M200.5,200.1l6.3-99.8 M206.8,100.3l6.3-99.8 M200.5,200.1l-6.3-99.8
		 M194.2,102.3l-6.3-99.8 M200.5,200.1l-18.7-98.2 M181.8,105.9L163,7.7 M200.5,200.1L169.6,105 M169.6,111l-30.9-95.1 M200.5,200.1
		l-42.6-90.5 M157.9,117.6l-42.6-90.5 M200.5,200.1l-53.6-84.4 M146.9,125.7L93.3,41.2 M200.5,200.1l-63.7-77.1 M136.8,135.1L73,58
		 M200.5,200.1l-72.9-68.4 M127.6,141.6L54.7,73.2 M200.5,200.1l-80.9-58.8 M119.6,149.3L38.7,90.6 M200.5,200.1l-87.6-48.2
		 M112.9,157.9l-87.6-48.2 M200.5,200.1l-93-36.8 M107.5,167.3l-93-36.8 M200.5,200.1l-96.9-24.9 M103.6,177.2L6.8,152.4
		 M200.5,200.1l-99.2-12.5 M101.3,187.6L2.1,175 M200.5,200.1h-100 M100.5,198.1H0.5 M200.5,200.1l-99.2,12.5 M101.3,208.6
		L2.1,221.2 M200.5,200.1L103.6,225 M103.6,219L6.8,243.8 M200.5,200.1l-93,36.8 M107.5,228.9l-93,36.8 M200.5,200.1l-87.6,48.2
		 M112.9,238.3l-87.6,48.2 M200.5,200.1l-80.9,58.8 M119.6,246.9l-80.9,58.8 M200.5,200.1l-72.9,68.4 M127.6,254.6L54.7,323
		 M200.5,200.1l-63.7,77.1 M136.8,265.2L73,342.2 M200.5,200.1l-53.6,84.4 M146.9,274.5L93.3,359 M200.5,200.1l-42.6,90.5
		 M157.9,282.6l-42.6,90.5 M200.5,200.1l-30.9,95.1 M169.6,289.2l-30.9,95.1 M200.5,200.1l-18.7,98.2 M181.8,294.3L163,392.6
		 M200.5,200.1l-6.3,99.8 M194.2,297.9l-6.3,99.8 M200.5,200.1l6.3,99.8 M206.8,295.9l6.3,99.8 M200.5,200.1l18.7,98.2 M219.2,292.3
		l18.7,98.2 M200.5,200.1l30.9,95.1 M231.4,287.2l30.9,95.1 M200.5,200.1l42.6,90.5 M243.1,280.6l42.6,90.5 M200.5,200.1l53.6,84.4
		 M254.1,272.5l53.6,84.4 M200.5,200.1l63.7,77.1 M264.2,263.2l63.7,77.1 M200.5,200.1l72.9,68.4 M273.4,256.6l72.9,68.5
		 M200.5,200.1l80.9,58.8 M281.4,248.9l80.9,58.8 M200.5,200.1l87.6,48.2 M288.1,240.3l87.6,48.2 M200.5,200.1l93,36.8 M293.5,230.9
		l93,36.8 M200.5,200.1l96.9,24.9 M297.4,221l96.9,24.9 M200.5,200.1l99.2,12.5 M299.7,210.6l99.2,12.5"/>
</g>
<g>
	<path class="st1" d="M673.7,200.6h100 M773.7,200.6h100 M673.6,200.6l99.2-12.5 M772.6,188.1l99.2-12.5 M673.5,200.6l96.9-24.9
		 M769.4,176l96.9-24.9 M673.5,200.7l93-36.8 M764.4,164.7l93-36.8 M673.5,200.7l87.6-48.2 M757.7,154.4l87.6-48.2 M673.4,200.8
		l80.9-58.8 M749.6,145.5l80.9-58.8 M673.4,200.8l72.9-68.4 M740.3,138l72.9-68.4 M673.4,200.9l63.7-77.1 M732.2,129.8l63.8-77
		 M673.4,201l53.6-84.4 M723.4,122.2L777,37.8 M673.5,201l42.6-90.5 M713.7,115.4L756.3,25 M673.5,201.1l30.9-95.1 M703.2,109.6
		l30.9-95.1 M673.6,201.1l18.7-98.2 M692,104.8l18.7-98.2 M673.6,201.1l6.3-99.8 M679.9,101.3l6.3-99.8 M673.7,201.1l-6.3-99.8
		 M667.5,103.3l-6.3-99.8 M673.8,201.1L655,102.9 M655.8,106.7L637,8.5 M673.8,201.1l-30.9-95.1 M644.7,111.4l-30.9-95.1 M673.9,201
		l-42.6-90.5 M634.4,117.1l-42.6-90.5 M673.9,201l-53.6-84.4 M624.8,123.7l-53.6-84.4 M673.9,200.9l-63.7-77.1 M616.1,131
		l-63.7-77.1 M673.9,200.8L601,132.4 M606,137.1l-72.9-68.4 M673.9,200.8L593,142 M596.8,144.8L515.9,86 M673.9,200.7l-87.6-48.2
		 M588.8,153.9l-87.6-48.2 M673.8,200.7l-93-36.8 M582.2,164.4l-93-36.8 M673.8,200.6l-96.9-24.9 M577.4,175.9L480.5,151
		 M673.7,200.6l-99.2-12.5 M574.5,188.1l-99.2-12.5 M673.7,200.6h-100 M573.7,200.6h-100 M673.6,200.6l-99.2,12.5 M574.9,213.1
		l-99.2,12.5 M673.5,200.6l-96.9,24.9 M578.1,225.1L481.3,250 M673.5,200.7l-93,36.8 M583.3,236.4l-93,36.8 M673.5,200.7l-87.6,48.2
		 M590,246.6l-87.6,48.2 M673.4,200.8l-80.9,58.8 M598.2,255.4l-80.9,58.8 M673.4,200.8l-72.9,68.4 M607.5,262.7l-72.9,68.5
		 M673.4,200.9L609.7,278 M615.6,270.8l-63.7,77.1 M673.4,201l-53.6,84.4 M624.4,278.3l-53.6,84.4 M673.5,201l-42.6,90.5 M634,285
		l-42.6,90.5 M673.5,201.1l-30.9,95.1 M644.4,290.7l-30.9,95.1 M673.6,201.1l-18.7,98.2 M655.6,295.5l-18.7,98.2 M673.6,201.1
		l-6.3,99.8 M667.5,298.9l-6.3,99.8 M673.7,201.1l6.3,99.8 M679.7,296.9l6.3,99.8 M673.8,201.1l18.7,98.2 M691.4,293.5l18.7,98.2
		 M673.8,201.1l30.9,95.1 M702.4,288.9l30.9,95.1 M673.9,201l42.6,90.5 M712.6,283.3l42.6,90.5 M673.9,201l53.6,84.4 M722,276.8
		l53.6,84.4 M673.9,200.9l63.7,77.1 M730.8,269.6l63.7,77 M673.9,200.8l72.9,68.4 M740.8,263.7l72.9,68.4 M673.9,200.8l80.9,58.8
		 M750,256.1l80.9,58.8 M673.9,200.7l87.6,48.2 M758.1,247l87.6,48.2 M673.8,200.7l93,36.8 M764.8,236.7l93,36.8 M673.8,200.6
		l96.9,24.9 M769.7,225.3l96.9,24.9 M673.7,200.6l99.2,12.5 M772.7,213.1l99.2,12.5"/>
</g>
<g>
	<g>
		<line class="st2" x1="421.5" y1="200.6" x2="449.9" y2="200.2"/>
		<g>
			<polygon points="447.1,203.9 448.6,200.2 447,196.5 455.9,200.1 			"/>
		</g>
	</g>
</g>
<line class="st3" x1="385.4" y1="37.8" x2="485.4" y2="37.8"/>
<text transform="matrix(1 0 0 1 407.7224 29.5186)" class="st4 st5">unit length</text>
</svg>
