<?xml version="1.0" encoding="utf-8"?>
<!-- Generator: Adobe Illustrator 24.0.3, SVG Export Plug-In . SVG Version: 6.00 Build 0)  -->
<svg version="1.1" id="Layer_1" xmlns="http://www.w3.org/2000/svg" xmlns:xlink="http://www.w3.org/1999/xlink" x="0px" y="0px"
	 width="844.8px" height="214.6px" viewBox="0 0 844.8 214.6" style="enable-background:new 0 0 844.8 214.6;" xml:space="preserve"
	>
<style type="text/css">
	.st0{fill:none;stroke:#B70909;stroke-width:1.5;stroke-miterlimit:10;}
	.st1{fill:none;stroke:#000000;stroke-width:1.5;stroke-linecap:round;stroke-linejoin:round;}
	.st2{fill:none;stroke:#0D7A0A;stroke-width:1.5;stroke-miterlimit:10;}
</style>
<g>
	<path class="st0" d="M397.9,176.2l-1.6-6.6 M396.3,169.5l4.5-8.4 M400.7,161.1l-3.3-36.8 M397.5,124.4l-13.3,5.9 M384.2,130.3
		l-5.6-0.7 M378.6,129.6l-2.6-4.8 M376,124.8l-17.2,2.4 M358.8,127.2l-2.8,5.6 M355.9,132.8l-19.6-3.4 M336.3,129.5l-38.7,7.5
		 M297.6,137l-3-5.4 M294.6,131.6l-16.2,0 M278.4,131.7l-2.9,6.1 M275.5,137.8l-8.5,0.7 M267,138.5l-4.6-9.9 M262.4,128.6l-29.8-4.6
		 M232.6,124l-3.6,6.5 M229.1,130.5l-78.4,4.9 M150.7,135.4l-2.6,11.4 M148.2,146.9l-8.4,0.2 M139.8,147.1l-3.5-5.5 M136.3,141.6
		l-14.5,2 M121.7,143.6l-4.4,5.8 M117.3,149.4l-43.6-3.5 M73.7,145.9l-4.6-19.3 M69.2,126.6l6.5-5.8 M75.7,120.7l-3.1-14.3
		 M72.6,106.5l-4.2-2 M68.4,104.5l-3.6-56.1 M64.8,48.3l5.7-18.6 M70.5,29.8L66,24.1 M66,24.1l1.6-21 M67.6,3L32.2,5 M32.2,5
		l-5.8-4.4 M26.4,0.6l-6.6,11 M19.7,11.6l-5.4-6.4 M14.4,5.2L17,35.6 M17,35.6L0.7,38.2 M0.7,38.2l1.7,20.2 M2.5,58.4l8.7,3
		 M11.2,61.4l2.3,31.8 M13.5,93.2l-8.6,5.9 M4.8,99.1l1.8,22.3 M6.6,121.5l15.3-0.8 M21.9,120.7l1.6,20.7 M23.6,141.4l9.7,1.1
		 M33.2,142.5l-2.8,28.6 M30.5,171.2l-6.2,2.3 M24.2,173.4l0.1,23 M24.3,196.4l19-1 M43.3,195.4l2.8-7.7 M46.1,187.7l19.7-1.9
		 M65.8,185.9l4.2,4.6 M70,190.5l-0.8,8.2 M69.2,198.6l7.5,1.7 M76.7,200.3l2.2,13.5 M78.9,213.8l20.7-1.6 M99.6,212.2l1.8-7.9
		 M101.4,204.3l18-1.2 M119.4,203.1l5-8.3 M124.4,194.8l32.3-2.2 M156.7,192.6l7.3,6.9 M164,199.5l19.7-3.9 M183.7,195.6l3.8-7.5
		 M187.5,188l31.8-2.3 M219.3,185.8l3.8,8.7 M223.1,194.5l28.2-2.6 M251.3,191.9l-1.3-8.1 M250,183.8l5.5-8.2 M255.5,175.6l9.6,1.6
		 M265.1,177.2l-0.3,8.3 M264.8,185.5L286,184 M286,184l1.2,13.3 M287.2,197.3l3.6,2.4 M290.8,199.7l20.2-1.7 M311.1,198l1.4-8.6
		 M312.5,189.4l32.8-2.1 M345.3,187.4l12.9,7.6 M358.2,194.9l15.1,0.2 M373.3,195.2l1.8-17.4 M375.1,177.8l22.8-1.7"/>
</g>
<g>
	<g>
		<line class="st1" x1="413.2" y1="145.4" x2="447" y2="145.4"/>
		<g>
			<polygon points="444,149.3 445.7,145.4 444,141.5 453.2,145.4 			"/>
		</g>
	</g>
</g>
<g>
	<path class="st2" d="M844,174.2l-3.1-48.9 M841,125.2l-20.5,1.3 M820.4,126.5l-0.2-3 M820.3,123.4l-20,1.3 M800.2,124.7l0.3,4
		 M800.5,128.7l-61.3,3.8 M739.2,132.6l-0.2-3.4 M739,129.1l-19.1,1.2 M719.9,130.3l0.3,5.5 M720.2,135.8l-12.1,0.8 M708.1,136.6
		l-0.8-13.3 M707.2,123.3l-33.3,2.1 M673.9,125.4l0.2,3.1 M674.1,128.5l-82,5.1 M592.2,133.6l0.7,11.1 M592.9,144.7l-11.6,0.7
		 M581.3,145.4l-0.3-5.3 M581,140.1l-18.5,1.2 M562.4,141.3l0.2,2.9 M562.6,144.2l-47.3,3 M515.3,147.1l-1.6-25.3 M513.8,121.8
		l4.1-0.3 M517.9,121.6l-1.1-18.2 M516.7,103.3l-4.4,0.3 M512.3,103.6L505.9,1.2 M505.9,1.2l-46.7,2.9 M459.2,4.1l1.9,30.3
		 M461.1,34.4L444,35.4 M444,35.4l1.4,22.8 M445.5,58.2l8.9-0.6 M454.3,57.7l2.3,36.3 M456.6,94l-8.6,0.5 M448,94.5l1.6,25.1
		 M449.5,119.6l15.7-1 M465.2,118.6l1.4,21.7 M466.6,140.4l7.5-0.5 M474,139.9l1.9,30.1 M475.9,170l-9.3,0.6 M466.6,170.6l1.5,23.9
		 M468.1,194.5l19.9-1.2 M488,193.3l-0.5-7.7 M487.5,185.6l24.2-1.5 M511.7,184l0.9,13.7 M512.6,197.7l7.8-0.5 M520.4,197.2
		l0.9,14.5 M521.3,211.8l22.5-1.4 M543.8,210.4l-0.5-8 M543.3,202.4l21.9-1.4 M565.2,201l-0.5-8 M564.7,193l38.5-2.4 M603.2,190.5
		l0.4,5.9 M603.6,196.4l25.4-1.6 M629,194.8l-0.5-8.7 M628.4,186.1l35.6-2.2 M664,183.9l0.5,8.4 M664.5,192.2l31-1.9 M695.6,190.3
		l-1-15.3 M694.6,175l13.1-0.8 M707.7,174.2l0.6,9.2 M708.3,183.4l21-1.3 M729.3,182.1l1,15.6 M730.2,197.7l24.9-1.6 M755.1,196.1
		l-0.4-6.7 M754.7,189.5l62.6-3.9 M817.3,185.5l-0.6-9.7 M816.7,175.9l27.3-1.7"/>
</g>
</svg>
