<?xml version="1.0" encoding="utf-8"?>
<!-- Generator: Adobe Illustrator 24.3.0, SVG Export Plug-In . SVG Version: 6.00 Build 0)  -->
<svg version="1.1" id="Layer_1" xmlns="http://www.w3.org/2000/svg" xmlns:xlink="http://www.w3.org/1999/xlink" x="0px" y="0px"
	 width="447.2px" height="148.8px" viewBox="0 0 447.2 148.8" style="enable-background:new 0 0 447.2 148.8;" xml:space="preserve"
	>
<style type="text/css">
	.st0{fill:none;stroke:#157C3E;stroke-width:1.5;stroke-miterlimit:10;}
	.st1{fill:none;stroke:#B62126;stroke-width:1.5;stroke-miterlimit:10;}
	.st2{fill:none;stroke:#020202;stroke-width:1.5;stroke-miterlimit:10;}
	.st3{fill:#020202;}
</style>
<g>
	<path class="st0" d="M299.7,146.9l73.6-2.4 M373.5,144.4l73.6-2.4 M442.2,148.4l-4.9-148 M358.8,4.4L432.4,2 M285,6.9l73.6-2.4
		 M294.9,148.4l-4.9-148"/>
</g>
<g>
	<path class="st1" d="M15.5,148.1h73.7 M89.2,140.7h73.7 M162.8,148.1L148.1,0.8 M148.1,0.8H74.4 M74.4,8.1H0.7 M0.7,0.8l14.7,147.3
		"/>
</g>
<g>
	<g>
		<line class="st2" x1="192.5" y1="74.5" x2="249.2" y2="74.5"/>
		<g>
			<polygon class="st3" points="246.2,78.3 247.9,74.5 246.2,70.6 255.4,74.5 			"/>
		</g>
	</g>
</g>
</svg>
