<?xml version="1.0" encoding="utf-8"?>
<!-- Generator: Adobe Illustrator 24.0.3, SVG Export Plug-In . SVG Version: 6.00 Build 0)  -->
<svg version="1.1" id="Layer_1" xmlns="http://www.w3.org/2000/svg" xmlns:xlink="http://www.w3.org/1999/xlink" x="0px" y="0px"
	 width="854.2px" height="215.8px" viewBox="0 0 854.2 215.8" style="enable-background:new 0 0 854.2 215.8;" xml:space="preserve"
	>
<style type="text/css">
	.st0{fill:none;stroke:#B70909;stroke-width:1.5;stroke-miterlimit:10;}
	.st1{fill:none;stroke:#000000;stroke-width:1.5;stroke-linecap:round;stroke-linejoin:round;}
	.st2{fill:none;stroke:#0D7A0A;stroke-width:1.5;stroke-miterlimit:10;}
</style>
<g>
	<path class="st0" d="M397.9,177.3l-1.6-6.6 M396.3,170.7l4.5-8.4 M400.7,162.3l-3.3-36.8 M397.5,125.6l-13.3,5.9 M384.2,131.4
		l-5.6-0.7 M378.6,130.7L376,126 M376,126l-17.2,2.4 M358.8,128.4l-2.8,5.6 M355.9,134l-19.6-3.4 M336.3,130.7l-38.7,7.5
		 M297.6,138.2l-3-5.4 M294.6,132.8l-16.2,0 M278.4,132.8l-2.9,6.1 M275.5,139l-8.5,0.7 M267,139.7l-4.6-9.9 M262.4,129.8l-29.8-4.6
		 M232.6,125.2l-3.6,6.5 M229.1,131.7l-78.4,4.9 M150.7,136.6l-2.6,11.4 M148.2,148l-8.4,0.2 M139.8,148.2l-3.5-5.5 M136.3,142.8
		l-14.5,2 M121.7,144.7l-4.4,5.8 M117.3,150.5L73.7,147 M73.7,147l-4.6-19.3 M69.2,127.7l6.5-5.8 M75.7,121.9l-3.1-14.3 M72.6,107.6
		l-4.2-2 M68.4,105.6l-3.6-56.1 M64.8,49.5l5.7-18.6 M70.5,30.9L66,25.2 M66,25.2l1.6-21 M67.6,4.2l-35.4,2 M32.2,6.2l-5.8-4.4
		 M26.4,1.8l-6.6,11 M19.7,12.8l-5.4-6.4 M14.4,6.4L17,36.7 M17,36.7L0.7,39.3 M0.7,39.3l1.7,20.2 M2.5,59.6l8.7,3 M11.2,62.6
		l2.3,31.8 M13.5,94.4l-8.6,5.9 M4.8,100.3l1.8,22.3 M6.6,122.6l15.3-0.8 M21.9,121.9l1.6,20.7 M23.6,142.6l9.7,1.1 M33.2,143.7
		l-2.8,28.6 M30.5,172.3l-6.2,2.3 M24.2,174.6l0.1,23 M24.3,197.6l19-1 M43.3,196.6l2.8-7.7 M46.1,188.9l19.7-1.9 M65.8,187l4.2,4.6
		 M70,191.6l-0.8,8.2 M69.2,199.8l7.5,1.7 M76.7,201.5l2.2,13.5 M78.9,215l20.7-1.6 M99.6,213.4l1.8-7.9 M101.4,205.4l18-1.2
		 M119.4,204.2l5-8.3 M124.4,196l32.3-2.2 M156.7,193.8l7.3,6.9 M164,200.7l19.7-3.9 M183.7,196.7l3.8-7.5 M187.5,189.2l31.8-2.3
		 M219.3,186.9l3.8,8.7 M223.1,195.6l28.2-2.6 M251.3,193.1l-1.3-8.1 M250,184.9l5.5-8.2 M255.5,176.8l9.6,1.6 M265.1,178.4
		l-0.3,8.3 M264.8,186.7l21.2-1.5 M286,185.2l1.2,13.3 M287.2,198.5l3.6,2.4 M290.8,200.9l20.2-1.7 M311.1,199.1l1.4-8.6
		 M312.5,190.6l32.8-2.1 M345.3,188.5l12.9,7.6 M358.2,196.1l15.1,0.2 M373.3,196.4l1.8-17.4"/>
</g>
<g>
	<g>
		<line class="st1" x1="418.8" y1="146.5" x2="450.1" y2="146.5"/>
		<g>
			<polygon points="447.1,150.4 448.8,146.5 447.1,142.6 456.3,146.5 			"/>
		</g>
	</g>
</g>
<g>
	<path class="st2" d="M853.4,173.7l-3.1-48.9 M850.4,124.8l-20.5,1.3 M829.9,126.1l-0.2-3 M829.7,123l-20,1.3 M809.6,124.3l0.3,4
		 M809.9,128.3l-61.3,3.8 M748.6,132.1l-0.2-3.4 M748.4,128.7l-19.1,1.2 M729.3,129.9l0.3,5.5 M729.6,135.4l-12.1,0.8 M717.5,136.2
		l-0.8-13.3 M716.6,122.9l-33.3,2.1 M683.3,125l0.2,3.1 M683.5,128l-82,5.1 M601.6,133.2l0.7,11.1 M602.3,144.2l-11.6,0.7
		 M590.7,145l-0.3-5.3 M590.4,139.7l-18.5,1.2 M571.8,140.8l0.2,2.9 M572,143.7l-47.3,3 M524.8,146.7l-1.6-25.3 M523.2,121.4
		l4.1-0.3 M527.3,121.1l-1.1-18.2 M526.1,102.9l-4.4,0.3 M521.7,103.2L515.3,0.7 M515.3,0.7l-46.7,2.9 M468.6,3.7l1.9,30.3
		 M470.5,33.9L453.4,35 M453.4,35l1.4,22.8 M454.9,57.8l8.9-0.6 M463.7,57.3l2.3,36.3 M466,93.5l-8.6,0.5 M457.4,94.1l1.6,25.1
		 M459,119.2l15.7-1 M474.6,118.2l1.4,21.7 M476,139.9l7.5-0.5 M483.4,139.5l1.9,30.1 M485.3,169.6l-9.3,0.6 M476,170.2l1.5,23.9
		 M477.5,194.1l19.9-1.2 M497.4,192.8l-0.5-7.7 M497,185.1l24.2-1.5 M521.1,183.6l0.9,13.7 M522,197.3l7.8-0.5 M529.8,196.8
		l0.9,14.5 M530.7,211.3l22.5-1.4 M553.2,209.9l-0.5-8 M552.7,201.9l21.9-1.4 M574.6,200.6l-0.5-8 M574.1,192.5l38.5-2.4
		 M612.6,190.1l0.4,5.9 M613,196l25.4-1.6 M638.4,194.4l-0.5-8.7 M637.9,185.7l35.6-2.2 M673.4,183.4l0.5,8.4 M674,191.8l31-1.9
		 M705,189.8l-1-15.3 M704,174.6l13.1-0.8 M717.1,173.8l0.6,9.2 M717.7,183l21-1.3 M738.7,181.7l1,15.6 M739.7,197.3l24.9-1.6
		 M764.5,195.7l-0.4-6.7 M764.1,189l62.6-3.9 M826.7,185.1l-0.6-9.7"/>
</g>
</svg>
