<?xml version="1.0" encoding="utf-8"?>
<!-- Generator: Adobe Illustrator 24.0.3, SVG Export Plug-In . SVG Version: 6.00 Build 0)  -->
<svg version="1.1" id="Layer_1" xmlns="http://www.w3.org/2000/svg" xmlns:xlink="http://www.w3.org/1999/xlink" x="0px" y="0px"
	 width="1048px" height="301.4px" viewBox="0 0 1048 301.4" style="enable-background:new 0 0 1048 301.4;" xml:space="preserve">
<style type="text/css">
	.st0{fill:none;stroke:#0D7A0A;stroke-width:1.5;stroke-linecap:round;stroke-linejoin:round;stroke-miterlimit:10;}
	.st1{fill:none;stroke:#B70909;stroke-width:1.5;stroke-linecap:round;stroke-linejoin:round;stroke-miterlimit:10;}
	.st2{fill:none;stroke:#F9C316;stroke-width:1.5;stroke-linecap:round;stroke-linejoin:round;stroke-miterlimit:10;}
	.st3{fill:none;stroke:#000000;stroke-width:1.5;stroke-linecap:round;stroke-linejoin:round;}
	.st4{fill:none;stroke:#020202;stroke-width:1.5;stroke-linecap:round;stroke-linejoin:round;stroke-miterlimit:10;}
	.st5{font-family:'ArialMT';}
	.st6{font-size:12px;}
</style>
<g>
	<path class="st0" d="M737.1,284.3l-1.2-44.8 M960,141.7l-0.6-22 M751.7,221.9l-3.4-128 M777.3,193.8l-14.2,0.3 M904.8,182.7
		l-28.6,0.8 M942,161.2l-40.1,1 M1043.2,41.6l-270.8,7.2 M1033.3,193.5l-3.8-140.1 M946.1,264.2l-2.7-102.5 M1047.2,194L1043.6,55
		 M836.8,237.6l-104.5,2.8 M761.8,221.5l-0.7-25.8 M837.7,242.4l-2.1-79.5 M968.6,142.9l-7.6,0.2 M1005.1,247.5l-48.3,1.3
		 M939.5,115.2l-160.6,4.3 M1020.2,262.3L1015.8,93 M855,91.8l-78.6,2.1 M872.9,174.9l-21.9,0.6 M1002.8,248.9l-2-76.7 M750.5,222.4
		l-19.4,0.5 M874.8,183.4l-0.3-8.8 M1019.4,262.6l-60.6,1.6 M957.2,263.8l-0.4-15.2 M1043.3,30.5l-259.9,6.9 M929.7,247.5l-1.9-71.9
		 M928.3,249.5l-73.9,1.9 M832.2,252l-82.7,2.2 M734.3,222.6l-3.5-128.4 M943.7,264.6l-104.5,2.8 M1004.1,100.2l-48.2,1.3
		 M1002.3,172.2l-45.4,1.2 M1015.9,90.8l-60.2,1.6 M960.9,178.4l-0.7-25.3 M852.3,249.2l-1.9-71.9 M906.1,93.7l-8.4,0.3
		 M750.5,300.6l-1.1-43.8 M900,157.3l-21.1,0.5 M766.6,56.9l-0.3-8.3 M1044.5,56.5l-15,0.4 M1002.9,157.1l-42,1.1 M1005.5,159.9
		l-1.6-57.9 M902.1,183.3l-0.3-9 M822.9,220.5l-60.6,1.6 M1044.7,190.7l-9.5,0.3 M879.3,157.9l-42.1,1.1 M924.3,174.2l-18.7,0.5
		 M892.2,76.7l-35.8,0.9 M777.3,121.7l-0.7-26.9 M821.5,192.6l-38.5,1 M824.5,218.2l-0.6-24.6 M746.4,94.7l-14.7,0.4 M969.4,141.1
		l-0.2-8 M1043.2,42.7l-0.3-9.9 M969.1,129.7l-0.3-11.4 M942.3,92.7L912,93.5 M942.9,116.9l-0.6-22.2 M1036.9,189.9l-8.2-0.3
		 M856.4,92.2l-0.3-13.1 M985.9,157.5l-9.2,0.3 M897.4,88.5l-0.3-13.8 M737.4,292.9l-0.4-17.2 M900.7,162.2l-0.2-5.3 M760.4,56
		l-0.2-7.8 M971.4,118.1l-10.4,0.3"/>
</g>
<g>
	<path class="st1" d="M7.4,239.3l0.3,44.8 M230.5,141.5l0.7-22 M19.3,93.7l3.1,128 M34,193.4l14.1-1.4 M147.1,183.5l28.6-1.2
		 M172.8,162l40.1-1.1 M43.4,46.1L314.3,44 M298.3,53.4l8.3,139.9 M214.8,161.5l1.7,102.5 M315,54.9l2,138.9 M3.3,239.6l104.6-1.6
		 M32.3,221.3l0.2-25.8 M106.4,162.6l2.3,79.5 M232,142.8l7.6,0.2 M227.8,246.5l48.3-1.3 M49.9,121.6l160.5-8.9 M287.1,92.8
		l3.4,169.4 M47.3,93.8l78.7-0.3 M122,175.8l21.8-1.6 M275.2,172.1l-4.8,76.7 M2,222.7l19.4-0.3 M145.3,174.4l0.5,8.8 M229.8,264.9
		l60.6-1.2 M227.8,248.4l0.3,15.2 M54.3,36.7l260-6 M199.2,175.4l0.9,71.9 M125.3,249.2l73.9-2.6 M20.6,256l82.7-1.1 M0.8,94.2
		l0.7,128.4 M110.1,264.6l104.6,0.3 M226.9,100.8l48.2-0.3 M228.3,177.8l44.8-7.6 M226.7,93.7l60.1-3.5 M227.4,177.6l8.2-23.9
		 M121.8,177.3l0.9,71.9 M169.1,91.1l7.6,3.6 M19.1,256.7l3.8,43.7 M149.9,155.4l21.1-0.3 M37.1,48.4l1,8.2 M301.4,59.9l13.3-6.8
		 M232.2,156.3l41.6,6.4 M273.5,101.9l4.6,57.7 M175.4,174.1l0.2,9 M33.2,221.9l60.6-1.9 M307.4,193.8l7.2-6.3 M108.2,162.5
		l41.9-4.2 M176.4,173.3l18.7-0.5 M127.3,78l35.8-1.8 M47.3,94.7l1.1,26.9 M53.9,195.2l38.5-2.3 M94.1,193.5l2.2,24.5 M2.7,93.8
		l14.7,0.1 M240.5,133l1.8,7.8 M314.4,42.6l-0.2-9.9 M237.4,129.3l2.9-11.1 M183,93.3l30.4-0.3 M213.5,94.5l0.1,22.3 M300.1,187.7
		l7.4,3.5 M126.3,78.9l1.7,13 M247.8,155.7l9.2-0.5 M165.4,74.7l0.7,13.8 M6.2,276.7l8.6,14.8 M172,156.8l-1,5.2 M29.9,55.6l2.4-7.4
		 M232.1,118.2l10.4-0.3"/>
</g>
<g>
	<path class="st2" d="M374.6,283.5l-1.2-44.6 M595.9,141.8l-0.6-21.9 M388.9,221.4l-3.4-127.1 M414.3,192.6l-14.1,0.3 M540.9,182.5
		l-28.4,0.8 M578,161.2l-39.9,1 M678.5,42.5l-269,7.2 M668.5,193.3l-3.7-139.1 M581.9,263.5l-2.7-101.8 M682,193.8l-3.7-138
		 M473.5,237.1l-103.8,2.8 M398.9,221.1l-0.7-25.6 M474.4,241.8l-2.1-79 M604.4,143.1l-7.5,0.2 M640.6,244.9l-48.1,1.3 M575.5,115.6
		l-159.6,4.2 M655.6,261.6l-4.4-168.1 M491.6,93.3l-78.1,2.1 M509.3,174.9l-21.7,0.6 M638.4,248.4l-2-76.2 M387.7,222.2l-19.3,0.5
		 M511.1,183.3l-0.3-8.8 M655,263l-60.2,1.6 M593.1,263.1l-0.4-15.1 M678.5,31.4l-258.1,6.8 M565.8,246.9l-1.9-71.4 M564.3,246.5
		l-73.3,1.9 M469,254l-82.1,2.2 M369.1,222.3l-3.4-127.5 M579.7,262.9l-103.8,2.8 M639.6,100.6l-47.9,1.3 M638,173.5l-45.2,1.2
		 M651.3,91.7l-59.7,1.6 M596.6,178.4l-0.7-25.1 M488.8,248.7l-1.9-71.3 M542.4,93.5l-8.4,0.3 M387.9,299.7l-1.1-43.5 M536.3,155.2
		l-20.9,0.5 M403.9,57.6l-0.2-8.2 M679.8,57.2l-14.9,0.4 M638.6,159.2l-41.8,1.1 M641,159.9l-1.5-57.6 M540.9,183.1l-0.3-8.9
		 M459.6,219.9l-60.2,1.6 M680.1,190.6l-9.5,0.3 M515.6,160l-41.9,1.1 M560.4,172.9l-18.7,0.5 M528.5,77.4l-35.6,1 M414.4,122
		l-0.7-26.7 M458.3,193.5l-38.3,1 M461.2,217.9l-0.6-24.4 M383.7,94.4l-14.6,0.3 M606.3,141.3l-0.2-7.9 M678.7,43.5l-0.2-9.9
		 M603.7,129.9l-0.3-11.3 M578.4,93.4l-30.2,0.8 M578.9,117.2l-0.6-22.1 M672.3,189.6l-8.1-0.3 M493,92.6l-0.3-13 M621.7,155.5
		l-9.1,0.3 M531.2,89.1l-0.3-13.7 M377.1,292l-0.4-17 M537,162.2l-0.2-5.2 M397.5,56.8l-0.2-7.8 M607.2,118.4l-10.3,0.3"/>
</g>
<g>
	<g>
		<line class="st3" x1="329.9" y1="157.9" x2="351.1" y2="157.9"/>
		<g>
			<polygon points="348.7,160.9 349.9,157.9 348.7,154.8 356,157.9 			"/>
		</g>
	</g>
</g>
<g>
	<g>
		<line class="st3" x1="694.2" y1="157.9" x2="715.5" y2="157.9"/>
		<g>
			<polygon points="713,160.9 714.5,157.9 713,154.8 720.4,157.9 			"/>
		</g>
	</g>
</g>
<line class="st4" x1="515" y1="18.9" x2="536.8" y2="18.8"/>
<text transform="matrix(1 0 0 1 486.6978 10.2979)" class="st5 st6">25 unit lengths</text>
</svg>
