<?xml version="1.0" encoding="utf-8"?>
<!-- Generator: Adobe Illustrator 24.0.3, SVG Export Plug-In . SVG Version: 6.00 Build 0)  -->
<svg version="1.1" id="Layer_1" xmlns="http://www.w3.org/2000/svg" xmlns:xlink="http://www.w3.org/1999/xlink" x="0px" y="0px"
	 width="110.9px" height="121.5px" viewBox="0 0 110.9 121.5" style="enable-background:new 0 0 110.9 121.5;" xml:space="preserve"
	>
<style type="text/css">
	.st0{fill:none;stroke:#B70909;stroke-width:1.5;stroke-linecap:round;stroke-linejoin:round;stroke-miterlimit:10;}
	.st1{fill:none;stroke:#0D7A0A;stroke-width:1.5;stroke-linecap:round;stroke-linejoin:round;stroke-miterlimit:10;}
	.st2{fill:none;stroke:#F9C316;stroke-width:1.5;stroke-linecap:round;stroke-linejoin:round;stroke-miterlimit:10;}
</style>
<g>
	<line class="st0" x1="105" y1="120.6" x2="108.9" y2="97.6"/>
	<line class="st0" x1="108.9" y1="97.6" x2="106" y2="89.3"/>
	<line class="st0" x1="106" y1="89.3" x2="110.1" y2="68.8"/>
	<line class="st0" x1="110.1" y1="68.8" x2="99.2" y2="37.3"/>
	<line class="st0" x1="99.2" y1="37.3" x2="87.1" y2="40.1"/>
	<line class="st0" x1="87.1" y1="40.1" x2="85" y2="38"/>
	<line class="st0" x1="85" y1="38" x2="93.2" y2="21.7"/>
	<line class="st0" x1="93.2" y1="21.7" x2="82.6" y2="17.4"/>
	<line class="st0" x1="82.6" y1="17.4" x2="58.2" y2="65"/>
	<line class="st0" x1="58.2" y1="65" x2="54.5" y2="67.1"/>
	<line class="st0" x1="54.5" y1="67.1" x2="53.5" y2="63.9"/>
	<line class="st0" x1="53.5" y1="63.9" x2="79" y2="15.7"/>
	<line class="st0" x1="79" y1="15.7" x2="76.4" y2="12.3"/>
	<line class="st0" x1="76.4" y1="12.3" x2="52.5" y2="0.8"/>
	<line class="st0" x1="52.5" y1="0.8" x2="31" y2="42.5"/>
	<line class="st0" x1="31" y1="42.5" x2="24.8" y2="46.4"/>
	<line class="st0" x1="24.8" y1="46.4" x2="26.5" y2="50.4"/>
	<line class="st0" x1="26.5" y1="50.4" x2="15.5" y2="48.6"/>
	<line class="st0" x1="15.5" y1="48.6" x2="0.8" y2="77"/>
	<line class="st0" x1="0.8" y1="77" x2="47.9" y2="101.9"/>
	<line class="st0" x1="47.9" y1="101.9" x2="60.1" y2="78.4"/>
	<line class="st0" x1="60.1" y1="78.4" x2="64.6" y2="76.6"/>
	<line class="st0" x1="64.6" y1="76.6" x2="79.8" y2="49.9"/>
	<line class="st0" x1="79.8" y1="49.9" x2="88.5" y2="74"/>
	<line class="st0" x1="88.5" y1="74" x2="86.4" y2="89.8"/>
	<line class="st0" x1="86.4" y1="89.8" x2="72.7" y2="89.7"/>
	<line class="st0" x1="72.7" y1="89.7" x2="68.7" y2="114.8"/>
	<line class="st0" x1="68.7" y1="114.8" x2="86.7" y2="120.8"/>
	<line class="st0" x1="86.7" y1="120.8" x2="105" y2="120.6"/>
</g>
<g>
	<line class="st1" x1="104.7" y1="120.8" x2="108.6" y2="93"/>
	<line class="st1" x1="108.6" y1="93" x2="105.8" y2="92.6"/>
	<line class="st1" x1="105.8" y1="92.6" x2="109.4" y2="66.9"/>
	<line class="st2" x1="109.4" y1="66.9" x2="98.7" y2="36.6"/>
	<line class="st1" x1="98.7" y1="36.6" x2="86.7" y2="40.9"/>
	<line class="st1" x1="86.7" y1="40.9" x2="85.3" y2="37"/>
	<line class="st1" x1="85.3" y1="37" x2="92.9" y2="22.3"/>
	<line class="st1" x1="92.9" y1="22.3" x2="82.9" y2="17.1"/>
	<line class="st1" x1="82.9" y1="17.1" x2="57.5" y2="66.1"/>
	<line class="st1" x1="57.5" y1="66.1" x2="53.7" y2="64.1"/>
	<line class="st1" x1="53.7" y1="64.1" x2="79.5" y2="14.5"/>
	<line class="st1" x1="79.5" y1="14.5" x2="53" y2="0.8"/>
	<line class="st1" x1="53" y1="0.8" x2="27.9" y2="49.1"/>
	<line class="st1" x1="27.9" y1="49.1" x2="26.2" y2="48.2"/>
	<line class="st1" x1="26.2" y1="48.2" x2="24.8" y2="50.9"/>
	<line class="st1" x1="24.8" y1="50.9" x2="17" y2="46.9"/>
	<line class="st1" x1="17" y1="46.9" x2="1.5" y2="76.6"/>
	<line class="st2" x1="1.5" y1="76.6" x2="48.3" y2="101"/>
	<line class="st1" x1="48.3" y1="101" x2="61.2" y2="76.3"/>
	<line class="st1" x1="61.2" y1="76.3" x2="64.4" y2="78"/>
	<line class="st1" x1="64.4" y1="78" x2="79.6" y2="48.8"/>
	<line class="st1" x1="79.6" y1="48.8" x2="88.4" y2="73.8"/>
	<line class="st1" x1="88.4" y1="73.8" x2="86.2" y2="90"/>
	<line class="st1" x1="86.2" y1="90" x2="72.7" y2="88.1"/>
	<line class="st2" x1="72.7" y1="88.1" x2="68.8" y2="115.7"/>
	<line class="st1" x1="68.8" y1="115.7" x2="104.7" y2="120.8"/>
</g>
</svg>
