<?xml version="1.0" encoding="utf-8"?>
<!-- Generator: Adobe Illustrator 24.0.3, SVG Export Plug-In . SVG Version: 6.00 Build 0)  -->
<svg version="1.1" id="Layer_1" xmlns="http://www.w3.org/2000/svg" xmlns:xlink="http://www.w3.org/1999/xlink" x="0px" y="0px"
	 width="492.3px" height="231px" viewBox="0 0 492.3 231" style="enable-background:new 0 0 492.3 231;" xml:space="preserve">
<style type="text/css">
	.st0{fill:none;stroke:#B62126;stroke-width:2;stroke-miterlimit:10;}
	.st1{fill:none;stroke:#384C9F;stroke-width:2;stroke-miterlimit:10;}
	.st2{fill:none;stroke:#000000;stroke-width:2;stroke-miterlimit:10;}
	.st3{fill:none;stroke:#157C3E;stroke-width:2;stroke-miterlimit:10;}
	.st4{fill:none;stroke:#B62227;stroke-width:2;stroke-miterlimit:10;}
	.st5{fill:none;stroke:#384D9F;stroke-width:2;stroke-miterlimit:10;}
	.st6{fill:none;stroke:#157D3F;stroke-width:2;stroke-miterlimit:10;}
	.st7{fill:none;stroke:#000000;stroke-miterlimit:10;}
</style>
<line class="st0" x1="10.3" y1="220.8" x2="166.7" y2="220.8"/>
<line class="st0" x1="114.6" y1="210.4" x2="218.8" y2="210.4"/>
<line class="st1" x1="62.4" y1="168.7" x2="114.6" y2="116.5"/>
<line class="st2" x1="10.3" y1="116.5" x2="62.4" y2="64.4"/>
<line class="st2" x1="114.6" y1="64.4" x2="10.3" y2="12.3"/>
<line class="st1" x1="166.7" y1="64.4" x2="218.8" y2="12.3"/>
<line class="st3" x1="166.7" y1="168.7" x2="166.7" y2="95.7"/>
<line class="st3" x1="177.1" y1="147.8" x2="177.1" y2="116.5"/>
<line class="st4" x1="271.4" y1="219.2" x2="479.9" y2="219.2"/>
<line class="st5" x1="323.5" y1="170.3" x2="479.9" y2="13.9"/>
<line class="st2" x1="271.4" y1="118.1" x2="323.5" y2="66"/>
<line class="st2" x1="375.6" y1="66" x2="271.4" y2="13.9"/>
<line class="st6" x1="429.4" y1="170.3" x2="429.4" y2="97.3"/>
<rect x="0.5" y="0.5" class="st7" width="230" height="230"/>
<rect x="261.8" y="0.5" class="st7" width="230" height="230"/>
</svg>
