/* XPM */
static const char *demo_rayshoot_down_xpm[] = {
/* width height ncolors chars_per_pixel */
"32 32 6 1",
/* colors */
"  c #000000",
". c #C0C0C0",
"X c #008080",
"o c #FF0000",
"O c #808080",
"+ c None",
/* pixels */
"++++++++++++++++++++++++++++++++",
"++++++++++++++++++++++++++++++++",
"+++++++++++++++++++oo+++++++++++",
"++++++++++++++++++oooo++++++++++",
"++++++++++++++++++oooo++++++++++",
"+++++++++++++++++++oo+++++++++++",
"++++++++++++++++++++++++++++++++",
"++++++++++++++++++++++++++++++++",
"+++++++++++++++++++XX+++++++++++",
"+++++++++++++++++++XX+++++++++++",
"+++++++++++++++++++XX+++++++++++",
"++++++++++++++++++++++++++++++++",
"+++++++++++++++++++XX+++++++++++",
"+++++++++++++++++++XX+++++++++++",
"+++++++++++++++++++XX+++++++++++",
"++++++++++++++++++++++++++++++++",
"+++++++++++++++++++XX+++++++++++",
"+++++++++++++++++++XX+++++++++++",
"+++++++++++++++++++XX+++++++++++",
"++++++++++++++++++++++++++++++++",
"+++++++++++++++++.+XX+.+++++++++",
"+++++++++++++++++X+XX+X+++++++++",
"+++++++++++++++++XXXXXX+++++++++",
"++++++++++++++++++XXXX++++++++++",
"++    OO.+++++++++.XX.++++++++++",
"++         OO.+++++XX+++++++++++",
"+++++++.OO      OO.+++++++++++++",
"++++++++++++.OO      OO.++++++++",
"+++++++++++++++++.OO        ++++",
"++++++++++++++++++++++.OO   ++++",
"++++++++++++++++++++++++++++++++",
"++++++++++++++++++++++++++++++++"
};
