<?xml version="1.0" encoding="UTF-8" standalone="no"?>
<!DOCTYPE svg PUBLIC "-//W3C//DTD SVG 1.1//EN" "http://www.w3.org/Graphics/SVG/1.1/DTD/svg11.dtd">
<svg width="866.95" height="665.7" viewBox="0 0 867 666" version="1.1" xmlns="http://www.w3.org/2000/svg" xmlns:xlink="http://www.w3.org/1999/xlink" xml:space="preserve" xmlns:serif="http://www.serif.com/" style="fill-rule:evenodd;clip-rule:evenodd;stroke-linecap:round;stroke-linejoin:round;">
    <g id="Lienzo_5">
        <rect x="0" y="0" width="866.95" height="665.7" style="fill:white;"/>
        <g id="Lienzo_5_Capa_1">
            <g id="Graphic_8">
                <path d="M70.35,0.35L79.1,17.85L140.35,35.35L105.35,87.85L52.85,52.85L79.1,17.85L70.35,0.35L26.6,44.1L52.85,122.85L140.35,114.1L175.35,17.85L70.35,0.35Z" style="fill:rgb(64,255,64);fill-rule:nonzero;"/>
                <path d="M70.35,0.35L79.1,17.85L140.35,35.35L105.35,87.85L52.85,52.85L79.1,17.85L70.35,0.35L26.6,44.1L52.85,122.85L140.35,114.1L175.35,17.85L70.35,0.35Z" style="fill:none;fill-rule:nonzero;stroke:black;stroke-width:0.7px;"/>
            </g>
            <g id="Graphic_9">
                <path d="M280.35,0.35L236.6,44.1L262.85,122.85L350.35,114.1L385.35,17.85L280.35,0.35Z" style="fill:rgb(64,255,64);fill-rule:nonzero;"/>
                <path d="M280.35,0.35L236.6,44.1L262.85,122.85L350.35,114.1L385.35,17.85L280.35,0.35Z" style="fill:none;fill-rule:nonzero;stroke:black;stroke-width:0.7px;"/>
            </g>
            <g id="Graphic_10">
                <path d="M280.35,17.85L254.1,52.85L306.6,87.85L341.6,35.35L280.35,17.85Z" style="fill:white;fill-rule:nonzero;stroke:rgb(255,0,0);stroke-width:0.7px;stroke-linecap:butt;stroke-miterlimit:2;"/>
                <path d="M280.35,17.85L254.1,52.85L306.6,87.85L341.6,35.35L280.35,17.85Z" style="fill:none;fill-rule:nonzero;stroke:rgb(255,0,0);stroke-width:0.7px;"/>
            </g>
            <g id="Graphic_11">
                <path d="M525.35,0.35L481.6,44.1L507.85,122.85L595.35,114.1L630.35,17.85L525.35,0.35Z" style="fill:rgb(64,255,64);fill-rule:nonzero;"/>
                <path d="M525.35,0.35L481.6,44.1L507.85,122.85L595.35,114.1L630.35,17.85L525.35,0.35Z" style="fill:none;fill-rule:nonzero;stroke:black;stroke-width:0.7px;"/>
            </g>
            <g id="Graphic_13">
                <path d="M735.35,0.35L840.35,17.85L805.35,114.1L717.85,122.85L691.6,44.1L761.6,87.85L796.6,35.35L735.35,0.35Z" style="fill:rgb(64,255,64);fill-rule:nonzero;"/>
                <path d="M735.35,0.35L840.35,17.85L805.35,114.1L717.85,122.85L691.6,44.1L761.6,87.85L796.6,35.35L735.35,0.35Z" style="fill:none;fill-rule:nonzero;stroke:black;stroke-width:0.7px;"/>
            </g>
            <g id="Graphic_14">
                <path d="M70.35,175.35L26.6,219.1L52.85,297.85L140.35,289.1L175.35,192.85L70.35,175.35Z" style="fill:rgb(64,255,64);fill-rule:nonzero;"/>
                <path d="M70.35,175.35L26.6,219.1L52.85,297.85L140.35,289.1L175.35,192.85L70.35,175.35Z" style="fill:none;fill-rule:nonzero;stroke:black;stroke-width:0.7px;"/>
            </g>
            <g id="Graphic_15">
                <path d="M70.35,175.35L26.6,219.1L0.35,201.6L70.35,149.1L70.35,175.35Z" style="fill:none;fill-rule:nonzero;stroke:rgb(255,0,0);stroke-width:0.7px;"/>
            </g>
            <g id="Graphic_16">
                <path d="M525.35,0.35L481.6,44.1L551.6,87.85L586.6,35.35L525.35,0.35Z" style="fill:white;fill-rule:nonzero;stroke:rgb(255,0,0);stroke-width:0.7px;stroke-linecap:butt;stroke-miterlimit:2;"/>
                <path d="M525.35,0.35L481.6,44.1L551.6,87.85L586.6,35.35L525.35,0.35Z" style="fill:none;fill-rule:nonzero;stroke:rgb(255,0,0);stroke-width:0.7px;"/>
                <path d="M525.35,0.35L481.6,44.1" style="fill:none;stroke:black;stroke-width:0.7px;stroke-linecap:butt;stroke-miterlimit:1.5;stroke-dasharray:2.1,2.1,0,0;"/>
            </g>
            <g id="Graphic_12">
                <path d="M70.35,175.35L26.6,219.1L52.85,236.6L70.35,219.1L70.35,175.35Z" style="fill:white;fill-rule:nonzero;stroke:rgb(255,0,0);stroke-width:0.7px;stroke-linecap:butt;stroke-miterlimit:2;"/>
                <path d="M70.35,175.35L26.6,219.1L52.85,236.6L70.35,219.1L70.35,175.35Z" style="fill:none;fill-rule:nonzero;stroke:rgb(255,0,0);stroke-width:0.7px;"/>
                <path d="M70.35,175.35L26.6,219.1" style="fill:none;stroke:black;stroke-width:0.7px;stroke-miterlimit:1.5;"/>
            </g>
            <g id="Graphic_17">
                <path d="M280.35,175.35L236.6,219.1L262.85,297.85L350.35,289.1L385.35,192.85L280.35,175.35Z" style="fill:rgb(64,255,64);fill-rule:nonzero;"/>
                <path d="M280.35,175.35L236.6,219.1L262.85,297.85L350.35,289.1L385.35,192.85L280.35,175.35Z" style="fill:none;fill-rule:nonzero;stroke:black;stroke-width:0.7px;"/>
            </g>
            <g id="Graphic_18">
                <path d="M280.35,175.35L236.6,219.1L210.35,201.6L280.35,149.1L280.35,175.35Z" style="fill:rgb(64,255,64);fill-rule:nonzero;"/>
                <path d="M280.35,175.35L236.6,219.1L210.35,201.6L280.35,149.1L280.35,175.35Z" style="fill:none;fill-rule:nonzero;stroke:black;stroke-width:0.7px;"/>
            </g>
            <g id="Graphic_19">
                <path d="M280.35,175.35L236.6,219.1L262.85,236.6L280.35,219.1L280.35,175.35Z" style="fill:white;fill-rule:nonzero;stroke:rgb(255,0,0);stroke-width:0.7px;stroke-linecap:butt;stroke-miterlimit:2;"/>
                <path d="M280.35,175.35L236.6,219.1L262.85,236.6L280.35,219.1L280.35,175.35Z" style="fill:none;fill-rule:nonzero;stroke:rgb(255,0,0);stroke-width:0.7px;"/>
            </g>
            <g id="Graphic_20">
                <path d="M70.35,350.35L26.6,394.1L52.85,472.85L140.35,464.1L175.35,367.85L70.35,350.35Z" style="fill:rgb(64,255,64);fill-rule:nonzero;"/>
                <path d="M70.35,350.35L26.6,394.1L52.85,472.85L140.35,464.1L175.35,367.85L70.35,350.35Z" style="fill:none;fill-rule:nonzero;stroke:black;stroke-width:0.7px;"/>
            </g>
            <g id="Graphic_21">
                <path d="M70.35,367.85L44.1,402.85L96.6,437.85L131.6,385.35L70.35,367.85Z" style="fill:rgb(64,255,64);fill-rule:nonzero;"/>
                <path d="M70.35,367.85L44.1,402.85L96.6,437.85L131.6,385.35L70.35,367.85Z" style="fill:none;fill-rule:nonzero;stroke:black;stroke-width:0.7px;"/>
            </g>
            <g id="Graphic_22">
                <path d="M280.35,350.35L236.6,394.1L262.85,472.85L350.35,464.1L385.35,367.85L280.35,350.35Z" style="fill:rgb(64,255,64);fill-rule:nonzero;"/>
                <path d="M280.35,350.35L236.6,394.1L262.85,472.85L350.35,464.1L385.35,367.85L280.35,350.35Z" style="fill:none;fill-rule:nonzero;stroke:black;stroke-width:0.7px;"/>
            </g>
            <g id="Graphic_23">
                <path d="M280.35,367.85L254.1,402.85L306.6,437.85L341.6,385.35L280.35,367.85Z" style="fill:white;fill-rule:nonzero;stroke:rgb(255,0,0);stroke-width:0.7px;stroke-linecap:butt;stroke-miterlimit:2;"/>
                <path d="M280.35,367.85L254.1,402.85L306.6,437.85L341.6,385.35L280.35,367.85Z" style="fill:none;fill-rule:nonzero;stroke:rgb(255,0,0);stroke-width:0.7px;"/>
            </g>
            <g id="Graphic_24">
                <path d="M525.35,350.35L481.6,394.1L507.85,472.85L595.35,464.1L595.35,367.85L525.35,350.35Z" style="fill:rgb(64,255,64);fill-rule:nonzero;"/>
                <path d="M525.35,350.35L481.6,394.1L507.85,472.85L595.35,464.1L595.35,367.85L525.35,350.35Z" style="fill:none;fill-rule:nonzero;stroke:black;stroke-width:0.7px;"/>
            </g>
            <g id="Graphic_25">
                <path d="M595.35,411.6L595.35,464.1L630.35,437.85L630.35,394.1L595.35,411.6Z" style="fill:rgb(64,255,64);fill-rule:nonzero;"/>
                <path d="M595.35,411.6L595.35,464.1L630.35,437.85L630.35,394.1L595.35,411.6Z" style="fill:none;fill-rule:nonzero;stroke:black;stroke-width:0.7px;"/>
            </g>
            <g id="Graphic_26">
                <path d="M691.6,394.1L717.85,472.85L805.35,464.1L840.35,437.85L840.35,394.1L805.35,411.6L805.35,367.85L735.35,350.35L691.6,394.1Z" style="fill:rgb(64,255,64);fill-rule:nonzero;"/>
                <path d="M691.6,394.1L717.85,472.85L805.35,464.1L840.35,437.85L840.35,394.1L805.35,411.6L805.35,367.85L735.35,350.35L691.6,394.1Z" style="fill:none;fill-rule:nonzero;stroke:black;stroke-width:0.7px;"/>
            </g>
            <g id="Graphic_27">
                <path d="M96.6,525.35L52.85,569.1L79.1,647.85L166.6,639.1L201.6,542.85L96.6,525.35Z" style="fill:rgb(64,255,64);fill-rule:nonzero;"/>
                <path d="M96.6,525.35L52.85,569.1L79.1,647.85L166.6,639.1L201.6,542.85L96.6,525.35Z" style="fill:none;fill-rule:nonzero;stroke:black;stroke-width:0.7px;"/>
            </g>
            <g id="Graphic_28">
                <path d="M96.6,525.35L52.85,569.1L26.6,551.6L96.6,499.1L96.6,525.35Z" style="fill:rgb(64,255,64);fill-rule:nonzero;"/>
                <path d="M96.6,525.35L52.85,569.1L26.6,551.6L96.6,499.1L96.6,525.35Z" style="fill:none;fill-rule:nonzero;stroke:black;stroke-width:0.7px;"/>
            </g>
            <g id="Graphic_29">
                <path d="M96.6,525.35L52.85,569.1L79.1,586.6L96.6,569.1L96.6,525.35Z" style="fill:rgb(64,255,64);fill-rule:nonzero;"/>
                <path d="M96.6,525.35L52.85,569.1L79.1,586.6L96.6,569.1L96.6,525.35Z" style="fill:none;fill-rule:nonzero;stroke:black;stroke-width:0.7px;"/>
            </g>
            <g id="Graphic_30">
                <path d="M306.6,525.35L262.85,569.1L289.1,647.85L376.6,639.1L411.6,542.85L306.6,525.35Z" style="fill:rgb(64,255,64);fill-rule:nonzero;"/>
                <path d="M306.6,525.35L262.85,569.1L289.1,647.85L376.6,639.1L411.6,542.85L306.6,525.35Z" style="fill:none;fill-rule:nonzero;stroke:black;stroke-width:0.7px;"/>
            </g>
            <g id="Graphic_31">
                <path d="M306.6,525.35L262.85,569.1L236.6,551.6L306.6,499.1L306.6,525.35Z" style="fill:rgb(64,255,64);fill-rule:nonzero;"/>
                <path d="M306.6,525.35L262.85,569.1L236.6,551.6L306.6,499.1L306.6,525.35Z" style="fill:none;fill-rule:nonzero;stroke:black;stroke-width:0.7px;"/>
            </g>
            <g id="Graphic_32">
                <path d="M306.6,525.35L262.85,569.1L289.1,586.6L306.6,569.1L306.6,525.35Z" style="fill:white;fill-rule:nonzero;stroke:rgb(255,0,0);stroke-width:0.7px;stroke-linecap:butt;stroke-miterlimit:2;"/>
                <path d="M306.6,525.35L262.85,569.1L289.1,586.6L306.6,569.1L306.6,525.35Z" style="fill:none;fill-rule:nonzero;stroke:rgb(255,0,0);stroke-width:0.7px;"/>
            </g>
            <g id="Graphic_33">
                <path d="M525.35,175.35L630.35,192.85L595.35,289.1L507.85,297.85L481.6,219.1L551.6,262.85L586.6,210.35L525.35,175.35Z" style="fill:rgb(64,255,64);fill-rule:nonzero;"/>
                <path d="M525.35,175.35L630.35,192.85L595.35,289.1L507.85,297.85L481.6,219.1L551.6,262.85L586.6,210.35L525.35,175.35Z" style="fill:none;fill-rule:nonzero;stroke:black;stroke-width:0.7px;"/>
            </g>
            <g id="Graphic_34">
                <path d="M499.1,175.35L490.35,210.35L542.85,236.6L560.35,210.35L499.1,175.35Z" style="fill:white;fill-rule:nonzero;stroke:rgb(255,0,0);stroke-width:0.7px;stroke-linecap:butt;stroke-miterlimit:2;"/>
                <path d="M499.1,175.35L490.35,210.35L542.85,236.6L560.35,210.35L499.1,175.35Z" style="fill:none;fill-rule:nonzero;stroke:rgb(255,0,0);stroke-width:0.7px;"/>
            </g>
            <g id="Graphic_35">
                <path d="M735.35,175.35L840.35,192.85L805.35,289.1L717.85,297.85L691.6,219.1L761.6,262.85L796.6,210.35L735.35,175.35Z" style="fill:rgb(64,255,64);fill-rule:nonzero;"/>
                <path d="M735.35,175.35L840.35,192.85L805.35,289.1L717.85,297.85L691.6,219.1L761.6,262.85L796.6,210.35L735.35,175.35Z" style="fill:none;fill-rule:nonzero;stroke:black;stroke-width:0.7px;"/>
            </g>
            <g id="Graphic_36">
                <path d="M709.1,175.35L700.35,210.35L752.85,236.6L770.35,210.35L709.1,175.35Z" style="fill:rgb(64,255,64);fill-rule:nonzero;"/>
                <path d="M709.1,175.35L700.35,210.35L752.85,236.6L770.35,210.35L709.1,175.35Z" style="fill:none;fill-rule:nonzero;stroke:black;stroke-width:0.7px;"/>
            </g>
            <g id="Graphic_37">
                <path d="M551.6,525.35L507.85,569.1L516.6,647.85L656.6,507.85L551.6,525.35Z" style="fill:rgb(64,255,64);fill-rule:nonzero;"/>
                <path d="M551.6,525.35L507.85,569.1L516.6,647.85L656.6,507.85L551.6,525.35Z" style="fill:none;fill-rule:nonzero;stroke:black;stroke-width:0.7px;"/>
            </g>
            <g id="Graphic_38">
                <path d="M551.6,525.35L507.85,569.1L481.6,551.6L525.35,499.1L551.6,525.35Z" style="fill:rgb(64,255,64);fill-rule:nonzero;"/>
                <path d="M551.6,525.35L507.85,569.1L481.6,551.6L525.35,499.1L551.6,525.35Z" style="fill:none;fill-rule:nonzero;stroke:black;stroke-width:0.7px;"/>
            </g>
            <g id="Graphic_39">
                <path d="M595.35,569.1L560.35,604.1L612.85,639.1L647.85,621.6L595.35,569.1Z" style="fill:rgb(64,255,64);fill-rule:nonzero;"/>
                <path d="M595.35,569.1L560.35,604.1L612.85,639.1L647.85,621.6L595.35,569.1Z" style="fill:none;fill-rule:nonzero;stroke:black;stroke-width:0.7px;"/>
            </g>
            <g id="Graphic_41">
                <path d="M551.6,525.35L507.85,569.1L560.35,604.1L595.35,569.1L551.6,525.35Z" style="fill:rgb(64,255,64);fill-rule:nonzero;stroke:black;stroke-width:0.7px;stroke-linecap:butt;stroke-miterlimit:2;"/>
                <path d="M551.6,525.35L507.85,569.1L560.35,604.1L595.35,569.1L551.6,525.35Z" style="fill:none;fill-rule:nonzero;stroke:black;stroke-width:0.7px;"/>
            </g>
            <g id="Graphic_42">
                <path d="M761.6,525.35L717.85,569.1L726.6,647.85L866.6,507.85L761.6,525.35Z" style="fill:rgb(64,255,64);fill-rule:nonzero;"/>
                <path d="M761.6,525.35L717.85,569.1L726.6,647.85L866.6,507.85L761.6,525.35Z" style="fill:none;fill-rule:nonzero;stroke:black;stroke-width:0.7px;"/>
            </g>
            <g id="Graphic_43">
                <path d="M761.6,525.35L717.85,569.1L691.6,551.6L735.35,499.1L761.6,525.35Z" style="fill:rgb(64,255,64);fill-rule:nonzero;"/>
                <path d="M761.6,525.35L717.85,569.1L691.6,551.6L735.35,499.1L761.6,525.35Z" style="fill:none;fill-rule:nonzero;stroke:black;stroke-width:0.7px;"/>
            </g>
            <g id="Graphic_44">
                <path d="M805.35,569.1L770.35,604.1L822.85,639.1L857.85,621.6L805.35,569.1Z" style="fill:rgb(64,255,64);fill-rule:nonzero;"/>
                <path d="M805.35,569.1L770.35,604.1L822.85,639.1L857.85,621.6L805.35,569.1Z" style="fill:none;fill-rule:nonzero;stroke:black;stroke-width:0.7px;"/>
            </g>
            <g id="Graphic_45">
                <path d="M761.6,525.35L717.85,569.1L770.35,604.1L805.35,569.1L761.6,525.35Z" style="fill:white;fill-rule:nonzero;stroke:rgb(255,0,0);stroke-width:0.7px;stroke-linecap:butt;stroke-miterlimit:2;"/>
                <path d="M761.6,525.35L717.85,569.1L770.35,604.1L805.35,569.1L761.6,525.35Z" style="fill:none;fill-rule:nonzero;stroke:rgb(255,0,0);stroke-width:0.7px;"/>
            </g>
            <g transform="matrix(1,0,0,1,201.211,136.15)">
                <g id="Graphic_46">
                    <g>
                        <text x="0px" y="0px" style="font-family:'Helvetica';font-size:11.9px;">(a)</text>
                    </g>
                </g>
            </g>
            <g transform="matrix(1,0,0,1,656.211,136.15)">
                <g id="Graphic_47">
                    <g>
                        <text x="0px" y="0px" style="font-family:'Helvetica';font-size:11.9px;">(b)</text>
                    </g>
                </g>
            </g>
            <g transform="matrix(1,0,0,1,201.545,311.15)">
                <g id="Graphic_48">
                    <g>
                        <text x="0px" y="0px" style="font-family:'Helvetica';font-size:11.9px;">(c)</text>
                    </g>
                </g>
            </g>
            <g transform="matrix(1,0,0,1,656.211,311.15)">
                <g id="Graphic_49">
                    <g>
                        <text x="0px" y="0px" style="font-family:'Helvetica';font-size:11.9px;">(d)</text>
                    </g>
                </g>
            </g>
            <g transform="matrix(1,0,0,1,200.975,486.15)">
                <g id="Graphic_50">
                    <g>
                        <text x="0px" y="0px" style="font-family:'Helvetica';font-size:11.9px;">(e)</text>
                    </g>
                </g>
            </g>
            <g transform="matrix(1,0,0,1,657.867,486.15)">
                <g id="Graphic_51">
                    <g>
                        <text x="0px" y="0px" style="font-family:'Helvetica';font-size:11.9px;">(f)</text>
                    </g>
                </g>
            </g>
            <g transform="matrix(1,0,0,1,200.042,661.15)">
                <g id="Graphic_52">
                    <g>
                        <text x="0px" y="0px" style="font-family:'Helvetica';font-size:11.9px;">(g)</text>
                    </g>
                </g>
            </g>
            <g transform="matrix(1,0,0,1,656.211,661.15)">
                <g id="Graphic_53">
                    <g>
                        <text x="0px" y="0px" style="font-family:'Helvetica';font-size:11.9px;">(h)</text>
                    </g>
                </g>
            </g>
        </g>
    </g>
</svg>
