<?xml version="1.0" encoding="UTF-8" standalone="no"?>
<!DOCTYPE svg PUBLIC "-//W3C//DTD SVG 1.1//EN" "http://www.w3.org/Graphics/SVG/1.1/DTD/svg11.dtd">
<svg width="790.235" height="394" viewBox="0 0 791 394" version="1.1" xmlns="http://www.w3.org/2000/svg" xmlns:xlink="http://www.w3.org/1999/xlink" xml:space="preserve" xmlns:serif="http://www.serif.com/" style="fill-rule:evenodd;clip-rule:evenodd;stroke-linecap:round;stroke-linejoin:round;">
    <g id="Lienzo_4">
        <rect x="0" y="0" width="790.235" height="394" style="fill:white;"/>
        <g id="Lienzo_4_Capa_1">
            <g id="Graphic_12">
                <path d="M256.75,3.25C257,3.25 219,159 219,159L350,116L241.064,67.554L379.75,0.5C379.75,0.5 256.5,3.25 256.75,3.25Z" style="fill:rgb(255,149,0);fill-rule:nonzero;"/>
                <path d="M256.75,3.25C257,3.25 219,159 219,159L350,116L241.064,67.554L379.75,0.5C379.75,0.5 256.5,3.25 256.75,3.25Z" style="fill:rgb(255,149,0);fill-rule:nonzero;stroke:black;stroke-width:1px;"/>
            </g>
            <g id="Graphic_9">
                <path d="M456.75,213.25C457,213.25 419,369 419,369L550,326L514,259.5L579.75,210.5C579.75,210.5 456.5,213.25 456.75,213.25Z" style="fill:rgb(255,149,0);fill-rule:nonzero;"/>
                <path d="M456.75,213.25C457,213.25 419,369 419,369L550,326L514,259.5L579.75,210.5C579.75,210.5 456.5,213.25 456.75,213.25Z" style="fill:rgb(255,149,0);fill-rule:nonzero;stroke:black;stroke-width:1px;"/>
            </g>
            <g id="Graphic_8">
                <path d="M475.5,260.5L455.5,319L514.45,259.3L475.5,260.5Z" style="fill:white;fill-rule:nonzero;stroke:rgb(255,0,0);stroke-width:1px;stroke-linecap:butt;stroke-miterlimit:2;"/>
                <path d="M475.5,260.5L455.5,319L514.45,259.3L475.5,260.5Z" style="fill:none;fill-rule:nonzero;stroke:rgb(255,0,0);stroke-width:1px;"/>
            </g>
            <g id="Graphic_7">
                <path d="M579.75,232.1L522.75,226L574.25,320.1L579.75,232.1Z" style="fill:rgb(255,149,0);fill-rule:nonzero;"/>
                <path d="M579.75,232.1L522.75,226L574.25,320.1L579.75,232.1Z" style="fill:rgb(255,149,0);fill-rule:nonzero;stroke:black;stroke-width:1px;"/>
            </g>
            <g transform="matrix(1,0,0,1,282.292,173)">
                <g id="Graphic_6">
                    <g>
                        <text x="0px" y="0px" style="font-family:'Helvetica';font-size:12px;">(b)</text>
                    </g>
                </g>
            </g>
            <g transform="matrix(1,0,0,1,72.542,168)">
                <g id="Graphic_5">
                    <g>
                        <text x="0px" y="0px" style="font-family:'Helvetica';font-size:12px;">(a)</text>
                    </g>
                </g>
            </g>
            <g transform="matrix(1,0,0,1,492.379,168)">
                <g id="Graphic_4">
                    <g>
                        <text x="0px" y="0px" style="font-family:'Helvetica';font-size:12px;">(c)</text>
                    </g>
                </g>
            </g>
            <g transform="matrix(1,0,0,1,283.962,388.5)">
                <g id="Graphic_3">
                    <g>
                        <text x="0px" y="0px" style="font-family:'Helvetica';font-size:12px;">(f)</text>
                    </g>
                </g>
            </g>
            <g transform="matrix(1,0,0,1,491.705,388.5)">
                <g id="Graphic_2">
                    <g>
                        <text x="0px" y="0px" style="font-family:'Helvetica';font-size:12px;">(g)</text>
                    </g>
                </g>
            </g>
            <g id="Graphic_22">
                <path d="M37.25,3.25C37.5,3.25 130.5,116 130.5,116L0.5,159.25L160.25,0.5C160.25,0.5 37,3.25 37.25,3.25Z" style="fill:rgb(255,149,0);fill-rule:nonzero;"/>
                <path d="M37.25,3.25C37.5,3.25 130.5,116 130.5,116L0.5,159.25L160.25,0.5C160.25,0.5 37,3.25 37.25,3.25Z" style="fill:rgb(255,149,0);fill-rule:nonzero;stroke:black;stroke-width:1px;"/>
            </g>
            <g id="Graphic_23">
                <path d="M666.5,3.25C666.75,3.25 628.75,159 628.75,159L759.75,116L723.75,49.5L789.5,0.5C789.5,0.5 666.25,3.25 666.5,3.25Z" style="fill:rgb(255,149,0);fill-rule:nonzero;"/>
                <path d="M685.25,51.1L721.5,107.5L748,21L685.25,51.1Z" style="fill:white;fill-rule:nonzero;stroke:rgb(255,0,0);stroke-width:1px;stroke-linecap:butt;stroke-miterlimit:2;"/>
                <path d="M743.86,34.513L723.75,49.5L733.66,67.807L743.86,34.513Z" style="fill:rgb(255,149,0);"/>
                <path d="M685.25,51.1L721.5,107.5L748,21L685.25,51.1Z" style="fill:none;fill-rule:nonzero;stroke:rgb(255,0,0);stroke-width:1px;"/>
                <path d="M666.5,3.25C666.75,3.25 628.75,159 628.75,159L759.75,116L723.75,49.5L789.5,0.5C789.5,0.5 666.25,3.25 666.5,3.25Z" style="fill:none;fill-rule:nonzero;stroke:black;stroke-width:1px;"/>
            </g>
            <g transform="matrix(1,0,0,1,701.792,168)">
                <g id="Graphic_25">
                    <g>
                        <text x="0px" y="0px" style="font-family:'Helvetica';font-size:12px;">(d)</text>
                    </g>
                </g>
            </g>
            <g id="Graphic_26">
                <path d="M456.413,3.25C456.663,3.25 418.663,159 418.663,159L549.663,116L513.663,49.5L579.413,0.5C579.413,0.5 456.163,3.25 456.413,3.25Z" style="fill:rgb(255,149,0);fill-rule:nonzero;"/>
                <path d="M456.413,3.25C456.663,3.25 418.663,159 418.663,159L549.663,116L513.663,49.5L579.413,0.5C579.413,0.5 456.163,3.25 456.413,3.25Z" style="fill:rgb(255,149,0);fill-rule:nonzero;stroke:black;stroke-width:1px;"/>
            </g>
            <g id="Graphic_27">
                <path d="M574.913,21L536.413,51L569.413,109L574.913,21Z" style="fill:white;fill-rule:nonzero;stroke:rgb(255,0,0);stroke-width:1px;stroke-linecap:butt;stroke-miterlimit:2;"/>
                <path d="M574.913,21L536.413,51L569.413,109L574.913,21Z" style="fill:none;fill-rule:nonzero;stroke:rgb(255,0,0);stroke-width:1px;"/>
            </g>
            <g transform="matrix(1,0,0,1,73.042,388.5)">
                <g id="Graphic_29">
                    <g>
                        <text x="0px" y="0px" style="font-family:'Helvetica';font-size:12px;">(e)</text>
                    </g>
                </g>
            </g>
            <g id="Graphic_31">
                <path d="M256.75,210.151C257,210.151 219,365.901 219,365.901L350,322.901L314,256.401L379.75,207.401C379.75,207.401 256.5,210.151 256.75,210.151Z" style="fill:rgb(255,149,0);fill-rule:nonzero;"/>
                <path d="M256.75,210.151C257,210.151 219,365.901 219,365.901L350,322.901L314,256.401L379.75,207.401C379.75,207.401 256.5,210.151 256.75,210.151Z" style="fill:rgb(255,149,0);fill-rule:nonzero;stroke:black;stroke-width:1px;"/>
            </g>
            <g id="Graphic_32">
                <path d="M244.2,263.1L255.899,316.501L314,256.6L244.2,263.1Z" style="fill:white;fill-rule:nonzero;stroke:rgb(255,0,0);stroke-width:1px;stroke-linecap:butt;stroke-miterlimit:2;"/>
                <path d="M244.2,263.1L255.899,316.501L314,256.6L244.2,263.1Z" style="fill:none;fill-rule:nonzero;stroke:rgb(255,0,0);stroke-width:1px;"/>
            </g>
            <g id="Graphic_33">
                <path d="M45.75,210.75C46,210.75 8,366.5 8,366.5L139,323.5L103,257L168.75,208C168.75,208 45.5,210.75 45.75,210.75Z" style="fill:rgb(255,149,0);fill-rule:nonzero;"/>
                <path d="M64.039,258.6L138.9,323.1L102.99,257.4L64.039,258.6Z" style="fill:white;fill-rule:nonzero;"/>
                <path d="M45.75,210.75C46,210.75 8,366.5 8,366.5L139,323.5L103,257L168.75,208C168.75,208 45.5,210.75 45.75,210.75Z" style="fill:none;fill-rule:nonzero;stroke:black;stroke-width:1px;"/>
                <path d="M103.217,257.4L64.04,258.6L139,323.5" style="fill:none;stroke:rgb(255,0,0);stroke-width:1px;stroke-miterlimit:1.5;"/>
                <path d="M103.217,257.4L139,323.5" style="fill:none;stroke:rgb(255,0,0);stroke-width:1px;stroke-linecap:butt;stroke-miterlimit:1.5;stroke-dasharray:3,3,0,0;"/>
            </g>
            <g id="Graphic_34">
                <path d="M456.75,213.25C457,213.25 419,369 419,369L550,326L514,259.5L579.75,210.5C579.75,210.5 456.5,213.25 456.75,213.25Z" style="fill:none;fill-rule:nonzero;stroke:black;stroke-width:1px;"/>
            </g>
            <g id="Graphic_35">
                <path d="M666.5,213.25C666.75,213.25 628.75,369 628.75,369L759.75,326L723.75,259.5L789.5,210.5C789.5,210.5 666.25,213.25 666.5,213.25Z" style="fill:rgb(255,149,0);fill-rule:nonzero;"/>
                <path d="M666.5,213.25C666.75,213.25 628.75,369 628.75,369L759.75,326L723.75,259.5L789.5,210.5C789.5,210.5 666.25,213.25 666.5,213.25Z" style="fill:rgb(255,149,0);fill-rule:nonzero;stroke:black;stroke-width:1px;"/>
            </g>
            <g id="Graphic_36">
                <path d="M685.25,260.5L665.25,319L724.2,259.3L685.25,260.5Z" style="fill:white;fill-rule:nonzero;stroke:rgb(255,0,0);stroke-width:1px;stroke-linecap:butt;stroke-miterlimit:2;"/>
                <path d="M685.25,260.5L665.25,319L724.2,259.3L685.25,260.5Z" style="fill:none;fill-rule:nonzero;stroke:rgb(255,0,0);stroke-width:1px;"/>
            </g>
            <g id="Graphic_37">
                <path d="M789.4,210.6L724.1,259.3L784,320.1L789.4,210.6Z" style="fill:rgb(255,149,0);fill-rule:nonzero;"/>
                <path d="M789.4,210.6L724.1,259.3L784,320.1L789.4,210.6Z" style="fill:rgb(255,149,0);fill-rule:nonzero;stroke:black;stroke-width:1px;"/>
            </g>
            <g transform="matrix(1,0,0,1,701.455,388.5)">
                <g id="Graphic_38">
                    <g>
                        <text x="0px" y="0px" style="font-family:'Helvetica';font-size:12px;">(h)</text>
                    </g>
                </g>
            </g>
        </g>
    </g>
</svg>
