<?xml version="1.0" encoding="UTF-8" standalone="no"?>
<!DOCTYPE svg PUBLIC "-//W3C//DTD SVG 1.1//EN" "http://www.w3.org/Graphics/SVG/1.1/DTD/svg11.dtd">
<svg width="100%" height="100%" viewBox="0 0 128 128" version="1.1" xmlns="http://www.w3.org/2000/svg" xmlns:xlink="http://www.w3.org/1999/xlink" xml:space="preserve" xmlns:serif="http://www.serif.com/" style="fill-rule:evenodd;clip-rule:evenodd;stroke-linecap:round;stroke-linejoin:round;stroke-miterlimit:1.5;">
    <g transform="matrix(0.379923,0,0,0.379923,39.6849,39.6849)">
        <g transform="matrix(1,0,0,1,-185.903,-180.927)">
            <path d="M393.929,201.413L374.665,195.16L362.778,178.789L343.514,172.421L331.615,156.034L319.625,172.328L300.367,178.574L300.375,158.361L312.417,141.981L293.154,135.706L281.255,119.323L261.994,113.031L250.095,96.647L238.195,113.035L218.856,119.247L206.943,135.635L187.681,141.888L199.422,158.334L199.422,178.586L180.373,172.347L168.291,156.065L156.683,172.347L137.493,178.586L125.481,194.985L106.222,201.239L118.131,217.621L118.126,237.872L129.967,254.327L129.967,274.578L149.093,268.299L168.357,274.578L156.458,290.945L137.269,297.206L149.175,313.59L149.175,333.839L161.056,350.251L161.056,370.54L180.312,364.236L199.625,370.584L218.879,364.322L238.134,370.584L238.071,350.286L249.979,333.866L261.809,350.251L261.818,370.498L281.062,364.242L300.319,370.534L319.694,364.232L338.777,370.505L338.953,350.302L350.859,333.929L350.947,313.657L362.855,297.276L343.469,290.967L331.637,274.676L350.829,268.427L370.089,274.53L370.087,254.435L382.025,238.046L382.024,217.792L393.929,201.413ZM187.542,195.355L199.452,211.382L211.396,195.291L230.726,188.81L218.965,172.468L218.712,152.065L230.787,136.016L250,129.473L269.145,136.073L281.144,152.178L281.14,172.667L269.241,188.704L288.469,194.995L300.4,211.466L312.355,194.979L331.616,188.8L350.91,195.145L362.775,211.382L362.74,231.801L351.065,248.162L331.615,254.342L312.319,248.162L312.32,268.333L300.455,284.654L319.671,290.968L331.615,307.371L331.578,327.656L319.655,343.966L300.455,350.214L281.071,343.998L269.295,327.633L269.295,307.4L250.031,313.657L230.732,307.4L230.734,327.648L218.817,344.031L199.588,350.242L180.311,344.038L168.414,327.622L168.414,307.394L180.377,290.967L199.523,284.692L187.622,268.314L187.628,248.105L168.371,254.323L149.151,248.062L137.338,231.809L137.245,211.357L149.207,195.291L168.547,188.724L187.542,195.355Z" style="fill:rgb(0,196,118);stroke:black;stroke-width:1.4px;"/>
        </g>
        <g transform="matrix(1,0,0,1,-185.903,-180.927)">
            <path d="M300.482,231.715L288.509,215.335L288.533,195.067L269.214,201.263L250.031,194.979L230.722,201.292L211.396,195.064L211.397,215.326L199.495,231.625L199.497,251.989L187.625,268.403L206.914,274.657L218.702,291.043L238.083,297.229L249.972,313.657L261.921,297.229L281.229,290.942L293.066,274.584L312.355,268.301L300.423,251.951L300.482,231.715ZM249.984,215.315L269.242,221.578L281.182,237.968L281.191,258.224L269.242,274.607L250.031,280.895L230.736,274.588L218.871,258.224L218.871,237.944L230.736,221.564L249.984,215.315Z" style="fill:rgb(0,196,118);stroke:black;stroke-width:1.4px;"/>
        </g>
        <g transform="matrix(1,0,0,1,-185.903,-180.927)">
            <path d="M261.903,231.7L250.017,215.326L238.092,231.7L218.871,237.944L230.736,254.341L230.736,274.588L250,268.28L269.229,274.601L269.261,254.321L281.191,237.956L261.903,231.7Z" style="fill:rgb(0,196,118);stroke:black;stroke-width:1.4px;"/>
        </g>
        <g transform="matrix(1,0,0,1,-53.913,-137.959)">
            <path d="M261.903,231.7L250.017,215.326L238.092,231.7L218.871,237.944L230.736,254.341L230.736,274.588L250,268.28L269.229,274.601L269.261,254.321L281.191,237.956L261.903,231.7Z" style="fill:rgb(0,196,118);stroke:black;stroke-width:1.4px;"/>
        </g>
        <g transform="matrix(1,0,0,1,-186.063,-42.1454)">
            <path d="M261.903,231.7L250.017,215.326L238.092,231.7L218.871,237.944L230.736,254.341L230.736,274.588L250,268.28L269.229,274.601L269.261,254.321L281.191,237.956L261.903,231.7Z" style="fill:rgb(0,196,118);stroke:black;stroke-width:1.4px;"/>
        </g>
        <g transform="matrix(1,0,0,1,-104.409,-293.346)">
            <path d="M261.903,231.7L250.017,215.326L238.092,231.7L218.871,237.944L230.736,254.341L230.736,274.588L250,268.28L269.229,274.601L269.261,254.321L281.191,237.956L261.903,231.7Z" style="fill:rgb(0,196,118);stroke:black;stroke-width:1.4px;"/>
        </g>
        <g transform="matrix(1,0,0,1,-318.011,-138.091)">
            <path d="M261.903,231.7L250.017,215.326L238.092,231.7L218.871,237.944L230.736,254.341L230.736,274.588L250,268.28L269.229,274.601L269.261,254.321L281.191,237.956L261.903,231.7Z" style="fill:rgb(0,196,118);stroke:black;stroke-width:1.4px;"/>
        </g>
        <g transform="matrix(1,0,0,1,-267.529,-293.346)">
            <path d="M261.903,231.7L250.017,215.326L238.092,231.7L218.871,237.944L230.736,254.341L230.736,274.588L250,268.28L269.229,274.601L269.261,254.321L281.191,237.956L261.903,231.7Z" style="fill:rgb(0,196,118);stroke:black;stroke-width:1.4px;"/>
        </g>
        <g transform="matrix(-1,-1.22465e-16,1.22465e-16,-1,395.744,288.806)">
            <path d="M261.903,231.7L250.017,215.326L238.092,231.7L218.871,237.944L230.736,254.341L230.736,274.588L250,268.28L269.229,274.601L269.261,254.321L281.191,237.956L261.903,231.7Z" style="fill:rgb(0,196,118);stroke:black;stroke-width:1.4px;"/>
        </g>
        <g transform="matrix(-1,-1.22465e-16,1.22465e-16,-1,314.113,229.69)">
            <path d="M261.903,231.7L250.017,215.326L238.092,231.7L218.871,237.944L230.736,254.341L230.736,274.588L250,268.28L269.229,274.601L269.261,254.321L281.191,237.956L261.903,231.7Z" style="fill:rgb(0,196,118);stroke:black;stroke-width:1.4px;"/>
        </g>
        <g transform="matrix(-1,-1.22465e-16,1.22465e-16,-1,364.584,384.661)">
            <path d="M261.903,231.7L250.017,215.326L238.092,231.7L218.871,237.944L230.736,254.341L230.736,274.588L250,268.28L269.229,274.601L269.261,254.321L281.191,237.956L261.903,231.7Z" style="fill:rgb(0,196,118);stroke:black;stroke-width:1.4px;"/>
        </g>
        <g transform="matrix(-1,-1.22465e-16,1.22465e-16,-1,263.703,384.64)">
            <path d="M261.903,231.7L250.017,215.326L238.092,231.7L218.871,237.944L230.736,254.341L230.736,274.588L250,268.28L269.229,274.601L269.261,254.321L281.191,237.956L261.903,231.7Z" style="fill:rgb(0,196,118);stroke:black;stroke-width:1.4px;"/>
        </g>
        <g transform="matrix(-1,-1.22465e-16,1.22465e-16,-1,232.533,288.965)">
            <path d="M261.903,231.7L250.017,215.326L238.092,231.7L218.871,237.944L230.736,254.341L230.736,274.588L250,268.28L269.229,274.601L269.261,254.321L281.191,237.956L261.903,231.7Z" style="fill:rgb(0,196,118);stroke:black;stroke-width:1.4px;"/>
        </g>
        <g transform="matrix(1,0,0,1,-185.903,-180.927)">
            <path d="M180.195,99.051L180.19,119.303L199.596,113.036L218.856,119.296L218.725,99.063L199.466,92.809L180.195,99.051Z" style="fill:rgb(0,196,118);stroke:black;stroke-width:1.4px;"/>
        </g>
        <g transform="matrix(1,0,0,1,-135.528,-197.265)">
            <path d="M180.195,99.051L180.19,119.303L199.596,113.036L218.856,119.296L218.725,99.063L199.466,92.809L180.195,99.051Z" style="fill:rgb(0,196,118);stroke:black;stroke-width:1.4px;"/>
        </g>
        <g transform="matrix(1,0,0,1,-85.1181,-180.94)">
            <path d="M180.195,99.051L180.19,119.303L199.596,113.036L218.856,119.296L218.725,99.063L199.466,92.809L180.195,99.051Z" style="fill:rgb(0,196,118);stroke:black;stroke-width:1.4px;"/>
        </g>
        <g transform="matrix(1,0,0,1,-185.903,-180.927)">
            <path d="M149.11,141.922L129.545,135.766L117.868,152.048L118.106,172.414L137.493,178.586L137.367,158.303L149.11,141.922Z" style="fill:rgb(0,196,118);stroke:black;stroke-width:1.4px;"/>
        </g>
        <g transform="matrix(1,0,0,1,-217.087,-138.107)">
            <path d="M149.11,141.922L129.545,135.766L117.868,152.048L118.106,172.414L137.493,178.586L137.367,158.303L149.11,141.922Z" style="fill:rgb(0,196,118);stroke:black;stroke-width:1.4px;"/>
        </g>
        <g transform="matrix(1,0,0,1,-217.146,-84.9539)">
            <path d="M149.11,141.922L129.545,135.766L117.868,152.048L118.106,172.414L137.493,178.586L137.367,158.303L149.11,141.922Z" style="fill:rgb(0,196,118);stroke:black;stroke-width:1.4px;"/>
        </g>
        <g transform="matrix(1,0,0,1,-185.903,-180.927)">
            <path d="M350.792,141.953L370.054,135.7L381.954,152.077L381.954,172.316L362.684,178.572L362.684,158.332L350.792,141.953Z" style="fill:rgb(0,196,118);stroke:black;stroke-width:1.4px;"/>
        </g>
        <g transform="matrix(1,0,0,1,-154.752,-138.055)">
            <path d="M350.792,141.953L370.054,135.7L381.954,152.077L381.954,172.316L362.684,178.572L362.684,158.332L350.792,141.953Z" style="fill:rgb(0,196,118);stroke:black;stroke-width:1.4px;"/>
        </g>
        <g transform="matrix(1,0,0,1,-154.698,-84.9086)">
            <path d="M350.792,141.953L370.054,135.7L381.954,152.077L381.954,172.316L362.684,178.572L362.684,158.332L350.792,141.953Z" style="fill:rgb(0,196,118);stroke:black;stroke-width:1.4px;"/>
        </g>
        <g transform="matrix(1,0,0,1,-185.903,-180.927)">
            <path d="M269.101,393.133L281.177,409.582L300.285,403.249L312.377,386.871L300.285,370.584L288.384,386.871L269.101,393.133Z" style="fill:rgb(0,196,118);stroke:black;stroke-width:1.4px;"/>
        </g>
        <g transform="matrix(1,0,0,1,-135.505,-197.359)">
            <path d="M269.101,393.133L281.177,409.582L300.285,403.249L312.377,386.871L300.285,370.584L288.384,386.871L269.101,393.133Z" style="fill:rgb(0,196,118);stroke:black;stroke-width:1.4px;"/>
        </g>
        <g transform="matrix(1,0,0,1,-104.351,-240.268)">
            <path d="M269.101,393.133L281.177,409.582L300.285,403.249L312.377,386.871L300.285,370.584L288.384,386.871L269.101,393.133Z" style="fill:rgb(0,196,118);stroke:black;stroke-width:1.4px;"/>
        </g>
        <g transform="matrix(1,0,0,1,-185.903,-180.927)">
            <path d="M160.963,370.637L149.139,354.152L137.166,370.441L149.139,386.918L168.391,393.16L180.3,376.76L160.963,370.637Z" style="fill:rgb(0,196,118);stroke:black;stroke-width:1.4px;"/>
        </g>
        <g transform="matrix(1,0,0,1,-135.482,-164.582)">
            <path d="M160.963,370.637L149.139,354.152L137.166,370.441L149.139,386.918L168.391,393.16L180.3,376.76L160.963,370.637Z" style="fill:rgb(0,196,118);stroke:black;stroke-width:1.4px;"/>
        </g>
        <g transform="matrix(1,0,0,1,-217.064,-223.89)">
            <path d="M160.963,370.637L149.139,354.152L137.166,370.441L149.139,386.918L168.391,393.16L180.3,376.76L160.963,370.637Z" style="fill:rgb(0,196,118);stroke:black;stroke-width:1.4px;"/>
        </g>
    </g>
</svg>
