<?xml version="1.0" encoding="UTF-8"?>
<svg xmlns="http://www.w3.org/2000/svg" xmlns:xlink="http://www.w3.org/1999/xlink" width="467" height="259" viewBox="0 0 467 259">
<path fill-rule="evenodd" fill="rgb(56.5%, 93.3%, 56.5%)" fill-opacity="1" stroke-width="2" stroke-linecap="butt" stroke-linejoin="round" stroke="rgb(0%, 100%, 0%)" stroke-opacity="1" stroke-miterlimit="10" d="M 138.351563 615.53125 L 201.601563 633.601563 L 229.894531 638.316406 L 261.332031 629.332031 L 304 608 L 317.332031 613.332031 L 336 608 L 432 640 L 480 640 L 501.332031 645.332031 L 544 624 L 544 592 L 496 592 L 464 576 L 448 576 L 408 560 L 368 560 L 276.363281 546.910156 L 256 552 L 256 560 L 208 560 L 200 552 L 176 544 L 130.285156 562.285156 L 112 576 L 138.351563 615.53125 " transform="matrix(1, 0, 0, -1, -95, 786)"/>
<path fill-rule="evenodd" fill="rgb(56.5%, 93.3%, 56.5%)" fill-opacity="1" stroke-width="2" stroke-linecap="butt" stroke-linejoin="round" stroke="rgb(0%, 100%, 0%)" stroke-opacity="1" stroke-miterlimit="10" d="M 96.351563 704.351563 L 130.636719 690.636719 L 176.351563 656.351563 L 200.351563 680.351563 L 224.351563 688.351563 L 256.351563 680.351563 L 256.351563 672.351563 L 276.714844 675.257813 L 288.351563 672.351563 L 368.351563 672.351563 L 408.351563 688.351563 L 432.351563 688.351563 L 464.351563 704.351563 L 512.351563 704.351563 L 544.351563 720.351563 L 560.351563 720.351563 L 544.351563 784.351563 L 501.683594 773.683594 L 480.351563 784.351563 L 432.351563 768.351563 L 384.351563 768.351563 L 317.683594 741.683594 L 261.683594 757.683594 L 240.351563 768.351563 L 230.246094 766.667969 L 224.351563 768.351563 L 201.949219 761.949219 L 144.351563 752.351563 L 138.703125 743.878906 L 112.351563 736.351563 L 96.351563 704.351563 " transform="matrix(1, 0, 0, -1, -95, 786)"/>
<path fill="none" stroke-width="0.4" stroke-linecap="butt" stroke-linejoin="round" stroke="rgb(0%, 0%, 100%)" stroke-opacity="1" stroke-miterlimit="10" d="M 112 704 L 176 656 L 208 688 L 256 688 L 256 672 L 368 688 L 432 688 L 496 720 L 560 720 L 544 784 L 480 768 L 384 768 L 304 736 L 240 768 L 144 752 L 112 704 " transform="matrix(1, 0, 0, -1, -95, 786)"/>
<path fill="none" stroke-width="0.4" stroke-linecap="butt" stroke-linejoin="round" stroke="rgb(100%, 54.9%, 0%)" stroke-opacity="1" stroke-miterlimit="10" d="M 96 704 L 176 672 L 224 688 L 288 672 L 368 672 L 448 704 L 512 704 L 544 720 L 544 752 L 480 784 L 336 736 L 224 768 L 112 736 L 96 704 " transform="matrix(1, 0, 0, -1, -95, 786)"/>
<path fill="none" stroke-width="0.4" stroke-linecap="butt" stroke-linejoin="round" stroke="rgb(0%, 0%, 100%)" stroke-opacity="1" stroke-miterlimit="10" d="M 112 576 L 176 528 L 208 560 L 256 560 L 256 544 L 368 560 L 432 560 L 496 592 L 560 592 L 544 656 L 480 640 L 384 640 L 304 608 L 240 640 L 144 624 L 112 576 " transform="matrix(1, 0, 0, -1, -95, 786)"/>
<path fill="none" stroke-width="0.4" stroke-linecap="butt" stroke-linejoin="round" stroke="rgb(100%, 54.9%, 0%)" stroke-opacity="1" stroke-miterlimit="10" d="M 96 576 L 176 544 L 224 560 L 288 544 L 368 544 L 448 576 L 512 576 L 544 592 L 544 624 L 480 656 L 336 608 L 224 640 L 112 608 L 96 576 " transform="matrix(1, 0, 0, -1, -95, 786)"/>
</svg>
