<?xml version="1.0" encoding="UTF-8"?>
<svg xmlns="http://www.w3.org/2000/svg" xmlns:xlink="http://www.w3.org/1999/xlink" width="518" height="310" viewBox="0 0 518 310">
<path fill-rule="evenodd" fill="rgb(56.5%, 93.3%, 56.5%)" fill-opacity="1" stroke-width="0.4" stroke-linecap="butt" stroke-linejoin="round" stroke="rgb(0%, 0%, 0%)" stroke-opacity="1" stroke-miterlimit="10" d="M 448 528 L 448 464 L 576 464 L 576 528 Z M 480 512 L 480 480 L 544 480 L 544 512 Z M 480 512 " transform="matrix(1, 0, 0, -1, -61, 771)"/>
<path fill-rule="evenodd" fill="rgb(56.5%, 93.3%, 56.5%)" fill-opacity="1" stroke-width="0.4" stroke-linecap="butt" stroke-linejoin="round" stroke="rgb(56.5%, 93.3%, 56.5%)" stroke-opacity="1" stroke-miterlimit="10" d="M 304 576 L 384 576 L 384 640 L 256 640 L 256 592 L 304 592 Z M 304 576 " transform="matrix(1, 0, 0, -1, -61, 771)"/>
<path fill-rule="nonzero" fill="rgb(56.5%, 93.3%, 56.5%)" fill-opacity="1" stroke-width="0.4" stroke-linecap="butt" stroke-linejoin="round" stroke="rgb(0%, 0%, 0%)" stroke-opacity="1" stroke-miterlimit="10" d="M 256 688 L 384 688 L 384 768 L 304 768 L 304 752 L 256 752 Z M 272 736 L 304 736 L 304 720 L 368 720 L 368 704 L 272 704 Z M 272 736 " transform="matrix(1, 0, 0, -1, -61, 771)"/>
<path fill="none" stroke-width="0.4" stroke-linecap="butt" stroke-linejoin="round" stroke="rgb(0%, 0%, 0%)" stroke-opacity="1" stroke-miterlimit="10" d="M 256 688 L 384 688 " transform="matrix(1, 0, 0, -1, -61, 771)"/>
<path fill-rule="evenodd" fill="rgb(0%, 0%, 0%)" fill-opacity="1" stroke-width="0.4" stroke-linecap="butt" stroke-linejoin="round" stroke="rgb(0%, 0%, 0%)" stroke-opacity="1" stroke-miterlimit="10" d="M 384 688 L 377 690.332031 L 377 685.667969 Z M 384 688 " transform="matrix(1, 0, 0, -1, -61, 771)"/>
<path fill="none" stroke-width="0.4" stroke-linecap="butt" stroke-linejoin="round" stroke="rgb(0%, 0%, 0%)" stroke-opacity="1" stroke-miterlimit="10" d="M 384 688 L 384 768 " transform="matrix(1, 0, 0, -1, -61, 771)"/>
<path fill-rule="evenodd" fill="rgb(0%, 0%, 0%)" fill-opacity="1" stroke-width="0.4" stroke-linecap="butt" stroke-linejoin="round" stroke="rgb(0%, 0%, 0%)" stroke-opacity="1" stroke-miterlimit="10" d="M 384 768 L 381.667969 761 L 386.332031 761 Z M 384 768 " transform="matrix(1, 0, 0, -1, -61, 771)"/>
<path fill="none" stroke-width="0.4" stroke-linecap="butt" stroke-linejoin="round" stroke="rgb(66.3%, 66.3%, 66.3%)" stroke-opacity="1" stroke-miterlimit="10" d="M 368 720 L 368 704 " transform="matrix(1, 0, 0, -1, -61, 771)"/>
<path fill-rule="evenodd" fill="rgb(66.3%, 66.3%, 66.3%)" fill-opacity="1" stroke-width="0.4" stroke-linecap="butt" stroke-linejoin="round" stroke="rgb(66.3%, 66.3%, 66.3%)" stroke-opacity="1" stroke-miterlimit="10" d="M 368 704 L 370.332031 711 L 365.667969 711 Z M 368 704 " transform="matrix(1, 0, 0, -1, -61, 771)"/>
<path fill="none" stroke-width="0.4" stroke-linecap="butt" stroke-linejoin="round" stroke="rgb(66.3%, 66.3%, 66.3%)" stroke-opacity="1" stroke-miterlimit="10" d="M 368 704 L 272 704 " transform="matrix(1, 0, 0, -1, -61, 771)"/>
<path fill-rule="evenodd" fill="rgb(66.3%, 66.3%, 66.3%)" fill-opacity="1" stroke-width="0.4" stroke-linecap="butt" stroke-linejoin="round" stroke="rgb(66.3%, 66.3%, 66.3%)" stroke-opacity="1" stroke-miterlimit="10" d="M 272 704 L 279 701.667969 L 279 706.332031 Z M 272 704 " transform="matrix(1, 0, 0, -1, -61, 771)"/>
<path fill="none" stroke-width="0.4" stroke-linecap="butt" stroke-linejoin="round" stroke="rgb(66.3%, 66.3%, 66.3%)" stroke-opacity="1" stroke-miterlimit="10" d="M 272 704 L 272 736 " transform="matrix(1, 0, 0, -1, -61, 771)"/>
<path fill-rule="evenodd" fill="rgb(66.3%, 66.3%, 66.3%)" fill-opacity="1" stroke-width="0.4" stroke-linecap="butt" stroke-linejoin="round" stroke="rgb(66.3%, 66.3%, 66.3%)" stroke-opacity="1" stroke-miterlimit="10" d="M 272 736 L 269.667969 729 L 274.332031 729 Z M 272 736 " transform="matrix(1, 0, 0, -1, -61, 771)"/>
<path fill="none" stroke-width="0.4" stroke-linecap="butt" stroke-linejoin="round" stroke="rgb(0%, 0%, 0%)" stroke-opacity="1" stroke-miterlimit="10" d="M 256 752 L 256 688 " transform="matrix(1, 0, 0, -1, -61, 771)"/>
<path fill-rule="evenodd" fill="rgb(0%, 0%, 0%)" fill-opacity="1" stroke-width="0.4" stroke-linecap="butt" stroke-linejoin="round" stroke="rgb(0%, 0%, 0%)" stroke-opacity="1" stroke-miterlimit="10" d="M 256 688 L 258.332031 695 L 253.667969 695 Z M 256 688 " transform="matrix(1, 0, 0, -1, -61, 771)"/>
<path fill-rule="evenodd" fill="rgb(56.5%, 93.3%, 56.5%)" fill-opacity="1" stroke-width="0.4" stroke-linecap="butt" stroke-linejoin="round" stroke="rgb(0%, 0%, 0%)" stroke-opacity="1" stroke-miterlimit="10" d="M 528 752 L 448 752 L 448 688 L 576 688 L 576 768 L 496 768 L 496 720 L 560 720 L 560 704 L 464 704 L 464 736 L 528 736 Z M 528 752 " transform="matrix(1, 0, 0, -1, -61, 771)"/>
<path fill="none" stroke-width="0.4" stroke-linecap="butt" stroke-linejoin="round" stroke="rgb(0%, 0%, 0%)" stroke-opacity="1" stroke-miterlimit="10" d="M 448 688 L 576 688 " transform="matrix(1, 0, 0, -1, -61, 771)"/>
<path fill-rule="evenodd" fill="rgb(0%, 0%, 0%)" fill-opacity="1" stroke-width="0.4" stroke-linecap="butt" stroke-linejoin="round" stroke="rgb(0%, 0%, 0%)" stroke-opacity="1" stroke-miterlimit="10" d="M 576 688 L 569 690.332031 L 569 685.667969 Z M 576 688 " transform="matrix(1, 0, 0, -1, -61, 771)"/>
<path fill="none" stroke-width="0.4" stroke-linecap="butt" stroke-linejoin="round" stroke="rgb(0%, 0%, 0%)" stroke-opacity="1" stroke-miterlimit="10" d="M 576 688 L 576 768 " transform="matrix(1, 0, 0, -1, -61, 771)"/>
<path fill-rule="evenodd" fill="rgb(0%, 0%, 0%)" fill-opacity="1" stroke-width="0.4" stroke-linecap="butt" stroke-linejoin="round" stroke="rgb(0%, 0%, 0%)" stroke-opacity="1" stroke-miterlimit="10" d="M 576 768 L 573.667969 761 L 578.332031 761 Z M 576 768 " transform="matrix(1, 0, 0, -1, -61, 771)"/>
<path fill="none" stroke-width="0.4" stroke-linecap="butt" stroke-linejoin="round" stroke="rgb(0%, 0%, 0%)" stroke-opacity="1" stroke-miterlimit="10" d="M 576 768 L 496 768 " transform="matrix(1, 0, 0, -1, -61, 771)"/>
<path fill-rule="evenodd" fill="rgb(0%, 0%, 0%)" fill-opacity="1" stroke-width="0.4" stroke-linecap="butt" stroke-linejoin="round" stroke="rgb(0%, 0%, 0%)" stroke-opacity="1" stroke-miterlimit="10" d="M 496 768 L 503 765.667969 L 503 770.332031 Z M 496 768 " transform="matrix(1, 0, 0, -1, -61, 771)"/>
<path fill="none" stroke-width="0.4" stroke-linecap="butt" stroke-linejoin="round" stroke="rgb(0%, 0%, 54.5%)" stroke-opacity="1" stroke-miterlimit="10" d="M 496 768 L 496 720 " transform="matrix(1, 0, 0, -1, -61, 771)"/>
<path fill-rule="evenodd" fill="rgb(0%, 0%, 54.5%)" fill-opacity="1" stroke-width="0.4" stroke-linecap="butt" stroke-linejoin="round" stroke="rgb(0%, 0%, 54.5%)" stroke-opacity="1" stroke-miterlimit="10" d="M 496 720 L 498.332031 727 L 493.667969 727 Z M 496 720 " transform="matrix(1, 0, 0, -1, -61, 771)"/>
<path fill="none" stroke-width="0.4" stroke-linecap="butt" stroke-linejoin="round" stroke="rgb(0%, 0%, 54.5%)" stroke-opacity="1" stroke-miterlimit="10" d="M 496 720 L 560 720 " transform="matrix(1, 0, 0, -1, -61, 771)"/>
<path fill-rule="evenodd" fill="rgb(0%, 0%, 54.5%)" fill-opacity="1" stroke-width="0.4" stroke-linecap="butt" stroke-linejoin="round" stroke="rgb(0%, 0%, 54.5%)" stroke-opacity="1" stroke-miterlimit="10" d="M 560 720 L 553 722.332031 L 553 717.667969 Z M 560 720 " transform="matrix(1, 0, 0, -1, -61, 771)"/>
<path fill="none" stroke-width="0.4" stroke-linecap="butt" stroke-linejoin="round" stroke="rgb(0%, 0%, 54.5%)" stroke-opacity="1" stroke-miterlimit="10" d="M 560 720 L 560 704 " transform="matrix(1, 0, 0, -1, -61, 771)"/>
<path fill-rule="evenodd" fill="rgb(0%, 0%, 54.5%)" fill-opacity="1" stroke-width="0.4" stroke-linecap="butt" stroke-linejoin="round" stroke="rgb(0%, 0%, 54.5%)" stroke-opacity="1" stroke-miterlimit="10" d="M 560 704 L 562.332031 711 L 557.667969 711 Z M 560 704 " transform="matrix(1, 0, 0, -1, -61, 771)"/>
<path fill="none" stroke-width="0.4" stroke-linecap="butt" stroke-linejoin="round" stroke="rgb(0%, 0%, 54.5%)" stroke-opacity="1" stroke-miterlimit="10" d="M 560 704 L 464 704 " transform="matrix(1, 0, 0, -1, -61, 771)"/>
<path fill-rule="evenodd" fill="rgb(0%, 0%, 54.5%)" fill-opacity="1" stroke-width="0.4" stroke-linecap="butt" stroke-linejoin="round" stroke="rgb(0%, 0%, 54.5%)" stroke-opacity="1" stroke-miterlimit="10" d="M 464 704 L 471 701.667969 L 471 706.332031 Z M 464 704 " transform="matrix(1, 0, 0, -1, -61, 771)"/>
<path fill="none" stroke-width="0.4" stroke-linecap="butt" stroke-linejoin="round" stroke="rgb(0%, 0%, 54.5%)" stroke-opacity="1" stroke-miterlimit="10" d="M 464 704 L 464 736 " transform="matrix(1, 0, 0, -1, -61, 771)"/>
<path fill-rule="evenodd" fill="rgb(0%, 0%, 54.5%)" fill-opacity="1" stroke-width="0.4" stroke-linecap="butt" stroke-linejoin="round" stroke="rgb(0%, 0%, 54.5%)" stroke-opacity="1" stroke-miterlimit="10" d="M 464 736 L 461.667969 729 L 466.332031 729 Z M 464 736 " transform="matrix(1, 0, 0, -1, -61, 771)"/>
<path fill="none" stroke-width="0.4" stroke-linecap="butt" stroke-linejoin="round" stroke="rgb(0%, 0%, 0%)" stroke-opacity="1" stroke-miterlimit="10" d="M 448 752 L 448 688 " transform="matrix(1, 0, 0, -1, -61, 771)"/>
<path fill-rule="evenodd" fill="rgb(0%, 0%, 0%)" fill-opacity="1" stroke-width="0.4" stroke-linecap="butt" stroke-linejoin="round" stroke="rgb(0%, 0%, 0%)" stroke-opacity="1" stroke-miterlimit="10" d="M 448 688 L 450.332031 695 L 445.667969 695 Z M 448 688 " transform="matrix(1, 0, 0, -1, -61, 771)"/>
<path fill="none" stroke-width="0.4" stroke-linecap="butt" stroke-linejoin="round" stroke="rgb(0%, 0%, 0%)" stroke-opacity="1" stroke-miterlimit="10" d="M 384 640 L 256 640 " transform="matrix(1, 0, 0, -1, -61, 771)"/>
<path fill-rule="evenodd" fill="rgb(0%, 0%, 0%)" fill-opacity="1" stroke-width="0.4" stroke-linecap="butt" stroke-linejoin="round" stroke="rgb(0%, 0%, 0%)" stroke-opacity="1" stroke-miterlimit="10" d="M 256 640 L 263 637.667969 L 263 642.332031 Z M 256 640 " transform="matrix(1, 0, 0, -1, -61, 771)"/>
<path fill="none" stroke-width="0.4" stroke-linecap="butt" stroke-linejoin="round" stroke="rgb(0%, 0%, 0%)" stroke-opacity="1" stroke-miterlimit="10" d="M 256 640 L 256 592 " transform="matrix(1, 0, 0, -1, -61, 771)"/>
<path fill-rule="evenodd" fill="rgb(0%, 0%, 0%)" fill-opacity="1" stroke-width="0.4" stroke-linecap="butt" stroke-linejoin="round" stroke="rgb(0%, 0%, 0%)" stroke-opacity="1" stroke-miterlimit="10" d="M 256 592 L 258.332031 599 L 253.667969 599 Z M 256 592 " transform="matrix(1, 0, 0, -1, -61, 771)"/>
<path fill="none" stroke-width="0.4" stroke-linecap="butt" stroke-linejoin="round" stroke="rgb(0%, 0%, 0%)" stroke-opacity="1" stroke-miterlimit="10" d="M 304 576 L 384 576 " transform="matrix(1, 0, 0, -1, -61, 771)"/>
<path fill-rule="evenodd" fill="rgb(0%, 0%, 0%)" fill-opacity="1" stroke-width="0.4" stroke-linecap="butt" stroke-linejoin="round" stroke="rgb(0%, 0%, 0%)" stroke-opacity="1" stroke-miterlimit="10" d="M 384 576 L 377 578.332031 L 377 573.667969 Z M 384 576 " transform="matrix(1, 0, 0, -1, -61, 771)"/>
<path fill="none" stroke-width="0.4" stroke-linecap="butt" stroke-linejoin="round" stroke="rgb(0%, 0%, 0%)" stroke-opacity="1" stroke-miterlimit="10" d="M 384 576 L 384 640 " transform="matrix(1, 0, 0, -1, -61, 771)"/>
<path fill-rule="evenodd" fill="rgb(0%, 0%, 0%)" fill-opacity="1" stroke-width="0.4" stroke-linecap="butt" stroke-linejoin="round" stroke="rgb(0%, 0%, 0%)" stroke-opacity="1" stroke-miterlimit="10" d="M 384 640 L 381.667969 633 L 386.332031 633 Z M 384 640 " transform="matrix(1, 0, 0, -1, -61, 771)"/>
<path fill-rule="evenodd" fill="rgb(56.5%, 93.3%, 56.5%)" fill-opacity="1" stroke-width="0.4" stroke-linecap="butt" stroke-linejoin="round" stroke="rgb(0%, 0%, 0%)" stroke-opacity="1" stroke-miterlimit="10" d="M 576 640 L 448 640 L 448 592 L 512 592 L 512 608 L 496 608 L 496 576 L 576 576 Z M 576 640 " transform="matrix(1, 0, 0, -1, -61, 771)"/>
<path fill="none" stroke-width="0.4" stroke-linecap="butt" stroke-linejoin="round" stroke="rgb(0%, 0%, 0%)" stroke-opacity="1" stroke-miterlimit="10" d="M 576 640 L 448 640 " transform="matrix(1, 0, 0, -1, -61, 771)"/>
<path fill-rule="evenodd" fill="rgb(0%, 0%, 0%)" fill-opacity="1" stroke-width="0.4" stroke-linecap="butt" stroke-linejoin="round" stroke="rgb(0%, 0%, 0%)" stroke-opacity="1" stroke-miterlimit="10" d="M 448 640 L 455 637.667969 L 455 642.332031 Z M 448 640 " transform="matrix(1, 0, 0, -1, -61, 771)"/>
<path fill="none" stroke-width="0.4" stroke-linecap="butt" stroke-linejoin="round" stroke="rgb(0%, 0%, 0%)" stroke-opacity="1" stroke-miterlimit="10" d="M 448 640 L 448 592 " transform="matrix(1, 0, 0, -1, -61, 771)"/>
<path fill-rule="evenodd" fill="rgb(0%, 0%, 0%)" fill-opacity="1" stroke-width="0.4" stroke-linecap="butt" stroke-linejoin="round" stroke="rgb(0%, 0%, 0%)" stroke-opacity="1" stroke-miterlimit="10" d="M 448 592 L 450.332031 599 L 445.667969 599 Z M 448 592 " transform="matrix(1, 0, 0, -1, -61, 771)"/>
<path fill="none" stroke-width="0.4" stroke-linecap="butt" stroke-linejoin="round" stroke="rgb(0%, 0%, 0%)" stroke-opacity="1" stroke-miterlimit="10" d="M 496 608 L 496 576 " transform="matrix(1, 0, 0, -1, -61, 771)"/>
<path fill-rule="evenodd" fill="rgb(0%, 0%, 0%)" fill-opacity="1" stroke-width="0.4" stroke-linecap="butt" stroke-linejoin="round" stroke="rgb(0%, 0%, 0%)" stroke-opacity="1" stroke-miterlimit="10" d="M 496 576 L 498.332031 583 L 493.667969 583 Z M 496 576 " transform="matrix(1, 0, 0, -1, -61, 771)"/>
<path fill="none" stroke-width="0.4" stroke-linecap="butt" stroke-linejoin="round" stroke="rgb(0%, 0%, 0%)" stroke-opacity="1" stroke-miterlimit="10" d="M 496 576 L 576 576 " transform="matrix(1, 0, 0, -1, -61, 771)"/>
<path fill-rule="evenodd" fill="rgb(0%, 0%, 0%)" fill-opacity="1" stroke-width="0.4" stroke-linecap="butt" stroke-linejoin="round" stroke="rgb(0%, 0%, 0%)" stroke-opacity="1" stroke-miterlimit="10" d="M 576 576 L 569 578.332031 L 569 573.667969 Z M 576 576 " transform="matrix(1, 0, 0, -1, -61, 771)"/>
<path fill="none" stroke-width="0.4" stroke-linecap="butt" stroke-linejoin="round" stroke="rgb(0%, 0%, 0%)" stroke-opacity="1" stroke-miterlimit="10" d="M 576 576 L 576 640 " transform="matrix(1, 0, 0, -1, -61, 771)"/>
<path fill-rule="evenodd" fill="rgb(0%, 0%, 0%)" fill-opacity="1" stroke-width="0.4" stroke-linecap="butt" stroke-linejoin="round" stroke="rgb(0%, 0%, 0%)" stroke-opacity="1" stroke-miterlimit="10" d="M 576 640 L 573.667969 633 L 578.332031 633 Z M 576 640 " transform="matrix(1, 0, 0, -1, -61, 771)"/>
<path fill="none" stroke-width="0.4" stroke-linecap="butt" stroke-linejoin="round" stroke="rgb(0%, 0%, 0%)" stroke-opacity="1" stroke-miterlimit="10" d="M 144 752 L 64 752 L 64 688 L 192 688 L 192 768 L 112 768 L 112 720 L 176 720 L 176 704 L 80 704 L 80 736 L 144 736 Z M 144 752 " transform="matrix(1, 0, 0, -1, -61, 771)"/>
<path fill="none" stroke-width="0.4" stroke-linecap="butt" stroke-linejoin="round" stroke="rgb(0%, 0%, 0%)" stroke-opacity="1" stroke-miterlimit="10" d="M 64 688 L 192 688 " transform="matrix(1, 0, 0, -1, -61, 771)"/>
<path fill-rule="evenodd" fill="rgb(0%, 0%, 0%)" fill-opacity="1" stroke-width="0.4" stroke-linecap="butt" stroke-linejoin="round" stroke="rgb(0%, 0%, 0%)" stroke-opacity="1" stroke-miterlimit="10" d="M 192 688 L 185 690.332031 L 185 685.667969 Z M 192 688 " transform="matrix(1, 0, 0, -1, -61, 771)"/>
<path fill="none" stroke-width="0.4" stroke-linecap="butt" stroke-linejoin="round" stroke="rgb(0%, 0%, 0%)" stroke-opacity="1" stroke-miterlimit="10" d="M 192 688 L 192 768 " transform="matrix(1, 0, 0, -1, -61, 771)"/>
<path fill-rule="evenodd" fill="rgb(0%, 0%, 0%)" fill-opacity="1" stroke-width="0.4" stroke-linecap="butt" stroke-linejoin="round" stroke="rgb(0%, 0%, 0%)" stroke-opacity="1" stroke-miterlimit="10" d="M 192 768 L 189.667969 761 L 194.332031 761 Z M 192 768 " transform="matrix(1, 0, 0, -1, -61, 771)"/>
<path fill="none" stroke-width="0.4" stroke-linecap="butt" stroke-linejoin="round" stroke="rgb(0%, 0%, 0%)" stroke-opacity="1" stroke-miterlimit="10" d="M 192 768 L 112 768 " transform="matrix(1, 0, 0, -1, -61, 771)"/>
<path fill-rule="evenodd" fill="rgb(0%, 0%, 0%)" fill-opacity="1" stroke-width="0.4" stroke-linecap="butt" stroke-linejoin="round" stroke="rgb(0%, 0%, 0%)" stroke-opacity="1" stroke-miterlimit="10" d="M 112 768 L 119 765.667969 L 119 770.332031 Z M 112 768 " transform="matrix(1, 0, 0, -1, -61, 771)"/>
<path fill="none" stroke-width="0.4" stroke-linecap="butt" stroke-linejoin="round" stroke="rgb(0%, 0%, 0%)" stroke-opacity="1" stroke-miterlimit="10" d="M 112 768 L 112 720 " transform="matrix(1, 0, 0, -1, -61, 771)"/>
<path fill-rule="evenodd" fill="rgb(0%, 0%, 0%)" fill-opacity="1" stroke-width="0.4" stroke-linecap="butt" stroke-linejoin="round" stroke="rgb(0%, 0%, 0%)" stroke-opacity="1" stroke-miterlimit="10" d="M 112 720 L 114.332031 727 L 109.667969 727 Z M 112 720 " transform="matrix(1, 0, 0, -1, -61, 771)"/>
<path fill="none" stroke-width="0.4" stroke-linecap="butt" stroke-linejoin="round" stroke="rgb(0%, 0%, 0%)" stroke-opacity="1" stroke-miterlimit="10" d="M 112 720 L 176 720 " transform="matrix(1, 0, 0, -1, -61, 771)"/>
<path fill-rule="evenodd" fill="rgb(0%, 0%, 0%)" fill-opacity="1" stroke-width="0.4" stroke-linecap="butt" stroke-linejoin="round" stroke="rgb(0%, 0%, 0%)" stroke-opacity="1" stroke-miterlimit="10" d="M 176 720 L 169 722.332031 L 169 717.667969 Z M 176 720 " transform="matrix(1, 0, 0, -1, -61, 771)"/>
<path fill="none" stroke-width="0.4" stroke-linecap="butt" stroke-linejoin="round" stroke="rgb(0%, 0%, 0%)" stroke-opacity="1" stroke-miterlimit="10" d="M 176 720 L 176 704 " transform="matrix(1, 0, 0, -1, -61, 771)"/>
<path fill-rule="evenodd" fill="rgb(0%, 0%, 0%)" fill-opacity="1" stroke-width="0.4" stroke-linecap="butt" stroke-linejoin="round" stroke="rgb(0%, 0%, 0%)" stroke-opacity="1" stroke-miterlimit="10" d="M 176 704 L 178.332031 711 L 173.667969 711 Z M 176 704 " transform="matrix(1, 0, 0, -1, -61, 771)"/>
<path fill="none" stroke-width="0.4" stroke-linecap="butt" stroke-linejoin="round" stroke="rgb(0%, 0%, 0%)" stroke-opacity="1" stroke-miterlimit="10" d="M 176 704 L 80 704 " transform="matrix(1, 0, 0, -1, -61, 771)"/>
<path fill-rule="evenodd" fill="rgb(0%, 0%, 0%)" fill-opacity="1" stroke-width="0.4" stroke-linecap="butt" stroke-linejoin="round" stroke="rgb(0%, 0%, 0%)" stroke-opacity="1" stroke-miterlimit="10" d="M 80 704 L 87 701.667969 L 87 706.332031 Z M 80 704 " transform="matrix(1, 0, 0, -1, -61, 771)"/>
<path fill="none" stroke-width="0.4" stroke-linecap="butt" stroke-linejoin="round" stroke="rgb(0%, 0%, 0%)" stroke-opacity="1" stroke-miterlimit="10" d="M 80 704 L 80 736 " transform="matrix(1, 0, 0, -1, -61, 771)"/>
<path fill-rule="evenodd" fill="rgb(0%, 0%, 0%)" fill-opacity="1" stroke-width="0.4" stroke-linecap="butt" stroke-linejoin="round" stroke="rgb(0%, 0%, 0%)" stroke-opacity="1" stroke-miterlimit="10" d="M 80 736 L 77.667969 729 L 82.332031 729 Z M 80 736 " transform="matrix(1, 0, 0, -1, -61, 771)"/>
<path fill="none" stroke-width="0.4" stroke-linecap="butt" stroke-linejoin="round" stroke="rgb(0%, 0%, 0%)" stroke-opacity="1" stroke-miterlimit="10" d="M 80 736 L 144 736 " transform="matrix(1, 0, 0, -1, -61, 771)"/>
<path fill-rule="evenodd" fill="rgb(0%, 0%, 0%)" fill-opacity="1" stroke-width="0.4" stroke-linecap="butt" stroke-linejoin="round" stroke="rgb(0%, 0%, 0%)" stroke-opacity="1" stroke-miterlimit="10" d="M 144 736 L 137 738.332031 L 137 733.667969 Z M 144 736 " transform="matrix(1, 0, 0, -1, -61, 771)"/>
<path fill="none" stroke-width="0.4" stroke-linecap="butt" stroke-linejoin="round" stroke="rgb(0%, 0%, 0%)" stroke-opacity="1" stroke-miterlimit="10" d="M 144 736 L 144 752 " transform="matrix(1, 0, 0, -1, -61, 771)"/>
<path fill-rule="evenodd" fill="rgb(0%, 0%, 0%)" fill-opacity="1" stroke-width="0.4" stroke-linecap="butt" stroke-linejoin="round" stroke="rgb(0%, 0%, 0%)" stroke-opacity="1" stroke-miterlimit="10" d="M 144 752 L 141.667969 745 L 146.332031 745 Z M 144 752 " transform="matrix(1, 0, 0, -1, -61, 771)"/>
<path fill="none" stroke-width="0.4" stroke-linecap="butt" stroke-linejoin="round" stroke="rgb(0%, 0%, 0%)" stroke-opacity="1" stroke-miterlimit="10" d="M 144 752 L 64 752 " transform="matrix(1, 0, 0, -1, -61, 771)"/>
<path fill-rule="evenodd" fill="rgb(0%, 0%, 0%)" fill-opacity="1" stroke-width="0.4" stroke-linecap="butt" stroke-linejoin="round" stroke="rgb(0%, 0%, 0%)" stroke-opacity="1" stroke-miterlimit="10" d="M 64 752 L 71 749.667969 L 71 754.332031 Z M 64 752 " transform="matrix(1, 0, 0, -1, -61, 771)"/>
<path fill="none" stroke-width="0.4" stroke-linecap="butt" stroke-linejoin="round" stroke="rgb(0%, 0%, 0%)" stroke-opacity="1" stroke-miterlimit="10" d="M 64 752 L 64 688 " transform="matrix(1, 0, 0, -1, -61, 771)"/>
<path fill-rule="evenodd" fill="rgb(0%, 0%, 0%)" fill-opacity="1" stroke-width="0.4" stroke-linecap="butt" stroke-linejoin="round" stroke="rgb(0%, 0%, 0%)" stroke-opacity="1" stroke-miterlimit="10" d="M 64 688 L 66.332031 695 L 61.667969 695 Z M 64 688 " transform="matrix(1, 0, 0, -1, -61, 771)"/>
<path fill="none" stroke-width="0.4" stroke-linecap="butt" stroke-linejoin="round" stroke="rgb(0%, 0%, 0%)" stroke-opacity="1" stroke-miterlimit="10" d="M 384 768 L 304 768 " transform="matrix(1, 0, 0, -1, -61, 771)"/>
<path fill-rule="evenodd" fill="rgb(0%, 0%, 0%)" fill-opacity="1" stroke-width="0.4" stroke-linecap="butt" stroke-linejoin="round" stroke="rgb(0%, 0%, 0%)" stroke-opacity="1" stroke-miterlimit="10" d="M 304 768 L 311 765.667969 L 311 770.332031 Z M 304 768 " transform="matrix(1, 0, 0, -1, -61, 771)"/>
<path fill="none" stroke-width="0.4" stroke-linecap="butt" stroke-linejoin="round" stroke="rgb(66.3%, 66.3%, 66.3%)" stroke-opacity="1" stroke-miterlimit="10" d="M 272 736 L 304 736 " transform="matrix(1, 0, 0, -1, -61, 771)"/>
<path fill-rule="evenodd" fill="rgb(66.3%, 66.3%, 66.3%)" fill-opacity="1" stroke-width="0.4" stroke-linecap="butt" stroke-linejoin="round" stroke="rgb(66.3%, 66.3%, 66.3%)" stroke-opacity="1" stroke-miterlimit="10" d="M 304 736 L 297 738.332031 L 297 733.667969 Z M 304 736 " transform="matrix(1, 0, 0, -1, -61, 771)"/>
<path fill="none" stroke-width="0.4" stroke-linecap="butt" stroke-linejoin="round" stroke="rgb(66.3%, 66.3%, 66.3%)" stroke-opacity="1" stroke-miterlimit="10" d="M 304 736 L 304 720 " transform="matrix(1, 0, 0, -1, -61, 771)"/>
<path fill-rule="evenodd" fill="rgb(66.3%, 66.3%, 66.3%)" fill-opacity="1" stroke-width="0.4" stroke-linecap="butt" stroke-linejoin="round" stroke="rgb(66.3%, 66.3%, 66.3%)" stroke-opacity="1" stroke-miterlimit="10" d="M 304 720 L 306.332031 727 L 301.667969 727 Z M 304 720 " transform="matrix(1, 0, 0, -1, -61, 771)"/>
<path fill="none" stroke-width="0.4" stroke-linecap="butt" stroke-linejoin="round" stroke="rgb(66.3%, 66.3%, 66.3%)" stroke-opacity="1" stroke-miterlimit="10" d="M 304 720 L 368 720 " transform="matrix(1, 0, 0, -1, -61, 771)"/>
<path fill-rule="evenodd" fill="rgb(66.3%, 66.3%, 66.3%)" fill-opacity="1" stroke-width="0.4" stroke-linecap="butt" stroke-linejoin="round" stroke="rgb(66.3%, 66.3%, 66.3%)" stroke-opacity="1" stroke-miterlimit="10" d="M 368 720 L 361 722.332031 L 361 717.667969 Z M 368 720 " transform="matrix(1, 0, 0, -1, -61, 771)"/>
<path fill="none" stroke-width="0.4" stroke-linecap="butt" stroke-linejoin="round" stroke="rgb(0%, 0%, 0%)" stroke-opacity="1" stroke-miterlimit="10" d="M 304 768 L 304 752 " transform="matrix(1, 0, 0, -1, -61, 771)"/>
<path fill-rule="evenodd" fill="rgb(0%, 0%, 0%)" fill-opacity="1" stroke-width="0.4" stroke-linecap="butt" stroke-linejoin="round" stroke="rgb(0%, 0%, 0%)" stroke-opacity="1" stroke-miterlimit="10" d="M 304 752 L 306.332031 759 L 301.667969 759 Z M 304 752 " transform="matrix(1, 0, 0, -1, -61, 771)"/>
<path fill="none" stroke-width="0.4" stroke-linecap="butt" stroke-linejoin="round" stroke="rgb(0%, 0%, 0%)" stroke-opacity="1" stroke-miterlimit="10" d="M 304 752 L 256 752 " transform="matrix(1, 0, 0, -1, -61, 771)"/>
<path fill-rule="evenodd" fill="rgb(0%, 0%, 0%)" fill-opacity="1" stroke-width="0.4" stroke-linecap="butt" stroke-linejoin="round" stroke="rgb(0%, 0%, 0%)" stroke-opacity="1" stroke-miterlimit="10" d="M 256 752 L 263 749.667969 L 263 754.332031 Z M 256 752 " transform="matrix(1, 0, 0, -1, -61, 771)"/>
<path fill="none" stroke-width="0.4" stroke-linecap="butt" stroke-linejoin="round" stroke="rgb(0%, 0%, 0%)" stroke-opacity="1" stroke-miterlimit="10" d="M 496 768 L 496 752 " transform="matrix(1, 0, 0, -1, -61, 771)"/>
<path fill-rule="evenodd" fill="rgb(0%, 0%, 0%)" fill-opacity="1" stroke-width="0.4" stroke-linecap="butt" stroke-linejoin="round" stroke="rgb(0%, 0%, 0%)" stroke-opacity="1" stroke-miterlimit="10" d="M 496 752 L 498.332031 759 L 493.667969 759 Z M 496 752 " transform="matrix(1, 0, 0, -1, -61, 771)"/>
<path fill="none" stroke-width="0.4" stroke-linecap="butt" stroke-linejoin="round" stroke="rgb(66.3%, 66.3%, 66.3%)" stroke-opacity="1" stroke-miterlimit="10" d="M 496 752 L 528 752 " transform="matrix(1, 0, 0, -1, -61, 771)"/>
<path fill-rule="evenodd" fill="rgb(66.3%, 66.3%, 66.3%)" fill-opacity="1" stroke-width="0.4" stroke-linecap="butt" stroke-linejoin="round" stroke="rgb(66.3%, 66.3%, 66.3%)" stroke-opacity="1" stroke-miterlimit="10" d="M 528 752 L 521 754.332031 L 521 749.667969 Z M 528 752 " transform="matrix(1, 0, 0, -1, -61, 771)"/>
<path fill="none" stroke-width="0.4" stroke-linecap="butt" stroke-linejoin="round" stroke="rgb(66.3%, 66.3%, 66.3%)" stroke-opacity="1" stroke-miterlimit="10" d="M 528 752 L 528 736 " transform="matrix(1, 0, 0, -1, -61, 771)"/>
<path fill-rule="evenodd" fill="rgb(66.3%, 66.3%, 66.3%)" fill-opacity="1" stroke-width="0.4" stroke-linecap="butt" stroke-linejoin="round" stroke="rgb(66.3%, 66.3%, 66.3%)" stroke-opacity="1" stroke-miterlimit="10" d="M 528 736 L 530.332031 743 L 525.667969 743 Z M 528 736 " transform="matrix(1, 0, 0, -1, -61, 771)"/>
<path fill="none" stroke-width="0.4" stroke-linecap="butt" stroke-linejoin="round" stroke="rgb(66.3%, 66.3%, 66.3%)" stroke-opacity="1" stroke-miterlimit="10" d="M 528 736 L 496 736 " transform="matrix(1, 0, 0, -1, -61, 771)"/>
<path fill-rule="evenodd" fill="rgb(66.3%, 66.3%, 66.3%)" fill-opacity="1" stroke-width="0.4" stroke-linecap="butt" stroke-linejoin="round" stroke="rgb(66.3%, 66.3%, 66.3%)" stroke-opacity="1" stroke-miterlimit="10" d="M 496 736 L 503 733.667969 L 503 738.332031 Z M 496 736 " transform="matrix(1, 0, 0, -1, -61, 771)"/>
<path fill="none" stroke-width="0.4" stroke-linecap="butt" stroke-linejoin="round" stroke="rgb(0%, 0%, 54.5%)" stroke-opacity="1" stroke-miterlimit="10" d="M 464 736 L 496 736 " transform="matrix(1, 0, 0, -1, -61, 771)"/>
<path fill-rule="evenodd" fill="rgb(0%, 0%, 54.5%)" fill-opacity="1" stroke-width="0.4" stroke-linecap="butt" stroke-linejoin="round" stroke="rgb(0%, 0%, 54.5%)" stroke-opacity="1" stroke-miterlimit="10" d="M 496 736 L 489 738.332031 L 489 733.667969 Z M 496 736 " transform="matrix(1, 0, 0, -1, -61, 771)"/>
<path fill="none" stroke-width="0.4" stroke-linecap="butt" stroke-linejoin="round" stroke="rgb(66.3%, 66.3%, 66.3%)" stroke-opacity="1" stroke-miterlimit="10" d="M 496 736 L 496 752 " transform="matrix(1, 0, 0, -1, -61, 771)"/>
<path fill-rule="evenodd" fill="rgb(66.3%, 66.3%, 66.3%)" fill-opacity="1" stroke-width="0.4" stroke-linecap="butt" stroke-linejoin="round" stroke="rgb(66.3%, 66.3%, 66.3%)" stroke-opacity="1" stroke-miterlimit="10" d="M 496 752 L 493.667969 745 L 498.332031 745 Z M 496 752 " transform="matrix(1, 0, 0, -1, -61, 771)"/>
<path fill="none" stroke-width="0.4" stroke-linecap="butt" stroke-linejoin="round" stroke="rgb(0%, 0%, 0%)" stroke-opacity="1" stroke-miterlimit="10" d="M 496 752 L 448 752 " transform="matrix(1, 0, 0, -1, -61, 771)"/>
<path fill-rule="evenodd" fill="rgb(0%, 0%, 0%)" fill-opacity="1" stroke-width="0.4" stroke-linecap="butt" stroke-linejoin="round" stroke="rgb(0%, 0%, 0%)" stroke-opacity="1" stroke-miterlimit="10" d="M 448 752 L 455 749.667969 L 455 754.332031 Z M 448 752 " transform="matrix(1, 0, 0, -1, -61, 771)"/>
<path fill="none" stroke-width="0.4" stroke-linecap="butt" stroke-linejoin="round" stroke="rgb(0%, 0%, 0%)" stroke-opacity="1" stroke-miterlimit="10" d="M 192 640 L 64 640 L 64 592 L 128 592 L 128 608 L 112 608 L 112 576 L 192 576 Z M 192 640 " transform="matrix(1, 0, 0, -1, -61, 771)"/>
<path fill="none" stroke-width="0.4" stroke-linecap="butt" stroke-linejoin="round" stroke="rgb(0%, 0%, 0%)" stroke-opacity="1" stroke-miterlimit="10" d="M 192 640 L 64 640 " transform="matrix(1, 0, 0, -1, -61, 771)"/>
<path fill-rule="evenodd" fill="rgb(0%, 0%, 0%)" fill-opacity="1" stroke-width="0.4" stroke-linecap="butt" stroke-linejoin="round" stroke="rgb(0%, 0%, 0%)" stroke-opacity="1" stroke-miterlimit="10" d="M 64 640 L 71 637.667969 L 71 642.332031 Z M 64 640 " transform="matrix(1, 0, 0, -1, -61, 771)"/>
<path fill="none" stroke-width="0.4" stroke-linecap="butt" stroke-linejoin="round" stroke="rgb(0%, 0%, 0%)" stroke-opacity="1" stroke-miterlimit="10" d="M 64 640 L 64 592 " transform="matrix(1, 0, 0, -1, -61, 771)"/>
<path fill-rule="evenodd" fill="rgb(0%, 0%, 0%)" fill-opacity="1" stroke-width="0.4" stroke-linecap="butt" stroke-linejoin="round" stroke="rgb(0%, 0%, 0%)" stroke-opacity="1" stroke-miterlimit="10" d="M 64 592 L 66.332031 599 L 61.667969 599 Z M 64 592 " transform="matrix(1, 0, 0, -1, -61, 771)"/>
<path fill="none" stroke-width="0.4" stroke-linecap="butt" stroke-linejoin="round" stroke="rgb(0%, 0%, 0%)" stroke-opacity="1" stroke-miterlimit="10" d="M 64 592 L 128 592 " transform="matrix(1, 0, 0, -1, -61, 771)"/>
<path fill-rule="evenodd" fill="rgb(0%, 0%, 0%)" fill-opacity="1" stroke-width="0.4" stroke-linecap="butt" stroke-linejoin="round" stroke="rgb(0%, 0%, 0%)" stroke-opacity="1" stroke-miterlimit="10" d="M 128 592 L 121 594.332031 L 121 589.667969 Z M 128 592 " transform="matrix(1, 0, 0, -1, -61, 771)"/>
<path fill="none" stroke-width="0.4" stroke-linecap="butt" stroke-linejoin="round" stroke="rgb(0%, 0%, 0%)" stroke-opacity="1" stroke-miterlimit="10" d="M 128 592 L 128 608 " transform="matrix(1, 0, 0, -1, -61, 771)"/>
<path fill-rule="evenodd" fill="rgb(0%, 0%, 0%)" fill-opacity="1" stroke-width="0.4" stroke-linecap="butt" stroke-linejoin="round" stroke="rgb(0%, 0%, 0%)" stroke-opacity="1" stroke-miterlimit="10" d="M 128 608 L 125.667969 601 L 130.332031 601 Z M 128 608 " transform="matrix(1, 0, 0, -1, -61, 771)"/>
<path fill="none" stroke-width="0.4" stroke-linecap="butt" stroke-linejoin="round" stroke="rgb(0%, 0%, 0%)" stroke-opacity="1" stroke-miterlimit="10" d="M 128 608 L 112 608 " transform="matrix(1, 0, 0, -1, -61, 771)"/>
<path fill-rule="evenodd" fill="rgb(0%, 0%, 0%)" fill-opacity="1" stroke-width="0.4" stroke-linecap="butt" stroke-linejoin="round" stroke="rgb(0%, 0%, 0%)" stroke-opacity="1" stroke-miterlimit="10" d="M 112 608 L 119 605.667969 L 119 610.332031 Z M 112 608 " transform="matrix(1, 0, 0, -1, -61, 771)"/>
<path fill="none" stroke-width="0.4" stroke-linecap="butt" stroke-linejoin="round" stroke="rgb(0%, 0%, 0%)" stroke-opacity="1" stroke-miterlimit="10" d="M 112 608 L 112 576 " transform="matrix(1, 0, 0, -1, -61, 771)"/>
<path fill-rule="evenodd" fill="rgb(0%, 0%, 0%)" fill-opacity="1" stroke-width="0.4" stroke-linecap="butt" stroke-linejoin="round" stroke="rgb(0%, 0%, 0%)" stroke-opacity="1" stroke-miterlimit="10" d="M 112 576 L 114.332031 583 L 109.667969 583 Z M 112 576 " transform="matrix(1, 0, 0, -1, -61, 771)"/>
<path fill="none" stroke-width="0.4" stroke-linecap="butt" stroke-linejoin="round" stroke="rgb(0%, 0%, 0%)" stroke-opacity="1" stroke-miterlimit="10" d="M 112 576 L 192 576 " transform="matrix(1, 0, 0, -1, -61, 771)"/>
<path fill-rule="evenodd" fill="rgb(0%, 0%, 0%)" fill-opacity="1" stroke-width="0.4" stroke-linecap="butt" stroke-linejoin="round" stroke="rgb(0%, 0%, 0%)" stroke-opacity="1" stroke-miterlimit="10" d="M 192 576 L 185 578.332031 L 185 573.667969 Z M 192 576 " transform="matrix(1, 0, 0, -1, -61, 771)"/>
<path fill="none" stroke-width="0.4" stroke-linecap="butt" stroke-linejoin="round" stroke="rgb(0%, 0%, 0%)" stroke-opacity="1" stroke-miterlimit="10" d="M 192 576 L 192 640 " transform="matrix(1, 0, 0, -1, -61, 771)"/>
<path fill-rule="evenodd" fill="rgb(0%, 0%, 0%)" fill-opacity="1" stroke-width="0.4" stroke-linecap="butt" stroke-linejoin="round" stroke="rgb(0%, 0%, 0%)" stroke-opacity="1" stroke-miterlimit="10" d="M 192 640 L 189.667969 633 L 194.332031 633 Z M 192 640 " transform="matrix(1, 0, 0, -1, -61, 771)"/>
<path fill="none" stroke-width="0.4" stroke-linecap="butt" stroke-linejoin="round" stroke="rgb(66.3%, 66.3%, 66.3%)" stroke-opacity="1" stroke-miterlimit="10" d="M 512 592 L 496 592 " transform="matrix(1, 0, 0, -1, -61, 771)"/>
<path fill-rule="evenodd" fill="rgb(66.3%, 66.3%, 66.3%)" fill-opacity="1" stroke-width="0.4" stroke-linecap="butt" stroke-linejoin="round" stroke="rgb(66.3%, 66.3%, 66.3%)" stroke-opacity="1" stroke-miterlimit="10" d="M 496 592 L 503 589.667969 L 503 594.332031 Z M 496 592 " transform="matrix(1, 0, 0, -1, -61, 771)"/>
<path fill="none" stroke-width="0.4" stroke-linecap="butt" stroke-linejoin="round" stroke="rgb(66.3%, 66.3%, 66.3%)" stroke-opacity="1" stroke-miterlimit="10" d="M 496 592 L 496 608 " transform="matrix(1, 0, 0, -1, -61, 771)"/>
<path fill-rule="evenodd" fill="rgb(66.3%, 66.3%, 66.3%)" fill-opacity="1" stroke-width="0.4" stroke-linecap="butt" stroke-linejoin="round" stroke="rgb(66.3%, 66.3%, 66.3%)" stroke-opacity="1" stroke-miterlimit="10" d="M 496 608 L 493.667969 601 L 498.332031 601 Z M 496 608 " transform="matrix(1, 0, 0, -1, -61, 771)"/>
<path fill="none" stroke-width="0.4" stroke-linecap="butt" stroke-linejoin="round" stroke="rgb(66.3%, 66.3%, 66.3%)" stroke-opacity="1" stroke-miterlimit="10" d="M 496 608 L 512 608 " transform="matrix(1, 0, 0, -1, -61, 771)"/>
<path fill-rule="evenodd" fill="rgb(66.3%, 66.3%, 66.3%)" fill-opacity="1" stroke-width="0.4" stroke-linecap="butt" stroke-linejoin="round" stroke="rgb(66.3%, 66.3%, 66.3%)" stroke-opacity="1" stroke-miterlimit="10" d="M 512 608 L 505 610.332031 L 505 605.667969 Z M 512 608 " transform="matrix(1, 0, 0, -1, -61, 771)"/>
<path fill="none" stroke-width="0.4" stroke-linecap="butt" stroke-linejoin="round" stroke="rgb(66.3%, 66.3%, 66.3%)" stroke-opacity="1" stroke-miterlimit="10" d="M 512 608 L 512 592 " transform="matrix(1, 0, 0, -1, -61, 771)"/>
<path fill-rule="evenodd" fill="rgb(66.3%, 66.3%, 66.3%)" fill-opacity="1" stroke-width="0.4" stroke-linecap="butt" stroke-linejoin="round" stroke="rgb(66.3%, 66.3%, 66.3%)" stroke-opacity="1" stroke-miterlimit="10" d="M 512 592 L 514.332031 599 L 509.667969 599 Z M 512 592 " transform="matrix(1, 0, 0, -1, -61, 771)"/>
<path fill="none" stroke-width="0.4" stroke-linecap="butt" stroke-linejoin="round" stroke="rgb(0%, 0%, 0%)" stroke-opacity="1" stroke-miterlimit="10" d="M 448 592 L 496 592 " transform="matrix(1, 0, 0, -1, -61, 771)"/>
<path fill-rule="evenodd" fill="rgb(0%, 0%, 0%)" fill-opacity="1" stroke-width="0.4" stroke-linecap="butt" stroke-linejoin="round" stroke="rgb(0%, 0%, 0%)" stroke-opacity="1" stroke-miterlimit="10" d="M 496 592 L 489 594.332031 L 489 589.667969 Z M 496 592 " transform="matrix(1, 0, 0, -1, -61, 771)"/>
<path fill="none" stroke-width="0.4" stroke-linecap="butt" stroke-linejoin="round" stroke="rgb(0%, 0%, 0%)" stroke-opacity="1" stroke-miterlimit="10" d="M 256 592 L 304 592 " transform="matrix(1, 0, 0, -1, -61, 771)"/>
<path fill-rule="evenodd" fill="rgb(0%, 0%, 0%)" fill-opacity="1" stroke-width="0.4" stroke-linecap="butt" stroke-linejoin="round" stroke="rgb(0%, 0%, 0%)" stroke-opacity="1" stroke-miterlimit="10" d="M 304 592 L 297 594.332031 L 297 589.667969 Z M 304 592 " transform="matrix(1, 0, 0, -1, -61, 771)"/>
<path fill="none" stroke-width="0.4" stroke-linecap="butt" stroke-linejoin="round" stroke="rgb(0%, 0%, 0%)" stroke-opacity="1" stroke-miterlimit="10" d="M 304 592 L 304 576 " transform="matrix(1, 0, 0, -1, -61, 771)"/>
<path fill-rule="evenodd" fill="rgb(0%, 0%, 0%)" fill-opacity="1" stroke-width="0.4" stroke-linecap="butt" stroke-linejoin="round" stroke="rgb(0%, 0%, 0%)" stroke-opacity="1" stroke-miterlimit="10" d="M 304 576 L 306.332031 583 L 301.667969 583 Z M 304 576 " transform="matrix(1, 0, 0, -1, -61, 771)"/>
<path fill="none" stroke-width="0.4" stroke-linecap="butt" stroke-linejoin="round" stroke="rgb(0%, 0%, 0%)" stroke-opacity="1" stroke-miterlimit="10" d="M 64 528 L 64 464 L 192 464 L 192 528 Z M 64 528 " transform="matrix(1, 0, 0, -1, -61, 771)"/>
<path fill="none" stroke-width="0.4" stroke-linecap="butt" stroke-linejoin="round" stroke="rgb(0%, 0%, 0%)" stroke-opacity="1" stroke-miterlimit="10" d="M 96 512 L 96 480 L 160 480 L 160 512 Z M 96 512 " transform="matrix(1, 0, 0, -1, -61, 771)"/>
<path fill="none" stroke-width="0.4" stroke-linecap="butt" stroke-linejoin="round" stroke="rgb(0%, 0%, 0%)" stroke-opacity="1" stroke-miterlimit="10" d="M 64 464 L 192 464 " transform="matrix(1, 0, 0, -1, -61, 771)"/>
<path fill-rule="evenodd" fill="rgb(0%, 0%, 0%)" fill-opacity="1" stroke-width="0.4" stroke-linecap="butt" stroke-linejoin="round" stroke="rgb(0%, 0%, 0%)" stroke-opacity="1" stroke-miterlimit="10" d="M 192 464 L 185 466.332031 L 185 461.667969 Z M 192 464 " transform="matrix(1, 0, 0, -1, -61, 771)"/>
<path fill="none" stroke-width="0.4" stroke-linecap="butt" stroke-linejoin="round" stroke="rgb(0%, 0%, 0%)" stroke-opacity="1" stroke-miterlimit="10" d="M 192 464 L 192 528 " transform="matrix(1, 0, 0, -1, -61, 771)"/>
<path fill-rule="evenodd" fill="rgb(0%, 0%, 0%)" fill-opacity="1" stroke-width="0.4" stroke-linecap="butt" stroke-linejoin="round" stroke="rgb(0%, 0%, 0%)" stroke-opacity="1" stroke-miterlimit="10" d="M 192 528 L 189.667969 521 L 194.332031 521 Z M 192 528 " transform="matrix(1, 0, 0, -1, -61, 771)"/>
<path fill="none" stroke-width="0.4" stroke-linecap="butt" stroke-linejoin="round" stroke="rgb(0%, 0%, 0%)" stroke-opacity="1" stroke-miterlimit="10" d="M 192 528 L 64 528 " transform="matrix(1, 0, 0, -1, -61, 771)"/>
<path fill-rule="evenodd" fill="rgb(0%, 0%, 0%)" fill-opacity="1" stroke-width="0.4" stroke-linecap="butt" stroke-linejoin="round" stroke="rgb(0%, 0%, 0%)" stroke-opacity="1" stroke-miterlimit="10" d="M 64 528 L 71 525.667969 L 71 530.332031 Z M 64 528 " transform="matrix(1, 0, 0, -1, -61, 771)"/>
<path fill="none" stroke-width="0.4" stroke-linecap="butt" stroke-linejoin="round" stroke="rgb(0%, 0%, 0%)" stroke-opacity="1" stroke-miterlimit="10" d="M 64 528 L 64 464 " transform="matrix(1, 0, 0, -1, -61, 771)"/>
<path fill-rule="evenodd" fill="rgb(0%, 0%, 0%)" fill-opacity="1" stroke-width="0.4" stroke-linecap="butt" stroke-linejoin="round" stroke="rgb(0%, 0%, 0%)" stroke-opacity="1" stroke-miterlimit="10" d="M 64 464 L 66.332031 471 L 61.667969 471 Z M 64 464 " transform="matrix(1, 0, 0, -1, -61, 771)"/>
<path fill="none" stroke-width="0.4" stroke-linecap="butt" stroke-linejoin="round" stroke="rgb(0%, 0%, 0%)" stroke-opacity="1" stroke-miterlimit="10" d="M 96 480 L 160 480 " transform="matrix(1, 0, 0, -1, -61, 771)"/>
<path fill-rule="evenodd" fill="rgb(0%, 0%, 0%)" fill-opacity="1" stroke-width="0.4" stroke-linecap="butt" stroke-linejoin="round" stroke="rgb(0%, 0%, 0%)" stroke-opacity="1" stroke-miterlimit="10" d="M 160 480 L 153 482.332031 L 153 477.667969 Z M 160 480 " transform="matrix(1, 0, 0, -1, -61, 771)"/>
<path fill="none" stroke-width="0.4" stroke-linecap="butt" stroke-linejoin="round" stroke="rgb(0%, 0%, 0%)" stroke-opacity="1" stroke-miterlimit="10" d="M 160 480 L 160 512 " transform="matrix(1, 0, 0, -1, -61, 771)"/>
<path fill-rule="evenodd" fill="rgb(0%, 0%, 0%)" fill-opacity="1" stroke-width="0.4" stroke-linecap="butt" stroke-linejoin="round" stroke="rgb(0%, 0%, 0%)" stroke-opacity="1" stroke-miterlimit="10" d="M 160 512 L 157.667969 505 L 162.332031 505 Z M 160 512 " transform="matrix(1, 0, 0, -1, -61, 771)"/>
<path fill="none" stroke-width="0.4" stroke-linecap="butt" stroke-linejoin="round" stroke="rgb(0%, 0%, 0%)" stroke-opacity="1" stroke-miterlimit="10" d="M 160 512 L 96 512 " transform="matrix(1, 0, 0, -1, -61, 771)"/>
<path fill-rule="evenodd" fill="rgb(0%, 0%, 0%)" fill-opacity="1" stroke-width="0.4" stroke-linecap="butt" stroke-linejoin="round" stroke="rgb(0%, 0%, 0%)" stroke-opacity="1" stroke-miterlimit="10" d="M 96 512 L 103 509.667969 L 103 514.332031 Z M 96 512 " transform="matrix(1, 0, 0, -1, -61, 771)"/>
<path fill="none" stroke-width="0.4" stroke-linecap="butt" stroke-linejoin="round" stroke="rgb(0%, 0%, 0%)" stroke-opacity="1" stroke-miterlimit="10" d="M 96 512 L 96 480 " transform="matrix(1, 0, 0, -1, -61, 771)"/>
<path fill-rule="evenodd" fill="rgb(0%, 0%, 0%)" fill-opacity="1" stroke-width="0.4" stroke-linecap="butt" stroke-linejoin="round" stroke="rgb(0%, 0%, 0%)" stroke-opacity="1" stroke-miterlimit="10" d="M 96 480 L 98.332031 487 L 93.667969 487 Z M 96 480 " transform="matrix(1, 0, 0, -1, -61, 771)"/>
<path fill-rule="evenodd" fill="rgb(56.5%, 93.3%, 56.5%)" fill-opacity="1" stroke-width="0.4" stroke-linecap="butt" stroke-linejoin="round" stroke="rgb(0%, 0%, 0%)" stroke-opacity="1" stroke-miterlimit="10" d="M 256 528 L 256 464 L 384 464 L 384 528 Z M 256 528 " transform="matrix(1, 0, 0, -1, -61, 771)"/>
<path fill="none" stroke-width="0.4" stroke-linecap="butt" stroke-linejoin="round" stroke="rgb(0%, 0%, 0%)" stroke-opacity="1" stroke-miterlimit="10" d="M 384 464 L 384 528 " transform="matrix(1, 0, 0, -1, -61, 771)"/>
<path fill-rule="evenodd" fill="rgb(0%, 0%, 0%)" fill-opacity="1" stroke-width="0.4" stroke-linecap="butt" stroke-linejoin="round" stroke="rgb(0%, 0%, 0%)" stroke-opacity="1" stroke-miterlimit="10" d="M 384 528 L 381.667969 521 L 386.332031 521 Z M 384 528 " transform="matrix(1, 0, 0, -1, -61, 771)"/>
<path fill="none" stroke-width="0.4" stroke-linecap="butt" stroke-linejoin="round" stroke="rgb(0%, 0%, 0%)" stroke-opacity="1" stroke-miterlimit="10" d="M 384 528 L 256 528 " transform="matrix(1, 0, 0, -1, -61, 771)"/>
<path fill-rule="evenodd" fill="rgb(0%, 0%, 0%)" fill-opacity="1" stroke-width="0.4" stroke-linecap="butt" stroke-linejoin="round" stroke="rgb(0%, 0%, 0%)" stroke-opacity="1" stroke-miterlimit="10" d="M 256 528 L 263 525.667969 L 263 530.332031 Z M 256 528 " transform="matrix(1, 0, 0, -1, -61, 771)"/>
<path fill="none" stroke-width="0.4" stroke-linecap="butt" stroke-linejoin="round" stroke="rgb(0%, 0%, 0%)" stroke-opacity="1" stroke-miterlimit="10" d="M 256 528 L 256 464 " transform="matrix(1, 0, 0, -1, -61, 771)"/>
<path fill-rule="evenodd" fill="rgb(0%, 0%, 0%)" fill-opacity="1" stroke-width="0.4" stroke-linecap="butt" stroke-linejoin="round" stroke="rgb(0%, 0%, 0%)" stroke-opacity="1" stroke-miterlimit="10" d="M 256 464 L 258.332031 471 L 253.667969 471 Z M 256 464 " transform="matrix(1, 0, 0, -1, -61, 771)"/>
<path fill="none" stroke-width="0.4" stroke-linecap="butt" stroke-linejoin="round" stroke="rgb(0%, 0%, 0%)" stroke-opacity="1" stroke-miterlimit="10" d="M 448 464 L 576 464 " transform="matrix(1, 0, 0, -1, -61, 771)"/>
<path fill-rule="evenodd" fill="rgb(0%, 0%, 0%)" fill-opacity="1" stroke-width="0.4" stroke-linecap="butt" stroke-linejoin="round" stroke="rgb(0%, 0%, 0%)" stroke-opacity="1" stroke-miterlimit="10" d="M 576 464 L 569 466.332031 L 569 461.667969 Z M 576 464 " transform="matrix(1, 0, 0, -1, -61, 771)"/>
<path fill="none" stroke-width="0.4" stroke-linecap="butt" stroke-linejoin="round" stroke="rgb(0%, 0%, 0%)" stroke-opacity="1" stroke-miterlimit="10" d="M 576 464 L 576 528 " transform="matrix(1, 0, 0, -1, -61, 771)"/>
<path fill-rule="evenodd" fill="rgb(0%, 0%, 0%)" fill-opacity="1" stroke-width="0.4" stroke-linecap="butt" stroke-linejoin="round" stroke="rgb(0%, 0%, 0%)" stroke-opacity="1" stroke-miterlimit="10" d="M 576 528 L 573.667969 521 L 578.332031 521 Z M 576 528 " transform="matrix(1, 0, 0, -1, -61, 771)"/>
<path fill="none" stroke-width="0.4" stroke-linecap="butt" stroke-linejoin="round" stroke="rgb(0%, 0%, 0%)" stroke-opacity="1" stroke-miterlimit="10" d="M 576 528 L 448 528 " transform="matrix(1, 0, 0, -1, -61, 771)"/>
<path fill-rule="evenodd" fill="rgb(0%, 0%, 0%)" fill-opacity="1" stroke-width="0.4" stroke-linecap="butt" stroke-linejoin="round" stroke="rgb(0%, 0%, 0%)" stroke-opacity="1" stroke-miterlimit="10" d="M 448 528 L 455 525.667969 L 455 530.332031 Z M 448 528 " transform="matrix(1, 0, 0, -1, -61, 771)"/>
<path fill="none" stroke-width="0.4" stroke-linecap="butt" stroke-linejoin="round" stroke="rgb(0%, 0%, 0%)" stroke-opacity="1" stroke-miterlimit="10" d="M 480 512 L 544 512 " transform="matrix(1, 0, 0, -1, -61, 771)"/>
<path fill-rule="evenodd" fill="rgb(0%, 0%, 0%)" fill-opacity="1" stroke-width="0.4" stroke-linecap="butt" stroke-linejoin="round" stroke="rgb(0%, 0%, 0%)" stroke-opacity="1" stroke-miterlimit="10" d="M 544 512 L 537 514.332031 L 537 509.667969 Z M 544 512 " transform="matrix(1, 0, 0, -1, -61, 771)"/>
<path fill="none" stroke-width="0.4" stroke-linecap="butt" stroke-linejoin="round" stroke="rgb(0%, 0%, 0%)" stroke-opacity="1" stroke-miterlimit="10" d="M 544 512 L 544 480 " transform="matrix(1, 0, 0, -1, -61, 771)"/>
<path fill-rule="evenodd" fill="rgb(0%, 0%, 0%)" fill-opacity="1" stroke-width="0.4" stroke-linecap="butt" stroke-linejoin="round" stroke="rgb(0%, 0%, 0%)" stroke-opacity="1" stroke-miterlimit="10" d="M 544 480 L 546.332031 487 L 541.667969 487 Z M 544 480 " transform="matrix(1, 0, 0, -1, -61, 771)"/>
<path fill="none" stroke-width="0.4" stroke-linecap="butt" stroke-linejoin="round" stroke="rgb(0%, 0%, 0%)" stroke-opacity="1" stroke-miterlimit="10" d="M 544 480 L 480 480 " transform="matrix(1, 0, 0, -1, -61, 771)"/>
<path fill-rule="evenodd" fill="rgb(0%, 0%, 0%)" fill-opacity="1" stroke-width="0.4" stroke-linecap="butt" stroke-linejoin="round" stroke="rgb(0%, 0%, 0%)" stroke-opacity="1" stroke-miterlimit="10" d="M 480 480 L 487 477.667969 L 487 482.332031 Z M 480 480 " transform="matrix(1, 0, 0, -1, -61, 771)"/>
<path fill="none" stroke-width="0.4" stroke-linecap="butt" stroke-linejoin="round" stroke="rgb(0%, 0%, 0%)" stroke-opacity="1" stroke-miterlimit="10" d="M 448 528 L 448 464 " transform="matrix(1, 0, 0, -1, -61, 771)"/>
<path fill-rule="evenodd" fill="rgb(0%, 0%, 0%)" fill-opacity="1" stroke-width="0.4" stroke-linecap="butt" stroke-linejoin="round" stroke="rgb(0%, 0%, 0%)" stroke-opacity="1" stroke-miterlimit="10" d="M 448 464 L 450.332031 471 L 445.667969 471 Z M 448 464 " transform="matrix(1, 0, 0, -1, -61, 771)"/>
<path fill="none" stroke-width="0.4" stroke-linecap="butt" stroke-linejoin="round" stroke="rgb(0%, 0%, 0%)" stroke-opacity="1" stroke-miterlimit="10" d="M 480 480 L 480 512 " transform="matrix(1, 0, 0, -1, -61, 771)"/>
<path fill-rule="evenodd" fill="rgb(0%, 0%, 0%)" fill-opacity="1" stroke-width="0.4" stroke-linecap="butt" stroke-linejoin="round" stroke="rgb(0%, 0%, 0%)" stroke-opacity="1" stroke-miterlimit="10" d="M 480 512 L 477.667969 505 L 482.332031 505 Z M 480 512 " transform="matrix(1, 0, 0, -1, -61, 771)"/>
<path fill="none" stroke-width="0.4" stroke-linecap="butt" stroke-linejoin="round" stroke="rgb(0%, 0%, 0%)" stroke-opacity="1" stroke-miterlimit="10" d="M 256 464 L 384 464 " transform="matrix(1, 0, 0, -1, -61, 771)"/>
<path fill-rule="evenodd" fill="rgb(0%, 0%, 0%)" fill-opacity="1" stroke-width="0.4" stroke-linecap="butt" stroke-linejoin="round" stroke="rgb(0%, 0%, 0%)" stroke-opacity="1" stroke-miterlimit="10" d="M 384 464 L 377 466.332031 L 377 461.667969 Z M 384 464 " transform="matrix(1, 0, 0, -1, -61, 771)"/>
</svg>
