<?xml version="1.0" encoding="UTF-8"?>
<svg xmlns="http://www.w3.org/2000/svg" xmlns:xlink="http://www.w3.org/1999/xlink" width="358" height="198" viewBox="0 0 358 198">
<path fill="none" stroke-width="0.4" stroke-linecap="butt" stroke-linejoin="round" stroke="rgb(0%, 0%, 0%)" stroke-opacity="1" stroke-miterlimit="10" d="M 64 704 L 192 704 L 192 768 L 64 768 Z M 32 752 L 128 752 L 128 720 L 32 720 Z M 32 752 " transform="matrix(1, 0, 0, -1, -29, 771)"/>
<path fill="none" stroke-width="0.4" stroke-linecap="butt" stroke-linejoin="round" stroke="rgb(0%, 0%, 0%)" stroke-opacity="1" stroke-miterlimit="10" d="M 64 704 L 192 704 " transform="matrix(1, 0, 0, -1, -29, 771)"/>
<path fill-rule="evenodd" fill="rgb(0%, 0%, 0%)" fill-opacity="1" stroke-width="0.4" stroke-linecap="butt" stroke-linejoin="round" stroke="rgb(0%, 0%, 0%)" stroke-opacity="1" stroke-miterlimit="10" d="M 192 704 L 185 706.332031 L 185 701.667969 Z M 192 704 " transform="matrix(1, 0, 0, -1, -29, 771)"/>
<path fill="none" stroke-width="0.4" stroke-linecap="butt" stroke-linejoin="round" stroke="rgb(0%, 0%, 0%)" stroke-opacity="1" stroke-miterlimit="10" d="M 192 704 L 192 768 " transform="matrix(1, 0, 0, -1, -29, 771)"/>
<path fill-rule="evenodd" fill="rgb(0%, 0%, 0%)" fill-opacity="1" stroke-width="0.4" stroke-linecap="butt" stroke-linejoin="round" stroke="rgb(0%, 0%, 0%)" stroke-opacity="1" stroke-miterlimit="10" d="M 192 768 L 189.667969 761 L 194.332031 761 Z M 192 768 " transform="matrix(1, 0, 0, -1, -29, 771)"/>
<path fill="none" stroke-width="0.4" stroke-linecap="butt" stroke-linejoin="round" stroke="rgb(0%, 0%, 0%)" stroke-opacity="1" stroke-miterlimit="10" d="M 192 768 L 64 768 " transform="matrix(1, 0, 0, -1, -29, 771)"/>
<path fill-rule="evenodd" fill="rgb(0%, 0%, 0%)" fill-opacity="1" stroke-width="0.4" stroke-linecap="butt" stroke-linejoin="round" stroke="rgb(0%, 0%, 0%)" stroke-opacity="1" stroke-miterlimit="10" d="M 64 768 L 71 765.667969 L 71 770.332031 Z M 64 768 " transform="matrix(1, 0, 0, -1, -29, 771)"/>
<path fill="none" stroke-width="0.4" stroke-linecap="butt" stroke-linejoin="round" stroke="rgb(0%, 0%, 0%)" stroke-opacity="1" stroke-miterlimit="10" d="M 64 768 L 64 704 " transform="matrix(1, 0, 0, -1, -29, 771)"/>
<path fill-rule="evenodd" fill="rgb(0%, 0%, 0%)" fill-opacity="1" stroke-width="0.4" stroke-linecap="butt" stroke-linejoin="round" stroke="rgb(0%, 0%, 0%)" stroke-opacity="1" stroke-miterlimit="10" d="M 64 704 L 66.332031 711 L 61.667969 711 Z M 64 704 " transform="matrix(1, 0, 0, -1, -29, 771)"/>
<path fill="none" stroke-width="0.4" stroke-linecap="butt" stroke-linejoin="round" stroke="rgb(0%, 54.5%, 54.5%)" stroke-opacity="1" stroke-miterlimit="10" d="M 128 720 L 32 720 " transform="matrix(1, 0, 0, -1, -29, 771)"/>
<path fill-rule="evenodd" fill="rgb(0%, 54.5%, 54.5%)" fill-opacity="1" stroke-width="0.4" stroke-linecap="butt" stroke-linejoin="round" stroke="rgb(0%, 54.5%, 54.5%)" stroke-opacity="1" stroke-miterlimit="10" d="M 32 720 L 39 717.667969 L 39 722.332031 Z M 32 720 " transform="matrix(1, 0, 0, -1, -29, 771)"/>
<path fill="none" stroke-width="0.4" stroke-linecap="butt" stroke-linejoin="round" stroke="rgb(0%, 54.5%, 54.5%)" stroke-opacity="1" stroke-miterlimit="10" d="M 32 720 L 32 752 " transform="matrix(1, 0, 0, -1, -29, 771)"/>
<path fill-rule="evenodd" fill="rgb(0%, 54.5%, 54.5%)" fill-opacity="1" stroke-width="0.4" stroke-linecap="butt" stroke-linejoin="round" stroke="rgb(0%, 54.5%, 54.5%)" stroke-opacity="1" stroke-miterlimit="10" d="M 32 752 L 29.667969 745 L 34.332031 745 Z M 32 752 " transform="matrix(1, 0, 0, -1, -29, 771)"/>
<path fill="none" stroke-width="0.4" stroke-linecap="butt" stroke-linejoin="round" stroke="rgb(0%, 54.5%, 54.5%)" stroke-opacity="1" stroke-miterlimit="10" d="M 32 752 L 128 752 " transform="matrix(1, 0, 0, -1, -29, 771)"/>
<path fill-rule="evenodd" fill="rgb(0%, 54.5%, 54.5%)" fill-opacity="1" stroke-width="0.4" stroke-linecap="butt" stroke-linejoin="round" stroke="rgb(0%, 54.5%, 54.5%)" stroke-opacity="1" stroke-miterlimit="10" d="M 128 752 L 121 754.332031 L 121 749.667969 Z M 128 752 " transform="matrix(1, 0, 0, -1, -29, 771)"/>
<path fill="none" stroke-width="0.4" stroke-linecap="butt" stroke-linejoin="round" stroke="rgb(0%, 54.5%, 54.5%)" stroke-opacity="1" stroke-miterlimit="10" d="M 128 752 L 128 720 " transform="matrix(1, 0, 0, -1, -29, 771)"/>
<path fill-rule="evenodd" fill="rgb(0%, 54.5%, 54.5%)" fill-opacity="1" stroke-width="0.4" stroke-linecap="butt" stroke-linejoin="round" stroke="rgb(0%, 54.5%, 54.5%)" stroke-opacity="1" stroke-miterlimit="10" d="M 128 720 L 130.332031 727 L 125.667969 727 Z M 128 720 " transform="matrix(1, 0, 0, -1, -29, 771)"/>
<path fill="none" stroke-width="0.4" stroke-linecap="butt" stroke-linejoin="round" stroke="rgb(0%, 0%, 0%)" stroke-opacity="1" stroke-miterlimit="10" d="M 192 640 L 64 640 L 64 592 L 128 592 L 128 576 L 112 576 L 112 608 L 192 608 Z M 192 640 " transform="matrix(1, 0, 0, -1, -29, 771)"/>
<path fill="none" stroke-width="0.4" stroke-linecap="butt" stroke-linejoin="round" stroke="rgb(0%, 0%, 0%)" stroke-opacity="1" stroke-miterlimit="10" d="M 192 640 L 64 640 " transform="matrix(1, 0, 0, -1, -29, 771)"/>
<path fill-rule="evenodd" fill="rgb(0%, 0%, 0%)" fill-opacity="1" stroke-width="0.4" stroke-linecap="butt" stroke-linejoin="round" stroke="rgb(0%, 0%, 0%)" stroke-opacity="1" stroke-miterlimit="10" d="M 64 640 L 71 637.667969 L 71 642.332031 Z M 64 640 " transform="matrix(1, 0, 0, -1, -29, 771)"/>
<path fill="none" stroke-width="0.4" stroke-linecap="butt" stroke-linejoin="round" stroke="rgb(0%, 0%, 0%)" stroke-opacity="1" stroke-miterlimit="10" d="M 64 640 L 64 592 " transform="matrix(1, 0, 0, -1, -29, 771)"/>
<path fill-rule="evenodd" fill="rgb(0%, 0%, 0%)" fill-opacity="1" stroke-width="0.4" stroke-linecap="butt" stroke-linejoin="round" stroke="rgb(0%, 0%, 0%)" stroke-opacity="1" stroke-miterlimit="10" d="M 64 592 L 66.332031 599 L 61.667969 599 Z M 64 592 " transform="matrix(1, 0, 0, -1, -29, 771)"/>
<path fill="none" stroke-width="0.4" stroke-linecap="butt" stroke-linejoin="round" stroke="rgb(0%, 0%, 0%)" stroke-opacity="1" stroke-miterlimit="10" d="M 64 592 L 128 592 " transform="matrix(1, 0, 0, -1, -29, 771)"/>
<path fill-rule="evenodd" fill="rgb(0%, 0%, 0%)" fill-opacity="1" stroke-width="0.4" stroke-linecap="butt" stroke-linejoin="round" stroke="rgb(0%, 0%, 0%)" stroke-opacity="1" stroke-miterlimit="10" d="M 128 592 L 121 594.332031 L 121 589.667969 Z M 128 592 " transform="matrix(1, 0, 0, -1, -29, 771)"/>
<path fill="none" stroke-width="0.4" stroke-linecap="butt" stroke-linejoin="round" stroke="rgb(0%, 0%, 0%)" stroke-opacity="1" stroke-miterlimit="10" d="M 128 592 L 128 576 " transform="matrix(1, 0, 0, -1, -29, 771)"/>
<path fill-rule="evenodd" fill="rgb(0%, 0%, 0%)" fill-opacity="1" stroke-width="0.4" stroke-linecap="butt" stroke-linejoin="round" stroke="rgb(0%, 0%, 0%)" stroke-opacity="1" stroke-miterlimit="10" d="M 128 576 L 130.332031 583 L 125.667969 583 Z M 128 576 " transform="matrix(1, 0, 0, -1, -29, 771)"/>
<path fill="none" stroke-width="0.4" stroke-linecap="butt" stroke-linejoin="round" stroke="rgb(0%, 0%, 0%)" stroke-opacity="1" stroke-miterlimit="10" d="M 128 576 L 112 576 " transform="matrix(1, 0, 0, -1, -29, 771)"/>
<path fill-rule="evenodd" fill="rgb(0%, 0%, 0%)" fill-opacity="1" stroke-width="0.4" stroke-linecap="butt" stroke-linejoin="round" stroke="rgb(0%, 0%, 0%)" stroke-opacity="1" stroke-miterlimit="10" d="M 112 576 L 119 573.667969 L 119 578.332031 Z M 112 576 " transform="matrix(1, 0, 0, -1, -29, 771)"/>
<path fill="none" stroke-width="0.4" stroke-linecap="butt" stroke-linejoin="round" stroke="rgb(0%, 0%, 0%)" stroke-opacity="1" stroke-miterlimit="10" d="M 112 576 L 112 608 " transform="matrix(1, 0, 0, -1, -29, 771)"/>
<path fill-rule="evenodd" fill="rgb(0%, 0%, 0%)" fill-opacity="1" stroke-width="0.4" stroke-linecap="butt" stroke-linejoin="round" stroke="rgb(0%, 0%, 0%)" stroke-opacity="1" stroke-miterlimit="10" d="M 112 608 L 109.667969 601 L 114.332031 601 Z M 112 608 " transform="matrix(1, 0, 0, -1, -29, 771)"/>
<path fill="none" stroke-width="0.4" stroke-linecap="butt" stroke-linejoin="round" stroke="rgb(0%, 0%, 0%)" stroke-opacity="1" stroke-miterlimit="10" d="M 112 608 L 192 608 " transform="matrix(1, 0, 0, -1, -29, 771)"/>
<path fill-rule="evenodd" fill="rgb(0%, 0%, 0%)" fill-opacity="1" stroke-width="0.4" stroke-linecap="butt" stroke-linejoin="round" stroke="rgb(0%, 0%, 0%)" stroke-opacity="1" stroke-miterlimit="10" d="M 192 608 L 185 610.332031 L 185 605.667969 Z M 192 608 " transform="matrix(1, 0, 0, -1, -29, 771)"/>
<path fill="none" stroke-width="0.4" stroke-linecap="butt" stroke-linejoin="round" stroke="rgb(0%, 0%, 0%)" stroke-opacity="1" stroke-miterlimit="10" d="M 192 608 L 192 640 " transform="matrix(1, 0, 0, -1, -29, 771)"/>
<path fill-rule="evenodd" fill="rgb(0%, 0%, 0%)" fill-opacity="1" stroke-width="0.4" stroke-linecap="butt" stroke-linejoin="round" stroke="rgb(0%, 0%, 0%)" stroke-opacity="1" stroke-miterlimit="10" d="M 192 640 L 189.667969 633 L 194.332031 633 Z M 192 640 " transform="matrix(1, 0, 0, -1, -29, 771)"/>
<path fill-rule="evenodd" fill="rgb(56.5%, 93.3%, 56.5%)" fill-opacity="1" stroke-width="0.4" stroke-linecap="butt" stroke-linejoin="round" stroke="rgb(0%, 0%, 0%)" stroke-opacity="1" stroke-miterlimit="10" d="M 384 640 L 256 640 L 256 592 L 320 592 L 320 576 L 304 576 L 304 608 L 384 608 Z M 384 640 " transform="matrix(1, 0, 0, -1, -29, 771)"/>
<path fill="none" stroke-width="0.4" stroke-linecap="butt" stroke-linejoin="round" stroke="rgb(0%, 0%, 0%)" stroke-opacity="1" stroke-miterlimit="10" d="M 384 640 L 256 640 " transform="matrix(1, 0, 0, -1, -29, 771)"/>
<path fill-rule="evenodd" fill="rgb(0%, 0%, 0%)" fill-opacity="1" stroke-width="0.4" stroke-linecap="butt" stroke-linejoin="round" stroke="rgb(0%, 0%, 0%)" stroke-opacity="1" stroke-miterlimit="10" d="M 256 640 L 263 637.667969 L 263 642.332031 Z M 256 640 " transform="matrix(1, 0, 0, -1, -29, 771)"/>
<path fill="none" stroke-width="0.4" stroke-linecap="butt" stroke-linejoin="round" stroke="rgb(0%, 0%, 0%)" stroke-opacity="1" stroke-miterlimit="10" d="M 256 640 L 256 592 " transform="matrix(1, 0, 0, -1, -29, 771)"/>
<path fill-rule="evenodd" fill="rgb(0%, 0%, 0%)" fill-opacity="1" stroke-width="0.4" stroke-linecap="butt" stroke-linejoin="round" stroke="rgb(0%, 0%, 0%)" stroke-opacity="1" stroke-miterlimit="10" d="M 256 592 L 258.332031 599 L 253.667969 599 Z M 256 592 " transform="matrix(1, 0, 0, -1, -29, 771)"/>
<path fill="none" stroke-width="0.4" stroke-linecap="butt" stroke-linejoin="round" stroke="rgb(0%, 0%, 0%)" stroke-opacity="1" stroke-miterlimit="10" d="M 304 608 L 384 608 " transform="matrix(1, 0, 0, -1, -29, 771)"/>
<path fill-rule="evenodd" fill="rgb(0%, 0%, 0%)" fill-opacity="1" stroke-width="0.4" stroke-linecap="butt" stroke-linejoin="round" stroke="rgb(0%, 0%, 0%)" stroke-opacity="1" stroke-miterlimit="10" d="M 384 608 L 377 610.332031 L 377 605.667969 Z M 384 608 " transform="matrix(1, 0, 0, -1, -29, 771)"/>
<path fill="none" stroke-width="0.4" stroke-linecap="butt" stroke-linejoin="round" stroke="rgb(0%, 0%, 0%)" stroke-opacity="1" stroke-miterlimit="10" d="M 384 608 L 384 640 " transform="matrix(1, 0, 0, -1, -29, 771)"/>
<path fill-rule="evenodd" fill="rgb(0%, 0%, 0%)" fill-opacity="1" stroke-width="0.4" stroke-linecap="butt" stroke-linejoin="round" stroke="rgb(0%, 0%, 0%)" stroke-opacity="1" stroke-miterlimit="10" d="M 384 640 L 381.667969 633 L 386.332031 633 Z M 384 640 " transform="matrix(1, 0, 0, -1, -29, 771)"/>
<path fill-rule="evenodd" fill="rgb(56.5%, 93.3%, 56.5%)" fill-opacity="1" stroke-width="0.4" stroke-linecap="butt" stroke-linejoin="round" stroke="rgb(0%, 0%, 0%)" stroke-opacity="1" stroke-miterlimit="10" d="M 256 704 L 384 704 L 384 768 L 256 768 Z M 224 752 L 320 752 L 320 720 L 224 720 Z M 224 752 " transform="matrix(1, 0, 0, -1, -29, 771)"/>
<path fill="none" stroke-width="0.4" stroke-linecap="butt" stroke-linejoin="round" stroke="rgb(0%, 0%, 0%)" stroke-opacity="1" stroke-miterlimit="10" d="M 256 704 L 384 704 " transform="matrix(1, 0, 0, -1, -29, 771)"/>
<path fill-rule="evenodd" fill="rgb(0%, 0%, 0%)" fill-opacity="1" stroke-width="0.4" stroke-linecap="butt" stroke-linejoin="round" stroke="rgb(0%, 0%, 0%)" stroke-opacity="1" stroke-miterlimit="10" d="M 384 704 L 377 706.332031 L 377 701.667969 Z M 384 704 " transform="matrix(1, 0, 0, -1, -29, 771)"/>
<path fill="none" stroke-width="0.4" stroke-linecap="butt" stroke-linejoin="round" stroke="rgb(0%, 0%, 0%)" stroke-opacity="1" stroke-miterlimit="10" d="M 384 704 L 384 768 " transform="matrix(1, 0, 0, -1, -29, 771)"/>
<path fill-rule="evenodd" fill="rgb(0%, 0%, 0%)" fill-opacity="1" stroke-width="0.4" stroke-linecap="butt" stroke-linejoin="round" stroke="rgb(0%, 0%, 0%)" stroke-opacity="1" stroke-miterlimit="10" d="M 384 768 L 381.667969 761 L 386.332031 761 Z M 384 768 " transform="matrix(1, 0, 0, -1, -29, 771)"/>
<path fill="none" stroke-width="0.4" stroke-linecap="butt" stroke-linejoin="round" stroke="rgb(0%, 0%, 0%)" stroke-opacity="1" stroke-miterlimit="10" d="M 384 768 L 256 768 " transform="matrix(1, 0, 0, -1, -29, 771)"/>
<path fill-rule="evenodd" fill="rgb(0%, 0%, 0%)" fill-opacity="1" stroke-width="0.4" stroke-linecap="butt" stroke-linejoin="round" stroke="rgb(0%, 0%, 0%)" stroke-opacity="1" stroke-miterlimit="10" d="M 256 768 L 263 765.667969 L 263 770.332031 Z M 256 768 " transform="matrix(1, 0, 0, -1, -29, 771)"/>
<path fill="none" stroke-width="0.4" stroke-linecap="butt" stroke-linejoin="round" stroke="rgb(0%, 0%, 0%)" stroke-opacity="1" stroke-miterlimit="10" d="M 256 592 L 304 592 " transform="matrix(1, 0, 0, -1, -29, 771)"/>
<path fill-rule="evenodd" fill="rgb(0%, 0%, 0%)" fill-opacity="1" stroke-width="0.4" stroke-linecap="butt" stroke-linejoin="round" stroke="rgb(0%, 0%, 0%)" stroke-opacity="1" stroke-miterlimit="10" d="M 304 592 L 297 594.332031 L 297 589.667969 Z M 304 592 " transform="matrix(1, 0, 0, -1, -29, 771)"/>
<path fill="none" stroke-width="0.4" stroke-linecap="butt" stroke-linejoin="round" stroke="rgb(0%, 0%, 0%)" stroke-opacity="1" stroke-miterlimit="10" d="M 304 592 L 304 608 " transform="matrix(1, 0, 0, -1, -29, 771)"/>
<path fill-rule="evenodd" fill="rgb(0%, 0%, 0%)" fill-opacity="1" stroke-width="0.4" stroke-linecap="butt" stroke-linejoin="round" stroke="rgb(0%, 0%, 0%)" stroke-opacity="1" stroke-miterlimit="10" d="M 304 608 L 301.667969 601 L 306.332031 601 Z M 304 608 " transform="matrix(1, 0, 0, -1, -29, 771)"/>
<path fill="none" stroke-width="0.4" stroke-linecap="butt" stroke-linejoin="round" stroke="rgb(66.3%, 66.3%, 66.3%)" stroke-opacity="1" stroke-miterlimit="10" d="M 304 576 L 320 576 " transform="matrix(1, 0, 0, -1, -29, 771)"/>
<path fill-rule="evenodd" fill="rgb(66.3%, 66.3%, 66.3%)" fill-opacity="1" stroke-width="0.4" stroke-linecap="butt" stroke-linejoin="round" stroke="rgb(66.3%, 66.3%, 66.3%)" stroke-opacity="1" stroke-miterlimit="10" d="M 320 576 L 313 578.332031 L 313 573.667969 Z M 320 576 " transform="matrix(1, 0, 0, -1, -29, 771)"/>
<path fill="none" stroke-width="0.4" stroke-linecap="butt" stroke-linejoin="round" stroke="rgb(66.3%, 66.3%, 66.3%)" stroke-opacity="1" stroke-miterlimit="10" d="M 320 576 L 320 592 " transform="matrix(1, 0, 0, -1, -29, 771)"/>
<path fill-rule="evenodd" fill="rgb(66.3%, 66.3%, 66.3%)" fill-opacity="1" stroke-width="0.4" stroke-linecap="butt" stroke-linejoin="round" stroke="rgb(66.3%, 66.3%, 66.3%)" stroke-opacity="1" stroke-miterlimit="10" d="M 320 592 L 317.667969 585 L 322.332031 585 Z M 320 592 " transform="matrix(1, 0, 0, -1, -29, 771)"/>
<path fill="none" stroke-width="0.4" stroke-linecap="butt" stroke-linejoin="round" stroke="rgb(66.3%, 66.3%, 66.3%)" stroke-opacity="1" stroke-miterlimit="10" d="M 320 592 L 304 592 " transform="matrix(1, 0, 0, -1, -29, 771)"/>
<path fill-rule="evenodd" fill="rgb(66.3%, 66.3%, 66.3%)" fill-opacity="1" stroke-width="0.4" stroke-linecap="butt" stroke-linejoin="round" stroke="rgb(66.3%, 66.3%, 66.3%)" stroke-opacity="1" stroke-miterlimit="10" d="M 304 592 L 311 589.667969 L 311 594.332031 Z M 304 592 " transform="matrix(1, 0, 0, -1, -29, 771)"/>
<path fill="none" stroke-width="0.4" stroke-linecap="butt" stroke-linejoin="round" stroke="rgb(66.3%, 66.3%, 66.3%)" stroke-opacity="1" stroke-miterlimit="10" d="M 304 592 L 304 576 " transform="matrix(1, 0, 0, -1, -29, 771)"/>
<path fill-rule="evenodd" fill="rgb(66.3%, 66.3%, 66.3%)" fill-opacity="1" stroke-width="0.4" stroke-linecap="butt" stroke-linejoin="round" stroke="rgb(66.3%, 66.3%, 66.3%)" stroke-opacity="1" stroke-miterlimit="10" d="M 304 576 L 306.332031 583 L 301.667969 583 Z M 304 576 " transform="matrix(1, 0, 0, -1, -29, 771)"/>
<path fill="none" stroke-width="0.4" stroke-linecap="butt" stroke-linejoin="round" stroke="rgb(0%, 0%, 0%)" stroke-opacity="1" stroke-miterlimit="10" d="M 256 768 L 256 752 " transform="matrix(1, 0, 0, -1, -29, 771)"/>
<path fill-rule="evenodd" fill="rgb(0%, 0%, 0%)" fill-opacity="1" stroke-width="0.4" stroke-linecap="butt" stroke-linejoin="round" stroke="rgb(0%, 0%, 0%)" stroke-opacity="1" stroke-miterlimit="10" d="M 256 752 L 258.332031 759 L 253.667969 759 Z M 256 752 " transform="matrix(1, 0, 0, -1, -29, 771)"/>
<path fill="none" stroke-width="0.4" stroke-linecap="butt" stroke-linejoin="round" stroke="rgb(0%, 0%, 0%)" stroke-opacity="1" stroke-miterlimit="10" d="M 256 752 L 320 752 " transform="matrix(1, 0, 0, -1, -29, 771)"/>
<path fill-rule="evenodd" fill="rgb(0%, 0%, 0%)" fill-opacity="1" stroke-width="0.4" stroke-linecap="butt" stroke-linejoin="round" stroke="rgb(0%, 0%, 0%)" stroke-opacity="1" stroke-miterlimit="10" d="M 320 752 L 313 754.332031 L 313 749.667969 Z M 320 752 " transform="matrix(1, 0, 0, -1, -29, 771)"/>
<path fill="none" stroke-width="0.4" stroke-linecap="butt" stroke-linejoin="round" stroke="rgb(0%, 0%, 0%)" stroke-opacity="1" stroke-miterlimit="10" d="M 320 752 L 320 720 " transform="matrix(1, 0, 0, -1, -29, 771)"/>
<path fill-rule="evenodd" fill="rgb(0%, 0%, 0%)" fill-opacity="1" stroke-width="0.4" stroke-linecap="butt" stroke-linejoin="round" stroke="rgb(0%, 0%, 0%)" stroke-opacity="1" stroke-miterlimit="10" d="M 320 720 L 322.332031 727 L 317.667969 727 Z M 320 720 " transform="matrix(1, 0, 0, -1, -29, 771)"/>
<path fill="none" stroke-width="0.4" stroke-linecap="butt" stroke-linejoin="round" stroke="rgb(0%, 0%, 0%)" stroke-opacity="1" stroke-miterlimit="10" d="M 320 720 L 256 720 " transform="matrix(1, 0, 0, -1, -29, 771)"/>
<path fill-rule="evenodd" fill="rgb(0%, 0%, 0%)" fill-opacity="1" stroke-width="0.4" stroke-linecap="butt" stroke-linejoin="round" stroke="rgb(0%, 0%, 0%)" stroke-opacity="1" stroke-miterlimit="10" d="M 256 720 L 263 717.667969 L 263 722.332031 Z M 256 720 " transform="matrix(1, 0, 0, -1, -29, 771)"/>
<path fill="none" stroke-width="0.4" stroke-linecap="butt" stroke-linejoin="round" stroke="rgb(0%, 0%, 0%)" stroke-opacity="1" stroke-miterlimit="10" d="M 256 720 L 256 704 " transform="matrix(1, 0, 0, -1, -29, 771)"/>
<path fill-rule="evenodd" fill="rgb(0%, 0%, 0%)" fill-opacity="1" stroke-width="0.4" stroke-linecap="butt" stroke-linejoin="round" stroke="rgb(0%, 0%, 0%)" stroke-opacity="1" stroke-miterlimit="10" d="M 256 704 L 258.332031 711 L 253.667969 711 Z M 256 704 " transform="matrix(1, 0, 0, -1, -29, 771)"/>
<path fill="none" stroke-width="0.4" stroke-linecap="butt" stroke-linejoin="round" stroke="rgb(66.3%, 66.3%, 66.3%)" stroke-opacity="1" stroke-miterlimit="10" d="M 224 720 L 256 720 " transform="matrix(1, 0, 0, -1, -29, 771)"/>
<path fill-rule="evenodd" fill="rgb(66.3%, 66.3%, 66.3%)" fill-opacity="1" stroke-width="0.4" stroke-linecap="butt" stroke-linejoin="round" stroke="rgb(66.3%, 66.3%, 66.3%)" stroke-opacity="1" stroke-miterlimit="10" d="M 256 720 L 249 722.332031 L 249 717.667969 Z M 256 720 " transform="matrix(1, 0, 0, -1, -29, 771)"/>
<path fill="none" stroke-width="0.4" stroke-linecap="butt" stroke-linejoin="round" stroke="rgb(66.3%, 66.3%, 66.3%)" stroke-opacity="1" stroke-miterlimit="10" d="M 256 720 L 256 752 " transform="matrix(1, 0, 0, -1, -29, 771)"/>
<path fill-rule="evenodd" fill="rgb(66.3%, 66.3%, 66.3%)" fill-opacity="1" stroke-width="0.4" stroke-linecap="butt" stroke-linejoin="round" stroke="rgb(66.3%, 66.3%, 66.3%)" stroke-opacity="1" stroke-miterlimit="10" d="M 256 752 L 253.667969 745 L 258.332031 745 Z M 256 752 " transform="matrix(1, 0, 0, -1, -29, 771)"/>
<path fill="none" stroke-width="0.4" stroke-linecap="butt" stroke-linejoin="round" stroke="rgb(66.3%, 66.3%, 66.3%)" stroke-opacity="1" stroke-miterlimit="10" d="M 256 752 L 224 752 " transform="matrix(1, 0, 0, -1, -29, 771)"/>
<path fill-rule="evenodd" fill="rgb(66.3%, 66.3%, 66.3%)" fill-opacity="1" stroke-width="0.4" stroke-linecap="butt" stroke-linejoin="round" stroke="rgb(66.3%, 66.3%, 66.3%)" stroke-opacity="1" stroke-miterlimit="10" d="M 224 752 L 231 749.667969 L 231 754.332031 Z M 224 752 " transform="matrix(1, 0, 0, -1, -29, 771)"/>
<path fill="none" stroke-width="0.4" stroke-linecap="butt" stroke-linejoin="round" stroke="rgb(66.3%, 66.3%, 66.3%)" stroke-opacity="1" stroke-miterlimit="10" d="M 224 752 L 224 720 " transform="matrix(1, 0, 0, -1, -29, 771)"/>
<path fill-rule="evenodd" fill="rgb(66.3%, 66.3%, 66.3%)" fill-opacity="1" stroke-width="0.4" stroke-linecap="butt" stroke-linejoin="round" stroke="rgb(66.3%, 66.3%, 66.3%)" stroke-opacity="1" stroke-miterlimit="10" d="M 224 720 L 226.332031 727 L 221.667969 727 Z M 224 720 " transform="matrix(1, 0, 0, -1, -29, 771)"/>
</svg>
