<?xml version="1.0" encoding="UTF-8" standalone="no"?>
<!-- Created with Inkscape (http://www.inkscape.org/) -->

<svg
   xmlns:dc="http://purl.org/dc/elements/1.1/"
   xmlns:cc="http://creativecommons.org/ns#"
   xmlns:rdf="http://www.w3.org/1999/02/22-rdf-syntax-ns#"
   xmlns:svg="http://www.w3.org/2000/svg"
   xmlns="http://www.w3.org/2000/svg"
   xmlns:sodipodi="http://sodipodi.sourceforge.net/DTD/sodipodi-0.dtd"
   xmlns:inkscape="http://www.inkscape.org/namespaces/inkscape"
   id="svg3976"
   version="1.1"
   inkscape:version="0.48.4 r9939"
   width="586.25"
   height="215"
   xml:space="preserve"
   sodipodi:docname="cc_mask.pdf"><metadata
     id="metadata3982"><rdf:RDF><cc:Work
         rdf:about=""><dc:format>image/svg+xml</dc:format><dc:type
           rdf:resource="http://purl.org/dc/dcmitype/StillImage" /><dc:title></dc:title></cc:Work></rdf:RDF></metadata><defs
     id="defs3980"><clipPath
       clipPathUnits="userSpaceOnUse"
       id="clipPath4048"><path
         d="M 0,1720 0,0 l 4690,0 0,1720 -4690,0 z m 3646,-928.199 41.4,-77.399 171,92.399 -175.2,-44.399 133.8,121.801 -171,-92.402 z"
         clip-rule="evenodd"
         id="path4050" /></clipPath></defs><sodipodi:namedview
     pagecolor="#ffffff"
     bordercolor="#666666"
     borderopacity="1"
     objecttolerance="10"
     gridtolerance="10"
     guidetolerance="10"
     inkscape:pageopacity="0"
     inkscape:pageshadow="2"
     inkscape:window-width="640"
     inkscape:window-height="480"
     id="namedview3978"
     showgrid="false"
     inkscape:zoom="0.52707889"
     inkscape:cx="293.125"
     inkscape:cy="107.5"
     inkscape:window-x="2160"
     inkscape:window-y="180"
     inkscape:window-maximized="0"
     inkscape:current-layer="g3984" /><g
     id="g3984"
     inkscape:groupmode="layer"
     inkscape:label="cc_mask"
     transform="matrix(1.25,0,0,-1.25,0,215)"><g
       id="g3986"
       transform="scale(0.1,0.1)"><path
         d="M 3920.8,1264.6 3262.6,168.402"
         style="fill:none;stroke:#000000;stroke-opacity:1;stroke-width:4.5;stroke-linecap:butt;stroke-linejoin:miter;stroke-miterlimit:10;stroke-dasharray:none"
         id="path3988" /><path
         d="M 3262.6,1264.6 3920.8,168.402"
         style="fill:none;stroke:#000000;stroke-opacity:1;stroke-width:4.5;stroke-linecap:butt;stroke-linejoin:miter;stroke-miterlimit:10;stroke-dasharray:none"
         id="path3990" /><path
         d="m 2933.2,716.203 1315.8,0"
         style="fill:none;stroke:#000000;stroke-opacity:1;stroke-width:4.5;stroke-linecap:butt;stroke-linejoin:miter;stroke-miterlimit:10;stroke-dasharray:none"
         id="path3992" /><path
         d="M 3920.8,1264.6 4359.4,1154.8 4249,716.203"
         style="fill:none;stroke:#000000;stroke-opacity:1;stroke-width:4.5;stroke-linecap:butt;stroke-linejoin:miter;stroke-miterlimit:10;stroke-dasharray:none"
         id="path3994" /><path
         d="m 3920.8,168.402 438.6,109.801 -110.4,438"
         style="fill:none;stroke:#000000;stroke-opacity:1;stroke-width:4.5;stroke-linecap:butt;stroke-linejoin:miter;stroke-miterlimit:10;stroke-dasharray:none"
         id="path3996" /><path
         d="M 3262.6,1264.6 2824,1154.8 2933.2,716.203"
         style="fill:none;stroke:#000000;stroke-opacity:1;stroke-width:4.5;stroke-linecap:butt;stroke-linejoin:miter;stroke-miterlimit:10;stroke-dasharray:none"
         id="path3998" /><path
         d="m 3262.6,168.402 -438.6,109.801 109.2,438"
         style="fill:none;stroke:#000000;stroke-opacity:1;stroke-width:4.5;stroke-linecap:butt;stroke-linejoin:miter;stroke-miterlimit:10;stroke-dasharray:none"
         id="path4000" /><path
         d="m 3262.6,1264.6 328.8,329.4 329.4,-329.4"
         style="fill:none;stroke:#000000;stroke-opacity:1;stroke-width:4.5;stroke-linecap:butt;stroke-linejoin:miter;stroke-miterlimit:10;stroke-dasharray:none"
         id="path4002" /><path
         d="m 188.203,475.602 590.398,0 0,588.602 -590.398,0 0,-588.602 z"
         style="fill:none;stroke:#000000;stroke-opacity:1;stroke-width:4.5;stroke-linecap:butt;stroke-linejoin:miter;stroke-miterlimit:10;stroke-dasharray:none"
         id="path4004" /><path
         d="m 1520.8,215.203 589.801,0 0,1178.4 -589.801,0 0,-1178.4 z"
         style="fill:none;stroke:#000000;stroke-opacity:1;stroke-width:4.5;stroke-linecap:butt;stroke-linejoin:miter;stroke-miterlimit:10;stroke-dasharray:none"
         id="path4006" /><g
         id="g4008"
         transform="scale(10,10)"><text
           transform="matrix(1,0,0,-1,358,15.8203)"
           id="text4010"><tspan
             style="fill:#000000;fill-opacity:1;fill-rule:nonzero;stroke:none;font-family:Times New Roman;font-variant:normal;font-weight:normal;font-size:39.6;writing-mode:lr;-inkscape-font-specification:Times-Roman"
             x="0"
             y="0"
             id="tspan4012">.</tspan><tspan
             style="fill:#000000;fill-opacity:1;fill-rule:nonzero;stroke:none;font-family:Times New Roman;font-variant:normal;font-weight:normal;font-size:39.6;writing-mode:lr;-inkscape-font-specification:Times-Roman"
             x="14.1602"
             y="-3"
             id="tspan4014">.</tspan><tspan
             style="fill:#000000;fill-opacity:1;fill-rule:nonzero;stroke:none;font-family:Times New Roman;font-variant:normal;font-weight:normal;font-size:39.6;writing-mode:lr;-inkscape-font-specification:Times-Roman"
             x="-14.0398"
             y="-3.180078"
             id="tspan4016">.</tspan></text>
</g><path
         d="m 1520.8,803.801 589.8,0"
         style="fill:none;stroke:#000000;stroke-opacity:1;stroke-width:4.5;stroke-linecap:butt;stroke-linejoin:miter;stroke-miterlimit:10;stroke-dasharray:none"
         id="path4018" /><path
         d="m 4359.4,716.199 c 0,-64.613 -52.38,-116.996 -117,-116.996 -64.61,0 -116.99,52.383 -116.99,116.996 0,64.613 52.38,116.996 116.99,116.996 64.62,0 117,-52.383 117,-116.996"
         style="fill:#ffffff;fill-opacity:1;fill-rule:evenodd;stroke:none"
         id="path4020" /><path
         d="m 4469.2,1154.8 c 0,-64.62 -52.38,-117 -117,-117 -64.61,0 -116.99,52.38 -116.99,117 0,64.61 52.38,116.99 116.99,116.99 64.62,0 117,-52.38 117,-116.99"
         style="fill:#ffffff;fill-opacity:1;fill-rule:evenodd;stroke:none"
         id="path4022" /><path
         d="m 4030,1264.6 c 0,-64.62 -52.39,-117 -117,-117 -64.61,0 -117,52.38 -117,117 0,64.61 52.39,116.99 117,116.99 64.61,0 117,-52.38 117,-116.99"
         style="fill:#ffffff;fill-opacity:1;fill-rule:evenodd;stroke:none"
         id="path4024" /><path
         d="m 3372.4,168.398 c 0,-64.613 -52.38,-116.9957 -117,-116.9957 -64.61,0 -116.99,52.3827 -116.99,116.9957 0,64.614 52.38,116.997 116.99,116.997 64.62,0 117,-52.383 117,-116.997"
         style="fill:#ffffff;fill-opacity:1;fill-rule:evenodd;stroke:none"
         id="path4026" /><path
         d="m 3701.8,1594 c 0,-64.62 -52.39,-117 -117,-117 -64.61,0 -117,52.38 -117,117 0,64.61 52.39,116.99 117,116.99 64.61,0 117,-52.38 117,-116.99"
         style="fill:#ffffff;fill-opacity:1;fill-rule:evenodd;stroke:none"
         id="path4028" /><path
         d="m 542.797,757 c 0,-24.188 -19.609,-43.797 -43.797,-43.797 -24.188,0 -43.797,19.609 -43.797,43.797 0,24.188 19.609,43.797 43.797,43.797 24.188,0 43.797,-19.609 43.797,-43.797"
         style="fill:#ffffff;fill-opacity:1;fill-rule:evenodd;stroke:none"
         id="path4030" /><path
         d="m 542.797,757 c 0,-24.188 -19.609,-43.797 -43.797,-43.797 -24.188,0 -43.797,19.609 -43.797,43.797 0,24.188 19.609,43.797 43.797,43.797 24.188,0 43.797,-19.609 43.797,-43.797 z"
         style="fill:none;stroke:#ff0000;stroke-opacity:1;stroke-width:4.5;stroke-linecap:butt;stroke-linejoin:miter;stroke-miterlimit:10;stroke-dasharray:none"
         id="path4032" /><path
         d="m 1860.4,803.199 c 0,-24.187 -19.61,-43.797 -43.8,-43.797 -24.19,0 -43.8,19.61 -43.8,43.797 0,24.188 19.61,43.797 43.8,43.797 24.19,0 43.8,-19.609 43.8,-43.797"
         style="fill:#ffffff;fill-opacity:1;fill-rule:evenodd;stroke:none"
         id="path4034" /><path
         d="m 1860.4,803.199 c 0,-24.187 -19.61,-43.797 -43.8,-43.797 -24.19,0 -43.8,19.61 -43.8,43.797 0,24.188 19.61,43.797 43.8,43.797 24.19,0 43.8,-19.609 43.8,-43.797 z"
         style="fill:none;stroke:#ff0000;stroke-opacity:1;stroke-width:4.5;stroke-linecap:butt;stroke-linejoin:miter;stroke-miterlimit:10;stroke-dasharray:none"
         id="path4036" /><path
         d="m 3631,725.199 c 0,-24.187 -19.61,-43.797 -43.8,-43.797 -24.18,0 -43.79,19.61 -43.79,43.797 0,24.188 19.61,43.797 43.79,43.797 24.19,0 43.8,-19.609 43.8,-43.797"
         style="fill:#ffffff;fill-opacity:1;fill-rule:evenodd;stroke:none"
         id="path4038" /><path
         d="m 3631,725.199 c 0,-24.187 -19.61,-43.797 -43.8,-43.797 -24.18,0 -43.79,19.61 -43.79,43.797 0,24.188 19.61,43.797 43.79,43.797 24.19,0 43.8,-19.609 43.8,-43.797 z"
         style="fill:none;stroke:#ff0000;stroke-opacity:1;stroke-width:4.5;stroke-linecap:butt;stroke-linejoin:miter;stroke-miterlimit:10;stroke-dasharray:none"
         id="path4040" /><path
         d="m 305.199,1064.2 c 0,-64.614 -52.383,-116.997 -116.996,-116.997 -64.613,0 -116.996,52.383 -116.996,116.997 0,64.61 52.383,117 116.996,117 64.613,0 116.996,-52.39 116.996,-117"
         style="fill:#ffffff;fill-opacity:1;fill-rule:evenodd;stroke:none"
         id="path4042" /><g
         id="g4044"><g
           id="g4046"
           clip-path="url(#clipPath4048)"><path
             d="M 4136.2,1360 4125.4,998.801 3674.8,757.004"
             style="fill:none;stroke:#a1a1a1;stroke-opacity:1;stroke-width:4.5;stroke-linecap:butt;stroke-linejoin:miter;stroke-miterlimit:10;stroke-dasharray:none"
             id="path4052" /></g></g><path
         d="m 3817,884.203 -133.8,-121.801 175.2,44.399 -41.4,77.402"
         style="fill:#a1a1a1;fill-opacity:1;fill-rule:evenodd;stroke:none"
         id="path4054" /><path
         d="m 3817,884.203 -133.8,-121.801 175.2,44.399 -41.4,77.402 z"
         style="fill:none;stroke:#a1a1a1;stroke-opacity:1;stroke-width:4.5;stroke-linecap:butt;stroke-linejoin:miter;stroke-miterlimit:10;stroke-dasharray:none"
         id="path4056" /><path
         d="m 4469.2,278.199 c 0,-64.613 -52.38,-116.996 -117,-116.996 -64.61,0 -116.99,52.383 -116.99,116.996 0,64.613 52.38,116.996 116.99,116.996 64.62,0 117,-52.383 117,-116.996"
         style="fill:#ffffff;fill-opacity:1;fill-rule:evenodd;stroke:none"
         id="path4058" /><path
         d="m 886.598,482.199 c 0,-64.613 -52.383,-116.996 -116.996,-116.996 -64.614,0 -116.997,52.383 -116.997,116.996 0,64.613 52.383,116.996 116.997,116.996 64.613,0 116.996,-52.383 116.996,-116.996"
         style="fill:#ffffff;fill-opacity:1;fill-rule:evenodd;stroke:none"
         id="path4060" /><path
         d="m 896.797,1074.4 c 0,-64.61 -52.383,-116.998 -116.996,-116.998 -64.613,0 -116.996,52.388 -116.996,116.998 0,64.61 52.383,116.99 116.996,116.99 64.613,0 116.996,-52.38 116.996,-116.99"
         style="fill:#ffffff;fill-opacity:1;fill-rule:evenodd;stroke:none"
         id="path4062" /><path
         d="m 1642.6,1393.6 c 0,-64.62 -52.39,-117 -117,-117 -64.61,0 -116.99,52.38 -116.99,117 0,64.61 52.38,116.99 116.99,116.99 64.61,0 117,-52.38 117,-116.99"
         style="fill:#ffffff;fill-opacity:1;fill-rule:evenodd;stroke:none"
         id="path4064" /><path
         d="m 1642.6,231.398 c 0,-64.613 -52.39,-116.996 -117,-116.996 -64.61,0 -116.99,52.383 -116.99,116.996 0,64.614 52.38,116.997 116.99,116.997 64.61,0 117,-52.383 117,-116.997"
         style="fill:#ffffff;fill-opacity:1;fill-rule:evenodd;stroke:none"
         id="path4066" /><path
         d="m 2224.6,231.398 c 0,-64.613 -52.39,-116.996 -117,-116.996 -64.61,0 -116.99,52.383 -116.99,116.996 0,64.614 52.38,116.997 116.99,116.997 64.61,0 117,-52.383 117,-116.997"
         style="fill:#ffffff;fill-opacity:1;fill-rule:evenodd;stroke:none"
         id="path4068" /><path
         d="m 2212.6,801.398 c 0,-64.613 -52.39,-116.996 -117,-116.996 -64.61,0 -116.99,52.383 -116.99,116.996 0,64.614 52.38,116.997 116.99,116.997 64.61,0 117,-52.383 117,-116.997"
         style="fill:#ffffff;fill-opacity:1;fill-rule:evenodd;stroke:none"
         id="path4070" /><path
         d="m 2212.6,1403.8 c 0,-64.62 -52.39,-117 -117,-117 -64.61,0 -116.99,52.38 -116.99,117 0,64.61 52.38,116.99 116.99,116.99 64.61,0 117,-52.38 117,-116.99"
         style="fill:#ffffff;fill-opacity:1;fill-rule:evenodd;stroke:none"
         id="path4072" /><path
         d="m 1642.6,801.398 c 0,-64.613 -52.39,-116.996 -117,-116.996 -64.61,0 -116.99,52.383 -116.99,116.996 0,64.614 52.38,116.997 116.99,116.997 64.61,0 117,-52.383 117,-116.997"
         style="fill:#ffffff;fill-opacity:1;fill-rule:evenodd;stroke:none"
         id="path4074" /><path
         d="m 3382.6,1254.4 c 0,-64.61 -52.39,-117 -117,-117 -64.61,0 -116.99,52.39 -116.99,117 0,64.61 52.38,116.99 116.99,116.99 64.61,0 117,-52.38 117,-116.99"
         style="fill:#ffffff;fill-opacity:1;fill-rule:evenodd;stroke:none"
         id="path4076" /><path
         d="m 2943.4,1144.6 c 0,-64.62 -52.38,-117 -117,-117 -64.61,0 -116.99,52.38 -116.99,117 0,64.61 52.38,116.99 116.99,116.99 64.62,0 117,-52.38 117,-116.99"
         style="fill:#ffffff;fill-opacity:1;fill-rule:evenodd;stroke:none"
         id="path4078" /><path
         d="m 3021.4,728.199 c 0,-64.613 -52.38,-116.996 -117,-116.996 -64.61,0 -116.99,52.383 -116.99,116.996 0,64.613 52.38,116.996 116.99,116.996 64.62,0 117,-52.383 117,-116.996"
         style="fill:#ffffff;fill-opacity:1;fill-rule:evenodd;stroke:none"
         id="path4080" /><path
         d="m 2911.6,289 c 0,-64.613 -52.39,-116.996 -117,-116.996 -64.61,0 -116.99,52.383 -116.99,116.996 0,64.613 52.38,116.996 116.99,116.996 64.61,0 117,-52.383 117,-116.996"
         style="fill:#ffffff;fill-opacity:1;fill-rule:evenodd;stroke:none"
         id="path4082" /><path
         d="m 4019.2,168.398 c 0,-64.613 -52.38,-116.9957 -117,-116.9957 -64.61,0 -116.99,52.3827 -116.99,116.9957 0,64.614 52.38,116.997 116.99,116.997 64.62,0 117,-52.383 117,-116.997"
         style="fill:#ffffff;fill-opacity:1;fill-rule:evenodd;stroke:none"
         id="path4084" /><path
         d="m 305.199,472.598 c 0,-64.614 -52.383,-116.996 -116.996,-116.996 -64.613,0 -116.996,52.382 -116.996,116.996 0,64.613 52.383,116.996 116.996,116.996 64.613,0 116.996,-52.383 116.996,-116.996"
         style="fill:#ffffff;fill-opacity:1;fill-rule:evenodd;stroke:none"
         id="path4086" /><g
         id="g4088"
         transform="scale(10,10)"><text
           transform="matrix(1,0,0,-1,73.4801,101.92)"
           id="text4090"><tspan
             style="fill:#000000;fill-opacity:1;fill-rule:nonzero;stroke:none;font-family:Helvetica;font-variant:normal;font-weight:normal;font-size:17.1;writing-mode:lr;-inkscape-font-specification:Helvetica"
             x="0"
             y="0"
             id="tspan4092">1</tspan><tspan
             style="fill:#000000;fill-opacity:1;fill-rule:nonzero;stroke:none;font-family:Helvetica;font-variant:normal;font-weight:normal;font-size:17.1;writing-mode:lr;-inkscape-font-specification:Helvetica"
             x="132.36"
             y="27.3"
             id="tspan4094">6</tspan><tspan
             style="fill:#000000;fill-opacity:1;fill-rule:nonzero;stroke:none;font-family:Helvetica;font-variant:normal;font-weight:normal;font-size:17.1;writing-mode:lr;-inkscape-font-specification:Helvetica"
             x="134.21977"
             y="84.4199"
             id="tspan4096">1</tspan><tspan
             style="fill:#000000;fill-opacity:1;fill-rule:nonzero;stroke:none;font-family:Helvetica;font-variant:normal;font-weight:normal;font-size:17.1;writing-mode:lr;-inkscape-font-specification:Helvetica"
             x="214.31977"
             y="34.6199"
             id="tspan4098">6</tspan><tspan
             style="fill:#000000;fill-opacity:1;fill-rule:nonzero;stroke:none;font-family:Helvetica;font-variant:normal;font-weight:normal;font-size:17.1;writing-mode:lr;-inkscape-font-specification:Helvetica"
             x="358.91977"
             y="79.8601"
             id="tspan4100">1</tspan><tspan
             style="fill:#000000;fill-opacity:1;fill-rule:nonzero;stroke:none;font-family:Helvetica;font-variant:normal;font-weight:normal;font-size:17.1;writing-mode:lr;-inkscape-font-specification:Helvetica"
             x="330.29987 339.80747 349.31507 354.06887 364.05527 368.80907 378.31667"
             y="-43.2599"
             sodipodi:role="line"
             id="tspan4102">4n − 7n</tspan><tspan
             style="fill:#000000;fill-opacity:1;fill-rule:nonzero;stroke:none;font-family:Helvetica;font-variant:normal;font-weight:normal;font-size:17.1;writing-mode:lr;-inkscape-font-specification:Helvetica"
             x="206.27987"
             y="79.0791"
             id="tspan4104">1</tspan><tspan
             style="fill:#000000;fill-opacity:1;fill-rule:nonzero;stroke:none;font-family:Helvetica;font-variant:normal;font-weight:normal;font-size:17.1;writing-mode:lr;-inkscape-font-specification:Helvetica"
             x="247.25997"
             y="90.6592"
             id="tspan4106">6</tspan><tspan
             style="fill:#000000;fill-opacity:1;fill-rule:nonzero;stroke:none;font-family:Helvetica;font-variant:normal;font-weight:normal;font-size:17.1;writing-mode:lr;-inkscape-font-specification:Helvetica"
             x="313.44007"
             y="90.779122"
             id="tspan4108">6</tspan><tspan
             style="fill:#000000;fill-opacity:1;fill-rule:nonzero;stroke:none;font-family:Helvetica;font-variant:normal;font-weight:normal;font-size:17.1;writing-mode:lr;-inkscape-font-specification:Helvetica"
             x="281.45997"
             y="-49.920878"
             id="tspan4110">1</tspan><tspan
             style="fill:#000000;fill-opacity:1;fill-rule:nonzero;stroke:none;font-family:Helvetica;font-variant:normal;font-weight:normal;font-size:17.1;writing-mode:lr;-inkscape-font-specification:Helvetica"
             x="248.09977"
             y="-19.861078"
             id="tspan4112">6</tspan><tspan
             style="fill:#000000;fill-opacity:1;fill-rule:nonzero;stroke:none;font-family:Helvetica;font-variant:normal;font-weight:normal;font-size:17.1;writing-mode:lr;-inkscape-font-specification:Helvetica"
             x="206.15997"
             y="-6.541178"
             id="tspan4114">1</tspan><tspan
             style="fill:#000000;fill-opacity:1;fill-rule:nonzero;stroke:none;font-family:Helvetica;font-variant:normal;font-weight:normal;font-size:17.1;writing-mode:lr;-inkscape-font-specification:Helvetica"
             x="347.15997"
             y="35.818622"
             id="tspan4116">6</tspan><tspan
             style="fill:#000000;fill-opacity:1;fill-rule:nonzero;stroke:none;font-family:Helvetica;font-variant:normal;font-weight:normal;font-size:17.1;writing-mode:lr;-inkscape-font-specification:Helvetica"
             x="357.59977"
             y="-8.341178"
             id="tspan4118">1</tspan><tspan
             style="fill:#000000;fill-opacity:1;fill-rule:nonzero;stroke:none;font-family:Helvetica;font-variant:normal;font-weight:normal;font-size:17.1;writing-mode:lr;-inkscape-font-specification:Helvetica"
             x="314.45997"
             y="-18.841178"
             id="tspan4120">6</tspan><tspan
             style="fill:#000000;fill-opacity:1;fill-rule:nonzero;stroke:none;font-family:Helvetica;font-variant:normal;font-weight:normal;font-size:17.1;writing-mode:lr;-inkscape-font-specification:Helvetica"
             x="131.87997"
             y="-33.541178"
             id="tspan4122">1</tspan><tspan
             style="fill:#000000;fill-opacity:1;fill-rule:nonzero;stroke:none;font-family:Helvetica;font-variant:normal;font-weight:normal;font-size:17.1;writing-mode:lr;-inkscape-font-specification:Helvetica"
             x="74.94017"
             y="-32.221258"
             id="tspan4124">1</tspan><tspan
             style="fill:#000000;fill-opacity:1;fill-rule:nonzero;stroke:none;font-family:Helvetica;font-variant:normal;font-weight:normal;font-size:17.1;writing-mode:lr;-inkscape-font-specification:Helvetica"
             x="74.8800137"
             y="28.258842"
             id="tspan4126">6</tspan><tspan
             style="fill:#000000;fill-opacity:1;fill-rule:nonzero;stroke:none;font-family:Helvetica;font-variant:normal;font-weight:normal;font-size:17.1;writing-mode:lr;-inkscape-font-specification:Helvetica"
             x="74.3999357"
             y="85.798642"
             id="tspan4128">1</tspan><tspan
             style="fill:#000000;fill-opacity:1;fill-rule:nonzero;stroke:none;font-family:Helvetica;font-variant:normal;font-weight:normal;font-size:17.1;writing-mode:lr;-inkscape-font-specification:Helvetica"
             x="-0.1801643"
             y="60.538842"
             id="tspan4130">1</tspan><tspan
             style="fill:#000000;fill-opacity:1;fill-rule:nonzero;stroke:none;font-family:Helvetica;font-variant:normal;font-weight:normal;font-size:17.1;writing-mode:lr;-inkscape-font-specification:Helvetica"
             x="-60.0598643"
             y="1.318542"
             id="tspan4132">1</tspan></text>
<text
           transform="matrix(1,0,0,-1,421.00024,155.56086)"
           id="text4134"><tspan
             style="fill:#000000;fill-opacity:1;fill-rule:nonzero;stroke:none;font-family:Helvetica;font-variant:normal;font-weight:normal;font-size:10.8;writing-mode:lr;-inkscape-font-specification:Helvetica"
             x="0"
             y="0"
             id="tspan4136">2</tspan></text>
<text
           transform="matrix(1,0,0,-1,14.980236,40.360858)"
           id="text4138"><tspan
             style="fill:#000000;fill-opacity:1;fill-rule:nonzero;stroke:none;font-family:Helvetica;font-variant:normal;font-weight:normal;font-size:17.1;writing-mode:lr;-inkscape-font-specification:Helvetica"
             x="0"
             y="0"
             id="tspan4140">1</tspan></text>
</g></g></g></svg>