<?xml version="1.0" encoding="UTF-8" standalone="no"?>
<!-- Created with Inkscape (http://www.inkscape.org/) -->

<svg
   xmlns:dc="http://purl.org/dc/elements/1.1/"
   xmlns:cc="http://creativecommons.org/ns#"
   xmlns:rdf="http://www.w3.org/1999/02/22-rdf-syntax-ns#"
   xmlns:svg="http://www.w3.org/2000/svg"
   xmlns="http://www.w3.org/2000/svg"
   xmlns:sodipodi="http://sodipodi.sourceforge.net/DTD/sodipodi-0.dtd"
   xmlns:inkscape="http://www.inkscape.org/namespaces/inkscape"
   id="svg4142"
   version="1.1"
   inkscape:version="0.48.4 r9939"
   width="760"
   height="90"
   xml:space="preserve"
   sodipodi:docname="CCBorderMask.pdf"><metadata
     id="metadata4148"><rdf:RDF><cc:Work
         rdf:about=""><dc:format>image/svg+xml</dc:format><dc:type
           rdf:resource="http://purl.org/dc/dcmitype/StillImage" /><dc:title></dc:title></cc:Work></rdf:RDF></metadata><defs
     id="defs4146"><clipPath
       clipPathUnits="userSpaceOnUse"
       id="clipPath4196"><path
         d="M 0,720 0,0 6080,0 6080,720 0,720 z m 3409,-416.004 0,54 -84,0 63,-27 -63,-27 84,0 z"
         clip-rule="evenodd"
         id="path4198" /></clipPath><clipPath
       clipPathUnits="userSpaceOnUse"
       id="clipPath4224"><path
         d="M 0,720 0,0 6080,0 6080,720 0,720 z m 789.996,-83.004 0,-54 84,0 -63,27 63,27 -84,0 z"
         clip-rule="evenodd"
         id="path4226" /></clipPath></defs><sodipodi:namedview
     pagecolor="#ffffff"
     bordercolor="#666666"
     borderopacity="1"
     objecttolerance="10"
     gridtolerance="10"
     guidetolerance="10"
     inkscape:pageopacity="0"
     inkscape:pageshadow="2"
     inkscape:window-width="640"
     inkscape:window-height="480"
     id="namedview4144"
     showgrid="false"
     inkscape:zoom="0.44473684"
     inkscape:cx="380"
     inkscape:cy="45"
     inkscape:window-x="2402"
     inkscape:window-y="157"
     inkscape:window-maximized="0"
     inkscape:current-layer="g4150" /><g
     id="g4150"
     inkscape:groupmode="layer"
     inkscape:label="CCBorderMask"
     transform="matrix(1.25,0,0,-1.25,0,90)"><g
       id="g4152"
       transform="scale(0.1,0.1)"><path
         d="m 78.9961,654.996 2385.0039,0 -135,-584.9921 -2133.004,9"
         style="fill:#e6e6e6;fill-opacity:1;fill-rule:evenodd;stroke:none"
         id="path4154" /><path
         d="m 3634,659.797 2385,0 -135,-584.9962 -2133,9"
         style="fill:#e6e6e6;fill-opacity:1;fill-rule:evenodd;stroke:none"
         id="path4156" /><g
         id="g4158"
         transform="scale(10,10)"><text
           transform="matrix(1,0,0,-1,491.2,51.9996)"
           id="text4160"><tspan
             style="fill:#ff0000;fill-opacity:1;fill-rule:nonzero;stroke:none;font-family:Helvetica;font-variant:normal;font-weight:normal;font-size:18.9;writing-mode:lr;-inkscape-font-specification:Helvetica"
             x="0 10.5084 21.0168"
             y="0"
             sodipodi:role="line"
             id="tspan4162">ept</tspan></text>
</g><path
         d="m 5524,659.797 540,0"
         style="fill:none;stroke:#000000;stroke-opacity:1;stroke-width:4.5;stroke-linecap:butt;stroke-linejoin:miter;stroke-miterlimit:10;stroke-dasharray:none"
         id="path4164" /><path
         d="m 4831,654.996 0,-629.9921"
         style="fill:none;stroke:#000000;stroke-opacity:1;stroke-width:4.5;stroke-linecap:butt;stroke-linejoin:miter;stroke-miterlimit:10;stroke-dasharray:none"
         id="path4166" /><path
         d="m 4354,321.996 981,0"
         style="fill:none;stroke:#000000;stroke-opacity:1;stroke-width:4.5;stroke-linecap:butt;stroke-linejoin:miter;stroke-miterlimit:10;stroke-dasharray:none"
         id="path4168" /><path
         d="M 5344,312.996 5515,16.0039"
         style="fill:none;stroke:#000000;stroke-opacity:1;stroke-width:4.5;stroke-linecap:butt;stroke-linejoin:miter;stroke-miterlimit:10;stroke-dasharray:none"
         id="path4170" /><path
         d="M 4345,312.996 4174,7.00391"
         style="fill:none;stroke:#000000;stroke-opacity:1;stroke-width:4.5;stroke-linecap:butt;stroke-linejoin:miter;stroke-miterlimit:10;stroke-dasharray:none"
         id="path4172" /><g
         id="g4174"
         transform="scale(10,10)"><text
           transform="matrix(1,0,0,-1,295,16.9004)"
           id="text4176"><tspan
             style="fill:#000000;fill-opacity:1;fill-rule:nonzero;stroke:none;font-family:Times New Roman;font-variant:normal;font-weight:normal;font-size:13.5;writing-mode:lr;-inkscape-font-specification:Times-Roman"
             x="0 7.506 17.253"
             y="0"
             sodipodi:role="line"
             id="tspan4178">PQQ</tspan></text>
</g><g
         id="g4180"
         transform="scale(10,10)"><text
           transform="matrix(1,0,0,-1,124,46.5996)"
           id="text4182"><tspan
             style="fill:#87cfff;fill-opacity:1;fill-rule:nonzero;stroke:none;font-family:Helvetica;font-variant:normal;font-weight:normal;font-size:18.9;writing-mode:lr;-inkscape-font-specification:Helvetica"
             x="0"
             y="0"
             id="tspan4184">e</tspan></text>
</g><g
         id="g4186"
         transform="scale(10,10)"><text
           transform="matrix(1,0,0,-1,423.7,51.9996)"
           id="text4188"><tspan
             style="fill:#ff0000;fill-opacity:1;fill-rule:nonzero;stroke:none;font-family:Helvetica;font-variant:normal;font-weight:normal;font-size:18.9;writing-mode:lr;-inkscape-font-specification:Helvetica"
             x="0 9.45 19.9584"
             y="0"
             sodipodi:role="line"
             id="tspan4190">vpt</tspan></text>
</g><g
         id="g4192"><g
           id="g4194"
           clip-path="url(#clipPath4196)"><path
             d="m 2761,330.996 639,0"
             style="fill:none;stroke:#000000;stroke-opacity:1;stroke-width:18;stroke-linecap:butt;stroke-linejoin:miter;stroke-miterlimit:10;stroke-dasharray:none"
             id="path4200" /></g></g><path
         d="m 3325,303.996 63,27 -63,27 0,-54"
         style="fill:#000000;fill-opacity:1;fill-rule:evenodd;stroke:none"
         id="path4202" /><path
         d="m 3325,303.996 63,27 -63,27 0,-54 z"
         style="fill:none;stroke:#000000;stroke-opacity:1;stroke-width:9;stroke-linecap:butt;stroke-linejoin:miter;stroke-miterlimit:10;stroke-dasharray:none"
         id="path4204" /><path
         d="m 573.996,654.996 1395.004,0"
         style="fill:none;stroke:#000000;stroke-opacity:1;stroke-width:4.5;stroke-linecap:butt;stroke-linejoin:miter;stroke-miterlimit:10;stroke-dasharray:none"
         id="path4206" /><path
         d="m 573.996,654.996 -405,-629.9921"
         style="fill:none;stroke:#000000;stroke-opacity:1;stroke-width:4.5;stroke-linecap:butt;stroke-linejoin:miter;stroke-miterlimit:10;stroke-dasharray:none"
         id="path4208" /><path
         d="m 573.996,654.996 405,-629.9921"
         style="fill:none;stroke:#000000;stroke-opacity:1;stroke-width:4.5;stroke-linecap:butt;stroke-linejoin:miter;stroke-miterlimit:10;stroke-dasharray:none"
         id="path4210" /><path
         d="m 573.996,654.996 -566.99991,0"
         style="fill:none;stroke:#000000;stroke-opacity:1;stroke-width:4.5;stroke-linecap:butt;stroke-linejoin:miter;stroke-miterlimit:10;stroke-dasharray:none"
         id="path4212" /><path
         d="M 1969,654.996 1609,25.0039"
         style="fill:none;stroke:#000000;stroke-opacity:1;stroke-width:4.5;stroke-linecap:butt;stroke-linejoin:miter;stroke-miterlimit:10;stroke-dasharray:none"
         id="path4214" /><path
         d="M 1969,654.996 2374,25.0039"
         style="fill:none;stroke:#000000;stroke-opacity:1;stroke-width:4.5;stroke-linecap:butt;stroke-linejoin:miter;stroke-miterlimit:10;stroke-dasharray:none"
         id="path4216" /><path
         d="m 1969,654.996 540,0"
         style="fill:none;stroke:#000000;stroke-opacity:1;stroke-width:4.5;stroke-linecap:butt;stroke-linejoin:miter;stroke-miterlimit:10;stroke-dasharray:none"
         id="path4218" /><g
         id="g4220"><g
           id="g4222"
           clip-path="url(#clipPath4224)"><path
             d="m 1789,609.996 -990.004,0"
             style="fill:none;stroke:#87cfff;stroke-opacity:1;stroke-width:18;stroke-linecap:butt;stroke-linejoin:miter;stroke-miterlimit:10;stroke-dasharray:none"
             id="path4228" /></g></g><path
         d="m 873.996,636.996 -63,-27 63,-27 0,54"
         style="fill:#87cfff;fill-opacity:1;fill-rule:evenodd;stroke:none"
         id="path4230" /><path
         d="m 873.996,636.996 -63,-27 63,-27 0,54 z"
         style="fill:none;stroke:#87cfff;stroke-opacity:1;stroke-width:9;stroke-linecap:butt;stroke-linejoin:miter;stroke-miterlimit:10;stroke-dasharray:none"
         id="path4232" /><path
         d="m 4129,659.797 1395,0"
         style="fill:none;stroke:#000000;stroke-opacity:1;stroke-width:4.5;stroke-linecap:butt;stroke-linejoin:miter;stroke-miterlimit:10;stroke-dasharray:none"
         id="path4234" /><path
         d="M 4129,659.797 3724,29.8008"
         style="fill:none;stroke:#000000;stroke-opacity:1;stroke-width:4.5;stroke-linecap:butt;stroke-linejoin:miter;stroke-miterlimit:10;stroke-dasharray:none"
         id="path4236" /><path
         d="M 4129,659.797 4534,29.8008"
         style="fill:none;stroke:#000000;stroke-opacity:1;stroke-width:4.5;stroke-linecap:butt;stroke-linejoin:miter;stroke-miterlimit:10;stroke-dasharray:none"
         id="path4238" /><path
         d="m 4129,659.797 -567,0"
         style="fill:none;stroke:#000000;stroke-opacity:1;stroke-width:4.5;stroke-linecap:butt;stroke-linejoin:miter;stroke-miterlimit:10;stroke-dasharray:none"
         id="path4240" /><path
         d="M 5524,659.797 5164,29.8008"
         style="fill:none;stroke:#000000;stroke-opacity:1;stroke-width:4.5;stroke-linecap:butt;stroke-linejoin:miter;stroke-miterlimit:10;stroke-dasharray:none"
         id="path4242" /><path
         d="M 5524,659.797 5929,29.8008"
         style="fill:none;stroke:#000000;stroke-opacity:1;stroke-width:4.5;stroke-linecap:butt;stroke-linejoin:miter;stroke-miterlimit:10;stroke-dasharray:none"
         id="path4244" /><path
         d="m 5568.99,659.797 c 0,-24.848 -20.15,-44.996 -44.99,-44.996 -24.85,0 -45,20.148 -45,44.996 0,24.848 20.15,44.996 45,44.996 24.84,0 44.99,-20.148 44.99,-44.996"
         style="fill:#ffffff;fill-opacity:1;fill-rule:evenodd;stroke:none"
         id="path4246" /><path
         d="m 5568.99,659.797 c 0,-24.848 -20.15,-44.996 -44.99,-44.996 -24.85,0 -45,20.148 -45,44.996 0,24.848 20.15,44.996 45,44.996 24.84,0 44.99,-20.148 44.99,-44.996 z"
         style="fill:none;stroke:#000000;stroke-opacity:1;stroke-width:4.5;stroke-linecap:butt;stroke-linejoin:miter;stroke-miterlimit:10;stroke-dasharray:none"
         id="path4248" /><path
         d="M 5379.99,312.996 C 5379.99,288.148 5359.84,268 5335,268 c -24.85,0 -45,20.148 -45,44.996 0,24.848 20.15,44.996 45,44.996 24.84,0 44.99,-20.148 44.99,-44.996"
         style="fill:#ffffff;fill-opacity:1;fill-rule:evenodd;stroke:none"
         id="path4250" /><path
         d="M 5379.99,312.996 C 5379.99,288.148 5359.84,268 5335,268 c -24.85,0 -45,20.148 -45,44.996 0,24.848 20.15,44.996 45,44.996 24.84,0 44.99,-20.148 44.99,-44.996 z"
         style="fill:none;stroke:#000000;stroke-opacity:1;stroke-width:4.5;stroke-linecap:butt;stroke-linejoin:miter;stroke-miterlimit:10;stroke-dasharray:none"
         id="path4252" /><path
         d="M 4884.99,321.996 C 4884.99,297.148 4864.84,277 4840,277 c -24.85,0 -45,20.148 -45,44.996 0,24.848 20.15,44.996 45,44.996 24.84,0 44.99,-20.148 44.99,-44.996"
         style="fill:#ffffff;fill-opacity:1;fill-rule:evenodd;stroke:none"
         id="path4254" /><path
         d="M 4884.99,321.996 C 4884.99,297.148 4864.84,277 4840,277 c -24.85,0 -45,20.148 -45,44.996 0,24.848 20.15,44.996 45,44.996 24.84,0 44.99,-20.148 44.99,-44.996 z"
         style="fill:none;stroke:#000000;stroke-opacity:1;stroke-width:4.5;stroke-linecap:butt;stroke-linejoin:miter;stroke-miterlimit:10;stroke-dasharray:none"
         id="path4256" /><path
         d="M 4875.99,654.996 C 4875.99,630.148 4855.84,610 4831,610 c -24.85,0 -45,20.148 -45,44.996 0,24.848 20.15,44.996 45,44.996 24.84,0 44.99,-20.148 44.99,-44.996"
         style="fill:#ffffff;fill-opacity:1;fill-rule:evenodd;stroke:none"
         id="path4258" /><path
         d="M 4875.99,654.996 C 4875.99,630.148 4855.84,610 4831,610 c -24.85,0 -45,20.148 -45,44.996 0,24.848 20.15,44.996 45,44.996 24.84,0 44.99,-20.148 44.99,-44.996 z"
         style="fill:none;stroke:#ff0000;stroke-opacity:1;stroke-width:18;stroke-linecap:butt;stroke-linejoin:miter;stroke-miterlimit:10;stroke-dasharray:none"
         id="path4260" /><path
         d="m 4173.99,659.797 c 0,-24.848 -20.15,-44.996 -44.99,-44.996 -24.85,0 -45,20.148 -45,44.996 0,24.848 20.15,44.996 45,44.996 24.84,0 44.99,-20.148 44.99,-44.996"
         style="fill:#ffffff;fill-opacity:1;fill-rule:evenodd;stroke:none"
         id="path4262" /><path
         d="m 4173.99,659.797 c 0,-24.848 -20.15,-44.996 -44.99,-44.996 -24.85,0 -45,20.148 -45,44.996 0,24.848 20.15,44.996 45,44.996 24.84,0 44.99,-20.148 44.99,-44.996 z"
         style="fill:none;stroke:#ff0000;stroke-opacity:1;stroke-width:18;stroke-linecap:butt;stroke-linejoin:miter;stroke-miterlimit:10;stroke-dasharray:none"
         id="path4264" /><path
         d="M 2013.99,654.996 C 2013.99,630.148 1993.84,610 1969,610 c -24.85,0 -45,20.148 -45,44.996 0,24.848 20.15,44.996 45,44.996 24.84,0 44.99,-20.148 44.99,-44.996"
         style="fill:#ffffff;fill-opacity:1;fill-rule:evenodd;stroke:none"
         id="path4266" /><path
         d="M 2013.99,654.996 C 2013.99,630.148 1993.84,610 1969,610 c -24.85,0 -45,20.148 -45,44.996 0,24.848 20.15,44.996 45,44.996 24.84,0 44.99,-20.148 44.99,-44.996 z"
         style="fill:none;stroke:#000000;stroke-opacity:1;stroke-width:4.5;stroke-linecap:butt;stroke-linejoin:miter;stroke-miterlimit:10;stroke-dasharray:none"
         id="path4268" /><path
         d="M 618.992,654.996 C 618.992,630.148 598.844,610 573.996,610 549.148,610 529,630.148 529,654.996 c 0,24.848 20.148,44.996 44.996,44.996 24.848,0 44.996,-20.148 44.996,-44.996"
         style="fill:#ffffff;fill-opacity:1;fill-rule:evenodd;stroke:none"
         id="path4270" /><path
         d="M 618.992,654.996 C 618.992,630.148 598.844,610 573.996,610 549.148,610 529,630.148 529,654.996 c 0,24.848 20.148,44.996 44.996,44.996 24.848,0 44.996,-20.148 44.996,-44.996 z"
         style="fill:none;stroke:#000000;stroke-opacity:1;stroke-width:4.5;stroke-linecap:butt;stroke-linejoin:miter;stroke-miterlimit:10;stroke-dasharray:none"
         id="path4272" /><path
         d="M 4389.99,321.996 C 4389.99,297.148 4369.84,277 4345,277 c -24.85,0 -45,20.148 -45,44.996 0,24.848 20.15,44.996 45,44.996 24.84,0 44.99,-20.148 44.99,-44.996"
         style="fill:#ffffff;fill-opacity:1;fill-rule:evenodd;stroke:none"
         id="path4274" /><path
         d="M 4389.99,321.996 C 4389.99,297.148 4369.84,277 4345,277 c -24.85,0 -45,20.148 -45,44.996 0,24.848 20.15,44.996 45,44.996 24.84,0 44.99,-20.148 44.99,-44.996 z"
         style="fill:none;stroke:#000000;stroke-opacity:1;stroke-width:4.5;stroke-linecap:butt;stroke-linejoin:miter;stroke-miterlimit:10;stroke-dasharray:none"
         id="path4276" /></g></g></svg>