<?xml version="1.0" encoding="UTF-8" standalone="no"?>
<!-- Created with Inkscape (http://www.inkscape.org/) -->

<svg
   xmlns:dc="http://purl.org/dc/elements/1.1/"
   xmlns:cc="http://creativecommons.org/ns#"
   xmlns:rdf="http://www.w3.org/1999/02/22-rdf-syntax-ns#"
   xmlns:svg="http://www.w3.org/2000/svg"
   xmlns="http://www.w3.org/2000/svg"
   xmlns:sodipodi="http://sodipodi.sourceforge.net/DTD/sodipodi-0.dtd"
   xmlns:inkscape="http://www.inkscape.org/namespaces/inkscape"
   id="svg4278"
   version="1.1"
   inkscape:version="0.48.4 r9939"
   width="508.75"
   height="182.5"
   xml:space="preserve"
   sodipodi:docname="DSCornerMask.pdf"><metadata
     id="metadata4284"><rdf:RDF><cc:Work
         rdf:about=""><dc:format>image/svg+xml</dc:format><dc:type
           rdf:resource="http://purl.org/dc/dcmitype/StillImage" /><dc:title></dc:title></cc:Work></rdf:RDF></metadata><defs
     id="defs4282"><clipPath
       clipPathUnits="userSpaceOnUse"
       id="clipPath4294"><path
         d="M 0,1460 0,0 l 4070,0 0,1460 -4070,0 z m 2337.4,-739.605 0,54 -84,0 63,-27 -63,-27 84,0 z"
         clip-rule="evenodd"
         id="path4296" /></clipPath><clipPath
       clipPathUnits="userSpaceOnUse"
       id="clipPath4324"><path
         d="M 0,1460 0,0 l 4070,0 0,1460 -4070,0 z m 1091.8,-1151.203 0,27 -86.4,0.601 48,-13.8 -48,-13.2 86.4,-0.601 z"
         clip-rule="evenodd"
         id="path4326" /></clipPath></defs><sodipodi:namedview
     pagecolor="#ffffff"
     bordercolor="#666666"
     borderopacity="1"
     objecttolerance="10"
     gridtolerance="10"
     guidetolerance="10"
     inkscape:pageopacity="0"
     inkscape:pageshadow="2"
     inkscape:window-width="640"
     inkscape:window-height="480"
     id="namedview4280"
     showgrid="false"
     inkscape:zoom="0.66437346"
     inkscape:cx="254.375"
     inkscape:cy="91.25"
     inkscape:window-x="2258"
     inkscape:window-y="202"
     inkscape:window-maximized="0"
     inkscape:current-layer="g4286" /><g
     id="g4286"
     inkscape:groupmode="layer"
     inkscape:label="DSCornerMask"
     transform="matrix(1.25,0,0,-1.25,0,182.5)"><g
       id="g4288"
       transform="scale(0.1,0.1)"><g
         id="g4290"><g
           id="g4292"
           clip-path="url(#clipPath4294)"><path
             d="m 1689.4,747.395 639,0"
             style="fill:none;stroke:#000000;stroke-opacity:1;stroke-width:18;stroke-linecap:butt;stroke-linejoin:miter;stroke-miterlimit:10;stroke-dasharray:none"
             id="path4298" /></g></g><path
         d="m 2253.4,720.395 63,27 -63,27 0,-54"
         style="fill:#000000;fill-opacity:1;fill-rule:evenodd;stroke:none"
         id="path4300" /><path
         d="m 2253.4,720.395 63,27 -63,27 0,-54 z"
         style="fill:none;stroke:#000000;stroke-opacity:1;stroke-width:9;stroke-linecap:butt;stroke-linejoin:miter;stroke-miterlimit:10;stroke-dasharray:none"
         id="path4302" /><g
         id="g4304"
         transform="scale(10,10)"><text
           transform="matrix(1,0,0,-1,184.96,56.8598)"
           id="text4306"><tspan
             style="fill:#000000;fill-opacity:1;fill-rule:nonzero;stroke:none;font-family:Times New Roman;font-variant:normal;font-weight:normal;font-size:13.5;writing-mode:lr;-inkscape-font-specification:Times-Roman"
             x="0 9.747 19.494"
             y="0"
             sodipodi:role="line"
             id="tspan4308">DQQ</tspan></text>
</g><path
         d="M 3787,1446.99 3787,52"
         style="fill:none;stroke:#cecece;stroke-opacity:1;stroke-width:4.5;stroke-linecap:butt;stroke-linejoin:miter;stroke-miterlimit:10;stroke-dasharray:none"
         id="path4310" /><path
         d="M 6.99609,1176.99 1627,1176.99"
         style="fill:none;stroke:#000000;stroke-opacity:1;stroke-width:4.5;stroke-linecap:butt;stroke-linejoin:miter;stroke-miterlimit:10;stroke-dasharray:none"
         id="path4312" /><path
         d="M 231.996,1401.99 231.996,7"
         style="fill:none;stroke:#000000;stroke-opacity:1;stroke-width:4.5;stroke-linecap:butt;stroke-linejoin:miter;stroke-miterlimit:10;stroke-dasharray:none"
         id="path4314" /><path
         d="M 6.99609,232 1627,232"
         style="fill:none;stroke:#000000;stroke-opacity:1;stroke-width:4.5;stroke-linecap:butt;stroke-linejoin:miter;stroke-miterlimit:10;stroke-dasharray:none"
         id="path4316" /><path
         d="M 1357,1446.99 1357,52"
         style="fill:none;stroke:#000000;stroke-opacity:1;stroke-width:4.5;stroke-linecap:butt;stroke-linejoin:miter;stroke-miterlimit:10;stroke-dasharray:none"
         id="path4318" /><g
         id="g4320"><g
           id="g4322"
           clip-path="url(#clipPath4324)"><path
             d="m 436.598,322 646.202,0"
             style="fill:none;stroke:#87cfff;stroke-opacity:1;stroke-width:9;stroke-linecap:butt;stroke-linejoin:miter;stroke-miterlimit:10;stroke-dasharray:none"
             id="path4328" /></g></g><path
         d="m 1005.4,309.398 48,13.2 -48,13.8 0,-27"
         style="fill:#87cfff;fill-opacity:1;fill-rule:evenodd;stroke:none"
         id="path4330" /><path
         d="m 1005.4,309.398 48,13.2 -48,13.8 0,-27 z"
         style="fill:none;stroke:#87cfff;stroke-opacity:1;stroke-width:15.3;stroke-linecap:butt;stroke-linejoin:miter;stroke-miterlimit:10;stroke-dasharray:none"
         id="path4332" /><path
         d="M 2887,1221.99 2887,142"
         style="fill:none;stroke:#000000;stroke-opacity:1;stroke-width:4.5;stroke-linecap:butt;stroke-linejoin:miter;stroke-miterlimit:10;stroke-dasharray:none"
         id="path4334" /><path
         d="m 2572,412 1305,0"
         style="fill:none;stroke:#000000;stroke-opacity:1;stroke-width:4.5;stroke-linecap:butt;stroke-linejoin:miter;stroke-miterlimit:10;stroke-dasharray:none"
         id="path4336" /><path
         d="M 3562,1221.99 3562,142"
         style="fill:none;stroke:#000000;stroke-opacity:1;stroke-width:4.5;stroke-linecap:butt;stroke-linejoin:miter;stroke-miterlimit:10;stroke-dasharray:none"
         id="path4338" /><path
         d="m 2572,951.992 1305,0"
         style="fill:none;stroke:#000000;stroke-opacity:1;stroke-width:4.5;stroke-linecap:butt;stroke-linejoin:miter;stroke-miterlimit:10;stroke-dasharray:none"
         id="path4340" /><g
         id="g4342"
         transform="scale(10,10)"><text
           transform="matrix(1,0,0,-1,68.1996,41.2)"
           id="text4344"><tspan
             style="fill:#87cfff;fill-opacity:1;fill-rule:nonzero;stroke:none;font-family:Helvetica;font-variant:normal;font-weight:normal;font-size:18.9;writing-mode:lr;-inkscape-font-specification:Helvetica"
             x="0 10.5084"
             y="0"
             sodipodi:role="line"
             id="tspan4346">he</tspan></text>
</g><g
         id="g4348"
         transform="scale(10,10)"><text
           transform="matrix(1,0,0,-1,333.7,50.2)"
           id="text4350"><tspan
             style="fill:#ff0000;fill-opacity:1;fill-rule:nonzero;stroke:none;font-family:Helvetica;font-variant:normal;font-weight:normal;font-size:18.9;writing-mode:lr;-inkscape-font-specification:Helvetica"
             x="0 10.5084"
             y="0"
             sodipodi:role="line"
             id="tspan4352">pt</tspan></text>
</g><path
         d="m 2437,1176.99 1620,0"
         style="fill:none;stroke:#cecece;stroke-opacity:1;stroke-width:4.5;stroke-linecap:butt;stroke-linejoin:miter;stroke-miterlimit:10;stroke-dasharray:none"
         id="path4354" /><path
         d="M 2662,1401.99 2662,7"
         style="fill:none;stroke:#cecece;stroke-opacity:1;stroke-width:4.5;stroke-linecap:butt;stroke-linejoin:miter;stroke-miterlimit:10;stroke-dasharray:none"
         id="path4356" /><path
         d="m 2437,232 1620,0"
         style="fill:none;stroke:#cecece;stroke-opacity:1;stroke-width:4.5;stroke-linecap:butt;stroke-linejoin:miter;stroke-miterlimit:10;stroke-dasharray:none"
         id="path4358" /><path
         d="m 282.395,231.996 c 0,-27.832 -22.567,-50.398 -50.399,-50.398 -27.832,0 -50.398,22.566 -50.398,50.398 0,27.832 22.566,50.399 50.398,50.399 27.832,0 50.399,-22.567 50.399,-50.399"
         style="fill:#ffffff;fill-opacity:1;fill-rule:evenodd;stroke:none"
         id="path4360" /><path
         d="m 282.395,231.996 c 0,-27.832 -22.567,-50.398 -50.399,-50.398 -27.832,0 -50.398,22.566 -50.398,50.398 0,27.832 22.566,50.399 50.398,50.399 27.832,0 50.399,-22.567 50.399,-50.399 z"
         style="fill:none;stroke:#000000;stroke-opacity:1;stroke-width:4.5;stroke-linecap:butt;stroke-linejoin:miter;stroke-miterlimit:10;stroke-dasharray:none"
         id="path4362" /><path
         d="m 3837.39,1176.99 c 0,-27.83 -22.56,-50.4 -50.39,-50.4 -27.84,0 -50.4,22.57 -50.4,50.4 0,27.83 22.56,50.4 50.4,50.4 27.83,0 50.39,-22.57 50.39,-50.4"
         style="fill:#ffffff;fill-opacity:1;fill-rule:evenodd;stroke:none"
         id="path4364" /><path
         d="m 3837.39,1176.99 c 0,-27.83 -22.56,-50.4 -50.39,-50.4 -27.84,0 -50.4,22.57 -50.4,50.4 0,27.83 22.56,50.4 50.4,50.4 27.83,0 50.39,-22.57 50.39,-50.4 z"
         style="fill:none;stroke:#cecece;stroke-opacity:1;stroke-width:4.5;stroke-linecap:butt;stroke-linejoin:miter;stroke-miterlimit:10;stroke-dasharray:none"
         id="path4366" /><path
         d="m 3837.39,231.996 c 0,-27.832 -22.56,-50.398 -50.39,-50.398 -27.84,0 -50.4,22.566 -50.4,50.398 0,27.832 22.56,50.399 50.4,50.399 27.83,0 50.39,-22.567 50.39,-50.399"
         style="fill:#ffffff;fill-opacity:1;fill-rule:evenodd;stroke:none"
         id="path4368" /><path
         d="m 3837.39,231.996 c 0,-27.832 -22.56,-50.398 -50.39,-50.398 -27.84,0 -50.4,22.566 -50.4,50.398 0,27.832 22.56,50.399 50.4,50.399 27.83,0 50.39,-22.567 50.39,-50.399 z"
         style="fill:none;stroke:#cecece;stroke-opacity:1;stroke-width:4.5;stroke-linecap:butt;stroke-linejoin:miter;stroke-miterlimit:10;stroke-dasharray:none"
         id="path4370" /><path
         d="m 2712.39,231.996 c 0,-27.832 -22.56,-50.398 -50.39,-50.398 -27.84,0 -50.4,22.566 -50.4,50.398 0,27.832 22.56,50.399 50.4,50.399 27.83,0 50.39,-22.567 50.39,-50.399"
         style="fill:#ffffff;fill-opacity:1;fill-rule:evenodd;stroke:none"
         id="path4372" /><path
         d="m 2712.39,231.996 c 0,-27.832 -22.56,-50.398 -50.39,-50.398 -27.84,0 -50.4,22.566 -50.4,50.398 0,27.832 22.56,50.399 50.4,50.399 27.83,0 50.39,-22.567 50.39,-50.399 z"
         style="fill:none;stroke:#cecece;stroke-opacity:1;stroke-width:4.5;stroke-linecap:butt;stroke-linejoin:miter;stroke-miterlimit:10;stroke-dasharray:none"
         id="path4374" /><path
         d="m 2937.39,951.992 c 0,-27.832 -22.56,-50.398 -50.39,-50.398 -27.84,0 -50.4,22.566 -50.4,50.398 0,27.832 22.56,50.398 50.4,50.398 27.83,0 50.39,-22.566 50.39,-50.398"
         style="fill:#ffffff;fill-opacity:1;fill-rule:evenodd;stroke:none"
         id="path4376" /><path
         d="m 2937.39,951.992 c 0,-27.832 -22.56,-50.398 -50.39,-50.398 -27.84,0 -50.4,22.566 -50.4,50.398 0,27.832 22.56,50.398 50.4,50.398 27.83,0 50.39,-22.566 50.39,-50.398 z"
         style="fill:none;stroke:#000000;stroke-opacity:1;stroke-width:4.5;stroke-linecap:butt;stroke-linejoin:miter;stroke-miterlimit:10;stroke-dasharray:none"
         id="path4378" /><path
         d="m 2937.39,411.996 c 0,-27.832 -22.56,-50.398 -50.39,-50.398 -27.84,0 -50.4,22.566 -50.4,50.398 0,27.832 22.56,50.399 50.4,50.399 27.83,0 50.39,-22.567 50.39,-50.399"
         style="fill:#ffffff;fill-opacity:1;fill-rule:evenodd;stroke:none"
         id="path4380" /><path
         d="m 2937.39,411.996 c 0,-27.832 -22.56,-50.398 -50.39,-50.398 -27.84,0 -50.4,22.566 -50.4,50.398 0,27.832 22.56,50.399 50.4,50.399 27.83,0 50.39,-22.567 50.39,-50.399 z"
         style="fill:none;stroke:#000000;stroke-opacity:1;stroke-width:4.5;stroke-linecap:butt;stroke-linejoin:miter;stroke-miterlimit:10;stroke-dasharray:none"
         id="path4382" /><path
         d="m 3612.39,951.992 c 0,-27.832 -22.56,-50.398 -50.39,-50.398 -27.84,0 -50.4,22.566 -50.4,50.398 0,27.832 22.56,50.398 50.4,50.398 27.83,0 50.39,-22.566 50.39,-50.398"
         style="fill:#ffffff;fill-opacity:1;fill-rule:evenodd;stroke:none"
         id="path4384" /><path
         d="m 3612.39,951.992 c 0,-27.832 -22.56,-50.398 -50.39,-50.398 -27.84,0 -50.4,22.566 -50.4,50.398 0,27.832 22.56,50.398 50.4,50.398 27.83,0 50.39,-22.566 50.39,-50.398 z"
         style="fill:none;stroke:#000000;stroke-opacity:1;stroke-width:4.5;stroke-linecap:butt;stroke-linejoin:miter;stroke-miterlimit:10;stroke-dasharray:none"
         id="path4386" /><path
         d="m 3612.39,411.996 c 0,-27.832 -22.56,-50.398 -50.39,-50.398 -27.84,0 -50.4,22.566 -50.4,50.398 0,27.832 22.56,50.399 50.4,50.399 27.83,0 50.39,-22.567 50.39,-50.399"
         style="fill:#ffffff;fill-opacity:1;fill-rule:evenodd;stroke:none"
         id="path4388" /><path
         d="m 3612.39,411.996 c 0,-27.832 -22.56,-50.398 -50.39,-50.398 -27.84,0 -50.4,22.566 -50.4,50.398 0,27.832 22.56,50.399 50.4,50.399 27.83,0 50.39,-22.567 50.39,-50.399 z"
         style="fill:none;stroke:#ff0000;stroke-opacity:1;stroke-width:18;stroke-linecap:butt;stroke-linejoin:miter;stroke-miterlimit:10;stroke-dasharray:none"
         id="path4390" /><path
         d="m 282.395,1176.99 c 0,-27.83 -22.567,-50.4 -50.399,-50.4 -27.832,0 -50.398,22.57 -50.398,50.4 0,27.83 22.566,50.4 50.398,50.4 27.832,0 50.399,-22.57 50.399,-50.4"
         style="fill:#ffffff;fill-opacity:1;fill-rule:evenodd;stroke:none"
         id="path4392" /><path
         d="m 282.395,1176.99 c 0,-27.83 -22.567,-50.4 -50.399,-50.4 -27.832,0 -50.398,22.57 -50.398,50.4 0,27.83 22.566,50.4 50.398,50.4 27.832,0 50.399,-22.57 50.399,-50.4 z"
         style="fill:none;stroke:#000000;stroke-opacity:1;stroke-width:4.5;stroke-linecap:butt;stroke-linejoin:miter;stroke-miterlimit:10;stroke-dasharray:none"
         id="path4394" /><path
         d="m 1407.39,1176.99 c 0,-27.83 -22.56,-50.4 -50.39,-50.4 -27.84,0 -50.4,22.57 -50.4,50.4 0,27.83 22.56,50.4 50.4,50.4 27.83,0 50.39,-22.57 50.39,-50.4"
         style="fill:#ffffff;fill-opacity:1;fill-rule:evenodd;stroke:none"
         id="path4396" /><path
         d="m 1407.39,1176.99 c 0,-27.83 -22.56,-50.4 -50.39,-50.4 -27.84,0 -50.4,22.57 -50.4,50.4 0,27.83 22.56,50.4 50.4,50.4 27.83,0 50.39,-22.57 50.39,-50.4 z"
         style="fill:none;stroke:#000000;stroke-opacity:1;stroke-width:4.5;stroke-linecap:butt;stroke-linejoin:miter;stroke-miterlimit:10;stroke-dasharray:none"
         id="path4398" /><path
         d="m 1407.39,231.996 c 0,-27.832 -22.56,-50.398 -50.39,-50.398 -27.84,0 -50.4,22.566 -50.4,50.398 0,27.832 22.56,50.399 50.4,50.399 27.83,0 50.39,-22.567 50.39,-50.399"
         style="fill:#ffffff;fill-opacity:1;fill-rule:evenodd;stroke:none"
         id="path4400" /><path
         d="m 1407.39,231.996 c 0,-27.832 -22.56,-50.398 -50.39,-50.398 -27.84,0 -50.4,22.566 -50.4,50.398 0,27.832 22.56,50.399 50.4,50.399 27.83,0 50.39,-22.567 50.39,-50.399 z"
         style="fill:none;stroke:#000000;stroke-opacity:1;stroke-width:4.5;stroke-linecap:butt;stroke-linejoin:miter;stroke-miterlimit:10;stroke-dasharray:none"
         id="path4402" /><path
         d="m 2712.39,1176.99 c 0,-27.83 -22.56,-50.4 -50.39,-50.4 -27.84,0 -50.4,22.57 -50.4,50.4 0,27.83 22.56,50.4 50.4,50.4 27.83,0 50.39,-22.57 50.39,-50.4"
         style="fill:#ffffff;fill-opacity:1;fill-rule:evenodd;stroke:none"
         id="path4404" /><path
         d="m 2712.39,1176.99 c 0,-27.83 -22.56,-50.4 -50.39,-50.4 -27.84,0 -50.4,22.57 -50.4,50.4 0,27.83 22.56,50.4 50.4,50.4 27.83,0 50.39,-22.57 50.39,-50.4 z"
         style="fill:none;stroke:#cecece;stroke-opacity:1;stroke-width:4.5;stroke-linecap:butt;stroke-linejoin:miter;stroke-miterlimit:10;stroke-dasharray:none"
         id="path4406" /></g></g></svg>