<?xml version="1.0" encoding="UTF-8" standalone="no"?>
<!-- Created with Inkscape (http://www.inkscape.org/) -->

<svg
   xmlns:dc="http://purl.org/dc/elements/1.1/"
   xmlns:cc="http://creativecommons.org/ns#"
   xmlns:rdf="http://www.w3.org/1999/02/22-rdf-syntax-ns#"
   xmlns:svg="http://www.w3.org/2000/svg"
   xmlns="http://www.w3.org/2000/svg"
   xmlns:sodipodi="http://sodipodi.sourceforge.net/DTD/sodipodi-0.dtd"
   xmlns:inkscape="http://www.inkscape.org/namespaces/inkscape"
   id="svg4408"
   version="1.1"
   inkscape:version="0.48.4 r9939"
   width="760"
   height="88.75"
   xml:space="preserve"
   sodipodi:docname="LoopBorderMask.pdf"><metadata
     id="metadata4414"><rdf:RDF><cc:Work
         rdf:about=""><dc:format>image/svg+xml</dc:format><dc:type
           rdf:resource="http://purl.org/dc/dcmitype/StillImage" /><dc:title></dc:title></cc:Work></rdf:RDF></metadata><defs
     id="defs4412"><clipPath
       clipPathUnits="userSpaceOnUse"
       id="clipPath4460"><path
         d="M 0,710 0,0 6080,0 6080,710 0,710 z m 3409,-424.004 0,54 -84,0 63,-27 -63,-27 84,0 z"
         clip-rule="evenodd"
         id="path4462" /></clipPath><clipPath
       clipPathUnits="userSpaceOnUse"
       id="clipPath4488"><path
         d="M 0,710 0,0 6080,0 6080,710 0,710 z m 789.996,-91.004 0,-54 84,0 -63,27 63,27 -84,0 z"
         clip-rule="evenodd"
         id="path4490" /></clipPath></defs><sodipodi:namedview
     pagecolor="#ffffff"
     bordercolor="#666666"
     borderopacity="1"
     objecttolerance="10"
     gridtolerance="10"
     guidetolerance="10"
     inkscape:pageopacity="0"
     inkscape:pageshadow="2"
     inkscape:window-width="640"
     inkscape:window-height="480"
     id="namedview4410"
     showgrid="false"
     inkscape:zoom="0.45789474"
     inkscape:cx="380"
     inkscape:cy="44.375"
     inkscape:window-x="2263"
     inkscape:window-y="194"
     inkscape:window-maximized="0"
     inkscape:current-layer="g4416" /><g
     id="g4416"
     inkscape:groupmode="layer"
     inkscape:label="LoopBorderMask"
     transform="matrix(1.25,0,0,-1.25,0,88.75)"><g
       id="g4418"
       transform="scale(0.1,0.1)"><path
         d="m 78.9961,636.996 2385.0039,0 -135,-584.9921 -2133.004,9"
         style="fill:#e6e6e6;fill-opacity:1;fill-rule:evenodd;stroke:none"
         id="path4420" /><path
         d="m 3634,641.797 2385,0 -135,-584.9962 -2133,9"
         style="fill:#e6e6e6;fill-opacity:1;fill-rule:evenodd;stroke:none"
         id="path4422" /><g
         id="g4424"
         transform="scale(10,10)"><text
           transform="matrix(1,0,0,-1,421.9,50.1996)"
           id="text4426"><tspan
             style="fill:#ff0000;fill-opacity:1;fill-rule:nonzero;stroke:none;font-family:Helvetica;font-variant:normal;font-weight:normal;font-size:18.9;writing-mode:lr;-inkscape-font-specification:Helvetica"
             x="0 9.45 19.9584"
             y="0"
             sodipodi:role="line"
             id="tspan4428">vpt</tspan></text>
</g><path
         d="m 5524,641.797 540,0"
         style="fill:none;stroke:#000000;stroke-opacity:1;stroke-width:4.5;stroke-linecap:butt;stroke-linejoin:miter;stroke-miterlimit:10;stroke-dasharray:none"
         id="path4430" /><path
         d="m 4408,196.004 864,0"
         style="fill:none;stroke:#000000;stroke-opacity:1;stroke-width:4.5;stroke-linecap:butt;stroke-linejoin:miter;stroke-miterlimit:10;stroke-dasharray:none"
         id="path4432" /><path
         d="M 5272,196.004 4822,645.996"
         style="fill:none;stroke:#000000;stroke-opacity:1;stroke-width:4.5;stroke-linecap:butt;stroke-linejoin:miter;stroke-miterlimit:10;stroke-dasharray:none"
         id="path4434" /><path
         d="M 4861,630.996 4411,181.004"
         style="fill:none;stroke:#000000;stroke-opacity:1;stroke-width:4.5;stroke-linecap:butt;stroke-linejoin:miter;stroke-miterlimit:10;stroke-dasharray:none"
         id="path4436" /><g
         id="g4438"
         transform="scale(10,10)"><text
           transform="matrix(1,0,0,-1,295,15.1004)"
           id="text4440"><tspan
             style="fill:#000000;fill-opacity:1;fill-rule:nonzero;stroke:none;font-family:Times New Roman;font-variant:normal;font-weight:normal;font-size:13.5;writing-mode:lr;-inkscape-font-specification:Times-Roman"
             x="0 7.506 15.7545"
             y="0"
             sodipodi:role="line"
             id="tspan4442">PTQ</tspan></text>
</g><g
         id="g4444"
         transform="scale(10,10)"><text
           transform="matrix(1,0,0,-1,124,44.7996)"
           id="text4446"><tspan
             style="fill:#87cfff;fill-opacity:1;fill-rule:nonzero;stroke:none;font-family:Helvetica;font-variant:normal;font-weight:normal;font-size:18.9;writing-mode:lr;-inkscape-font-specification:Helvetica"
             x="0"
             y="0"
             id="tspan4448">e</tspan></text>
</g><g
         id="g4450"
         transform="scale(10,10)"><text
           transform="matrix(1,0,0,-1,498.4,50.1996)"
           id="text4452"><tspan
             style="fill:#ff0000;fill-opacity:1;fill-rule:nonzero;stroke:none;font-family:Helvetica;font-variant:normal;font-weight:normal;font-size:18.9;writing-mode:lr;-inkscape-font-specification:Helvetica"
             x="0 10.5084 21.0168"
             y="0"
             sodipodi:role="line"
             id="tspan4454">ept</tspan></text>
</g><g
         id="g4456"><g
           id="g4458"
           clip-path="url(#clipPath4460)"><path
             d="m 2761,312.996 639,0"
             style="fill:none;stroke:#000000;stroke-opacity:1;stroke-width:18;stroke-linecap:butt;stroke-linejoin:miter;stroke-miterlimit:10;stroke-dasharray:none"
             id="path4464" /></g></g><path
         d="m 3325,285.996 63,27 -63,27 0,-54"
         style="fill:#000000;fill-opacity:1;fill-rule:evenodd;stroke:none"
         id="path4466" /><path
         d="m 3325,285.996 63,27 -63,27 0,-54 z"
         style="fill:none;stroke:#000000;stroke-opacity:1;stroke-width:9;stroke-linecap:butt;stroke-linejoin:miter;stroke-miterlimit:10;stroke-dasharray:none"
         id="path4468" /><path
         d="m 573.996,636.996 1395.004,0"
         style="fill:none;stroke:#000000;stroke-opacity:1;stroke-width:4.5;stroke-linecap:butt;stroke-linejoin:miter;stroke-miterlimit:10;stroke-dasharray:none"
         id="path4470" /><path
         d="M 573.996,636.996 168.996,7.00391"
         style="fill:none;stroke:#000000;stroke-opacity:1;stroke-width:4.5;stroke-linecap:butt;stroke-linejoin:miter;stroke-miterlimit:10;stroke-dasharray:none"
         id="path4472" /><path
         d="m 573.996,636.996 405,-629.99209"
         style="fill:none;stroke:#000000;stroke-opacity:1;stroke-width:4.5;stroke-linecap:butt;stroke-linejoin:miter;stroke-miterlimit:10;stroke-dasharray:none"
         id="path4474" /><path
         d="m 573.996,636.996 -566.99991,0"
         style="fill:none;stroke:#000000;stroke-opacity:1;stroke-width:4.5;stroke-linecap:butt;stroke-linejoin:miter;stroke-miterlimit:10;stroke-dasharray:none"
         id="path4476" /><path
         d="M 1969,636.996 1609,7.00391"
         style="fill:none;stroke:#000000;stroke-opacity:1;stroke-width:4.5;stroke-linecap:butt;stroke-linejoin:miter;stroke-miterlimit:10;stroke-dasharray:none"
         id="path4478" /><path
         d="M 1969,636.996 2374,7.00391"
         style="fill:none;stroke:#000000;stroke-opacity:1;stroke-width:4.5;stroke-linecap:butt;stroke-linejoin:miter;stroke-miterlimit:10;stroke-dasharray:none"
         id="path4480" /><path
         d="m 1969,636.996 540,0"
         style="fill:none;stroke:#000000;stroke-opacity:1;stroke-width:4.5;stroke-linecap:butt;stroke-linejoin:miter;stroke-miterlimit:10;stroke-dasharray:none"
         id="path4482" /><g
         id="g4484"><g
           id="g4486"
           clip-path="url(#clipPath4488)"><path
             d="m 1789,591.996 -990.004,0"
             style="fill:none;stroke:#87cfff;stroke-opacity:1;stroke-width:18;stroke-linecap:butt;stroke-linejoin:miter;stroke-miterlimit:10;stroke-dasharray:none"
             id="path4492" /></g></g><path
         d="m 873.996,618.996 -63,-27 63,-27 0,54"
         style="fill:#87cfff;fill-opacity:1;fill-rule:evenodd;stroke:none"
         id="path4494" /><path
         d="m 873.996,618.996 -63,-27 63,-27 0,54 z"
         style="fill:none;stroke:#87cfff;stroke-opacity:1;stroke-width:9;stroke-linecap:butt;stroke-linejoin:miter;stroke-miterlimit:10;stroke-dasharray:none"
         id="path4496" /><path
         d="m 4129,641.797 1395,0"
         style="fill:none;stroke:#000000;stroke-opacity:1;stroke-width:4.5;stroke-linecap:butt;stroke-linejoin:miter;stroke-miterlimit:10;stroke-dasharray:none"
         id="path4498" /><path
         d="M 4129,641.797 3724,11.8008"
         style="fill:none;stroke:#000000;stroke-opacity:1;stroke-width:4.5;stroke-linecap:butt;stroke-linejoin:miter;stroke-miterlimit:10;stroke-dasharray:none"
         id="path4500" /><path
         d="M 4129,641.797 4534,11.8008"
         style="fill:none;stroke:#000000;stroke-opacity:1;stroke-width:4.5;stroke-linecap:butt;stroke-linejoin:miter;stroke-miterlimit:10;stroke-dasharray:none"
         id="path4502" /><path
         d="m 4129,641.797 -567,0"
         style="fill:none;stroke:#000000;stroke-opacity:1;stroke-width:4.5;stroke-linecap:butt;stroke-linejoin:miter;stroke-miterlimit:10;stroke-dasharray:none"
         id="path4504" /><path
         d="M 5524,641.797 5164,11.8008"
         style="fill:none;stroke:#000000;stroke-opacity:1;stroke-width:4.5;stroke-linecap:butt;stroke-linejoin:miter;stroke-miterlimit:10;stroke-dasharray:none"
         id="path4506" /><path
         d="M 5524,641.797 5929,11.8008"
         style="fill:none;stroke:#000000;stroke-opacity:1;stroke-width:4.5;stroke-linecap:butt;stroke-linejoin:miter;stroke-miterlimit:10;stroke-dasharray:none"
         id="path4508" /><path
         d="m 5307.99,205 c 0,-24.848 -20.15,-44.996 -44.99,-44.996 -24.85,0 -45,20.148 -45,44.996 0,24.848 20.15,44.996 45,44.996 24.84,0 44.99,-20.148 44.99,-44.996"
         style="fill:#ffffff;fill-opacity:1;fill-rule:evenodd;stroke:none"
         id="path4510" /><path
         d="m 5307.99,205 c 0,-24.848 -20.15,-44.996 -44.99,-44.996 -24.85,0 -45,20.148 -45,44.996 0,24.848 20.15,44.996 45,44.996 24.84,0 44.99,-20.148 44.99,-44.996 z"
         style="fill:none;stroke:#000000;stroke-opacity:1;stroke-width:4.5;stroke-linecap:butt;stroke-linejoin:miter;stroke-miterlimit:10;stroke-dasharray:none"
         id="path4512" /><path
         d="m 4173.99,641.797 c 0,-24.848 -20.15,-44.996 -44.99,-44.996 -24.85,0 -45,20.148 -45,44.996 0,24.848 20.15,44.996 45,44.996 24.84,0 44.99,-20.148 44.99,-44.996"
         style="fill:#ffffff;fill-opacity:1;fill-rule:evenodd;stroke:none"
         id="path4514" /><path
         d="m 4173.99,641.797 c 0,-24.848 -20.15,-44.996 -44.99,-44.996 -24.85,0 -45,20.148 -45,44.996 0,24.848 20.15,44.996 45,44.996 24.84,0 44.99,-20.148 44.99,-44.996 z"
         style="fill:none;stroke:#ff0000;stroke-opacity:1;stroke-width:18;stroke-linecap:butt;stroke-linejoin:miter;stroke-miterlimit:10;stroke-dasharray:none"
         id="path4516" /><path
         d="m 4470.99,178 c 0,-24.848 -20.15,-44.996 -44.99,-44.996 -24.85,0 -45,20.148 -45,44.996 0,24.848 20.15,44.996 45,44.996 24.84,0 44.99,-20.148 44.99,-44.996"
         style="fill:#ffffff;fill-opacity:1;fill-rule:evenodd;stroke:none"
         id="path4518" /><path
         d="m 4470.99,178 c 0,-24.848 -20.15,-44.996 -44.99,-44.996 -24.85,0 -45,20.148 -45,44.996 0,24.848 20.15,44.996 45,44.996 24.84,0 44.99,-20.148 44.99,-44.996 z"
         style="fill:none;stroke:#000000;stroke-opacity:1;stroke-width:4.5;stroke-linecap:butt;stroke-linejoin:miter;stroke-miterlimit:10;stroke-dasharray:none"
         id="path4520" /><path
         d="M 4875.99,636.996 C 4875.99,612.148 4855.84,592 4831,592 c -24.85,0 -45,20.148 -45,44.996 0,24.848 20.15,44.996 45,44.996 24.84,0 44.99,-20.148 44.99,-44.996"
         style="fill:#ffffff;fill-opacity:1;fill-rule:evenodd;stroke:none"
         id="path4522" /><path
         d="M 4875.99,636.996 C 4875.99,612.148 4855.84,592 4831,592 c -24.85,0 -45,20.148 -45,44.996 0,24.848 20.15,44.996 45,44.996 24.84,0 44.99,-20.148 44.99,-44.996 z"
         style="fill:none;stroke:#ff0000;stroke-opacity:1;stroke-width:18;stroke-linecap:butt;stroke-linejoin:miter;stroke-miterlimit:10;stroke-dasharray:none"
         id="path4524" /><path
         d="M 2013.99,636.996 C 2013.99,612.148 1993.84,592 1969,592 c -24.85,0 -45,20.148 -45,44.996 0,24.848 20.15,44.996 45,44.996 24.84,0 44.99,-20.148 44.99,-44.996"
         style="fill:#ffffff;fill-opacity:1;fill-rule:evenodd;stroke:none"
         id="path4526" /><path
         d="M 2013.99,636.996 C 2013.99,612.148 1993.84,592 1969,592 c -24.85,0 -45,20.148 -45,44.996 0,24.848 20.15,44.996 45,44.996 24.84,0 44.99,-20.148 44.99,-44.996 z"
         style="fill:none;stroke:#000000;stroke-opacity:1;stroke-width:4.5;stroke-linecap:butt;stroke-linejoin:miter;stroke-miterlimit:10;stroke-dasharray:none"
         id="path4528" /><path
         d="M 618.992,636.996 C 618.992,612.148 598.844,592 573.996,592 549.148,592 529,612.148 529,636.996 c 0,24.848 20.148,44.996 44.996,44.996 24.848,0 44.996,-20.148 44.996,-44.996"
         style="fill:#ffffff;fill-opacity:1;fill-rule:evenodd;stroke:none"
         id="path4530" /><path
         d="M 618.992,636.996 C 618.992,612.148 598.844,592 573.996,592 549.148,592 529,612.148 529,636.996 c 0,24.848 20.148,44.996 44.996,44.996 24.848,0 44.996,-20.148 44.996,-44.996 z"
         style="fill:none;stroke:#000000;stroke-opacity:1;stroke-width:4.5;stroke-linecap:butt;stroke-linejoin:miter;stroke-miterlimit:10;stroke-dasharray:none"
         id="path4532" /><path
         d="m 5568.99,641.797 c 0,-24.848 -20.15,-44.996 -44.99,-44.996 -24.85,0 -45,20.148 -45,44.996 0,24.848 20.15,44.996 45,44.996 24.84,0 44.99,-20.148 44.99,-44.996"
         style="fill:#ffffff;fill-opacity:1;fill-rule:evenodd;stroke:none"
         id="path4534" /><path
         d="m 5568.99,641.797 c 0,-24.848 -20.15,-44.996 -44.99,-44.996 -24.85,0 -45,20.148 -45,44.996 0,24.848 20.15,44.996 45,44.996 24.84,0 44.99,-20.148 44.99,-44.996 z"
         style="fill:none;stroke:#000000;stroke-opacity:1;stroke-width:4.5;stroke-linecap:butt;stroke-linejoin:miter;stroke-miterlimit:10;stroke-dasharray:none"
         id="path4536" /></g></g></svg>