<?xml version="1.0" encoding="UTF-8" standalone="no"?>
<!-- Created with Inkscape (http://www.inkscape.org/) -->

<svg
   xmlns:dc="http://purl.org/dc/elements/1.1/"
   xmlns:cc="http://creativecommons.org/ns#"
   xmlns:rdf="http://www.w3.org/1999/02/22-rdf-syntax-ns#"
   xmlns:svg="http://www.w3.org/2000/svg"
   xmlns="http://www.w3.org/2000/svg"
   xmlns:sodipodi="http://sodipodi.sourceforge.net/DTD/sodipodi-0.dtd"
   xmlns:inkscape="http://www.inkscape.org/namespaces/inkscape"
   id="svg3790"
   version="1.1"
   inkscape:version="0.48.4 r9939"
   width="766.25"
   height="492.5"
   xml:space="preserve"
   sodipodi:docname="PQQStencil.pdf"><metadata
     id="metadata3796"><rdf:RDF><cc:Work
         rdf:about=""><dc:format>image/svg+xml</dc:format><dc:type
           rdf:resource="http://purl.org/dc/dcmitype/StillImage" /><dc:title></dc:title></cc:Work></rdf:RDF></metadata><defs
     id="defs3794" /><sodipodi:namedview
     pagecolor="#ffffff"
     bordercolor="#666666"
     borderopacity="1"
     objecttolerance="10"
     gridtolerance="10"
     guidetolerance="10"
     inkscape:pageopacity="0"
     inkscape:pageshadow="2"
     inkscape:window-width="640"
     inkscape:window-height="480"
     id="namedview3792"
     showgrid="false"
     inkscape:zoom="0.41761827"
     inkscape:cx="383.125"
     inkscape:cy="246.25"
     inkscape:window-x="2303"
     inkscape:window-y="153"
     inkscape:window-maximized="0"
     inkscape:current-layer="g3798" /><g
     id="g3798"
     inkscape:groupmode="layer"
     inkscape:label="PQQStencil"
     transform="matrix(1.25,0,0,-1.25,0,492.5)"><g
       id="g3800"
       transform="scale(0.1,0.1)"><g
         id="g3802"
         transform="scale(10,10)"><text
           transform="matrix(1,0,0,-1,474.48,4.76016)"
           id="text3804"><tspan
             style="fill:#000000;fill-opacity:1;fill-rule:nonzero;stroke:none;font-family:Helvetica;font-variant:normal;font-weight:normal;font-size:15.3;writing-mode:lr;-inkscape-font-specification:Helvetica"
             x="0 10.2051 18.7119 23.8068 28.0602 36.567 44.217 53.1522 61.659 70.1658 78.6726 -206.64 -196.4349 -187.9281 -179.4213 -170.9145 -161.9793 -153.4725 -144.9657 -136.4589 -424.62 -415.2717 -406.7649 -399.1149 -390.6081 -386.3547 -377.4195 -368.9127 -360.4059 -351.8991"
             y="0"
             sodipodi:role="line"
             id="tspan3806">Vertex−nodeEdge−nodeFacet−node</tspan></text>
</g><path
         d="M 887.398,3043.4 1476,2861.6 l 316.8,543 -588,90.6 -317.402,-451.8 z"
         style="fill:none;stroke:#000000;stroke-opacity:1;stroke-width:4.5;stroke-linecap:round;stroke-linejoin:round;stroke-miterlimit:10;stroke-dasharray:none"
         id="path3808" /><path
         d="m 887.398,3043.4 -543.601,-181.8 -316.8009,498.6 543.6019,135 316.8,-451.8 z"
         style="fill:none;stroke:#000000;stroke-opacity:1;stroke-width:4.5;stroke-linecap:round;stroke-linejoin:round;stroke-miterlimit:10;stroke-dasharray:none"
         id="path3810" /><path
         d="m 3067.2,3043.4 0,-543.6 589.8,-226.8 0,588.6 -589.8,181.8 z"
         style="fill:none;stroke:#000000;stroke-opacity:1;stroke-width:4.5;stroke-linecap:round;stroke-linejoin:round;stroke-miterlimit:10;stroke-dasharray:none"
         id="path3812" /><path
         d="m 3067.2,3043.4 0,-543.6 -542.4,-180.6 0,542.4 542.4,181.8 z"
         style="fill:none;stroke:#000000;stroke-opacity:1;stroke-width:4.5;stroke-linecap:round;stroke-linejoin:round;stroke-miterlimit:10;stroke-dasharray:none"
         id="path3814" /><path
         d="m 3067.2,3043.4 317.4,451.8 -317.4,408.6 -316.8,-408.6 316.8,-451.8 z"
         style="fill:none;stroke:#000000;stroke-opacity:1;stroke-width:4.5;stroke-linecap:round;stroke-linejoin:round;stroke-miterlimit:10;stroke-dasharray:none"
         id="path3816" /><path
         d="m 3067.2,3043.4 589.8,-181.8 316.8,543 -589.2,90.6 -317.4,-451.8 z"
         style="fill:none;stroke:#000000;stroke-opacity:1;stroke-width:4.5;stroke-linecap:round;stroke-linejoin:round;stroke-miterlimit:10;stroke-dasharray:none"
         id="path3818" /><path
         d="m 3067.2,3043.4 -542.4,-181.8 -316.8,498.6 542.4,135 316.8,-451.8 z"
         style="fill:none;stroke:#000000;stroke-opacity:1;stroke-width:4.5;stroke-linecap:round;stroke-linejoin:round;stroke-miterlimit:10;stroke-dasharray:none"
         id="path3820" /><path
         d="M 3048,1034.6 2505,853.402 2187.6,1351.4 2730.6,1487 3048,1034.6 z"
         style="fill:none;stroke:#000000;stroke-opacity:1;stroke-width:4.5;stroke-linecap:round;stroke-linejoin:round;stroke-miterlimit:10;stroke-dasharray:none"
         id="path3822" /><path
         d="M 3048,1034.6 3364.8,1487 3048,1894.4 2730.6,1487 3048,1034.6 z"
         style="fill:none;stroke:#000000;stroke-opacity:1;stroke-width:4.5;stroke-linecap:round;stroke-linejoin:round;stroke-miterlimit:10;stroke-dasharray:none"
         id="path3824" /><path
         d="m 3048,1034.6 0,-543.596 589.2,-226.203 0,588.601 L 3048,1034.6 z"
         style="fill:none;stroke:#000000;stroke-opacity:1;stroke-width:4.5;stroke-linecap:round;stroke-linejoin:round;stroke-miterlimit:10;stroke-dasharray:none"
         id="path3826" /><path
         d="M 3048,1034.6 3637.2,853.402 3954,1396.4 3364.8,1487 3048,1034.6 z"
         style="fill:none;stroke:#000000;stroke-opacity:1;stroke-width:4.5;stroke-linecap:round;stroke-linejoin:round;stroke-miterlimit:10;stroke-dasharray:none"
         id="path3828" /><path
         d="m 3048,1034.6 0,-543.596 -543,-181.801 0,544.199 543,181.198 z"
         style="fill:none;stroke:#000000;stroke-opacity:1;stroke-width:4.5;stroke-linecap:round;stroke-linejoin:round;stroke-miterlimit:10;stroke-dasharray:none"
         id="path3830" /><path
         d="m 887.398,3043.4 0,-543.6 L 1476,2273 l 0,588.6 -588.602,181.8 z"
         style="fill:none;stroke:#000000;stroke-opacity:1;stroke-width:4.5;stroke-linecap:round;stroke-linejoin:round;stroke-miterlimit:10;stroke-dasharray:none"
         id="path3832" /><path
         d="m 887.398,3043.4 0,-543.6 -543.601,-180.6 0,542.4 543.601,181.8 z"
         style="fill:none;stroke:#000000;stroke-opacity:1;stroke-width:4.5;stroke-linecap:round;stroke-linejoin:round;stroke-miterlimit:10;stroke-dasharray:none"
         id="path3834" /><path
         d="m 887.398,3043.4 317.402,451.8 -317.402,408.6 -316.8,-408.6 316.8,-451.8 z"
         style="fill:none;stroke:#000000;stroke-opacity:1;stroke-width:4.5;stroke-linecap:round;stroke-linejoin:round;stroke-miterlimit:10;stroke-dasharray:none"
         id="path3836" /><path
         d="M 5171.4,1034.6 4629,853.402 4311,1351.4 4854,1487 5171.4,1034.6 z"
         style="fill:none;stroke:#000000;stroke-opacity:1;stroke-width:4.5;stroke-linecap:round;stroke-linejoin:round;stroke-miterlimit:10;stroke-dasharray:none"
         id="path3838" /><path
         d="M 5171.4,1034.6 5488.2,1487 5171.4,1894.4 4854,1487 5171.4,1034.6 z"
         style="fill:none;stroke:#000000;stroke-opacity:1;stroke-width:4.5;stroke-linecap:round;stroke-linejoin:round;stroke-miterlimit:10;stroke-dasharray:none"
         id="path3840" /><path
         d="m 5171.4,1034.6 0,-543.596 588.6,-226.203 0,588.601 -588.6,181.198 z"
         style="fill:none;stroke:#000000;stroke-opacity:1;stroke-width:4.5;stroke-linecap:round;stroke-linejoin:round;stroke-miterlimit:10;stroke-dasharray:none"
         id="path3842" /><path
         d="M 5171.4,1034.6 5760,853.402 6076.8,1396.4 5488.2,1487 5171.4,1034.6 z"
         style="fill:none;stroke:#000000;stroke-opacity:1;stroke-width:4.5;stroke-linecap:round;stroke-linejoin:round;stroke-miterlimit:10;stroke-dasharray:none"
         id="path3844" /><path
         d="m 5171.4,1034.6 0,-543.596 -542.4,-181.801 0,544.199 542.4,181.198 z"
         style="fill:none;stroke:#000000;stroke-opacity:1;stroke-width:4.5;stroke-linecap:round;stroke-linejoin:round;stroke-miterlimit:10;stroke-dasharray:none"
         id="path3846" /><path
         d="M 868.199,1034.6 1185,1487 868.199,1894.4 550.797,1487 868.199,1034.6 z"
         style="fill:none;stroke:#dfdfdf;stroke-opacity:1;stroke-width:4.5;stroke-linecap:round;stroke-linejoin:round;stroke-miterlimit:10;stroke-dasharray:none"
         id="path3848" /><path
         d="M 868.199,1034.6 324.598,853.402 7.19922,1351.4 550.797,1487 868.199,1034.6 z"
         style="fill:none;stroke:#000000;stroke-opacity:1;stroke-width:4.5;stroke-linecap:round;stroke-linejoin:round;stroke-miterlimit:10;stroke-dasharray:none"
         id="path3850" /><path
         d="m 868.199,1034.6 0,-543.596 588.001,-226.203 0,588.601 -588.001,181.198 z"
         style="fill:none;stroke:#000000;stroke-opacity:1;stroke-width:4.5;stroke-linecap:round;stroke-linejoin:round;stroke-miterlimit:10;stroke-dasharray:none"
         id="path3852" /><path
         d="M 868.199,1034.6 1456.2,853.402 1772.4,1396.4 1185,1487 868.199,1034.6 z"
         style="fill:none;stroke:#000000;stroke-opacity:1;stroke-width:4.5;stroke-linecap:round;stroke-linejoin:round;stroke-miterlimit:10;stroke-dasharray:none"
         id="path3854" /><path
         d="m 868.199,1034.6 0,-543.596 -543.601,-181.801 0,544.199 543.601,181.198 z"
         style="fill:none;stroke:#000000;stroke-opacity:1;stroke-width:4.5;stroke-linecap:round;stroke-linejoin:round;stroke-miterlimit:10;stroke-dasharray:none"
         id="path3856" /><path
         d="m 3048,1034.6 0,-543.596 589.2,-226.203 0,588.601 L 3048,1034.6 z"
         style="fill:none;stroke:#000000;stroke-opacity:1;stroke-width:4.5;stroke-linecap:round;stroke-linejoin:round;stroke-miterlimit:10;stroke-dasharray:none"
         id="path3858" /><path
         d="m 3048,1034.6 0,-543.596 -543,-181.801 0,544.199 543,181.198 z"
         style="fill:none;stroke:#000000;stroke-opacity:1;stroke-width:4.5;stroke-linecap:round;stroke-linejoin:round;stroke-miterlimit:10;stroke-dasharray:none"
         id="path3860" /><path
         d="m 1048.8,1260.8 -344.402,435"
         style="fill:none;stroke:#000000;stroke-opacity:1;stroke-width:4.5;stroke-linecap:round;stroke-linejoin:round;stroke-miterlimit:10;stroke-dasharray:none"
         id="path3862" /><path
         d="M 686.996,1260.8 1030.8,1704.2"
         style="fill:none;stroke:#000000;stroke-opacity:1;stroke-width:4.5;stroke-linecap:round;stroke-linejoin:round;stroke-miterlimit:10;stroke-dasharray:none"
         id="path3864" /><path
         d="M 868.199,1034.6 324.598,853.402 7.19922,1351.4 550.797,1487 868.199,1034.6 z"
         style="fill:none;stroke:#000000;stroke-opacity:1;stroke-width:4.5;stroke-linecap:round;stroke-linejoin:round;stroke-miterlimit:10;stroke-dasharray:none"
         id="path3866" /><path
         d="m 868.199,1034.6 0,-543.596 588.001,-226.203 0,588.601 -588.001,181.198 z"
         style="fill:none;stroke:#000000;stroke-opacity:1;stroke-width:4.5;stroke-linecap:round;stroke-linejoin:round;stroke-miterlimit:10;stroke-dasharray:none"
         id="path3868" /><path
         d="M 868.199,1034.6 1456.2,853.402 1772.4,1396.4 1185,1487 868.199,1034.6 z"
         style="fill:none;stroke:#000000;stroke-opacity:1;stroke-width:4.5;stroke-linecap:round;stroke-linejoin:round;stroke-miterlimit:10;stroke-dasharray:none"
         id="path3870" /><path
         d="m 4899.6,401.004 0,543"
         style="fill:none;stroke:#000000;stroke-opacity:1;stroke-width:4.5;stroke-linecap:round;stroke-linejoin:round;stroke-miterlimit:10;stroke-dasharray:none"
         id="path3872" /><path
         d="m 4629,581.602 542.4,181.199"
         style="fill:none;stroke:#000000;stroke-opacity:1;stroke-width:4.5;stroke-linecap:round;stroke-linejoin:round;stroke-miterlimit:10;stroke-dasharray:none"
         id="path3874" /><path
         d="M 5171.4,762.801 5760,536.602"
         style="fill:none;stroke:#000000;stroke-opacity:1;stroke-width:4.5;stroke-linecap:round;stroke-linejoin:round;stroke-miterlimit:10;stroke-dasharray:none"
         id="path3876" /><path
         d="M 4899.6,944.004 4582.2,1396.4"
         style="fill:none;stroke:#000000;stroke-opacity:1;stroke-width:4.5;stroke-linecap:round;stroke-linejoin:round;stroke-miterlimit:10;stroke-dasharray:none"
         id="path3878" /><path
         d="m 4492.2,1079.6 498.6,181.2"
         style="fill:none;stroke:#000000;stroke-opacity:1;stroke-width:4.5;stroke-linecap:round;stroke-linejoin:round;stroke-miterlimit:10;stroke-dasharray:none"
         id="path3880" /><path
         d="m 5443.2,401.004 0,543"
         style="fill:none;stroke:#000000;stroke-opacity:1;stroke-width:4.5;stroke-linecap:round;stroke-linejoin:round;stroke-miterlimit:10;stroke-dasharray:none"
         id="path3882" /><path
         d="M 5443.2,944.004 5760,1441.4"
         style="fill:none;stroke:#000000;stroke-opacity:1;stroke-width:4.5;stroke-linecap:round;stroke-linejoin:round;stroke-miterlimit:10;stroke-dasharray:none"
         id="path3884" /><path
         d="m 5352,1260.8 543.6,-136.2"
         style="fill:none;stroke:#000000;stroke-opacity:1;stroke-width:4.5;stroke-linecap:round;stroke-linejoin:round;stroke-miterlimit:10;stroke-dasharray:none"
         id="path3886" /><path
         d="m 5352,1260.8 -343.2,435"
         style="fill:none;stroke:#000000;stroke-opacity:1;stroke-width:4.5;stroke-linecap:round;stroke-linejoin:round;stroke-miterlimit:10;stroke-dasharray:none"
         id="path3888" /><path
         d="m 4990.8,1260.8 344.4,443.4"
         style="fill:none;stroke:#000000;stroke-opacity:1;stroke-width:4.5;stroke-linecap:round;stroke-linejoin:round;stroke-miterlimit:10;stroke-dasharray:none"
         id="path3890" /><path
         d="M 5171.4,1034.6 4629,853.402 4311,1351.4 4854,1487 5171.4,1034.6 z"
         style="fill:none;stroke:#000000;stroke-opacity:1;stroke-width:4.5;stroke-linecap:round;stroke-linejoin:round;stroke-miterlimit:10;stroke-dasharray:none"
         id="path3892" /><path
         d="M 5171.4,1034.6 5488.2,1487 5171.4,1894.4 4854,1487 5171.4,1034.6 z"
         style="fill:none;stroke:#000000;stroke-opacity:1;stroke-width:4.5;stroke-linecap:round;stroke-linejoin:round;stroke-miterlimit:10;stroke-dasharray:none"
         id="path3894" /><path
         d="m 5171.4,1034.6 0,-543.596 588.6,-226.203 0,588.601 -588.6,181.198 z"
         style="fill:none;stroke:#000000;stroke-opacity:1;stroke-width:4.5;stroke-linecap:round;stroke-linejoin:round;stroke-miterlimit:10;stroke-dasharray:none"
         id="path3896" /><path
         d="M 5171.4,1034.6 5760,853.402 6076.8,1396.4 5488.2,1487 5171.4,1034.6 z"
         style="fill:none;stroke:#000000;stroke-opacity:1;stroke-width:4.5;stroke-linecap:round;stroke-linejoin:round;stroke-miterlimit:10;stroke-dasharray:none"
         id="path3898" /><path
         d="m 5171.4,1034.6 0,-543.596 -542.4,-181.801 0,544.199 542.4,181.198 z"
         style="fill:none;stroke:#000000;stroke-opacity:1;stroke-width:4.5;stroke-linecap:round;stroke-linejoin:round;stroke-miterlimit:10;stroke-dasharray:none"
         id="path3900" /><path
         d="m 1048.8,1260.8 543,-136.2"
         style="fill:none;stroke:#000000;stroke-opacity:1;stroke-width:4.5;stroke-linecap:round;stroke-linejoin:round;stroke-miterlimit:10;stroke-dasharray:none"
         id="path3902" /><path
         d="M 2776.2,944.004 2458.8,1396.4"
         style="fill:none;stroke:#000000;stroke-opacity:1;stroke-width:4.5;stroke-linecap:round;stroke-linejoin:round;stroke-miterlimit:10;stroke-dasharray:none"
         id="path3904" /><path
         d="m 2369.4,1079.6 498,181.2"
         style="fill:none;stroke:#000000;stroke-opacity:1;stroke-width:4.5;stroke-linecap:round;stroke-linejoin:round;stroke-miterlimit:10;stroke-dasharray:none"
         id="path3906" /><path
         d="m 3320.4,401.004 0,543"
         style="fill:none;stroke:#000000;stroke-opacity:1;stroke-width:4.5;stroke-linecap:round;stroke-linejoin:round;stroke-miterlimit:10;stroke-dasharray:none"
         id="path3908" /><path
         d="M 3320.4,944.004 3637.2,1441.4"
         style="fill:none;stroke:#000000;stroke-opacity:1;stroke-width:4.5;stroke-linecap:round;stroke-linejoin:round;stroke-miterlimit:10;stroke-dasharray:none"
         id="path3910" /><path
         d="m 3229.2,1260.8 543,-136.2"
         style="fill:none;stroke:#000000;stroke-opacity:1;stroke-width:4.5;stroke-linecap:round;stroke-linejoin:round;stroke-miterlimit:10;stroke-dasharray:none"
         id="path3912" /><path
         d="m 3229.2,1260.8 -343.2,435"
         style="fill:none;stroke:#000000;stroke-opacity:1;stroke-width:4.5;stroke-linecap:round;stroke-linejoin:round;stroke-miterlimit:10;stroke-dasharray:none"
         id="path3914" /><path
         d="m 2867.4,1260.8 344.4,443.4"
         style="fill:none;stroke:#000000;stroke-opacity:1;stroke-width:4.5;stroke-linecap:round;stroke-linejoin:round;stroke-miterlimit:10;stroke-dasharray:none"
         id="path3916" /><path
         d="M 3048,1034.6 2505,853.402 2187.6,1351.4 2730.6,1487 3048,1034.6 z"
         style="fill:none;stroke:#000000;stroke-opacity:1;stroke-width:4.5;stroke-linecap:round;stroke-linejoin:round;stroke-miterlimit:10;stroke-dasharray:none"
         id="path3918" /><path
         d="M 3048,1034.6 3364.8,1487 3048,1894.4 2730.6,1487 3048,1034.6 z"
         style="fill:none;stroke:#000000;stroke-opacity:1;stroke-width:4.5;stroke-linecap:round;stroke-linejoin:round;stroke-miterlimit:10;stroke-dasharray:none"
         id="path3920" /><path
         d="M 3048,1034.6 3637.2,853.402 3954,1396.4 3364.8,1487 3048,1034.6 z"
         style="fill:none;stroke:#000000;stroke-opacity:1;stroke-width:4.5;stroke-linecap:round;stroke-linejoin:round;stroke-miterlimit:10;stroke-dasharray:none"
         id="path3922" /><path
         d="m 868.199,1034.6 0,-543.596 -543.601,-181.801 0,544.199 543.601,181.198 z"
         style="fill:none;stroke:#000000;stroke-opacity:1;stroke-width:4.5;stroke-linecap:round;stroke-linejoin:round;stroke-miterlimit:10;stroke-dasharray:none"
         id="path3924" /><path
         d="M 868.199,1034.6 1185,1487 868.199,1894.4 550.797,1487 868.199,1034.6 z"
         style="fill:none;stroke:#000000;stroke-opacity:1;stroke-width:4.5;stroke-linecap:round;stroke-linejoin:round;stroke-miterlimit:10;stroke-dasharray:none"
         id="path3926" /><path
         d="M 3048,762.801 3637.2,536.602"
         style="fill:none;stroke:#000000;stroke-opacity:1;stroke-width:4.5;stroke-linecap:round;stroke-linejoin:round;stroke-miterlimit:10;stroke-dasharray:none"
         id="path3928" /><path
         d="m 2505,581.602 543,181.199"
         style="fill:none;stroke:#000000;stroke-opacity:1;stroke-width:4.5;stroke-linecap:round;stroke-linejoin:round;stroke-miterlimit:10;stroke-dasharray:none"
         id="path3930" /><path
         d="m 2776.2,401.004 0,543"
         style="fill:none;stroke:#000000;stroke-opacity:1;stroke-width:4.5;stroke-linecap:round;stroke-linejoin:round;stroke-miterlimit:10;stroke-dasharray:none"
         id="path3932" /><path
         d="m 596.398,401.004 0,543"
         style="fill:none;stroke:#000000;stroke-opacity:1;stroke-width:4.5;stroke-linecap:round;stroke-linejoin:round;stroke-miterlimit:10;stroke-dasharray:none"
         id="path3934" /><path
         d="M 324.598,581.602 868.199,762.801"
         style="fill:none;stroke:#000000;stroke-opacity:1;stroke-width:4.5;stroke-linecap:round;stroke-linejoin:round;stroke-miterlimit:10;stroke-dasharray:none"
         id="path3936" /><path
         d="M 868.199,762.801 1456.2,536.602"
         style="fill:none;stroke:#000000;stroke-opacity:1;stroke-width:4.5;stroke-linecap:round;stroke-linejoin:round;stroke-miterlimit:10;stroke-dasharray:none"
         id="path3938" /><path
         d="M 596.398,944.004 278.996,1396.4"
         style="fill:none;stroke:#000000;stroke-opacity:1;stroke-width:4.5;stroke-linecap:round;stroke-linejoin:round;stroke-miterlimit:10;stroke-dasharray:none"
         id="path3940" /><path
         d="m 188.398,1079.6 498.598,181.2"
         style="fill:none;stroke:#000000;stroke-opacity:1;stroke-width:4.5;stroke-linecap:round;stroke-linejoin:round;stroke-miterlimit:10;stroke-dasharray:none"
         id="path3942" /><path
         d="m 1139.4,401.004 0,543"
         style="fill:none;stroke:#000000;stroke-opacity:1;stroke-width:4.5;stroke-linecap:round;stroke-linejoin:round;stroke-miterlimit:10;stroke-dasharray:none"
         id="path3944" /><path
         d="M 1139.4,944.004 1456.2,1441.4"
         style="fill:none;stroke:#000000;stroke-opacity:1;stroke-width:4.5;stroke-linecap:round;stroke-linejoin:round;stroke-miterlimit:10;stroke-dasharray:none"
         id="path3946" /><path
         d="m 5190.6,3043.4 -543,-181.8 -316.2,498.6 542.4,135 316.8,-451.8 z"
         style="fill:none;stroke:#0000ff;stroke-opacity:1;stroke-width:27;stroke-linecap:round;stroke-linejoin:round;stroke-miterlimit:10;stroke-dasharray:none"
         id="path3948" /><path
         d="m 3271.2,1281.8 c 0,-25.18 -20.42,-45.6 -45.6,-45.6 -25.18,0 -45.6,20.42 -45.6,45.6 0,25.18 20.42,45.59 45.6,45.59 25.18,0 45.6,-20.41 45.6,-45.59"
         style="fill:#ffffff;fill-opacity:1;fill-rule:evenodd;stroke:none"
         id="path3950" /><path
         d="m 3271.2,1281.8 c 0,-25.18 -20.42,-45.6 -45.6,-45.6 -25.18,0 -45.6,20.42 -45.6,45.6 0,25.18 20.42,45.59 45.6,45.59 25.18,0 45.6,-20.41 45.6,-45.59 z"
         style="fill:none;stroke:#ff0000;stroke-opacity:1;stroke-width:18;stroke-linecap:round;stroke-linejoin:round;stroke-miterlimit:10;stroke-dasharray:none"
         id="path3952" /><path
         d="m 5216.39,1034.6 c 0,-25.18 -20.41,-45.6 -45.59,-45.6 -25.18,0 -45.6,20.42 -45.6,45.6 0,25.18 20.42,45.6 45.6,45.6 25.18,0 45.59,-20.42 45.59,-45.6"
         style="fill:#ffffff;fill-opacity:1;fill-rule:evenodd;stroke:none"
         id="path3954" /><path
         d="m 5216.39,1034.6 c 0,-25.18 -20.41,-45.6 -45.59,-45.6 -25.18,0 -45.6,20.42 -45.6,45.6 0,25.18 20.42,45.6 45.6,45.6 25.18,0 45.59,-20.42 45.59,-45.6 z"
         style="fill:none;stroke:#ff0000;stroke-opacity:1;stroke-width:18;stroke-linecap:round;stroke-linejoin:round;stroke-miterlimit:10;stroke-dasharray:none"
         id="path3956" /><path
         d="m 1211.4,3496.4 579.6,-91.8 -321,-544.8 -585.602,183.6 327.002,453 z"
         style="fill:none;stroke:#0000ff;stroke-opacity:1;stroke-width:27;stroke-linecap:round;stroke-linejoin:round;stroke-miterlimit:10;stroke-dasharray:none"
         id="path3958" /><path
         d="m 3065.4,3050 591,-190.2 321,544.8 -596.4,91.8 -315.6,-446.4 z"
         style="fill:none;stroke:#0000ff;stroke-opacity:1;stroke-width:27;stroke-linecap:round;stroke-linejoin:round;stroke-miterlimit:10;stroke-dasharray:none"
         id="path3960" /><path
         d="m 3065.4,3043.4 -316.2,459 321.6,407.4 304.2,-407.4"
         style="fill:none;stroke:#0000ff;stroke-opacity:1;stroke-width:27;stroke-linecap:round;stroke-linejoin:round;stroke-miterlimit:10;stroke-dasharray:none"
         id="path3962" /><path
         d="m 5190.6,3043.4 317.4,451.8 -317.4,408.6 -316.8,-408.6 316.8,-451.8 z"
         style="fill:none;stroke:#0000ff;stroke-opacity:1;stroke-width:27;stroke-linecap:round;stroke-linejoin:round;stroke-miterlimit:10;stroke-dasharray:none"
         id="path3964" /><path
         d="m 5190.6,3043.4 589.2,-181.8 316.8,543 -588.6,90.6 -317.4,-451.8 z"
         style="fill:none;stroke:#0000ff;stroke-opacity:1;stroke-width:27;stroke-linecap:round;stroke-linejoin:round;stroke-miterlimit:10;stroke-dasharray:none"
         id="path3966" /><path
         d="m 5190.6,3043.4 0,-543.6 589.2,-226.8 0,588.6 -589.2,181.8 z"
         style="fill:none;stroke:#0000ff;stroke-opacity:1;stroke-width:27;stroke-linecap:round;stroke-linejoin:round;stroke-miterlimit:10;stroke-dasharray:none"
         id="path3968" /><path
         d="m 5190.6,3043.4 0,-543.6 -543,-180.6 0,542.4 543,181.8 z"
         style="fill:none;stroke:#0000ff;stroke-opacity:1;stroke-width:27;stroke-linecap:round;stroke-linejoin:round;stroke-miterlimit:10;stroke-dasharray:none"
         id="path3970" /><path
         d="m 1343.39,1195.4 c 0,-25.18 -20.41,-45.6 -45.59,-45.6 -25.18,0 -45.6,20.42 -45.6,45.6 0,25.18 20.42,45.6 45.6,45.6 25.18,0 45.59,-20.42 45.59,-45.6"
         style="fill:#ffffff;fill-opacity:1;fill-rule:evenodd;stroke:none"
         id="path3972" /><path
         d="m 1343.39,1195.4 c 0,-25.18 -20.41,-45.6 -45.59,-45.6 -25.18,0 -45.6,20.42 -45.6,45.6 0,25.18 20.42,45.6 45.6,45.6 25.18,0 45.59,-20.42 45.59,-45.6 z"
         style="fill:none;stroke:#ff0000;stroke-opacity:1;stroke-width:18;stroke-linecap:round;stroke-linejoin:round;stroke-miterlimit:10;stroke-dasharray:none"
         id="path3974" /></g></g></svg>