<?xml version="1.0" encoding="UTF-8"?>
<svg xmlns="http://www.w3.org/2000/svg" xmlns:xlink="http://www.w3.org/1999/xlink" width="260pt" height="259pt" viewBox="0 0 260 259" version="1.1">
<g id="surface1">
<path style="fill:none;stroke-width:1.2;stroke-linecap:butt;stroke-linejoin:round;stroke:rgb(100%,0%,0%);stroke-opacity:1;stroke-dasharray:4;stroke-miterlimit:10;" d="M 156.54803 553.184377 C 172.001155 553.184377 186.817561 559.321096 197.743343 570.246877 C 208.669124 581.168752 214.805843 595.985158 214.805843 611.434377 " transform="matrix(1,0,0,-1,-126.493343,641.492971)"/>
<path style="fill:none;stroke-width:1.2;stroke-linecap:butt;stroke-linejoin:round;stroke:rgb(100%,0%,0%);stroke-opacity:1;stroke-dasharray:4;stroke-miterlimit:10;" d="M 214.805843 611.434377 C 225.731624 600.508596 240.54803 594.371877 256.001155 594.371877 C 271.450374 594.371877 286.26678 600.508596 297.192561 611.434377 " transform="matrix(1,0,0,-1,-126.493343,641.492971)"/>
<path style="fill:none;stroke-width:1.2;stroke-linecap:butt;stroke-linejoin:round;stroke:rgb(100%,0%,0%);stroke-opacity:1;stroke-dasharray:4;stroke-miterlimit:10;" d="M 297.192561 611.434377 C 297.192561 595.985158 303.32928 581.168752 314.255061 570.246877 C 325.180843 559.321096 340.001155 553.188283 355.450374 553.188283 " transform="matrix(1,0,0,-1,-126.493343,641.492971)"/>
<path style="fill:none;stroke-width:1.2;stroke-linecap:butt;stroke-linejoin:round;stroke:rgb(100%,0%,0%);stroke-opacity:1;stroke-dasharray:4;stroke-miterlimit:10;" d="M 355.450374 553.188283 C 344.524593 542.262502 338.387874 527.446096 338.387874 512.000783 C 338.387874 496.551565 344.524593 481.735158 355.450374 470.813283 " transform="matrix(1,0,0,-1,-126.493343,641.492971)"/>
<path style="fill:none;stroke-width:1.2;stroke-linecap:butt;stroke-linejoin:round;stroke:rgb(100%,0%,0%);stroke-opacity:1;stroke-miterlimit:10;" d="M 355.450374 470.813283 C 340.001155 470.813283 325.180843 464.676565 314.255061 453.75469 C 303.333186 442.828908 297.192561 428.016408 297.192561 412.56719 " transform="matrix(1,0,0,-1,-126.493343,641.492971)"/>
<path style="fill:none;stroke-width:1.2;stroke-linecap:butt;stroke-linejoin:round;stroke:rgb(100%,0%,0%);stroke-opacity:1;stroke-miterlimit:10;" d="M 297.192561 412.56719 C 286.270686 423.489065 271.450374 429.625783 256.001155 429.625783 C 240.54803 429.625783 225.731624 423.489065 214.805843 412.56719 " transform="matrix(1,0,0,-1,-126.493343,641.492971)"/>
<path style="fill:none;stroke-width:1.2;stroke-linecap:butt;stroke-linejoin:round;stroke:rgb(100%,0%,0%);stroke-opacity:1;stroke-miterlimit:10;" d="M 214.805843 412.56719 C 214.805843 428.012502 208.669124 442.828908 197.743343 453.75469 C 186.817561 464.676565 172.001155 470.813283 156.54803 470.813283 " transform="matrix(1,0,0,-1,-126.493343,641.492971)"/>
<path style="fill:none;stroke-width:1.2;stroke-linecap:butt;stroke-linejoin:round;stroke:rgb(100%,0%,0%);stroke-opacity:1;stroke-miterlimit:10;" d="M 156.54803 470.813283 C 167.473811 481.735158 173.614436 496.551565 173.614436 512.000783 C 173.614436 527.446096 167.473811 542.262502 156.54803 553.184377 " transform="matrix(1,0,0,-1,-126.493343,641.492971)"/>
<path style="fill:none;stroke-width:2;stroke-linecap:butt;stroke-linejoin:round;stroke:rgb(0%,0%,0%);stroke-opacity:1;stroke-miterlimit:10;" d="M 384.008968 512.000783 C 384.008968 582.688283 326.696468 639.992971 256.001155 639.992971 C 185.305843 639.992971 127.993343 582.688283 127.993343 512.000783 C 127.993343 441.313283 185.305843 384.008596 256.001155 384.008596 C 326.696468 384.008596 384.008968 441.313283 384.008968 512.000783 Z M 384.008968 512.000783 " transform="matrix(1,0,0,-1,-126.493343,641.492971)"/>
<path style=" stroke:none;fill-rule:evenodd;fill:rgb(100%,0%,0%);fill-opacity:1;" d="M 231.957031 170.679688 C 231.957031 166.679688 225.957031 166.679688 225.957031 170.679688 C 225.957031 174.679688 231.957031 174.679688 231.957031 170.679688 Z M 231.957031 170.679688 "/>
<path style=" stroke:none;fill-rule:evenodd;fill:rgb(100%,100%,100%);fill-opacity:1;" d="M 231.457031 88.304688 C 231.457031 84.972656 226.457031 84.972656 226.457031 88.304688 C 226.457031 91.640625 231.457031 91.640625 231.457031 88.304688 Z M 231.457031 88.304688 "/>
<path style=" stroke:none;fill-rule:evenodd;fill:rgb(100%,0%,0%);fill-opacity:1;" d="M 231.957031 88.304688 C 231.957031 84.304688 225.957031 84.304688 225.957031 88.304688 C 225.957031 92.304688 231.957031 92.304688 231.957031 88.304688 Z M 230.957031 88.304688 C 230.957031 85.640625 226.957031 85.640625 226.957031 88.304688 C 226.957031 90.972656 230.957031 90.972656 230.957031 88.304688 Z M 230.957031 88.304688 "/>
<path style=" stroke:none;fill-rule:evenodd;fill:rgb(100%,100%,100%);fill-opacity:1;" d="M 173.199219 30.058594 C 173.199219 26.726562 168.199219 26.726562 168.199219 30.058594 C 168.199219 33.394531 173.199219 33.394531 173.199219 30.058594 Z M 173.199219 30.058594 "/>
<path style=" stroke:none;fill-rule:evenodd;fill:rgb(100%,0%,0%);fill-opacity:1;" d="M 173.699219 30.058594 C 173.699219 26.058594 167.699219 26.058594 167.699219 30.058594 C 167.699219 34.058594 173.699219 34.058594 173.699219 30.058594 Z M 172.699219 30.058594 C 172.699219 27.394531 168.699219 27.394531 168.699219 30.058594 C 168.699219 32.726562 172.699219 32.726562 172.699219 30.058594 Z M 172.699219 30.058594 "/>
<path style=" stroke:none;fill-rule:evenodd;fill:rgb(100%,100%,100%);fill-opacity:1;" d="M 90.8125 30.058594 C 90.8125 26.726562 85.8125 26.726562 85.8125 30.058594 C 85.8125 33.394531 90.8125 33.394531 90.8125 30.058594 Z M 90.8125 30.058594 "/>
<path style=" stroke:none;fill-rule:evenodd;fill:rgb(100%,0%,0%);fill-opacity:1;" d="M 91.3125 30.058594 C 91.3125 26.058594 85.3125 26.058594 85.3125 30.058594 C 85.3125 34.058594 91.3125 34.058594 91.3125 30.058594 Z M 90.3125 30.058594 C 90.3125 27.394531 86.3125 27.394531 86.3125 30.058594 C 86.3125 32.726562 90.3125 32.726562 90.3125 30.058594 Z M 90.3125 30.058594 "/>
<path style=" stroke:none;fill-rule:evenodd;fill:rgb(100%,100%,100%);fill-opacity:1;" d="M 32.554688 88.308594 C 32.554688 84.972656 27.554688 84.972656 27.554688 88.308594 C 27.554688 91.640625 32.554688 91.640625 32.554688 88.308594 Z M 32.554688 88.308594 "/>
<path style=" stroke:none;fill-rule:evenodd;fill:rgb(100%,0%,0%);fill-opacity:1;" d="M 33.054688 88.308594 C 33.054688 84.308594 27.054688 84.308594 27.054688 88.308594 C 27.054688 92.308594 33.054688 92.308594 33.054688 88.308594 Z M 32.054688 88.308594 C 32.054688 85.640625 28.054688 85.640625 28.054688 88.308594 C 28.054688 90.972656 32.054688 90.972656 32.054688 88.308594 Z M 32.054688 88.308594 "/>
<path style=" stroke:none;fill-rule:evenodd;fill:rgb(100%,100%,100%);fill-opacity:1;" d="M 32.558594 170.679688 C 32.558594 167.347656 27.558594 167.347656 27.558594 170.679688 C 27.558594 174.011719 32.558594 174.011719 32.558594 170.679688 Z M 32.558594 170.679688 "/>
<path style=" stroke:none;fill-rule:evenodd;fill:rgb(100%,0%,0%);fill-opacity:1;" d="M 33.058594 170.679688 C 33.058594 166.679688 27.058594 166.679688 27.058594 170.679688 C 27.058594 174.679688 33.058594 174.679688 33.058594 170.679688 Z M 32.058594 170.679688 C 32.058594 168.011719 28.058594 168.011719 28.058594 170.679688 C 28.058594 173.347656 32.058594 173.347656 32.058594 170.679688 Z M 32.058594 170.679688 "/>
<path style=" stroke:none;fill-rule:evenodd;fill:rgb(100%,100%,100%);fill-opacity:1;" d="M 90.8125 228.925781 C 90.8125 225.59375 85.8125 225.59375 85.8125 228.925781 C 85.8125 232.261719 90.8125 232.261719 90.8125 228.925781 Z M 90.8125 228.925781 "/>
<path style=" stroke:none;fill-rule:evenodd;fill:rgb(100%,0%,0%);fill-opacity:1;" d="M 91.3125 228.925781 C 91.3125 224.925781 85.3125 224.925781 85.3125 228.925781 C 85.3125 232.925781 91.3125 232.925781 91.3125 228.925781 Z M 90.3125 228.925781 C 90.3125 226.261719 86.3125 226.261719 86.3125 228.925781 C 86.3125 231.59375 90.3125 231.59375 90.3125 228.925781 Z M 90.3125 228.925781 "/>
<path style=" stroke:none;fill-rule:evenodd;fill:rgb(100%,100%,100%);fill-opacity:1;" d="M 173.199219 228.925781 C 173.199219 225.59375 168.199219 225.59375 168.199219 228.925781 C 168.199219 232.257812 173.199219 232.257812 173.199219 228.925781 Z M 173.199219 228.925781 "/>
<path style=" stroke:none;fill-rule:evenodd;fill:rgb(100%,0%,0%);fill-opacity:1;" d="M 173.699219 228.925781 C 173.699219 224.925781 167.699219 224.925781 167.699219 228.925781 C 167.699219 232.925781 173.699219 232.925781 173.699219 228.925781 Z M 172.699219 228.925781 C 172.699219 226.257812 168.699219 226.257812 168.699219 228.925781 C 168.699219 231.59375 172.699219 231.59375 172.699219 228.925781 Z M 172.699219 228.925781 "/>
</g>
</svg>
