/* XPM */
static const char *leda_icon[] = {
/* width height num_colors chars_per_pixel */
"   110   110       58            1",
/* colors */
". c #000000",
"# c #b7b7b7",
"a c #2f4f4f",
"b c #fffff0",
"c c #a0522d",
"d c #595959",
"e c #808080",
"f c #640000",
"g c #baa0a7",
"h c #8f8f8f",
"i c #adadad",
"j c #c3c3c3",
"k c #d2d2d2",
"l c #ffffcc",
"m c #6f6f6f",
"n c #656565",
"o c #d3b5b5",
"p c #efe3e3",
"q c #000033",
"r c #003300",
"s c #003333",
"t c #400000",
"u c #400033",
"v c #403300",
"w c #403333",
"x c #403366",
"y c #803333",
"z c #803366",
"A c #806633",
"B c #806666",
"C c #806699",
"D c #809966",
"E c #bf3333",
"F c #bf6633",
"G c #bf6666",
"H c #bf6699",
"I c #bf9933",
"J c #bf9966",
"K c #bfcc66",
"L c #bfcc99",
"M c #ff6666",
"N c #ff9933",
"O c #ff9966",
"P c #ffcc66",
"Q c #ffcc99",
"R c #ffcccc",
"S c #ffff66",
"T c #ffff99",
"U c #b49a9a",
"V c #4c4c4c",
"W c #999999",
"X c #bf9898",
"Y c #bf7272",
"Z c #bf4c4c",
"0 c #e5b7b7",
"1 c #e58989",
"2 c #e55b5b",
"3 c #bfb498",
/* pixels */
"tutuwutuuwtwwwuwwwwwywwwyyyywwVwyyyyywwcwdyyywyytwwwwwwwwwwwwwwwywwwuttttt..t....t..t.......t..tttt...........",
"ttwutttwtwwtwwwwwuwwwwwyywcwwydwcywycyFwyAwycyccwwtwwuwytyywytwywwywwwwtt.ut.......t..t.t..t..................",
"ttuttuwtwwuwuwwuwwwwywwcVwwwywwAcdAywccccyAydccywwwwwwywwwwwywwwwwyuywuw.....t.............t......qt..........",
"ttwttwuwwtwwwywwwwwwwwywwydyyVyydycwcJwydycyFcEyywwwwwywwwwwwwwwwyywywuw..t.....................t.wt..........",
"tttttuuuwtwtwwwwwywwwwywVyyywywccyyyyGycccyyAcGcyytuwwwwwwywyuwwwwuwyuww..t...................t....u..........",
"utuwuuwwwwwywwwwywwywyywwywwywyccyFyycyAcyAcdcydywwuwwwwuuwuutu.utwttwww.........t........wt.....tt...........",
"tttttwuuuwwuwyuyywwwwwwwyyyycwcwyyycyyycdyycyJyEVwwtuwwuwtt..wttwuuttttt...t..................t.t.t..t........",
"tw.uttttwwwuVwwwwwwwVwwwywwcwyyccdcycycyyZyycyyyyywwwwttttt.uuwtuwuwwwwwwt..t..............wtt.t..t.......t.q.",
"ttwtwtuwuutuwwwVwwwwwwwwwwdwyyVdycGyAccdycyycycyyAwwwqtwt.tttuwwutwwwywwwuw..t..............tt..tu..t...tt....",
"t.tttttwwuuuwwwwwwwwwVwyVywycyycyccccccBcyByAGywwu.tt.twwuwtwwyywwywcwyAwuuutttt..t....t...t..t.........t.....",
"ut.tt.ttutwwwwwwwwwwywwcwwdwVwyycdAcVyccycyywwwttwtwwtwwwwwuuwVywyywcyFcywtwwut.............t..t..............",
"t.w.twttutwtwwwwywwywwwwwyywydwcyycwwcwcywyttwu.twwuwwywyVwtwwycycyyGdycwywtwwtt.............t................",
"wtttttwwwwwwwwuwwwwywywwwwwwywwywyyVyyyywtww.tttwwwwwwwccyywuuwwAyAFcGFcyyywwwwwt......t..w.t.....t...........",
"tutwwtwtutwtwwwwwwwwwywwwwwwywcyyyyyywAwwwwuuttt.twwwwwyycyyucyyFcZJcIGyFywcywwtwu.t........u..t.t........t...",
".w....ttwtw.wwuwwwwwwwwwwwcwVywycwwywyywwwtuuwwtwu.wwwwccccJFyyEycFJFcGAcyEcwywwu..t.......tt.t...............",
"tt....ttuttwwtuwwwwwwwwywwwwyywFyVAwwyyVwwwwtt.wwwyccyccyFcEIFIAFIcyFccJyccwyywyt.t........t..................",
"tt..t.tttwttwtuwwwwwwwwyywywwwVdyywywwwtwt..ttuutAyGFcFcBJyGIJJFGFEycFAJJJFccywwut.tw.t.t..tt.t...........t...",
"...t...twtwttwuwwwwwwwwywyywyywywwwwwwttwwtttttwwwwycyFGEJIGFyIFccZcFyGJFGFByywwwtu.tuttt.tt..................",
"..t...wtu.uwwwwwwwwywwyywwwyyywcwwcwwwwwtwwttuttwVAyyFyyEycycAyBAcwycyyFFFBcyywwttt.utt....tt.................",
"..u.tt.t.uttwwwuywwwtywwyywwywwwyywwyw.w.t.ttwtwwyyyyywwVwyywwfycyccwycyccccywyuwttwwuut...q..........s......t",
"t..tt.tuttuwwwtwuwwwwwwwtwyywydwAwwwtw...ttt.twtwyywywwwuwwuuwwwyyycyyyyccycwwyuywwwwwyyt..tu.t.........t.t...",
"tt...tt.twtttuuwwwwtwwwwwwwwyywwwwy.tw.w.q.tw.twttwwwttwttutwtuwwyyyAyyyyyywwywwyuuwwyyyft.t.ut...........t.t.",
"......ttt.u.wtwwutwwwwwwwwywwywwywwtww..tt.wuwwtwt..t.tw.tttutuwwyycycDcFcyFcyAyywwwwwcyyw.w..r...............",
"t.....t.tttutuuwuuwuywwwwwywyywAwww..uwtt.t..wwuww......t.ttuuwyyyccFFFOGJJADcFZEyyyVcyyywuu..................",
"ut.t.wt.w.uwwwwwwwwwwwyywywwywwyywtt.w.tt..twwuwt..t..t.ttttwwEccZFcJOJOQJJGGJcJcycyGFyAyww..t.....t..........",
"....t..twttwtttwuuwwwwywwwyyywyyyww..wt.twtqtu.tt.t....tutuwwcyJJJJOOJOOOJPPJPOOGyccEAJFAywt......t..t........",
".....t..tut.twwtwwtuwwuuwwwywwywcwww..t...tttt......tt.ttwyyyFFcNOJOOPPOPPOQSOOJJIyAccJycwtwu.t....t..qt.tu...",
"......ttt.twtttuwwwtwwwwwwywwywwcw...t..t..ttt.....w..wuwwyyGcIGJJOPOOQPOPOTPPQOOBccyyJcycwt..r...............",
"...t..wtw.t.tutuuwwwVtwwwwwywwywVttwt......r.wstt....twwwyZFEJJJPQJPOPSQQQPPQTPOQJZcccIGycwwu......t...t..t..t",
"t.........tt.wwtwwuwwwwwwwywwywyywtts.t......w.t..twtwtyyFcFOGOJOPOJPQTPTPOPPOJQOPJIIcByyytwttt........t.t....",
".....t......wwwwuuwwwwuwVyywyywAwttttwwtt.wt.wututtwwwyyycFcJYOOOOOQQOQPOPQQPQTKJJOcycZFFwy.t.....t...........",
"......t.t.uuttwwtwwywwcwwywycyyyVwwwtttwuuw.uu.tutwtwwwyEJcGZIcGPOQOPSQQPQTQPQOOOOJFIcyGcyytu.................",
".....t...t.tuwuwwtwwuywwAwwwwwyyywtwt.ttwtwwwwtttwwuyywFccJGcJZGOOOPJPSSSQOPOQPPPJJJcGcycFywtt................",
"......tt.ut..twtuwwwwuwwwwywwydywwtw..ttwtuwtwwutwwwwwyyFccccGGcccOJOTPQQTPSTPPOQOYJBcAyJIyct..........t......",
"......rt.t.tttwwuwwutywuwwywVwcwywt.w.wttwywuwuuwywwycyccyccyIyyFycOOPOOPOJQOPQPKOJKFdcyyZAAwtwt..............",
"......t.tt..wtuwtuwtywwwwwwwwywyAuttt.tt.wwyywywwwyyyyAyyyydyccycyyGGJPJPJOTOQQOPGJJcyyyyGycwt...............t",
"....t.t.t.t.ttwutwwwwwwwwyywyydcywttttttwwwyuwwwyycccycyycycJyFywcyyZGJOOPOPTOOPOPJGJywwywZyw.................",
"t......tttttwwtwwtwwwwwwyyVwydyAywwtrtwwtwywwywwyyZcFcEyyyyEGZZyyfwycZFPOOOJQJPP3JPYZyt.uuyywt..t.............",
".....t.t.tuttwtutuuwwwywwywcwccydywwtw.ttwwwyuwyycJYGJZZywcEyJZGyywyEJGJQOPOOPOOOGGJcwuu.uuww.....tt.t.......t",
".......tt.wwttwuwwuwuwwwwVywwywycwt..wtwtttuwuwwcAGJGJJFAywycFyyywwyEJJOPJJOJJOOOOJJcwt..t.wt.w..t............",
"tttttt.ttututwtwwutwwywwywwwwwycVywtt.ttttwwwwuwyyJGGQJJYywuufywwtwyyGOJQMOJGOOJOYJZyw...ttwtt................",
"..twttwu.ttwuwtwwwwtuwwwwwywuwVwwwwwtttw.ttwwuwycZJJOOJGJccwtwwwwwyyyJJYPJJIZFJYJJZGwtt..wttu.................",
"t..t...wt..t.ttttwuuwwwwwwwwVyyycwywwwt..ttwwwywcFZJOJPOPJyFywwywwwwcJJPJJEcyycGGGFcwt..t..tttt....t..tt......",
".........tqtttwwwutuwwwwwcywyyyByywwwwwwwtuywyycEBJOOQQOOOJZAyFyycyyGGOOZcyyFyyZycGyuu.tt.u.tt..t..........t..",
"t.qq...q...wttttttuuwwwwwwyycwyBwywwwwwuwwwwyywyyGJGOOOPPQOJJJcBcywEOPOGcyyyEyEZcccwttt.......................",
"...tt...tttttu.tuwttwwwwywwywwyycywyuwu.wwwwyuyyyZJOOQPPQOPOGJcFFyccJOJycyyGGJcyFywwtt........................",
"........ttsttttwttwwuwwwwywwywwyyyywwwttwwwwywywycJJJPOOMOOOGJGJIcFZOOccyyAGJJGywyw.tt..tt.t....t.............",
".....q....ttwtqttwuwwwuwwwwywwyydyywwwutwwuwwwwyyyFcJOJOPOOJJJcFFyFOOPJcAwyZccywcywwt.t..t.t..t..........w....",
".........t..tttttwuwwwwuuwwwwwywAyyAwwwtwwwyywyyyyGJGOJGJGJGEcccFFI3OJJccwwyyyyuwwtttw..w............q........",
"...t....t...tttttuuuwwwwwwwwVywcyVyywywuwwyyyyywycyFJZGGFJEZZycZyGOOOJJOycywwywyww..wu........................",
"t.t......tttwwt.wwtwwwwtwwwwwwycyycwdwwywwywyywyycZZJZFJGFcyyyEBcOJPJOOPGZcycyyy.t..twt..................t....",
".............ttwttwwwwwwwwwyywyywEVcyVywwwwyyywyyyGZGFyGEycywwyFJOTOGOOOPJJGcFcw..ttttt..........t..........tu",
"........t.tt.ttttttuuwuuwywwcywwwcywAyyyywwwyywcyyGcBZcAyBFywwwwcJOOOJOQPPJGJcywt....t..............t...tuwttu",
".......t...ttwtwttwuwwwwwwwywwyVywcVyyywwwwwywywyyZccFyywwyyyyuwcyJGGOOPOGOJZAw..t......w...........tt.wywtttu",
".t.......t.wttwtwttwtwtwwwwwwwwyVwwyyyywwwwyywywyycZEFcEywwwycyyyyEccJJZOJJOcyt.tttt...............ufuutwyuuww",
"..........t..ttttwu.wttwwwwwwwwwyVywycywywwyyyyyyyyGZcJZFyywyyGycGZJOYJOJOcFywttutww.......t..tttttywtywccttwt",
"..........qtt.ww.ww.wtwwwwwwwwwyyyyyyywwwwyydycyycFGAEcFcyyfuwFJJPJOGFGJcOFywttttww.t........t.ttwcyBywdZBwwww",
"..........t...wwttwwtwwwwwwyywwywwywcyywwwwwyyyAyycccYcFFcFywwyycGOOJJGJJcyywttwuww...........ttwcJcyVcJBcAwtw",
".....t.....t...ttwtu.wuwwwwwwwwywVywwywwwwwwwwwwyyyccyFcccyccycwwycJIZIJccw.t.tuuww.........twVBydJDdVwJGcBwut",
"..............tw..wuwwwuwwwwwwwwwywwywwwwuywwwwywycyAcGGEAyycccFIcGGGJZccw.tt.ttttt.....tt..wwwccYJyyywcDJBcww",
"..........t....w.wtwttwtwwwywwywywwwwywwuywwywtwwywyyZGOJcFyccyJOZOJOJGyVt.t.ttuw.w...t..ttwuwyydycyywwyeyydwu",
".t..t....t..t..wtwtttwwuwwwwwwwyywwywywuwwwyuuwuwyycEGJZJOJJZJJOOJJGEGyyutu.tt.t..t.....tt.wwyyyycwyywwwyJwyww",
"............twwttttttwuuwwwwywwwwwwwwwwtwwwywwwwuwwwyyGFOJOOJFOJFJZJZywtuwtu.t.t........t.tqwwtVycyycywtwVVwww",
".....t..t..w.t.w.wwtwwuwwwtwwwwwwwwwwuwwwwwwwwwwuwuwwccJZJOOOJJJGGdcyuyyyyut.t............t.twycyyByyywwwwwwtw",
".........t.ttt.w.tt.wwtwwwwwuwwwwwwuwwuwwwwywwwtwuuwwycycJGFJOJIGIwwwycBccywwt.........tt..tuywyywcwywwwwwwwwt",
"..t.....t.....t.ttwttwtwwwuwwwwwwwwtwwwwywwwywtwwtuwwuwycBFGYGZJZywwwyyyycyut.t............twywyyycyyyywywyww.",
".......w..t..t.twtwwwtwwwuuwwwywwwwwwuwwwyyuwwuwttttutuwycccZJFJJywtwtwwwyywt..............wywyEycccyycycyEyww",
".t..tt...t..twttwtwttwwuwwwwuwwwwwwuwtuwwywwywwwwtttttuwwyEGFJOOJEywutttwwwutut.........tt.yyycyFcycEyGyccyAFy",
"...........t...t..ttwwwywwywwywwwwwwwwwtywwywywtwutwuuwyyyJJJGQOJJJJcwuyttttwwwwww......ttuyyyccEyAFGcFcyycEcc",
"....t......ttt..ttwwyywyyywwyyyyywywwwuwywyyywwwutwuuwcwyFGOJJPOJOOOJIywuwtuwwyywyt.t...t.uwcyycycGyyAyccccEcF",
"....t.......wwwuyVyyyywyyyyVcycyycyywywwwwwwwyywwwuwyywwyJJPJFP2JJJPPJIFyywwwtwuyVywr...t.twwyycEcyccccyycyEFy",
"......tt..t.wtwyycyyGyccycycyycyyyyyywwywwwywwwwwwwwwywwEGQOGZPJGPQPSQPPGGwytwtywyywt..tt.uwwyyyywcyycyZyycyyc",
"..........stuyyycccycZycyyyycyycyEyyywwywywwywwywwywywwycOPGFOOQOOQOPPGOPOJyyyywycwVw....uwtywwcyycyEcyccycyyc",
".....t....twycccGEGccJyccycyycyycywyyyywyywwywyyuywwwuwZJOPGZPOOOJSPPSPTPOJOJFcycwwcutu.twwywwcfwEccyyFyyyyyyc",
"......t.utyyccGGcGGJcFFyAcyyycyycwyywcyyyyycwwwuwywywuycFOZF2PPJQPOTPQPQPPPOJNJycywwywttttycyyyyycyccyyyccycyw",
".t.wt...twwycZIcZJFZZGcZcFyyFycyyFyccywyywyywywwwwwywycIOOFIQOPOOPOPSPSPPPOPSOPOGJywwwt.ttyyyywyyyyycyyyycycyy",
"....t..twyyycFZGFZGGcGccFcEcZEyycyyAyyywyywywywuwwwwwwOGO2GOOOOOOQPTPPSPQOOPOJPOOJOJycywutwywycwyyycyyFwyyywuw",
".t.....twyyFcyIZcFGJZcJcycycccccccyyycyycwyywywwwwwwycXGJJcOPPPOPSOQQPOQPPPOPOOPOPOJOJJcwtwucfwyydfwwyywywwwww",
".....tuuyyyycFJcGJcZGcZccFyyFcycEcyycyyyywyyyywwywwwwG3OZYOOOOOPOSPTTOPTQPOOOOJQPOPOPOOPccwtwwwwwwywwywwwwwwww",
".....ttyyyGyJcEIccIFJZcYGccEcccYccBcyyEccEdyywwwwyVwJRgOZFO2OPPTTPTQPQQPPOPPJPOPOOOOPTQPQOJywwtwwwuwywwww.wwws",
"....t.tyyycyEGAFJBFcZGycGGGcyccccycccGccdEyyywwwawwy0l0QPJOPOPPQPQPSPPQOPOQPOOPOPOOSQPPPQPOPcywqwtwwttwq.qqqVw",
".....twwwcyAFAccAZcBcBAcAZEccZycGyyFcZdycywyVcdVnVV3bbTRQJOPOPPTPSTTPPSPOPOPOPPOPQPPTQTTQTPPOZwwtww.ttt...w.ww",
"....tuwyyyFyycyFcBJGcGAcZccZcFcccycccFZcGEdcydwVdwUbbbbbJOPPOTPPTTSPQTTOQJPQOPQQQOQTTSTQSQQTPPJyVqwqqqq.wq.qqq",
"tt..uwwwwyyyccAycFyyEcyEBcccccyZcyyGcycyByyGyydVdwobbbbbSOOTPQSOSSOTTTTPJO2PJOPOPPSPQQTQQTSQQQOJywqqw.twq.q.q.",
"....tuwwyywcyycyycyGcyccycycZyGZycZyBEcyyyyVcynnyUbbbbbbQOPQPOTTTTTTTOQPGPOOPQPOOQPOQTTTTTPQTQOQYywqqqtw.ww.w.",
"....twwwyyyyyyyyyccycZycEcyEcccGEEcyGcZFyccyBVddVobbbbbbQPQQSPQQSQTQSPQPPQLOQQOPQQPQTTQTTTTQTTTTPJdwwq.ttq.q.q",
"..t.twuywwywycyccycyycyyFycEZcycBZcGcGEyYZBcyBBejRbbbbbbJOSPOQQSTTTTQTPQP2POJPPOPOTQOTQTTTTTPTTOPOJwwqwq....wq",
".t.twwwywycyywycycccycyyyycyyFcGcycFcIGZJcZcwBdHTRbbbbblOQQPOTTPTPTTOTOOPPOJPOQOQOQTPQTQSQQTTTTSQTYBqwwq.ww.q.",
"..ututuwwwwyycwyywByyyycccyccyZcZccccGFGBGFdddeobbbbblbTLQTTPPQTSQTTPTQPPQPJOOOJSQPTQTQQTQTTTTSTTPPPyqqtqwqqtw",
"...tuutwwwywywyywycyyywyyyyyyccycccFZYZcGccdVB3jbbbbRllQQOTQQPTTSQTTPQPOOPOPOJQOPQOQOQTQTTQTQPTQPTQTGwwqtqqwwq",
".t..tttuufyyywyywyyyyycyyyycycBccycccGGZGFGyVBoRRblbbbTJQQQPTQQPTSOQQQOQQPOOPJJOOPOTSQOQPQQQTPTPPTOPJywwqq..q.",
"..tttuutwwwywwcwywyyyyyccAyyFyccyIZcJZGZZYZVJHkljlplblQOPPSPQQTTQTPPTQPTOPOOPJOQOPQQPQQTQPTQTQQTPTTQPQwwwqwq.q",
"..tutuuwwwwwwfwyyyyyyyydyccEcFcBZcBcGGGJZGBwdBgl0RkjbQJQOPTOPQPSTPSOPQOOPOQOQPOOOOOQPTPQTQTQTTQQQQPQOOBwxwqwwq",
"..ttuwtwwwwwywwyywywyyyccycyycyZZcZGcJZGJYGVdWkkkRQ00OJOQOTPQSQTSQTTPTQPPQPJJOJJPQOPQTQOTQPTQTQQQPPTQ0JVwwwww.",
".tuutwuuwuuwwywwywwyyyyycccyccZAJFGZJcZcGYBVyBRQjiRRQQPTQQTOOTPSQQSOPQPTTOPPQPOPOOJQOPPQSPTQQTTQPTTPTTTBwwqtww",
".uutwuuwwwVwwwwyyyywyyycyyFccJGcZyccyGcZFGnVdBg3oo#oJXQJPPPPPTPPTQPPOTOOTPPQOOOJPJOTOPOOTOQTTTTPTTQPTQSJVwwwww",
"tw.wwtuuuwwwwwwywwyyydyccycydccyGcZGcJcZZcyxVB#eogXRGJPOPQOTQQTQOQPTTPTPQPOPOOPOPOJPOOOOOQPQQQTTTTTTTQQQGwVyww",
"tutw.ttuuwwwwwywwywyyycycZcBZEdZdZycGccZEBywVGBHgi33JQPQQPQOPPPQOTQTQOTPQTQQQQOPOPOOPQPPQQOQTQQTTTSQTTQQOByywA",
"uwwuwtutwuwwwuwwywwyyycGyJccGycZyGZyGcGcZGdVeCe3goJGOOJPJTQQPPPTOQTQTPQPPPQOOQPPPQPPQOOPQOPQTQQTTQTQQQQTPGGAyc",
"twwuuuttwtwwwywwyyydyFycFccycGccGZcFZyZccydwBhYgiXJOOPOQJOTOOTQTPTTPQTOTQQPQPSPQQJOOOOOQPOQQOQQQTQTTQPTOPOcFGB",
"uuuwtuwwwtwwwwwwyyyydycccGccZycBycdyycccyGaxhBBoYU3JJOOOOSPOPTPPTTQOTP1SQQTQPQQPOOOOKOJJQQOQPQOPTQSQTSOTQPGBJI",
"uwwtwwuwtwttwuwwywyyccyyZycEycyccyyyywZycyVwVdBUnYJGQJJPQPPTPSOQS1TTPPTPTQTQOQQSP1JOJOGJOJSPQTSQTQPTOOSQTOJJGF",
"wwwuwuuuwwttuwwwyycwycdGcEBcyGycZydcyyywywVVVCYeBZJPOPOOPQOQOSSTTSQTOQQQQQQTOTTQTOJJYOJOOOOQQPQ1QTQQQQPQOPOOOJ",
"wwwyuuuwwuttuuuwwyccyyGycGcGGZBZyyywdywyydwdmBBBJJOOOJOOPOOSQQQOTTQSQTOQQTOPQOQQTTOQJFJGGOOQPOTSOQTQTQQSPQPJPJ",
"ywwwwwttwwtuttwwyywccyFcJJyGGccZcGyycwwwwwVVBn3UJJOQOOQOOPPOPQTPQTPSQQPTQQPPTPPTQOOGJFOJJPOOQOQPQQTQPPPPOQPZXQ",
"wuwwuwwwtwtt.uwwywccdycBZGFJGFJcycwywwwVwVdnUBCXJJXGPOGPOPPOPQQQTTTQPTOQQTQOPTQOPOOJGOZOO2OOPPQPTTTQOTOQTOOJJJ",
"uwwttuutwutt.twwwyyyccGZcJZJJZJZycyywwwwwVczUhB3QOOYQGJPQQPPTOTQQQQQTTQTTQQOQOQPOPJGFGGJGOPQQOTTQQTQOTPSPPSOYY",
"wuwwtwtwwuttttwwwyycJFGJJJBGGBGGcFyyywwwwznBiC3QJJJOOOOPOOPOOTQTTTTPTTPTQQPPOPOOJJcZGJJGOJXOPPQPSQTTQTQPOOOOOd",
"twwwwuuw.ut.tuwwwwAycGccGZJIGJccZZyywywwwVCCBYHQOOJYOJOOPOPOOQQQTQPTOTT0TTSOOOOOJGcGcGcZJZOJOPTJTTQTQQTPSOPPOc",
"wwwuuwwutuuttttwwyZccJcJJYGGZJZZJcycwwwwwVHhehkQJGOQZOOOOOOPOOTQTQPTQTTTQTTQOJSOIZEccZGGZJOOOOPOQTPTTQPTQTQQPG",
};
