/* XPM */
static const char *win_icon1_xpm[] = {
/* width height ncols cpp */
"32 32 6 2",
  /* Colors */
  "00 c #000000",
  "01 c #FF0000",
  "02 c #00FF00",
  "03 c #FFFF00",
  "04 c #0000FF",
  ".. c None",
  "................................................................",
  "......................00000000..00000000........................",
  "..................000004040400..00010101000000..................",
  "..............0000040404040400..000101010101010000..............",
  "............000404040404000000..00010101010101010100............",
  "..........00040404040000........0001010000000101010100..........",
  "........000404040400............00010100..00010101010100........",
  "......000404040400..............00010100..0001010001010100......",
  "......0004040400................00010100..0001010000010100......",
  "....0004040400..................00010100..00010100..00010100....",
  "....00040400....................00010100..00010100..00010100....",
  "..0004040400000000000000000000..00010100..00010100....00010100..",
  "..0004040404040404040404040400..00010100..00010100....00010100..",
  "..0004040404040404040404040400..00010100..00010100....00010100..",
  "..0000000000000000000000000000..00000000..00000000....00000000..",
  "................................................................",
  "................................................................",
  "..00000000............00000000..000000000000000000000000000000..",
  "..00020200............00020200..000303030303030303030303030300..",
  "..00020200............00020200..000303030303030303030303030300..",
  "..0002020200000000000000020200..000303000000000000000003030300..",
  "....00020202020202020202020200..00030300............00030300....",
  "....00020202020202020202020200..00030300..........0003030300....",
  "......000202020000000000020200..00030300........0003030300......",
  "......000202020200....00020200..00030300......000303030300......",
  "........000202020200..00020200..00030300....000303030300........",
  "..........00020202020000020200..0003030000000303030300..........",
  "............000202020202020200..00030303030303030300............",
  "..............0000020202020200..000303030303030000..............",
  "..................000002020200..00030303000000..................",
  "......................00000000..00000000........................",
  "................................................................",
};
