<?xml version="1.0" encoding="UTF-8"?>
<svg xmlns="http://www.w3.org/2000/svg" xmlns:xlink="http://www.w3.org/1999/xlink" width="364pt" height="325pt" viewBox="0 0 364 325" version="1.1">
<g id="surface1">
<path style=" stroke:none;fill-rule:evenodd;fill:rgb(100%,84.3%,0%);fill-opacity:1;" d="M 120.945312 77.144531 C 166.851562 89.933594 215.964844 74.164062 245.84375 37.039062 C 203.269531 97.550781 146.648438 146.832031 80.839844 180.648438 L 80.839844 180.652344 C 104.625 151.144531 118.640625 114.96875 120.945312 77.140625 Z M 120.945312 77.144531 "/>
<path style="fill:none;stroke-width:1.2;stroke-linecap:butt;stroke-linejoin:round;stroke:rgb(0%,0%,0%);stroke-opacity:1;stroke-miterlimit:10;" d="M 196.629344 357.685 C 193.352 368.286563 185.187938 376.673281 174.672313 380.227969 C 164.160594 383.782656 152.578563 382.075625 143.5395 375.634219 " transform="matrix(1,0,0,-1,-91.727,646.81)"/>
<path style="fill:none;stroke-width:1.2;stroke-linecap:butt;stroke-linejoin:round;stroke:rgb(0%,0%,0%);stroke-opacity:1;stroke-miterlimit:10;" d="M 196.629344 357.685 C 205.902781 395.618594 197.012156 435.704531 172.566844 466.157656 " transform="matrix(1,0,0,-1,-91.727,646.81)"/>
<path style="fill:none;stroke-width:1.2;stroke-linecap:butt;stroke-linejoin:round;stroke:rgb(0%,0%,0%);stroke-opacity:1;stroke-miterlimit:10;" d="M 143.5395 375.638125 C 165.977 400.118594 176.582469 433.192813 172.566844 466.157656 " transform="matrix(1,0,0,-1,-91.727,646.81)"/>
<path style="fill:none;stroke-width:1.2;stroke-linecap:butt;stroke-linejoin:round;stroke:rgb(0%,0%,0%);stroke-opacity:1;stroke-miterlimit:10;" d="M 143.5395 375.638125 C 151.590281 386.337344 153.453563 400.474063 148.453563 412.899844 C 143.453563 425.325625 132.316844 434.227969 119.094188 436.364688 " transform="matrix(1,0,0,-1,-91.727,646.81)"/>
<path style="fill:none;stroke-width:1.2;stroke-linecap:butt;stroke-linejoin:round;stroke:rgb(0%,0%,0%);stroke-opacity:1;stroke-miterlimit:10;" d="M 119.094188 436.364688 C 137.88325 444.454531 155.801219 454.435 172.566844 466.157656 " transform="matrix(1,0,0,-1,-91.727,646.81)"/>
<path style="fill:none;stroke-width:1.2;stroke-linecap:butt;stroke-linejoin:round;stroke:rgb(0%,0%,0%);stroke-opacity:1;stroke-miterlimit:10;" d="M 119.094188 436.364688 C 129.816844 449.77875 129.332469 468.962344 117.949656 481.817813 " transform="matrix(1,0,0,-1,-91.727,646.81)"/>
<path style="fill:none;stroke-width:1.2;stroke-linecap:butt;stroke-linejoin:round;stroke:rgb(0%,0%,0%);stroke-opacity:1;stroke-miterlimit:10;" d="M 172.566844 466.157656 C 155.277781 474.165469 136.852 479.446719 117.949656 481.817813 " transform="matrix(1,0,0,-1,-91.727,646.81)"/>
<path style="fill:none;stroke-width:1.2;stroke-linecap:butt;stroke-linejoin:round;stroke:rgb(0%,0%,0%);stroke-opacity:1;stroke-miterlimit:10;" d="M 117.949656 481.817813 C 128.855906 490.048281 135.547313 502.696719 136.211375 516.345156 C 136.875438 529.993594 131.44575 543.231875 121.387156 552.477969 " transform="matrix(1,0,0,-1,-91.727,646.81)"/>
<path style="fill:none;stroke-width:1.2;stroke-linecap:butt;stroke-linejoin:round;stroke:rgb(0%,0%,0%);stroke-opacity:1;stroke-miterlimit:10;" d="M 172.566844 466.157656 C 169.734813 501.286563 150.848094 533.142031 121.387156 552.477969 " transform="matrix(1,0,0,-1,-91.727,646.81)"/>
<path style="fill:none;stroke-width:1.2;stroke-linecap:butt;stroke-linejoin:round;stroke:rgb(0%,0%,0%);stroke-opacity:1;stroke-miterlimit:10;" d="M 121.387156 552.477969 C 152.69575 541.423281 187.527781 547.981875 212.672313 569.665469 " transform="matrix(1,0,0,-1,-91.727,646.81)"/>
<path style="fill:none;stroke-width:1.2;stroke-linecap:butt;stroke-linejoin:round;stroke:rgb(0%,0%,0%);stroke-opacity:1;stroke-miterlimit:10;" d="M 212.668406 569.665469 C 205.062938 588.431094 197.043406 607.024844 188.605906 625.431094 " transform="matrix(1,0,0,-1,-91.727,646.81)"/>
<path style="fill:none;stroke-width:1.2;stroke-linecap:butt;stroke-linejoin:round;stroke:rgb(0%,0%,0%);stroke-opacity:1;stroke-miterlimit:10;" d="M 212.672313 569.665469 C 229.187938 583.642031 240.273875 602.974063 243.992625 624.286563 " transform="matrix(1,0,0,-1,-91.727,646.81)"/>
<path style="fill:none;stroke-width:1.2;stroke-linecap:butt;stroke-linejoin:round;stroke:rgb(0%,0%,0%);stroke-opacity:1;stroke-miterlimit:10;" d="M 188.609813 625.431094 C 194.809031 616.356875 205.016063 610.833438 216.004344 610.606875 C 226.996531 610.380313 237.418406 615.474063 243.992625 624.286563 " transform="matrix(1,0,0,-1,-91.727,646.81)"/>
<path style="fill:none;stroke-width:1.2;stroke-linecap:butt;stroke-linejoin:round;stroke:rgb(0%,0%,0%);stroke-opacity:1;stroke-miterlimit:10;" d="M 212.672313 569.665469 C 247.168406 571.005313 278.394969 590.46625 294.7895 620.849063 " transform="matrix(1,0,0,-1,-91.727,646.81)"/>
<path style="fill:none;stroke-width:1.2;stroke-linecap:butt;stroke-linejoin:round;stroke:rgb(0%,0%,0%);stroke-opacity:1;stroke-miterlimit:10;" d="M 243.992625 624.286563 C 257.160594 609.493594 279.750437 607.962344 294.7895 620.849063 " transform="matrix(1,0,0,-1,-91.727,646.81)"/>
<path style="fill:none;stroke-width:1.2;stroke-linecap:butt;stroke-linejoin:round;stroke:rgb(0%,0%,0%);stroke-opacity:1;stroke-miterlimit:10;" d="M 294.7895 620.849063 C 298.496531 613.188906 305.379344 607.544375 313.617625 605.411563 C 321.855906 603.27875 330.613719 604.8725 337.57075 609.770938 " transform="matrix(1,0,0,-1,-91.727,646.81)"/>
<path style=" stroke:none;fill-rule:evenodd;fill:rgb(0%,0%,100%);fill-opacity:1;" d="M 107.902344 289.125 C 107.902344 285.125 101.902344 285.125 101.902344 289.125 C 101.902344 293.125 107.902344 293.125 107.902344 289.125 Z M 107.902344 289.125 "/>
<path style=" stroke:none;fill-rule:evenodd;fill:rgb(0%,0%,100%);fill-opacity:1;" d="M 54.8125 271.171875 C 54.8125 267.171875 48.8125 267.171875 48.8125 271.171875 C 48.8125 275.171875 54.8125 275.171875 54.8125 271.171875 Z M 54.8125 271.171875 "/>
<path style=" stroke:none;fill-rule:evenodd;fill:rgb(0%,0%,100%);fill-opacity:1;" d="M 30.367188 210.445312 C 30.367188 206.445312 24.367188 206.445312 24.367188 210.445312 C 24.367188 214.445312 30.367188 214.445312 30.367188 210.445312 Z M 30.367188 210.445312 "/>
<path style=" stroke:none;fill-rule:evenodd;fill:rgb(0%,0%,100%);fill-opacity:1;" d="M 29.222656 164.992188 C 29.222656 160.992188 23.222656 160.992188 23.222656 164.992188 C 23.222656 168.992188 29.222656 168.992188 29.222656 164.992188 Z M 29.222656 164.992188 "/>
<path style=" stroke:none;fill-rule:evenodd;fill:rgb(0%,0%,100%);fill-opacity:1;" d="M 32.660156 94.332031 C 32.660156 90.332031 26.660156 90.332031 26.660156 94.332031 C 26.660156 98.332031 32.660156 98.332031 32.660156 94.332031 Z M 32.660156 94.332031 "/>
<path style=" stroke:none;fill-rule:evenodd;fill:rgb(0%,0%,100%);fill-opacity:1;" d="M 99.882812 21.378906 C 99.882812 17.378906 93.882812 17.378906 93.882812 21.378906 C 93.882812 25.378906 99.882812 25.378906 99.882812 21.378906 Z M 99.882812 21.378906 "/>
<path style=" stroke:none;fill-rule:evenodd;fill:rgb(0%,0%,100%);fill-opacity:1;" d="M 155.265625 22.523438 C 155.265625 18.523438 149.265625 18.523438 149.265625 22.523438 C 149.265625 26.523438 155.265625 26.523438 155.265625 22.523438 Z M 155.265625 22.523438 "/>
<path style=" stroke:none;fill-rule:evenodd;fill:rgb(0%,0%,100%);fill-opacity:1;" d="M 206.0625 25.960938 C 206.0625 21.960938 200.0625 21.960938 200.0625 25.960938 C 200.0625 29.960938 206.0625 29.960938 206.0625 25.960938 Z M 206.0625 25.960938 "/>
<path style="fill:none;stroke-width:2;stroke-linecap:butt;stroke-linejoin:round;stroke:rgb(0%,0%,0%);stroke-opacity:1;stroke-miterlimit:10;" d="M 253.793406 645.31 C 165.113719 645.31 93.227 573.423281 93.227 484.743594 C 93.227 396.063906 165.113719 324.177188 253.793406 324.177188 C 342.473094 324.177188 414.359812 396.063906 414.359812 484.743594 C 414.359812 573.423281 342.473094 645.31 253.793406 645.31 Z M 253.793406 645.31 " transform="matrix(1,0,0,-1,-91.727,646.81)"/>
<path style="fill:none;stroke-width:1.2;stroke-linecap:butt;stroke-linejoin:round;stroke:rgb(0%,0%,0%);stroke-opacity:1;stroke-miterlimit:10;" d="M 212.672313 569.665469 C 258.578562 556.876406 307.691844 572.645938 337.57075 609.770938 " transform="matrix(1,0,0,-1,-91.727,646.81)"/>
<path style="fill:none;stroke-width:1.2;stroke-linecap:butt;stroke-linejoin:round;stroke:rgb(0%,0%,0%);stroke-opacity:1;stroke-miterlimit:10;" d="M 172.566844 466.157656 C 196.352 495.665469 210.367625 531.84125 212.672313 569.669375 " transform="matrix(1,0,0,-1,-91.727,646.81)"/>
<path style="fill:none;stroke-width:2;stroke-linecap:butt;stroke-linejoin:round;stroke:rgb(100%,64.7%,0%);stroke-opacity:1;stroke-dasharray:4;stroke-miterlimit:10;" d="M 172.566844 466.161563 C 238.375438 499.977969 294.996531 549.259219 337.57075 609.770938 " transform="matrix(1,0,0,-1,-91.727,646.81)"/>
<path style="fill:none;stroke-width:2;stroke-linecap:butt;stroke-linejoin:round;stroke:rgb(100%,0%,0%);stroke-opacity:1;stroke-miterlimit:10;" d="M 313.137156 611.911563 C 235.492625 611.911563 172.551219 548.970156 172.551219 471.325625 C 172.551219 393.681094 235.492625 330.739688 313.137156 330.739688 C 390.781687 330.739688 453.723094 393.681094 453.723094 471.325625 C 453.723094 548.970156 390.781687 611.911563 313.137156 611.911563 Z M 313.137156 611.911563 " transform="matrix(1,0,0,-1,-91.727,646.81)"/>
<path style=" stroke:none;fill-rule:evenodd;fill:rgb(0%,0%,100%);fill-opacity:1;" d="M 83.839844 180.652344 C 83.839844 176.652344 77.839844 176.652344 77.839844 180.652344 C 77.839844 184.652344 83.839844 184.652344 83.839844 180.652344 Z M 83.839844 180.652344 "/>
<path style=" stroke:none;fill-rule:evenodd;fill:rgb(0%,0%,100%);fill-opacity:1;" d="M 123.945312 77.144531 C 123.945312 73.144531 117.945312 73.144531 117.945312 77.144531 C 117.945312 81.144531 123.945312 81.144531 123.945312 77.144531 Z M 123.945312 77.144531 "/>
<path style=" stroke:none;fill-rule:evenodd;fill:rgb(0%,0%,100%);fill-opacity:1;" d="M 248.84375 37.039062 C 248.84375 33.039062 242.84375 33.039062 242.84375 37.039062 C 242.84375 41.039062 248.84375 41.039062 248.84375 37.039062 Z M 248.84375 37.039062 "/>
</g>
</svg>
