<?xml version="1.0" encoding="UTF-8"?>
<svg xmlns="http://www.w3.org/2000/svg" xmlns:xlink="http://www.w3.org/1999/xlink" width="325pt" height="325pt" viewBox="0 0 325 325" version="1.1">
<g id="surface1">
<path style=" stroke:none;fill-rule:evenodd;fill:rgb(93.3%,51%,93.3%);fill-opacity:0.3;" d="M 120.945312 77.144531 C 113.34375 58.378906 105.320312 39.785156 96.882812 21.378906 C 103.085938 30.453125 113.289062 35.976562 124.28125 36.203125 C 135.269531 36.429688 145.695312 31.335938 152.265625 22.523438 C 165.433594 37.316406 188.023438 38.847656 203.066406 25.960938 C 206.773438 33.621094 213.65625 39.265625 221.890625 41.398438 C 230.128906 43.53125 238.886719 41.9375 245.84375 37.039062 C 215.964844 74.160156 166.851562 89.929688 120.945312 77.140625 Z M 120.945312 77.144531 "/>
<path style=" stroke:none;fill-rule:evenodd;fill:rgb(93.3%,51%,93.3%);fill-opacity:0.3;" d="M 104.90625 289.125 C 101.628906 278.523438 93.460938 270.136719 82.945312 266.582031 C 72.433594 263.027344 60.851562 264.734375 51.8125 271.175781 L 51.8125 271.171875 C 59.863281 260.46875 61.730469 246.335938 56.726562 233.910156 C 51.726562 221.484375 40.589844 212.582031 27.367188 210.441406 L 27.367188 210.445312 C 38.089844 197.03125 37.605469 177.847656 26.222656 164.992188 C 37.132812 156.761719 43.820312 144.113281 44.488281 130.464844 C 45.152344 116.816406 39.71875 103.578125 29.660156 94.332031 L 29.660156 94.328125 C 60.96875 105.386719 95.800781 98.828125 120.945312 77.140625 L 120.945312 77.144531 C 118.640625 114.972656 104.625 151.144531 80.839844 180.652344 L 80.84375 180.652344 C 105.285156 211.105469 114.179688 251.191406 104.90625 289.125 Z M 104.90625 289.125 "/>
<path style="fill:none;stroke-width:2;stroke-linecap:butt;stroke-linejoin:round;stroke:rgb(0%,0%,0%);stroke-opacity:1;stroke-miterlimit:10;" d="M 205.792335 645.309805 C 117.112648 645.309805 45.225929 573.423086 45.225929 484.743399 C 45.225929 396.063711 117.112648 324.176992 205.792335 324.176992 C 294.472023 324.176992 366.358741 396.063711 366.358741 484.743399 C 366.358741 573.423086 294.472023 645.309805 205.792335 645.309805 Z M 205.792335 645.309805 " transform="matrix(1,0,0,-1,-43.725929,646.809805)"/>
<path style="fill:none;stroke-width:1.2;stroke-linecap:butt;stroke-linejoin:round;stroke:rgb(0%,0%,0%);stroke-opacity:1;stroke-miterlimit:10;" d="M 148.628273 357.684805 C 145.354835 368.286367 137.186866 376.673086 126.671241 380.227774 C 116.159523 383.782461 104.577491 382.07543 95.538429 375.63793 " transform="matrix(1,0,0,-1,-43.725929,646.809805)"/>
<path style="fill:none;stroke-width:1.2;stroke-linecap:butt;stroke-linejoin:round;stroke:rgb(0%,0%,0%);stroke-opacity:1;stroke-miterlimit:10;" d="M 148.632179 357.684805 C 157.905616 395.618399 149.011085 435.704336 124.565773 466.157461 " transform="matrix(1,0,0,-1,-43.725929,646.809805)"/>
<path style="fill:none;stroke-width:1.2;stroke-linecap:butt;stroke-linejoin:round;stroke:rgb(0%,0%,0%);stroke-opacity:1;stroke-miterlimit:10;" d="M 95.538429 375.63793 C 117.975929 400.118399 128.581398 433.192617 124.565773 466.157461 " transform="matrix(1,0,0,-1,-43.725929,646.809805)"/>
<path style="fill:none;stroke-width:1.2;stroke-linecap:butt;stroke-linejoin:round;stroke:rgb(0%,0%,0%);stroke-opacity:1;stroke-miterlimit:10;" d="M 95.538429 375.63793 C 103.58921 386.341055 105.456398 400.473867 100.452491 412.899649 C 95.452491 425.32543 84.315773 434.227774 71.093116 436.364492 " transform="matrix(1,0,0,-1,-43.725929,646.809805)"/>
<path style="fill:none;stroke-width:1.2;stroke-linecap:butt;stroke-linejoin:round;stroke:rgb(0%,0%,0%);stroke-opacity:1;stroke-miterlimit:10;" d="M 71.093116 436.368399 C 89.886085 444.454336 107.800148 454.434805 124.565773 466.157461 " transform="matrix(1,0,0,-1,-43.725929,646.809805)"/>
<path style="fill:none;stroke-width:1.2;stroke-linecap:butt;stroke-linejoin:round;stroke:rgb(0%,0%,0%);stroke-opacity:1;stroke-miterlimit:10;" d="M 71.093116 436.364492 C 81.815773 449.778555 81.331398 468.962149 69.948585 481.817617 " transform="matrix(1,0,0,-1,-43.725929,646.809805)"/>
<path style="fill:none;stroke-width:1.2;stroke-linecap:butt;stroke-linejoin:round;stroke:rgb(0%,0%,0%);stroke-opacity:1;stroke-miterlimit:10;" d="M 124.565773 466.157461 C 107.27671 474.165274 88.854835 479.446524 69.948585 481.817617 " transform="matrix(1,0,0,-1,-43.725929,646.809805)"/>
<path style="fill:none;stroke-width:1.2;stroke-linecap:butt;stroke-linejoin:round;stroke:rgb(0%,0%,0%);stroke-opacity:1;stroke-miterlimit:10;" d="M 69.948585 481.817617 C 80.858741 490.048086 87.546241 502.696524 88.210304 516.344961 C 88.874366 529.993399 83.444679 543.23168 73.386085 552.477774 " transform="matrix(1,0,0,-1,-43.725929,646.809805)"/>
<path style="fill:none;stroke-width:1.2;stroke-linecap:butt;stroke-linejoin:round;stroke:rgb(0%,0%,0%);stroke-opacity:1;stroke-miterlimit:10;" d="M 124.565773 466.157461 C 121.733741 501.286367 102.847023 533.141836 73.386085 552.477774 " transform="matrix(1,0,0,-1,-43.725929,646.809805)"/>
<path style="fill:none;stroke-width:1.2;stroke-linecap:butt;stroke-linejoin:round;stroke:rgb(0%,0%,0%);stroke-opacity:1;stroke-miterlimit:10;" d="M 124.565773 466.157461 C 148.350929 495.665274 162.366554 531.837149 164.671241 569.665274 " transform="matrix(1,0,0,-1,-43.725929,646.809805)"/>
<path style="fill:none;stroke-width:1.2;stroke-linecap:butt;stroke-linejoin:round;stroke:rgb(0%,0%,0%);stroke-opacity:1;stroke-miterlimit:10;" d="M 73.386085 552.477774 C 104.694679 541.423086 139.52671 547.98168 164.671241 569.665274 " transform="matrix(1,0,0,-1,-43.725929,646.809805)"/>
<path style="fill:none;stroke-width:1.2;stroke-linecap:butt;stroke-linejoin:round;stroke:rgb(0%,0%,0%);stroke-opacity:1;stroke-miterlimit:10;" d="M 164.667335 569.665274 C 157.065773 588.430899 149.042335 607.024649 140.604835 625.430899 " transform="matrix(1,0,0,-1,-43.725929,646.809805)"/>
<path style="fill:none;stroke-width:1.2;stroke-linecap:butt;stroke-linejoin:round;stroke:rgb(0%,0%,0%);stroke-opacity:1;stroke-miterlimit:10;" d="M 164.671241 569.665274 C 181.186866 583.641836 192.272804 602.973867 195.991554 624.286367 " transform="matrix(1,0,0,-1,-43.725929,646.809805)"/>
<path style="fill:none;stroke-width:1.2;stroke-linecap:butt;stroke-linejoin:round;stroke:rgb(0%,0%,0%);stroke-opacity:1;stroke-miterlimit:10;" d="M 140.608741 625.430899 C 146.811866 616.35668 157.014991 610.833242 168.007179 610.60668 C 178.99546 610.380117 189.421241 615.473867 195.991554 624.286367 " transform="matrix(1,0,0,-1,-43.725929,646.809805)"/>
<path style="fill:none;stroke-width:1.2;stroke-linecap:butt;stroke-linejoin:round;stroke:rgb(0%,0%,0%);stroke-opacity:1;stroke-miterlimit:10;" d="M 164.671241 569.665274 C 199.171241 571.005117 230.393898 590.466055 246.792335 620.848867 " transform="matrix(1,0,0,-1,-43.725929,646.809805)"/>
<path style="fill:none;stroke-width:1.2;stroke-linecap:butt;stroke-linejoin:round;stroke:rgb(0%,0%,0%);stroke-opacity:1;stroke-miterlimit:10;" d="M 195.991554 624.286367 C 209.159523 609.493399 231.749366 607.962149 246.792335 620.848867 " transform="matrix(1,0,0,-1,-43.725929,646.809805)"/>
<path style="fill:none;stroke-width:1.2;stroke-linecap:butt;stroke-linejoin:round;stroke:rgb(0%,0%,0%);stroke-opacity:1;stroke-miterlimit:10;" d="M 164.671241 569.66918 C 210.577491 556.876211 259.690773 572.649649 289.569679 609.770742 " transform="matrix(1,0,0,-1,-43.725929,646.809805)"/>
<path style="fill:none;stroke-width:1.2;stroke-linecap:butt;stroke-linejoin:round;stroke:rgb(0%,0%,0%);stroke-opacity:1;stroke-miterlimit:10;" d="M 246.792335 620.848867 C 250.49546 613.188711 257.382179 607.54418 265.616554 605.411367 C 273.854835 603.278555 282.612648 604.872305 289.569679 609.770742 " transform="matrix(1,0,0,-1,-43.725929,646.809805)"/>
<path style="fill:none;stroke-width:2;stroke-linecap:butt;stroke-linejoin:round;stroke:rgb(100%,0%,0%);stroke-opacity:1;stroke-dasharray:4;stroke-miterlimit:10;" d="M 246.792335 620.848867 L 289.569679 609.770742 " transform="matrix(1,0,0,-1,-43.725929,646.809805)"/>
<path style="fill:none;stroke-width:2;stroke-linecap:butt;stroke-linejoin:round;stroke:rgb(100%,0%,0%);stroke-opacity:1;stroke-dasharray:4;stroke-miterlimit:10;" d="M 195.991554 624.286367 L 164.671241 569.66918 " transform="matrix(1,0,0,-1,-43.725929,646.809805)"/>
<path style="fill:none;stroke-width:2;stroke-linecap:butt;stroke-linejoin:round;stroke:rgb(100%,0%,0%);stroke-opacity:1;stroke-dasharray:4;stroke-miterlimit:10;" d="M 164.671241 569.66918 L 246.792335 620.848867 " transform="matrix(1,0,0,-1,-43.725929,646.809805)"/>
<path style="fill:none;stroke-width:2;stroke-linecap:butt;stroke-linejoin:round;stroke:rgb(100%,0%,0%);stroke-opacity:1;stroke-dasharray:4;stroke-miterlimit:10;" d="M 195.991554 624.286367 L 246.792335 620.848867 " transform="matrix(1,0,0,-1,-43.725929,646.809805)"/>
<path style="fill:none;stroke-width:2;stroke-linecap:butt;stroke-linejoin:round;stroke:rgb(100%,0%,0%);stroke-opacity:1;stroke-dasharray:4;stroke-miterlimit:10;" d="M 164.671241 569.66918 L 124.565773 466.157461 " transform="matrix(1,0,0,-1,-43.725929,646.809805)"/>
<path style="fill:none;stroke-width:2;stroke-linecap:butt;stroke-linejoin:round;stroke:rgb(100%,0%,0%);stroke-opacity:1;stroke-dasharray:4;stroke-miterlimit:10;" d="M 289.569679 609.770742 L 164.671241 569.66918 " transform="matrix(1,0,0,-1,-43.725929,646.809805)"/>
<path style="fill:none;stroke-width:2;stroke-linecap:butt;stroke-linejoin:round;stroke:rgb(100%,0%,0%);stroke-opacity:1;stroke-dasharray:4;stroke-miterlimit:10;" d="M 124.565773 466.157461 L 289.569679 609.770742 " transform="matrix(1,0,0,-1,-43.725929,646.809805)"/>
<path style="fill:none;stroke-width:2;stroke-linecap:butt;stroke-linejoin:round;stroke:rgb(100%,0%,0%);stroke-opacity:1;stroke-dasharray:4;stroke-miterlimit:10;" d="M 140.608741 625.430899 L 195.991554 624.286367 " transform="matrix(1,0,0,-1,-43.725929,646.809805)"/>
<path style="fill:none;stroke-width:2;stroke-linecap:butt;stroke-linejoin:round;stroke:rgb(100%,0%,0%);stroke-opacity:1;stroke-dasharray:4;stroke-miterlimit:10;" d="M 140.608741 625.430899 L 164.671241 569.66918 " transform="matrix(1,0,0,-1,-43.725929,646.809805)"/>
<path style="fill:none;stroke-width:2;stroke-linecap:butt;stroke-linejoin:round;stroke:rgb(100%,0%,0%);stroke-opacity:1;stroke-dasharray:4;stroke-miterlimit:10;" d="M 73.386085 552.48168 L 140.608741 625.430899 " transform="matrix(1,0,0,-1,-43.725929,646.809805)"/>
<path style="fill:none;stroke-width:2;stroke-linecap:butt;stroke-linejoin:round;stroke:rgb(100%,0%,0%);stroke-opacity:1;stroke-dasharray:4;stroke-miterlimit:10;" d="M 73.386085 552.48168 L 124.565773 466.157461 " transform="matrix(1,0,0,-1,-43.725929,646.809805)"/>
<path style="fill:none;stroke-width:2;stroke-linecap:butt;stroke-linejoin:round;stroke:rgb(100%,0%,0%);stroke-opacity:1;stroke-dasharray:4;stroke-miterlimit:10;" d="M 164.671241 569.66918 L 73.386085 552.48168 " transform="matrix(1,0,0,-1,-43.725929,646.809805)"/>
<path style="fill:none;stroke-width:2;stroke-linecap:butt;stroke-linejoin:round;stroke:rgb(100%,0%,0%);stroke-opacity:1;stroke-dasharray:4;stroke-miterlimit:10;" d="M 69.948585 481.817617 L 73.386085 552.48168 " transform="matrix(1,0,0,-1,-43.725929,646.809805)"/>
<path style="fill:none;stroke-width:2;stroke-linecap:butt;stroke-linejoin:round;stroke:rgb(100%,0%,0%);stroke-opacity:1;stroke-dasharray:4;stroke-miterlimit:10;" d="M 124.565773 466.157461 L 69.948585 481.817617 " transform="matrix(1,0,0,-1,-43.725929,646.809805)"/>
<path style="fill:none;stroke-width:2;stroke-linecap:butt;stroke-linejoin:round;stroke:rgb(100%,0%,0%);stroke-opacity:1;stroke-dasharray:4;stroke-miterlimit:10;" d="M 124.565773 466.157461 L 71.093116 436.368399 " transform="matrix(1,0,0,-1,-43.725929,646.809805)"/>
<path style="fill:none;stroke-width:2;stroke-linecap:butt;stroke-linejoin:round;stroke:rgb(100%,0%,0%);stroke-opacity:1;stroke-dasharray:4;stroke-miterlimit:10;" d="M 289.569679 609.770742 L 148.628273 357.684805 " transform="matrix(1,0,0,-1,-43.725929,646.809805)"/>
<path style="fill:none;stroke-width:2;stroke-linecap:butt;stroke-linejoin:round;stroke:rgb(100%,0%,0%);stroke-opacity:1;stroke-dasharray:4;stroke-miterlimit:10;" d="M 71.093116 436.368399 L 69.948585 481.817617 " transform="matrix(1,0,0,-1,-43.725929,646.809805)"/>
<path style="fill:none;stroke-width:2;stroke-linecap:butt;stroke-linejoin:round;stroke:rgb(100%,0%,0%);stroke-opacity:1;stroke-dasharray:4;stroke-miterlimit:10;" d="M 148.628273 357.684805 L 124.565773 466.157461 " transform="matrix(1,0,0,-1,-43.725929,646.809805)"/>
<path style="fill:none;stroke-width:2;stroke-linecap:butt;stroke-linejoin:round;stroke:rgb(100%,0%,0%);stroke-opacity:1;stroke-dasharray:4;stroke-miterlimit:10;" d="M 95.538429 375.63793 L 148.628273 357.684805 " transform="matrix(1,0,0,-1,-43.725929,646.809805)"/>
<path style="fill:none;stroke-width:2;stroke-linecap:butt;stroke-linejoin:round;stroke:rgb(100%,0%,0%);stroke-opacity:1;stroke-dasharray:4;stroke-miterlimit:10;" d="M 124.565773 466.157461 L 95.538429 375.63793 " transform="matrix(1,0,0,-1,-43.725929,646.809805)"/>
<path style="fill:none;stroke-width:2;stroke-linecap:butt;stroke-linejoin:round;stroke:rgb(100%,0%,0%);stroke-opacity:1;stroke-dasharray:4;stroke-miterlimit:10;" d="M 95.538429 375.63793 L 71.093116 436.368399 " transform="matrix(1,0,0,-1,-43.725929,646.809805)"/>
<path style=" stroke:none;fill-rule:evenodd;fill:rgb(0%,0%,100%);fill-opacity:1;" d="M 107.902344 289.125 C 107.902344 285.125 101.902344 285.125 101.902344 289.125 C 101.902344 293.125 107.902344 293.125 107.902344 289.125 Z M 107.902344 289.125 "/>
<path style=" stroke:none;fill-rule:evenodd;fill:rgb(0%,0%,100%);fill-opacity:1;" d="M 54.8125 271.171875 C 54.8125 267.171875 48.8125 267.171875 48.8125 271.171875 C 48.8125 275.171875 54.8125 275.171875 54.8125 271.171875 Z M 54.8125 271.171875 "/>
<path style=" stroke:none;fill-rule:evenodd;fill:rgb(0%,0%,100%);fill-opacity:1;" d="M 83.839844 180.652344 C 83.839844 176.652344 77.839844 176.652344 77.839844 180.652344 C 77.839844 184.652344 83.839844 184.652344 83.839844 180.652344 Z M 83.839844 180.652344 "/>
<path style=" stroke:none;fill-rule:evenodd;fill:rgb(0%,0%,100%);fill-opacity:1;" d="M 30.367188 210.445312 C 30.367188 206.445312 24.367188 206.445312 24.367188 210.445312 C 24.367188 214.445312 30.367188 214.445312 30.367188 210.445312 Z M 30.367188 210.445312 "/>
<path style=" stroke:none;fill-rule:evenodd;fill:rgb(0%,0%,100%);fill-opacity:1;" d="M 29.222656 164.992188 C 29.222656 160.992188 23.222656 160.992188 23.222656 164.992188 C 23.222656 168.992188 29.222656 168.992188 29.222656 164.992188 Z M 29.222656 164.992188 "/>
<path style=" stroke:none;fill-rule:evenodd;fill:rgb(0%,0%,100%);fill-opacity:1;" d="M 32.660156 94.332031 C 32.660156 90.332031 26.660156 90.332031 26.660156 94.332031 C 26.660156 98.332031 32.660156 98.332031 32.660156 94.332031 Z M 32.660156 94.332031 "/>
<path style=" stroke:none;fill-rule:evenodd;fill:rgb(0%,0%,100%);fill-opacity:1;" d="M 123.945312 77.144531 C 123.945312 73.144531 117.945312 73.144531 117.945312 77.144531 C 117.945312 81.144531 123.945312 81.144531 123.945312 77.144531 Z M 123.945312 77.144531 "/>
<path style=" stroke:none;fill-rule:evenodd;fill:rgb(0%,0%,100%);fill-opacity:1;" d="M 99.882812 21.378906 C 99.882812 17.378906 93.882812 17.378906 93.882812 21.378906 C 93.882812 25.378906 99.882812 25.378906 99.882812 21.378906 Z M 99.882812 21.378906 "/>
<path style=" stroke:none;fill-rule:evenodd;fill:rgb(0%,0%,100%);fill-opacity:1;" d="M 155.265625 22.523438 C 155.265625 18.523438 149.265625 18.523438 149.265625 22.523438 C 149.265625 26.523438 155.265625 26.523438 155.265625 22.523438 Z M 155.265625 22.523438 "/>
<path style=" stroke:none;fill-rule:evenodd;fill:rgb(0%,0%,100%);fill-opacity:1;" d="M 206.066406 25.960938 C 206.066406 21.960938 200.066406 21.960938 200.066406 25.960938 C 200.066406 29.960938 206.066406 29.960938 206.066406 25.960938 Z M 206.066406 25.960938 "/>
<path style=" stroke:none;fill-rule:evenodd;fill:rgb(0%,0%,100%);fill-opacity:1;" d="M 248.84375 37.039062 C 248.84375 33.039062 242.84375 33.039062 242.84375 37.039062 C 242.84375 41.039062 248.84375 41.039062 248.84375 37.039062 Z M 248.84375 37.039062 "/>
</g>
</svg>
