/* XPM */
static char *ball_red_xpm[] = {
/* width height ncolors chars_per_pixel */
"21 31 127 2",
/* colors */
"`` c #000000",
"`a c #000008",
"`b c #F79CCE",
"`c c #FFFFFF",
"`d c #BD427B",
"`e c #BD4284",
"`f c #521031",
"`g c #181810",
"`h c #181818",
"`i c #5A394A",
"`j c #B54284",
"`k c #4A1029",
"`l c #8C3163",
"`m c #DE7BBD",
"`n c #FFC6E7",
"`o c #CE529C",
"`p c #AD427B",
"`q c #421029",
"`r c #312929",
"`s c #84315A",
"`t c #BD3173",
"`u c #BD317B",
"`v c #D67BBD",
"`w c #C65294",
"`x c #632142",
"`y c #9C215A",
"`z c #9C2163",
"a` c #A5427B",
"aa c #731042",
"ab c #292921",
"ac c #292929",
"ad c #E763AD",
"ae c #B53173",
"af c #94215A",
"ag c #FFB5DE",
"ah c #180810",
"ai c #EF8CC6",
"aj c #5A2942",
"ak c #AD316B",
"al c #311821",
"am c #DE6BB5",
"an c #F7B5DE",
"ao c #100808",
"ap c #100810",
"aq c #CE4284",
"ar c #CE428C",
"as c #631039",
"at c #944A7B",
"au c #291821",
"av c #080800",
"aw c #080808",
"ax c #C6428C",
"ay c #63735A",
"az c #211818",
"b` c #000808",
"ba c #390821",
"bb c #8C1052",
"bc c #A55A7B",
"bd c #94396B",
"be c #310821",
"bf c #84104A",
"bg c #F7A5CE",
"bh c #C6317B",
"bi c #A52163",
"bj c #393129",
"bk c #290818",
"bl c #FFCEE7",
"bm c #CE5AA5",
"bn c #7B184A",
"bo c #210818",
"bp c #BD3973",
"bq c #BD397B",
"br c #5A0831",
"bs c #F7CEE7",
"bt c #C65A9C",
"bu c #9C295A",
"bv c #DE4A94",
"bw c #731842",
"bx c #E76BB5",
"by c #520831",
"bz c #942963",
"c` c #4A4239",
"ca c #181010",
"cb c #D64A94",
"cc c #101008",
"cd c #101010",
"ce c #CE4A8C",
"cf c #CE4A94",
"cg c #631839",
"ch c #523142",
"ci c #A5396B",
"cj c #A53973",
"ck c #420829",
"cl c #312129",
"cm c #D673B5",
"cn c #941852",
"co c #94185A",
"cp c #292121",
"cq c #B5296B",
"cr c #B52973",
"cs c #6B425A",
"ct c #8C1852",
"cu c #CE397B",
"cv c #CE3984",
"cw c #212118",
"cx c #212121",
"cy c #AD296B",
"cz c #311021",
"d` c #84184A",
"da c #841852",
"db c #DE63AD",
"dc c #733152",
"dd c #100008",
"de c #C63984",
"df c #B55284",
"dg c #A52963",
"dh c #393931",
"di c #D66384",
"dj c #D663AD",
"dk c #EFADD6",
"dl c #080000",
"dm c #080008",
"dn c #4A2131",
"do c #8C4273",
"dp c #5A1039",
"dq c #CE63A5",
"dr c #CE63AD",
/* pixels */
"``````````````````````````````````````````",
"``````````````````````````````````````````",
"``````````avawavawavawdm``````````````````",
"````dlawawawaoaoccaoccawawaw``````````````",
"``avawaocccccdcdcdcdcdcccdaoawaw`a````````",
"awawawcccd`gca`g`g`h`g`gcdcdawawaw````````",
"avaocccd`g`hazcxcxazcxaz`h`gcdawawaw``````",
"awcdcd`g`hcxcpacacacaccpaz`h`gcdawawaw````",
"aocdca`hcwaybjdhdhdh`r`rabcp`hcaapawaw````",
"aw`g`gcxcpdhc`csdoa``pbddcdncp`gcdaw`aaw``",
"cd`gazcp`r`iatbmdrdqbt`jcj`z`xal`hcdawaw``",
"cd`hcwcpcha`dqcm`v`vcm`w`jcibz`xazapawaw``",
"cdcacx`r`laxdjdkbsbl`vdq`ecibzbn`qcdawaw``",
"cc`hcwaj`dcfaman`c`n`m`o`eakbzd`dpahaw`a``",
"cdazab`s`ecedb`bagbgam`o`dcjbudadpauawaw``",
"cd`hcwbz`tdecbadbxai`oaqbqakafdadpbkaw```a",
"aocdca`zcr`uarcbbvceaqdeaedgafbw`fbeb`aw``",
"awcdcddabicqbhbhcvcudibpcyafd``x`fapdl````",
"awawcdcgafbicqae`taeaecqbuctbndpbeawb`````",
"`aawawczbbco`zbibibi`ydfctbnasckahaw``````",
"``awb`ap`fbfdacncnctctd`bccg`kboaw````````",
"````dmawahbyaaaabnbnbwcgcg`fboaw``````````",
"``````awawapbabybrbyby`qclbk``````````````",
"``````````awawapbobkbodddm````b```````````",
"``````````````````````dl``````````````````",
"``````````````````````````````````````````",
"``````````````````````````````````````````",
"``````````````````````````````````````````",
"``````````````````````````````````````````",
"``````````````````````````````````````````",
"``````````````````````````````````````````"
};
