/* XPM */
static char *ball_blue_xpm[] = {
/* width height ncolors chars_per_pixel */
"21 31 108 2",
/* colors */
"`` c #000000",
"`a c #000008",
"`b c #42BDCE",
"`c c #188C9C",
"`d c #63CEDE",
"`e c #FFFFFF",
"`f c #319CAD",
"`g c #082929",
"`h c #181810",
"`i c #181818",
"`j c #39636B",
"`k c #10525A",
"`l c #105263",
"`m c #299CAD",
"`n c #299CB5",
"`o c #101818",
"`p c #5AD6EF",
"`q c #187B84",
"`r c #312921",
"`s c #312929",
"`t c #081818",
"`u c #081821",
"`v c #52D6E7",
"`w c #52D6EF",
"`x c #29636B",
"`y c #39525A",
"`z c #292921",
"a` c #292929",
"aa c #73E7F7",
"ab c #21636B",
"ac c #6BE7F7",
"ad c #39B5C6",
"ae c #298C9C",
"af c #100808",
"ag c #31B5C6",
"ah c #08424A",
"ai c #218C9C",
"aj c #B5F7FF",
"ak c #080800",
"al c #080808",
"am c #106B7B",
"an c #211818",
"ao c #6BD6E7",
"ap c #000808",
"aq c #4AC6D6",
"ar c #4AC6DE",
"as c #63D6E7",
"at c #185A63",
"au c #39A5B5",
"av c #083139",
"aw c #42C6D6",
"ax c #105A63",
"ay c #31A5B5",
"az c #5ADEEF",
"b` c #4AB5C6",
"ba c #29A5B5",
"bb c #313129",
"bc c #CEF7FF",
"bd c #6BC6C6",
"be c #102121",
"bf c #42B5C6",
"bg c #42B5CE",
"bh c #18848C",
"bi c #082121",
"bj c #082129",
"bk c #A5E7F7",
"bl c #5A6B52",
"bm c #181010",
"bn c #315A63",
"bo c #52A5AD",
"bp c #39BDCE",
"bq c #104A4A",
"br c #2994A5",
"bs c #101008",
"bt c #101010",
"bu c #5ACEDE",
"bv c #5ACEE7",
"bw c #4AA5B5",
"bx c #18737B",
"by c #187384",
"bz c #2194A5",
"c` c #5A949C",
"ca c #73DEEF",
"cb c #183942",
"cc c #B5FFFF",
"cd c #39848C",
"ce c #398494",
"cf c #081018",
"cg c #107384",
"ch c #292121",
"ci c #212118",
"cj c #212121",
"ck c #083942",
"cl c #298494",
"cm c #84EFFF",
"cn c #42949C",
"co c #4294A5",
"cp c #31ADBD",
"cq c #218494",
"cr c #393929",
"cs c #080000",
"ct c #4ABDCE",
"cu c #4ABDD6",
"cv c #10636B",
"cw c #106373",
"cx c #313939",
"cy c #CEFFFF",
"cz c #399CA5",
/* pixels */
"``````````````````````````````````````````",
"``````````````````````````````````````````",
"````````csakcsakcsak``````````````````````",
"````csakalalalalalalalal``````````````````",
"csakalalalafalafbsalafafalal``````````````",
"alalalafbsbsbtbtbtbtbtbsbsalal````````````",
"akafbsbtbt`h`i`h`i`h`hbtbtafalalal````````",
"albtbt`h`ianchcichcjan`ibmbtbsal`a````````",
"bsbt`hanbl`r`sa``za``zan`i`hbtalalal``````",
"btbm`icjcrcrcx`jcdcz`fae`xcb`obtal`a``````",
"bt`hcjchbbbncocucubgadau`faeatbealalal````",
"bman`za``ybw`daoaobucubfaybrclatbealal````",
"`hana`cxcnbubkbcajcabuaqad`faebyckalal````",
"`ian`z`jctasaj`ecyaa`wawadbaaiby`l`tal````",
"bmcj`scectaoajbcccac`pawag`naicgaxbj```a``",
"`ichbbczctbucaaacmac`vawad`m`c`q`l`gal````",
"`i`ich`fbfcubv`pazbvarbpcp`mcqam`kbjal````",
"bt`ianclaybfaqaqaqaw`badaybzbhcwah`t``````",
"albt`iab`faucpbfadbdb``nbrcqam`laval``````",
"albtbtcbcqbr`fbaayau`fbzcqbycvah`u````````",
"alalbt`oatbhaiaeaiaebobhbxcvahbjal`a``````",
"apalalalbeatbx`q`q`qbxc`atbq`gal``````````",
"csapalalal`uckataxat`kbqav`u``````````````",
"````alalalalalcfbi`g`gbebtak`a````````````",
"````````````alal`aalalbsbs````````````````",
"``````````al``````````````````````````````",
"``````````````````````````````````````````",
"``````````````````````````````````````````",
"``````````````````````````````````````````",
"``````````````````````````````````````````",
"``````````````````````````````````````````"
};
