/* XPM */
static char *ball_yellow_xpm[] = {
/* width height ncolors chars_per_pixel */
"21 31 125 2",
/* colors */
"`` c #000000",
"`a c #000008",
"`b c #D6C642",
"`c c #D6C66B",
"`d c #D6C684",
"`e c #524A10",
"`f c #D6C694",
"`g c #524A29",
"`h c #EFD663",
"`i c #FFFFFF",
"`j c #6B5A10",
"`k c #6B5A18",
"`l c #6B5A21",
"`m c #CEC67B",
"`n c #4A4A18",
"`o c #9C9452",
"`p c #181808",
"`q c #181810",
"`r c #181818",
"`s c #635A18",
"`t c #635A21",
"`u c #BDA529",
"`v c #BDA531",
"`w c #BDA539",
"`x c #B5A531",
"`y c #B5A539",
"`z c #B5A542",
"a` c #312921",
"aa c #CEB539",
"ab c #CEB542",
"ac c #CEB54A",
"ad c #ADA552",
"ae c #ADA563",
"af c #292910",
"ag c #292918",
"ah c #292929",
"ai c #FFEF94",
"aj c #7B7318",
"ak c #FFEFA5",
"al c #C6B539",
"am c #C6B552",
"an c #9C8421",
"ao c #F7EFAD",
"ap c #948418",
"aq c #948421",
"ar c #948429",
"as c #948431",
"at c #100808",
"au c #AD9429",
"av c #080800",
"aw c #080808",
"ax c #080810",
"ay c #DECE42",
"az c #DECE63",
"b` c #DECE7B",
"ba c #5A5210",
"bb c #5A5229",
"bc c #5A5231",
"bd c #63735A",
"be c #A59429",
"bf c #A59431",
"bg c #211818",
"bh c #000808",
"bi c #D6CE7B",
"bj c #EFDE7B",
"bk c #EFDE8C",
"bl c #736318",
"bm c #EFDE94",
"bn c #E7DE9C",
"bo c #6B6321",
"bp c #E7DEA5",
"bq c #BDAD31",
"br c #BDAD52",
"bs c #BDAD5A",
"bt c #393108",
"bu c #847318",
"bv c #847321",
"bw c #847329",
"bx c #D6BD39",
"by c #D6BD42",
"bz c #D6BD4A",
"c` c #313108",
"ca c #313131",
"cb c #CEBD7B",
"cc c #FFF7B5",
"cd c #FFF7CE",
"ce c #FFF7D6",
"cf c #4A4210",
"cg c #4A4239",
"ch c #9C8C21",
"ci c #9C8C29",
"cj c #9C8C31",
"ck c #9C8C42",
"cl c #181008",
"cm c #181010",
"cn c #E7CE4A",
"co c #E7CE52",
"cp c #E7CE73",
"cq c #635218",
"cr c #424210",
"cs c #101000",
"ct c #101008",
"cu c #101010",
"cv c #AD9C29",
"cw c #AD9C31",
"cx c #AD9C42",
"cy c #DED694",
"cz c #292108",
"d` c #292121",
"da c #FFE76B",
"db c #7B6B18",
"dc c #7B6B31",
"dd c #C6AD31",
"de c #212108",
"df c #212110",
"dg c #212118",
"dh c #212121",
"di c #736B42",
"dj c #8C7B21",
"dk c #393929",
"dl c #080000",
"dm c #080008",
"dn c #DEC64A",
"do c #DEC652",
"dp c #A58C21",
/* pixels */
"``````````````````````````````````````````",
"``````````````````````````````````````````",
"````````dlavdlavdlav``````````````````````",
"````````dlawawawavawawaw``bh``````````````",
"dl``dlawawatctatcuatctatawawawdl``````````",
"awawawatctctcucm`qcucmcucuatawaw``````````",
"avdlawcucu`q`rbg`rdgdgbg`qcmaxawawaw``````",
"awawctcu`qbgdhd`d`d`dhdhdg`r`qaxaw````````",
"ctatcu`qbgd`bddkcacacaahd`bg`qcuawawaw````",
"cucucmbgdhahcgdi`oadbsckdc`gdgcmaxawaw````",
"cuct`qdhd`bc`o`c`d`dcbbs`zcj`lagcuawbhdm``",
"cmcucmdh`gcx`ccybpbpcy`mbrcxcj`tdfawaw````",
"`qct`ra`asamcpaocdcebnbiam`zcjbw`nawdlbh``",
"`rcubgbbabdob`cc`icebmb`am`wbfbv`t`paw````",
"cmcubgbwabdo`haiccakbjazac`ybfbw`saf`a````",
"`raw`qcialbyco`hdabk`hbzab`xcibvcqafav`a``",
"`rawcube`vaa`bcncocndnab`vcwardbcqcz`a````",
"cuawawdjcvbqaabx`bbxayaa`xbedjblcrclaw````",
"aw`aaw`sdpcv`uddddddbq`xbeaqdbcqc`aw``````",
"aw``awc`aqchbecvcvcvau`faqbv`kcr`p````````",
"aw````at`ebuaqaqanchapaeaj`jcfcz``````````",
"bh`````a`p`edbdbajdbdb`kbo`ncz````````````",
"dl````````clbtbababa`e`ncrde``````````````",
"````````````avcsdeczdecs``````````````````",
"``````````````````````````````````````````",
"``````````````````````````````````````````",
"``````````````````````````````````````````",
"``````````````````````````````````````````",
"``````````````````````````````````````````",
"``````````````````````````````````````````",
"``````````````````````````````````````````"
};
