/* XPM */
 char *ray_shooting_xpm[] = {
/* columns rows colors chars-per-pixel */
"32 32 4 1",
"  c opaque",
". c navy",
"X c #c0c0c0",
"o c None",
/* pixels */
"oooooooooooooooooooooooooooooooo",
"oooooooooooooooooooooooooooooooo",
"oooooooooooooooooooooooooooooooo",
"ooo...oooooooooooooooooooooooooo",
"ooo...oooooooooooooooooooooooooo",
"ooo...oooooooooooooooooooooooooo",
"ooo...oooooooooooooooooooooooooo",
"ooo...oooooooooooooooooooooooooo",
"ooo...oooooooooooooooooooooooooo",
"ooo...oooooooooooooooooooooooooo",
"ooo...oooooooooooooooooooooooooo",
"ooo...oooooooooooooooooooooooooo",
"ooo...oooooooooooooooooooooooooo",
"ooo...oooooooooooooooooooooooooo",
"ooo...oooooooooooooooooooooooooo",
"ooo.....oooooooooooooooooooooooo",
"ooo.......oooooooooooooooooooooo",
"ooo.......oooooooooooooooooooooo",
"ooo.......oooooooooooooooooooooo",
"ooo...........oooooooooooooooooo",
"ooo.......oooo.ooooooooooooooooo",
"ooo.......ooooo.oooooooooooooooo",
"ooo.......oo.ooo.ooooooooooooooo",
"ooo..........ooo.ooooooooooooooo",
"ooo.......oooooo.ooooooooooooooo",
"ooo......................ooooooo",
"ooooo....................ooooooo",
"oooo.....................ooooooo",
"ooo......................ooooooo",
"oo.ooo...................ooooooo",
"ooooooooooo..............ooooooo",
"oooooooooooooooo.........ooooooo",
"oooooooooooooooooooooooooooooooo",
"oooooooooooooooooooooooooooooooo",
"oooooooooooooooooooooooooooooooo"
};

/* XPM */
 char *small_ray_shooting_xpm[] = {
/* columns rows colors chars-per-pixel */
"32 32 4 1",
"  c opaque",
". c navy",
"X c #c0c0c0",
"o c None",
/* pixels */
"oooooooooooooooooooooooooooooooo",
"oooooooooooooooooooooooooooooooo",
"oooooooooooooooooooooooooooooooo",
"oooooooooooooooooooooooooooooooo",
"oooooooooooooooooooooooooooooooo",
"oooooooooooooooooooooooooooooooo",
"oooooooooooooooooooooooooooooooo",
"oooooooooooooooooooooooooooooooo",
"oooooooooooooooooooooooooooooooo",
"oooooooooooooooooooooooooooooooo",
"oooooooooooooooooooooooooooooooo",
"oooooooooooooooooooooooooooooooo",
"oooooooooooooooooooooooooooooooo",
"oooooooooooooooooooooooooooooooo",
"oooooooooooooooooooooooooooooooo",
"oooooooooooooooooooooooooooooooo",
"ooooooooooooooo..ooooooooooooooo",
"ooooooooooooooo..ooooooooooooooo",
"ooooooooooooooo..ooooooooooooooo",
"ooooooooooooooo..ooooooooooooooo",
"ooooooooooooooo..ooooooooooooooo",
"ooooooooooooooo....ooooooooooooo",
"ooooooooooooooo....ooooooooooooo",
"ooooooooooooooo....ooooooooooooo",
"ooooooooooooooo....ooooooooooooo",
"ooooooooooooooo......ooooooooooo",
"ooooooooooooooo....oo.oooooooooo",
"ooooooooooooooo....oo.oooooooooo",
"ooooooooooooooo............ooooo",
"ooooooooooooooo............ooooo",
"oooooooooooooooo...........ooooo",
"ooooooooooooooo.ooo........ooooo",
"ooooooooooooooooooooooooo..ooooo"
};



