<?xml version="1.0" encoding="utf-8"?>
<!-- Generator: Adobe Illustrator 24.0.3, SVG Export Plug-In . SVG Version: 6.00 Build 0)  -->
<svg version="1.1" id="Layer_1" xmlns="http://www.w3.org/2000/svg" xmlns:xlink="http://www.w3.org/1999/xlink" x="0px" y="0px"
	 width="498.2px" height="333.1px" viewBox="0 0 498.2 333.1" style="enable-background:new 0 0 498.2 333.1;" xml:space="preserve"
	>
<style type="text/css">
	.st0{fill:none;stroke:#E80F2E;stroke-width:3;stroke-linecap:round;stroke-linejoin:round;stroke-miterlimit:10;}
	.st1{fill:none;stroke:#78BF5A;stroke-width:3;stroke-linecap:round;stroke-linejoin:round;stroke-miterlimit:10;}
	.st2{fill:none;stroke:#5E7CEA;stroke-width:3;stroke-linecap:round;stroke-linejoin:round;stroke-miterlimit:10;}
	.st3{fill:none;stroke:#000000;stroke-width:2;stroke-linecap:square;stroke-linejoin:round;stroke-miterlimit:10;}
	.st4{fill:none;stroke:#000000;stroke-width:2;stroke-linejoin:round;stroke-miterlimit:10;}
</style>
<polyline class="st0" points="53.3,286.5 55.4,286.9 61.9,286.7 72.6,286.4 94.1,285.8 265.7,281.7 480.2,275.4 "/>
<polyline class="st1" points="53.3,279.2 55.4,281.2 61.9,280.4 72.6,280.7 94.1,280.4 265.7,279.5 480.2,280 "/>
<polyline class="st2" points="53.3,286.8 55.4,286.4 61.9,283.8 72.6,279.3 94.1,269.8 265.7,186.2 480.2,36.5 "/>
<path class="st3" d="M51.2,287.7h429 M51.2,287.7V8.7"/>
<line class="st4" x1="51.2" y1="282.7" x2="51.2" y2="292.7"/>
<path class="st4" d="M94.1,285.2v5 M137,282.7v10"/>
<path class="st4" d="M179.9,285.2v5 M222.8,282.7v10"/>
<path class="st4" d="M265.7,285.2v5 M308.6,282.7v10"/>
<path class="st4" d="M351.5,285.2v5 M394.4,282.7v10"/>
<path class="st4" d="M437.3,285.2v5 M480.2,282.7v10"/>
<line class="st4" x1="46.2" y1="287.7" x2="56.2" y2="287.7"/>
<path class="st4" d="M53.7,272.2h-5 M46.2,256.7h10"/>
<path class="st4" d="M53.7,241.2h-5 M46.2,225.7h10"/>
<path class="st4" d="M53.7,210.2h-5 M46.2,194.7h10"/>
<path class="st4" d="M53.7,179.2h-5 M46.2,163.7h10"/>
<path class="st4" d="M53.7,148.2h-5 M46.2,132.7h10"/>
<path class="st4" d="M53.7,117.2h-5 M46.2,101.7h10"/>
<path class="st4" d="M53.7,86.2h-5 M46.2,70.7h10"/>
<path class="st4" d="M53.7,55.2h-5 M46.2,39.7h10"/>
<path class="st4" d="M53.7,24.2h-5 M46.2,8.7h10"/>
<g>
	<g>
		<path d="M48.4,299.1c0,4.5-1.9,6-3.7,6c-1.9,0-3.8-1.6-3.8-6c0-4.5,1.9-6.1,3.8-6.1C46.6,293.1,48.4,294.7,48.4,299.1z
			 M44.7,304.4c1.1,0,2.1-1.1,2.1-5.2c0-4.2-1-5.3-2.1-5.3c-1.1,0-2.2,1-2.2,5.3C42.6,303.3,43.6,304.4,44.7,304.4z"/>
	</g>
</g>
<g>
	<g>
		<path d="M124.4,309.2c1-0.9,1.9-1.9,2.7-2.7c1.8-1.9,2.6-3.4,2.6-4.8c0-1.5-0.9-2.4-2.2-2.4c-0.4,0-1.2,0.1-1.8,0.4l1-0.6
			l-0.4,1.6c-0.2,0.9-0.5,1.2-1,1.2c-0.4,0-0.7-0.2-0.9-0.6c0.2-1.9,1.8-2.8,3.6-2.8c2.3,0,3.3,1.3,3.3,3.1c0,1.6-0.8,2.8-3.5,5.5
			c-0.6,0.6-1.4,1.4-2.3,2.3l-0.2-0.4h6.6v1.4h-7.3V309.2z"/>
		<path d="M140.6,304.6c0,4.5-1.9,6-3.7,6c-1.9,0-3.8-1.6-3.8-6c0-4.5,1.9-6.1,3.8-6.1C138.8,298.5,140.6,300.1,140.6,304.6z
			 M136.9,309.8c1.1,0,2.1-1.1,2.1-5.2c0-4.2-1-5.3-2.1-5.3c-1.1,0-2.2,1-2.2,5.3C134.8,308.8,135.8,309.8,136.9,309.8z"/>
		<path d="M149.6,304.6c0,4.5-1.9,6-3.7,6c-1.9,0-3.8-1.6-3.8-6c0-4.5,1.9-6.1,3.8-6.1C147.7,298.5,149.6,300.1,149.6,304.6z
			 M145.9,309.8c1.1,0,2.1-1.1,2.1-5.2c0-4.2-1-5.3-2.1-5.3c-1.1,0-2.2,1-2.2,5.3C143.7,308.8,144.7,309.8,145.9,309.8z"/>
	</g>
</g>
<g>
	<g>
		<path d="M209.7,306.9V306l5.4-7.3h1v11.8h-1.4v-10.6h0.5l-4.5,6.3l0-0.3h7.4v1.1H209.7z"/>
		<path d="M226.4,304.6c0,4.5-1.9,6-3.7,6c-1.9,0-3.8-1.6-3.8-6c0-4.5,1.9-6.1,3.8-6.1C224.6,298.5,226.4,300.1,226.4,304.6z
			 M222.7,309.8c1.1,0,2.1-1.1,2.1-5.2c0-4.2-1-5.3-2.1-5.3c-1.1,0-2.2,1-2.2,5.3C220.6,308.8,221.6,309.8,222.7,309.8z"/>
		<path d="M235.4,304.6c0,4.5-1.9,6-3.7,6c-1.9,0-3.8-1.6-3.8-6c0-4.5,1.9-6.1,3.8-6.1C233.5,298.5,235.4,300.1,235.4,304.6z
			 M231.7,309.8c1.1,0,2.1-1.1,2.1-5.2c0-4.2-1-5.3-2.1-5.3c-1.1,0-2.2,1-2.2,5.3C229.5,308.8,230.5,309.8,231.7,309.8z"/>
	</g>
</g>
<g>
	<g>
		<path d="M301.5,307c0-1.9-0.9-2.7-2.1-2.7c-0.8,0-1.8,0.3-2.5,1.1l-0.3-0.3c0.8-1.2,2-1.9,3.2-1.9c1.9,0,3.3,1.4,3.3,3.5
			c0,2.6-1.6,3.9-3.7,3.9c-2.4,0-3.9-1.9-3.9-5.1c0-3.5,2.4-6.5,6.8-7l0.1,0.6c-3.8,0.9-5.4,2.9-5.4,6.2c0,3.1,0.9,4.6,2.4,4.6
			C300.7,309.8,301.5,308.9,301.5,307z"/>
		<path d="M312,304.6c0,4.5-1.9,6-3.7,6c-1.9,0-3.8-1.6-3.8-6c0-4.5,1.9-6.1,3.8-6.1C310.1,298.5,312,300.1,312,304.6z M308.2,309.8
			c1.1,0,2.1-1.1,2.1-5.2c0-4.2-1-5.3-2.1-5.3c-1.1,0-2.2,1-2.2,5.3C306.1,308.8,307.1,309.8,308.2,309.8z"/>
		<path d="M320.9,304.6c0,4.5-1.9,6-3.7,6c-1.9,0-3.8-1.6-3.8-6c0-4.5,1.9-6.1,3.8-6.1C319.1,298.5,320.9,300.1,320.9,304.6z
			 M317.2,309.8c1.1,0,2.1-1.1,2.1-5.2c0-4.2-1-5.3-2.1-5.3c-1.1,0-2.2,1-2.2,5.3C315,308.8,316.1,309.8,317.2,309.8z"/>
	</g>
</g>
<g>
	<g>
		<path d="M384.8,304.5l0.8,0.3c-1.4,0.8-2.2,1.5-2.2,2.8c0,1.3,1,2.2,2.3,2.2c1.3,0,2.1-1,2.1-2.2c0-1.1-0.7-1.7-2.8-2.7
			c-1.9-0.9-2.7-2.1-2.7-3.4c0-1.9,1.5-3,3.3-3c1.9,0,3.1,1.2,3.1,2.8c0,0.9-0.6,2.1-2.6,3.1l-0.7-0.3c1.5-1,2-1.7,2-2.8
			c0-1.1-0.6-2-1.8-2c-1,0-1.9,0.7-1.9,1.8c0,1,0.5,1.9,2.6,2.9c2,0.9,3,1.9,3,3.6c0,1.8-1.6,3.1-3.6,3.1c-2.1,0-3.7-1-3.7-2.9
			C382,306.3,383,305.4,384.8,304.5z"/>
		<path d="M398.3,304.6c0,4.5-1.9,6-3.7,6c-1.9,0-3.8-1.6-3.8-6c0-4.5,1.9-6.1,3.8-6.1C396.5,298.5,398.3,300.1,398.3,304.6z
			 M394.6,309.8c1.1,0,2.1-1.1,2.1-5.2c0-4.2-1-5.3-2.1-5.3c-1.1,0-2.2,1-2.2,5.3C392.5,308.8,393.5,309.8,394.6,309.8z"/>
		<path d="M407.3,304.6c0,4.5-1.9,6-3.7,6c-1.9,0-3.8-1.6-3.8-6c0-4.5,1.9-6.1,3.8-6.1C405.4,298.5,407.3,300.1,407.3,304.6z
			 M403.6,309.8c1.1,0,2.1-1.1,2.1-5.2c0-4.2-1-5.3-2.1-5.3c-1.1,0-2.2,1-2.2,5.3C401.4,308.8,402.4,309.8,403.6,309.8z"/>
	</g>
</g>
<g>
	<g>
		<path d="M470.4,309.8v0.6h-6.6v-0.6l2.6-0.4h1.4L470.4,309.8z M467.6,298.6l0.3,0.2l-0.1,2.6v5.2c0,1.3,0,2.5,0.1,3.8h-1.5
			c0-1.3,0.1-2.5,0.1-3.8v-6.5l-2.4,0.2v-0.7L467.6,298.6z"/>
		<path d="M479.6,304.6c0,4.5-1.9,6-3.7,6c-1.9,0-3.8-1.6-3.8-6c0-4.5,1.9-6.1,3.8-6.1C477.8,298.5,479.6,300.1,479.6,304.6z
			 M475.9,309.8c1.1,0,2.1-1.1,2.1-5.2c0-4.2-1-5.3-2.1-5.3c-1.1,0-2.2,1-2.2,5.3C473.7,308.8,474.8,309.8,475.9,309.8z"/>
		<path d="M488.6,304.6c0,4.5-1.9,6-3.7,6c-1.9,0-3.8-1.6-3.8-6c0-4.5,1.9-6.1,3.8-6.1C486.7,298.5,488.6,300.1,488.6,304.6z
			 M484.8,309.8c1.1,0,2.1-1.1,2.1-5.2c0-4.2-1-5.3-2.1-5.3c-1.1,0-2.2,1-2.2,5.3C482.7,308.8,483.7,309.8,484.8,309.8z"/>
		<path d="M497.5,304.6c0,4.5-1.9,6-3.7,6c-1.9,0-3.8-1.6-3.8-6c0-4.5,1.9-6.1,3.8-6.1C495.7,298.5,497.5,300.1,497.5,304.6z
			 M493.8,309.8c1.1,0,2.1-1.1,2.1-5.2c0-4.2-1-5.3-2.1-5.3c-1.1,0-2.2,1-2.2,5.3C491.6,308.8,492.7,309.8,493.8,309.8z"/>
	</g>
</g>
<g>
	<g>
		<path d="M34.6,260.7c1-0.9,1.9-1.9,2.7-2.7c1.8-1.9,2.6-3.4,2.6-4.8c0-1.5-0.9-2.4-2.2-2.4c-0.4,0-1.2,0.1-1.8,0.4l1-0.6l-0.4,1.6
			c-0.2,0.9-0.5,1.2-1,1.2c-0.4,0-0.7-0.2-0.9-0.6c0.2-1.9,1.8-2.8,3.6-2.8c2.3,0,3.3,1.3,3.3,3.1c0,1.6-0.8,2.8-3.5,5.5
			c-0.6,0.6-1.4,1.4-2.3,2.3l-0.2-0.4H42v1.4h-7.3V260.7z"/>
	</g>
</g>
<g>
	<g>
		<path d="M34.2,227.6v-0.9l5.4-7.3h1v11.8h-1.4v-10.6h0.5l-4.5,6.3l0-0.3h7.4v1.1H34.2z"/>
	</g>
</g>
<g>
	<g>
		<path d="M40.5,196.5c0-1.9-0.9-2.7-2.1-2.7c-0.8,0-1.8,0.3-2.5,1.1l-0.3-0.3c0.8-1.2,2-1.9,3.2-1.9c1.9,0,3.3,1.4,3.3,3.5
			c0,2.6-1.6,3.9-3.7,3.9c-2.4,0-3.9-1.9-3.9-5.1c0-3.5,2.4-6.5,6.8-7l0.1,0.6c-3.8,0.9-5.4,2.9-5.4,6.2c0,3.1,0.9,4.6,2.4,4.6
			C39.6,199.3,40.5,198.4,40.5,196.5z"/>
	</g>
</g>
<g>
	<g>
		<path d="M37.4,164l0.8,0.3c-1.4,0.8-2.2,1.5-2.2,2.8c0,1.3,1,2.2,2.3,2.2c1.3,0,2.1-1,2.1-2.2c0-1.1-0.7-1.7-2.8-2.7
			c-1.9-0.9-2.7-2.1-2.7-3.4c0-1.9,1.5-3,3.3-3c1.9,0,3.1,1.2,3.1,2.8c0,0.9-0.6,2.1-2.6,3.1l-0.7-0.3c1.5-1,2-1.7,2-2.8
			c0-1.1-0.6-2-1.8-2c-1,0-1.9,0.7-1.9,1.8c0,1,0.5,1.9,2.6,2.9c2,0.9,3,1.9,3,3.6c0,1.8-1.6,3.1-3.6,3.1c-2.1,0-3.7-1-3.7-2.9
			C34.5,165.8,35.5,164.8,37.4,164z"/>
	</g>
</g>
<g>
	<g>
		<path d="M32.7,138.1v0.6H26v-0.6l2.6-0.4H30L32.7,138.1z M29.9,126.9l0.3,0.2l-0.1,2.6v5.2c0,1.3,0,2.5,0.1,3.8h-1.5
			c0-1.3,0.1-2.5,0.1-3.8v-6.5l-2.4,0.2v-0.7L29.9,126.9z"/>
		<path d="M41.9,132.9c0,4.5-1.9,6-3.7,6c-1.9,0-3.8-1.6-3.8-6c0-4.5,1.9-6.1,3.8-6.1C40,126.9,41.9,128.5,41.9,132.9z M38.1,138.2
			c1.1,0,2.1-1.1,2.1-5.2c0-4.2-1-5.3-2.1-5.3c-1.1,0-2.2,1-2.2,5.3C36,137.1,37,138.2,38.1,138.2z"/>
	</g>
</g>
<g>
	<g>
		<path d="M32.7,106.5v0.6H26v-0.6l2.6-0.4H30L32.7,106.5z M29.9,95.3l0.3,0.2L30,98.1v5.2c0,1.3,0,2.5,0.1,3.8h-1.5
			c0-1.3,0.1-2.5,0.1-3.8v-6.5L26.2,97v-0.7L29.9,95.3z"/>
		<path d="M34.5,106c1-0.9,1.9-1.9,2.7-2.7c1.8-1.9,2.6-3.4,2.6-4.8c0-1.5-0.9-2.4-2.2-2.4c-0.4,0-1.2,0.1-1.8,0.4l1-0.6l-0.4,1.6
			c-0.2,0.9-0.5,1.2-1,1.2c-0.4,0-0.7-0.2-0.9-0.6c0.2-1.9,1.8-2.8,3.6-2.8c2.3,0,3.3,1.3,3.3,3.1c0,1.6-0.8,2.8-3.5,5.5
			c-0.6,0.6-1.4,1.4-2.3,2.3l-0.2-0.4h6.6v1.4h-7.3V106z"/>
	</g>
</g>
<g>
	<g>
		<path d="M32.7,76.4V77H26v-0.6l2.6-0.4H30L32.7,76.4z M29.9,65.2l0.3,0.2L30,67.9v5.2c0,1.3,0,2.5,0.1,3.8h-1.5
			c0-1.3,0.1-2.5,0.1-3.8v-6.5l-2.4,0.2v-0.7L29.9,65.2z"/>
		<path d="M34.1,73.4v-0.9l5.4-7.3h1V77H39V66.3h0.5l-4.5,6.3l0-0.3h7.4v1.1H34.1z"/>
	</g>
</g>
<g>
	<g>
		<path d="M32.7,45.7v0.6H26v-0.6l2.6-0.4H30L32.7,45.7z M29.9,34.5l0.3,0.2L30,37.2v5.2c0,1.3,0,2.5,0.1,3.8h-1.5
			c0-1.3,0.1-2.5,0.1-3.8V36l-2.4,0.2v-0.7L29.9,34.5z"/>
		<path d="M40.3,42.9c0-1.9-0.9-2.7-2.1-2.7c-0.8,0-1.8,0.3-2.5,1.1L35.4,41c0.8-1.2,2-1.9,3.2-1.9c1.9,0,3.3,1.4,3.3,3.5
			c0,2.6-1.6,3.9-3.7,3.9c-2.4,0-3.9-1.9-3.9-5.1c0-3.5,2.4-6.5,6.8-7l0.1,0.6c-3.8,0.9-5.4,2.9-5.4,6.2c0,3.1,0.9,4.6,2.4,4.6
			C39.5,45.7,40.3,44.8,40.3,42.9z"/>
	</g>
</g>
<g>
	<g>
		<path d="M32.7,14.4V15H26v-0.6l2.6-0.4H30L32.7,14.4z M29.9,3.2l0.3,0.2L30,6v5.2c0,1.3,0,2.5,0.1,3.8h-1.5c0-1.3,0.1-2.5,0.1-3.8
			V4.7l-2.4,0.2V4.2L29.9,3.2z"/>
		<path d="M37.3,9.1L38,9.4c-1.4,0.8-2.2,1.5-2.2,2.8c0,1.3,1,2.2,2.3,2.2c1.3,0,2.1-1,2.1-2.2c0-1.1-0.7-1.7-2.8-2.7
			c-1.9-0.9-2.7-2.1-2.7-3.4c0-1.9,1.5-3,3.3-3c1.9,0,3.1,1.2,3.1,2.8c0,0.9-0.6,2.1-2.6,3.1l-0.7-0.3c1.5-1,2-1.7,2-2.8
			c0-1.1-0.6-2-1.8-2c-1,0-1.9,0.7-1.9,1.8c0,1,0.5,1.9,2.6,2.9c2,0.9,3,1.9,3,3.6c0,1.8-1.6,3.1-3.6,3.1c-2.1,0-3.7-1-3.7-2.9
			C34.4,10.9,35.4,10,37.3,9.1z"/>
	</g>
</g>
<g>
	<g>
		<path d="M14.4,167.7c0-0.4-0.2-0.8-0.5-1.2l0.5-0.4c0.6,0.5,0.9,1.2,0.9,2.1c0,1.2-0.6,2-2,2c-0.4,0-0.8,0-1.5,0H7.4v1.5H6.7
			l-0.3-2.2l0.6,0.7L4,169.6v-1l3.2,0.1H13C14,168.7,14.4,168.3,14.4,167.7z M6.5,166.2h0.9v3.2H6.5V166.2z"/>
		<path d="M3.1,164.5c-0.7,0-1.1-0.5-1.1-1.2s0.5-1.2,1.1-1.2c0.7,0,1.1,0.5,1.1,1.2S3.8,164.5,3.1,164.5z M15,164
			c-0.8,0-2.7-0.1-3.8-0.1h-0.8c-1,0-1.5,0-2.3,0.1L8,165.5H7.3l-1.1-2.7l0.2-0.3l2.4,0.1h2.4c1.1,0,3,0,3.8-0.1V164z M14.4,161.3
			H15v4.1h-0.6l-0.4-2v-0.4L14.4,161.3z"/>
		<path d="M9.4,146.3h1.9c1.2,0,3,0,3.8-0.1v1.5c-0.8,0-2.6-0.1-3.8-0.1H9.7c-1.7,0-2.2,0.5-2.2,1.5c0,0.8,0.3,1.6,1.2,2.6v0.4H8.1
			v-1l0.1,0.8c-1.3-0.9-2-2.3-2-3.5C6.3,147.2,7.2,146.3,9.4,146.3z M9.6,151.7h1.7c1.2,0,3,0,3.8-0.1v1.5c-0.8,0-2.6-0.1-3.8-0.1
			H9.7c-1.7,0-2.2,0.4-2.2,1.5c0,0.9,0.4,1.6,1.2,2.6v0.4H8v-0.9l0.3,0.8c-1.1-0.8-2-2.2-2-3.5C6.3,152.5,7.2,151.7,9.6,151.7z
			 M15,158.6c-0.8,0-2.7-0.1-3.8-0.1h-0.8c-1,0-1.5,0-2.3,0.1L8,160.1H7.3l-1.1-2.4l0.2-0.3l2.1-0.2h2.7c1.1,0,3,0,3.8-0.1V158.6z
			 M14,146.8l0.4-1.8H15v4.1h-0.6l-0.4-2V146.8z M14,152.2l0.4-1.8H15v4.1h-0.6l-0.4-2V152.2z M14.4,155.8H15v4.1h-0.6l-0.4-2v-0.4
			L14.4,155.8z"/>
		<path d="M9.7,136.2c0.4,0,0.8,0.1,1,0.1v6.6H10v-4.3c0-0.9-0.4-1.1-0.9-1.1c-1,0-2,0.9-2,2c0,1.2,1,2.5,3.5,2.5
			c2.3,0,3.5-1.2,3.5-3c0-1.2-0.5-1.9-1.3-2.5l0.3-0.4c1.3,0.6,2.1,1.8,2.1,3.4c0,2.4-1.7,4-4.4,4c-2.8,0-4.6-1.9-4.6-4.1
			C6.3,137.7,7.5,136.2,9.7,136.2z"/>
		<path d="M18.1,125.5l0.4,0.5c-2.4,2.5-5.2,3.7-8.5,3.7s-6.1-1.2-8.5-3.7l0.4-0.5c3.1,2.1,5.2,2.8,8.1,2.8S15,127.6,18.1,125.5z"/>
		<path d="M14.6,124.1l-2,0.1v-1l2.1-0.5l-0.4,0.9h-0.6c0.5-0.6,0.7-1.3,0.7-2.2c0-1.4-0.6-2-1.4-2c-0.8,0-1.2,0.5-1.6,1.7l-0.3,0.8
			c-0.5,1.3-1.2,2.2-2.4,2.2c-1.3,0-2.5-1.1-2.5-3.1c0-1,0.3-1.7,0.7-2.5l1.8,0.1v0.9L7,119.8l0.3-0.6h0.5c-0.5,0.6-0.7,1.2-0.7,1.8
			c0,1.1,0.5,1.7,1.2,1.7c0.8,0,1.1-0.4,1.6-1.7l0.2-0.5c0.7-1.8,1.5-2.5,2.6-2.5c1.3,0,2.6,1.2,2.6,3.5
			C15.3,122.4,15,123.2,14.6,124.1z"/>
		<path d="M9.7,109c0.4,0,0.8,0.1,1,0.1v6.6H10v-4.3c0-0.9-0.4-1.1-0.9-1.1c-1,0-2,0.9-2,2c0,1.2,1,2.5,3.5,2.5c2.3,0,3.5-1.2,3.5-3
			c0-1.2-0.5-1.9-1.3-2.5l0.3-0.4c1.3,0.6,2.1,1.8,2.1,3.4c0,2.4-1.7,4-4.4,4c-2.8,0-4.6-1.9-4.6-4.1C6.3,110.4,7.5,109,9.7,109z"/>
		<path d="M10.6,105.8c2.3,0,3.5-1.2,3.5-2.9c0-1-0.5-2-1.4-2.5l0.2-0.4c1.5,0.5,2.3,1.6,2.3,3.3c0,2.5-1.7,4-4.5,4
			c-2.8,0-4.5-2-4.5-4.1c0-1.6,1-2.9,2.3-3.2c0.5,0.1,0.7,0.4,0.7,0.8c0,0.6-0.4,0.8-0.8,1l-1.6,0.5l0.7-0.8
			c-0.3,0.6-0.5,1.2-0.5,1.7C7.1,104.7,8.3,105.8,10.6,105.8z"/>
		<path d="M1.9,98.9l-0.4-0.5c2.4-2.5,5.2-3.7,8.5-3.7s6.1,1.2,8.5,3.7l-0.4,0.5c-3.1-2.1-5.2-2.8-8.1-2.8S5,96.8,1.9,98.9z"/>
	</g>
</g>
<g>
	<g>
		<path d="M263.2,327c0-0.8,0.1-2.7,0.1-3.8v-0.8c0-1,0-1.5-0.1-2.3l-1.4-0.2v-0.6l2.4-1.1l0.3,0.2l0.2,2.1v2.7c0,1.1,0,3,0.1,3.8
			H263.2z M266.1,326.4v0.6h-4.1v-0.6l2-0.4h0.4L266.1,326.4z M270.2,321.6v1.7c0,1.2,0,3,0.1,3.8h-1.5c0-0.8,0.1-2.6,0.1-3.8v-1.5
			c0-1.7-0.4-2.2-1.5-2.2c-0.9,0-1.6,0.4-2.7,1.2h-0.4V320h0.9l-0.8,0.3c0.8-1.1,2.3-2,3.6-2C269.5,318.3,270.2,319.2,270.2,321.6z
			 M269.7,326l1.8,0.4v0.6h-4.1v-0.6l2-0.4H269.7z"/>
	</g>
</g>
</svg>
