<?xml version="1.0" encoding="utf-8"?>
<!-- Generator: Adobe Illustrator 24.0.3, SVG Export Plug-In . SVG Version: 6.00 Build 0)  -->
<svg version="1.1" id="Layer_1" xmlns="http://www.w3.org/2000/svg" xmlns:xlink="http://www.w3.org/1999/xlink" x="0px" y="0px"
	 width="250.7px" height="253.5px" viewBox="0 0 250.7 253.5" style="enable-background:new 0 0 250.7 253.5;" xml:space="preserve"
	>
<style type="text/css">
	.st0{fill:none;stroke:#000000;stroke-width:2;stroke-miterlimit:10;}
	.st1{stroke:#000000;stroke-width:0.5;stroke-linecap:round;stroke-linejoin:round;stroke-miterlimit:10;}
	.st2{fill:#78BF5A;stroke:#000000;stroke-width:0.5;stroke-linecap:round;stroke-linejoin:round;stroke-miterlimit:10;}
</style>
<line class="st0" x1="96.9" y1="140.5" x2="4.2" y2="225.5"/>
<line class="st0" x1="96.9" y1="140.5" x2="237.8" y2="216.8"/>
<line class="st0" x1="83.9" y1="25.7" x2="96.9" y2="140.5"/>
<path class="st1" d="M8.2,225.5c0,2.3-1.7,4-4,4s-4-1.7-4-4s1.7-4,4-4S8.2,223.3,8.2,225.5z"/>
<path class="st1" d="M241.7,216.8c0,2.3-1.7,4-4,4s-4-1.7-4-4s1.7-4,4-4C239.9,212.9,241.7,214.6,241.7,216.8z"/>
<polygon class="st0" points="83.9,25.7 4.2,225.5 237.8,216.8 "/>
<path class="st1" d="M87.8,25.7c0,2.3-1.7,4-4,4s-4-1.7-4-4s1.7-4,4-4S87.8,23.4,87.8,25.7z"/>
<g>
	<g>
		<path d="M79,6.5l-1.8-0.3V5.5h4.3v0.7l-2.2,0.3H79z M79.6,5.5l2.8,7.3l-0.7,0.9l2.9-8.3h1l-3.3,8.6h-0.7l-3.6-8.6H79.6z M84.5,6.5
			l-1.8-0.3V5.5h3.4v0.7l-1.3,0.3H84.5z"/>
		<path d="M91.8,13.2c0,3-1.2,4-2.5,4c-1.3,0-2.5-1-2.5-4c0-3,1.2-4.1,2.5-4.1C90.6,9.1,91.8,10.2,91.8,13.2z M89.3,16.6
			c0.7,0,1.4-0.7,1.4-3.5c0-2.8-0.7-3.5-1.4-3.5c-0.8,0-1.4,0.7-1.4,3.5C87.9,16,88.6,16.6,89.3,16.6z"/>
	</g>
</g>
<g>
	<g>
		<path d="M3,236.9l-1.8-0.3v-0.7h4.3v0.7l-2.2,0.3H3z M3.6,235.9l2.8,7.3l-0.7,0.9l2.9-8.3h1l-3.3,8.6H5.5l-3.6-8.6H3.6z
			 M8.5,236.9l-1.8-0.3v-0.7h3.4v0.7l-1.3,0.3H8.5z"/>
		<path d="M15.6,247.1v0.4h-4.4v-0.4l1.7-0.3h1L15.6,247.1z M13.8,239.6l0.2,0.1l0,1.7v3.5c0,0.8,0,1.7,0,2.5h-1c0-0.8,0-1.7,0-2.5
			v-4.3l-1.6,0.1v-0.5L13.8,239.6z"/>
	</g>
</g>
<g>
	<g>
		<path d="M237.4,227.7l-1.8-0.3v-0.7h4.3v0.7l-2.2,0.3H237.4z M238,226.7l2.8,7.3l-0.7,0.9l2.9-8.3h1l-3.3,8.6h-0.7l-3.6-8.6H238z
			 M242.9,227.7l-1.8-0.3v-0.7h3.4v0.7l-1.3,0.3H242.9z"/>
		<path d="M245.3,237.5c0.6-0.6,1.3-1.3,1.8-1.8c1.2-1.3,1.7-2.3,1.7-3.2c0-1-0.6-1.6-1.5-1.6c-0.3,0-0.8,0.1-1.2,0.3l0.7-0.4
			l-0.3,1.1c-0.2,0.6-0.3,0.8-0.7,0.8c-0.3,0-0.5-0.1-0.6-0.4c0.1-1.3,1.2-1.8,2.4-1.8c1.5,0,2.2,0.8,2.2,2c0,1-0.5,1.9-2.4,3.7
			c-0.4,0.4-1,0.9-1.6,1.5l-0.1-0.2h4.4v1h-4.9V237.5z"/>
	</g>
</g>
<path class="st2" d="M100.9,140.5c0,2.2-1.8,4-4,4s-4-1.8-4-4s1.8-4,4-4S100.9,138.3,100.9,140.5z"/>
<g>
	<g>
		<path d="M95.7,152.1l-1.8-0.3v-0.7h4.3v0.7l-2.2,0.3H95.7z M96.2,151.1l2.8,7.3l-0.7,0.9l2.9-8.3h1l-3.3,8.6h-0.7l-3.6-8.6H96.2z
			 M101.2,152.1l-1.8-0.3v-0.7h3.4v0.7l-1.3,0.3H101.2z"/>
	</g>
</g>
<g>
	<g>
		<path d="M97,193.1l1.8-0.3h0.4l2,0.3v0.7H97V193.1z M102.4,181.7h1.1l4.1,12.2h-1.7l-3.6-10.8h0.4L99,193.8h-0.8L102.4,181.7z
			 M100.3,189h4.9l0.3,0.8H100L100.3,189z M103.8,193.1l2.3-0.3h0.4l2.2,0.3v0.7h-4.9V193.1z"/>
		<path d="M114.3,192.9c0,3-1.2,4-2.5,4c-1.3,0-2.5-1-2.5-4c0-3,1.2-4.1,2.5-4.1C113.1,188.9,114.3,190,114.3,192.9z M111.8,196.4
			c0.7,0,1.4-0.7,1.4-3.5c0-2.8-0.7-3.5-1.4-3.5c-0.8,0-1.4,0.7-1.4,3.5C110.4,195.7,111.1,196.4,111.8,196.4z"/>
	</g>
</g>
<g>
	<g>
		<path d="M120.7,128.6l1.8-0.3h0.4l2,0.3v0.7h-4.1V128.6z M126.1,117.1h1.1l4.1,12.2h-1.7l-3.6-10.8h0.4l-3.7,10.8h-0.8
			L126.1,117.1z M123.9,124.5h4.9l0.3,0.8h-5.4L123.9,124.5z M127.5,128.6l2.3-0.3h0.4l2.2,0.3v0.7h-4.9V128.6z"/>
		<path d="M137.8,131.9v0.4h-4.4v-0.4l1.7-0.3h1L137.8,131.9z M136,124.4l0.2,0.1l0,1.7v3.5c0,0.8,0,1.7,0,2.5h-1c0-0.8,0-1.7,0-2.5
			v-4.3l-1.6,0.1v-0.5L136,124.4z"/>
	</g>
</g>
<g>
	<g>
		<path d="M61.5,128.6l1.8-0.3h0.4l2,0.3v0.7h-4.1V128.6z M66.8,117.1h1.1l4.1,12.2h-1.7l-3.6-10.8h0.4l-3.7,10.8h-0.8L66.8,117.1z
			 M64.7,124.5h4.9l0.3,0.8h-5.4L64.7,124.5z M68.3,128.6l2.3-0.3h0.4l2.2,0.3v0.7h-4.9V128.6z"/>
		<path d="M73.9,131.5c0.6-0.6,1.3-1.3,1.8-1.8c1.2-1.3,1.7-2.3,1.7-3.2c0-1-0.6-1.6-1.5-1.6c-0.3,0-0.8,0.1-1.2,0.3l0.7-0.4
			l-0.3,1.1c-0.2,0.6-0.3,0.8-0.7,0.8c-0.3,0-0.5-0.1-0.6-0.4c0.1-1.3,1.2-1.8,2.4-1.8c1.5,0,2.2,0.8,2.2,2c0,1-0.5,1.9-2.4,3.7
			c-0.4,0.4-1,0.9-1.6,1.5l-0.1-0.2h4.4v1h-4.9V131.5z"/>
	</g>
</g>
</svg>
