<?xml version="1.0" encoding="utf-8"?>
<!-- Generator: Adobe Illustrator 24.0.3, SVG Export Plug-In . SVG Version: 6.00 Build 0)  -->
<svg version="1.1" id="Layer_1" xmlns="http://www.w3.org/2000/svg" xmlns:xlink="http://www.w3.org/1999/xlink" x="0px" y="0px"
	 width="251.1px" height="246.2px" viewBox="0 0 251.1 246.2" style="enable-background:new 0 0 251.1 246.2;" xml:space="preserve"
	>
<style type="text/css">
	.st0{stroke:#000000;stroke-width:0.5;stroke-linecap:round;stroke-linejoin:round;stroke-miterlimit:10;}
	.st1{fill:none;stroke:#000000;stroke-width:2;stroke-miterlimit:10;}
	.st2{fill:none;stroke:#000000;stroke-width:0.5;stroke-miterlimit:10;}
	.st3{fill:none;stroke:#000000;stroke-width:0.75;stroke-miterlimit:10;}
	.st4{fill:none;stroke:#000000;stroke-miterlimit:10;}
	.st5{fill:none;stroke:#000000;stroke-width:1.25;stroke-miterlimit:10;}
	.st6{fill:none;stroke:#000000;stroke-width:1.5;stroke-miterlimit:10;}
</style>
<g>
	<g>
		<path d="M79,1.1l-1.8-0.3V0.1h4.3v0.7l-2.2,0.3H79z M79.6,0.1l2.8,7.3l-0.7,0.9L84.6,0h1l-3.3,8.6h-0.7L78,0h1.6V0.1z M84.6,1.1
			l-1.8-0.3V0.1h3.4v0.7l-1.3,0.3H84.6z"/>
		<path d="M91.8,7.8c0,3-1.2,4-2.5,4s-2.5-1-2.5-4s1.2-4.1,2.5-4.1S91.8,4.8,91.8,7.8z M89.2,11.2c0.7,0,1.4-0.7,1.4-3.5
			S90,4.2,89.2,4.2c-0.8,0-1.4,0.7-1.4,3.5C87.9,10.6,88.6,11.2,89.2,11.2z"/>
	</g>
</g>
<g>
	<g>
		<path d="M3.1,235.7l-1.8-0.3v-0.7h4.3v0.7l-2.2,0.3H3.1z M3.7,234.7l2.8,7.3l-0.7,0.9l2.9-8.3h1l-3.3,8.6H5.6L2,234.6h1.7V234.7z
			 M8.6,235.7l-1.8-0.3v-0.7h3.4v0.7l-1.3,0.3H8.6z"/>
		<path d="M15.7,245.8v0.4h-4.4v-0.4l1.7-0.3h1L15.7,245.8z M13.9,238.4l0.2,0.1v1.7v3.5c0,0.8,0,1.7,0,2.5h-1c0-0.8,0-1.7,0-2.5
			v-4.3l-1.6,0.1V239L13.9,238.4z"/>
	</g>
</g>
<g>
	<g>
		<path d="M238.4,225l-1.8-0.3V224h4.3v0.7l-2.2,0.3H238.4z M238.9,224l2.8,7.3l-0.7,0.9l2.9-8.3h1l-3.3,8.6h-0.7l-3.6-8.6h1.6V224z
			 M243.9,225l-1.8-0.3V224h3.4v0.7l-1.3,0.3H243.9z"/>
		<path d="M246.4,234.8c0.6-0.6,1.3-1.3,1.8-1.8c1.2-1.3,1.7-2.3,1.7-3.2c0-1-0.6-1.6-1.5-1.6c-0.3,0-0.8,0.1-1.2,0.3l0.7-0.4
			l-0.3,1.1c-0.2,0.6-0.3,0.8-0.7,0.8c-0.3,0-0.5-0.1-0.6-0.4c0.1-1.3,1.2-1.8,2.4-1.8c1.5,0,2.2,0.8,2.2,2c0,1-0.5,1.9-2.4,3.7
			c-0.4,0.4-1,0.9-1.6,1.5l-0.1-0.2h4.4v1h-4.9v-1H246.4z"/>
	</g>
</g>
<g>
	<path class="st0" d="M8.2,221c0,2.3-1.7,4-4,4s-4-1.7-4-4c0-2.3,1.7-4,4-4S8.2,218.8,8.2,221z"/>
	<path class="st0" d="M241.6,212.3c0,2.3-1.7,4-4,4s-4-1.7-4-4c0-2.3,1.7-4,4-4C239.9,208.4,241.6,210.1,241.6,212.3z"/>
	<polygon class="st1" points="83.8,21.2 4.2,221 237.7,212.3 	"/>
	<path class="st0" d="M87.7,21.2c0,2.3-1.7,4-4,4c-2.3,0-4-1.7-4-4s1.7-4,4-4C86,17.2,87.7,18.9,87.7,21.2z"/>
	<line class="st2" x1="12.7" y1="202.7" x2="223.6" y2="194.9"/>
	<line class="st2" x1="19" y1="184" x2="208.9" y2="177"/>
	<line class="st3" x1="26.3" y1="165.4" x2="194.8" y2="159.2"/>
	<line class="st3" x1="33.8" y1="146.8" x2="180.4" y2="141.3"/>
	<line class="st3" x1="41.1" y1="128.1" x2="166.1" y2="123.5"/>
	<line class="st4" x1="48.6" y1="109.5" x2="151.8" y2="105.7"/>
	<line class="st4" x1="56" y1="90.9" x2="137.4" y2="87.8"/>
	<line class="st5" x1="63.5" y1="72.2" x2="122.9" y2="70"/>
	<line class="st6" x1="70.9" y1="53.6" x2="108.7" y2="52.2"/>
	<line class="st6" x1="78.2" y1="35" x2="94.4" y2="34.4"/>
</g>
</svg>
