<?xml version="1.0" encoding="utf-8"?>
<!-- Generator: Adobe Illustrator 24.0.3, SVG Export Plug-In . SVG Version: 6.00 Build 0)  -->
<svg version="1.1" id="Layer_1" xmlns="http://www.w3.org/2000/svg" xmlns:xlink="http://www.w3.org/1999/xlink" x="0px" y="0px"
	 width="318.5px" height="273px" viewBox="0 0 318.5 273" style="enable-background:new 0 0 318.5 273;" xml:space="preserve">
<style type="text/css">
	.st0{fill:none;stroke:#231F20;stroke-width:2;stroke-linejoin:round;stroke-miterlimit:10;}
	.st1{stroke:#000000;stroke-width:0.5;stroke-linecap:round;stroke-linejoin:round;stroke-miterlimit:10;}
	.st2{fill:none;stroke:#000000;stroke-width:2;stroke-miterlimit:10;}
	.st3{fill:#78BF5A;stroke:#000000;stroke-width:0.5;stroke-linecap:round;stroke-linejoin:round;stroke-miterlimit:10;}
	.st4{fill:#E80F2E;stroke:#000000;stroke-width:0.5;stroke-linecap:round;stroke-linejoin:round;stroke-miterlimit:10;}
</style>
<g>
	<polygon class="st0" points="3,91.7 42.5,239 213,264.1 274.9,213.3 290.1,146.3 249.4,13.4 	"/>
	<path class="st1" d="M8.2,92.4c0,2.2-1.8,4-4,4s-4-1.8-4-4s1.8-4,4-4S8.2,90.1,8.2,92.4z"/>
	<path class="st1" d="M217.1,264.1c0,2.2-1.8,4-4,4s-4-1.8-4-4c0-2.2,1.8-4,4-4S217.1,261.8,217.1,264.1z"/>
	<path class="st1" d="M278.4,212.8c0,2.2-1.8,4-4,4c-2.2,0-4-1.8-4-4s1.8-4,4-4C276.6,208.8,278.4,210.5,278.4,212.8z"/>
	<path class="st1" d="M294.1,147.3c0,2.2-1.8,4-4,4c-2.2,0-4-1.8-4-4s1.8-4,4-4C292.3,143.3,294.1,145,294.1,147.3z"/>
	<path class="st1" d="M252,13.4c0,2.2-1.8,4-4,4s-4-1.8-4-4s1.8-4,4-4S252,11.1,252,13.4z"/>
	<g>
		<g>
			<line class="st2" x1="4.2" y1="238.7" x2="311.4" y2="238.7"/>
			<g>
				<polygon points="308,243.2 309.9,238.7 308,234.3 318.5,238.7 				"/>
			</g>
		</g>
	</g>
	<g>
		<g>
			<line class="st2" x1="42.5" y1="273" x2="42.5" y2="7.2"/>
			<g>
				<polygon points="47,10.5 42.5,8.6 38.1,10.5 42.5,0 				"/>
			</g>
		</g>
	</g>
	<path class="st1" d="M46.5,238.7c0,2.2-1.8,4-4,4s-4-1.8-4-4s1.8-4,4-4S46.5,236.4,46.5,238.7z"/>
</g>
<g>
	<g>
		<path d="M23.3,248.4l-1.8-0.3v-0.7h4.3v0.7l-2.2,0.3H23.3z M23.9,247.5l2.8,7.3l-0.7,0.9l2.9-8.3h1l-3.3,8.6h-0.7l-3.6-8.6H23.9z
			 M28.8,248.4l-1.8-0.3v-0.7h3.4v0.7l-1.3,0.3H28.8z"/>
		<path d="M36.1,255.1c0,3-1.2,4-2.5,4c-1.3,0-2.5-1-2.5-4c0-3,1.2-4.1,2.5-4.1C34.8,251.1,36.1,252.1,36.1,255.1z M33.6,258.6
			c0.7,0,1.4-0.7,1.4-3.5c0-2.8-0.7-3.5-1.4-3.5c-0.8,0-1.4,0.7-1.4,3.5C32.1,257.9,32.8,258.6,33.6,258.6z"/>
	</g>
</g>
<g>
	<g>
		<path d="M286.8,215l-1.8-0.3V214h4.3v0.7l-2.2,0.3H286.8z M287.4,214l2.8,7.3l-0.7,0.9l2.9-8.3h1l-3.3,8.6h-0.7l-3.6-8.6H287.4z
			 M292.3,215l-1.8-0.3V214h3.4v0.7l-1.3,0.3H292.3z"/>
		<path d="M295.5,225.6c0-0.5,0-1.8,0-2.5v-0.6c0-0.7,0-1,0-1.5l-1-0.1v-0.4l1.8-0.7l0.2,0.1l0,1.6v1.6c0,0.7,0,2,0,2.5H295.5z
			 M297.3,225.2v0.4h-2.8v-0.4l1.3-0.2h0.2L297.3,225.2z M295.2,217.6c0-0.5,0.3-0.8,0.8-0.8s0.8,0.3,0.8,0.8c0,0.4-0.3,0.8-0.8,0.8
			S295.2,218.1,295.2,217.6z"/>
		<path d="M298.2,222.2h2.8v0.8h-2.8V222.2z"/>
		<path d="M306.7,225.2v0.4h-4.4v-0.4l1.7-0.3h1L306.7,225.2z M304.9,217.7l0.2,0.1l0,1.7v3.5c0,0.8,0,1.7,0,2.5h-1
			c0-0.8,0-1.7,0-2.5v-4.3l-1.6,0.1v-0.5L304.9,217.7z"/>
	</g>
</g>
<g>
	<g>
		<path d="M303.3,147.2l-1.8-0.3v-0.7h4.3v0.7l-2.2,0.3H303.3z M303.9,146.2l2.8,7.3l-0.7,0.9l2.9-8.3h1l-3.3,8.6h-0.7l-3.6-8.6
			H303.9z M308.8,147.2l-1.8-0.3v-0.7h3.4v0.7l-1.3,0.3H308.8z"/>
		<path d="M311.9,157.8c0-0.5,0-1.8,0-2.5v-0.6c0-0.7,0-1,0-1.5l-1-0.1v-0.4l1.8-0.7l0.2,0.1l0,1.6v1.6c0,0.7,0,2,0,2.5H311.9z
			 M313.8,157.3v0.4H311v-0.4l1.3-0.2h0.2L313.8,157.3z M311.6,149.8c0-0.5,0.3-0.8,0.8-0.8c0.4,0,0.8,0.3,0.8,0.8
			c0,0.4-0.3,0.8-0.8,0.8C312,150.6,311.6,150.3,311.6,149.8z"/>
	</g>
</g>
<g>
	<g>
		<path d="M262.1,12.2l-1.8-0.3v-0.7h4.3v0.7l-2.2,0.3H262.1z M262.6,11.2l2.8,7.3l-0.7,0.9l2.9-8.3h1l-3.3,8.6h-0.7l-3.6-8.6H262.6
			z M267.6,12.2l-1.8-0.3v-0.7h3.4v0.7l-1.3,0.3H267.6z"/>
		<path d="M270.7,22.8c0-0.5,0-1.8,0-2.5v-0.6c0-0.7,0-1,0-1.5l-1-0.1v-0.4l1.8-0.7l0.2,0.1l0,1.6v1.6c0,0.7,0,2,0,2.5H270.7z
			 M272.6,22.4v0.4h-2.8v-0.4l1.3-0.2h0.2L272.6,22.4z M270.4,14.8c0-0.5,0.3-0.8,0.8-0.8c0.4,0,0.8,0.3,0.8,0.8
			c0,0.4-0.3,0.8-0.8,0.8C270.8,15.6,270.4,15.3,270.4,14.8z"/>
		<path d="M273.3,19.2v-0.7h5.7v0.7H273.3z M275.8,15.8h0.7v6h-0.7V15.8z"/>
		<path d="M284.6,22.4v0.4h-4.4v-0.4l1.7-0.3h1L284.6,22.4z M282.8,14.9l0.2,0.1l0,1.7v3.5c0,0.8,0,1.7,0,2.5h-1c0-0.8,0-1.7,0-2.5
			v-4.3l-1.6,0.1v-0.5L282.8,14.9z"/>
	</g>
</g>
<g>
	<path class="st3" d="M101.6,166.5c0,2.2-1.8,4-4,4s-4-1.8-4-4s1.8-4,4-4S101.6,164.2,101.6,166.5z"/>
	<path class="st3" d="M76.6,158.5c0,2.2-1.8,4-4,4s-4-1.8-4-4s1.8-4,4-4S76.6,156.2,76.6,158.5z"/>
	<path class="st3" d="M227.1,152.8c0,2.2-1.8,4-4,4s-4-1.8-4-4s1.8-4,4-4S227.1,150.5,227.1,152.8z"/>
	<path class="st3" d="M89.6,142.6c0,2.2-1.8,4-4,4s-4-1.8-4-4s1.8-4,4-4S89.6,140.3,89.6,142.6z"/>
	<path class="st3" d="M85.6,183.1c0,2.2-1.8,4-4,4s-4-1.8-4-4s1.8-4,4-4S85.6,180.8,85.6,183.1z"/>
	<path class="st3" d="M82.6,202.4c0,2.2-1.8,4-4,4s-4-1.8-4-4s1.8-4,4-4S82.6,200.1,82.6,202.4z"/>
	<path class="st3" d="M182.8,214.9c0,2.2-1.8,4-4,4s-4-1.8-4-4s1.8-4,4-4S182.8,212.6,182.8,214.9z"/>
	<path class="st3" d="M65.6,184.2c0,2.2-1.8,4-4,4s-4-1.8-4-4s1.8-4,4-4S65.6,181.9,65.6,184.2z"/>
	<path class="st3" d="M247.3,60.8c0,2.2-1.8,4-4,4s-4-1.8-4-4s1.8-4,4-4S247.3,58.5,247.3,60.8z"/>
	<path class="st3" d="M190.8,48.6c0,2.2-1.8,4-4,4s-4-1.8-4-4s1.8-4,4-4S190.8,46.3,190.8,48.6z"/>
	<path class="st3" d="M221.1,56.8c0,2.2-1.8,4-4,4s-4-1.8-4-4s1.8-4,4-4S221.1,54.5,221.1,56.8z"/>
	<path class="st3" d="M241.1,32.2c0,2.2-1.8,4-4,4s-4-1.8-4-4s1.8-4,4-4S241.1,29.9,241.1,32.2z"/>
	<path class="st3" d="M197,70.9c0,2.2-1.8,4-4,4s-4-1.8-4-4s1.8-4,4-4S197,68.6,197,70.9z"/>
	<path class="st3" d="M221.1,83.4c0,2.2-1.8,4-4,4s-4-1.8-4-4s1.8-4,4-4S221.1,81.1,221.1,83.4z"/>
	<path class="st4" d="M274.1,80.4c0,2.2-1.8,4-4,4c-2.2,0-4-1.8-4-4s1.8-4,4-4C272.3,76.4,274.1,78.1,274.1,80.4z"/>
	<path class="st3" d="M201,104.7c0,2.2-1.8,4-4,4s-4-1.8-4-4s1.8-4,4-4S201,102.4,201,104.7z"/>
	<path class="st3" d="M256,115.3c0,2.2-1.8,4-4,4s-4-1.8-4-4s1.8-4,4-4S256,113,256,115.3z"/>
	<path class="st3" d="M209,138.6c0,2.2-1.8,4-4,4s-4-1.8-4-4s1.8-4,4-4S209,136.3,209,138.6z"/>
	<path class="st3" d="M221.1,192.9c0,2.2-1.8,4-4,4s-4-1.8-4-4s1.8-4,4-4S221.1,190.6,221.1,192.9z"/>
	<path class="st3" d="M221.1,111.3c0,2.2-1.8,4-4,4s-4-1.8-4-4s1.8-4,4-4S221.1,109,221.1,111.3z"/>
	<path class="st4" d="M287.1,180.2c0,2.2-1.8,4-4,4c-2.2,0-4-1.8-4-4s1.8-4,4-4C285.3,176.2,287.1,177.9,287.1,180.2z"/>
	<path class="st3" d="M256,210.8c0,2.2-1.8,4-4,4s-4-1.8-4-4s1.8-4,4-4S256,208.5,256,210.8z"/>
	<path class="st3" d="M216.1,169.2c0,2.2-1.8,4-4,4s-4-1.8-4-4s1.8-4,4-4S216.1,166.9,216.1,169.2z"/>
	<path class="st3" d="M225.1,228c0,2.2-1.8,4-4,4s-4-1.8-4-4s1.8-4,4-4S225.1,225.7,225.1,228z"/>
	<path class="st3" d="M197,228c0,2.2-1.8,4-4,4s-4-1.8-4-4s1.8-4,4-4S197,225.7,197,228z"/>
	<path class="st3" d="M55.4,230.9c0,2.2-1.8,4-4,4s-4-1.8-4-4s1.8-4,4-4S55.4,228.6,55.4,230.9z"/>
	<path class="st3" d="M157.4,248.5c0,2.2-1.8,4-4,4s-4-1.8-4-4s1.8-4,4-4S157.4,246.2,157.4,248.5z"/>
	<path class="st3" d="M175.5,187.1c0,2.2-1.8,4-4,4s-4-1.8-4-4s1.8-4,4-4S175.5,184.8,175.5,187.1z"/>
	<path class="st3" d="M51.4,200c0,2.2-1.8,4-4,4s-4-1.8-4-4s1.8-4,4-4S51.4,197.7,51.4,200z"/>
	<path class="st4" d="M125.8,250.5c0,2.2-1.8,4-4,4s-4-1.8-4-4s1.8-4,4-4S125.8,248.2,125.8,250.5z"/>
	<path class="st3" d="M201,252.5c0,2.2-1.8,4-4,4s-4-1.8-4-4s1.8-4,4-4S201,250.2,201,252.5z"/>
	<path class="st3" d="M69.6,220c0,2.2-1.8,4-4,4c-2.2,0-4-1.8-4-4s1.8-4,4-4C67.8,216,69.6,217.7,69.6,220z"/>
	<path class="st3" d="M171.5,152.8c0,2.2-1.8,4-4,4s-4-1.8-4-4s1.8-4,4-4S171.5,150.5,171.5,152.8z"/>
	<path class="st3" d="M148.1,140.8c0,2.2-1.8,4-4,4s-4-1.8-4-4s1.8-4,4-4S148.1,138.5,148.1,140.8z"/>
	<path class="st3" d="M149.3,108.3c0,2.2-1.8,4-4,4s-4-1.8-4-4s1.8-4,4-4S149.3,106,149.3,108.3z"/>
	<path class="st3" d="M166.3,128.8c0,2.2-1.8,4-4,4s-4-1.8-4-4c0-2.2,1.8-4,4-4S166.3,126.5,166.3,128.8z"/>
	<path class="st3" d="M160.3,170.2c0,2.2-1.8,4-4,4s-4-1.8-4-4s1.8-4,4-4S160.3,167.9,160.3,170.2z"/>
	<path class="st3" d="M193,173.5c0,2.2-1.8,4-4,4s-4-1.8-4-4s1.8-4,4-4S193,171.2,193,173.5z"/>
	<path class="st3" d="M193.8,124.6c0,2.2-1.8,4-4,4s-4-1.8-4-4s1.8-4,4-4S193.8,122.3,193.8,124.6z"/>
	<path class="st3" d="M124.9,166.5c0,2.2-1.8,4-4,4s-4-1.8-4-4s1.8-4,4-4S124.9,164.2,124.9,166.5z"/>
	<path class="st3" d="M85.6,116.3c0,2.2-1.8,4-4,4s-4-1.8-4-4s1.8-4,4-4S85.6,114,85.6,116.3z"/>
	<path class="st3" d="M65.6,85.8c0,2.2-1.8,4-4,4s-4-1.8-4-4s1.8-4,4-4S65.6,83.5,65.6,85.8z"/>
	<path class="st3" d="M61.6,138.5c0,2.2-1.8,4-4,4s-4-1.8-4-4s1.8-4,4-4S61.6,136.2,61.6,138.5z"/>
	<path class="st3" d="M97.6,81.8c0,2.2-1.8,4-4,4s-4-1.8-4-4s1.8-4,4-4S97.6,79.5,97.6,81.8z"/>
	<path class="st3" d="M39.4,123.5c0,2.2-1.8,4-4,4s-4-1.8-4-4s1.8-4,4-4S39.4,121.2,39.4,123.5z"/>
	<path class="st3" d="M106.9,127.7c0,2.2-1.8,4-4,4s-4-1.8-4-4s1.8-4,4-4S106.9,125.4,106.9,127.7z"/>
	<path class="st3" d="M105.6,105.9c0,2.2-1.8,4-4,4s-4-1.8-4-4s1.8-4,4-4S105.6,103.6,105.6,105.9z"/>
	<path class="st3" d="M197,196.9c0,2.2-1.8,4-4,4s-4-1.8-4-4s1.8-4,4-4S197,194.6,197,196.9z"/>
	<path class="st3" d="M175.5,85c0,2.2-1.8,4-4,4s-4-1.8-4-4s1.8-4,4-4S175.5,82.7,175.5,85z"/>
	<path class="st3" d="M127.8,64.8c0,2.2-1.8,4-4,4s-4-1.8-4-4c0-2.2,1.8-4,4-4S127.8,62.5,127.8,64.8z"/>
	<path class="st3" d="M146.3,85.8c0,2.2-1.8,4-4,4s-4-1.8-4-4s1.8-4,4-4S146.3,83.5,146.3,85.8z"/>
	<path class="st3" d="M161.4,66.9c0,2.2-1.8,4-4,4s-4-1.8-4-4s1.8-4,4-4S161.4,64.6,161.4,66.9z"/>
	<path class="st3" d="M124.9,97.3c0,2.2-1.8,4-4,4s-4-1.8-4-4s1.8-4,4-4S124.9,95,124.9,97.3z"/>
	<path class="st3" d="M175.5,108.7c0,2.2-1.8,4-4,4s-4-1.8-4-4s1.8-4,4-4S175.5,106.4,175.5,108.7z"/>
	<path class="st3" d="M217.1,32.2c0,2.2-1.8,4-4,4s-4-1.8-4-4s1.8-4,4-4S217.1,29.9,217.1,32.2z"/>
	<path class="st3" d="M128.2,124.6c0,2.2-1.8,4-4,4s-4-1.8-4-4s1.8-4,4-4S128.2,122.3,128.2,124.6z"/>
	<path class="st3" d="M139.8,207.9c0,2.2-1.8,4-4,4s-4-1.8-4-4s1.8-4,4-4S139.8,205.6,139.8,207.9z"/>
	<path class="st3" d="M46.4,100.7c0,2.2-1.8,4-4,4s-4-1.8-4-4s1.8-4,4-4S46.4,98.4,46.4,100.7z"/>
	<path class="st3" d="M115.8,147.6c0,2.2-1.8,4-4,4s-4-1.8-4-4s1.8-4,4-4S115.8,145.3,115.8,147.6z"/>
	<path class="st4" d="M146.3,47.6c0,2.2-1.8,4-4,4s-4-1.8-4-4s1.8-4,4-4S146.3,45.3,146.3,47.6z"/>
	<path class="st3" d="M149.4,187.1c0,2.2-1.8,4-4,4s-4-1.8-4-4s1.8-4,4-4S149.4,184.8,149.4,187.1z"/>
	<path class="st3" d="M162.3,225.6c0,2.2-1.8,4-4,4s-4-1.8-4-4s1.8-4,4-4S162.3,223.3,162.3,225.6z"/>
	<path class="st3" d="M166.3,202.8c0,2.2-1.8,4-4,4s-4-1.8-4-4s1.8-4,4-4S166.3,200.5,166.3,202.8z"/>
	<path class="st3" d="M136.2,230.9c0,2.2-1.8,4-4,4s-4-1.8-4-4s1.8-4,4-4S136.2,228.6,136.2,230.9z"/>
	<path class="st3" d="M65.6,107.9c0,2.2-1.8,4-4,4s-4-1.8-4-4s1.8-4,4-4S65.6,105.6,65.6,107.9z"/>
	<path class="st3" d="M21.5,104.9c0,2.2-1.8,4-4,4s-4-1.8-4-4s1.8-4,4-4S21.5,102.6,21.5,104.9z"/>
	<path class="st3" d="M37.4,147.8c0,2.2-1.8,4-4,4s-4-1.8-4-4s1.8-4,4-4S37.4,145.5,37.4,147.8z"/>
	<path class="st4" d="M46.4,79.8c0,2.2-1.8,4-4,4s-4-1.8-4-4s1.8-4,4-4S46.4,77.5,46.4,79.8z"/>
	<path class="st4" d="M18.5,136.8c0,2.2-1.8,4-4,4s-4-1.8-4-4s1.8-4,4-4S18.5,134.5,18.5,136.8z"/>
	<path class="st3" d="M282.4,160.8c0,2.2-1.8,4-4,4c-2.2,0-4-1.8-4-4s1.8-4,4-4C280.6,156.8,282.4,158.5,282.4,160.8z"/>
	<path class="st3" d="M56.4,164.5c0,2.2-1.8,4-4,4s-4-1.8-4-4s1.8-4,4-4S56.4,162.2,56.4,164.5z"/>
	<path class="st3" d="M37.4,177.5c0,2.2-1.8,4-4,4s-4-1.8-4-4s1.8-4,4-4S37.4,175.2,37.4,177.5z"/>
	<path class="st3" d="M112.9,210.8c0,2.2-1.8,4-4,4s-4-1.8-4-4s1.8-4,4-4S112.9,208.5,112.9,210.8z"/>
	<path class="st3" d="M105.9,189.9c0,2.2-1.8,4-4,4s-4-1.8-4-4s1.8-4,4-4S105.9,187.6,105.9,189.9z"/>
	<path class="st3" d="M274.4,103.3c0,2.2-1.8,4-4,4c-2.2,0-4-1.8-4-4s1.8-4,4-4C272.6,99.3,274.4,101,274.4,103.3z"/>
	<path class="st3" d="M192.8,152.8c0,2.2-1.8,4-4,4s-4-1.8-4-4s1.8-4,4-4S192.8,150.5,192.8,152.8z"/>
	<path class="st3" d="M92.6,223.9c0,2.2-1.8,4-4,4s-4-1.8-4-4s1.8-4,4-4S92.6,221.6,92.6,223.9z"/>
	<path class="st3" d="M113.6,236.5c0,2.2-1.8,4-4,4s-4-1.8-4-4s1.8-4,4-4S113.6,234.2,113.6,236.5z"/>
	<path class="st3" d="M128.9,187.1c0,2.2-1.8,4-4,4s-4-1.8-4-4s1.8-4,4-4S128.9,184.8,128.9,187.1z"/>
	<path class="st3" d="M87.6,242.7c0,2.2-1.8,4-4,4s-4-1.8-4-4s1.8-4,4-4S87.6,240.4,87.6,242.7z"/>
	<path class="st3" d="M233.1,131.7c0,2.2-1.8,4-4,4s-4-1.8-4-4s1.8-4,4-4S233.1,129.4,233.1,131.7z"/>
	<path class="st3" d="M269.1,136.8c0,2.2-1.8,4-4,4c-2.2,0-4-1.8-4-4s1.8-4,4-4C267.3,132.8,269.1,134.5,269.1,136.8z"/>
	<path class="st3" d="M260,168.2c0,2.2-1.8,4-4,4c-2.2,0-4-1.8-4-4s1.8-4,4-4C258.2,164.2,260,165.9,260,168.2z"/>
	<path class="st3" d="M251.3,148.8c0,2.2-1.8,4-4,4s-4-1.8-4-4s1.8-4,4-4S251.3,146.5,251.3,148.8z"/>
	<path class="st3" d="M245.1,191.9c0,2.2-1.8,4-4,4s-4-1.8-4-4s1.8-4,4-4S245.1,189.6,245.1,191.9z"/>
	<path class="st3" d="M247.3,89c0,2.2-1.8,4-4,4s-4-1.8-4-4s1.8-4,4-4S247.3,86.7,247.3,89z"/>
	<path class="st3" d="M209,214.8c0,2.2-1.8,4-4,4s-4-1.8-4-4s1.8-4,4-4S209,212.5,209,214.8z"/>
	<path class="st3" d="M229.1,244.7c0,2.2-1.8,4-4,4s-4-1.8-4-4s1.8-4,4-4S229.1,242.4,229.1,244.7z"/>
	<path class="st4" d="M259,229.9c0,2.2-1.8,4-4,4c-2.2,0-4-1.8-4-4s1.8-4,4-4C257.2,225.9,259,227.6,259,229.9z"/>
	<path class="st3" d="M269.1,191.1c0,2.2-1.8,4-4,4c-2.2,0-4-1.8-4-4s1.8-4,4-4C267.3,187.1,269.1,188.8,269.1,191.1z"/>
	<path class="st3" d="M241.1,172.2c0,2.2-1.8,4-4,4s-4-1.8-4-4s1.8-4,4-4S241.1,169.9,241.1,172.2z"/>
	<path class="st3" d="M144.1,160.5c0,2.2-1.8,4-4,4s-4-1.8-4-4s1.8-4,4-4S144.1,158.2,144.1,160.5z"/>
	<path class="st3" d="M182.8,240.7c0,2.2-1.8,4-4,4s-4-1.8-4-4s1.8-4,4-4S182.8,238.4,182.8,240.7z"/>
	<path class="st3" d="M235.1,211.9c0,2.2-1.8,4-4,4s-4-1.8-4-4s1.8-4,4-4S235.1,209.6,235.1,211.9z"/>
</g>
</svg>
