<?xml version="1.0" encoding="utf-8"?>
<!-- Generator: Adobe Illustrator 24.0.3, SVG Export Plug-In . SVG Version: 6.00 Build 0)  -->
<svg version="1.1" xmlns="http://www.w3.org/2000/svg" xmlns:xlink="http://www.w3.org/1999/xlink" x="0px" y="0px" width="441px"
	 height="441.2px" viewBox="0 0 441 441.2" style="enable-background:new 0 0 441 441.2;" xml:space="preserve">
<style type="text/css">
	.st0{fill-rule:evenodd;clip-rule:evenodd;fill-opacity:4.705882e-02;}
	.st1{fill:none;stroke:#E80F2E;stroke-width:2;stroke-linecap:round;stroke-linejoin:round;stroke-miterlimit:10;}
	.st2{fill:none;stroke:#000000;stroke-width:2;stroke-linejoin:round;}
	.st3{fill:none;stroke:#000000;stroke-width:2;stroke-linejoin:round;stroke-dasharray:8.8808,7.894;}
	.st4{fill:none;stroke:#000000;stroke-width:2;stroke-linejoin:round;stroke-dasharray:8.8957,7.9073;}
	.st5{fill:none;stroke:#000000;stroke-width:2;stroke-linejoin:round;stroke-dasharray:9.0674,8.0599;}
	.st6{fill:none;stroke:#000000;stroke-width:2;stroke-linejoin:round;stroke-dasharray:8.8645,7.8796;}
	.st7{fill:none;stroke:#000000;stroke-width:2;stroke-linejoin:round;stroke-dasharray:9.0176,8.0156;}
	.st8{fill:none;stroke:#000000;stroke-width:2;stroke-linejoin:round;stroke-dasharray:8.9985,7.9987;}
	.st9{fill:none;stroke:#000000;stroke-width:2;stroke-linecap:round;stroke-linejoin:round;stroke-miterlimit:10;}
	.st10{stroke:#000000;stroke-width:0.5;stroke-linecap:round;stroke-linejoin:round;stroke-miterlimit:10;}
	.st11{fill:#0099FF;}
	.st12{fill:#5E7CEA;stroke:#000000;stroke-width:0.5;stroke-linecap:round;stroke-linejoin:round;stroke-miterlimit:10;}
</style>
<g id="Layer_2">
</g>
<g id="Layer_1">
	<path class="st0" d="M119.3,286.3L232,258.4l26.6-104.5l-100.7-43.7L86,151L76.8,229L119.3,286.3z"/>
	<path class="st1" d="M198,392.3c91.6,9.3,176.2-49.9,198.8-139.1C419.5,163.9,373.4,71.6,288.5,36"/>
	<path class="st1" d="M288.5,36c-52-15.8-108.1-9.5-155.3,17.3s-81.4,71.8-94.5,124.5"/>
	<path class="st1" d="M38.7,177.8C32.2,278.6,99.6,369.4,198,392.3"/>
	<g>
		<g>
			<line class="st2" x1="0.8" y1="315.6" x2="5.2" y2="314.5"/>
			<line class="st3" x1="12.8" y1="312.6" x2="432.4" y2="208.9"/>
			<line class="st2" x1="436.2" y1="208" x2="440.6" y2="206.9"/>
		</g>
	</g>
	<g>
		<g>
			<line class="st2" x1="185.7" y1="440.7" x2="186.8" y2="436.3"/>
			<line class="st4" x1="188.8" y1="428.7" x2="295.4" y2="9.1"/>
			<line class="st2" x1="296.3" y1="5.2" x2="297.5" y2="0.9"/>
		</g>
	</g>
	<g>
		<g>
			<line class="st2" x1="0.8" y1="42" x2="4.9" y2="43.8"/>
			<line class="st5" x1="12.3" y1="47" x2="432.8" y2="229.6"/>
			<line class="st2" x1="436.5" y1="231.2" x2="440.6" y2="233"/>
		</g>
	</g>
	<g>
		<g>
			<line class="st2" x1="0.8" y1="199.3" x2="4.7" y2="197.1"/>
			<line class="st6" x1="11.6" y1="193.2" x2="343.1" y2="5"/>
			<line class="st2" x1="346.5" y1="3.1" x2="350.4" y2="0.9"/>
		</g>
	</g>
	<g>
		<g>
			<line class="st2" x1="51.9" y1="440.7" x2="52.4" y2="436.2"/>
			<line class="st7" x1="53.3" y1="428.3" x2="102.6" y2="9.3"/>
			<line class="st2" x1="103.1" y1="5.3" x2="103.6" y2="0.9"/>
		</g>
	</g>
	<g>
		<g>
			<line class="st2" x1="233.9" y1="440.6" x2="231.2" y2="437"/>
			<line class="st8" x1="226.4" y1="430.6" x2="5.9" y2="133.6"/>
			<line class="st2" x1="3.5" y1="130.3" x2="0.8" y2="126.7"/>
		</g>
	</g>
	<path class="st9" d="M119.3,286.3L232,258.4"/>
	<path class="st9" d="M232,258.4l26.6-104.5"/>
	<path class="st9" d="M258.6,153.9l-100.7-43.7"/>
	<path class="st9" d="M157.8,110.2L86,151"/>
	<path class="st9" d="M86,151L76.8,229"/>
	<path class="st9" d="M76.8,229l42.5,57.3"/>
	<path d="M78.5,229c0,1-0.8,1.7-1.7,1.7c-1,0-1.7-0.8-1.7-1.7c0-1,0.8-1.7,1.7-1.7C77.7,227.3,78.5,228.1,78.5,229z"/>
	<path class="st10" d="M80.3,229c0,1.9-1.6,3.5-3.5,3.5c-1.9,0-3.5-1.6-3.5-3.5c0-1.9,1.6-3.5,3.5-3.5
		C78.7,225.5,80.3,227.1,80.3,229z"/>
	<path d="M121,286.3c0,1-0.8,1.7-1.7,1.7s-1.7-0.8-1.7-1.7c0-1,0.8-1.7,1.7-1.7S121,285.3,121,286.3z"/>
	<path class="st10" d="M122.8,286.3c0,1.9-1.6,3.5-3.5,3.5s-3.5-1.6-3.5-3.5c0-1.9,1.6-3.5,3.5-3.5S122.8,284.4,122.8,286.3z"/>
	<path d="M233.8,258.4c0,1-0.8,1.7-1.7,1.7c-1,0-1.7-0.8-1.7-1.7s0.8-1.7,1.7-1.7C233,256.7,233.8,257.5,233.8,258.4z"/>
	<path class="st10" d="M235.5,258.4c0,1.9-1.6,3.5-3.5,3.5c-1.9,0-3.5-1.6-3.5-3.5s1.6-3.5,3.5-3.5
		C233.9,254.9,235.5,256.5,235.5,258.4z"/>
	<path d="M260.3,153.9c0,1-0.8,1.7-1.7,1.7c-1,0-1.7-0.8-1.7-1.7s0.8-1.7,1.7-1.7C259.5,152.2,260.3,152.9,260.3,153.9z"/>
	<path class="st10" d="M262.1,153.9c0,1.9-1.6,3.5-3.5,3.5c-1.9,0-3.5-1.6-3.5-3.5s1.6-3.5,3.5-3.5
		C260.5,150.4,262.1,152,262.1,153.9z"/>
	<path d="M159.6,110.2c0,1-0.8,1.7-1.7,1.7c-1,0-1.7-0.8-1.7-1.7s0.8-1.7,1.7-1.7C158.8,108.4,159.6,109.2,159.6,110.2z"/>
	<path class="st10" d="M161.3,110.2c0,1.9-1.6,3.5-3.5,3.5c-1.9,0-3.5-1.6-3.5-3.5s1.6-3.5,3.5-3.5
		C159.8,106.7,161.3,108.2,161.3,110.2z"/>
	<path d="M87.7,151c0,1-0.8,1.7-1.7,1.7c-1,0-1.7-0.8-1.7-1.7s0.8-1.7,1.7-1.7C86.9,149.2,87.7,150,87.7,151z"/>
	<path class="st10" d="M89.5,151c0,1.9-1.6,3.5-3.5,3.5c-1.9,0-3.5-1.6-3.5-3.5s1.6-3.5,3.5-3.5C87.9,147.5,89.5,149,89.5,151z"/>
	<path class="st11" d="M199.7,392.3c0,1-0.8,1.7-1.7,1.7c-1,0-1.7-0.8-1.7-1.7c0-1,0.8-1.7,1.7-1.7
		C199,390.6,199.7,391.4,199.7,392.3z"/>
	<path class="st12" d="M202,392.3c0,2.2-1.8,4-4,4c-2.2,0-4-1.8-4-4c0-2.2,1.8-4,4-4C200.2,388.3,202,390.1,202,392.3z"/>
	<path class="st11" d="M404.1,216.3c0,1-0.8,1.7-1.7,1.7c-1,0-1.7-0.8-1.7-1.7c0-1,0.8-1.7,1.7-1.7
		C403.3,214.6,404.1,215.4,404.1,216.3z"/>
	<path class="st12" d="M406.4,216.3c0,2.2-1.8,4-4,4c-2.2,0-4-1.8-4-4c0-2.2,1.8-4,4-4C404.6,212.3,406.4,214.1,406.4,216.3z"/>
	<path class="st11" d="M290.3,36c0,1-0.8,1.7-1.7,1.7s-1.7-0.8-1.7-1.7c0-1,0.8-1.7,1.7-1.7S290.3,35,290.3,36z"/>
	<path class="st12" d="M292.5,36c0,2.2-1.8,4-4,4c-2.2,0-4-1.8-4-4c0-2.2,1.8-4,4-4C290.7,32,292.5,33.8,292.5,36z"/>
	<path class="st11" d="M95.8,82.4c0,1-0.8,1.7-1.7,1.7s-1.7-0.8-1.7-1.7c0-1,0.8-1.7,1.7-1.7S95.8,81.5,95.8,82.4z"/>
	<path class="st12" d="M98,82.4c0,2.2-1.8,4-4,4s-4-1.8-4-4c0-2.2,1.8-4,4-4S98,80.2,98,82.4z"/>
	<path class="st11" d="M40.4,177.8c0,1-0.8,1.7-1.7,1.7c-1,0-1.7-0.8-1.7-1.7s0.8-1.7,1.7-1.7C39.7,176,40.4,176.8,40.4,177.8z"/>
	<path class="st12" d="M42.7,177.8c0,2.2-1.8,4-4,4c-2.2,0-4-1.8-4-4c0-2.2,1.8-4,4-4C40.9,173.8,42.7,175.6,42.7,177.8z"/>
	<path class="st11" d="M70.3,298.8c0,1-0.8,1.7-1.7,1.7c-1,0-1.7-0.8-1.7-1.7s0.8-1.7,1.7-1.7C69.5,297.1,70.3,297.9,70.3,298.8z"/>
	<path class="st12" d="M72.6,298.8c0,2.2-1.8,4-4,4c-2.2,0-4-1.8-4-4c0-2.2,1.8-4,4-4C70.8,294.8,72.6,296.6,72.6,298.8z"/>
</g>
</svg>
