ply
format ascii 1.0
element vertex 117
property double x
property double y
property double z
element face 25
property list uchar int vertex_indices
property uchar red
property uchar green
property uchar blue
property uchar alpha
end_header
-0.6492317709099472145 0.91792816155549949997 -0.51732626893022093384
-1 0.76722113316647844172 0.62712356466808694133
-1 -0.64386322231390069604 0.30321177247198505267
-0.87052401622459041342 -0.46254105443126569686 -0.090376307090844987258
-0.35169696785521897819 0.70213114630269379823 0.02114275573886437512
-0.78782210972903821133 1 -0.14375138575726664758
-0.81540246630262891436 0.99999999999999977796 -0.1085365890051015747
-0.5411552708796627531 0.74783678081223103895 0.1522988599233230933
-0.33109888810266563386 0.62784047086457483999 0.17485068649727336654
-0.16471584362075969432 -0.080172330498310601099 0.67677845277850212646
0.44591106311357664449 -0.45364960025535860932 0.96973331371159066094
0.51520691600044488112 -0.49996271153876503668 1.000000000000000222
0.91698588032426342487 -1 1
0.53796047120766532501 -1 0.64243635819418853927
-1 -0.016842486986782020941 0.52521385379954355077
-0.53743616288634588063 0.24962438081452456573 0.87669178481952791948
-0.72537733796147962906 -0.099784587777209679538 1
-0.77969725691974933746 -0.16847801453348681955 1
-1 -0.35000203074473029696 0.89287467626918470831
0.33757439711251369108 -0.75880247116554011555 -1.000000000000000222
0.072014825397744439139 -0.36794234909335810091 -1
-0.060942240371767777973 -0.14370050701649350611 -0.6978890451543255935
0.15725173706824674413 -0.42999980043500851679 -0.32916127858043564558
0.29811959633777973533 -0.68252853783275591049 -0.80738553670425272646
-0.22992320028697199596 0.93168638151668892178 1
-0.19566622887626466953 1.000000000000000222 0.93853293377818625132
-0.073294138191916255454 1.000000000000000222 0.47793377148881177607
0.04416005704767439477 0.48724372899406698245 -0.47060556985633483773
-0.40362563379188320933 -0.61727553250791888928 0.12388874949527549363
-0.57359060181786003518 -0.37795640797502616515 1
-0.14436866058795300161 0.72702169729402255083 -0.72257920335441283566
-0.37872294609794365794 0.9037030366728677766 -0.17877151097741655894
-1 0.74828599909777404608 0.83653563879324399633
-1 0.73531058169462093499 0.82766762366959034658
-0.27922134509899482202 0.66680881618307574765 -0.52029608558064333046
0.83548753420717714047 0.67466804343210751149 -0.74242251113834467624
-0.15592489388000135841 0.27847714437158577194 0.34401217164763620016
0.26081328891060129305 0.88618548778923589282 0.64849086116383847234
0.57567830745574621876 0.97672139222755338661 0.24255876759513950169
0.54410182015599517502 -0.49637763391477435215 0.21766789665001329279
-0.087528866858300830023 -1.000000000000000222 0.8517897556756853783
-0.13041709660906361523 -1 1
0.93371941813470216154 0.19590383610479519816 1
1.000000000000000222 -0.11338311245161639129 0.36148673879328929726
0.42176632597040675243 0.081800884664054607232 1
0.22151963098054278101 -0.38172532953167293002 1
0.51713461990863240914 -1 0.4577043870386293678
1 -1 -0.0076398394711159889336
0.068478752695994363209 -0.20649268396450842777 -0.60084976560817560109
-0.2157907349927216667 0.49028663577496905956 -0.73158457680322219741
0.68698107798300633853 0.36619177727048579651 -0.84314692362574739093
1 -0.082797465151927512883 -0.77945088259527106622
1 -0.35113615686187604759 -0.71177942453669551526
0.15844645269231852347 -0.99999999999999977796 -0.29876907805630570358
-0.50325989907105683763 0.43061223639810369823 0.59961170039982780722
1 -0.99277449079407209531 0.13614690705032894691
1 -1 0.12990711652633826767
-0.0038697562321951158026 -0.2092804820791369369 1
-0.13466898160848270183 -0.18943295961834066832 0.74661747899225061609
-0.78091660055402201124 -1 -0.17165992600863044792
-0.15818069007579349528 -1 1
0.6805587115233990847 0.2086271508925354734 0.99623921542063520462
0.87888013547572563233 0.66749985183900140129 0.53443169670698542628
1 0.62168101270250564205 0.63904769706411379548
1 0.31729080937067533075 1
0.68720944869058797622 0.20778408687450627967 1
0.78380286468472859518 0.12112115207231168024 -0.28695265694925847777
0.89123107322060024504 0.73905230976413682775 -1.000000000000000222
0.90176151967189399628 0.76824676717872408815 -1
1 0.76360831133992357334 -0.38297350898227755511
1 0.60031896537880080622 -0.019232520870773102406
0.95524797765942093264 0.25896284577572681318 0.46479121338306816913
1 0.28215160907218989061 -1
0.20486057234245597103 1 -1
-0.31955324795974160423 0.99999999999999988898 1
0.26375465583623591836 0.47339218055257054063 1
1 0.21293681086934143631 -0.70760807008003934193
0.93205441963266344452 0.51312744114172326171 0.17798468863530214623
0.95306669461659732079 0.73620260836307394037 0.61448304224030481091
1 0.67760696275286202983 0.53529298969943339692
1 0.43051997234949623827 0.067546703173053404545
0.23978421192894477931 1.000000000000000222 -0.056683814713617566849
-0.14537717489131940507 0.76231398297719898949 0.14954579072591273059
0.55580507184387273334 0.4982681176938174028 0.28947195695905408863
0.66111802561863297623 1 -0.089961373568054295302
1 0.41039611511363649488 0.15700215553257929058
0.40561314037123596954 0.16428539449352308477 0.36608123624678262642
-0.87863650634538115192 -0.61317604904607025951 0.9732228013696633262
0.053094332061920032628 -0.53200067674124418282 0.83813687316315088616
1 0.25084222193721827932 0.25791300734344468903
0.82827464602806388783 -0.50877996442381301367 -0.21619278114467774254
0.51132050733107003992 0.087336350168877696643 -0.86703492239518198392
0.20815925242309057941 0.17918930408955463518 -0.27491245150032261879
0.49656446951208527141 -0.22169335713804710908 -0.04211690175293046623
0.99999999999999988898 -0.54224923537887714797 0.48190793646580520893
0.99999999999999977796 0.4805694899954512378 0.31241803813949031721
0.59639183951280461127 0.35444417770189529104 -0.35031356208238123573
0.98828692508008342266 -0.59235340613925846487 0.47037101967785932555
-0.1220678586438428137 1 -0.0094625688871973825944
-0.37481290170503250847 1 -0.26459286050946539959
-0.82110692726043832401 0.45423850863638548514 -0.59430902624475590024
-0.74420227403362726459 0.39721806107475071679 -0.50405864510012365898
-0.14176608275245100588 0.85522782182161405373 0.0026947551752278531279
0.28264605244110668769 -0.77362953971203884951 -0.27370539420898232219
-0.13631812824137545803 -0.066754149027186210352 0.66058992382421166667
0.26309933411807906456 -0.30889706059192378884 0.53511494354878086366
0.95265660871189505876 -0.94344153389661333797 -0.065238938746861346862
-1 -0.88923214753906743013 -0.407162952148310886
-0.47942754440669932414 -0.48542127170889370902 -1
-0.025260989961111184748 -0.094209931014312020547 -0.99999999999999977796
-0.32932274143438600156 -0.23638274507190698559 0.59158277029439720884
-0.89747782714584189989 -0.69792251469887167659 0.96188648570114776426
-1 -0.79568399890303942446 0.83626966784757938989
-0.10925296823339344932 -0.81507245317875165469 0.18176785520288296638
-0.42680345675856207199 -0.82508281526252780225 0.77815432999844746931
-0.48382806750216583724 -1 0.92216422757102478602
-0.11594268394601163485 -1 0.23371735159644990709
4 0 1 2 3 151 47 171 255
5 4 5 6 7 8 104 165 85 255
5 9 10 11 12 13 57 123 160 255
5 14 15 16 17 18 170 81 74 255
5 19 20 21 22 23 122 40 149 255
6 24 25 26 27 28 29 75 158 63 255
5 30 31 32 33 34 188 116 138 255
4 35 36 37 38 141 74 52 255
4 39 40 41 42 93 32 127 255
5 43 44 45 46 47 46 150 41 255
5 48 49 50 51 52 159 108 116 255
4 53 54 55 56 112 67 190 255
4 57 58 59 60 64 185 105 255
5 61 62 63 64 65 177 143 179 255
6 66 67 68 69 70 71 130 101 94 255
5 72 73 74 75 76 83 59 168 255
4 77 78 79 80 35 177 83 255
4 81 82 83 84 148 135 157 255
5 85 86 87 88 89 101 94 71 255
4 90 91 92 93 53 52 146 255
4 94 95 96 97 166 170 60 255
5 98 99 100 101 102 119 128 135 255
4 103 104 105 106 72 86 49 255
6 107 108 109 110 111 112 184 44 124 255
4 113 114 115 116 137 163 38 255
