/* XPM */
static char *trash[] = {
/* width height num_colors chars_per_pixel */
"    33    33      154            2",
/* colors */
".. c #040204",
".# c #048274",
".a c #044234",
".b c #444244",
".c c #042624",
".d c #046654",
".e c #8c8284",
".f c #b4c2bc",
".g c #047264",
".h c #3c4a34",
".i c #242224",
".j c #a4a6a4",
".k c #04524c",
".l c #04767c",
".m c #040a04",
".n c #1c1a1c",
".o c #04322c",
".p c #041a1c",
".q c #e4e2e4",
".r c #044a3c",
".s c #646a64",
".t c #14120c",
".u c #047a6c",
".v c #140a0c",
".w c #046a64",
".x c #040a14",
".y c #043a24",
".z c #4c5254",
".A c #045a44",
".B c #047e7c",
".C c #048284",
".D c #ecf2ec",
".E c #0c0204",
".F c #bcbabc",
".G c #044244",
".H c #142224",
".I c #84929c",
".J c #0c120c",
".K c #3c3a34",
".L c #aca6a4",
".M c #044a4c",
".N c #f4fafc",
".O c #ccbebc",
".P c #0c1a1c",
".Q c #046a74",
".R c #94928c",
".S c #4c4a4c",
".T c #042e2c",
".U c #046264",
".V c #041214",
".W c #047274",
".X c #2c2a2c",
".Y c #04525c",
".Z c #04323c",
".0 c #043a3c",
".1 c #4c5a54",
".2 c #045a54",
".3 c #acaeac",
".4 c #9c9a9c",
".5 c #040604",
".6 c #048674",
".7 c #047a7c",
".8 c #040e04",
".9 c #041e1c",
"#. c #747674",
"## c #046e64",
"#a c #0c0e14",
"#b c #0c0604",
"#c c #bcbebc",
"#d c #044e4c",
"#e c #fcfafc",
"#f c #0c463c",
"#g c #04160c",
"#h c #bcc2bc",
"#i c #04766c",
"#j c #043634",
"#k c #04161c",
"#l c #043e34",
"#m c #b4bebc",
"#n c #047e8c",
"#o c #048684",
"#p c #f4f2f4",
"#q c #044644",
"#r c #b4aab4",
"#s c #0c0e0c",
"#t c #ccc2c4",
"#u c #949694",
"#v c #544a4c",
"#w c #046664",
"#x c #342e2c",
"#y c #5c5e5c",
"#z c #045e54",
"#A c #04020c",
"#B c #04827c",
"#C c #444644",
"#D c #042a2c",
"#E c #04120c",
"#F c #04726c",
"#G c #3c4e54",
"#H c #242624",
"#I c #9caea4",
"#J c #04564c",
"#K c #047684",
"#L c #040a0c",
"#M c #241a24",
"#N c #043234",
"#O c #eceeec",
"#P c #6c6e6c",
"#Q c #b4b2b4",
"#R c #1c221c",
"#S c #545a5c",
"#T c #545254",
"#U c #acaaac",
"#V c #c4bec4",
"#W c #2c2e24",
"#X c #043e44",
"#Y c #040e14",
"#Z c #0c7674",
"#0 c #f4fefc",
"#1 c #046e74",
"#2 c #4c4e4c",
"#3 c #041614",
"#4 c #047674",
"#5 c #04363c",
"#6 c #9c9e9c",
"#7 c #fcfefc",
"#8 c #f4f6f4",
"#9 c #041a24",
"a. c #044a44",
"a# c #047a74",
"aa c #046a6c",
"ab c #b4b6b4",
"ac c #045a4c",
"ad c #047e84",
"ae c #04828c",
"af c #bcbac4",
"ag c #3c3a3c",
"ah c #0c0a0c",
"ai c #044a54",
"aj c #c4c2c4",
"ak c #042e34",
"al c #04060c",
"am c #04867c",
"an c #047a84",
"ao c #040e0c",
"ap c #041e24",
"aq c #047e74",
"ar c #046e6c",
"as c #0c060c",
"at c #044e54",
"au c #041624",
"av c #04464c",
"aw c #04666c",
"ax c #045e5c",
/* pixels */
"#7#7#7#7#7#7#7#7#7#7#7#7#7#e#U#y#2.S.z#c.q.K#8#7#7#7#7#7#7#7#7#7#7",
"#7#7#7#7#7#7#7#7#7#7#7.Dal#Y.Zawa##B#Ba.#R.F.b#e#7#7#7#7#7#7#7#7#7",
"#7#7#7#7#7#7#7#7#7#7#T.5.B.B.B.Bad.Bad.G#6#C#cah.s#7#7#7#7#7#7#7#7",
"#7#7#7#7#7#7#7#7#7#e#u#qad#Bad#B.B#Bad.7.W#N...f.E..#8#7#7#7#7#7#7",
"#7#7#7#7#7#7#7#7#7#T.F.9ad.B.B.Bad.B.B.B.B.B.B.8#V#L.5.h#7#7#7#7#7",
"#7#7#7#7#7#7#7#7#7.5.F#a.B.B.C.B#Bad#B.B.C.Bad.B#5.F#1.Y.t#7#7#7#7",
"#7#7#7#7#7#7#7#7#7.c#Maf#9#B.Bad.B.B.Bad.B.B.B.B#G.La#.B#4.v#7#7#7",
"#7#7#7#7#7#7#7#7#D#B.Bab.eak.C#B.B.C.B#B.B#B.C.B.d#1.B.B#B.7al#e#7",
"#7#7#7#7#7#7#7#7.G.B.C#E#h.H.5ad.Bad.Bad.B.B.Bad#B.B#Bad.B#Badas#e",
"#7#7#7#7#7#e.5...7.B.C.Bao#t#I#A.B#B#B.B#Bad#B.B.B.C.B.B.B.B#B#4#m",
"#7#7#7#7#7#T.X#maq.B.B.B.W..#h#Q..#D.Bad.B.B.Bad#B.Bad#Bad.Bad#B..",
"#7#7#7#7#7agah#S.0.C.B.C.Ca#.5#r#c.1...0.B.C#B.Bad#B.B.B.B#B.B#k#C",
"#7#7#7#7#7.Oap.P#c#lad.B.C.7aq#g.5#m#c#H..#Yai.B.B.B#n.C#4.V...b.3",
"#7#7#7#7#7.D.7.B#h.Had.Bad..alan#w#A#L#Qaj#m#v...5.....5.m#.ab#P.5",
"#7#7#7#7#7ap.B#4#c#f.C.B.B.B.9.B.5.5a##j.5....#g.8.t#b#b#A.5..#e#7",
"#7#7#7#e#O#x.B.7.E#k.B#B.Bar.y.W.7.Q.7acal#Ba#.Baq#B.B.7#B..#u#7#7",
"#7#7#7#7#s.R.#.W.M.gad#B.C#A.B#B.7.m.Balar.u.u.Z.B.#al.6.c.4#7#7#7",
"#7#7#7#u#r#A.x.m.uad#Bad.w##.B.C#3aa.C.B.Madatarawakaa#lah#7#7#7#7",
"#7#7#7#H.j#Z#B.Ma#.B.B.B#L.B.C#B.madad.7#A#B.C..aq#B....#7#7#7#7#7",
"#7#e.F#c..#B.7#L.C#Bad#F.M.Bad#Yadad.C.5#4.B.T.kad#j...j#7#7#7#7#7",
"#7#7.X.Eaq.B..#F.C.Bam#A#B#oax.A.Ban.T##.C#F.p.C#B..#8#7#7#7#7#7#7",
"#7#p.I.radax#d.C.B.Bau#ian.B.8ad.7.B.5.Bad...Ba#...J#7#7#7#7#7#7#7",
"#7as.5.C.B.5#B.B.B#X.5an#Bao#1.B.Calaqad.x#F#o.5..#7#7#7#7#7#7#7#7",
".s..acad.a.B.C.C.C...l#B.B.p#B.B#Y#k.C.kaoan#Y.m#7#7#7#7#7#7#7#7#7",
".n.a.B#Bal.Bad.B#k#wadad..#Bad.C.5.B.B#A#Baq...N#7#7#7#7#7#7#7#7#7",
"#2#w#jao.o.Bad.l...B.B#d.k.B.Bal.7.Cal.B.C..ah#7#7#7#7#7#7#7#7#7#7",
"#0.5.Bak.W.Ca#...C#Bad...Bad#q.y.C.o.0am.V..#7#7#7#7#7#7#7#7#7#7#7",
"#7#8al.C.m.5#A.w#1ar.5an#B.9..ae#Lao.B.5.E#7#7#7#7#7#7#7#7#7#7#7#7",
"#7#7.3#9#Bav#o#Y#J.E.d.W.7..#B.T#k.C.c...D#7#7#7#7#7#7#7#7#7#7#7#7",
"#7#7#7#W#L#4.B.B..#K#z.Walan.W...C##.5#e#7#7#7#7#7#7#7#7#7#7#7#7#7",
"#7#7#7#7#8#A.Wad.7.B#i..#d#Y...B.U...j#7#7#7#7#7#7#7#7#7#7#7#7#7#7",
"#7#7#7#7#7#7.5...2.B.Canan#N#F.....i#7#7#7#7#7#7#7#7#7#7#7#7#7#7#7",
"#7#7#7#7#7#7#7#7.K...5a.a#.Ba#.m#.#7#7#7#7#7#7#7#7#7#7#7#7#7#7#7#7"
};
