/* XPM */
static char * cw_flip_parallele_xpm[] = {
"40 40 3 1",
" 	c None",
".	c #000000000000",
"X	c #FFFF00000000",
"                                        ",
"                                        ",
"                                        ",
"                                        ",
"                                        ",
"                                        ",
"                                        ",
"                                        ",
"                       ......           ",
"                        .....           ",
"                         ....           ",
"                        ........        ",
"       XXX             ... .....        ",
"       XXXXXX         ...   ....        ",
"          XXXXX      ...   .....        ",
"             XXXX   ...   ... ..        ",
"               XXX ...   ...   .        ",
"                 XXX.   ...             ",
"                 .XXX  ...              ",
"                ... XX...               ",
"               ...   XX.                ",
"              ...   ..XX                ",
"             ...   ... XX               ",
"            ...   ...  XX               ",
"           ...   ...    XX              ",
"          ...   ...      XX             ",
"         ...   ...       XX             ",
"        ...   ...         XX            ",
"       ...   ...          XX            ",
"      ...   ...         XXXXXXX         ",
"     ...   ...           XXXXX          ",
"    ...   ...             XXX           ",
"   ...   ...               X            ",
"  ...   ...                             ",
" ...   ...     . .  ....  .     .  ...  ",
"  .   ...     . .   .     .     .  .  . ",
"     ...     . .    ...   .     .  ...  ",
"    ...     . .     .     .     .  .    ",
"     .     . .      .     ....  .  .    ",
"                                        "};
