/* XPM */
static const char *delete_xpm[] = {
/* columns rows colors chars-per-pixel */
"32 32 4 1",
"  c opaque",
". c navy",
"X c #c0c0c0",
"o c None",
/* pixels */
"oooooooooooooooooooooooooooooooo",
"oooooooooooooooooooooooooooooooo",
"oooooooooooooooooooooooooooooooo",
"oooooooooooooooooooooooooooooooo",
"oooooooooooooooooooooooooooooooo",
"ooooooooooo.oooooo.ooooooooooooo",
"ooooooooooo.oooooo.ooooooooooooo",
"oooooooooo..oooooo..oooooooooooo",
"oooooooooo..oooooo..oooooooooooo",
"oooooooooo..oooooo..oooooooooooo",
"oooooooooo..oooooo..oooooooooooo",
"oooooooooo...oooo...oooooooooooo",
"ooooooooooo...oo...ooooooooooooo",
"oooooooooooo......oooooooooooooo",
"ooooooooooooo....ooooooooooooooo",
"oooooooooooo......oooooooooooooo",
"ooooooooooo........ooooooooooooo",
"oooooooooo....oo....oooooooooooo",
"oooooooo......oo......oooooooooo",
"oooooo..oooo..oo..oooo..oooooooo",
"ooooo..ooooo..oo..ooooo..ooooooo",
"ooooo..ooooo..oo..ooooo..ooooooo",
"ooooo..oooo..oooo..oooo..ooooooo",
"oooooo..oo..oooooo..oo..oooooooo",
"ooooooo....oooooooo....ooooooooo",
"oooooooooooooooooooooooooooooooo",
"oooooooooooooooooooooooooooooooo",
"oooooooooooooooooooooooooooooooo",
"oooooooooooooooooooooooooooooooo",
"oooooooooooooooooooooooooooooooo",
"oooooooooooooooooooooooooooooooo",
"oooooooooooooooooooooooooooooooo"
};
