/* XPM */
const const char *split_xpm[] = {
/* columns rows colors chars-per-pixel */
"32 32 4 1",
"  c opaque",
". c navy",
"X c #c0c0c0",
"o c None",
/* pixels */
"oooooooooooooooooooooooooooooooo",
"oooooooooooooooooooooooooooooooo",
"oooooooooooooooooooooooooooooooo",
"ooo                         oooo",
"ooo                         oooo",
"oooooooooooooooooooooooooooooooo",
"oooooooooooooooooooooooooooooooo",
"oooooooooooooooooooooooooooooooo",
"oooooooooooooooooooooooooooooooo",
"oooooooooooooooooooooooooooooooo",
"oooooooooooooooooooooooooooooooo",
"oooooooooooooooooooooooooooooooo",
"oooooooooooooo   ooooooooooooooo",
"oooooooooooooo   ooooooooooooooo",
"oooooooooooooo   ooooooooooooooo",
"oooooooooooooo   ooooooooooooooo",
"oooooooooooooo   ooooooooooooooo",
"oooooooooo  oo   oo  ooooooooooo",
"ooooooooooo  o   o  oooooooooooo",
"oooooooooooo       ooooooooooooo",
"ooooooooooooo     oooooooooooooo",
"oooooooooooooo   ooooooooooooooo",
"ooooooooooooooo oooooooooooooooo",
"oooooooooooooooooooooooooooooooo",
"oooooooooooooooooooooooooooooooo",
"oooooooooooooooooooooooooooooooo",
"ooooooooooooooo oooooooooooooooo",
"oooooooooooooo   ooooooooooooooo",
"ooo                         oooo",
"ooo                         oooo",
"oooooooooooooo   ooooooooooooooo",
"ooooooooooooooo oooooooooooooooo",
"oooooooooooooooooooooooooooooooo",
"oooooooooooooooooooooooooooooooo",
"oooooooooooooooooooooooooooooooo",
};

