/* XPM */
static const char *comp_P_xpm[] = {
/* width height ncolors chars_per_pixel */
"32 32 15 1",
/* colors */
"  c #000000",
". c #9898E7",
"X c #9191EA",
"o c #5A5AF9",
"O c #A4A4E0",
"+ c #3838FD",
"@ c #AFAFD6",
"# c #AAAADB",
"$ c #9E9EE3",
"% c #808080",
"& c #7070F4",
"* c None",
"= c #4C4CFB",
"- c #0000FF",
"; c None",
/* pixels */
"********************************",
"********************************",
"********************************",
"********************************",
"********************************",
"**********           ***********",
"**********%%%%%%%%%%%***********",
"********************************",
"********************************",
"**********-------+&#************",
"***********#--***Oo-$***********",
"************--****#-=***********",
"************--*****--***********",
"************--*****--***********",
"************--****@-=***********",
"************--.**@o-X***********",
"************------o.************",
"************--******************",
"************--******************",
"************--******************",
"************--******************",
"***********@--#*****************",
"**********------****************",
"********************************",
"********************************",
"********************************",
"********************************",
"********************************",
"********************************",
"********************************",
"********************************",
"********************************"
};
