/* XPM */
static const char *insert_circle_xpm[] = {
/* width height ncolors chars_per_pixel */
"32 32 7 1",
/* colors */
"  c #00FF00",
". c #008080",
"X c #FF0000",
"o c #808080",
"O c None",
"+ c #008000",
"@ c None",
/* pixels */
"OOOOOOOOOOOOOOOOOOOOOOOOOOOOOOOO",
"OOOOOOOOOOOOOOOOOOOOOOOOOOOOOOOO",
"OOOOOOOOOOOOOOOOOOOOOOOOOOOOOOOO",
"OOOOOOOOOOOOO.++++.OOOOOOOOOOOOO",
"OOOOOOOOOO++++    ++++OOOOOOOOOO",
"OOOOOOOO.+            +.OOOOOOOO",
"OOOOOOO++              ++OOOOOOO",
"OOOOOO+                  +OOOOOO",
"OOOOO.+                  +.OOOOO",
"OOOOO+                    +OOOOO",
"OOOO+                      +OOOO",
"OOOO+                      +OOOO",
"OOOO+                      +OOOO",
"OOO.+                      +.OOO",
"OOO+                        +OOO",
"OOO+                        +OOO",
"OOO+                        +oOO",
"OOO+                        +oOO",
"OOO.+                      +oOOO",
"OOOO+                      +oOOO",
"OOOO+ X                    +oOOO",
"OOOO+ X                    +oOOO",
"OOOXO+X  X                +oOOOO",
"OOOOXOX X                +.OOOOO",
"OOOOOX+X                 +oOOOOO",
"OXXXXOO+XXXX           ++oOOOOOO",
"OOOOOXOXO+            +.oOOOOOOO",
"OOOOXOXOXO++++    ++++oOOOOOOOOO",
"OOOXOOXOOXOOO.++++.oooOOOOOOOOOO",
"OOOOOOXOOOOOOOOOOOOOOOOOOOOOOOOO",
"OOOOOOXOOOOOOOOOOOOOOOOOOOOOOOOO",
"OOOOOOOOOOOOOOOOOOOOOOOOOOOOOOOO"
};
