/* XPM */
static const char *insert_polygon_xpm[] = {
/* width height ncolors chars_per_pixel */
"32 32 6 1",
/* colors */
"  c #00FF00",
". c #FF0000",
"X c #808080",
"o c None",
"O c #008000",
"+ c None",
/* pixels */
"oooooooooooooooooooooooooooooooo",
"oooooooooooooooooooooooooooooooo",
"oooooooooooooooooooooooooooooooo",
"oooooooooooooooooooooooooooooooo",
"oooooooooooooooooooooooooooooooo",
"ooooooooooooooooOOoooooooooooooo",
"oooooooooooooOOO  Oooooooooooooo",
"oooooooooooOO      Ooooooooooooo",
"oooooooooOO         Oooooooooooo",
"oooooooooO           Ooooooooooo",
"ooooooooO             Oooooooooo",
"ooooooooO              Ooooooooo",
"oooooooO                Oooooooo",
"oooooooO                 Ooooooo",
"ooooooO                   Oooooo",
"ooooooO                    Ooooo",
"ooooooO                   OXoooo",
"oooooO                    OXoooo",
"oooooO                   OXooooo",
"ooooO                   OXoooooo",
"ooooO .                 OXoooooo",
"oooO  . OOOOOO         OXooooooo",
"ooo.OO.OX.XXXXO       OXoooooooo",
"oooX.X.X.ooooooO      OXoooooooo",
"ooooo.o.ooooooooO    OXooooooooo",
"o....ooo....oooooO  OXoooooooooo",
"ooooo.o.ooooooooooO OXoooooooooo",
"oooo.o.o.ooooooooooOXooooooooooo",
"ooo.oo.oo.ooooooooooXooooooooooo",
"oooooo.ooooooooooooooooooooooooo",
"oooooo.ooooooooooooooooooooooooo",
"oooooooooooooooooooooooooooooooo"
};
