/* XPM */
static const char *make_Q_xpm[] = {
/* width height ncolors chars_per_pixel */
"32 32 18 1",
/* colors */
"  c #FFF0F0",
". c #FFE9E9",
"X c #FF9A9A",
"o c #FFA7A7",
"O c #FF0080",
"+ c #FF8C8C",
"@ c #FFE1E1",
"# c #FFB2B2",
"$ c #FFD9D9",
"% c #FF0000",
"& c #FF7C7C",
"* c #FF6868",
"= c None",
"- c #FFFFFF",
"; c #FFBDBD",
": c #FFF8F8",
"> c #FFD0D0",
", c None",
/* pixels */
"================================",
"================================",
"================================",
"================================",
"=============O%%%%O=============",
"===========O%%%%%%%%O===========",
"=========%%%%%%%%%%%%%%=========",
"========%%%%%%%%%%%%%%%%========",
"=======%%%%%%%%%%%%%%%%%%=======",
"======%%%%%%%%%%%%%%%%%%%%======",
"======%%%%%%%#.--.;%%%%%%%======",
"=====%%%%%%*..X%%X..&%%%%%%=====",
"=====%%%%%%. %%%%%% .%%%%%%=====",
"====%%%%%%;-o%%%%%%#-;%%%%%%====",
"====%%%%%%.-*%%%%%%&-.%%%%%%====",
"====%%%%%%--%%%%%%%%--%%%%%%====",
"====%%%%%%--%%%%%%%%--%%%%%%====",
"====%%%%%% -*%%%%%%%-.%%%%%%====",
"====%%%%%%>-o%%%%%%o-;%%%%%%====",
"=====%%%%%*- %%%%%% .%%%%%%=====",
"=====%%%%%%o-.X%%X..%%%%%%%=====",
"======%%%%%%+@--- #%%%%%%%======",
"======%%%%%%%%%;--o%%%%%%%======",
"=======%%%%%%%%%o:-o%%%%%=======",
"========%%%%%%%%%*@-$%%%========",
"=========%%%%%%%%%%%%%%=========",
"===========O%%%%%%%%O===========",
"=============O%%%%O=============",
"================================",
"================================",
"================================",
"================================"
};
