# This file uses centimeters as units for non-parametric coordinates.

v 1.549557 -0.818375 0.686182
v 1.976508 -0.395311 -0.113023
v 0.500000 1.167043 -0.074761
v 0.500000 0.529057 0.500000
v -0.044084 1.120426 0.500000
v -0.167314 0.998317 0.730673
v 0.961264 -1.359630 0.085388
v -0.393188 0.790504 0.500000
v 0.500000 -0.110890 0.500000
v 0.500000 -0.871548 0.097341
v 1.388215 -0.936566 -0.713817
v -0.328656 0.880127 -0.669327
v -0.162853 1.032673 -0.500000
v 0.500000 0.363730 -0.500000
v -0.419114 0.790492 -0.500000
v 0.500000 -0.208498 -0.500000
v 0.421602 1.250000 -0.072729
v 0.259637 1.421382 -0.068532
v 0.086681 1.250000 0.255223
v 0.073361 1.250000 -0.258766
v -0.500000 0.710343 -0.348591
v -0.755608 0.457062 0.129879
v -0.500000 0.692232 0.390918
v -0.500000 0.186593 0.123255
v -0.500000 -1.250000 0.500000
v 0.500000 -1.250000 0.500000
v 0.500000 1.250000 0.500000
v -0.500000 1.250000 0.500000
v -0.500000 1.250000 -0.500000
v -0.500000 -1.250000 -0.500000
v 0.500000 -1.250000 -0.500000
v 0.500000 1.250000 -0.500000
vn 0.588293 0.541255 0.600794
vn 0.588293 0.541255 0.600794
vn 0.588293 0.541255 0.600794
vn 0.588293 0.541255 0.600794
vn 0.588293 0.541255 0.600794
vn 0.588293 0.541255 0.600794
vn -0.426951 -0.423064 0.799205
vn -0.426951 -0.423064 0.799205
vn -0.426951 -0.423064 0.799205
vn -0.426951 -0.423064 0.799205
vn -0.426951 -0.423064 0.799205
vn -0.426951 -0.423064 0.799205
vn 0.686749 -0.726677 -0.017796
vn 0.686749 -0.726677 -0.017796
vn 0.686749 -0.726677 -0.017796
vn 0.686749 -0.726677 -0.017796
vn 0.426951 0.423064 -0.799205
vn 0.426951 0.423064 -0.799205
vn 0.426951 0.423064 -0.799205
vn 0.426951 0.423064 -0.799205
vn 0.426951 0.423064 -0.799205
vn 0.426951 0.423064 -0.799205
vn -0.686749 0.726677 0.017796
vn -0.686749 0.726677 0.017796
vn -0.686749 0.726677 0.017796
vn -0.588293 -0.541255 -0.600794
vn -0.588293 -0.541255 -0.600794
vn -0.588293 -0.541255 -0.600794
vn -0.588293 -0.541255 -0.600794
vn -0.588293 -0.541255 -0.600794
vn -0.588293 -0.541255 -0.600794
vn -0.686748 0.726677 0.017796
vn -0.686748 0.726677 0.017796
vn -0.686748 0.726677 0.017796
vn 0.588293 0.541255 0.600794
vn 0.588293 0.541255 0.600794
vn 0.588293 0.541255 0.600794
vn 0.426952 0.423064 -0.799205
vn 0.426951 0.423064 -0.799205
vn 0.426951 0.423064 -0.799205
vn -0.686749 0.726677 0.017796
vn -0.686749 0.726677 0.017796
vn -0.686749 0.726677 0.017796
vn -0.686749 0.726677 0.017796
vn -0.686749 0.726677 0.017796
vn -0.686749 0.726677 0.017796
vn -0.588293 -0.541255 -0.600794
vn -0.588293 -0.541255 -0.600794
vn -0.588293 -0.541255 -0.600794
vn -0.426951 -0.423064 0.799205
vn -0.426951 -0.423064 0.799205
vn -0.426951 -0.423064 0.799205
vn 0.000000 0.000000 1.000000
vn 0.000000 0.000000 1.000000
vn 0.000000 0.000000 1.000000
vn 0.000000 0.000000 1.000000
vn 0.000000 0.000000 1.000000
vn 0.000000 0.000000 1.000000
vn 0.000000 0.000000 1.000000
vn 0.000000 0.000000 1.000000
vn -1.000000 -0.000000 0.000000
vn -1.000000 -0.000000 0.000000
vn -1.000000 -0.000000 0.000000
vn -1.000000 -0.000000 0.000000
vn -1.000000 -0.000000 0.000000
vn -1.000000 -0.000000 0.000000
vn -1.000000 -0.000000 0.000000
vn 0.000000 -1.000000 0.000000
vn 0.000000 -1.000000 0.000000
vn 0.000000 -1.000000 0.000000
vn 0.000000 -1.000000 0.000000
vn 1.000000 0.000000 0.000000
vn 1.000000 0.000000 0.000000
vn 1.000000 0.000000 0.000000
vn 1.000000 0.000000 0.000000
vn 1.000000 0.000000 0.000000
vn 1.000000 0.000000 0.000000
vn 1.000000 0.000000 0.000000
vn 1.000000 0.000000 0.000000
vn 1.000000 0.000000 0.000000
vn 1.000000 0.000000 0.000000
vn 0.000000 1.000000 0.000000
vn 0.000000 1.000000 0.000000
vn 0.000000 1.000000 0.000000
vn 0.000000 1.000000 0.000000
vn 0.000000 1.000000 0.000000
vn 0.000000 1.000000 0.000000
vn 0.000000 1.000000 0.000000
vn 0.000000 0.000000 -1.000000
vn 0.000000 0.000000 -1.000000
vn 0.000000 0.000000 -1.000000
vn 0.000000 0.000000 -1.000000
vn 0.000000 0.000000 -1.000000
vn 0.000000 0.000000 -1.000000
vn 0.000000 0.000000 -1.000000
vn 0.000000 0.000000 -1.000000
f 1//1 2//2 3//3 4//4 5//5 6//6
f 7//7 1//8 6//9 8//10 9//11 10//12
f 7//13 11//14 2//15 1//16
f 2//17 11//18 12//19 13//20 14//21 3//22
f 6//23 5//24 8//25
f 15//26 12//27 11//28 7//29 10//30 16//31
f 13//32 12//33 15//34
f 17//35 18//36 19//37
f 20//38 18//39 17//40
f 19//41 18//42 20//43
f 21//44 22//45 23//46
f 22//47 21//48 24//49
f 23//50 22//51 24//52
f 25//53 26//54 9//55 8//56 5//57 4//58 27//59 28//60
f 25//61 28//62 29//63 21//64 23//65 24//66
f 30//67 25//61 24//66 21//64 29//63
f 30//68 31//69 26//70 25//71
f 26//72 31//73 16//74 10//75 9//76
f 14//77 32//78 27//79 4//80 3//81
f 28//82 27//83 32//84 20//85 17//86 19//87
f 28//82 19//87 20//85 32//84 29//88
f 29//89 32//90 14//91 13//92 15//93 16//94 31//95 30//96
