# This file uses centimeters as units for non-parametric coordinates.

v 0.000000 -1.636102 -3.272203
v 3.272203 -1.636102 0.000000
v -0.000000 -1.636102 3.272203
v -3.272203 -1.636102 -0.000000
v -0.849956 0.786146 -0.000000
v -0.574762 0.466431 -0.594908
v 0.000000 0.825445 -0.810657
v 0.432399 0.693484 -0.510219
v 0.577522 1.058580 0.000000
v 0.072057 0.330665 2.017201
v 0.054465 -0.149513 2.323604
v 0.973385 -1.334575 2.117460
v 0.019410 -1.106324 2.934150
v -0.803864 -1.172620 2.155608
v -0.071022 -0.214983 2.242294
v 0.027952 1.129708 0.782495
v -0.703906 0.675422 0.376018
v 0.373969 0.840690 0.689273
v 3.753067 -1.385960 3.195446
v 0.751339 1.617230 3.450873
v 1.417681 0.930095 3.384315
v 1.982226 1.047592 3.664859
v 2.125791 -0.491555 7.434154
v -2.188080 -0.411809 5.761195
v 0.550204 1.881787 4.200695
v 0.495597 1.638919 3.942649
v 1.844474 1.270879 5.929799
v 1.997621 1.027041 3.700469
v 1.718956 1.425895 4.817163
v 1.448425 1.797925 4.905739
v -2.494656 2.124365 -3.162747
v -3.186960 3.180541 1.289201
v 1.321093 4.108343 1.770118
v 2.013396 3.052166 -2.681830
v 0.864805 1.855479 1.364160
v 0.976206 2.405506 1.463273
v -0.074656 3.490092 1.566445
v 1.198185 3.501501 1.660767
v 1.387233 3.312494 0.557663
v 1.017437 2.440771 1.309321
v -1.663631 3.920373 4.052675
v 2.252146 4.321309 6.485899
v 4.718123 3.653543 2.627445
v 1.896707 2.180596 5.626009
vn 0.000000 -1.000000 0.000000
vn 0.000000 -1.000000 0.000000
vn 0.000000 -1.000000 0.000000
vn 0.000000 -1.000000 0.000000
vn -0.577350 0.577350 -0.577350
vn -0.577350 0.577350 -0.577350
vn -0.577350 0.577350 -0.577350
vn -0.577350 0.577350 -0.577350
vn -0.577350 0.577350 -0.577350
vn 0.577350 0.577350 -0.577350
vn 0.577350 0.577350 -0.577350
vn 0.577350 0.577350 -0.577350
vn 0.577350 0.577350 -0.577350
vn 0.577350 0.577350 -0.577350
vn 0.650702 0.391375 0.650702
vn 0.660693 0.535833 0.525707
vn 0.660729 0.533248 0.528284
vn 0.650702 0.391375 0.650702
vn 0.650702 0.391375 0.650702
vn 0.650702 0.391375 0.650702
vn -0.644237 0.542375 0.539248
vn -0.638190 0.430613 0.638190
vn -0.638190 0.430613 0.638190
vn -0.638190 0.430613 0.638190
vn -0.638190 0.430613 0.638190
vn -0.638190 0.430613 0.638190
vn -0.644256 0.540373 0.541231
vn -0.636760 0.636760 0.434827
vn -0.636760 0.636760 0.434827
vn -0.636760 0.636760 0.434827
vn 0.649043 0.649043 0.396845
vn 0.649043 0.649043 0.396845
vn 0.649043 0.649043 0.396845
vn 0.336572 0.408567 -0.848406
vn 0.336572 0.408567 -0.848406
vn 0.336572 0.408567 -0.848406
vn 0.336572 0.408567 -0.848406
vn 0.336572 0.408567 -0.848406
vn 0.336572 0.408567 -0.848406
vn 0.336572 0.408567 -0.848406
vn -0.085657 -0.980993 0.174114
vn -0.085657 -0.980993 0.174114
vn -0.085657 -0.980993 0.174114
vn -0.085657 -0.980993 0.174114
vn -0.085657 -0.980993 0.174114
vn -0.085657 -0.980993 0.174114
vn -0.711689 0.580447 -0.395703
vn -0.711688 0.580447 -0.395703
vn -0.711688 0.580447 -0.395703
vn -0.711688 0.580447 -0.395703
vn -0.711688 0.580447 -0.395703
vn -0.711688 0.580447 -0.395703
vn 0.868488 0.473759 0.145880
vn 0.867712 0.476006 0.143156
vn 0.807722 0.589495 -0.008990
vn 0.807722 0.589495 -0.008990
vn 0.807722 0.589495 -0.008990
vn 0.807722 0.589495 -0.008990
vn 0.891369 0.368078 0.264536
vn -0.315709 0.691490 0.649746
vn -0.280488 0.596868 0.751715
vn -0.315078 0.689764 0.651883
vn -0.345017 0.773568 0.531560
vn -0.345017 0.773568 0.531560
vn -0.169164 0.952739 -0.252333
vn -0.169164 0.952739 -0.252333
vn -0.169164 0.952739 -0.252333
vn -0.169164 0.952739 -0.252333
vn 0.219818 -0.736417 -0.639821
vn 0.219818 -0.736417 -0.639821
vn 0.219818 -0.736417 -0.639821
vn 0.219818 -0.736417 -0.639821
vn 0.219818 -0.736417 -0.639821
vn -0.697737 -0.713766 0.060831
vn -0.697737 -0.713766 0.060831
vn -0.697737 -0.713766 0.060831
vn -0.697737 -0.713766 0.060831
vn -0.697737 -0.713766 0.060831
vn -0.071463 -0.162850 0.984059
vn -0.126747 -0.334744 0.933746
vn -0.125707 -0.331490 0.935047
vn -0.071463 -0.162850 0.984059
vn -0.071463 -0.162850 0.984059
vn -0.071463 -0.162850 0.984059
vn 0.918342 -0.365142 0.152704
vn 0.952066 -0.229310 0.202453
vn 0.952066 -0.229310 0.202453
vn 0.952066 -0.229310 0.202453
vn 0.952066 -0.229310 0.202453
vn 0.952066 -0.229310 0.202453
vn 0.919173 -0.362633 0.153682
vn 0.867231 -0.487336 0.102053
vn 0.867231 -0.487336 0.102053
vn 0.867231 -0.487336 0.102053
vn -0.174569 -0.485331 0.856726
vn -0.174569 -0.485331 0.856726
vn -0.174569 -0.485331 0.856726
vn -0.693001 -0.639855 -0.332167
vn -0.693001 -0.639855 -0.332167
vn -0.693001 -0.639855 -0.332167
vn -0.693001 -0.639855 -0.332167
vn -0.693001 -0.639855 -0.332167
vn -0.693001 -0.639855 -0.332167
vn -0.693001 -0.639855 -0.332167
vn 0.003634 0.985734 -0.168274
vn 0.003634 0.985734 -0.168274
vn 0.003634 0.985734 -0.168274
vn 0.003634 0.985734 -0.168274
vn 0.003634 0.985734 -0.168274
vn 0.003634 0.985734 -0.168274
vn 0.433001 -0.686935 -0.583636
vn 0.433001 -0.686935 -0.583636
vn 0.433001 -0.686935 -0.583636
vn 0.433001 -0.686935 -0.583636
vn 0.433001 -0.686935 -0.583636
vn 0.433001 -0.686935 -0.583636
vn -0.523999 -0.385511 0.759478
vn -0.524597 -0.388478 0.757551
vn -0.547357 -0.548516 0.632085
vn -0.547357 -0.548516 0.632084
vn -0.547357 -0.548516 0.632085
vn -0.547357 -0.548516 0.632084
vn -0.491800 -0.253002 0.833140
vn 0.746717 -0.467858 0.472782
vn 0.762143 -0.346274 0.547021
vn 0.747169 -0.465554 0.474339
vn 0.714948 -0.582630 0.386512
vn 0.714948 -0.582630 0.386512
f 1//1 2//2 3//3 4//4
f 1//5 4//6 5//7 6//8 7//9
f 2//10 1//11 7//12 8//13 9//14
f 3//15 2//16 10//17 11//18 12//19 13//20
f 4//21 3//22 13//23 14//24 15//25 11//26 10//27
f 4//21 10//27 16//28 17//29 5//30
f 10//17 2//16 9//31 18//32 16//33
f 19//34 12//35 11//36 15//37 20//38 21//39 22//40
f 12//41 19//42 23//43 24//44 14//45 13//46
f 14//47 24//48 25//49 26//50 20//51 15//52
f 27//53 19//54 22//55 28//56 29//57 30//58
f 23//59 19//54 27//53
f 24//60 23//61 27//62
f 25//63 24//60 27//62 30//64
f 31//65 32//66 33//67 34//68
f 31//69 34//70 8//71 7//72 6//73
f 32//74 31//75 6//76 5//77 17//78
f 33//79 32//80 35//81 36//82 37//83 38//84
f 34//85 33//86 38//87 39//88 40//89 36//90 35//91
f 34//85 35//91 18//92 9//93 8//94
f 35//81 32//80 17//95 16//96 18//97
f 41//98 37//99 36//100 40//101 21//102 20//103 26//104
f 37//105 41//106 42//107 43//108 39//109 38//110
f 39//111 43//112 28//113 22//114 21//115 40//116
f 44//117 41//118 26//119 25//120 30//121 29//122
f 42//123 41//118 44//117
f 43//124 42//125 44//126
f 28//127 43//124 44//126 29//128
