# This file uses centimeters as units for non-parametric coordinates.

v -2.978508 0.000000 5.158927
v -2.978508 0.000000 -5.158927
v -4.760591 0.045521 7.847296
v 10.768452 2.777885 0.000000
v -5.384226 -2.777885 -9.325755
v -5.384226 2.777885 -9.325755
v 10.768452 -2.777885 0.000000
v 5.957016 0.000000 0.000000
v -5.384226 -2.777885 9.325755
v -0.567804 -0.408248 -5.061705
v 0.193352 -0.408248 -4.413136
v 0.374452 -0.408248 -5.396600
v 0.000000 0.408248 -4.957147
vn 0.025535 0.999674 0.000000
vn 0.025535 0.999674 0.000000
vn 0.025535 0.999674 0.000000
vn -0.262477 0.946045 -0.190011
vn -0.262477 0.946045 -0.190011
vn -0.262477 0.946045 -0.190011
vn 0.755929 -0.654653 0.000000
vn 0.755929 -0.654653 0.000000
vn 0.755929 -0.654653 0.000000
vn 0.681357 0.726296 0.090816
vn 0.681357 0.726296 0.090816
vn 0.681357 0.726296 0.090816
vn 0.451015 0.000000 0.892516
vn 0.451015 0.000000 0.892516
vn 0.451016 0.000000 0.892516
vn -0.377965 0.654653 -0.654654
vn -0.377965 0.654654 -0.654654
vn -0.377965 0.654654 -0.654654
vn 0.755929 -0.654654 0.000000
vn 0.755929 -0.654654 0.000000
vn 0.755929 -0.654654 0.000000
vn -0.377965 -0.654654 0.654654
vn -0.377964 -0.654654 0.654654
vn -0.377964 -0.654654 0.654654
vn -0.964682 0.252457 0.075200
vn -0.964682 0.252457 0.075200
vn -0.964682 0.252457 0.075200
vn -0.377964 0.654654 0.654654
vn -0.377964 0.654654 0.654654
vn -0.377964 0.654654 0.654654
vn 0.500000 0.000000 -0.866025
vn 0.500000 0.000000 -0.866025
vn 0.500000 0.000000 -0.866025
vn 0.472945 0.324486 0.819165
vn 0.472945 0.324486 0.819165
vn 0.472945 0.324486 0.819165
vn -0.377965 0.654654 0.654654
vn -0.377965 0.654654 0.654654
vn -0.377965 0.654654 0.654654
vn -0.377964 -0.654654 -0.654654
vn -0.377964 -0.654654 -0.654654
vn -0.377964 -0.654654 -0.654654
vn -1.000000 0.000000 0.000000
vn -1.000000 0.000000 0.000000
vn -1.000000 0.000000 0.000000
vn -0.377965 -0.654654 0.654654
vn -0.377965 -0.654654 0.654654
vn -0.377965 -0.654653 0.654654
vn 0.500000 0.000000 -0.866025
vn 0.500000 0.000000 -0.866025
vn 0.500000 0.000000 -0.866025
vn -0.377965 -0.654654 -0.654654
vn -0.377965 -0.654654 -0.654654
vn -0.377965 -0.654654 -0.654654
vn 0.000000 1.000000 0.000000
vn 0.000000 1.000000 0.000000
vn 0.000000 1.000000 0.000000
vn 0.611477 -0.333333 -0.717624
vn 0.611477 -0.333333 -0.717624
vn 0.611477 -0.333333 -0.717624
vn 0.315741 -0.333333 0.888367
vn 0.315741 -0.333333 0.888367
vn 0.315741 -0.333333 0.888367
vn -0.927219 -0.333334 -0.170743
vn -0.927219 -0.333334 -0.170743
vn -0.927219 -0.333334 -0.170743
f 1//1 2//2 3//3
f 4//4 1//5 3//6
f 1//7 5//8 2//9
f 3//10 2//11 6//12
f 4//13 3//14 7//15
f 8//16 1//17 4//18
f 9//19 5//20 1//21
f 5//22 7//23 2//24
f 3//25 6//26 9//27
f 2//28 8//29 6//30
f 5//31 4//32 7//33
f 7//34 3//35 9//36
f 6//37 8//38 4//39
f 8//40 9//41 1//42
f 9//43 6//44 5//45
f 2//46 7//47 8//48
f 6//49 4//50 5//51
f 7//52 9//53 8//54
f 10//55 11//56 12//57
f 10//58 13//59 11//60
f 12//61 13//62 10//63
f 11//64 13//65 12//66
