<?xml version="1.0" encoding="UTF-8" standalone="no"?>
<!-- Creator: fig2dev Version 3.2.8 -->
<!-- CreationDate: 2022-05-05 19:05:07 -->
<!-- Magnification: 1.05 -->
<svg	xmlns="http://www.w3.org/2000/svg"
	xmlns:xlink="http://www.w3.org/1999/xlink"
	width="708pt" height="278pt"
	viewBox="-265 -39 11237 4405">
<g fill="none">
<!-- Line -->
<defs>
<clipPath id="cp0">
	<path clip-rule="evenodd" d="M -265,-39 H 10972 V 4366 H -265 z
		M 2690,2411 2807,2507 2660,2544 2821,2517 2824,2504z"/>
</clipPath>
</defs>
<polyline points=" 1096,2123 2816,2509" clip-path="url(#cp0)"
	stroke="#5e5e5e" stroke-width="8px" stroke-linejoin="round"/>
<!-- Forward arrow to point 2816,2509 -->
<polyline points=" 2690,2411 2807,2507 2660,2544"
	stroke="#5e5e5e" stroke-width="8px" stroke-miterlimit="8"/>
<!-- Line -->
<defs>
<clipPath id="cp1">
	<path clip-rule="evenodd" d="M -265,-39 H 10972 V 4366 H -265 z
		M 8636,2568 8753,2664 8606,2700 8767,2674 8770,2661z"/>
</clipPath>
</defs>
<polyline points=" 7043,2279 8762,2666" clip-path="url(#cp1)"
	stroke="#5e5e5e" stroke-width="8px" stroke-linejoin="round"/>
<!-- Forward arrow to point 8762,2666 -->
<polyline points=" 8636,2568 8753,2664 8606,2700"
	stroke="#5e5e5e" stroke-width="8px" stroke-miterlimit="8"/>
<!-- Line -->
<defs>
<clipPath id="cp2">
	<path clip-rule="evenodd" d="M -265,-39 H 10972 V 4366 H -265 z
		M 1162,1978 1096,2114 1026,1979 1089,2130 1103,2130z"/>
</clipPath>
</defs>
<polyline points=" 1072,385 1096,2123" clip-path="url(#cp2)"
	stroke="#5e5e5e" stroke-width="8px" stroke-linejoin="round"/>
<!-- Forward arrow to point 1096,2123 -->
<polyline points=" 1162,1978 1096,2114 1026,1979"
	stroke="#5e5e5e" stroke-width="8px" stroke-miterlimit="8"/>
<!-- Line -->
<defs>
<clipPath id="cp3">
	<path clip-rule="evenodd" d="M -265,-39 H 10972 V 4366 H -265 z
		M 7109,2133 7043,2270 6973,2135 7036,2286 7050,2286z"/>
</clipPath>
</defs>
<polyline points=" 7018,542 7043,2279" clip-path="url(#cp3)"
	stroke="#5e5e5e" stroke-width="8px" stroke-linejoin="round"/>
<!-- Forward arrow to point 7043,2279 -->
<polyline points=" 7109,2133 7043,2270 6973,2135"
	stroke="#5e5e5e" stroke-width="8px" stroke-miterlimit="8"/>
<!-- Line -->
<defs>
<clipPath id="cp4">
	<path clip-rule="evenodd" d="M -265,-39 H 10972 V 4366 H -265 z
		M 1149,2432 1033,2335 1180,2300 1019,2325 1016,2338z"/>
</clipPath>
</defs>
<polyline points=" 2748,2735 1024,2333" clip-path="url(#cp4)"
	stroke="#5e5e5e" stroke-width="8px" stroke-linejoin="round"/>
<!-- Forward arrow to point 1024,2333 -->
<polyline points=" 1149,2432 1033,2335 1180,2300"
	stroke="#5e5e5e" stroke-width="8px" stroke-miterlimit="8"/>
<!-- Line -->
<defs>
<clipPath id="cp5">
	<path clip-rule="evenodd" d="M -265,-39 H 10972 V 4366 H -265 z
		M 7095,2589 6979,2492 7126,2457 6965,2482 6962,2495z"/>
</clipPath>
</defs>
<polyline points=" 8694,2892 6970,2490" clip-path="url(#cp5)"
	stroke="#5e5e5e" stroke-width="8px" stroke-linejoin="round"/>
<!-- Forward arrow to point 6970,2490 -->
<polyline points=" 7095,2589 6979,2492 7126,2457"
	stroke="#5e5e5e" stroke-width="8px" stroke-miterlimit="8"/>
<!-- Line -->
<defs>
<clipPath id="cp6">
	<path clip-rule="evenodd" d="M -265,-39 H 10972 V 4366 H -265 z
		M 773,557 837,420 908,554 844,404 830,404z"/>
</clipPath>
</defs>
<polyline points=" 879,2156 837,411" clip-path="url(#cp6)"
	stroke="#5e5e5e" stroke-width="8px" stroke-linejoin="round"/>
<!-- Forward arrow to point 837,411 -->
<polyline points=" 773,557 837,420 908,554"
	stroke="#5e5e5e" stroke-width="8px" stroke-miterlimit="8"/>
<!-- Line -->
<defs>
<clipPath id="cp7">
	<path clip-rule="evenodd" d="M -265,-39 H 10972 V 4366 H -265 z
		M 6719,714 6783,577 6854,711 6790,561 6776,561z"/>
</clipPath>
</defs>
<polyline points=" 6826,2313 6783,568" clip-path="url(#cp7)"
	stroke="#5e5e5e" stroke-width="8px" stroke-linejoin="round"/>
<!-- Forward arrow to point 6783,568 -->
<polyline points=" 6719,714 6783,577 6854,711"
	stroke="#5e5e5e" stroke-width="8px" stroke-miterlimit="8"/>
<!-- Line -->
<defs>
<clipPath id="cp8">
	<path clip-rule="evenodd" d="M -265,-39 H 10972 V 4366 H -265 z
		M 200,3172 54,3213 109,3072 37,3219 47,3229z"/>
</clipPath>
</defs>
<polyline points=" 1024,2333 47,3219" clip-path="url(#cp8)"
	stroke="#5e5e5e" stroke-width="8px" stroke-linejoin="round"/>
<!-- Forward arrow to point 47,3219 -->
<polyline points=" 200,3172 54,3213 109,3072"
	stroke="#5e5e5e" stroke-width="8px" stroke-miterlimit="8"/>
<!-- Line -->
<defs>
<clipPath id="cp9">
	<path clip-rule="evenodd" d="M -265,-39 H 10972 V 4366 H -265 z
		M 6146,3328 6000,3369 6055,3228 5983,3375 5993,3385z"/>
</clipPath>
</defs>
<polyline points=" 6970,2490 5993,3375" clip-path="url(#cp9)"
	stroke="#5e5e5e" stroke-width="8px" stroke-linejoin="round"/>
<!-- Forward arrow to point 5993,3375 -->
<polyline points=" 6146,3328 6000,3369 6055,3228"
	stroke="#5e5e5e" stroke-width="8px" stroke-miterlimit="8"/>
<!-- Line -->
<defs>
<clipPath id="cp10">
	<path clip-rule="evenodd" d="M -265,-39 H 10972 V 4366 H -265 z
		M 725,2199 872,2162 814,2302 889,2157 880,2146z"/>
</clipPath>
</defs>
<polyline points=" -121,3018 879,2156" clip-path="url(#cp10)"
	stroke="#5e5e5e" stroke-width="8px" stroke-linejoin="round"/>
<!-- Forward arrow to point 879,2156 -->
<polyline points=" 725,2199 872,2162 814,2302"
	stroke="#5e5e5e" stroke-width="8px" stroke-miterlimit="8"/>
<!-- Line -->
<defs>
<clipPath id="cp11">
	<path clip-rule="evenodd" d="M -265,-39 H 10972 V 4366 H -265 z
		M 6672,2356 6819,2319 6761,2459 6836,2314 6827,2303z"/>
</clipPath>
</defs>
<polyline points=" 5827,3175 6826,2313" clip-path="url(#cp11)"
	stroke="#5e5e5e" stroke-width="8px" stroke-linejoin="round"/>
<!-- Forward arrow to point 6826,2313 -->
<polyline points=" 6672,2356 6819,2319 6761,2459"
	stroke="#5e5e5e" stroke-width="8px" stroke-miterlimit="8"/>
<!-- Line -->
<defs>
<clipPath id="cp12">
	<path clip-rule="evenodd" d="M -265,-39 H 10972 V 4366 H -265 z
		M 2846,819 2921,688 2981,827 2929,673 2916,672z"/>
</clipPath>
</defs>
<polyline points=" 2816,2509 2922,679" clip-path="url(#cp12)"
	stroke="#5e5e5e" stroke-width="8px" stroke-linejoin="round"/>
<!-- Forward arrow to point 2922,679 -->
<polyline points=" 2846,819 2921,688 2981,827"
	stroke="#5e5e5e" stroke-width="8px" stroke-miterlimit="8"/>
<!-- Line -->
<defs>
<clipPath id="cp13">
	<path clip-rule="evenodd" d="M -265,-39 H 10972 V 4366 H -265 z
		M 8793,975 8868,844 8928,983 8876,829 8863,828z"/>
</clipPath>
</defs>
<polyline points=" 8762,2666 8869,835" clip-path="url(#cp13)"
	stroke="#5e5e5e" stroke-width="8px" stroke-linejoin="round"/>
<!-- Forward arrow to point 8869,835 -->
<polyline points=" 8793,975 8868,844 8928,983"
	stroke="#5e5e5e" stroke-width="8px" stroke-miterlimit="8"/>
<!-- Line -->
<defs>
<clipPath id="cp14">
	<path clip-rule="evenodd" d="M -265,-39 H 10972 V 4366 H -265 z
		M 1204,475 1081,386 1225,341 1066,377 1064,391z"/>
</clipPath>
</defs>
<polyline points=" 2922,679 1072,385" clip-path="url(#cp14)"
	stroke="#5e5e5e" stroke-width="8px" stroke-linejoin="round"/>
<!-- Forward arrow to point 1072,385 -->
<polyline points=" 1204,475 1081,386 1225,341"
	stroke="#5e5e5e" stroke-width="8px" stroke-miterlimit="8"/>
<!-- Line -->
<defs>
<clipPath id="cp15">
	<path clip-rule="evenodd" d="M -265,-39 H 10972 V 4366 H -265 z
		M 7150,632 7027,543 7171,498 7012,534 7010,548z"/>
</clipPath>
</defs>
<polyline points=" 8869,835 7018,542" clip-path="url(#cp15)"
	stroke="#5e5e5e" stroke-width="8px" stroke-linejoin="round"/>
<!-- Forward arrow to point 7018,542 -->
<polyline points=" 7150,632 7027,543 7171,498"
	stroke="#5e5e5e" stroke-width="8px" stroke-miterlimit="8"/>
<!-- Line -->
<defs>
<clipPath id="cp16">
	<path clip-rule="evenodd" d="M -265,-39 H 10972 V 4366 H -265 z
		M 2997,2482 2921,2613 2861,2473 2913,2628 2926,2629z"/>
</clipPath>
</defs>
<polyline points=" 3037,766 2920,2622" clip-path="url(#cp16)"
	stroke="#5e5e5e" stroke-width="8px" stroke-linejoin="round"/>
<!-- Forward arrow to point 2920,2622 -->
<polyline points=" 2997,2482 2921,2613 2861,2473"
	stroke="#5e5e5e" stroke-width="8px" stroke-miterlimit="8"/>
<!-- Line -->
<defs>
<clipPath id="cp17">
	<path clip-rule="evenodd" d="M -265,-39 H 10972 V 4366 H -265 z
		M 8943,2639 8867,2770 8807,2630 8859,2785 8872,2786z"/>
</clipPath>
</defs>
<polyline points=" 8984,923 8866,2779" clip-path="url(#cp17)"
	stroke="#5e5e5e" stroke-width="8px" stroke-linejoin="round"/>
<!-- Forward arrow to point 8866,2779 -->
<polyline points=" 8943,2639 8867,2770 8807,2630"
	stroke="#5e5e5e" stroke-width="8px" stroke-miterlimit="8"/>
<!-- Line -->
<defs>
<clipPath id="cp18">
	<path clip-rule="evenodd" d="M -265,-39 H 10972 V 4366 H -265 z
		M 2738,471 2861,559 2717,605 2876,568 2878,554z"/>
</clipPath>
</defs>
<polyline points=" 987,268 2870,560" clip-path="url(#cp18)"
	stroke="#5e5e5e" stroke-width="8px" stroke-linejoin="round"/>
<!-- Forward arrow to point 2870,560 -->
<polyline points=" 2738,471 2861,559 2717,605"
	stroke="#5e5e5e" stroke-width="8px" stroke-miterlimit="8"/>
<!-- Line -->
<defs>
<clipPath id="cp19">
	<path clip-rule="evenodd" d="M -265,-39 H 10972 V 4366 H -265 z
		M 8685,628 8808,716 8664,762 8823,725 8825,711z"/>
</clipPath>
</defs>
<polyline points=" 6934,424 8817,717" clip-path="url(#cp19)"
	stroke="#5e5e5e" stroke-width="8px" stroke-linejoin="round"/>
<!-- Forward arrow to point 8817,717 -->
<polyline points=" 8685,628 8808,716 8664,762"
	stroke="#5e5e5e" stroke-width="8px" stroke-miterlimit="8"/>
<!-- Line -->
<defs>
<clipPath id="cp20">
	<path clip-rule="evenodd" d="M -265,-39 H 10972 V 4366 H -265 z
		M 3407,2525 3329,2655 3272,2514 3321,2670 3334,2671z"/>
</clipPath>
</defs>
<polyline points=" 3478,803 3328,2664" clip-path="url(#cp20)"
	stroke="#5e5e5e" stroke-width="8px" stroke-linejoin="round"/>
<!-- Forward arrow to point 3328,2664 -->
<polyline points=" 3407,2525 3329,2655 3272,2514"
	stroke="#5e5e5e" stroke-width="8px" stroke-miterlimit="8"/>
<!-- Line -->
<defs>
<clipPath id="cp21">
	<path clip-rule="evenodd" d="M -265,-39 H 10972 V 4366 H -265 z
		M 9354,2682 9276,2812 9219,2671 9268,2827 9281,2828z"/>
</clipPath>
</defs>
<polyline points=" 9424,959 9275,2821" clip-path="url(#cp21)"
	stroke="#5e5e5e" stroke-width="8px" stroke-linejoin="round"/>
<!-- Forward arrow to point 9275,2821 -->
<polyline points=" 9354,2682 9276,2812 9219,2671"
	stroke="#5e5e5e" stroke-width="8px" stroke-miterlimit="8"/>
<!-- Line -->
<defs>
<clipPath id="cp22">
	<path clip-rule="evenodd" d="M -265,-39 H 10972 V 4366 H -265 z
		M 3190,950 3267,820 3325,960 3275,805 3262,804z"/>
</clipPath>
</defs>
<polyline points=" 3128,2682 3268,811" clip-path="url(#cp22)"
	stroke="#5e5e5e" stroke-width="8px" stroke-linejoin="round"/>
<!-- Forward arrow to point 3268,811 -->
<polyline points=" 3190,950 3267,820 3325,960"
	stroke="#5e5e5e" stroke-width="8px" stroke-miterlimit="8"/>
<!-- Line -->
<defs>
<clipPath id="cp23">
	<path clip-rule="evenodd" d="M -265,-39 H 10972 V 4366 H -265 z
		M 9136,1107 9213,977 9271,1117 9221,962 9208,961z"/>
</clipPath>
</defs>
<polyline points=" 9075,2839 9214,968" clip-path="url(#cp23)"
	stroke="#5e5e5e" stroke-width="8px" stroke-linejoin="round"/>
<!-- Forward arrow to point 9214,968 -->
<polyline points=" 9136,1107 9213,977 9271,1117"
	stroke="#5e5e5e" stroke-width="8px" stroke-miterlimit="8"/>
<!-- Line -->
<defs>
<clipPath id="cp24">
	<path clip-rule="evenodd" d="M -265,-39 H 10972 V 4366 H -265 z
		M 2606,2808 2743,2742 2713,2891 2757,2734 2747,2726z"/>
</clipPath>
</defs>
<polyline points=" 1963,3751 2748,2735" clip-path="url(#cp24)"
	stroke="#5e5e5e" stroke-width="8px" stroke-linejoin="round"/>
<!-- Forward arrow to point 2748,2735 -->
<polyline points=" 2606,2808 2743,2742 2713,2891"
	stroke="#5e5e5e" stroke-width="8px" stroke-miterlimit="8"/>
<!-- Line -->
<defs>
<clipPath id="cp25">
	<path clip-rule="evenodd" d="M -265,-39 H 10972 V 4366 H -265 z
		M 8552,2965 8689,2899 8659,3048 8703,2891 8693,2883z"/>
</clipPath>
</defs>
<polyline points=" 7909,3908 8694,2892" clip-path="url(#cp25)"
	stroke="#5e5e5e" stroke-width="8px" stroke-linejoin="round"/>
<!-- Forward arrow to point 8694,2892 -->
<polyline points=" 8552,2965 8689,2899 8659,3048"
	stroke="#5e5e5e" stroke-width="8px" stroke-miterlimit="8"/>
<!-- Line -->
<defs>
<clipPath id="cp26">
	<path clip-rule="evenodd" d="M -265,-39 H 10972 V 4366 H -265 z
		M -94,1053 -245,1065 -164,937 -262,1068 -255,1079z"/>
</clipPath>
</defs>
<polyline points=" 837,411 -253,1070" clip-path="url(#cp26)"
	stroke="#5e5e5e" stroke-width="8px" stroke-linejoin="round"/>
<!-- Forward arrow to point -253,1070 -->
<polyline points=" -94,1053 -245,1065 -164,937"
	stroke="#5e5e5e" stroke-width="8px" stroke-miterlimit="8"/>
<!-- Line -->
<defs>
<clipPath id="cp27">
	<path clip-rule="evenodd" d="M -265,-39 H 10972 V 4366 H -265 z
		M 5852,1210 5701,1222 5782,1094 5684,1225 5691,1236z"/>
</clipPath>
</defs>
<polyline points=" 6783,568 5693,1227" clip-path="url(#cp27)"
	stroke="#5e5e5e" stroke-width="8px" stroke-linejoin="round"/>
<!-- Forward arrow to point 5693,1227 -->
<polyline points=" 5852,1210 5701,1222 5782,1094"
	stroke="#5e5e5e" stroke-width="8px" stroke-miterlimit="8"/>
<!-- Line -->
<defs>
<clipPath id="cp28">
	<path clip-rule="evenodd" d="M -265,-39 H 10972 V 4366 H -265 z
		M 2292,3561 2156,3628 2184,3479 2142,3636 2152,3644z"/>
</clipPath>
</defs>
<polyline points=" 2920,2622 2151,3635" clip-path="url(#cp28)"
	stroke="#5e5e5e" stroke-width="8px" stroke-linejoin="round"/>
<!-- Forward arrow to point 2151,3635 -->
<polyline points=" 2292,3561 2156,3628 2184,3479"
	stroke="#5e5e5e" stroke-width="8px" stroke-miterlimit="8"/>
<!-- Line -->
<defs>
<clipPath id="cp29">
	<path clip-rule="evenodd" d="M -265,-39 H 10972 V 4366 H -265 z
		M 8239,3718 8103,3785 8131,3636 8089,3793 8099,3801z"/>
</clipPath>
</defs>
<polyline points=" 8866,2779 8098,3792" clip-path="url(#cp29)"
	stroke="#5e5e5e" stroke-width="8px" stroke-linejoin="round"/>
<!-- Forward arrow to point 8098,3792 -->
<polyline points=" 8239,3718 8103,3785 8131,3636"
	stroke="#5e5e5e" stroke-width="8px" stroke-miterlimit="8"/>
<!-- Line -->
<defs>
<clipPath id="cp30">
	<path clip-rule="evenodd" d="M -265,-39 H 10972 V 4366 H -265 z
		M 828,284 979,273 898,400 996,270 989,259z"/>
</clipPath>
</defs>
<polyline points=" -95,916 987,268" clip-path="url(#cp30)"
	stroke="#5e5e5e" stroke-width="8px" stroke-linejoin="round"/>
<!-- Forward arrow to point 987,268 -->
<polyline points=" 828,284 979,273 898,400"
	stroke="#5e5e5e" stroke-width="8px" stroke-miterlimit="8"/>
<!-- Line -->
<defs>
<clipPath id="cp31">
	<path clip-rule="evenodd" d="M -265,-39 H 10972 V 4366 H -265 z
		M 2766,3842 2633,3916 2654,3765 2619,3925 2630,3932z"/>
</clipPath>
</defs>
<polyline points=" 3348,2872 2628,3923" clip-path="url(#cp31)"
	stroke="#5e5e5e" stroke-width="8px" stroke-linejoin="round"/>
<!-- Forward arrow to point 2628,3923 -->
<polyline points=" 2766,3842 2633,3916 2654,3765"
	stroke="#5e5e5e" stroke-width="8px" stroke-miterlimit="8"/>
<!-- Line -->
<defs>
<clipPath id="cp32">
	<path clip-rule="evenodd" d="M -265,-39 H 10972 V 4366 H -265 z
		M 6775,440 6926,429 6845,556 6943,426 6936,415z"/>
</clipPath>
</defs>
<polyline points=" 5851,1073 6934,424" clip-path="url(#cp32)"
	stroke="#5e5e5e" stroke-width="8px" stroke-linejoin="round"/>
<!-- Forward arrow to point 6934,424 -->
<polyline points=" 6775,440 6926,429 6845,556"
	stroke="#5e5e5e" stroke-width="8px" stroke-miterlimit="8"/>
<!-- Line -->
<defs>
<clipPath id="cp33">
	<path clip-rule="evenodd" d="M -265,-39 H 10972 V 4366 H -265 z
		M 8712,3999 8579,4073 8600,3922 8565,4082 8576,4089z"/>
</clipPath>
</defs>
<polyline points=" 9295,3029 8574,4080" clip-path="url(#cp33)"
	stroke="#5e5e5e" stroke-width="8px" stroke-linejoin="round"/>
<!-- Forward arrow to point 8574,4080 -->
<polyline points=" 8712,3999 8579,4073 8600,3922"
	stroke="#5e5e5e" stroke-width="8px" stroke-miterlimit="8"/>
<!-- Line -->
<defs>
<clipPath id="cp34">
	<path clip-rule="evenodd" d="M -265,-39 H 10972 V 4366 H -265 z
		M 2989,2760 3123,2689 3099,2839 3137,2680 3126,2673z"/>
</clipPath>
</defs>
<polyline points=" 2393,3715 3128,2682" clip-path="url(#cp34)"
	stroke="#5e5e5e" stroke-width="8px" stroke-linejoin="round"/>
<!-- Forward arrow to point 3128,2682 -->
<polyline points=" 2989,2760 3123,2689 3099,2839"
	stroke="#5e5e5e" stroke-width="8px" stroke-miterlimit="8"/>
<!-- Line -->
<defs>
<clipPath id="cp35">
	<path clip-rule="evenodd" d="M -265,-39 H 10972 V 4366 H -265 z
		M 8936,2917 9070,2846 9046,2996 9084,2837 9073,2830z"/>
</clipPath>
</defs>
<polyline points=" 8339,3872 9075,2839" clip-path="url(#cp35)"
	stroke="#5e5e5e" stroke-width="8px" stroke-linejoin="round"/>
<!-- Forward arrow to point 9075,2839 -->
<polyline points=" 8936,2917 9070,2846 9046,2996"
	stroke="#5e5e5e" stroke-width="8px" stroke-miterlimit="8"/>
<!-- Line -->
<defs>
<clipPath id="cp36">
	<path clip-rule="evenodd" d="M -265,-39 H 10972 V 4366 H -265 z
		M 1842,3647 1954,3749 1806,3778 1968,3759 1971,3746z"/>
</clipPath>
</defs>
<polyline points=" 47,3219 1963,3751" clip-path="url(#cp36)"
	stroke="#5e5e5e" stroke-width="8px" stroke-linejoin="round"/>
<!-- Forward arrow to point 1963,3751 -->
<polyline points=" 1842,3647 1954,3749 1806,3778"
	stroke="#5e5e5e" stroke-width="8px" stroke-miterlimit="8"/>
<!-- Line -->
<defs>
<clipPath id="cp37">
	<path clip-rule="evenodd" d="M -265,-39 H 10972 V 4366 H -265 z
		M 7788,3804 7900,3906 7752,3935 7914,3916 7917,3903z"/>
</clipPath>
</defs>
<polyline points=" 5993,3375 7909,3908" clip-path="url(#cp37)"
	stroke="#5e5e5e" stroke-width="8px" stroke-linejoin="round"/>
<!-- Forward arrow to point 7909,3908 -->
<polyline points=" 7788,3804 7900,3906 7752,3935"
	stroke="#5e5e5e" stroke-width="8px" stroke-miterlimit="8"/>
<!-- Line -->
<defs>
<clipPath id="cp38">
	<path clip-rule="evenodd" d="M -265,-39 H 10972 V 4366 H -265 z
		M 4825,2536 4963,2598 4830,2672 4979,2604 4978,2591z"/>
</clipPath>
</defs>
<polyline points=" 3328,2664 4972,2598" clip-path="url(#cp38)"
	stroke="#5e5e5e" stroke-width="8px" stroke-linejoin="round"/>
<!-- Forward arrow to point 4972,2598 -->
<polyline points=" 4825,2536 4963,2598 4830,2672"
	stroke="#5e5e5e" stroke-width="8px" stroke-miterlimit="8"/>
<!-- Line -->
<defs>
<clipPath id="cp39">
	<path clip-rule="evenodd" d="M -265,-39 H 10972 V 4366 H -265 z
		M 10773,2692 10911,2754 10778,2828 10927,2760 10926,2747z"/>
</clipPath>
</defs>
<polyline points=" 9275,2821 10920,2754" clip-path="url(#cp39)"
	stroke="#5e5e5e" stroke-width="8px" stroke-linejoin="round"/>
<!-- Forward arrow to point 10920,2754 -->
<polyline points=" 10773,2692 10911,2754 10778,2828"
	stroke="#5e5e5e" stroke-width="8px" stroke-miterlimit="8"/>
<!-- Line -->
<defs>
<clipPath id="cp40">
	<path clip-rule="evenodd" d="M -265,-39 H 10972 V 4366 H -265 z
		M 3494,2937 3357,2872 3491,2801 3341,2865 3341,2879z"/>
</clipPath>
</defs>
<polyline points=" 4993,2835 3348,2872" clip-path="url(#cp40)"
	stroke="#5e5e5e" stroke-width="8px" stroke-linejoin="round"/>
<!-- Forward arrow to point 3348,2872 -->
<polyline points=" 3494,2937 3357,2872 3491,2801"
	stroke="#5e5e5e" stroke-width="8px" stroke-miterlimit="8"/>
<!-- Line -->
<defs>
<clipPath id="cp41">
	<path clip-rule="evenodd" d="M -265,-39 H 10972 V 4366 H -265 z
		M 9441,3094 9304,3029 9438,2958 9288,3022 9288,3036z"/>
</clipPath>
</defs>
<polyline points=" 10939,2992 9295,3029" clip-path="url(#cp41)"
	stroke="#5e5e5e" stroke-width="8px" stroke-linejoin="round"/>
<!-- Forward arrow to point 9295,3029 -->
<polyline points=" 9441,3094 9304,3029 9438,2958"
	stroke="#5e5e5e" stroke-width="8px" stroke-miterlimit="8"/>
<!-- Line -->
<defs>
<clipPath id="cp42">
	<path clip-rule="evenodd" d="M -265,-39 H 10972 V 4366 H -265 z
		M -63,2869 -122,3009 -198,2878 -127,3025 -114,3024z"/>
</clipPath>
</defs>
<polyline points=" -253,1070 -121,3018" clip-path="url(#cp42)"
	stroke="#5e5e5e" stroke-width="8px" stroke-linejoin="round"/>
<!-- Forward arrow to point -121,3018 -->
<polyline points=" -63,2869 -122,3009 -198,2878"
	stroke="#5e5e5e" stroke-width="8px" stroke-miterlimit="8"/>
<!-- Line -->
<defs>
<clipPath id="cp43">
	<path clip-rule="evenodd" d="M -265,-39 H 10972 V 4366 H -265 z
		M 5885,3026 5826,3166 5749,3035 5821,3182 5834,3181z"/>
</clipPath>
</defs>
<polyline points=" 5693,1227 5827,3175" clip-path="url(#cp43)"
	stroke="#5e5e5e" stroke-width="8px" stroke-linejoin="round"/>
<!-- Forward arrow to point 5827,3175 -->
<polyline points=" 5885,3026 5826,3166 5749,3035"
	stroke="#5e5e5e" stroke-width="8px" stroke-miterlimit="8"/>
<!-- Line -->
<defs>
<clipPath id="cp44">
	<path clip-rule="evenodd" d="M -265,-39 H 10972 V 4366 H -265 z
		M 56,3254 -56,3152 92,3123 -70,3142 -73,3155z"/>
</clipPath>
</defs>
<polyline points=" 1885,3688 -65,3150" clip-path="url(#cp44)"
	stroke="#5e5e5e" stroke-width="8px" stroke-linejoin="round"/>
<!-- Forward arrow to point -65,3150 -->
<polyline points=" 56,3254 -56,3152 92,3123"
	stroke="#5e5e5e" stroke-width="8px" stroke-miterlimit="8"/>
<!-- Line -->
<defs>
<clipPath id="cp45">
	<path clip-rule="evenodd" d="M -265,-39 H 10972 V 4366 H -265 z
		M 6002,3410 5890,3308 6038,3279 5876,3298 5873,3311z"/>
</clipPath>
</defs>
<polyline points=" 7833,3845 5881,3306" clip-path="url(#cp45)"
	stroke="#5e5e5e" stroke-width="8px" stroke-linejoin="round"/>
<!-- Forward arrow to point 5881,3306 -->
<polyline points=" 6002,3410 5890,3308 6038,3279"
	stroke="#5e5e5e" stroke-width="8px" stroke-miterlimit="8"/>
<!-- Line -->
<defs>
<clipPath id="cp46">
	<path clip-rule="evenodd" d="M -265,-39 H 10972 V 4366 H -265 z
		M -253,1323 -194,1183 -118,1314 -189,1167 -202,1168z"/>
</clipPath>
</defs>
<polyline points=" -65,3150 -195,1174" clip-path="url(#cp46)"
	stroke="#5e5e5e" stroke-width="8px" stroke-linejoin="round"/>
<!-- Forward arrow to point -195,1174 -->
<polyline points=" -253,1323 -194,1183 -118,1314"
	stroke="#5e5e5e" stroke-width="8px" stroke-miterlimit="8"/>
<!-- Line -->
<defs>
<clipPath id="cp47">
	<path clip-rule="evenodd" d="M -265,-39 H 10972 V 4366 H -265 z
		M 5694,1479 5753,1339 5829,1470 5758,1323 5745,1324z"/>
</clipPath>
</defs>
<polyline points=" 5881,3306 5752,1330" clip-path="url(#cp47)"
	stroke="#5e5e5e" stroke-width="8px" stroke-linejoin="round"/>
<!-- Forward arrow to point 5752,1330 -->
<polyline points=" 5694,1479 5753,1339 5829,1470"
	stroke="#5e5e5e" stroke-width="8px" stroke-miterlimit="8"/>
<!-- Line -->
<defs>
<clipPath id="cp48">
	<path clip-rule="evenodd" d="M -265,-39 H 10972 V 4366 H -265 z
		M 3518,958 3484,810 3623,871 3479,793 3468,802z"/>
</clipPath>
</defs>
<polyline points=" 4972,2598 3478,803" clip-path="url(#cp48)"
	stroke="#5e5e5e" stroke-width="8px" stroke-linejoin="round"/>
<!-- Forward arrow to point 3478,803 -->
<polyline points=" 3518,958 3484,810 3623,871"
	stroke="#5e5e5e" stroke-width="8px" stroke-miterlimit="8"/>
<!-- Line -->
<defs>
<clipPath id="cp49">
	<path clip-rule="evenodd" d="M -265,-39 H 10972 V 4366 H -265 z
		M 9464,1113 9430,966 9569,1027 9425,949 9414,958z"/>
</clipPath>
</defs>
<polyline points=" 10920,2754 9424,959" clip-path="url(#cp49)"
	stroke="#5e5e5e" stroke-width="8px" stroke-linejoin="round"/>
<!-- Forward arrow to point 9424,959 -->
<polyline points=" 9464,1113 9430,966 9569,1027"
	stroke="#5e5e5e" stroke-width="8px" stroke-miterlimit="8"/>
<!-- Line -->
<defs>
<clipPath id="cp50">
	<path clip-rule="evenodd" d="M -265,-39 H 10972 V 4366 H -265 z
		M 4972,2367 5007,2514 4868,2453 5012,2531 5023,2522z"/>
</clipPath>
</defs>
<polyline points=" 3498,706 5013,2521" clip-path="url(#cp50)"
	stroke="#5e5e5e" stroke-width="8px" stroke-linejoin="round"/>
<!-- Forward arrow to point 5013,2521 -->
<polyline points=" 4972,2367 5007,2514 4868,2453"
	stroke="#5e5e5e" stroke-width="8px" stroke-miterlimit="8"/>
<!-- Line -->
<defs>
<clipPath id="cp51">
	<path clip-rule="evenodd" d="M -265,-39 H 10972 V 4366 H -265 z
		M 10919,2524 10954,2671 10815,2610 10959,2688 10970,2679z"/>
</clipPath>
</defs>
<polyline points=" 9445,863 10960,2678" clip-path="url(#cp51)"
	stroke="#5e5e5e" stroke-width="8px" stroke-linejoin="round"/>
<!-- Forward arrow to point 10960,2678 -->
<polyline points=" 10919,2524 10954,2671 10815,2610"
	stroke="#5e5e5e" stroke-width="8px" stroke-miterlimit="8"/>
<!-- Line -->
<defs>
<clipPath id="cp52">
	<path clip-rule="evenodd" d="M -265,-39 H 10972 V 4366 H -265 z
		M 2886,817 3031,772 2980,915 3052,766 3037,751z"/>
</clipPath>
</defs>
<polyline points=" 2217,1553 3037,766" clip-path="url(#cp52)"
	stroke="#000000" stroke-width="15px" stroke-linejoin="round"/>
<!-- Forward arrow to point 3037,766 -->
<polyline points=" 2886,817 3031,772 2980,915"
	stroke="#000000" stroke-width="8px" stroke-miterlimit="8"/>
<!-- Line -->
<defs>
<clipPath id="cp53">
	<path clip-rule="evenodd" d="M -265,-39 H 10972 V 4366 H -265 z
		M 8470,1323 8615,1278 8564,1421 8636,1272 8621,1257z"/>
</clipPath>
</defs>
<polyline points=" 8164,1710 8621,1272" clip-path="url(#cp53)"
	stroke="#000000" stroke-width="15px" stroke-linejoin="round"/>
<!-- Forward arrow to point 8621,1272 -->
<polyline points=" 8470,1323 8615,1278 8564,1421"
	stroke="#000000" stroke-width="8px" stroke-miterlimit="8"/>
<!-- Line -->
<defs>
<clipPath id="cp54">
	<path clip-rule="evenodd" d="M -265,-39 H 10972 V 4366 H -265 z
		M 8827,980 8972,935 8921,1078 8993,929 8978,914z"/>
</clipPath>
</defs>
<polyline points=" 8618,1275 8978,929" clip-path="url(#cp54)"
	stroke="#000000" stroke-width="15px" stroke-linejoin="round"/>
<!-- Forward arrow to point 8978,929 -->
<polyline points=" 8827,980 8972,935 8921,1078"
	stroke="#000000" stroke-width="8px" stroke-miterlimit="8"/>
<!-- Line -->
<defs>
<clipPath id="cp55">
	<path clip-rule="evenodd" d="M -265,-39 H 10972 V 4366 H -265 z
		M 2173,1268 2027,1307 2083,1166 1984,1311 2018,1349z"/>
</clipPath>
</defs>
<polyline points=" 2870,560 2020,1313" clip-path="url(#cp55)"
	stroke="#000000" stroke-width="45px" stroke-linejoin="round"/>
<!-- Forward arrow to point 2020,1313 -->
<polyline points=" 2173,1268 2027,1307 2083,1166"
	stroke="#000000" stroke-width="8px" stroke-miterlimit="8"/>
<!-- Line -->
<defs>
<clipPath id="cp56">
	<path clip-rule="evenodd" d="M -265,-39 H 10972 V 4366 H -265 z
		M 8120,1425 7974,1464 8031,1324 7931,1468 7965,1506z"/>
</clipPath>
</defs>
<polyline points=" 8443,1051 7967,1470" clip-path="url(#cp56)"
	stroke="#000000" stroke-width="45px" stroke-linejoin="round"/>
<!-- Forward arrow to point 7967,1470 -->
<polyline points=" 8120,1425 7974,1464 8031,1324"
	stroke="#000000" stroke-width="8px" stroke-miterlimit="8"/>
<!-- Line -->
<defs>
<clipPath id="cp57">
	<path clip-rule="evenodd" d="M -265,-39 H 10972 V 4366 H -265 z
		M 8596,1006 8450,1045 8507,904 8428,1050 8442,1066z"/>
</clipPath>
</defs>
<polyline points=" 8817,721 8443,1051" clip-path="url(#cp57)"
	stroke="#000000" stroke-width="15px" stroke-linejoin="round"/>
<!-- Forward arrow to point 8443,1051 -->
<polyline points=" 8596,1006 8450,1045 8507,904"
	stroke="#000000" stroke-width="8px" stroke-miterlimit="8"/>
<!-- Line -->
<defs>
<clipPath id="cp58">
	<path clip-rule="evenodd" d="M -265,-39 H 10972 V 4366 H -265 z
		M 2636,1559 2493,1610 2539,1465 2472,1616 2487,1631z"/>
</clipPath>
</defs>
<polyline points=" 3268,811 2487,1616" clip-path="url(#cp58)"
	stroke="#000000" stroke-width="15px" stroke-linejoin="round"/>
<!-- Forward arrow to point 2487,1616 -->
<polyline points=" 2636,1559 2493,1610 2539,1465"
	stroke="#000000" stroke-width="8px" stroke-miterlimit="8"/>
<!-- Line -->
<defs>
<clipPath id="cp59">
	<path clip-rule="evenodd" d="M -265,-39 H 10972 V 4366 H -265 z
		M 8583,1717 8440,1767 8486,1622 8419,1773 8434,1788z"/>
</clipPath>
</defs>
<polyline points=" 8848,1348 8434,1773" clip-path="url(#cp59)"
	stroke="#000000" stroke-width="15px" stroke-linejoin="round"/>
<!-- Forward arrow to point 8434,1773 -->
<polyline points=" 8583,1717 8440,1767 8486,1622"
	stroke="#000000" stroke-width="8px" stroke-miterlimit="8"/>
<!-- Line -->
<defs>
<clipPath id="cp60">
	<path clip-rule="evenodd" d="M -265,-39 H 10972 V 4366 H -265 z
		M 8995,1294 8852,1345 8897,1200 8831,1351 8846,1366z"/>
</clipPath>
</defs>
<polyline points=" 9199,983 8846,1351" clip-path="url(#cp60)"
	stroke="#000000" stroke-width="15px" stroke-linejoin="round"/>
<!-- Forward arrow to point 8846,1351 -->
<polyline points=" 8995,1294 8852,1345 8897,1200"
	stroke="#000000" stroke-width="8px" stroke-miterlimit="8"/>
<!-- Line -->
<defs>
<clipPath id="cp61">
	<path clip-rule="evenodd" d="M -265,-39 H 10972 V 4366 H -265 z
		M 4833,2834 4985,2839 4890,2957 5002,2838 4996,2826z"/>
</clipPath>
</defs>
<polyline points=" 2628,3923 4993,2835" clip-path="url(#cp61)"
	stroke="#5e5e5e" stroke-width="8px" stroke-linejoin="round"/>
<!-- Forward arrow to point 4993,2835 -->
<polyline points=" 4833,2834 4985,2839 4890,2957"
	stroke="#5e5e5e" stroke-width="8px" stroke-miterlimit="8"/>
<!-- Line -->
<defs>
<clipPath id="cp62">
	<path clip-rule="evenodd" d="M -265,-39 H 10972 V 4366 H -265 z
		M 10779,2991 10931,2996 10836,3114 10948,2995 10942,2983z"/>
</clipPath>
</defs>
<polyline points=" 8574,4080 10939,2992" clip-path="url(#cp62)"
	stroke="#5e5e5e" stroke-width="8px" stroke-linejoin="round"/>
<!-- Forward arrow to point 10939,2992 -->
<polyline points=" 10779,2991 10931,2996 10836,3114"
	stroke="#5e5e5e" stroke-width="8px" stroke-miterlimit="8"/>
<!-- Line -->
<defs>
<clipPath id="cp63">
	<path clip-rule="evenodd" d="M -265,-39 H 10972 V 4366 H -265 z
		M 3349,763 3492,712 3446,857 3513,706 3498,691z"/>
</clipPath>
</defs>
<polyline points=" 2730,1500 3498,706" clip-path="url(#cp63)"
	stroke="#000000" stroke-width="15px" stroke-linejoin="round"/>
<!-- Forward arrow to point 3498,706 -->
<polyline points=" 3349,763 3492,712 3446,857"
	stroke="#000000" stroke-width="8px" stroke-miterlimit="8"/>
<!-- Line -->
<defs>
<clipPath id="cp64">
	<path clip-rule="evenodd" d="M -265,-39 H 10972 V 4366 H -265 z
		M 9296,920 9439,869 9393,1014 9460,863 9445,848z"/>
</clipPath>
</defs>
<polyline points=" 9046,1276 9445,863" clip-path="url(#cp64)"
	stroke="#000000" stroke-width="15px" stroke-linejoin="round"/>
<!-- Forward arrow to point 9445,863 -->
<polyline points=" 9296,920 9439,869 9393,1014"
	stroke="#000000" stroke-width="8px" stroke-miterlimit="8"/>
<!-- Line -->
<defs>
<clipPath id="cp65">
	<path clip-rule="evenodd" d="M -265,-39 H 10972 V 4366 H -265 z
		M 8895,1331 9039,1281 8993,1426 9060,1275 9045,1260z"/>
</clipPath>
</defs>
<polyline points=" 8683,1646 9045,1275" clip-path="url(#cp65)"
	stroke="#000000" stroke-width="15px" stroke-linejoin="round"/>
<!-- Forward arrow to point 9045,1275 -->
<polyline points=" 8895,1331 9039,1281 8993,1426"
	stroke="#000000" stroke-width="8px" stroke-miterlimit="8"/>
<!-- Line -->
<defs>
<clipPath id="cp66">
	<path clip-rule="evenodd" d="M -265,-39 H 10972 V 4366 H -265 z
		M 2692,3846 2540,3841 2635,3723 2523,3842 2529,3854z"/>
</clipPath>
</defs>
<polyline points=" 4930,2738 2532,3845" clip-path="url(#cp66)"
	stroke="#5e5e5e" stroke-width="8px" stroke-linejoin="round"/>
<!-- Forward arrow to point 2532,3845 -->
<polyline points=" 2692,3846 2540,3841 2635,3723"
	stroke="#5e5e5e" stroke-width="8px" stroke-miterlimit="8"/>
<!-- Line -->
<defs>
<clipPath id="cp67">
	<path clip-rule="evenodd" d="M -265,-39 H 10972 V 4366 H -265 z
		M 8639,4003 8487,3998 8582,3880 8470,3999 8476,4011z"/>
</clipPath>
</defs>
<polyline points=" 10878,2895 8479,4002" clip-path="url(#cp67)"
	stroke="#5e5e5e" stroke-width="8px" stroke-linejoin="round"/>
<!-- Forward arrow to point 8479,4002 -->
<polyline points=" 8639,4003 8487,3998 8582,3880"
	stroke="#5e5e5e" stroke-width="8px" stroke-miterlimit="8"/>
<!-- Line -->
<defs>
<clipPath id="cp68">
	<path clip-rule="evenodd" d="M -265,-39 H 10972 V 4366 H -265 z
		M 2145,1695 2217,1562 2280,1700 2224,1546 2210,1546z"/>
</clipPath>
</defs>
<polyline points=" 2151,3635 2217,1553" clip-path="url(#cp68)"
	stroke="#5e5e5e" stroke-width="8px" stroke-linejoin="round"/>
<!-- Forward arrow to point 2217,1553 -->
<polyline points=" 2145,1695 2217,1562 2280,1700"
	stroke="#5e5e5e" stroke-width="8px" stroke-miterlimit="8"/>
<!-- Line -->
<defs>
<clipPath id="cp69">
	<path clip-rule="evenodd" d="M -265,-39 H 10972 V 4366 H -265 z
		M 8092,1852 8164,1719 8227,1857 8171,1703 8157,1703z"/>
</clipPath>
</defs>
<polyline points=" 8098,3792 8164,1710" clip-path="url(#cp69)"
	stroke="#5e5e5e" stroke-width="8px" stroke-linejoin="round"/>
<!-- Forward arrow to point 8164,1710 -->
<polyline points=" 8092,1852 8164,1719 8227,1857"
	stroke="#5e5e5e" stroke-width="8px" stroke-miterlimit="8"/>
<!-- Line -->
<defs>
<clipPath id="cp70">
	<path clip-rule="evenodd" d="M -265,-39 H 10972 V 4366 H -265 z
		M 35,1009 -86,918 60,876 -100,908 -103,921z"/>
</clipPath>
</defs>
<polyline points=" 2020,1313 -95,916" clip-path="url(#cp70)"
	stroke="#5e5e5e" stroke-width="8px" stroke-linejoin="round"/>
<!-- Forward arrow to point -95,916 -->
<polyline points=" 35,1009 -86,918 60,876"
	stroke="#5e5e5e" stroke-width="8px" stroke-miterlimit="8"/>
<!-- Line -->
<defs>
<clipPath id="cp71">
	<path clip-rule="evenodd" d="M -265,-39 H 10972 V 4366 H -265 z
		M 5981,1166 5860,1075 6006,1033 5846,1065 5843,1078z"/>
</clipPath>
</defs>
<polyline points=" 7967,1470 5851,1073" clip-path="url(#cp71)"
	stroke="#5e5e5e" stroke-width="8px" stroke-linejoin="round"/>
<!-- Forward arrow to point 5851,1073 -->
<polyline points=" 5981,1166 5860,1075 6006,1033"
	stroke="#5e5e5e" stroke-width="8px" stroke-miterlimit="8"/>
<!-- Line -->
<defs>
<clipPath id="cp72">
	<path clip-rule="evenodd" d="M -265,-39 H 10972 V 4366 H -265 z
		M 1956,3545 1885,3679 1820,3542 1878,3695 1892,3695z"/>
</clipPath>
</defs>
<polyline points=" 1926,1596 1885,3688" clip-path="url(#cp72)"
	stroke="#5e5e5e" stroke-width="8px" stroke-linejoin="round"/>
<!-- Forward arrow to point 1885,3688 -->
<polyline points=" 1956,3545 1885,3679 1820,3542"
	stroke="#5e5e5e" stroke-width="8px" stroke-miterlimit="8"/>
<!-- Line -->
<defs>
<clipPath id="cp73">
	<path clip-rule="evenodd" d="M -265,-39 H 10972 V 4366 H -265 z
		M 7904,3702 7833,3836 7768,3699 7826,3852 7840,3852z"/>
</clipPath>
</defs>
<polyline points=" 7873,1752 7833,3845" clip-path="url(#cp73)"
	stroke="#5e5e5e" stroke-width="8px" stroke-linejoin="round"/>
<!-- Forward arrow to point 7833,3845 -->
<polyline points=" 7904,3702 7833,3836 7768,3699"
	stroke="#5e5e5e" stroke-width="8px" stroke-miterlimit="8"/>
<!-- Line -->
<defs>
<clipPath id="cp74">
	<path clip-rule="evenodd" d="M -265,-39 H 10972 V 4366 H -265 z
		M 2467,3574 2393,3706 2332,3568 2386,3721 2399,3722z"/>
</clipPath>
</defs>
<polyline points=" 2487,1616 2393,3715" clip-path="url(#cp74)"
	stroke="#5e5e5e" stroke-width="8px" stroke-linejoin="round"/>
<!-- Forward arrow to point 2393,3715 -->
<polyline points=" 2467,3574 2393,3706 2332,3568"
	stroke="#5e5e5e" stroke-width="8px" stroke-miterlimit="8"/>
<!-- Line -->
<defs>
<clipPath id="cp75">
	<path clip-rule="evenodd" d="M -265,-39 H 10972 V 4366 H -265 z
		M 8413,3731 8339,3863 8278,3725 8332,3878 8345,3879z"/>
</clipPath>
</defs>
<polyline points=" 8434,1773 8339,3872" clip-path="url(#cp75)"
	stroke="#5e5e5e" stroke-width="8px" stroke-linejoin="round"/>
<!-- Forward arrow to point 8339,3872 -->
<polyline points=" 8413,3731 8339,3863 8278,3725"
	stroke="#5e5e5e" stroke-width="8px" stroke-miterlimit="8"/>
<!-- Line -->
<defs>
<clipPath id="cp76">
	<path clip-rule="evenodd" d="M -265,-39 H 10972 V 4366 H -265 z
		M 1797,1501 1917,1594 1771,1634 1931,1604 1934,1591z"/>
</clipPath>
</defs>
<polyline points=" -195,1174 1926,1596" clip-path="url(#cp76)"
	stroke="#5e5e5e" stroke-width="8px" stroke-linejoin="round"/>
<!-- Forward arrow to point 1926,1596 -->
<polyline points=" 1797,1501 1917,1594 1771,1634"
	stroke="#5e5e5e" stroke-width="8px" stroke-miterlimit="8"/>
<!-- Line -->
<defs>
<clipPath id="cp77">
	<path clip-rule="evenodd" d="M -265,-39 H 10972 V 4366 H -265 z
		M 7744,1657 7864,1750 7718,1790 7878,1760 7881,1747z"/>
</clipPath>
</defs>
<polyline points=" 5752,1330 7873,1752" clip-path="url(#cp77)"
	stroke="#5e5e5e" stroke-width="8px" stroke-linejoin="round"/>
<!-- Forward arrow to point 7873,1752 -->
<polyline points=" 7744,1657 7864,1750 7718,1790"
	stroke="#5e5e5e" stroke-width="8px" stroke-miterlimit="8"/>
<!-- Line -->
<defs>
<clipPath id="cp78">
	<path clip-rule="evenodd" d="M -265,-39 H 10972 V 4366 H -265 z
		M 2558,1866 2633,1734 2694,1873 2640,1719 2627,1718z"/>
</clipPath>
</defs>
<polyline points=" 2532,3845 2633,1725" clip-path="url(#cp78)"
	stroke="#5e5e5e" stroke-width="8px" stroke-linejoin="round"/>
<!-- Forward arrow to point 2633,1725 -->
<polyline points=" 2558,1866 2633,1734 2694,1873"
	stroke="#5e5e5e" stroke-width="8px" stroke-miterlimit="8"/>
<!-- Line -->
<defs>
<clipPath id="cp79">
	<path clip-rule="evenodd" d="M -265,-39 H 10972 V 4366 H -265 z
		M 8505,2023 8580,1891 8641,2030 8587,1876 8574,1875z"/>
</clipPath>
</defs>
<polyline points=" 8479,4002 8580,1882" clip-path="url(#cp79)"
	stroke="#5e5e5e" stroke-width="8px" stroke-linejoin="round"/>
<!-- Forward arrow to point 8580,1882 -->
<polyline points=" 8505,2023 8580,1891 8641,2030"
	stroke="#5e5e5e" stroke-width="8px" stroke-miterlimit="8"/>
<!-- Line -->
<defs>
<clipPath id="cp80">
	<path clip-rule="evenodd" d="M -265,-39 H 10972 V 4366 H -265 z
		M 2834,1621 2738,1504 2890,1497 2727,1491 2721,1503z"/>
</clipPath>
</defs>
<polyline points=" 5013,2521 2730,1500" clip-path="url(#cp80)"
	stroke="#5e5e5e" stroke-width="8px" stroke-linejoin="round"/>
<!-- Forward arrow to point 2730,1500 -->
<polyline points=" 2834,1621 2738,1504 2890,1497"
	stroke="#5e5e5e" stroke-width="8px" stroke-miterlimit="8"/>
<!-- Line -->
<defs>
<clipPath id="cp81">
	<path clip-rule="evenodd" d="M -265,-39 H 10972 V 4366 H -265 z
		M 8780,1778 8684,1661 8836,1654 8673,1648 8667,1660z"/>
</clipPath>
</defs>
<polyline points=" 10960,2678 8676,1657" clip-path="url(#cp81)"
	stroke="#5e5e5e" stroke-width="8px" stroke-linejoin="round"/>
<!-- Forward arrow to point 8676,1657 -->
<polyline points=" 8780,1778 8684,1661 8836,1654"
	stroke="#5e5e5e" stroke-width="8px" stroke-miterlimit="8"/>
<!-- Line -->
<defs>
<clipPath id="cp82">
	<path clip-rule="evenodd" d="M -265,-39 H 10972 V 4366 H -265 z
		M 4825,2618 4922,2734 4770,2742 4933,2747 4939,2735z"/>
</clipPath>
</defs>
<polyline points=" 2633,1725 4930,2738" clip-path="url(#cp82)"
	stroke="#5e5e5e" stroke-width="8px" stroke-linejoin="round"/>
<!-- Forward arrow to point 4930,2738 -->
<polyline points=" 4825,2618 4922,2734 4770,2742"
	stroke="#5e5e5e" stroke-width="8px" stroke-miterlimit="8"/>
<!-- Line -->
<defs>
<clipPath id="cp83">
	<path clip-rule="evenodd" d="M -265,-39 H 10972 V 4366 H -265 z
		M 10773,2775 10870,2891 10718,2899 10881,2904 10887,2892z"/>
</clipPath>
</defs>
<polyline points=" 8580,1882 10878,2895" clip-path="url(#cp83)"
	stroke="#5e5e5e" stroke-width="8px" stroke-linejoin="round"/>
<!-- Forward arrow to point 10878,2895 -->
<polyline points=" 10773,2775 10870,2891 10718,2899"
	stroke="#5e5e5e" stroke-width="8px" stroke-miterlimit="8"/>
<!-- Arc -->
<defs>
<clipPath id="cp84">
	<path clip-rule="evenodd" d="M -265,-39 H 10972 V 4366 H -265 z
		M 3777,3836 3782,3735 3865,3678 3610,3629 3600,3647z"/>
</clipPath>
</defs>
<path d="M 6474,3631 A 2756 2756 0 0 1 3614 3643" clip-path="url(#cp84)"
	stroke="#000000" stroke-width="15px"/>
<!-- Forward arrow to point 3614,3643 -->
<polygon points=" 3865,3678 3623,3648 3777,3836 3782,3735 3865,3678"
	stroke="#000000" stroke-width="8px" stroke-miterlimit="8"/>
<!-- Arc -->
<defs>
<clipPath id="cp85">
	<path clip-rule="evenodd" d="M -265,-39 H 10972 V 4366 H -265 z
		M 6088,502 6079,602 5993,655 6245,717 6256,700z"/>
</clipPath>
</defs>
<path d="M 3622,672 A 2385 2385 0 0 1 6242 703" clip-path="url(#cp85)"
	stroke="#000000" stroke-width="15px"/>
<!-- Forward arrow to point 6242,703 -->
<polygon points=" 5993,655 6233,698 6088,502 6079,602 5993,655"
	stroke="#000000" stroke-width="8px" stroke-miterlimit="8"/>
<!-- Text -->
<text xml:space="preserve" x="2083" y="860" fill="#000000" font-family="Times" font-style="normal" font-weight="normal" font-size="180" text-anchor="start">d1</text>
<!-- Text -->
<text xml:space="preserve" x="7792" y="1226" fill="#000000" font-family="Times" font-style="normal" font-weight="normal" font-size="180" text-anchor="start">d2</text>
<!-- Text -->
<text xml:space="preserve" x="3825" y="4275" fill="#000000" font-family="Times" font-style="normal" font-weight="normal" font-size="216" text-anchor="start">cm.remove_cell&lt;0&gt;(d2)</text>
<!-- Text -->
<text xml:space="preserve" x="3105" y="180" fill="#000000" font-family="Times" font-style="normal" font-weight="normal" font-size="216" text-anchor="start">d2=cm.insert_cell_0_in_cell_1(d1)</text>
<!-- Line -->
<polyline points=" 3075,3191"
	stroke="#9f9f9f" stroke-width="8px"/>
<!-- Line -->
<polyline points=" 4088,2584 4096,2884"
	stroke="#9f9f9f" stroke-width="8px"/>
<!-- Line -->
<polyline points=" 3673,3264 3786,3451"
	stroke="#9f9f9f" stroke-width="8px"/>
<!-- Line -->
<polyline points=" 2424,2547 2602,2607"
	stroke="#9f9f9f" stroke-width="8px"/>
<!-- Line -->
<polyline points=" 3723,1916 3583,2195"
	stroke="#9f9f9f" stroke-width="8px"/>
<!-- Line -->
<polyline points=" 4114,1627 4245,1542"
	stroke="#9f9f9f" stroke-width="8px"/>
<!-- Line -->
<polyline points=" 3152,1806 3429,1862"
	stroke="#9f9f9f" stroke-width="8px"/>
<!-- Line -->
<polyline points=" 2719,3175 3100,3305"
	stroke="#9f9f9f" stroke-width="8px"/>
<!-- Line -->
<polyline points=" 2876,1186 3044,1178"
	stroke="#9f9f9f" stroke-width="8px"/>
<!-- Line -->
<polyline points=" 1214,1148 1050,1478"
	stroke="#9f9f9f" stroke-width="8px"/>
<!-- Line -->
<polyline points=" 339,2557 627,2746"
	stroke="#9f9f9f" stroke-width="8px"/>
<!-- Line -->
<polyline points=" 1840,2244 1774,2557"
	stroke="#9f9f9f" stroke-width="8px"/>
<!-- Line -->
<polyline points=" 2311,3232 2468,3232"
	stroke="#9f9f9f" stroke-width="8px"/>
<!-- Line -->
<polyline points=" 1057,3422 867,3472"
	stroke="#9f9f9f" stroke-width="8px"/>
<!-- Line -->
<polyline points=" 1807,370 1897,560"
	stroke="#9f9f9f" stroke-width="8px"/>
<!-- Line -->
<polyline points=" 2475,874 2707,1161"
	stroke="#9f9f9f" stroke-width="8px"/>
<!-- Line -->
<polyline points=" 545,517 545,560 545,601"
	stroke="#9f9f9f" stroke-width="8px"/>
<!-- Line -->
<polyline points=" -230,2012 -190,2028 -165,2070 -124,2087"
	stroke="#9f9f9f" stroke-width="8px"/>
<!-- Line -->
<polyline points=" 825,1238 1072,1170"
	stroke="#9f9f9f" stroke-width="8px"/>
<!-- Line -->
<polyline points=" 1880,2480 2244,2491"
	stroke="#9f9f9f" stroke-width="8px"/>
<!-- Line -->
<polyline points=" 2805,1690 3012,1714"
	stroke="#9f9f9f" stroke-width="8px"/>
<!-- Line -->
<polyline points=" 9022,3348"
	stroke="#9f9f9f" stroke-width="8px"/>
<!-- Line -->
<polyline points=" 10035,2741 10043,3041"
	stroke="#9f9f9f" stroke-width="8px"/>
<!-- Line -->
<polyline points=" 9621,3421 9733,3608"
	stroke="#9f9f9f" stroke-width="8px"/>
<!-- Line -->
<polyline points=" 8371,2704 8548,2764"
	stroke="#9f9f9f" stroke-width="8px"/>
<!-- Line -->
<polyline points=" 9670,2073 9530,2352"
	stroke="#9f9f9f" stroke-width="8px"/>
<!-- Line -->
<polyline points=" 10060,1784 10191,1699"
	stroke="#9f9f9f" stroke-width="8px"/>
<!-- Line -->
<polyline points=" 9098,1963 9376,2019"
	stroke="#9f9f9f" stroke-width="8px"/>
<!-- Line -->
<polyline points=" 8666,3332 9046,3461"
	stroke="#9f9f9f" stroke-width="8px"/>
<!-- Line -->
<polyline points=" 8823,1343 8990,1335"
	stroke="#9f9f9f" stroke-width="8px"/>
<!-- Line -->
<polyline points=" 7160,1305 6996,1635"
	stroke="#9f9f9f" stroke-width="8px"/>
<!-- Line -->
<polyline points=" 6285,2714 6573,2902"
	stroke="#9f9f9f" stroke-width="8px"/>
<!-- Line -->
<polyline points=" 7787,2401 7721,2714"
	stroke="#9f9f9f" stroke-width="8px"/>
<!-- Line -->
<polyline points=" 8257,3389 8414,3389"
	stroke="#9f9f9f" stroke-width="8px"/>
<!-- Line -->
<polyline points=" 7003,3579 6813,3629"
	stroke="#9f9f9f" stroke-width="8px"/>
<!-- Line -->
<polyline points=" 7754,527 7844,717"
	stroke="#9f9f9f" stroke-width="8px"/>
<!-- Line -->
<polyline points=" 6491,674 6491,717 6491,757"
	stroke="#9f9f9f" stroke-width="8px"/>
<!-- Line -->
<polyline points=" 5716,2169 5757,2185 5783,2227 5823,2244"
	stroke="#9f9f9f" stroke-width="8px"/>
<!-- Line -->
<polyline points=" 6771,1395 7018,1327"
	stroke="#9f9f9f" stroke-width="8px"/>
<!-- Line -->
<polyline points=" 7826,2637 8191,2648"
	stroke="#9f9f9f" stroke-width="8px"/>
<!-- Line -->
<polyline points=" 8752,1847 8959,1871"
	stroke="#9f9f9f" stroke-width="8px"/>
<!-- Line -->
<polyline points=" 8222,1205 8454,1493"
	stroke="#9f9f9f" stroke-width="8px"/>
<!-- Line -->
<polyline points=" 8601,850 8833,1138"
	stroke="#9f9f9f" stroke-width="8px"/>
</g>
</svg>
