<?xml version="1.0" standalone="no"?>
<!DOCTYPE svg PUBLIC "-//W3C//DTD SVG 1.1//EN"
"http://www.w3.org/Graphics/SVG/1.1/DTD/svg11.dtd">
<!-- Creator: fig2dev Version 3.2.6 -->
<!-- CreationDate: Mon Nov 21 08:43:35 2016 -->
<!-- Magnification: 1.050 -->
<svg	xmlns="http://www.w3.org/2000/svg"
	xmlns:xlink="http://www.w3.org/1999/xlink"
	width="9.5in" height="2.9in"
	viewBox="-5766 621 11374 3428">
<g style="stroke-width:.025in; fill:none">
<!-- Line -->
<polyline points="-4620,2411
-3845,2592
" style="stroke:#5a5a5a;stroke-width:8;
stroke-linejoin:round; stroke-linecap:butt;
"/>
<!-- Line -->
<polyline points="-4620,2411
-3845,2592
" style="stroke:#5a5a5a;stroke-width:8;
stroke-linejoin:round; stroke-linecap:butt;
"/>
<!-- Line -->
<polyline points="-4620,2411
-4639,1628
" style="stroke:#5a5a5a;stroke-width:8;
stroke-linejoin:round; stroke-linecap:butt;
"/>
<!-- Line -->
<polyline points="-4620,2411
-4639,1628
" style="stroke:#5a5a5a;stroke-width:8;
stroke-linejoin:round; stroke-linecap:butt;
"/>
<!-- Line -->
<polyline points="1203,2317
2636,2639
" style="stroke:#000000;stroke-width:16;
stroke-linejoin:round; stroke-linecap:butt;
"/>
<!-- Arrowhead on XXXpoint 1203 2317 - 2700 2653-->
<polyline points="2476 2699
2682 2648
2518 2514
" style="stroke:#000000;stroke-width:16;stroke-miterlimit:8;
"/>
<!-- Line -->
<polyline points="-4620,2411
-5060,2798
" style="stroke:#5a5a5a;stroke-width:8;
stroke-linejoin:round; stroke-linecap:butt;
"/>
<!-- Line -->
<polyline points="-4620,2411
-5060,2798
" style="stroke:#5a5a5a;stroke-width:8;
stroke-linejoin:round; stroke-linecap:butt;
"/>
<!-- Line -->
<polyline points="1183,834
1203,2282
" style="stroke:#000000;stroke-width:16;
stroke-linejoin:round; stroke-linecap:butt;
"/>
<!-- Arrowhead on XXXpoint 1183 834 - 1203 2347-->
<polyline points="1105 2140
1203 2328
1294 2137
" style="stroke:#000000;stroke-width:16;stroke-miterlimit:8;
"/>
<!-- Line -->
<polyline points="1110,734
2681,978
" style="stroke:#000000;stroke-width:16;
stroke-linejoin:round; stroke-linecap:butt;
"/>
<!-- Arrowhead on XXXpoint 1110 734 - 2746 987-->
<polyline points="2525 1048
2727 984
2554 861
" style="stroke:#000000;stroke-width:16;stroke-miterlimit:8;
"/>
<!-- Line -->
<polyline points="1018,2345
982,890
" style="stroke:#000000;stroke-width:16;
stroke-linejoin:round; stroke-linecap:butt;
"/>
<!-- Arrowhead on XXXpoint 1018 2345 - 981 825-->
<polyline points="1080 1029
981 844
891 1035
" style="stroke:#000000;stroke-width:16;stroke-miterlimit:8;
"/>
<!-- Line -->
<polyline points="-3001,2788
-3845,2592
" style="stroke:#5a5a5a;stroke-width:8;
stroke-linejoin:round; stroke-linecap:butt;
"/>
<!-- Line -->
<polyline points="-3001,2788
-3845,2592
" style="stroke:#5a5a5a;stroke-width:8;
stroke-linejoin:round; stroke-linecap:butt;
"/>
<!-- Line -->
<polyline points="-4659,767
-4639,1628
" style="stroke:#5a5a5a;stroke-width:8;
stroke-linejoin:round; stroke-linecap:butt;
"/>
<!-- Line -->
<polyline points="-4659,767
-4639,1628
" style="stroke:#5a5a5a;stroke-width:8;
stroke-linejoin:round; stroke-linecap:butt;
"/>
<!-- Line -->
<polyline points="2612,2838
1173,2502
" style="stroke:#000000;stroke-width:16;
stroke-linejoin:round; stroke-linecap:butt;
"/>
<!-- Arrowhead on XXXpoint 2612 2838 - 1109 2488-->
<polyline points="1332 2443
1127 2492
1289 2626
" style="stroke:#000000;stroke-width:16;stroke-miterlimit:8;
"/>
<!-- Line -->
<polyline points="-4620,2411
-3001,2788
-2867,1023
-4659,767
-4620,2411
" style="stroke:#5a5a5a;stroke-width:8;
stroke-linejoin:round; stroke-linecap:butt;
fill:#dfdfdf;
"/>
<!-- Line -->
<polyline points="165,3080
992,2367
" style="stroke:#000000;stroke-width:16;
stroke-linejoin:round; stroke-linecap:butt;
"/>
<!-- Arrowhead on XXXpoint 165 3080 - 1041 2324-->
<polyline points="945 2531
1027 2337
822 2388
" style="stroke:#000000;stroke-width:16;stroke-miterlimit:8;
"/>
<!-- Line -->
<polyline points="187,1287
1081,751
" style="stroke:#000000;stroke-width:16;
stroke-linejoin:round; stroke-linecap:butt;
"/>
<!-- Arrowhead on XXXpoint 187 1287 - 1137 718-->
<polyline points="1006 904
1121 727
910 743
" style="stroke:#000000;stroke-width:16;stroke-miterlimit:8;
"/>
<!-- Line -->
<polyline points="-3001,2788
-2937,1951
" style="stroke:#5a5a5a;stroke-width:8;
stroke-linejoin:round; stroke-linecap:butt;
"/>
<!-- Line -->
<polyline points="-3001,2788
-2937,1951
" style="stroke:#5a5a5a;stroke-width:8;
stroke-linejoin:round; stroke-linecap:butt;
"/>
<!-- Line -->
<polyline points="-3001,2788
-2937,1951
" style="stroke:#5a5a5a;stroke-width:8;
stroke-linejoin:round; stroke-linecap:butt;
"/>
<!-- Line -->
<polyline points="-3001,2788
-2937,1951
" style="stroke:#5a5a5a;stroke-width:8;
stroke-linejoin:round; stroke-linecap:butt;
"/>
<!-- Line -->
<polyline points="-4659,767
-3805,890
" style="stroke:#5a5a5a;stroke-width:8;
stroke-linejoin:round; stroke-linecap:butt;
"/>
<!-- Line -->
<polyline points="-4659,767
-3805,890
" style="stroke:#5a5a5a;stroke-width:8;
stroke-linejoin:round; stroke-linecap:butt;
"/>
<!-- Line -->
<polyline points="2669,2646
2759,1119
" style="stroke:#000000;stroke-width:16;
stroke-linejoin:round; stroke-linecap:butt;
"/>
<!-- Arrowhead on XXXpoint 2669 2646 - 2762 1054-->
<polyline points="2844 1266
2761 1072
2655 1255
" style="stroke:#000000;stroke-width:16;stroke-miterlimit:8;
"/>
<!-- Line -->
<polyline points="1141,2495
332,3228
" style="stroke:#000000;stroke-width:16;
stroke-linejoin:round; stroke-linecap:butt;
"/>
<!-- Arrowhead on XXXpoint 1141 2495 - 284 3272-->
<polyline points="373 3062
298 3259
500 3202
" style="stroke:#000000;stroke-width:16;stroke-miterlimit:8;
"/>
<!-- Line -->
<polyline points="2761,1085
1216,838
" style="stroke:#000000;stroke-width:16;
stroke-linejoin:round; stroke-linecap:butt;
"/>
<!-- Arrowhead on XXXpoint 2761 1085 - 1151 829-->
<polyline points="1371 768
1170 832
1341 955
" style="stroke:#000000;stroke-width:16;stroke-miterlimit:8;
"/>
<!-- Line -->
<polyline points="-3001,2788
-3321,3251
" style="stroke:#5a5a5a;stroke-width:8;
stroke-linejoin:round; stroke-linecap:butt;
"/>
<!-- Line -->
<polyline points="-3001,2788
-3321,3251
" style="stroke:#5a5a5a;stroke-width:8;
stroke-linejoin:round; stroke-linecap:butt;
"/>
<!-- Line -->
<polyline points="-3001,2788
-3321,3251
" style="stroke:#5a5a5a;stroke-width:8;
stroke-linejoin:round; stroke-linecap:butt;
"/>
<!-- Line -->
<polyline points="-3001,2788
-3321,3251
" style="stroke:#5a5a5a;stroke-width:8;
stroke-linejoin:round; stroke-linecap:butt;
"/>
<!-- Line -->
<polyline points="1877,3651
245,3201
" style="stroke:#000000;stroke-width:16;
stroke-linejoin:round; stroke-linecap:butt;
"/>
<!-- Arrowhead on XXXpoint 1877 3651 - 182 3184-->
<polyline points="407 3148
200 3189
356 3330
" style="stroke:#000000;stroke-width:16;stroke-miterlimit:8;
"/>
<!-- Line -->
<polyline points="-5588,3264
-5060,2798
" style="stroke:#5a5a5a;stroke-width:8;
stroke-linejoin:round; stroke-linecap:butt;
"/>
<!-- Line -->
<polyline points="-5588,3264
-5060,2798
" style="stroke:#5a5a5a;stroke-width:8;
stroke-linejoin:round; stroke-linecap:butt;
"/>
<!-- Line -->
<polyline points="4163,3130
3568,3998
" style="stroke:#000000;stroke-width:16;
stroke-linejoin:round; stroke-linecap:butt;
"/>
<!-- Arrowhead on XXXpoint 4163 3130 - 3531 4052-->
<polyline points="3570 3826
3542 4036
3727 3933
" style="stroke:#000000;stroke-width:16;stroke-miterlimit:8;
"/>
<!-- Line -->
<polyline points="4274,1365
4149,2918
" style="stroke:#000000;stroke-width:16;
stroke-linejoin:round; stroke-linecap:butt;
"/>
<!-- Arrowhead on XXXpoint 4274 1365 - 4143 2983-->
<polyline points="4065 2768
4144 2964
4254 2783
" style="stroke:#000000;stroke-width:16;stroke-miterlimit:8;
"/>
<!-- Line -->
<polyline points="213,3192
103,1541
" style="stroke:#000000;stroke-width:16;
stroke-linejoin:round; stroke-linecap:butt;
"/>
<!-- Arrowhead on XXXpoint 213 3192 - 100 1476-->
<polyline points="207 1676
101 1495
18 1689
" style="stroke:#000000;stroke-width:16;stroke-miterlimit:8;
"/>
<!-- Line -->
<polyline points="1911,1867
1877,3616
" style="stroke:#000000;stroke-width:16;
stroke-linejoin:round; stroke-linecap:butt;
"/>
<!-- Arrowhead on XXXpoint 1911 1867 - 1876 3681-->
<polyline points="1784 3471
1876 3662
1973 3475
" style="stroke:#000000;stroke-width:16;stroke-miterlimit:8;
"/>
<!-- Line -->
<polyline points="4292,1283
5562,2805
" style="stroke:#000000;stroke-width:16;
stroke-linejoin:round; stroke-linecap:butt;
"/>
<!-- Arrowhead on XXXpoint 4292 1283 - 5604 2855-->
<polyline points="5398 2755
5592 2840
5543 2635
" style="stroke:#000000;stroke-width:16;stroke-miterlimit:8;
"/>
<!-- Line -->
<polyline points="-3001,2788
-2292,2773
" style="stroke:#5a5a5a;stroke-width:8;
stroke-linejoin:round; stroke-linecap:butt;
"/>
<!-- Line -->
<polyline points="-3001,2788
-2292,2773
" style="stroke:#5a5a5a;stroke-width:8;
stroke-linejoin:round; stroke-linecap:butt;
"/>
<!-- Line -->
<polyline points="-3001,2788
-3714,3817
-5588,3264
-4620,2411
-3001,2788
" style="stroke:#5a5a5a;stroke-width:8;
stroke-linejoin:round; stroke-linecap:butt;
fill:#dfdfdf;
"/>
<!-- Line -->
<polyline points="-4659,767
-5151,1030
" style="stroke:#5a5a5a;stroke-width:8;
stroke-linejoin:round; stroke-linecap:butt;
"/>
<!-- Line -->
<polyline points="-4659,767
-5151,1030
" style="stroke:#5a5a5a;stroke-width:8;
stroke-linejoin:round; stroke-linecap:butt;
"/>
<!-- Line -->
<polyline points="2858,1160
2761,2690
" style="stroke:#000000;stroke-width:32;
stroke-linejoin:round; stroke-linecap:butt;
"/>
<!-- Arrowhead on XXXpoint 2858 1160 - 2755 2788-->
<polyline points="2634 2459
2758 2751
2916 2477
" style="stroke:#000000;stroke-width:32;stroke-miterlimit:8;
"/>
<!-- Line -->
<polyline points="-5588,3264
-5754,1354
-4659,767
-4620,2411
-5588,3264
" style="stroke:#5a5a5a;stroke-width:8;
stroke-linejoin:round; stroke-linecap:butt;
fill:#dfdfdf;
"/>
<!-- Line -->
<polyline points="5566,3099
4197,3129
" style="stroke:#000000;stroke-width:16;
stroke-linejoin:round; stroke-linecap:butt;
"/>
<!-- Arrowhead on XXXpoint 5566 3099 - 4132 3130-->
<polyline points="4337 3032
4151 3130
4341 3220
" style="stroke:#000000;stroke-width:16;stroke-miterlimit:8;
"/>
<!-- Line -->
<polyline points="3975,2969
4091,1423
" style="stroke:#000000;stroke-width:32;
stroke-linejoin:round; stroke-linecap:butt;
"/>
<!-- Arrowhead on XXXpoint 3975 2969 - 4098 1325-->
<polyline points="4215 1655
4095 1362
3932 1634
" style="stroke:#000000;stroke-width:32;stroke-miterlimit:8;
"/>
<!-- Line -->
<polyline points="-2867,1023
-2937,1951
" style="stroke:#5a5a5a;stroke-width:8;
stroke-linejoin:round; stroke-linecap:butt;
"/>
<!-- Line -->
<polyline points="-2867,1023
-2937,1951
" style="stroke:#5a5a5a;stroke-width:8;
stroke-linejoin:round; stroke-linecap:butt;
"/>
<!-- Line -->
<polyline points="-2867,1023
-2937,1951
" style="stroke:#5a5a5a;stroke-width:8;
stroke-linejoin:round; stroke-linecap:butt;
"/>
<!-- Line -->
<polyline points="-2867,1023
-2937,1951
" style="stroke:#5a5a5a;stroke-width:8;
stroke-linejoin:round; stroke-linecap:butt;
"/>
<!-- Line -->
<polyline points="-2867,1023
-3805,890
" style="stroke:#5a5a5a;stroke-width:8;
stroke-linejoin:round; stroke-linecap:butt;
"/>
<!-- Line -->
<polyline points="-2867,1023
-3805,890
" style="stroke:#5a5a5a;stroke-width:8;
stroke-linejoin:round; stroke-linecap:butt;
"/>
<!-- Line -->
<polyline points="3636,1961
4268,1308
" style="stroke:#000000;stroke-width:16;
stroke-linejoin:round; stroke-linecap:butt;
"/>
<!-- Arrowhead on XXXpoint 3636 1961 - 4313 1260-->
<polyline points="4237 1475
4301 1274
4101 1343
" style="stroke:#000000;stroke-width:16;stroke-miterlimit:8;
"/>
<!-- Line -->
<polyline points="5513,3016
3499,3945
" style="stroke:#000000;stroke-width:16;
stroke-linejoin:round; stroke-linecap:butt;
"/>
<!-- Arrowhead on XXXpoint 5513 3016 - 3439 3972-->
<polyline points="3587 3799
3456 3965
3667 3971
" style="stroke:#000000;stroke-width:16;stroke-miterlimit:8;
"/>
<!-- Line -->
<polyline points="982,856
80,1401
" style="stroke:#000000;stroke-width:16;
stroke-linejoin:round; stroke-linecap:butt;
"/>
<!-- Arrowhead on XXXpoint 982 856 - 25 1435-->
<polyline points="153 1246
40 1425
250 1407
" style="stroke:#000000;stroke-width:16;stroke-miterlimit:8;
"/>
<!-- Line -->
<polyline points="2759,2742
2133,3565
" style="stroke:#000000;stroke-width:32;
stroke-linejoin:round; stroke-linecap:butt;
"/>
<!-- Arrowhead on XXXpoint 2759 2742 - 2073 3643-->
<polyline points="2155 3301
2096 3613
2380 3472
" style="stroke:#000000;stroke-width:32;stroke-miterlimit:8;
"/>
<!-- Line -->
<polyline points="2716,983
2016,1604
" style="stroke:#000000;stroke-width:16;
stroke-linejoin:round; stroke-linecap:butt;
"/>
<!-- Arrowhead on XXXpoint 2716 983 - 1967 1647-->
<polyline points="2059 1438
1981 1634
2184 1579
" style="stroke:#000000;stroke-width:16;stroke-miterlimit:8;
"/>
<!-- Line -->
<polyline points="4146,2953
5514,2896
" style="stroke:#000000;stroke-width:16;
stroke-linejoin:round; stroke-linecap:butt;
"/>
<!-- Arrowhead on XXXpoint 4146 2953 - 5580 2894-->
<polyline points="5375 2997
5561 2895
5367 2808
" style="stroke:#000000;stroke-width:16;stroke-miterlimit:8;
"/>
<!-- Line -->
<polyline points="-1388,2754
-3001,2788
-2867,1023
-1388,2754
" style="stroke:#5a5a5a;stroke-width:8;
stroke-linejoin:round; stroke-linecap:butt;
fill:#ffffff;
"/>
<!-- Line -->
<polyline points="3349,3849
3945,3009
" style="stroke:#000000;stroke-width:32;
stroke-linejoin:round; stroke-linecap:butt;
"/>
<!-- Arrowhead on XXXpoint 3349 3849 - 4003 2930-->
<polyline points="3931 3273
3981 2960
3700 3108
" style="stroke:#000000;stroke-width:32;stroke-miterlimit:8;
"/>
<!-- Line -->
<polyline points="-5588,3264
-4699,3526
" style="stroke:#5a5a5a;stroke-width:8;
stroke-linejoin:round; stroke-linecap:butt;
"/>
<!-- Line -->
<polyline points="-5588,3264
-4699,3526
" style="stroke:#5a5a5a;stroke-width:8;
stroke-linejoin:round; stroke-linecap:butt;
"/>
<!-- Line -->
<polyline points="1942,3706
2591,2865
" style="stroke:#000000;stroke-width:16;
stroke-linejoin:round; stroke-linecap:butt;
"/>
<!-- Arrowhead on XXXpoint 1942 3706 - 2630 2813-->
<polyline points="2578 3035
2619 2828
2428 2919
" style="stroke:#000000;stroke-width:16;stroke-miterlimit:8;
"/>
<!-- Line -->
<polyline points="-5588,3264
-5666,2364
" style="stroke:#5a5a5a;stroke-width:8;
stroke-linejoin:round; stroke-linecap:butt;
"/>
<!-- Line -->
<polyline points="-5588,3264
-5666,2364
" style="stroke:#5a5a5a;stroke-width:8;
stroke-linejoin:round; stroke-linecap:butt;
"/>
<!-- Line -->
<polyline points="-2867,1023
-2179,1829
" style="stroke:#5a5a5a;stroke-width:8;
stroke-linejoin:round; stroke-linecap:butt;
"/>
<!-- Line -->
<polyline points="-2867,1023
-2179,1829
" style="stroke:#5a5a5a;stroke-width:8;
stroke-linejoin:round; stroke-linecap:butt;
"/>
<!-- Line -->
<polyline points="52,1419
163,3045
" style="stroke:#000000;stroke-width:16;
stroke-linejoin:round; stroke-linecap:butt;
"/>
<!-- Arrowhead on XXXpoint 52 1419 - 167 3110-->
<polyline points="58 2909
166 3091
247 2896
" style="stroke:#000000;stroke-width:16;stroke-miterlimit:8;
"/>
<!-- Line -->
<polyline points="3468,3960
3552,2185
" style="stroke:#000000;stroke-width:16;
stroke-linejoin:round; stroke-linecap:butt;
"/>
<!-- Arrowhead on XXXpoint 3468 3960 - 3555 2120-->
<polyline points="3639 2332
3554 2139
3450 2323
" style="stroke:#000000;stroke-width:16;stroke-miterlimit:8;
"/>
<!-- Line -->
<polyline points="-3714,3817
-3321,3251
" style="stroke:#5a5a5a;stroke-width:8;
stroke-linejoin:round; stroke-linecap:butt;
"/>
<!-- Line -->
<polyline points="-3714,3817
-3321,3251
" style="stroke:#5a5a5a;stroke-width:8;
stroke-linejoin:round; stroke-linecap:butt;
"/>
<!-- Line -->
<polyline points="-3714,3817
-3321,3251
" style="stroke:#5a5a5a;stroke-width:8;
stroke-linejoin:round; stroke-linecap:butt;
"/>
<!-- Line -->
<polyline points="-3714,3817
-3321,3251
" style="stroke:#5a5a5a;stroke-width:8;
stroke-linejoin:round; stroke-linecap:butt;
"/>
<!-- Line -->
<polyline points="-3714,3817
-3001,2788
-1388,2754
-3714,3817
" style="stroke:#5a5a5a;stroke-width:8;
stroke-linejoin:round; stroke-linecap:butt;
fill:#ffffff;
"/>
<!-- Line -->
<polyline points="-2867,1023
-3211,1344
" style="stroke:#5a5a5a;stroke-width:8;
stroke-linejoin:round; stroke-linecap:butt;
"/>
<!-- Line -->
<polyline points="-2867,1023
-3211,1344
" style="stroke:#5a5a5a;stroke-width:8;
stroke-linejoin:round; stroke-linecap:butt;
"/>
<!-- Line -->
<polyline points="-2867,1023
-3211,1344
" style="stroke:#5a5a5a;stroke-width:8;
stroke-linejoin:round; stroke-linecap:butt;
"/>
<!-- Line -->
<polyline points="-2867,1023
-3211,1344
" style="stroke:#5a5a5a;stroke-width:8;
stroke-linejoin:round; stroke-linecap:butt;
"/>
<!-- Line -->
<polyline points="-5754,1354
-5151,1030
" style="stroke:#5a5a5a;stroke-width:8;
stroke-linejoin:round; stroke-linecap:butt;
"/>
<!-- Line -->
<polyline points="-5754,1354
-5151,1030
" style="stroke:#5a5a5a;stroke-width:8;
stroke-linejoin:round; stroke-linecap:butt;
"/>
<!-- Line -->
<polyline points="1991,1627
220,1292
" style="stroke:#000000;stroke-width:16;
stroke-linejoin:round; stroke-linecap:butt;
"/>
<!-- Arrowhead on XXXpoint 1991 1627 - 156 1280-->
<polyline points="376 1225
174 1283
342 1411
" style="stroke:#000000;stroke-width:16;stroke-miterlimit:8;
"/>
<!-- Line -->
<polyline points="308,3251
1908,3696
" style="stroke:#000000;stroke-width:16;
stroke-linejoin:round; stroke-linecap:butt;
"/>
<!-- Arrowhead on XXXpoint 308 3251 - 1971 3714-->
<polyline points="1745 3749
1953 3709
1796 3567
" style="stroke:#000000;stroke-width:16;stroke-miterlimit:8;
"/>
<!-- Line -->
<polyline points="102,1507
1878,1861
" style="stroke:#000000;stroke-width:16;
stroke-linejoin:round; stroke-linecap:butt;
"/>
<!-- Arrowhead on XXXpoint 102 1507 - 1942 1872-->
<polyline points="1719 1925
1924 1869
1756 1739
" style="stroke:#000000;stroke-width:16;stroke-miterlimit:8;
"/>
<!-- Line -->
<polyline points="3554,2152
5482,3002
" style="stroke:#000000;stroke-width:16;
stroke-linejoin:round; stroke-linecap:butt;
"/>
<!-- Arrowhead on XXXpoint 3554 2152 - 5542 3028-->
<polyline points="5313 3030
5525 3021
5390 2858
" style="stroke:#000000;stroke-width:16;stroke-miterlimit:8;
"/>
<!-- Line -->
<polyline points="3549,4027
5534,3112
" style="stroke:#000000;stroke-width:16;
stroke-linejoin:round; stroke-linecap:butt;
"/>
<!-- Arrowhead on XXXpoint 3549 4027 - 5594 3085-->
<polyline points="5445 3257
5577 3092
5365 3085
" style="stroke:#000000;stroke-width:16;stroke-miterlimit:8;
"/>
<!-- Line -->
<polyline points="5584,2831
3667,1973
" style="stroke:#000000;stroke-width:16;
stroke-linejoin:round; stroke-linecap:butt;
"/>
<!-- Arrowhead on XXXpoint 5584 2831 - 3607 1947-->
<polyline points="3835 1945
3624 1954
3757 2117
" style="stroke:#000000;stroke-width:16;stroke-miterlimit:8;
"/>
<!-- Line -->
<polyline points="5549,2896
4295,1391
" style="stroke:#000000;stroke-width:16;
stroke-linejoin:round; stroke-linecap:butt;
"/>
<!-- Arrowhead on XXXpoint 5549 2896 - 4253 1340-->
<polyline points="4457 1439
4264 1355
4312 1560
" style="stroke:#000000;stroke-width:16;stroke-miterlimit:8;
"/>
<!-- Line -->
<polyline points="-3714,3817
-3001,2788
-2867,1023
-3643,1746
-3714,3817
" style="stroke:#5a5a5a;stroke-width:8;
stroke-linejoin:round; stroke-linecap:butt;
fill:#ffffff;
"/>
<!-- Line -->
<polyline points="-3714,3817
-3643,1746
-2867,1023
-3001,2788
-3714,3817
" style="stroke:#5a5a5a;stroke-width:8;
stroke-linejoin:round; stroke-linecap:butt;
fill:#dfdfdf;
"/>
<!-- Line -->
<polyline points="-3643,1746
-2867,1023
-4659,767
-5754,1354
-3643,1746
" style="stroke:#5a5a5a;stroke-width:8;
stroke-linejoin:round; stroke-linecap:butt;
fill:#dfdfdf;
"/>
<!-- Line -->
<polyline points="-3714,3817
-4699,3526
" style="stroke:#5a5a5a;stroke-width:8;
stroke-linejoin:round; stroke-linecap:butt;
"/>
<!-- Line -->
<polyline points="-3714,3817
-4699,3526
" style="stroke:#5a5a5a;stroke-width:8;
stroke-linejoin:round; stroke-linecap:butt;
"/>
<!-- Line -->
<polyline points="-1388,2754
-2292,2773
" style="stroke:#5a5a5a;stroke-width:8;
stroke-linejoin:round; stroke-linecap:butt;
"/>
<!-- Line -->
<polyline points="-1388,2754
-2292,2773
" style="stroke:#5a5a5a;stroke-width:8;
stroke-linejoin:round; stroke-linecap:butt;
"/>
<!-- Line -->
<polyline points="-5754,1354
-5666,2364
" style="stroke:#5a5a5a;stroke-width:8;
stroke-linejoin:round; stroke-linecap:butt;
"/>
<!-- Line -->
<polyline points="-5754,1354
-5666,2364
" style="stroke:#5a5a5a;stroke-width:8;
stroke-linejoin:round; stroke-linecap:butt;
"/>
<!-- Text -->
<text xml:space="preserve" x="3162" y="1409" fill="#343434"  font-family="Times,Symbol" font-style="normal" font-weight="normal" font-size="303" text-anchor="start">&#946;</text>
<!-- Text -->
<text xml:space="preserve" x="3348" y="1565" fill="#343434"  font-family="Times" font-style="italic" font-weight="normal" font-size="252" text-anchor="start">3</text>
<!-- Line -->
<polyline points="-1388,2754
-2179,1829
" style="stroke:#5a5a5a;stroke-width:8;
stroke-linejoin:round; stroke-linecap:butt;
"/>
<!-- Line -->
<polyline points="-1388,2754
-2179,1829
" style="stroke:#5a5a5a;stroke-width:8;
stroke-linejoin:round; stroke-linecap:butt;
"/>
<!-- Line -->
<polyline points="2159,1830
2820,1194
" style="stroke:#000000;stroke-width:32;
stroke-linejoin:round; stroke-linecap:butt;
"/>
<!-- Arrowhead on XXXpoint 2159 1830 - 2892 1126-->
<polyline points="2758 1450
2865 1152
2561 1246
" style="stroke:#000000;stroke-width:32;stroke-miterlimit:8;
"/>
<!-- Line -->
<polyline points="-3714,3817
-2575,3297
" style="stroke:#5a5a5a;stroke-width:8;
stroke-linejoin:round; stroke-linecap:butt;
"/>
<!-- Line -->
<polyline points="-3714,3817
-2575,3297
" style="stroke:#5a5a5a;stroke-width:8;
stroke-linejoin:round; stroke-linecap:butt;
"/>
<!-- Line -->
<polyline points="-3714,3817
-3643,1746
-5754,1354
-5588,3264
-3714,3817
" style="stroke:#5a5a5a;stroke-width:8;
stroke-linejoin:round; stroke-linecap:butt;
fill:#dfdfdf;
"/>
<!-- Line -->
<polyline points="4095,1373
3464,2022
" style="stroke:#000000;stroke-width:32;
stroke-linejoin:round; stroke-linecap:butt;
"/>
<!-- Arrowhead on XXXpoint 4095 1373 - 3396 2093-->
<polyline points="3518 1763
3422 2066
3720 1961
" style="stroke:#000000;stroke-width:32;stroke-miterlimit:8;
"/>
<!-- Line -->
<polyline points="-1388,2754
-3643,1746
-2867,1023
-1388,2754
" style="stroke:#5a5a5a;stroke-width:8;
stroke-linejoin:round; stroke-linecap:butt;
fill:#ffffff;
"/>
<!-- Line -->
<polyline points="-3714,3817
-3680,2848
" style="stroke:#5a5a5a;stroke-width:8;
stroke-linejoin:round; stroke-linecap:butt;
"/>
<!-- Line -->
<polyline points="-3714,3817
-3680,2848
" style="stroke:#5a5a5a;stroke-width:8;
stroke-linejoin:round; stroke-linecap:butt;
"/>
<!-- Line -->
<polyline points="-1388,2754
-2575,3297
" style="stroke:#5a5a5a;stroke-width:8;
stroke-linejoin:round; stroke-linecap:butt;
"/>
<!-- Line -->
<polyline points="-1388,2754
-2575,3297
" style="stroke:#5a5a5a;stroke-width:8;
stroke-linejoin:round; stroke-linecap:butt;
"/>
<!-- Line -->
<polyline points="-3714,3817
-3680,2848
" style="stroke:#5a5a5a;stroke-width:8;
stroke-linejoin:round; stroke-linecap:butt;
"/>
<!-- Line -->
<polyline points="-3714,3817
-3680,2848
" style="stroke:#5a5a5a;stroke-width:8;
stroke-linejoin:round; stroke-linecap:butt;
"/>
<!-- Line -->
<polyline points="2807,1982
4029,2218
" style="stroke:#0000ff;stroke-width:32;
stroke-linejoin:miter; stroke-linecap:butt;
"/>
<!-- Line -->
<polyline points="2519,3064
3718,3334
" style="stroke:#0000ff;stroke-width:32;
stroke-linejoin:miter; stroke-linecap:butt;
"/>
<!-- Line -->
<polyline points="-5754,1354
-4760,1539
" style="stroke:#5a5a5a;stroke-width:8;
stroke-linejoin:round; stroke-linecap:butt;
"/>
<!-- Line -->
<polyline points="-5754,1354
-4760,1539
" style="stroke:#5a5a5a;stroke-width:8;
stroke-linejoin:round; stroke-linecap:butt;
"/>
<!-- Line -->
<polyline points="2102,3606
2157,1881
" style="stroke:#000000;stroke-width:32;
stroke-linejoin:round; stroke-linecap:butt;
"/>
<!-- Arrowhead on XXXpoint 2102 3606 - 2160 1783-->
<polyline points="2291 2109
2159 1821
2008 2099
" style="stroke:#000000;stroke-width:32;stroke-miterlimit:8;
"/>
<!-- Line -->
<polyline points="-3643,1746
-3714,3817
-1388,2754
-3643,1746
" style="stroke:#5a5a5a;stroke-width:8;
stroke-linejoin:round; stroke-linecap:butt;
fill:#ffffff;
"/>
<!-- Line -->
<polyline points="3429,2059
3350,3798
" style="stroke:#000000;stroke-width:32;
stroke-linejoin:round; stroke-linecap:butt;
"/>
<!-- Arrowhead on XXXpoint 3429 2059 - 3345 3896-->
<polyline points="3218 3568
3348 3858
3502 3581
" style="stroke:#000000;stroke-width:32;stroke-miterlimit:8;
"/>
<!-- Line -->
<polyline points="-1388,2754
-2467,2272
" style="stroke:#5a5a5a;stroke-width:8;
stroke-linejoin:round; stroke-linecap:butt;
"/>
<!-- Line -->
<polyline points="-1388,2754
-2467,2272
" style="stroke:#5a5a5a;stroke-width:8;
stroke-linejoin:round; stroke-linecap:butt;
"/>
<!-- Line -->
<polyline points="-3643,1746
-3211,1344
" style="stroke:#5a5a5a;stroke-width:8;
stroke-linejoin:round; stroke-linecap:butt;
"/>
<!-- Line -->
<polyline points="-3643,1746
-3211,1344
" style="stroke:#5a5a5a;stroke-width:8;
stroke-linejoin:round; stroke-linecap:butt;
"/>
<!-- Line -->
<polyline points="-3643,1746
-3211,1344
" style="stroke:#5a5a5a;stroke-width:8;
stroke-linejoin:round; stroke-linecap:butt;
"/>
<!-- Line -->
<polyline points="-3643,1746
-3211,1344
" style="stroke:#5a5a5a;stroke-width:8;
stroke-linejoin:round; stroke-linecap:butt;
"/>
<!-- Line -->
<polyline points="-3643,1746
-3680,2848
" style="stroke:#5a5a5a;stroke-width:8;
stroke-linejoin:round; stroke-linecap:butt;
"/>
<!-- Line -->
<polyline points="-3643,1746
-3680,2848
" style="stroke:#5a5a5a;stroke-width:8;
stroke-linejoin:round; stroke-linecap:butt;
"/>
<!-- Line -->
<polyline points="-3643,1746
-3680,2848
" style="stroke:#5a5a5a;stroke-width:8;
stroke-linejoin:round; stroke-linecap:butt;
"/>
<!-- Line -->
<polyline points="-3643,1746
-3680,2848
" style="stroke:#5a5a5a;stroke-width:8;
stroke-linejoin:round; stroke-linecap:butt;
"/>
<!-- Line -->
<polyline points="-3643,1746
-4760,1539
" style="stroke:#5a5a5a;stroke-width:8;
stroke-linejoin:round; stroke-linecap:butt;
"/>
<!-- Line -->
<polyline points="-3643,1746
-4760,1539
" style="stroke:#5a5a5a;stroke-width:8;
stroke-linejoin:round; stroke-linecap:butt;
"/>
<!-- Line -->
<polyline points="-3643,1746
-2467,2272
" style="stroke:#5a5a5a;stroke-width:8;
stroke-linejoin:round; stroke-linecap:butt;
"/>
<!-- Line -->
<polyline points="-3643,1746
-2467,2272
" style="stroke:#5a5a5a;stroke-width:8;
stroke-linejoin:round; stroke-linecap:butt;
"/>
<!-- Line -->
<polyline points="-3005,2784
-1392,2756
" style="stroke:#5a5a5a;stroke-width:8;
stroke-linejoin:miter; stroke-linecap:butt;
stroke-dasharray:10 10;"/>
<!-- Line -->
<polyline points="-5595,3269
-4619,2411
-3000,2790
" style="stroke:#5a5a5a;stroke-width:8;
stroke-linejoin:miter; stroke-linecap:butt;
stroke-dasharray:10 10;"/>
<!-- Line -->
<polyline points="-4655,768
-4622,2414
" style="stroke:#5a5a5a;stroke-width:8;
stroke-linejoin:miter; stroke-linecap:butt;
stroke-dasharray:10 10;"/>
<!-- Line -->
<polyline points="-3706,3807
-2995,2786
-2872,1018
" style="stroke:#5a5a5a;stroke-width:8;
stroke-linejoin:miter; stroke-linecap:butt;
stroke-dasharray:10 10;"/>
<!-- Circle -->
<circle cx="-3648" cy="1746" r="98"
 style="fill:#000000;stroke:#000000;stroke-width:48;"/>
<!-- Line -->
<polyline points="-3081,1255
-3654,2435
" style="stroke:#5a5a5a;stroke-width:8;
stroke-linejoin:miter; stroke-linecap:butt;
stroke-dasharray:41 41;"/>
<!-- Line -->
<polyline points="-3401,1559
-3655,2070
" style="stroke:#5a5a5a;stroke-width:8;
stroke-linejoin:miter; stroke-linecap:butt;
stroke-dasharray:41 41;"/>
<!-- Line -->
<polyline points="-2942,2040
-3704,3575
" style="stroke:#5a5a5a;stroke-width:8;
stroke-linejoin:miter; stroke-linecap:butt;
stroke-dasharray:41 41;"/>
<!-- Line -->
<polyline points="-2972,2462
-3447,3446
" style="stroke:#5a5a5a;stroke-width:8;
stroke-linejoin:miter; stroke-linecap:butt;
stroke-dasharray:41 41;"/>
<!-- Line -->
<polyline points="-2870,1162
-3667,2828
" style="stroke:#5a5a5a;stroke-width:8;
stroke-linejoin:miter; stroke-linecap:butt;
stroke-dasharray:41 41;"/>
<!-- Line -->
<polyline points="-2908,1627
-3683,3208
" style="stroke:#5a5a5a;stroke-width:8;
stroke-linejoin:miter; stroke-linecap:butt;
stroke-dasharray:41 41;"/>
<!-- Text -->
<text xml:space="preserve" x="1932" y="826" fill="#000000"  font-family="Times" font-style="normal" font-weight="normal" font-size="202" text-anchor="start">13</text>
<!-- Text -->
<text xml:space="preserve" x="1280" y="1450" fill="#000000"  font-family="Times" font-style="normal" font-weight="normal" font-size="202" text-anchor="start">11</text>
<!-- Text -->
<text xml:space="preserve" x="2427" y="1771" fill="#000000"  font-family="Times" font-style="normal" font-weight="normal" font-size="202" text-anchor="start">1</text>
<!-- Text -->
<text xml:space="preserve" x="2828" y="2298" fill="#000000"  font-family="Times" font-style="normal" font-weight="normal" font-size="202" text-anchor="start">2</text>
<!-- Text -->
<text xml:space="preserve" x="2449" y="3348" fill="#000000"  font-family="Times" font-style="normal" font-weight="normal" font-size="202" text-anchor="start">3</text>
<!-- Text -->
<text xml:space="preserve" x="1589" y="3075" fill="#000000"  font-family="Times" font-style="normal" font-weight="normal" font-size="202" text-anchor="start">14</text>
<!-- Text -->
<text xml:space="preserve" x="3777" y="1570" fill="#000000"  font-family="Times" font-style="normal" font-weight="normal" font-size="202" text-anchor="start">5</text>
<!-- Text -->
<text xml:space="preserve" x="3857" y="1912" fill="#000000"  font-family="Times" font-style="normal" font-weight="normal" font-size="202" text-anchor="start">9</text>
<!-- Text -->
<text xml:space="preserve" x="3227" y="2795" fill="#000000"  font-family="Times" font-style="normal" font-weight="normal" font-size="202" text-anchor="start">6</text>
<!-- Text -->
<text xml:space="preserve" x="3828" y="2627" fill="#000000"  font-family="Times" font-style="normal" font-weight="normal" font-size="202" text-anchor="start">8</text>
<!-- Text -->
<text xml:space="preserve" x="3630" y="3259" fill="#000000"  font-family="Times" font-style="normal" font-weight="normal" font-size="202" text-anchor="start">7</text>
<!-- Text -->
<text xml:space="preserve" x="4382" y="2854" fill="#000000"  font-family="Times" font-style="normal" font-weight="normal" font-size="202" text-anchor="start">15</text>
<!-- Text -->
<text xml:space="preserve" x="2177" y="3013" fill="#000000"  font-family="Times" font-style="normal" font-weight="normal" font-size="202" text-anchor="start">4</text>
<!-- Text -->
<text xml:space="preserve" x="2118" y="1267" fill="#000000"  font-family="Times" font-style="normal" font-weight="normal" font-size="202" text-anchor="start">10</text>
<!-- Text -->
<text xml:space="preserve" x="329" y="1020" fill="#000000"  font-family="Times" font-style="normal" font-weight="normal" font-size="202" text-anchor="start">12</text>
<!-- Text -->
<text xml:space="preserve" x="-3862" y="1641" fill="#000000"  font-family="Times" font-style="normal" font-weight="normal" font-size="252" text-anchor="start">v</text>
<!-- Text -->
<text xml:space="preserve" x="-4677" y="2220" fill="#000000"  font-family="Times" font-style="normal" font-weight="normal" font-size="252" text-anchor="start">vol1</text>
<!-- Text -->
<text xml:space="preserve" x="-4369" y="1338" fill="#000000"  font-family="Times" font-style="normal" font-weight="normal" font-size="252" text-anchor="start">f1</text>
<!-- Text -->
<text xml:space="preserve" x="-2787" y="2645" fill="#000000"  font-family="Times" font-style="normal" font-weight="normal" font-size="252" text-anchor="start">vol2</text>
<!-- Line -->
<polyline points="557,2687
803,2848
" style="stroke:#9f9f9f;stroke-width:8;
stroke-linejoin:miter; stroke-linecap:butt;
"/>
<!-- Line -->
<polyline points="1838,2419
1781,2687
" style="stroke:#9f9f9f;stroke-width:8;
stroke-linejoin:miter; stroke-linecap:butt;
"/>
<!-- Line -->
<polyline points="2239,3262
2372,3262
" style="stroke:#9f9f9f;stroke-width:8;
stroke-linejoin:miter; stroke-linecap:butt;
"/>
<!-- Line -->
<polyline points="1169,3425
1007,3467
" style="stroke:#9f9f9f;stroke-width:8;
stroke-linejoin:miter; stroke-linecap:butt;
"/>
<!-- Line -->
<polyline points="1809,822
1887,983
" style="stroke:#9f9f9f;stroke-width:8;
stroke-linejoin:miter; stroke-linecap:butt;
"/>
<!-- Line -->
<polyline points="2380,1251
2577,1497
" style="stroke:#9f9f9f;stroke-width:8;
stroke-linejoin:miter; stroke-linecap:butt;
"/>
<!-- Line -->
<polyline points="732,948
732,983
732,1018
" style="stroke:#9f9f9f;stroke-width:8;
stroke-linejoin:miter; stroke-linecap:butt;
"/>
<!-- Line -->
<polyline points="72,2222
107,2236
128,2271
163,2286
" style="stroke:#9f9f9f;stroke-width:8;
stroke-linejoin:miter; stroke-linecap:butt;
"/>
<!-- Line -->
<polyline points="972,1562
1183,1504
" style="stroke:#9f9f9f;stroke-width:8;
stroke-linejoin:miter; stroke-linecap:butt;
"/>
<!-- Line -->
<polyline points="1871,2621
2182,2630
" style="stroke:#9f9f9f;stroke-width:8;
stroke-linejoin:miter; stroke-linecap:butt;
"/>
<!-- Line -->
<polyline points="2366,2672
2478,2735
" style="stroke:#9f9f9f;stroke-width:8;
stroke-linejoin:miter; stroke-linecap:butt;
"/>
<!-- Line -->
<polyline points="2661,1948
2836,1968
" style="stroke:#9f9f9f;stroke-width:8;
stroke-linejoin:miter; stroke-linecap:butt;
"/>
<!-- Line -->
<polyline points="3277,2982
3602,3093
" style="stroke:#9f9f9f;stroke-width:8;
stroke-linejoin:miter; stroke-linecap:butt;
"/>
<!-- Line -->
<polyline points="3791,1670
3930,1638
" style="stroke:#9f9f9f;stroke-width:8;
stroke-linejoin:miter; stroke-linecap:butt;
"/>
<!-- Line -->
<polyline points="4625,2318
4472,2618
" style="stroke:#9f9f9f;stroke-width:8;
stroke-linejoin:miter; stroke-linecap:butt;
"/>
<!-- Line -->
<polyline points="4782,2893
4788,3148
" style="stroke:#9f9f9f;stroke-width:8;
stroke-linejoin:miter; stroke-linecap:butt;
"/>
<!-- Line -->
<polyline points="3662,3440
3899,3495
" style="stroke:#9f9f9f;stroke-width:8;
stroke-linejoin:miter; stroke-linecap:butt;
"/>
<!-- Line -->
<polyline points="4398,3484
4495,3644
" style="stroke:#9f9f9f;stroke-width:8;
stroke-linejoin:miter; stroke-linecap:butt;
"/>
<!-- Line -->
<polyline points="4831,2114
4965,2024
" style="stroke:#9f9f9f;stroke-width:8;
stroke-linejoin:miter; stroke-linecap:butt;
"/>
<!-- Line -->
<polyline points="1303,1485
1163,1766
" style="stroke:#9f9f9f;stroke-width:8;
stroke-linejoin:miter; stroke-linecap:butt;
"/>
<!-- Circle -->
<circle cx="-3304" cy="2239" r="178"
 style="fill:#ffffff;stroke-dasharray:41 41;stroke:#000000;stroke-width:8;"/>
<!-- Line -->
<polyline points="2139,2639
3380,2896
" style="stroke:#0000ff;stroke-width:32;
stroke-linejoin:miter; stroke-linecap:butt;
"/>
<!-- Line -->
<polyline points="2515,1482
3806,1679
" style="stroke:#0000ff;stroke-width:32;
stroke-linejoin:miter; stroke-linecap:butt;
"/>
<!-- Line -->
<polyline points="-3639,1749
-2872,1028
" style="stroke:#000000;stroke-width:48;
stroke-linejoin:miter; stroke-linecap:butt;
"/>
<!-- Text -->
<text xml:space="preserve" x="-3436" y="1363" fill="#000000"  font-family="Times" font-style="normal" font-weight="normal" font-size="252" text-anchor="start">e</text>
<!-- Text -->
<text xml:space="preserve" x="-3445" y="2339" fill="#000000"  font-family="Times" font-style="normal" font-weight="normal" font-size="252" text-anchor="start">f2</text>
</g>
</svg>
