<?xml version="1.0" standalone="no"?>
<!DOCTYPE svg PUBLIC "-//W3C//DTD SVG 1.1//EN"
"http://www.w3.org/Graphics/SVG/1.1/DTD/svg11.dtd">
<!-- Creator: fig2dev Version 3.2.6 -->
<!-- CreationDate: Mon Nov 21 08:43:35 2016 -->
<!-- Magnification: 1.050 -->
<svg	xmlns="http://www.w3.org/2000/svg"
	xmlns:xlink="http://www.w3.org/1999/xlink"
	width="7.2in" height="3.0in"
	viewBox="-5231 485 8628 3616">
<g style="stroke-width:.025in; fill:none">
<!-- Line -->
<polyline points="-5008,2681
-3927,1764
-3781,2078
-5008,2681
" style="stroke:#000000;stroke-width:16;
stroke-linejoin:round; stroke-linecap:butt;
fill:#b8b8b8;
"/>
<!-- Line -->
<polyline points="-3381,510
-3511,1751
-2277,2531
-1872,1380
-3381,510
" style="stroke:#000000;stroke-width:16;
stroke-linejoin:round; stroke-linecap:butt;
fill:#878787;
"/>
<!-- Line -->
<polyline points="-3511,1751
-3287,2058
-2277,2531
-3511,1751
" style="stroke:#000000;stroke-width:16;
stroke-linejoin:round; stroke-linecap:butt;
fill:#878787;
"/>
<!-- Line -->
<polyline points="-3511,1751
-3287,2058
-3381,510
-3511,1751
" style="stroke:#000000;stroke-width:16;
stroke-linejoin:round; stroke-linecap:butt;
fill:#878787;
"/>
<!-- Line -->
<polyline points="2030,2329
3384,2502
1844,2023
2030,2329
" style="stroke:#000000;stroke-width:8;
stroke-linejoin:round; stroke-linecap:butt;
fill:#878787;
"/>
<!-- Line -->
<polyline points="-2277,2531
-3287,2058
-1872,1380
-2277,2531
" style="stroke:#000000;stroke-width:16;
stroke-linejoin:round; stroke-linecap:butt;
fill:#878787;
"/>
<!-- Line -->
<polyline points="1844,2023
2030,2329
1481,687
1844,2023
" style="stroke:#000000;stroke-width:8;
stroke-linejoin:round; stroke-linecap:butt;
fill:#878787;
"/>
<!-- Line -->
<polyline points="1481,687
2030,2329
1844,2023
1481,687
" style="stroke:#000000;stroke-width:8;
stroke-linejoin:round; stroke-linecap:butt;
fill:#b8b8b8;
"/>
<!-- Line -->
<polyline points="1481,687
1844,2023
3384,2502
3362,1122
1481,687
" style="stroke:#000000;stroke-width:8;
stroke-linejoin:round; stroke-linecap:butt;
fill:#878787;
"/>
<!-- Line -->
<polyline points="-3213,2448
-2178,2888
-1736,1770
-3213,2448
" style="stroke:#000000;stroke-width:16;
stroke-linejoin:round; stroke-linecap:butt;
fill:#b8b8b8;
"/>
<!-- Line -->
<polyline points="-3927,1764
-3880,508
-5208,1450
-5008,2681
-3927,1764
" style="stroke:#000000;stroke-width:16;
stroke-linejoin:round; stroke-linecap:butt;
fill:#b8b8b8;
"/>
<!-- Line -->
<polyline points="-3624,4078
-5001,3074
-3724,2474
-3624,4078
" style="stroke:#000000;stroke-width:16;
stroke-linejoin:round; stroke-linecap:butt;
fill:#878787;
"/>
<!-- Line -->
<polyline points="-3880,508
-3781,2078
-3927,1764
-3880,508
" style="stroke:#000000;stroke-width:16;
stroke-linejoin:round; stroke-linecap:butt;
fill:#b8b8b8;
"/>
<!-- Line -->
<polyline points="3384,2502
3362,1122
2030,2329
3384,2502
" style="stroke:#000000;stroke-width:8;
stroke-linejoin:round; stroke-linecap:butt;
fill:#878787;
"/>
<!-- Line -->
<polyline points="3362,1122
3384,2502
2030,2329
3362,1122
" style="stroke:#000000;stroke-width:8;
stroke-linejoin:round; stroke-linecap:butt;
fill:#b8b8b8;
"/>
<!-- Line -->
<polyline points="-3118,4029
-3213,2448
-2178,2888
-3118,4029
" style="stroke:#000000;stroke-width:16;
stroke-linejoin:round; stroke-linecap:butt;
fill:#b8b8b8;
"/>
<!-- Line -->
<polyline points="-1872,1380
-3381,510
-3287,2058
-1872,1380
" style="stroke:#000000;stroke-width:16;
stroke-linejoin:round; stroke-linecap:butt;
fill:#878787;
"/>
<!-- Line -->
<polyline points="2030,2329
283,2106
937,3320
2030,2329
" style="stroke:#000000;stroke-width:8;
stroke-linejoin:round; stroke-linecap:butt;
fill:#878787;
"/>
<!-- Line -->
<polyline points="-3724,2474
-3624,4078
-3481,3064
-3724,2474
" style="stroke:#000000;stroke-width:16;
stroke-linejoin:round; stroke-linecap:butt;
fill:#878787;
"/>
<!-- Line -->
<polyline points="3362,1122
1481,687
2030,2329
3362,1122
" style="stroke:#000000;stroke-width:8;
stroke-linejoin:round; stroke-linecap:butt;
fill:#878787;
"/>
<!-- Line -->
<polyline points="-5208,1450
-5008,2681
-3781,2078
-5208,1450
" style="stroke:#000000;stroke-width:16;
stroke-linejoin:round; stroke-linecap:butt;
fill:#b8b8b8;
"/>
<!-- Line -->
<polyline points="1481,687
2030,2329
283,2106
1481,687
" style="stroke:#000000;stroke-width:8;
stroke-linejoin:round; stroke-linecap:butt;
fill:#b8b8b8;
"/>
<!-- Line -->
<polyline points="-2178,2888
-3118,4029
-2847,3022
-1736,1770
-2178,2888
" style="stroke:#000000;stroke-width:16;
stroke-linejoin:round; stroke-linecap:butt;
fill:#b8b8b8;
"/>
<!-- Line -->
<polyline points="-3781,2078
-5208,1450
-3880,508
-3781,2078
" style="stroke:#000000;stroke-width:16;
stroke-linejoin:round; stroke-linecap:butt;
fill:#b8b8b8;
"/>
<!-- Line -->
<polyline points="3384,2502
2594,4015
2333,2828
3362,1122
3384,2502
" style="stroke:#000000;stroke-width:8;
stroke-linejoin:round; stroke-linecap:butt;
fill:#b8b8b8;
"/>
<!-- Line -->
<polyline points="-5001,3074
-5207,1884
-3724,2474
-5001,3074
" style="stroke:#000000;stroke-width:16;
stroke-linejoin:round; stroke-linecap:butt;
fill:#878787;
"/>
<!-- Line -->
<polyline points="2030,2329
2594,4015
937,3320
2030,2329
" style="stroke:#000000;stroke-width:8;
stroke-linejoin:round; stroke-linecap:butt;
fill:#878787;
"/>
<!-- Line -->
<polyline points="283,2106
2333,2828
2594,4015
937,3320
283,2106
" style="stroke:#000000;stroke-width:8;
stroke-linejoin:round; stroke-linecap:butt;
fill:#878787;
"/>
<!-- Line -->
<polyline points="2333,2828
3362,1122
2030,2329
2333,2828
" style="stroke:#000000;stroke-width:8;
stroke-linejoin:round; stroke-linecap:butt;
fill:#b8b8b8;
"/>
<!-- Line -->
<polyline points="-3213,2448
-2847,3022
-3118,4029
-3213,2448
" style="stroke:#000000;stroke-width:16;
stroke-linejoin:round; stroke-linecap:butt;
fill:#b8b8b8;
"/>
<!-- Line -->
<polyline points="-3213,2448
-2847,3022
-1736,1770
-3213,2448
" style="stroke:#000000;stroke-width:16;
stroke-linejoin:round; stroke-linecap:butt;
fill:#b8b8b8;
"/>
<!-- Line -->
<polyline points="2333,2828
2030,2329
283,2106
2333,2828
" style="stroke:#000000;stroke-width:8;
stroke-linejoin:round; stroke-linecap:butt;
fill:#878787;
"/>
<!-- Line -->
<polyline points="-3481,3064
-3724,2474
-5207,1884
-3481,3064
" style="stroke:#000000;stroke-width:16;
stroke-linejoin:round; stroke-linecap:butt;
fill:#878787;
"/>
<!-- Line -->
<polyline points="-5207,1884
-3481,3064
-3624,4078
-5001,3074
-5207,1884
" style="stroke:#000000;stroke-width:16;
stroke-linejoin:round; stroke-linecap:butt;
fill:#878787;
"/>
<!-- Circle -->
<circle cx="2006" cy="2306" r="67"
 style="fill:#000000;stroke:#000000;stroke-width:8;"/>
<!-- Text -->
<text xml:space="preserve" x="1714" y="2179" fill="#000000"  font-family="Times" font-style="normal" font-weight="normal" font-size="278" text-anchor="start">p</text>
</g>
</svg>
