<?xml version="1.0" standalone="no"?>
<!DOCTYPE svg PUBLIC "-//W3C//DTD SVG 1.1//EN"
"http://www.w3.org/Graphics/SVG/1.1/DTD/svg11.dtd">
<!-- Creator: fig2dev Version 3.2.6 -->
<!-- CreationDate: Mon Nov 21 08:43:35 2016 -->
<!-- Magnification: 1.050 -->
<svg	xmlns="http://www.w3.org/2000/svg"
	xmlns:xlink="http://www.w3.org/1999/xlink"
	width="10.8in" height="4.3in"
	viewBox="-426 -335 12925 5188">
<g style="stroke-width:.025in; fill:none">
<!-- Line -->
<polyline points="861,1670
2439,2008
" style="stroke:#000000;stroke-width:8;
stroke-linejoin:round; stroke-linecap:butt;
"/>
<!-- Arrowhead on XXXpoint 861 1670 - 2471 2014-->
<polyline points="2325 2047
2461 2012
2351 1924
" style="stroke:#000000;stroke-width:8;stroke-miterlimit:8;
"/>
<!-- Line -->
<polyline points="7110,681
7166,2316
" style="stroke:#000000;stroke-width:8;
stroke-linejoin:round; stroke-linecap:butt;
"/>
<!-- Arrowhead on XXXpoint 7110 681 - 7167 2347-->
<polyline points="7099 2214
7167 2338
7225 2209
" style="stroke:#000000;stroke-width:8;stroke-miterlimit:8;
"/>
<!-- Line -->
<polyline points="2423,2144
843,1800
" style="stroke:#000000;stroke-width:8;
stroke-linejoin:round; stroke-linecap:butt;
"/>
<!-- Arrowhead on XXXpoint 2423 2144 - 811 1793-->
<polyline points="957 1759
820 1795
930 1883
" style="stroke:#000000;stroke-width:8;stroke-miterlimit:8;
"/>
<!-- Line -->
<polyline points="7039,2343
6976,703
" style="stroke:#000000;stroke-width:8;
stroke-linejoin:round; stroke-linecap:butt;
"/>
<!-- Arrowhead on XXXpoint 7039 2343 - 6975 671-->
<polyline points="7042 804
6975 681
6916 809
" style="stroke:#000000;stroke-width:8;stroke-miterlimit:8;
"/>
<!-- Line -->
<polyline points="7167,2332
8615,2585
" style="stroke:#000000;stroke-width:8;
stroke-linejoin:round; stroke-linecap:butt;
"/>
<!-- Arrowhead on XXXpoint 7167 2332 - 8646 2591-->
<polyline points="8501 2628
8637 2588
8523 2504
" style="stroke:#000000;stroke-width:8;stroke-miterlimit:8;
"/>
<!-- Line -->
<polyline points="8585,2709
7133,2446
" style="stroke:#000000;stroke-width:8;
stroke-linejoin:round; stroke-linecap:butt;
"/>
<!-- Arrowhead on XXXpoint 8585 2709 - 7102 2440-->
<polyline points="7246 2403
7111 2443
7224 2527
" style="stroke:#000000;stroke-width:8;stroke-miterlimit:8;
"/>
<!-- Line -->
<polyline points="725,103
860,1653
" style="stroke:#000000;stroke-width:8;
stroke-linejoin:round; stroke-linecap:butt;
"/>
<!-- Arrowhead on XXXpoint 725 103 - 862 1685-->
<polyline points="787 1554
861 1675
913 1544
" style="stroke:#000000;stroke-width:8;stroke-miterlimit:8;
"/>
<!-- Line -->
<polyline points="734,1700
585,145
" style="stroke:#000000;stroke-width:8;
stroke-linejoin:round; stroke-linecap:butt;
"/>
<!-- Arrowhead on XXXpoint 734 1700 - 582 114-->
<polyline points="658 242
583 123
532 255
" style="stroke:#000000;stroke-width:8;stroke-miterlimit:8;
"/>
<!-- Line -->
<polyline points="5953,2838
7023,2349
" style="stroke:#000000;stroke-width:8;
stroke-linejoin:round; stroke-linecap:butt;
"/>
<!-- Arrowhead on XXXpoint 5953 2838 - 7053 2335-->
<polyline points="6955 2449
7044 2340
6902 2334
" style="stroke:#000000;stroke-width:8;stroke-miterlimit:8;
"/>
<!-- Line -->
<polyline points="827,1797
-16,2787
" style="stroke:#000000;stroke-width:8;
stroke-linejoin:round; stroke-linecap:butt;
"/>
<!-- Arrowhead on XXXpoint 827 1797 - -36 2812-->
<polyline points="3 2667
-30 2805
98 2749
" style="stroke:#000000;stroke-width:8;stroke-miterlimit:8;
"/>
<!-- Line -->
<polyline points="7118,2444
6057,2946
" style="stroke:#000000;stroke-width:8;
stroke-linejoin:round; stroke-linecap:butt;
"/>
<!-- Arrowhead on XXXpoint 7118 2444 - 6028 2960-->
<polyline points="6122 2845
6036 2956
6177 2958
" style="stroke:#000000;stroke-width:8;stroke-miterlimit:8;
"/>
<!-- Line -->
<polyline points="-134,2695
723,1712
" style="stroke:#000000;stroke-width:8;
stroke-linejoin:round; stroke-linecap:butt;
"/>
<!-- Arrowhead on XXXpoint -134 2695 - 744 1688-->
<polyline points="702 1830
738 1695
606 1748
" style="stroke:#000000;stroke-width:8;stroke-miterlimit:8;
"/>
<!-- Line -->
<polyline points="2852,2096
4627,2477
" style="stroke:#000000;stroke-width:8;
stroke-linejoin:round; stroke-linecap:butt;
"/>
<!-- Arrowhead on XXXpoint 2852 2096 - 4659 2483-->
<polyline points="4513 2516
4649 2481
4539 2393
" style="stroke:#000000;stroke-width:8;stroke-miterlimit:8;
"/>
<!-- Line -->
<polyline points="4612,2622
2834,2235
" style="stroke:#000000;stroke-width:8;
stroke-linejoin:round; stroke-linecap:butt;
"/>
<!-- Arrowhead on XXXpoint 4612 2622 - 2803 2227-->
<polyline points="2949 2194
2812 2229
2921 2318
" style="stroke:#000000;stroke-width:8;stroke-miterlimit:8;
"/>
<!-- Line -->
<polyline points="8657,819
7126,681
" style="stroke:#000000;stroke-width:8;
stroke-linejoin:round; stroke-linecap:butt;
"/>
<!-- Arrowhead on XXXpoint 8657 819 - 7095 679-->
<polyline points="7234 628
7104 680
7224 753
" style="stroke:#000000;stroke-width:8;stroke-miterlimit:8;
"/>
<!-- Line -->
<polyline points="8632,2588
8657,835
" style="stroke:#000000;stroke-width:8;
stroke-linejoin:round; stroke-linecap:butt;
"/>
<!-- Arrowhead on XXXpoint 8632 2588 - 8657 804-->
<polyline points="8718 939
8657 813
8592 938
" style="stroke:#000000;stroke-width:8;stroke-miterlimit:8;
"/>
<!-- Line -->
<polyline points="7051,597
8594,728
" style="stroke:#000000;stroke-width:8;
stroke-linejoin:round; stroke-linecap:butt;
"/>
<!-- Arrowhead on XXXpoint 7051 597 - 8625 730-->
<polyline points="8485 781
8616 729
8495 656
" style="stroke:#000000;stroke-width:8;stroke-miterlimit:8;
"/>
<!-- Line -->
<polyline points="8734,832
8705,2578
" style="stroke:#5050ff;stroke-width:16;
stroke-linejoin:round; stroke-linecap:butt;
"/>
<!-- Arrowhead on XXXpoint 8734 832 - 8704 2643-->
<polyline points="8643 2507
8704 2634
8769 2509
" style="stroke:#5050ff;stroke-width:8;stroke-miterlimit:8;
"/>
<!-- Line -->
<polyline points="2456,2011
2491,417
" style="stroke:#000000;stroke-width:8;
stroke-linejoin:round; stroke-linecap:butt;
"/>
<!-- Arrowhead on XXXpoint 2456 2011 - 2491 386-->
<polyline points="2551 522
2491 395
2425 519
" style="stroke:#000000;stroke-width:8;stroke-miterlimit:8;
"/>
<!-- Line -->
<polyline points="8892,2645
8932,883
" style="stroke:#5050ff;stroke-width:16;
stroke-linejoin:round; stroke-linecap:butt;
"/>
<!-- Arrowhead on XXXpoint 8892 2645 - 8933 818-->
<polyline points="8993 955
8933 828
8867 952
" style="stroke:#5050ff;stroke-width:8;stroke-miterlimit:8;
"/>
<!-- Line -->
<polyline points="9044,854
8997,2635
" style="stroke:#000000;stroke-width:8;
stroke-linejoin:round; stroke-linecap:butt;
"/>
<!-- Arrowhead on XXXpoint 9044 854 - 8996 2666-->
<polyline points="8936 2529
8996 2657
9062 2532
" style="stroke:#000000;stroke-width:8;stroke-miterlimit:8;
"/>
<!-- Line -->
<polyline points="2559,466
2518,2015
" style="stroke:#ff5050;stroke-width:48;
stroke-linejoin:round; stroke-linecap:butt;
"/>
<!-- Arrowhead on XXXpoint 2559 466 - 2515 2146-->
<polyline points="2455 2009
2515 2137
2581 2012
" style="stroke:#ff5050;stroke-width:8;stroke-miterlimit:8;
"/>
<!-- Line -->
<polyline points="2932,476
2852,2079
" style="stroke:#000000;stroke-width:8;
stroke-linejoin:round; stroke-linecap:butt;
"/>
<!-- Arrowhead on XXXpoint 2932 476 - 2851 2111-->
<polyline points="2794 1972
2851 2101
2919 1979
" style="stroke:#000000;stroke-width:8;stroke-miterlimit:8;
"/>
<!-- Line -->
<polyline points="1750,3253
2413,2158
" style="stroke:#000000;stroke-width:8;
stroke-linejoin:round; stroke-linecap:butt;
"/>
<!-- Arrowhead on XXXpoint 1750 3253 - 2430 2131-->
<polyline points="2413 2279
2425 2139
2305 2214
" style="stroke:#000000;stroke-width:8;stroke-miterlimit:8;
"/>
<!-- Line -->
<polyline points="2727,2130
2792,539
" style="stroke:#5050ff;stroke-width:16;
stroke-linejoin:round; stroke-linecap:butt;
"/>
<!-- Arrowhead on XXXpoint 2727 2130 - 2794 474-->
<polyline points="2852 612
2794 483
2726 606
" style="stroke:#5050ff;stroke-width:8;stroke-miterlimit:8;
"/>
<!-- Line -->
<polyline points="6976,687
5828,951
" style="stroke:#000000;stroke-width:8;
stroke-linejoin:round; stroke-linecap:butt;
"/>
<!-- Arrowhead on XXXpoint 6976 687 - 5797 958-->
<polyline points="5914 866
5806 956
5943 988
" style="stroke:#000000;stroke-width:8;stroke-miterlimit:8;
"/>
<!-- Line -->
<polyline points="8997,2651
10749,2958
" style="stroke:#000000;stroke-width:8;
stroke-linejoin:round; stroke-linecap:butt;
"/>
<!-- Arrowhead on XXXpoint 8997 2651 - 10781 2963-->
<polyline points="10636 3001
10771 2961
10658 2877
" style="stroke:#000000;stroke-width:8;stroke-miterlimit:8;
"/>
<!-- Line -->
<polyline points="8705,2613
8300,1989
" style="stroke:#5050ff;stroke-width:16;
stroke-linejoin:round; stroke-linecap:butt;
"/>
<!-- Arrowhead on XXXpoint 8705 2613 - 8264 1933-->
<polyline points="8390 2011
8269 1941
8285 2080
" style="stroke:#5050ff;stroke-width:8;stroke-miterlimit:8;
"/>
<!-- Line -->
<polyline points="8246,2049
8656,2665
" style="stroke:#5050ff;stroke-width:16;
stroke-linejoin:round; stroke-linecap:butt;
"/>
<!-- Arrowhead on XXXpoint 8246 2049 - 8691 2719-->
<polyline points="8563 2641
8686 2711
8668 2571
" style="stroke:#5050ff;stroke-width:8;stroke-miterlimit:8;
"/>
<!-- Line -->
<polyline points="10726,3097
8967,2777
" style="stroke:#000000;stroke-width:8;
stroke-linejoin:round; stroke-linecap:butt;
"/>
<!-- Arrowhead on XXXpoint 10726 3097 - 8936 2772-->
<polyline points="9080 2734
8945 2774
9058 2858
" style="stroke:#000000;stroke-width:8;stroke-miterlimit:8;
"/>
<!-- Line -->
<polyline points="2517,2085
1869,3165
" style="stroke:#5050ff;stroke-width:16;
stroke-linejoin:round; stroke-linecap:butt;
"/>
<!-- Arrowhead on XXXpoint 2517 2085 - 1836 3220-->
<polyline points="1851 3071
1841 3212
1960 3135
" style="stroke:#5050ff;stroke-width:8;stroke-miterlimit:8;
"/>
<!-- Line -->
<polyline points="5890,852
7035,600
" style="stroke:#000000;stroke-width:8;
stroke-linejoin:round; stroke-linecap:butt;
"/>
<!-- Arrowhead on XXXpoint 5890 852 - 7066 593-->
<polyline points="6946 683
7057 595
6919 560
" style="stroke:#000000;stroke-width:8;stroke-miterlimit:8;
"/>
<!-- Line -->
<polyline points="2491,402
741,106
" style="stroke:#000000;stroke-width:8;
stroke-linejoin:round; stroke-linecap:butt;
"/>
<!-- Arrowhead on XXXpoint 2491 402 - 709 100-->
<polyline points="853 59
719 101
832 184
" style="stroke:#000000;stroke-width:8;stroke-miterlimit:8;
"/>
<!-- Line -->
<polyline points="2818,2232
2202,3351
" style="stroke:#000000;stroke-width:8;
stroke-linejoin:round; stroke-linecap:butt;
"/>
<!-- Arrowhead on XXXpoint 2818 2232 - 2186 3379-->
<polyline points="2196 3229
2191 3371
2306 3290
" style="stroke:#000000;stroke-width:8;stroke-miterlimit:8;
"/>
<!-- Line -->
<polyline points="8485,1990
8874,2616
" style="stroke:#5050ff;stroke-width:16;
stroke-linejoin:round; stroke-linecap:butt;
"/>
<!-- Arrowhead on XXXpoint 8485 1990 - 8908 2671-->
<polyline points="8782 2588
8902 2663
8889 2522
" style="stroke:#5050ff;stroke-width:8;stroke-miterlimit:8;
"/>
<!-- Line -->
<polyline points="2088,3254
2710,2159
" style="stroke:#5050ff;stroke-width:16;
stroke-linejoin:round; stroke-linecap:butt;
"/>
<!-- Arrowhead on XXXpoint 2088 3254 - 2742 2101-->
<polyline points="2729 2249
2738 2110
2620 2187
" style="stroke:#5050ff;stroke-width:8;stroke-miterlimit:8;
"/>
<!-- Line -->
<polyline points="8861,2727
8468,2108
" style="stroke:#5050ff;stroke-width:16;
stroke-linejoin:round; stroke-linecap:butt;
"/>
<!-- Arrowhead on XXXpoint 8861 2727 - 8432 2052-->
<polyline points="8558 2133
8437 2060
8451 2200
" style="stroke:#5050ff;stroke-width:8;stroke-miterlimit:8;
"/>
<!-- Line -->
<polyline points="7650,3308
8571,2718
" style="stroke:#000000;stroke-width:8;
stroke-linejoin:round; stroke-linecap:butt;
"/>
<!-- Arrowhead on XXXpoint 7650 3308 - 8598 2700-->
<polyline points="8518 2826
8591 2705
8450 2720
" style="stroke:#000000;stroke-width:8;stroke-miterlimit:8;
"/>
<!-- Line -->
<polyline points="669,49
2440,345
" style="stroke:#000000;stroke-width:8;
stroke-linejoin:round; stroke-linecap:butt;
"/>
<!-- Arrowhead on XXXpoint 669 49 - 2472 350-->
<polyline points="2327 390
2462 349
2348 266
" style="stroke:#000000;stroke-width:8;stroke-miterlimit:8;
"/>
<!-- Line -->
<polyline points="8282,1961
8708,895
" style="stroke:#ff5050;stroke-width:48;
stroke-linejoin:round; stroke-linecap:butt;
"/>
<!-- Arrowhead on XXXpoint 8282 1961 - 8758 773-->
<polyline points="8766 921
8754 782
8648 875
" style="stroke:#ff5050;stroke-width:8;stroke-miterlimit:8;
"/>
<!-- Line -->
<polyline points="8675,2693
7775,3274
" style="stroke:#5050ff;stroke-width:16;
stroke-linejoin:round; stroke-linecap:butt;
"/>
<!-- Arrowhead on XXXpoint 8675 2693 - 7719 3310-->
<polyline points="7798 3183
7727 3304
7866 3289
" style="stroke:#5050ff;stroke-width:8;stroke-miterlimit:8;
"/>
<!-- Line -->
<polyline points="8664,782
8236,1856
" style="stroke:#5050ff;stroke-width:16;
stroke-linejoin:round; stroke-linecap:butt;
"/>
<!-- Arrowhead on XXXpoint 8664 782 - 8212 1917-->
<polyline points="8202 1767
8215 1908
8320 1814
" style="stroke:#5050ff;stroke-width:8;stroke-miterlimit:8;
"/>
<!-- Line -->
<polyline points="8933,850
8496,1958
" style="stroke:#5050ff;stroke-width:16;
stroke-linejoin:round; stroke-linecap:butt;
"/>
<!-- Arrowhead on XXXpoint 8933 850 - 8473 2018-->
<polyline points="8464 1869
8476 2010
8580 1916
" style="stroke:#5050ff;stroke-width:8;stroke-miterlimit:8;
"/>
<!-- Line -->
<polyline points="7955,3339
8833,2745
" style="stroke:#5050ff;stroke-width:16;
stroke-linejoin:round; stroke-linecap:butt;
"/>
<!-- Arrowhead on XXXpoint 7955 3339 - 8887 2709-->
<polyline points="8810 2836
8879 2714
8739 2732
" style="stroke:#5050ff;stroke-width:8;stroke-miterlimit:8;
"/>
<!-- Line -->
<polyline points="5813,955
5952,2822
" style="stroke:#000000;stroke-width:8;
stroke-linejoin:round; stroke-linecap:butt;
"/>
<!-- Arrowhead on XXXpoint 5813 955 - 5954 2853-->
<polyline points="5881 2722
5953 2844
6006 2712
" style="stroke:#000000;stroke-width:8;stroke-miterlimit:8;
"/>
<!-- Line -->
<polyline points="-27,2801
1733,3249
" style="stroke:#000000;stroke-width:8;
stroke-linejoin:round; stroke-linecap:butt;
"/>
<!-- Arrowhead on XXXpoint -27 2801 - 1764 3256-->
<polyline points="1616 3283
1755 3254
1648 3162
" style="stroke:#000000;stroke-width:8;stroke-miterlimit:8;
"/>
<!-- Line -->
<polyline points="8952,2775
8070,3387
" style="stroke:#000000;stroke-width:8;
stroke-linejoin:round; stroke-linecap:butt;
"/>
<!-- Arrowhead on XXXpoint 8952 2775 - 8043 3405-->
<polyline points="8117 3276
8050 3400
8188 3379
" style="stroke:#000000;stroke-width:8;stroke-miterlimit:8;
"/>
<!-- Line -->
<polyline points="8451,1937
8892,822
" style="stroke:#5050ff;stroke-width:16;
stroke-linejoin:round; stroke-linecap:butt;
"/>
<!-- Arrowhead on XXXpoint 8451 1937 - 8916 761-->
<polyline points="8924 909
8913 769
8808 862
" style="stroke:#5050ff;stroke-width:8;stroke-miterlimit:8;
"/>
<!-- Line -->
<polyline points="4644,2480
4939,831
" style="stroke:#000000;stroke-width:8;
stroke-linejoin:round; stroke-linecap:butt;
"/>
<!-- Arrowhead on XXXpoint 4644 2480 - 4944 800-->
<polyline points="4981 943
4942 809
4857 921
" style="stroke:#000000;stroke-width:8;stroke-miterlimit:8;
"/>
<!-- Line -->
<polyline points="5966,2888
5823,998
" style="stroke:#000000;stroke-width:8;
stroke-linejoin:round; stroke-linecap:butt;
"/>
<!-- Arrowhead on XXXpoint 5966 2888 - 5821 966-->
<polyline points="5893 1097
5822 976
5769 1106
" style="stroke:#000000;stroke-width:8;stroke-miterlimit:8;
"/>
<!-- Line -->
<polyline points="6043,2954
7633,3303
" style="stroke:#000000;stroke-width:8;
stroke-linejoin:round; stroke-linecap:butt;
"/>
<!-- Arrowhead on XXXpoint 6043 2954 - 7665 3311-->
<polyline points="7518 3342
7655 3309
7545 3219
" style="stroke:#000000;stroke-width:8;stroke-miterlimit:8;
"/>
<!-- Line -->
<polyline points="1703,3238
-79,2785
" style="stroke:#000000;stroke-width:8;
stroke-linejoin:round; stroke-linecap:butt;
"/>
<!-- Arrowhead on XXXpoint 1703 3238 - -110 2777-->
<polyline points="36 2749
-100 2780
5 2871
" style="stroke:#000000;stroke-width:8;stroke-miterlimit:8;
"/>
<!-- Line -->
<polyline points="5043,889
4737,2530
" style="stroke:#5050ff;stroke-width:16;
stroke-linejoin:round; stroke-linecap:butt;
"/>
<!-- Arrowhead on XXXpoint 5043 889 - 4725 2594-->
<polyline points="4688 2449
4727 2584
4811 2472
" style="stroke:#5050ff;stroke-width:8;stroke-miterlimit:8;
"/>
<!-- Line -->
<polyline points="10932,1022
9060,854
" style="stroke:#000000;stroke-width:8;
stroke-linejoin:round; stroke-linecap:butt;
"/>
<!-- Arrowhead on XXXpoint 10932 1022 - 9028 852-->
<polyline points="9168 801
9038 853
9158 927
" style="stroke:#000000;stroke-width:8;stroke-miterlimit:8;
"/>
<!-- Line -->
<polyline points="7587,3239
5982,2890
" style="stroke:#000000;stroke-width:8;
stroke-linejoin:round; stroke-linecap:butt;
"/>
<!-- Arrowhead on XXXpoint 7587 3239 - 5950 2883-->
<polyline points="6096 2850
5960 2886
6069 2974
" style="stroke:#000000;stroke-width:8;stroke-miterlimit:8;
"/>
<!-- Line -->
<polyline points="584,130
-402,995
" style="stroke:#000000;stroke-width:8;
stroke-linejoin:round; stroke-linecap:butt;
"/>
<!-- Arrowhead on XXXpoint 584 130 - -425 1016-->
<polyline points="-364 878
-417 1009
-281 973
" style="stroke:#000000;stroke-width:8;stroke-miterlimit:8;
"/>
<!-- Line -->
<polyline points="4225,3882
4606,2638
" style="stroke:#000000;stroke-width:8;
stroke-linejoin:round; stroke-linecap:butt;
"/>
<!-- Arrowhead on XXXpoint 4225 3882 - 4616 2606-->
<polyline points="4636 2754
4613 2616
4515 2718
" style="stroke:#000000;stroke-width:8;stroke-miterlimit:8;
"/>
<!-- Line -->
<polyline points="10766,2961
10931,1038
" style="stroke:#000000;stroke-width:8;
stroke-linejoin:round; stroke-linecap:butt;
"/>
<!-- Arrowhead on XXXpoint 10766 2961 - 10933 1006-->
<polyline points="10983 1146
10932 1016
10858 1135
" style="stroke:#000000;stroke-width:8;stroke-miterlimit:8;
"/>
<!-- Line -->
<polyline points="9002,762
10894,923
" style="stroke:#000000;stroke-width:8;
stroke-linejoin:round; stroke-linecap:butt;
"/>
<!-- Arrowhead on XXXpoint 9002 762 - 10925 925-->
<polyline points="10785 976
10916 924
10795 851
" style="stroke:#000000;stroke-width:8;stroke-miterlimit:8;
"/>
<!-- Line -->
<polyline points="-326,921
657,59
" style="stroke:#000000;stroke-width:8;
stroke-linejoin:round; stroke-linecap:butt;
"/>
<!-- Arrowhead on XXXpoint -326 921 - 681 38-->
<polyline points="620 175
674 45
537 79
" style="stroke:#000000;stroke-width:8;stroke-miterlimit:8;
"/>
<!-- Line -->
<polyline points="7746,3293
8234,2080
" style="stroke:#5050ff;stroke-width:16;
stroke-linejoin:round; stroke-linecap:butt;
"/>
<!-- Arrowhead on XXXpoint 7746 3293 - 8258 2019-->
<polyline points="8265 2167
8255 2028
8149 2121
" style="stroke:#5050ff;stroke-width:8;stroke-miterlimit:8;
"/>
<!-- Line -->
<polyline points="4731,2563
4369,3792
" style="stroke:#5050ff;stroke-width:16;
stroke-linejoin:round; stroke-linecap:butt;
"/>
<!-- Arrowhead on XXXpoint 4731 2563 - 4351 3855-->
<polyline points="4329 3706
4354 3845
4450 3741
" style="stroke:#5050ff;stroke-width:8;stroke-miterlimit:8;
"/>
<!-- Line -->
<polyline points="-413,1006
-137,2678
" style="stroke:#000000;stroke-width:8;
stroke-linejoin:round; stroke-linecap:butt;
"/>
<!-- Arrowhead on XXXpoint -413 1006 - -131 2709-->
<polyline points="-214 2585
-132 2700
-90 2564
" style="stroke:#000000;stroke-width:8;stroke-miterlimit:8;
"/>
<!-- Line -->
<polyline points="11037,1039
10865,2956
" style="stroke:#5050ff;stroke-width:16;
stroke-linejoin:round; stroke-linecap:butt;
"/>
<!-- Arrowhead on XXXpoint 11037 1039 - 10859 3021-->
<polyline points="10808 2880
10860 3012
10934 2891
" style="stroke:#5050ff;stroke-width:8;stroke-miterlimit:8;
"/>
<!-- Line -->
<polyline points="4942,815
2948,478
" style="stroke:#000000;stroke-width:8;
stroke-linejoin:round; stroke-linecap:butt;
"/>
<!-- Arrowhead on XXXpoint 4942 815 - 2916 473-->
<polyline points="3060 432
2925 474
3039 557
" style="stroke:#000000;stroke-width:8;stroke-miterlimit:8;
"/>
<!-- Line -->
<polyline points="8211,1995
7717,3215
" style="stroke:#5050ff;stroke-width:16;
stroke-linejoin:round; stroke-linecap:butt;
"/>
<!-- Arrowhead on XXXpoint 8211 1995 - 7693 3276-->
<polyline points="7685 3127
7696 3268
7801 3174
" style="stroke:#5050ff;stroke-width:8;stroke-miterlimit:8;
"/>
<!-- Line -->
<polyline points="8450,2079
7967,3307
" style="stroke:#5050ff;stroke-width:16;
stroke-linejoin:round; stroke-linecap:butt;
"/>
<!-- Arrowhead on XXXpoint 8450 2079 - 7944 3367-->
<polyline points="7934 3218
7947 3359
8051 3265
" style="stroke:#5050ff;stroke-width:8;stroke-miterlimit:8;
"/>
<!-- Line -->
<polyline points="-95,2782
-371,1101
" style="stroke:#000000;stroke-width:8;
stroke-linejoin:round; stroke-linecap:butt;
"/>
<!-- Arrowhead on XXXpoint -95 2782 - -375 1069-->
<polyline points="-291 1192
-374 1079
-415 1213
" style="stroke:#000000;stroke-width:8;stroke-miterlimit:8;
"/>
<!-- Line -->
<polyline points="8611,729
7623,1027
" style="stroke:#000000;stroke-width:8;
stroke-linejoin:round; stroke-linecap:butt;
"/>
<!-- Arrowhead on XXXpoint 8611 729 - 7591 1037-->
<polyline points="7702 936
7601 1034
7739 1057
" style="stroke:#000000;stroke-width:8;stroke-miterlimit:8;
"/>
<!-- Line -->
<polyline points="2904,423
4925,761
" style="stroke:#000000;stroke-width:8;
stroke-linejoin:round; stroke-linecap:butt;
"/>
<!-- Arrowhead on XXXpoint 2904 423 - 4957 766-->
<polyline points="4812 806
4948 765
4833 682
" style="stroke:#000000;stroke-width:8;stroke-miterlimit:8;
"/>
<!-- Line -->
<polyline points="7916,3293
8404,2057
" style="stroke:#5050ff;stroke-width:16;
stroke-linejoin:round; stroke-linecap:butt;
"/>
<!-- Arrowhead on XXXpoint 7916 3293 - 8428 1996-->
<polyline points="8436 2144
8425 2005
8320 2098
" style="stroke:#5050ff;stroke-width:8;stroke-miterlimit:8;
"/>
<!-- Line -->
<polyline points="7713,1084
8623,798
" style="stroke:#5050ff;stroke-width:16;
stroke-linejoin:round; stroke-linecap:butt;
"/>
<!-- Arrowhead on XXXpoint 7713 1084 - 8685 780-->
<polyline points="8575 880
8677 783
8537 760
" style="stroke:#5050ff;stroke-width:8;stroke-miterlimit:8;
"/>
<!-- Line -->
<polyline points="10862,2991
10659,2340
" style="stroke:#5050ff;stroke-width:16;
stroke-linejoin:round; stroke-linecap:butt;
"/>
<!-- Arrowhead on XXXpoint 10862 2991 - 10640 2278-->
<polyline points="10741 2387
10643 2286
10620 2425
" style="stroke:#5050ff;stroke-width:8;stroke-miterlimit:8;
"/>
<!-- Line -->
<polyline points="8904,790
7968,1098
" style="stroke:#5050ff;stroke-width:16;
stroke-linejoin:round; stroke-linecap:butt;
"/>
<!-- Arrowhead on XXXpoint 8904 790 - 7906 1118-->
<polyline points="8014 1015
7914 1114
8053 1134
" style="stroke:#5050ff;stroke-width:8;stroke-miterlimit:8;
"/>
<!-- Line -->
<polyline points="10645,2469
10826,3048
" style="stroke:#5050ff;stroke-width:16;
stroke-linejoin:round; stroke-linecap:butt;
"/>
<!-- Arrowhead on XXXpoint 10645 2469 - 10845 3111-->
<polyline points="10744 3001
10841 3103
10864 2963
" style="stroke:#5050ff;stroke-width:8;stroke-miterlimit:8;
"/>
<!-- Line -->
<polyline points="2195,3365
4208,3878
" style="stroke:#000000;stroke-width:8;
stroke-linejoin:round; stroke-linecap:butt;
"/>
<!-- Arrowhead on XXXpoint 2195 3365 - 4240 3885-->
<polyline points="4092 3912
4230 3883
4123 3791
" style="stroke:#000000;stroke-width:8;stroke-miterlimit:8;
"/>
<!-- Line -->
<polyline points="8045,1078
8985,766
" style="stroke:#000000;stroke-width:8;
stroke-linejoin:round; stroke-linecap:butt;
"/>
<!-- Arrowhead on XXXpoint 8045 1078 - 9017 756-->
<polyline points="8908 858
9008 760
8869 739
" style="stroke:#000000;stroke-width:8;stroke-miterlimit:8;
"/>
<!-- Line -->
<polyline points="8236,1884
7731,1112
" style="stroke:#5050ff;stroke-width:16;
stroke-linejoin:round; stroke-linecap:butt;
"/>
<!-- Arrowhead on XXXpoint 8236 1884 - 7695 1057-->
<polyline points="7821 1134
7700 1064
7716 1204
" style="stroke:#5050ff;stroke-width:8;stroke-miterlimit:8;
"/>
<!-- Line -->
<polyline points="7671,1180
8192,1966
" style="stroke:#5050ff;stroke-width:16;
stroke-linejoin:round; stroke-linecap:butt;
"/>
<!-- Arrowhead on XXXpoint 7671 1180 - 8227 2022-->
<polyline points="8099 1943
8222 2014
8204 1874
" style="stroke:#5050ff;stroke-width:8;stroke-miterlimit:8;
"/>
<!-- Line -->
<polyline points="7607,1033
5906,853
" style="stroke:#000000;stroke-width:8;
stroke-linejoin:round; stroke-linecap:butt;
"/>
<!-- Arrowhead on XXXpoint 7607 1033 - 5875 850-->
<polyline points="6015 801
5884 851
6003 927
" style="stroke:#000000;stroke-width:8;stroke-miterlimit:8;
"/>
<!-- Line -->
<polyline points="7937,1108
8433,1907
" style="stroke:#5050ff;stroke-width:16;
stroke-linejoin:round; stroke-linecap:butt;
"/>
<!-- Arrowhead on XXXpoint 7937 1108 - 8467 1963-->
<polyline points="8341 1880
8461 1954
8448 1814
" style="stroke:#5050ff;stroke-width:8;stroke-miterlimit:8;
"/>
<!-- Line -->
<polyline points="4215,3877
2171,3356
" style="stroke:#000000;stroke-width:8;
stroke-linejoin:round; stroke-linecap:butt;
"/>
<!-- Arrowhead on XXXpoint 4215 3877 - 2139 3349-->
<polyline points="2286 3320
2149 3351
2255 3442
" style="stroke:#000000;stroke-width:8;stroke-miterlimit:8;
"/>
<!-- Line -->
<polyline points="5823,982
7527,1173
" style="stroke:#000000;stroke-width:8;
stroke-linejoin:round; stroke-linecap:butt;
"/>
<!-- Arrowhead on XXXpoint 5823 982 - 7559 1176-->
<polyline points="7417 1224
7549 1175
7430 1099
" style="stroke:#000000;stroke-width:8;stroke-miterlimit:8;
"/>
<!-- Line -->
<polyline points="10060,3837
10714,3108
" style="stroke:#000000;stroke-width:8;
stroke-linejoin:round; stroke-linecap:butt;
"/>
<!-- Arrowhead on XXXpoint 10060 3837 - 10737 3084-->
<polyline points="10692 3227
10730 3091
10599 3143
" style="stroke:#000000;stroke-width:8;stroke-miterlimit:8;
"/>
<!-- Line -->
<polyline points="8416,2026
7912,1233
" style="stroke:#5050ff;stroke-width:16;
stroke-linejoin:round; stroke-linecap:butt;
"/>
<!-- Arrowhead on XXXpoint 8416 2026 - 7877 1177-->
<polyline points="8003 1258
7882 1186
7896 1325
" style="stroke:#5050ff;stroke-width:8;stroke-miterlimit:8;
"/>
<!-- Line -->
<polyline points="1814,1458
2538,492
" style="stroke:#5050ff;stroke-width:16;
stroke-linejoin:round; stroke-linecap:butt;
"/>
<!-- Arrowhead on XXXpoint 1814 1458 - 2578 440-->
<polyline points="2546 585
2573 448
2446 510
" style="stroke:#5050ff;stroke-width:8;stroke-miterlimit:8;
"/>
<!-- Line -->
<polyline points="10649,2308
11026,1071
" style="stroke:#5050ff;stroke-width:16;
stroke-linejoin:round; stroke-linecap:butt;
"/>
<!-- Arrowhead on XXXpoint 10649 2308 - 11045 1008-->
<polyline points="11065 1156
11042 1018
10944 1120
" style="stroke:#5050ff;stroke-width:8;stroke-miterlimit:8;
"/>
<!-- Line -->
<polyline points="2457,348
1701,1310
" style="stroke:#000000;stroke-width:8;
stroke-linejoin:round; stroke-linecap:butt;
"/>
<!-- Arrowhead on XXXpoint 2457 348 - 1681 1335-->
<polyline points="1714 1189
1687 1328
1814 1267
" style="stroke:#000000;stroke-width:8;stroke-miterlimit:8;
"/>
<!-- Line -->
<polyline points="10836,3082
10262,3752
" style="stroke:#5050ff;stroke-width:16;
stroke-linejoin:round; stroke-linecap:butt;
"/>
<!-- Arrowhead on XXXpoint 10836 3082 - 10220 3801-->
<polyline points="10260 3656
10226 3794
10355 3738
" style="stroke:#5050ff;stroke-width:8;stroke-miterlimit:8;
"/>
<!-- Line -->
<polyline points="2793,506
2099,1483
" style="stroke:#5050ff;stroke-width:16;
stroke-linejoin:round; stroke-linecap:butt;
"/>
<!-- Arrowhead on XXXpoint 2793 506 - 2061 1537-->
<polyline points="2088 1390
2067 1529
2191 1462
" style="stroke:#5050ff;stroke-width:8;stroke-miterlimit:8;
"/>
<!-- Line -->
<polyline points="7544,1175
7587,3223
" style="stroke:#000000;stroke-width:8;
stroke-linejoin:round; stroke-linecap:butt;
"/>
<!-- Arrowhead on XXXpoint 7544 1175 - 7587 3254-->
<polyline points="7521 3120
7587 3245
7647 3117
" style="stroke:#000000;stroke-width:8;stroke-miterlimit:8;
"/>
<!-- Line -->
<polyline points="7706,3248
7671,1213
" style="stroke:#5050ff;stroke-width:16;
stroke-linejoin:round; stroke-linecap:butt;
"/>
<!-- Arrowhead on XXXpoint 7706 3248 - 7670 1148-->
<polyline points="7735 1281
7670 1158
7609 1285
" style="stroke:#5050ff;stroke-width:8;stroke-miterlimit:8;
"/>
<!-- Line -->
<polyline points="11023,974
10640,2218
" style="stroke:#5050ff;stroke-width:16;
stroke-linejoin:round; stroke-linecap:butt;
"/>
<!-- Arrowhead on XXXpoint 11023 974 - 10621 2281-->
<polyline points="10600 2133
10624 2272
10721 2170
" style="stroke:#5050ff;stroke-width:8;stroke-miterlimit:8;
"/>
<!-- Line -->
<polyline points="1853,3194
1814,1491
" style="stroke:#5050ff;stroke-width:16;
stroke-linejoin:round; stroke-linecap:butt;
"/>
<!-- Arrowhead on XXXpoint 1853 3194 - 1813 1426-->
<polyline points="1878 1560
1813 1436
1752 1563
" style="stroke:#5050ff;stroke-width:8;stroke-miterlimit:8;
"/>
<!-- Line -->
<polyline points="2202,1425
2895,436
" style="stroke:#000000;stroke-width:8;
stroke-linejoin:round; stroke-linecap:butt;
"/>
<!-- Arrowhead on XXXpoint 2202 1425 - 2913 409-->
<polyline points="2887 555
2908 416
2784 482
" style="stroke:#000000;stroke-width:8;stroke-miterlimit:8;
"/>
<!-- Line -->
<polyline points="1646,1498
1702,3222
" style="stroke:#000000;stroke-width:8;
stroke-linejoin:round; stroke-linecap:butt;
"/>
<!-- Arrowhead on XXXpoint 1646 1498 - 1703 3253-->
<polyline points="1636 3120
1703 3244
1762 3116
" style="stroke:#000000;stroke-width:8;stroke-miterlimit:8;
"/>
<!-- Line -->
<polyline points="7895,1205
7916,3258
" style="stroke:#5050ff;stroke-width:16;
stroke-linejoin:round; stroke-linecap:butt;
"/>
<!-- Arrowhead on XXXpoint 7895 1205 - 7916 3323-->
<polyline points="7850 3188
7916 3314
7976 3187
" style="stroke:#5050ff;stroke-width:8;stroke-miterlimit:8;
"/>
<!-- Line -->
<polyline points="2080,1511
2088,3219
" style="stroke:#5050ff;stroke-width:16;
stroke-linejoin:round; stroke-linecap:butt;
"/>
<!-- Arrowhead on XXXpoint 2080 1511 - 2088 3285-->
<polyline points="2024 3149
2088 3275
2150 3148
" style="stroke:#5050ff;stroke-width:8;stroke-miterlimit:8;
"/>
<!-- Line -->
<polyline points="7997,3329
7983,1240
" style="stroke:#000000;stroke-width:8;
stroke-linejoin:round; stroke-linecap:butt;
"/>
<!-- Arrowhead on XXXpoint 7997 3329 - 7982 1209-->
<polyline points="8045 1343
7982 1218
7919 1344
" style="stroke:#000000;stroke-width:8;stroke-miterlimit:8;
"/>
<!-- Line -->
<polyline points="8056,3397
10044,3833
" style="stroke:#000000;stroke-width:8;
stroke-linejoin:round; stroke-linecap:butt;
"/>
<!-- Arrowhead on XXXpoint 8056 3397 - 10075 3840-->
<polyline points="9928 3871
10066 3838
9955 3749
" style="stroke:#000000;stroke-width:8;stroke-miterlimit:8;
"/>
<!-- Line -->
<polyline points="2155,3353
2156,1617
" style="stroke:#000000;stroke-width:8;
stroke-linejoin:round; stroke-linecap:butt;
"/>
<!-- Arrowhead on XXXpoint 2155 3353 - 2156 1586-->
<polyline points="2218 1721
2156 1595
2092 1720
" style="stroke:#000000;stroke-width:8;stroke-miterlimit:8;
"/>
<!-- Line -->
<polyline points="10024,3769
8013,3332
" style="stroke:#000000;stroke-width:8;
stroke-linejoin:round; stroke-linecap:butt;
"/>
<!-- Arrowhead on XXXpoint 10024 3769 - 7982 3324-->
<polyline points="8128 3291
7991 3327
8100 3415
" style="stroke:#000000;stroke-width:8;stroke-miterlimit:8;
"/>
<!-- Line -->
<polyline points="1692,1323
-310,923
" style="stroke:#000000;stroke-width:8;
stroke-linejoin:round; stroke-linecap:butt;
"/>
<!-- Arrowhead on XXXpoint 1692 1323 - -341 918-->
<polyline points="-195 882
-331 920
-220 1006
" style="stroke:#000000;stroke-width:8;stroke-miterlimit:8;
"/>
<!-- Line -->
<polyline points="-373,1085
1629,1495
" style="stroke:#000000;stroke-width:8;
stroke-linejoin:round; stroke-linecap:butt;
"/>
<!-- Arrowhead on XXXpoint -373 1085 - 1660 1501-->
<polyline points="1514 1534
1651 1499
1540 1412
" style="stroke:#000000;stroke-width:8;stroke-miterlimit:8;
"/>
<!-- Line -->
<polyline points="10239,3780
10633,2493
" style="stroke:#5050ff;stroke-width:16;
stroke-linejoin:round; stroke-linecap:butt;
"/>
<!-- Arrowhead on XXXpoint 10239 3780 - 10651 2430-->
<polyline points="10671 2578
10648 2439
10551 2541
" style="stroke:#5050ff;stroke-width:8;stroke-miterlimit:8;
"/>
<!-- Line -->
<polyline points="10600,2351
10181,3713
" style="stroke:#ff5050;stroke-width:48;
stroke-linejoin:round; stroke-linecap:butt;
"/>
<!-- Arrowhead on XXXpoint 10600 2351 - 10143 3839-->
<polyline points="10122 3690
10146 3829
10243 3727
" style="stroke:#ff5050;stroke-width:8;stroke-miterlimit:8;
"/>
<!-- Line -->
<polyline points="10911,924
10236,1298
" style="stroke:#000000;stroke-width:8;
stroke-linejoin:round; stroke-linecap:butt;
"/>
<!-- Arrowhead on XXXpoint 10911 924 - 10207 1314-->
<polyline points="10295 1193
10216 1310
10356 1303
" style="stroke:#000000;stroke-width:8;stroke-miterlimit:8;
"/>
<!-- Line -->
<polyline points="4675,2036
5033,920
" style="stroke:#5050ff;stroke-width:16;
stroke-linejoin:round; stroke-linecap:butt;
"/>
<!-- Arrowhead on XXXpoint 4675 2036 - 5053 858-->
<polyline points="5070 1005
5049 867
4951 966
" style="stroke:#5050ff;stroke-width:8;stroke-miterlimit:8;
"/>
<!-- Line -->
<polyline points="10353,1366
10994,991
" style="stroke:#5050ff;stroke-width:16;
stroke-linejoin:round; stroke-linecap:butt;
"/>
<!-- Arrowhead on XXXpoint 10353 1366 - 11049 957-->
<polyline points="10963 1080
11041 962
10900 972
" style="stroke:#5050ff;stroke-width:8;stroke-miterlimit:8;
"/>
<!-- Line -->
<polyline points="4942,764
4559,1877
" style="stroke:#000000;stroke-width:8;
stroke-linejoin:round; stroke-linecap:butt;
"/>
<!-- Arrowhead on XXXpoint 4942 764 - 4550 1908-->
<polyline points="4534 1760
4553 1900
4653 1800
" style="stroke:#000000;stroke-width:8;stroke-miterlimit:8;
"/>
<!-- Line -->
<polyline points="4361,3825
4663,2103
" style="stroke:#ff5050;stroke-width:48;
stroke-linejoin:round; stroke-linecap:butt;
"/>
<!-- Arrowhead on XXXpoint 4361 3825 - 4685 1973-->
<polyline points="4723 2117
4683 1983
4599 2095
" style="stroke:#ff5050;stroke-width:8;stroke-miterlimit:8;
"/>
<!-- Line -->
<polyline points="4510,2083
4217,3860
" style="stroke:#000000;stroke-width:8;
stroke-linejoin:round; stroke-linecap:butt;
"/>
<!-- Arrowhead on XXXpoint 4510 2083 - 4212 3891-->
<polyline points="4171 3746
4213 3882
4295 3767
" style="stroke:#000000;stroke-width:8;stroke-miterlimit:8;
"/>
<!-- Line -->
<polyline points="10630,2251
10363,1398
" style="stroke:#5050ff;stroke-width:16;
stroke-linejoin:round; stroke-linecap:butt;
"/>
<!-- Arrowhead on XXXpoint 10630 2251 - 10344 1336-->
<polyline points="10445 1445
10347 1344
10324 1483
" style="stroke:#5050ff;stroke-width:8;stroke-miterlimit:8;
"/>
<!-- Line -->
<polyline points="10318,1477
10590,2319
" style="stroke:#5050ff;stroke-width:16;
stroke-linejoin:round; stroke-linecap:butt;
"/>
<!-- Arrowhead on XXXpoint 10318 1477 - 10609 2381-->
<polyline points="10508 2271
10606 2372
10627 2233
" style="stroke:#5050ff;stroke-width:8;stroke-miterlimit:8;
"/>
<!-- Line -->
<polyline points="10222,1307
8060,1079
" style="stroke:#000000;stroke-width:8;
stroke-linejoin:round; stroke-linecap:butt;
"/>
<!-- Arrowhead on XXXpoint 10222 1307 - 8029 1076-->
<polyline points="8170 1026
8038 1077
8157 1152
" style="stroke:#000000;stroke-width:8;stroke-miterlimit:8;
"/>
<!-- Line -->
<polyline points="7983,1225
10151,1468
" style="stroke:#000000;stroke-width:8;
stroke-linejoin:round; stroke-linecap:butt;
"/>
<!-- Arrowhead on XXXpoint 7983 1225 - 10182 1471-->
<polyline points="10040 1519
10173 1470
10054 1393
" style="stroke:#000000;stroke-width:8;stroke-miterlimit:8;
"/>
<!-- Line -->
<polyline points="10167,1470
10024,3752
" style="stroke:#000000;stroke-width:8;
stroke-linejoin:round; stroke-linecap:butt;
"/>
<!-- Arrowhead on XXXpoint 10167 1470 - 10023 3783-->
<polyline points="9968 3644
10024 3774
10094 3651
" style="stroke:#000000;stroke-width:8;stroke-miterlimit:8;
"/>
<!-- Line -->
<polyline points="10162,3779
10316,1510
" style="stroke:#5050ff;stroke-width:16;
stroke-linejoin:round; stroke-linecap:butt;
"/>
<!-- Arrowhead on XXXpoint 10162 3779 - 10320 1445-->
<polyline points="10372 1584
10319 1455
10247 1575
" style="stroke:#5050ff;stroke-width:8;stroke-miterlimit:8;
"/>
<!-- Line -->
<polyline points="4555,1893
2218,1427
" style="stroke:#000000;stroke-width:8;
stroke-linejoin:round; stroke-linecap:butt;
"/>
<!-- Arrowhead on XXXpoint 4555 1893 - 2186 1422-->
<polyline points="2331 1386
2196 1424
2306 1510
" style="stroke:#000000;stroke-width:8;stroke-miterlimit:8;
"/>
<!-- Line -->
<polyline points="2156,1602
4493,2080
" style="stroke:#000000;stroke-width:8;
stroke-linejoin:round; stroke-linecap:butt;
"/>
<!-- Arrowhead on XXXpoint 2156 1602 - 4524 2087-->
<polyline points="4379 2120
4515 2085
4404 1997
" style="stroke:#000000;stroke-width:8;stroke-miterlimit:8;
"/>
<!-- Arc -->
<path style="stroke:#000000;stroke-width:32;stroke-linecap:butt;"
d="M 4065,508 A 6242 6242  0  0  1  7637  554 " />
<!-- Arrowhead on XXXpoint 7418 490 - 7637 554-->
<polygon points="7331 579
7627 551
7393 367
7415 489
7331 579

" style="stroke:#000000;stroke-width:8;stroke-miterlimit:8;
fill:white;"/>
<!-- Arc -->
<path style="stroke:#000000;stroke-width:32;stroke-linecap:butt;"
d="M 7879,3504 A 6128 6128  0  0  1  4544  3717 " />
<!-- Arrowhead on XXXpoint 4768 3761 - 4544 3717-->
<polygon points="4846 3664
4555 3719
4804 3880
4771 3761
4846 3664

" style="stroke:#000000;stroke-width:8;stroke-miterlimit:8;
fill:white;"/>
<!-- Text -->
<text xml:space="preserve" x="4458" y="4140" fill="#000000"  font-family="Times" font-style="normal" font-weight="normal" font-size="227" text-anchor="start">Vector&#60;Dart_handle&#62;v1 = {Dart_of_cell_range&#60;0,2&#62;(dh3)}</text>
<!-- Text -->
<text xml:space="preserve" x="4570" y="4443" fill="#000000"  font-family="Times" font-style="normal" font-weight="normal" font-size="227" text-anchor="start">Vector&#60;Dart_handle&#62;v2 = {Dart_of_cell_range&#60;0,2&#62;(dh4)}</text>
<!-- Text -->
<text xml:space="preserve" x="5028" y="4751" fill="#000000"  font-family="Times" font-style="italic" font-weight="normal" font-size="227" text-anchor="start">a in v1 U v2: cm.remove_cell&#60;1&#62;(a)</text>
<!-- Text -->
<text xml:space="preserve" x="4792" y="4766" fill="#000000"  font-family="Times,Symbol" font-style="normal" font-weight="normal" font-size="265" text-anchor="start">&#8704;</text>
<!-- Text -->
<text xml:space="preserve" x="4368" y="183" fill="#000000"  font-family="Times" font-style="normal" font-weight="normal" font-size="227" text-anchor="start">dh4=cm.insert_cell_0_in_cell_2(dh2)</text>
<!-- Text -->
<text xml:space="preserve" x="4018" y="-93" fill="#000000"  font-family="Times" font-style="normal" font-weight="normal" font-size="227" text-anchor="start">dh3=cm.insert_cell_0_in_cell_2(dh1)</text>
<!-- Text -->
<text xml:space="preserve" x="2551" y="377" fill="#000000"  font-family="Times" font-style="normal" font-weight="normal" font-size="252" text-anchor="start">dh1</text>
<!-- Text -->
<text xml:space="preserve" x="4527" y="3548" fill="#000000"  font-family="Times" font-style="normal" font-weight="normal" font-size="252" text-anchor="start">dh2</text>
<!-- Text -->
<text xml:space="preserve" x="8674" y="697" fill="#000000"  font-family="Times" font-style="normal" font-weight="normal" font-size="252" text-anchor="start">dh3</text>
<!-- Text -->
<text xml:space="preserve" x="9987" y="2710" fill="#000000"  font-family="Times" font-style="normal" font-weight="normal" font-size="252" text-anchor="start">dh4</text>
</g>
</svg>
