<?xml version="1.0" encoding="UTF-8" standalone="no"?>
<!-- Creator: fig2dev Version 3.2.8 -->
<!-- CreationDate: 2022-05-05 19:05:07 -->
<!-- Magnification: 1.05 -->
<svg	xmlns="http://www.w3.org/2000/svg"
	xmlns:xlink="http://www.w3.org/1999/xlink"
	width="660pt" height="328pt"
	viewBox="-5213 -17 10470 5196">
<g fill="none">
<!-- Line -->
<polyline points=" 4937,5157 5101,3692 3218,1961 2530,3042 4937,5157" fill="#ffffff"
	stroke="#000000" stroke-width="15px" stroke-linejoin="round"/>
<!-- Line -->
<polyline points=" 3218,1961 1342,2326 197,3455 2530,3042 3218,1961" fill="#ffffff"
	stroke="#000000" stroke-width="15px" stroke-linejoin="round"/>
<!-- Line -->
<polyline points=" 3090,1747 3047,5 2185,648 2358,2783 3090,1747" fill="#808080"
	stroke="#000000" stroke-width="15px" stroke-linejoin="round"/>
<!-- Line -->
<polyline points=" 5235,3591 3341,1839 3328,109 5235,3591" fill="#dddddd"
	stroke="#000000" stroke-width="15px" stroke-linejoin="round"/>
<!-- Line -->
<polyline points=" 3328,109 5235,3591 5103,5046 2557,785 3328,109" fill="#dddddd"
	stroke="#000000" stroke-width="15px" stroke-linejoin="round"/>
<!-- Line -->
<polyline points=" 4937,5157 197,3455 2530,3042 4937,5157" fill="#ffffff"
	stroke="#000000" stroke-width="15px" stroke-linejoin="round"/>
<!-- Line -->
<polyline points=" 2185,648 2358,2783 5,3213 2185,648" fill="#808080"
	stroke="#000000" stroke-width="15px" stroke-linejoin="round"/>
<!-- Line -->
<polyline points=" -3015,1011 -2935,2200 -4955,2593 -4733,904 -3015,1015" fill="#808080"
	stroke="#000000" stroke-width="8px" stroke-linejoin="round"/>
<!-- Line -->
<polyline points=" -2904,2461 -4780,2811 -2403,3692 -2900,2453" fill="#dddddd"
	stroke="#000000" stroke-width="8px" stroke-linejoin="round"/>
<!-- Line -->
<polyline points=" -2134,3592 -1266,2421 -1832,1093 -2806,1029 -2638,2271 -2134,3598" fill="#ffffff"
	stroke="#000000" stroke-width="8px" stroke-linejoin="round"/>
<!-- Line -->
<polyline points=" 5103,5046 5235,3591 5103,5046" fill="#dddddd"
	stroke="#000000" stroke-width="15px" stroke-linejoin="round"/>
<!-- Line -->
<polyline points=" 2679,2900 2557,785 5103,5046 2679,2900" fill="#dddddd"
	stroke="#000000" stroke-width="15px" stroke-linejoin="round"/>
<!-- Circle -->
<circle cx="-2800" cy="2318" r="130" fill="#000000"
	stroke="#000000" stroke-width="8px"/>
<!-- Circle -->
<circle cx="-2197" cy="3849" r="130" fill="#000000"
	stroke="#000000" stroke-width="8px"/>
<!-- Circle -->
<circle cx="-1091" cy="2370" r="130" fill="#000000"
	stroke="#000000" stroke-width="8px"/>
<!-- Circle -->
<circle cx="-1709" cy="978" r="130" fill="#000000"
	stroke="#000000" stroke-width="8px"/>
<!-- Circle -->
<circle cx="-2914" cy="884" r="130" fill="#000000"
	stroke="#000000" stroke-width="8px"/>
<!-- Circle -->
<circle cx="-4852" cy="777" r="130" fill="#000000"
	stroke="#000000" stroke-width="8px"/>
<!-- Circle -->
<circle cx="-5075" cy="2743" r="130" fill="#000000"
	stroke="#000000" stroke-width="8px"/>
<!-- Line -->
<polyline points=" -2800,2137 -2908,1085"
	stroke="#000000" stroke-width="60px"/>
<!-- Line -->
<polyline points=" -2275,3643 -2720,2480"
	stroke="#000000" stroke-width="60px"/>
<!-- Line -->
<polyline points=" -4856,2699 -2981,2342"
	stroke="#000000" stroke-width="60px"/>
<!-- Line -->
<polyline points=" -4656,783 -3132,879"
	stroke="#000000" stroke-width="60px"/>
<!-- Line -->
<polyline points=" -2754,921 -1871,982"
	stroke="#000000" stroke-width="60px"/>
<!-- Line -->
<polyline points=" -1632,1134 -1185,2223"
	stroke="#000000" stroke-width="60px"/>
<!-- Line -->
<polyline points=" -1157,2549 -2028,3719"
	stroke="#000000" stroke-width="60px"/>
<!-- Line -->
<polyline points=" -4874,958 -5094,2521"
	stroke="#000000" stroke-width="60px"/>
<!-- Line -->
<polyline points=" -4932,2884 -2400,3843"
	stroke="#000000" stroke-width="60px"/>
<!-- Line -->
<polyline points=" -2862,1502 -2722,1497"
	stroke="#000000" stroke-width="8px"/>
<!-- Line -->
<polyline points=" -2536,2876 -2382,2839"
	stroke="#000000" stroke-width="8px"/>
<!-- Line -->
<polyline points=" -2676,2294 -2518,2261"
	stroke="#000000" stroke-width="8px"/>
<!-- Line -->
<polyline points=" -3831,2508 -3803,2713"
	stroke="#000000" stroke-width="8px"/>
<!-- Circle -->
<circle cx="2442" cy="3009" r="151" fill="#000000"
	stroke="#000000" stroke-width="8px"/>
<!-- Line -->
<polyline points=" 2432,2932 2667,2588"
	stroke="#000000" stroke-width="60px"/>
<!-- Line -->
<polyline points=" 2448,2910 3145,1889"
	stroke="#000000" stroke-width="60px" stroke-dasharray="20 20"/>
<!-- Line -->
<defs>
<clipPath id="cp0">
	<path clip-rule="evenodd" d="M -5213,-17 H 5257 V 5179 H -5213 z
		M 3928,1471 3833,1504 3864,1408 3817,1510 3827,1520z"/>
</clipPath>
</defs>
<polyline points=" 4352,977 3827,1510" clip-path="url(#cp0)"
	stroke="#5a5a5a" stroke-width="8px" stroke-dasharray="10 10"/>
<!-- Forward arrow to point 3827,1510 -->
<polyline points=" 3928,1471 3833,1504 3864,1408"
	stroke="#5a5a5a" stroke-width="8px" stroke-miterlimit="8"/>
<!-- Line -->
<defs>
<clipPath id="cp1">
	<path clip-rule="evenodd" d="M -5213,-17 H 5257 V 5179 H -5213 z
		M 3009,380 2912,355 2990,292 2895,352 2898,365z"/>
</clipPath>
</defs>
<polyline points=" 3696,181 2903,357" clip-path="url(#cp1)"
	stroke="#5a5a5a" stroke-width="8px" stroke-dasharray="10 10"/>
<!-- Forward arrow to point 2903,357 -->
<polyline points=" 3009,380 2912,355 2990,292"
	stroke="#5a5a5a" stroke-width="8px" stroke-miterlimit="8"/>
<!-- Text -->
<text xml:space="preserve" x="-4027" y="1646" fill="#000000" font-family="Times" font-style="normal" font-weight="bold" font-size="228" text-anchor="start">f1</text>
<!-- Text -->
<text xml:space="preserve" x="-2695" y="1565" fill="#000000" font-family="Times" font-style="normal" font-weight="bold" font-size="228" text-anchor="start">e1</text>
<!-- Text -->
<text xml:space="preserve" x="-2374" y="2868" fill="#000000" font-family="Times" font-style="normal" font-weight="bold" font-size="228" text-anchor="start">e3</text>
<!-- Text -->
<text xml:space="preserve" x="-3356" y="3039" fill="#000000" font-family="Times" font-style="normal" font-weight="bold" font-size="228" text-anchor="start">f3</text>
<!-- Text -->
<text xml:space="preserve" x="-3918" y="2897" fill="#000000" font-family="Times" font-style="normal" font-weight="bold" font-size="228" text-anchor="start">e2</text>
<!-- Text -->
<text xml:space="preserve" x="-2555" y="2235" fill="#000000" font-family="Times" font-style="normal" font-weight="bold" font-size="228" text-anchor="start">v1</text>
<!-- Text -->
<text xml:space="preserve" x="-2066" y="2099" fill="#000000" font-family="Times" font-style="normal" font-weight="bold" font-size="228" text-anchor="start">f2</text>
<!-- Text -->
<text xml:space="preserve" x="3870" y="2708" fill="#000000" font-family="Times" font-style="normal" font-weight="bold" font-size="264" text-anchor="start">vol2</text>
<!-- Text -->
<text xml:space="preserve" x="2863" y="2610" fill="#000000" font-family="Times" font-style="normal" font-weight="bold" font-size="264" text-anchor="start">e4</text>
<!-- Text -->
<text xml:space="preserve" x="1308" y="2444" fill="#000000" font-family="Times" font-style="normal" font-weight="bold" font-size="264" text-anchor="start">vol1</text>
<!-- Text -->
<text xml:space="preserve" x="2258" y="3968" fill="#000000" font-family="Times" font-style="normal" font-weight="bold" font-size="264" text-anchor="start">vol3</text>
<!-- Text -->
<text xml:space="preserve" x="2220" y="3450" fill="#000000" font-family="Times" font-style="normal" font-weight="bold" font-size="264" text-anchor="start">v2</text>
<!-- Text -->
<text xml:space="preserve" x="4381" y="953" fill="#000000" font-family="Times" font-style="normal" font-weight="bold" font-size="264" text-anchor="start">f5</text>
<!-- Text -->
<text xml:space="preserve" x="3755" y="251" fill="#000000" font-family="Times" font-style="normal" font-weight="bold" font-size="264" text-anchor="start">f4</text>
</g>
</svg>
