<?xml version="1.0" standalone="no"?>
<!DOCTYPE svg PUBLIC "-//W3C//DTD SVG 1.1//EN"
"http://www.w3.org/Graphics/SVG/1.1/DTD/svg11.dtd">
<!-- Creator: fig2dev Version 3.2.6 -->
<!-- CreationDate: Mon Nov 21 08:43:35 2016 -->
<!-- Magnification: 1.050 -->
<svg	xmlns="http://www.w3.org/2000/svg"
	xmlns:xlink="http://www.w3.org/1999/xlink"
	width="8.9in" height="4.3in"
	viewBox="-5271 23 10623 5150">
<g style="stroke-width:.025in; fill:none">
<!-- Line -->
<polyline points="2420,1609
1272,1532
" style="stroke:#000000;stroke-width:32;
stroke-linejoin:round; stroke-linecap:butt;
"/>
<!-- Arrowhead on XXXpoint 1272 1532 - 2517 1613-->
<polyline points="2329 1682
2498 1612
2340 1519
" style="stroke:#000000;stroke-width:16;stroke-miterlimit:8;
"/>
<!-- Line -->
<polyline points="1706,3274
2841,3364
" style="stroke:#000000;stroke-width:32;
stroke-linejoin:round; stroke-linecap:butt;
"/>
<!-- Arrowhead on XXXpoint 2841 3364 - 1607 3266-->
<polyline points="1795 3197
1626 3267
1782 3361
" style="stroke:#000000;stroke-width:16;stroke-miterlimit:8;
"/>
<!-- Line -->
<polyline points="1922,1575
1692,1834
" style="stroke:#a0a0a0;stroke-width:16;
stroke-linejoin:round; stroke-linecap:butt;
"/>
<!-- Line -->
<polyline points="2243,3306
1813,3140
" style="stroke:#a0a0a0;stroke-width:16;
stroke-linejoin:round; stroke-linecap:butt;
"/>
<!-- Line -->
<polyline points="1308,1496
2425,302
" style="stroke:#000000;stroke-width:32;
stroke-linejoin:round; stroke-linecap:butt;
"/>
<!-- Arrowhead on XXXpoint 2425 302 - 1239 1566-->
<polyline points="1303 1376
1252 1552
1423 1488
" style="stroke:#000000;stroke-width:16;stroke-miterlimit:8;
"/>
<!-- Line -->
<polyline points="3769,4270
1675,3276
" style="stroke:#000000;stroke-width:32;
stroke-linejoin:round; stroke-linecap:butt;
"/>
<!-- Arrowhead on XXXpoint 1675 3276 - 3857 4311-->
<polyline points="3656 4306
3840 4303
3727 4158
" style="stroke:#000000;stroke-width:16;stroke-miterlimit:8;
"/>
<!-- Line -->
<polyline points="1087,1791
2367,1883
" style="stroke:#000000;stroke-width:32;
stroke-linejoin:round; stroke-linecap:butt;
"/>
<!-- Arrowhead on XXXpoint 2367 1883 - 988 1782-->
<polyline points="1176 1713
1007 1783
1165 1877
" style="stroke:#000000;stroke-width:16;stroke-miterlimit:8;
"/>
<!-- Line -->
<polyline points="1709,1839
1813,3140
" style="stroke:#0000ff;stroke-width:16;
stroke-linejoin:round; stroke-linecap:butt;
"/>
<!-- Line -->
<polyline points="2439,3209
1143,3086
" style="stroke:#000000;stroke-width:32;
stroke-linejoin:round; stroke-linecap:butt;
"/>
<!-- Arrowhead on XXXpoint 1143 3086 - 2536 3217-->
<polyline points="2346 3281
2517 3215
2361 3118
" style="stroke:#000000;stroke-width:16;stroke-miterlimit:8;
"/>
<!-- Line -->
<polyline points="1658,787
1900,855
" style="stroke:#a0a0a0;stroke-width:16;
stroke-linejoin:round; stroke-linecap:butt;
"/>
<!-- Line -->
<polyline points="2720,3760
2599,3865
" style="stroke:#a0a0a0;stroke-width:16;
stroke-linejoin:round; stroke-linecap:butt;
"/>
<!-- Line -->
<polyline points="2434,361
2471,1625
" style="stroke:#000000;stroke-width:32;
stroke-linejoin:round; stroke-linecap:butt;
"/>
<!-- Arrowhead on XXXpoint 2471 1625 - 2431 262-->
<polyline points="2518 441
2432 281
2354 447
" style="stroke:#000000;stroke-width:16;stroke-miterlimit:8;
"/>
<!-- Line -->
<polyline points="2791,3321
3836,4286
" style="stroke:#000000;stroke-width:32;
stroke-linejoin:round; stroke-linecap:butt;
"/>
<!-- Arrowhead on XXXpoint 3836 4286 - 2718 3253-->
<polyline points="2907 3316
2731 3266
2795 3437
" style="stroke:#000000;stroke-width:16;stroke-miterlimit:8;
"/>
<!-- Line -->
<polyline points="2291,96
1024,1481
" style="stroke:#000000;stroke-width:32;
stroke-linejoin:round; stroke-linecap:butt;
"/>
<!-- Arrowhead on XXXpoint 1024 1481 - 2356 22-->
<polyline points="2293 212
2344 35
2173 100
" style="stroke:#000000;stroke-width:16;stroke-miterlimit:8;
"/>
<!-- Line -->
<polyline points="1423,3311
3893,4475
" style="stroke:#000000;stroke-width:32;
stroke-linejoin:round; stroke-linecap:butt;
"/>
<!-- Arrowhead on XXXpoint 3893 4475 - 1333 3268-->
<polyline points="1532 3271
1350 3276
1462 3420
" style="stroke:#000000;stroke-width:16;stroke-miterlimit:8;
"/>
<!-- Line -->
<polyline points="2465,937
2643,833
" style="stroke:#a0a0a0;stroke-width:16;
stroke-linejoin:round; stroke-linecap:butt;
"/>
<!-- Line -->
<polyline points="3354,3841
3618,3976
" style="stroke:#a0a0a0;stroke-width:16;
stroke-linejoin:round; stroke-linecap:butt;
"/>
<!-- Line -->
<polyline points="667,1939
790,3274
" style="stroke:#0000ff;stroke-width:16;
stroke-linejoin:round; stroke-linecap:butt;
"/>
<!-- Line -->
<polyline points="640,1613
655,1934
" style="stroke:#a0a0a0;stroke-width:16;
stroke-linejoin:round; stroke-linecap:butt;
"/>
<!-- Line -->
<polyline points="283,2079
1036,1786
" style="stroke:#000000;stroke-width:32;
stroke-linejoin:round; stroke-linecap:butt;
"/>
<!-- Arrowhead on XXXpoint 1036 1786 - 191 2114-->
<polyline points="331 1971
208 2108
390 2124
" style="stroke:#000000;stroke-width:16;stroke-miterlimit:8;
"/>
<!-- Line -->
<polyline points="1105,3102
393,3491
" style="stroke:#000000;stroke-width:32;
stroke-linejoin:round; stroke-linecap:butt;
"/>
<!-- Arrowhead on XXXpoint 393 3491 - 1190 3054-->
<polyline points="1068 3213
1173 3063
990 3069
" style="stroke:#000000;stroke-width:16;stroke-miterlimit:8;
"/>
<!-- Line -->
<polyline points="1026,3497
790,3274
" style="stroke:#a0a0a0;stroke-width:16;
stroke-linejoin:round; stroke-linecap:butt;
"/>
<!-- Line -->
<polyline points="2658,1535
2628,140
" style="stroke:#000000;stroke-width:32;
stroke-linejoin:round; stroke-linecap:butt;
"/>
<!-- Arrowhead on XXXpoint 2628 140 - 2658 1632-->
<polyline points="2572 1450
2658 1613
2737 1447
" style="stroke:#000000;stroke-width:16;stroke-miterlimit:8;
"/>
<!-- Line -->
<polyline points="976,1498
218,1761
" style="stroke:#000000;stroke-width:32;
stroke-linejoin:round; stroke-linecap:butt;
"/>
<!-- Arrowhead on XXXpoint 218 1761 - 1068 1465-->
<polyline points="922 1603
1050 1471
868 1447
" style="stroke:#000000;stroke-width:16;stroke-miterlimit:8;
"/>
<!-- Line -->
<polyline points="685,3701
1376,3289
" style="stroke:#000000;stroke-width:32;
stroke-linejoin:round; stroke-linecap:butt;
"/>
<!-- Arrowhead on XXXpoint 1376 3289 - 599 3751-->
<polyline points="713 3587
615 3741
797 3728
" style="stroke:#000000;stroke-width:16;stroke-miterlimit:8;
"/>
<!-- Line -->
<polyline points="4174,4478
3040,3453
" style="stroke:#000000;stroke-width:32;
stroke-linejoin:round; stroke-linecap:butt;
"/>
<!-- Arrowhead on XXXpoint 3040 3453 - 4246 4543-->
<polyline points="4055 4481
4233 4531
4165 4360
" style="stroke:#000000;stroke-width:16;stroke-miterlimit:8;
"/>
<!-- Line -->
<polyline points="4020,2186
4019,883
" style="stroke:#000000;stroke-width:32;
stroke-linejoin:round; stroke-linecap:butt;
"/>
<!-- Arrowhead on XXXpoint 4019 883 - 4020 2283-->
<polyline points="3938 2099
4020 2264
4101 2099
" style="stroke:#000000;stroke-width:16;stroke-miterlimit:8;
"/>
<!-- Line -->
<polyline points="5173,3243
4020,2237
" style="stroke:#000000;stroke-width:32;
stroke-linejoin:round; stroke-linecap:butt;
"/>
<!-- Arrowhead on XXXpoint 4020 2237 - 5246 3307-->
<polyline points="5054 3248
5232 3294
5162 3124
" style="stroke:#000000;stroke-width:16;stroke-miterlimit:8;
"/>
<!-- Line -->
<polyline points="3746,1290
2643,833
" style="stroke:#0000ff;stroke-width:16;
stroke-linejoin:round; stroke-linecap:butt;
"/>
<!-- Line -->
<polyline points="4020,1487
3746,1290
" style="stroke:#a0a0a0;stroke-width:16;
stroke-linejoin:round; stroke-linecap:butt;
"/>
<!-- Line -->
<polyline points="4594,3126
3618,3976
" style="stroke:#0000ff;stroke-width:16;
stroke-linejoin:round; stroke-linecap:butt;
"/>
<!-- Line -->
<polyline points="4608,2750
4601,3129
" style="stroke:#a0a0a0;stroke-width:16;
stroke-linejoin:round; stroke-linecap:butt;
"/>
<!-- Line -->
<polyline points="4056,925
5211,3276
" style="stroke:#000000;stroke-width:32;
stroke-linejoin:round; stroke-linecap:butt;
"/>
<!-- Arrowhead on XXXpoint 5211 3276 - 4012 836-->
<polyline points="4165 963
4020 853
4018 1036
" style="stroke:#000000;stroke-width:16;stroke-miterlimit:8;
"/>
<!-- Line -->
<polyline points="3743,559
3749,2055
" style="stroke:#000000;stroke-width:32;
stroke-linejoin:round; stroke-linecap:butt;
"/>
<!-- Arrowhead on XXXpoint 3749 2055 - 3742 460-->
<polyline points="3824 642
3742 479
3660 643
" style="stroke:#000000;stroke-width:16;stroke-miterlimit:8;
"/>
<!-- Line -->
<polyline points="4040,2635
5216,3670
" style="stroke:#000000;stroke-width:32;
stroke-linejoin:round; stroke-linecap:butt;
"/>
<!-- Arrowhead on XXXpoint 5216 3670 - 3966 2569-->
<polyline points="4156 2627
3980 2581
4048 2750
" style="stroke:#000000;stroke-width:16;stroke-miterlimit:8;
"/>
<!-- Line -->
<polyline points="2010,2045
2194,3415
" style="stroke:#0000ff;stroke-width:16;
stroke-linejoin:round; stroke-linecap:butt;
"/>
<!-- Line -->
<polyline points="4695,1908
4611,2033
" style="stroke:#a0a0a0;stroke-width:16;
stroke-linejoin:round; stroke-linecap:butt;
"/>
<!-- Line -->
<polyline points="2321,1905
1678,2214
" style="stroke:#000000;stroke-width:32;
stroke-linejoin:round; stroke-linecap:butt;
"/>
<!-- Arrowhead on XXXpoint 1678 2214 - 2409 1862-->
<polyline points="2280 2015
2392 1870
2208 1867
" style="stroke:#000000;stroke-width:16;stroke-miterlimit:8;
"/>
<!-- Line -->
<polyline points="1886,3627
2497,3204
" style="stroke:#000000;stroke-width:16;
stroke-linejoin:round; stroke-linecap:butt;
"/>
<!-- Arrowhead on XXXpoint 2497 3204 - 1832 3664-->
<polyline points="1935 3491
1847 3653
2028 3627
" style="stroke:#000000;stroke-width:16;stroke-miterlimit:8;
"/>
<!-- Line -->
<polyline points="2341,1730
2040,2039
" style="stroke:#a0a0a0;stroke-width:16;
stroke-linejoin:round; stroke-linecap:butt;
"/>
<!-- Line -->
<polyline points="2761,3678
2194,3415
" style="stroke:#a0a0a0;stroke-width:16;
stroke-linejoin:round; stroke-linecap:butt;
"/>
<!-- Line -->
<polyline points="2038,1868
2658,1586
" style="stroke:#000000;stroke-width:32;
stroke-linejoin:round; stroke-linecap:butt;
"/>
<!-- Arrowhead on XXXpoint 2658 1586 - 1948 1908-->
<polyline points="2079 1758
1965 1901
2148 1907
" style="stroke:#000000;stroke-width:16;stroke-miterlimit:8;
"/>
<!-- Line -->
<polyline points="5296,3183
4097,677
" style="stroke:#000000;stroke-width:32;
stroke-linejoin:round; stroke-linecap:butt;
"/>
<!-- Arrowhead on XXXpoint 4097 677 - 5337 3271-->
<polyline points="5184 3141
5329 3254
5332 3070
" style="stroke:#000000;stroke-width:16;stroke-miterlimit:8;
"/>
<!-- Line -->
<polyline points="3000,3485
2451,3927
" style="stroke:#000000;stroke-width:32;
stroke-linejoin:round; stroke-linecap:butt;
"/>
<!-- Arrowhead on XXXpoint 2451 3927 - 3077 3422-->
<polyline points="2985 3600
3062 3434
2882 3472
" style="stroke:#000000;stroke-width:16;stroke-miterlimit:8;
"/>
<!-- Line -->
<polyline points="3481,2227
2341,1730
" style="stroke:#0000ff;stroke-width:16;
stroke-linejoin:round; stroke-linecap:butt;
"/>
<!-- Line -->
<polyline points="3742,2813
2761,3678
" style="stroke:#0000ff;stroke-width:16;
stroke-linejoin:round; stroke-linecap:butt;
"/>
<!-- Line -->
<polyline points="1662,190
2325,57
" style="stroke:#000000;stroke-width:32;
stroke-linejoin:round; stroke-linecap:butt;
"/>
<!-- Arrowhead on XXXpoint 2325 57 - 1564 207-->
<polyline points="1727 92
1582 204
1758 253
" style="stroke:#000000;stroke-width:16;stroke-miterlimit:8;
"/>
<!-- Line -->
<polyline points="1987,123
2327,194
" style="stroke:#a0a0a0;stroke-width:16;
stroke-linejoin:round; stroke-linecap:butt;
"/>
<!-- Text -->
<text xml:space="preserve" x="340" y="2809" fill="#343434"  font-family="Times,Symbol" font-style="normal" font-weight="normal" font-size="303" text-anchor="start">&#946;</text>
<!-- Text -->
<text xml:space="preserve" x="525" y="2964" fill="#343434"  font-family="Times" font-style="italic" font-weight="normal" font-size="252" text-anchor="start">3</text>
<!-- Text -->
<text xml:space="preserve" x="4014" y="402" fill="#343434"  font-family="Times,Symbol" font-style="normal" font-weight="normal" font-size="303" text-anchor="start">&#946;</text>
<!-- Text -->
<text xml:space="preserve" x="4200" y="557" fill="#343434"  font-family="Times" font-style="italic" font-weight="normal" font-size="252" text-anchor="start">2</text>
<!-- Text -->
<text xml:space="preserve" x="2911" y="2857" fill="#343434"  font-family="Times,Symbol" font-style="normal" font-weight="normal" font-size="303" text-anchor="start">&#946;</text>
<!-- Text -->
<text xml:space="preserve" x="3097" y="3013" fill="#343434"  font-family="Times" font-style="italic" font-weight="normal" font-size="252" text-anchor="start">1</text>
<!-- Line -->
<polyline points="1628,2211
235,2097
" style="stroke:#000000;stroke-width:32;
stroke-linejoin:round; stroke-linecap:butt;
"/>
<!-- Arrowhead on XXXpoint 235 2097 - 1724 2217-->
<polyline points="1535 2284
1706 2216
1548 2120
" style="stroke:#000000;stroke-width:16;stroke-miterlimit:8;
"/>
<!-- Line -->
<polyline points="3861,4515
3385,5068
" style="stroke:#000000;stroke-width:32;
stroke-linejoin:round; stroke-linecap:butt;
"/>
<!-- Arrowhead on XXXpoint 3385 5068 - 3924 4438-->
<polyline points="3866 4630
3911 4453
3742 4523
" style="stroke:#000000;stroke-width:16;stroke-miterlimit:8;
"/>
<!-- Line -->
<polyline points="958,2146
1113,3566
" style="stroke:#0000ff;stroke-width:16;
stroke-linejoin:round; stroke-linecap:butt;
"/>
<!-- Line -->
<polyline points="3985,4797
3652,4756
" style="stroke:#a0a0a0;stroke-width:16;
stroke-linejoin:round; stroke-linecap:butt;
"/>
<!-- Line -->
<polyline points="445,3497
1858,3646
" style="stroke:#000000;stroke-width:32;
stroke-linejoin:round; stroke-linecap:butt;
"/>
<!-- Arrowhead on XXXpoint 1858 3646 - 346 3486-->
<polyline points="536 3423
365 3488
519 3587
" style="stroke:#000000;stroke-width:16;stroke-miterlimit:8;
"/>
<!-- Line -->
<polyline points="3481,2227
3748,2801
" style="stroke:#a0a0a0;stroke-width:16;
stroke-linejoin:round; stroke-linecap:butt;
"/>
<!-- Line -->
<polyline points="2590,145
1954,280
" style="stroke:#000000;stroke-width:32;
stroke-linejoin:round; stroke-linecap:butt;
"/>
<!-- Arrowhead on XXXpoint 1954 280 - 2685 124-->
<polyline points="2523 242
2667 129
2489 82
" style="stroke:#000000;stroke-width:16;stroke-miterlimit:8;
"/>
<!-- Line -->
<polyline points="3706,2083
3183,2418
" style="stroke:#000000;stroke-width:32;
stroke-linejoin:round; stroke-linecap:butt;
"/>
<!-- Arrowhead on XXXpoint 3183 2418 - 3787 2029-->
<polyline points="3677 2197
3772 2039
3589 2058
" style="stroke:#000000;stroke-width:16;stroke-miterlimit:8;
"/>
<!-- Line -->
<polyline points="3584,2949
4002,2600
" style="stroke:#000000;stroke-width:32;
stroke-linejoin:round; stroke-linecap:butt;
"/>
<!-- Arrowhead on XXXpoint 4002 2600 - 3507 3011-->
<polyline points="3595 2831
3522 2999
3700 2957
" style="stroke:#000000;stroke-width:16;stroke-miterlimit:8;
"/>
<!-- Line -->
<polyline points="3767,5075
4212,4512
" style="stroke:#000000;stroke-width:32;
stroke-linejoin:round; stroke-linecap:butt;
"/>
<!-- Arrowhead on XXXpoint 4212 4512 - 3706 5151-->
<polyline points="3754 4957
3717 5137
3883 5058
" style="stroke:#000000;stroke-width:16;stroke-miterlimit:8;
"/>
<!-- Line -->
<polyline points="3468,602
2325,199
" style="stroke:#0000ff;stroke-width:16;
stroke-linejoin:round; stroke-linecap:butt;
"/>
<!-- Line -->
<polyline points="995,1906
944,2155
" style="stroke:#a0a0a0;stroke-width:16;
stroke-linejoin:round; stroke-linecap:butt;
"/>
<!-- Line -->
<polyline points="1225,3845
1113,3566
" style="stroke:#a0a0a0;stroke-width:16;
stroke-linejoin:round; stroke-linecap:butt;
"/>
<!-- Line -->
<polyline points="5013,3922
3985,4797
" style="stroke:#0000ff;stroke-width:16;
stroke-linejoin:round; stroke-linecap:butt;
"/>
<!-- Line -->
<polyline points="253,1723
1611,199
" style="stroke:#000000;stroke-width:32;
stroke-linejoin:round; stroke-linecap:butt;
"/>
<!-- Arrowhead on XXXpoint 1611 199 - 186 1796-->
<polyline points="246 1605
199 1782
369 1714
" style="stroke:#000000;stroke-width:16;stroke-miterlimit:8;
"/>
<!-- Line -->
<polyline points="-4092,2412
-3891,2875
" style="stroke:#808080;stroke-width:16;
stroke-linejoin:miter; stroke-linecap:butt;
"/>
<!-- Line -->
<polyline points="-3208,1574
-2671,1582
" style="stroke:#808080;stroke-width:16;
stroke-linejoin:miter; stroke-linecap:butt;
"/>
<!-- Line -->
<polyline points="-2906,3054
-2396,2847
" style="stroke:#808080;stroke-width:16;
stroke-linejoin:miter; stroke-linecap:butt;
"/>
<!-- Line -->
<polyline points="3340,5046
640,3727
" style="stroke:#000000;stroke-width:32;
stroke-linejoin:round; stroke-linecap:butt;
"/>
<!-- Arrowhead on XXXpoint 640 3727 - 3427 5088-->
<polyline points="3227 5081
3411 5080
3298 4934
" style="stroke:#000000;stroke-width:16;stroke-miterlimit:8;
"/>
<!-- Line -->
<polyline points="-1291,2560
-1862,1200
" style="stroke:#000000;stroke-width:32;
stroke-linejoin:miter; stroke-linecap:butt;
"/>
<!-- Arrowhead on XXXpoint -1291 2560 - -1899 1108-->
<polyline points="-1683 1315
-1884 1143
-1901 1405
" style="stroke:#000000;stroke-width:32;stroke-miterlimit:8;
"/>
<!-- Line -->
<polyline points="-1881,1152
-2849,1082
" style="stroke:#000000;stroke-width:32;
stroke-linejoin:miter; stroke-linecap:butt;
"/>
<!-- Arrowhead on XXXpoint -1881 1152 - -2945 1075-->
<polyline points="-2664 977
-2909 1078
-2681 1212
" style="stroke:#000000;stroke-width:32;stroke-miterlimit:8;
"/>
<!-- Line -->
<polyline points="-2886,1085
-2751,2234
" style="stroke:#000000;stroke-width:32;
stroke-linejoin:miter; stroke-linecap:butt;
"/>
<!-- Arrowhead on XXXpoint -2886 1085 - -2739 2331-->
<polyline points="-2888 2073
-2743 2295
-2653 2046
" style="stroke:#000000;stroke-width:32;stroke-miterlimit:8;
"/>
<!-- Line -->
<polyline points="-2190,3779
-1321,2601
" style="stroke:#000000;stroke-width:32;
stroke-linejoin:miter; stroke-linecap:butt;
"/>
<!-- Arrowhead on XXXpoint -2190 3779 - -1262 2521-->
<polyline points="-1329 2811
-1285 2552
-1520 2671
" style="stroke:#000000;stroke-width:32;stroke-miterlimit:8;
"/>
<!-- Line -->
<polyline points="-3006,2580
-4933,2939
" style="stroke:#000000;stroke-width:32;
stroke-linejoin:miter; stroke-linecap:butt;
"/>
<!-- Arrowhead on XXXpoint -3006 2580 - -5029 2957-->
<polyline points="-4782 2790
-4993 2950
-4739 3022
" style="stroke:#000000;stroke-width:32;stroke-miterlimit:8;
"/>
<!-- Line -->
<polyline points="-4983,2949
-2559,3842
" style="stroke:#000000;stroke-width:32;
stroke-linejoin:miter; stroke-linecap:butt;
"/>
<!-- Arrowhead on XXXpoint -4983 2949 - -2466 3876-->
<polyline points="-2763 3891
-2500 3863
-2681 3670
" style="stroke:#000000;stroke-width:32;stroke-miterlimit:8;
"/>
<!-- Line -->
<polyline points="-5144,2707
-3105,2307
" style="stroke:#000000;stroke-width:32;
stroke-linejoin:miter; stroke-linecap:butt;
"/>
<!-- Arrowhead on XXXpoint -5144 2707 - -3006 2289-->
<polyline points="-3252 2457
-3043 2297
-3297 2225
" style="stroke:#000000;stroke-width:32;stroke-miterlimit:8;
"/>
<!-- Line -->
<polyline points="-4916,952
-5151,2649
" style="stroke:#000000;stroke-width:32;
stroke-linejoin:miter; stroke-linecap:butt;
"/>
<!-- Arrowhead on XXXpoint -4916 952 - -5164 2747-->
<polyline points="-5243 2459
-5159 2710
-5008 2492
" style="stroke:#000000;stroke-width:32;stroke-miterlimit:8;
"/>
<!-- Line -->
<polyline points="-3147,1065
-4866,954
" style="stroke:#000000;stroke-width:32;
stroke-linejoin:miter; stroke-linecap:butt;
"/>
<!-- Arrowhead on XXXpoint -3147 1065 - -4962 949-->
<polyline points="-4682 848
-4925 951
-4697 1083
" style="stroke:#000000;stroke-width:32;stroke-miterlimit:8;
"/>
<!-- Line -->
<polyline points="-3054,2299
-3144,1116
" style="stroke:#000000;stroke-width:32;
stroke-linejoin:miter; stroke-linecap:butt;
"/>
<!-- Arrowhead on XXXpoint -3054 2299 - -3150 1018-->
<polyline points="-3011 1280
-3147 1055
-3247 1298
" style="stroke:#000000;stroke-width:32;stroke-miterlimit:8;
"/>
<!-- Line -->
<polyline points="-2745,2285
-2220,3730
" style="stroke:#000000;stroke-width:32;
stroke-linejoin:miter; stroke-linecap:butt;
"/>
<!-- Arrowhead on XXXpoint -2745 2285 - -2185 3823-->
<polyline points="-2389 3607
-2198 3788
-2167 3526
" style="stroke:#000000;stroke-width:32;stroke-miterlimit:8;
"/>
<!-- Line -->
<polyline points="-2483,3866
-2987,2627
" style="stroke:#000000;stroke-width:32;
stroke-linejoin:miter; stroke-linecap:butt;
"/>
<!-- Arrowhead on XXXpoint -2483 3866 - -3023 2536-->
<polyline points="-2811 2745
-3009 2571
-3029 2833
" style="stroke:#000000;stroke-width:32;stroke-miterlimit:8;
"/>
<!-- Line -->
<polyline points="894,1002
885,1247
" style="stroke:#a0a0a0;stroke-width:16;
stroke-linejoin:round; stroke-linecap:butt;
"/>
<!-- Line -->
<polyline points="3468,602
3740,832
" style="stroke:#a0a0a0;stroke-width:16;
stroke-linejoin:round; stroke-linecap:butt;
"/>
<!-- Line -->
<polyline points="411,1868
1618,1943
" style="stroke:#000000;stroke-width:32;
stroke-linejoin:round; stroke-linecap:butt;
"/>
<!-- Arrowhead on XXXpoint 1618 1943 - 312 1862-->
<polyline points="499 1791
331 1863
490 1954
" style="stroke:#000000;stroke-width:16;stroke-miterlimit:8;
"/>
<!-- Line -->
<polyline points="3213,690
3743,508
" style="stroke:#000000;stroke-width:32;
stroke-linejoin:round; stroke-linecap:butt;
"/>
<!-- Arrowhead on XXXpoint 3743 508 - 3119 721-->
<polyline points="3265 583
3137 714
3318 739
" style="stroke:#000000;stroke-width:16;stroke-miterlimit:8;
"/>
<!-- Line -->
<polyline points="1942,3927
482,3763
" style="stroke:#000000;stroke-width:32;
stroke-linejoin:round; stroke-linecap:butt;
"/>
<!-- Arrowhead on XXXpoint 482 3763 - 2038 3935-->
<polyline points="1847 3996
2019 3933
1865 3834
" style="stroke:#000000;stroke-width:16;stroke-miterlimit:8;
"/>
<!-- Line -->
<polyline points="1971,4376
1840,4430
" style="stroke:#a0a0a0;stroke-width:16;
stroke-linejoin:round; stroke-linecap:butt;
"/>
<!-- Line -->
<polyline points="5024,3591
5020,3932
" style="stroke:#a0a0a0;stroke-width:16;
stroke-linejoin:round; stroke-linecap:butt;
"/>
<!-- Line -->
<polyline points="5186,3711
4854,4145
" style="stroke:#000000;stroke-width:32;
stroke-linejoin:round; stroke-linecap:butt;
"/>
<!-- Arrowhead on XXXpoint 4854 4145 - 5245 3632-->
<polyline points="5198 3826
5233 3647
5068 3728
" style="stroke:#000000;stroke-width:16;stroke-miterlimit:8;
"/>
<!-- Line -->
<polyline points="4094,683
3448,951
" style="stroke:#000000;stroke-width:32;
stroke-linejoin:round; stroke-linecap:butt;
"/>
<!-- Arrowhead on XXXpoint 3448 951 - 4184 644-->
<polyline points="4047 790
4167 651
3984 638
" style="stroke:#000000;stroke-width:16;stroke-miterlimit:8;
"/>
<!-- Line -->
<polyline points="4836,3824
5314,3229
" style="stroke:#000000;stroke-width:32;
stroke-linejoin:round; stroke-linecap:butt;
"/>
<!-- Arrowhead on XXXpoint 5314 3229 - 4773 3901-->
<polyline points="4824 3707
4785 3886
4951 3809
" style="stroke:#000000;stroke-width:16;stroke-miterlimit:8;
"/>
<!-- Line -->
<polyline points="1534,518
354,1859
" style="stroke:#000000;stroke-width:32;
stroke-linejoin:round; stroke-linecap:butt;
"/>
<!-- Arrowhead on XXXpoint 354 1859 - 1598 444-->
<polyline points="1539 634
1586 457
1416 525
" style="stroke:#000000;stroke-width:16;stroke-miterlimit:8;
"/>
<!-- Line -->
<polyline points="1946,331
1991,1889
" style="stroke:#000000;stroke-width:32;
stroke-linejoin:round; stroke-linecap:butt;
"/>
<!-- Arrowhead on XXXpoint 1991 1889 - 1943 233-->
<polyline points="2030 412
1944 251
1866 417
" style="stroke:#000000;stroke-width:16;stroke-miterlimit:8;
"/>
<!-- Line -->
<polyline points="529,3786
3286,5139
" style="stroke:#000000;stroke-width:32;
stroke-linejoin:round; stroke-linecap:butt;
"/>
<!-- Arrowhead on XXXpoint 3286 5139 - 439 3742-->
<polyline points="639 3749
456 3751
566 3896
" style="stroke:#000000;stroke-width:16;stroke-miterlimit:8;
"/>
<!-- Line -->
<polyline points="2489,3963
3735,5114
" style="stroke:#000000;stroke-width:32;
stroke-linejoin:round; stroke-linecap:butt;
"/>
<!-- Arrowhead on XXXpoint 3735 5114 - 2415 3895-->
<polyline points="2604 3958
2429 3907
2493 4078
" style="stroke:#000000;stroke-width:16;stroke-miterlimit:8;
"/>
<!-- Line -->
<polyline points="1584,1224
1968,1060
" style="stroke:#a0a0a0;stroke-width:16;
stroke-linejoin:round; stroke-linecap:butt;
"/>
<!-- Line -->
<polyline points="3084,4513
2629,4527
" style="stroke:#a0a0a0;stroke-width:16;
stroke-linejoin:round; stroke-linecap:butt;
"/>
<!-- Line -->
<polyline points="3173,1572
1968,1060
" style="stroke:#0000ff;stroke-width:16;
stroke-linejoin:round; stroke-linecap:butt;
"/>
<!-- Line -->
<polyline points="4191,3558
3084,4513
" style="stroke:#0000ff;stroke-width:16;
stroke-linejoin:round; stroke-linecap:butt;
"/>
<!-- Line -->
<polyline points="1610,1920
1570,494
" style="stroke:#000000;stroke-width:16;
stroke-linejoin:round; stroke-linecap:butt;
"/>
<!-- Arrowhead on XXXpoint 1570 494 - 1610 1984-->
<polyline points="1523 1802
1610 1965
1687 1798
" style="stroke:#000000;stroke-width:16;stroke-miterlimit:8;
"/>
<!-- Line -->
<polyline points="3249,5104
1992,3931
" style="stroke:#000000;stroke-width:32;
stroke-linejoin:round; stroke-linecap:butt;
"/>
<!-- Arrowhead on XXXpoint 1992 3931 - 3319 5170-->
<polyline points="3129 5105
3306 5158
3241 4985
" style="stroke:#000000;stroke-width:16;stroke-miterlimit:8;
"/>
<!-- Line -->
<polyline points="3183,2368
3164,706
" style="stroke:#000000;stroke-width:32;
stroke-linejoin:round; stroke-linecap:butt;
"/>
<!-- Arrowhead on XXXpoint 3164 706 - 3183 2465-->
<polyline points="3099 2282
3183 2446
3262 2280
" style="stroke:#000000;stroke-width:16;stroke-miterlimit:8;
"/>
<!-- Line -->
<polyline points="4812,4120
3548,2991
" style="stroke:#000000;stroke-width:32;
stroke-linejoin:round; stroke-linecap:butt;
"/>
<!-- Arrowhead on XXXpoint 3548 2991 - 4885 4184-->
<polyline points="4693 4123
4871 4172
4803 4001
" style="stroke:#000000;stroke-width:16;stroke-miterlimit:8;
"/>
<!-- Line -->
<polyline points="3173,1572
3280,1970
" style="stroke:#a0a0a0;stroke-width:16;
stroke-linejoin:round; stroke-linecap:butt;
"/>
<!-- Line -->
<polyline points="3908,3402
4188,3552
" style="stroke:#a0a0a0;stroke-width:16;
stroke-linejoin:round; stroke-linecap:butt;
"/>
<!-- Line -->
<polyline points="3470,998
4804,3864
" style="stroke:#000000;stroke-width:32;
stroke-linejoin:round; stroke-linecap:butt;
"/>
<!-- Arrowhead on XXXpoint 4804 3864 - 3428 908-->
<polyline points="3580 1038
3437 924
3432 1107
" style="stroke:#000000;stroke-width:16;stroke-miterlimit:8;
"/>
<!-- Line -->
<polyline points="3281,1256
3315,2881
" style="stroke:#000000;stroke-width:32;
stroke-linejoin:round; stroke-linecap:butt;
"/>
<!-- Arrowhead on XXXpoint 3315 2881 - 3279 1158-->
<polyline points="3364 1338
3279 1176
3201 1341
" style="stroke:#000000;stroke-width:16;stroke-miterlimit:8;
"/>
<!-- Line -->
<polyline points="3333,2892
4600,4026
" style="stroke:#000000;stroke-width:32;
stroke-linejoin:round; stroke-linecap:butt;
"/>
<!-- Arrowhead on XXXpoint 4600 4026 - 3258 2825-->
<polyline points="3448 2885
3272 2837
3339 3007
" style="stroke:#000000;stroke-width:16;stroke-miterlimit:8;
"/>
<!-- Line -->
<polyline points="4125,2405
3907,2534
" style="stroke:#a0a0a0;stroke-width:16;
stroke-linejoin:round; stroke-linecap:butt;
"/>
<!-- Arc -->
<path style="stroke:#2a2a2a;stroke-width:16;stroke-linecap:butt;"
d="M -3448,2409 A 311 311  0  0  1 -3070  1984 " />
<!-- Arrowhead on XXXpoint -3212 1973 - -3070 1984-->
<polyline points="-3219 2035
-3089 1983
-3210 1910
" style="stroke:#2a2a2a;stroke-width:16;stroke-miterlimit:8;
"/>
<!-- Arc -->
<path style="stroke:#2a2a2a;stroke-width:16;stroke-linecap:butt;"
d="M -2678,3397 A 196 196  0  1  1 -2359  3287 " />
<!-- Arc -->
<path style="stroke:#808080;stroke-width:32;stroke-linecap:butt;"
d="M 3496,3058 A 226 226  0  0  0  3315  2642 " />
<!-- Arrowhead on XXXpoint 3451 2633 - 3315 2642-->
<polyline points="3447 2537
3329 2641
3460 2726
" style="stroke:#808080;stroke-width:16;stroke-miterlimit:8;
"/>
<!-- Arc -->
<path style="stroke:#808080;stroke-width:16;stroke-linecap:butt;"
d="M 3586,561 A 209 209  0  1  1  3907  746 " />
<!-- Text -->
<text xml:space="preserve" x="-3552" y="2104" fill="#000000"  font-family="Times,Symbol" font-style="normal" font-weight="normal" font-size="202" text-anchor="start">&#49;</text>
<!-- Text -->
<text xml:space="preserve" x="-3757" y="2010" fill="#000000"  font-family="Times,Symbol" font-style="normal" font-weight="normal" font-size="278" text-anchor="start">&#946;</text>
<!-- Text -->
<text xml:space="preserve" x="-2136" y="3303" fill="#000000"  font-family="Times,Symbol" font-style="normal" font-weight="normal" font-size="202" text-anchor="start">&#50;</text>
<!-- Text -->
<text xml:space="preserve" x="-2341" y="3209" fill="#000000"  font-family="Times,Symbol" font-style="normal" font-weight="normal" font-size="278" text-anchor="start">&#946;</text>
<!-- Line -->
<polyline points="4579,3980
3290,1205
" style="stroke:#000000;stroke-width:32;
stroke-linejoin:round; stroke-linecap:butt;
"/>
<!-- Arrowhead on XXXpoint 3290 1205 - 4619 4068-->
<polyline points="4468 3937
4612 4051
4617 3867
" style="stroke:#000000;stroke-width:16;stroke-miterlimit:8;
"/>
</g>
</svg>
