<?xml version="1.0" standalone="no"?>
<!DOCTYPE svg PUBLIC "-//W3C//DTD SVG 1.1//EN"
"http://www.w3.org/Graphics/SVG/1.1/DTD/svg11.dtd">
<!-- Creator: fig2dev Version 3.2.6 -->
<!-- CreationDate: Mon Nov 21 08:43:35 2016 -->
<!-- Magnification: 1.050 -->
<svg	xmlns="http://www.w3.org/2000/svg"
	xmlns:xlink="http://www.w3.org/1999/xlink"
	width="8.9in" height="4.3in"
	viewBox="74 -335 10734 5172">
<g style="stroke-width:.025in; fill:none">
<!-- Line -->
<polyline points="1056,2430
3029,2620
" style="stroke:#535353;stroke-width:8;
stroke-linejoin:round; stroke-linecap:butt;
"/>
<!-- Arrowhead on XXXpoint 1056 2430 - 3061 2623-->
<polyline points="2828 2707
3051 2622
2848 2494
" style="stroke:#535353;stroke-width:8;stroke-miterlimit:8;
"/>
<!-- Line -->
<polyline points="2070,2742
2039,2524
" style="stroke:#9f9f9f;stroke-width:8;
stroke-linejoin:round; stroke-linecap:butt;
"/>
<!-- Line -->
<polyline points="3082,2841
1093,2645
" style="stroke:#535353;stroke-width:8;
stroke-linejoin:round; stroke-linecap:butt;
"/>
<!-- Arrowhead on XXXpoint 3082 2841 - 1062 2642-->
<polyline points="1295 2557
1071 2643
1274 2770
" style="stroke:#535353;stroke-width:8;stroke-miterlimit:8;
"/>
<!-- Line -->
<polyline points="6671,3007
8745,2445
" style="stroke:#535353;stroke-width:8;
stroke-linejoin:round; stroke-linecap:butt;
"/>
<!-- Arrowhead on XXXpoint 6671 3007 - 8776 2437-->
<polyline points="8587 2598
8767 2439
8532 2391
" style="stroke:#535353;stroke-width:8;stroke-miterlimit:8;
"/>
<!-- Line -->
<polyline points="7895,2934
7742,2718
" style="stroke:#9f9f9f;stroke-width:8;
stroke-linejoin:round; stroke-linecap:butt;
"/>
<!-- Line -->
<polyline points="8916,2650
6841,3228
" style="stroke:#535353;stroke-width:8;
stroke-linejoin:round; stroke-linecap:butt;
"/>
<!-- Arrowhead on XXXpoint 8916 2650 - 6810 3236-->
<polyline points="6997 3074
6819 3234
7054 3279
" style="stroke:#535353;stroke-width:8;stroke-miterlimit:8;
"/>
<!-- Line -->
<polyline points="999,597
1055,2413
" style="stroke:#535353;stroke-width:8;
stroke-linejoin:round; stroke-linecap:butt;
"/>
<!-- Arrowhead on XXXpoint 999 597 - 1056 2445-->
<polyline points="941 2224
1056 2435
1155 2217
" style="stroke:#535353;stroke-width:8;stroke-miterlimit:8;
"/>
<!-- Line -->
<polyline points="851,1566
1027,1544
" style="stroke:#9f9f9f;stroke-width:8;
stroke-linejoin:round; stroke-linecap:butt;
"/>
<!-- Line -->
<polyline points="9162,2098
9216,134
" style="stroke:#535353;stroke-width:8;
stroke-linejoin:round; stroke-linecap:butt;
"/>
<!-- Arrowhead on XXXpoint 9162 2098 - 9216 102-->
<polyline points="9317 328
9216 112
9103 323
" style="stroke:#535353;stroke-width:8;stroke-miterlimit:8;
"/>
<!-- Line -->
<polyline points="9416,1287
9188,1151
" style="stroke:#9f9f9f;stroke-width:8;
stroke-linejoin:round; stroke-linecap:butt;
"/>
<!-- Line -->
<polyline points="9454,254
9380,2215
" style="stroke:#535353;stroke-width:8;
stroke-linejoin:round; stroke-linecap:butt;
"/>
<!-- Arrowhead on XXXpoint 9454 254 - 9379 2246-->
<polyline points="9279 2018
9379 2237
9493 2026
" style="stroke:#535353;stroke-width:8;stroke-miterlimit:8;
"/>
<!-- Line -->
<polyline points="3046,2622
1035,633
" style="stroke:#000000;stroke-width:32;
stroke-linejoin:round; stroke-linecap:butt;
"/>
<!-- Arrowhead on XXXpoint 3046 2622 - 965 563-->
<polyline points="1196 647
979 577
1053 793
" style="stroke:#000000;stroke-width:16;stroke-miterlimit:8;
"/>
<!-- Line -->
<polyline points="885,2460
815,624
" style="stroke:#535353;stroke-width:8;
stroke-linejoin:round; stroke-linecap:butt;
"/>
<!-- Arrowhead on XXXpoint 885 2460 - 814 593-->
<polyline points="929 812
814 602
714 819
" style="stroke:#535353;stroke-width:8;stroke-miterlimit:8;
"/>
<!-- Line -->
<polyline points="2177,1527
2047,1634
" style="stroke:#9f9f9f;stroke-width:8;
stroke-linejoin:round; stroke-linecap:butt;
"/>
<!-- Line -->
<polyline points="10000,3998
8925,2663
" style="stroke:#535353;stroke-width:8;
stroke-linejoin:round; stroke-linecap:butt;
"/>
<!-- Arrowhead on XXXpoint 10000 3998 - 8906 2638-->
<polyline points="9129 2745
8912 2645
8962 2878
" style="stroke:#535353;stroke-width:8;stroke-miterlimit:8;
"/>
<!-- Line -->
<polyline points="9428,3287
9435,3112
" style="stroke:#9f9f9f;stroke-width:8;
stroke-linejoin:round; stroke-linecap:butt;
"/>
<!-- Line -->
<polyline points="1127,482
3167,2512
" style="stroke:#000000;stroke-width:8;
stroke-linejoin:round; stroke-linecap:butt;
"/>
<!-- Arrowhead on XXXpoint 1127 482 - 3190 2535-->
<polyline points="2956 2453
3184 2529
3107 2301
" style="stroke:#000000;stroke-width:8;stroke-miterlimit:8;
"/>
<!-- Line -->
<polyline points="9916,2853
9716,2910
" style="stroke:#9f9f9f;stroke-width:8;
stroke-linejoin:round; stroke-linecap:butt;
"/>
<!-- Line -->
<polyline points="9380,2232
10499,3530
" style="stroke:#535353;stroke-width:8;
stroke-linejoin:round; stroke-linecap:butt;
"/>
<!-- Arrowhead on XXXpoint 9380 2232 - 10520 3555-->
<polyline points="10292 3455
10514 3548
10455 3315
" style="stroke:#535353;stroke-width:8;stroke-miterlimit:8;
"/>
<!-- Line -->
<polyline points="8762,2441
6518,1022
" style="stroke:#535353;stroke-width:8;
stroke-linejoin:round; stroke-linecap:butt;
"/>
<!-- Arrowhead on XXXpoint 8762 2441 - 6491 1004-->
<polyline points="6737 1033
6499 1009
6622 1214
" style="stroke:#535353;stroke-width:8;stroke-miterlimit:8;
"/>
<!-- Line -->
<polyline points="7866,1811
7712,1777
" style="stroke:#9f9f9f;stroke-width:8;
stroke-linejoin:round; stroke-linecap:butt;
"/>
<!-- Line -->
<polyline points="3180,2524
3271,665
" style="stroke:#535353;stroke-width:8;
stroke-linejoin:round; stroke-linecap:butt;
"/>
<!-- Arrowhead on XXXpoint 3180 2524 - 3272 634-->
<polyline points="3367 861
3272 643
3154 851
" style="stroke:#535353;stroke-width:8;stroke-miterlimit:8;
"/>
<!-- Line -->
<polyline points="8125,1408
8148,1602
" style="stroke:#9f9f9f;stroke-width:8;
stroke-linejoin:round; stroke-linecap:butt;
"/>
<!-- Line -->
<polyline points="6933,616
9147,2089
" style="stroke:#535353;stroke-width:8;
stroke-linejoin:round; stroke-linecap:butt;
"/>
<!-- Arrowhead on XXXpoint 6933 616 - 9174 2107-->
<polyline points="8929 2071
9167 2101
9047 1893
" style="stroke:#535353;stroke-width:8;stroke-miterlimit:8;
"/>
<!-- Line -->
<polyline points="3225,1617
3334,1784
" style="stroke:#9f9f9f;stroke-width:8;
stroke-linejoin:round; stroke-linecap:butt;
"/>
<!-- Line -->
<polyline points="834,3196
629,3005
" style="stroke:#9f9f9f;stroke-width:8;
stroke-linejoin:round; stroke-linecap:butt;
"/>
<!-- Line -->
<polyline points="1078,2644
567,3799
" style="stroke:#535353;stroke-width:8;
stroke-linejoin:round; stroke-linecap:butt;
"/>
<!-- Arrowhead on XXXpoint 1078 2644 - 554 3828-->
<polyline points="546 3581
558 3820
742 3667
" style="stroke:#535353;stroke-width:8;stroke-miterlimit:8;
"/>
<!-- Line -->
<polyline points="342,3617
877,2475
" style="stroke:#535353;stroke-width:8;
stroke-linejoin:round; stroke-linecap:butt;
"/>
<!-- Arrowhead on XXXpoint 342 3617 - 891 2446-->
<polyline points="892 2693
887 2454
699 2602
" style="stroke:#535353;stroke-width:8;stroke-miterlimit:8;
"/>
<!-- Line -->
<polyline points="3386,811
3287,2679
" style="stroke:#535353;stroke-width:8;
stroke-linejoin:round; stroke-linecap:butt;
"/>
<!-- Arrowhead on XXXpoint 3386 811 - 3286 2710-->
<polyline points="3189 2480
3286 2701
3403 2492
" style="stroke:#535353;stroke-width:8;stroke-miterlimit:8;
"/>
<!-- Line -->
<polyline points="6504,1014
6670,2991
" style="stroke:#535353;stroke-width:8;
stroke-linejoin:round; stroke-linecap:butt;
"/>
<!-- Arrowhead on XXXpoint 6504 1014 - 6672 3022-->
<polyline points="6546 2808
6671 3013
6760 2790
" style="stroke:#535353;stroke-width:8;stroke-miterlimit:8;
"/>
<!-- Line -->
<polyline points="6514,2151
6593,2056
" style="stroke:#9f9f9f;stroke-width:8;
stroke-linejoin:round; stroke-linecap:butt;
"/>
<!-- Line -->
<polyline points="3272,649
1143,482
" style="stroke:#535353;stroke-width:8;
stroke-linejoin:round; stroke-linecap:butt;
"/>
<!-- Arrowhead on XXXpoint 3272 649 - 1111 480-->
<polyline points="1342 391
1121 481
1325 604
" style="stroke:#535353;stroke-width:8;stroke-miterlimit:8;
"/>
<!-- Line -->
<polyline points="2806,4067
3070,2891
" style="stroke:#000000;stroke-width:32;
stroke-linejoin:round; stroke-linecap:butt;
"/>
<!-- Arrowhead on XXXpoint 2806 4067 - 3091 2795-->
<polyline points="3142 3035
3087 2813
2942 2990
" style="stroke:#000000;stroke-width:16;stroke-miterlimit:8;
"/>
<!-- Line -->
<polyline points="2953,3420
3167,3268
" style="stroke:#9f9f9f;stroke-width:8;
stroke-linejoin:round; stroke-linecap:butt;
"/>
<!-- Line -->
<polyline points="6826,3232
7706,4711
" style="stroke:#535353;stroke-width:8;
stroke-linejoin:round; stroke-linecap:butt;
"/>
<!-- Arrowhead on XXXpoint 6826 3232 - 7721 4739-->
<polyline points="7514 4600
7716 4730
7698 4491
" style="stroke:#535353;stroke-width:8;stroke-miterlimit:8;
"/>
<!-- Line -->
<polyline points="2186,563
2085,516
" style="stroke:#9f9f9f;stroke-width:8;
stroke-linejoin:round; stroke-linecap:butt;
"/>
<!-- Line -->
<polyline points="6600,3114
6424,1110
" style="stroke:#535353;stroke-width:8;
stroke-linejoin:round; stroke-linecap:butt;
"/>
<!-- Arrowhead on XXXpoint 6600 3114 - 6422 1079-->
<polyline points="6548 1292
6423 1088
6334 1311
" style="stroke:#535353;stroke-width:8;stroke-miterlimit:8;
"/>
<!-- Line -->
<polyline points="7243,3937
7012,3822
" style="stroke:#9f9f9f;stroke-width:8;
stroke-linejoin:round; stroke-linecap:butt;
"/>
<!-- Line -->
<polyline points="9216,118
6949,612
" style="stroke:#535353;stroke-width:8;
stroke-linejoin:round; stroke-linecap:butt;
"/>
<!-- Arrowhead on XXXpoint 9216 118 - 6917 619-->
<polyline points="7112 466
6927 617
7159 676
" style="stroke:#535353;stroke-width:8;stroke-miterlimit:8;
"/>
<!-- Line -->
<polyline points="3287,2696
3036,3898
" style="stroke:#000000;stroke-width:8;
stroke-linejoin:round; stroke-linecap:butt;
"/>
<!-- Arrowhead on XXXpoint 3287 2696 - 3029 3929-->
<polyline points="2970 3688
3032 3920
3180 3732
" style="stroke:#000000;stroke-width:8;stroke-miterlimit:8;
"/>
<!-- Line -->
<polyline points="1008,435
3167,598
" style="stroke:#535353;stroke-width:8;
stroke-linejoin:round; stroke-linecap:butt;
"/>
<!-- Arrowhead on XXXpoint 1008 435 - 3198 600-->
<polyline points="2966 689
3189 599
2983 475
" style="stroke:#535353;stroke-width:8;stroke-miterlimit:8;
"/>
<!-- Line -->
<polyline points="7474,4617
6607,3128
" style="stroke:#535353;stroke-width:8;
stroke-linejoin:round; stroke-linecap:butt;
"/>
<!-- Arrowhead on XXXpoint 7474 4617 - 6592 3101-->
<polyline points="6795 3240
6596 3109
6611 3348
" style="stroke:#535353;stroke-width:8;stroke-miterlimit:8;
"/>
<!-- Line -->
<polyline points="8123,340
8104,361
" style="stroke:#9f9f9f;stroke-width:8;
stroke-linejoin:round; stroke-linecap:butt;
"/>
<!-- Line -->
<polyline points="6929,601
9237,97
" style="stroke:#535353;stroke-width:8;
stroke-linejoin:round; stroke-linecap:butt;
"/>
<!-- Arrowhead on XXXpoint 6929 601 - 9269 90-->
<polyline points="9072 242
9259 92
9026 32
" style="stroke:#535353;stroke-width:8;stroke-miterlimit:8;
"/>
<!-- Line -->
<polyline points="7714,4726
9983,4003
" style="stroke:#535353;stroke-width:8;
stroke-linejoin:round; stroke-linecap:butt;
"/>
<!-- Arrowhead on XXXpoint 7714 4726 - 10014 3993-->
<polyline points="9834 4163
10006 3996
9769 3959
" style="stroke:#535353;stroke-width:8;stroke-miterlimit:8;
"/>
<!-- Line -->
<polyline points="8923,4410
8888,4352
" style="stroke:#9f9f9f;stroke-width:8;
stroke-linejoin:round; stroke-linecap:butt;
"/>
<!-- Line -->
<polyline points="10711,1446
9465,264
" style="stroke:#535353;stroke-width:8;
stroke-linejoin:round; stroke-linecap:butt;
"/>
<!-- Arrowhead on XXXpoint 10711 1446 - 9442 242-->
<polyline points="9677 318
9448 248
9529 473
" style="stroke:#535353;stroke-width:8;stroke-miterlimit:8;
"/>
<!-- Line -->
<polyline points="10056,4046
7744,4786
" style="stroke:#535353;stroke-width:8;
stroke-linejoin:round; stroke-linecap:butt;
"/>
<!-- Arrowhead on XXXpoint 10056 4046 - 7713 4795-->
<polyline points="7892 4624
7721 4792
7958 4829
" style="stroke:#535353;stroke-width:8;stroke-miterlimit:8;
"/>
<!-- Line -->
<polyline points="9840,651
10045,813
" style="stroke:#9f9f9f;stroke-width:8;
stroke-linejoin:round; stroke-linecap:butt;
"/>
<!-- Line -->
<polyline points="561,3815
2789,4065
" style="stroke:#535353;stroke-width:8;
stroke-linejoin:round; stroke-linecap:butt;
"/>
<!-- Arrowhead on XXXpoint 561 3815 - 2820 4068-->
<polyline points="2585 4149
2811 4067
2609 3935
" style="stroke:#535353;stroke-width:8;stroke-miterlimit:8;
"/>
<!-- Line -->
<polyline points="10511,3544
10709,1462
" style="stroke:#535353;stroke-width:8;
stroke-linejoin:round; stroke-linecap:butt;
"/>
<!-- Arrowhead on XXXpoint 10511 3544 - 10712 1430-->
<polyline points="10797 1662
10711 1440
10584 1643
" style="stroke:#535353;stroke-width:8;stroke-miterlimit:8;
"/>
<!-- Line -->
<polyline points="9254,94
10489,1271
" style="stroke:#535353;stroke-width:8;
stroke-linejoin:round; stroke-linecap:butt;
"/>
<!-- Arrowhead on XXXpoint 9254 94 - 10512 1293-->
<polyline points="10276 1216
10506 1287
10424 1061
" style="stroke:#535353;stroke-width:8;stroke-miterlimit:8;
"/>
<!-- Line -->
<polyline points="1553,3943
1670,3941
" style="stroke:#9f9f9f;stroke-width:8;
stroke-linejoin:round; stroke-linecap:butt;
"/>
<!-- Line -->
<polyline points="815,608
248,1563
" style="stroke:#000000;stroke-width:32;
stroke-linejoin:round; stroke-linecap:butt;
"/>
<!-- Arrowhead on XXXpoint 815 608 - 199 1648-->
<polyline points="224 1403
208 1632
401 1507
" style="stroke:#000000;stroke-width:16;stroke-miterlimit:8;
"/>
<!-- Line -->
<polyline points="742,896
537,1078
" style="stroke:#9f9f9f;stroke-width:8;
stroke-linejoin:round; stroke-linecap:butt;
"/>
<!-- Line -->
<polyline points="10597,2658
10606,2546
" style="stroke:#9f9f9f;stroke-width:8;
stroke-linejoin:round; stroke-linecap:butt;
"/>
<!-- Line -->
<polyline points="2708,4072
446,3818
" style="stroke:#535353;stroke-width:8;
stroke-linejoin:round; stroke-linecap:butt;
"/>
<!-- Arrowhead on XXXpoint 2708 4072 - 414 3815-->
<polyline points="648 3733
424 3816
624 3946
" style="stroke:#535353;stroke-width:8;stroke-miterlimit:8;
"/>
<!-- Line -->
<polyline points="437,1420
1000,449
" style="stroke:#000000;stroke-width:8;
stroke-linejoin:round; stroke-linecap:butt;
"/>
<!-- Arrowhead on XXXpoint 437 1420 - 1016 422-->
<polyline points="996 668
1012 430
811 561
" style="stroke:#000000;stroke-width:8;stroke-miterlimit:8;
"/>
<!-- Line -->
<polyline points="10702,1542
10500,3650
" style="stroke:#535353;stroke-width:8;
stroke-linejoin:round; stroke-linecap:butt;
"/>
<!-- Arrowhead on XXXpoint 10702 1542 - 10497 3681-->
<polyline points="10411 3448
10498 3672
10624 3468
" style="stroke:#535353;stroke-width:8;stroke-miterlimit:8;
"/>
<!-- Line -->
<polyline points="223,1608
341,3601
" style="stroke:#535353;stroke-width:8;
stroke-linejoin:round; stroke-linecap:butt;
"/>
<!-- Arrowhead on XXXpoint 223 1608 - 342 3632-->
<polyline points="221 3415
341 3623
434 3402
" style="stroke:#535353;stroke-width:8;stroke-miterlimit:8;
"/>
<!-- Line -->
<polyline points="8950,3411
8914,3172
" style="stroke:#9f9f9f;stroke-width:8;
stroke-linejoin:round; stroke-linecap:butt;
"/>
<!-- Line -->
<polyline points="6655,1042
8889,2460
" style="stroke:#000000;stroke-width:16;
stroke-linejoin:round; stroke-linecap:butt;
"/>
<!-- Arrowhead on XXXpoint 6655 1042 - 8944 2496-->
<polyline points="8690 2460
8929 2486
8805 2280
" style="stroke:#000000;stroke-width:16;stroke-miterlimit:8;
"/>
<!-- Line -->
<polyline points="8918,2479
9991,3793
" style="stroke:#000000;stroke-width:16;
stroke-linejoin:round; stroke-linecap:butt;
"/>
<!-- Arrowhead on XXXpoint 8918 2479 - 10032 3844-->
<polyline points="9801 3731
10020 3829
9968 3595
" style="stroke:#000000;stroke-width:16;stroke-miterlimit:8;
"/>
<!-- Line -->
<polyline points="10013,3820
7654,2430
" style="stroke:#000000;stroke-width:16;
stroke-linejoin:round; stroke-linecap:butt;
"/>
<!-- Arrowhead on XXXpoint 10013 3820 - 7598 2396-->
<polyline points="7853 2422
7614 2406
7743 2606
" style="stroke:#000000;stroke-width:16;stroke-miterlimit:8;
"/>
<!-- Line -->
<polyline points="3265,1306
3050,1085
" style="stroke:#9f9f9f;stroke-width:8;
stroke-linejoin:round; stroke-linecap:butt;
"/>
<!-- Line -->
<polyline points="373,2849
285,2650
" style="stroke:#9f9f9f;stroke-width:8;
stroke-linejoin:round; stroke-linecap:butt;
"/>
<!-- Line -->
<polyline points="9412,3001
9216,2945
" style="stroke:#9f9f9f;stroke-width:8;
stroke-linejoin:round; stroke-linecap:butt;
"/>
<!-- Line -->
<polyline points="3127,1870
3382,827
" style="stroke:#535353;stroke-width:8;
stroke-linejoin:round; stroke-linecap:butt;
"/>
<!-- Arrowhead on XXXpoint 3127 1870 - 3390 795-->
<polyline points="3440 1038
3387 805
3232 987
" style="stroke:#535353;stroke-width:8;stroke-miterlimit:8;
"/>
<!-- Line -->
<polyline points="3184,599
2899,1620
" style="stroke:#535353;stroke-width:8;
stroke-linejoin:round; stroke-linecap:butt;
"/>
<!-- Arrowhead on XXXpoint 3184 599 - 2891 1652-->
<polyline points="2847 1407
2893 1643
3053 1464
" style="stroke:#535353;stroke-width:8;stroke-miterlimit:8;
"/>
<!-- Line -->
<polyline points="7650,2663
10041,4037
" style="stroke:#535353;stroke-width:8;
stroke-linejoin:round; stroke-linecap:butt;
"/>
<!-- Arrowhead on XXXpoint 7650 2663 - 10070 4053-->
<polyline points="9822 4034
10061 4049
9928 3848
" style="stroke:#535353;stroke-width:8;stroke-miterlimit:8;
"/>
<!-- Line -->
<polyline points="430,3817
313,1817
" style="stroke:#535353;stroke-width:8;
stroke-linejoin:round; stroke-linecap:butt;
"/>
<!-- Arrowhead on XXXpoint 430 3817 - 312 1785-->
<polyline points="432 2002
313 1795
218 2014
" style="stroke:#535353;stroke-width:8;stroke-miterlimit:8;
"/>
<!-- Line -->
<polyline points="7109,1682
6865,1744
" style="stroke:#9f9f9f;stroke-width:8;
stroke-linejoin:round; stroke-linecap:butt;
"/>
<!-- Line -->
<polyline points="7626,2413
6693,1098
" style="stroke:#000000;stroke-width:48;
stroke-linejoin:round; stroke-linecap:butt;
"/>
<!-- Arrowhead on XXXpoint 7626 2413 - 6618 991-->
<polyline points="6861 1149
6650 1037
6686 1273
" style="stroke:#000000;stroke-width:48;stroke-miterlimit:8;
"/>
<!-- Line -->
<polyline points="10499,3667
8146,2223
" style="stroke:#535353;stroke-width:8;
stroke-linejoin:round; stroke-linecap:butt;
"/>
<!-- Arrowhead on XXXpoint 10499 3667 - 8119 2206-->
<polyline points="8366 2232
8128 2212
8254 2414
" style="stroke:#535353;stroke-width:8;stroke-miterlimit:8;
"/>
<!-- Line -->
<polyline points="6942,815
7919,2137
" style="stroke:#000000;stroke-width:16;
stroke-linejoin:round; stroke-linecap:butt;
"/>
<!-- Arrowhead on XXXpoint 6942 815 - 7958 2191-->
<polyline points="7732 2067
7946 2176
7904 1940
" style="stroke:#000000;stroke-width:16;stroke-miterlimit:8;
"/>
<!-- Line -->
<polyline points="7940,2165
10275,3590
" style="stroke:#000000;stroke-width:16;
stroke-linejoin:round; stroke-linecap:butt;
"/>
<!-- Arrowhead on XXXpoint 7940 2165 - 10330 3624-->
<polyline points="10075 3593
10314 3614
10186 3411
" style="stroke:#000000;stroke-width:16;stroke-miterlimit:8;
"/>
<!-- Line -->
<polyline points="9190,2284
6971,833
" style="stroke:#000000;stroke-width:16;
stroke-linejoin:round; stroke-linecap:butt;
"/>
<!-- Arrowhead on XXXpoint 9190 2284 - 6915 797-->
<polyline points="7168 835
6931 808
7050 1014
" style="stroke:#000000;stroke-width:16;stroke-miterlimit:8;
"/>
<!-- Line -->
<polyline points="10304,3608
9211,2309
" style="stroke:#000000;stroke-width:16;
stroke-linejoin:round; stroke-linecap:butt;
"/>
<!-- Arrowhead on XXXpoint 10304 3608 - 9169 2260-->
<polyline points="9400 2369
9181 2275
9236 2507
" style="stroke:#000000;stroke-width:16;stroke-miterlimit:8;
"/>
<!-- Line -->
<polyline points="7398,1225
7409,1446
" style="stroke:#9f9f9f;stroke-width:8;
stroke-linejoin:round; stroke-linecap:butt;
"/>
<!-- Line -->
<polyline points="6424,1095
7357,2467
" style="stroke:#535353;stroke-width:8;
stroke-linejoin:round; stroke-linecap:butt;
"/>
<!-- Arrowhead on XXXpoint 6424 1095 - 7375 2494-->
<polyline points="7160 2369
7370 2487
7337 2248
" style="stroke:#535353;stroke-width:8;stroke-miterlimit:8;
"/>
<!-- Line -->
<polyline points="313,1801
2670,4036
" style="stroke:#000000;stroke-width:32;
stroke-linejoin:round; stroke-linecap:butt;
"/>
<!-- Arrowhead on XXXpoint 313 1801 - 2742 4103-->
<polyline points="2509 4024
2728 4091
2649 3876
" style="stroke:#000000;stroke-width:16;stroke-miterlimit:8;
"/>
<!-- Line -->
<polyline points="7933,1937
6938,614
" style="stroke:#535353;stroke-width:8;
stroke-linejoin:round; stroke-linecap:butt;
"/>
<!-- Arrowhead on XXXpoint 7933 1937 - 6918 588-->
<polyline points="7138 702
6923 596
6966 831
" style="stroke:#535353;stroke-width:8;stroke-miterlimit:8;
"/>
<!-- Line -->
<polyline points="1542,2967
1692,2853
" style="stroke:#9f9f9f;stroke-width:8;
stroke-linejoin:round; stroke-linecap:butt;
"/>
<!-- Line -->
<polyline points="7690,3784
7423,3605
" style="stroke:#9f9f9f;stroke-width:8;
stroke-linejoin:round; stroke-linecap:butt;
"/>
<!-- Line -->
<polyline points="7366,2481
7472,4600
" style="stroke:#535353;stroke-width:8;
stroke-linejoin:round; stroke-linecap:butt;
"/>
<!-- Arrowhead on XXXpoint 7366 2481 - 7474 4632-->
<polyline points="7355 4413
7474 4622
7569 4403
" style="stroke:#535353;stroke-width:8;stroke-miterlimit:8;
"/>
<!-- Line -->
<polyline points="3034,3914
3126,1886
" style="stroke:#535353;stroke-width:8;
stroke-linejoin:round; stroke-linecap:butt;
"/>
<!-- Arrowhead on XXXpoint 3034 3914 - 3127 1855-->
<polyline points="3224 2082
3127 1864
3009 2073
" style="stroke:#535353;stroke-width:8;stroke-miterlimit:8;
"/>
<!-- Line -->
<polyline points="2860,3969
470,1688
" style="stroke:#000000;stroke-width:8;
stroke-linejoin:round; stroke-linecap:butt;
"/>
<!-- Arrowhead on XXXpoint 2860 3969 - 447 1666-->
<polyline points="682 1742
453 1672
534 1897
" style="stroke:#000000;stroke-width:8;stroke-miterlimit:8;
"/>
<!-- Line -->
<polyline points="7729,4791
7650,2679
" style="stroke:#535353;stroke-width:8;
stroke-linejoin:round; stroke-linecap:butt;
"/>
<!-- Arrowhead on XXXpoint 7729 4791 - 7649 2647-->
<polyline points="7763 2867
7649 2657
7549 2874
" style="stroke:#535353;stroke-width:8;stroke-miterlimit:8;
"/>
<!-- Line -->
<polyline points="3080,2932
2898,2975
" style="stroke:#9f9f9f;stroke-width:8;
stroke-linejoin:round; stroke-linecap:butt;
"/>
<!-- Line -->
<polyline points="2941,1901
2860,3952
" style="stroke:#535353;stroke-width:8;
stroke-linejoin:round; stroke-linecap:butt;
"/>
<!-- Arrowhead on XXXpoint 2941 1901 - 2859 3984-->
<polyline points="2761 3756
2859 3974
2974 3764
" style="stroke:#535353;stroke-width:8;stroke-miterlimit:8;
"/>
<!-- Line -->
<polyline points="10501,1282
7949,1932
" style="stroke:#535353;stroke-width:8;
stroke-linejoin:round; stroke-linecap:butt;
"/>
<!-- Arrowhead on XXXpoint 10501 1282 - 7918 1940-->
<polyline points="8108 1780
7927 1938
8160 1988
" style="stroke:#535353;stroke-width:8;stroke-miterlimit:8;
"/>
<!-- Line -->
<polyline points="9457,1867
9256,1598
" style="stroke:#9f9f9f;stroke-width:8;
stroke-linejoin:round; stroke-linecap:butt;
"/>
<!-- Line -->
<polyline points="8133,2215
10685,1545
" style="stroke:#535353;stroke-width:8;
stroke-linejoin:round; stroke-linecap:butt;
"/>
<!-- Arrowhead on XXXpoint 8133 2215 - 10717 1538-->
<polyline points="10527 1697
10707 1540
10472 1490
" style="stroke:#535353;stroke-width:8;stroke-miterlimit:8;
"/>
<!-- Line -->
<polyline points="2896,1637
453,1420
" style="stroke:#535353;stroke-width:8;
stroke-linejoin:round; stroke-linecap:butt;
"/>
<!-- Arrowhead on XXXpoint 2896 1637 - 422 1418-->
<polyline points="654 1331
431 1419
635 1544
" style="stroke:#535353;stroke-width:8;stroke-miterlimit:8;
"/>
<!-- Line -->
<polyline points="1685,1786
1651,1527
" style="stroke:#9f9f9f;stroke-width:8;
stroke-linejoin:round; stroke-linecap:butt;
"/>
<!-- Line -->
<polyline points="458,1677
2924,1900
" style="stroke:#535353;stroke-width:8;
stroke-linejoin:round; stroke-linecap:butt;
"/>
<!-- Arrowhead on XXXpoint 458 1677 - 2956 1902-->
<polyline points="2723 1988
2946 1901
2742 1775
" style="stroke:#535353;stroke-width:8;stroke-miterlimit:8;
"/>
<!-- Arc -->
<path style="stroke:#000000;stroke-width:16;stroke-linecap:butt;"
d="M 6936,3952 A 4831 4831  0  0  1  3298  3869 " />
<!-- Arrowhead on XXXpoint 3571 3977 - 3298 3869-->
<polygon points="3693 3871
3309 3874
3588 4137
3573 3979
3693 3871

" style="stroke:#000000;stroke-width:8;stroke-miterlimit:8;
fill:white;"/>
<!-- Arc -->
<path style="stroke:#000000;stroke-width:16;stroke-linecap:butt;"
d="M 3612,768 A 3319 3319  0  0  1  6374  818 " />
<!-- Arrowhead on XXXpoint 6104 703 - 6374 818-->
<polygon points="5979 805
6364 814
6091 542
6100 701
5979 805

" style="stroke:#000000;stroke-width:8;stroke-miterlimit:8;
fill:white;"/>
<!-- Text -->
<text xml:space="preserve" x="4022" y="295" fill="#000000"  font-family="Times" font-style="normal" font-weight="normal" font-size="227" text-anchor="start">(std::vector{dh1,dh2,dh3,dh4})</text>
<!-- Text -->
<text xml:space="preserve" x="2218" y="-52" fill="#000000"  font-family="Times" font-style="normal" font-weight="normal" font-size="227" text-anchor="start">dh5=cm.insert_cell_2_in_cell_3</text>
<!-- Text -->
<text xml:space="preserve" x="6651" y="2025" fill="#000000"  font-family="Times" font-style="normal" font-weight="normal" font-size="252" text-anchor="start">dh5</text>
<!-- Text -->
<text xml:space="preserve" x="3602" y="4550" fill="#000000"  font-family="Times" font-style="normal" font-weight="normal" font-size="227" text-anchor="start">cm.remove_cell&#60;2&#62;(dh5)</text>
<!-- Text -->
<text xml:space="preserve" x="1816" y="2170" fill="#000000"  font-family="Times" font-style="normal" font-weight="normal" font-size="252" text-anchor="start">dh4</text>
<!-- Text -->
<text xml:space="preserve" x="1000" y="3174" fill="#000000"  font-family="Times" font-style="normal" font-weight="normal" font-size="252" text-anchor="start">dh2</text>
<!-- Text -->
<text xml:space="preserve" x="90" y="936" fill="#000000"  font-family="Times" font-style="normal" font-weight="normal" font-size="252" text-anchor="start">dh1</text>
<!-- Text -->
<text xml:space="preserve" x="3179" y="3149" fill="#000000"  font-family="Times" font-style="normal" font-weight="normal" font-size="252" text-anchor="start">dh3</text>
</g>
</svg>
