<?xml version="1.0" standalone="no"?>
<!DOCTYPE svg PUBLIC "-//W3C//DTD SVG 1.1//EN"
"http://www.w3.org/Graphics/SVG/1.1/DTD/svg11.dtd">
<!-- Creator: fig2dev Version 3.2.6 -->
<!-- CreationDate: Mon Nov 21 08:43:35 2016 -->
<!-- Magnification: 1.050 -->
<svg	xmlns="http://www.w3.org/2000/svg"
	xmlns:xlink="http://www.w3.org/1999/xlink"
	width="8.7in" height="2.8in"
	viewBox="-3800 -36 10452 3338">
<g style="stroke-width:.025in; fill:none">
<!-- Line -->
<polyline points="751,1772
2464,1938
" style="stroke:#505050;stroke-width:16;
stroke-linejoin:round; stroke-linecap:butt;
"/>
<!-- Arrowhead on XXXpoint 751 1772 - 2529 1943-->
<polyline points="2312 2016
2510 1941
2330 1828
" style="stroke:#505050;stroke-width:16;stroke-miterlimit:8;
"/>
<!-- Line -->
<polyline points="-3007,1672
-1337,1833
" style="stroke:#505050;stroke-width:16;
stroke-linejoin:round; stroke-linecap:butt;
"/>
<!-- Arrowhead on XXXpoint -3007 1672 - -1271 1838-->
<polyline points="-1486 1911
-1290 1836
-1468 1723
" style="stroke:#505050;stroke-width:16;stroke-miterlimit:8;
"/>
<!-- Line -->
<polyline points="-2192,1979
-2163,1753
" style="stroke:#9f9f9f;stroke-width:16;
stroke-linejoin:round; stroke-linecap:butt;
"/>
<!-- Line -->
<polyline points="1641,2045
1614,1855
" style="stroke:#9f9f9f;stroke-width:16;
stroke-linejoin:round; stroke-linecap:butt;
"/>
<!-- Line -->
<polyline points="-1329,2064
-3005,1898
" style="stroke:#505050;stroke-width:16;
stroke-linejoin:round; stroke-linecap:butt;
"/>
<!-- Arrowhead on XXXpoint -1329 2064 - -3069 1892-->
<polyline points="-2853 1819
-3050 1895
-2871 2007
" style="stroke:#505050;stroke-width:16;stroke-miterlimit:8;
"/>
<!-- Line -->
<polyline points="2530,2133
804,1962
" style="stroke:#505050;stroke-width:16;
stroke-linejoin:round; stroke-linecap:butt;
"/>
<!-- Arrowhead on XXXpoint 2530 2133 - 739 1956-->
<polyline points="954 1883
758 1959
936 2071
" style="stroke:#505050;stroke-width:16;stroke-miterlimit:8;
"/>
<!-- Line -->
<polyline points="4010,1985
5293,1636
" style="stroke:#505050;stroke-width:16;
stroke-linejoin:round; stroke-linecap:butt;
"/>
<!-- Arrowhead on XXXpoint 4010 1985 - 5356 1619-->
<polyline points="5180 1765
5338 1625
5130 1583
" style="stroke:#505050;stroke-width:16;stroke-miterlimit:8;
"/>
<!-- Line -->
<polyline points="4781,1939
4685,1802
" style="stroke:#9f9f9f;stroke-width:16;
stroke-linejoin:round; stroke-linecap:butt;
"/>
<!-- Line -->
<polyline points="5424,1760
4140,2116
" style="stroke:#505050;stroke-width:16;
stroke-linejoin:round; stroke-linecap:butt;
"/>
<!-- Arrowhead on XXXpoint 5424 1760 - 4077 2134-->
<polyline points="4251 1987
4095 2129
4302 2169
" style="stroke:#505050;stroke-width:16;stroke-miterlimit:8;
"/>
<!-- Line -->
<polyline points="701,163
750,1737
" style="stroke:#505050;stroke-width:16;
stroke-linejoin:round; stroke-linecap:butt;
"/>
<!-- Arrowhead on XXXpoint 701 163 - 751 1802-->
<polyline points="649 1596
750 1783
838 1591
" style="stroke:#505050;stroke-width:16;stroke-miterlimit:8;
"/>
<!-- Line -->
<polyline points="-3051,99
-3009,1603
" style="stroke:#000000;stroke-width:48;
stroke-linejoin:round; stroke-linecap:butt;
"/>
<!-- Arrowhead on XXXpoint -3051 99 - -3005 1734-->
<polyline points="-3155 1416
-3006 1696
-2872 1408
" style="stroke:#000000;stroke-width:32;stroke-miterlimit:8;
"/>
<!-- Line -->
<polyline points="-3232,975
-3029,912
" style="stroke:#9f9f9f;stroke-width:16;
stroke-linejoin:round; stroke-linecap:butt;
"/>
<!-- Line -->
<polyline points="572,1014
726,995
" style="stroke:#9f9f9f;stroke-width:16;
stroke-linejoin:round; stroke-linecap:butt;
"/>
<!-- Line -->
<polyline points="5579,1412
5612,198
" style="stroke:#505050;stroke-width:16;
stroke-linejoin:round; stroke-linecap:butt;
"/>
<!-- Arrowhead on XXXpoint 5579 1412 - 5613 133-->
<polyline points="5702 343
5613 152
5513 338
" style="stroke:#505050;stroke-width:16;stroke-miterlimit:8;
"/>
<!-- Line -->
<polyline points="5739,900
5595,815
" style="stroke:#9f9f9f;stroke-width:16;
stroke-linejoin:round; stroke-linecap:butt;
"/>
<!-- Line -->
<polyline points="5763,250
5717,1461
" style="stroke:#505050;stroke-width:16;
stroke-linejoin:round; stroke-linecap:butt;
"/>
<!-- Arrowhead on XXXpoint 5763 250 - 5715 1526-->
<polyline points="5628 1314
5716 1507
5817 1321
" style="stroke:#505050;stroke-width:16;stroke-miterlimit:8;
"/>
<!-- Line -->
<polyline points="-3204,1739
-3262,192
" style="stroke:#505050;stroke-width:16;
stroke-linejoin:round; stroke-linecap:butt;
"/>
<!-- Arrowhead on XXXpoint -3204 1739 - -3264 127-->
<polyline points="-3161 330
-3262 145
-3350 338
" style="stroke:#505050;stroke-width:16;stroke-miterlimit:8;
"/>
<!-- Line -->
<polyline points="2498,1941
737,199
" style="stroke:#000000;stroke-width:32;
stroke-linejoin:round; stroke-linecap:butt;
"/>
<!-- Arrowhead on XXXpoint 2498 1941 - 667 130-->
<polyline points="994 254
693 156
795 455
" style="stroke:#000000;stroke-width:32;stroke-miterlimit:8;
"/>
<!-- Line -->
<polyline points="601,1799
540,207
" style="stroke:#505050;stroke-width:16;
stroke-linejoin:round; stroke-linecap:butt;
"/>
<!-- Arrowhead on XXXpoint 601 1799 - 538 142-->
<polyline points="640 346
539 161
451 353
" style="stroke:#505050;stroke-width:16;stroke-miterlimit:8;
"/>
<!-- Line -->
<polyline points="1735,980
1620,1074
" style="stroke:#9f9f9f;stroke-width:16;
stroke-linejoin:round; stroke-linecap:butt;
"/>
<!-- Line -->
<polyline points="6107,2608
5445,1786
" style="stroke:#505050;stroke-width:16;
stroke-linejoin:round; stroke-linecap:butt;
"/>
<!-- Arrowhead on XXXpoint 6107 2608 - 5404 1735-->
<polyline points="5607 1837
5416 1750
5460 1955
" style="stroke:#505050;stroke-width:16;stroke-miterlimit:8;
"/>
<!-- Line -->
<polyline points="5746,2160
5752,2051
" style="stroke:#9f9f9f;stroke-width:16;
stroke-linejoin:round; stroke-linecap:butt;
"/>
<!-- Line -->
<polyline points="814,64
2591,1830
" style="stroke:#505050;stroke-width:16;
stroke-linejoin:round; stroke-linecap:butt;
"/>
<!-- Arrowhead on XXXpoint 814 64 - 2637 1877-->
<polyline points="2422 1796
2623 1863
2555 1662
" style="stroke:#505050;stroke-width:16;stroke-miterlimit:8;
"/>
<!-- Line -->
<polyline points="6054,1887
5928,1923
" style="stroke:#9f9f9f;stroke-width:16;
stroke-linejoin:round; stroke-linecap:butt;
"/>
<!-- Line -->
<polyline points="5717,1496
6406,2296
" style="stroke:#505050;stroke-width:16;
stroke-linejoin:round; stroke-linecap:butt;
"/>
<!-- Arrowhead on XXXpoint 5717 1496 - 6449 2345-->
<polyline points="6241 2249
6436 2331
6384 2125
" style="stroke:#505050;stroke-width:16;stroke-miterlimit:8;
"/>
<!-- Line -->
<polyline points="5426,1652
6094,2469
" style="stroke:#505050;stroke-width:16;
stroke-linejoin:round; stroke-linecap:butt;
"/>
<!-- Arrowhead on XXXpoint 5426 1652 - 6135 2520-->
<polyline points="5930 2418
6123 2506
6076 2299
" style="stroke:#505050;stroke-width:16;stroke-miterlimit:8;
"/>
<!-- Line -->
<polyline points="-1302,1836
-1231,275
" style="stroke:#505050;stroke-width:16;
stroke-linejoin:round; stroke-linecap:butt;
"/>
<!-- Arrowhead on XXXpoint -1302 1836 - -1227 209-->
<polyline points="-1142 420
-1228 228
-1331 412
" style="stroke:#505050;stroke-width:16;stroke-miterlimit:8;
"/>
<!-- Line -->
<polyline points="6299,2363
5617,1554
" style="stroke:#505050;stroke-width:16;
stroke-linejoin:round; stroke-linecap:butt;
"/>
<!-- Arrowhead on XXXpoint 6299 2363 - 5575 1505-->
<polyline points="5780 1603
5587 1520
5636 1724
" style="stroke:#505050;stroke-width:16;stroke-miterlimit:8;
"/>
<!-- Line -->
<polyline points="5327,1628
3933,746
" style="stroke:#505050;stroke-width:16;
stroke-linejoin:round; stroke-linecap:butt;
"/>
<!-- Arrowhead on XXXpoint 5327 1628 - 3878 710-->
<polyline points="4103 742
3893 721
4002 901
" style="stroke:#505050;stroke-width:16;stroke-miterlimit:8;
"/>
<!-- Line -->
<polyline points="4763,1231
4665,1210
" style="stroke:#9f9f9f;stroke-width:16;
stroke-linejoin:round; stroke-linecap:butt;
"/>
<!-- Line -->
<polyline points="2615,1855
2695,243
" style="stroke:#505050;stroke-width:16;
stroke-linejoin:round; stroke-linecap:butt;
"/>
<!-- Arrowhead on XXXpoint 2615 1855 - 2698 178-->
<polyline points="2781 390
2697 197
2593 381
" style="stroke:#505050;stroke-width:16;stroke-miterlimit:8;
"/>
<!-- Line -->
<polyline points="-1113,1162
-1266,1066
" style="stroke:#9f9f9f;stroke-width:16;
stroke-linejoin:round; stroke-linecap:butt;
"/>
<!-- Line -->
<polyline points="4927,977
4940,1099
" style="stroke:#9f9f9f;stroke-width:16;
stroke-linejoin:round; stroke-linecap:butt;
"/>
<!-- Line -->
<polyline points="4175,478
5550,1393
" style="stroke:#505050;stroke-width:16;
stroke-linejoin:round; stroke-linecap:butt;
"/>
<!-- Arrowhead on XXXpoint 4175 478 - 5604 1428-->
<polyline points="5378 1392
5588 1418
5482 1234
" style="stroke:#505050;stroke-width:16;stroke-miterlimit:8;
"/>
<!-- Line -->
<polyline points="-3247,2367
-3421,2204
" style="stroke:#9f9f9f;stroke-width:16;
stroke-linejoin:round; stroke-linecap:butt;
"/>
<!-- Line -->
<polyline points="2655,1059
2750,1206
" style="stroke:#9f9f9f;stroke-width:16;
stroke-linejoin:round; stroke-linecap:butt;
"/>
<!-- Line -->
<polyline points="557,2444
377,2277
" style="stroke:#9f9f9f;stroke-width:16;
stroke-linejoin:round; stroke-linecap:butt;
"/>
<!-- Line -->
<polyline points="-3039,1896
-3467,2864
" style="stroke:#505050;stroke-width:16;
stroke-linejoin:round; stroke-linecap:butt;
"/>
<!-- Arrowhead on XXXpoint -3039 1896 - -3492 2923-->
<polyline points="-3495 2695
-3485 2907
-3321 2771
" style="stroke:#505050;stroke-width:16;stroke-miterlimit:8;
"/>
<!-- Line -->
<polyline points="770,1960
329,2955
" style="stroke:#505050;stroke-width:16;
stroke-linejoin:round; stroke-linecap:butt;
"/>
<!-- Arrowhead on XXXpoint 770 1960 - 303 3015-->
<polyline points="300 2786
310 2998
473 2862
" style="stroke:#505050;stroke-width:16;stroke-miterlimit:8;
"/>
<!-- Line -->
<polyline points="4000,746
5397,1633
" style="stroke:#505050;stroke-width:16;
stroke-linejoin:round; stroke-linecap:butt;
"/>
<!-- Arrowhead on XXXpoint 4000 746 - 5453 1669-->
<polyline points="5226 1636
5437 1658
5328 1477
" style="stroke:#505050;stroke-width:16;stroke-miterlimit:8;
"/>
<!-- Line -->
<polyline points="-3668,2726
-3218,1770
" style="stroke:#505050;stroke-width:16;
stroke-linejoin:round; stroke-linecap:butt;
"/>
<!-- Arrowhead on XXXpoint -3668 2726 - -3190 1710-->
<polyline points="-3193 1938
-3198 1727
-3364 1857
" style="stroke:#505050;stroke-width:16;stroke-miterlimit:8;
"/>
<!-- Line -->
<polyline points="-1068,330
-1152,1905
" style="stroke:#505050;stroke-width:16;
stroke-linejoin:round; stroke-linecap:butt;
"/>
<!-- Arrowhead on XXXpoint -1068 330 - -1154 1970-->
<polyline points="-1237 1757
-1153 1951
-1048 1766
" style="stroke:#505050;stroke-width:16;stroke-miterlimit:8;
"/>
<!-- Line -->
<polyline points="5596,1529
4209,622
" style="stroke:#505050;stroke-width:16;
stroke-linejoin:round; stroke-linecap:butt;
"/>
<!-- Arrowhead on XXXpoint 5596 1529 - 4154 586-->
<polyline points="4379 621
4170 597
4276 779
" style="stroke:#505050;stroke-width:16;stroke-miterlimit:8;
"/>
<!-- Line -->
<polyline points="2796,351
2710,1971
" style="stroke:#505050;stroke-width:16;
stroke-linejoin:round; stroke-linecap:butt;
"/>
<!-- Arrowhead on XXXpoint 2796 351 - 2707 2036-->
<polyline points="2623 1823
2708 2017
2812 1834
" style="stroke:#505050;stroke-width:16;stroke-miterlimit:8;
"/>
<!-- Line -->
<polyline points="124,2813
586,1829
" style="stroke:#505050;stroke-width:16;
stroke-linejoin:round; stroke-linecap:butt;
"/>
<!-- Arrowhead on XXXpoint 124 2813 - 614 1770-->
<polyline points="611 1997
605 1786
439 1917
" style="stroke:#505050;stroke-width:16;stroke-miterlimit:8;
"/>
<!-- Line -->
<polyline points="3905,728
4007,1950
" style="stroke:#505050;stroke-width:16;
stroke-linejoin:round; stroke-linecap:butt;
"/>
<!-- Arrowhead on XXXpoint 3905 728 - 4012 2015-->
<polyline points="3901 1816
4011 1996
4089 1800
" style="stroke:#505050;stroke-width:16;stroke-miterlimit:8;
"/>
<!-- Line -->
<polyline points="-1229,241
-3018,101
" style="stroke:#505050;stroke-width:16;
stroke-linejoin:round; stroke-linecap:butt;
"/>
<!-- Arrowhead on XXXpoint -1229 241 - -3082 96-->
<polyline points="-2867 17
-3063 97
-2881 205
" style="stroke:#505050;stroke-width:16;stroke-miterlimit:8;
"/>
<!-- Line -->
<polyline points="3911,1445
3961,1385
" style="stroke:#9f9f9f;stroke-width:16;
stroke-linejoin:round; stroke-linecap:butt;
"/>
<!-- Line -->
<polyline points="2697,209
848,66
" style="stroke:#505050;stroke-width:16;
stroke-linejoin:round; stroke-linecap:butt;
"/>
<!-- Arrowhead on XXXpoint 2697 209 - 783 60-->
<polyline points="997 -16
802 61
982 170
" style="stroke:#505050;stroke-width:16;stroke-miterlimit:8;
"/>
<!-- Line -->
<polyline points="-1564,3110
-1336,2096
" style="stroke:#505050;stroke-width:16;
stroke-linejoin:round; stroke-linecap:butt;
"/>
<!-- Arrowhead on XXXpoint -1564 3110 - -1321 2032-->
<polyline points="-1274 2255
-1325 2050
-1459 2213
" style="stroke:#505050;stroke-width:16;stroke-miterlimit:8;
"/>
<!-- Line -->
<polyline points="2287,3208
2518,2182
" style="stroke:#000000;stroke-width:32;
stroke-linejoin:round; stroke-linecap:butt;
"/>
<!-- Arrowhead on XXXpoint 2287 3208 - 2539 2087-->
<polyline points="2606 2431
2531 2123
2330 2368
" style="stroke:#000000;stroke-width:32;stroke-miterlimit:8;
"/>
<!-- Line -->
<polyline points="-2180,78
-2150,171
" style="stroke:#9f9f9f;stroke-width:16;
stroke-linejoin:round; stroke-linecap:butt;
"/>
<!-- Line -->
<polyline points="-1255,2428
-1438,2557
" style="stroke:#9f9f9f;stroke-width:16;
stroke-linejoin:round; stroke-linecap:butt;
"/>
<!-- Line -->
<polyline points="2416,2640
2604,2507
" style="stroke:#9f9f9f;stroke-width:16;
stroke-linejoin:round; stroke-linecap:butt;
"/>
<!-- Line -->
<polyline points="1743,134
1654,92
" style="stroke:#9f9f9f;stroke-width:16;
stroke-linejoin:round; stroke-linecap:butt;
"/>
<!-- Line -->
<polyline points="4108,2125
4649,3038
" style="stroke:#505050;stroke-width:16;
stroke-linejoin:round; stroke-linecap:butt;
"/>
<!-- Arrowhead on XXXpoint 4108 2125 - 4683 3093-->
<polyline points="4495 2963
4674 3078
4658 2867
" style="stroke:#505050;stroke-width:16;stroke-miterlimit:8;
"/>
<!-- Line -->
<polyline points="3965,2052
3856,813
" style="stroke:#505050;stroke-width:16;
stroke-linejoin:round; stroke-linecap:butt;
"/>
<!-- Arrowhead on XXXpoint 3965 2052 - 3850 748-->
<polyline points="3963 946
3853 767
3775 963
" style="stroke:#505050;stroke-width:16;stroke-miterlimit:8;
"/>
<!-- Line -->
<polyline points="4370,2570
4224,2497
" style="stroke:#9f9f9f;stroke-width:16;
stroke-linejoin:round; stroke-linecap:butt;
"/>
<!-- Line -->
<polyline points="5613,164
4207,471
" style="stroke:#505050;stroke-width:16;
stroke-linejoin:round; stroke-linecap:butt;
"/>
<!-- Arrowhead on XXXpoint 5613 164 - 4143 485-->
<polyline points="4325 347
4161 480
4366 532
" style="stroke:#505050;stroke-width:16;stroke-miterlimit:8;
"/>
<!-- Line -->
<polyline points="-1153,1940
-1363,2946
" style="stroke:#505050;stroke-width:16;
stroke-linejoin:round; stroke-linecap:butt;
"/>
<!-- Arrowhead on XXXpoint -1153 1940 - -1376 3011-->
<polyline points="-1425 2788
-1372 2993
-1240 2827
" style="stroke:#505050;stroke-width:16;stroke-miterlimit:8;
"/>
<!-- Line -->
<polyline points="2709,2006
2494,3041
" style="stroke:#505050;stroke-width:16;
stroke-linejoin:round; stroke-linecap:butt;
"/>
<!-- Arrowhead on XXXpoint 2709 2006 - 2480 3105-->
<polyline points="2430 2882
2485 3087
2615 2921
" style="stroke:#505050;stroke-width:16;stroke-miterlimit:8;
"/>
<!-- Line -->
<polyline points="-3099,10
-1276,148
" style="stroke:#505050;stroke-width:16;
stroke-linejoin:round; stroke-linecap:butt;
"/>
<!-- Arrowhead on XXXpoint -3099 10 - -1210 152-->
<polyline points="-1424 230
-1229 151
-1409 41
" style="stroke:#505050;stroke-width:16;stroke-miterlimit:8;
"/>
<!-- Line -->
<polyline points="709,22
2584,163
" style="stroke:#505050;stroke-width:16;
stroke-linejoin:round; stroke-linecap:butt;
"/>
<!-- Arrowhead on XXXpoint 709 22 - 2649 167-->
<polyline points="2434 246
2630 166
2449 57
" style="stroke:#505050;stroke-width:16;stroke-miterlimit:8;
"/>
<!-- Line -->
<polyline points="4515,2998
3982,2081
" style="stroke:#505050;stroke-width:16;
stroke-linejoin:round; stroke-linecap:butt;
"/>
<!-- Arrowhead on XXXpoint 4515 2998 - 3948 2025-->
<polyline points="4134 2156
3958 2040
3970 2250
" style="stroke:#505050;stroke-width:16;stroke-miterlimit:8;
"/>
<!-- Line -->
<polyline points="4924,304
4913,318
" style="stroke:#9f9f9f;stroke-width:16;
stroke-linejoin:round; stroke-linecap:butt;
"/>
<!-- Line -->
<polyline points="4172,469
5604,156
" style="stroke:#505050;stroke-width:16;
stroke-linejoin:round; stroke-linecap:butt;
"/>
<!-- Arrowhead on XXXpoint 4172 469 - 5668 142-->
<polyline points="5485 279
5650 146
5444 94
" style="stroke:#505050;stroke-width:16;stroke-miterlimit:8;
"/>
<!-- Line -->
<polyline points="4667,3067
6074,2618
" style="stroke:#505050;stroke-width:16;
stroke-linejoin:round; stroke-linecap:butt;
"/>
<!-- Arrowhead on XXXpoint 4667 3067 - 6136 2598-->
<polyline points="5966 2750
6118 2603
5909 2571
" style="stroke:#505050;stroke-width:16;stroke-miterlimit:8;
"/>
<!-- Line -->
<polyline points="5428,2868
5406,2832
" style="stroke:#9f9f9f;stroke-width:16;
stroke-linejoin:round; stroke-linecap:butt;
"/>
<!-- Line -->
<polyline points="6555,1001
5787,274
" style="stroke:#505050;stroke-width:16;
stroke-linejoin:round; stroke-linecap:butt;
"/>
<!-- Arrowhead on XXXpoint 6555 1001 - 5740 228-->
<polyline points="5955 302
5754 241
5825 439
" style="stroke:#505050;stroke-width:16;stroke-miterlimit:8;
"/>
<!-- Line -->
<polyline points="6142,2639
4707,3098
" style="stroke:#505050;stroke-width:16;
stroke-linejoin:round; stroke-linecap:butt;
"/>
<!-- Arrowhead on XXXpoint 6142 2639 - 4645 3118-->
<polyline points="4814 2964
4663 3112
4871 3144
" style="stroke:#505050;stroke-width:16;stroke-miterlimit:8;
"/>
<!-- Line -->
<polyline points="6006,500
6135,602
" style="stroke:#9f9f9f;stroke-width:16;
stroke-linejoin:round; stroke-linecap:butt;
"/>
<!-- Line -->
<polyline points="317,2986
2253,3204
" style="stroke:#505050;stroke-width:16;
stroke-linejoin:round; stroke-linecap:butt;
"/>
<!-- Arrowhead on XXXpoint 317 2986 - 2318 3211-->
<polyline points="2100 3281
2299 3209
2121 3093
" style="stroke:#505050;stroke-width:16;stroke-miterlimit:8;
"/>
<!-- Line -->
<polyline points="-3480,2895
-1598,3106
" style="stroke:#505050;stroke-width:16;
stroke-linejoin:round; stroke-linecap:butt;
"/>
<!-- Arrowhead on XXXpoint -3480 2895 - -1532 3113-->
<polyline points="-1749 3184
-1551 3111
-1728 2996
" style="stroke:#505050;stroke-width:16;stroke-miterlimit:8;
"/>
<!-- Line -->
<polyline points="6429,2322
6552,1035
" style="stroke:#505050;stroke-width:16;
stroke-linejoin:round; stroke-linecap:butt;
"/>
<!-- Arrowhead on XXXpoint 6429 2322 - 6557 970-->
<polyline points="6630 1185
6555 988
6443 1167
" style="stroke:#505050;stroke-width:16;stroke-miterlimit:8;
"/>
<!-- Line -->
<polyline points="5637,150
6398,873
" style="stroke:#505050;stroke-width:16;
stroke-linejoin:round; stroke-linecap:butt;
"/>
<!-- Arrowhead on XXXpoint 5637 150 - 6446 918-->
<polyline points="6229 844
6432 906
6360 706
" style="stroke:#505050;stroke-width:16;stroke-miterlimit:8;
"/>
<!-- Line -->
<polyline points="1188,3100
1291,3098
" style="stroke:#9f9f9f;stroke-width:16;
stroke-linejoin:round; stroke-linecap:butt;
"/>
<!-- Line -->
<polyline points="540,174
46,1006
" style="stroke:#000000;stroke-width:32;
stroke-linejoin:round; stroke-linecap:butt;
"/>
<!-- Arrowhead on XXXpoint 540 174 - -2 1091-->
<polyline points="38 742
16 1059
282 887
" style="stroke:#000000;stroke-width:32;stroke-miterlimit:8;
"/>
<!-- Line -->
<polyline points="476,427
296,585
" style="stroke:#9f9f9f;stroke-width:16;
stroke-linejoin:round; stroke-linecap:butt;
"/>
<!-- Line -->
<polyline points="-3262,158
-3752,982
" style="stroke:#505050;stroke-width:16;
stroke-linejoin:round; stroke-linecap:butt;
"/>
<!-- Arrowhead on XXXpoint -3262 158 - -3784 1038-->
<polyline points="-3759 811
-3775 1022
-3596 908
" style="stroke:#505050;stroke-width:16;stroke-miterlimit:8;
"/>
<!-- Line -->
<polyline points="-3325,404
-3501,558
" style="stroke:#9f9f9f;stroke-width:16;
stroke-linejoin:round; stroke-linecap:butt;
"/>
<!-- Line -->
<polyline points="6483,1764
6489,1694
" style="stroke:#9f9f9f;stroke-width:16;
stroke-linejoin:round; stroke-linecap:butt;
"/>
<!-- Line -->
<polyline points="-2570,2960
-2534,3002
" style="stroke:#9f9f9f;stroke-width:16;
stroke-linejoin:round; stroke-linecap:butt;
"/>
<!-- Line -->
<polyline points="2201,3212
236,2992
" style="stroke:#505050;stroke-width:16;
stroke-linejoin:round; stroke-linecap:butt;
"/>
<!-- Arrowhead on XXXpoint 2201 3212 - 171 2984-->
<polyline points="387 2913
190 2986
366 3101
" style="stroke:#505050;stroke-width:16;stroke-miterlimit:8;
"/>
<!-- Line -->
<polyline points="208,886
691,51
" style="stroke:#505050;stroke-width:16;
stroke-linejoin:round; stroke-linecap:butt;
"/>
<!-- Arrowhead on XXXpoint 208 886 - 725 -4-->
<polyline points="702 221
716 11
538 127
" style="stroke:#505050;stroke-width:16;stroke-miterlimit:8;
"/>
<!-- Line -->
<polyline points="-3586,851
-3117,39
" style="stroke:#505050;stroke-width:16;
stroke-linejoin:round; stroke-linecap:butt;
"/>
<!-- Arrowhead on XXXpoint -3586 851 - -3082 -15-->
<polyline points="-3104 209
-3091 0
-3268 115
" style="stroke:#505050;stroke-width:16;stroke-miterlimit:8;
"/>
<!-- Line -->
<polyline points="6550,1061
6424,2365
" style="stroke:#505050;stroke-width:16;
stroke-linejoin:round; stroke-linecap:butt;
"/>
<!-- Arrowhead on XXXpoint 6550 1061 - 6418 2430-->
<polyline points="6344 2214
6420 2411
6532 2232
" style="stroke:#505050;stroke-width:16;stroke-miterlimit:8;
"/>
<!-- Line -->
<polyline points="-1583,3071
-3502,2855
" style="stroke:#505050;stroke-width:16;
stroke-linejoin:round; stroke-linecap:butt;
"/>
<!-- Arrowhead on XXXpoint -1583 3071 - -3566 2848-->
<polyline points="-3349 2776
-3547 2850
-3370 2964
" style="stroke:#505050;stroke-width:16;stroke-miterlimit:8;
"/>
<!-- Line -->
<polyline points="20,1051
122,2779
" style="stroke:#505050;stroke-width:16;
stroke-linejoin:round; stroke-linecap:butt;
"/>
<!-- Arrowhead on XXXpoint 20 1051 - 125 2844-->
<polyline points="18 2641
124 2825
207 2630
" style="stroke:#505050;stroke-width:16;stroke-miterlimit:8;
"/>
<!-- Line -->
<polyline points="5445,2238
5423,2088
" style="stroke:#9f9f9f;stroke-width:16;
stroke-linejoin:round; stroke-linecap:butt;
"/>
<!-- Line -->
<polyline points="-3769,1012
-3670,2691
" style="stroke:#505050;stroke-width:16;
stroke-linejoin:round; stroke-linecap:butt;
"/>
<!-- Arrowhead on XXXpoint -3769 1012 - -3666 2756-->
<polyline points="-3772 2554
-3667 2738
-3583 2543
" style="stroke:#505050;stroke-width:16;stroke-miterlimit:8;
"/>
<!-- Line -->
<polyline points="6116,2496
4670,1644
" style="stroke:#000000;stroke-width:48;
stroke-linejoin:round; stroke-linecap:butt;
"/>
<!-- Arrowhead on XXXpoint 6116 2496 - 4557 1577-->
<polyline points="4906 1617
4590 1596
4762 1862
" style="stroke:#000000;stroke-width:32;stroke-miterlimit:8;
"/>
<!-- Line -->
<polyline points="2690,786
2502,592
" style="stroke:#9f9f9f;stroke-width:16;
stroke-linejoin:round; stroke-linecap:butt;
"/>
<!-- Line -->
<polyline points="152,2139
75,1966
" style="stroke:#9f9f9f;stroke-width:16;
stroke-linejoin:round; stroke-linecap:butt;
"/>
<!-- Line -->
<polyline points="4809,1454
6269,2345
" style="stroke:#505050;stroke-width:16;
stroke-linejoin:round; stroke-linecap:butt;
"/>
<!-- Arrowhead on XXXpoint 4809 1454 - 6325 2379-->
<polyline points="6098 2351
6309 2369
6197 2190
" style="stroke:#505050;stroke-width:16;stroke-miterlimit:8;
"/>
<!-- Line -->
<polyline points="5736,1981
5613,1946
" style="stroke:#9f9f9f;stroke-width:16;
stroke-linejoin:round; stroke-linecap:butt;
"/>
<!-- Line -->
<polyline points="-1172,753
-1355,564
" style="stroke:#9f9f9f;stroke-width:16;
stroke-linejoin:round; stroke-linecap:butt;
"/>
<!-- Line -->
<polyline points="2569,1280
2788,384
" style="stroke:#505050;stroke-width:16;
stroke-linejoin:round; stroke-linecap:butt;
"/>
<!-- Arrowhead on XXXpoint 2569 1280 - 2804 320-->
<polyline points="2846 543
2800 338
2662 498
" style="stroke:#505050;stroke-width:16;stroke-miterlimit:8;
"/>
<!-- Line -->
<polyline points="-1290,1235
-1077,363
" style="stroke:#505050;stroke-width:16;
stroke-linejoin:round; stroke-linecap:butt;
"/>
<!-- Arrowhead on XXXpoint -1290 1235 - -1060 299-->
<polyline points="-1017 522
-1064 317
-1201 477
" style="stroke:#505050;stroke-width:16;stroke-miterlimit:8;
"/>
<!-- Line -->
<polyline points="-3580,2022
-3716,1901
" style="stroke:#9f9f9f;stroke-width:16;
stroke-linejoin:round; stroke-linecap:butt;
"/>
<!-- Line -->
<polyline points="2619,165
2374,1042
" style="stroke:#505050;stroke-width:16;
stroke-linejoin:round; stroke-linecap:butt;
"/>
<!-- Arrowhead on XXXpoint 2619 165 - 2356 1105-->
<polyline points="2321 879
2362 1087
2503 930
" style="stroke:#505050;stroke-width:16;stroke-miterlimit:8;
"/>
<!-- Line -->
<polyline points="4626,1767
6112,2622
" style="stroke:#505050;stroke-width:16;
stroke-linejoin:round; stroke-linecap:butt;
"/>
<!-- Arrowhead on XXXpoint 4626 1767 - 6170 2654-->
<polyline points="5943 2632
6154 2644
6036 2468
" style="stroke:#505050;stroke-width:16;stroke-miterlimit:8;
"/>
<!-- Line -->
<polyline points="202,2988
100,1254
" style="stroke:#505050;stroke-width:16;
stroke-linejoin:round; stroke-linecap:butt;
"/>
<!-- Arrowhead on XXXpoint 202 2988 - 97 1189-->
<polyline points="203 1391
98 1208
14 1401
" style="stroke:#505050;stroke-width:16;stroke-miterlimit:8;
"/>
<!-- Line -->
<polyline points="-1241,150
-1479,1002
" style="stroke:#505050;stroke-width:16;
stroke-linejoin:round; stroke-linecap:butt;
"/>
<!-- Arrowhead on XXXpoint -1241 150 - -1496 1065-->
<polyline points="-1530 839
-1490 1047
-1349 890
" style="stroke:#505050;stroke-width:16;stroke-miterlimit:8;
"/>
<!-- Line -->
<polyline points="4286,1149
4132,1189
" style="stroke:#9f9f9f;stroke-width:16;
stroke-linejoin:round; stroke-linecap:butt;
"/>
<!-- Line -->
<polyline points="4612,1610
4018,773
" style="stroke:#505050;stroke-width:16;
stroke-linejoin:round; stroke-linecap:butt;
"/>
<!-- Arrowhead on XXXpoint 4612 1610 - 3981 720-->
<polyline points="4177 834
3991 735
4023 943
" style="stroke:#505050;stroke-width:16;stroke-miterlimit:8;
"/>
<!-- Line -->
<polyline points="6422,2400
4959,1502
" style="stroke:#505050;stroke-width:16;
stroke-linejoin:round; stroke-linecap:butt;
"/>
<!-- Arrowhead on XXXpoint 6422 2400 - 4903 1468-->
<polyline points="5129 1496
4919 1478
5030 1656
" style="stroke:#505050;stroke-width:16;stroke-miterlimit:8;
"/>
<!-- Line -->
<polyline points="4181,604
4788,1425
" style="stroke:#505050;stroke-width:16;
stroke-linejoin:round; stroke-linecap:butt;
"/>
<!-- Arrowhead on XXXpoint 4181 604 - 4827 1479-->
<polyline points="4626 1367
4815 1464
4779 1255
" style="stroke:#505050;stroke-width:16;stroke-miterlimit:8;
"/>
<!-- Line -->
<polyline points="-3535,2852
-3628,1191
" style="stroke:#000000;stroke-width:48;
stroke-linejoin:round; stroke-linecap:butt;
"/>
<!-- Arrowhead on XXXpoint -3535 2852 - -3634 1060-->
<polyline points="-3475 1373
-3632 1098
-3757 1388
" style="stroke:#000000;stroke-width:32;stroke-miterlimit:8;
"/>
<!-- Line -->
<polyline points="4468,861
4475,1001
" style="stroke:#9f9f9f;stroke-width:16;
stroke-linejoin:round; stroke-linecap:butt;
"/>
<!-- Line -->
<polyline points="3854,780
4428,1625
" style="stroke:#505050;stroke-width:16;
stroke-linejoin:round; stroke-linecap:butt;
"/>
<!-- Arrowhead on XXXpoint 3854 780 - 4465 1678-->
<polyline points="4269 1559
4454 1662
4426 1453
" style="stroke:#505050;stroke-width:16;stroke-miterlimit:8;
"/>
<!-- Line -->
<polyline points="99,1220
2163,3176
" style="stroke:#000000;stroke-width:32;
stroke-linejoin:round; stroke-linecap:butt;
"/>
<!-- Arrowhead on XXXpoint 99 1220 - 2235 3244-->
<polyline points="1904 3126
2207 3218
2098 2920
" style="stroke:#000000;stroke-width:32;stroke-miterlimit:8;
"/>
<!-- Line -->
<polyline points="4805,1310
4192,495
" style="stroke:#505050;stroke-width:16;
stroke-linejoin:round; stroke-linecap:butt;
"/>
<!-- Arrowhead on XXXpoint 4805 1310 - 4152 444-->
<polyline points="4352 552
4163 458
4201 665
" style="stroke:#505050;stroke-width:16;stroke-miterlimit:8;
"/>
<!-- Line -->
<polyline points="1177,2243
1310,2143
" style="stroke:#9f9f9f;stroke-width:16;
stroke-linejoin:round; stroke-linecap:butt;
"/>
<!-- Line -->
<polyline points="4448,1653
4513,2963
" style="stroke:#505050;stroke-width:16;
stroke-linejoin:round; stroke-linecap:butt;
"/>
<!-- Arrowhead on XXXpoint 4448 1653 - 4516 3028-->
<polyline points="4411 2825
4515 3009
4599 2815
" style="stroke:#505050;stroke-width:16;stroke-miterlimit:8;
"/>
<!-- Line -->
<polyline points="4651,2473
4483,2361
" style="stroke:#9f9f9f;stroke-width:16;
stroke-linejoin:round; stroke-linecap:butt;
"/>
<!-- Line -->
<polyline points="2488,3075
2567,1314
" style="stroke:#505050;stroke-width:16;
stroke-linejoin:round; stroke-linecap:butt;
"/>
<!-- Arrowhead on XXXpoint 2488 3075 - 2570 1249-->
<polyline points="2654 1460
2569 1268
2466 1451
" style="stroke:#505050;stroke-width:16;stroke-miterlimit:8;
"/>
<!-- Line -->
<polyline points="2334,3123
251,1134
" style="stroke:#505050;stroke-width:16;
stroke-linejoin:round; stroke-linecap:butt;
"/>
<!-- Arrowhead on XXXpoint 2334 3123 - 204 1089-->
<polyline points="419 1164
218 1102
289 1300
" style="stroke:#505050;stroke-width:16;stroke-miterlimit:8;
"/>
<!-- Line -->
<polyline points="-1370,2980
-1292,1269
" style="stroke:#505050;stroke-width:16;
stroke-linejoin:round; stroke-linecap:butt;
"/>
<!-- Arrowhead on XXXpoint -1370 2980 - -1288 1204-->
<polyline points="-1203 1415
-1289 1223
-1392 1406
" style="stroke:#505050;stroke-width:16;stroke-miterlimit:8;
"/>
<!-- Line -->
<polyline points="4676,3108
4626,1801
" style="stroke:#505050;stroke-width:16;
stroke-linejoin:round; stroke-linecap:butt;
"/>
<!-- Arrowhead on XXXpoint 4676 3108 - 4624 1736-->
<polyline points="4726 1940
4625 1755
4537 1947
" style="stroke:#505050;stroke-width:16;stroke-miterlimit:8;
"/>
<!-- Line -->
<polyline points="2528,2212
2368,2249
" style="stroke:#9f9f9f;stroke-width:16;
stroke-linejoin:round; stroke-linecap:butt;
"/>
<!-- Line -->
<polyline points="-1331,2141
-1552,2226
" style="stroke:#9f9f9f;stroke-width:16;
stroke-linejoin:round; stroke-linecap:butt;
"/>
<!-- Line -->
<polyline points="-1520,1314
-1583,3037
" style="stroke:#505050;stroke-width:16;
stroke-linejoin:round; stroke-linecap:butt;
"/>
<!-- Arrowhead on XXXpoint -1520 1314 - -1584 3102-->
<polyline points="-1670 2890
-1583 3083
-1481 2897
" style="stroke:#505050;stroke-width:16;stroke-miterlimit:8;
"/>
<!-- Line -->
<polyline points="2406,1308
2334,3088
" style="stroke:#505050;stroke-width:16;
stroke-linejoin:round; stroke-linecap:butt;
"/>
<!-- Arrowhead on XXXpoint 2406 1308 - 2332 3153-->
<polyline points="2246 2941
2333 3134
2435 2949
" style="stroke:#505050;stroke-width:16;stroke-miterlimit:8;
"/>
<!-- Line -->
<polyline points="6424,897
4837,1301
" style="stroke:#505050;stroke-width:16;
stroke-linejoin:round; stroke-linecap:butt;
"/>
<!-- Arrowhead on XXXpoint 6424 897 - 4773 1317-->
<polyline points="4951 1174
4791 1313
4997 1357
" style="stroke:#505050;stroke-width:16;stroke-miterlimit:8;
"/>
<!-- Line -->
<polyline points="5764,1267
5638,1097
" style="stroke:#9f9f9f;stroke-width:16;
stroke-linejoin:round; stroke-linecap:butt;
"/>
<!-- Line -->
<polyline points="4931,1485
6516,1068
" style="stroke:#505050;stroke-width:16;
stroke-linejoin:round; stroke-linecap:butt;
"/>
<!-- Arrowhead on XXXpoint 4931 1485 - 6580 1053-->
<polyline points="6403 1196
6562 1058
6355 1014
" style="stroke:#505050;stroke-width:16;stroke-miterlimit:8;
"/>
<!-- Line -->
<polyline points="2366,1076
242,888
" style="stroke:#505050;stroke-width:16;
stroke-linejoin:round; stroke-linecap:butt;
"/>
<!-- Arrowhead on XXXpoint 2366 1076 - 177 882-->
<polyline points="392 807
196 885
375 995
" style="stroke:#505050;stroke-width:16;stroke-miterlimit:8;
"/>
<!-- Line -->
<polyline points="-1487,1036
-3552,853
" style="stroke:#505050;stroke-width:16;
stroke-linejoin:round; stroke-linecap:butt;
"/>
<!-- Arrowhead on XXXpoint -1487 1036 - -3616 848-->
<polyline points="-3400 772
-3597 850
-3417 960
" style="stroke:#505050;stroke-width:16;stroke-miterlimit:8;
"/>
<!-- Line -->
<polyline points="1303,1208
1274,980
" style="stroke:#9f9f9f;stroke-width:16;
stroke-linejoin:round; stroke-linecap:butt;
"/>
<!-- Line -->
<polyline points="-2588,1216
-2550,942
" style="stroke:#9f9f9f;stroke-width:16;
stroke-linejoin:round; stroke-linecap:butt;
"/>
<!-- Line -->
<polyline points="-3631,1123
-1554,1311
" style="stroke:#505050;stroke-width:16;
stroke-linejoin:round; stroke-linecap:butt;
"/>
<!-- Arrowhead on XXXpoint -3631 1123 - -1488 1316-->
<polyline points="-1703 1391
-1507 1314
-1687 1203
" style="stroke:#505050;stroke-width:16;stroke-miterlimit:8;
"/>
<!-- Line -->
<polyline points="227,1111
2371,1304
" style="stroke:#505050;stroke-width:16;
stroke-linejoin:round; stroke-linecap:butt;
"/>
<!-- Arrowhead on XXXpoint 227 1111 - 2436 1310-->
<polyline points="2220 1384
2417 1308
2237 1196
" style="stroke:#505050;stroke-width:16;stroke-miterlimit:8;
"/>
<!-- Line -->
<polyline points="-3572,1871
-3496,1791
" style="stroke:#000000;stroke-width:8;
stroke-linejoin:miter; stroke-linecap:butt;
"/>
<!-- Line -->
<polyline points="-3009,751
-2946,688
" style="stroke:#000000;stroke-width:8;
stroke-linejoin:miter; stroke-linecap:butt;
"/>
<!-- Line -->
<polyline points="5111,2166
5200,1968
" style="stroke:#000000;stroke-width:16;
stroke-linejoin:miter; stroke-linecap:butt;
"/>
<!-- Text -->
<text xml:space="preserve" x="-2979" y="672" fill="#000000"  font-family="Times" font-style="normal" font-weight="normal" font-size="227" text-anchor="start">dh2</text>
<!-- Text -->
<text xml:space="preserve" x="-3543" y="1700" fill="#000000"  font-family="Times" font-style="normal" font-weight="normal" font-size="227" text-anchor="start">dh1</text>
<!-- Text -->
<text xml:space="preserve" x="4904" y="2441" fill="#000000"  font-family="Times" font-style="normal" font-weight="normal" font-size="227" text-anchor="start">dh3</text>
</g>
</svg>
