<?xml version="1.0" encoding="UTF-8" standalone="no"?>
<!-- Creator: fig2dev Version 3.2.8 -->
<!-- CreationDate: 2022-05-05 19:05:07 -->
<!-- Magnification: 1.05 -->
<svg	xmlns="http://www.w3.org/2000/svg"
	xmlns:xlink="http://www.w3.org/1999/xlink"
	width="563pt" height="283pt"
	viewBox="-4509 60 8928 4489">
<g fill="none">
<!-- Line -->
<polyline points=" -1752,3735 -1811,3302 -1468,3229 -1523,2773 -1079,2727 -1246,2402 -978,2389
 -1893,1551 -2692,2939 -1761,3760"
	stroke="#b1b1b1" stroke-width="15px" stroke-linejoin="round"/>
<!-- Line -->
<polyline points=" -1946,4251 -1925,3932 -1559,3920 -1656,3500 -1277,3428 -1391,2925 -1156,2921
 -2297,1859 -3147,3194 -1922,4274"
	stroke="#b1b1b1" stroke-width="15px" stroke-linejoin="round"/>
<!-- Line -->
<polyline points=" 4233,4329 4397,2864 2514,1133 1826,2214 4233,4329"
	stroke="#b1b1b1" stroke-width="15px" stroke-linejoin="round"/>
<!-- Line -->
<polyline points=" 3587,4527 3751,3062 1868,1331 1180,2412 3587,4527"
	stroke="#b1b1b1" stroke-width="15px" stroke-linejoin="round"/>
<!-- Line -->
<polyline points=" -2450,1594 -3581,1778 -3562,1982 -3893,2186 -3827,2457 -4199,2594 -4128,2877
 -4487,3087 -3351,2876 -2456,1591"
	stroke="#b1b1b1" stroke-width="15px" stroke-linejoin="round"/>
<!-- Line -->
<polyline points=" -2297,1859 -3617,2103 -3797,2277 -3611,2481 -4086,2733 -3989,3111 -4426,3434
 -3147,3194 -2297,1859"
	stroke="#b1b1b1" stroke-width="15px" stroke-linejoin="round"/>
<!-- Line -->
<polyline points=" 1871,1321 803,1518 657,1659 808,1824 424,2028 502,2334 148,2596 1183,2402 1871,1321
"
	stroke="#b1b1b1" stroke-width="15px" stroke-linejoin="round"/>
<!-- Line -->
<polyline points=" -2455,1594 -2481,432 -2580,818 -2802,739 -2821,1168 -3130,1073 -3202,1436 -3487,1337
 -3359,2875 -2455,1594"
	stroke="#b1b1b1" stroke-width="15px" stroke-linejoin="round"/>
<!-- Line -->
<polyline points=" -1879,1562 -1912,327 -2041,727 -2293,709 -2289,1050 -2530,1025 -2587,1288 -2768,1314
 -2692,2946 -1888,1561"
	stroke="#b1b1b1" stroke-width="15px" stroke-linejoin="round"/>
<!-- Line -->
<polyline points=" 2515,1143 2456,82 2352,406 2148,391 2151,668 1956,647 1910,860 1764,881 1825,2202
 2512,1132"
	stroke="#b1b1b1" stroke-width="15px" stroke-linejoin="round"/>
<!-- Line -->
<defs>
<clipPath id="cp0">
	<path clip-rule="evenodd" d="M -4509,60 H 4419 V 4549 H -4509 z
		M -3683,2856 -3523,2901 -3655,3002 -3494,2906 -3498,2886z"/>
</clipPath>
</defs>
<polyline points=" -3506,2898 -3866,2966" clip-path="url(#cp0)"
	stroke="#2a2a2a" stroke-width="15px"/>
<!-- Backward arrow to point -3506,2898 -->
<polyline points=" -3683,2856 -3523,2901 -3655,3002"
	stroke="#2a2a2a" stroke-width="15px" stroke-miterlimit="8"/>
<!-- Line -->
<polyline points=" -3864,2966 -4230,3032"
	stroke="#2a2a2a" stroke-width="15px" stroke-dasharray="30 30"/>
<!-- Line -->
<polyline points=" -3763,3311 -4076,3360"
	stroke="#2a2a2a" stroke-width="15px" stroke-dasharray="30 30"/>
<!-- Line -->
<polyline points=" -3462,3265 -3769,3315"
	stroke="#2a2a2a" stroke-width="15px"/>
<!-- Line -->
<defs>
<clipPath id="cp1">
	<path clip-rule="evenodd" d="M -4509,60 H 4419 V 4549 H -4509 z
		M -2808,3589 -2873,3436 -2712,3475 -2888,3410 -2902,3426z"/>
</clipPath>
</defs>
<polyline points=" -2887,3425 -2556,3704" clip-path="url(#cp1)"
	stroke="#2a2a2a" stroke-width="15px"/>
<!-- Backward arrow to point -2887,3425 -->
<polyline points=" -2808,3589 -2873,3436 -2712,3475"
	stroke="#2a2a2a" stroke-width="15px" stroke-miterlimit="8"/>
<!-- Line -->
<polyline points=" -2561,3701 -2333,3907"
	stroke="#2a2a2a" stroke-width="15px" stroke-dasharray="30 30"/>
<!-- Line -->
<polyline points=" -2195,3386 -1966,3592"
	stroke="#2a2a2a" stroke-width="15px" stroke-dasharray="30 30"/>
<!-- Line -->
<polyline points=" -2516,3089 -2189,3385"
	stroke="#2a2a2a" stroke-width="15px"/>
<!-- Line -->
<polyline points=" -1734,2388 -2085,2049"
	stroke="#2a2a2a" stroke-width="15px"/>
<!-- Line -->
<polyline points=" -1739,2383 -1511,2588"
	stroke="#2a2a2a" stroke-width="15px" stroke-dasharray="30 30"/>
<!-- Line -->
<polyline points=" -1431,1965 -1203,2171"
	stroke="#2a2a2a" stroke-width="15px" stroke-dasharray="30 30"/>
<!-- Line -->
<defs>
<clipPath id="cp2">
	<path clip-rule="evenodd" d="M -4509,60 H 4419 V 4549 H -4509 z
		M -1649,1876 -1713,1723 -1552,1764 -1727,1696 -1741,1712z"/>
</clipPath>
</defs>
<polyline points=" -1726,1711 -1427,1971" clip-path="url(#cp2)"
	stroke="#2a2a2a" stroke-width="15px"/>
<!-- Backward arrow to point -1726,1711 -->
<polyline points=" -1649,1876 -1713,1723 -1552,1764"
	stroke="#2a2a2a" stroke-width="15px" stroke-miterlimit="8"/>
<!-- Line -->
<polyline points=" -1883,1034 -1880,1350"
	stroke="#2a2a2a" stroke-width="15px"/>
<!-- Line -->
<polyline points=" -1900,785 -1881,1053"
	stroke="#2a2a2a" stroke-width="15px" stroke-dasharray="30 30"/>
<!-- Line -->
<polyline points=" -2480,611 -2469,901"
	stroke="#2a2a2a" stroke-width="15px" stroke-dasharray="30 30"/>
<!-- Line -->
<defs>
<clipPath id="cp3">
	<path clip-rule="evenodd" d="M -4509,60 H 4419 V 4549 H -4509 z
		M -2384,1030 -2454,1180 -2532,1034 -2463,1209 -2442,1208z"/>
</clipPath>
</defs>
<polyline points=" -2453,1198 -2463,858" clip-path="url(#cp3)"
	stroke="#2a2a2a" stroke-width="15px"/>
<!-- Backward arrow to point -2453,1198 -->
<polyline points=" -2384,1030 -2454,1180 -2532,1034"
	stroke="#2a2a2a" stroke-width="15px" stroke-miterlimit="8"/>
<!-- Line -->
<polyline points=" -3458,1714 -3425,2053"
	stroke="#2a2a2a" stroke-width="15px" stroke-dasharray="30 30"/>
<!-- Line -->
<polyline points=" -3407,2354 -3429,2042"
	stroke="#2a2a2a" stroke-width="15px"/>
<!-- Line -->
<polyline points=" -2997,1684 -3344,1738"
	stroke="#2a2a2a" stroke-width="15px" stroke-dasharray="30 30"/>
<!-- Line -->
<polyline points=" -2623,1624 -3001,1684"
	stroke="#2a2a2a" stroke-width="15px"/>
<!-- Line -->
<polyline points=" -2925,1982 -3242,2036"
	stroke="#2a2a2a" stroke-width="15px" stroke-dasharray="30 30"/>
<!-- Line -->
<defs>
<clipPath id="cp4">
	<path clip-rule="evenodd" d="M -4509,60 H 4419 V 4549 H -4509 z
		M -2792,1885 -2635,1936 -2770,2031 -2605,1942 -2608,1921z"/>
</clipPath>
</defs>
<polyline points=" -2617,1933 -2936,1982" clip-path="url(#cp4)"
	stroke="#2a2a2a" stroke-width="15px"/>
<!-- Backward arrow to point -2617,1933 -->
<polyline points=" -2792,1885 -2635,1936 -2770,2031"
	stroke="#2a2a2a" stroke-width="15px" stroke-miterlimit="8"/>
<!-- Line -->
<defs>
<clipPath id="cp5">
	<path clip-rule="evenodd" d="M -4509,60 H 4419 V 4549 H -4509 z
		M -2647,2508 -2712,2660 -2795,2517 -2721,2689 -2700,2688z"/>
</clipPath>
</defs>
<polyline points=" -2711,2678 -2733,2311" clip-path="url(#cp5)"
	stroke="#2a2a2a" stroke-width="15px"/>
<!-- Backward arrow to point -2711,2678 -->
<polyline points=" -2647,2508 -2712,2660 -2795,2517"
	stroke="#2a2a2a" stroke-width="15px" stroke-miterlimit="8"/>
<!-- Line -->
<polyline points=" -2738,2060 -2725,2331"
	stroke="#2a2a2a" stroke-width="15px" stroke-dasharray="30 30"/>
<!-- Line -->
<defs>
<clipPath id="cp6">
	<path clip-rule="evenodd" d="M -4509,60 H 4419 V 4549 H -4509 z
		M -2246,2131 -2092,2050 -2086,2225 -2049,2028 -2093,2002z
		M -2647,2508 -2712,2660 -2795,2517 -2721,2689 -2700,2688z"/>
</clipPath>
</defs>
<polyline points=" -2898,3435 -2084,2037" clip-path="url(#cp6)"
	stroke="#000000" stroke-width="45px"/>
<!-- Forward arrow to point -2084,2037 -->
<polyline points=" -2246,2131 -2092,2050 -2086,2225"
	stroke="#000000" stroke-width="15px" stroke-miterlimit="8"/>
<!-- Line -->
<defs>
<clipPath id="cp7">
	<path clip-rule="evenodd" d="M -4509,60 H 4419 V 4549 H -4509 z
		M -2357,3004 -2511,3088 -2519,2913 -2553,3111 -2508,3136z
		M -2647,2508 -2712,2660 -2795,2517 -2721,2689 -2700,2688z"/>
</clipPath>
</defs>
<polyline points=" -1734,1707 -2518,3101" clip-path="url(#cp7)"
	stroke="#000000" stroke-width="45px"/>
<!-- Forward arrow to point -2518,3101 -->
<polyline points=" -2357,3004 -2511,3088 -2519,2913"
	stroke="#000000" stroke-width="15px" stroke-miterlimit="8"/>
<!-- Line -->
<defs>
<clipPath id="cp8">
	<path clip-rule="evenodd" d="M -4509,60 H 4419 V 4549 H -4509 z
		M -2036,1415 -1880,1337 -1878,1512 -1837,1316 -1880,1289z
		M -2647,2508 -2712,2660 -2795,2517 -2721,2689 -2700,2688z"/>
</clipPath>
</defs>
<polyline points=" -2722,2711 -1872,1324" clip-path="url(#cp8)"
	stroke="#000000" stroke-width="45px"/>
<!-- Forward arrow to point -1872,1324 -->
<polyline points=" -2036,1415 -1880,1337 -1878,1512"
	stroke="#000000" stroke-width="15px" stroke-miterlimit="8"/>
<!-- Line -->
<defs>
<clipPath id="cp9">
	<path clip-rule="evenodd" d="M -4509,60 H 4419 V 4549 H -4509 z
		M -3221,2322 -3386,2381 -3367,2207 -3431,2397 -3391,2429z
		M -2647,2508 -2712,2660 -2795,2517 -2721,2689 -2700,2688z"/>
</clipPath>
</defs>
<polyline points=" -2448,1182 -3395,2393" clip-path="url(#cp9)"
	stroke="#000000" stroke-width="45px"/>
<!-- Forward arrow to point -3395,2393 -->
<polyline points=" -3221,2322 -3386,2381 -3367,2207"
	stroke="#000000" stroke-width="15px" stroke-miterlimit="8"/>
<!-- Line -->
<defs>
<clipPath id="cp10">
	<path clip-rule="evenodd" d="M -4509,60 H 4419 V 4549 H -4509 z
		M -2727,1681 -2565,1615 -2577,1790 -2520,1597 -2562,1567z
		M -2647,2508 -2712,2660 -2795,2517 -2721,2689 -2700,2688z"/>
</clipPath>
</defs>
<polyline points=" -3489,2887 -2556,1603" clip-path="url(#cp10)"
	stroke="#000000" stroke-width="45px"/>
<!-- Forward arrow to point -2556,1603 -->
<polyline points=" -2727,1681 -2565,1615 -2577,1790"
	stroke="#000000" stroke-width="15px" stroke-miterlimit="8"/>
<!-- Line -->
<defs>
<clipPath id="cp11">
	<path clip-rule="evenodd" d="M -4509,60 H 4419 V 4549 H -4509 z
		M -3315,3181 -3475,3253 -3469,3078 -3518,3272 -3476,3300z
		M -2647,2508 -2712,2660 -2795,2517 -2721,2689 -2700,2688z"/>
</clipPath>
</defs>
<polyline points=" -2583,1922 -3483,3265" clip-path="url(#cp11)"
	stroke="#000000" stroke-width="45px"/>
<!-- Forward arrow to point -3483,3265 -->
<polyline points=" -3315,3181 -3475,3253 -3469,3078"
	stroke="#000000" stroke-width="15px" stroke-miterlimit="8"/>
<!-- Line -->
<defs>
<clipPath id="cp12">
	<path clip-rule="evenodd" d="M -4509,60 H 4419 V 4549 H -4509 z
		M 1808,1725 1933,1659 1938,1800 1976,1637 1932,1611z
		M -2647,2508 -2712,2660 -2795,2517 -2721,2689 -2700,2688z"/>
</clipPath>
</defs>
<polyline points=" 1484,2432 1941,1646" clip-path="url(#cp12)"
	stroke="#000000" stroke-width="45px"/>
<!-- Forward arrow to point 1941,1646 -->
<polyline points=" 1808,1725 1933,1659 1938,1800"
	stroke="#000000" stroke-width="15px" stroke-miterlimit="8"/>
<!-- Line -->
<defs>
<clipPath id="cp13">
	<path clip-rule="evenodd" d="M -4509,60 H 4419 V 4549 H -4509 z
		M 2169,2144 2042,2205 2043,2064 1999,2226 2042,2253z
		M -2647,2508 -2712,2660 -2795,2517 -2721,2689 -2700,2688z"/>
</clipPath>
</defs>
<polyline points=" 2586,1344 2034,2218" clip-path="url(#cp13)"
	stroke="#000000" stroke-width="45px"/>
<!-- Forward arrow to point 2034,2218 -->
<polyline points=" 2169,2144 2042,2205 2043,2064"
	stroke="#000000" stroke-width="15px" stroke-miterlimit="8"/>
<!-- Line -->
<defs>
<clipPath id="cp14">
	<path clip-rule="evenodd" d="M -4509,60 H 4419 V 4549 H -4509 z
		M 4040,3851 4083,3985 3943,3965 4097,4031 4130,3992z
		M -2647,2508 -2712,2660 -2795,2517 -2721,2689 -2700,2688z"/>
</clipPath>
</defs>
<polyline points=" 2020,2237 4094,3995" clip-path="url(#cp14)"
	stroke="#000000" stroke-width="45px"/>
<!-- Forward arrow to point 4094,3995 -->
<polyline points=" 4040,3851 4083,3985 3943,3965"
	stroke="#000000" stroke-width="15px" stroke-miterlimit="8"/>
<!-- Line -->
<defs>
<clipPath id="cp15">
	<path clip-rule="evenodd" d="M -4509,60 H 4419 V 4549 H -4509 z
		M 4147,3084 4234,2973 4296,3100 4264,2935 4213,2930z
		M -2647,2508 -2712,2660 -2795,2517 -2721,2689 -2700,2688z"/>
</clipPath>
</defs>
<polyline points=" 4121,4014 4236,2958" clip-path="url(#cp15)"
	stroke="#000000" stroke-width="45px"/>
<!-- Forward arrow to point 4236,2958 -->
<polyline points=" 4147,3084 4234,2973 4296,3100"
	stroke="#000000" stroke-width="15px" stroke-miterlimit="8"/>
<!-- Line -->
<defs>
<clipPath id="cp16">
	<path clip-rule="evenodd" d="M -4509,60 H 4419 V 4549 H -4509 z
		M 2655,1514 2620,1377 2758,1406 2608,1331 2573,1368z
		M -2647,2508 -2712,2660 -2795,2517 -2721,2689 -2700,2688z"/>
</clipPath>
</defs>
<polyline points=" 4246,2933 2609,1367" clip-path="url(#cp16)"
	stroke="#000000" stroke-width="45px"/>
<!-- Forward arrow to point 2609,1367 -->
<polyline points=" 2655,1514 2620,1377 2758,1406"
	stroke="#000000" stroke-width="15px" stroke-miterlimit="8"/>
<!-- Line -->
<defs>
<clipPath id="cp17">
	<path clip-rule="evenodd" d="M -4509,60 H 4419 V 4549 H -4509 z
		M 3551,2950 3590,3086 3451,3062 3603,3132 3637,3094z
		M -2647,2508 -2712,2660 -2795,2517 -2721,2689 -2700,2688z"/>
</clipPath>
</defs>
<polyline points=" 1959,1619 3601,3096" clip-path="url(#cp17)"
	stroke="#000000" stroke-width="45px"/>
<!-- Forward arrow to point 3601,3096 -->
<polyline points=" 3551,2950 3590,3086 3451,3062"
	stroke="#000000" stroke-width="15px" stroke-miterlimit="8"/>
<!-- Line -->
<defs>
<clipPath id="cp18">
	<path clip-rule="evenodd" d="M -4509,60 H 4419 V 4549 H -4509 z
		M 1551,2589 1512,2453 1651,2478 1499,2407 1465,2445z
		M -2647,2508 -2712,2660 -2795,2517 -2721,2689 -2700,2688z"/>
</clipPath>
</defs>
<polyline points=" 3443,4195 1501,2443" clip-path="url(#cp18)"
	stroke="#000000" stroke-width="45px"/>
<!-- Forward arrow to point 1501,2443 -->
<polyline points=" 1551,2589 1512,2453 1651,2478"
	stroke="#000000" stroke-width="15px" stroke-miterlimit="8"/>
<!-- Line -->
<defs>
<clipPath id="cp19">
	<path clip-rule="evenodd" d="M -4509,60 H 4419 V 4549 H -4509 z
		M 3543,4043 3450,4150 3394,4020 3419,4186 3469,4194z
		M -2647,2508 -2712,2660 -2795,2517 -2721,2689 -2700,2688z"/>
</clipPath>
</defs>
<polyline points=" 3613,3087 3448,4165" clip-path="url(#cp19)"
	stroke="#000000" stroke-width="45px"/>
<!-- Forward arrow to point 3448,4165 -->
<polyline points=" 3543,4043 3450,4150 3394,4020"
	stroke="#000000" stroke-width="15px" stroke-miterlimit="8"/>
<!-- Text -->
<text xml:space="preserve" x="-1672" y="1429" fill="#343434" font-family="Times,Symbol" font-style="normal" font-weight="normal" font-size="264" text-anchor="start">&#946;</text>
<!-- Text -->
<text xml:space="preserve" x="-1456" y="1529" fill="#343434" font-family="Times" font-style="italic" font-weight="normal" font-size="192" text-anchor="start">2</text>
<!-- Text -->
<text xml:space="preserve" x="-2240" y="3080" fill="#343434" font-family="Times,Symbol" font-style="normal" font-weight="normal" font-size="264" text-anchor="start">&#946;</text>
<!-- Text -->
<text xml:space="preserve" x="-2024" y="3180" fill="#343434" font-family="Times" font-style="italic" font-weight="normal" font-size="192" text-anchor="start">3</text>
<!-- Text -->
<text xml:space="preserve" x="-3475" y="3712" fill="#343434" font-family="Times,Symbol" font-style="normal" font-weight="normal" font-size="264" text-anchor="start">&#946;</text>
<!-- Text -->
<text xml:space="preserve" x="-3259" y="3812" fill="#343434" font-family="Times" font-style="italic" font-weight="normal" font-size="192" text-anchor="start">1</text>
<!-- Text -->
<text xml:space="preserve" x="2407" y="2459" fill="#343434" font-family="Times,Symbol" font-style="normal" font-weight="normal" font-size="264" text-anchor="start">&#946;</text>
<!-- Text -->
<text xml:space="preserve" x="2615" y="2591" fill="#343434" font-family="Times" font-style="italic" font-weight="normal" font-size="192" text-anchor="start">1</text>
<!-- Text -->
<text xml:space="preserve" x="1189" y="2132" fill="#343434" font-family="Times,Symbol" font-style="normal" font-weight="normal" font-size="264" text-anchor="start">&#946;</text>
<!-- Text -->
<text xml:space="preserve" x="1397" y="2264" fill="#343434" font-family="Times" font-style="italic" font-weight="normal" font-size="192" text-anchor="start">3</text>
<!-- Text -->
<text xml:space="preserve" x="2737" y="2039" fill="#343434" font-family="Times,Symbol" font-style="normal" font-weight="normal" font-size="264" text-anchor="start">&#946;</text>
<!-- Text -->
<text xml:space="preserve" x="2945" y="2171" fill="#343434" font-family="Times" font-style="italic" font-weight="normal" font-size="192" text-anchor="start">0</text>
<!-- Arc -->
<path d="M -2325,2819 A 313 313 0 0 1 -2784 3238"
	stroke="#343434" stroke-width="15px"/>
<!-- Arc -->
<path d="M -2009,1554 A 217 217 0 1 1 -1836 1906"
	stroke="#343434" stroke-width="15px"/>
<!-- Arc -->
<defs>
<clipPath id="cp20">
	<path clip-rule="evenodd" d="M -4509,60 H 4419 V 4549 H -4509 z
		M -3541,3474 -3606,3320 -3444,3359 -3621,3293 -3635,3309z
		M -2647,2508 -2712,2660 -2795,2517 -2721,2689 -2700,2688z"/>
</clipPath>
</defs>
<path d="M -3319,3088 A 191 191 0 1 1 -3620 3308" clip-path="url(#cp20)"
	stroke="#343434" stroke-width="15px"/>
<!-- Forward arrow to point -3620,3308 -->
<polyline points=" -3541,3474 -3606,3320 -3444,3359"
	stroke="#343434" stroke-width="15px" stroke-miterlimit="8"/>
<!-- Arc -->
<path d="M 2159,2002 A 330 330 0 0 0 1571 2295"
	stroke="#343434" stroke-width="15px"/>
<!-- Arc -->
<defs>
<clipPath id="cp21">
	<path clip-rule="evenodd" d="M -4509,60 H 4419 V 4549 H -4509 z
		M 2391,2366 2264,2407 2307,2280 2236,2420 2251,2435z
		M -2647,2508 -2712,2660 -2795,2517 -2721,2689 -2700,2688z"/>
</clipPath>
</defs>
<path d="M 2185,2021 A 211 211 0 0 1 2251 2420" clip-path="url(#cp21)"
	stroke="#343434" stroke-width="15px"/>
<!-- Forward arrow to point 2251,2420 -->
<polyline points=" 2391,2366 2264,2407 2307,2280"
	stroke="#343434" stroke-width="15px" stroke-miterlimit="8"/>
<!-- Arc -->
<defs>
<clipPath id="cp22">
	<path clip-rule="evenodd" d="M -4509,60 H 4419 V 4549 H -4509 z
		M 2710,1686 2825,1617 2811,1751 2848,1599 2831,1588z
		M -2647,2508 -2712,2660 -2795,2517 -2721,2689 -2700,2688z"/>
</clipPath>
</defs>
<path d="M 2473,1523 A 185 185 0 1 0 2834 1602" clip-path="url(#cp22)"
	stroke="#343434" stroke-width="15px"/>
<!-- Forward arrow to point 2834,1602 -->
<polyline points=" 2710,1686 2825,1617 2811,1751"
	stroke="#343434" stroke-width="15px" stroke-miterlimit="8"/>
</g>
</svg>
