<?xml version="1.0" encoding="UTF-8" standalone="no"?>
<!-- Creator: fig2dev Version 3.2.8 -->
<!-- CreationDate: 2022-05-05 19:05:07 -->
<!-- Magnification: 1.05 -->
<svg	xmlns="http://www.w3.org/2000/svg"
	xmlns:xlink="http://www.w3.org/1999/xlink"
	width="638pt" height="312pt"
	viewBox="180 -335 10116 4943">
<g fill="none">
<!-- Line -->
<defs>
<clipPath id="cp0">
	<path clip-rule="evenodd" d="M 180,-335 H 10296 V 4608 H 180 z
		M 2700,2376 2893,2497 2680,2579 2908,2505 2909,2492z"/>
</clipPath>
</defs>
<polyline points=" 1006,2315 2902,2498" clip-path="url(#cp0)"
	stroke="#535353" stroke-width="8px" stroke-linejoin="round"/>
<!-- Forward arrow to point 2902,2498 -->
<polyline points=" 2700,2376 2893,2497 2680,2579"
	stroke="#535353" stroke-width="8px" stroke-miterlimit="8"/>
<!-- Line -->
<polyline points=" 1972,2612 1943,2405"
	stroke="#9f9f9f" stroke-width="8px" stroke-linejoin="round"/>
<!-- Line -->
<defs>
<clipPath id="cp1">
	<path clip-rule="evenodd" d="M 180,-335 H 10296 V 4608 H 180 z
		M 1229,2641 1036,2520 1249,2438 1021,2512 1020,2525z"/>
</clipPath>
</defs>
<polyline points=" 2936,2707 1027,2519" clip-path="url(#cp1)"
	stroke="#535353" stroke-width="8px" stroke-linejoin="round"/>
<!-- Forward arrow to point 1027,2519 -->
<polyline points=" 1229,2641 1036,2520 1249,2438"
	stroke="#535353" stroke-width="8px" stroke-miterlimit="8"/>
<!-- Line -->
<defs>
<clipPath id="cp2">
	<path clip-rule="evenodd" d="M 180,-335 H 10296 V 4608 H 180 z
		M 8114,2283 8337,2328 8167,2480 8354,2331 8351,2318z"/>
</clipPath>
</defs>
<polyline points=" 6355,2865 8346,2326" clip-path="url(#cp2)"
	stroke="#535353" stroke-width="8px" stroke-linejoin="round"/>
<!-- Forward arrow to point 8346,2326 -->
<polyline points=" 8114,2283 8337,2328 8167,2480"
	stroke="#535353" stroke-width="8px" stroke-miterlimit="8"/>
<!-- Line -->
<polyline points=" 7520,2795 7375,2589"
	stroke="#9f9f9f" stroke-width="8px" stroke-linejoin="round"/>
<!-- Line -->
<defs>
<clipPath id="cp3">
	<path clip-rule="evenodd" d="M 180,-335 H 10296 V 4608 H 180 z
		M 6734,3120 6511,3077 6680,2924 6494,3074 6497,3087z"/>
</clipPath>
</defs>
<polyline points=" 8493,2525 6502,3079" clip-path="url(#cp3)"
	stroke="#535353" stroke-width="8px" stroke-linejoin="round"/>
<!-- Forward arrow to point 6502,3079 -->
<polyline points=" 6734,3120 6511,3077 6680,2924"
	stroke="#535353" stroke-width="8px" stroke-miterlimit="8"/>
<!-- Line -->
<defs>
<clipPath id="cp4">
	<path clip-rule="evenodd" d="M 180,-335 H 10296 V 4608 H 180 z
		M 1101,2099 1006,2306 897,2105 999,2322 1013,2322z"/>
</clipPath>
</defs>
<polyline points=" 952,569 1006,2315" clip-path="url(#cp4)"
	stroke="#535353" stroke-width="8px" stroke-linejoin="round"/>
<!-- Forward arrow to point 1006,2315 -->
<polyline points=" 1101,2099 1006,2306 897,2105"
	stroke="#535353" stroke-width="8px" stroke-miterlimit="8"/>
<!-- Line -->
<polyline points=" 811,1492 979,1471"
	stroke="#9f9f9f" stroke-width="8px" stroke-linejoin="round"/>
<!-- Line -->
<defs>
<clipPath id="cp5">
	<path clip-rule="evenodd" d="M 180,-335 H 10296 V 4608 H 180 z
		M 8671,323 8779,122 8875,329 8786,106 8772,106z"/>
</clipPath>
</defs>
<polyline points=" 8727,1999 8779,113" clip-path="url(#cp5)"
	stroke="#535353" stroke-width="8px" stroke-linejoin="round"/>
<!-- Forward arrow to point 8779,113 -->
<polyline points=" 8671,323 8779,122 8875,329"
	stroke="#535353" stroke-width="8px" stroke-miterlimit="8"/>
<!-- Line -->
<polyline points=" 8969,1226 8752,1097"
	stroke="#9f9f9f" stroke-width="8px" stroke-linejoin="round"/>
<!-- Line -->
<defs>
<clipPath id="cp6">
	<path clip-rule="evenodd" d="M 180,-335 H 10296 V 4608 H 180 z
		M 9045,1917 8935,2117 8841,1909 8928,2132 8941,2133z"/>
</clipPath>
</defs>
<polyline points=" 9005,242 8935,2126" clip-path="url(#cp6)"
	stroke="#535353" stroke-width="8px" stroke-linejoin="round"/>
<!-- Forward arrow to point 8935,2126 -->
<polyline points=" 9045,1917 8935,2117 8841,1909"
	stroke="#535353" stroke-width="8px" stroke-miterlimit="8"/>
<!-- Line -->
<defs>
<clipPath id="cp7">
	<path clip-rule="evenodd" d="M 180,-335 H 10296 V 4608 H 180 z
		M 1035,788 965,582 1172,649 952,544 927,569z"/>
</clipPath>
</defs>
<polyline points=" 2902,2498 952,569" clip-path="url(#cp7)"
	stroke="#000000" stroke-width="30px" stroke-linejoin="round"/>
<!-- Forward arrow to point 952,569 -->
<polyline points=" 1035,788 965,582 1172,649"
	stroke="#000000" stroke-width="15px" stroke-miterlimit="8"/>
<!-- Line -->
<defs>
<clipPath id="cp8">
	<path clip-rule="evenodd" d="M 180,-335 H 10296 V 4608 H 180 z
		M 683,797 777,589 887,789 783,573 770,574z"/>
</clipPath>
</defs>
<polyline points=" 843,2344 777,580" clip-path="url(#cp8)"
	stroke="#535353" stroke-width="8px" stroke-linejoin="round"/>
<!-- Forward arrow to point 777,580 -->
<polyline points=" 683,797 777,589 887,789"
	stroke="#535353" stroke-width="8px" stroke-miterlimit="8"/>
<!-- Line -->
<polyline points=" 2074,1455 1950,1557"
	stroke="#9f9f9f" stroke-width="8px" stroke-linejoin="round"/>
<!-- Line -->
<defs>
<clipPath id="cp9">
	<path clip-rule="evenodd" d="M 180,-335 H 10296 V 4608 H 180 z
		M 8547,2755 8499,2532 8706,2627 8494,2516 8484,2524z"/>
</clipPath>
</defs>
<polyline points=" 9525,3809 8493,2525" clip-path="url(#cp9)"
	stroke="#535353" stroke-width="8px" stroke-linejoin="round"/>
<!-- Forward arrow to point 8493,2525 -->
<polyline points=" 8547,2755 8499,2532 8706,2627"
	stroke="#535353" stroke-width="8px" stroke-miterlimit="8"/>
<!-- Line -->
<polyline points=" 8981,3131 8987,2965"
	stroke="#9f9f9f" stroke-width="8px" stroke-linejoin="round"/>
<!-- Line -->
<defs>
<clipPath id="cp10">
	<path clip-rule="evenodd" d="M 180,-335 H 10296 V 4608 H 180 z
		M 2950,2182 3023,2399 2806,2327 3029,2415 3039,2405z"/>
</clipPath>
</defs>
<polyline points=" 1074,460 3029,2405" clip-path="url(#cp10)"
	stroke="#000000" stroke-width="8px" stroke-linejoin="round"/>
<!-- Forward arrow to point 3029,2405 -->
<polyline points=" 2950,2182 3023,2399 2806,2327"
	stroke="#000000" stroke-width="8px" stroke-miterlimit="8"/>
<!-- Line -->
<polyline points=" 9445,2718 9255,2772"
	stroke="#9f9f9f" stroke-width="8px" stroke-linejoin="round"/>
<!-- Line -->
<defs>
<clipPath id="cp11">
	<path clip-rule="evenodd" d="M 180,-335 H 10296 V 4608 H 180 z
		M 9950,3148 10006,3369 9796,3281 10011,3386 10022,3377z"/>
</clipPath>
</defs>
<polyline points=" 8935,2126 10012,3376" clip-path="url(#cp11)"
	stroke="#535353" stroke-width="8px" stroke-linejoin="round"/>
<!-- Forward arrow to point 10012,3376 -->
<polyline points=" 9950,3148 10006,3369 9796,3281"
	stroke="#535353" stroke-width="8px" stroke-miterlimit="8"/>
<!-- Line -->
<defs>
<clipPath id="cp12">
	<path clip-rule="evenodd" d="M 180,-335 H 10296 V 4608 H 180 z
		M 6321,1166 6204,971 6431,994 6194,957 6187,968z"/>
</clipPath>
</defs>
<polyline points=" 8346,2326 6196,966" clip-path="url(#cp12)"
	stroke="#535353" stroke-width="8px" stroke-linejoin="round"/>
<!-- Forward arrow to point 6196,966 -->
<polyline points=" 6321,1166 6204,971 6431,994"
	stroke="#535353" stroke-width="8px" stroke-miterlimit="8"/>
<!-- Line -->
<polyline points=" 7493,1725 7346,1693"
	stroke="#9f9f9f" stroke-width="8px" stroke-linejoin="round"/>
<!-- Line -->
<defs>
<clipPath id="cp13">
	<path clip-rule="evenodd" d="M 180,-335 H 10296 V 4608 H 180 z
		M 3005,827 3117,628 3208,837 3124,613 3111,612z"/>
</clipPath>
</defs>
<polyline points=" 3029,2405 3117,619" clip-path="url(#cp13)"
	stroke="#535353" stroke-width="8px" stroke-linejoin="round"/>
<!-- Forward arrow to point 3117,619 -->
<polyline points=" 3005,827 3117,628 3208,837"
	stroke="#535353" stroke-width="8px" stroke-miterlimit="8"/>
<!-- Line -->
<polyline points=" 7740,1342 7761,1526"
	stroke="#9f9f9f" stroke-width="8px" stroke-linejoin="round"/>
<!-- Line -->
<defs>
<clipPath id="cp14">
	<path clip-rule="evenodd" d="M 180,-335 H 10296 V 4608 H 180 z
		M 8606,1796 8720,1994 8493,1966 8729,2008 8736,1997z"/>
</clipPath>
</defs>
<polyline points=" 6604,587 8727,1999" clip-path="url(#cp14)"
	stroke="#535353" stroke-width="8px" stroke-linejoin="round"/>
<!-- Forward arrow to point 8727,1999 -->
<polyline points=" 8606,1796 8720,1994 8493,1966"
	stroke="#535353" stroke-width="8px" stroke-miterlimit="8"/>
<!-- Line -->
<polyline points=" 3072,1541 3176,1700"
	stroke="#9f9f9f" stroke-width="8px" stroke-linejoin="round"/>
<!-- Line -->
<polyline points=" 795,3045 600,2863"
	stroke="#9f9f9f" stroke-width="8px" stroke-linejoin="round"/>
<!-- Line -->
<defs>
<clipPath id="cp15">
	<path clip-rule="evenodd" d="M 180,-335 H 10296 V 4608 H 180 z
		M 714,3480 539,3626 528,3398 526,3637 538,3643z"/>
</clipPath>
</defs>
<polyline points=" 1027,2519 535,3634" clip-path="url(#cp15)"
	stroke="#535353" stroke-width="8px" stroke-linejoin="round"/>
<!-- Forward arrow to point 535,3634 -->
<polyline points=" 714,3480 539,3626 528,3398"
	stroke="#535353" stroke-width="8px" stroke-miterlimit="8"/>
<!-- Line -->
<defs>
<clipPath id="cp16">
	<path clip-rule="evenodd" d="M 180,-335 H 10296 V 4608 H 180 z
		M 660,2493 839,2352 845,2580 852,2341 840,2335z"/>
</clipPath>
</defs>
<polyline points=" 326,3446 843,2344" clip-path="url(#cp16)"
	stroke="#535353" stroke-width="8px" stroke-linejoin="round"/>
<!-- Forward arrow to point 843,2344 -->
<polyline points=" 660,2493 839,2352 845,2580"
	stroke="#535353" stroke-width="8px" stroke-miterlimit="8"/>
<!-- Line -->
<defs>
<clipPath id="cp17">
	<path clip-rule="evenodd" d="M 180,-335 H 10296 V 4608 H 180 z
		M 3244,2361 3131,2559 3040,2350 3124,2574 3137,2575z"/>
</clipPath>
</defs>
<polyline points=" 3226,773 3131,2568" clip-path="url(#cp17)"
	stroke="#535353" stroke-width="8px" stroke-linejoin="round"/>
<!-- Forward arrow to point 3131,2568 -->
<polyline points=" 3244,2361 3131,2559 3040,2350"
	stroke="#535353" stroke-width="8px" stroke-miterlimit="8"/>
<!-- Line -->
<defs>
<clipPath id="cp18">
	<path clip-rule="evenodd" d="M 180,-335 H 10296 V 4608 H 180 z
		M 6439,2644 6354,2856 6236,2661 6349,2872 6362,2871z"/>
</clipPath>
</defs>
<polyline points=" 6196,966 6355,2865" clip-path="url(#cp18)"
	stroke="#535353" stroke-width="8px" stroke-linejoin="round"/>
<!-- Forward arrow to point 6355,2865 -->
<polyline points=" 6439,2644 6354,2856 6236,2661"
	stroke="#535353" stroke-width="8px" stroke-miterlimit="8"/>
<!-- Line -->
<polyline points=" 6205,2049 6280,1959"
	stroke="#9f9f9f" stroke-width="8px" stroke-linejoin="round"/>
<!-- Line -->
<defs>
<clipPath id="cp19">
	<path clip-rule="evenodd" d="M 180,-335 H 10296 V 4608 H 180 z
		M 1278,578 1083,461 1294,375 1068,453 1067,466z"/>
</clipPath>
</defs>
<polyline points=" 3117,619 1074,460" clip-path="url(#cp19)"
	stroke="#535353" stroke-width="8px" stroke-linejoin="round"/>
<!-- Forward arrow to point 1074,460 -->
<polyline points=" 1278,578 1083,461 1294,375"
	stroke="#535353" stroke-width="8px" stroke-miterlimit="8"/>
<!-- Line -->
<defs>
<clipPath id="cp20">
	<path clip-rule="evenodd" d="M 180,-335 H 10296 V 4608 H 180 z
		M 2794,2893 2932,2724 2984,2936 2958,2693 2922,2685z"/>
</clipPath>
</defs>
<polyline points=" 2673,3874 2936,2707" clip-path="url(#cp20)"
	stroke="#000000" stroke-width="30px" stroke-linejoin="round"/>
<!-- Forward arrow to point 2936,2707 -->
<polyline points=" 2794,2893 2932,2724 2984,2936"
	stroke="#000000" stroke-width="15px" stroke-miterlimit="8"/>
<!-- Line -->
<polyline points=" 2813,3258 3017,3113"
	stroke="#9f9f9f" stroke-width="8px" stroke-linejoin="round"/>
<!-- Line -->
<defs>
<clipPath id="cp21">
	<path clip-rule="evenodd" d="M 180,-335 H 10296 V 4608 H 180 z
		M 7327,4267 7343,4494 7151,4371 7346,4511 7357,4504z"/>
</clipPath>
</defs>
<polyline points=" 6502,3079 7348,4502" clip-path="url(#cp21)"
	stroke="#535353" stroke-width="8px" stroke-linejoin="round"/>
<!-- Forward arrow to point 7348,4502 -->
<polyline points=" 7327,4267 7343,4494 7151,4371"
	stroke="#535353" stroke-width="8px" stroke-miterlimit="8"/>
<!-- Line -->
<polyline points=" 2083,537 1986,492"
	stroke="#9f9f9f" stroke-width="8px" stroke-linejoin="round"/>
<!-- Line -->
<defs>
<clipPath id="cp22">
	<path clip-rule="evenodd" d="M 180,-335 H 10296 V 4608 H 180 z
		M 6036,1264 6120,1052 6239,1246 6125,1036 6112,1037z"/>
</clipPath>
</defs>
<polyline points=" 6287,2967 6119,1043" clip-path="url(#cp22)"
	stroke="#535353" stroke-width="8px" stroke-linejoin="round"/>
<!-- Forward arrow to point 6119,1043 -->
<polyline points=" 6036,1264 6120,1052 6239,1246"
	stroke="#535353" stroke-width="8px" stroke-miterlimit="8"/>
<!-- Line -->
<polyline points=" 6899,3750 6679,3641"
	stroke="#9f9f9f" stroke-width="8px" stroke-linejoin="round"/>
<!-- Line -->
<defs>
<clipPath id="cp23">
	<path clip-rule="evenodd" d="M 180,-335 H 10296 V 4608 H 180 z
		M 6834,641 6613,585 6790,442 6596,582 6599,595z"/>
</clipPath>
</defs>
<polyline points=" 8779,113 6604,587" clip-path="url(#cp23)"
	stroke="#535353" stroke-width="8px" stroke-linejoin="round"/>
<!-- Forward arrow to point 6604,587 -->
<polyline points=" 6834,641 6613,585 6790,442"
	stroke="#535353" stroke-width="8px" stroke-miterlimit="8"/>
<!-- Line -->
<defs>
<clipPath id="cp24">
	<path clip-rule="evenodd" d="M 180,-335 H 10296 V 4608 H 180 z
		M 3033,3541 2892,3720 2833,3500 2882,3734 2895,3737z"/>
</clipPath>
</defs>
<polyline points=" 3131,2568 2890,3729" clip-path="url(#cp24)"
	stroke="#000000" stroke-width="8px" stroke-linejoin="round"/>
<!-- Forward arrow to point 2890,3729 -->
<polyline points=" 3033,3541 2892,3720 2833,3500"
	stroke="#000000" stroke-width="8px" stroke-miterlimit="8"/>
<!-- Line -->
<defs>
<clipPath id="cp25">
	<path clip-rule="evenodd" d="M 180,-335 H 10296 V 4608 H 180 z
		M 2828,453 3024,570 2813,657 3039,578 3040,565z"/>
</clipPath>
</defs>
<polyline points=" 961,415 3033,571" clip-path="url(#cp25)"
	stroke="#535353" stroke-width="8px" stroke-linejoin="round"/>
<!-- Forward arrow to point 3033,571 -->
<polyline points=" 2828,453 3024,570 2813,657"
	stroke="#535353" stroke-width="8px" stroke-miterlimit="8"/>
<!-- Line -->
<defs>
<clipPath id="cp26">
	<path clip-rule="evenodd" d="M 180,-335 H 10296 V 4608 H 180 z
		M 6306,3202 6291,2975 6482,3100 6289,2958 6278,2965z"/>
</clipPath>
</defs>
<polyline points=" 7119,4398 6287,2967" clip-path="url(#cp26)"
	stroke="#535353" stroke-width="8px" stroke-linejoin="round"/>
<!-- Forward arrow to point 6287,2967 -->
<polyline points=" 6306,3202 6291,2975 6482,3100"
	stroke="#535353" stroke-width="8px" stroke-miterlimit="8"/>
<!-- Line -->
<polyline points=" 7738,324 7720,344"
	stroke="#9f9f9f" stroke-width="8px" stroke-linejoin="round"/>
<!-- Line -->
<defs>
<clipPath id="cp27">
	<path clip-rule="evenodd" d="M 180,-335 H 10296 V 4608 H 180 z
		M 8585,36 8806,92 8629,235 8823,95 8820,82z"/>
</clipPath>
</defs>
<polyline points=" 6600,573 8815,90" clip-path="url(#cp27)"
	stroke="#535353" stroke-width="8px" stroke-linejoin="round"/>
<!-- Forward arrow to point 8815,90 -->
<polyline points=" 8585,36 8806,92 8629,235"
	stroke="#535353" stroke-width="8px" stroke-miterlimit="8"/>
<!-- Line -->
<defs>
<clipPath id="cp28">
	<path clip-rule="evenodd" d="M 180,-335 H 10296 V 4608 H 180 z
		M 9291,3776 9517,3812 9353,3971 9533,3813 9529,3801z"/>
</clipPath>
</defs>
<polyline points=" 7348,4502 9525,3809" clip-path="url(#cp28)"
	stroke="#535353" stroke-width="8px" stroke-linejoin="round"/>
<!-- Forward arrow to point 9525,3809 -->
<polyline points=" 9291,3776 9517,3812 9353,3971"
	stroke="#535353" stroke-width="8px" stroke-miterlimit="8"/>
<!-- Line -->
<polyline points=" 8500,4201 8466,4146"
	stroke="#9f9f9f" stroke-width="8px" stroke-linejoin="round"/>
<!-- Line -->
<defs>
<clipPath id="cp29">
	<path clip-rule="evenodd" d="M 180,-335 H 10296 V 4608 H 180 z
		M 9089,463 9011,248 9230,314 9005,232 8995,242z"/>
</clipPath>
</defs>
<polyline points=" 10203,1378 9005,242" clip-path="url(#cp29)"
	stroke="#535353" stroke-width="8px" stroke-linejoin="round"/>
<!-- Forward arrow to point 9005,242 -->
<polyline points=" 9089,463 9011,248 9230,314"
	stroke="#535353" stroke-width="8px" stroke-miterlimit="8"/>
<!-- Line -->
<defs>
<clipPath id="cp30">
	<path clip-rule="evenodd" d="M 180,-335 H 10296 V 4608 H 180 z
		M 7596,4596 7370,4561 7534,4402 7354,4560 7358,4572z"/>
</clipPath>
</defs>
<polyline points=" 9579,3854 7362,4564" clip-path="url(#cp30)"
	stroke="#535353" stroke-width="8px" stroke-linejoin="round"/>
<!-- Forward arrow to point 7362,4564 -->
<polyline points=" 7596,4596 7370,4561 7534,4402"
	stroke="#535353" stroke-width="8px" stroke-miterlimit="8"/>
<!-- Line -->
<polyline points=" 9373,621 9568,775"
	stroke="#9f9f9f" stroke-width="8px" stroke-linejoin="round"/>
<!-- Line -->
<defs>
<clipPath id="cp31">
	<path clip-rule="evenodd" d="M 180,-335 H 10296 V 4608 H 180 z
		M 2473,3749 2664,3873 2450,3952 2679,3881 2680,3868z"/>
</clipPath>
</defs>
<polyline points=" 535,3634 2673,3874" clip-path="url(#cp31)"
	stroke="#535353" stroke-width="8px" stroke-linejoin="round"/>
<!-- Forward arrow to point 2673,3874 -->
<polyline points=" 2473,3749 2664,3873 2450,3952"
	stroke="#535353" stroke-width="8px" stroke-miterlimit="8"/>
<!-- Line -->
<defs>
<clipPath id="cp32">
	<path clip-rule="evenodd" d="M 180,-335 H 10296 V 4608 H 180 z
		M 10081,1580 10202,1387 10284,1600 10210,1372 10197,1371z"/>
</clipPath>
</defs>
<polyline points=" 10012,3376 10203,1378" clip-path="url(#cp32)"
	stroke="#535353" stroke-width="8px" stroke-linejoin="round"/>
<!-- Forward arrow to point 10203,1378 -->
<polyline points=" 10081,1580 10202,1387 10284,1600"
	stroke="#535353" stroke-width="8px" stroke-miterlimit="8"/>
<!-- Line -->
<defs>
<clipPath id="cp33">
	<path clip-rule="evenodd" d="M 180,-335 H 10296 V 4608 H 180 z
		M 9919,1001 9997,1216 9778,1149 10003,1232 10013,1222z"/>
</clipPath>
</defs>
<polyline points=" 8815,90 10003,1222" clip-path="url(#cp33)"
	stroke="#535353" stroke-width="8px" stroke-linejoin="round"/>
<!-- Forward arrow to point 10003,1222 -->
<polyline points=" 9919,1001 9997,1216 9778,1149"
	stroke="#535353" stroke-width="8px" stroke-miterlimit="8"/>
<!-- Line -->
<polyline points=" 1480,3756 1591,3754"
	stroke="#9f9f9f" stroke-width="8px" stroke-linejoin="round"/>
<!-- Line -->
<defs>
<clipPath id="cp34">
	<path clip-rule="evenodd" d="M 180,-335 H 10296 V 4608 H 180 z
		M 405,1399 222,1517 238,1299 188,1538 219,1557z"/>
</clipPath>
</defs>
<polyline points=" 777,580 213,1532" clip-path="url(#cp34)"
	stroke="#000000" stroke-width="30px" stroke-linejoin="round"/>
<!-- Forward arrow to point 213,1532 -->
<polyline points=" 405,1399 222,1517 238,1299"
	stroke="#000000" stroke-width="15px" stroke-miterlimit="8"/>
<!-- Line -->
<polyline points=" 707,854 512,1027"
	stroke="#9f9f9f" stroke-width="8px" stroke-linejoin="round"/>
<!-- Line -->
<polyline points=" 10094,2532 10103,2426"
	stroke="#9f9f9f" stroke-width="8px" stroke-linejoin="round"/>
<!-- Line -->
<defs>
<clipPath id="cp35">
	<path clip-rule="evenodd" d="M 180,-335 H 10296 V 4608 H 180 z
		M 610,3761 419,3637 633,3558 404,3629 403,3642z"/>
</clipPath>
</defs>
<polyline points=" 2580,3879 410,3636" clip-path="url(#cp35)"
	stroke="#535353" stroke-width="8px" stroke-linejoin="round"/>
<!-- Forward arrow to point 410,3636 -->
<polyline points=" 610,3761 419,3637 633,3558"
	stroke="#535353" stroke-width="8px" stroke-miterlimit="8"/>
<!-- Line -->
<defs>
<clipPath id="cp36">
	<path clip-rule="evenodd" d="M 180,-335 H 10296 V 4608 H 180 z
		M 766,548 957,423 942,650 970,413 959,406z"/>
</clipPath>
</defs>
<polyline points=" 417,1353 961,415" clip-path="url(#cp36)"
	stroke="#000000" stroke-width="8px" stroke-linejoin="round"/>
<!-- Forward arrow to point 961,415 -->
<polyline points=" 766,548 957,423 942,650"
	stroke="#000000" stroke-width="8px" stroke-miterlimit="8"/>
<!-- Line -->
<defs>
<clipPath id="cp37">
	<path clip-rule="evenodd" d="M 180,-335 H 10296 V 4608 H 180 z
		M 10123,3291 10002,3484 9920,3271 9994,3499 10007,3500z"/>
</clipPath>
</defs>
<polyline points=" 10194,1469 10001,3493" clip-path="url(#cp37)"
	stroke="#535353" stroke-width="8px" stroke-linejoin="round"/>
<!-- Forward arrow to point 10001,3493 -->
<polyline points=" 10123,3291 10002,3484 9920,3271"
	stroke="#535353" stroke-width="8px" stroke-miterlimit="8"/>
<!-- Line -->
<defs>
<clipPath id="cp38">
	<path clip-rule="evenodd" d="M 180,-335 H 10296 V 4608 H 180 z
		M 415,3227 325,3437 212,3239 320,3453 333,3452z"/>
</clipPath>
</defs>
<polyline points=" 213,1532 326,3446" clip-path="url(#cp38)"
	stroke="#535353" stroke-width="8px" stroke-linejoin="round"/>
<!-- Forward arrow to point 326,3446 -->
<polyline points=" 415,3227 325,3437 212,3239"
	stroke="#535353" stroke-width="8px" stroke-miterlimit="8"/>
<!-- Line -->
<polyline points=" 8525,3249 8491,3022"
	stroke="#9f9f9f" stroke-width="8px" stroke-linejoin="round"/>
<!-- Line -->
<defs>
<clipPath id="cp39">
	<path clip-rule="evenodd" d="M 180,-335 H 10296 V 4608 H 180 z
		M 8362,2157 8480,2352 8253,2329 8498,2376 8509,2359z"/>
</clipPath>
</defs>
<polyline points=" 6339,993 8495,2362" clip-path="url(#cp39)"
	stroke="#000000" stroke-width="15px" stroke-linejoin="round"/>
<!-- Forward arrow to point 8495,2362 -->
<polyline points=" 8362,2157 8480,2352 8253,2329"
	stroke="#000000" stroke-width="15px" stroke-miterlimit="8"/>
<!-- Line -->
<defs>
<clipPath id="cp40">
	<path clip-rule="evenodd" d="M 180,-335 H 10296 V 4608 H 180 z
		M 9477,3403 9527,3625 9319,3532 9537,3654 9553,3640z"/>
</clipPath>
</defs>
<polyline points=" 8495,2362 9538,3639" clip-path="url(#cp40)"
	stroke="#000000" stroke-width="15px" stroke-linejoin="round"/>
<!-- Forward arrow to point 9538,3639 -->
<polyline points=" 9477,3403 9527,3625 9319,3532"
	stroke="#000000" stroke-width="15px" stroke-miterlimit="8"/>
<!-- Line -->
<defs>
<clipPath id="cp41">
	<path clip-rule="evenodd" d="M 180,-335 H 10296 V 4608 H 180 z
		M 7403,2499 7279,2308 7507,2324 7260,2285 7250,2303z"/>
</clipPath>
</defs>
<polyline points=" 9538,3639 7264,2299" clip-path="url(#cp41)"
	stroke="#000000" stroke-width="15px" stroke-linejoin="round"/>
<!-- Forward arrow to point 7264,2299 -->
<polyline points=" 7403,2499 7279,2308 7507,2324"
	stroke="#000000" stroke-width="15px" stroke-miterlimit="8"/>
<!-- Line -->
<polyline points=" 3110,1244 2906,1034"
	stroke="#9f9f9f" stroke-width="8px" stroke-linejoin="round"/>
<!-- Line -->
<polyline points=" 356,2714 272,2525"
	stroke="#9f9f9f" stroke-width="8px" stroke-linejoin="round"/>
<!-- Line -->
<polyline points=" 8965,2859 8779,2806"
	stroke="#9f9f9f" stroke-width="8px" stroke-linejoin="round"/>
<!-- Line -->
<defs>
<clipPath id="cp42">
	<path clip-rule="evenodd" d="M 180,-335 H 10296 V 4608 H 180 z
		M 3076,956 3224,782 3274,1004 3234,768 3221,765z"/>
</clipPath>
</defs>
<polyline points=" 2979,1782 3226,773" clip-path="url(#cp42)"
	stroke="#535353" stroke-width="8px" stroke-linejoin="round"/>
<!-- Forward arrow to point 3226,773 -->
<polyline points=" 3076,956 3224,782 3274,1004"
	stroke="#535353" stroke-width="8px" stroke-miterlimit="8"/>
<!-- Line -->
<defs>
<clipPath id="cp43">
	<path clip-rule="evenodd" d="M 180,-335 H 10296 V 4608 H 180 z
		M 2914,1382 2761,1551 2718,1328 2751,1565 2764,1568z"/>
</clipPath>
</defs>
<polyline points=" 3033,571 2759,1560" clip-path="url(#cp43)"
	stroke="#535353" stroke-width="8px" stroke-linejoin="round"/>
<!-- Forward arrow to point 2759,1560 -->
<polyline points=" 2914,1382 2761,1551 2718,1328"
	stroke="#535353" stroke-width="8px" stroke-miterlimit="8"/>
<!-- Line -->
<defs>
<clipPath id="cp44">
	<path clip-rule="evenodd" d="M 180,-335 H 10296 V 4608 H 180 z
		M 9445,3659 9571,3850 9344,3836 9581,3863 9588,3852z"/>
</clipPath>
</defs>
<polyline points=" 7287,2537 9579,3854" clip-path="url(#cp44)"
	stroke="#535353" stroke-width="8px" stroke-linejoin="round"/>
<!-- Forward arrow to point 9579,3854 -->
<polyline points=" 9445,3659 9571,3850 9344,3836"
	stroke="#535353" stroke-width="8px" stroke-miterlimit="8"/>
<!-- Line -->
<defs>
<clipPath id="cp45">
	<path clip-rule="evenodd" d="M 180,-335 H 10296 V 4608 H 180 z
		M 209,1934 300,1725 413,1923 305,1709 292,1710z"/>
</clipPath>
</defs>
<polyline points=" 410,3636 299,1716" clip-path="url(#cp45)"
	stroke="#535353" stroke-width="8px" stroke-linejoin="round"/>
<!-- Forward arrow to point 299,1716 -->
<polyline points=" 209,1934 300,1725 413,1923"
	stroke="#535353" stroke-width="8px" stroke-miterlimit="8"/>
<!-- Line -->
<polyline points=" 6772,1603 6539,1662"
	stroke="#9f9f9f" stroke-width="8px" stroke-linejoin="round"/>
<!-- Line -->
<defs>
<clipPath id="cp46">
	<path clip-rule="evenodd" d="M 180,-335 H 10296 V 4608 H 180 z
		M 6405,1262 6370,1037 6571,1144 6345,957 6303,987z"/>
</clipPath>
</defs>
<polyline points=" 7264,2299 6339,993" clip-path="url(#cp46)"
	stroke="#000000" stroke-width="45px" stroke-linejoin="round"/>
<!-- Forward arrow to point 6339,993 -->
<polyline points=" 6405,1262 6370,1037 6571,1144"
	stroke="#000000" stroke-width="45px" stroke-miterlimit="8"/>
<!-- Line -->
<defs>
<clipPath id="cp47">
	<path clip-rule="evenodd" d="M 180,-335 H 10296 V 4608 H 180 z
		M 7875,2308 7755,2115 7982,2134 7745,2101 7738,2112z"/>
</clipPath>
</defs>
<polyline points=" 10001,3493 7747,2110" clip-path="url(#cp47)"
	stroke="#535353" stroke-width="8px" stroke-linejoin="round"/>
<!-- Forward arrow to point 7747,2110 -->
<polyline points=" 7875,2308 7755,2115 7982,2134"
	stroke="#535353" stroke-width="8px" stroke-miterlimit="8"/>
<!-- Line -->
<defs>
<clipPath id="cp48">
	<path clip-rule="evenodd" d="M 180,-335 H 10296 V 4608 H 180 z
		M 7513,1824 7552,2049 7349,1945 7561,2078 7578,2065z"/>
</clipPath>
</defs>
<polyline points=" 6613,777 7563,2063" clip-path="url(#cp48)"
	stroke="#000000" stroke-width="15px" stroke-linejoin="round"/>
<!-- Forward arrow to point 7563,2063 -->
<polyline points=" 7513,1824 7552,2049 7349,1945"
	stroke="#000000" stroke-width="15px" stroke-miterlimit="8"/>
<!-- Line -->
<defs>
<clipPath id="cp49">
	<path clip-rule="evenodd" d="M 180,-335 H 10296 V 4608 H 180 z
		M 9679,3234 9800,3428 9573,3409 9818,3451 9829,3434z"/>
</clipPath>
</defs>
<polyline points=" 7563,2063 9815,3437" clip-path="url(#cp49)"
	stroke="#000000" stroke-width="15px" stroke-linejoin="round"/>
<!-- Forward arrow to point 9815,3437 -->
<polyline points=" 9679,3234 9800,3428 9573,3409"
	stroke="#000000" stroke-width="15px" stroke-miterlimit="8"/>
<!-- Line -->
<defs>
<clipPath id="cp50">
	<path clip-rule="evenodd" d="M 180,-335 H 10296 V 4608 H 180 z
		M 6743,984 6628,787 6854,813 6610,762 6598,780z"/>
</clipPath>
</defs>
<polyline points=" 8754,2176 6613,777" clip-path="url(#cp50)"
	stroke="#000000" stroke-width="15px" stroke-linejoin="round"/>
<!-- Forward arrow to point 6613,777 -->
<polyline points=" 6743,984 6628,787 6854,813"
	stroke="#000000" stroke-width="15px" stroke-miterlimit="8"/>
<!-- Line -->
<defs>
<clipPath id="cp51">
	<path clip-rule="evenodd" d="M 180,-335 H 10296 V 4608 H 180 z
		M 8819,2411 8765,2190 8975,2280 8755,2161 8739,2175z"/>
</clipPath>
</defs>
<polyline points=" 9815,3437 8754,2176" clip-path="url(#cp51)"
	stroke="#000000" stroke-width="15px" stroke-linejoin="round"/>
<!-- Forward arrow to point 8754,2176 -->
<polyline points=" 8819,2411 8765,2190 8975,2280"
	stroke="#000000" stroke-width="15px" stroke-miterlimit="8"/>
<!-- Line -->
<polyline points=" 7047,1167 7058,1378"
	stroke="#9f9f9f" stroke-width="8px" stroke-linejoin="round"/>
<!-- Line -->
<defs>
<clipPath id="cp52">
	<path clip-rule="evenodd" d="M 180,-335 H 10296 V 4608 H 180 z
		M 6982,2131 7012,2357 6813,2245 7015,2373 7026,2366z"/>
</clipPath>
</defs>
<polyline points=" 6119,1043 7017,2364" clip-path="url(#cp52)"
	stroke="#535353" stroke-width="8px" stroke-linejoin="round"/>
<!-- Forward arrow to point 7017,2364 -->
<polyline points=" 6982,2131 7012,2357 6813,2245"
	stroke="#535353" stroke-width="8px" stroke-miterlimit="8"/>
<!-- Line -->
<defs>
<clipPath id="cp53">
	<path clip-rule="evenodd" d="M 180,-335 H 10296 V 4608 H 180 z
		M 2493,3662 2567,3867 2359,3803 2581,3904 2605,3878z"/>
</clipPath>
</defs>
<polyline points=" 299,1716 2580,3879" clip-path="url(#cp53)"
	stroke="#000000" stroke-width="30px" stroke-linejoin="round"/>
<!-- Forward arrow to point 2580,3879 -->
<polyline points=" 2493,3662 2567,3867 2359,3803"
	stroke="#000000" stroke-width="15px" stroke-miterlimit="8"/>
<!-- Line -->
<defs>
<clipPath id="cp54">
	<path clip-rule="evenodd" d="M 180,-335 H 10296 V 4608 H 180 z
		M 6646,804 6605,580 6810,682 6601,564 6591,572z"/>
</clipPath>
</defs>
<polyline points=" 7557,1845 6600,573" clip-path="url(#cp54)"
	stroke="#535353" stroke-width="8px" stroke-linejoin="round"/>
<!-- Forward arrow to point 6600,573 -->
<polyline points=" 6646,804 6605,580 6810,682"
	stroke="#535353" stroke-width="8px" stroke-miterlimit="8"/>
<!-- Line -->
<polyline points=" 1469,2827 1612,2718"
	stroke="#9f9f9f" stroke-width="8px" stroke-linejoin="round"/>
<!-- Line -->
<polyline points=" 7325,3605 7071,3434"
	stroke="#9f9f9f" stroke-width="8px" stroke-linejoin="round"/>
<!-- Line -->
<defs>
<clipPath id="cp55">
	<path clip-rule="evenodd" d="M 180,-335 H 10296 V 4608 H 180 z
		M 7210,4180 7119,4389 7006,4190 7113,4405 7126,4404z"/>
</clipPath>
</defs>
<polyline points=" 7017,2364 7119,4398" clip-path="url(#cp55)"
	stroke="#535353" stroke-width="8px" stroke-linejoin="round"/>
<!-- Forward arrow to point 7119,4398 -->
<polyline points=" 7210,4180 7119,4389 7006,4190"
	stroke="#535353" stroke-width="8px" stroke-miterlimit="8"/>
<!-- Line -->
<defs>
<clipPath id="cp56">
	<path clip-rule="evenodd" d="M 180,-335 H 10296 V 4608 H 180 z
		M 2867,1990 2979,1791 3071,1999 2986,1776 2973,1775z"/>
</clipPath>
</defs>
<polyline points=" 2890,3729 2979,1782" clip-path="url(#cp56)"
	stroke="#535353" stroke-width="8px" stroke-linejoin="round"/>
<!-- Forward arrow to point 2979,1782 -->
<polyline points=" 2867,1990 2979,1791 3071,1999"
	stroke="#535353" stroke-width="8px" stroke-miterlimit="8"/>
<!-- Line -->
<defs>
<clipPath id="cp57">
	<path clip-rule="evenodd" d="M 180,-335 H 10296 V 4608 H 180 z
		M 521,1819 443,1604 661,1671 437,1588 427,1598z"/>
</clipPath>
</defs>
<polyline points=" 2725,3781 437,1598" clip-path="url(#cp57)"
	stroke="#000000" stroke-width="8px" stroke-linejoin="round"/>
<!-- Forward arrow to point 437,1598 -->
<polyline points=" 521,1819 443,1604 661,1671"
	stroke="#000000" stroke-width="8px" stroke-miterlimit="8"/>
<!-- Line -->
<defs>
<clipPath id="cp58">
	<path clip-rule="evenodd" d="M 180,-335 H 10296 V 4608 H 180 z
		M 7193,2754 7287,2546 7397,2746 7293,2530 7280,2531z"/>
</clipPath>
</defs>
<polyline points=" 7362,4564 7287,2537" clip-path="url(#cp58)"
	stroke="#535353" stroke-width="8px" stroke-linejoin="round"/>
<!-- Forward arrow to point 7287,2537 -->
<polyline points=" 7193,2754 7287,2546 7397,2746"
	stroke="#535353" stroke-width="8px" stroke-miterlimit="8"/>
<!-- Line -->
<polyline points=" 2934,2793 2761,2834"
	stroke="#9f9f9f" stroke-width="8px" stroke-linejoin="round"/>
<!-- Line -->
<defs>
<clipPath id="cp59">
	<path clip-rule="evenodd" d="M 180,-335 H 10296 V 4608 H 180 z
		M 2835,3572 2725,3772 2631,3564 2718,3787 2731,3788z"/>
</clipPath>
</defs>
<polyline points=" 2802,1811 2725,3781" clip-path="url(#cp59)"
	stroke="#535353" stroke-width="8px" stroke-linejoin="round"/>
<!-- Forward arrow to point 2725,3781 -->
<polyline points=" 2835,3572 2725,3772 2631,3564"
	stroke="#535353" stroke-width="8px" stroke-miterlimit="8"/>
<!-- Line -->
<defs>
<clipPath id="cp60">
	<path clip-rule="evenodd" d="M 180,-335 H 10296 V 4608 H 180 z
		M 7789,1891 7566,1843 7738,1694 7549,1840 7552,1853z"/>
</clipPath>
</defs>
<polyline points=" 10003,1222 7557,1845" clip-path="url(#cp60)"
	stroke="#535353" stroke-width="8px" stroke-linejoin="round"/>
<!-- Forward arrow to point 7557,1845 -->
<polyline points=" 7789,1891 7566,1843 7738,1694"
	stroke="#535353" stroke-width="8px" stroke-miterlimit="8"/>
<!-- Line -->
<polyline points=" 9008,1779 8817,1523"
	stroke="#9f9f9f" stroke-width="8px" stroke-linejoin="round"/>
<!-- Line -->
<defs>
<clipPath id="cp61">
	<path clip-rule="evenodd" d="M 180,-335 H 10296 V 4608 H 180 z
		M 9962,1424 10185,1471 10014,1622 10202,1474 10199,1461z"/>
</clipPath>
</defs>
<polyline points=" 7747,2110 10194,1469" clip-path="url(#cp61)"
	stroke="#535353" stroke-width="8px" stroke-linejoin="round"/>
<!-- Forward arrow to point 10194,1469 -->
<polyline points=" 9962,1424 10185,1471 10014,1622"
	stroke="#535353" stroke-width="8px" stroke-miterlimit="8"/>
<!-- Line -->
<defs>
<clipPath id="cp62">
	<path clip-rule="evenodd" d="M 180,-335 H 10296 V 4608 H 180 z
		M 620,1473 426,1354 638,1270 411,1346 410,1359z"/>
</clipPath>
</defs>
<polyline points=" 2759,1560 417,1353" clip-path="url(#cp62)"
	stroke="#535353" stroke-width="8px" stroke-linejoin="round"/>
<!-- Forward arrow to point 417,1353 -->
<polyline points=" 620,1473 426,1354 638,1270"
	stroke="#535353" stroke-width="8px" stroke-miterlimit="8"/>
<!-- Line -->
<polyline points=" 1605,1702 1573,1455"
	stroke="#9f9f9f" stroke-width="8px" stroke-linejoin="round"/>
<!-- Line -->
<defs>
<clipPath id="cp63">
	<path clip-rule="evenodd" d="M 180,-335 H 10296 V 4608 H 180 z
		M 2599,1690 2793,1810 2581,1894 2808,1818 2809,1805z"/>
</clipPath>
</defs>
<polyline points=" 437,1598 2802,1811" clip-path="url(#cp63)"
	stroke="#535353" stroke-width="8px" stroke-linejoin="round"/>
<!-- Forward arrow to point 2802,1811 -->
<polyline points=" 2599,1690 2793,1810 2581,1894"
	stroke="#535353" stroke-width="8px" stroke-miterlimit="8"/>
<!-- Arc -->
<defs>
<clipPath id="cp64">
	<path clip-rule="evenodd" d="M 180,-335 H 10296 V 4608 H 180 z
		M 3418,3942 3405,3790 3518,3689 3136,3672 3128,3692z"/>
</clipPath>
</defs>
<path d="M 6607,3765 A 4602 4602 0 0 1 3142 3686" clip-path="url(#cp64)"
	stroke="#000000" stroke-width="15px"/>
<!-- Forward arrow to point 3142,3686 -->
<polygon points=" 3518,3689 3152,3690 3418,3942 3405,3790 3518,3689"
	stroke="#000000" stroke-width="8px" stroke-miterlimit="8"/>
<!-- Arc -->
<defs>
<clipPath id="cp65">
	<path clip-rule="evenodd" d="M 180,-335 H 10296 V 4608 H 180 z
		M 5803,517 5812,669 5696,767 6078,794 6086,774z"/>
</clipPath>
</defs>
<path d="M 3441,732 A 3162 3162 0 0 1 6072 780" clip-path="url(#cp65)"
	stroke="#000000" stroke-width="15px"/>
<!-- Forward arrow to point 6072,780 -->
<polygon points=" 5696,767 6062,776 5803,517 5812,669 5696,767"
	stroke="#000000" stroke-width="8px" stroke-miterlimit="8"/>
<!-- Text -->
<text xml:space="preserve" x="3831" y="281" fill="#000000" font-family="Times" font-style="normal" font-weight="normal" font-size="216" text-anchor="start">(std::vector{d1,d2,d3,d4})</text>
<!-- Text -->
<text xml:space="preserve" x="2113" y="-50" fill="#000000" font-family="Times" font-style="normal" font-weight="normal" font-size="216" text-anchor="start">d5=cm.insert_cell_2_in_cell_3</text>
<!-- Text -->
<text xml:space="preserve" x="3431" y="4334" fill="#000000" font-family="Times" font-style="normal" font-weight="normal" font-size="216" text-anchor="start">cm.remove_cell&lt;2&gt;(d5)</text>
<!-- Text -->
<text xml:space="preserve" x="1730" y="2067" fill="#000000" font-family="Times" font-style="normal" font-weight="normal" font-size="240" text-anchor="start">d4</text>
<!-- Text -->
<text xml:space="preserve" x="3028" y="3000" fill="#000000" font-family="Times" font-style="normal" font-weight="normal" font-size="240" text-anchor="start">d3</text>
<!-- Text -->
<text xml:space="preserve" x="990" y="2970" fill="#000000" font-family="Times" font-style="normal" font-weight="normal" font-size="240" text-anchor="start">d2</text>
<!-- Text -->
<text xml:space="preserve" x="225" y="900" fill="#000000" font-family="Times" font-style="normal" font-weight="normal" font-size="240" text-anchor="start">d1</text>
<!-- Text -->
<text xml:space="preserve" x="6480" y="1935" fill="#000000" font-family="Times" font-style="normal" font-weight="normal" font-size="240" text-anchor="start">d5</text>
</g>
</svg>
