<?xml version="1.0" standalone="no"?>
<!DOCTYPE svg PUBLIC "-//W3C//DTD SVG 1.1//EN"
"http://www.w3.org/Graphics/SVG/1.1/DTD/svg11.dtd">
<!-- Creator: fig2dev Version 3.2.6 -->
<!-- CreationDate: Mon Nov 21 08:43:35 2016 -->
<!-- Magnification: 1.050 -->
<svg	xmlns="http://www.w3.org/2000/svg"
	xmlns:xlink="http://www.w3.org/1999/xlink"
	width="9.2in" height="3.0in"
	viewBox="-5675 466 11072 3570">
<g style="stroke-width:.025in; fill:none">
<!-- Line -->
<polyline points="1587,2266
3201,2628
" style="stroke:#000000;stroke-width:16;
stroke-linejoin:round; stroke-linecap:butt;
"/>
<!-- Arrowhead on XXXpoint 1587 2266 - 3265 2642-->
<polyline points="3041 2688
3247 2638
3083 2503
" style="stroke:#000000;stroke-width:16;stroke-miterlimit:8;
"/>
<!-- Line -->
<polyline points="1564,602
1587,2232
" style="stroke:#000000;stroke-width:16;
stroke-linejoin:round; stroke-linecap:butt;
"/>
<!-- Arrowhead on XXXpoint 1564 602 - 1587 2297-->
<polyline points="1489 2090
1587 2278
1678 2087
" style="stroke:#000000;stroke-width:16;stroke-miterlimit:8;
"/>
<!-- Line -->
<polyline points="3169,2852
1550,2473
" style="stroke:#000000;stroke-width:16;
stroke-linejoin:round; stroke-linecap:butt;
"/>
<!-- Arrowhead on XXXpoint 3169 2852 - 1486 2459-->
<polyline points="1709 2414
1504 2464
1666 2598
" style="stroke:#000000;stroke-width:16;stroke-miterlimit:8;
"/>
<!-- Line -->
<polyline points="1379,2298
1339,660
" style="stroke:#000000;stroke-width:16;
stroke-linejoin:round; stroke-linecap:butt;
"/>
<!-- Arrowhead on XXXpoint 1379 2298 - 1338 595-->
<polyline points="1437 800
1338 614
1248 805
" style="stroke:#000000;stroke-width:16;stroke-miterlimit:8;
"/>
<!-- Line -->
<polyline points="1518,2467
606,3292
" style="stroke:#000000;stroke-width:16;
stroke-linejoin:round; stroke-linecap:butt;
"/>
<!-- Arrowhead on XXXpoint 1518 2467 - 558 3336-->
<polyline points="647 3126
572 3323
774 3266
" style="stroke:#000000;stroke-width:16;stroke-miterlimit:8;
"/>
<!-- Line -->
<polyline points="422,3123
1353,2320
" style="stroke:#000000;stroke-width:16;
stroke-linejoin:round; stroke-linecap:butt;
"/>
<!-- Arrowhead on XXXpoint 422 3123 - 1402 2277-->
<polyline points="1307 2483
1388 2289
1183 2341
" style="stroke:#000000;stroke-width:16;stroke-miterlimit:8;
"/>
<!-- Line -->
<polyline points="3234,2636
3335,917
" style="stroke:#000000;stroke-width:16;
stroke-linejoin:round; stroke-linecap:butt;
"/>
<!-- Arrowhead on XXXpoint 3234 2636 - 3338 852-->
<polyline points="3420 1064
3337 871
3231 1054
" style="stroke:#000000;stroke-width:16;stroke-miterlimit:8;
"/>
<!-- Line -->
<polyline points="3337,883
1597,606
" style="stroke:#000000;stroke-width:16;
stroke-linejoin:round; stroke-linecap:butt;
"/>
<!-- Arrowhead on XXXpoint 3337 883 - 1532 597-->
<polyline points="1752 536
1551 600
1722 723
" style="stroke:#000000;stroke-width:16;stroke-miterlimit:8;
"/>
<!-- Line -->
<polyline points="3446,966
3336,2692
" style="stroke:#000000;stroke-width:32;
stroke-linejoin:round; stroke-linecap:butt;
"/>
<!-- Arrowhead on XXXpoint 3446 966 - 3331 2790-->
<polyline points="3209 2461
3333 2753
3491 2479
" style="stroke:#000000;stroke-width:32;stroke-miterlimit:8;
"/>
<!-- Line -->
<polyline points="1483,489
3251,764
" style="stroke:#000000;stroke-width:16;
stroke-linejoin:round; stroke-linecap:butt;
"/>
<!-- Arrowhead on XXXpoint 1483 489 - 3316 773-->
<polyline points="3096 834
3297 770
3124 647
" style="stroke:#000000;stroke-width:16;stroke-miterlimit:8;
"/>
<!-- Line -->
<polyline points="3903,1026
3761,2773
" style="stroke:#000000;stroke-width:16;
stroke-linejoin:round; stroke-linecap:butt;
"/>
<!-- Arrowhead on XXXpoint 3903 1026 - 3756 2838-->
<polyline points="3677 2623
3757 2819
3866 2638
" style="stroke:#000000;stroke-width:16;stroke-miterlimit:8;
"/>
<!-- Line -->
<polyline points="3568,2826
3697,1085
" style="stroke:#000000;stroke-width:32;
stroke-linejoin:round; stroke-linecap:butt;
"/>
<!-- Arrowhead on XXXpoint 3568 2826 - 3704 987-->
<polyline points="3821 1317
3701 1024
3539 1296
" style="stroke:#000000;stroke-width:32;stroke-miterlimit:8;
"/>
<!-- Line -->
<polyline points="2417,3824
3148,2878
" style="stroke:#000000;stroke-width:16;
stroke-linejoin:round; stroke-linecap:butt;
"/>
<!-- Arrowhead on XXXpoint 2417 3824 - 3188 2827-->
<polyline points="3135 3048
3176 2841
2985 2933
" style="stroke:#000000;stroke-width:16;stroke-miterlimit:8;
"/>
<!-- Line -->
<polyline points="1339,626
323,1240
" style="stroke:#000000;stroke-width:16;
stroke-linejoin:round; stroke-linecap:butt;
"/>
<!-- Arrowhead on XXXpoint 1339 626 - 267 1274-->
<polyline points="395 1085
283 1265
493 1247
" style="stroke:#000000;stroke-width:16;stroke-miterlimit:8;
"/>
<!-- Line -->
<polyline points="3334,2744
2628,3672
" style="stroke:#000000;stroke-width:32;
stroke-linejoin:round; stroke-linecap:butt;
"/>
<!-- Arrowhead on XXXpoint 3334 2744 - 2569 3750-->
<polyline points="2650 3408
2592 3720
2875 3580
" style="stroke:#000000;stroke-width:32;stroke-miterlimit:8;
"/>
<!-- Line -->
<polyline points="3778,3007
3107,3985
" style="stroke:#000000;stroke-width:16;
stroke-linejoin:round; stroke-linecap:butt;
"/>
<!-- Arrowhead on XXXpoint 3778 3007 - 3070 4038-->
<polyline points="3109 3813
3081 4023
3266 3920
" style="stroke:#000000;stroke-width:16;stroke-miterlimit:8;
"/>
<!-- Line -->
<polyline points="447,1110
1454,506
" style="stroke:#000000;stroke-width:16;
stroke-linejoin:round; stroke-linecap:butt;
"/>
<!-- Arrowhead on XXXpoint 447 1110 - 1509 472-->
<polyline points="1380 659
1493 481
1282 497
" style="stroke:#000000;stroke-width:16;stroke-miterlimit:8;
"/>
<!-- Line -->
<polyline points="2864,3815
3538,2867
" style="stroke:#000000;stroke-width:32;
stroke-linejoin:round; stroke-linecap:butt;
"/>
<!-- Arrowhead on XXXpoint 2864 3815 - 3595 2787-->
<polyline points="3524 3130
3573 2817
3293 2965
" style="stroke:#000000;stroke-width:32;stroke-miterlimit:8;
"/>
<!-- Line -->
<polyline points="582,3315
2384,3815
" style="stroke:#000000;stroke-width:16;
stroke-linejoin:round; stroke-linecap:butt;
"/>
<!-- Arrowhead on XXXpoint 582 3315 - 2447 3833-->
<polyline points="2221 3867
2429 3827
2271 3686
" style="stroke:#000000;stroke-width:16;stroke-miterlimit:8;
"/>
<!-- Line -->
<polyline points="3759,2808
5300,2745
" style="stroke:#000000;stroke-width:16;
stroke-linejoin:round; stroke-linecap:butt;
"/>
<!-- Arrowhead on XXXpoint 3759 2808 - 5365 2743-->
<polyline points="5161 2846
5346 2744
5153 2657
" style="stroke:#000000;stroke-width:16;stroke-miterlimit:8;
"/>
<!-- Line -->
<polyline points="5353,2972
3812,3006
" style="stroke:#000000;stroke-width:16;
stroke-linejoin:round; stroke-linecap:butt;
"/>
<!-- Arrowhead on XXXpoint 5353 2972 - 3746 3007-->
<polyline points="3951 2909
3765 3007
3955 3097
" style="stroke:#000000;stroke-width:16;stroke-miterlimit:8;
"/>
<!-- Line -->
<polyline points="295,1258
419,3088
" style="stroke:#000000;stroke-width:16;
stroke-linejoin:round; stroke-linecap:butt;
"/>
<!-- Arrowhead on XXXpoint 295 1258 - 424 3153-->
<polyline points="314 2952
423 3134
503 2939
" style="stroke:#000000;stroke-width:16;stroke-miterlimit:8;
"/>
<!-- Line -->
<polyline points="2344,3763
508,3257
" style="stroke:#000000;stroke-width:16;
stroke-linejoin:round; stroke-linecap:butt;
"/>
<!-- Arrowhead on XXXpoint 2344 3763 - 445 3240-->
<polyline points="669 3205
462 3246
619 3386
" style="stroke:#000000;stroke-width:16;stroke-miterlimit:8;
"/>
<!-- Line -->
<polyline points="475,3249
352,1391
" style="stroke:#000000;stroke-width:16;
stroke-linejoin:round; stroke-linecap:butt;
"/>
<!-- Arrowhead on XXXpoint 475 3249 - 349 1325-->
<polyline points="456 1526
350 1344
267 1539
" style="stroke:#000000;stroke-width:16;stroke-miterlimit:8;
"/>
<!-- Line -->
<polyline points="5335,2745
3924,1051
" style="stroke:#000000;stroke-width:16;
stroke-linejoin:round; stroke-linecap:butt;
"/>
<!-- Arrowhead on XXXpoint 5335 2745 - 3882 1001-->
<polyline points="4087 1100
3893 1016
3942 1220
" style="stroke:#000000;stroke-width:16;stroke-miterlimit:8;
"/>
<!-- Line -->
<polyline points="3923,934
5352,2645
" style="stroke:#000000;stroke-width:16;
stroke-linejoin:round; stroke-linecap:butt;
"/>
<!-- Arrowhead on XXXpoint 3923 934 - 5394 2696-->
<polyline points="5188 2596
5382 2681
5333 2475
" style="stroke:#000000;stroke-width:16;stroke-miterlimit:8;
"/>
<!-- Line -->
<polyline points="2661,1720
3408,1001
" style="stroke:#000000;stroke-width:32;
stroke-linejoin:round; stroke-linecap:butt;
"/>
<!-- Arrowhead on XXXpoint 2661 1720 - 3480 933-->
<polyline points="3345 1257
3453 959
3149 1053
" style="stroke:#000000;stroke-width:32;stroke-miterlimit:8;
"/>
<!-- Line -->
<polyline points="3286,769
2497,1467
" style="stroke:#000000;stroke-width:16;
stroke-linejoin:round; stroke-linecap:butt;
"/>
<!-- Arrowhead on XXXpoint 3286 769 - 2448 1510-->
<polyline points="2540 1301
2461 1498
2665 1443
" style="stroke:#000000;stroke-width:16;stroke-miterlimit:8;
"/>
<!-- Line -->
<polyline points="3701,1035
2988,1767
" style="stroke:#000000;stroke-width:32;
stroke-linejoin:round; stroke-linecap:butt;
"/>
<!-- Arrowhead on XXXpoint 3701 1035 - 2920 1839-->
<polyline points="3042 1509
2946 1812
3245 1707
" style="stroke:#000000;stroke-width:32;stroke-miterlimit:8;
"/>
<!-- Line -->
<polyline points="3088,4013
5321,2985
" style="stroke:#000000;stroke-width:16;
stroke-linejoin:round; stroke-linecap:butt;
"/>
<!-- Arrowhead on XXXpoint 3088 4013 - 5381 2958-->
<polyline points="5232 3130
5364 2965
5152 2958
" style="stroke:#000000;stroke-width:16;stroke-miterlimit:8;
"/>
<!-- Line -->
<polyline points="-4328,2270
-4128,2733
" style="stroke:#808080;stroke-width:16;
stroke-linejoin:miter; stroke-linecap:butt;
"/>
<!-- Line -->
<polyline points="-3444,1433
-2908,1440
" style="stroke:#808080;stroke-width:16;
stroke-linejoin:miter; stroke-linecap:butt;
"/>
<!-- Line -->
<polyline points="-3142,2912
-2633,2705
" style="stroke:#808080;stroke-width:16;
stroke-linejoin:miter; stroke-linecap:butt;
"/>
<!-- Line -->
<polyline points="-5152,810
-5387,2508
" style="stroke:#000000;stroke-width:32;
stroke-linejoin:miter; stroke-linecap:butt;
"/>
<!-- Arrowhead on XXXpoint -5152 810 - -5400 2605-->
<polyline points="-5479 2318
-5395 2569
-5245 2350
" style="stroke:#000000;stroke-width:32;stroke-miterlimit:8;
"/>
<!-- Line -->
<polyline points="-3383,923
-5102,812
" style="stroke:#000000;stroke-width:32;
stroke-linejoin:miter; stroke-linecap:butt;
"/>
<!-- Arrowhead on XXXpoint -3383 923 - -5198 807-->
<polyline points="-4918 706
-5162 809
-4933 941
" style="stroke:#000000;stroke-width:32;stroke-miterlimit:8;
"/>
<!-- Line -->
<polyline points="-5380,2565
-3341,2165
" style="stroke:#000000;stroke-width:32;
stroke-linejoin:miter; stroke-linecap:butt;
"/>
<!-- Arrowhead on XXXpoint -5380 2565 - -3243 2148-->
<polyline points="-3488 2316
-3279 2155
-3533 2083
" style="stroke:#000000;stroke-width:32;stroke-miterlimit:8;
"/>
<!-- Line -->
<polyline points="-3243,2438
-5169,2797
" style="stroke:#000000;stroke-width:32;
stroke-linejoin:miter; stroke-linecap:butt;
"/>
<!-- Arrowhead on XXXpoint -3243 2438 - -5266 2815-->
<polyline points="-5018 2648
-5229 2808
-4975 2880
" style="stroke:#000000;stroke-width:32;stroke-miterlimit:8;
"/>
<!-- Line -->
<polyline points="-5219,2807
-2795,3700
" style="stroke:#000000;stroke-width:32;
stroke-linejoin:miter; stroke-linecap:butt;
"/>
<!-- Arrowhead on XXXpoint -5219 2807 - -2702 3734-->
<polyline points="-2999 3750
-2737 3721
-2917 3528
" style="stroke:#000000;stroke-width:32;stroke-miterlimit:8;
"/>
<!-- Line -->
<polyline points="-2720,3724
-3224,2486
" style="stroke:#000000;stroke-width:32;
stroke-linejoin:miter; stroke-linecap:butt;
"/>
<!-- Arrowhead on XXXpoint -2720 3724 - -3259 2394-->
<polyline points="-3047 2603
-3246 2429
-3266 2691
" style="stroke:#000000;stroke-width:32;stroke-miterlimit:8;
"/>
<!-- Line -->
<polyline points="-2981,2143
-2456,3588
" style="stroke:#000000;stroke-width:32;
stroke-linejoin:miter; stroke-linecap:butt;
"/>
<!-- Arrowhead on XXXpoint -2981 2143 - -2422 3681-->
<polyline points="-2625 3465
-2434 3647
-2404 3384
" style="stroke:#000000;stroke-width:32;stroke-miterlimit:8;
"/>
<!-- Line -->
<polyline points="-3122,943
-2987,2092
" style="stroke:#000000;stroke-width:32;
stroke-linejoin:miter; stroke-linecap:butt;
"/>
<!-- Arrowhead on XXXpoint -3122 943 - -2975 2190-->
<polyline points="-3124 1931
-2979 2153
-2889 1904
" style="stroke:#000000;stroke-width:32;stroke-miterlimit:8;
"/>
<!-- Line -->
<polyline points="-3290,2157
-3380,974
" style="stroke:#000000;stroke-width:32;
stroke-linejoin:miter; stroke-linecap:butt;
"/>
<!-- Arrowhead on XXXpoint -3290 2157 - -3386 876-->
<polyline points="-3247 1139
-3383 913
-3483 1156
" style="stroke:#000000;stroke-width:32;stroke-miterlimit:8;
"/>
<!-- Line -->
<polyline points="-2117,1011
-3085,940
" style="stroke:#000000;stroke-width:32;
stroke-linejoin:miter; stroke-linecap:butt;
"/>
<!-- Arrowhead on XXXpoint -2117 1011 - -3182 933-->
<polyline points="-2900 835
-3145 936
-2917 1070
" style="stroke:#000000;stroke-width:32;stroke-miterlimit:8;
"/>
<!-- Line -->
<polyline points="-1527,2418
-2098,1058
" style="stroke:#000000;stroke-width:32;
stroke-linejoin:miter; stroke-linecap:butt;
"/>
<!-- Arrowhead on XXXpoint -1527 2418 - -2135 966-->
<polyline points="-1920 1173
-2120 1001
-2137 1264
" style="stroke:#000000;stroke-width:32;stroke-miterlimit:8;
"/>
<!-- Line -->
<polyline points="-2426,3637
-1558,2459
" style="stroke:#000000;stroke-width:32;
stroke-linejoin:miter; stroke-linecap:butt;
"/>
<!-- Arrowhead on XXXpoint -2426 3637 - -1499 2380-->
<polyline points="-1565 2669
-1521 2410
-1756 2530
" style="stroke:#000000;stroke-width:32;stroke-miterlimit:8;
"/>
<!-- Line -->
<polyline points="3187,1694
3899,958
" style="stroke:#000000;stroke-width:16;
stroke-linejoin:round; stroke-linecap:butt;
"/>
<!-- Arrowhead on XXXpoint 3187 1694 - 3944 911-->
<polyline points="3867 1125
3931 924
3732 994
" style="stroke:#000000;stroke-width:16;stroke-miterlimit:8;
"/>
<!-- Line -->
<polyline points="5294,2879
3027,3924
" style="stroke:#000000;stroke-width:16;
stroke-linejoin:round; stroke-linecap:butt;
"/>
<!-- Arrowhead on XXXpoint 5294 2879 - 2967 3951-->
<polyline points="3116 3778
2984 3944
3195 3950
" style="stroke:#000000;stroke-width:16;stroke-miterlimit:8;
"/>
<!-- Line -->
<polyline points="2598,3713
2659,1771
" style="stroke:#000000;stroke-width:32;
stroke-linejoin:round; stroke-linecap:butt;
"/>
<!-- Arrowhead on XXXpoint 2598 3713 - 2662 1673-->
<polyline points="2793 1998
2661 1711
2510 1989
" style="stroke:#000000;stroke-width:32;stroke-miterlimit:8;
"/>
<!-- Line -->
<polyline points="2472,1490
479,1116
" style="stroke:#000000;stroke-width:16;
stroke-linejoin:round; stroke-linecap:butt;
"/>
<!-- Arrowhead on XXXpoint 2472 1490 - 415 1104-->
<polyline points="636 1048
433 1107
601 1234
" style="stroke:#000000;stroke-width:16;stroke-miterlimit:8;
"/>
<!-- Line -->
<polyline points="2383,1761
2344,3729
" style="stroke:#000000;stroke-width:16;
stroke-linejoin:round; stroke-linecap:butt;
"/>
<!-- Arrowhead on XXXpoint 2383 1761 - 2343 3794-->
<polyline points="2251 3584
2343 3775
2440 3587
" style="stroke:#000000;stroke-width:16;stroke-miterlimit:8;
"/>
<!-- Line -->
<polyline points="2954,1805
2865,3763
" style="stroke:#000000;stroke-width:32;
stroke-linejoin:round; stroke-linecap:butt;
"/>
<!-- Arrowhead on XXXpoint 2954 1805 - 2860 3861-->
<polyline points="2733 3533
2862 3823
3017 3546
" style="stroke:#000000;stroke-width:32;stroke-miterlimit:8;
"/>
<!-- Line -->
<polyline points="351,1357
2349,1755
" style="stroke:#000000;stroke-width:16;
stroke-linejoin:round; stroke-linecap:butt;
"/>
<!-- Arrowhead on XXXpoint 351 1357 - 2413 1766-->
<polyline points="2191 1819
2395 1763
2227 1633
" style="stroke:#000000;stroke-width:16;stroke-miterlimit:8;
"/>
<!-- Line -->
<polyline points="2997,3939
3092,1943
" style="stroke:#000000;stroke-width:16;
stroke-linejoin:round; stroke-linecap:butt;
"/>
<!-- Arrowhead on XXXpoint 2997 3939 - 3096 1878-->
<polyline points="3180 2090
3095 1897
2991 2080
" style="stroke:#000000;stroke-width:16;stroke-miterlimit:8;
"/>
<!-- Line -->
<polyline points="5374,2671
3217,1707
" style="stroke:#000000;stroke-width:16;
stroke-linejoin:round; stroke-linecap:butt;
"/>
<!-- Arrowhead on XXXpoint 5374 2671 - 3158 1680-->
<polyline points="3385 1678
3174 1688
3308 1850
" style="stroke:#000000;stroke-width:16;stroke-miterlimit:8;
"/>
<!-- Line -->
<polyline points="3095,1909
5262,2866
" style="stroke:#000000;stroke-width:16;
stroke-linejoin:round; stroke-linecap:butt;
"/>
<!-- Arrowhead on XXXpoint 3095 1909 - 5322 2892-->
<polyline points="5093 2894
5306 2885
5170 2722
" style="stroke:#000000;stroke-width:16;stroke-miterlimit:8;
"/>
<!-- Line -->
<polyline points="2222,598
2022,896
" style="stroke:#ff0000;stroke-width:8;
stroke-linejoin:miter; stroke-linecap:butt;
"/>
<!-- Line -->
<polyline points="1799,1364
1914,1114
" style="stroke:#ff0000;stroke-width:8;
stroke-linejoin:miter; stroke-linecap:butt;
"/>
<!-- Line -->
<polyline points="2326,1018
2908,1119
" style="stroke:#ff0000;stroke-width:8;
stroke-linejoin:miter; stroke-linecap:butt;
"/>
<!-- Line -->
<polyline points="1676,984
1109,725
" style="stroke:#ff0000;stroke-width:8;
stroke-linejoin:miter; stroke-linecap:butt;
"/>
<!-- Line -->
<polyline points="3201,2139
3104,1667
" style="stroke:#ff0000;stroke-width:8;
stroke-linejoin:miter; stroke-linecap:butt;
"/>
<!-- Line -->
<polyline points="3604,1261
4055,1685
" style="stroke:#ff0000;stroke-width:8;
stroke-linejoin:miter; stroke-linecap:butt;
"/>
<!-- Line -->
<polyline points="4209,2155
4155,1908
" style="stroke:#ff0000;stroke-width:8;
stroke-linejoin:miter; stroke-linecap:butt;
"/>
<!-- Line -->
<polyline points="4293,1690
4367,1461
" style="stroke:#ff0000;stroke-width:8;
stroke-linejoin:miter; stroke-linecap:butt;
"/>
<!-- Line -->
<polyline points="3200,2933
3192,2370
" style="stroke:#ff0000;stroke-width:8;
stroke-linejoin:miter; stroke-linecap:butt;
"/>
<!-- Line -->
<polyline points="3540,2365
3600,2530
" style="stroke:#ff0000;stroke-width:8;
stroke-linejoin:miter; stroke-linecap:butt;
"/>
<!-- Line -->
<polyline points="3384,1959
3299,2146
" style="stroke:#ff0000;stroke-width:8;
stroke-linejoin:miter; stroke-linecap:butt;
"/>
<!-- Line -->
<polyline points="3046,2148
2738,1655
" style="stroke:#ff0000;stroke-width:8;
stroke-linejoin:miter; stroke-linecap:butt;
"/>
<!-- Line -->
<polyline points="2637,2448
3039,2241
" style="stroke:#ff0000;stroke-width:8;
stroke-linejoin:miter; stroke-linecap:butt;
"/>
<!-- Line -->
<polyline points="3420,3034
3423,2367
" style="stroke:#ff0000;stroke-width:8;
stroke-linejoin:miter; stroke-linecap:butt;
"/>
<!-- Line -->
<polyline points="2928,2498
3045,2361
" style="stroke:#ff0000;stroke-width:8;
stroke-linejoin:miter; stroke-linecap:butt;
"/>
<!-- Line: box -->
<rect x="-4699" y="1426" width="909" height="251" rx="0" 
style="stroke:#000000;stroke-width:16;
stroke-linejoin:miter; stroke-linecap:butt;
"/>
<!-- Line: box -->
<rect x="-5652" y="2703" width="370" height="254" rx="0" 
style="stroke:#000000;stroke-width:16;
stroke-linejoin:miter; stroke-linecap:butt;
"/>
<!-- Line: box -->
<rect x="-3427" y="569" width="360" height="241" rx="0" 
style="stroke:#000000;stroke-width:16;
stroke-linejoin:miter; stroke-linecap:butt;
"/>
<!-- Line: box -->
<rect x="-4185" y="2824" width="913" height="259" rx="0" 
style="stroke:#000000;stroke-width:16;
stroke-linejoin:miter; stroke-linecap:butt;
"/>
<!-- Line: box -->
<rect x="-2672" y="3746" width="380" height="255" rx="0" 
style="stroke:#000000;stroke-width:16;
stroke-linejoin:miter; stroke-linecap:butt;
"/>
<!-- Line: box -->
<rect x="-2765" y="1906" width="702" height="257" rx="0" 
style="stroke:#000000;stroke-width:16;
stroke-linejoin:miter; stroke-linecap:butt;
"/>
<!-- Line -->
<polyline points="-5202,2539
-5396,2708
" style="stroke:#ff0000;stroke-width:8;
stroke-linejoin:miter; stroke-linecap:butt;
"/>
<!-- Line -->
<polyline points="-4823,2729
-5151,2628
-5324,2738
" style="stroke:#ff0000;stroke-width:8;
stroke-linejoin:miter; stroke-linecap:butt;
"/>
<!-- Line -->
<polyline points="-3356,1205
-3241,1017
-3269,823
" style="stroke:#ff0000;stroke-width:8;
stroke-linejoin:miter; stroke-linecap:butt;
"/>
<!-- Line -->
<polyline points="-3109,1068
-3198,1008
-3214,825
" style="stroke:#ff0000;stroke-width:8;
stroke-linejoin:miter; stroke-linecap:butt;
"/>
<!-- Line -->
<polyline points="-2807,3469
-2662,3574
-2613,3734
" style="stroke:#ff0000;stroke-width:8;
stroke-linejoin:miter; stroke-linecap:butt;
"/>
<!-- Line -->
<polyline points="-2594,3259
-2639,3437
-2536,3739
" style="stroke:#ff0000;stroke-width:8;
stroke-linejoin:miter; stroke-linecap:butt;
"/>
<!-- Line -->
<polyline points="-4292,871
-4292,1427
" style="stroke:#ff0000;stroke-width:8;
stroke-linejoin:miter; stroke-linecap:butt;
"/>
<!-- Line -->
<polyline points="-3790,1556
-3345,1521
" style="stroke:#ff0000;stroke-width:8;
stroke-linejoin:miter; stroke-linecap:butt;
"/>
<!-- Line -->
<polyline points="-4310,1678
-4199,2337
" style="stroke:#ff0000;stroke-width:8;
stroke-linejoin:miter; stroke-linecap:butt;
"/>
<!-- Line -->
<polyline points="-5267,1660
-4705,1574
" style="stroke:#ff0000;stroke-width:8;
stroke-linejoin:miter; stroke-linecap:butt;
"/>
<!-- Line -->
<polyline points="-3973,2578
-3790,2809
" style="stroke:#ff0000;stroke-width:8;
stroke-linejoin:miter; stroke-linecap:butt;
"/>
<!-- Line -->
<polyline points="-4004,3264
-3835,3092
" style="stroke:#ff0000;stroke-width:8;
stroke-linejoin:miter; stroke-linecap:butt;
"/>
<!-- Line -->
<polyline points="-3256,3028
-3036,2978
" style="stroke:#ff0000;stroke-width:8;
stroke-linejoin:miter; stroke-linecap:butt;
"/>
<!-- Line -->
<polyline points="-2514,991
-2347,1890
" style="stroke:#ff0000;stroke-width:8;
stroke-linejoin:miter; stroke-linecap:butt;
"/>
<!-- Line -->
<polyline points="-2054,1954
-1805,1757
" style="stroke:#ff0000;stroke-width:8;
stroke-linejoin:miter; stroke-linecap:butt;
"/>
<!-- Line -->
<polyline points="-2266,2169
-1927,2946
" style="stroke:#ff0000;stroke-width:8;
stroke-linejoin:miter; stroke-linecap:butt;
"/>
<!-- Line -->
<polyline points="-2812,2603
-2483,2173
" style="stroke:#ff0000;stroke-width:8;
stroke-linejoin:miter; stroke-linecap:butt;
"/>
<!-- Line -->
<polyline points="-3053,1551
-2602,1886
" style="stroke:#ff0000;stroke-width:8;
stroke-linejoin:miter; stroke-linecap:butt;
"/>
<!-- Text -->
<text xml:space="preserve" x="-4660" y="1632" fill="#000000"  font-family="Times" font-style="normal" font-weight="normal" font-size="177" text-anchor="start">#808080</text>
<!-- Text -->
<text xml:space="preserve" x="-5613" y="2909" fill="#000000"  font-family="Times" font-style="normal" font-weight="normal" font-size="177" text-anchor="start">4.5</text>
<!-- Text -->
<text xml:space="preserve" x="-3388" y="774" fill="#000000"  font-family="Times" font-style="normal" font-weight="normal" font-size="177" text-anchor="start">2.6</text>
<!-- Text -->
<text xml:space="preserve" x="-4146" y="3029" fill="#000000"  font-family="Times" font-style="normal" font-weight="normal" font-size="177" text-anchor="start">#dddddd</text>
<!-- Text -->
<text xml:space="preserve" x="-2634" y="3952" fill="#000000"  font-family="Times" font-style="normal" font-weight="normal" font-size="177" text-anchor="start">4.9</text>
<!-- Text -->
<text xml:space="preserve" x="-2726" y="2112" fill="#000000"  font-family="Times" font-style="normal" font-weight="normal" font-size="177" text-anchor="start">#ffffff</text>
<!-- Text -->
<text xml:space="preserve" x="3680" y="1791" fill="#000000"  font-family="Times" font-style="normal" font-weight="normal" font-size="202" text-anchor="start">8</text>
<!-- Text -->
<text xml:space="preserve" x="2764" y="2278" fill="#000000"  font-family="Times" font-style="normal" font-weight="normal" font-size="202" text-anchor="start">6</text>
<!-- Text -->
<text xml:space="preserve" x="3336" y="3384" fill="#000000"  font-family="Times" font-style="normal" font-weight="normal" font-size="202" text-anchor="start">7</text>
<!-- Text -->
<text xml:space="preserve" x="3469" y="1132" fill="#000000"  font-family="Times" font-style="normal" font-weight="normal" font-size="202" text-anchor="start">5</text>
<!-- Text -->
<text xml:space="preserve" x="2488" y="2371" fill="#000000"  font-family="Times" font-style="normal" font-weight="normal" font-size="202" text-anchor="start">4</text>
<!-- Text -->
<text xml:space="preserve" x="2838" y="1428" fill="#000000"  font-family="Times" font-style="normal" font-weight="normal" font-size="202" text-anchor="start">1</text>
<!-- Text -->
<text xml:space="preserve" x="3438" y="1697" fill="#000000"  font-family="Times" font-style="normal" font-weight="normal" font-size="202" text-anchor="start">2</text>
<!-- Text -->
<text xml:space="preserve" x="3060" y="3306" fill="#000000"  font-family="Times" font-style="normal" font-weight="normal" font-size="177" text-anchor="start">3</text>
<!-- Line -->
<polyline points="4487,2732
4494,3019
" style="stroke:#9f9f9f;stroke-width:8;
stroke-linejoin:miter; stroke-linecap:butt;
"/>
<!-- Line -->
<polyline points="4090,3383
4198,3562
" style="stroke:#9f9f9f;stroke-width:8;
stroke-linejoin:miter; stroke-linecap:butt;
"/>
<!-- Line -->
<polyline points="2893,2696
3064,2753
" style="stroke:#9f9f9f;stroke-width:8;
stroke-linejoin:miter; stroke-linecap:butt;
"/>
<!-- Line -->
<polyline points="4138,2093
4004,2360
" style="stroke:#9f9f9f;stroke-width:8;
stroke-linejoin:miter; stroke-linecap:butt;
"/>
<!-- Line -->
<polyline points="3591,1987
3857,2040
" style="stroke:#9f9f9f;stroke-width:8;
stroke-linejoin:miter; stroke-linecap:butt;
"/>
<!-- Line -->
<polyline points="3176,3297
3540,3422
" style="stroke:#9f9f9f;stroke-width:8;
stroke-linejoin:miter; stroke-linecap:butt;
"/>
<!-- Line -->
<polyline points="3327,1394
3487,1385
" style="stroke:#9f9f9f;stroke-width:8;
stroke-linejoin:miter; stroke-linecap:butt;
"/>
<!-- Line -->
<polyline points="4512,1816
4637,1735
" style="stroke:#9f9f9f;stroke-width:16;
stroke-linejoin:miter; stroke-linecap:butt;
"/>
<!-- Line -->
<polyline points="1699,1332
1542,1648
" style="stroke:#9f9f9f;stroke-width:8;
stroke-linejoin:miter; stroke-linecap:butt;
"/>
<!-- Line -->
<polyline points="862,2682
1138,2861
" style="stroke:#9f9f9f;stroke-width:8;
stroke-linejoin:miter; stroke-linecap:butt;
"/>
<!-- Line -->
<polyline points="2300,2382
2237,2682
" style="stroke:#9f9f9f;stroke-width:8;
stroke-linejoin:miter; stroke-linecap:butt;
"/>
<!-- Line -->
<polyline points="2750,3328
2900,3328
" style="stroke:#9f9f9f;stroke-width:8;
stroke-linejoin:miter; stroke-linecap:butt;
"/>
<!-- Line -->
<polyline points="1549,3510
1367,3558
" style="stroke:#9f9f9f;stroke-width:8;
stroke-linejoin:miter; stroke-linecap:butt;
"/>
<!-- Line -->
<polyline points="2268,587
2355,769
" style="stroke:#9f9f9f;stroke-width:8;
stroke-linejoin:miter; stroke-linecap:butt;
"/>
<!-- Line -->
<polyline points="2908,1069
3130,1345
" style="stroke:#9f9f9f;stroke-width:8;
stroke-linejoin:miter; stroke-linecap:butt;
"/>
<!-- Line -->
<polyline points="1059,729
1059,769
1059,808
" style="stroke:#9f9f9f;stroke-width:8;
stroke-linejoin:miter; stroke-linecap:butt;
"/>
<!-- Line -->
<polyline points="317,2159
355,2175
381,2216
419,2232
" style="stroke:#9f9f9f;stroke-width:8;
stroke-linejoin:miter; stroke-linecap:butt;
"/>
<!-- Line -->
<polyline points="1328,1419
1564,1354
" style="stroke:#9f9f9f;stroke-width:8;
stroke-linejoin:miter; stroke-linecap:butt;
"/>
<!-- Line -->
<polyline points="2338,2607
2687,2618
" style="stroke:#9f9f9f;stroke-width:8;
stroke-linejoin:miter; stroke-linecap:butt;
"/>
<!-- Line -->
<polyline points="4228,3400
" style="stroke:#9f9f9f;stroke-width:8;
stroke-linejoin:miter; stroke-linecap:butt;
"/>
<!-- Line -->
<polyline points="3224,1851
3422,1875
" style="stroke:#9f9f9f;stroke-width:8;
stroke-linejoin:miter; stroke-linecap:butt;
"/>
<!-- Line: box -->
<rect x="3889" y="1686" width="762" height="239" rx="0" 
style="stroke:#000000;stroke-width:16;
stroke-linejoin:miter; stroke-linecap:butt;
fill:#ffffff;
"/>
<!-- Line: box -->
<rect x="2956" y="2144" width="745" height="223" rx="0" 
style="stroke:#000000;stroke-width:16;
stroke-linejoin:miter; stroke-linecap:butt;
fill:#ffffff;
"/>
<!-- Line: box -->
<rect x="1633" y="899" width="697" height="223" rx="0" 
style="stroke:#000000;stroke-width:16;
stroke-linejoin:miter; stroke-linecap:butt;
fill:#ffffff;
"/>
<!-- Text -->
<text xml:space="preserve" x="3913" y="1879" fill="#000000"  font-family="Times" font-style="normal" font-weight="bold" font-size="152" text-anchor="start">#82a0ff</text>
<!-- Text -->
<text xml:space="preserve" x="2987" y="2329" fill="#000000"  font-family="Times" font-style="normal" font-weight="bold" font-size="152" text-anchor="start">#00ff00</text>
<!-- Text -->
<text xml:space="preserve" x="1656" y="1085" fill="#000000"  font-family="Times" font-style="normal" font-weight="bold" font-size="152" text-anchor="start">#ff0000</text>
<!-- Line -->
<polyline points="3062,1320
3338,1415
" style="stroke:#0000ff;stroke-width:32;
stroke-linejoin:miter; stroke-linecap:butt;
"/>
<!-- Line -->
<polyline points="2642,2695
2921,2717
" style="stroke:#0000ff;stroke-width:32;
stroke-linejoin:miter; stroke-linecap:butt;
"/>
<!-- Line -->
<polyline points="3076,3068
3308,3192
" style="stroke:#0000ff;stroke-width:32;
stroke-linejoin:miter; stroke-linecap:butt;
"/>
<!-- Line -->
<polyline points="3399,1947
3634,1986
" style="stroke:#0000ff;stroke-width:32;
stroke-linejoin:miter; stroke-linecap:butt;
"/>
</g>
</svg>
