<?xml version="1.0" encoding="UTF-8" standalone="no"?>
<!-- Creator: fig2dev Version 3.2.8 -->
<!-- CreationDate: 2022-05-05 19:05:07 -->
<!-- Magnification: 1.05 -->
<svg	xmlns="http://www.w3.org/2000/svg"
	xmlns:xlink="http://www.w3.org/1999/xlink"
	width="683pt" height="206pt"
	viewBox="-5493 592 10834 3266">
<g fill="none">
<!-- Line -->
<polyline points=" -4401,2297 -3663,2469"
	stroke="#5a5a5a" stroke-width="8px" stroke-linejoin="round"/>
<!-- Line -->
<polyline points=" -4401,2297 -3663,2469"
	stroke="#5a5a5a" stroke-width="8px" stroke-linejoin="round"/>
<!-- Line -->
<polyline points=" -4401,2297 -4419,1551"
	stroke="#5a5a5a" stroke-width="8px" stroke-linejoin="round"/>
<!-- Line -->
<polyline points=" -4401,2297 -4419,1551"
	stroke="#5a5a5a" stroke-width="8px" stroke-linejoin="round"/>
<!-- Line -->
<defs>
<clipPath id="cp0">
	<path clip-rule="evenodd" d="M -5493,592 H 5341 V 3858 H -5493 z
		M 2370,2390 2526,2517 2330,2565 2551,2534 2556,2513z"/>
</clipPath>
</defs>
<polyline points=" 1146,2207 2543,2521" clip-path="url(#cp0)"
	stroke="#000000" stroke-width="15px" stroke-linejoin="round"/>
<!-- Forward arrow to point 2543,2521 -->
<polyline points=" 2370,2390 2526,2517 2330,2565"
	stroke="#000000" stroke-width="15px" stroke-miterlimit="8"/>
<!-- Line -->
<polyline points=" -4401,2297 -4820,2666"
	stroke="#5a5a5a" stroke-width="8px" stroke-linejoin="round"/>
<!-- Line -->
<polyline points=" -4401,2297 -4820,2666"
	stroke="#5a5a5a" stroke-width="8px" stroke-linejoin="round"/>
<!-- Line -->
<defs>
<clipPath id="cp1">
	<path clip-rule="evenodd" d="M -5493,592 H 5341 V 3858 H -5493 z
		M 1233,2008 1146,2189 1053,2010 1136,2218 1157,2217z"/>
</clipPath>
</defs>
<polyline points=" 1127,795 1146,2207" clip-path="url(#cp1)"
	stroke="#000000" stroke-width="15px" stroke-linejoin="round"/>
<!-- Forward arrow to point 1146,2207 -->
<polyline points=" 1233,2008 1146,2189 1053,2010"
	stroke="#000000" stroke-width="15px" stroke-miterlimit="8"/>
<!-- Line -->
<defs>
<clipPath id="cp2">
	<path clip-rule="evenodd" d="M -5493,592 H 5341 V 3858 H -5493 z
		M 2405,818 2569,934 2378,996 2596,949 2599,928z"/>
</clipPath>
</defs>
<polyline points=" 1058,700 2587,937" clip-path="url(#cp2)"
	stroke="#000000" stroke-width="15px" stroke-linejoin="round"/>
<!-- Forward arrow to point 2587,937 -->
<polyline points=" 2405,818 2569,934 2378,996"
	stroke="#000000" stroke-width="15px" stroke-miterlimit="8"/>
<!-- Line -->
<defs>
<clipPath id="cp3">
	<path clip-rule="evenodd" d="M -5493,592 H 5341 V 3858 H -5493 z
		M 851,1016 936,834 1031,1012 946,805 925,806z"/>
</clipPath>
</defs>
<polyline points=" 970,2234 936,816" clip-path="url(#cp3)"
	stroke="#000000" stroke-width="15px" stroke-linejoin="round"/>
<!-- Forward arrow to point 936,816 -->
<polyline points=" 851,1016 936,834 1031,1012"
	stroke="#000000" stroke-width="15px" stroke-miterlimit="8"/>
<!-- Line -->
<polyline points=" -2859,2656 -3663,2469"
	stroke="#5a5a5a" stroke-width="8px" stroke-linejoin="round"/>
<!-- Line -->
<polyline points=" -2859,2656 -3663,2469"
	stroke="#5a5a5a" stroke-width="8px" stroke-linejoin="round"/>
<!-- Line -->
<polyline points=" -4438,731 -4419,1551"
	stroke="#5a5a5a" stroke-width="8px" stroke-linejoin="round"/>
<!-- Line -->
<polyline points=" -4438,731 -4419,1551"
	stroke="#5a5a5a" stroke-width="8px" stroke-linejoin="round"/>
<!-- Line -->
<defs>
<clipPath id="cp4">
	<path clip-rule="evenodd" d="M -5493,592 H 5341 V 3858 H -5493 z
		M 1259,2510 1104,2381 1300,2334 1079,2364 1074,2385z"/>
</clipPath>
</defs>
<polyline points=" 2488,2704 1087,2377" clip-path="url(#cp4)"
	stroke="#000000" stroke-width="15px" stroke-linejoin="round"/>
<!-- Forward arrow to point 1087,2377 -->
<polyline points=" 1259,2510 1104,2381 1300,2334"
	stroke="#000000" stroke-width="15px" stroke-miterlimit="8"/>
<!-- Line -->
<polyline points=" -4401,2297 -2859,2656 -2731,975 -4438,731 -4401,2297" fill="#dfdfdf"
	stroke="#5a5a5a" stroke-width="8px" stroke-linejoin="round"/>
<!-- Line -->
<defs>
<clipPath id="cp5">
	<path clip-rule="evenodd" d="M -5493,592 H 5341 V 3858 H -5493 z
		M 761,2295 957,2246 879,2431 985,2235 971,2219z"/>
</clipPath>
</defs>
<polyline points=" 158,2934 970,2234" clip-path="url(#cp5)"
	stroke="#000000" stroke-width="15px" stroke-linejoin="round"/>
<!-- Forward arrow to point 970,2234 -->
<polyline points=" 761,2295 957,2246 879,2431"
	stroke="#000000" stroke-width="15px" stroke-miterlimit="8"/>
<!-- Line -->
<defs>
<clipPath id="cp6">
	<path clip-rule="evenodd" d="M -5493,592 H 5341 V 3858 H -5493 z
		M 842,724 1043,709 934,879 1072,704 1062,686z"/>
</clipPath>
</defs>
<polyline points=" 179,1226 1058,700" clip-path="url(#cp6)"
	stroke="#000000" stroke-width="15px" stroke-linejoin="round"/>
<!-- Forward arrow to point 1058,700 -->
<polyline points=" 842,724 1043,709 934,879"
	stroke="#000000" stroke-width="15px" stroke-miterlimit="8"/>
<!-- Line -->
<polyline points=" -2859,2656 -2798,1859"
	stroke="#5a5a5a" stroke-width="8px" stroke-linejoin="round"/>
<!-- Line -->
<polyline points=" -2859,2656 -2798,1859"
	stroke="#5a5a5a" stroke-width="8px" stroke-linejoin="round"/>
<!-- Line -->
<polyline points=" -2859,2656 -2798,1859"
	stroke="#5a5a5a" stroke-width="8px" stroke-linejoin="round"/>
<!-- Line -->
<polyline points=" -2859,2656 -2798,1859"
	stroke="#5a5a5a" stroke-width="8px" stroke-linejoin="round"/>
<!-- Line -->
<polyline points=" -4438,731 -3625,848"
	stroke="#5a5a5a" stroke-width="8px" stroke-linejoin="round"/>
<!-- Line -->
<polyline points=" -4438,731 -3625,848"
	stroke="#5a5a5a" stroke-width="8px" stroke-linejoin="round"/>
<!-- Line -->
<defs>
<clipPath id="cp7">
	<path clip-rule="evenodd" d="M -5493,592 H 5341 V 3858 H -5493 z
		M 2529,1226 2629,1052 2708,1237 2641,1024 2620,1023z"/>
</clipPath>
</defs>
<polyline points=" 2543,2521 2630,1034" clip-path="url(#cp7)"
	stroke="#000000" stroke-width="15px" stroke-linejoin="round"/>
<!-- Forward arrow to point 2630,1034 -->
<polyline points=" 2529,1226 2629,1052 2708,1237"
	stroke="#000000" stroke-width="15px" stroke-miterlimit="8"/>
<!-- Line -->
<defs>
<clipPath id="cp8">
	<path clip-rule="evenodd" d="M -5493,592 H 5341 V 3858 H -5493 z
		M 501,3031 307,3085 380,2897 279,3096 293,3112z"/>
</clipPath>
</defs>
<polyline points=" 1087,2377 294,3097" clip-path="url(#cp8)"
	stroke="#000000" stroke-width="15px" stroke-linejoin="round"/>
<!-- Forward arrow to point 294,3097 -->
<polyline points=" 501,3031 307,3085 380,2897"
	stroke="#000000" stroke-width="15px" stroke-miterlimit="8"/>
<!-- Line -->
<defs>
<clipPath id="cp9">
	<path clip-rule="evenodd" d="M -5493,592 H 5341 V 3858 H -5493 z
		M 1308,915 1145,798 1336,737 1118,783 1115,804z"/>
</clipPath>
</defs>
<polyline points=" 2630,1034 1127,795" clip-path="url(#cp9)"
	stroke="#000000" stroke-width="15px" stroke-linejoin="round"/>
<!-- Forward arrow to point 1127,795 -->
<polyline points=" 1308,915 1145,798 1336,737"
	stroke="#000000" stroke-width="15px" stroke-miterlimit="8"/>
<!-- Line -->
<polyline points=" -2859,2656 -3164,3097"
	stroke="#5a5a5a" stroke-width="8px" stroke-linejoin="round"/>
<!-- Line -->
<polyline points=" -2859,2656 -3164,3097"
	stroke="#5a5a5a" stroke-width="8px" stroke-linejoin="round"/>
<!-- Line -->
<polyline points=" -2859,2656 -3164,3097"
	stroke="#5a5a5a" stroke-width="8px" stroke-linejoin="round"/>
<!-- Line -->
<polyline points=" -2859,2656 -3164,3097"
	stroke="#5a5a5a" stroke-width="8px" stroke-linejoin="round"/>
<!-- Line -->
<defs>
<clipPath id="cp10">
	<path clip-rule="evenodd" d="M -5493,592 H 5341 V 3858 H -5493 z
		M 370,3180 220,3046 418,3007 196,3028 190,3048z"/>
</clipPath>
</defs>
<polyline points=" 1788,3478 203,3041" clip-path="url(#cp10)"
	stroke="#000000" stroke-width="15px" stroke-linejoin="round"/>
<!-- Forward arrow to point 203,3041 -->
<polyline points=" 370,3180 220,3046 418,3007"
	stroke="#000000" stroke-width="15px" stroke-miterlimit="8"/>
<!-- Line -->
<polyline points=" -5323,3109 -4820,2666"
	stroke="#5a5a5a" stroke-width="8px" stroke-linejoin="round"/>
<!-- Line -->
<polyline points=" -5323,3109 -4820,2666"
	stroke="#5a5a5a" stroke-width="8px" stroke-linejoin="round"/>
<!-- Line -->
<defs>
<clipPath id="cp11">
	<path clip-rule="evenodd" d="M -5493,592 H 5341 V 3858 H -5493 z
		M 3567,3724 3391,3821 3419,3622 3366,3839 3384,3851z"/>
</clipPath>
</defs>
<polyline points=" 3966,2982 3381,3836" clip-path="url(#cp11)"
	stroke="#000000" stroke-width="15px" stroke-linejoin="round"/>
<!-- Forward arrow to point 3381,3836 -->
<polyline points=" 3567,3724 3391,3821 3419,3622"
	stroke="#000000" stroke-width="15px" stroke-miterlimit="8"/>
<!-- Line -->
<defs>
<clipPath id="cp12">
	<path clip-rule="evenodd" d="M -5493,592 H 5341 V 3858 H -5493 z
		M 4055,2623 3951,2795 3876,2609 3939,2823 3960,2824z"/>
</clipPath>
</defs>
<polyline points=" 4071,1301 3950,2813" clip-path="url(#cp12)"
	stroke="#000000" stroke-width="15px" stroke-linejoin="round"/>
<!-- Forward arrow to point 3950,2813 -->
<polyline points=" 4055,2623 3951,2795 3876,2609"
	stroke="#000000" stroke-width="15px" stroke-miterlimit="8"/>
<!-- Line -->
<defs>
<clipPath id="cp13">
	<path clip-rule="evenodd" d="M -5493,592 H 5341 V 3858 H -5493 z
		M 21,1639 99,1454 201,1627 108,1425 87,1426z"/>
</clipPath>
</defs>
<polyline points=" 203,3041 98,1436" clip-path="url(#cp13)"
	stroke="#000000" stroke-width="15px" stroke-linejoin="round"/>
<!-- Forward arrow to point 98,1436 -->
<polyline points=" 21,1639 99,1454 201,1627"
	stroke="#000000" stroke-width="15px" stroke-miterlimit="8"/>
<!-- Line -->
<defs>
<clipPath id="cp14">
	<path clip-rule="evenodd" d="M -5493,592 H 5341 V 3858 H -5493 z
		M 1882,3282 1788,3460 1702,3279 1777,3488 1798,3489z"/>
</clipPath>
</defs>
<polyline points=" 1821,1779 1788,3478" clip-path="url(#cp14)"
	stroke="#000000" stroke-width="15px" stroke-linejoin="round"/>
<!-- Forward arrow to point 1788,3478 -->
<polyline points=" 1882,3282 1788,3460 1702,3279"
	stroke="#000000" stroke-width="15px" stroke-miterlimit="8"/>
<!-- Line -->
<defs>
<clipPath id="cp15">
	<path clip-rule="evenodd" d="M -5493,592 H 5341 V 3858 H -5493 z
		M 5261,2487 5308,2683 5123,2603 5318,2712 5334,2698z"/>
</clipPath>
</defs>
<polyline points=" 4089,1223 5319,2697" clip-path="url(#cp15)"
	stroke="#000000" stroke-width="15px" stroke-linejoin="round"/>
<!-- Forward arrow to point 5319,2697 -->
<polyline points=" 5261,2487 5308,2683 5123,2603"
	stroke="#000000" stroke-width="15px" stroke-miterlimit="8"/>
<!-- Line -->
<polyline points=" -2859,2656 -2184,2642"
	stroke="#5a5a5a" stroke-width="8px" stroke-linejoin="round"/>
<!-- Line -->
<polyline points=" -2859,2656 -2184,2642"
	stroke="#5a5a5a" stroke-width="8px" stroke-linejoin="round"/>
<!-- Line -->
<polyline points=" -2859,2656 -3538,3636 -5323,3109 -4401,2297 -2859,2656" fill="#dfdfdf"
	stroke="#5a5a5a" stroke-width="8px" stroke-linejoin="round"/>
<!-- Line -->
<polyline points=" -4438,731 -4907,982"
	stroke="#5a5a5a" stroke-width="8px" stroke-linejoin="round"/>
<!-- Line -->
<polyline points=" -4438,731 -4907,982"
	stroke="#5a5a5a" stroke-width="8px" stroke-linejoin="round"/>
<!-- Line -->
<defs>
<clipPath id="cp16">
	<path clip-rule="evenodd" d="M -5493,592 H 5341 V 3858 H -5493 z
		M 2782,2316 2630,2577 2512,2299 2609,2629 2645,2631z"/>
</clipPath>
</defs>
<polyline points=" 2723,1105 2628,2612" clip-path="url(#cp16)"
	stroke="#000000" stroke-width="30px" stroke-linejoin="round"/>
<!-- Forward arrow to point 2628,2612 -->
<polyline points=" 2782,2316 2630,2577 2512,2299"
	stroke="#000000" stroke-width="30px" stroke-miterlimit="8"/>
<!-- Line -->
<polyline points=" -5323,3109 -5481,1290 -4438,731 -4401,2297 -5323,3109" fill="#dfdfdf"
	stroke="#5a5a5a" stroke-width="8px" stroke-linejoin="round"/>
<!-- Line -->
<defs>
<clipPath id="cp17">
	<path clip-rule="evenodd" d="M -5493,592 H 5341 V 3858 H -5493 z
		M 4166,3068 3984,2982 4162,2888 3955,2972 3956,2993z"/>
</clipPath>
</defs>
<polyline points=" 5302,2952 3966,2982" clip-path="url(#cp17)"
	stroke="#000000" stroke-width="15px" stroke-linejoin="round"/>
<!-- Forward arrow to point 3966,2982 -->
<polyline points=" 4166,3068 3984,2982 4162,2888"
	stroke="#000000" stroke-width="15px" stroke-miterlimit="8"/>
<!-- Line -->
<defs>
<clipPath id="cp18">
	<path clip-rule="evenodd" d="M -5493,592 H 5341 V 3858 H -5493 z
		M 3744,1603 3898,1343 4013,1623 3920,1291 3884,1289z"/>
</clipPath>
</defs>
<polyline points=" 3787,2828 3901,1308" clip-path="url(#cp18)"
	stroke="#000000" stroke-width="30px" stroke-linejoin="round"/>
<!-- Forward arrow to point 3901,1308 -->
<polyline points=" 3744,1603 3898,1343 4013,1623"
	stroke="#000000" stroke-width="30px" stroke-miterlimit="8"/>
<!-- Line -->
<polyline points=" -2731,975 -2798,1859"
	stroke="#5a5a5a" stroke-width="8px" stroke-linejoin="round"/>
<!-- Line -->
<polyline points=" -2731,975 -2798,1859"
	stroke="#5a5a5a" stroke-width="8px" stroke-linejoin="round"/>
<!-- Line -->
<polyline points=" -2731,975 -2798,1859"
	stroke="#5a5a5a" stroke-width="8px" stroke-linejoin="round"/>
<!-- Line -->
<polyline points=" -2731,975 -2798,1859"
	stroke="#5a5a5a" stroke-width="8px" stroke-linejoin="round"/>
<!-- Line -->
<polyline points=" -2731,975 -3625,848"
	stroke="#5a5a5a" stroke-width="8px" stroke-linejoin="round"/>
<!-- Line -->
<polyline points=" -2731,975 -3625,848"
	stroke="#5a5a5a" stroke-width="8px" stroke-linejoin="round"/>
<!-- Line -->
<defs>
<clipPath id="cp19">
	<path clip-rule="evenodd" d="M -5493,592 H 5341 V 3858 H -5493 z
		M 3887,1302 4077,1236 4016,1428 4104,1223 4089,1208z"/>
</clipPath>
</defs>
<polyline points=" 3464,1868 4089,1223" clip-path="url(#cp19)"
	stroke="#000000" stroke-width="15px" stroke-linejoin="round"/>
<!-- Forward arrow to point 4089,1223 -->
<polyline points=" 3887,1302 4077,1236 4016,1428"
	stroke="#000000" stroke-width="15px" stroke-miterlimit="8"/>
<!-- Line -->
<defs>
<clipPath id="cp20">
	<path clip-rule="evenodd" d="M -5493,592 H 5341 V 3858 H -5493 z
		M 3521,3771 3320,3765 3446,3607 3290,3767 3299,3786z"/>
</clipPath>
</defs>
<polyline points=" 5252,2873 3304,3772" clip-path="url(#cp20)"
	stroke="#000000" stroke-width="15px" stroke-linejoin="round"/>
<!-- Forward arrow to point 3304,3772 -->
<polyline points=" 3521,3771 3320,3765 3446,3607"
	stroke="#000000" stroke-width="15px" stroke-miterlimit="8"/>
<!-- Line -->
<defs>
<clipPath id="cp21">
	<path clip-rule="evenodd" d="M -5493,592 H 5341 V 3858 H -5493 z
		M 266,1327 65,1343 173,1173 36,1348 46,1366z"/>
</clipPath>
</defs>
<polyline points=" 936,816 50,1352" clip-path="url(#cp21)"
	stroke="#000000" stroke-width="15px" stroke-linejoin="round"/>
<!-- Forward arrow to point 50,1352 -->
<polyline points=" 266,1327 65,1343 173,1173"
	stroke="#000000" stroke-width="15px" stroke-miterlimit="8"/>
<!-- Line -->
<defs>
<clipPath id="cp22">
	<path clip-rule="evenodd" d="M -5493,592 H 5341 V 3858 H -5493 z
		M 2295,3273 2025,3407 2080,3110 1978,3438 2006,3460z"/>
</clipPath>
</defs>
<polyline points=" 2628,2612 2003,3435" clip-path="url(#cp22)"
	stroke="#000000" stroke-width="30px" stroke-linejoin="round"/>
<!-- Forward arrow to point 2003,3435 -->
<polyline points=" 2295,3273 2025,3407 2080,3110"
	stroke="#000000" stroke-width="30px" stroke-miterlimit="8"/>
<!-- Line -->
<defs>
<clipPath id="cp23">
	<path clip-rule="evenodd" d="M -5493,592 H 5341 V 3858 H -5493 z
		M 2105,1486 1910,1538 1985,1351 1882,1549 1896,1565z"/>
</clipPath>
</defs>
<polyline points=" 2587,937 1897,1550" clip-path="url(#cp23)"
	stroke="#000000" stroke-width="15px" stroke-linejoin="round"/>
<!-- Forward arrow to point 1897,1550 -->
<polyline points=" 2105,1486 1910,1538 1985,1351"
	stroke="#000000" stroke-width="15px" stroke-miterlimit="8"/>
<!-- Line -->
<defs>
<clipPath id="cp24">
	<path clip-rule="evenodd" d="M -5493,592 H 5341 V 3858 H -5493 z
		M 5085,2677 5268,2760 5092,2857 5297,2769 5296,2748z"/>
</clipPath>
</defs>
<polyline points=" 3950,2813 5286,2759" clip-path="url(#cp24)"
	stroke="#000000" stroke-width="15px" stroke-linejoin="round"/>
<!-- Forward arrow to point 5286,2759 -->
<polyline points=" 5085,2677 5268,2760 5092,2857"
	stroke="#000000" stroke-width="15px" stroke-miterlimit="8"/>
<!-- Line -->
<polyline points=" -1323,2624 -2859,2656 -2731,975 -1323,2624" fill="#ffffff"
	stroke="#5a5a5a" stroke-width="8px" stroke-linejoin="round"/>
<!-- Line -->
<defs>
<clipPath id="cp25">
	<path clip-rule="evenodd" d="M -5493,592 H 5341 V 3858 H -5493 z
		M 3500,2999 3766,2857 3720,3155 3812,2824 3783,2803z"/>
</clipPath>
</defs>
<polyline points=" 3190,3667 3787,2828" clip-path="url(#cp25)"
	stroke="#000000" stroke-width="30px" stroke-linejoin="round"/>
<!-- Forward arrow to point 3787,2828 -->
<polyline points=" 3500,2999 3766,2857 3720,3155"
	stroke="#000000" stroke-width="30px" stroke-miterlimit="8"/>
<!-- Line -->
<polyline points=" -5323,3109 -4476,3359"
	stroke="#5a5a5a" stroke-width="8px" stroke-linejoin="round"/>
<!-- Line -->
<polyline points=" -5323,3109 -4476,3359"
	stroke="#5a5a5a" stroke-width="8px" stroke-linejoin="round"/>
<!-- Line -->
<defs>
<clipPath id="cp26">
	<path clip-rule="evenodd" d="M -5493,592 H 5341 V 3858 H -5493 z
		M 2296,2806 2477,2718 2438,2916 2503,2702 2486,2689z"/>
</clipPath>
</defs>
<polyline points=" 1850,3530 2488,2704" clip-path="url(#cp26)"
	stroke="#000000" stroke-width="15px" stroke-linejoin="round"/>
<!-- Forward arrow to point 2488,2704 -->
<polyline points=" 2296,2806 2477,2718 2438,2916"
	stroke="#000000" stroke-width="15px" stroke-miterlimit="8"/>
<!-- Line -->
<polyline points=" -5323,3109 -5397,2252"
	stroke="#5a5a5a" stroke-width="8px" stroke-linejoin="round"/>
<!-- Line -->
<polyline points=" -5323,3109 -5397,2252"
	stroke="#5a5a5a" stroke-width="8px" stroke-linejoin="round"/>
<!-- Line -->
<polyline points=" -2731,975 -2076,1743"
	stroke="#5a5a5a" stroke-width="8px" stroke-linejoin="round"/>
<!-- Line -->
<polyline points=" -2731,975 -2076,1743"
	stroke="#5a5a5a" stroke-width="8px" stroke-linejoin="round"/>
<!-- Line -->
<defs>
<clipPath id="cp27">
	<path clip-rule="evenodd" d="M -5493,592 H 5341 V 3858 H -5493 z
		M 234,2731 157,2916 55,2743 148,2945 169,2944z"/>
</clipPath>
</defs>
<polyline points=" 50,1352 158,2934" clip-path="url(#cp27)"
	stroke="#000000" stroke-width="15px" stroke-linejoin="round"/>
<!-- Forward arrow to point 158,2934 -->
<polyline points=" 234,2731 157,2916 55,2743"
	stroke="#000000" stroke-width="15px" stroke-miterlimit="8"/>
<!-- Line -->
<defs>
<clipPath id="cp28">
	<path clip-rule="evenodd" d="M -5493,592 H 5341 V 3858 H -5493 z
		M 3287,2243 3385,2068 3466,2252 3397,2040 3376,2039z"/>
</clipPath>
</defs>
<polyline points=" 3304,3772 3386,2050" clip-path="url(#cp28)"
	stroke="#000000" stroke-width="15px" stroke-linejoin="round"/>
<!-- Forward arrow to point 3386,2050 -->
<polyline points=" 3287,2243 3385,2068 3466,2252"
	stroke="#000000" stroke-width="15px" stroke-miterlimit="8"/>
<!-- Line -->
<polyline points=" -3538,3636 -3164,3097"
	stroke="#5a5a5a" stroke-width="8px" stroke-linejoin="round"/>
<!-- Line -->
<polyline points=" -3538,3636 -3164,3097"
	stroke="#5a5a5a" stroke-width="8px" stroke-linejoin="round"/>
<!-- Line -->
<polyline points=" -3538,3636 -3164,3097"
	stroke="#5a5a5a" stroke-width="8px" stroke-linejoin="round"/>
<!-- Line -->
<polyline points=" -3538,3636 -3164,3097"
	stroke="#5a5a5a" stroke-width="8px" stroke-linejoin="round"/>
<!-- Line -->
<polyline points=" -3538,3636 -2859,2656 -1323,2624 -3538,3636" fill="#ffffff"
	stroke="#5a5a5a" stroke-width="8px" stroke-linejoin="round"/>
<!-- Line -->
<polyline points=" -2731,975 -3059,1281"
	stroke="#5a5a5a" stroke-width="8px" stroke-linejoin="round"/>
<!-- Line -->
<polyline points=" -2731,975 -3059,1281"
	stroke="#5a5a5a" stroke-width="8px" stroke-linejoin="round"/>
<!-- Line -->
<polyline points=" -2731,975 -3059,1281"
	stroke="#5a5a5a" stroke-width="8px" stroke-linejoin="round"/>
<!-- Line -->
<polyline points=" -2731,975 -3059,1281"
	stroke="#5a5a5a" stroke-width="8px" stroke-linejoin="round"/>
<!-- Line -->
<polyline points=" -5481,1290 -4907,982"
	stroke="#5a5a5a" stroke-width="8px" stroke-linejoin="round"/>
<!-- Line -->
<polyline points=" -5481,1290 -4907,982"
	stroke="#5a5a5a" stroke-width="8px" stroke-linejoin="round"/>
<!-- Line -->
<defs>
<clipPath id="cp29">
	<path clip-rule="evenodd" d="M -5493,592 H 5341 V 3858 H -5493 z
		M 357,1351 196,1229 390,1174 171,1214 167,1234z"/>
</clipPath>
</defs>
<polyline points=" 1897,1550 179,1226" clip-path="url(#cp29)"
	stroke="#000000" stroke-width="15px" stroke-linejoin="round"/>
<!-- Forward arrow to point 179,1226 -->
<polyline points=" 357,1351 196,1229 390,1174"
	stroke="#000000" stroke-width="15px" stroke-miterlimit="8"/>
<!-- Line -->
<defs>
<clipPath id="cp30">
	<path clip-rule="evenodd" d="M -5493,592 H 5341 V 3858 H -5493 z
		M 1684,3390 1833,3525 1635,3564 1857,3543 1863,3523z"/>
</clipPath>
</defs>
<polyline points=" 294,3097 1850,3530" clip-path="url(#cp30)"
	stroke="#000000" stroke-width="15px" stroke-linejoin="round"/>
<!-- Forward arrow to point 1850,3530 -->
<polyline points=" 1684,3390 1833,3525 1635,3564"
	stroke="#000000" stroke-width="15px" stroke-miterlimit="8"/>
<!-- Line -->
<defs>
<clipPath id="cp31">
	<path clip-rule="evenodd" d="M -5493,592 H 5341 V 3858 H -5493 z
		M 1645,1652 1804,1776 1609,1829 1829,1791 1833,1771z"/>
</clipPath>
</defs>
<polyline points=" 98,1436 1821,1779" clip-path="url(#cp31)"
	stroke="#000000" stroke-width="15px" stroke-linejoin="round"/>
<!-- Forward arrow to point 1821,1779 -->
<polyline points=" 1645,1652 1804,1776 1609,1829"
	stroke="#000000" stroke-width="15px" stroke-miterlimit="8"/>
<!-- Line -->
<defs>
<clipPath id="cp32">
	<path clip-rule="evenodd" d="M -5493,592 H 5341 V 3858 H -5493 z
		M 5107,2711 5236,2866 5035,2876 5257,2887 5266,2868z"/>
</clipPath>
</defs>
<polyline points=" 3386,2050 5252,2873" clip-path="url(#cp32)"
	stroke="#000000" stroke-width="15px" stroke-linejoin="round"/>
<!-- Forward arrow to point 5252,2873 -->
<polyline points=" 5107,2711 5236,2866 5035,2876"
	stroke="#000000" stroke-width="15px" stroke-miterlimit="8"/>
<!-- Line -->
<defs>
<clipPath id="cp33">
	<path clip-rule="evenodd" d="M -5493,592 H 5341 V 3858 H -5493 z
		M 5085,2953 5286,2959 5160,3116 5316,2957 5307,2938z"/>
</clipPath>
</defs>
<polyline points=" 3381,3836 5302,2952" clip-path="url(#cp33)"
	stroke="#000000" stroke-width="15px" stroke-linejoin="round"/>
<!-- Forward arrow to point 5302,2952 -->
<polyline points=" 5085,2953 5286,2959 5160,3116"
	stroke="#000000" stroke-width="15px" stroke-miterlimit="8"/>
<!-- Line -->
<defs>
<clipPath id="cp34">
	<path clip-rule="evenodd" d="M -5493,592 H 5341 V 3858 H -5493 z
		M 3608,2031 3480,1875 3681,1867 3459,1854 3450,1873z"/>
</clipPath>
</defs>
<polyline points=" 5319,2697 3464,1868" clip-path="url(#cp34)"
	stroke="#000000" stroke-width="15px" stroke-linejoin="round"/>
<!-- Forward arrow to point 3464,1868 -->
<polyline points=" 3608,2031 3480,1875 3681,1867"
	stroke="#000000" stroke-width="15px" stroke-miterlimit="8"/>
<!-- Line -->
<defs>
<clipPath id="cp35">
	<path clip-rule="evenodd" d="M -5493,592 H 5341 V 3858 H -5493 z
		M 4128,1511 4082,1315 4267,1395 4072,1286 4056,1300z"/>
</clipPath>
</defs>
<polyline points=" 5286,2759 4071,1301" clip-path="url(#cp35)"
	stroke="#000000" stroke-width="15px" stroke-linejoin="round"/>
<!-- Forward arrow to point 4071,1301 -->
<polyline points=" 4128,1511 4082,1315 4267,1395"
	stroke="#000000" stroke-width="15px" stroke-miterlimit="8"/>
<!-- Line -->
<polyline points=" -3538,3636 -2859,2656 -2731,975 -3470,1664 -3538,3636" fill="#ffffff"
	stroke="#5a5a5a" stroke-width="8px" stroke-linejoin="round"/>
<!-- Line -->
<polyline points=" -3538,3636 -3470,1664 -2731,975 -2859,2656 -3538,3636" fill="#dfdfdf"
	stroke="#5a5a5a" stroke-width="8px" stroke-linejoin="round"/>
<!-- Line -->
<polyline points=" -3470,1664 -2731,975 -4438,731 -5481,1290 -3470,1664" fill="#dfdfdf"
	stroke="#5a5a5a" stroke-width="8px" stroke-linejoin="round"/>
<!-- Line -->
<polyline points=" -3538,3636 -4476,3359"
	stroke="#5a5a5a" stroke-width="8px" stroke-linejoin="round"/>
<!-- Line -->
<polyline points=" -3538,3636 -4476,3359"
	stroke="#5a5a5a" stroke-width="8px" stroke-linejoin="round"/>
<!-- Line -->
<polyline points=" -1323,2624 -2184,2642"
	stroke="#5a5a5a" stroke-width="8px" stroke-linejoin="round"/>
<!-- Line -->
<polyline points=" -1323,2624 -2184,2642"
	stroke="#5a5a5a" stroke-width="8px" stroke-linejoin="round"/>
<!-- Line -->
<polyline points=" -5481,1290 -5397,2252"
	stroke="#5a5a5a" stroke-width="8px" stroke-linejoin="round"/>
<!-- Line -->
<polyline points=" -5481,1290 -5397,2252"
	stroke="#5a5a5a" stroke-width="8px" stroke-linejoin="round"/>
<!-- Text -->
<text xml:space="preserve" x="3012" y="1343" fill="#343434" font-family="Times,Symbol" font-style="normal" font-weight="normal" font-size="288" text-anchor="start">&#946;</text>
<!-- Text -->
<text xml:space="preserve" x="3189" y="1491" fill="#343434" font-family="Times" font-style="italic" font-weight="normal" font-size="240" text-anchor="start">3</text>
<!-- Line -->
<polyline points=" -1323,2624 -2076,1743"
	stroke="#5a5a5a" stroke-width="8px" stroke-linejoin="round"/>
<!-- Line -->
<polyline points=" -1323,2624 -2076,1743"
	stroke="#5a5a5a" stroke-width="8px" stroke-linejoin="round"/>
<!-- Line -->
<defs>
<clipPath id="cp36">
	<path clip-rule="evenodd" d="M -5493,592 H 5341 V 3858 H -5493 z
		M 2409,1219 2697,1130 2596,1414 2748,1106 2724,1080z"/>
</clipPath>
</defs>
<polyline points=" 2057,1744 2723,1105" clip-path="url(#cp36)"
	stroke="#000000" stroke-width="30px" stroke-linejoin="round"/>
<!-- Forward arrow to point 2723,1105 -->
<polyline points=" 2409,1219 2697,1130 2596,1414"
	stroke="#000000" stroke-width="30px" stroke-miterlimit="8"/>
<!-- Line -->
<polyline points=" -3538,3636 -2453,3141"
	stroke="#5a5a5a" stroke-width="8px" stroke-linejoin="round"/>
<!-- Line -->
<polyline points=" -3538,3636 -2453,3141"
	stroke="#5a5a5a" stroke-width="8px" stroke-linejoin="round"/>
<!-- Line -->
<polyline points=" -3538,3636 -3470,1664 -5481,1290 -5323,3109 -3538,3636" fill="#dfdfdf"
	stroke="#5a5a5a" stroke-width="8px" stroke-linejoin="round"/>
<!-- Line -->
<defs>
<clipPath id="cp37">
	<path clip-rule="evenodd" d="M -5493,592 H 5341 V 3858 H -5493 z
		M 3577,1837 3292,1936 3383,1649 3242,1962 3267,1987z"/>
</clipPath>
</defs>
<polyline points=" 3901,1308 3267,1962" clip-path="url(#cp37)"
	stroke="#000000" stroke-width="30px" stroke-linejoin="round"/>
<!-- Forward arrow to point 3267,1962 -->
<polyline points=" 3577,1837 3292,1936 3383,1649"
	stroke="#000000" stroke-width="30px" stroke-miterlimit="8"/>
<!-- Line -->
<polyline points=" -1323,2624 -3470,1664 -2731,975 -1323,2624" fill="#ffffff"
	stroke="#5a5a5a" stroke-width="8px" stroke-linejoin="round"/>
<!-- Line -->
<polyline points=" -3538,3636 -3506,2713"
	stroke="#5a5a5a" stroke-width="8px" stroke-linejoin="round"/>
<!-- Line -->
<polyline points=" -3538,3636 -3506,2713"
	stroke="#5a5a5a" stroke-width="8px" stroke-linejoin="round"/>
<!-- Line -->
<polyline points=" -1323,2624 -2453,3141"
	stroke="#5a5a5a" stroke-width="8px" stroke-linejoin="round"/>
<!-- Line -->
<polyline points=" -1323,2624 -2453,3141"
	stroke="#5a5a5a" stroke-width="8px" stroke-linejoin="round"/>
<!-- Line -->
<polyline points=" -3538,3636 -3506,2713"
	stroke="#5a5a5a" stroke-width="8px" stroke-linejoin="round"/>
<!-- Line -->
<polyline points=" -3538,3636 -3506,2713"
	stroke="#5a5a5a" stroke-width="8px" stroke-linejoin="round"/>
<!-- Line -->
<polyline points=" 2674,1888 3838,2113"
	stroke="#0000ff" stroke-width="30px"/>
<!-- Line -->
<polyline points=" 2400,2919 3542,3176"
	stroke="#0000ff" stroke-width="30px"/>
<!-- Line -->
<polyline points=" -5481,1290 -4534,1466"
	stroke="#5a5a5a" stroke-width="8px" stroke-linejoin="round"/>
<!-- Line -->
<polyline points=" -5481,1290 -4534,1466"
	stroke="#5a5a5a" stroke-width="8px" stroke-linejoin="round"/>
<!-- Line -->
<defs>
<clipPath id="cp38">
	<path clip-rule="evenodd" d="M -5493,592 H 5341 V 3858 H -5493 z
		M 1912,2045 2056,1780 2182,2054 2076,1727 2040,1725z"/>
</clipPath>
</defs>
<polyline points=" 2003,3435 2057,1744" clip-path="url(#cp38)"
	stroke="#000000" stroke-width="30px" stroke-linejoin="round"/>
<!-- Forward arrow to point 2057,1744 -->
<polyline points=" 1912,2045 2056,1780 2182,2054"
	stroke="#000000" stroke-width="30px" stroke-miterlimit="8"/>
<!-- Line -->
<polyline points=" -3470,1664 -3538,3636 -1323,2624 -3470,1664" fill="#ffffff"
	stroke="#5a5a5a" stroke-width="8px" stroke-linejoin="round"/>
<!-- Line -->
<defs>
<clipPath id="cp39">
	<path clip-rule="evenodd" d="M -5493,592 H 5341 V 3858 H -5493 z
		M 3339,3368 3192,3631 3069,3356 3171,3684 3207,3686z"/>
</clipPath>
</defs>
<polyline points=" 3267,1962 3190,3667" clip-path="url(#cp39)"
	stroke="#000000" stroke-width="30px" stroke-linejoin="round"/>
<!-- Forward arrow to point 3190,3667 -->
<polyline points=" 3339,3368 3192,3631 3069,3356"
	stroke="#000000" stroke-width="30px" stroke-miterlimit="8"/>
<!-- Line -->
<polyline points=" -1323,2624 -2350,2165"
	stroke="#5a5a5a" stroke-width="8px" stroke-linejoin="round"/>
<!-- Line -->
<polyline points=" -1323,2624 -2350,2165"
	stroke="#5a5a5a" stroke-width="8px" stroke-linejoin="round"/>
<!-- Line -->
<polyline points=" -3470,1664 -3059,1281"
	stroke="#5a5a5a" stroke-width="8px" stroke-linejoin="round"/>
<!-- Line -->
<polyline points=" -3470,1664 -3059,1281"
	stroke="#5a5a5a" stroke-width="8px" stroke-linejoin="round"/>
<!-- Line -->
<polyline points=" -3470,1664 -3059,1281"
	stroke="#5a5a5a" stroke-width="8px" stroke-linejoin="round"/>
<!-- Line -->
<polyline points=" -3470,1664 -3059,1281"
	stroke="#5a5a5a" stroke-width="8px" stroke-linejoin="round"/>
<!-- Line -->
<polyline points=" -3470,1664 -3506,2713"
	stroke="#5a5a5a" stroke-width="8px" stroke-linejoin="round"/>
<!-- Line -->
<polyline points=" -3470,1664 -3506,2713"
	stroke="#5a5a5a" stroke-width="8px" stroke-linejoin="round"/>
<!-- Line -->
<polyline points=" -3470,1664 -3506,2713"
	stroke="#5a5a5a" stroke-width="8px" stroke-linejoin="round"/>
<!-- Line -->
<polyline points=" -3470,1664 -3506,2713"
	stroke="#5a5a5a" stroke-width="8px" stroke-linejoin="round"/>
<!-- Line -->
<polyline points=" -3470,1664 -4534,1466"
	stroke="#5a5a5a" stroke-width="8px" stroke-linejoin="round"/>
<!-- Line -->
<polyline points=" -3470,1664 -4534,1466"
	stroke="#5a5a5a" stroke-width="8px" stroke-linejoin="round"/>
<!-- Line -->
<polyline points=" -3470,1664 -2350,2165"
	stroke="#5a5a5a" stroke-width="8px" stroke-linejoin="round"/>
<!-- Line -->
<polyline points=" -3470,1664 -2350,2165"
	stroke="#5a5a5a" stroke-width="8px" stroke-linejoin="round"/>
<!-- Line -->
<polyline points=" -2863,2652 -1326,2626"
	stroke="#5a5a5a" stroke-width="8px" stroke-dasharray="10 10"/>
<!-- Line -->
<polyline points=" -5330,3114 -4400,2297 -2858,2658"
	stroke="#5a5a5a" stroke-width="8px" stroke-dasharray="10 10"/>
<!-- Line -->
<polyline points=" -4434,732 -4403,2300"
	stroke="#5a5a5a" stroke-width="8px" stroke-dasharray="10 10"/>
<!-- Line -->
<polyline points=" -3530,3627 -2853,2654 -2736,970"
	stroke="#5a5a5a" stroke-width="8px" stroke-dasharray="10 10"/>
<!-- Circle -->
<circle cx="-3475" cy="1664" r="94" fill="#000000"
	stroke="#000000" stroke-width="45px"/>
<!-- Line -->
<polyline points=" -2935,1196 -3481,2320"
	stroke="#5a5a5a" stroke-width="8px" stroke-dasharray="40 40"/>
<!-- Line -->
<polyline points=" -3240,1485 -3482,1972"
	stroke="#5a5a5a" stroke-width="8px" stroke-dasharray="40 40"/>
<!-- Line -->
<polyline points=" -2803,1944 -3529,3406"
	stroke="#5a5a5a" stroke-width="8px" stroke-dasharray="40 40"/>
<!-- Line -->
<polyline points=" -2831,2346 -3284,3283"
	stroke="#5a5a5a" stroke-width="8px" stroke-dasharray="40 40"/>
<!-- Line -->
<polyline points=" -2734,1107 -3493,2694"
	stroke="#5a5a5a" stroke-width="8px" stroke-dasharray="40 40"/>
<!-- Line -->
<polyline points=" -2770,1550 -3509,3056"
	stroke="#5a5a5a" stroke-width="8px" stroke-dasharray="40 40"/>
<!-- Text -->
<text xml:space="preserve" x="1841" y="787" fill="#000000" font-family="Times" font-style="normal" font-weight="normal" font-size="192" text-anchor="start">13</text>
<!-- Text -->
<text xml:space="preserve" x="1220" y="1382" fill="#000000" font-family="Times" font-style="normal" font-weight="normal" font-size="192" text-anchor="start">11</text>
<!-- Text -->
<text xml:space="preserve" x="2312" y="1687" fill="#000000" font-family="Times" font-style="normal" font-weight="normal" font-size="192" text-anchor="start">1</text>
<!-- Text -->
<text xml:space="preserve" x="2694" y="2189" fill="#000000" font-family="Times" font-style="normal" font-weight="normal" font-size="192" text-anchor="start">2</text>
<!-- Text -->
<text xml:space="preserve" x="2333" y="3189" fill="#000000" font-family="Times" font-style="normal" font-weight="normal" font-size="192" text-anchor="start">3</text>
<!-- Text -->
<text xml:space="preserve" x="1514" y="2929" fill="#000000" font-family="Times" font-style="normal" font-weight="normal" font-size="192" text-anchor="start">14</text>
<!-- Text -->
<text xml:space="preserve" x="3598" y="1496" fill="#000000" font-family="Times" font-style="normal" font-weight="normal" font-size="192" text-anchor="start">5</text>
<!-- Text -->
<text xml:space="preserve" x="3674" y="1822" fill="#000000" font-family="Times" font-style="normal" font-weight="normal" font-size="192" text-anchor="start">9</text>
<!-- Text -->
<text xml:space="preserve" x="3074" y="2663" fill="#000000" font-family="Times" font-style="normal" font-weight="normal" font-size="192" text-anchor="start">6</text>
<!-- Text -->
<text xml:space="preserve" x="3647" y="2503" fill="#000000" font-family="Times" font-style="normal" font-weight="normal" font-size="192" text-anchor="start">8</text>
<!-- Text -->
<text xml:space="preserve" x="3458" y="3105" fill="#000000" font-family="Times" font-style="normal" font-weight="normal" font-size="192" text-anchor="start">7</text>
<!-- Text -->
<text xml:space="preserve" x="4174" y="2719" fill="#000000" font-family="Times" font-style="normal" font-weight="normal" font-size="192" text-anchor="start">15</text>
<!-- Text -->
<text xml:space="preserve" x="2074" y="2870" fill="#000000" font-family="Times" font-style="normal" font-weight="normal" font-size="192" text-anchor="start">4</text>
<!-- Text -->
<text xml:space="preserve" x="2018" y="1207" fill="#000000" font-family="Times" font-style="normal" font-weight="normal" font-size="192" text-anchor="start">10</text>
<!-- Text -->
<text xml:space="preserve" x="314" y="972" fill="#000000" font-family="Times" font-style="normal" font-weight="normal" font-size="192" text-anchor="start">12</text>
<!-- Text -->
<text xml:space="preserve" x="-3679" y="1564" fill="#000000" font-family="Times" font-style="normal" font-weight="normal" font-size="240" text-anchor="start">v</text>
<!-- Text -->
<text xml:space="preserve" x="-4455" y="2115" fill="#000000" font-family="Times" font-style="normal" font-weight="normal" font-size="240" text-anchor="start">vol1</text>
<!-- Text -->
<text xml:space="preserve" x="-4162" y="1275" fill="#000000" font-family="Times" font-style="normal" font-weight="normal" font-size="240" text-anchor="start">f1</text>
<!-- Text -->
<text xml:space="preserve" x="-2655" y="2520" fill="#000000" font-family="Times" font-style="normal" font-weight="normal" font-size="240" text-anchor="start">vol2</text>
<!-- Line -->
<polyline points=" 531,2560 765,2713"
	stroke="#9f9f9f" stroke-width="8px"/>
<!-- Line -->
<polyline points=" 1751,2305 1697,2560"
	stroke="#9f9f9f" stroke-width="8px"/>
<!-- Line -->
<polyline points=" 2133,3108 2260,3108"
	stroke="#9f9f9f" stroke-width="8px"/>
<!-- Line -->
<polyline points=" 1114,3263 960,3303"
	stroke="#9f9f9f" stroke-width="8px"/>
<!-- Line -->
<polyline points=" 1724,783 1798,937"
	stroke="#9f9f9f" stroke-width="8px"/>
<!-- Line -->
<polyline points=" 2267,1192 2455,1426"
	stroke="#9f9f9f" stroke-width="8px"/>
<!-- Line -->
<polyline points=" 698,903 698,937 698,970"
	stroke="#9f9f9f" stroke-width="8px"/>
<!-- Line -->
<polyline points=" 69,2117 102,2130 122,2164 156,2178"
	stroke="#9f9f9f" stroke-width="8px"/>
<!-- Line -->
<polyline points=" 926,1488 1127,1433"
	stroke="#9f9f9f" stroke-width="8px"/>
<!-- Line -->
<polyline points=" 1783,2497 2079,2506"
	stroke="#9f9f9f" stroke-width="8px"/>
<!-- Line -->
<polyline points=" 2254,2546 2361,2606"
	stroke="#9f9f9f" stroke-width="8px"/>
<!-- Line -->
<polyline points=" 2535,1856 2702,1875"
	stroke="#9f9f9f" stroke-width="8px"/>
<!-- Line -->
<polyline points=" 3122,2841 3431,2947"
	stroke="#9f9f9f" stroke-width="8px"/>
<!-- Line -->
<polyline points=" 3611,1591 3744,1561"
	stroke="#9f9f9f" stroke-width="8px"/>
<!-- Line -->
<polyline points=" 4406,2208 4260,2494"
	stroke="#9f9f9f" stroke-width="8px"/>
<!-- Line -->
<polyline points=" 4555,2756 4561,2999"
	stroke="#9f9f9f" stroke-width="8px"/>
<!-- Line -->
<polyline points=" 3489,3277 3714,3329"
	stroke="#9f9f9f" stroke-width="8px"/>
<!-- Line -->
<polyline points=" 4190,3319 4282,3471"
	stroke="#9f9f9f" stroke-width="8px"/>
<!-- Line -->
<polyline points=" 4602,2014 4730,1928"
	stroke="#9f9f9f" stroke-width="8px"/>
<!-- Line -->
<polyline points=" 1242,1415 1108,1683"
	stroke="#9f9f9f" stroke-width="8px"/>
<!-- Circle -->
<circle cx="-3148" cy="2133" r="170" fill="#ffffff"
	stroke="#000000" stroke-width="8px" stroke-dasharray="40 40"/>
<!-- Line -->
<polyline points=" 2038,2514 3220,2759"
	stroke="#0000ff" stroke-width="30px"/>
<!-- Line -->
<polyline points=" 2396,1412 3626,1600"
	stroke="#0000ff" stroke-width="30px"/>
<!-- Line -->
<polyline points=" -3467,1666 -2736,980"
	stroke="#000000" stroke-width="45px"/>
<!-- Text -->
<text xml:space="preserve" x="-3273" y="1299" fill="#000000" font-family="Times" font-style="normal" font-weight="normal" font-size="240" text-anchor="start">e</text>
<!-- Text -->
<text xml:space="preserve" x="-3282" y="2228" fill="#000000" font-family="Times" font-style="normal" font-weight="normal" font-size="240" text-anchor="start">f2</text>
</g>
</svg>
