<?xml version="1.0" standalone="no"?>
<!DOCTYPE svg PUBLIC "-//W3C//DTD SVG 1.1//EN"
"http://www.w3.org/Graphics/SVG/1.1/DTD/svg11.dtd">
<!-- Creator: fig2dev Version 3.2.6 -->
<!-- CreationDate: Mon Nov 21 08:43:35 2016 -->
<!-- Magnification: 1.050 -->
<svg	xmlns="http://www.w3.org/2000/svg"
	xmlns:xlink="http://www.w3.org/1999/xlink"
	width="9.8in" height="3.9in"
	viewBox="-278 -53 11797 4642">
<g style="stroke-width:.025in; fill:none">
<!-- Line -->
<polyline points="1150,2228
2939,2629
" style="stroke:#5e5e5e;stroke-width:8;
stroke-linejoin:round; stroke-linecap:butt;
"/>
<!-- Arrowhead on XXXpoint 1150 2228 - 2971 2637-->
<polyline points="2806 2672
2961 2635
2837 2534
" style="stroke:#5e5e5e;stroke-width:8;stroke-miterlimit:8;
"/>
<!-- Line -->
<polyline points="7394,2392
9182,2794
" style="stroke:#5e5e5e;stroke-width:8;
stroke-linejoin:round; stroke-linecap:butt;
"/>
<!-- Arrowhead on XXXpoint 7394 2392 - 9213 2802-->
<polyline points="9048 2837
9204 2800
9080 2699
" style="stroke:#5e5e5e;stroke-width:8;stroke-miterlimit:8;
"/>
<!-- Line -->
<polyline points="1125,404
1150,2212
" style="stroke:#5e5e5e;stroke-width:8;
stroke-linejoin:round; stroke-linecap:butt;
"/>
<!-- Arrowhead on XXXpoint 1125 404 - 1150 2243-->
<polyline points="1077 2092
1150 2234
1218 2090
" style="stroke:#5e5e5e;stroke-width:8;stroke-miterlimit:8;
"/>
<!-- Line -->
<polyline points="7367,569
7394,2375
" style="stroke:#5e5e5e;stroke-width:8;
stroke-linejoin:round; stroke-linecap:butt;
"/>
<!-- Arrowhead on XXXpoint 7367 569 - 7394 2407-->
<polyline points="7320 2256
7394 2397
7462 2254
" style="stroke:#5e5e5e;stroke-width:8;stroke-miterlimit:8;
"/>
<!-- Line -->
<polyline points="2885,2871
1090,2452
" style="stroke:#5e5e5e;stroke-width:8;
stroke-linejoin:round; stroke-linecap:butt;
"/>
<!-- Arrowhead on XXXpoint 2885 2871 - 1059 2445-->
<polyline points="1223 2409
1068 2447
1190 2548
" style="stroke:#5e5e5e;stroke-width:8;stroke-miterlimit:8;
"/>
<!-- Line -->
<polyline points="9127,3036
7333,2617
" style="stroke:#5e5e5e;stroke-width:8;
stroke-linejoin:round; stroke-linecap:butt;
"/>
<!-- Arrowhead on XXXpoint 9127 3036 - 7301 2609-->
<polyline points="7465 2574
7311 2612
7433 2712
" style="stroke:#5e5e5e;stroke-width:8;stroke-miterlimit:8;
"/>
<!-- Line -->
<polyline points="922,2263
878,447
" style="stroke:#5e5e5e;stroke-width:8;
stroke-linejoin:round; stroke-linecap:butt;
"/>
<!-- Arrowhead on XXXpoint 922 2263 - 877 415-->
<polyline points="952 564
877 425
809 569
" style="stroke:#5e5e5e;stroke-width:8;stroke-miterlimit:8;
"/>
<!-- Line -->
<polyline points="7166,2428
7121,612
" style="stroke:#5e5e5e;stroke-width:8;
stroke-linejoin:round; stroke-linecap:butt;
"/>
<!-- Arrowhead on XXXpoint 7166 2428 - 7120 580-->
<polyline points="7194 729
7120 590
7051 733
" style="stroke:#5e5e5e;stroke-width:8;stroke-miterlimit:8;
"/>
<!-- Line -->
<polyline points="1075,2449
60,3367
" style="stroke:#5e5e5e;stroke-width:8;
stroke-linejoin:round; stroke-linecap:butt;
"/>
<!-- Arrowhead on XXXpoint 1075 2449 - 36 3390-->
<polyline points="100 3234
44 3383
197 3340
" style="stroke:#5e5e5e;stroke-width:8;stroke-miterlimit:8;
"/>
<!-- Line -->
<polyline points="7317,2614
6303,3531
" style="stroke:#5e5e5e;stroke-width:8;
stroke-linejoin:round; stroke-linecap:butt;
"/>
<!-- Arrowhead on XXXpoint 7317 2614 - 6279 3553-->
<polyline points="6344 3398
6286 3547
6439 3504
" style="stroke:#5e5e5e;stroke-width:8;stroke-miterlimit:8;
"/>
<!-- Line -->
<polyline points="-127,3168
910,2274
" style="stroke:#5e5e5e;stroke-width:8;
stroke-linejoin:round; stroke-linecap:butt;
"/>
<!-- Arrowhead on XXXpoint -127 3168 - 934 2253-->
<polyline points="865 2405
927 2259
771 2298
" style="stroke:#5e5e5e;stroke-width:8;stroke-miterlimit:8;
"/>
<!-- Line -->
<polyline points="6117,3333
7153,2438
" style="stroke:#5e5e5e;stroke-width:8;
stroke-linejoin:round; stroke-linecap:butt;
"/>
<!-- Arrowhead on XXXpoint 6117 3333 - 7177 2417-->
<polyline points="7108 2571
7170 2424
7015 2462
" style="stroke:#5e5e5e;stroke-width:8;stroke-miterlimit:8;
"/>
<!-- Line -->
<polyline points="2956,2634
3066,728
" style="stroke:#5e5e5e;stroke-width:8;
stroke-linejoin:round; stroke-linecap:butt;
"/>
<!-- Arrowhead on XXXpoint 2956 2634 - 3067 697-->
<polyline points="3128 852
3066 706
2986 844
" style="stroke:#5e5e5e;stroke-width:8;stroke-miterlimit:8;
"/>
<!-- Line -->
<polyline points="9198,2798
9310,892
" style="stroke:#5e5e5e;stroke-width:8;
stroke-linejoin:round; stroke-linecap:butt;
"/>
<!-- Arrowhead on XXXpoint 9198 2798 - 9311 860-->
<polyline points="9372 1016
9310 870
9230 1007
" style="stroke:#5e5e5e;stroke-width:8;stroke-miterlimit:8;
"/>
<!-- Line -->
<polyline points="3067,712
1141,406
" style="stroke:#5e5e5e;stroke-width:8;
stroke-linejoin:round; stroke-linecap:butt;
"/>
<!-- Arrowhead on XXXpoint 3067 712 - 1109 401-->
<polyline points="1270 353
1119 402
1248 494
" style="stroke:#5e5e5e;stroke-width:8;stroke-miterlimit:8;
"/>
<!-- Line -->
<polyline points="9311,876
7383,571
" style="stroke:#5e5e5e;stroke-width:8;
stroke-linejoin:round; stroke-linecap:butt;
"/>
<!-- Arrowhead on XXXpoint 9311 876 - 7352 565-->
<polyline points="7512 518
7361 566
7490 659
" style="stroke:#5e5e5e;stroke-width:8;stroke-miterlimit:8;
"/>
<!-- Line -->
<polyline points="3188,804
3065,2735
" style="stroke:#5e5e5e;stroke-width:8;
stroke-linejoin:round; stroke-linecap:butt;
"/>
<!-- Arrowhead on XXXpoint 3188 804 - 3064 2767-->
<polyline points="3002 2611
3065 2758
3145 2619
" style="stroke:#5e5e5e;stroke-width:8;stroke-miterlimit:8;
"/>
<!-- Line -->
<polyline points="9432,969
9308,2900
" style="stroke:#5e5e5e;stroke-width:8;
stroke-linejoin:round; stroke-linecap:butt;
"/>
<!-- Arrowhead on XXXpoint 9432 969 - 9307 2932-->
<polyline points="9245 2775
9308 2922
9387 2784
" style="stroke:#5e5e5e;stroke-width:8;stroke-miterlimit:8;
"/>
<!-- Line -->
<polyline points="1036,281
2996,584
" style="stroke:#5e5e5e;stroke-width:8;
stroke-linejoin:round; stroke-linecap:butt;
"/>
<!-- Arrowhead on XXXpoint 1036 281 - 3027 590-->
<polyline points="2866 637
3018 588
2888 496
" style="stroke:#5e5e5e;stroke-width:8;stroke-miterlimit:8;
"/>
<!-- Line -->
<polyline points="7279,445
9239,749
" style="stroke:#5e5e5e;stroke-width:8;
stroke-linejoin:round; stroke-linecap:butt;
"/>
<!-- Arrowhead on XXXpoint 7279 445 - 9271 754-->
<polyline points="9109 802
9261 753
9131 661
" style="stroke:#5e5e5e;stroke-width:8;stroke-miterlimit:8;
"/>
<!-- Line -->
<polyline points="3651,843
3493,2780
" style="stroke:#5e5e5e;stroke-width:8;
stroke-linejoin:round; stroke-linecap:butt;
"/>
<!-- Arrowhead on XXXpoint 3651 843 - 3491 2811-->
<polyline points="3433 2654
3492 2802
3574 2665
" style="stroke:#5e5e5e;stroke-width:8;stroke-miterlimit:8;
"/>
<!-- Line -->
<polyline points="9893,1006
9737,2944
" style="stroke:#5e5e5e;stroke-width:8;
stroke-linejoin:round; stroke-linecap:butt;
"/>
<!-- Arrowhead on XXXpoint 9893 1006 - 9735 2976-->
<polyline points="9676 2818
9736 2966
9818 2830
" style="stroke:#5e5e5e;stroke-width:8;stroke-miterlimit:8;
"/>
<!-- Line -->
<polyline points="3283,2815
3429,867
" style="stroke:#5e5e5e;stroke-width:8;
stroke-linejoin:round; stroke-linecap:butt;
"/>
<!-- Arrowhead on XXXpoint 3283 2815 - 3432 835-->
<polyline points="3490 992
3430 845
3349 981
" style="stroke:#5e5e5e;stroke-width:8;stroke-miterlimit:8;
"/>
<!-- Line -->
<polyline points="9527,2980
9672,1032
" style="stroke:#5e5e5e;stroke-width:8;
stroke-linejoin:round; stroke-linecap:butt;
"/>
<!-- Arrowhead on XXXpoint 9527 2980 - 9674 1000-->
<polyline points="9733 1156
9673 1009
9591 1146
" style="stroke:#5e5e5e;stroke-width:8;stroke-miterlimit:8;
"/>
<!-- Line -->
<polyline points="2060,3938
2874,2883
" style="stroke:#5e5e5e;stroke-width:8;
stroke-linejoin:round; stroke-linecap:butt;
"/>
<!-- Arrowhead on XXXpoint 2060 3938 - 2894 2858-->
<polyline points="2857 3021
2889 2866
2745 2934
" style="stroke:#5e5e5e;stroke-width:8;stroke-miterlimit:8;
"/>
<!-- Line -->
<polyline points="8303,4102
9117,3048
" style="stroke:#5e5e5e;stroke-width:8;
stroke-linejoin:round; stroke-linecap:butt;
"/>
<!-- Arrowhead on XXXpoint 8303 4102 - 9137 3023-->
<polyline points="9100 3186
9131 3030
8987 3099
" style="stroke:#5e5e5e;stroke-width:8;stroke-miterlimit:8;
"/>
<!-- Line -->
<polyline points="878,431
-251,1113
" style="stroke:#5e5e5e;stroke-width:8;
stroke-linejoin:round; stroke-linecap:butt;
"/>
<!-- Arrowhead on XXXpoint 878 431 - -278 1130-->
<polyline points="-183 990
-269 1125
-110 1111
" style="stroke:#5e5e5e;stroke-width:8;stroke-miterlimit:8;
"/>
<!-- Line -->
<polyline points="7121,596
5990,1278
" style="stroke:#5e5e5e;stroke-width:8;
stroke-linejoin:round; stroke-linecap:butt;
"/>
<!-- Arrowhead on XXXpoint 7121 596 - 5963 1295-->
<polyline points="6056 1154
5971 1290
6130 1276
" style="stroke:#5e5e5e;stroke-width:8;stroke-miterlimit:8;
"/>
<!-- Line -->
<polyline points="3065,2752
2267,3802
" style="stroke:#5e5e5e;stroke-width:8;
stroke-linejoin:round; stroke-linecap:butt;
"/>
<!-- Arrowhead on XXXpoint 3065 2752 - 2247 3827-->
<polyline points="2282 3662
2253 3820
2395 3750
" style="stroke:#5e5e5e;stroke-width:8;stroke-miterlimit:8;
"/>
<!-- Line -->
<polyline points="9308,2917
8511,3967
" style="stroke:#5e5e5e;stroke-width:8;
stroke-linejoin:round; stroke-linecap:butt;
"/>
<!-- Arrowhead on XXXpoint 9308 2917 - 8491 3992-->
<polyline points="8525 3827
8496 3985
8639 3914
" style="stroke:#5e5e5e;stroke-width:8;stroke-miterlimit:8;
"/>
<!-- Line -->
<polyline points="-99,961
1021,288
" style="stroke:#5e5e5e;stroke-width:8;
stroke-linejoin:round; stroke-linecap:butt;
"/>
<!-- Arrowhead on XXXpoint -99 961 - 1048 272-->
<polyline points="954 411
1040 278
880 289
" style="stroke:#5e5e5e;stroke-width:8;stroke-miterlimit:8;
"/>
<!-- Line -->
<polyline points="3514,3015
2767,4103
" style="stroke:#5e5e5e;stroke-width:8;
stroke-linejoin:round; stroke-linecap:butt;
"/>
<!-- Arrowhead on XXXpoint 3514 3015 - 2749 4131-->
<polyline points="2775 3965
2754 4123
2893 4046
" style="stroke:#5e5e5e;stroke-width:8;stroke-miterlimit:8;
"/>
<!-- Line -->
<polyline points="6142,1126
7265,452
" style="stroke:#5e5e5e;stroke-width:8;
stroke-linejoin:round; stroke-linecap:butt;
"/>
<!-- Arrowhead on XXXpoint 6142 1126 - 7292 436-->
<polyline points="7197 575
7283 441
7124 453
" style="stroke:#5e5e5e;stroke-width:8;stroke-miterlimit:8;
"/>
<!-- Line -->
<polyline points="9758,3180
9009,4268
" style="stroke:#5e5e5e;stroke-width:8;
stroke-linejoin:round; stroke-linecap:butt;
"/>
<!-- Arrowhead on XXXpoint 9758 3180 - 8992 4296-->
<polyline points="9018 4130
8997 4288
9135 4211
" style="stroke:#5e5e5e;stroke-width:8;stroke-miterlimit:8;
"/>
<!-- Line -->
<polyline points="2512,3900
3273,2828
" style="stroke:#5e5e5e;stroke-width:8;
stroke-linejoin:round; stroke-linecap:butt;
"/>
<!-- Arrowhead on XXXpoint 2512 3900 - 3292 2802-->
<polyline points="3261 2965
3287 2809
3146 2883
" style="stroke:#5e5e5e;stroke-width:8;stroke-miterlimit:8;
"/>
<!-- Line -->
<polyline points="8754,4065
9517,2993
" style="stroke:#5e5e5e;stroke-width:8;
stroke-linejoin:round; stroke-linecap:butt;
"/>
<!-- Arrowhead on XXXpoint 8754 4065 - 9535 2966-->
<polyline points="9505 3130
9530 2974
9390 3048
" style="stroke:#5e5e5e;stroke-width:8;stroke-miterlimit:8;
"/>
<!-- Line -->
<polyline points="49,3379
2044,3933
" style="stroke:#5e5e5e;stroke-width:8;
stroke-linejoin:round; stroke-linecap:butt;
"/>
<!-- Arrowhead on XXXpoint 49 3379 - 2075 3942-->
<polyline points="1909 3970
2066 3940
1947 3833
" style="stroke:#5e5e5e;stroke-width:8;stroke-miterlimit:8;
"/>
<!-- Line -->
<polyline points="6291,3543
8286,4098
" style="stroke:#5e5e5e;stroke-width:8;
stroke-linejoin:round; stroke-linecap:butt;
"/>
<!-- Arrowhead on XXXpoint 6291 3543 - 8318 4107-->
<polyline points="8152 4134
8308 4104
8190 3997
" style="stroke:#5e5e5e;stroke-width:8;stroke-miterlimit:8;
"/>
<!-- Line -->
<polyline points="3493,2796
5203,2727
" style="stroke:#5e5e5e;stroke-width:8;
stroke-linejoin:round; stroke-linecap:butt;
"/>
<!-- Arrowhead on XXXpoint 3493 2796 - 5234 2726-->
<polyline points="5085 2803
5225 2726
5079 2660
" style="stroke:#5e5e5e;stroke-width:8;stroke-miterlimit:8;
"/>
<!-- Line -->
<polyline points="9737,2961
11447,2891
" style="stroke:#5e5e5e;stroke-width:8;
stroke-linejoin:round; stroke-linecap:butt;
"/>
<!-- Arrowhead on XXXpoint 9737 2961 - 11479 2890-->
<polyline points="11330 2966
11469 2890
11323 2824
" style="stroke:#5e5e5e;stroke-width:8;stroke-miterlimit:8;
"/>
<!-- Line -->
<polyline points="5241,2976
3530,3015
" style="stroke:#5e5e5e;stroke-width:8;
stroke-linejoin:round; stroke-linecap:butt;
"/>
<!-- Arrowhead on XXXpoint 5241 2976 - 3499 3015-->
<polyline points="3649 2940
3508 3015
3652 3082
" style="stroke:#5e5e5e;stroke-width:8;stroke-miterlimit:8;
"/>
<!-- Line -->
<polyline points="11484,3141
9774,3180
" style="stroke:#5e5e5e;stroke-width:8;
stroke-linejoin:round; stroke-linecap:butt;
"/>
<!-- Arrowhead on XXXpoint 11484 3141 - 9742 3180-->
<polyline points="9892 3105
9752 3180
9896 3247
" style="stroke:#5e5e5e;stroke-width:8;stroke-miterlimit:8;
"/>
<!-- Line -->
<polyline points="-265,1123
-128,3151
" style="stroke:#5e5e5e;stroke-width:8;
stroke-linejoin:round; stroke-linecap:butt;
"/>
<!-- Arrowhead on XXXpoint -265 1123 - -124 3183-->
<polyline points="-205 3036
-125 3173
-64 3026
" style="stroke:#5e5e5e;stroke-width:8;stroke-miterlimit:8;
"/>
<!-- Line -->
<polyline points="5976,1288
6116,3316
" style="stroke:#5e5e5e;stroke-width:8;
stroke-linejoin:round; stroke-linecap:butt;
"/>
<!-- Arrowhead on XXXpoint 5976 1288 - 6118 3348-->
<polyline points="6036 3201
6117 3338
6178 3190
" style="stroke:#5e5e5e;stroke-width:8;stroke-miterlimit:8;
"/>
<!-- Line -->
<polyline points="1979,3871
-52,3310
" style="stroke:#5e5e5e;stroke-width:8;
stroke-linejoin:round; stroke-linecap:butt;
"/>
<!-- Arrowhead on XXXpoint 1979 3871 - -82 3302-->
<polyline points="81 3273
-73 3304
44 3411
" style="stroke:#5e5e5e;stroke-width:8;stroke-miterlimit:8;
"/>
<!-- Line -->
<polyline points="8223,4036
6190,3474
" style="stroke:#5e5e5e;stroke-width:8;
stroke-linejoin:round; stroke-linecap:butt;
"/>
<!-- Arrowhead on XXXpoint 8223 4036 - 6158 3466-->
<polyline points="6323 3437
6167 3468
6285 3574
" style="stroke:#5e5e5e;stroke-width:8;stroke-miterlimit:8;
"/>
<!-- Line -->
<polyline points="-68,3307
-204,1248
" style="stroke:#5e5e5e;stroke-width:8;
stroke-linejoin:round; stroke-linecap:butt;
"/>
<!-- Arrowhead on XXXpoint -68 3307 - -204 1216-->
<polyline points="-122 1362
-203 1226
-264 1372
" style="stroke:#5e5e5e;stroke-width:8;stroke-miterlimit:8;
"/>
<!-- Line -->
<polyline points="6174,3470
6038,1412
" style="stroke:#5e5e5e;stroke-width:8;
stroke-linejoin:round; stroke-linecap:butt;
"/>
<!-- Arrowhead on XXXpoint 6174 3470 - 6037 1380-->
<polyline points="6118 1526
6038 1390
5976 1535
" style="stroke:#5e5e5e;stroke-width:8;stroke-miterlimit:8;
"/>
<!-- Line -->
<polyline points="5219,2727
3661,855
" style="stroke:#5e5e5e;stroke-width:8;
stroke-linejoin:round; stroke-linecap:butt;
"/>
<!-- Arrowhead on XXXpoint 5219 2727 - 3640 830-->
<polyline points="3792 900
3647 837
3682 992
" style="stroke:#5e5e5e;stroke-width:8;stroke-miterlimit:8;
"/>
<!-- Line -->
<polyline points="11464,2891
9904,1019
" style="stroke:#5e5e5e;stroke-width:8;
stroke-linejoin:round; stroke-linecap:butt;
"/>
<!-- Arrowhead on XXXpoint 11464 2891 - 9883 994-->
<polyline points="10034 1064
9889 1001
9925 1155
" style="stroke:#5e5e5e;stroke-width:8;stroke-miterlimit:8;
"/>
<!-- Line -->
<polyline points="3672,741
5251,2633
" style="stroke:#5e5e5e;stroke-width:8;
stroke-linejoin:round; stroke-linecap:butt;
"/>
<!-- Arrowhead on XXXpoint 3672 741 - 5272 2658-->
<polyline points="5119 2586
5266 2650
5229 2495
" style="stroke:#5e5e5e;stroke-width:8;stroke-miterlimit:8;
"/>
<!-- Line -->
<polyline points="9916,906
11495,2797
" style="stroke:#5e5e5e;stroke-width:8;
stroke-linejoin:round; stroke-linecap:butt;
"/>
<!-- Arrowhead on XXXpoint 9916 906 - 11516 2823-->
<polyline points="11362 2751
11509 2815
11472 2660
" style="stroke:#5e5e5e;stroke-width:8;stroke-miterlimit:8;
"/>
<!-- Line -->
<polyline points="2327,1630
3163,827
" style="stroke:#000000;stroke-width:16;
stroke-linejoin:round; stroke-linecap:butt;
"/>
<!-- Arrowhead on XXXpoint 2327 1630 - 3210 782-->
<polyline points="3150 937
3204 788
3051 835
" style="stroke:#000000;stroke-width:8;stroke-miterlimit:8;
"/>
<!-- Line -->
<polyline points="8571,1795
9025,1358
" style="stroke:#000000;stroke-width:16;
stroke-linejoin:round; stroke-linecap:butt;
"/>
<!-- Arrowhead on XXXpoint 8571 1795 - 9072 1313-->
<polyline points="9013 1468
9066 1319
8914 1366
" style="stroke:#000000;stroke-width:8;stroke-miterlimit:8;
"/>
<!-- Line -->
<polyline points="9047,1338
9400,998
" style="stroke:#000000;stroke-width:16;
stroke-linejoin:round; stroke-linecap:butt;
"/>
<!-- Arrowhead on XXXpoint 9047 1338 - 9447 953-->
<polyline points="9387 1108
9441 959
9289 1006
" style="stroke:#000000;stroke-width:8;stroke-miterlimit:8;
"/>
<!-- Line -->
<polyline points="3013,587
2171,1332
" style="stroke:#000000;stroke-width:48;
stroke-linejoin:round; stroke-linecap:butt;
"/>
<!-- Arrowhead on XXXpoint 3013 587 - 2073 1419-->
<polyline points="2139 1265
2080 1413
2234 1371
" style="stroke:#000000;stroke-width:8;stroke-miterlimit:8;
"/>
<!-- Line -->
<polyline points="8864,1103
8415,1497
" style="stroke:#000000;stroke-width:48;
stroke-linejoin:round; stroke-linecap:butt;
"/>
<!-- Arrowhead on XXXpoint 8864 1103 - 8316 1584-->
<polyline points="8383 1429
8323 1577
8476 1537
" style="stroke:#000000;stroke-width:8;stroke-miterlimit:8;
"/>
<!-- Line -->
<polyline points="9256,756
8889,1080
" style="stroke:#000000;stroke-width:16;
stroke-linejoin:round; stroke-linecap:butt;
"/>
<!-- Arrowhead on XXXpoint 9256 756 - 8839 1123-->
<polyline points="8907 969
8847 1117
9000 1076
" style="stroke:#000000;stroke-width:8;stroke-miterlimit:8;
"/>
<!-- Line -->
<polyline points="3430,851
2634,1671
" style="stroke:#000000;stroke-width:16;
stroke-linejoin:round; stroke-linecap:butt;
"/>
<!-- Arrowhead on XXXpoint 3430 851 - 2588 1718-->
<polyline points="2642 1560
2595 1712
2745 1658
" style="stroke:#000000;stroke-width:8;stroke-miterlimit:8;
"/>
<!-- Line -->
<polyline points="9289,1415
8877,1836
" style="stroke:#000000;stroke-width:16;
stroke-linejoin:round; stroke-linecap:butt;
"/>
<!-- Arrowhead on XXXpoint 9289 1415 - 8832 1883-->
<polyline points="8887 1724
8838 1877
8988 1824
" style="stroke:#000000;stroke-width:8;stroke-miterlimit:8;
"/>
<!-- Line -->
<polyline points="9657,1032
9310,1393
" style="stroke:#000000;stroke-width:16;
stroke-linejoin:round; stroke-linecap:butt;
"/>
<!-- Arrowhead on XXXpoint 9657 1032 - 9265 1440-->
<polyline points="9318 1281
9271 1434
9420 1380
" style="stroke:#000000;stroke-width:8;stroke-miterlimit:8;
"/>
<!-- Line -->
<polyline points="2759,4118
5226,2982
" style="stroke:#5e5e5e;stroke-width:8;
stroke-linejoin:round; stroke-linecap:butt;
"/>
<!-- Arrowhead on XXXpoint 2759 4118 - 5255 2969-->
<polyline points="5147 3097
5247 2973
5087 2967
" style="stroke:#5e5e5e;stroke-width:8;stroke-miterlimit:8;
"/>
<!-- Line -->
<polyline points="9001,4283
11468,3147
" style="stroke:#5e5e5e;stroke-width:8;
stroke-linejoin:round; stroke-linecap:butt;
"/>
<!-- Arrowhead on XXXpoint 9001 4283 - 11498 3133-->
<polyline points="11390 3261
11489 3138
11330 3132
" style="stroke:#5e5e5e;stroke-width:8;stroke-miterlimit:8;
"/>
<!-- Line -->
<polyline points="2866,1574
3648,765
" style="stroke:#000000;stroke-width:16;
stroke-linejoin:round; stroke-linecap:butt;
"/>
<!-- Arrowhead on XXXpoint 2866 1574 - 3693 718-->
<polyline points="3638 875
3687 724
3535 776
" style="stroke:#000000;stroke-width:8;stroke-miterlimit:8;
"/>
<!-- Line -->
<polyline points="9497,1339
9891,930
" style="stroke:#000000;stroke-width:16;
stroke-linejoin:round; stroke-linecap:butt;
"/>
<!-- Arrowhead on XXXpoint 9497 1339 - 9937 882-->
<polyline points="9882 1040
9930 889
9780 941
" style="stroke:#000000;stroke-width:8;stroke-miterlimit:8;
"/>
<!-- Line -->
<polyline points="9116,1728
9471,1362
" style="stroke:#000000;stroke-width:16;
stroke-linejoin:round; stroke-linecap:butt;
"/>
<!-- Arrowhead on XXXpoint 9116 1728 - 9517 1315-->
<polyline points="9462 1472
9510 1321
9359 1374
" style="stroke:#000000;stroke-width:8;stroke-miterlimit:8;
"/>
<!-- Line -->
<polyline points="5175,2874
2672,4029
" style="stroke:#5e5e5e;stroke-width:8;
stroke-linejoin:round; stroke-linecap:butt;
"/>
<!-- Arrowhead on XXXpoint 5175 2874 - 2643 4043-->
<polyline points="2750 3913
2651 4038
2810 4043
" style="stroke:#5e5e5e;stroke-width:8;stroke-miterlimit:8;
"/>
<!-- Line -->
<polyline points="11420,3039
8916,4194
" style="stroke:#5e5e5e;stroke-width:8;
stroke-linejoin:round; stroke-linecap:butt;
"/>
<!-- Arrowhead on XXXpoint 11420 3039 - 8887 4207-->
<polyline points="8994 4078
8895 4203
9054 4207
" style="stroke:#5e5e5e;stroke-width:8;stroke-miterlimit:8;
"/>
<!-- Line -->
<polyline points="2258,3816
2326,1646
" style="stroke:#5e5e5e;stroke-width:8;
stroke-linejoin:round; stroke-linecap:butt;
"/>
<!-- Arrowhead on XXXpoint 2258 3816 - 2327 1614-->
<polyline points="2393 1767
2327 1624
2250 1763
" style="stroke:#5e5e5e;stroke-width:8;stroke-miterlimit:8;
"/>
<!-- Line -->
<polyline points="8501,3981
8570,1811
" style="stroke:#5e5e5e;stroke-width:8;
stroke-linejoin:round; stroke-linecap:butt;
"/>
<!-- Arrowhead on XXXpoint 8501 3981 - 8571 1779-->
<polyline points="8637 1932
8571 1788
8494 1928
" style="stroke:#5e5e5e;stroke-width:8;stroke-miterlimit:8;
"/>
<!-- Line -->
<polyline points="2120,1378
-83,963
" style="stroke:#5e5e5e;stroke-width:8;
stroke-linejoin:round; stroke-linecap:butt;
"/>
<!-- Arrowhead on XXXpoint 2120 1378 - -114 958-->
<polyline points="47 916
-104 960
20 1056
" style="stroke:#5e5e5e;stroke-width:8;stroke-miterlimit:8;
"/>
<!-- Line -->
<polyline points="8364,1543
6158,1128
" style="stroke:#5e5e5e;stroke-width:8;
stroke-linejoin:round; stroke-linecap:butt;
"/>
<!-- Arrowhead on XXXpoint 8364 1543 - 6127 1123-->
<polyline points="6288 1081
6136 1125
6262 1220
" style="stroke:#5e5e5e;stroke-width:8;stroke-miterlimit:8;
"/>
<!-- Line -->
<polyline points="2022,1675
1979,3855
" style="stroke:#5e5e5e;stroke-width:8;
stroke-linejoin:round; stroke-linecap:butt;
"/>
<!-- Arrowhead on XXXpoint 2022 1675 - 1977 3886-->
<polyline points="1908 3733
1977 3877
2051 3735
" style="stroke:#5e5e5e;stroke-width:8;stroke-miterlimit:8;
"/>
<!-- Line -->
<polyline points="8265,1839
8223,4019
" style="stroke:#5e5e5e;stroke-width:8;
stroke-linejoin:round; stroke-linecap:butt;
"/>
<!-- Arrowhead on XXXpoint 8265 1839 - 8222 4051-->
<polyline points="8153 3898
8222 4041
8296 3900
" style="stroke:#5e5e5e;stroke-width:8;stroke-miterlimit:8;
"/>
<!-- Line -->
<polyline points="2611,1696
2512,3883
" style="stroke:#5e5e5e;stroke-width:8;
stroke-linejoin:round; stroke-linecap:butt;
"/>
<!-- Arrowhead on XXXpoint 2611 1696 - 2511 3914-->
<polyline points="2446 3759
2511 3905
2587 3765
" style="stroke:#5e5e5e;stroke-width:8;stroke-miterlimit:8;
"/>
<!-- Line -->
<polyline points="8854,1861
8754,4048
" style="stroke:#5e5e5e;stroke-width:8;
stroke-linejoin:round; stroke-linecap:butt;
"/>
<!-- Arrowhead on XXXpoint 8854 1861 - 8753 4079-->
<polyline points="8688 3924
8753 4070
8830 3930
" style="stroke:#5e5e5e;stroke-width:8;stroke-miterlimit:8;
"/>
<!-- Line -->
<polyline points="-204,1232
2005,1672
" style="stroke:#5e5e5e;stroke-width:8;
stroke-linejoin:round; stroke-linecap:butt;
"/>
<!-- Arrowhead on XXXpoint -204 1232 - 2036 1677-->
<polyline points="1872 1717
2027 1675
1901 1577
" style="stroke:#5e5e5e;stroke-width:8;stroke-miterlimit:8;
"/>
<!-- Line -->
<polyline points="6038,1396
8248,1836
" style="stroke:#5e5e5e;stroke-width:8;
stroke-linejoin:round; stroke-linecap:butt;
"/>
<!-- Arrowhead on XXXpoint 6038 1396 - 8280 1841-->
<polyline points="8116 1881
8270 1839
8144 1741
" style="stroke:#5e5e5e;stroke-width:8;stroke-miterlimit:8;
"/>
<!-- Line -->
<polyline points="2658,4036
2763,1826
" style="stroke:#5e5e5e;stroke-width:8;
stroke-linejoin:round; stroke-linecap:butt;
"/>
<!-- Arrowhead on XXXpoint 2658 4036 - 2764 1795-->
<polyline points="2828 1949
2764 1804
2685 1943
" style="stroke:#5e5e5e;stroke-width:8;stroke-miterlimit:8;
"/>
<!-- Line -->
<polyline points="8901,4201
9006,1991
" style="stroke:#5e5e5e;stroke-width:8;
stroke-linejoin:round; stroke-linecap:butt;
"/>
<!-- Arrowhead on XXXpoint 8901 4201 - 9007 1960-->
<polyline points="9071 2114
9007 1969
8929 2108
" style="stroke:#5e5e5e;stroke-width:8;stroke-miterlimit:8;
"/>
<!-- Line -->
<polyline points="5262,2646
2880,1581
" style="stroke:#5e5e5e;stroke-width:8;
stroke-linejoin:round; stroke-linecap:butt;
"/>
<!-- Arrowhead on XXXpoint 5262 2646 - 2851 1567-->
<polyline points="3018 1564
2859 1571
2960 1694
" style="stroke:#5e5e5e;stroke-width:8;stroke-miterlimit:8;
"/>
<!-- Line -->
<polyline points="11506,2811
9123,1745
" style="stroke:#5e5e5e;stroke-width:8;
stroke-linejoin:round; stroke-linecap:butt;
"/>
<!-- Arrowhead on XXXpoint 11506 2811 - 9093 1732-->
<polyline points="9260 1729
9102 1736
9203 1859
" style="stroke:#5e5e5e;stroke-width:8;stroke-miterlimit:8;
"/>
<!-- Line -->
<polyline points="2764,1811
5160,2867
" style="stroke:#5e5e5e;stroke-width:8;
stroke-linejoin:round; stroke-linecap:butt;
"/>
<!-- Arrowhead on XXXpoint 2764 1811 - 5189 2880-->
<polyline points="5021 2883
5181 2876
5079 2753
" style="stroke:#5e5e5e;stroke-width:8;stroke-miterlimit:8;
"/>
<!-- Line -->
<polyline points="9007,1975
11404,3032
" style="stroke:#5e5e5e;stroke-width:8;
stroke-linejoin:round; stroke-linecap:butt;
"/>
<!-- Arrowhead on XXXpoint 9007 1975 - 11434 3045-->
<polyline points="11266 3048
11425 3041
11323 2918
" style="stroke:#5e5e5e;stroke-width:8;stroke-miterlimit:8;
"/>
<!-- Arc -->
<path style="stroke:#000000;stroke-width:16;stroke-linecap:butt;"
d="M 6796,3812 A 2893 2893  0  0  1  3794  3824 " />
<!-- Arrowhead on XXXpoint 3967 3920 - 3794 3824-->
<polygon points="4056 3860
3803 3829
3965 4027
3969 3921
4056 3860

" style="stroke:#000000;stroke-width:8;stroke-miterlimit:8;
fill:white;"/>
<!-- Arc -->
<path style="stroke:#000000;stroke-width:16;stroke-linecap:butt;"
d="M 3802,705 A 2504 2504  0  0  1  6553  738 " />
<!-- Arrowhead on XXXpoint 6385 634 - 6553 738-->
<polygon points="6291 687
6543 732
6391 527
6382 632
6291 687

" style="stroke:#000000;stroke-width:8;stroke-miterlimit:8;
fill:white;"/>
<!-- Text -->
<text xml:space="preserve" x="2186" y="902" fill="#000000"  font-family="Times" font-style="normal" font-weight="normal" font-size="189" text-anchor="start">dh1</text>
<!-- Text -->
<text xml:space="preserve" x="8180" y="1287" fill="#000000"  font-family="Times" font-style="normal" font-weight="normal" font-size="189" text-anchor="start">dh2</text>
<!-- Text -->
<text xml:space="preserve" x="4015" y="4488" fill="#000000"  font-family="Times" font-style="normal" font-weight="normal" font-size="227" text-anchor="start">cm.remove_cell&#60;0&#62;(dh2)</text>
<!-- Text -->
<text xml:space="preserve" x="3259" y="188" fill="#000000"  font-family="Times" font-style="normal" font-weight="normal" font-size="227" text-anchor="start">dh2=cm.insert_cell_0_in_cell_1(dh1)</text>
<!-- Line -->
<polyline points="3228,3350
" style="stroke:#9f9f9f;stroke-width:8;
stroke-linejoin:miter; stroke-linecap:butt;
"/>
<!-- Line -->
<polyline points="4291,2712
4300,3027
" style="stroke:#9f9f9f;stroke-width:8;
stroke-linejoin:miter; stroke-linecap:butt;
"/>
<!-- Line -->
<polyline points="3856,3426
3974,3623
" style="stroke:#9f9f9f;stroke-width:8;
stroke-linejoin:miter; stroke-linecap:butt;
"/>
<!-- Line -->
<polyline points="2544,2674
2731,2737
" style="stroke:#9f9f9f;stroke-width:8;
stroke-linejoin:miter; stroke-linecap:butt;
"/>
<!-- Line -->
<polyline points="3908,2011
3761,2304
" style="stroke:#9f9f9f;stroke-width:8;
stroke-linejoin:miter; stroke-linecap:butt;
"/>
<!-- Line -->
<polyline points="4319,1708
4456,1618
" style="stroke:#9f9f9f;stroke-width:8;
stroke-linejoin:miter; stroke-linecap:butt;
"/>
<!-- Line -->
<polyline points="3309,1896
3600,1954
" style="stroke:#9f9f9f;stroke-width:8;
stroke-linejoin:miter; stroke-linecap:butt;
"/>
<!-- Line -->
<polyline points="2854,3333
3254,3469
" style="stroke:#9f9f9f;stroke-width:8;
stroke-linejoin:miter; stroke-linecap:butt;
"/>
<!-- Line -->
<polyline points="3019,1245
3195,1236
" style="stroke:#9f9f9f;stroke-width:8;
stroke-linejoin:miter; stroke-linecap:butt;
"/>
<!-- Line -->
<polyline points="1274,1205
1102,1551
" style="stroke:#9f9f9f;stroke-width:8;
stroke-linejoin:miter; stroke-linecap:butt;
"/>
<!-- Line -->
<polyline points="355,2684
658,2882
" style="stroke:#9f9f9f;stroke-width:8;
stroke-linejoin:miter; stroke-linecap:butt;
"/>
<!-- Line -->
<polyline points="1931,2355
1862,2684
" style="stroke:#9f9f9f;stroke-width:8;
stroke-linejoin:miter; stroke-linecap:butt;
"/>
<!-- Line -->
<polyline points="2426,3393
2591,3393
" style="stroke:#9f9f9f;stroke-width:8;
stroke-linejoin:miter; stroke-linecap:butt;
"/>
<!-- Line -->
<polyline points="1109,3592
910,3645
" style="stroke:#9f9f9f;stroke-width:8;
stroke-linejoin:miter; stroke-linecap:butt;
"/>
<!-- Line -->
<polyline points="1897,388
1991,587
" style="stroke:#9f9f9f;stroke-width:8;
stroke-linejoin:miter; stroke-linecap:butt;
"/>
<!-- Line -->
<polyline points="2598,917
2841,1218
" style="stroke:#9f9f9f;stroke-width:8;
stroke-linejoin:miter; stroke-linecap:butt;
"/>
<!-- Line -->
<polyline points="572,542
572,587
572,630
" style="stroke:#9f9f9f;stroke-width:8;
stroke-linejoin:miter; stroke-linecap:butt;
"/>
<!-- Line -->
<polyline points="-241,2112
-199,2129
-173,2173
-130,2191
" style="stroke:#9f9f9f;stroke-width:8;
stroke-linejoin:miter; stroke-linecap:butt;
"/>
<!-- Line -->
<polyline points="866,1299
1125,1228
" style="stroke:#9f9f9f;stroke-width:8;
stroke-linejoin:miter; stroke-linecap:butt;
"/>
<!-- Line -->
<polyline points="1973,2603
2355,2615
" style="stroke:#9f9f9f;stroke-width:8;
stroke-linejoin:miter; stroke-linecap:butt;
"/>
<!-- Line -->
<polyline points="2944,1774
3162,1799
" style="stroke:#9f9f9f;stroke-width:8;
stroke-linejoin:miter; stroke-linecap:butt;
"/>
<!-- Line -->
<polyline points="9471,3514
" style="stroke:#9f9f9f;stroke-width:8;
stroke-linejoin:miter; stroke-linecap:butt;
"/>
<!-- Line -->
<polyline points="10535,2877
10543,3192
" style="stroke:#9f9f9f;stroke-width:8;
stroke-linejoin:miter; stroke-linecap:butt;
"/>
<!-- Line -->
<polyline points="10100,3591
10218,3787
" style="stroke:#9f9f9f;stroke-width:8;
stroke-linejoin:miter; stroke-linecap:butt;
"/>
<!-- Line -->
<polyline points="8788,2838
8974,2901
" style="stroke:#9f9f9f;stroke-width:8;
stroke-linejoin:miter; stroke-linecap:butt;
"/>
<!-- Line -->
<polyline points="10152,2176
10005,2469
" style="stroke:#9f9f9f;stroke-width:8;
stroke-linejoin:miter; stroke-linecap:butt;
"/>
<!-- Line -->
<polyline points="10561,1872
10699,1783
" style="stroke:#9f9f9f;stroke-width:8;
stroke-linejoin:miter; stroke-linecap:butt;
"/>
<!-- Line -->
<polyline points="9551,2060
9843,2119
" style="stroke:#9f9f9f;stroke-width:8;
stroke-linejoin:miter; stroke-linecap:butt;
"/>
<!-- Line -->
<polyline points="9098,3498
9497,3633
" style="stroke:#9f9f9f;stroke-width:8;
stroke-linejoin:miter; stroke-linecap:butt;
"/>
<!-- Line -->
<polyline points="9262,1409
9438,1401
" style="stroke:#9f9f9f;stroke-width:8;
stroke-linejoin:miter; stroke-linecap:butt;
"/>
<!-- Line -->
<polyline points="7517,1370
7344,1716
" style="stroke:#9f9f9f;stroke-width:8;
stroke-linejoin:miter; stroke-linecap:butt;
"/>
<!-- Line -->
<polyline points="6598,2849
6900,3046
" style="stroke:#9f9f9f;stroke-width:8;
stroke-linejoin:miter; stroke-linecap:butt;
"/>
<!-- Line -->
<polyline points="8175,2520
8106,2849
" style="stroke:#9f9f9f;stroke-width:8;
stroke-linejoin:miter; stroke-linecap:butt;
"/>
<!-- Line -->
<polyline points="8668,3558
8833,3558
" style="stroke:#9f9f9f;stroke-width:8;
stroke-linejoin:miter; stroke-linecap:butt;
"/>
<!-- Line -->
<polyline points="7352,3757
7152,3809
" style="stroke:#9f9f9f;stroke-width:8;
stroke-linejoin:miter; stroke-linecap:butt;
"/>
<!-- Line -->
<polyline points="8140,553
8235,752
" style="stroke:#9f9f9f;stroke-width:8;
stroke-linejoin:miter; stroke-linecap:butt;
"/>
<!-- Line -->
<polyline points="6814,707
6814,752
6814,794
" style="stroke:#9f9f9f;stroke-width:8;
stroke-linejoin:miter; stroke-linecap:butt;
"/>
<!-- Line -->
<polyline points="6001,2277
6044,2293
6071,2338
6113,2355
" style="stroke:#9f9f9f;stroke-width:8;
stroke-linejoin:miter; stroke-linecap:butt;
"/>
<!-- Line -->
<polyline points="7108,1464
7367,1393
" style="stroke:#9f9f9f;stroke-width:8;
stroke-linejoin:miter; stroke-linecap:butt;
"/>
<!-- Line -->
<polyline points="8216,2768
8599,2780
" style="stroke:#9f9f9f;stroke-width:8;
stroke-linejoin:miter; stroke-linecap:butt;
"/>
<!-- Line -->
<polyline points="9188,1939
9405,1964
" style="stroke:#9f9f9f;stroke-width:8;
stroke-linejoin:miter; stroke-linecap:butt;
"/>
<!-- Line -->
<polyline points="8632,1265
8875,1567
" style="stroke:#9f9f9f;stroke-width:8;
stroke-linejoin:miter; stroke-linecap:butt;
"/>
<!-- Line -->
<polyline points="9029,892
9273,1194
" style="stroke:#9f9f9f;stroke-width:8;
stroke-linejoin:miter; stroke-linecap:butt;
"/>
</g>
</svg>
