<?xml version="1.0" standalone="no"?>
<!DOCTYPE svg PUBLIC "-//W3C//DTD SVG 1.1//EN"
"http://www.w3.org/Graphics/SVG/1.1/DTD/svg11.dtd">
<!-- Creator: fig2dev Version 3.2.6 -->
<!-- CreationDate: Mon Nov 21 08:43:35 2016 -->
<!-- Magnification: 1.050 -->
<svg	xmlns="http://www.w3.org/2000/svg"
	xmlns:xlink="http://www.w3.org/1999/xlink"
	width="2.0in" height="2.0in"
	viewBox="-6 267 2369 2369">
<g style="stroke-width:.025in; fill:none">
<!-- Line -->
<polyline points="1875,2342
1835,2048
2068,1998
2030,1689
2260,1635
2156,1416
2340,1397
1779,858
1236,1801
1869,2359
" style="stroke:#b1b1b1;stroke-width:16;
stroke-linejoin:round; stroke-linecap:butt;
"/>
<!-- Line -->
<polyline points="1636,2614
1757,2475
2006,2468
1941,2182
2161,2086
2120,1791
2241,1753
1505,1067
927,1975
1656,2614
" style="stroke:#b1b1b1;stroke-width:16;
stroke-linejoin:round; stroke-linecap:butt;
"/>
<!-- Line -->
<polyline points="1400,888
632,1013
644,1151
420,1290
465,1474
212,1567
261,1759
16,1902
788,1758
1396,885
" style="stroke:#b1b1b1;stroke-width:16;
stroke-linejoin:round; stroke-linecap:butt;
"/>
<!-- Line -->
<polyline points="1505,1067
607,1232
485,1351
612,1489
289,1660
354,1918
57,2138
927,1975
1505,1067
" style="stroke:#b1b1b1;stroke-width:16;
stroke-linejoin:round; stroke-linecap:butt;
"/>
<!-- Line -->
<polyline points="1397,888
1385,290
1324,411
1160,429
1148,598
938,533
890,779
696,711
783,1757
1397,888
" style="stroke:#b1b1b1;stroke-width:16;
stroke-linejoin:round; stroke-linecap:butt;
"/>
<!-- Line -->
<polyline points="1788,866
1780,301
1634,365
1509,317
1509,518
1345,500
1308,679
1185,697
1236,1806
1782,865
" style="stroke:#b1b1b1;stroke-width:16;
stroke-linejoin:round; stroke-linecap:butt;
"/>
<!-- Line -->
<polyline points="650,1780
438,1820
" style="stroke:#2a2a2a;stroke-width:16;
stroke-linejoin:miter; stroke-linecap:butt;
"/>
<!-- Arrowhead on XXXpoint 438 1820 - 713 1767-->
<polyline points="605 1839
696 1771
586 1739
" style="stroke:#2a2a2a;stroke-width:16;stroke-miterlimit:8;
"/>
<!-- Line -->
<polyline points="439,1820
191,1864
" style="stroke:#2a2a2a;stroke-width:16;
stroke-linejoin:miter; stroke-linecap:butt;
stroke-dasharray:31 31;"/>
<!-- Line -->
<polyline points="509,2054
296,2088
" style="stroke:#2a2a2a;stroke-width:16;
stroke-linejoin:miter; stroke-linecap:butt;
stroke-dasharray:31 31;"/>
<!-- Line -->
<polyline points="712,2023
504,2056
" style="stroke:#2a2a2a;stroke-width:16;
stroke-linejoin:miter; stroke-linecap:butt;
"/>
<!-- Line -->
<polyline points="1130,2153
1329,2321
" style="stroke:#2a2a2a;stroke-width:16;
stroke-linejoin:miter; stroke-linecap:butt;
"/>
<!-- Arrowhead on XXXpoint 1329 2321 - 1080 2110-->
<polyline points="1204 2149
1095 2122
1139 2225
" style="stroke:#2a2a2a;stroke-width:16;stroke-miterlimit:8;
"/>
<!-- Line -->
<polyline points="1324,2320
1480,2458
" style="stroke:#2a2a2a;stroke-width:16;
stroke-linejoin:miter; stroke-linecap:butt;
stroke-dasharray:31 31;"/>
<!-- Line -->
<polyline points="1574,2106
1730,2244
" style="stroke:#2a2a2a;stroke-width:16;
stroke-linejoin:miter; stroke-linecap:butt;
stroke-dasharray:31 31;"/>
<!-- Line -->
<polyline points="1356,1904
1577,2104
" style="stroke:#2a2a2a;stroke-width:16;
stroke-linejoin:miter; stroke-linecap:butt;
"/>
<!-- Line -->
<polyline points="1887,1426
1648,1196
" style="stroke:#2a2a2a;stroke-width:16;
stroke-linejoin:miter; stroke-linecap:butt;
"/>
<!-- Line -->
<polyline points="1883,1423
2038,1563
" style="stroke:#2a2a2a;stroke-width:16;
stroke-linejoin:miter; stroke-linecap:butt;
stroke-dasharray:31 31;"/>
<!-- Line -->
<polyline points="2093,1140
2248,1278
" style="stroke:#2a2a2a;stroke-width:16;
stroke-linejoin:miter; stroke-linecap:butt;
stroke-dasharray:31 31;"/>
<!-- Line -->
<polyline points="1919,990
2096,1144
" style="stroke:#2a2a2a;stroke-width:16;
stroke-linejoin:miter; stroke-linecap:butt;
"/>
<!-- Arrowhead on XXXpoint 2096 1144 - 1868 945-->
<polyline points="1990 985
1882 958
1924 1062
" style="stroke:#2a2a2a;stroke-width:16;stroke-miterlimit:8;
"/>
<!-- Line -->
<polyline points="1786,506
1787,721
" style="stroke:#2a2a2a;stroke-width:16;
stroke-linejoin:miter; stroke-linecap:butt;
"/>
<!-- Line -->
<polyline points="1774,338
1786,518
" style="stroke:#2a2a2a;stroke-width:16;
stroke-linejoin:miter; stroke-linecap:butt;
stroke-dasharray:31 31;"/>
<!-- Line -->
<polyline points="1384,292
1387,416
" style="stroke:#2a2a2a;stroke-width:16;
stroke-linejoin:miter; stroke-linecap:butt;
stroke-dasharray:31 31;"/>
<!-- Line -->
<polyline points="1399,584
1392,387
" style="stroke:#2a2a2a;stroke-width:16;
stroke-linejoin:miter; stroke-linecap:butt;
"/>
<!-- Arrowhead on XXXpoint 1392 387 - 1399 648-->
<polyline points="1345 530
1399 629
1446 527
" style="stroke:#2a2a2a;stroke-width:16;stroke-miterlimit:8;
"/>
<!-- Line -->
<polyline points="716,967
738,1198
" style="stroke:#2a2a2a;stroke-width:16;
stroke-linejoin:miter; stroke-linecap:butt;
stroke-dasharray:31 31;"/>
<!-- Line -->
<polyline points="750,1404
735,1191
" style="stroke:#2a2a2a;stroke-width:16;
stroke-linejoin:miter; stroke-linecap:butt;
"/>
<!-- Line -->
<polyline points="1029,948
793,984
" style="stroke:#2a2a2a;stroke-width:16;
stroke-linejoin:miter; stroke-linecap:butt;
stroke-dasharray:31 31;"/>
<!-- Line -->
<polyline points="1282,908
1026,948
" style="stroke:#2a2a2a;stroke-width:16;
stroke-linejoin:miter; stroke-linecap:butt;
"/>
<!-- Line -->
<polyline points="1078,1151
862,1187
" style="stroke:#2a2a2a;stroke-width:16;
stroke-linejoin:miter; stroke-linecap:butt;
stroke-dasharray:31 31;"/>
<!-- Line -->
<polyline points="1253,1123
1070,1151
" style="stroke:#2a2a2a;stroke-width:16;
stroke-linejoin:miter; stroke-linecap:butt;
"/>
<!-- Arrowhead on XXXpoint 1070 1151 - 1317 1112-->
<polyline points="1206 1181
1298 1116
1190 1081
" style="stroke:#2a2a2a;stroke-width:16;stroke-miterlimit:8;
"/>
<!-- Line -->
<polyline points="1223,1590
1208,1375
" style="stroke:#2a2a2a;stroke-width:16;
stroke-linejoin:miter; stroke-linecap:butt;
"/>
<!-- Arrowhead on XXXpoint 1208 1375 - 1225 1654-->
<polyline points="1167 1538
1224 1635
1268 1531
" style="stroke:#2a2a2a;stroke-width:16;stroke-miterlimit:8;
"/>
<!-- Line -->
<polyline points="1205,1203
1214,1387
" style="stroke:#2a2a2a;stroke-width:16;
stroke-linejoin:miter; stroke-linecap:butt;
stroke-dasharray:31 31;"/>
<!-- Line -->
<polyline points="1097,2139
1614,1247
" style="stroke:#000000;stroke-width:48;
stroke-linejoin:miter; stroke-linecap:butt;
"/>
<!-- Arrowhead on XXXpoint 1097 2139 - 1680 1133-->
<polyline points="1676 1266
1673 1147
1567 1202
" style="stroke:#000000;stroke-width:16;stroke-miterlimit:8;
"/>
<!-- Line -->
<polyline points="1887,963
1386,1850
" style="stroke:#000000;stroke-width:48;
stroke-linejoin:miter; stroke-linecap:butt;
"/>
<!-- Arrowhead on XXXpoint 1887 963 - 1322 1966-->
<polyline points="1323 1833
1330 1952
1434 1895
" style="stroke:#000000;stroke-width:16;stroke-miterlimit:8;
"/>
<!-- Line -->
<polyline points="1215,1647
1758,761
" style="stroke:#000000;stroke-width:48;
stroke-linejoin:miter; stroke-linecap:butt;
"/>
<!-- Arrowhead on XXXpoint 1215 1647 - 1826 648-->
<polyline points="1819 781
1818 662
1711 714
" style="stroke:#000000;stroke-width:16;stroke-miterlimit:8;
"/>
<!-- Line -->
<polyline points="1402,606
800,1375
" style="stroke:#000000;stroke-width:48;
stroke-linejoin:miter; stroke-linecap:butt;
"/>
<!-- Arrowhead on XXXpoint 1402 606 - 719 1479-->
<polyline points="740 1348
728 1466
839 1425
" style="stroke:#000000;stroke-width:16;stroke-miterlimit:8;
"/>
<!-- Line -->
<polyline points="695,1765
1288,948
" style="stroke:#000000;stroke-width:48;
stroke-linejoin:miter; stroke-linecap:butt;
"/>
<!-- Arrowhead on XXXpoint 695 1765 - 1365 841-->
<polyline points="1348 972
1356 854
1246 898
" style="stroke:#000000;stroke-width:16;stroke-miterlimit:8;
"/>
<!-- Line -->
<polyline points="1311,1110
737,1965
" style="stroke:#000000;stroke-width:48;
stroke-linejoin:miter; stroke-linecap:butt;
"/>
<!-- Arrowhead on XXXpoint 1311 1110 - 663 2074-->
<polyline points="675 1942
671 2061
780 2012
" style="stroke:#000000;stroke-width:16;stroke-miterlimit:8;
"/>
<!-- Arc -->
<path style="stroke:#808080;stroke-width:16;stroke-linecap:butt;"
d="M 1485,1719 A 212 212  0  0  1  1173  2005 " />
<!-- Arc -->
<path style="stroke:#808080;stroke-width:16;stroke-linecap:butt;"
d="M 1700,859 A 146 146  0  1  1  1818  1099 " />
<!-- Arc -->
<path style="stroke:#808080;stroke-width:16;stroke-linecap:butt;"
d="M 529,1814 A 220 220  0  0  1  836  1560 " />
<!-- Arrowhead on XXXpoint 722 1540 - 836 1560-->
<polyline points="709 1588
817 1556
726 1489
" style="stroke:#808080;stroke-width:16;stroke-miterlimit:8;
"/>
<!-- Text -->
<text xml:space="preserve" x="2139" y="861" fill="#000000"  font-family="Times,Symbol" font-style="normal" font-weight="normal" font-size="227" text-anchor="start">&#50;</text>
<!-- Text -->
<text xml:space="preserve" x="1923" y="759" fill="#000000"  font-family="Times,Symbol" font-style="normal" font-weight="normal" font-size="303" text-anchor="start">&#946;</text>
<!-- Text -->
<text xml:space="preserve" x="457" y="1595" fill="#000000"  font-family="Times,Symbol" font-style="normal" font-weight="normal" font-size="227" text-anchor="start">&#49;</text>
<!-- Text -->
<text xml:space="preserve" x="241" y="1492" fill="#000000"  font-family="Times,Symbol" font-style="normal" font-weight="normal" font-size="303" text-anchor="start">&#946;</text>
<!-- Text -->
<text xml:space="preserve" x="1750" y="2058" fill="#000000"  font-family="Times,Symbol" font-style="normal" font-weight="normal" font-size="227" text-anchor="start">&#51;</text>
<!-- Text -->
<text xml:space="preserve" x="1533" y="1955" fill="#000000"  font-family="Times,Symbol" font-style="normal" font-weight="normal" font-size="303" text-anchor="start">&#946;</text>
</g>
</svg>
