<?xml version="1.0" standalone="no"?>
<!DOCTYPE svg PUBLIC "-//W3C//DTD SVG 1.1//EN"
"http://www.w3.org/Graphics/SVG/1.1/DTD/svg11.dtd">
<!-- Creator: fig2dev Version 3.2.6 -->
<!-- CreationDate: Mon Nov 21 08:43:35 2016 -->
<!-- Magnification: 1.050 -->
<svg	xmlns="http://www.w3.org/2000/svg"
	xmlns:xlink="http://www.w3.org/1999/xlink"
	width="7.8in" height="3.9in"
	viewBox="-4733 62 9373 4712">
<g style="stroke-width:.025in; fill:none">
<!-- Line -->
<polyline points="-1839,3921
-1901,3466
-1541,3390
-1598,2911
-1132,2862
-1308,2521
-1026,2508
-1987,1628
-2826,3085
-1848,3947
" style="stroke:#b1b1b1;stroke-width:16;
stroke-linejoin:round; stroke-linecap:butt;
"/>
<!-- Line -->
<polyline points="-2043,4462
-2020,4128
-1636,4115
-1738,3674
-1340,3598
-1460,3070
-1213,3066
-2411,1951
-3303,3353
-2017,4487
" style="stroke:#b1b1b1;stroke-width:16;
stroke-linejoin:round; stroke-linecap:butt;
"/>
<!-- Line -->
<polyline points="4444,4544
4616,3006
2639,1189
1917,2324
4444,4544
" style="stroke:#b1b1b1;stroke-width:16;
stroke-linejoin:round; stroke-linecap:butt;
"/>
<!-- Line -->
<polyline points="3765,4752
3938,3214
1961,1397
1238,2532
3765,4752
" style="stroke:#b1b1b1;stroke-width:16;
stroke-linejoin:round; stroke-linecap:butt;
"/>
<!-- Line -->
<polyline points="-2572,1673
-3759,1866
-3739,2080
-4087,2295
-4017,2579
-4408,2723
-4333,3020
-4710,3240
-3518,3019
-2578,1670
" style="stroke:#b1b1b1;stroke-width:16;
stroke-linejoin:round; stroke-linecap:butt;
"/>
<!-- Line -->
<polyline points="-2411,1951
-3797,2207
-3986,2390
-3791,2604
-4289,2869
-4187,3266
-4646,3605
-3303,3353
-2411,1951
" style="stroke:#b1b1b1;stroke-width:16;
stroke-linejoin:round; stroke-linecap:butt;
"/>
<!-- Line -->
<polyline points="1964,1386
843,1593
689,1741
848,1914
445,2129
527,2450
155,2725
1241,2521
1964,1386
" style="stroke:#b1b1b1;stroke-width:16;
stroke-linejoin:round; stroke-linecap:butt;
"/>
<!-- Line -->
<polyline points="-2577,1673
-2604,453
-2708,858
-2941,775
-2961,1226
-3286,1126
-3361,1507
-3660,1403
-3526,3018
-2577,1673
" style="stroke:#b1b1b1;stroke-width:16;
stroke-linejoin:round; stroke-linecap:butt;
"/>
<!-- Line -->
<polyline points="-1972,1639
-2007,343
-2142,763
-2407,744
-2403,1102
-2656,1076
-2716,1352
-2906,1379
-2826,3092
-1982,1638
" style="stroke:#b1b1b1;stroke-width:16;
stroke-linejoin:round; stroke-linecap:butt;
"/>
<!-- Line -->
<polyline points="2640,1200
2578,86
2469,426
2255,410
2258,701
2053,679
2005,902
1851,924
1916,2311
2637,1188
" style="stroke:#b1b1b1;stroke-width:16;
stroke-linejoin:round; stroke-linecap:butt;
"/>
<!-- Line -->
<polyline points="-3713,3048
-4058,3113
" style="stroke:#2a2a2a;stroke-width:16;
stroke-linejoin:miter; stroke-linecap:butt;
"/>
<!-- Arrowhead on XXXpoint -4058 3113 - -3649 3036-->
<polyline points="-3804 3144
-3667 3039
-3834 2991
" style="stroke:#2a2a2a;stroke-width:16;stroke-miterlimit:8;
"/>
<!-- Line -->
<polyline points="-4056,3113
-4440,3183
" style="stroke:#2a2a2a;stroke-width:16;
stroke-linejoin:miter; stroke-linecap:butt;
stroke-dasharray:31 31;"/>
<!-- Line -->
<polyline points="-3950,3476
-4279,3527
" style="stroke:#2a2a2a;stroke-width:16;
stroke-linejoin:miter; stroke-linecap:butt;
stroke-dasharray:31 31;"/>
<!-- Line -->
<polyline points="-3634,3427
-3956,3480
" style="stroke:#2a2a2a;stroke-width:16;
stroke-linejoin:miter; stroke-linecap:butt;
"/>
<!-- Line -->
<polyline points="-3004,3617
-2683,3888
" style="stroke:#2a2a2a;stroke-width:16;
stroke-linejoin:miter; stroke-linecap:butt;
"/>
<!-- Arrowhead on XXXpoint -2683 3888 - -3054 3574-->
<polyline points="-2869 3627
-3039 3586
-2970 3745
" style="stroke:#2a2a2a;stroke-width:16;stroke-miterlimit:8;
"/>
<!-- Line -->
<polyline points="-2688,3885
-2449,4101
" style="stroke:#2a2a2a;stroke-width:16;
stroke-linejoin:miter; stroke-linecap:butt;
stroke-dasharray:31 31;"/>
<!-- Line -->
<polyline points="-2304,3554
-2064,3771
" style="stroke:#2a2a2a;stroke-width:16;
stroke-linejoin:miter; stroke-linecap:butt;
stroke-dasharray:31 31;"/>
<!-- Line -->
<polyline points="-2641,3243
-2298,3553
" style="stroke:#2a2a2a;stroke-width:16;
stroke-linejoin:miter; stroke-linecap:butt;
"/>
<!-- Line -->
<polyline points="-1820,2507
-2188,2151
" style="stroke:#2a2a2a;stroke-width:16;
stroke-linejoin:miter; stroke-linecap:butt;
"/>
<!-- Line -->
<polyline points="-1825,2501
-1586,2717
" style="stroke:#2a2a2a;stroke-width:16;
stroke-linejoin:miter; stroke-linecap:butt;
stroke-dasharray:31 31;"/>
<!-- Line -->
<polyline points="-1502,2062
-1262,2279
" style="stroke:#2a2a2a;stroke-width:16;
stroke-linejoin:miter; stroke-linecap:butt;
stroke-dasharray:31 31;"/>
<!-- Line -->
<polyline points="-1785,1819
-1498,2069
" style="stroke:#2a2a2a;stroke-width:16;
stroke-linejoin:miter; stroke-linecap:butt;
"/>
<!-- Arrowhead on XXXpoint -1498 2069 - -1835 1775-->
<polyline points="-1652 1830
-1821 1787
-1754 1948
" style="stroke:#2a2a2a;stroke-width:16;stroke-miterlimit:8;
"/>
<!-- Line -->
<polyline points="-1976,1085
-1973,1417
" style="stroke:#2a2a2a;stroke-width:16;
stroke-linejoin:miter; stroke-linecap:butt;
"/>
<!-- Line -->
<polyline points="-1994,824
-1974,1105
" style="stroke:#2a2a2a;stroke-width:16;
stroke-linejoin:miter; stroke-linecap:butt;
stroke-dasharray:31 31;"/>
<!-- Line -->
<polyline points="-2603,641
-2592,945
" style="stroke:#2a2a2a;stroke-width:16;
stroke-linejoin:miter; stroke-linecap:butt;
stroke-dasharray:31 31;"/>
<!-- Line -->
<polyline points="-2575,1224
-2585,900
" style="stroke:#2a2a2a;stroke-width:16;
stroke-linejoin:miter; stroke-linecap:butt;
"/>
<!-- Arrowhead on XXXpoint -2585 900 - -2574 1288-->
<polyline points="-2657 1114
-2575 1269
-2501 1110
" style="stroke:#2a2a2a;stroke-width:16;stroke-miterlimit:8;
"/>
<!-- Line -->
<polyline points="-3630,1799
-3595,2155
" style="stroke:#2a2a2a;stroke-width:16;
stroke-linejoin:miter; stroke-linecap:butt;
stroke-dasharray:31 31;"/>
<!-- Line -->
<polyline points="-3576,2471
-3600,2143
" style="stroke:#2a2a2a;stroke-width:16;
stroke-linejoin:miter; stroke-linecap:butt;
"/>
<!-- Line -->
<polyline points="-3146,1767
-3510,1824
" style="stroke:#2a2a2a;stroke-width:16;
stroke-linejoin:miter; stroke-linecap:butt;
stroke-dasharray:31 31;"/>
<!-- Line -->
<polyline points="-2753,1704
-3150,1767
" style="stroke:#2a2a2a;stroke-width:16;
stroke-linejoin:miter; stroke-linecap:butt;
"/>
<!-- Line -->
<polyline points="-3070,2080
-3403,2137
" style="stroke:#2a2a2a;stroke-width:16;
stroke-linejoin:miter; stroke-linecap:butt;
stroke-dasharray:31 31;"/>
<!-- Line -->
<polyline points="-2781,2034
-3082,2080
" style="stroke:#2a2a2a;stroke-width:16;
stroke-linejoin:miter; stroke-linecap:butt;
"/>
<!-- Arrowhead on XXXpoint -3082 2080 - -2716 2024-->
<polyline points="-2876 2127
-2734 2027
-2899 1973
" style="stroke:#2a2a2a;stroke-width:16;stroke-miterlimit:8;
"/>
<!-- Line -->
<polyline points="-2847,2777
-2869,2426
" style="stroke:#2a2a2a;stroke-width:16;
stroke-linejoin:miter; stroke-linecap:butt;
"/>
<!-- Arrowhead on XXXpoint -2869 2426 - -2844 2841-->
<polyline points="-2931 2671
-2845 2823
-2775 2662
" style="stroke:#2a2a2a;stroke-width:16;stroke-miterlimit:8;
"/>
<!-- Line -->
<polyline points="-2874,2162
-2860,2447
" style="stroke:#2a2a2a;stroke-width:16;
stroke-linejoin:miter; stroke-linecap:butt;
stroke-dasharray:31 31;"/>
<!-- Line -->
<polyline points="-3042,3606
-2222,2197
" style="stroke:#000000;stroke-width:48;
stroke-linejoin:miter; stroke-linecap:butt;
"/>
<!-- Arrowhead on XXXpoint -3042 3606 - -2155 2083-->
<polyline points="-2157 2280
-2163 2097
-2325 2182
" style="stroke:#000000;stroke-width:16;stroke-miterlimit:8;
"/>
<!-- Line -->
<polyline points="-1820,1792
-2611,3194
" style="stroke:#000000;stroke-width:48;
stroke-linejoin:miter; stroke-linecap:butt;
"/>
<!-- Arrowhead on XXXpoint -1820 1792 - -2674 3310-->
<polyline points="-2675 3112
-2666 3296
-2504 3208
" style="stroke:#000000;stroke-width:16;stroke-miterlimit:8;
"/>
<!-- Line -->
<polyline points="-2857,2846
-2001,1447
" style="stroke:#000000;stroke-width:48;
stroke-linejoin:miter; stroke-linecap:butt;
"/>
<!-- Arrowhead on XXXpoint -2857 2846 - -1931 1335-->
<polyline points="-1938 1531
-1940 1349
-2103 1429
" style="stroke:#000000;stroke-width:16;stroke-miterlimit:8;
"/>
<!-- Line -->
<polyline points="-2570,1240
-3522,2457
" style="stroke:#000000;stroke-width:48;
stroke-linejoin:miter; stroke-linecap:butt;
"/>
<!-- Arrowhead on XXXpoint -2570 1240 - -3602 2561-->
<polyline points="-3572 2366
-3592 2549
-3419 2486
" style="stroke:#000000;stroke-width:16;stroke-miterlimit:8;
"/>
<!-- Line -->
<polyline points="-3662,3030
-2724,1737
" style="stroke:#000000;stroke-width:48;
stroke-linejoin:miter; stroke-linecap:butt;
"/>
<!-- Arrowhead on XXXpoint -3662 3030 - -2645 1631-->
<polyline points="-2667 1826
-2655 1644
-2825 1712
" style="stroke:#000000;stroke-width:16;stroke-miterlimit:8;
"/>
<!-- Line -->
<polyline points="-2711,2017
-3618,3370
" style="stroke:#000000;stroke-width:48;
stroke-linejoin:miter; stroke-linecap:butt;
"/>
<!-- Arrowhead on XXXpoint -2711 2017 - -3691 3479-->
<polyline points="-3676 3282
-3682 3466
-3514 3391
" style="stroke:#000000;stroke-width:16;stroke-miterlimit:8;
"/>
<!-- Line -->
<polyline points="1558,2553
2003,1786
" style="stroke:#000000;stroke-width:48;
stroke-linejoin:miter; stroke-linecap:butt;
"/>
<!-- Arrowhead on XXXpoint 1558 2553 - 2069 1673-->
<polyline points="2066 1835
2061 1687
1929 1756
" style="stroke:#000000;stroke-width:16;stroke-miterlimit:8;
"/>
<!-- Line -->
<polyline points="2714,1411
2171,2269
" style="stroke:#000000;stroke-width:48;
stroke-linejoin:miter; stroke-linecap:butt;
"/>
<!-- Arrowhead on XXXpoint 2714 1411 - 2100 2381-->
<polyline points="2109 2218
2109 2367
2242 2302
" style="stroke:#000000;stroke-width:16;stroke-miterlimit:8;
"/>
<!-- Line -->
<polyline points="2120,2348
4245,4149
" style="stroke:#000000;stroke-width:48;
stroke-linejoin:miter; stroke-linecap:butt;
"/>
<!-- Arrowhead on XXXpoint 2120 2348 - 4345 4234-->
<polyline points="4185 4201
4333 4223
4287 4081
" style="stroke:#000000;stroke-width:16;stroke-miterlimit:8;
"/>
<!-- Line -->
<polyline points="4326,4214
4439,3173
" style="stroke:#000000;stroke-width:48;
stroke-linejoin:miter; stroke-linecap:butt;
"/>
<!-- Arrowhead on XXXpoint 4326 4214 - 4453 3042-->
<polyline points="4515 3191
4451 3058
4359 3174
" style="stroke:#000000;stroke-width:16;stroke-miterlimit:8;
"/>
<!-- Line -->
<polyline points="4457,3079
2788,1482
" style="stroke:#000000;stroke-width:48;
stroke-linejoin:miter; stroke-linecap:butt;
"/>
<!-- Arrowhead on XXXpoint 4457 3079 - 2692 1391-->
<polyline points="2849 1430
2704 1401
2740 1545
" style="stroke:#000000;stroke-width:16;stroke-miterlimit:8;
"/>
<!-- Line -->
<polyline points="2056,1699
3729,3204
" style="stroke:#000000;stroke-width:48;
stroke-linejoin:miter; stroke-linecap:butt;
"/>
<!-- Arrowhead on XXXpoint 2056 1699 - 3826 3292-->
<polyline points="3668 3255
3815 3281
3773 3138
" style="stroke:#000000;stroke-width:16;stroke-miterlimit:8;
"/>
<!-- Line -->
<polyline points="3614,4404
1626,2609
" style="stroke:#000000;stroke-width:48;
stroke-linejoin:miter; stroke-linecap:butt;
"/>
<!-- Arrowhead on XXXpoint 3614 4404 - 1528 2521-->
<polyline points="1686 2557
1540 2532
1580 2675
" style="stroke:#000000;stroke-width:16;stroke-miterlimit:8;
"/>
<!-- Line -->
<polyline points="3793,3240
3629,4304
" style="stroke:#000000;stroke-width:48;
stroke-linejoin:miter; stroke-linecap:butt;
"/>
<!-- Arrowhead on XXXpoint 3793 3240 - 3609 4434-->
<polyline points="3552 4281
3611 4418
3708 4305
" style="stroke:#000000;stroke-width:16;stroke-miterlimit:8;
"/>
<!-- Text -->
<text xml:space="preserve" x="-1755" y="1500" fill="#343434"  font-family="Times,Symbol" font-style="normal" font-weight="normal" font-size="278" text-anchor="start">&#946;</text>
<!-- Text -->
<text xml:space="preserve" x="-1528" y="1605" fill="#343434"  font-family="Times" font-style="italic" font-weight="normal" font-size="202" text-anchor="start">2</text>
<!-- Text -->
<text xml:space="preserve" x="-2351" y="3233" fill="#343434"  font-family="Times,Symbol" font-style="normal" font-weight="normal" font-size="278" text-anchor="start">&#946;</text>
<!-- Text -->
<text xml:space="preserve" x="-2124" y="3338" fill="#343434"  font-family="Times" font-style="italic" font-weight="normal" font-size="202" text-anchor="start">3</text>
<!-- Text -->
<text xml:space="preserve" x="-3648" y="3897" fill="#343434"  font-family="Times,Symbol" font-style="normal" font-weight="normal" font-size="278" text-anchor="start">&#946;</text>
<!-- Text -->
<text xml:space="preserve" x="-3421" y="4002" fill="#343434"  font-family="Times" font-style="italic" font-weight="normal" font-size="202" text-anchor="start">1</text>
<!-- Text -->
<text xml:space="preserve" x="2527" y="2581" fill="#343434"  font-family="Times,Symbol" font-style="normal" font-weight="normal" font-size="278" text-anchor="start">&#946;</text>
<!-- Text -->
<text xml:space="preserve" x="2745" y="2720" fill="#343434"  font-family="Times" font-style="italic" font-weight="normal" font-size="202" text-anchor="start">1</text>
<!-- Text -->
<text xml:space="preserve" x="1248" y="2238" fill="#343434"  font-family="Times,Symbol" font-style="normal" font-weight="normal" font-size="278" text-anchor="start">&#946;</text>
<!-- Text -->
<text xml:space="preserve" x="1466" y="2376" fill="#343434"  font-family="Times" font-style="italic" font-weight="normal" font-size="202" text-anchor="start">3</text>
<!-- Text -->
<text xml:space="preserve" x="2873" y="2140" fill="#343434"  font-family="Times,Symbol" font-style="normal" font-weight="normal" font-size="278" text-anchor="start">&#946;</text>
<!-- Text -->
<text xml:space="preserve" x="3091" y="2279" fill="#343434"  font-family="Times" font-style="italic" font-weight="normal" font-size="202" text-anchor="start">0</text>
<!-- Arc -->
<path style="stroke:#343434;stroke-width:16;stroke-linecap:butt;"
d="M -2440,2959 A 328 328  0  0  1 -2922  3399 " />
<!-- Arc -->
<path style="stroke:#343434;stroke-width:16;stroke-linecap:butt;"
d="M -2109,1631 A 227 227  0  1  1 -1927  2001 " />
<!-- Arc -->
<path style="stroke:#343434;stroke-width:16;stroke-linecap:butt;"
d="M -3484,3241 A 200 200  0  1  1 -3800  3472 " />
<!-- Arrowhead on XXXpoint -3668 3585 - -3800 3472-->
<polyline points="-3614 3526
-3785 3485
-3716 3647
" style="stroke:#343434;stroke-width:16;stroke-miterlimit:8;
"/>
<!-- Arc -->
<path style="stroke:#343434;stroke-width:16;stroke-linecap:butt;"
d="M 2266,2101 A 346 346  0  0  0  1649  2409 " />
<!-- Arc -->
<path style="stroke:#343434;stroke-width:16;stroke-linecap:butt;"
d="M 2293,2121 A 221 221  0  0  1  2363  2540 " />
<!-- Arrowhead on XXXpoint 2464 2440 - 2363 2540-->
<polyline points="2422 2392
2376 2527
2510 2482
" style="stroke:#343434;stroke-width:16;stroke-miterlimit:8;
"/>
<!-- Arc -->
<path style="stroke:#343434;stroke-width:16;stroke-linecap:butt;"
d="M 2596,1598 A 194 194  0  1  0  2975  1681 " />
<!-- Arrowhead on XXXpoint 2899 1801 - 2975 1681-->
<polyline points="2951 1837
2965 1697
2845 1770
" style="stroke:#343434;stroke-width:16;stroke-miterlimit:8;
"/>
</g>
</svg>
