<?xml version="1.0" encoding="UTF-8" standalone="no"?>
<!-- Creator: fig2dev Version 3.2.8 -->
<!-- CreationDate: 2022-05-05 19:05:07 -->
<!-- Magnification: 1.05 -->
<svg	xmlns="http://www.w3.org/2000/svg"
	xmlns:xlink="http://www.w3.org/1999/xlink"
	width="1036pt" height="259pt"
	viewBox="-10795 -772 16446 4110">
<g fill="none">
<!-- Line -->
<polyline points=" 4052,-130 3751,871 2815,1812 2908,943 4052,-130" fill="#808080"
	stroke="#000000" stroke-width="15px" stroke-linejoin="round"/>
<!-- Line -->
<polyline points=" -1540,3316 -1408,2136 -2924,742 -3478,1612 -1540,3316" fill="#ffffff"
	stroke="#000000" stroke-width="15px" stroke-linejoin="round"/>
<!-- Line -->
<polyline points=" 1565,-52 1732,941 615,1895 140,1040 1565,-52" fill="#dddddd"
	stroke="#000000" stroke-width="15px" stroke-linejoin="round"/>
<!-- Line -->
<polyline points=" 4985,1731 4084,2832 2815,1812 3751,871 4985,1731" fill="#808080"
	stroke="#000000" stroke-width="15px" stroke-linejoin="round"/>
<!-- Line -->
<polyline points=" -2924,742 -4435,1036 -5357,1945 -3478,1612 -2924,742" fill="#ffffff"
	stroke="#000000" stroke-width="15px" stroke-linejoin="round"/>
<!-- Line -->
<polyline points=" 2815,1812 1703,2930 615,1895 1732,941 2815,1812" fill="#dddddd"
	stroke="#000000" stroke-width="15px" stroke-linejoin="round"/>
<!-- Line -->
<polyline points=" 5629,848 4985,1731 3751,871 4052,-130 5629,848" fill="#808080"
	stroke="#000000" stroke-width="15px" stroke-linejoin="round"/>
<!-- Line -->
<polyline points=" 2908,943 2815,1812 1732,941 1565,-52 2908,943" fill="#dddddd"
	stroke="#000000" stroke-width="15px" stroke-linejoin="round"/>
<!-- Line -->
<polyline points=" 5629,848 4985,1731 4084,2832 4549,2158 5629,848" fill="#808080"
	stroke="#000000" stroke-width="15px" stroke-linejoin="round"/>
<!-- Line -->
<polyline points=" 2908,943 2815,1812 1703,2930 1487,2277 2908,943" fill="#dddddd"
	stroke="#000000" stroke-width="15px" stroke-linejoin="round"/>
<!-- Line -->
<polyline points=" -1300,2054 -2825,643 -2836,-750 -1300,2054" fill="#dddddd"
	stroke="#000000" stroke-width="15px" stroke-linejoin="round"/>
<!-- Line -->
<polyline points=" -2836,-750 -1300,2054 -1406,3226 -3456,-205 -2836,-750" fill="#dddddd"
	stroke="#000000" stroke-width="15px" stroke-linejoin="round"/>
<!-- Line -->
<polyline points=" -8966,316 -8900,1306 -10579,1632 -10395,228 -8966,320" fill="#808080"
	stroke="#000000" stroke-width="8px" stroke-linejoin="round"/>
<!-- Line -->
<polyline points=" -8234,2463 -7512,1489 -7966,451 -8631,1385 -8234,2467" fill="#ffffff"
	stroke="#000000" stroke-width="8px" stroke-linejoin="round"/>
<!-- Line -->
<polyline points=" -1540,3316 -5357,1945 -3478,1612 -1540,3316" fill="#ffffff"
	stroke="#000000" stroke-width="15px" stroke-linejoin="round"/>
<!-- Line -->
<polyline points=" -1406,3226 -1300,2054 -1406,3226" fill="#dddddd"
	stroke="#000000" stroke-width="15px" stroke-linejoin="round"/>
<!-- Line -->
<polyline points=" 2908,943 4549,2158 4084,2832 2815,1812 2908,943" fill="#808080"
	stroke="#000000" stroke-width="15px" stroke-linejoin="round"/>
<!-- Line -->
<polyline points=" 140,1040 1487,2277 1703,2930 615,1895 140,1040" fill="#dddddd"
	stroke="#000000" stroke-width="15px" stroke-linejoin="round"/>
<!-- Line -->
<polyline points=" 4549,2158 5629,848 4052,-130 2908,943 4549,2158" fill="#808080"
	stroke="#000000" stroke-width="15px" stroke-linejoin="round"/>
<!-- Line -->
<polyline points=" 1487,2277 2908,943 1565,-52 140,1040 1487,2277" fill="#dddddd"
	stroke="#000000" stroke-width="15px" stroke-linejoin="round"/>
<!-- Circle -->
<circle cx="-8787" cy="1403" r="108" fill="#000000"
	stroke="#000000" stroke-width="8px"/>
<!-- Circle -->
<circle cx="-8286" cy="2677" r="108" fill="#000000"
	stroke="#000000" stroke-width="8px"/>
<!-- Circle -->
<circle cx="-7366" cy="1446" r="108" fill="#000000"
	stroke="#000000" stroke-width="8px"/>
<!-- Circle -->
<circle cx="-7881" cy="289" r="108" fill="#000000"
	stroke="#000000" stroke-width="8px"/>
<!-- Circle -->
<circle cx="-8882" cy="211" r="108" fill="#000000"
	stroke="#000000" stroke-width="8px"/>
<!-- Circle -->
<circle cx="-10494" cy="122" r="108" fill="#000000"
	stroke="#000000" stroke-width="8px"/>
<!-- Circle -->
<circle cx="-10679" cy="1757" r="108" fill="#000000"
	stroke="#000000" stroke-width="8px"/>
<!-- Line -->
<polyline points=" -8787,1253 -8878,378"
	stroke="#000000" stroke-width="60px"/>
<!-- Line -->
<polyline points=" -8351,2505 -8721,1538"
	stroke="#000000" stroke-width="60px"/>
<!-- Line -->
<polyline points=" -10497,1720 -8938,1423"
	stroke="#000000" stroke-width="60px"/>
<!-- Line -->
<polyline points=" -10331,128 -9064,207"
	stroke="#000000" stroke-width="60px"/>
<!-- Line -->
<polyline points=" -8703,1259 -8044,342"
	stroke="#000000" stroke-width="60px"/>
<!-- Line -->
<polyline points=" -7817,419 -7444,1324"
	stroke="#000000" stroke-width="60px"/>
<!-- Line -->
<polyline points=" -7421,1595 -8145,2569"
	stroke="#000000" stroke-width="60px"/>
<!-- Line -->
<polyline points=" -10512,273 -10695,1572"
	stroke="#000000" stroke-width="60px"/>
<!-- Line -->
<polyline points=" -3358,1498 -3456,-205 -1406,3226 -3358,1498" fill="#dddddd"
	stroke="#000000" stroke-width="15px" stroke-linejoin="round"/>
<!-- Line -->
<polygon points=" -5406,1844 -4501,974 -4899,-403 -5769,105" fill="#808080"
	stroke="#000000" stroke-width="15px"/>
<!-- Line -->
<polyline points=" 616,1888 1739,937 2817,1812"
	stroke="#000000" stroke-width="15px" stroke-dasharray="30 30"/>
<!-- Line -->
<polyline points=" 1731,946 1566,-60"
	stroke="#000000" stroke-width="15px" stroke-dasharray="30 30"/>
<!-- Line -->
<polyline points=" 2810,1818 3751,872 4922,1689"
	stroke="#000000" stroke-width="15px" stroke-dasharray="30 30"/>
<!-- Line -->
<polyline points=" 4051,-124 3747,889"
	stroke="#000000" stroke-width="15px" stroke-dasharray="30 30"/>
</g>
</svg>
