/* XPM */
static const char *blue_xpm[] = {
/* width height ncolors chars_per_pixel */
"128 128 2 1",
/* colors */
"` c #000000",
"a c #0000BF",
/* pixels */
"`a`a`a`a`a`a`a`a`a``a`a`a`a`a`a`aa`a`a`a`a`aa`aa`a`a`a`a``a`a`a`aa`a``a`a`a`a`aaa`a``a``a`a`a``a`a`a``a`a`aa`a`a`aa`a`a`a`aa`a`a",
"`a`a`a`a`a`a`a`a`aa``a`a`a`a`a`a`a`a`aa`aa`a`a`a`aa`a`a`aa`a`a`a``a`a`a`a`aa`a``a`aa`aa`a`a`aa`a`a`aa`a`a``a`a`a`a`a`a`a`a`a`a`a",
"a`a`a`a`a`a`a`a`a``aa`a`a`a`a`a`a`a`a``a``a`a`a`a``a`a`a``a`a`a``a`a`a`a`a`a`a`a`a``a``a`a`a``a`a`a``a`a`aa`a`a`aa`aa`aaa`a`a`a`",
"`a`a`aaa`aaa`aa`a`aa`a`a`a`a`a`a`a`a`aa`aa`a`a`aa`aa`a`a`a`a````a`````a`a```a`a`a``a``a```a``a`a`a`a`a`a`a`a`a`aa`aa`aa``a`a`a`a",
"a`aaa`a`aa`aa`aa`a``a`a`a`a`a`a`a`a`a`a`a`a`a`a``a``a`a`a`a``a`a`a`aa``a`a`a```a``a``a``a``a`a``a``a``a`a`a`a`a``a`a`a`aa`aaa`aa",
"aa``aa`a`a`a`a`aa`aa`a`a`a`a`a`a`a`a`a`a`a`a`a`aa`aa`a`a`a`a``a```a``a````a`a`a`a``a``a``a``a`a``a``a``a`a`a`a`aa`a`a`a`aa``aa``",
"a`aaa`a`aaa`aaa`aa`aa`aaa`aaa`aaa`aaa`a`a`a`a`a``a`a`a`a``a``a`a`a``a`a`aa```a```a``a``a``a`````a``a`aa`a`a`a`aa`aaa`aa`a`a`a`a`",
"`aa``aaaa``aa``aa`aa`aa``aa``aa``aa``a`a`a`a`a`aaa`a`a`a`a``a```a``a```a```aa`a`a``a``a``a`a`a`a``a````a``a`a`a``a``aa`a`a`aa`aa",
"a`aaa`a`aaa`aaa`aa`a`a`aa`aaa`aaa``aa`aaa`aaa`a`a`a`a`a`a`aa`aa``aa`aaa`a`a````a``a``a``a`````a``a`a`a``aa`a`a`aa`aa``a`a`a`a`a`",
"aa``aa`a`a`a`a`a`aa`aaa`aa``aa``aaa`aa``aa``aa`a`aaa`a`a`a`a``aa``a````a`a`a`a``a``a``a``a`a`a`a````a`a```a`a`a`a``aa`aa`a`a`a`a",
"``aaa`aaa`aaa`aa`a`aa`a`a`aaa`aaa`a`a`aaa`aa`aa`aa``a`aaa`a`aa``aa`aaa`a`a`a`a`a`a``a``a``a``````a`a```a`a`a`a`a`aa``a`a`a`a`a`a",
"aaa``aa``aa``aa`a`aa`a`a`aa``a`a``aa`aa``aa`aa`aa`aaaaa``aa`a``aa``a``a`a`a`a``a```a``a``a``a`a`a`a``aa`a`a```a``a``a`a`a`a`a`aa",
"a`aaa`aaa`aaa`aaaa`a`aaaa`aaa`a`aa`aa`aaa`a`a`a`a`a``a`aa``a`aa`a`aa`a`a`a`a`aa`aa``a``a```a`a`a```a```a```aa`a`a`aa`a`a`a`a`a``",
"a```aa``aa``aa```aa`a```aa``aa`a`aa`aa``aa`a`aaa`a`aa`a`aaa`a`aa`a`aa`a`a`a`a``a``a``a``aa``a```aa``aa``aa```a`a`a``a`a`a`a`a`aa",
"`aaa``aaa`aaa`aaaa`a`aaa``a`a`aaa`a`a`aaa`aaaa``aaaa`a`a`a`a`a`a`aa``aaa`a`a`aa`aa`aa`aa`a`a``aa``aa``aa`a`aa`a`a``a`a```a`a`a``",
"`a``aaa```a```a```a`aa``aa`aa`a``a`a`aa``aa```aaa```a`aa`a`aa`a`aa`aaa``aa`a`a`a``a``a``a``a`a``a`a``a``a`a``a``a`a`a``aa``a`a`a",
"a`aa```aaa`aaa`aaa`a``aa``a``a`aa`aa`a`aa`aaaa``a`aa`a``a`a`a`aa``a`a`aa``a`a`a`aa`aa`aa`aa`a`aa`a`aa`aa`a`aa`aa`a`a`aa``aa`a`a`",
"`a``aa```a```a````a`a``aa`aa`a``aa`aa`a`a```a`aa`a`a`aa`a`a`aa`aaa`a`a`aaa`a`a`a`aa`a`a`a`aa`a`aa`a`aa`a`aa`a``a`a`a```a``a``a`a",
"a`aa``aaa`aaa`a`aa`a`aa``a``a`aa``a``a`a`aa`a`a`a`a`a``a`a`a``a```a`a`a`a`aaa`aa`a`a`a`aa`a`a`aa`a`aa`a`aa`a`aa`a`a`aaa`aa`aa`a`",
"`a```a```a```a`a````a```a`a`a`a``aa`aa`a`a`aa`a`a`a`a`a`a`a`aa`aaa`aaa`a`aa``aa`aa`aa`aa`a`aaaa`aaaa`aaaa`a`aa`a`aa`a``a``a``a`a",
"a`aaa`a`a`a`a```a`a``a`a`a`a`a`aa``a``a`a`a``a`a`a`a`a`a`a`a``a`a`a`a`aaa`aaa`a`a`aa`aa`aaa``a`a`a`a`a``aa`aa`aaa``a`aa`aa`a`a``",
"a````a`a``a``aa``a`a``a`a```a````a`aa`a`a`aa`a`a`a`a`a`a`a`aaa`a`aaa`a``aa``aa`aaa`aa`aa``aaa`aaa`a`aaaa`aa`aa``aaa`a`a``a`a``a`",
"`aa`a`a``a``a```a``a`a`a``aa``aaa`a``a`a`a``a`a`a`a`a`a`a`a`a`a`aa``a`aaa`aaa`a`a`a`a`a`aaa`aa`a`a`aa`a`a`a`a`aa`a`a`a`aa`a`a`a`",
"a``a`a``aa`a``aa``a`a`a``aa``aa```a`a`a`a`aa`a`a`a`aa`aa`aaa`a`aa`aaaaa``aa``aaa`a`aaa`aa``aa`a`aaaa`a`a`aaa`a`a`a`a`a`a`a`a`a`a",
"`a``a`a```a`a```aa``a``aa``aa``aaa`a`a`a`a`aa`aaa`a`aa`aa``aa`aa`a`a``aaa`aaa`a`aaa``aa`aaa`a`aa``a`a`aaa``aa`a`a`a`a`a`a`a`a`a`",
"`aa``a`aa``a`aa```a`aa``aa``aa```a`a`aa`a`a`aa``aa`a`aa`aaa`aa`aa`a`aa``aa``aa`a``aaa`aa``aa`a`aaa`a`a``aaa`aa`aaa`a`a`a`a`a`a`a",
"a``aa`a```a`a`a`aa`a``aa``aa``aaa`a`a`a`aa`a``a`a`aa`a`a`a`a`a`a`aaaa`aaa`aaa`a`aaa`a`a`aaa`aa`a``a`aaa`a``a``aa``a`a`a`a`a`a`a`",
"a`a````a`aa``a``a``a`a`a`aa`aaa``a`a`a`aa`a`aaaaa`a`aa`aa`a`aaa`a`a``aa``aa``a`aa``a`a`a`a``a`aa`aa`a``a`aa`aaa`aa`a`a`a`a`a`a`a",
"`a`aa`a`a``a``aa`aa`a`a`a``a``a`a`a`a`a``a`a````aa`a`aa`aa`a`a`aaa`aa`aaa``aa`a`aaa`aaa`a`aa`a``a``a`aa`a``a```a``a`a`a`a`a`a`a`",
"a`a``a```a``a```a``a`a`a`aa`aa`aa`aa`a`aa`a`aaaa`a`aa`a`a`aaa`a``aa`aa``aaa`aa`a``aa``aa`a`a`aa`aa`a``a`aa`aaa`aaa`a`a`a`a`a`a`a",
"`a``a`a`a``a`a`a``a`a`a`aa`aa`a``a``a`a`a`a`a```a`a``a`a`aa``a`aaa`a``a`a``a``a`aa``aa``a`a`a``a``a`aa`a``a```a```a`a`a`a`a`a`a`",
"a``a```a``a```a``a``a`a`a``a``a`aa`aa`a`a`a`a`aaa`a`aa`a`a`aa`aa``a`aa`aa`aa`aa`a``aa`aa`aa`a`aa`a`a``a`a`a`aaa`aa`a`a`a`a`a`a`a",
"`a`a`a``a``a`a``a`a``a`a`aa`aa`a``a``a`a`a`a`a```a`a``a`a`a`aa``aa`a`aa``a``a``a`aa``a``a``a`a``a`a`a``a`a`a```a``a`a`a`a`a`a`a`",
"``a```a``a````a````a````a``a``a`a`a`a```a``a``aa``a`a`a`a`a``aaa`aa`a`aa`aa`aa`a``aa`aa`aa`a`aa`a`a`aa``a`a`a`a`a``a```a```a````",
"`a``a``a``a`a```a`a``a`a``a``a`a`a``a`aa``a``a``aa`a`a`a`a`aa``a`a`a`a``a``a``a`aa``a``a``a`a``a`a`a``aa`a```a```a``a`a``a``a`aa",
"a``a``a``a`````a````a`a``a`a`a``a``a`a```aa`aa`a``a`a`a`a`aa`aa`aa`aa`aaa`aa`a`a```aa`a`aa`aa`aa`a`a`a``a``aa`a`a``a`a``a``a`a``",
"``a``a``a``a`a```a`a````a```a`a``aa`a`a`a``a``a`aa`a`a`a`a`a`a`a`aa`aa``a`a`a`a`aaa``a`a``a``a``a`a`a`a``a`````a``a````a``a````a",
"`a````a```````a`````a`a``a`a```a```a``a`a`a`a`a``a`a`aa`aaa`aaaaa`aa`aaa`a`a`a`a```a`a`aa`aa`aa`a`a``a`a``a`a`a`a``a`a``a``a`a``",
"``a`a```a`a`a```a`a````a````a`a`a`a`aa`a`a`a`a`aa`a`aa`a`a`a`a``a`a`a`a`a`a`a`a`aaa`a`a``a``a``a`a`aa``a`a`a`````a````a``a````a`",
"`a`````a`````a`a````a`a``a`a`a`a`a`a```a`a`a`a`a`a`aa`aaa`aaa`aaaa`aaa`aaa`aa`a`a``a`a`aa`aaa`aa`a`a``a`a```a`a`a``a`a``a``a`a``",
"```a`a```a`a`````a`a```a``a```a`a`a`aaa`a`a`a`a`a`a`a`a`aa`a`a`a`aa``aa`a`a`aa`a`aa`a`a``a```a``a`a`aa`a`aa``a````a````a``a````a",
"`a````a`a```a`a`a```a`a`a``aa``a`a`a``a`aa`aaa`aaaaa`a`a`aa`aaa`a`aaa`aa`aaa`a`a``a`a`aaa`aaa`a`a`a``a``a``a``a`a``a`a``a``a`a``",
"a``a`a````a``````a`a```a``a``aa`a`a`aa`aa`aa``aa`a``aaa`aa`aa`aa`aa`a`a`aa``a`a`aa`a`a``a`a``a`a`a`aa`aa`a`a`a`a``a```a``a````a`",
"``a````a`a``a`a`a`a``aa``a`a`a``a`a`a`aa``a`aaa`a`aa`a`aa`a`a`a`aa`aaa`aa`aaaa`aa`a`a`aa`a`aa`a`a`a``a``a`a`a`a``a`a`a``a``a`a``",
"`a``a`a````a```a```a```aa`a`a`aa`a`a`a`aaa`a`a`aaa`aa`aa`aaa`aaa`a`a`aa`a`a``aa``a`a`a`a`a`a`a`a`a`aa`aa`a`a`a`a``a```a```a````a",
"``a``a``a`a`a`a`a`a`aa```a`a`a`aa`aaa`a``aaaa`a``aa`aa`aa``aa``aa`aa`a`a`aaaa`aaa`aaa`a`a`a`a`a`a`a``a``a`a`a``a`a`a`a`a`a`a`a``",
"a``a```a`````````a`````aa`a`a`a``aa``a`aa`a``aaaaa`aa`aa`aa`aaa`aa`aa`aaaa`a`a`a`aa``aa`aa`a`a`a`a`aa`aa`a`a``a`a```a```a`````a`",
"``a```a```a`a`a`a``a`aaa``a`a`a`aa`aaaaa`a`aaa``a`aa`aa`aa`a`a`aa`aa`a`a``a`aa`a`a``aa`aa`a`a`a`a`a``a``a`a``aa``a`a`a`a```a`a``",
"`a``a```a``a```a``a`a```aa`a`a`a``a`a``aa`aa`aaa`a`a`a`a`aaaa`a`aa`aa`a`aa`a`aa`a`aa``a``a`a`a`a`a`a``a``a`a```a``a`````a`a````a",
"``a``a`a`a``a`a`a`a``aa``a`a`aa`aa`a`aa`aa`aa`a`aaa`aaa`a``a`aaa`aa`aaaa`aa`a`aa`a`aaa`aa`a`a`a```a`a`aa``a`aa``a``a`a`a```a`a``",
"a``a``````a``a```a`aa``aa`a`a``aa`a`aa`a`a`a`a`aa`aa`a`aaaa`a`a`a`a`a``a`a`a`a``a`a```a``a`a`a``aa``a````a`a```a`a``a````a`````a",
"``a``a`a`a``a``aa``a``aa``a`a`aa`a`aa`aa`aa`aaa`a`a`a`aa`a`aaa`a`a`a`aa`aa`aa`aaa`a`aaa`a`a`a``a```a``a`a````aa````a``a`a`a`a`a`",
"`a``a`a`a`a`a`a``aa`aa``aa`a`a``a`a``a`aa`aa``aa`aa`aa`a`a`a``a`a`a`a``a``a``a```a`a```a`a``a`a`a`a``a`a`a`a```aa`a``a`a```a```a",
"``a``a```a`a`a`a``a``aa`a`a`a`aa`a`aa`a`a``aaa`aa`aa`a`a`a`a`a`a`a`a`a`a`a`a`a`a`a``aa``a`a``a```a`a````a`a`aa```a`a``a`a`a`a`a`",
"`a`aa``aa`a`a`a`aa`a`a`a`a`a`aa`a`aa`a`a`a`a``a``a``a`a`a`a`a`a```a``a``a`a`a`a`a``a```a```a``a`a````a`a```a`a`aa`a`aa```a```a``",
"`a`a``aa`a`a`a`aa`a`aa`aa`a`aa``a`a`a`a`a`aa`aa`aa`a`a`a`a`````a`a``a``a``````````a`a`a``aa``a`a`a`aa`a``aa`a``a``a`a``aaa`aaa`a",
"a`a`aa``a`a`a`a`a`aa``a`aa`a``aa`a`a`a`a`a``a``a``a`a`a```a`a`a````a``a``a`a`a`a`a```a`a```a``````a``a`a`a`a`aa`aa`a`aa```a```a`",
"`a`a`aaa`a`aaa`a`a`aaa`a`a`aa`a`a`a`a`a`a`a`a`a`a`a``a`a`a```a``a`a`a``a``a`a`a```a`````a`a`aa`aa``a``a`a``a``a`a`a`a`aaaa`aaa`a",
"`aa`a`a`a`aa``a`a`a```a`a`a``a`a`a`a`a`a`a`a`a`a`a``a```a``a```a``````a``a``````a``a`a`a`a````a``a`a`a`a`aa`aa`a`a`aaa``a`a`a`a`",
"aa`a`a`a`aa`aa`a`aa`aa`a`a`aa`a`a`a`a`a`a`a``a``a``aa`aa``a`a`a``a`a`a``a``a`a`a``a`a`a```a`aa``a`a`a`a``a``a`aaa`aa``aaa`aa`a`a",
"``a`a`a`a``a``a`a``a``a`a`a``a`a`a`a`a`a`a`a``aa`aa``a``a`a``a``a```a``a`a``a`a`a````a`aa`a`a`aa`a`a`a`aa`aa`a``aa`aaa`a`a`a`aa`",
"a`a`a`a`aa`aa`a`aa`aa`a`a`aa`a`a`a`a``a```a`a```a``a`a`a`a`a``a``aa``a`a``a``a```aaa``a``a`a`a`a`a`a`a``a``aa`aa`aa``aa`a`a`a`aa",
"`a`a`a`a``a``a`a``a``a`a`a``a`a`a`a`aa``aa`a`aaa`aa`a`a`a`a`aa`aa``aa`a`aa`a`a`aa```aa`aa`a`a`a`a`a`a`aa`aa``aa`a``aa``a`a`a`a``",
"a`a`a`a``a``a`a``a``a```a``a`a`a`a`a```a````a```a``a`a`a`a`a``a``a`a``a`a`aa`a`a``aaa``a`a`aa`aa`aaa`aa`a`a`aa`a`aaa`aaa`a`a`a`a",
"```````a``a````a``a``a`a`a`a``a`a```aa`a`aa``aa`a`a`a`a`a`a`aa`aa`a`aa`a`a``a`a`aa``aaa`aaa`aa`aa``aa``a`a`a``a`a```a```a`a`a``a",
"a`a`a`a`a``a`a``a``a``a```a`a``a`aa```a`a``a``a`a`aa`aaa`aaa`aa`aa`a`aa`aaaa`aaa`aaa``aa``aa`aa`aaa`aaa`a`a`aa`a`aa`aaa`a``a`a``",
"```a``````a```a``a``a``a`a``a`a`a``a`a```a`a`a`a`a``aa``aa``a`a`a`a`aa`aa`a`aa``a`a`aaa`aa`a`a`a`a`a`a`a`a`a``a`a``a```a``a````a",
"a`a``a`a`a```a``a``a``a`a``a`a````a`a`a`a```a``a`a`aa`aaa`aaaa`a`aaaa`aa`a`aa`aaaa`aa``aa`aaa`aaa`a`a`a`aa`a`aa`a`a`a`a``a``a`a`",
"````a```a``a```a``a``a```a````a`a``````a``a``a`a`a`a`a``a`a``aa`a`a``a`a`aa`a`a``aa`aaa`aa`a`a`a`aaa`a`a``a`a``a`a`a`a`a``a``a``",
"`a`a`a```a``a`a`a``a``a`a`a`a``a`a`a`a``a``a``a`a`a`a`aa`a`aa`aaaa`aaaa`a`aa`aaaa`aa``aa`aa`aaa`a``aa`a`aa`a`a`a`a``a```a``a``a`",
"a``````a``a``````a```a```````a``````a``a``a``a`a``a`a`a`a`aa`a`a``aa`a`a`aa`aa``a`a`aa`a`a`aa``aaa`a`a`aa`a`a`a`a`aa``aa``a`a``a",
"``a`a`a``a`a`a`a``a`a`a`a`a`a``a`a`a``a``a``a`a``aa`a`a`a`a`a`a`aaa`a`aaaa`aa`aa`a`aa`aaa`aa`aaa``a`a`aa``a`a`a`a`a``a```a````a`",
"a`a``a`a``````a``a```````a````a```a``a``a``a```aa``a`a`a`a`a`a`a`a`a`a``a`a``a`aa`a`aa``aa`a`a`aaa`a`a``aa`a`a`a`a`aa`aa`a`aa`a`",
"`a`a``a`a`a`a``a``a`a`a`a`a`a``a```a``a``a``a`a``a`a`a`a`a`a`aa`a`a`aaaa`a`aa`a`aaaa`aaa`aa`a`a``aa`aaaa`aa`aaa`a`a`a``a`a``a``a",
"a`a`aa```a```a``a````a```````a```a``a``a``a``a``a`a`a`a`a`a`a`a`a`aa``a`a`aa`aa`a``a`a`a`a`aaa`aa``aa``a`a`aa``aaa`a`aa`a`aa`aa`",
"`a`a```aa`a`a``a``a`a```a`a`a```a`````a``a``a``a`a```a`a`a`a``a`a`a`aaa`a`a``a`a`aa`a`a`a`aa``aa`aaa`aa`aa`a`aaa``aa`a`a`a``a``a",
"a`a`aa`````a``a``a````a```````a```a`a```a``a``a```aa``a```a`a`a`a`a````a`a`aa`a`a``a`aaa`a`a`a`a`a``a`aa``aa`a`aaa`aa`a`a`aa`aa`",
"`a`a``aa`a``a``a``a`a``a`a`a```a`````a```a``a``a`a``a``aa``a`a`a`a`aaa`a`a``a`a`aa`aa``aa`a`aa`a`aa`a``aaa`aa`a``aa`a`aa`a`a``a`",
"a`a``a````a``a``a````a```````a```a`a```a``a``a``a``a``a```a```a```a```a``a`a`a`a``a``aa``a`a``a`a``a`a`a``a``a`aa``a`a``a`a`aa`a",
"`a``a``a`a``a``a```a``a`a`a`a```a`````a``a``a``a``a``a`a`a`a`a``aa`a`a``a`a```a``a`a`a``aa`a`aa`a`a`a`a`aa`aa`aa`aa`a`aa`a`a``a`",
"a`a`a`a````a``a``a``a`````````a```a`a```a``a``a``a``a```a```a`a```a`a`a`a``a`a`a`a`a`a`a``a`a``a`a`a`a`a``a`aa``a`aa`a``a`a`a``a",
"```a```a`a``a`````a``a`a`a`a`a`a`a```a`a``a`a``a``a``a`a`a`a```aa````a`a`a``a```a``a``a`a``a`a``a`a`a`a`aa`a``aa`a``a`a`a``a`a``",
"aa``a`a```a```a`a``a``````a```````a`a```a````a``a``a``a`````a`a``a`aa`a````a`a`a``a``a``a`a``a`a`a```a`a``a`aa``a`aa`a`a`aa``a`a",
"```a`a```a```a`a``a``a`a`a`a`a`a`a```a`a``a`a``a``a``a``a`aa`a``a`a`````aaa```a`a`a`aa`a`a``a`a````aa`a`a`a`a``a`a``a`a`a```a`a`",
"a`a````a```a`````a``a`a`a```a```a``a``a``a`a`a`a`a`a`a`a`a``a`aa`a`aa`aa```a`a``a``a```a``a````a`a`````a`a`a`aa`a`a``a```a`a````",
"`a`a`a``a`a`a`a`a`a``````a`a`a`a`a``a``a`a``a`a`a`a`a`a`a`a``a``a`a``a``a`a`a`a``a``a`a`a``aa`a`a`a`a`a```a`a``a`a`a``aa``a`a`a`",
"````a``a`````a``````aa`aa`a```a````a``a`a`aa`a`a`a`a``a``a`aa`aa`a`aa`aa`a`a`a`aa`aa`a`a``a``a```a```a``a``a``a`a``a`a```a```a`a",
"`a`a``a`a`a`a``a`a`a``a``a``aa`a`aa``aa``a``a`a`a``a`aa`a``a``a``a`a`a``a`a`a`a``a````a``a``a``a``a`a``a``a``a`a``a```a`a`a`a```",
"``a``a```a```a``a`a`a``a``a```a`a``a```a`a`a`a`a`aa`a``a`aa`aa`aa`a`a`aa`a`a`a`a`a`aa``a`a`a``a`a``a``a`a``a`a``a`a`a``a```a``a`",
"a``a``a`a`a`a`a````a`a`a`a`aa````a``aa`a`a`a`a`a``a`aa`a``a``aa`aa`a`a`a`a`a`a`a`a``aa``a```a````a``a````a``a`a``a``a`a`a`a`a``a",
"`a``a``a```a````a`a```a`a`a```a`a``a``a`a`a`a`a`aa`a``a`aa`aa`a`a`a`a`a`a`a`a`a`a`aa``aa``aa``a`a`a```a`a`a``a``a`a``a````````a`",
"a``a``a`a`a`a`aa`a``aa```a``aa`a``a``a`a``a`a`a`a`a`aa`a`a`a`a`a`a`aaa`a`aa`a`a`a`a``a```a```a`a````aa```a``a``a````a`a`aa`a`a`a",
"`a`a`a```a```a````a```a`a`a```a`a`a`a`a`aa`a`a`a`a`a``a`a`a`a`aaa`a``aa`a``a`a`a`a`aa`aa`a`aa`a`a`a```aa``a`a`a`a`a````a``a`a```",
"a```a`a`a`a`a`a`a``aa``a```aa```a``a`a`a``a`a`a`a`a`aa`a`a`aaa``aa`aa`aa`aa`a`a`a`a``a``a`a``a``a`aa`a``a`a``a`a`a`aa`a`a````aa`",
"``aa```a```a````a`a```a``aa``a`a`aa`a``a`a`a`a`a`a`a``a`a`aa``a`a`aa`a``aa`a`aaa`a`aa`aa`a`a`a`a`a``a``a`a`aa``a``a``a```a`aa``a",
"`a``a`a`a`a`a`aa`a`a`aa`a```a`a`a```a`a`a`a`a`a`a`a`aa`aa`a`aa`aa`a`aa`aa`a`aa``aa`a``a``a`a`a`a`a`aa`a`a``a``aa`a``a``aa`a```a`",
"a`a``a```a```a````a`a``a`a`a`a`a`aa`a`a`a`a`a`a`a`a`a`a``a`a`aa``a`a``a``a`a``aa``a`aa`aa`a`a`a`a`a``a`a`aa`aa``a`aa`aa``a`aa`a`",
"`a`a``a`a`a`a`a`a``a`a``a`a`a```a``a`a`a`a`a`a`a`a`a`a`aa`a`a`aaa`a`aa`aa`a`aa`aaa`a`a`a`a`a`a`a`a`aa`a`a`a``aa`a``a``aa`a``a``a",
"a`a``a`a```a```a`aa`a`aa`a``a`aa``a`a`a`a`a`a`a`a`a`a`a``a`a`a```a`a``a``a`a``a```a`a`a`a`a`a`a`a`a``a`a`a`aa``a`aa`aa``a`aa`aa`",
"`a``a```a`a``aa`a``a`a```a`a``a``a`a`a``a`a`a`a`a`a`a`a`aa`a`a`aa`a`a`a`aa`a`aa`aa`a`a`a`a`a`a`a`a`aa`a`a`aa`aa`aa`a`a`aa`a`a``a",
"a``a`a`a``a`a````a``a`aa`a`a`a`aa`a``a`a`a`a`a`a`a`a`a`a``a`a`a``a`a`a`a``a`a``a`a`a`aa`a`a`a`a`a`a``a`a`a``a`aa``a`a`a``a`a`a`a",
"`a``a`a`a``a`a`a``a``a``a`a`a`a``a`a``a```a``a``a`a`a`a`a`a``a`a``a```a`a``a`a`a`a`a``a`a`a`a`a`a`aa`a`a`aa`a``aaa`a`a`aa`a`a`a`",
"`a`a`````a`````a`a`aa``a```a```a``a``a``aa``a``a```a```a`a``a```a``a`a````a`a`a`a`a`aa`a`a`a`a`a`a``a`a`a``a`aa```a`a`aa`a`a`a`a",
"a```a`a`a`a`a`a``a```a`a`aa``aa``a``a``a```a``a``aa``aa`a``a``aa``a`a``a`a`````a```a``a`a`a```a````a```a`a`a`a``aaa`a`a`a`a`a`a`",
"`a`a```a```a`a``a``a``a````a```a``a``a``a`a`a`a`a```a`````a`a````a````a``a`a`a``a`a``a`````a`a``a`a``a````a``a`a```a`a`a`a`a```a",
"a```a`a`a`````a``a``a``aa`a`a`a`a``a``a``a```a```a`a`a`a`a```a`a``a`a``a````a`a``a`a``a`a`a```a``a`a``a`a``a``a`a`a`a`a``a``aa``",
"`a`a``````a`a```a``a``a``a``a``a``a``a``a``a``a`a`````a````a````a````a``a`a````a````a``a````a``a````a````a``a````a```a``a``a```a",
"a`a``a`a`a```a`a``a``a``a``a``a``a``a``a``a``a```a`a`a``a`a``a`a``a`a``a````a`a``a`a``a``a`a``a``a`a``a`a``a``a`a`a`a``a``a```a`",
"````a```a``a``a``a`a`a`a`a`a`a`a`a`a`a``a``a``a`a```a``a````a````a````a``a`a````a````a``a````a``a````a````a``a`````a``a`a``a`a``",
"`a`a`a`a`a``a``a````a```a`a`a``a``a```a``a``a````a```a``a`a``a`a``a`a```````a`a``a`a`````a`a`````a`a``a`a``a``a`a```a````a``a`a`",
"a``````````a``a``a`a``aa```a``a``a`aa`a`a`a``a`a```a``a````a````a`````a`a`a````a`````a`a`````a`a````a````a``a`````a``a`a``a````a",
"``a`a`a`a`a``a``a`a``a```aa``aa`a`a``a`a````a```a`a``a``a`a``a`a```a`a``````a`a```a`a`````a`a````a`a``a`a``a```a`a``a`a``a``a`a`",
"a``a`a`a`a`a`a`a`a`aa`a`a``aa``a`a``a```a`a``a`a````a``a````a````a`````a`a`a````a`````a`a`````a`a````a````a``a``a``a```a``a``a``",
"`a``a```a``a``a`a`a``a`a`a```a``a`a``a`a`a`a````a`a``a``a`a```a```a`a```````a`a``a`a`a```a`a`a```a`a``a`a``a``a``a``a`a`a``a``a`",
"a`aa``aa``a`aa`a`a``a`a`a`aa`a`a`a``a`a`````a`a````a``a`````a```a`````a`a`a````a```````a```````a````a````a```a``a``a`a````a``a``",
"`a```aa``aa`a``a`a`a`a`a`a``a`a````a```a`a`a`a``a`a``a```a`a```a```a`a`a````a`a```a`a`a`a`a`a`a``a`a```a``a`a``a``a```a`aa``a``a",
"``aaa``aa``a`aa`a`a`a`a```a``a`a`a``a`a```a````a````a``a`````a```a```````a`a````a``a```````a````a````a``a```a`a`aa`aa``a``a`a`a`",
"a```aa``aa`a``a`a`a`a``aa``a````a`a``a`a`a``a`a`a`a``a``a`a`a`a`a`a`a`a`a```a`a``a``a`a`a`a``a`a`a`a``a``a`a``a```a``a``a``a`a`a",
"`aaa``aa``a`aa`a`a`a`aa``aa`aa`a```a``````a``a`````a``a``````````````a```a`a`a``a``a```a````a`````a``a`a``a``a`aa`a`a`a`a`a`a```",
"`a```aa`aa`a`a`a`a`a`a``a``a``a`a`a``a`a`a``a`a`a`a``a`a`a`a`a`a`a`aa``aa`a`a``aa`a``aa``a`a`a`a`a``a````a``a`a``a`a`a`a`a`a``a`",
"a`aaa``a``a`a`a`a`a`a`aa`a``a````a``a`a`a``a```a`a`a````a`a`a`a`a`a``aa``a`a`aa``a`aa``aa`a```a```a``aa`a`aa`a`a`a`a`a``a`a`aa`a",
"`a``aa`aaa`a`a`a`a`a`a``a`a``a`a``a````a`a`a`a`a``a`aaa``a```a``a``a``aa`a`a``aa`a``aa``a``aa``aa``a```a`a``a`a`a`a`a`a`a``a``a`",
"`a`a``a```a`a`a`a`a`a``a`a`a`a`a`a`a`aa`a`a`a`a`aa`a```a`a`aa`aa`aa`aa``aa`aa`a`a`aa``aa`aa``aa``a`a`aa`a``a`a`a`a`a`a`a`aa``a`a",
"`a`a`aa`aa`a`a`a`a`a``a`a```a```a`a`a``a``a`a`a`a``a`aaa`a`a``a``a`aa`aaa`aa`a`a`aa`aa`a`a``aa``aa`a`a``a`a`a`a`a`a`a`a`a```aa`a",
"a`a`a``a``a`a`a`a`a`aa`a``aa`aa``a`a`aa`aa`a`a`a`aa`a```a`a`aa`aa`a``a`a`a`aaaaaa`aa`aa`a`aa``aa``a`a`aa`a`a`a`a`a`a`a`a`aaa``a`",
"a`a`aa`aa`a`a`a``a````a`a```a``a``a`a``a`aa`aaa`a`aa`aaa`a`a`a`a`a`aa`a`aaa``a``aa`aa`aa`a`aaa`aa`a`a``a`a`a`a`a`a`a`a`a````a`a`",
"`a`a``a`a`a`a`a`a`aa`a``a`aa``a`aa`a`aa`a``aa``aa`a`a`a`a`aa`a`a`aa`aa`aa``aa`aa`a`a`a`aa`aa``a``a`a`aa`a`a`a`a`a`a`a`a`aaaa`a`a",
"`a`a`a`a`a`a`a`a`a``a``a`a```aa`a``a`a`a`aaa`aaa`aa`aa`aa`a`a`a`a`a`a`aa`aaa`aa`a`a`aa`a`aa`aa`aaa`a`a``a`a`a`a`a`a`a`a`a```a`a`"
};
