/* XPM */
static const char *sharks_xpm[] = {
/* width height ncolors chars_per_pixel */
"128 128 4 1",
/* colors */
"` c #000000",
"a c #FFFFFF",
"b c #C0C0C0",
"c c #808080",
/* pixels */
"`cbacbccccccbbcbaabcbbcccaababbbccccbaabbbccbcccbbbbccbcccbbcc`cbaacbcbcbabbcbcbcbccbacccccaabccbbabccccccbaabcbccccbbcbccbccccc",
"abcbbcc`caaaabbcabcbcbccbabbbbcccccaabbccbbbccccbcbabbcbccabccbbbacbcbcbbccbbcbcbc`cbbbcccbbabbbbcbcbbcccbcabbbccccbbbbccccbbbaa",
"bbbbccccbabbcbbcbbbcbcccbbbccccc`cbabbcccccccccabbbccbcccbbbbcbbbbcccccbbbbccbbcccccbcccccaabcbbbbcbcbcccbcbbcccccbcbbcc`cbcbaba",
"cbccccccaabcbbccbbcbccccbbbccccbaababcccccccccbabbcbacbccbbcbcbabbac`ccbbccbbccc`ccbcbcccbbbcbccbcbbcbcccbaabcc`cccbbbcccccbaabb",
"cbcccbcbabcbccbccccccc`cbcccccaababbcccccccccbabbccbabccccbccbbcbabcccbbcbbccccccccbcbaaabbaccccbbccbccccaabbbccbcbbaabcccbbabcb",
"bcccbbbcbbbcbbcbccbccccbccc`caabbcbccc`ccbccbabcbccbacbcccccccbbccbccbcbbcbbcccbbbbcbababbaacccabbbbcbccabbbcbcbcbbabbbccbcbabcb",
"bcccaaabbbbcbcbcccccccbcbbbbcabbcbccccbcbbaabbbbc`ccbcc`ccccbbbcbbcccccbbbbccbaaabbcbabbcbcbccbabcccbcccacbcbcccbcbaabccccbbbbbc",
"cccbbcccccccccbcccbabbcbaaabbabcbcbccccbbaabbcccccccbbbbbcbbbcccccccccbcbbcbcbcccbccbabcbbcbccbbcbccccccacbcbccccbcbbbccccbbbbcb",
"cccabbbccbcccccccbaabbbbabbbcbbbcbbcccbcabbcbcccbabbbaabccbccbcccccccbbaabcccbbbbcccbacbccbccccabcccbbcbbbcbcccbabbbcccccaababcc",
"ccbbbcccccbcccccbabbbbcbabccccbcbcbbcccbaabcbccaabbcaabccccbbcbcbcccbaaabbccbbccbbcccacbbbccc`aabcbabccbbcbccccabbccbcccabbbbccc",
"ccbbccc`cbcbbbcbabccbcccbcbcccbccccccccbabcbcbcabbbccbcbccbaabbbaabbbabcbbcbabbbcccccabbcccccbabbbcbbcccbcccccbbbbcccbcaabcbcbcc",
"abbcccccccbbbcbbabbbbccccbbccccccccccccbbbbcbbccbccccbccccbabbbaababaacbbccccbcccccccacccbcccbbbccccbccccccccbabccccaaaabbbcbcbb",
"bbcbbababbaaabbbbbccbcccbabbbcbbcccc`ccbabcbcccccccccccc`bacbcbbbcbcbbbccbcccccccc`ccbcbbcbbcbbbcccbcbcccbcccbbcbcccbabbbcbbcbcb",
"bcccaabcbabbbbbcbbbbccc`aabcbcccbbbbbcbcbbcbbccccc`cbbcbbaacbbbcbbcbbcbbbccccbccccbcbcbcbbcbcccbccbabccccbbbcbbccc`bacbcbccbbcbc",
"bcccabcbcbbbcbccbccccccbabbccccbaaaabcbbcccccbcbcbaababbbabccccbcbcbccccbccccbaabccbcbcbbbccccbaabbbbbcccababbcccccbabcccccccbbc",
"bcccbbbccbbcbbcccbc`ccbaabccccbaabcbcbcbbbccbbcbbaabbbbbbbbcccbbbcbcccccccccbaabccbcbcbbccccccbabbbcc`ccaabbccbccbaaacccccccbcbc",
"cbcbabcccccbccbcccbbababbccccaabbcbcbcbaabbbacbccbbcbcccbccc`cbccbccccbbccccbabccccbbbcbccc`ccbabcccccccbbbccccbbabbbcccccccbbcb",
"bcbbbccccbbcbbc`cbcbaabbbbccabbcbbcbccbbbbcbbccccbbbcbbccbbcccbcccc`cbaabccbbbbccccababbbcbabbbcbcc`ccbaacbccccbaabbcbcccbbbabcc",
"bcbcbcccbbbccccccbbaacbcccc`abcbccbbcccabcccccccbbbcbcbccababbcbccccbabbccccbabcccaaabacbbaaabbccccccbaabbbc`cbcbabcbbccccbaabcc",
"abcbbccccaccccccaaaabbccccccbcccbbbccccbccccbcccbbbcbcccbbbcccbbbbabbbbcbcccaaaccaabcbccbaabccccbbcbcaabcbcbcccbabcbbcccccaabccb",
"bcbcccccaaabcccaabbbbccc`bbcbcccccccccccccccbbbccbccccccbbcbccaabbacccbbccbbabcbcbbbbcbcbbbcbbcbabacbabbbcbcbbaccbbccbccccabbbcc",
"bbcbbcccbbccccbabbcbcc`caaabbbbaabc`cccbcccbaabbbcccc`ccbccccabbbcccccbbbbbcbacbcbbcbcbccbbbcccbabbccbacbcbcbcbbbbccccc`cbbbcccc",
"bccccccbabbcccaabbcbcccbabbbccaabcccccbcccbaabbccbbccbccbcc`cabccccccbbbbccccccccbbbcbccccbccccbbccccbbbcbcbcbbccbccc`cbbbcbcccc",
"cccccbbbbcccccbbbcbcbccbabbcccabcbcccbcbbcaabcbcbcbaabbbabbccbbbccaaabcbbcc`cccccbbcbccccccccccbbbccccbcccbbcbccccbcbaaabcbccccc",
"bcbbabbcccc`ccbacbcbcbcbbbccccbbbccccbbbcbabcbcbcbaabbcbaaabbcccbbbbbbbccccccbaaabccccc`ccbcccbabbcccbcccbcbbcbbcaaaababbbcbbaab",
"cbcabbccccccaabbbcbbbcbcbccc`cbccc`caaabcbaacbcbccbbbbcbaccccbbbbcbbcbccbbbbcbabcbccc`cbbcbccbaabcbccbbcbbbcbccccbbbabcbccccabbc",
"cbcbbbccccbababbccccbcbcbcccbaaacccabacbccabbcbccccbcccbbbbccccbabcbcbccaababbacbc`cbbababcbbbabcbcbccbbbbbcbcccbbcbccbcbcccabbc",
"ccbcbbcccbcaabcccbabcbcbcccbaaabbbbbabbcccabcbcbccaacccbacc`ccbbbbcbcbcbacbbcccccccccaabbccbcaabbcbcccbaabbcccccbbbcbbcbbcccbcc`",
"cbcbaabbbcbbbcbccbacbcbbbccbabcbcccbbcccccbccbcccbbbccbabbcccbcbbbbcbcbbbcbccccbcccbbabcbcbcbbbcbbcbccaacbccccccbcccccbcccccaabc",
"bcbabbbbbccbbcc`cbabcccccccabcbcbbccbccc`cbcccc`cabbccabbcbccbbbbbccccccbbcbcccccaaabacbcbbbcbbbcbcc`cabbccccbaabcccbbbbcccaabbb",
"ccbabbccbcbbcccccaabccbbbbbbbbcbccccbc`cbbbbbcccbbbcccbbcbbcccbbabcccccbccbbccccaabbbcbbbccbccbbccccccbbcc`cbaabbccbabcbccbbbbcb",
"ccbabcbbbcbbbccbaabcbcabccccccbbccccbbbcbaaaabbcbccccbbcbbccccbaabcccccbbbbcccccabbbccabcbbccbaabc`ccbccccccbabcbccaabbbcbbbbcbc",
"cccabbcccbcbccbabbbbcbccbcccbbcccccbabcbaabccbcbcbcccbbbccbcccaacbcccccccccbcc`bbbbcccbbcbcbcbabbbbbcbbcccbaabbbcccbacccbcbbcbcb",
"ccabbbbbbcbccccaaccbcbccbcccccccc`aabbbabbcbbcccbbabbbbcbbcbccabbcccbbbcbbccccccbcccccbbbcbcbbbcbcccbabbcaaabbacb`cabbbbccccbcbc",
"cbbbcc`cccbcccbbbbbcbccbabccbccccbabbccbabbcbcccbaabbcccccbcbcbccccabbcbcbcc`ccbbaacccbccbcccbcbcbbcbaabcabbcbbcbccbbbccbccbcbcc",
"cbbccccccbbbccbbbbcbcccbbbccccbcbcabccccacbcbcccbabbcccccbbbccccbcbabbbbbbacbcbaaabbbbbcccccbbcbcbccaacccabcbccbcccbbcccc`cabbcc",
"aacbc`cccabbbbbbbccccccbbbccccbaabacccccbbcbccccbbbccccbbbcccccbaabcbbccaaabbcbabbcbcccbcc`cabbcbccccbcccbbbccccccbbbcccccbbaccc",
"bbccccbbcabbcbbbcccccbabbcc`caabaabcc`ccbccccc`cbcbcccccbbbcc`cbabbbcbccabbcccaacbbcbccaaabbabbcccccbbcccaac`cccccbbbcccccbacbbb",
"bbcccaaacbbbbccbcccbabbcccccbbabccbccbcbcccc`cbcbbbcccbbcaaccccbabccbcccabcbccbabccbccbabbbaabbcc`ccccccabbcccccaabbccccbcbacbcc",
"bcccbabccbabcbbccccbabccccccaabcbbccccbcaabcbbcbbaaabbbcaaabccbbacbbbcccbcbc`cbacbbcccbbcbccbcccccbcbcccacbcccbaabbccccbbcbcbbcb",
"cbbcbbcbccbbbcbbcccbbccccccaabbbcbccccbaababccbcabbbbbcbabcbcbaaabcccbccccccccbabcbcccbbbccccbccbaabbcbbbbccccaabbccc`bbbbbcabbc",
"bccccaccccabcbccc`cbaaccccbaabcbcbbcccbbabcccbcbaacccbcccacccbbbbcccccbbbcccccbbbbcccccccc`ccccbbbbbcbcbbccc`abbcbbccbaaabbbabcb",
"cccccccccbabccccccbaabbccbcbbbccbcc`ccbabbccccbcabbbbbcccbcccbbbccccbbbcccbcbbcabcccccbbccccbcabbbcbccbcccccbaabcbcccbabbbbcbcbc",
"cc`cbbbbbbbbcccbcbaabcbcccbbcccccccccbcbcccccbcbabcbccccccc`cbaccccaabcccccbbcbbccc`cbbbabbbbbabbcbccccbbbabaabcbcbccabbcbcccccc",
"ccbabababcbccbabbbbacbcbccccbcccc`ccbcbbccc`ccbbabbcbcc`cbcbcbcccccbbbbcccaabbcbcccbbaaabbbccbabcbcbcccbbaaabbbbcbcccbbcbcbcccbc",
"aabaabbbcbcbbbbbccbbbcbccccbcabbbbcbbaaaabcbcbaabcccccccbacbcbcc`cbabccccbababcbbaabbabbbbccbcbbbcbcbbbcaacbbbccbccccacbbcbccbaa",
"ccbbcbcbbcbccccbcccbcbcbccccababccbcbabbcbbcbaabbc`ccccaaaaabbcbbbaabcc`aabcbcccaabbcbbbccbccbbccbcbcbccabbccbcccccccbbbcbc`cbab",
"bbbcbbcccbbccccccccbbcbc`ccbaabccccbaabcbcbcbabccccccbbabbcbbbcbbaabccccabcbcbccbbbccbccbbcccccbbbbbcbccacbcbbccbbbbbbcccccccaac",
"bccbcccccbcc`ccc`ccbcccccccbbbccccbaabcbcbcccbbcccccaaaabcbccccbaabbc`cbacbcbcccbbccccbbcbcc`bbcbaccbcbcccbcbcccaabbbccccc`cbabc",
"cbbcc`ccbbcccbcbbbaacc`ccbbbbcccccaabcbcbbbccccccccbabbbcbcbbccbbbcccccbacbbcbccabccccccccccccbbbabcbbcccbcbcccbbcbcccbcccbcbbbb",
"bcccccbaabccccbcbaabacbcbaaaabcccbbbcbcbbcc`cbbbbbaaabbcccbbcccbbbccccbbabccbccabbcccbcccc`cbbcccbcbcc`ccccccccbbbcbbbbbcbcbcbbc",
"ccccccbabcbccbbcaabbcccbaabcccbcccbbbbcbccccccaaabcbbccccbbcbbcbbbccccbaabbbbcbbcbccbcbccaaaccbbbcbbcccccbccccbabcbbccbccbcbbabc",
"c`cbbcbbbbcccababbcbcccaabcbbbccbbabccbccccccbabccbccccccbbbcbbbbabcccabbcccbbccbccccbcbaaccbaabbbaabcccbcababcbbcbcbbccccbbabab",
"cbaaabcbccccbabbbbcccccabbcbcccbaaaabbccc`ccbbacbbcbcc`cbacbcccbcbbccbaacbbbcccccc`baabbabbbcbbbbbabccccbaaabbbbccccccbcccbaabcc",
"cbabcccccccabbcbcccc`ccbacbcbcbbbbbbcccccccbcbabbcbcccccbabcbbbcbcccbaabccccbccbccbaabbcbbccbcbcccacbcccbabbcbbcccccccc`cbcabcbc",
"cbacbcccbcaabbcbccccaabbbbcbccccbccccbccbbbcbbbcccbcccbbbbbcbccbcbccbabbccbbbcbabbaacbccccbbcbcbccccccccaabcbbccbccccccbbbbbcbc`",
"cbabcbccbbabccbcbccaabbbcccccccbccccbbbbaccbcbcbcccbcabcccccccbbcbccbbccccbbcbcbcbbcbcbccbbbbcbcccccc`ccabcbccbcccbcbaaaabcbbccc",
"cabbbcbbcaabbbcbcccabbcccbcc`cbbcc`aabccbccbcbcbcccbbcccbbbccbbcbc`cbbbccccbbcbcbcbcbcccccbacbbbccccbbcbbbbcbbccccbbbabcbbbabccc",
"baacbcbccabbccbc`cbacbcccccbbbabbccabcbbccccbcbcccbacbcbaaabcabbccccbccc`cbbcbcbcbcccc`ccbcbccccbcbbccbcbbcbbcc`cccbaabbcccbbbcb",
"cabbbcbccbbccccccbbacccccbbcaabbccbabbbcbccbbbcbbbbacbcbbbcbcbbcccccbccccbcbbbbcbcccccccbcbbcccccbcccbbbcbcccccbabbbabccbbbcbccc",
"bbbccbccccbbccccaaabbc`cbcbcabbccccbbccbcbbbbcbcbbaabcbcccbcccccc`cbbbbcbcbcbacbccc`ccbaaabcbccbbbcccbbcbccccbabbbcbbbbbcbcbcccc",
"bbbbbccccbacbccabbbbccaaabcbbbbccccbbcccccbbcccbababbbcbbbcbccccccbaabbbcbcaaaccc`cbbbababbbcbbbbc`caaabbbbbaabbcbccaacbcccbbccc",
"cbccccc`caabcccabbccbcabbcccbccc`cbbcccccbcbcccaaabbccbcbcbcccbbcbaabbccbcbbabbccccccaabbcbccbabcccaabbbbabaabccbcccbacbcccbccbb",
"ccbcccbbbbbbcccbbcbbbcbcbccbbbccaabcbccccbbccccabcbcbccbcbccccbabcabbbcccbbabbccccbbbabbcbbccababcbabbbcbbbabbbbbcccabbcccabbbbc",
"ccbbababbcccccbabbcccccbccbaabaaabbbbbcbcbccc`aabbcbcccccccccaabccbbbcccbccbbccc`cbcbacbcbcccbbbccabbccbcbbcbccbcbc`bbccccacbccc",
"ccaaabbcbccbaabbcbbbccccccbccbbacbcbccbcbbbbaaabbcbcbc`cccc`abbcbcbccccbaabbcccccbcbcabcbcbccabcccbbbbbcbcbccccbcccccccccbbbcbbc",
"caabcbbccccabbcccccccccccbbbbcbbbcbccccbcaabbbbbbbcbcccaabcbabbcccbccabbbbccbbbbabbcbbbcbcccbabbccbbccbcccccccbbbcccbbcccbbbcbcc",
"cabcbbcccccbbbccccbccbbbbbbcccbbcbbccccbbabbcbccccccccaabbccbccc`cccaabbcccbaaabbccbbcccccccabccbccbccccccc`caabcbcbccbcbbbcbcbc",
"cbcbccbccccbbbcc`aabbabbcbcbbbbcbcccc`bcaabcbcbccccc`bbbbcccbccccccbbbbcbbcbabcbccccbbbcc`cabcbbcbcccccc`cccabbcbcbccbcbcbcccbcc",
"cabcbbcccbbbabccbabbcbccccbabcbcbbbcccbcbbbbcbcccccccaabcccccbcbcbbcbbbccbbcbbcbbcccaabcbbbbbbcbccccbcccbcbcaabbcbcbbabcbcbbcccc",
"cbcbbcccbabbaabbcbbcbcbcccabbbcbccb`cccbbabcbbccbaabcabbbcccbbaaabcbcbcccccbccbcc`caabbcbccbacbcbbcbcbcbcbcbbaccbcbccbbcbcbcbc`c",
"baaccccbbccaaccccbbccbccccaabcbcbcccccbbcbcbbcbcbbcccbbccccbbaabcccbbaabcccbcccccccabccccbbabcccbcbbccbcbcbbcbbbcbcbbbcccbbaabbb",
"aaccccabbbcbbcbccaacccccbbbbcbcbccccabbcbaabcbcbbcbcccbcccbbabbbcccbaaccccabcccbababcccccbaabbcbacbcccbbcbcbaabccccccbcccbababbb",
"abbccbabcbbcccccbbcccbbabccbbcbcccbabbbbcaabcbbcbccccccccaabbbbcbccbabbccbaaccaabbbbbaccbabbbbccbccccaabbcbaabccc`cbcc`cbaabbbcb",
"cbccccabbccbc`cabcbccaabcbcaabcccbabbbbccbbbbccbcccccbbbaabcbcbcc`cbbbcccbabbbbbbcbcbbbbcbabccccccccbbbccbcabbcccbbcccccabbbccbb",
"cccccbaccbbcccbbbbcccabcbcbabccccabcbccccbbbcbbbcc`ccccbbacbcbccccccabbccbbbcccbcbcbcbcccbaccbccbcccbaccccbbaccccbcbbbbcbabcbbcc",
"`bcccbbbbcbccccbbbbcbbcccbbcbcccbacbcbbcccbccccbcccbcbbcaacbcbcc`bbbaaccccbcccbcbcbcbcbcccbccccbbcbcbccccbcaacbcccbaaabcabcbcbcc",
"baaaabbbcbcc`cbaabcbcbcccbcbcbbccacbbcccccbcccbcbccbbcbbabbcbccccbaabbbbccccccbbcbccccccbaaccbbbcccbccccbaaaabcbccaabcbccbbcbccc",
"aaccbccabbccccbbabbcbcccbabcbbcccbbccbc`caabcbbcbcbbabaaabccccccaaabbbcc`cbccccccccccccbbbccbabccccaaaaaabcbbcbccbbacbcccbcccccc",
"bbbbbcbcbbcccaaabccbbcccaabcbcccccccccccaabbbcbcccbbbcabcbcccccbabbcbcccbababbbabc`ccccabbcccabcccaabbbbbccbccccbbbbbccccbccc`cb",
"accccbcccccccbabbbbcccccabcbccc`ccbcc`cbbbbcccbbabbccbbbbccccbaacccbcbccabbbbcbacccccbcbbccccbccccbabcbbcbbccccabcbbbbcccbbbcbcb",
"abbbbcccccc`bacccccccccbbbbccccccbccbbcbabcccccbabcbbccccc`ccabbbbbcbcbbbbcbcccbcccbbabbcccccccc`bbbcbcbcbcbccbbbcbbbcccbaabbcbb",
"cbccccccaabbaacbcccccccbabcc`cccbcbbbbbbbcbcccbbbbbcbccccccccbabbccbbccbcbcbccccccbaaaabccccbbcccbcbbccbbcbcc`bbcbcbcbbcbabbcbcb",
"bbcccccbaabaabcc`ccccccaabbbcbaabbbaaabccbcccccbbbbcbcc`ccccbbbbcbbccccbcbcbcccabcabaccbbcbaaaaaabbabcccccccccbcccbcbbcbbbcbccbc",
"aabcccaaccbcccccccaaaabbbcbccaabbbbabcccaaabbabcbcccccccbcbabcbcbccccccbbcbcbcbacbaacbbcccaaccbbbbaabbccccc`ccbcbabbccbcccbcccca",
"bbcccbabbbcbbccccabbbcbbbcccbcbbccabbbccabbcbccbabccc`cbcaaabbbcccc`ccbbccbbcbccccabbcbbccbbbbcbcbcbbcbcbccaaabbcbbcbbcccccc`cba",
"bbcccaabbcbcbc`cbaabcbcccccbbbccbbcbbcccabcbcbcbabcccbcbbabbbccbcccbcbbaabccbcccccbbcbcccbabbcbcbcbccbcbbbbbabbcbcbbbccccccccbba",
"ccccaabbccbcccccaabcbcbcbababcbbccccccccbbbcbcbbbbbccbbcbabbcccbcbcbcaaabcbccccccbbbbbcbbbbbccbbcbcccbcbccbabccccbbabcccbbccbcbb",
"bcccbbcccbccc`cbbbbcbbccbabbcbcbbcccccccacbbcbccccccbaabbbbcbbbbbcbcbabcbcccccbbcbbbccccccbccbcbbcccccbbcccbbbcccbaacbcaabbcbbbb",
"bccabbbcccc`cbbcbbbbcbcbcbbbccbccc`bababbbccccccbcc`ababbcbbccbbbcbbbaaccccccbaccbabccccbbccccbccbccbbbcccbabcccccbacbccbcccbaaa",
"cbcbbccc`cccbbaabbbcbcccbccccccccccaaabbbbccc`ccc`cbaabcccaabbccccaaaaccccbaacc`cabccccbbcccccccccbbbcccccbabbcccbbcccbcbcccaabb",
"bcccbccccbcbaabbbbbbcbccccccccc`cccabbccbabcccbccbccbbbcccabccbbccabcccccbabccbbbaccccbbcccccbccbabccccccbabccbbcbabcccccccbabcc",
"cbccaabccbbaabcbccbabcccccccaabbcbbbbcbbcbbccbcbbbaaabccc`abbbcbccacbccccabcbccaaacbaabcbbbabbcbbacbcccbcabcbbcccaabccccccbbbcbb",
"cccbabbbccbabbcbbccccc`cccbabbcbccbbccccbcbccbbcaaabbbc`ccbbcbcbccccbccccacbcccbabbbbbbcbaabbccbcbccc`baaabbcbbcbbbcccbcbbabbbcb",
"cccbabccccbabcbcccccccbbbbbacbcccbcbccccbbcbbbcbabbcbccccbcbcccccccbbccbbbccc`cacbcccbccbabcccccbbccccbabcccbccccbcbcbbbaabbcbcb",
"cc`abbbbccbbbbcbbcccbaabbcbbbccccbbbbbcbacbcbccbabcbcbccbcbbacccccbabbbbbcccccbbbcbbbbcccbbccccbababbcbbcccbccccccccbbabbacbcccc",
"`cbaabccbccbacbcbcbaaacbcccbccc`abaabcbaabcbcbcbbbbcbccccbbababcccabbccbccaabcbcbbccbcbcccccc`caaabbbbcccccccc`cccccbcbcccbccccc",
"bcbabcbbcccaabccbbccbbbccccccccaaaccbcbbbbcbccccbbbbcbcccbaacbccccabcbbcbbabcccbbbbbcbc`ccbccbbabcbcbccccbbbcbbbaabbacbccccc`ccc",
"bbcabcbcbccbacbccbbcccccccbbbcbbacbbbccbabbcbb`cbcccbcbcccbbbcccccacbbcbcccbcccbcbbcbccccbccccbabbcbcccbaaabbbcaabbbbcccccccbbbb",
"cbcabbcbcccbbbcccccccbabccbaabaabcbcccccbcccccccbbbbcbccccbbccccbaabbcbccccbcccbcbbbbcbcbbbbbbabbcbbcccbabbcbbaabbcbbcccccbaaabc",
"bcbbcccccccbacccccc`cabcbbbabbbbbbcbbcccbccccccbbaaccccc`bcccccbaabbcbcbcccccbbbbcbbcbccbabcbbaabbcccc`bacbcbbbacbcbcbbccbaabbcb",
"cbbcbccc`cbabcccbbcbaabcbcbcbcccbcbccc`bbccbabaacbbccc`cbbbbbbaabcbcbcbccccbbbbcccbabcccabccaabbbccccccbacbbcbcbbcbcbcbbcbabcbcc",
"caabbccccbaabbbbbbcbabcbcbcbccccbcbccccaabaabbcbccc`cbbababbababcbcbccbcccbaabbccbaabccbbbccbabcccccccbaabccbcbcbcbbcbbcccbbbccc",
"aabbccbcbbabccbcbccbbbbcbbccccccbabcccaabbabcbcbcccbcbaabbbaabbcbcbccccccbabbccccbabcbbbbcccbbbcccccbbabacbccccccbbcbbcbcbabbccc",
"bbcbcbabbcbbbbcbccccbbcbcccc`cccbabbcbbbbcbcbcbccccabaabcbcbcbcbcbccc`cccabbcbcccabcbcccccc`bcbcc`baaacbcccccc`cbbcbccccbbbccccc",
"acbcbbabbbbcbcbcbccccbbcbcccccbbbacccccbbccbcbcbccbacabcbcbcbcccbcbcccbcbacbcbccabbcbbbcccccbabcccbbbbbccccccbbcabbcc`bacbcbcccb",
"bccbcbbbbccbbbcbbc`cbcabcbccbbccbbcccccccccccbcc`cbccbbcbbcbcbccbbccccbabaccbcccabbcbcc`cccbaabccccabccccbbaabbbaaccccabcbcbcccc",
"cccbbbcccccbbccccccccbabbcccaabbbcccccbcc`cccccccccccbbbbcbbcbccacbcccbbabccbbcbacbcbcccbbbbabcbccabbccccbabbbbbabbcccabbbcbcccb",
"bbbaccbbbcccbbcc`ccbbcbbcccbbbbbcbaaaaabbbbbcccbaabcccbccbccbcccbcbcccaabcbaacbbcbcccccbaaccbbbcbbaabc`cbabcbcbcbbccccbbccbccccb",
"abbbbbcccccbaaabccbcbcbbccbbbbcccbbaccbccbbaabaabcccbabccbbbcbccccc`cabbbbcbbbcbbcccc`babcbcbccbcbccccbcaacbcbcccccc`cbbbbccccaa",
"cccbbcbbc`cbabccccbcbbaaaaabccbccbabbcbccaabcbabcbccaaabaaccbbccccccbaabccbcccbcc`cccbabcbcccbbbbcbbbccbbabcbcb`cccccbbaaccccabc",
"bccbcccccbbaacbccccbcaabbcbcbbbccbabcbbccbbbbccccbcbbbbcbbcbbcccccbcbbbcbbcbccccccccbbbcbcccbcaabcbccccaabbbcbcccccbbcaabcccbabb",
"ccccccccbababcccccaaaabccbcbcccccabcbccbccbccccabcbbbbccccbcbccccbbbbbbbcbbcbcccccbbccbbcccbbbbbcbcbcccabbccbcbccbaabbabcbccbbbc",
"ccccbcbaabbcccc`baabbbbccccccccccbbcbbccccbcccbbbbcbccccccccccc`aaabbbbcbcbcbbbccccbbbaaccaabbbabcbcccbbbcccbbcbcaabbcbcccc`bbcc",
"ccccbbaacbcbcccbbabbbbccc`cccc`ccaccccbbcbcc`cabcbcbcccccccccccbabbbbbcccbcbcbcccbbbcabababbbcbabbcbccbbcccbbbcccbbccccccccbbbcc",
"cccbbaabcbcbcccbabcbcccccccbbbbbccccccbcbcccbbacbcbcccccccbcccbaabcbcccccbbcbcbcbaaabaabcbcbcccbbcbbccccccccbbcccbbbcccbccbbabcc",
"cbcbababbcbccccbabbcbbcccbaaaabbbbbccbabccbaabbbbcbcccccbaabccbabcbcbcccbacbcbccbbbccbbcbccccccbbbccbccccccaabccccccccccbbaacccb",
"aaaaabcbcbccc`cabbcbccc`cbabbcbbcaaabbccbbcbbbccccccccbbaabbbbbbbcbbcccccbbbcbccbbcccccccccbccbbcbbbcc`bababbbcbbbcc`ccbcabbbccc",
"abbbbbbccccccccaabbbccccbbabcbbcbbbbccccbcbbccccccccbccbabbccccbbcbcc`cbbbccccccbbccccbc`cbabcbbcccc`cbababbbcbbbccbbbaaabaccccb",
"acbcccccccccccbabccccccccbabcbccbccbcccbabbcbbcccccccccbbbbcccbbbbbccccccbbcc`cccccccbbbbaabbcccccccccbabbcbcbbccccbcbaabbbbcccb",
"bbccccccbbcccbcbcbccc`bbbbbbbcbbcbbccccbaccbcccccbbbbcccbbcccccbabcccccbaaaabcbcbbaabbbbcbacbcccbbbbccbacbcccccbbccbbaacbcbaccbb",
"bccccaabbbbbcbbbbcc`cbaaabcbcbccbcbbcccbabbcbcccbaaaccbbccc`ccbbabbcccbaabbbbbcbcabbbbcbccbbccccbaabbbcbccc`cbccccaaaabbcbcbbbcb",
"ccc`bbacbcbccbbaabcbcaabcccbccccbcbcbcccbccbcc`caabcccccbccbccbaabccccbabbcbcccbcaacbcbcccccc`ccbbbbcccbccccccccbbbcccccbcbcbccc",
"cccbaabbcbccccaabcccbabbbcccccccabcbbccccccccccbabcbccbbcbbaabaabcccccbabcbcbcccbabbbcbcccbccbbbbacbccbabcccbcbbabcbbbcccbbcbcbb",
"bcbcbbbcbcbcccaccbcccbbcccccbccbacbccbccbaabccccbbbccbabbbabbbabcbccccbacbcbccccbbbccbcccccbbaaabccccbbbccbbcbbabcbccbccbbcbcbcc",
"cccbaabbcbbbccbbccccabbcc`ccbbaaacbbbc`baababbbbbccbbbbbcbabbcbbccc`babbbcbcbccaabbbcbbc`cbcabbbbcccbbcbbccbbccbbbcbbc`cbbbcbbbc",
"cccababcccccccbcccbbaacccccbbababccccccabbbcbcccbcbbcbcbcbabcccccccbaaabbbcbcbbbaacccbccbcbcaabcccbbbabcccccbaabbbbcccccbcccccbc",
"ccbaaccccccc`ccbbbbbccbcccbcaabccccc`caabcbcbccbcbaabbcbccbcccccccaabbcccbbcbcbcbcccbabbcccbbbbcccbaaacc`ccbababcccccbbabbcccccc"
};
