/* XPM */
static const char *wood_xpm[] = {
/* width height ncolors chars_per_pixel */
"100 100 4 1",
/* colors */
"` c #FFB241",
"a c #EBAA41",
"b c #FFBA59",
"c c #FFC365",
/* pixels */
"bca```bca``bcca```ba``bbbcca`````bca``bbcca```bbca``bbcca`bbbbca```bca`bbbcca``bcca`bbcca```bbca````",
"bcca``bca``bcca```ba``bbbcca``b``bcabbbbcca``bbbca`bbbccab``bbca```bba``bbcca`bbca`bbbbca``bbbca````",
"bccbbbbca``bcca```ba``bbbca`b`bb`bca``bbcca```bbca`bbbccab`bbbca`bbbba`bbbca``bbba``bbcaa``bbbca````",
"bccabbbca``bcca```ba``bbbca``bb``bca``bbcca```bbca``bbcca`bbbbca```bca``bbca``bbca``bbca```bbba`````",
"bcca`bbca``bcca```ba```bbba`bb`b`bca``bbcca``bbbca`b`bcca``bbbca```bca`b`bca``bbca```bca````bba`````",
"bccabbbcabbbcca```ba```bbca```b``ba```bbcca```bbca``bbcca```bbca``bbbab`bbca``bbbcabbbcaa```bba`````",
"bcca`bbca``bcca``bba``bbbba``b``bba```bbcca```bbca`bbbbcab`bbbca```bca``bbca``bbcca``bbca```bba`````",
"bcca`bcca`bbcca``bba```bbca``bb`bba`bb`bcca```bbba``bbbca``bbbca```bbb``bbca``bbbca`bbbcab`bbba`````",
"bcca`bccabbbbaa``bba```bbca``b``bba````bcca``bbbca`bbbbca``bbbca`bbbca``bbca```bbca``bbba`bbbba`````",
"bcca`bcca`bbca``bbca```bbca`````bba``bbbcca```bbba`bbbbca`b`bcca``bbcabb`bba```bbccabbbca``bbba````b",
"bcca`bcaa`bbca``bba````bbca``bbbbba``bbbcca```bbba``bbbca``bbcca```bca``bbcca`bbbcca``bca`bbbba````b",
"bcca`bca``bbca`bbba````bbca``bbbbba`bbbbcca````bba`bbbbca```bcca```bba```bccaa`bbcccabbca``bbba````b",
"bcca`bca``bbca``bbb```bbbca```b`bba`bbbbcca```bbba``bbbca`bbbcca```bba```bccaa`bbbccabbca`bbbba``b`b",
"bcca`bca```bca```ba``b`bbca```bbbca```bccca```bbca``bbbca``bbcca```bca```bcca`b`bcccabbca``bbca````b",
"bcca`bca```bca``bba``b`bbca``b`bbca```bccca``bbbca``bbbcabbbbcca``bbba```bcca```bbccabbba``bbca````b",
"bcca`bca```bca`b`ca`bb`bbca``bbbbca```bccca```bbca```bbca``bbcca``bbca```bbca```bccca`bba``bbca````b",
"bcca`bca```bca```cc`bbbbbca``bbbbca``bbccca```bbca``bbbca`bbbcca```bba```bbca``bbccca``ba``bbca````b",
"bcca`bca```bca```ccbbb`bbca`bb`bbca``bbccca```bbca``bbbca`bbbcca``bbcaa`b`bca``bbccaa``ba``bbba````b",
"bcca`bca```bca```ca`bb`bbca``bbbbca``bbccca`bbbbca``bbbca``bbcca``bbbcabbbbca``bbcca```ba`bbbca```bb",
"bcca`bca```bca```ba``b`bbca``b`bbca``bbccca```bbca``bbbca```bcca``bbcca```bca``bbcca``bba`bbbca``bbb",
"bccb`bca```bca``cbabbbbbbca``bbbbca`bbbccca```bbca``bbbca`bbbcca`bbbcca``bbca``bbcca``bbb``bbca``bbb",
"bcbb`bca```baa``cca`bb`bbca````bcca`b`bccca``bbbca``bbbca`bbbcca``bbcca``bbca``bbcca```ba```bca````b",
"bccabbca```ba```cba``bbbcca``bbbcca```bccca```bbca``bbbca`bbbcca```bbca``bbca``bbbca``bbb```bca```bb",
"bccb`bca```ba```cba`b`bbcca``b`bcca``bbccaa```bbca``bbbca```bcca``bbcca`bbbca``bbcca``bba```bca```bb",
"bccabbca```ba`cbcba```bbcca``bbbcca``bbcca```bbbca``bbbca```bcca```bcca``bbca```bcca``bba```bca```bb",
"bcca`bca```ba``cbca```bbcca```bbcca```bcca``b`bbca`bbbbca``bbbca``bbbca``bbca```bcca``bba```bca```bb",
"bcca`bca```ba``bcca```bbcca```bbcca`b`bcca```bbbca`bbbbca```bcca`b`bbca``bbca``bbbca``bba`b`bca````b",
"bcca`bca``bba```cca```bbcca```bbcca``bbcca``b`bbca```bbca```bcca``bbbca`b`bca```bcca``bbcbbbbca````b",
"bcca`bcb`bbba``cca````bbca````bbcca``bbcca``b`bcca``bbbca```bcca```bbca``bbca``bbcca``bbcabbbca````b",
"bca``bcab`bba```ca`bbbbbca````bbcca``bccca``b`bcca`bbbbca`b`bbca```bbca```bca``bbcca``bbca`bbca````b",
"bca``bcabbbca`c`ca``bbbba`````bbcab``bccca`bb`bcca``bbbca``bbbca```bbca`bbbca```bccaa``bba`bbca```bb",
"bca``bcabbbca```cc``bbbba``bbbbcca`bbbccca``b`bccab`bbbca``bbbca``bbbca`bbbca```bccca`bbcb`bbca```bb",
"bca``bcab`bca```ba```bbcac``b`bcca```bccca`bb`bccab`bbbca```bbca``bbbca``bbca```bbcca``bbab`bca``bbb",
"bca``bcabbbca```ba``bbcca```bbbcca``bbccca`bb`bcca``bbbca```bbca```bbca`bbbca```bbcca``bca``bca```bb",
"cca``bca``bca```ba````bba```b`bcca``bbccca````bcca`b`bbca```bbca```bbca`bbbca``bbbcca``bca``bca```bb",
"cca``bcab`bca```ba``bbbba``bb`bcca`bbbccca`bb`bcca`bbbbca```bbca``bbbba``bbca```bbbca``bca``bca``bbb",
"cca``bcabbbca``bba```bbba```b`bcca`b`bccca``b`bcca``bbcca```bbca``bbbca``bbca````bbca``bba``bca```bb",
"cca``bcab`bca``bba```bbba```bbbcca`bbbccca``bbbcca``bbccca`b`bcca`bbbca``bbca````bbca``bca``bca```bb",
"ccca`bcbb`bca``bca````bca```b`bcaa```bccca``b`bbca``bbccca``bbcca``bbca`bbbca````bcca``bca``bca```bb",
"ccca`baab`bca`bbca```ccca``bb`bca``bbbccca```bbccab`bbccca`bbbcca`bbbba`b`bca``b`bbca``bca``bca```bb",
"ccca`ba```bcabbbca````bca```b`bca``b`bccca``bbbcca``bbccca``bbcca`bbbca`bbbcaa```bcca``bca``bca```bb",
"ccca`ba```bcabbbca````bca```bbbca``bbbccca```bbcca``bbccca```bcca`bbbca``bbcca``bbcca`bbba``bba``bbb",
"ccca`ba```bca``bca````bca```bbbca``bbbccca``b`bccab`bbccca``bbbca``bbcaa``bcca```bcca``bba``bba```bb",
"ccca`ba```bca`bbca````bca```bbbca```bbbcca````bca``bbbccca``bbcca``bbcca`bbbcaa`bbcca``bba`bbba```bb",
"cca``ba```bca``bca`bb`bca````bcca``b`bccca`bbbbca```bbccca``bbcca`bbbcca`bbbcca``bbca`bbba``bba```bb",
"cca``ba```bca``bca`bbbbca````bcca```bbccca``b`bca```bbccca``bbcca``bbcca``bbcca`bbcca```ba``bbb```bb",
"ccabbba```bca``bcab`bbbca````bcca``bbbccca``b`bca``bbbccca`bbbcca`bbbcca`bbbccabbbccac`cba``bba```bb",
"bcabbba```bca``bca``bbbca````bcca`bbbbccca``b`bca```bbccca``bbcca``bbcca```bccabbbbca`bcba```ba```bb",
"ba`b`ba```bca``bca``bbbca`bb`bcca``bbbccca``bbbca```bbccca``bbcca`bbbcca``bbcca`bbcca``bca``bba```bb",
"babb`ba``bbca``bca```bbca``b`bcca```bcccca``bbbca```bbccca``bbcca``bbcca``bbcca`bbbca`ccba```ba```bb",
"ba`b`ba```bca``bca```bbca`bb`bcca``bbbccca```bbba```bbccca``bbbca``bbbca``bbcca``bbba`bbba`bbba``bbb",
"ba`b`ba`bbbca``bca```bbca``b`bcca`bbbcccca```bcca``bbbbcca``bbcca`b`bbca`bbbcca``bbca``cba``bba``bbb",
"baab`ba`bbbca``bca```bcca``b`bcca`bbbbccca```bcca``bbbccca```bcca``bbbca`bbbbca``bbba`bcba`bbba``bbb",
"bcab`ba``bbca``bca``bbcca````bcca``bbbccca```bcca`bbbbccca``bbcca`bb`bca``bbcca``bbca``cba`bbba```bb",
"bcb``ba``bbca``bca``bbcca``b`bcca`b`bcccca```bbba``bbbccca`b`bcca`bbbbca``bbcca``bbca``cba``bba`bbbb",
"bcab`ba``bbca``bca`bbbcca`bbbbcca``bbcccca```bbca`bbbbccca```bcca``bbbca```bbca`bbbca``bba``cca````b",
"bca`bba`bbbca``bca``bbcca````bbca``bbcccca```bbca`bbbbccca```bbcb````bca`bbbbca`bbbca`bbba``cba````b",
"bca``ba```bca`bbca``bbcca``b`bbca``bbcccca```bbca``bbcccca```bbba`bbbbca``bbbca``bbca``bba`ccba````b",
"cca``ba``bbcabbbba``bbcca`````bca``bbbccca``bbbca`bbbcccca```bbca`bb`bca``bbbca`bbbca``bba``cca````b",
"cca``ba``bbca`bbca`bbbbca`bb``bca`bbbbccca```bbca```bcccca```bbca``b`bca``b`bca`bbbca```ba``cba```bb",
"cca``ba``bbcb`bbca``bbbca``bb`bca``bbbccca``bbbca``bbcccca```bbca````bca`bb`bcabbbbca``bba`ccba``bbb",
"cca``ba``bcca``bca`bbbbca`````bca``bbbccca```bbca`bbbcccca```bbba````bcab`b`bca```bca`ccba``bbb````b",
"cca``ba``bcca``bca``bbbca```b`bca````bccca``bbbca``bbcccca```bbca```bbca``b`bca`bbbca``cca`bbba```bb",
"cca``ba``bcca``bca``bbbca``b``bca`bbbbccca``bbbca`bbbcccca`bbbbca```bbca`bb`bca`bbbca`bcba```ba````b",
"cca``ba``bcca``bccabbbbcaa````bca```bbccca`bbbbca```bbccca```bbca``bbcca`bb`bca``bbca`ccba``bba``bbb",
"cca``ba``bcca``bcca`bbbcca````bca```bbccca`b`bbca`bbbbbcca`b`bbba``bbcca``bbbca``bbca`bcba`bbba``bbb",
"cca``ba``bcca``bcca`bbbccca``bbca``bbbccca```bbca``bbbccca```bbca`bbbbca```bbca`bbbca``bca``bba``bbb",
"cca``ba``bcca``bbca`b`bccca``bbcca```bccca`b`bbca`bbbbccca```bbca``bbca```bbbca``bbca``cba```cc````b",
"cca``ba``bbca``bbca```bccca``bbcca``bbccca`bbbbca``bbbbcca```bcca`bbbca```bbbba`bbbca``bba```cc````b",
"cca``ba``bbca``bbca```bccca`bbbcca``bbccca```bbca```bbccca```bcca``bbca```b`bca``bbca``bba```cc````b",
"cca``ba```bca```bca```bccca``bbbca```bccca`bbbbca```bbbcca``bbbca``bbca````bbca`bbbca``bba```ba````b",
"cca``ba```bca```bca```bbcca```bcca```bccca`bbbbca```bbbcca```bcca``bbca````bbca``bbca`bbba``cca````b",
"cca``ba```bca``bbca```bbccabbbbbca`bbbccca`bbbbca```bbccca```bbba``bbca```bbbca``bbca`bbba`bbca```bb",
"cca``ba```bca``bbca```bbcca```bbca``bbccca``bbbca````bccca```bbca`bbbca````bbca```bca``bba`bbca````b",
"bca``baa``bca```bca```bbcca`bb`bca``bbccca```bbcca```bccca`b`bbca``bbca````bbca`b`bba``bca`bbba````b",
"bca``bcab`bca``bbca````bcca````bca```bccca```bbcca``bbccca``bbcca``bbca````bbca`bbbca``bcabbbba````b",
"bca``bbab`bca```bca````bcca``bbbca```bccca````bcca```bccca```bcca`bbbca```bbbcabbbbca``bba```ba````b",
"bca``bcabbbcca`bbca````bcca`bb`bca``bbccca``bbbcca```bccca```bcca```bca````bcca``bbca`bbca```ba````b",
"bcaa`bcb``bcca```ba````bcca``b`bca`bbbccca``bbbcca```bccca```bbca```bca````bcca`bbbca`bba````ba````b",
"bcca`bba``bcca```ba````bcca`bb`bca`b`bccca```bbcca```bccca``bbbca```bca````bbca`b`bca`bca```bba````b",
"bcca`bba``bccca``ba``bbbcca```bbca``bbccca```bbcca`bbbccca``bbbca```bca````bbca`bbbca`bca```bba````b",
"bcca``ba``bccca``ba`bbbbcca``bbbca`bbbcccca`bbbcca``bbccaa```bcca```bca````bcca`b`bca`ba```bbbb```bb",
"bcca``ba``bcccabbba`b``bcca````bca``bbcccca``bbcca```bcca````bcca```bca```bbcca`bbbca`ba````bba````b",
"bcca``ba`bbbcca``ba`b``bcca`bb`bca`bbbbccca``bbcca``bbcca````bcca```bca```bbccabbbbca`ba````bba````b",
"bcca``ba`bbbcca`bba``b`bcca`bbbbca``bbbccca`bbbcca`bbbcca````bbba`bbbca``b`bcca`bbcca`ba````bba````b",
"bcca``ba``bbcca``babbb`bcca``b`bca```bbccca``bbcca``bbcca```bbccab`bbca```bbcca`bbcca`ba```bbca````b",
"bcca`bba`bbbccabbba````bcca``b`bca``bbbccca``bbcca``bbcca```bbcca`bbbca```bbccabbbbca`ba``b`bca````b",
"bcca``ba```bcca``bcabb`bcca````bca``bbbccca``bbcca```bbca``bbbcca`bbbca```bbccabbbcca`ba``b`bca```bb",
"bcca`bba```bcca``bcabbbbcca````bca``bbbccca``bbcca`bbbcca``bbbcca`bbcca``bbccca`bbbca`ba`bb`bcca```b",
"bccabbba```bcca``bca`b`bcca````bcaa```bbcca``bbcca``bbcca``bbbba```bcca``bbccaa``bcca`ba`bbbbcca``bb",
"bcca`bbca``bcca``bca`b`bbca``b`bcca``bbcccab`bbcca`bbbcca`bbbbca```bbca`bbbcca``bbcca`ba`b``bcca``bb",
"bcca`bbca``bcca``bca``bbbca``b`bcca```bccca``bbbca```bcca``bbbca```bcca``bbcca`b`bca``ba````bcca``bb",
"bcca``bca``bcca``bba`b``bca```b`bca```bcbca`bbbbca```bcca```bbca```bcca``bbbcabbbbca``ba```bbcca``bb",
"bcca``bca``bcca``bbab`b`bca``bb`bca``bbccca``bbbca``bbcca```bcca```bcca``bbcca`bbbca``baa`b`bcca``b`",
"bcca``bca``bcca```ba`bb`bcaa```bbca``bbbcca``b`bca`bbbbca```bbca```bbca``bbccabbbbca``bca``bbcca`bb`",
"bcca``bca``bcca``bba``bbbcca``bbbca`b`bbcca``bbbca``bbcca```bcca`bbbbca`bbbcca`bbcca`bbca``bbcca``b`",
"bcca``bca``bcca```ba``b`bcca``bbbca`bbbccca``b`bca``bbbca``bbcca``bbcca`bbbcca`bbcaa`bbca`bbbcca````",
"bcca``bca``bcca```ba``b`bcca````bca```bbcca````bca``bbcca``bbcca```bcaa`bbbcaa``bca`bbbca``bbcca````",
"bcaa``bca``bcca``bba````bcca````bca```bccca`bbbbca``bbcca``bbcca```bca```bbca``bbca`bbcca``bbcca```b",
"bca```bca``bcca```ba``b`bbca````bca```bbcca`b`bbca```bbca`bbbcca```bca``bbcca``bbca``bcca```bcca```b"
};
