/* XPM */
static const char *param[] = {
/* columns rows colors chars-per-pixel */
"10 14 2 1",
"  c black",
". c gray100",
/* pixels */
"...   ... ",
"...   ... ",
"...   ... ",
"   ...   .",
"   ...   .",
"   ...   .",
"...   ... ",
"...   ... ",
"...   ... ",
"   ...   .",
"   ...   .",
"   ...   .",
"...   ... ",
"...   ... "
};
