/* XPM */
static char *ball_pink_xpm[] = {
/* width height ncolors chars_per_pixel */
"21 31 113 2",
/* colors */
"`` c #000000",
"`a c #000008",
"`b c #E773E7",
"`c c #FFFFFF",
"`d c #C663C6",
"`e c #181810",
"`f c #181818",
"`g c #9C5AA5",
"`h c #8C3184",
"`i c #8C318C",
"`j c #FFC6FF",
"`k c #6B216B",
"`l c #523952",
"`m c #AD42A5",
"`n c #AD42AD",
"`o c #312921",
"`p c #312931",
"`q c #843184",
"`r c #F7C6F7",
"`s c #D67BDE",
"`t c #632163",
"`u c #A5429C",
"`v c #A542A5",
"`w c #292921",
"`x c #292929",
"`y c #391839",
"`z c #7B3973",
"a` c #180818",
"aa c #FFB5FF",
"ab c #BD5ABD",
"ac c #9C4A9C",
"ad c #100808",
"ae c #100810",
"af c #E78CE7",
"ag c #E78CEF",
"ah c #B55AB5",
"ai c #291829",
"aj c #080800",
"ak c #D66BD6",
"al c #080808",
"am c #4A2942",
"an c #AD5AAD",
"ao c #CEA5CE",
"ap c #4A2952",
"aq c #211818",
"ar c #8C4A8C",
"as c #DE94E7",
"at c #63395A",
"au c #CE6BCE",
"av c #000808",
"aw c #9C399C",
"ax c #42294A",
"ay c #7B297B",
"az c #E77BE7",
"b` c #521852",
"ba c #943994",
"bb c #732973",
"bc c #B54AAD",
"bd c #4A184A",
"be c #B54AB5",
"bf c #393129",
"bg c #8C398C",
"bh c #FFCEFF",
"bi c #CE5AC6",
"bj c #6B296B",
"bk c #5A425A",
"bl c #421842",
"bm c #AD4AAD",
"bn c #210821",
"bo c #DE84CE",
"bp c #C65ABD",
"bq c #C65AC6",
"br c #632963",
"bs c #A54AA5",
"bt c #F794F7",
"bu c #5A6B52",
"bv c #AD73AD",
"bw c #181010",
"bx c #181018",
"by c #EF94EF",
"bz c #101008",
"c` c #DE73DE",
"ca c #101010",
"cb c #E794E7",
"cc c #94528C",
"cd c #945294",
"ce c #D673D6",
"cf c #292121",
"cg c #6B426B",
"ch c #CE73D6",
"ci c #391039",
"cj c #423139",
"ck c #7B317B",
"cl c #212118",
"cm c #212121",
"cn c #BD52B5",
"co c #BD52BD",
"cp c #5A215A",
"cq c #311031",
"cr c #9C429C",
"cs c #F7ADF7",
"ct c #B552B5",
"cu c #FFD6FF",
"cv c #D663CE",
"cw c #080000",
"cx c #6B316B",
"cy c #D663D6",
"cz c #080008",
"d` c #AD52AD",
"da c #4A214A",
"db c #211021",
"dc c #CE63C6",
"dd c #CE63CE",
/* pixels */
"``````````````````````````````````````````",
"``````````````````````````````````````````",
"````````cwajcwajcwaj``````````````````````",
"````````cwalalalajalalal``av``````````````",
"````cwalajalbzadalaladalal````````````````",
"ajajalaladcabzbwcabwcabzbzalalal``````````",
"alaladbzca`ebx`e`e`f`ebwbwcaalal``````````",
"aladbzbw`eaqcmdbcfcfcm`f`ebwbzalal`a``````",
"alcabw`fbu`o`w`x`w`x`wcfcm`fcaadalal``````",
"adcabwcl`obfcjcgccanahac`zamdbcaal``al````",
"bzbw`fcm`xbk`gchchau`dabanbscxaiadal`a````",
"ca`eaqcf`lan`sascbasceauabd`crcxaialal````",
"bz`fcl`pcdceas`rcubhasce`dbcacbgb`alav````",
"cabwcmatdcceafbh`cbhagce`dctbsbgbbdbal````",
"bz`fcfarddc`byaa`jcsafc`bict`vbgbb`yal````",
"cabwclbs`dakazbybtcs`bak`dcncrbgbbbl``av``",
"alca`ebmcoddak`bazc`ceddabbccr`qbjaxcz````",
"alae`ebactcoddcvcycybodccn`vback`tcq``````",
"alalcacx`mbecobqbqbpbpcn`mcr`hbbb`a```````",
"``alalblcr`v`n`nbebebm`vao`hckcp`yal``````",
"``alalaecpbaba`vaw`ubabgbvck`tbda`````````",
"````alaldb`t`q`q`i`i`qaycxbrapa```````````",
"``````alaldbbdbjbjbj`k`tb`daaq````````````",
"``````````avalbnciblblcqbxal``````````````",
"````````````av````````````````````````````",
"``````````````````````````````````````````",
"``````````````````````````````````````````",
"``````````````````````````````````````````",
"``````````````````````````````````````````",
"``````````````````````````````````````````",
"``````````````````````````````````````````"
};
