/* XPM */
static const char *diff_QP_xpm[] = {
/* width height ncolors chars_per_pixel */
"32 32 27 1",
/* colors */
"  c #000000",
". c #9898E7",
"X c #9191EA",
"o c #F66666",
"O c #5A5AF9",
"+ c #D6AFAF",
"@ c #DBAAAA",
"# c #E39E9E",
"$ c #FB4C4C",
"% c #A4A4E0",
"& c #E0A4A4",
"* c #FF0000",
"= c #F27A7A",
"- c #3838FD",
"; c #AFAFD6",
": c #AAAADB",
"> c #9E9EE3",
", c #808080",
"< c #7070F4",
"1 c None",
"2 c #4C4CFB",
"3 c #E79898",
"4 c #EA9191",
"5 c #ED8A8A",
"6 c #F95A5A",
"7 c #0000FF",
"8 c None",
/* pixels */
"11111111111111111111111111111111",
"11111111111111111111111111111111",
"11111111111111111111111111111111",
"11111111111111111111111111111111",
"11111111111111111111111111111111",
"11111111111111111111111111111111",
"11111111111111111111111111111111",
"11111111111111111111111111111111",
"11146*65111111111111111111111111",
"1+66#1#66@111111111111777777-<:1",
"16$11111$61111111111111:7711%O7>",
"5*3111114*5111111111111177111:72",
"6*+11111@*61  ,11111111177111177",
"**1111111**11  ,1111111177111177",
"**1111111**111  ,111111177111;72",
"**1111111**1111  ,11111177.1;O7X",
"$*+111111*611111  ,1111177777O.1",
"=*3111113*5111111  ,111177111111",
"+*$11111$611111111  ,11177111111",
"13*6#1#661111111111  11177111111",
"11&o**$4111111111111111177111111",
"11113**1111111111111111;77:11111",
"111113**611111111111117777771111",
"111111336*1111111111111111111111",
"11111111111111111111111111111111",
"11111111111111111111111111111111",
"11111111111111111111111111111111",
"11111111111111111111111111111111",
"11111111111111111111111111111111",
"11111111111111111111111111111111",
"11111111111111111111111111111111",
"11111111111111111111111111111111"
};
