<?xml version="1.0" encoding="UTF-8" standalone="no"?>
<!DOCTYPE svg PUBLIC "-//W3C//DTD SVG 1.1//EN" "http://www.w3.org/Graphics/SVG/1.1/DTD/svg11.dtd">
<!-- 由 Microsoft Visio, SVG Export 生成 workflow.svg Page-1 -->
<svg xmlns="http://www.w3.org/2000/svg" xmlns:xlink="http://www.w3.org/1999/xlink" xmlns:ev="http://www.w3.org/2001/xml-events"
		width="3.826in" height="3.93434in" viewBox="0 0 275.472 283.272" xml:space="preserve" color-interpolation-filters="sRGB"
		class="st12">
	<style type="text/css">
	<![CDATA[
		.st1 {stroke:#000000;stroke-width:1}
		.st2 {fill:#000000;font-family:Calibri;font-size:1.00001em;font-weight:bold}
		.st3 {fill:none;stroke:#000000;stroke-width:0.75}
		.st4 {font-size:1em}
		.st5 {visibility:visible}
		.st6 {fill:none;filter:url(#filter_2);stroke:#5b9bd5;stroke-opacity:0.22}
		.st7 {fill:#5b9bd5;filter:url(#filter_2);font-family:Calibri;font-size:1.00001em;font-weight:bold;opacity:0.219608}
		.st8 {fill:none;stroke:#000000;stroke-width:0.25}
		.st9 {marker-end:url(#mrkr4-36);stroke:#000000;stroke-linecap:round;stroke-linejoin:round;stroke-width:1}
		.st10 {fill:#000000;fill-opacity:1;stroke:#000000;stroke-opacity:1;stroke-width:0.28409090909091}
		.st11 {fill:none;stroke:none;stroke-width:0.25}
		.st12 {fill:none;fill-rule:evenodd;font-size:12px;overflow:visible;stroke-linecap:square;stroke-miterlimit:3}
	]]>
	</style>

	<defs id="Markers">
		<g id="lend4">
			<path d="M 2 1 L 0 0 L 2 -1 L 2 1 " style="stroke:none"/>
		</g>
		<marker id="mrkr4-36" class="st10" refX="-7.04" orient="auto" markerUnits="strokeWidth" overflow="visible">
			<use xlink:href="#lend4" transform="scale(-3.52,-3.52) "/>
		</marker>
	</defs>
	<defs id="Filters">
		<filter id="filter_2">
			<feGaussianBlur stdDeviation="2"/>
		</filter>
	</defs>
	<g>
		<title>页-1</title>
		<g id="group37-1" transform="translate(27.3932,-18.75)">
			<title>工作表.37</title>
			<g id="shape34-2" transform="translate(-120.28,53.8701) rotate(-90) scale(-1,1)">
				<title>侧边大括号</title>
				<desc>seeding</desc>
				<path d="M0 276.19 A7.0865 7.0865 -180 0 0 7.09 283.27 L58.46 283.27 A7.0865 7.0865 0 0 1 65.55 290.36 A7.0865 7.0865
							 0 0 1 72.64 283.27 L124.02 283.27 A7.0865 7.0865 -180 0 0 131.1 276.19" class="st1"/>
				<text x="301.17" y="69.15" transform="rotate(-90) scale(-1,1)" class="st2">seeding</text>			</g>
			<g id="shape1-6" transform="translate(36.3963,-208.189)">
				<title>圆角矩形</title>
				<desc>start #proxies = 1</desc>
				<path d="M18.79 283.27 L82.49 283.27 A18.7913 18.7913 -180 0 0 101.28 264.48 A18.7913 18.7913 -180 0 0 82.49 245.69
							 L18.79 245.69 A18.7913 18.7913 -180 0 0 0 264.48 A18.7913 18.7913 -180 0 0 18.79 283.27 Z" class="st3"/>
				<text x="38.99" y="260.88" class="st2">start <tspan x="20.69" dy="1.2em" class="st4">#</tspan>proxies = 1</text>			</g>
			<g id="shape2-10" transform="translate(55.3857,-5.68434E-014)">
				<title>圆角矩形.2</title>
				<desc>end</desc>
				<path d="M9.34 283.27 L53.96 283.27 A9.33629 9.33629 -180 0 0 63.3 273.94 A9.33629 9.33629 -180 0 0 53.96 264.6 L9.34
							 264.6 A9.33629 9.33629 -180 0 0 0 273.94 A9.33629 9.33629 -180 0 0 9.34 283.27 Z" class="st3"/>
				<text x="22.19" y="277.54" class="st2">end</text>			</g>
			<g id="shape4-13" transform="translate(23.7367,-149.55)">
				<title>矩形</title>
				<desc>add proxy seeds #proxies += k</desc>
				<g id="shadow4-14" transform="matrix(1,0,0,1,0.345598,1.97279)" class="st5">
					<rect x="0" y="245.689" width="126.596" height="37.5831" class="st6"/>
					<text x="22.96" y="260.88" class="st7">add proxy seeds <tspan x="30.52" dy="1.2em" class="st4">#</tspan>proxies += k</text>				</g>
				<rect x="0" y="245.689" width="126.596" height="37.5831" class="st8"/>
				<text x="22.96" y="260.88" class="st2">add proxy seeds <tspan x="30.52" dy="1.2em" class="st4">#</tspan>proxies += k</text>			</g>
			<g id="shape6-23" transform="translate(42.7261,-84.8192)">
				<title>菱形</title>
				<desc>stop criteria</desc>
				<g id="shadow6-24" transform="matrix(1,0,0,1,0.345598,1.97279)" class="st5">
					<path d="M44.31 283.27 L88.62 268.54 L44.31 253.81 L0 268.54 L44.31 283.27 Z" class="st6"/>
					<text x="14.25" y="272.14" class="st7">stop criteria</text>				</g>
				<path d="M44.31 283.27 L88.62 268.54 L44.31 253.81 L0 268.54 L44.31 283.27 Z" class="st8"/>
				<text x="14.25" y="272.14" class="st2">stop criteria</text>			</g>
			<g id="shape11-31" transform="translate(79.948,-208.189)">
				<title>动态连接线</title>
				<path d="M7.09 283.27 L7.09 297.29" class="st9"/>
			</g>
			<g id="shape13-37" transform="translate(79.948,-149.55)">
				<title>动态连接线.13</title>
				<path d="M7.09 283.27 L7.09 311.5" class="st9"/>
			</g>
			<g id="shape15-42" transform="translate(79.948,-84.8192)">
				<title>动态连接线.15</title>
				<path d="M7.09 283.27 L7.09 299.97" class="st9"/>
			</g>
			<g id="shape17-47" transform="translate(42.7261,-99.5492)">
				<title>动态连接线.17</title>
				<path d="M0 283.27 L-29.62 283.27 L-29.62 214.48 L-26.03 214.48" class="st9"/>
			</g>
			<g id="shape19-52" transform="translate(68.0453,-65.5139)">
				<title>工作表.19</title>
				<desc>yes</desc>
				<rect x="0" y="260.942" width="63.2979" height="22.3301" class="st11"/>
				<text x="23.39" y="275.71" class="st2">yes</text>			</g>
			<g id="shape20-55" transform="translate(1.47882E-013,-83.0967)">
				<title>工作表.20</title>
				<desc>no</desc>
				<rect x="0" y="260.942" width="56.1769" height="22.3301" class="st11"/>
				<text x="21.64" y="275.71" class="st2">no</text>			</g>
			<g id="shape22-58" transform="translate(72.0122,-124.064)">
				<title>工作表.22</title>
				<desc>relaxation</desc>
				<rect x="0" y="260.942" width="90.98" height="22.3301" class="st11"/>
				<text x="20.18" y="275.71" class="st2">relaxation</text>			</g>
			<g id="shape27-61" transform="translate(30.0665,-42.4096)">
				<title>矩形.27</title>
				<desc>clustering iteration</desc>
				<g id="shadow27-62" transform="matrix(1,0,0,1,0.345598,1.97279)" class="st5">
					<rect x="0" y="264.599" width="113.936" height="18.6729" class="st6"/>
					<text x="9.57" y="277.54" class="st7">clustering iteration</text>				</g>
				<rect x="0" y="264.599" width="113.936" height="18.6729" class="st8"/>
				<text x="9.57" y="277.54" class="st2">clustering iteration</text>			</g>
			<g id="shape28-69" transform="translate(79.948,-42.4096)">
				<title>动态连接线.28</title>
				<path d="M7.09 283.27 L7.09 299.97" class="st9"/>
			</g>
			<g id="shape36-74" transform="translate(-120.28,198.791) rotate(-90) scale(-1,1)">
				<title>侧边大括号.36</title>
				<desc>clustering</desc>
				<path d="M0 276.19 A7.0865 7.0865 -180 0 0 7.09 283.27 L19.84 283.27 A7.0865 7.0865 0 0 1 26.93 290.36 A7.0865 7.0865
							 0 0 1 34.02 283.27 L51.02 283.27 A7.0865 7.0865 -180 0 0 58.11 276.19" class="st1"/>
				<text x="295.99" y="30.53" transform="rotate(-90) scale(-1,1)" class="st2">clustering</text>			</g>
		</g>
	</g>
</svg>
