/* XPM */
static const char *draw_xpm[] = {
/* width height ncolors chars_per_pixel */
"32 32 7 1",
/* colors */
"` c #000000",
"a c #0000FF",
"b c #FFFFFF",
"c c #00FFFF",
"d c #999999",
"e c #CCCCCC",
"f c None",
/* pixels */
"fffffffffddebeefffffffffffffffff",
"fffffffff`debeeeddd``fffffffffff",
"fffffffffddebbeeddd````fffffffff",
"fffffffff`debeeedd````dfffffffff",
"fffffffffddebbeeddd````fffffffff",
"fffffffff`debeeedd````dfffffffff",
"fffffffffddebeeeddd````fffffffff",
"fffffffff`debbeedd````dfffffffff",
"fffffffffddebeeeddd````fffffffff",
"fffffffff`debbeedd````dfffffffff",
"fffffffffddebeeeddd````fffffffff",
"fffffffff`debbeedd````dfffffffff",
"fffffffffddebeeeddd````fffffffff",
"fffffffff`debbeedd````dfffffffff",
"ffffffffff`eeeeeddd````fffffffff",
"ffffffffff`eeeeedd`````fffffffff",
"fffffffffff``````````dffffffffff",
"ffffffffffff`aaaaaa`afffffffffff",
"ffffffffffff`acaaaa`afffffffffff",
"ffffffffffff`acaaaa`afffffffffff",
"ffffffffffff`acaaaa`afffffffffff",
"ffffffffffff`acaaaa`afffffffffff",
"fffffffffffff```````ffffffffffff",
"ffffffffffffff`ed`dfffffffffffff",
"ffffffffffffff`ed`dfffffffffffff",
"ffffffffffffff`ed`dfffffffffffff",
"ffffffffffffff`ed`dfffffffffffff",
"fffffffffffffff```ffffffffffffff",
"ffffffffffffffff`fffffffffffffff",
"ffffffffffffffff`fffffffffffffff",
"ffffffffffffffff`fffffffffffffff",
"`````````````````fffffffffffffff"
};
