/* XPM */
static const char * help_xpm[] = {
"32 32 8 1",
" 	c None",
".	c #800080",
"X	c #000000",
"o	c #808080",
"O	c #808000",
"+	c #FFFF00",
"@	c #C0C0C0",
"#	c #FFFFFF",
"                                ",
"                                ",
"                                ",
"                                ",
"                                ",
"               ..X              ",
"              .o..XX            ",
"             .o.....XX          ",
"            .o........XX        ",
"           .o....O++O...XX      ",
"          .o....++++++....XX    ",
"         .o......O..++O....X    ",
"        .o.........O++O...X     ",
"       .o.......O++++O...XX     ",
"      .o.......O++OO....XoX     ",
"     .o.........OO.....Xo@X     ",
"    .XXX.....O+O......Xo@@X     ",
"    .XooXX...O+O.....Xo@@@XX    ",
"    .X@@ooXX........Xo@@@o.X    ",
"    .X@###ooXX.....Xo@@@o.X     ",
"    .X@#####ooXX..Xo@@@o.X      ",
"    ...oo#####ooXXo@@@o.X       ",
"     XX..oo#####oo@@@o.X        ",
"       XX..oo#####@@o.X         ",
"         XX..oo###@o.X          ",
"           XX..oo#o.X           ",
"             XX..o.X            ",
"               XX.X             ",
"                 X              ",
"                                ",
"                                ",
"                                "};
