/* XPM */
static const char *key_xpm[] = {
/* width height ncolors chars_per_pixel */
"32 32 5 1",
/* colors */
"` c #000000",
"a c #999999",
"b c None",
"c c #999900",
"d c #FFFF00",
/* pixels */
"bbbbbbbbbbbbbbbbbbbbbbbbbbbbbbbb",
"bbbbbbbbbbbbbbbbbbbbbbbbbbbbbbbb",
"bbbbbbbbbbbbbbbbbbbbbbbbbbbbbbbb",
"bbbbbbbbbbbbbbbbbbbbbbbbbbbbbbbb",
"bbbbbbbbbbbbbbbbbbbbbbbbbbbbbbbb",
"bbbbbbbbbbbbbbbbbbbbbbbbbbbbbbbb",
"bbbbbbbbbbbbbbbbbbbbbbbbbbbbbbbb",
"bbbbbbbbbbbbbbbbbbbb```````bbbbb",
"bbbbbbbbbbbbbbbbbbb`ddddddd`bbbb",
"bbbbbbbbbbbbbbbbbb`ddddddddd`bbb",
"bbbbbbbbbbbbbbbb``ddddddddddd`bb",
"bbb``````````````ddddddddddddd`b",
"bb`ddddddddddddddddddddd```dddc`",
"b`aaaaaaaaaaaaaaaaddddd`aaa`cdc`",
"`cccccccccccccccccddddd`abb`cdc`",
"`dddddddddddddddddddddd`abb`cdc`",
"b`dddddddddddddddddddddd```cddc`",
"bb`aaaaa``aaaaaaaaddddddcccdddc`",
"bbb`cc``aa`cccc``cddddddddddddc`",
"bbbb``aaabb`cc`aa`cddddddddddc`a",
"bbbbbaabbbbb``aabb`cddddddddc`ab",
"bbbbbbbbbbbbbaabbbb`cddddddc`abb",
"bbbbbbbbbbbbbbbbbbbb`cccccc`abbb",
"bbbbbbbbbbbbbbbbbbbbb``````abbbb",
"bbbbbbbbbbbbbbbbbbbbbbaaaaabbbbb",
"bbbbbbbbbbbbbbbbbbbbbbbbbbbbbbbb",
"bbbbbbbbbbbbbbbbbbbbbbbbbbbbbbbb",
"bbbbbbbbbbbbbbbbbbbbbbbbbbbbbbbb",
"bbbbbbbbbbbbbbbbbbbbbbbbbbbbbbbb",
"bbbbbbbbbbbbbbbbbbbbbbbbbbbbbbbb",
"bbbbbbbbbbbbbbbbbbbbbbbbbbbbbbbb",
"bbbbbbbbbbbbbbbbbbbbbbbbbbbbbbbb"
};
