/* XPM */
static const char *mouse_xpm[] = {
/* width height ncolors chars_per_pixel */
"32 32 6 1",
/* colors */
"` c #000000",
"a c #999999",
"b c #CC0000",
"c c None",
"d c #FFFFFF",
"e c #339999",
/* pixels */
"cccccccccccccccc`b`ccccccccccccc",
"ccccccccccccccc`b`cccccccccccccc",
"ccccccccccccccc`b`cccccccccccccc",
"cccccccccccccc`b`ccccccccccccccc",
"cccccccccccccc`b`ccccccccccccccc",
"cccccccccccccc`b`ccccccccccccccc",
"cccccccccccccc`b`ccccccccccccccc",
"cccccccc```````````````ccccccccc",
"ccccccc`eeadaae`aeeeeee`cccccccc",
"ccccccc`eeadaae`aeeeeee`cccccccc",
"ccccccc`eeadaae`aeeeeee`cccccccc",
"ccccccc`eeadaae`aeeeeee`cccccccc",
"ccccccc`eeadaae`aeeeeee`cccccccc",
"ccccccc`eeadaae`aeeeeee`cccccccc",
"ccccccc````d````````````cccccccc",
"ccccccc`eeadaaeeeeeeeee`cccccccc",
"ccccccc`eeadaaeeeeeeeee`cccccccc",
"ccccccc`eeadaaeeeeeeeee`cccccccc",
"ccccccc`eeadaaeeeeeeeee`cccccccc",
"ccccccc`eeadaaeeeeeeeee`cccccccc",
"ccccccc`eeadaaeeeeeeeee`cccccccc",
"ccccccc`eeadaaeeeeeeeee`cccccccc",
"ccccccc`eeadaaeeeeeeeee`cccccccc",
"ccccccc`eeadaaeeeeeeeee`cccccccc",
"ccccccc`eeadaaeeeeeeeee`cccccccc",
"ccccccc`eeadaaeeeeeeeee`cccccccc",
"ccccccc`eeadaaeeeeeeeee`cccccccc",
"cccccccc`eadaaeeeeeeee`ccccccccc",
"cccccccc`eadaaeeeeeeee`ccccccccc",
"ccccccccc`adaaeeeeeee`cccccccccc",
"cccccccccc``aaeeeee``ccccccccccc",
"cccccccccccc`a`````ccccccccccccc"
};
