/* XPM */
static const char *paper_xpm[] = {
/* width height ncolors chars_per_pixel */
"32 32 5 1",
/* colors */
"` c #000000",
"a c #999999",
"b c #CCCCCC",
"c c None",
"d c #FFFFFF",
/* pixels */
"cccc`````````````````````ccccccc",
"ccc`bbbb``aaaaaaaaaaaaaaa`cccccc",
"cc`baabbb`bbbbbbbbbbbbbbbb`ccccc",
"c`babbbabb`dbdbdbdbdbdbdbdb`cccc",
"c`bbbbbbbb`bdbdbdbdbdbdbdbd`cccc",
"c`bbbbbabb`dbdbdbdbdbdbdbdb`cccc",
"`bbabbbbabb`dddddddddddddddb`ccc",
"`bbbbbbbabb`bdbdbdbdbdbdbdbd`ccc",
"`baba`ababb`dbdbdbdbdbdbdbdb`ccc",
"`bab```babb`bdbdbdbdbdbdbdbd`ccc",
"`bab```bbbb`dbdbdbdbdbdbdbdb`ccc",
"`bab```bbbb`adbdbdbdbdbdbdbd`ccc",
"`bab```babb`dadadadadadadada`ccc",
"`bbba`ababb`abababababababab`ccc",
"`bbbbbbbabb`aaaaaaaaaaaaaaaa`ccc",
"c`bbabbabb``aaaaaaaaaaaaaaa`cccc",
"c`bbbaabab`aaaaaaaaaaaaaaaa`cccc",
"c`bbabbabb`babababababababa`cccc",
"ca`bbbabb`dadadadadadadada`ccccc",
"cca`bbbb``bdbdbdbdbdbdbdbd`ccccc",
"ccca``````dbdbdbdbdbdbdbdb`ccccc",
"ccccaaaaa`bdbdbdbdbdbdbdbd`ccccc",
"ccccccccc`dbdbdbdbdbdbdbdb`ccccc",
"cccccccccc`dbdbdbdbdbdbdbdb`cccc",
"cccccccccc`bdbdbdbdbdbdbdbd`cccc",
"ccccccccccc`bbbbbbbbbbbbbbbb`ccc",
"cccccccccccc`dbdbdbdbdbdbdbdb`cc",
"ccccccccccccc`bbbbbbbbbbbbbbbb`c",
"ccccccccccccc`babababababababa`c",
"cccccccccccccc`babababababababa`",
"cccccccccccccc`aaaaaaaaaaaaaaaa`",
"cccccccccccccc``````````````````"
};
