/* XPM */
static const char *people_xpm[] = {
/* width height ncolors chars_per_pixel */
"32 32 16 1",
/* colors */
"` c #000000",
"a c #999999",
"b c #990000",
"c c #CC6600",
"d c #FFCC00",
"e c #CCCCCC",
"f c #CC0000",
"g c None",
"h c #AAAAAA",
"i c #000066",
"j c #CC6699",
"k c #FFFFFF",
"l c #9999CC",
"m c #DDDDDD",
"n c #BBBBBB",
"o c #CC99CC",
/* pixels */
"gggggggggggggggggggggggggggggggg",
"ggggg```iggggggg```igggggggggggg",
"gggg`mnai`ggggg`mnai`ggggggggggg",
"ggg`mkkmhi`ggg`mkkmhi`gggggggggg",
"ggg`mkkmhi`gg``ikkmhi`gggggggggg",
"ggg`hmmnai`g`mai`mnai`gggggggggg",
"ggg`ihhhii``kkmhi`hii`gggggggggg",
"gg`e`iiii`k`mkmhi`ii`ggggggggggg",
"gg`ei````i``hmnai```b``ggggggggg",
"g`lkkiiiiii`ihhii`bbbbo`gggggggg",
"g`lllkkeee`d`iii`koooob`gggggggg",
"g`lllllkk``di```c``kjbb`gggggggg",
"g`lllllll`dkkcccccd`jbb`gggggggg",
"g`lllllll`dddkddddc`jbb`gggggggg",
"g`lllllll`ddddkkccc`jbb`gggggggg",
"g`lllllll`ddddddccc`jbb`gggggggg",
"g`lllllll`ddddddccc`jbb`gggggggg",
"g`lllllll`ddddddccc`jb`ggggggggg",
"gg`llilll`ddddddccc`j``ggggggggg",
"gg`llilli`ddddddccf`bb`ggggggggg",
"gg`llilli`ddddddcf`jbb`ggggggggg",
"gg`llillii`ddcddff`jbb`ggggggggg",
"gg`llillii`ddfdfff`jbb`ggggggggg",
"gg`llillii`ddcdccc`jbb`ggggggggg",
"gg`llillii`ddfdccc`jbb`igggggggg",
"gg`llillii`ddcdccc`jbb`iiigggggg",
"gg``lillii`ddcdccc`jbb`iiiiigggg",
"gggg``llii`ddfdccc`jb`iiii`igggg",
"gggggg`````ddcdccc`j`iiii`gggggg",
"gggggggggg``dfdccc``iiiigggggggg",
"gggggggggggg`idcc`iiiigggggggggg",
"ggggggggggggg````ii`iggggggggggg"
};
