/* XPM */
static const char *person_xpm[] = {
/* width height ncolors chars_per_pixel */
"32 32 13 1",
/* colors */
"` c #000000",
"a c #999999",
"b c #FF6633",
"c c #555555",
"d c #FFCC00",
"e c #CC0000",
"f c #111111",
"g c None",
"h c #AAAAAA",
"i c #FFFFFF",
"j c #444444",
"k c #DDDDDD",
"l c #BBBBBB",
/* pixels */
"gggggggggggggggggggggggggggggggg",
"gggggggggggggggggggggggggggggggg",
"gggggggggggggggggggggggggggggggg",
"ggggggggggggff`jgggggggggggggggg",
"gggggggggggfklajfggggggggggggggg",
"ggggggggggfkiikhj`gggggggggggggg",
"ggggggggggfkiikhc`gggggggggggggg",
"ggggggggggfhkklaj`gggggggggggggg",
"ggggggggggfjhhhcj`gggggggggggggg",
"ggggggggg`d`ccjc`ggggggggggggggg",
"gggggggg`idb````b``ggggggggggggg",
"gggggggg`diibbbbbbd`gggggggggggg",
"gggggggg`dddiiddddb`gggggggggggg",
"gggggggg`dddddiidbb`gggggggggggg",
"gggggggg`dddddddbbb`gggggggggggg",
"gggggggg`dddddddbbb`gggggggggggg",
"gggggggg`dddddddbbb`gggggggggggg",
"gggggggg`dddddddbbb`gggggggggggg",
"gggggggg`dddddddbbb`gggggggggggg",
"ggggggggg`ddddddbbe`gggggggggggg",
"ggggggggg`ddddddbe`ggggggggggggg",
"ggggggggg`ddedddee`ggggggggggggg",
"ggggggggg`ddeddeeb`cgggggggggggg",
"ggggggggg`ddeddbbb`cccgggggggggg",
"ggggggggg`ddeddbbb`cccccgggggggg",
"ggggggggg`ddeddbbb`cccccccgggggg",
"ggggggggg`ddeddbbb`cccccccccgggg",
"ggggggggg`ddeddbbb`cccccccccgggg",
"ggggggggg`ddeddbbb`cccccccgggggg",
"ggggggggg``deddbbb`cccccgggggggg",
"ggggggggggg``ddbb`ccccgggggggggg",
"ggggggggggggg````ccccggggggggggg"
};
