<?xml version="1.0" encoding="utf-8"?>
<!-- Generator: Adobe Illustrator 24.0.3, SVG Export Plug-In . SVG Version: 6.00 Build 0)  -->
<svg version="1.1" id="Layer_1" xmlns="http://www.w3.org/2000/svg" xmlns:xlink="http://www.w3.org/1999/xlink" x="0px" y="0px"
	 width="222.6px" height="161.5px" viewBox="0 0 222.6 161.5" style="enable-background:new 0 0 222.6 161.5;" xml:space="preserve"
	>
<style type="text/css">
	.st0{fill:none;stroke:#000000;stroke-miterlimit:10;}
	.st1{display:none;}
	.st2{display:inline;}
</style>
<circle cx="4.1" cy="87" r="2.5"/>
<circle cx="96.6" cy="139.9" r="2.5"/>
<circle cx="209.7" cy="82.7" r="2.5"/>
<circle cx="90.6" cy="20.4" r="2.5"/>
<g>
	<g>
		<path class="st0" d="M68,118.7c5.9-8.7,15.6-14.6,26.8-15.2"/>
		<g>
			<polygon points="71.3,118.4 68.5,118 66.8,115.7 65.9,122.3 			"/>
		</g>
	</g>
</g>
<g>
	<g>
		<path class="st0" d="M98.9,107.3c10,2.3,18.8,9.2,23.3,19.2"/>
		<g>
			<polygon points="100.4,110.2 99.8,107.5 101.3,105.1 94.8,106.6 			"/>
		</g>
	</g>
</g>
<g class="st1">
	<g class="st2">
		<path class="st0" d="M172.8,96.1c-3.6-9.9-2.6-21.3,3.5-30.6"/>
		<g>
			<polygon points="174.5,93.3 172.5,95.3 169.7,95.3 174.5,99.9 			"/>
		</g>
	</g>
</g>
<g class="st1">
	<g class="st2">
		<path class="st0" d="M30.1,72.4c5.6,8.9,7.1,20.2,3.1,30.7"/>
		<g>
			<polygon points="29,75.5 30.5,73.1 33.3,72.5 27.6,69 			"/>
		</g>
	</g>
</g>
<g class="st1">
	<g class="st2">
		<path class="st0" d="M116.7,38.8c-4.5,9.5-13.3,16.8-24.2,19.1"/>
		<g>
			<polygon points="113.5,39.6 116.3,39.5 118.3,41.5 118.3,34.9 			"/>
		</g>
	</g>
</g>
<g class="st1">
	<g class="st2">
		<path class="st0" d="M87.9,54.3c-10,0.9-20.2-2.8-27.3-10.7"/>
		<g>
			<polygon points="85.6,51.9 87,54.3 86.3,57.1 92,53.6 			"/>
		</g>
	</g>
</g>
<g>
	<g>
		<path d="M84.6,121v1.5c-0.4-2-1.1-3.9-1.8-5.7c-0.5-1.5-0.8-2-1.4-2c-0.2,0-0.4,0-0.6,0.1l-0.2-0.5c0.4-0.4,0.8-0.7,1.4-0.7
			c0.7,0,1.3,0.3,2,2.4c0.4,1.1,0.9,2.8,1.4,5.4l0.1,0.1l0.1,3.9l-1.4,0.3l-0.2-0.2L84.6,121z M85.1,121.6c1.2-2.1,1.7-3.5,2.5-5.5
			l-0.2,1.4c-0.2-1.7-0.3-2.3-0.3-2.7c0-0.8,0.4-1.2,0.9-1.2c0.3,0,0.5,0.1,0.6,0.2c0.1,0.2,0.1,0.4,0.1,0.8c0,1.9-1.8,5.3-3.3,7.8
			L85.1,121.6z"/>
	</g>
</g>
<g>
	<g>
		<path d="M100.7,127.3v-8.8c0-2.6,1.6-4.3,3.8-4.3c1.8,0,3.2,1.1,3.2,3c0,1.4-1,3.3-3.6,3.5l-0.1-0.2c3-0.1,4.7,1,4.7,3.4
			c0,2.5-1.9,3.8-3.7,3.8c-1.3,0-2.6-0.6-3.3-2.2l0.2-0.2c0.8,0.7,1.7,1.2,2.8,1.2c1.7,0,2.6-1.1,2.6-2.7c0-1.5-0.8-2.9-3.5-2.8
			l-0.2-1c1.7-0.3,2.7-1.3,2.7-2.9c0-1.4-0.7-2.3-1.9-2.3c-1.3,0-2.2,1.2-2.2,3.2v7.7l-0.1,0.3l0.3,4.5l-1.4,0.3l-0.2-0.2
			L100.7,127.3z"/>
	</g>
</g>
<polyline class="st0" points="4.1,87 96.6,139.9 90.6,20.4 "/>
<line class="st0" x1="209.7" y1="82.7" x2="96.6" y2="139.9"/>
<g>
	<g>
		<path d="M88,8c0.9,0,1.5-0.4,2.4-1.5L90.6,7c-0.8,1.4-1.7,2-2.9,2C85.5,9,84,7.2,84,4.6C84,1.9,85.6,0,87.8,0c1,0,2,0.4,2.9,1.8
			l-0.2,0.5c-1-1-1.8-1.3-2.4-1.3c-1.4,0-2.5,1.1-2.5,3.6C85.5,6.9,86.5,8,88,8z M91.1,12.1l2,0.4v0.6h-4.6v-0.6l2.2-0.4H91.1z
			 M91.6,13.1h-1.5c0-1.3,0.1-2.6,0.1-3.8V7.5l-0.1-0.3V1.3L91.3,0l0.3,0.1v2.5v6.7C91.6,10.5,91.6,11.8,91.6,13.1z"/>
	</g>
</g>
<g>
	<g>
		<path d="M83.1,71.1c0.9,0,1.5-0.4,2.4-1.5l0.2,0.5c-0.7,1.2-1.5,2-2.9,2c-2.2,0-3.7-1.8-3.7-4.4c0-2.7,1.6-4.6,3.8-4.6
			c1,0,1.9,0.4,2.8,1.8l-0.2,0.5c-1-1-1.8-1.3-2.4-1.3c-1.4,0-2.5,1.1-2.5,3.5C80.5,70,81.6,71.1,83.1,71.1z M88.1,71.2v0.6L85.3,72
			l-0.2-1.8v-5.3l0.1-0.2v-4.5L83.7,60v-0.6l2.8-0.8l0.3,0.1l-0.2,2.5v10.6l-0.3-0.9L88.1,71.2z"/>
	</g>
</g>
<g>
	<g>
		<path d="M4.6,108.8v0.6H0v-0.6l2-0.4h0.4L4.6,108.8z M1.5,100.5c0-1,0-1.5-0.1-2.3L0,98v-0.6l2.4-1.1l0.3,0.2L2.9,98H3v5.6
			l-0.1,0.1v1.8c0,1.3,0,2.6,0.1,3.8H1.5c0-1.3,0.1-2.5,0.1-3.8L1.5,100.5L1.5,100.5z M5.2,97.3c-0.7,0-1.6,0.3-2.9,1.6l-0.2-0.3
			c1-1.6,2.2-2.3,3.4-2.3c1.9,0,3.4,1.7,3.4,4.5s-1.6,4.5-3.7,4.5c-1.1,0-2.2-0.5-3.2-2.4l0.2-0.3c0.9,1.2,1.8,1.7,2.7,1.7
			c1.4,0,2.5-1.1,2.5-3.4C7.5,98.6,6.5,97.3,5.2,97.3z"/>
		<path d="M15.7,105.4c0,2.6-1.2,3.7-2.5,3.7s-2.5-1.1-2.5-3.7s1.2-3.7,2.5-3.7C14.5,101.6,15.7,102.7,15.7,105.4z M13.2,108.5
			c0.6,0,1.2-0.6,1.2-3.1c0-2.6-0.6-3.1-1.2-3.1c-0.6,0-1.2,0.5-1.2,3.1C12,107.9,12.6,108.5,13.2,108.5z"/>
	</g>
</g>
<g>
	<g>
		<path d="M98.4,160.9v0.6h-4.6v-0.6l2-0.4h0.4L98.4,160.9z M95.3,152.6c0-1,0-1.5-0.1-2.3l-1.4-0.2v-0.6l2.4-1.1l0.3,0.2l0.1,1.5
			h0.1v5.6l-0.1,0.1v1.8c0,1.3,0,2.6,0.1,3.8h-1.5c0-1.3,0.1-2.5,0.1-3.8V152.6z M99,149.4c-0.7,0-1.6,0.3-2.9,1.6l-0.2-0.3
			c1-1.6,2.2-2.3,3.4-2.3c1.9,0,3.4,1.7,3.4,4.5s-1.6,4.5-3.7,4.5c-1.1,0-2.2-0.5-3.2-2.4l0.2-0.3c0.9,1.2,1.8,1.7,2.7,1.7
			c1.4,0,2.5-1.1,2.5-3.4C101.2,150.7,100.3,149.4,99,149.4z"/>
		<path d="M109.3,160.5v0.5h-4.5v-0.5l1.7-0.3h1.1L109.3,160.5z M107.5,153.8l0.2,0.1v7.1h-1.3v-6.1L105,155v-0.6L107.5,153.8z"/>
	</g>
</g>
<g>
	<g>
		<path d="M211.5,104.2v0.6h-4.6v-0.6l2-0.4h0.4L211.5,104.2z M208.4,95.9c0-1,0-1.5-0.1-2.3l-1.4-0.2v-0.6l2.4-1.1l0.3,0.2l0.1,1.5
			h0.1V99l-0.1,0.1v1.8c0,1.3,0,2.6,0.1,3.8h-1.5c0-1.3,0.1-2.5,0.1-3.8L208.4,95.9L208.4,95.9z M212.1,92.7c-0.7,0-1.6,0.3-2.9,1.6
			L209,94c1-1.6,2.2-2.3,3.4-2.3c1.9,0,3.4,1.7,3.4,4.5s-1.6,4.5-3.7,4.5c-1.1,0-2.2-0.5-3.2-2.4l0.2-0.3c0.9,1.2,1.8,1.7,2.7,1.7
			c1.4,0,2.5-1.1,2.5-3.4C214.3,94,213.4,92.7,212.1,92.7z"/>
		<path d="M217.7,103.4l1.7-1.6c1.1-1,1.6-1.9,1.6-2.8s-0.5-1.4-1.4-1.4c-0.3,0-0.7,0.1-1.1,0.2l0.7-0.5l-0.3,1
			c-0.2,0.7-0.4,0.9-0.7,0.9s-0.5-0.2-0.6-0.4c0.1-1.2,1.2-1.8,2.5-1.8c1.6,0,2.2,0.9,2.2,1.9s-0.7,1.8-2.3,3.3l-1.7,1.6l0.3-0.7h4
			v1.2h-4.8L217.7,103.4L217.7,103.4z"/>
	</g>
</g>
</svg>
