<?xml version="1.0" encoding="utf-8"?>
<!-- Generator: Adobe Illustrator 24.0.3, SVG Export Plug-In . SVG Version: 6.00 Build 0)  -->
<svg version="1.1" id="Layer_1" xmlns="http://www.w3.org/2000/svg" xmlns:xlink="http://www.w3.org/1999/xlink" x="0px" y="0px"
	 width="138.3px" height="154.6px" viewBox="0 0 138.3 154.6" style="enable-background:new 0 0 138.3 154.6;" xml:space="preserve"
	>
<style type="text/css">
	.st0{display:none;fill:#AFAEAE;}
	.st1{fill:#AFAEAE;stroke:#000000;stroke-width:0.5;stroke-miterlimit:10;}
	.st2{fill:none;stroke:#000000;stroke-miterlimit:10;}
</style>
<polygon class="st0" points="7.2,19.4 13.3,138.9 126.3,81.6 "/>
<polygon class="st1" points="7.2,19.4 10.3,79.1 49,80 66.8,50.5 "/>
<circle cx="13.3" cy="138.9" r="2.5"/>
<circle cx="126.3" cy="81.7" r="2.5"/>
<circle cx="7.2" cy="19.4" r="2.5"/>
<polyline class="st2" points="7.2,19.4 66.8,50.5 126.3,81.6 13.3,138.9 10.3,79.1 7.2,19.4 "/>
<g>
	<g>
		<path d="M134,98v0.6h-4.6V98l2-0.4h0.4L134,98z M130.9,89.7c0-1,0-1.5-0.1-2.3l-1.4-0.2v-0.6l2.4-1.1l0.3,0.2l0.1,1.5h0.1v5.6
			l-0.1,0.1v1.8c0,1.3,0,2.6,0.1,3.8h-1.5c0-1.3,0.1-2.5,0.1-3.8L130.9,89.7L130.9,89.7z M134.6,86.5c-0.7,0-1.6,0.3-2.9,1.6
			l-0.2-0.3c1-1.6,2.2-2.3,3.4-2.3c1.9,0,3.4,1.7,3.4,4.5s-1.6,4.5-3.7,4.5c-1.1,0-2.2-0.5-3.2-2.4l0.2-0.3c0.9,1.2,1.8,1.7,2.7,1.7
			c1.4,0,2.5-1.1,2.5-3.4C136.9,87.8,135.9,86.5,134.6,86.5z"/>
	</g>
</g>
<g>
	<g>
		<path d="M12.4,150.7v-0.8c0-1,0-1.5-0.1-2.3l-1.4-0.2v-0.6l2.4-1.1l0.3,0.2l0.2,2.3v2.6c0,1.1,0,3,0.1,3.8h-1.5
			C12.4,153.6,12.4,151.8,12.4,150.7z M11.1,153.8l2-0.4h0.4l2,0.4v0.6h-4.4V153.8z M13.1,148.2h1l-0.5,0.1c0.6-1.7,1.7-2.7,2.7-2.7
			c0.5,0,1.1,0.3,1.3,0.6c0,0.8-0.3,1.3-1,1.3c-0.4,0-0.8-0.2-1.1-0.4l-0.5-0.4l0.9-0.2c-1.1,0.6-1.8,1.5-2.2,2.9h-0.6V148.2z"/>
	</g>
</g>
<g>
	<g>
		<path d="M4,8c0.9,0,1.5-0.4,2.4-1.5L6.6,7C5.8,8.4,4.9,9,3.7,9C1.5,9,0,7.2,0,4.6C0,1.9,1.6,0,3.8,0c1,0,2,0.4,2.9,1.8L6.4,2.2
			c-1-1-1.8-1.3-2.4-1.3C2.6,0.9,1.5,2,1.5,4.5C1.5,6.9,2.5,8,4,8z M7.1,12.1l2,0.4v0.6H4.5v-0.6l2.2-0.4H7.1z M7.6,13.1H6.1
			c0-1.3,0.1-2.6,0.1-3.8V7.5L6.1,7.2V1.3L7.3,0l0.3,0.2v2.4v6.7C7.6,10.5,7.6,11.8,7.6,13.1z"/>
	</g>
</g>
</svg>
