<?xml version="1.0" encoding="utf-8"?>
<!-- Generator: Adobe Illustrator 24.0.3, SVG Export Plug-In . SVG Version: 6.00 Build 0)  -->
<svg version="1.1" id="Layer_1" xmlns="http://www.w3.org/2000/svg" xmlns:xlink="http://www.w3.org/1999/xlink" x="0px" y="0px"
	 width="222.6px" height="161.1px" viewBox="0 0 222.6 161.1" style="enable-background:new 0 0 222.6 161.1;" xml:space="preserve"
	>
<style type="text/css">
	.st0{fill:none;stroke:#000000;stroke-miterlimit:10;}
	.st1{display:none;}
	.st2{display:inline;}
</style>
<circle cx="4.2" cy="87" r="2.5"/>
<circle cx="96.7" cy="139.9" r="2.5"/>
<circle cx="209.8" cy="82.7" r="2.5"/>
<circle cx="90.7" cy="20.4" r="2.5"/>
<polyline class="st0" points="90.7,20.4 4.2,87 96.7,139.9 90.7,20.4 "/>
<polyline class="st0" points="96.7,139.9 209.8,82.6 90.7,20.4 "/>
<g id="Layer_2_1_">
	<g class="st1">
		<g class="st2">
			<path class="st0" d="M68.1,118.7c5.9-8.7,15.6-14.6,26.8-15.2"/>
			<g>
				<polygon points="71.4,118.4 68.6,118 66.9,115.7 66,122.3 				"/>
			</g>
		</g>
	</g>
	<g class="st1">
		<g class="st2">
			<path class="st0" d="M99,107.3c10,2.3,18.8,9.2,23.3,19.2"/>
			<g>
				<polygon points="100.5,110.2 99.9,107.5 101.4,105.1 94.9,106.6 				"/>
			</g>
		</g>
	</g>
	<g>
		<g>
			<path class="st0" d="M172.9,96.1c-3.6-9.9-2.6-21.3,3.5-30.6"/>
			<g>
				<polygon points="174.6,93.3 172.6,95.3 169.8,95.3 174.6,99.9 				"/>
			</g>
		</g>
	</g>
	<g>
		<g>
			<path class="st0" d="M30.2,72.4c5.6,8.9,7.1,20.2,3.1,30.7"/>
			<g>
				<polygon points="29.1,75.5 30.6,73.1 33.4,72.5 27.7,69 				"/>
			</g>
		</g>
	</g>
	<g class="st1">
		<g class="st2">
			<path class="st0" d="M116.8,38.8c-4.5,9.5-13.3,16.8-24.2,19.1"/>
			<g>
				<polygon points="113.6,39.6 116.4,39.5 118.4,41.5 118.4,34.9 				"/>
			</g>
		</g>
	</g>
	<g class="st1">
		<g class="st2">
			<path class="st0" d="M88,54.3c-10,0.9-20.2-2.8-27.3-10.7"/>
			<g>
				<polygon points="85.7,51.9 87.1,54.3 86.4,57.1 92.1,53.6 				"/>
			</g>
		</g>
	</g>
	<g>
		<g class="st1">
			<path class="st2" d="M84.7,121v1.5c-0.4-2-1.1-3.9-1.8-5.7c-0.5-1.5-0.8-2-1.4-2c-0.2,0-0.4,0-0.6,0.1l-0.2-0.5
				c0.4-0.4,0.8-0.7,1.4-0.7c0.7,0,1.3,0.3,2,2.4c0.4,1.1,0.9,2.8,1.4,5.4l0.1,0.1l0.1,3.9l-1.4,0.3l-0.2-0.2L84.7,121z M85.2,121.6
				c1.2-2.1,1.7-3.5,2.5-5.5l-0.2,1.4c-0.2-1.7-0.3-2.3-0.3-2.7c0-0.8,0.4-1.2,0.9-1.2c0.3,0,0.5,0.1,0.6,0.2
				c0.1,0.2,0.1,0.4,0.1,0.8c0,1.9-1.8,5.3-3.3,7.8L85.2,121.6z"/>
		</g>
	</g>
	<g>
		<g class="st1">
			<path class="st2" d="M100.8,127.3v-8.8c0-2.6,1.6-4.3,3.8-4.3c1.8,0,3.2,1.1,3.2,3c0,1.4-1,3.3-3.6,3.5l-0.1-0.2
				c3-0.1,4.7,1,4.7,3.4c0,2.5-1.9,3.8-3.7,3.8c-1.3,0-2.6-0.6-3.3-2.2l0.2-0.2c0.8,0.7,1.7,1.2,2.8,1.2c1.7,0,2.6-1.1,2.6-2.7
				c0-1.5-0.8-2.9-3.5-2.8l-0.2-1c1.7-0.3,2.7-1.3,2.7-2.9c0-1.4-0.7-2.3-1.9-2.3c-1.3,0-2.2,1.2-2.2,3.2v7.7l-0.1,0.3l0.3,4.5
				l-1.4,0.3l-0.2-0.2L100.8,127.3z"/>
		</g>
	</g>
	<g>
		<g class="st1">
			<path class="st2" d="M83.6,78.7v-0.8c0-1,0-1.5-0.1-2.3l-1.4-0.2v-0.6l2.4-1.1l0.3,0.2l0.2,2.3v2.6c0,1.1,0,3,0.1,3.8h-1.5
				C83.6,81.7,83.6,79.9,83.6,78.7z M82.3,81.9l2-0.4h0.4l2,0.4v0.6h-4.3L82.3,81.9L82.3,81.9z M84.4,76.3h1l-0.5,0.1
				c0.6-1.7,1.7-2.7,2.7-2.7c0.5,0,1.1,0.3,1.3,0.6c0,0.8-0.3,1.3-1,1.3c-0.4,0-0.8-0.2-1.1-0.4l-0.5-0.4l0.9-0.2
				c-1.1,0.6-1.8,1.5-2.2,2.9h-0.7L84.4,76.3L84.4,76.3z"/>
		</g>
	</g>
	<g>
		<g>
			<path d="M21.6,89.3v-8.8c0-2.6,1.6-4.3,3.8-4.3c1.8,0,3.2,1.1,3.2,3c0,1.4-1,3.3-3.6,3.5l-0.1-0.2c3-0.1,4.7,1,4.7,3.4
				c0,2.5-1.9,3.8-3.7,3.8c-1.3,0-2.6-0.6-3.3-2.2l0.2-0.2c0.8,0.7,1.7,1.2,2.8,1.2c1.7,0,2.6-1.1,2.6-2.7c0-1.5-0.8-2.9-3.5-2.8
				l-0.2-1c1.7-0.3,2.7-1.3,2.7-2.9c0-1.4-0.7-2.3-1.9-2.3c-1.3,0-2.2,1.2-2.2,3.2v7.7L23,88l0.3,4.5l-1.4,0.3l-0.2-0.2L21.6,89.3z"
				/>
		</g>
	</g>
	<g>
		<g>
			<path d="M182.4,84.2v1.5c-0.4-2-1.1-3.9-1.8-5.7c-0.5-1.5-0.8-2-1.4-2c-0.2,0-0.4,0-0.6,0.1l-0.2-0.5c0.4-0.4,0.8-0.7,1.4-0.7
				c0.7,0,1.3,0.3,2,2.4c0.4,1.1,0.9,2.8,1.4,5.4l0.1,0.1l0.1,3.9L182,89l-0.2-0.2L182.4,84.2z M182.9,84.8c1.2-2.1,1.7-3.5,2.5-5.5
				l-0.2,1.4c-0.2-1.7-0.3-2.3-0.3-2.7c0-0.8,0.4-1.2,0.9-1.2c0.3,0,0.5,0.1,0.6,0.2c0.1,0.2,0.1,0.4,0.1,0.8c0,1.9-1.8,5.3-3.3,7.8
				L182.9,84.8z"/>
		</g>
	</g>
</g>
<g>
	<g>
		<path d="M87.8,8c0.9,0,1.5-0.4,2.4-1.5L90.4,7c-0.8,1.4-1.7,2-2.9,2c-2.2,0-3.7-1.8-3.7-4.4c0-2.7,1.6-4.6,3.8-4.6
			c1,0,2,0.4,2.9,1.8l-0.2,0.5c-1-1-1.8-1.3-2.4-1.3c-1.4,0-2.5,1.1-2.5,3.6C85.3,6.9,86.3,8,87.8,8z M90.9,12.1l2,0.4v0.6h-4.6
			v-0.6l2.2-0.4H90.9z M91.4,13.1h-1.5c0-1.3,0.1-2.6,0.1-3.8V7.5l-0.1-0.3V1.3L91.1,0l0.3,0.2l-0.1,2.4v6.7
			C91.4,10.5,91.4,11.8,91.4,13.1z"/>
	</g>
</g>
<g>
	<g>
		<path d="M4.6,108.3v0.6H0v-0.6l2-0.4h0.4L4.6,108.3z M1.5,100c0-1,0-1.5-0.1-2.3L0,97.5v-0.6l2.4-1.1L2.8,96l0.1,1.5H3v5.6
			l-0.1,0.1v1.8c0,1.3,0,2.6,0.1,3.8H1.5c0-1.3,0.1-2.5,0.1-3.8L1.5,100L1.5,100z M5.2,96.8c-0.7,0-1.6,0.3-2.9,1.6l-0.2-0.3
			c1-1.6,2.2-2.3,3.4-2.3c1.9,0,3.4,1.7,3.4,4.5s-1.6,4.5-3.7,4.5c-1.1,0-2.2-0.5-3.2-2.4l0.2-0.3c0.9,1.2,1.8,1.7,2.7,1.7
			c1.4,0,2.5-1.1,2.5-3.4C7.5,98.1,6.5,96.8,5.2,96.8z"/>
		<path d="M15.7,104.9c0,2.6-1.2,3.7-2.5,3.7c-1.3,0-2.5-1.1-2.5-3.7s1.2-3.7,2.5-3.7C14.5,101.1,15.7,102.2,15.7,104.9z M13.2,108
			c0.6,0,1.2-0.6,1.2-3.1c0-2.6-0.6-3.1-1.2-3.1c-0.6,0-1.2,0.5-1.2,3.1C12,107.4,12.6,108,13.2,108z"/>
	</g>
</g>
<g>
	<g>
		<path d="M98.1,160.5v0.6h-4.6v-0.6l2-0.4h0.4L98.1,160.5z M95,152.2c0-1,0-1.5-0.1-2.3l-1.4-0.2v-0.6l2.4-1.1l0.3,0.2l0.1,1.5h0.1
			v5.6l-0.1,0.1v1.8c0,1.3,0,2.6,0.1,3.8h-1.5c0-1.3,0.1-2.5,0.1-3.8V152.2z M98.7,149c-0.7,0-1.6,0.3-2.9,1.6l-0.2-0.3
			c1-1.6,2.2-2.3,3.4-2.3c1.9,0,3.4,1.7,3.4,4.5s-1.6,4.5-3.7,4.5c-1.1,0-2.2-0.5-3.2-2.4l0.2-0.3c0.9,1.2,1.8,1.7,2.7,1.7
			c1.4,0,2.5-1.1,2.5-3.4C101,150.3,100,149,98.7,149z"/>
		<path d="M109,160.1v0.5h-4.5v-0.5l1.7-0.3h1.1L109,160.1z M107.3,153.4l0.2,0.1v7.1h-1.2v-6.1l-1.4,0.1V154L107.3,153.4z"/>
	</g>
</g>
<g>
	<g>
		<path d="M211.5,103.6v0.6h-4.6v-0.6l2-0.4h0.4L211.5,103.6z M208.4,95.3c0-1,0-1.5-0.1-2.3l-1.4-0.2v-0.6l2.4-1.1l0.3,0.2l0.1,1.5
			h0.1v5.6l-0.1,0.1v1.8c0,1.3,0,2.6,0.1,3.8h-1.4c0-1.3,0.1-2.5,0.1-3.8v-5H208.4z M212.1,92.1c-0.7,0-1.6,0.3-2.9,1.6l-0.2-0.3
			c1-1.6,2.2-2.3,3.4-2.3c1.9,0,3.4,1.7,3.4,4.5s-1.6,4.5-3.7,4.5c-1.1,0-2.2-0.5-3.2-2.4l0.2-0.3c0.9,1.2,1.8,1.7,2.7,1.7
			c1.4,0,2.5-1.1,2.5-3.4C214.4,93.4,213.4,92.1,212.1,92.1z"/>
		<path d="M217.7,102.8l1.7-1.6c1.1-1,1.6-1.9,1.6-2.8s-0.5-1.4-1.4-1.4c-0.3,0-0.7,0.1-1.1,0.2l0.7-0.5l-0.3,1
			c-0.2,0.7-0.4,0.9-0.7,0.9s-0.5-0.2-0.6-0.4c0.1-1.2,1.2-1.8,2.5-1.8c1.6,0,2.2,0.9,2.2,1.9s-0.7,1.8-2.3,3.3l-1.7,1.6l0.3-0.7h4
			v1.2h-4.8L217.7,102.8L217.7,102.8z"/>
	</g>
</g>
</svg>
