<?xml version="1.0" encoding="UTF-8" standalone="no"?>
<!-- Generator: Adobe Illustrator 24.0.3, SVG Export Plug-In . SVG Version: 6.00 Build 0)  -->

<svg
   version="1.1"
   id="Layer_1"
   x="0px"
   y="0px"
   width="501.3px"
   height="161.7px"
   viewBox="0 0 501.3 161.7"
   style="enable-background:new 0 0 501.3 161.7;"
   xml:space="preserve"
   sodipodi:docname="discrete_harmonic.svg"
   inkscape:version="1.2.1 (9c6d41e410, 2022-07-14)"
   xmlns:inkscape="http://www.inkscape.org/namespaces/inkscape"
   xmlns:sodipodi="http://sodipodi.sourceforge.net/DTD/sodipodi-0.dtd"
   xmlns="http://www.w3.org/2000/svg"
   xmlns:svg="http://www.w3.org/2000/svg"><defs
   id="defs227" /><sodipodi:namedview
   id="namedview225"
   pagecolor="#ffffff"
   bordercolor="#666666"
   borderopacity="1.0"
   inkscape:showpageshadow="2"
   inkscape:pageopacity="0.0"
   inkscape:pagecheckerboard="0"
   inkscape:deskcolor="#d1d1d1"
   showgrid="false"
   inkscape:zoom="5.4059447"
   inkscape:cx="63.171198"
   inkscape:cy="80.1895"
   inkscape:window-width="1881"
   inkscape:window-height="1192"
   inkscape:window-x="26"
   inkscape:window-y="23"
   inkscape:window-maximized="0"
   inkscape:current-layer="Layer_1" />
<style
   type="text/css"
   id="style2">
	.st0{fill:none;stroke:#000000;stroke-miterlimit:10;}
	.st1{display:none;}
	.st2{display:inline;}
</style>
<circle
   cx="4.4"
   cy="87.7"
   r="2.5"
   id="circle4" />
<circle
   cx="96.9"
   cy="140.6"
   r="2.5"
   id="circle6" />
<circle
   cx="210"
   cy="83.4"
   r="2.5"
   id="circle8" />
<circle
   cx="90.9"
   cy="21.1"
   r="2.5"
   id="circle10" />
<polyline
   class="st0"
   points="90.9,21.1 4.4,87.7 96.9,140.6 90.9,21.1 "
   id="polyline12" />
<polyline
   class="st0"
   points="96.9,140.6 210,83.3 90.9,21.1 "
   id="polyline14" />
<g
   class="st1"
   id="g24">
	<g
   class="st2"
   id="g22">
		<path
   class="st0"
   d="M68.3,119.4c5.9-8.7,15.6-14.6,26.8-15.2"
   id="path16" />
		<g
   id="g20">
			<polygon
   points="71.6,119.1 68.8,118.7 67.1,116.4 66.2,123    "
   id="polygon18" />
		</g>
	</g>
</g>
<g
   class="st1"
   id="g34">
	<g
   class="st2"
   id="g32">
		<path
   class="st0"
   d="M99.2,108c10,2.3,18.8,9.2,23.3,19.2"
   id="path26" />
		<g
   id="g30">
			<polygon
   points="100.7,110.9 100.1,108.2 101.6,105.8 95.1,107.3    "
   id="polygon28" />
		</g>
	</g>
</g>
<g
   class="st1"
   id="g44">
	<g
   class="st2"
   id="g42">
		<path
   class="st0"
   d="M173.1,96.8c-3.6-9.9-2.6-21.3,3.5-30.6"
   id="path36" />
		<g
   id="g40">
			<polygon
   points="174.8,94 172.8,96 170,96 174.8,100.6    "
   id="polygon38" />
		</g>
	</g>
</g>
<g
   class="st1"
   id="g54">
	<g
   class="st2"
   id="g52">
		<path
   class="st0"
   d="M30.4,73.1c5.6,8.9,7.1,20.2,3.1,30.7"
   id="path46" />
		<g
   id="g50">
			<polygon
   points="29.3,76.2 30.8,73.8 33.6,73.2 27.9,69.7    "
   id="polygon48" />
		</g>
	</g>
</g>
<g
   class="st1"
   id="g64">
	<g
   class="st2"
   id="g62">
		<path
   class="st0"
   d="M117,39.5c-4.5,9.5-13.3,16.8-24.2,19.1"
   id="path56" />
		<g
   id="g60">
			<polygon
   points="113.8,40.3 116.6,40.2 118.6,42.2 118.6,35.6    "
   id="polygon58" />
		</g>
	</g>
</g>
<g
   class="st1"
   id="g74">
	<g
   class="st2"
   id="g72">
		<path
   class="st0"
   d="M88.2,55c-10,0.9-20.2-2.8-27.3-10.7"
   id="path66" />
		<g
   id="g70">
			<polygon
   points="85.9,52.6 87.3,55 86.6,57.8 92.3,54.3    "
   id="polygon68" />
		</g>
	</g>
</g>
<g
   id="g80">
	<g
   class="st1"
   id="g78">
		<path
   class="st2"
   d="M84.9,121.7v1.5c-0.4-2-1.1-3.9-1.8-5.7c-0.5-1.5-0.8-2-1.4-2c-0.2,0-0.4,0-0.6,0.1l-0.2-0.5    c0.4-0.4,0.8-0.7,1.4-0.7c0.7,0,1.3,0.3,2,2.4c0.4,1.1,0.9,2.8,1.4,5.4l0.1,0.1l0.1,3.9l-1.4,0.3l-0.2-0.2L84.9,121.7z     M85.4,122.3c1.2-2.1,1.7-3.5,2.5-5.5l-0.2,1.4c-0.2-1.7-0.3-2.3-0.3-2.7c0-0.8,0.4-1.2,0.9-1.2c0.3,0,0.5,0.1,0.6,0.2    c0.1,0.2,0.1,0.4,0.1,0.8c0,1.9-1.8,5.3-3.3,7.8L85.4,122.3z"
   id="path76" />
	</g>
</g>
<g
   id="g86">
	<g
   class="st1"
   id="g84">
		<path
   class="st2"
   d="M101,128v-8.8c0-2.6,1.6-4.3,3.8-4.3c1.8,0,3.2,1.1,3.2,3c0,1.4-1,3.3-3.6,3.5l-0.1-0.2c3-0.1,4.7,1,4.7,3.4    c0,2.5-1.9,3.8-3.7,3.8c-1.3,0-2.6-0.6-3.3-2.2l0.2-0.2c0.8,0.7,1.7,1.2,2.8,1.2c1.7,0,2.6-1.1,2.6-2.7c0-1.5-0.8-2.9-3.5-2.8    l-0.2-1c1.7-0.3,2.7-1.3,2.7-2.9c0-1.4-0.7-2.3-1.9-2.3c-1.3,0-2.2,1.2-2.2,3.2v7.7l-0.1,0.3l0.3,4.5l-1.4,0.3l-0.2-0.2L101,128z"
   id="path82" />
	</g>
</g>
<g
   id="g92">
	<g
   class="st1"
   id="g90">
		<path
   class="st2"
   d="M21.8,90v-8.8c0-2.6,1.6-4.3,3.8-4.3c1.8,0,3.2,1.1,3.2,3c0,1.4-1,3.3-3.6,3.5l-0.1-0.2c3-0.1,4.7,1,4.7,3.4    c0,2.5-1.9,3.8-3.7,3.8c-1.3,0-2.6-0.6-3.3-2.2L23,88c0.8,0.7,1.7,1.2,2.8,1.2c1.7,0,2.6-1.1,2.6-2.7c0-1.5-0.8-2.9-3.5-2.8    l-0.2-1c1.7-0.3,2.7-1.3,2.7-2.9c0-1.4-0.7-2.3-1.9-2.3c-1.3,0-2.2,1.2-2.2,3.2v7.7l-0.1,0.3l0.3,4.5l-1.4,0.3l-0.2-0.2L21.8,90z"
   id="path88" />
	</g>
</g>
<g
   id="g98">
	<g
   class="st1"
   id="g96">
		<path
   class="st2"
   d="M182.6,84.9v1.5c-0.4-2-1.1-3.9-1.8-5.7c-0.5-1.5-0.8-2-1.4-2c-0.2,0-0.4,0-0.6,0.1l-0.2-0.5    c0.4-0.4,0.8-0.7,1.4-0.7c0.7,0,1.3,0.3,2,2.4c0.4,1.1,0.9,2.8,1.4,5.4l0.1,0.1l0.1,3.9l-1.4,0.3l-0.2-0.2L182.6,84.9z     M183.1,85.5c1.2-2.1,1.7-3.5,2.5-5.5l-0.2,1.4c-0.2-1.7-0.3-2.3-0.3-2.7c0-0.8,0.4-1.2,0.9-1.2c0.3,0,0.5,0.1,0.6,0.2    c0.1,0.2,0.1,0.4,0.1,0.8c0,1.9-1.8,5.3-3.3,7.8L183.1,85.5z"
   id="path94" />
	</g>
</g>
<circle
   cx="284.1"
   cy="88.3"
   r="2.5"
   id="circle100" />
<circle
   cx="376.6"
   cy="141.2"
   r="2.5"
   id="circle102" />
<circle
   cx="489.6"
   cy="84"
   r="2.5"
   id="circle104" />
<circle
   cx="370.5"
   cy="21.6"
   r="2.5"
   id="circle106" />
<line
   class="st0"
   x1="370.5"
   y1="21.6"
   x2="284.1"
   y2="88.3"
   id="line108" />
<line
   class="st0"
   x1="489.6"
   y1="83.9"
   x2="370.5"
   y2="21.6"
   id="line110" />
<polygon
   class="st0"
   points="376.6,141.2 284.1,88.3 489.6,83.9 "
   id="polygon112" />
<g
   id="g118">
	<g
   id="g116">
		<path
   d="M367.8,54.4v-0.7h2.5v1h-0.2L367.8,54.4z M370.3,64.8v1h-2.5V65l2.3-0.3h0.2V64.8z M369.5,59.3c0-1.9,0-3.7-0.1-5.6h1.7    c-0.1,1.8-0.1,3.7-0.1,5.6v0.6c0,2.1,0,4,0.1,5.9h-1.7c0.1-1.8,0.1-3.7,0.1-5.6V59.3z M370.3,59.1h1.8c2.2,0,3.2-0.7,3.2-2.4    s-1-2.2-2.8-2.2h-2.2v-0.8h2.7c2.5,0,3.9,1.2,3.9,3c0,1.4-1,2.6-3.4,2.9v-0.2c2.8,0.2,4,1.5,4,3c0,1.6-1.4,3.3-4.8,3.3h-2.4v-0.8    h2c2.3,0,3.5-0.9,3.5-2.5c0-1.7-1.1-2.5-3.6-2.5h-1.9L370.3,59.1L370.3,59.1z"
   id="path114" />
	</g>
</g>
<g
   id="g124">
	<g
   class="st1"
   id="g122">
		<path
   class="st2"
   d="M380.7,113.1v1l-1.1,0.3l0.5-2.7h1.1l-0.1,2.6c-1.1,0.6-2.4,0.9-3.6,0.9c-3.6,0-6.1-2.6-6.1-6.3    c0-3.6,2.6-6.3,6.1-6.3c1,0,2.3,0.2,3.5,0.9l0.1,2.6H380l-0.5-2.7l1.1,0.3v1.1c-1-1-2-1.3-2.9-1.3c-2.4,0-4.4,1.9-4.4,5.4    s1.8,5.4,4.3,5.4C378.5,114.2,379.7,113.9,380.7,113.1z"
   id="path120" />
	</g>
</g>
<g
   id="g130">
	<g
   id="g128">
		<path
   d="M88.4,8c0.9,0,1.5-0.4,2.4-1.5L91,7c-0.8,1.4-1.7,2-2.9,2c-2.2,0-3.7-1.8-3.7-4.4C84.4,1.9,86,0,88.2,0c1,0,2,0.4,2.9,1.8    l-0.2,0.5c-1-1-1.8-1.3-2.4-1.3C87.1,1,86,2.1,86,4.6C85.9,6.9,86.9,8,88.4,8z M91.5,12.1l2,0.4v0.6h-4.6v-0.6l2.2-0.4H91.5z     M92,13.1h-1.5c0-1.3,0.1-2.6,0.1-3.8V7.5l-0.1-0.3V1.3L91.7,0L92,0.2l-0.1,2.4v6.7C92,10.5,92,11.8,92,13.1z"
   id="path126" />
	</g>
</g>
<g
   id="g136">
	<g
   id="g134">
		<path
   d="M367.7,8c0.9,0,1.5-0.4,2.4-1.5l0.2,0.5c-0.8,1.4-1.7,2-2.9,2c-2.2,0-3.7-1.8-3.7-4.4c0-2.7,1.6-4.6,3.8-4.6    c1,0,2,0.4,2.9,1.8l-0.2,0.5c-1-1-1.8-1.3-2.4-1.3c-1.4,0-2.5,1.1-2.5,3.6C365.2,6.9,366.3,8,367.7,8z M370.8,12.1l2,0.4v0.6h-4.6    v-0.6l2.2-0.4H370.8z M371.4,13.1h-1.5c0-1.3,0.1-2.6,0.1-3.8V7.5l-0.1-0.3V1.3l1.2-1.3l0.3,0.2l-0.1,2.4v6.7    C371.3,10.5,371.3,11.8,371.4,13.1z"
   id="path132" />
	</g>
</g>
<g
   id="g144">
	<g
   id="g142">
		<path
   d="M34.2,50c0.9,0,1.5-0.4,2.4-1.5l0.2,0.5c-0.7,1.2-1.5,2-2.9,2c-2.2,0-3.7-1.8-3.7-4.4c0-2.7,1.6-4.6,3.8-4.6    c1,0,1.9,0.4,2.8,1.8l-0.2,0.5c-1-1-1.8-1.3-2.4-1.3c-1.4,0-2.5,1.1-2.5,3.5C31.7,49,32.7,50,34.2,50z M39.2,50.2v0.6L36.4,51    l-0.2-1.8v-5.3l0.1-0.2v-4.5L34.8,39v-0.6l2.8-0.8l0.3,0.1l-0.1,2.6v10.6L37.5,50L39.2,50.2z"
   id="path138" />
		
	</g>
</g>
<g
   id="g150"
   transform="translate(-1.9943323,0.1596911)">
	<g
   id="g148">
		<path
   d="m 104.3,81.7 c 0.9,0 1.5,-0.4 2.4,-1.5 l 0.2,0.5 c -0.7,1.2 -1.5,2 -2.9,2 -2.2,0 -3.7,-1.8 -3.7,-4.4 0,-2.7 1.6,-4.6 3.8,-4.6 1,0 1.9,0.4 2.8,1.8 l -0.2,0.5 c -1,-1 -1.8,-1.3 -2.4,-1.3 -1.4,0 -2.5,1.1 -2.5,3.5 0,2.4 1,3.5 2.5,3.5 z m 5,0.1 v 0.6 l -2.8,0.2 -0.2,-1.8 v -5.3 l 0.1,-0.2 v -4.6 l -1.5,-0.2 v -0.6 l 2.8,-0.8 0.3,0.1 -0.1,2.6 v 10.6 l -0.3,-0.9 z"
   id="path146" />
	</g>
</g>
<g
   id="g158">
	<g
   id="g156">
		<path
   d="M160.1,49c0.9,0,1.5-0.4,2.4-1.5l0.2,0.5c-0.7,1.2-1.5,2-2.9,2c-2.2,0-3.7-1.8-3.7-4.4c0-2.7,1.6-4.6,3.8-4.6    c1,0,1.9,0.4,2.8,1.8l-0.2,0.5c-1-1-1.8-1.3-2.4-1.3c-1.4,0-2.5,1.1-2.5,3.5C157.5,48,158.6,49,160.1,49z M165.1,49.2v0.6    l-2.8,0.2l-0.2-1.8v-5.3l0.1-0.2v-4.5l-1.5-0.2v-0.6l2.8-0.8l0.3,0.1l-0.1,2.6v10.6l-0.3-0.9L165.1,49.2z"
   id="path152" />
		<path
   d="M166.3,48.9l1.7-1.6c1.1-1,1.6-1.9,1.6-2.8c0-0.9-0.5-1.4-1.4-1.4c-0.3,0-0.7,0.1-1.1,0.2l0.7-0.5l-0.3,1    c-0.2,0.7-0.4,0.9-0.7,0.9s-0.5-0.2-0.6-0.4c0.1-1.2,1.2-1.8,2.5-1.8c1.6,0,2.2,0.9,2.2,1.9s-0.7,1.8-2.3,3.3l-1.7,1.6l0.3-0.7h4    v1.2h-4.8L166.3,48.9L166.3,48.9z"
   id="path154" />
	</g>
</g>
<g
   id="g166">
	<g
   id="g164">
		<path
   d="M55.3,87.6l1.8-0.3h0.4l2,0.3v0.7h-4.1L55.3,87.6L55.3,87.6z M60.7,76.2h1.1l4.1,12.1h-1.7l-3.6-10.8H61l-3.7,10.8h-0.8    L60.7,76.2z M58.6,83.6h4.9l0.3,0.8h-5.4L58.6,83.6z M62.2,87.6l2.3-0.3h0.4l2.2,0.3v0.7h-4.9C62.2,88.3,62.2,87.6,62.2,87.6z"
   id="path160" />
		
	</g>
</g>
<g
   id="g174">
	<g
   id="g172">
		<path
   d="M126.5,85.8l1.8-0.3h0.4l2,0.3v0.7h-4.1L126.5,85.8L126.5,85.8z M131.8,74.4h1.1l4.1,12.2h-1.7l-3.6-10.8h0.4l-3.7,10.8    h-0.8L131.8,74.4z M129.7,81.8h4.9l0.3,0.8h-5.4L129.7,81.8z M133.3,85.8l2.3-0.3h0.4l2.2,0.3v0.7h-4.9V85.8z"
   id="path168" />
		<path
   d="M139.3,85.7l1.7-1.6c1.1-1,1.6-1.9,1.6-2.8s-0.5-1.4-1.4-1.4c-0.3,0-0.7,0.1-1.1,0.2l0.7-0.5l-0.3,1    c-0.2,0.7-0.4,0.9-0.7,0.9s-0.5-0.2-0.6-0.4c0.1-1.2,1.2-1.8,2.5-1.8c1.6,0,2.2,0.9,2.2,1.9s-0.7,1.8-2.3,3.3l-1.7,1.6l0.3-0.7h4    v1.2h-4.8L139.3,85.7L139.3,85.7z"
   id="path170" />
	</g>
</g>
<g
   id="g182">
	<g
   id="g180">
		<path
   d="M4.6,111.1v0.6H0v-0.6l2-0.4h0.4L4.6,111.1z M1.5,102.8c0-1,0-1.5-0.1-2.3L0,100.3v-0.6l2.4-1.1l0.3,0.2l0.1,1.5h0.1v5.6    L2.8,106v1.8c0,1.3,0,2.6,0.1,3.8H1.5c0-1.3,0.1-2.5,0.1-3.8L1.5,102.8L1.5,102.8z M5.2,99.6c-0.7,0-1.6,0.3-2.9,1.6l-0.2-0.3    c1-1.6,2.2-2.3,3.4-2.3c1.9,0,3.4,1.7,3.4,4.5s-1.6,4.5-3.7,4.5c-1.1,0-2.2-0.5-3.2-2.4l0.2-0.3c0.9,1.2,1.8,1.7,2.7,1.7    c1.4,0,2.5-1.1,2.5-3.4C7.5,100.9,6.5,99.6,5.2,99.6z"
   id="path176" />
		<path
   d="M15.7,107.7c0,2.6-1.2,3.7-2.5,3.7c-1.3,0-2.5-1.1-2.5-3.7s1.2-3.7,2.5-3.7C14.5,103.9,15.7,105,15.7,107.7z M13.2,110.8    c0.6,0,1.2-0.6,1.2-3.1c0-2.6-0.6-3.1-1.2-3.1c-0.6,0-1.2,0.5-1.2,3.1C12,110.2,12.6,110.8,13.2,110.8z"
   id="path178" />
	</g>
</g>
<g
   id="g190">
	<g
   id="g188">
		<path
   d="M284.8,111.1v0.6h-4.6v-0.6l2-0.4h0.4L284.8,111.1z M281.7,102.8c0-1,0-1.5-0.1-2.3l-1.4-0.2v-0.6l2.4-1.1l0.3,0.2    l0.1,1.5h0.1v5.6L283,106v1.8c0,1.3,0,2.6,0.1,3.8h-1.5c0-1.3,0.1-2.5,0.1-3.8V102.8z M285.4,99.6c-0.7,0-1.6,0.3-2.9,1.6    l-0.2-0.3c1-1.6,2.2-2.3,3.4-2.3c1.9,0,3.4,1.7,3.4,4.5s-1.6,4.5-3.7,4.5c-1.1,0-2.2-0.5-3.2-2.4l0.2-0.3c0.9,1.2,1.8,1.7,2.7,1.7    c1.4,0,2.5-1.1,2.5-3.4C287.7,100.9,286.7,99.6,285.4,99.6z"
   id="path184" />
		<path
   d="M295.9,107.7c0,2.6-1.2,3.7-2.5,3.7s-2.5-1.1-2.5-3.7s1.2-3.7,2.5-3.7C294.7,103.9,295.9,105,295.9,107.7z M293.4,110.8    c0.6,0,1.2-0.6,1.2-3.1c0-2.6-0.6-3.1-1.2-3.1s-1.2,0.5-1.2,3.1C292.2,110.2,292.8,110.8,293.4,110.8z"
   id="path186" />
	</g>
</g>
<g
   id="g198">
	<g
   id="g196">
		<path
   d="M97.6,161.1v0.6H93v-0.6l2-0.4h0.4L97.6,161.1z M94.5,152.8c0-1,0-1.5-0.1-2.3l-1.4-0.2v-0.6l2.4-1.1l0.3,0.2l0.1,1.5h0.1    v5.6l-0.1,0.1v1.8c0,1.3,0,2.6,0.1,3.8h-1.5c0-1.3,0.1-2.5,0.1-3.8V152.8z M98.2,149.6c-0.7,0-1.6,0.3-2.9,1.6l-0.2-0.3    c1-1.6,2.2-2.3,3.4-2.3c1.9,0,3.4,1.7,3.4,4.5s-1.6,4.5-3.7,4.5c-1.1,0-2.2-0.5-3.2-2.4l0.2-0.3c0.9,1.2,1.8,1.7,2.7,1.7    c1.4,0,2.5-1.1,2.5-3.4C100.5,150.9,99.5,149.6,98.2,149.6z"
   id="path192" />
		<path
   d="M108.5,160.7v0.5H104v-0.5l1.7-0.3h1.1L108.5,160.7z M106.8,154l0.2,0.1v7.1h-1.2v-6.1l-1.4,0.1v-0.6L106.8,154z"
   id="path194" />
	</g>
</g>
<g
   id="g206">
	<g
   id="g204">
		<path
   d="M377.6,161.1v0.6H373v-0.6l2-0.4h0.4L377.6,161.1z M374.5,152.8c0-1,0-1.5-0.1-2.3l-1.4-0.2v-0.6l2.4-1.1l0.3,0.2l0.1,1.5    h0.1v5.6l-0.1,0.1v1.8c0,1.3,0,2.6,0.1,3.8h-1.5c0-1.3,0.1-2.5,0.1-3.8V152.8z M378.2,149.6c-0.7,0-1.6,0.3-2.9,1.6l-0.2-0.3    c1-1.6,2.2-2.3,3.4-2.3c1.9,0,3.4,1.7,3.4,4.5s-1.6,4.5-3.7,4.5c-1.1,0-2.2-0.5-3.2-2.4l0.2-0.3c0.9,1.2,1.8,1.7,2.7,1.7    c1.4,0,2.5-1.1,2.5-3.4C380.5,150.9,379.5,149.6,378.2,149.6z"
   id="path200" />
		<path
   d="M388.5,160.7v0.5H384v-0.5l1.7-0.3h1.1L388.5,160.7z M386.8,154l0.2,0.1v7.1h-1.2v-6.1l-1.4,0.1v-0.6L386.8,154z"
   id="path202" />
	</g>
</g>
<g
   id="g214">
	<g
   id="g212">
		<path
   d="M210.7,105.5v0.6h-4.6v-0.6l2-0.4h0.4L210.7,105.5z M207.6,97.1c0-1,0-1.5-0.1-2.3l-1.4-0.2V94l2.4-1.1l0.3,0.2l0.1,1.5    h0.1v5.6l-0.1,0.1v1.8c0,1.3,0,2.6,0.1,3.8h-1.5c0-1.3,0.1-2.5,0.1-3.8L207.6,97.1L207.6,97.1z M211.3,94c-0.7,0-1.6,0.3-2.9,1.6    l-0.2-0.3c1-1.6,2.2-2.3,3.4-2.3c1.9,0,3.4,1.7,3.4,4.5s-1.6,4.5-3.7,4.5c-1.1,0-2.2-0.5-3.2-2.4l0.2-0.3c0.9,1.2,1.8,1.7,2.7,1.7    c1.4,0,2.5-1.1,2.5-3.4C213.6,95.3,212.6,94,211.3,94z"
   id="path208" />
		<path
   d="M216.9,104.7l1.7-1.6c1.1-1,1.6-1.9,1.6-2.8s-0.5-1.4-1.4-1.4c-0.3,0-0.7,0.1-1.1,0.2l0.7-0.5l-0.3,1    c-0.2,0.7-0.4,0.9-0.7,0.9s-0.5-0.2-0.6-0.4c0.1-1.2,1.2-1.8,2.5-1.8c1.6,0,2.2,0.9,2.2,1.9s-0.7,1.8-2.3,3.3l-1.7,1.6l0.3-0.7h4    v1.2H217L216.9,104.7L216.9,104.7z"
   id="path210" />
	</g>
</g>
<g
   id="g222">
	<g
   id="g220">
		<path
   d="M490.2,105.5v0.6h-4.6v-0.6l2-0.4h0.4L490.2,105.5z M487.1,97.1c0-1,0-1.5-0.1-2.3l-1.4-0.2V94l2.4-1.1l0.3,0.2l0.1,1.5    h0.1v5.6l-0.1,0.1v1.8c0,1.3,0,2.6,0.1,3.8H487c0-1.3,0.1-2.5,0.1-3.8V97.1z M490.8,94c-0.7,0-1.6,0.3-2.9,1.6l-0.2-0.3    c1-1.6,2.2-2.3,3.4-2.3c1.9,0,3.4,1.7,3.4,4.5s-1.6,4.5-3.7,4.5c-1.1,0-2.2-0.5-3.2-2.4l0.2-0.3c0.9,1.2,1.8,1.7,2.7,1.7    c1.4,0,2.5-1.1,2.5-3.4C493.1,95.3,492.1,94,490.8,94z"
   id="path216" />
		<path
   d="M496.4,104.7l1.7-1.6c1.1-1,1.6-1.9,1.6-2.8s-0.5-1.4-1.4-1.4c-0.3,0-0.7,0.1-1.1,0.2l0.7-0.5l-0.3,1    c-0.2,0.7-0.4,0.9-0.7,0.9c-0.3,0-0.5-0.2-0.6-0.4c0.1-1.2,1.2-1.8,2.5-1.8c1.6,0,2.2,0.9,2.2,1.9s-0.7,1.8-2.3,3.3l-1.7,1.6    l0.3-0.7h4v1.2h-4.9V104.7z"
   id="path218" />
	</g>
</g>
<path
   d="m 44.898817,47.364552 c 0,2.6 -1.2,3.7 -2.5,3.7 -1.3,0 -2.5,-1.1 -2.5,-3.7 0,-2.6 1.2,-3.7 2.5,-3.7 1.3,-0.1 2.5,1 2.5,3.7 z m -2.5,3.1 c 0.6,0 1.2,-0.6 1.2,-3.1 0,-2.6 -0.6,-3.1 -1.2,-3.1 -0.6,0 -1.2,0.5 -1.2,3.1 0,2.5 0.6,3.1 1.2,3.1 z"
   id="path178-6" /><path
   d="m 72.819403,84.595293 c 0,2.6 -1.2,3.7 -2.5,3.7 -1.3,0 -2.5,-1.1 -2.5,-3.7 0,-2.6 1.2,-3.7 2.5,-3.7 1.3,-0.1 2.5,1 2.5,3.7 z m -2.5,3.1 c 0.6,0 1.2,-0.6 1.2,-3.1 0,-2.6 -0.6,-3.1 -1.2,-3.1 -0.6,0 -1.2,0.5 -1.2,3.1 0,2.5 0.6,3.1 1.2,3.1 z"
   id="path178-6-5" /><text
   xml:space="preserve"
   style="font-style:normal;font-weight:normal;font-size:40px;line-height:1.25;font-family:sans-serif;fill:#000000;fill-opacity:1;stroke:none"
   x="142.27249"
   y="19.292274"
   id="text704"><tspan
     sodipodi:role="line"
     id="tspan702"></tspan></text></svg>
