<svg id="Layer_1" data-name="Layer 1" xmlns="http://www.w3.org/2000/svg" width="235.57764" height="263.68649" viewBox="0 0 235.57764 263.68649"><defs><style>.cls-1,.cls-2,.cls-3,.cls-4,.cls-5{fill:none;stroke:#000;stroke-miterlimit:10;}.cls-1{stroke-width:2px;}.cls-3{stroke-width:1.5px;}.cls-4{stroke-dasharray:4.00151 4.00151;}.cls-5{stroke-dasharray:4;}</style></defs><circle cx="222.18965" cy="26.8923" r="3"/><line class="cls-1" x1="3.00026" y1="26.60896" x2="107.77279" y2="116.32157"/><line class="cls-1" x1="222.18965" y1="26.8923" x2="107.77279" y2="116.32157"/><line class="cls-2" x1="108.21117" y1="68.0999" x2="107.77279" y2="116.32157"/><line class="cls-1" x1="108.21117" y1="68.0999" x2="3.00026" y2="26.60896"/><line class="cls-1" x1="222.18965" y1="26.8923" x2="108.21117" y2="68.0999"/><circle cx="107.77279" cy="116.32157" r="3"/><circle cx="108.21117" cy="68.0999" r="3"/><circle cx="3.00026" cy="26.60896" r="3"/><line class="cls-1" x1="3.00026" y1="137.38596" x2="107.88238" y2="194.52338"/><line class="cls-1" x1="222.18965" y1="137.38596" x2="107.44015" y2="194.74444"/><line class="cls-3" x1="107.99198" y1="147.83025" x2="107.77279" y2="193.95425"/><line class="cls-1" x1="107.99198" y1="147.83025" x2="3.00026" y2="137.38596"/><line class="cls-1" x1="222.18965" y1="137.38596" x2="107.99198" y2="147.83025"/><circle cx="222.18965" cy="137.38596" r="3"/><circle cx="3.00026" cy="137.38596" r="3"/><circle cx="107.99198" cy="147.83025" r="3"/><circle cx="107.88238" cy="194.52338" r="3"/><line class="cls-1" x1="3.00026" y1="226.68302" x2="107.85917" y2="260.47601"/><line class="cls-1" x1="222.18965" y1="226.68302" x2="107.41694" y2="260.69706"/><line class="cls-1" x1="107.96877" y1="213.78287" x2="107.74958" y2="259.90688"/><line class="cls-1" x1="107.96877" y1="213.78287" x2="3.00026" y2="226.68302"/><line class="cls-1" x1="222.18965" y1="226.68302" x2="107.96877" y2="213.78287"/><circle cx="3.00026" cy="226.68302" r="3"/><circle cx="222.18965" cy="226.68302" r="3"/><circle cx="107.96877" cy="213.78287" r="3"/><circle cx="107.45261" cy="260.68649" r="3"/><line class="cls-2" x1="3.00026" y1="26.60895" x2="3.00026" y2="28.60895"/><line class="cls-4" x1="3.00026" y1="32.61047" x2="3.00026" y2="222.68225"/><line class="cls-2" x1="3.00026" y1="224.68304" x2="3.00026" y2="226.68304"/><line class="cls-5" x1="222.18965" y1="26.8923" x2="222.18965" y2="226.68302"/><path d="M106.05859,54.35205a2.92583,2.92583,0,0,0,2.377-1.459l.16162.46875a3.20975,3.20975,0,0,1-2.93457,1.98047c-2.19678,0-3.67334-1.80079-3.67334-4.41211,0-2.73633,1.6206-4.59082,3.76318-4.59082a3.37215,3.37215,0,0,1,2.917,1.81835l-.18017.46778a3.52856,3.52856,0,0,0-2.44873-1.2959c-1.3501,0-2.52051,1.09863-2.52051,3.56543C103.52,53.28955,104.6001,54.35205,106.05859,54.35205Zm3.061,4.08691,2.03467.36036v.62988h-4.60938v-.62988l2.21436-.36036Zm.57617.99024h-1.49463c.03613-1.26074.0542-2.55664.0542-3.81738V53.811l-.0542-.252V47.63525l1.22461-1.29589.27.17968-.0542,2.43067v6.66211C109.6416,56.87256,109.65967,58.16846,109.6958,59.4292Z"/><path d="M5.23975,18.72168v.62988H.63037v-.62988L2.665,18.36133H3.0249ZM2.14258,10.40332c0-.99023-.01807-1.54883-.05371-2.26953L.64844,7.97168V7.3418L3.09668,6.26172l.27051.17969.144,1.53027.07178.03613V13.626l-.05371.10742v1.80078c0,1.26074.01758,2.55664.05371,3.81738H2.08887q.05346-1.89111.05371-3.78125ZM5.81592,7.252c-.66651,0-1.5669.32422-2.88086,1.60254l-.16211-.32422c1.04443-1.584,2.21435-2.26855,3.439-2.26855,1.9087,0,3.4209,1.69238,3.4209,4.46484,0,2.77344-1.58447,4.53809-3.69092,4.53809-1.09863,0-2.21484-.50488-3.16894-2.37695l.16211-.28809a3.50853,3.50853,0,0,0,2.68262,1.6748c1.36865,0,2.48486-1.0625,2.48486-3.38574C8.10254,8.56641,7.148,7.252,5.81592,7.252Z"/><path d="M15.752,15.28223c0,2.61132-1.22461,3.72754-2.48486,3.72754-1.27832,0-2.521-1.11622-2.521-3.72754,0-2.62891,1.24268-3.74512,2.521-3.74512C14.52734,11.53711,15.752,12.65332,15.752,15.28223ZM13.26709,18.415c.62988,0,1.20605-.55762,1.20605-3.13281,0-2.57422-.57617-3.13282-1.20605-3.13282-.63037,0-1.24268.54-1.24268,3.13282C12.02441,17.85742,12.63672,18.415,13.26709,18.415Z"/><path d="M108.22852,136.99951v.62988h-4.60938v-.62988l2.03467-.36035h.35986Zm-3.09717-8.31836c0-.99023-.01807-1.54883-.05371-2.26953l-1.44043-.16211v-.62988l2.44824-1.08008.27051.17969.144,1.53027.07178.03613v5.61817l-.05371.10742V133.812c0,1.26074.01757,2.55664.05371,3.81738h-1.49414q.05346-1.89111.05371-3.78125Zm3.67334-3.15136c-.66651,0-1.5669.32421-2.88086,1.60253l-.16211-.32421c1.04443-1.584,2.21435-2.26856,3.439-2.26856,1.9087,0,3.4209,1.69238,3.4209,4.46484,0,2.77344-1.58447,4.53809-3.69092,4.53809-1.09863,0-2.21484-.50488-3.16894-2.377l.16211-.28809a3.50854,3.50854,0,0,0,2.68262,1.67481c1.36865,0,2.48486-1.0625,2.48486-3.38575C111.09131,126.84424,110.13672,125.52979,108.80469,125.52979Z"/><path d="M118.56055,136.603v.52246h-4.46534V136.603l1.71045-.30567h1.062Zm-1.74659-6.73438.16211.1084v7.14844H115.7334v-6.13965l-1.4043.10742v-.64844Z"/><path d="M224.23975,18.72168v.62988h-4.60938v-.62988l2.03467-.36035h.35986Zm-3.09717-8.31836c0-.99023-.01807-1.54883-.05371-2.26953l-1.44043-.16211V7.3418l2.44824-1.08008.27051.17969.144,1.53027.07178.03613V13.626l-.05371.10742v1.80078c0,1.26074.01758,2.55664.05371,3.81738h-1.49414q.05346-1.89111.05371-3.78125ZM224.81592,7.252c-.66651,0-1.5669.32422-2.88086,1.60254l-.16211-.32422c1.04443-1.584,2.21435-2.26855,3.439-2.26855,1.9087,0,3.4209,1.69238,3.4209,4.46484,0,2.77344-1.58447,4.53809-3.69092,4.53809-1.09863,0-2.21484-.50488-3.16894-2.37695l.16211-.28809a3.50853,3.50853,0,0,0,2.68262,1.6748c1.36865,0,2.48486-1.0625,2.48486-3.38574C227.10254,8.56641,226.148,7.252,224.81592,7.252Z"/><path d="M229.9082,17.96484l1.67481-1.62011a4.03272,4.03272,0,0,0,1.584-2.791,1.25312,1.25312,0,0,0-1.36816-1.4043,2.87,2.87,0,0,0-1.11621.23438l.72021-.50488-.25244,1.00879c-.16162.68457-.37793.88183-.70215.88183a.7342.7342,0,0,1-.648-.41406c.08985-1.22363,1.20655-1.81836,2.4668-1.81836,1.56641,0,2.17871.918,2.17871,1.873,0,1.02636-.68457,1.81836-2.30469,3.331l-1.71045,1.584.252-.71973h4.0332v1.24219H229.9082Z"/></svg>