<?xml version="1.0" encoding="utf-8"?>
<!-- Generator: Adobe Illustrator 24.0.3, SVG Export Plug-In . SVG Version: 6.00 Build 0)  -->
<svg version="1.1" id="Layer_1" xmlns="http://www.w3.org/2000/svg" xmlns:xlink="http://www.w3.org/1999/xlink" x="0px" y="0px"
	 width="210.6px" height="163.6px" viewBox="0 0 210.6 163.6" style="enable-background:new 0 0 210.6 163.6;" xml:space="preserve"
	>
<style type="text/css">
	.st0{fill:none;stroke:#000000;stroke-miterlimit:10;}
</style>
<circle cx="2.5" cy="88.3" r="2.5"/>
<circle cx="95" cy="141.2" r="2.5"/>
<circle cx="208.1" cy="84" r="2.5"/>
<circle cx="89" cy="21.7" r="2.5"/>
<line class="st0" x1="95" y1="141.2" x2="89" y2="21.7"/>
<g>
	<g>
		<path d="M86.7,8c0.9,0,1.5-0.4,2.4-1.5L89.3,7c-0.8,1.4-1.7,2-2.9,2c-2.2,0-3.7-1.8-3.7-4.4c0-2.7,1.6-4.6,3.8-4.6
			c1,0,2,0.4,2.9,1.8l-0.2,0.5c-1-1-1.8-1.3-2.4-1.3c-1.4,0-2.5,1.1-2.5,3.6C84.2,6.9,85.3,8,86.7,8z M89.8,12.1l2,0.4v0.6h-4.6
			v-0.6l2.2-0.4H89.8z M90.4,13.1h-1.5c0-1.3,0.1-2.6,0.1-3.8V7.5l-0.1-0.3V1.3L90.1,0l0.3,0.2l-0.1,2.4v6.7
			C90.3,10.5,90.3,11.8,90.4,13.1z"/>
	</g>
</g>
<g>
	<g>
		<path d="M96.2,163.1v0.6h-4.6v-0.6l2-0.4h0.4L96.2,163.1z M93.1,154.8c0-1,0-1.5-0.1-2.3l-1.4-0.2v-0.6l2.4-1.1l0.3,0.2l0.1,1.5
			h0.1v5.6l-0.1,0.1v1.8c0,1.3,0,2.6,0.1,3.8H93c0-1.3,0.1-2.5,0.1-3.8L93.1,154.8L93.1,154.8z M96.8,151.7c-0.7,0-1.6,0.3-2.9,1.6
			l-0.2-0.3c1-1.6,2.2-2.3,3.4-2.3c1.9,0,3.4,1.7,3.4,4.5c0,2.8-1.6,4.5-3.7,4.5c-1.1,0-2.2-0.5-3.2-2.4l0.2-0.3
			c0.9,1.2,1.8,1.7,2.7,1.7c1.4,0,2.5-1.1,2.5-3.4C99.1,153,98.1,151.7,96.8,151.7z"/>
	</g>
</g>
<g>
	<g>
		<path d="M102.4,86.5c0.9,0,1.5-0.4,2.4-1.5l0.2,0.5c-0.7,1.2-1.5,2-2.9,2c-2.2,0-3.7-1.8-3.7-4.4c0-2.7,1.6-4.6,3.8-4.6
			c1,0,1.9,0.4,2.8,1.8l-0.2,0.5c-1-1-1.8-1.3-2.4-1.3c-1.4,0-2.5,1.1-2.5,3.5C99.9,85.5,100.9,86.5,102.4,86.5z M107.4,86.7v0.6
			l-2.8,0.2l-0.2-1.8v-5.3l0.1-0.2v-4.5l-1.5-0.2v-0.6l2.8-0.8l0.3,0.1l-0.1,2.6v10.6l-0.3-0.9L107.4,86.7z"/>
	</g>
</g>
<path class="st0" d="M2.5,88.3"/>
</svg>
