<?xml version="1.0" encoding="UTF-8" standalone="no"?>
<!-- Generator: Adobe Illustrator 24.0.3, SVG Export Plug-In . SVG Version: 6.00 Build 0)  -->

<svg
   version="1.1"
   id="Layer_1"
   x="0px"
   y="0px"
   width="222.1px"
   height="160.6px"
   viewBox="0 0 222.1 160.6"
   style="enable-background:new 0 0 222.1 160.6;"
   xml:space="preserve"
   sodipodi:docname="mean_value.svg"
   inkscape:version="1.2.1 (9c6d41e410, 2022-07-14)"
   xmlns:inkscape="http://www.inkscape.org/namespaces/inkscape"
   xmlns:sodipodi="http://sodipodi.sourceforge.net/DTD/sodipodi-0.dtd"
   xmlns="http://www.w3.org/2000/svg"
   xmlns:svg="http://www.w3.org/2000/svg"><defs
   id="defs73" /><sodipodi:namedview
   id="namedview71"
   pagecolor="#ffffff"
   bordercolor="#666666"
   borderopacity="1.0"
   inkscape:showpageshadow="2"
   inkscape:pageopacity="0.0"
   inkscape:pagecheckerboard="0"
   inkscape:deskcolor="#d1d1d1"
   showgrid="false"
   inkscape:zoom="6.1008553"
   inkscape:cx="92.282143"
   inkscape:cy="61.30288"
   inkscape:window-width="2560"
   inkscape:window-height="1371"
   inkscape:window-x="0"
   inkscape:window-y="0"
   inkscape:window-maximized="1"
   inkscape:current-layer="Layer_1" />
<style
   type="text/css"
   id="style2">
	.st0{fill:none;stroke:#000000;stroke-miterlimit:10;}
</style>
<circle
   cx="3.7"
   cy="86.8"
   r="2.5"
   id="circle4" />
<circle
   cx="96.2"
   cy="139.7"
   r="2.5"
   id="circle6" />
<circle
   cx="209.3"
   cy="82.5"
   r="2.5"
   id="circle8" />
<circle
   cx="90.2"
   cy="20.2"
   r="2.5"
   id="circle10" />
<line
   class="st0"
   x1="90.2"
   y1="20.2"
   x2="3.7"
   y2="86.8"
   id="line12" />
<line
   class="st0"
   x1="96.2"
   y1="139.7"
   x2="90.2"
   y2="20.2"
   id="line14" />
<line
   class="st0"
   x1="209.3"
   y1="82.4"
   x2="90.2"
   y2="20.2"
   id="line16" />
<g
   id="g22">
	<g
   id="g20">
		<path
   d="M86.6,8c0.9,0,1.5-0.4,2.4-1.5L89.2,7c-0.8,1.4-1.7,2-2.9,2c-2.2,0-3.7-1.8-3.7-4.4c0-2.7,1.6-4.6,3.8-4.6    c1,0,2,0.4,2.9,1.8l-0.2,0.5c-1-1-1.8-1.3-2.4-1.3c-1.4,0-2.5,1.1-2.5,3.6C84.1,6.9,85.2,8,86.6,8z M89.7,12.1l2,0.4v0.6h-4.6    v-0.6l2.2-0.4H89.7z M90.3,13.1h-1.5c0-1.3,0.1-2.6,0.1-3.8V7.5l-0.1-0.3V1.3L90,0l0.3,0.2l-0.1,2.4v6.7    C90.2,10.5,90.2,11.8,90.3,13.1z"
   id="path18" />
	</g>
</g>
<g
   id="g30">
	<g
   id="g28">
		<path
   d="M33.9,48.3c0.9,0,1.5-0.4,2.4-1.5l0.2,0.5c-0.7,1.2-1.5,2-2.9,2c-2.2,0-3.7-1.8-3.7-4.4c0-2.7,1.6-4.6,3.8-4.6    c1,0,1.9,0.4,2.8,1.8l-0.2,0.5c-1-1-1.8-1.3-2.4-1.3c-1.4,0-2.5,1.1-2.5,3.5C31.4,47.2,32.5,48.3,33.9,48.3z M38.9,48.4V49    l-2.7,0.2L36,47.4v-5.3l0.1-0.2v-4.5l-1.5-0.2v-0.6l2.8-0.8l0.3,0.1l-0.1,2.6v10.6l-0.3-0.9L38.9,48.4z"
   id="path24" />
		
	</g>
</g>
<g
   id="g36">
	<g
   id="g34">
		<path
   d="M103.6,88.5c0.9,0,1.5-0.4,2.4-1.5l0.2,0.5c-0.7,1.2-1.5,2-2.9,2c-2.2,0-3.7-1.8-3.7-4.4c0-2.7,1.6-4.6,3.8-4.6    c1,0,1.9,0.4,2.8,1.8l-0.2,0.5c-1-1-1.8-1.3-2.4-1.3c-1.4,0-2.5,1.1-2.5,3.5C101.1,87.4,102.1,88.5,103.6,88.5z M108.6,88.7v0.6    l-2.8,0.2l-0.2-1.8v-5.3l0.1-0.2v-4.5l-1.5-0.2v-0.6l2.8-0.8l0.3,0.1l-0.1,2.6v10.6l-0.3-0.9L108.6,88.7z"
   id="path32" />
	</g>
</g>
<g
   id="g44">
	<g
   id="g42">
		<path
   d="M155.6,47.3c0.9,0,1.5-0.4,2.4-1.5l0.2,0.5c-0.7,1.2-1.5,2-2.9,2c-2.2,0-3.7-1.8-3.7-4.4c0-2.7,1.6-4.6,3.8-4.6    c1,0,1.9,0.4,2.8,1.8l-0.2,0.5c-1-1-1.8-1.3-2.4-1.3c-1.3,0-2.5,1.1-2.5,3.5C153.1,46.2,154.2,47.3,155.6,47.3z M160.7,47.4V48    l-2.8,0.2l-0.2-1.8v-5.3l0.1-0.2v-4.5l-1.5-0.2v-0.6l2.8-0.8l0.3,0.1l-0.1,2.6v10.6l-0.3-0.9L160.7,47.4z"
   id="path38" />
		<path
   d="M161.9,47.2l1.7-1.6c1.1-1,1.6-1.9,1.6-2.8c0-0.9-0.5-1.4-1.4-1.4c-0.3,0-0.7,0.1-1.1,0.2l0.7-0.5l-0.3,1    c-0.2,0.7-0.4,0.9-0.7,0.9s-0.5-0.2-0.6-0.4c0.1-1.2,1.2-1.8,2.5-1.8c1.6,0,2.2,0.9,2.2,1.9s-0.7,1.8-2.3,3.3l-1.7,1.6l0.3-0.7h4    v1.2H162L161.9,47.2L161.9,47.2z"
   id="path40" />
	</g>
</g>
<g
   id="g52">
	<g
   id="g50">
		<path
   d="M4.6,108v0.6H0V108l2-0.4h0.4L4.6,108z M1.5,99.7c0-1,0-1.5-0.1-2.3L0,97.2v-0.6l2.4-1.1l0.3,0.2l0.1,1.5h0.1v5.6l0,0.2    v1.8c0,1.3,0,2.6,0.1,3.8H1.5c0-1.3,0.1-2.5,0.1-3.8L1.5,99.7L1.5,99.7z M5.2,96.5c-0.7,0-1.6,0.3-2.9,1.6l-0.2-0.3    c1-1.6,2.2-2.3,3.4-2.3c1.9,0,3.4,1.7,3.4,4.5s-1.6,4.5-3.7,4.5c-1.1,0-2.2-0.5-3.2-2.4l0.2-0.3c0.9,1.2,1.8,1.7,2.7,1.7    c1.4,0,2.5-1.1,2.5-3.4C7.5,97.8,6.5,96.5,5.2,96.5z"
   id="path46" />
		<path
   d="M15.7,104.6c0,2.6-1.2,3.7-2.5,3.7c-1.3,0-2.5-1.1-2.5-3.7s1.2-3.7,2.5-3.7C14.5,100.8,15.7,101.9,15.7,104.6z     M13.2,107.7c0.6,0,1.2-0.6,1.2-3.1c0-2.6-0.6-3.1-1.2-3.1c-0.6,0-1.2,0.5-1.2,3.1C12,107.1,12.6,107.7,13.2,107.7z"
   id="path48" />
	</g>
</g>
<g
   id="g60">
	<g
   id="g58">
		<path
   d="M97.9,160v0.6h-4.6V160l2-0.4h0.4L97.9,160z M94.8,151.7c0-1,0-1.5-0.1-2.3l-1.4-0.2v-0.6l2.4-1.1l0.3,0.2l0.1,1.5h0.1    v5.6l-0.1,0.1v1.8c0,1.3,0,2.6,0.1,3.8h-1.5c0-1.3,0.1-2.5,0.1-3.8V151.7z M98.5,148.6c-0.7,0-1.6,0.3-2.9,1.6l-0.2-0.3    c1-1.6,2.2-2.3,3.4-2.3c1.9,0,3.4,1.7,3.4,4.5s-1.6,4.5-3.7,4.5c-1.1,0-2.2-0.5-3.2-2.4l0.2-0.3c0.9,1.2,1.8,1.7,2.7,1.7    c1.4,0,2.5-1.1,2.5-3.4C100.8,149.9,99.8,148.6,98.5,148.6z"
   id="path54" />
		<path
   d="M108.8,159.6v0.5h-4.5v-0.5l1.7-0.3h1.1L108.8,159.6z M107.1,152.9l0.2,0.1v7.1h-1.2V154l-1.4,0.1v-0.6L107.1,152.9z"
   id="path56" />
	</g>
</g>
<g
   id="g68">
	<g
   id="g66">
		<path
   d="M211,103.4v0.6h-4.6v-0.6l2-0.4h0.4L211,103.4z M207.9,95c0-1,0-1.5-0.1-2.3l-1.4-0.2V92l2.4-1.1l0.3,0.2l0.1,1.5h0.1v5.6    l-0.1,0.1v1.8c0,1.3,0,2.6,0.1,3.8h-1.5c0-1.3,0.1-2.5,0.1-3.8L207.9,95L207.9,95z M211.6,91.9c-0.7,0-1.6,0.3-2.9,1.6l-0.2-0.3    c1-1.6,2.2-2.3,3.4-2.3c1.9,0,3.4,1.7,3.4,4.5s-1.6,4.5-3.7,4.5c-1.1,0-2.2-0.5-3.2-2.4l0.2-0.3c0.9,1.2,1.8,1.7,2.7,1.7    c1.4,0,2.5-1.1,2.5-3.4C213.9,93.2,212.9,91.9,211.6,91.9z"
   id="path62" />
		<path
   d="M217.2,102.6l1.7-1.6c1.1-1,1.6-1.9,1.6-2.8s-0.5-1.4-1.4-1.4c-0.3,0-0.7,0.1-1.1,0.2l0.7-0.5l-0.3,1    c-0.2,0.7-0.4,0.9-0.7,0.9s-0.5-0.2-0.6-0.4c0.1-1.2,1.2-1.8,2.5-1.8c1.6,0,2.2,0.9,2.2,1.9s-0.7,1.8-2.3,3.3l-1.7,1.6l0.3-0.7h4    v1.2h-4.8L217.2,102.6L217.2,102.6z"
   id="path64" />
	</g>
</g>
<path
   d="m 45.019848,45.642636 c 0,2.6 -1.2,3.7 -2.5,3.7 -1.3,0 -2.5,-1.1 -2.5,-3.7 0,-2.6 1.2,-3.7 2.5,-3.7 1.3,-0.1 2.5,1 2.5,3.7 z m -2.5,3.1 c 0.6,0 1.2,-0.6 1.2,-3.1 0,-2.6 -0.6,-3.1 -1.2,-3.1 -0.6,0 -1.2,0.5 -1.2,3.1 0,2.5 0.6,3.1 1.2,3.1 z"
   id="path48-3" /></svg>
