<?xml version="1.0" encoding="utf-8"?>
<!-- Generator: Adobe Illustrator 24.0.3, SVG Export Plug-In . SVG Version: 6.00 Build 0)  -->
<svg version="1.1" id="Layer_1" xmlns="http://www.w3.org/2000/svg" xmlns:xlink="http://www.w3.org/1999/xlink" x="0px" y="0px"
	 width="137.9px" height="157.1px" viewBox="0 0 137.9 157.1" style="enable-background:new 0 0 137.9 157.1;" xml:space="preserve"
	>
<style type="text/css">
	.st0{display:none;fill:#AFAEAE;}
	.st1{display:none;fill:#AFAEAE;stroke:#000000;stroke-width:0.5;stroke-miterlimit:10;}
	.st2{fill:#AFAEAE;stroke:#000000;stroke-width:0.5;stroke-miterlimit:10;}
	.st3{fill:none;stroke:#000000;stroke-miterlimit:10;}
</style>
<polygon class="st0" points="6.8,20.8 12.9,140.3 125.9,83 "/>
<polygon class="st1" points="6.8,20.8 9.9,80.5 48.6,81.4 66.4,51.9 "/>
<polygon class="st2" points="6.8,20.8 9.9,80.5 52.6,78.3 66.4,51.9 "/>
<circle cx="12.9" cy="140.3" r="2.5"/>
<circle cx="125.9" cy="83.1" r="2.5"/>
<circle cx="6.8" cy="20.8" r="2.5"/>
<polyline class="st3" points="6.8,20.8 66.4,51.9 125.9,83 12.9,140.3 9.9,80.5 6.8,20.8 "/>
<g>
	<g>
		<path d="M4,8c0.9,0,1.5-0.4,2.4-1.5L6.6,7C5.8,8.4,4.9,9,3.7,9C1.5,9,0,7.2,0,4.6C0,1.9,1.6,0,3.8,0c1,0,2,0.4,2.9,1.8L6.4,2.2
			c-1-1-1.8-1.3-2.4-1.3C2.6,0.9,1.5,2,1.5,4.5C1.5,6.9,2.5,8,4,8z M7.1,12.1l2,0.4v0.6H4.5v-0.6l2.2-0.4H7.1z M7.6,13.1H6.1
			c0-1.3,0.1-2.6,0.1-3.8V7.5L6.1,7.2V1.3L7.3,0l0.3,0.2v2.4v6.7C7.6,10.5,7.6,11.8,7.6,13.1z"/>
	</g>
</g>
<g>
	<g>
		<path d="M133.7,101.1v0.6h-4.6v-0.6l2-0.4h0.4L133.7,101.1z M130.6,92.8c0-1,0-1.5-0.1-2.3l-1.4-0.2v-0.6l2.4-1.1l0.3,0.2l0.1,1.5
			h0.1v5.6l-0.1,0.1v1.8c0,1.3,0,2.6,0.1,3.8h-1.5c0-1.3,0.1-2.5,0.1-3.8L130.6,92.8L130.6,92.8z M134.2,89.6
			c-0.7,0-1.6,0.3-2.9,1.6l-0.2-0.3c1-1.6,2.2-2.3,3.4-2.3c1.9,0,3.4,1.7,3.4,4.5s-1.6,4.5-3.7,4.5c-1.1,0-2.2-0.5-3.2-2.4l0.2-0.3
			c0.9,1.2,1.8,1.7,2.7,1.7c1.4,0,2.5-1.1,2.5-3.4C136.5,90.9,135.6,89.6,134.2,89.6z"/>
	</g>
</g>
<g>
	<g>
		<path d="M12.5,153.2v-0.8c0-1,0-1.5-0.1-2.3l-1.4-0.2v-0.6l2.4-1.1l0.3,0.2l0.2,2.3v2.6c0,1.1,0,3,0.1,3.8h-1.5
			C12.5,156.1,12.5,154.3,12.5,153.2z M11.2,156.3l2-0.4h0.4l2,0.4v0.6h-4.3L11.2,156.3L11.2,156.3z M13.3,150.7h1l-0.5,0.1
			c0.6-1.7,1.7-2.7,2.7-2.7c0.5,0,1.1,0.3,1.3,0.6c0,0.8-0.3,1.3-1,1.3c-0.4,0-0.8-0.2-1.1-0.4l-0.5-0.4l0.9-0.2
			c-1.1,0.6-1.8,1.5-2.2,2.9h-0.7v-1.2H13.3z"/>
	</g>
</g>
</svg>
