<?xml version="1.0" encoding="utf-8"?>
<!-- Generator: Adobe Illustrator 24.0.3, SVG Export Plug-In . SVG Version: 6.00 Build 0)  -->
<svg version="1.1" id="Layer_1" xmlns="http://www.w3.org/2000/svg" xmlns:xlink="http://www.w3.org/1999/xlink" x="0px" y="0px"
	 width="233.4px" height="229.9px" viewBox="0 0 233.4 229.9" style="enable-background:new 0 0 233.4 229.9;" xml:space="preserve"
	>
<style type="text/css">
	.st0{fill:#FFFFFF;}
	.st1{fill:none;stroke:#000000;stroke-width:2;stroke-miterlimit:10;}
	.st2{fill:none;stroke:#000000;stroke-miterlimit:10;}
	.st3{fill:none;stroke:#000000;stroke-miterlimit:10;stroke-dasharray:3.8526,3.8526;}
	.st4{fill:none;stroke:#000000;stroke-miterlimit:10;stroke-dasharray:4.0747,4.0747;}
	.st5{fill:none;stroke:#000000;stroke-miterlimit:10;stroke-dasharray:4.168,4.168;}
	.st6{display:none;}
	.st7{display:inline;}
</style>
<g id="Layer_1_1_">
	<g>
		<g>
			<polyline class="st0" points="44.2,170.3 15.1,153.7 38.6,46.5 131.1,2.5 195.7,52.4 220.7,149.3 107.6,206.6 44.2,170.3 			"/>
		</g>
		<g>
			<polyline class="st1" points="44.2,170.3 15.1,153.7 38.6,46.5 131.1,2.5 195.7,52.4 220.7,149.3 107.6,206.6 44.2,170.3 			"/>
		</g>
	</g>
	<circle cx="131.1" cy="2.5" r="2.5"/>
	<circle cx="195.7" cy="52.4" r="2.5"/>
	<circle cx="38.6" cy="46.5" r="2.5"/>
	<circle cx="15.1" cy="153.7" r="2.5"/>
	<circle cx="107.6" cy="206.6" r="2.5"/>
	<circle cx="220.7" cy="149.4" r="2.5"/>
	<circle cx="101.6" cy="87.1" r="2.5"/>
	<line class="st2" x1="101.6" y1="87.1" x2="15.1" y2="153.7"/>
	<line class="st2" x1="107.6" y1="206.6" x2="101.6" y2="87.1"/>
	<line class="st2" x1="220.7" y1="149.3" x2="101.6" y2="87.1"/>
	<g>
		<g>
			<line class="st2" x1="101.6" y1="87.1" x2="103.5" y2="86.4"/>
			<line class="st3" x1="107.1" y1="85" x2="192" y2="53.8"/>
			<line class="st2" x1="193.8" y1="53.1" x2="195.7" y2="52.4"/>
		</g>
	</g>
	<g>
		<g>
			<line class="st2" x1="131.1" y1="2.5" x2="130.5" y2="4.4"/>
			<line class="st4" x1="129.1" y1="8.2" x2="102.9" y2="83.2"/>
			<line class="st2" x1="102.2" y1="85.2" x2="101.6" y2="87.1"/>
		</g>
	</g>
	<g>
		<g>
			<line class="st2" x1="38.6" y1="46.5" x2="40.3" y2="47.6"/>
			<line class="st5" x1="43.8" y1="49.9" x2="98.1" y2="84.8"/>
			<line class="st2" x1="99.9" y1="86" x2="101.6" y2="87.1"/>
		</g>
	</g>
	<g>
		<g>
			<path d="M95.2,71c0.9,0,1.5-0.4,2.4-1.5l0.2,0.5c-0.8,1.4-1.7,2-2.9,2c-2.2,0-3.7-1.8-3.7-4.4c0-2.7,1.6-4.6,3.8-4.6
				c1,0,2,0.4,2.9,1.8l-0.2,0.5c-1-1-1.8-1.3-2.4-1.3c-1.4,0-2.5,1.1-2.5,3.6C92.7,70,93.8,71,95.2,71z M98.3,75.1l2,0.4v0.6h-4.6
				v-0.6l2.2-0.4H98.3z M98.9,76.1h-1.5c0-1.3,0.1-2.6,0.1-3.8v-1.8l-0.1-0.3v-5.9l1.2-1.3l0.3,0.2l-0.1,2.4v6.7
				C98.8,73.5,98.8,74.8,98.9,76.1z"/>
		</g>
	</g>
	<g>
		<g>
			<path d="M1.8,161.4L0,161.1v-0.7h4.3v0.7l-2.2,0.3L1.8,161.4L1.8,161.4z M2.3,160.4l2.8,7.3l-0.7,0.9l2.9-8.3h1L5,169.1H4.3
				l-3.6-8.6h1.6V160.4z M7.3,161.4l-1.8-0.3v-0.7h3.4v0.7l-1.3,0.3H7.3z"/>
			<path d="M10.5,169c0-0.5,0-1.8,0-2.5v-0.6c0-0.7,0-1,0-1.5l-1-0.1v-0.4l1.6-0.7l0.2,0.1l0.1,1.4v1.8c0,0.7,0,2,0,2.5H10.5z
				 M12.3,168.6v0.4H9.6v-0.4l1.3-0.2h0.2L12.3,168.6z M15,165.3v1.1c0,0.8,0,2,0,2.5h-1c0-0.5,0-1.8,0-2.5v-1c0-1.1-0.3-1.5-1-1.5
				c-0.6,0-1.1,0.2-1.7,0.8H11v-0.5h0.6l-0.5,0.2c0.6-0.8,1.5-1.3,2.3-1.3C14.6,163.1,15,163.8,15,165.3z M14.7,168.3l1.2,0.2v0.4
				h-2.8v-0.4l1.3-0.2H14.7z M18.6,165.2v1.2c0,0.8,0,2,0,2.5h-1c0-0.5,0-1.8,0-2.5v-1c0-1.1-0.3-1.5-1-1.5c-0.5,0-1,0.2-1.7,0.8
				h-0.3v-0.4h0.6l-0.6,0.1c0.6-0.9,1.5-1.3,2.4-1.3C18.1,163.1,18.6,163.7,18.6,165.2z M18.3,168.3l1.2,0.2v0.4h-2.8v-0.4l1.3-0.2
				H18.3z"/>
		</g>
	</g>
	<g>
		<g>
			<path d="M105.6,216.3l-1.8-0.3v-0.7h4.3v0.7l-2.2,0.3H105.6z M106.2,215.4l2.8,7.3l-0.7,0.9l2.9-8.3h1l-3.3,8.6h-0.7l-3.6-8.6
				h1.6V215.4z M111.1,216.3l-1.8-0.3v-0.7h3.4v0.7l-1.3,0.3H111.1z"/>
			<path d="M114.3,220.8c0-0.7,0-1,0-1.5l-1-0.1v-0.4l1.8-0.7l0.2,0.1v1.6v2.9c0,2-0.1,2.9-0.7,3.6c-0.4,0.4-0.8,0.7-1.5,0.7
				s-1-0.4-1-0.7c0.1-0.3,0.3-0.5,0.7-0.5c0.3,0,0.6,0.1,0.9,0.3l0.5,0.4l-1.5,0.2v-0.5c0.1,0.2,0.5,0.3,0.7,0.3
				c0.3,0,0.6-0.1,0.8-0.5c0.2-0.5,0.3-1.5,0.3-3.3v-1.9H114.3z M114,215.9c0-0.5,0.3-0.8,0.8-0.8c0.4,0,0.8,0.3,0.8,0.8
				c0,0.4-0.3,0.8-0.8,0.8S114,216.4,114,215.9z"/>
		</g>
	</g>
	<g>
		<g>
			<path d="M219.2,159.4l-1.8-0.3v-0.7h4.3v0.7l-2.2,0.3H219.2z M219.7,158.4l2.8,7.3l-0.7,0.9l2.9-8.3h1l-3.3,8.6h-0.7l-3.6-8.6
				h1.6V158.4z M224.7,159.4l-1.8-0.3v-0.7h3.4v0.7l-1.3,0.3H224.7z"/>
			<path d="M230,169.4v0.4h-3.1v-0.4l1.4-0.2h0.2L230,169.4z M227.9,163.8c0-0.7,0-1,0-1.5l-1-0.1v-0.4l1.6-0.7l0.2,0.1l0.1,1l0,0
				v3.7v0.1v1.2c0,0.8,0,1.7,0,2.5h-1c0-0.8,0-1.7,0-2.5L227.9,163.8L227.9,163.8z M230.3,161.7c-0.4,0-1,0.2-1.9,1.1l-0.1-0.2
				c0.7-1.1,1.5-1.5,2.3-1.5c1.3,0,2.3,1.1,2.3,3c0,1.8-1.1,3-2.5,3c-0.7,0-1.5-0.3-2.1-1.6l0.1-0.2c0.6,0.8,1.2,1.1,1.8,1.1
				c0.9,0,1.7-0.7,1.7-2.3C231.9,162.6,231.2,161.7,230.3,161.7z"/>
		</g>
	</g>
</g>
<g id="Layer_2_1_">
	<g class="st6">
		<g class="st7">
			<path class="st2" d="M79,185.4c5.9-8.7,15.6-14.6,26.8-15.2"/>
			<g>
				<polygon points="82.3,185.1 79.5,184.7 77.8,182.4 76.9,189 				"/>
			</g>
		</g>
	</g>
	<g class="st6">
		<g class="st7">
			<path class="st2" d="M109.9,174c10,2.3,18.8,9.2,23.3,19.2"/>
			<g>
				<polygon points="111.4,176.9 110.8,174.2 112.3,171.8 105.8,173.3 				"/>
			</g>
		</g>
	</g>
	<g class="st6">
		<g class="st7">
			<path class="st2" d="M127.7,105.5c-4.5,9.5-13.3,16.8-24.2,19.1"/>
			<g>
				<polygon points="124.5,106.3 127.3,106.2 129.3,108.2 129.3,101.6 				"/>
			</g>
		</g>
	</g>
	<g class="st6">
		<g class="st7">
			<path class="st2" d="M98.9,121c-10,0.9-20.2-2.8-27.3-10.7"/>
			<g>
				<polygon points="96.6,118.6 98,121 97.3,123.8 103,120.3 				"/>
			</g>
		</g>
	</g>
	<g>
		<g class="st6">
			<path class="st7" d="M95.6,187.7v1.5c-0.4-2-1.1-3.9-1.8-5.7c-0.5-1.5-0.8-2-1.4-2c-0.2,0-0.4,0-0.6,0.1l-0.2-0.5
				c0.4-0.4,0.8-0.7,1.4-0.7c0.7,0,1.3,0.3,2,2.4c0.4,1.1,0.9,2.8,1.4,5.4l0.1,0.1l0.1,3.9l-1.4,0.3l-0.2-0.2L95.6,187.7z
				 M96.1,188.3c1.2-2.1,1.7-3.5,2.5-5.5l-0.2,1.4c-0.2-1.7-0.3-2.3-0.3-2.7c0-0.8,0.4-1.2,0.9-1.2c0.3,0,0.5,0.1,0.6,0.2
				c0.1,0.2,0.1,0.4,0.1,0.8c0,1.9-1.8,5.3-3.3,7.8L96.1,188.3z"/>
		</g>
	</g>
	<g>
		<g class="st6">
			<path class="st7" d="M111.7,194v-8.8c0-2.6,1.6-4.3,3.8-4.3c1.8,0,3.2,1.1,3.2,3c0,1.4-1,3.3-3.6,3.5l-0.1-0.2
				c3-0.1,4.7,1,4.7,3.4c0,2.5-1.9,3.8-3.7,3.8c-1.3,0-2.6-0.6-3.3-2.2l0.2-0.2c0.8,0.7,1.7,1.2,2.8,1.2c1.7,0,2.6-1.1,2.6-2.7
				c0-1.5-0.8-2.9-3.5-2.8l-0.2-1c1.7-0.3,2.7-1.3,2.7-2.9c0-1.4-0.7-2.3-1.9-2.3c-1.3,0-2.2,1.2-2.2,3.2v7.7l-0.1,0.3l0.3,4.5
				l-1.4,0.3l-0.2-0.2L111.7,194z"/>
		</g>
	</g>
	<g>
		<g class="st6">
			<path class="st7" d="M94.5,145.4v-0.8c0-1,0-1.5-0.1-2.3l-1.4-0.2v-0.6l2.4-1.1l0.3,0.2l0.2,2.3v2.6c0,1.1,0,3,0.1,3.8h-1.5
				C94.5,148.4,94.5,146.6,94.5,145.4z M93.2,148.6l2-0.4h0.4l2,0.4v0.6h-4.3L93.2,148.6L93.2,148.6z M95.3,143h1l-0.5,0.1
				c0.6-1.7,1.7-2.7,2.7-2.7c0.5,0,1.1,0.3,1.3,0.6c0,0.8-0.3,1.3-1,1.3c-0.4,0-0.8-0.2-1.1-0.4l-0.5-0.4l0.9-0.2
				c-1.1,0.6-1.8,1.5-2.2,2.9h-0.7L95.3,143L95.3,143z"/>
		</g>
	</g>
</g>
</svg>
