<?xml version="1.0" encoding="UTF-8" standalone="no"?>
<!-- Generator: Adobe Illustrator 24.0.3, SVG Export Plug-In . SVG Version: 6.00 Build 0)  -->

<svg
   version="1.1"
   id="Layer_1"
   x="0px"
   y="0px"
   width="222.1px"
   height="161.4px"
   viewBox="0 0 222.1 161.4"
   style="enable-background:new 0 0 222.1 161.4;"
   xml:space="preserve"
   sodipodi:docname="tangent.svg"
   inkscape:version="1.2.1 (9c6d41e410, 2022-07-14)"
   xmlns:inkscape="http://www.inkscape.org/namespaces/inkscape"
   xmlns:sodipodi="http://sodipodi.sourceforge.net/DTD/sodipodi-0.dtd"
   xmlns="http://www.w3.org/2000/svg"
   xmlns:svg="http://www.w3.org/2000/svg"><defs
   id="defs87" /><sodipodi:namedview
   id="namedview85"
   pagecolor="#ffffff"
   bordercolor="#666666"
   borderopacity="1.0"
   inkscape:showpageshadow="2"
   inkscape:pageopacity="0.0"
   inkscape:pagecheckerboard="0"
   inkscape:deskcolor="#d1d1d1"
   showgrid="false"
   inkscape:zoom="4.3139562"
   inkscape:cx="207.00257"
   inkscape:cy="57.951447"
   inkscape:window-width="2560"
   inkscape:window-height="1371"
   inkscape:window-x="0"
   inkscape:window-y="0"
   inkscape:window-maximized="1"
   inkscape:current-layer="Layer_1" />
<style
   type="text/css"
   id="style2">
	.st0{fill:none;stroke:#000000;stroke-miterlimit:10;}
</style>
<circle
   cx="3.7"
   cy="86.7"
   r="2.5"
   id="circle4" />
<circle
   cx="96.2"
   cy="139.6"
   r="2.5"
   id="circle6" />
<circle
   cx="209.3"
   cy="82.4"
   r="2.5"
   id="circle8" />
<circle
   cx="90.2"
   cy="20.1"
   r="2.5"
   id="circle10" />
<polyline
   class="st0"
   points="90.2,20.1 3.7,86.7 96.2,139.6 90.2,20.1 "
   id="polyline12" />
<polyline
   class="st0"
   points="96.2,139.6 209.3,82.3 90.2,20.1 "
   id="polyline14" />
<g
   id="g20">
	<g
   id="g18">
		<path
   d="M87,8c0.9,0,1.5-0.4,2.4-1.5L89.6,7c-0.8,1.4-1.7,2-2.9,2C84.5,9,83,7.2,83,4.6C83,1.9,84.6,0,86.8,0c1,0,2,0.4,2.9,1.8    l-0.2,0.5c-1-1-1.8-1.3-2.4-1.3c-1.4,0-2.5,1.1-2.5,3.6C84.5,6.9,85.5,8,87,8z M90.1,12.1l2,0.4v0.6h-4.6v-0.6l2.2-0.4H90.1z     M90.6,13.1h-1.5c0-1.3,0.1-2.6,0.1-3.8V7.5l-0.1-0.3V1.3L90.3,0l0.3,0.2l-0.1,2.4v6.7C90.6,10.5,90.6,11.8,90.6,13.1z"
   id="path16" />
	</g>
</g>
<g
   id="g28">
	<g
   id="g26">
		<path
   d="M34.3,48.4c0.9,0,1.5-0.4,2.4-1.5l0.2,0.5c-0.7,1.2-1.5,2-2.9,2c-2.2,0-3.7-1.8-3.7-4.4c0-2.7,1.6-4.6,3.8-4.6    c1,0,1.9,0.4,2.8,1.8l-0.2,0.5c-1-1-1.8-1.3-2.4-1.3c-1.4,0-2.5,1.1-2.5,3.5C31.8,47.3,32.9,48.4,34.3,48.4z M39.3,48.5v0.6    l-2.8,0.2l-0.2-1.8v-5.3l0.1-0.2v-4.5l-1.5-0.2v-0.6l2.8-0.8L38,36l-0.1,2.6v10.6l-0.3-0.9L39.3,48.5z"
   id="path22" />
		
	</g>
</g>
<g
   id="g34">
	<g
   id="g32">
		<path
   d="M102.1,75.4c0.9,0,1.5-0.4,2.4-1.5l0.2,0.5c-0.7,1.2-1.5,2-2.9,2c-2.2,0-3.7-1.8-3.7-4.4c0-2.7,1.6-4.6,3.8-4.6    c1,0,1.9,0.4,2.8,1.8l-0.2,0.5c-1-1-1.8-1.3-2.4-1.3c-1.4,0-2.5,1.1-2.5,3.5C99.6,74.3,100.6,75.4,102.1,75.4z M107.1,75.5v0.6    l-2.8,0.2l-0.2-1.8v-5.3l0.1-0.2v-4.5l-1.5-0.2v-0.6l2.8-0.8l0.3,0.1l-0.1,2.6v10.6l-0.3-0.9L107.1,75.5z"
   id="path30" />
	</g>
</g>
<g
   id="g42">
	<g
   id="g40">
		<path
   d="M158,48.4c0.9,0,1.5-0.4,2.4-1.5l0.2,0.5c-0.7,1.2-1.5,2-2.9,2c-2.2,0-3.7-1.8-3.7-4.4c0-2.7,1.6-4.6,3.8-4.6    c1,0,1.9,0.4,2.8,1.8l-0.2,0.5c-1-1-1.8-1.3-2.4-1.3c-1.4,0-2.5,1.1-2.5,3.5C155.4,47.3,156.5,48.4,158,48.4z M163,48.5v0.6    l-2.8,0.2l-0.2-1.8v-5.3l0.1-0.2v-4.5l-1.5-0.2v-0.6l2.8-0.8l0.3,0.1l-0.1,2.6v10.6l-0.3-0.9L163,48.5z"
   id="path36" />
		<path
   d="M164.2,48.3l1.7-1.6c1.1-1,1.6-1.9,1.6-2.8c0-0.9-0.5-1.4-1.4-1.4c-0.3,0-0.7,0.1-1.1,0.2l0.7-0.5l-0.3,1    c-0.2,0.7-0.4,0.9-0.7,0.9s-0.5-0.2-0.6-0.4c0.1-1.2,1.2-1.8,2.5-1.8c1.6,0,2.2,0.9,2.2,1.9s-0.7,1.8-2.3,3.3l-1.7,1.6l0.3-0.7h4    v1.2h-4.9V48.3z"
   id="path38" />
	</g>
</g>
<g
   id="g50">
	<g
   id="g48">
		<path
   d="M50,83.6l1.8-0.3h0.4l2,0.3v0.7h-4.1v-0.7H50z M55.4,72.2h1.1l4.1,12.2h-1.7l-3.6-10.8h0.4L52,84.4h-0.8L55.4,72.2z     M53.3,79.6h4.9l0.3,0.8h-5.4L53.3,79.6z M56.8,83.6l2.3-0.3h0.4l2.2,0.3v0.7h-4.9V83.6z"
   id="path44" />
		
	<path
   d="m 67.653352,80.654808 c 0,2.6 -1.2,3.7 -2.5,3.7 -1.3,0 -2.5,-1.1 -2.5,-3.7 0,-2.6 1.2,-3.7 2.5,-3.7 1.3,-0.1 2.5,1 2.5,3.7 z m -2.5,3.1 c 0.6,0 1.2,-0.6 1.2,-3.1 0,-2.6 -0.6,-3.1 -1.2,-3.1 -0.6,0 -1.2,0.5 -1.2,3.1 0,2.5 0.6,3.1 1.2,3.1 z"
   id="path62-6" /></g>
</g>
<g
   id="g58">
	<g
   id="g56">
		<path
   d="M123,83.4l1.8-0.3h0.4l2,0.3v0.7h-4.1v-0.7H123z M128.4,72h1.1l4.1,12.2h-1.7l-3.6-10.8h0.4L125,84.2h-0.8L128.4,72z     M126.3,79.4h4.9l0.3,0.8h-5.4L126.3,79.4z M129.8,83.4l2.3-0.3h0.4l2.2,0.3v0.7h-4.9V83.4z"
   id="path52" />
		<path
   d="M135.9,83.3l1.7-1.6c1.1-1,1.6-1.9,1.6-2.8s-0.5-1.4-1.4-1.4c-0.3,0-0.7,0.1-1.1,0.2l0.7-0.5l-0.3,1    c-0.2,0.7-0.4,0.9-0.7,0.9s-0.5-0.2-0.6-0.4c0.1-1.2,1.2-1.8,2.5-1.8c1.6,0,2.2,0.9,2.2,1.9s-0.7,1.8-2.3,3.3l-1.7,1.6l0.3-0.7h4    v1.2H136L135.9,83.3L135.9,83.3z"
   id="path54" />
	</g>
</g>
<g
   id="g66">
	<g
   id="g64">
		<path
   d="M4.6,108.2v0.6H0v-0.6l2-0.4h0.4L4.6,108.2z M1.5,99.9c0-1,0-1.5-0.1-2.3L0,97.4v-0.6l2.4-1.1l0.3,0.2l0.1,1.5h0.1v5.6    l-0.1,0.1v1.8c0,1.3,0,2.6,0.1,3.8H1.5c0-1.3,0.1-2.5,0.1-3.8L1.5,99.9L1.5,99.9z M5.2,96.7c-0.7,0-1.6,0.3-2.9,1.6L2.2,98    c1-1.6,2.2-2.3,3.4-2.3c1.9,0,3.4,1.7,3.4,4.5s-1.6,4.5-3.7,4.5c-1.1,0-2.2-0.5-3.2-2.4l0.2-0.3c0.9,1.2,1.8,1.7,2.7,1.7    c1.4,0,2.5-1.1,2.5-3.4C7.5,98,6.5,96.7,5.2,96.7z"
   id="path60" />
		<path
   d="M15.7,104.8c0,2.6-1.2,3.7-2.5,3.7c-1.3,0-2.5-1.1-2.5-3.7s1.2-3.7,2.5-3.7C14.5,101,15.7,102.1,15.7,104.8z M13.2,107.9    c0.6,0,1.2-0.6,1.2-3.1c0-2.6-0.6-3.1-1.2-3.1c-0.6,0-1.2,0.5-1.2,3.1C12,107.3,12.6,107.9,13.2,107.9z"
   id="path62" />
	</g>
</g>
<g
   id="g74">
	<g
   id="g72">
		<path
   d="M96.9,160.8v0.6h-4.6v-0.6l2-0.4h0.4L96.9,160.8z M93.8,152.5c0-1,0-1.5-0.1-2.3l-1.4-0.2v-0.6l2.4-1.1l0.3,0.2l0.1,1.5    h0.1v5.6l-0.1,0.1v1.8c0,1.3,0,2.6,0.1,3.8h-1.5c0-1.3,0.1-2.5,0.1-3.8V152.5z M97.5,149.3c-0.7,0-1.6,0.3-2.9,1.6l-0.2-0.3    c1-1.6,2.2-2.3,3.4-2.3c1.9,0,3.4,1.7,3.4,4.5s-1.6,4.5-3.7,4.5c-1.1,0-2.2-0.5-3.2-2.4l0.2-0.3c0.9,1.2,1.8,1.7,2.7,1.7    c1.4,0,2.5-1.1,2.5-3.4C99.8,150.6,98.8,149.3,97.5,149.3z"
   id="path68" />
		<path
   d="M107.8,160.4v0.5h-4.5v-0.5l1.7-0.3h1.1L107.8,160.4z M106.1,153.6l0.2,0.1v7.1h-1.2v-6.1l-1.4,0.1v-0.6L106.1,153.6z"
   id="path70" />
	</g>
</g>
<g
   id="g82">
	<g
   id="g80">
		<path
   d="M211,103.9v0.6h-4.6v-0.6l2-0.4h0.4L211,103.9z M207.9,95.6c0-1,0-1.5-0.1-2.3l-1.4-0.2v-0.6l2.4-1.1l0.3,0.2l0.1,1.5h0.1    v5.6l-0.1,0.1v1.8c0,1.3,0,2.6,0.1,3.8h-1.5c0-1.3,0.1-2.5,0.1-3.8L207.9,95.6L207.9,95.6z M211.6,92.4c-0.7,0-1.6,0.3-2.9,1.6    l-0.2-0.3c1-1.6,2.2-2.3,3.4-2.3c1.9,0,3.4,1.7,3.4,4.5s-1.6,4.5-3.7,4.5c-1.1,0-2.2-0.5-3.2-2.4l0.2-0.3c0.9,1.2,1.8,1.7,2.7,1.7    c1.4,0,2.5-1.1,2.5-3.4C213.9,93.7,212.9,92.4,211.6,92.4z"
   id="path76" />
		<path
   d="M217.2,103.1l1.7-1.6c1.1-1,1.6-1.9,1.6-2.8s-0.5-1.4-1.4-1.4c-0.3,0-0.7,0.1-1.1,0.2l0.7-0.5l-0.3,1    c-0.2,0.7-0.4,0.9-0.7,0.9s-0.5-0.2-0.6-0.4c0.1-1.2,1.2-1.8,2.5-1.8c1.6,0,2.2,0.9,2.2,1.9s-0.7,1.8-2.3,3.3l-1.7,1.6l0.3-0.7h4    v1.2h-4.8L217.2,103.1L217.2,103.1z"
   id="path78" />
	</g>
</g>
<path
   d="m 45.360441,45.707672 c 0,2.6 -1.2,3.7 -2.5,3.7 -1.3,0 -2.5,-1.1 -2.5,-3.7 0,-2.6 1.2,-3.7 2.5,-3.7 1.3,-0.1 2.5,1 2.5,3.7 z m -2.5,3.1 c 0.6,0 1.2,-0.6 1.2,-3.1 0,-2.6 -0.6,-3.1 -1.2,-3.1 -0.6,0 -1.2,0.5 -1.2,3.1 0,2.5 0.6,3.1 1.2,3.1 z"
   id="path62-5" /></svg>
