<?xml version="1.0" encoding="utf-8"?>
<!-- Generator: Adobe Illustrator 24.0.3, SVG Export Plug-In . SVG Version: 6.00 Build 0)  -->
<svg version="1.1" xmlns="http://www.w3.org/2000/svg" xmlns:xlink="http://www.w3.org/1999/xlink" x="0px" y="0px" width="210.6px"
	 height="124.5px" viewBox="0 0 210.6 124.5" style="enable-background:new 0 0 210.6 124.5;" xml:space="preserve">
<style type="text/css">
	.st0{fill:none;stroke:#000000;stroke-miterlimit:10;}
	.st1{display:none;}
	.st2{display:inline;}
</style>
<g id="Layer_1">
	<circle cx="2.5" cy="69.1" r="2.5"/>
	<circle cx="95" cy="122" r="2.5"/>
	<circle cx="208.1" cy="64.8" r="2.5"/>
	<circle cx="89" cy="2.5" r="2.5"/>
	<polyline class="st0" points="89,2.5 2.5,69.1 95,122 89,2.5 	"/>
	<polyline class="st0" points="95,122 208.1,64.7 89,2.5 	"/>
	<g class="st1">
		<g class="st2">
			<path class="st0" d="M66.4,100.8c5.9-8.7,15.6-14.6,26.8-15.2"/>
			<g>
				<polygon points="69.7,100.5 66.9,100.1 65.2,97.8 64.3,104.4 				"/>
			</g>
		</g>
	</g>
	<g class="st1">
		<g class="st2">
			<path class="st0" d="M97.3,89.4c10,2.3,18.8,9.2,23.3,19.2"/>
			<g>
				<polygon points="98.8,92.3 98.2,89.6 99.7,87.2 93.2,88.7 				"/>
			</g>
		</g>
	</g>
	<g>
		<g>
			<path class="st0" d="M171.2,78.2c-3.6-9.9-2.6-21.3,3.5-30.6"/>
			<g>
				<polygon points="172.9,75.4 170.9,77.4 168.1,77.4 172.9,82 				"/>
			</g>
		</g>
	</g>
	<g>
		<g>
			<path class="st0" d="M28.5,54.5c5.6,8.9,7.1,20.2,3.1,30.7"/>
			<g>
				<polygon points="27.4,57.6 28.9,55.2 31.7,54.6 26,51.1 				"/>
			</g>
		</g>
	</g>
	<g class="st1">
		<g class="st2">
			<path class="st0" d="M115.1,20.9c-4.5,9.5-13.3,16.8-24.2,19.1"/>
			<g>
				<polygon points="111.9,21.7 114.7,21.6 116.7,23.6 116.7,17 				"/>
			</g>
		</g>
	</g>
	<g class="st1">
		<g class="st2">
			<path class="st0" d="M86.3,36.4c-10,0.9-20.2-2.8-27.3-10.7"/>
			<g>
				<polygon points="84,34 85.4,36.4 84.7,39.2 90.4,35.7 				"/>
			</g>
		</g>
	</g>
	<g>
		<g class="st1">
			<path class="st2" d="M83,103.1v1.5c-0.4-2-1.1-3.9-1.8-5.7c-0.5-1.5-0.8-2-1.4-2c-0.2,0-0.4,0-0.6,0.1L79,96.5
				c0.4-0.4,0.8-0.7,1.4-0.7c0.7,0,1.3,0.3,2,2.4c0.4,1.1,0.9,2.8,1.4,5.4l0.1,0.1l0.1,3.9l-1.4,0.3l-0.2-0.2L83,103.1z M83.5,103.7
				c1.2-2.1,1.7-3.5,2.5-5.5l-0.2,1.4c-0.2-1.7-0.3-2.3-0.3-2.7c0-0.8,0.4-1.2,0.9-1.2c0.3,0,0.5,0.1,0.6,0.2
				c0.1,0.2,0.1,0.4,0.1,0.8c0,1.9-1.8,5.3-3.3,7.8L83.5,103.7z"/>
		</g>
	</g>
	<g>
		<g class="st1">
			<path class="st2" d="M99.1,109.4v-8.8c0-2.6,1.6-4.3,3.8-4.3c1.8,0,3.2,1.1,3.2,3c0,1.4-1,3.3-3.6,3.5l-0.1-0.2
				c3-0.1,4.7,1,4.7,3.4c0,2.5-1.9,3.8-3.7,3.8c-1.3,0-2.6-0.6-3.3-2.2l0.2-0.2c0.8,0.7,1.7,1.2,2.8,1.2c1.7,0,2.6-1.1,2.6-2.7
				c0-1.5-0.8-2.9-3.5-2.8l-0.2-1c1.7-0.3,2.7-1.3,2.7-2.9c0-1.4-0.7-2.3-1.9-2.3c-1.3,0-2.2,1.2-2.2,3.2v7.7l-0.1,0.3l0.3,4.5
				l-1.4,0.3l-0.2-0.2L99.1,109.4z"/>
		</g>
	</g>
	<g>
		<g class="st1">
			<path class="st2" d="M81.9,60.8V60c0-1,0-1.5-0.1-2.3l-1.4-0.2v-0.6l2.4-1.1l0.3,0.2l0.2,2.3v2.6c0,1.1,0,3,0.1,3.8h-1.5
				C81.9,63.8,81.9,62,81.9,60.8z M80.6,64l2-0.4H83l2,0.4v0.6h-4.3L80.6,64L80.6,64z M82.7,58.4h1l-0.5,0.1
				c0.6-1.7,1.7-2.7,2.7-2.7c0.5,0,1.1,0.3,1.3,0.6c0,0.8-0.3,1.3-1,1.3c-0.4,0-0.8-0.2-1.1-0.4l-0.5-0.4l0.9-0.2
				c-1.1,0.6-1.8,1.5-2.2,2.9h-0.7L82.7,58.4L82.7,58.4z"/>
		</g>
	</g>
</g>
<g id="Layer_2">
	<g>
		<g>
			<path class="st0" d="M85.9,31c-8-0.9-14.9-5-19.6-11"/>
			<g>
				<polygon points="83.9,28 85,30.9 83.6,33.6 90.3,31.1 				"/>
			</g>
		</g>
	</g>
	<g>
		<g>
			<path class="st0" d="M112,19.6c-5,6.7-12.8,11.1-21.7,11.6"/>
			<g>
				<polygon points="108.5,19.8 111.5,20.3 113.2,22.8 114.4,15.8 				"/>
			</g>
		</g>
	</g>
	<g>
		<g>
			<path class="st0" d="M98.1,94c9.7,1,17.9,7,22.1,15.3"/>
			<g>
				<polygon points="100,96.9 99,94.1 100.3,91.3 93.6,93.8 				"/>
			</g>
		</g>
	</g>
	<g>
		<g>
			<path class="st0" d="M73,104.3c4.9-6.1,12.2-10.1,20.5-10.5"/>
			<g>
				<polygon points="76.6,104.3 73.7,103.6 72.1,101 70.5,108 				"/>
			</g>
		</g>
	</g>
</g>
</svg>
