ply
format ascii 1.0
element vertex 300
property float x
property float y
property float z
property float radius
element edge 886
property int vertex1
property int vertex2
element face 793
property list uchar int vertex_indices
end_header
0.103264858 0.087556904 0.0425265471 0.017770297
-0.0664911186 -0.236937129 0.0366008406 0.12020702
0.150574703 0.385774715 0.195761264 0.0335423951
-0.327891846 -0.399806685 -0.187238662 0.0288356353
0.206200276 0.0485079121 -0.00309889014 0.0195651398
0.308206177 -0.273995407 -0.244667155 0.0313797901
0.222674081 -0.0084134634 -0.126578249 0.0146452477
-0.0898901006 -0.276428367 0.0241739486 0.0977315806
0.218754718 0.0839679912 0.0297724997 0.0413751499
0.115098823 -0.419288417 -0.0549960824 0.0391626725
0.142163029 0.106180724 0.108503837 0.0354450174
-0.2002073 -0.261804688 -0.107900317 0.049508257
0.0596751365 -0.0797791809 0.276116563 0.018172435
-0.325072462 -0.279454507 -0.121761635 0.0154743265
0.116950381 -0.16495593 -0.0378993761 0.0880674888
0.189693727 0.441370708 0.147337006 0.0258865312
0.234487849 -0.0242274381 0.0806567668 0.0262943239
0.108546045 0.0889217173 0.0622280909 0.0162212906
0.225564971 0.161924274 0.0254974897 0.0216625793
0.1781322 -0.0366951052 0.153567476 0.0199284377
0.168250617 0.0998189297 0.0886516157 0.0598078151
0.0970545998 -0.177739916 -0.0927164312 0.0602272893
0.199884853 0.187438689 0.108174818 0.0384917645
0.128860598 0.0326862381 0.136770637 0.0235930126
0.174434597 -0.00102458099 -0.139433941 0.0150010218
0.127628848 -0.184037261 -0.100534973 0.0619697686
-0.119456055 -0.160114551 0.0462747544 0.129176141
0.183394254 0.0652217227 0.0627656141 0.0714829483
-0.0472594088 -0.0939651561 0.0786826497 0.0554306462
0.120224277 -0.134079567 0.260563266 0.0132086952
0.080336692 -0.117332491 0.0192123315 0.100580882
-0.201306688 -0.191008942 0.0212956412 0.0746574729
0.0330425122 0.0539550824 -0.0776204773 0.0186974328
0.161195738 0.313593249 0.179293523 0.0289085397
0.0683669465 -0.0586136674 0.254070005 0.0177166145
0.154462079 0.068815095 0.0238362174 0.0327045794
0.167832179 0.417771185 0.181157602 0.0297959744
-0.127776219 -0.445799286 -0.0555142888 0.0370717118
-0.174236031 -0.271057322 -0.138378757 0.0415417309
0.234761956 -0.223971347 -0.16855371 0.0349017346
0.15810482 0.129940219 0.0967913635 0.0462749488
0.26005174 -0.045451689 0.089527035 0.0191293926
0.200203587 0.270306028 0.0331821032 0.0140692781
0.219885526 0.0974147986 0.0824905993 0.0622088623
-0.0553743993 -0.200601832 -0.0546539857 0.104492389
-0.00254176473 0.0505723415 -0.0951205218 0.0132126993
0.192739157 0.0551657218 -0.00583373631 0.0192037419
-0.136443306 -0.174782277 0.0559897794 0.113824513
0.207233151 -0.153461379 0.201196077 0.0109411139
0.0696689574 -0.00161034411 0.0848782446 0.0400909245
0.139359355 0.052144906 0.0953637864 0.0516171352
-0.0991349741 -0.204763088 -0.0761929547 0.0855382428
0.192366986 0.28121913 0.0575632597 0.0125454747
0.230504467 0.195382176 0.0114599748 0.0176222858
0.0635983312 0.0269073508 -0.125742994 0.0127228285
0.117103727 -0.0556249472 0.212847084 0.0179364778
0.237854773 0.0764919849 0.0857511577 0.0444186196
0.166503669 0.336280869 0.212530333 0.01352626
0.0561093929 -0.197222119 0.0133228517 0.0881409145
0.224954145 -0.0372125085 0.106790469 0.02827505
0.148805269 0.355048945 0.191791967 0.0339430294
-0.288143681 -0.357847534 -0.169715791 0.0343973322
0.0883708703 -0.11409849 0.277134129 0.0168756945
0.0899284425 0.0585270598 -0.0503539066 0.0192962713
0.115885638 -0.199609626 -0.0127825735 0.0782396592
0.228109271 0.00333422449 -0.100559844 0.0137317374
0.143023261 0.0741498578 0.0943887147 0.0493309076
0.283375624 -0.260285961 -0.217905139 0.0353838308
-0.0211251318 -0.14069388 0.0369890798 0.101286361
0.118878273 0.0400125758 0.0902290518 0.0400467036
0.250868791 -0.148941856 0.160798636 0.0112221982
0.173557736 0.325828882 0.20881758 0.0137651981
0.113545918 -0.455074871 -0.0335475164 0.0168900058
-0.298439983 -0.292711874 -0.112676655 0.0170426033
0.213641971 0.444744289 0.0693416453 0.00802251794
0.109677893 0.0119498976 -0.138095785 0.0126218228
-0.0311067552 0.0710995831 -0.068401491 0.0150242874
0.333694613 -0.292215713 -0.268229348 0.0176849959
-0.149921229 -0.0890252963 0.0840602517 0.0665256282
0.112805403 0.0391269608 -0.0842609378 0.0208190049
0.187439003 0.0355520776 0.0590551247 0.0614849409
-0.143318573 -0.46185968 -0.0590922885 0.0232285814
-0.301057141 -0.374981366 -0.180053683 0.0364689716
0.114424869 0.0231301698 0.16054149 0.0154355158
0.134782783 0.355619416 0.178777423 0.0210204964
0.195908747 0.458305219 0.101616867 0.0229952487
0.21716491 -0.0690418773 0.143763271 0.0200610618
0.232530107 -0.235499962 -0.183173994 0.0384984496
-0.101090762 -0.186389079 0.143299537 0.0579935275
-0.102859894 -0.118136689 -0.0714271825 0.0701034757
0.00660542344 -0.027632171 0.0978461544 0.0405587534
0.192299476 0.314417756 0.218968284 0.0105236478
0.191102462 0.0172757562 -0.0964756504 0.0185103311
0.204223004 0.106728319 0.068279266 0.069613688
0.113944852 -0.0886674503 0.237873305 0.0186082201
-0.340862274 -0.404574311 -0.20629634 0.0162767904
-0.256016797 -0.316375555 -0.1520592 0.0426208818
0.281612547 -0.0752621864 0.092526077 0.0179022956
-0.315830337 -0.410359335 -0.181420003 0.0218091905
0.14905216 -0.449932819 -0.0423710611 0.0147383457
0.155932688 0.329484432 0.14740385 0.0168726734
-0.175293726 -0.182632228 -0.0286732754 0.0901519085
0.142231544 -0.123455378 0.000163410549 0.0729331668
0.0843946248 -0.17863475 -0.0660051277 0.0775318955
0.255916222 0.117376951 0.0623282661 0.0273428622
-0.121118997 -0.406183402 -0.038515451 0.0394784088
-0.0279136813 0.0800224293 -0.0419372329 0.0160009338
0.153145882 -0.0757765541 0.199616424 0.0187293244
-0.12039546 -0.178300158 0.0348056508 0.138961845
0.16201543 0.124255666 0.136137453 0.0255893719
0.305107242 -0.287310208 -0.282265617 0.0176604741
0.17042763 0.469335724 0.0815100033 0.0113328088
0.22814605 0.0155620562 -0.0738956256 0.0126235017
0.154655687 -0.179314723 -0.0904054159 0.0521574633
0.288976204 0.142214717 0.144105874 0.0195127187
0.199118127 0.160082754 0.101607926 0.0510374294
-0.255520656 -0.22170549 0.00399430973 0.0352876041
0.218018525 0.168767247 0.0473179467 0.0274458358
0.11847633 -0.347276819 -0.031829663 0.0410546742
-0.286026341 -0.399351844 -0.189257042 0.0244319477
0.187307065 -0.0831400718 0.177354701 0.0190400883
0.132210658 0.35323377 0.156959877 0.0115594185
-0.000880414727 0.0822408253 -0.0232735388 0.0150756574
0.132306132 0.0683508455 -0.0107257855 0.0178595754
0.102697818 -0.00216728998 0.189382735 0.0162262028
-0.135523213 -0.223828795 -0.0979142472 0.0665807149
0.14428746 0.0196319271 -0.11177314 0.019181521
-0.166557297 -0.243972456 0.0707975585 0.0674871325
0.212651284 0.298028387 0.219044642 0.0126535843
0.154847009 0.0646382235 -0.00720046374 0.0192944119
0.130119738 0.0391811478 0.126075033 0.0285143218
0.2269842 0.128549247 0.107454899 0.0434839875
0.170026837 0.0732505842 0.0747672474 0.0692827423
0.150590422 0.0363247448 0.0815811171 0.0643385366
0.269034191 -0.141022416 0.139007574 0.0101243984
0.217774067 0.232724089 0.0134288838 0.0185970814
0.182481862 -0.147618952 0.220038805 0.0116574318
0.0678619046 0.044857352 -0.0867296213 0.0189770648
0.123453847 0.0756015211 0.0185385432 0.0206930646
-0.290932438 -0.389713056 -0.210914805 0.0223205387
0.198403078 0.298241422 0.198989575 0.0118337303
-0.133992905 -0.112953074 0.0114179061 0.0922532091
0.285109444 -0.294090932 -0.276624402 0.0164756768
-0.0594546493 -0.253122217 0.108066792 0.0655042533
-0.237815772 -0.207534516 0.0113760265 0.0471957975
0.141034121 0.343738675 0.129285741 0.0103036385
0.197226294 -0.202793795 -0.133256299 0.0382757949
0.246986639 -0.0634446625 0.115194179 0.0207788878
0.159705638 0.0675912534 0.0377551859 0.0436066375
0.298631796 -0.28776352 -0.246397631 0.0360372923
0.263137136 0.231713027 0.197585057 0.0180563976
-0.118483279 -0.446964915 -0.0665560454 0.0307853841
0.0893236889 -0.278940346 -0.0530141905 0.0199136207
-0.23818455 -0.301065537 -0.144841293 0.0464965932
0.117814239 0.0432982907 0.13874498 0.0163931981
0.15227207 -0.434327107 -0.0687250863 0.0156293243
0.31541676 -0.318283479 -0.235936531 0.0137443648
0.14134883 0.0856251154 0.101213865 0.0421137931
0.153685764 0.33081473 0.183067845 0.0303934136
0.145892665 -0.110869087 0.227915043 0.0171121273
0.224164231 0.206885229 0.0337234453 0.0152956217
0.196865545 -0.0267316877 0.0395274998 0.0389001192
0.145458222 0.00305439498 -0.144077883 0.0129233745
0.192862279 -0.00646058561 0.0708276547 0.0566006289
-0.135770543 -0.481702042 -0.0364697728 0.0153628419
0.287712854 0.129615353 0.0491186907 0.00971440177
-0.260353198 -0.407158156 -0.195617774 0.0108840095
0.0987083737 0.072194484 -0.0140289988 0.016944498
0.151129276 0.332914559 0.176616233 0.0297802763
-0.136484181 -0.0890607863 -0.0516696347 0.0626670173
-0.0976076025 -0.349183154 0.00993526078 0.0508068252
0.198360613 -0.0300633447 0.125173741 0.0270814606
0.029559505 0.0370755679 -0.1136442 0.012337803
0.103241924 -0.281313305 -0.0312497261 0.0369899353
0.0489388253 0.0674332336 -0.0405628142 0.0178098836
0.230664895 -0.110556178 0.157916704 0.0176329848
0.275064617 0.209625667 0.186980576 0.0189973448
-0.320668777 -0.391918263 -0.223615583 0.0166042969
0.228964265 0.28070798 0.214543201 0.015215719
-0.088771786 -0.29118247 -0.00847666307 0.0742130951
0.194995995 0.0829443996 0.0651767186 0.0728289233
0.0720498273 0.0889261519 0.0207419649 0.0130035191
0.107187611 0.00922820103 0.0805017334 0.0445172975
-0.0128561459 -0.0772967255 0.08130434 0.0595489422
0.204900818 0.147785196 0.0719172857 0.0493601383
0.181418452 0.486809496 0.0859147714 0.00986994446
0.202612025 -0.00880210091 -0.140658542 0.0138435709
0.0879267507 -0.0868134666 0.257396692 0.0175266548
0.248529964 0.258922516 0.214040666 0.0134814142
0.0426300656 -0.0861929761 0.0523420305 0.0881817161
0.291715319 0.161071512 0.160028073 0.0202674287
0.0536554262 -0.184029523 -0.0381574734 0.0953976187
0.158114322 -0.0395542381 0.0485635847 0.0634265543
0.177408817 -0.113357732 0.204363997 0.0174931274
0.295131756 -0.102511237 0.0966730756 0.0138553102
-0.273469624 -0.291173824 -0.137772937 0.031528186
0.16682783 0.309374126 0.130730594 0.00962881552
0.0991342896 -0.181601697 -0.134642252 0.0307301684
-0.0034293339 -0.199378392 -0.0589532352 0.0855007309
0.134509255 0.053088764 -0.0460374714 0.01889026
0.263202132 0.119433369 0.12106449 0.0222031295
0.210112844 0.270143773 0.17848188 0.00947183073
0.138761995 -0.0322243154 0.181021908 0.0183498047
-0.111974038 -0.172175644 -0.00531144931 0.138585734
0.180106194 0.298536863 0.0801913921 0.0114986079
0.1050889 -0.42334281 -0.0734250416 0.0271432933
-0.111281614 -0.349208695 -0.0059533585 0.0568591979
0.273442614 -0.303830301 -0.258150289 0.0162849861
0.158485344 0.0364590452 -0.0711707995 0.0195780313
0.110800693 -0.0253349407 0.0625988013 0.0625843914
0.179796233 0.266558319 0.156199649 0.0287874218
0.236938001 0.143408377 0.119843566 0.0304368723
0.0900792349 -0.023696754 0.214301743 0.0168970603
0.107585315 -0.358141772 -0.0491081791 0.0314903667
0.182461542 -0.00744425917 0.0902575532 0.0523466399
-0.0990778018 -0.349054024 -0.0368404042 0.033797755
-0.322325857 -0.290377558 -0.0940125678 0.0161294109
0.26519959 -0.247655194 -0.201954738 0.0368358298
-0.0303754344 -0.16808371 0.0195179612 0.119748397
0.0489280415 -0.185779688 -0.0552883568 0.0814935219
0.1326991 0.0284988079 0.133187829 0.0258540824
0.0944264125 -0.164733932 -0.0183160833 0.107947438
0.242365691 0.257522439 0.199043599 0.0161184918
0.189383879 0.455439487 0.0963353273 0.0210948771
0.153681121 -0.142557654 0.240303316 0.0140815802
-0.101989337 -0.47261519 -0.0361026033 0.0209246484
0.00523534541 0.0708054157 -0.0484888465 0.0166268764
0.182163752 0.293548903 0.0548953943 0.0118486519
0.194539082 0.0400737969 -0.0432002549 0.0156426416
-0.175322546 -0.200568122 -0.0541297307 0.0813876464
0.00685734262 -0.185884275 -0.00341851231 0.117727185
0.194087663 0.295451822 0.191958779 0.0134895477
0.159837331 0.120500535 0.103269896 0.0493250784
0.289150176 -0.13046497 0.113555197 0.0102385226
0.22805229 -0.151750361 0.180198652 0.0115625287
-0.259327684 -0.395918361 -0.219808139 0.00924029128
-0.277314051 -0.285081657 -0.144756766 0.0276989358
0.338738441 -0.306190421 -0.250149007 0.014042543
0.142764315 0.00622939063 0.148165965 0.0188396228
0.164806195 0.296861441 0.160409984 0.0286939499
0.188248028 -0.0773347111 0.00971886303 0.0384194511
0.217746548 0.196892979 0.0507834379 0.0137448986
-0.300127809 -0.387955095 -0.239557271 0.00977524323
0.295298452 -0.290145553 -0.24538578 0.0349556454
0.221659422 0.459177694 0.0769392683 0.00707277387
-0.124244543 -0.278961942 0.0357057438 0.0797045582
0.214143628 0.0432541145 -0.00147147309 0.0155329955
0.193394859 -0.00172635296 0.0402955775 0.0394934297
0.214354534 0.0427873838 -0.0227011901 0.0120568905
0.0959520525 -0.248327819 0.0258337429 0.0423046157
-0.0571485613 -0.197448893 -0.0149057074 0.131112439
0.209710255 0.251653994 0.0335255732 0.0163705835
0.191998049 0.226890235 0.130385966 0.0308912523
0.257998724 -0.10164408 0.127959562 0.0169543818
0.0920984291 -0.453712863 -0.0478821145 0.0149506118
0.0948216453 0.027229515 -0.113610472 0.0174718885
-0.29026397 -0.259826705 -0.0260530146 0.0175896844
0.108026735 -0.303170358 0.0107588184 0.0279360446
-0.133808886 -0.192768965 0.0428830707 0.122442922
0.0903770636 -0.177858234 -0.0695785297 0.0758682144
0.278238906 -0.318003381 -0.241534378 0.0150348213
0.157118216 0.067558457 0.0133416578 0.0271224762
0.144683996 -0.199489056 -0.148321608 0.0364657355
-0.0853897671 -0.220539628 0.130290854 0.0661111571
0.286187315 0.181901312 0.17200146 0.0199262146
0.201015316 0.201081593 0.123454199 0.0347973498
0.225755353 0.026826133 -0.0476969307 0.0116696212
0.0856828782 -0.230099564 -0.0267494352 0.0650786181
0.194151917 0.0564331688 0.0396749382 0.0524405048
-0.0775296748 -0.193185584 0.0118624659 0.148813485
-0.107784486 -0.412642119 -0.0223700461 0.0279259645
0.134483064 0.0776386873 0.0552074826 0.0387036077
0.207433647 0.219571673 0.111608057 0.0219026317
0.204743941 -0.125339134 0.188724407 0.016793406
0.167918487 0.313835576 0.0803237524 0.011031271
0.134442569 -0.272671337 -0.0134873397 0.0427230836
0.216789131 0.0425983525 -0.00820767452 0.0125640267
0.160271592 0.309362191 0.170311934 0.0283004552
-0.0874286936 -0.468863296 -0.0543044022 0.0141831108
0.165842868 0.000700876967 0.12099665 0.0344390456
0.0402850554 -0.144708303 0.0198488334 0.111777069
0.041112027 -0.187822056 -0.0345947326 0.0975311146
-0.310574487 -0.284922857 -0.0639066731 0.0137300246
0.152262825 0.331013528 0.106144943 0.0100297778
0.279318264 0.151630259 0.143684668 0.0215205713
-0.0377568439 -0.0875223019 0.082464501 0.051641846
0.0605932377 0.0794507023 -0.00520084029 0.0146618782
0.184318391 0.249629196 0.143244803 0.0299878236
0.174165135 0.291640462 0.172228309 0.0264199219
-0.00394372395 -0.189554729 -0.00498423199 0.11958601
0.0285215671 0.0838249952 -0.00716256303 0.014148786
0.266002922 0.14550203 0.13375039 0.0220932089
-0.100217682 -0.452894917 -0.0785336517 0.0159464924
0.142180266 0.0710162386 0.0944252874 0.049522506
-0.26991995 -0.388381329 -0.24191142 0.00640207716
-0.181570962 -0.234963763 -0.0498604481 0.0561288721
0.167876159 0.314395923 0.104503457 0.0115690297
0.0615853064 -0.0998060588 0.283964271 0.0141040735
0.0808396725 -0.0429674637 0.232662719 0.0171476965
0.185278716 -0.216024144 -0.156927374 0.0420789887
0 17
0 66
0 132
0 133
0 138
0 181
0 271
1 7
1 108
1 127
1 143
1 218
1 230
1 245
1 250
1 258
1 269
1 280
1 289
2 36
2 60
2 84
3 82
3 95
3 98
3 119
3 139
3 177
4 27
4 46
4 80
4 228
4 246
4 248
4 268
5 67
5 77
5 110
5 149
5 156
5 237
6 65
6 92
6 186
7 170
7 179
7 203
7 206
7 245
7 250
7 269
7 295
8 27
8 46
8 93
8 180
8 246
8 268
8 276
9 72
9 99
9 118
9 155
9 205
9 213
9 254
10 20
10 157
10 232
11 38
11 125
11 153
11 195
11 229
11 295
12 34
12 62
12 187
12 297
13 73
13 195
13 216
13 236
14 25
14 64
14 102
14 113
14 221
14 259
15 36
15 85
15 223
16 41
16 59
16 161
16 163
17 20
17 66
17 271
18 53
18 93
18 117
18 160
18 184
19 86
19 107
19 120
19 171
19 202
19 214
19 279
20 40
20 43
20 66
20 109
20 132
20 157
20 232
20 271
20 293
21 25
21 103
21 197
21 219
21 221
21 259
22 115
22 184
22 241
22 252
22 265
22 272
23 50
23 69
23 83
23 130
23 133
23 220
24 92
24 126
24 162
24 186
25 64
25 103
25 113
25 146
25 197
25 221
25 259
25 262
25 299
26 28
26 47
26 68
26 78
26 88
26 108
26 141
26 183
26 218
26 269
26 285
27 35
27 40
27 43
27 46
27 56
27 80
27 93
27 129
27 132
27 133
27 138
27 148
27 163
27 180
27 214
27 261
27 268
28 183
28 285
29 62
29 94
29 159
29 224
30 102
30 189
30 192
30 209
30 221
30 280
31 101
31 108
31 116
31 127
31 144
31 258
32 45
32 137
32 172
32 174
32 226
33 71
33 140
33 158
33 168
33 231
33 239
33 277
33 288
34 187
34 298
35 80
35 123
35 133
35 138
35 148
35 261
37 81
37 105
37 151
37 164
37 225
37 270
37 278
38 125
38 153
39 87
39 146
39 217
39 299
40 93
40 115
40 132
40 184
40 232
41 59
41 97
41 147
42 52
42 135
42 227
42 251
43 56
43 93
43 104
43 131
43 132
43 180
43 200
43 232
44 51
44 89
44 125
44 198
44 250
44 269
45 76
45 172
45 226
46 129
46 148
46 228
46 246
46 248
46 261
47 88
47 108
47 258
47 263
48 136
48 234
48 273
49 69
49 90
49 182
49 189
49 209
50 66
50 69
50 130
50 133
50 154
50 182
50 293
51 89
51 125
51 203
51 250
51 269
52 204
52 227
52 251
53 117
53 135
53 160
54 75
54 137
54 172
54 255
55 94
55 107
55 124
55 202
55 212
55 298
56 80
56 180
56 200
57 60
57 71
57 91
57 158
58 221
58 230
58 249
58 280
58 289
59 86
59 147
59 163
59 171
59 214
60 71
60 84
60 121
60 158
60 168
61 82
61 96
61 119
61 139
62 94
62 187
62 297
63 79
63 137
63 167
63 174
63 199
63 286
64 113
64 221
64 249
64 259
64 267
64 275
65 92
65 112
66 132
66 133
66 157
66 271
66 293
67 149
67 217
67 243
68 183
68 189
68 218
68 230
68 269
68 280
68 285
69 130
69 133
69 182
70 134
70 175
70 234
71 91
71 140
71 158
71 231
72 99
72 254
73 96
73 153
73 195
73 216
73 236
73 282
74 85
74 223
74 244
75 126
75 162
75 255
76 106
76 226
77 110
77 149
77 237
78 141
79 126
79 137
79 199
79 208
79 255
80 132
80 133
80 148
80 161
80 163
80 180
80 192
80 214
80 246
80 247
80 261
80 268
81 164
82 96
82 98
82 119
82 139
82 166
82 177
83 124
83 133
83 154
83 220
83 238
84 121
84 168
85 111
85 185
85 223
85 244
86 120
86 147
86 171
86 175
86 253
87 217
87 299
88 108
88 258
88 263
88 269
89 169
89 203
89 250
89 269
90 183
90 189
91 128
91 140
91 231
92 112
92 126
92 186
92 208
92 228
93 104
93 117
93 131
93 132
93 165
93 180
93 184
94 107
94 159
94 187
94 298
95 177
96 153
96 195
96 236
97 147
97 194
97 253
98 119
99 155
100 121
100 145
100 168
100 196
100 239
100 277
100 283
100 296
101 108
101 116
101 144
101 203
101 229
102 192
102 221
102 240
103 197
103 219
103 259
104 165
104 180
104 184
105 151
105 206
105 215
105 225
105 270
106 122
106 226
107 120
107 159
107 193
107 202
108 116
108 127
108 141
108 144
108 203
108 245
108 258
108 263
108 269
108 295
109 115
109 232
110 142
110 149
110 243
111 185
111 223
112 228
112 266
113 146
113 299
114 190
114 200
114 284
114 291
115 131
115 184
115 211
115 232
115 241
115 265
115 291
116 144
116 229
116 256
116 258
116 295
117 160
117 184
117 241
118 173
118 213
118 257
118 275
119 139
119 166
119 235
120 175
120 193
120 273
121 145
121 168
122 226
122 290
123 129
123 138
123 167
123 199
123 261
124 202
124 212
124 238
125 203
125 229
125 269
125 295
126 162
126 208
126 255
127 245
127 258
128 140
128 178
129 148
129 180
129 199
129 228
129 261
129 268
130 154
131 184
131 200
131 211
131 232
131 291
132 133
132 138
132 148
132 180
132 214
132 271
133 138
133 148
133 182
133 192
133 209
133 214
133 220
133 238
133 271
133 279
134 175
134 233
134 253
135 160
135 251
136 193
136 224
136 273
137 172
137 255
138 148
138 167
138 181
138 261
138 271
139 177
139 235
139 242
139 294
140 178
140 201
140 231
140 288
141 169
141 203
141 269
142 149
142 207
142 243
143 263
143 269
144 258
144 295
145 168
145 283
146 299
147 253
148 192
148 261
149 156
149 217
149 237
149 243
149 260
150 176
150 188
150 222
151 270
151 278
151 292
152 173
152 267
153 195
153 236
155 205
156 237
156 243
156 260
157 293
158 168
158 277
159 193
159 224
160 241
160 251
161 163
161 192
161 240
161 247
163 192
163 214
164 225
166 235
167 174
167 181
167 199
167 286
168 239
168 277
169 203
170 179
170 206
170 270
171 214
171 279
173 191
173 213
173 257
173 267
173 275
173 281
174 226
174 286
174 290
175 234
175 253
175 273
176 222
176 264
177 242
178 188
178 201
178 222
178 231
179 206
179 215
179 250
179 269
179 295
180 261
180 268
181 286
181 290
182 209
182 214
182 220
183 189
183 218
183 285
184 241
184 272
185 223
187 297
187 298
188 222
189 209
189 269
189 280
190 264
190 284
191 198
191 219
191 221
191 230
191 250
191 259
191 267
191 280
191 281
191 289
192 209
192 214
192 240
192 247
193 224
193 273
194 233
194 253
195 236
196 239
196 283
196 296
197 259
197 262
198 219
198 250
198 281
198 289
199 208
199 228
200 291
201 210
201 222
201 231
201 252
201 287
201 288
202 212
202 238
203 218
203 229
203 250
203 269
203 295
204 227
204 274
204 296
205 213
205 254
206 215
206 245
206 270
207 243
207 260
208 228
209 214
210 239
210 287
210 288
211 265
211 284
211 291
212 298
214 238
214 279
216 282
217 243
218 230
218 269
218 280
218 285
218 289
219 259
219 281
220 238
220 279
221 249
221 259
221 280
225 270
225 278
226 290
227 274
228 248
228 266
229 295
230 249
230 250
230 267
230 280
230 281
230 289
231 288
233 253
234 273
235 294
238 279
239 277
239 287
239 288
242 294
243 260
245 258
245 269
246 247
246 248
246 268
246 276
247 268
248 266
248 276
249 257
249 267
249 275
250 269
250 289
250 295
252 265
252 272
252 287
256 282
257 267
257 275
258 263
258 269
258 295
259 267
259 281
262 299
263 269
264 284
264 291
265 272
265 287
267 275
267 281
268 276
269 280
269 289
269 295
272 287
274 283
274 296
278 292
280 289
283 296
284 291
286 290
3 0 17 66
3 0 17 271
3 0 66 132
3 0 66 133
3 0 66 271
3 0 132 133
3 0 132 138
3 0 132 271
3 0 133 138
3 0 133 271
3 0 138 181
3 0 138 271
3 1 7 245
3 1 7 250
3 1 7 269
3 1 108 127
3 1 108 245
3 1 108 258
3 1 108 269
3 1 127 245
3 1 127 258
3 1 143 269
3 1 218 230
3 1 218 269
3 1 218 280
3 1 218 289
3 1 230 250
3 1 230 280
3 1 230 289
3 1 245 258
3 1 245 269
3 1 250 269
3 1 250 289
3 1 258 269
3 1 269 280
3 1 269 289
3 1 280 289
3 2 60 84
3 3 82 98
3 3 82 119
3 3 82 139
3 3 82 177
3 3 95 177
3 3 98 119
3 3 119 139
3 3 139 177
3 4 27 46
3 4 27 80
3 4 27 268
3 4 46 228
3 4 46 246
3 4 46 248
3 4 80 246
3 4 80 268
3 4 228 248
3 4 246 248
3 4 246 268
3 5 67 149
3 5 77 110
3 5 77 149
3 5 77 237
3 5 110 149
3 5 149 156
3 5 149 237
3 5 156 237
3 6 65 92
3 6 92 186
3 7 170 179
3 7 170 206
3 7 179 206
3 7 179 250
3 7 179 269
3 7 179 295
3 7 203 250
3 7 203 269
3 7 203 295
3 7 206 245
3 7 245 269
3 7 250 269
3 7 250 295
3 7 269 295
3 8 27 46
3 8 27 93
3 8 27 180
3 8 27 268
3 8 46 246
3 8 93 180
3 8 180 268
3 8 246 268
3 8 246 276
3 8 268 276
3 9 72 99
3 9 72 254
3 9 99 155
3 9 118 213
3 9 155 205
3 9 205 213
3 9 205 254
3 10 20 157
3 10 20 232
3 11 38 125
3 11 38 153
3 11 125 229
3 11 125 295
3 11 153 195
3 11 229 295
3 12 34 187
3 12 62 187
3 12 62 297
3 12 187 297
3 13 73 195
3 13 73 216
3 13 73 236
3 13 195 236
3 14 25 64
3 14 25 113
3 14 25 221
3 14 25 259
3 14 64 113
3 14 64 221
3 14 64 259
3 14 102 221
3 14 221 259
3 15 85 223
3 16 41 59
3 16 59 163
3 16 161 163
3 17 20 66
3 17 20 271
3 17 66 271
3 18 53 117
3 18 53 160
3 18 93 117
3 18 93 184
3 18 117 160
3 18 117 184
3 19 86 120
3 19 86 171
3 19 107 120
3 19 107 202
3 19 171 214
3 19 171 279
3 19 214 279
3 20 40 132
3 20 40 232
3 20 43 132
3 20 43 232
3 20 66 132
3 20 66 157
3 20 66 271
3 20 66 293
3 20 109 232
3 20 132 271
3 20 157 293
3 21 25 103
3 21 25 197
3 21 25 221
3 21 25 259
3 21 103 197
3 21 103 219
3 21 103 259
3 21 197 259
3 21 219 259
3 21 221 259
3 22 115 184
3 22 115 241
3 22 115 265
3 22 184 241
3 22 184 272
3 22 252 265
3 22 252 272
3 22 265 272
3 23 50 69
3 23 50 130
3 23 50 133
3 23 69 130
3 23 69 133
3 23 83 133
3 23 83 220
3 23 133 220
3 24 92 126
3 24 92 186
3 24 126 162
3 25 64 113
3 25 64 221
3 25 64 259
3 25 103 197
3 25 103 259
3 25 113 146
3 25 113 299
3 25 146 299
3 25 197 259
3 25 197 262
3 25 221 259
3 25 262 299
3 26 28 183
3 26 28 285
3 26 47 88
3 26 47 108
3 26 68 183
3 26 68 218
3 26 68 269
3 26 68 285
3 26 78 141
3 26 88 108
3 26 88 269
3 26 108 141
3 26 108 269
3 26 141 269
3 26 183 218
3 26 183 285
3 26 218 269
3 26 218 285
3 27 35 80
3 27 35 133
3 27 35 138
3 27 35 148
3 27 35 261
3 27 40 93
3 27 40 132
3 27 43 56
3 27 43 93
3 27 43 132
3 27 43 180
3 27 46 129
3 27 46 148
3 27 46 261
3 27 56 80
3 27 56 180
3 27 80 132
3 27 80 133
3 27 80 148
3 27 80 163
3 27 80 180
3 27 80 214
3 27 80 261
3 27 80 268
3 27 93 132
3 27 93 180
3 27 129 148
3 27 129 180
3 27 129 261
3 27 129 268
3 27 132 133
3 27 132 138
3 27 132 148
3 27 132 180
3 27 132 214
3 27 133 138
3 27 133 148
3 27 133 214
3 27 138 148
3 27 138 261
3 27 148 261
3 27 163 214
3 27 180 261
3 27 180 268
3 28 183 285
3 29 62 94
3 29 94 159
3 29 159 224
3 30 102 192
3 30 102 221
3 30 189 209
3 30 189 280
3 30 192 209
3 30 221 280
3 31 101 108
3 31 101 116
3 31 101 144
3 31 108 116
3 31 108 127
3 31 108 144
3 31 108 258
3 31 116 144
3 31 116 258
3 31 127 258
3 31 144 258
3 32 45 172
3 32 45 226
3 32 137 172
3 32 174 226
3 33 71 140
3 33 71 158
3 33 71 231
3 33 140 231
3 33 140 288
3 33 158 168
3 33 158 277
3 33 168 239
3 33 168 277
3 33 231 288
3 33 239 277
3 33 239 288
3 34 187 298
3 35 80 133
3 35 80 148
3 35 80 261
3 35 123 138
3 35 123 261
3 35 133 138
3 35 133 148
3 35 138 148
3 35 138 261
3 35 148 261
3 37 81 164
3 37 105 151
3 37 105 225
3 37 105 270
3 37 151 270
3 37 151 278
3 37 164 225
3 37 225 270
3 37 225 278
3 39 87 217
3 39 87 299
3 39 146 299
3 40 93 132
3 40 93 184
3 40 115 184
3 40 115 232
3 41 59 147
3 41 97 147
3 42 52 227
3 42 52 251
3 42 135 251
3 43 56 180
3 43 56 200
3 43 93 104
3 43 93 131
3 43 93 132
3 43 93 180
3 43 104 180
3 43 131 200
3 43 131 232
3 43 132 180
3 44 51 89
3 44 51 125
3 44 51 250
3 44 51 269
3 44 89 250
3 44 89 269
3 44 125 269
3 44 198 250
3 44 250 269
3 45 76 226
3 46 129 148
3 46 129 228
3 46 129 261
3 46 148 261
3 46 228 248
3 46 246 248
3 47 88 108
3 47 88 258
3 47 88 263
3 47 108 258
3 47 108 263
3 47 258 263
3 48 136 273
3 48 234 273
3 49 69 182
3 49 90 189
3 49 182 209
3 49 189 209
3 50 66 133
3 50 66 293
3 50 69 130
3 50 69 133
3 50 69 182
3 50 130 154
3 50 133 182
3 51 89 203
3 51 89 250
3 51 89 269
3 51 125 203
3 51 125 269
3 51 203 250
3 51 203 269
3 51 250 269
3 52 204 227
3 53 117 160
3 53 135 160
3 54 75 255
3 54 137 172
3 54 137 255
3 55 94 107
3 55 94 298
3 55 107 202
3 55 124 202
3 55 124 212
3 55 202 212
3 55 212 298
3 56 80 180
3 57 60 71
3 57 60 158
3 57 71 91
3 57 71 158
3 58 221 249
3 58 221 280
3 58 230 249
3 58 230 280
3 58 230 289
3 58 280 289
3 59 86 147
3 59 86 171
3 59 163 214
3 59 171 214
3 60 71 158
3 60 84 121
3 60 84 168
3 60 121 168
3 60 158 168
3 61 82 96
3 61 82 119
3 61 82 139
3 61 119 139
3 62 94 187
3 62 187 297
3 63 79 137
3 63 79 199
3 63 167 174
3 63 167 199
3 63 167 286
3 63 174 286
3 64 221 249
3 64 221 259
3 64 249 267
3 64 249 275
3 64 259 267
3 64 267 275
3 65 92 112
3 66 132 133
3 66 132 271
3 66 133 271
3 66 157 293
3 67 149 217
3 67 149 243
3 67 217 243
3 68 183 189
3 68 183 218
3 68 183 285
3 68 189 269
3 68 189 280
3 68 218 230
3 68 218 269
3 68 218 280
3 68 218 285
3 68 230 280
3 68 269 280
3 69 133 182
3 70 134 175
3 70 175 234
3 71 91 140
3 71 91 231
3 71 140 231
3 73 96 153
3 73 96 195
3 73 96 236
3 73 153 195
3 73 153 236
3 73 195 236
3 73 216 282
3 74 85 223
3 74 85 244
3 75 126 162
3 75 126 255
3 76 106 226
3 77 110 149
3 77 149 237
3 79 126 208
3 79 126 255
3 79 137 255
3 79 199 208
3 80 132 133
3 80 132 148
3 80 132 180
3 80 132 214
3 80 133 148
3 80 133 192
3 80 133 214
3 80 148 192
3 80 148 261
3 80 161 163
3 80 161 192
3 80 161 247
3 80 163 192
3 80 163 214
3 80 180 261
3 80 180 268
3 80 192 214
3 80 192 247
3 80 246 247
3 80 246 268
3 80 247 268
3 82 98 119
3 82 119 139
3 82 119 166
3 82 139 177
3 83 124 238
3 83 133 220
3 83 133 238
3 83 220 238
3 84 121 168
3 85 111 185
3 85 111 223
3 85 185 223
3 86 120 175
3 86 147 253
3 86 175 253
3 88 108 258
3 88 108 263
3 88 108 269
3 88 258 263
3 88 258 269
3 88 263 269
3 89 169 203
3 89 203 250
3 89 203 269
3 89 250 269
3 90 183 189
3 91 128 140
3 91 140 231
3 92 112 228
3 92 126 208
3 92 208 228
3 93 104 165
3 93 104 180
3 93 104 184
3 93 117 184
3 93 131 184
3 93 132 180
3 94 107 159
3 94 187 298
3 96 153 195
3 96 153 236
3 96 195 236
3 97 147 253
3 97 194 253
3 100 121 145
3 100 121 168
3 100 145 168
3 100 145 283
3 100 168 239
3 100 168 277
3 100 196 239
3 100 196 283
3 100 196 296
3 100 239 277
3 100 283 296
3 101 108 116
3 101 108 144
3 101 108 203
3 101 116 144
3 101 116 229
3 101 203 229
3 102 192 240
3 103 197 259
3 103 219 259
3 105 151 270
3 105 206 215
3 105 206 270
3 105 225 270
3 106 122 226
3 107 120 193
3 107 159 193
3 108 116 144
3 108 116 258
3 108 116 295
3 108 127 245
3 108 127 258
3 108 141 203
3 108 141 269
3 108 144 258
3 108 144 295
3 108 203 269
3 108 203 295
3 108 245 258
3 108 245 269
3 108 258 263
3 108 258 269
3 108 258 295
3 108 263 269
3 108 269 295
3 109 115 232
3 110 142 149
3 110 142 243
3 110 149 243
3 111 185 223
3 112 228 266
3 113 146 299
3 114 190 284
3 114 200 291
3 114 284 291
3 115 131 184
3 115 131 211
3 115 131 232
3 115 131 291
3 115 184 241
3 115 211 265
3 115 211 291
3 116 144 258
3 116 144 295
3 116 229 295
3 116 258 295
3 117 160 241
3 117 184 241
3 118 173 213
3 118 173 257
3 118 173 275
3 118 257 275
3 119 139 235
3 119 166 235
3 120 175 273
3 120 193 273
3 121 145 168
3 122 226 290
3 123 129 199
3 123 129 261
3 123 138 167
3 123 138 261
3 123 167 199
3 124 202 212
3 124 202 238
3 125 203 229
3 125 203 269
3 125 203 295
3 125 229 295
3 125 269 295
3 127 245 258
3 128 140 178
3 129 148 261
3 129 180 261
3 129 180 268
3 129 199 228
3 131 200 291
3 131 211 291
3 132 133 138
3 132 133 148
3 132 133 214
3 132 133 271
3 132 138 148
3 132 138 271
3 133 138 148
3 133 138 271
3 133 148 192
3 133 182 209
3 133 182 214
3 133 182 220
3 133 192 209
3 133 192 214
3 133 209 214
3 133 214 238
3 133 214 279
3 133 220 238
3 133 220 279
3 133 238 279
3 134 175 253
3 134 233 253
3 135 160 251
3 136 193 224
3 136 193 273
3 138 148 261
3 138 167 181
3 139 177 242
3 139 235 294
3 139 242 294
3 140 178 201
3 140 178 231
3 140 201 231
3 140 201 288
3 140 231 288
3 141 169 203
3 141 203 269
3 142 149 243
3 142 207 243
3 143 263 269
3 144 258 295
3 149 156 237
3 149 156 243
3 149 156 260
3 149 217 243
3 149 243 260
3 150 176 222
3 150 188 222
3 151 278 292
3 152 173 267
3 153 195 236
3 156 243 260
3 158 168 277
3 159 193 224
3 161 163 192
3 161 192 240
3 161 192 247
3 163 192 214
3 167 174 286
3 167 181 286
3 168 239 277
3 170 179 206
3 170 206 270
3 171 214 279
3 173 191 267
3 173 191 281
3 173 257 267
3 173 257 275
3 173 267 275
3 173 267 281
3 174 226 290
3 174 286 290
3 175 234 273
3 178 188 222
3 178 201 222
3 178 201 231
3 179 206 215
3 179 250 269
3 179 250 295
3 179 269 295
3 181 286 290
3 182 209 214
3 183 218 285
3 189 269 280
3 190 264 284
3 191 198 219
3 191 198 250
3 191 198 281
3 191 198 289
3 191 219 259
3 191 219 281
3 191 221 259
3 191 221 280
3 191 230 250
3 191 230 267
3 191 230 280
3 191 230 281
3 191 230 289
3 191 250 289
3 191 259 267
3 191 259 281
3 191 267 281
3 191 280 289
3 192 209 214
3 194 233 253
3 196 283 296
3 198 219 281
3 198 250 289
3 199 208 228
3 201 210 287
3 201 210 288
3 201 231 288
3 201 252 287
3 203 218 269
3 203 229 295
3 203 250 269
3 203 250 295
3 203 269 295
3 204 227 274
3 204 274 296
3 207 243 260
3 210 239 287
3 210 239 288
3 211 284 291
3 214 238 279
3 218 230 280
3 218 230 289
3 218 269 280
3 218 269 289
3 218 280 289
3 219 259 281
3 220 238 279
3 228 248 266
3 230 249 267
3 230 250 289
3 230 267 281
3 230 280 289
3 245 258 269
3 246 247 268
3 246 248 276
3 246 268 276
3 249 257 267
3 249 257 275
3 249 267 275
3 250 269 289
3 250 269 295
3 252 265 272
3 252 265 287
3 252 272 287
3 257 267 275
3 258 263 269
3 258 269 295
3 259 267 281
3 264 284 291
3 265 272 287
3 269 280 289
3 274 283 296
