ply
format ascii 1.0
element vertex 300
property float x
property float y
property float z
property float radius
element edge 844
property int vertex1
property int vertex2
element face 696
property list uchar int vertex_indices
end_header
0.301044 0.301547 0.244742 0.103623
0.555532 0.700852 0.415524 0.0343542
0.54025 0.496051 0.370309 0.0661664
0.510392 0.884514 0.49726 0.0338274
0.0339983 0.10178 0.117051 0.0302533
0.701499 0.207882 0.0201791 0.009366
0.538298 0.495651 0.157748 0.0148823
0.474667 0.0813441 0.246911 0.0384599
0.438009 0.391267 0.58239 0.0166321
0.213059 0.0242054 0.25131 0.0147405
0.558238 0.958366 0.402199 0.0218531
0.0380647 0.21006 0.213111 0.0166509
0.448203 0.432952 0.349535 0.0798425
0.155279 0.233197 0.191202 0.0482505
0.460359 0.338068 0.283177 0.105607
0.58957 0.645019 0.423104 0.0295501
0.145976 0.306868 0.323099 0.0641743
0.494073 0.25155 0.291696 0.0479792
0.657956 0.397184 0.396084 0.0145573
0.589399 0.674598 0.323383 0.0188301
0.450963 0.324462 0.241558 0.0828737
0.118596 0.196848 0.156352 0.046927
0.326059 0.576078 0.248993 0.01629
0.346813 0.325623 0.313101 0.11771
0.516599 0.832538 0.496747 0.0256396
0.245168 0.170878 0.308822 0.0609781
0.236474 0.350896 0.352224 0.121127
0.469407 0.365986 0.568969 0.0120089
0.582777 0.53961 0.282073 0.00798438
0.51669 0.843678 0.515606 0.0139232
0.297807 0.260573 0.342746 0.115595
0.672003 0.223536 0.0542787 0.0317821
0.0319882 0.216871 0.188014 0.0168069
0.358978 0.546864 0.199003 0.0116782
0.497434 0.42471 0.334234 0.0736937
0.511165 0.828604 0.47481 0.0281422
0.550989 0.94245 0.442947 0.0257078
0.204014 0.425083 0.396326 0.0519743
0.476565 0.132338 0.263681 0.0401953
0.0512511 0.114917 0.116212 0.0383654
0.585493 0.715466 0.314787 0.019481
0.412817 0.586701 0.307562 0.0122913
0.604358 0.469877 0.387697 0.0227903
0.572837 0.488818 0.16095 0.0138704
0.586313 0.782991 0.518438 0.0157151
0.254587 0.38501 0.230759 0.0703317
0.693449 0.207066 0.040832 0.0196947
0.0155983 0.086613 0.10682 0.0139104
0.471427 0.54774 0.435033 0.0116275
0.538644 0.53072 0.226623 0.0186254
0.615688 0.34824 0.460461 0.0100443
0.523934 0.793873 0.456946 0.0257275
0.430462 0.363922 0.312277 0.109519
0.526954 0.812768 0.377843 0.0112832
0.626961 0.616773 0.370664 0.0178649
0.236878 0.283825 0.209902 0.0705112
0.586385 0.945328 0.365273 0.00548984
0.500626 0.329722 0.23258 0.0629049
0.564577 0.426826 0.458554 0.0193704
0.587067 0.458142 0.413943 0.0253419
0.376504 0.583287 0.290742 0.0145788
0.330339 0.565225 0.226089 0.0148532
0.598418 0.499382 0.20783 0.00924239
0.648356 0.635266 0.440349 0.0171616
0.585996 0.679703 0.335146 0.0195973
0.269994 0.0227063 0.268031 0.016747
0.474134 0.04537 0.268625 0.0175237
0.259085 0.313452 0.450292 0.0546633
0.540181 0.343784 0.5249 0.00874305
0.534233 0.560714 0.291501 0.0159347
0.449632 0.482487 0.512154 0.0157043
0.465977 0.511219 0.160194 0.01188
0.510272 0.622407 0.408607 0.0409974
0.443594 0.505228 0.384818 0.0388154
0.102835 0.112982 0.0576846 0.00335684
0.166528 0.322291 0.286523 0.0766782
0.507476 0.874176 0.50836 0.0257469
0.565537 0.75786 0.339054 0.0168652
0.37509 0.568209 0.25053 0.017373
0.571514 0.533738 0.253787 0.0138306
0.598593 0.418431 0.435872 0.0198777
0.472496 0.518032 0.467639 0.0162307
0.46619 0.437681 0.526859 0.0176068
0.638725 0.204059 0.0247086 0.0147124
0.543107 0.990206 0.388447 0.00918627
0.559328 0.717507 0.437113 0.0290625
0.50158 0.36367 0.293838 0.0726687
0.519424 0.0648107 0.232252 0.01245
0.523716 0.50157 0.433364 0.0265758
0.588401 0.49112 0.178167 0.0136425
0.654518 0.370552 0.410403 0.0103563
0.489006 0.570691 0.291897 0.0172505
0.508711 0.355761 0.547447 0.0136553
0.655041 0.211715 0.0575168 0.036013
0.480907 0.862995 0.472998 0.00797774
0.0824971 0.0987309 0.110792 0.0199599
0.186625 0.321962 0.401156 0.0602949
0.711854 0.187444 0.052584 0.00671601
0.576521 0.506502 0.196533 0.0170972
0.567104 0.549421 0.288341 0.0140434
0.653759 0.630968 0.350218 0.00925809
0.645774 0.172661 0.0714947 0.0105513
0.424033 0.414631 0.581864 0.0197191
0.567943 0.346148 0.503778 0.0119153
0.224934 0.0123001 0.271942 0.0114958
0.202647 0.241879 0.168514 0.0436335
0.581411 0.769721 0.489729 0.00874307
0.482662 0.520765 0.183904 0.0188928
0.591059 0.527655 0.259003 0.00859706
0.649526 0.242287 0.0831717 0.0340783
0.500965 0.48057 0.471852 0.0181037
0.183726 0.318443 0.264267 0.0869426
0.597757 0.583379 0.308017 0.0186269
0.489222 0.863447 0.484814 0.0192021
0.352054 0.449441 0.396047 0.0477892
0.558813 0.612936 0.371676 0.0662721
0.263522 0.171213 0.274924 0.0444901
0.45011 0.262123 0.339407 0.0395766
0.492421 0.850032 0.442242 0.00943933
0.218767 0.417404 0.246478 0.0568297
0.552655 0.435686 0.318208 0.0369347
0.546716 0.78673 0.347039 0.0127988
0.471268 0.573718 0.296915 0.0164017
0.516572 0.0481622 0.26115 0.0115344
0.533913 0.773617 0.445789 0.0255977
0.515955 0.385314 0.52486 0.0178308
0.0468312 0.222142 0.173779 0.0177121
0.524643 0.807418 0.482443 0.0270343
0.227887 0.0533078 0.245217 0.0356334
0.00978643 0.0890249 0.0908743 0.00809686
0.555297 0.526289 0.327205 0.029515
0.46425 0.220341 0.333622 0.0217932
0.61808 0.62832 0.425255 0.025002
0.519918 0.46399 0.352474 0.0619877
0.458519 0.319221 0.163636 0.0282146
0.506908 0.55192 0.25915 0.0180536
0.621119 0.264334 0.114914 0.0327155
0.356785 0.473508 0.403776 0.0361469
0.513242 0.831839 0.452259 0.015578
0.682021 0.169774 0.0738466 0.00546997
0.107562 0.290387 0.307843 0.0355426
0.469465 0.586506 0.372511 0.0171182
0.423642 0.524158 0.171932 0.0119258
0.609015 0.755488 0.510146 0.0170571
0.582271 0.605471 0.393193 0.0566682
0.555789 0.776441 0.353593 0.0141514
0.322821 0.398939 0.372421 0.0635772
0.5552 0.813321 0.52445 0.0108079
0.109014 0.092467 0.103708 0.00861368
0.53644 0.308959 0.185025 0.044196
0.442908 0.536891 0.20279 0.0193173
0.562905 0.933932 0.36341 0.00398198
0.463629 0.501028 0.488222 0.0165043
0.569973 0.459325 0.428126 0.0234906
0.0482467 0.219302 0.244969 0.0127705
0.589446 0.34361 0.485098 0.00972332
0.295704 0.302955 0.307953 0.143904
0.636126 0.433583 0.393359 0.0194098
0.502138 0.53969 0.390728 0.0572884
0.45538 0.228139 0.262776 0.0321228
0.580376 0.708548 0.346712 0.00948589
0.437655 0.589916 0.330282 0.0143968
0.251849 0.0521593 0.220081 0.019239
0.461625 0.177438 0.255088 0.0261313
0.541614 0.554471 0.281334 0.0150602
0.564498 0.662016 0.376862 0.0420038
0.459298 0.0742932 0.217079 0.0188211
0.620388 0.171007 0.061175 0.00551724
0.637158 0.351045 0.435491 0.00592719
0.0673254 0.135553 0.127481 0.0364759
0.504088 0.432789 0.502554 0.0189665
0.298505 0.24853 0.418288 0.0618551
0.594545 0.516293 0.237624 0.0098236
0.41666 0.316213 0.267671 0.0979995
0.548875 0.953653 0.40098 0.0217252
0.544497 0.755751 0.455653 0.0278139
0.521221 0.62188 0.449715 0.0168359
0.47032 0.174996 0.299808 0.0300316
0.395259 0.532136 0.182449 0.0107937
0.449226 0.0410312 0.257689 0.0121009
0.0605304 0.20975 0.192722 0.0170404
0.0243504 0.103038 0.0716747 0.00910122
0.601573 0.570805 0.388336 0.0400124
0.511235 0.831464 0.406728 0.0104234
0.414261 0.569651 0.268953 0.017204
0.645497 0.674116 0.467551 0.0222944
0.389805 0.376192 0.337367 0.10477
0.491242 0.652387 0.387074 0.0155095
0.197907 0.269812 0.370206 0.0784525
0.226458 0.392412 0.312387 0.0894434
0.570697 0.747002 0.320441 0.0179522
0.0411173 0.10926 0.0578643 0.00603183
0.527002 0.83934 0.523344 0.00720353
0.626427 0.3922 0.424364 0.0154858
0.645163 0.697853 0.491178 0.0161675
0.533001 0.801381 0.424357 0.00457271
0.495438 0.58131 0.348293 0.0321348
0.568436 0.664666 0.414875 0.0396998
0.492786 0.386066 0.310797 0.080243
0.454459 0.556014 0.247244 0.0197693
0.543749 0.793499 0.378563 0.0119777
0.653921 0.658139 0.462568 0.0193873
0.509329 0.850626 0.504916 0.0246666
0.607891 0.373939 0.454402 0.0160011
0.0843617 0.108639 0.0815921 0.0135407
0.524471 0.969327 0.377495 0.00889629
0.0983204 0.208292 0.15742 0.0365952
0.403652 0.41117 0.58303 0.00876899
0.5811 0.589666 0.384995 0.0607223
0.56958 0.544165 0.305886 0.0210589
0.493959 0.596939 0.41332 0.029886
0.235596 0.0528131 0.248565 0.0361964
0.534617 0.920058 0.478423 0.0297682
0.479197 0.554857 0.398547 0.0341162
0.413654 0.553864 0.230108 0.0192892
0.535398 0.41436 0.490113 0.0189082
0.644364 0.234337 0.0799675 0.0358582
0.368371 0.301101 0.242098 0.0819226
0.580687 0.715611 0.399064 0.0121569
0.278323 0.0339437 0.236973 0.00961728
0.454128 0.570872 0.283922 0.0171764
0.114546 0.101612 0.08131 0.00460908
0.491794 0.195908 0.281401 0.0404529
0.461251 0.400866 0.559457 0.0188928
0.419892 0.387375 0.329932 0.103645
0.664413 0.21333 0.0159656 0.015366
0.504836 0.0722427 0.206854 0.00758817
0.054145 0.110858 0.0698239 0.0121575
0.498216 0.531445 0.361933 0.0434679
0.627323 0.723011 0.494106 0.0192483
0.467451 0.467267 0.504244 0.016245
0.601551 0.261261 0.113765 0.0397749
0.0978564 0.271076 0.301896 0.0299
0.268026 0.172685 0.329197 0.0573016
0.516379 0.827971 0.428288 0.0121031
0.483958 0.506451 0.377995 0.0535073
0.526206 0.566048 0.332269 0.0391536
0.494224 0.566533 0.39729 0.0443403
0.617412 0.254281 0.103857 0.0388746
0.530978 0.513488 0.1891 0.0189142
0.169663 0.217182 0.159664 0.0414363
0.426406 0.438667 0.559431 0.0183396
0.532235 0.653347 0.413993 0.0349724
0.223205 0.233059 0.349034 0.0775859
0.643314 0.650516 0.448369 0.0237706
0.571801 0.580924 0.298467 0.0136871
0.0724345 0.114554 0.0560834 0.00659681
0.071037 0.242144 0.278196 0.0188287
0.505768 0.501456 0.156303 0.0126541
0.57976 0.285398 0.149957 0.0361176
0.541008 0.946069 0.384215 0.010259
0.479793 0.404689 0.539874 0.0177082
0.393256 0.464225 0.386742 0.0536787
0.240925 0.102823 0.268193 0.0420431
0.490124 0.572126 0.29827 0.0179136
0.192692 0.291694 0.239219 0.081795
0.0994674 0.173315 0.1381 0.0361524
0.341323 0.580536 0.267657 0.0162326
0.490945 0.31439 0.194771 0.0594762
0.56899 0.385651 0.480096 0.0173725
0.531879 0.45616 0.465263 0.0191285
0.371717 0.508548 0.404606 0.0132924
0.416808 0.34099 0.305836 0.113067
0.507804 0.55824 0.389214 0.0579069
0.556126 0.589391 0.371357 0.0746228
0.215412 0.0403688 0.221352 0.0139651
0.0545297 0.210149 0.232464 0.0131599
0.553126 0.77192 0.470249 0.0204679
0.0611684 0.0760858 0.123975 0.00916292
0.44086 0.460175 0.533857 0.017833
0.454411 0.586875 0.331247 0.0186131
0.583776 0.654775 0.330869 0.0244571
0.552428 0.552227 0.350548 0.0570478
0.515397 0.558084 0.376073 0.0613581
0.512268 0.926553 0.486411 0.0183264
0.491292 0.623014 0.37345 0.0142605
0.255699 0.106148 0.288282 0.0336967
0.560746 0.277363 0.135845 0.0411212
0.458283 0.119911 0.2368 0.0215119
0.403875 0.267343 0.340159 0.051173
0.610739 0.62087 0.338203 0.0188443
0.489329 0.536057 0.441393 0.0198314
0.687481 0.187485 0.0590837 0.0128634
0.556819 0.799456 0.498969 0.0102067
0.543814 0.366769 0.511524 0.0148661
0.488351 0.537942 0.218997 0.0210301
0.591115 0.686105 0.317376 0.018291
0.534537 0.805141 0.399089 0.0107003
0.549912 0.544895 0.35892 0.0610485
0.524049 0.596421 0.434297 0.0174044
0.332049 0.449199 0.362933 0.028067
0.525017 0.289909 0.139625 0.0328608
0.206823 0.278938 0.309775 0.0845439
0.376715 0.5527 0.214716 0.0176201
0.542343 0.752481 0.439321 0.0277564
0.585674 0.955513 0.375349 0.0073786
0.626973 0.18658 0.0479185 0.0124127
0.568189 0.702224 0.431789 0.0279956
0.0463299 0.222795 0.154393 0.00752583
0.275348 0.282414 0.439174 0.0625625
0 45
0 55
0 156
0 217
1 85
1 165
1 197
1 218
1 242
1 294
1 297
2 42
2 59
2 88
2 120
2 130
2 133
2 153
2 158
2 228
2 235
2 264
2 272
2 273
2 288
3 24
3 35
3 76
3 113
3 202
3 212
3 274
4 39
4 47
4 129
4 181
4 227
4 268
5 46
5 97
5 225
6 43
6 239
6 248
7 38
7 66
7 87
7 123
7 166
7 179
7 226
7 278
8 27
8 102
8 207
8 223
9 104
9 128
9 211
9 265
10 36
10 56
10 84
10 151
10 174
10 250
10 295
11 32
11 126
11 154
11 180
11 266
12 34
12 52
12 73
12 133
12 186
12 224
12 235
12 252
13 21
13 105
13 206
13 240
13 255
14 17
14 20
14 52
14 57
14 86
14 117
14 159
14 173
14 198
14 258
14 262
15 132
15 144
15 197
15 208
15 244
16 26
16 75
16 96
16 111
16 140
16 188
16 232
16 292
17 117
17 131
17 159
17 222
18 90
18 157
18 193
19 64
19 271
19 286
20 52
20 134
20 173
20 217
20 258
20 262
21 169
21 180
21 206
21 240
21 256
22 61
22 78
22 257
23 26
23 30
23 146
23 156
23 173
23 186
23 217
23 262
23 279
24 29
24 35
24 113
24 127
24 147
24 192
24 202
24 283
25 116
25 156
25 233
25 243
25 253
25 276
26 37
26 67
26 75
26 96
26 146
26 156
26 186
26 188
26 189
26 299
27 92
27 223
27 251
28 79
28 99
28 108
28 209
29 192
29 202
30 156
30 171
30 188
30 233
30 243
30 279
30 299
31 46
31 93
31 109
31 216
31 225
31 282
32 126
32 180
32 298
33 61
33 178
33 293
34 52
34 120
34 133
34 198
34 224
35 51
35 94
35 113
35 118
35 127
35 138
35 202
36 174
36 212
36 274
37 189
38 163
38 177
38 222
38 278
39 95
39 169
39 181
39 191
39 204
39 227
39 268
40 64
40 77
40 160
40 190
40 286
41 60
41 161
41 184
41 220
41 270
42 59
42 157
43 89
43 98
43 239
44 106
44 143
44 147
44 283
45 55
45 111
45 119
45 156
45 189
45 255
46 93
46 97
46 225
46 282
47 129
48 81
48 158
48 213
48 237
48 281
49 62
49 79
49 98
49 135
49 164
49 172
49 239
49 285
50 155
50 168
50 203
51 124
51 127
51 138
51 175
51 195
51 234
51 267
52 186
52 198
52 224
52 262
53 121
53 183
53 200
53 287
54 100
54 115
54 144
54 208
54 280
55 105
55 156
55 255
56 151
56 295
57 86
57 149
57 258
58 80
58 153
58 215
58 259
58 260
59 80
59 153
59 157
60 78
60 184
60 257
61 78
61 293
62 79
62 89
62 98
62 172
63 132
63 201
63 244
64 160
64 165
64 271
64 286
65 104
65 211
65 219
66 123
66 179
67 156
67 188
67 299
68 92
68 103
68 284
69 91
69 135
69 164
69 209
69 236
69 254
69 272
70 152
70 230
70 269
71 107
71 142
71 150
71 248
72 115
72 144
72 176
72 187
72 197
72 210
72 237
72 242
72 264
72 275
72 289
73 158
73 235
73 252
73 261
74 204
74 221
74 246
75 111
75 119
75 140
75 189
75 232
75 255
75 292
76 113
76 202
77 121
77 145
77 160
77 190
78 184
78 214
78 257
78 293
79 98
79 99
79 108
79 164
79 172
80 153
80 157
80 193
80 203
80 259
81 88
81 110
81 152
81 281
82 170
82 223
82 230
82 241
82 251
82 269
83 93
83 225
83 296
84 174
84 205
85 175
85 197
85 218
85 242
85 267
85 294
85 297
86 120
86 198
87 123
87 226
88 110
88 153
88 158
88 235
88 260
88 281
89 98
90 168
90 193
91 122
91 135
91 199
91 220
91 236
91 254
92 125
92 251
92 284
93 101
93 109
93 139
93 167
93 216
93 225
93 282
93 296
94 113
94 118
95 148
95 169
95 204
95 268
96 188
97 139
97 282
98 172
98 239
99 164
99 209
99 272
100 208
100 280
101 139
101 167
101 296
102 207
102 223
102 241
103 155
103 259
103 284
104 128
104 211
105 240
105 255
106 143
106 175
106 229
106 267
106 283
107 150
107 239
107 248
107 285
108 172
109 136
109 216
109 238
110 152
110 170
110 230
110 260
111 119
111 140
111 189
111 232
111 255
111 292
112 115
112 208
112 245
112 264
112 272
112 280
113 118
113 202
114 137
114 146
114 186
114 252
114 290
115 144
115 165
115 176
115 187
115 197
115 208
115 242
115 264
115 271
115 275
115 280
115 289
116 156
116 233
116 253
116 276
117 131
117 262
117 279
118 138
118 183
118 234
119 189
120 133
120 198
121 145
121 190
121 200
122 196
122 220
122 254
122 270
124 175
124 195
124 267
124 294
125 170
125 215
125 251
125 284
126 180
126 206
126 298
127 147
127 175
127 192
127 267
127 283
128 162
128 211
128 253
128 265
129 181
130 209
130 288
131 159
131 173
131 177
131 222
131 262
132 144
132 208
132 244
133 228
133 235
134 258
134 291
135 164
135 199
135 254
135 285
136 231
136 238
136 249
137 252
137 261
138 195
138 234
139 282
140 232
140 292
141 161
141 196
141 237
141 263
141 270
141 273
141 275
142 150
142 178
143 229
144 165
144 176
144 197
144 208
144 264
144 271
144 280
144 289
145 200
146 156
146 186
146 290
147 192
147 283
148 204
148 221
149 249
149 258
149 277
149 291
150 178
150 199
150 214
150 285
151 174
151 250
151 295
152 230
153 260
154 247
154 266
155 203
155 259
156 173
156 186
156 189
156 217
156 233
156 243
156 255
156 262
156 279
156 292
156 299
157 193
158 213
158 228
158 235
158 237
158 263
158 273
158 281
159 163
159 173
159 177
159 222
159 279
160 165
160 190
161 220
161 270
162 211
162 219
162 253
162 265
163 177
163 222
163 278
164 209
164 236
164 254
164 272
165 197
165 218
165 242
165 271
165 297
166 179
166 226
166 278
167 296
168 193
168 203
169 204
169 206
169 256
170 215
170 230
170 251
170 260
171 188
171 243
171 299
173 217
173 262
173 279
174 205
174 250
175 267
175 294
176 210
176 242
176 264
176 289
177 222
178 214
178 293
180 206
180 266
181 191
181 227
182 208
182 264
182 272
183 234
183 287
184 199
184 214
184 220
185 194
185 201
185 229
185 244
186 224
186 252
186 262
186 290
187 242
187 264
187 275
188 243
188 292
188 299
191 227
191 246
192 202
193 203
194 201
194 229
195 200
195 234
195 287
196 236
196 254
196 264
196 270
196 273
196 275
197 242
197 264
197 297
199 214
199 220
199 285
200 287
201 244
203 259
204 221
204 227
204 246
205 250
206 256
206 298
207 241
208 264
208 272
208 280
209 245
209 272
209 288
210 237
210 263
210 289
211 219
211 253
211 276
212 274
213 237
213 263
214 293
215 259
215 260
215 284
216 238
218 294
218 297
220 270
223 241
223 251
224 252
227 246
228 235
228 236
228 273
230 269
231 238
231 249
231 277
232 247
232 255
233 243
233 276
234 287
236 254
236 264
236 272
236 273
236 288
237 263
237 275
239 248
239 285
241 269
243 292
243 299
245 264
245 272
247 266
249 277
252 261
252 290
253 276
254 273
255 292
258 277
258 291
259 284
262 279
263 264
263 273
263 275
263 281
263 289
264 270
264 271
264 272
264 273
264 275
264 280
264 289
267 283
271 280
271 286
272 273
272 288
273 288
277 291
3 0 45 55
3 0 45 156
3 0 55 156
3 0 156 217
3 1 85 197
3 1 85 218
3 1 85 242
3 1 85 294
3 1 85 297
3 1 165 197
3 1 165 218
3 1 165 242
3 1 165 297
3 1 197 242
3 1 197 297
3 1 218 294
3 1 218 297
3 2 42 59
3 2 59 153
3 2 88 153
3 2 88 158
3 2 88 235
3 2 120 133
3 2 130 288
3 2 133 228
3 2 133 235
3 2 158 228
3 2 158 235
3 2 158 273
3 2 228 235
3 2 228 273
3 2 264 272
3 2 264 273
3 2 272 273
3 2 272 288
3 2 273 288
3 3 24 35
3 3 24 113
3 3 24 202
3 3 35 113
3 3 35 202
3 3 76 113
3 3 76 202
3 3 113 202
3 3 212 274
3 4 39 181
3 4 39 227
3 4 39 268
3 4 47 129
3 4 129 181
3 4 181 227
3 5 46 97
3 5 46 225
3 6 43 239
3 6 239 248
3 7 38 278
3 7 66 123
3 7 66 179
3 7 87 123
3 7 87 226
3 7 166 179
3 7 166 226
3 7 166 278
3 8 27 223
3 8 102 207
3 8 102 223
3 9 104 128
3 9 104 211
3 9 128 211
3 9 128 265
3 10 36 174
3 10 56 151
3 10 56 295
3 10 84 174
3 10 151 174
3 10 151 250
3 10 151 295
3 10 174 250
3 11 32 126
3 11 32 180
3 11 126 180
3 11 154 266
3 11 180 266
3 12 34 52
3 12 34 133
3 12 34 224
3 12 52 186
3 12 52 224
3 12 73 235
3 12 73 252
3 12 133 235
3 12 186 224
3 12 186 252
3 12 224 252
3 13 21 206
3 13 21 240
3 13 105 240
3 13 105 255
3 14 17 117
3 14 17 159
3 14 20 52
3 14 20 173
3 14 20 258
3 14 20 262
3 14 52 198
3 14 52 262
3 14 57 86
3 14 57 258
3 14 86 198
3 14 117 262
3 14 159 173
3 14 173 262
3 15 132 144
3 15 132 208
3 15 132 244
3 15 144 197
3 15 144 208
3 16 26 75
3 16 26 96
3 16 26 188
3 16 75 111
3 16 75 140
3 16 75 232
3 16 75 292
3 16 96 188
3 16 111 140
3 16 111 232
3 16 111 292
3 16 140 232
3 16 140 292
3 16 188 292
3 17 117 131
3 17 131 159
3 17 131 222
3 17 159 222
3 18 90 193
3 18 157 193
3 19 64 271
3 19 64 286
3 19 271 286
3 20 52 262
3 20 134 258
3 20 173 217
3 20 173 262
3 21 169 206
3 21 169 256
3 21 180 206
3 21 206 256
3 22 61 78
3 22 78 257
3 23 26 146
3 23 26 156
3 23 26 186
3 23 30 156
3 23 30 279
3 23 146 156
3 23 146 186
3 23 156 173
3 23 156 186
3 23 156 217
3 23 156 262
3 23 156 279
3 23 173 217
3 23 173 262
3 23 173 279
3 23 186 262
3 23 262 279
3 24 29 192
3 24 29 202
3 24 35 113
3 24 35 127
3 24 35 202
3 24 113 202
3 24 127 147
3 24 127 192
3 24 127 283
3 24 147 192
3 24 147 283
3 24 192 202
3 25 116 156
3 25 116 233
3 25 116 253
3 25 116 276
3 25 156 233
3 25 156 243
3 25 233 243
3 25 233 276
3 25 253 276
3 26 37 189
3 26 67 156
3 26 67 188
3 26 67 299
3 26 75 189
3 26 96 188
3 26 146 156
3 26 146 186
3 26 156 186
3 26 156 189
3 26 156 299
3 26 188 299
3 27 92 251
3 27 223 251
3 28 79 99
3 28 79 108
3 28 99 209
3 29 192 202
3 30 156 233
3 30 156 243
3 30 156 279
3 30 156 299
3 30 171 188
3 30 171 243
3 30 171 299
3 30 188 243
3 30 188 299
3 30 233 243
3 30 243 299
3 31 46 93
3 31 46 225
3 31 46 282
3 31 93 109
3 31 93 216
3 31 93 225
3 31 93 282
3 31 109 216
3 32 126 180
3 32 126 298
3 33 61 293
3 33 178 293
3 34 52 198
3 34 52 224
3 34 120 133
3 34 120 198
3 35 51 127
3 35 51 138
3 35 94 113
3 35 94 118
3 35 113 118
3 35 113 202
3 35 118 138
3 36 212 274
3 38 163 177
3 38 163 222
3 38 163 278
3 38 177 222
3 39 95 169
3 39 95 204
3 39 95 268
3 39 169 204
3 39 181 191
3 39 181 227
3 39 191 227
3 39 204 227
3 40 64 160
3 40 64 286
3 40 77 160
3 40 77 190
3 40 160 190
3 41 60 184
3 41 161 220
3 41 161 270
3 41 184 220
3 41 220 270
3 42 59 157
3 43 89 98
3 43 98 239
3 44 106 143
3 44 106 283
3 44 147 283
3 45 55 156
3 45 55 255
3 45 111 119
3 45 111 189
3 45 111 255
3 45 119 189
3 45 156 189
3 45 156 255
3 46 93 225
3 46 93 282
3 46 97 282
3 48 81 281
3 48 158 213
3 48 158 237
3 48 158 281
3 48 213 237
3 49 62 79
3 49 62 98
3 49 62 172
3 49 79 98
3 49 79 164
3 49 79 172
3 49 98 172
3 49 98 239
3 49 135 164
3 49 135 285
3 49 239 285
3 50 155 203
3 50 168 203
3 51 124 175
3 51 124 195
3 51 124 267
3 51 127 175
3 51 127 267
3 51 138 195
3 51 138 234
3 51 175 267
3 51 195 234
3 52 186 224
3 52 186 262
3 53 121 200
3 53 183 287
3 53 200 287
3 54 100 208
3 54 100 280
3 54 115 144
3 54 115 208
3 54 115 280
3 54 144 208
3 54 144 280
3 54 208 280
3 55 105 255
3 55 156 255
3 56 151 295
3 57 149 258
3 58 80 153
3 58 80 259
3 58 153 260
3 58 215 259
3 58 215 260
3 59 80 153
3 59 80 157
3 60 78 184
3 60 78 257
3 61 78 293
3 62 79 98
3 62 79 172
3 62 89 98
3 62 98 172
3 63 132 244
3 63 201 244
3 64 160 165
3 64 165 271
3 64 271 286
3 65 104 211
3 65 211 219
3 67 156 299
3 67 188 299
3 68 92 284
3 68 103 284
3 69 91 135
3 69 91 236
3 69 91 254
3 69 135 164
3 69 135 254
3 69 164 209
3 69 164 236
3 69 164 254
3 69 164 272
3 69 209 272
3 69 236 254
3 69 236 272
3 70 152 230
3 70 230 269
3 71 107 150
3 71 107 248
3 71 142 150
3 72 115 144
3 72 115 176
3 72 115 187
3 72 115 197
3 72 115 242
3 72 115 264
3 72 115 275
3 72 115 289
3 72 144 176
3 72 144 197
3 72 144 264
3 72 144 289
3 72 176 210
3 72 176 242
3 72 176 264
3 72 176 289
3 72 187 242
3 72 187 264
3 72 187 275
3 72 197 242
3 72 197 264
3 72 210 237
3 72 210 289
3 72 237 275
3 72 264 275
3 72 264 289
3 73 158 235
3 73 252 261
3 74 204 221
3 74 204 246
3 75 111 119
3 75 111 140
3 75 111 189
3 75 111 232
3 75 111 255
3 75 111 292
3 75 119 189
3 75 140 232
3 75 140 292
3 75 232 255
3 75 255 292
3 76 113 202
3 77 121 145
3 77 121 190
3 77 160 190
3 78 184 214
3 78 214 293
3 79 98 172
3 79 99 164
3 79 108 172
3 80 157 193
3 80 193 203
3 80 203 259
3 81 88 110
3 81 88 281
3 81 110 152
3 82 170 230
3 82 170 251
3 82 223 241
3 82 223 251
3 82 230 269
3 82 241 269
3 83 93 225
3 83 93 296
3 84 174 205
3 85 175 267
3 85 175 294
3 85 197 242
3 85 197 297
3 85 218 294
3 85 218 297
3 86 120 198
3 88 110 260
3 88 153 260
3 88 158 235
3 88 158 281
3 90 168 193
3 91 122 220
3 91 122 254
3 91 135 199
3 91 135 254
3 91 199 220
3 91 236 254
3 92 125 251
3 92 125 284
3 93 101 139
3 93 101 167
3 93 101 296
3 93 109 216
3 93 139 282
3 93 167 296
3 94 113 118
3 95 148 204
3 95 169 204
3 97 139 282
3 99 164 209
3 99 164 272
3 99 209 272
3 100 208 280
3 101 167 296
3 102 207 241
3 102 223 241
3 103 155 259
3 103 259 284
3 104 128 211
3 106 143 229
3 106 175 267
3 106 267 283
3 107 150 285
3 107 239 248
3 107 239 285
3 109 136 238
3 109 216 238
3 110 152 230
3 110 170 230
3 110 170 260
3 111 119 189
3 111 140 232
3 111 140 292
3 111 232 255
3 111 255 292
3 112 115 208
3 112 115 264
3 112 115 280
3 112 208 264
3 112 208 272
3 112 208 280
3 112 245 264
3 112 245 272
3 112 264 272
3 112 264 280
3 114 137 252
3 114 146 186
3 114 146 290
3 114 186 252
3 114 186 290
3 114 252 290
3 115 144 165
3 115 144 176
3 115 144 197
3 115 144 208
3 115 144 264
3 115 144 271
3 115 144 280
3 115 144 289
3 115 165 197
3 115 165 242
3 115 165 271
3 115 176 242
3 115 176 264
3 115 176 289
3 115 187 242
3 115 187 264
3 115 187 275
3 115 197 242
3 115 197 264
3 115 208 264
3 115 208 280
3 115 264 271
3 115 264 275
3 115 264 280
3 115 264 289
3 115 271 280
3 116 156 233
3 116 233 276
3 116 253 276
3 117 131 262
3 117 262 279
3 118 138 234
3 118 183 234
3 121 145 200
3 122 196 254
3 122 196 270
3 122 220 270
3 124 175 267
3 124 175 294
3 125 170 215
3 125 170 251
3 125 215 284
3 126 180 206
3 126 206 298
3 127 147 192
3 127 147 283
3 127 175 267
3 127 267 283
3 128 162 211
3 128 162 253
3 128 162 265
3 128 211 253
3 130 209 288
3 131 159 173
3 131 159 177
3 131 159 222
3 131 173 262
3 131 177 222
3 132 144 208
3 133 228 235
3 134 258 291
3 135 164 254
3 135 199 285
3 136 231 238
3 136 231 249
3 137 252 261
3 138 195 234
3 141 161 270
3 141 196 270
3 141 196 273
3 141 196 275
3 141 237 263
3 141 237 275
3 141 263 273
3 141 263 275
3 142 150 178
3 144 165 197
3 144 165 271
3 144 176 264
3 144 176 289
3 144 197 264
3 144 208 264
3 144 208 280
3 144 264 271
3 144 264 280
3 144 264 289
3 144 271 280
3 146 156 186
3 146 186 290
3 148 204 221
3 149 249 277
3 149 258 277
3 149 258 291
3 149 277 291
3 150 178 214
3 150 199 214
3 150 199 285
3 151 174 250
3 154 247 266
3 155 203 259
3 156 173 217
3 156 173 262
3 156 173 279
3 156 186 262
3 156 233 243
3 156 243 292
3 156 243 299
3 156 255 292
3 156 262 279
3 158 213 237
3 158 213 263
3 158 228 235
3 158 228 273
3 158 237 263
3 158 263 273
3 158 263 281
3 159 163 177
3 159 163 222
3 159 173 279
3 159 177 222
3 161 220 270
3 162 211 219
3 162 211 253
3 163 177 222
3 164 209 272
3 164 236 254
3 164 236 272
3 165 197 242
3 165 197 297
3 165 218 297
3 168 193 203
3 169 206 256
3 170 215 260
3 171 188 243
3 171 188 299
3 171 243 299
3 173 262 279
3 174 205 250
3 176 210 289
3 176 264 289
3 178 214 293
3 181 191 227
3 182 208 264
3 182 208 272
3 182 264 272
3 183 234 287
3 184 199 214
3 184 199 220
3 185 194 201
3 185 194 229
3 185 201 244
3 186 224 252
3 186 252 290
3 187 264 275
3 188 243 292
3 188 243 299
3 191 227 246
3 195 200 287
3 195 234 287
3 196 236 254
3 196 236 264
3 196 236 273
3 196 254 273
3 196 264 270
3 196 264 273
3 196 264 275
3 204 227 246
3 208 264 272
3 208 264 280
3 209 245 272
3 209 272 288
3 210 237 263
3 210 263 289
3 211 253 276
3 213 237 263
3 215 259 284
3 228 236 273
3 231 249 277
3 236 254 273
3 236 264 272
3 236 264 273
3 236 272 273
3 236 272 288
3 236 273 288
3 237 263 275
3 245 264 272
3 258 277 291
3 263 264 273
3 263 264 275
3 263 264 289
3 264 271 280
3 264 272 273
3 272 273 288
