ply
format ascii 1.0
element vertex 300
property float x
property float y
property float z
property float radius
element edge 821
property int vertex1
property int vertex2
element face 642
property list uchar int vertex_indices
end_header
0.304851 0.250854 0.35366 0.10138
0.56975 0.66233 0.415809 0.0385806
0.54123 0.496244 0.370137 0.0654745
0.535171 0.920526 0.478046 0.0296313
0.035322 0.103679 0.116796 0.0314107
0.688213 0.211033 0.0159248 0.0111698
0.326761 0.577122 0.251053 0.0165554
0.516572 0.0481622 0.26115 0.0115344
0.426875 0.4062 0.583697 0.0190259
0.212041 0.038278 0.220924 0.0116133
0.558207 0.958334 0.402225 0.0218885
0.0315456 0.216954 0.187978 0.0166996
0.497145 0.544982 0.393316 0.052312
0.310695 0.298056 0.247809 0.104413
0.344102 0.322394 0.311559 0.119189
0.587025 0.579212 0.385798 0.0532794
0.228356 0.321692 0.334784 0.129656
0.466791 0.31416 0.286326 0.0915164
0.587712 0.493174 0.180551 0.0144421
0.583946 0.654509 0.330687 0.0242555
0.450122 0.324339 0.242354 0.0833229
0.118908 0.197049 0.156402 0.0469294
0.657956 0.397184 0.396084 0.0145573
0.586844 0.531955 0.263842 0.00953637
0.239379 0.344719 0.348594 0.126701
0.507367 0.875093 0.504147 0.0295643
0.147094 0.311787 0.315228 0.0665988
0.451807 0.384642 0.577704 0.0179092
0.343296 0.55328 0.209563 0.0113971
0.511098 0.886171 0.496792 0.0338014
0.674867 0.220024 0.0506653 0.0310777
0.550956 0.94232 0.443225 0.0257202
0.461991 0.339713 0.284324 0.10425
0.490672 0.501199 0.37366 0.0578765
0.469465 0.586506 0.372511 0.0171182
0.524412 0.809523 0.483619 0.0270092
0.594493 0.511032 0.226127 0.0106787
0.419821 0.383963 0.327831 0.104996
0.2448 0.17391 0.310776 0.0619013
0.232988 0.282198 0.209443 0.0703262
0.579578 0.455921 0.421773 0.0247052
0.371208 0.567091 0.246547 0.017273
0.59096 0.680212 0.318929 0.0179883
0.219098 0.416864 0.246775 0.0574004
0.513172 0.821557 0.470811 0.0269364
0.474584 0.081408 0.246854 0.0384814
0.608209 0.619699 0.341307 0.0223822
0.0515775 0.115024 0.116074 0.0384645
0.486562 0.539891 0.436699 0.021702
0.615688 0.34824 0.460461 0.0100443
0.328918 0.568651 0.231789 0.0162427
0.415425 0.587799 0.310632 0.0115393
0.0152867 0.0868419 0.106067 0.0137383
0.532809 0.65293 0.413726 0.0357175
0.502304 0.366672 0.295778 0.0722619
0.650216 0.650206 0.450627 0.0216882
0.574153 0.488443 0.161626 0.0136551
0.476685 0.131869 0.26358 0.0400814
0.509328 0.355883 0.546926 0.0138359
0.603771 0.4708 0.386651 0.0228751
0.527132 0.510015 0.181097 0.018428
0.588848 0.704878 0.314767 0.0194236
0.262274 0.306032 0.451444 0.0548854
0.0381423 0.210092 0.211091 0.0170626
0.71086 0.199404 0.0346678 0.00830062
0.589089 0.948996 0.366909 0.00545546
0.474134 0.04537 0.268625 0.0175237
0.101141 0.113929 0.0562262 0.00304491
0.525438 0.500496 0.432295 0.0270713
0.523799 0.817198 0.38668 0.0115437
0.539438 0.560476 0.307468 0.0242699
0.194156 0.291247 0.239246 0.0827623
0.270371 0.0223718 0.268018 0.0164128
0.370689 0.479678 0.401755 0.0366298
0.499778 0.330101 0.233993 0.0636864
0.654518 0.370552 0.410403 0.0103563
0.182181 0.317528 0.264129 0.0862627
0.478897 0.486238 0.482244 0.0158433
0.578697 0.729606 0.313878 0.0189702
0.204062 0.424982 0.396251 0.0520839
0.616724 0.627636 0.424397 0.0256239
0.482543 0.520949 0.184227 0.0189516
0.543107 0.990206 0.388447 0.00918627
0.709041 0.186457 0.0553506 0.00757909
0.57997 0.764362 0.481737 0.00509909
0.598396 0.417111 0.436928 0.0197938
0.564736 0.425326 0.459341 0.0193415
0.508858 0.482778 0.464877 0.0188825
0.620992 0.17076 0.0614859 0.00551056
0.450617 0.479795 0.513551 0.0166081
0.522904 0.842364 0.521945 0.00793643
0.565939 0.934389 0.362449 0.00365572
0.567554 0.549276 0.288887 0.0141751
0.197971 0.327428 0.388851 0.077217
0.438742 0.589917 0.330653 0.0147585
0.0824019 0.100332 0.110081 0.0209399
0.445106 0.560102 0.253746 0.0193542
0.560824 0.715966 0.436783 0.0285531
0.0491723 0.223093 0.170324 0.0169579
0.4722 0.517072 0.468723 0.0162763
0.567943 0.346148 0.503778 0.0119153
0.486345 0.862052 0.482262 0.0160177
0.653738 0.630982 0.350236 0.00925366
0.481305 0.55786 0.261544 0.0187227
0.655444 0.212218 0.0574876 0.0362143
0.202104 0.240899 0.167657 0.0430655
0.643901 0.631812 0.43574 0.015963
0.582039 0.283978 0.147782 0.0360065
0.646237 0.208573 0.0200468 0.0150826
0.376966 0.583319 0.290861 0.0146376
0.224934 0.0123001 0.271942 0.0114958
0.254245 0.384895 0.231201 0.0707472
0.444561 0.515863 0.164506 0.0104442
0.552918 0.435138 0.317586 0.0365437
0.261584 0.16731 0.275876 0.0445524
0.562269 0.762422 0.327752 0.0158173
0.614797 0.255361 0.10545 0.0390268
0.0932387 0.302886 0.307352 0.0201787
0.516179 0.383156 0.525946 0.0176374
0.44975 0.260374 0.342142 0.0367322
0.490522 0.568766 0.288766 0.0174243
0.422088 0.524864 0.172938 0.012177
0.00978643 0.0890249 0.0908743 0.00809686
0.46425 0.220341 0.333622 0.0217932
0.654355 0.239446 0.0781322 0.0333662
0.480773 0.863725 0.474838 0.00849163
0.496203 0.572297 0.305614 0.0195369
0.588004 0.780541 0.517321 0.0161289
0.63284 0.557448 0.385126 0.0144892
0.519424 0.0648107 0.232252 0.01245
0.56748 0.662365 0.372671 0.0403666
0.251598 0.0521747 0.220396 0.0194745
0.589446 0.34361 0.485098 0.00972332
0.625716 0.261996 0.110756 0.0324034
0.512717 0.832551 0.453404 0.0157422
0.038228 0.108378 0.0579496 0.00552726
0.486876 0.855553 0.451897 0.00804616
0.534888 0.770467 0.445162 0.0261298
0.353193 0.45257 0.397675 0.0470199
0.240288 0.100018 0.266652 0.0413799
0.646692 0.171655 0.0720381 0.00991915
0.41109 0.314534 0.265261 0.0957764
0.536855 0.308657 0.184509 0.0441076
0.0242968 0.103063 0.0709458 0.00875916
0.595011 0.519168 0.245035 0.00881285
0.508956 0.851361 0.504764 0.024957
0.540674 0.795143 0.356569 0.0123806
0.559035 0.809757 0.524039 0.0112915
0.470867 0.364171 0.568103 0.0112236
0.144344 0.303779 0.325858 0.0620779
0.539932 0.454962 0.459404 0.0194886
0.455222 0.228716 0.262795 0.0323328
0.557136 0.772749 0.347638 0.0157087
0.596947 0.583193 0.308947 0.0194976
0.646887 0.659244 0.456357 0.0235996
0.491632 0.402511 0.320749 0.0797075
0.460067 0.4988 0.492342 0.0158906
0.108995 0.0923326 0.103851 0.00857376
0.0673271 0.135556 0.127485 0.0364742
0.443728 0.537579 0.204528 0.0194174
0.287778 0.263118 0.428928 0.0631265
0.430454 0.363446 0.311934 0.109619
0.553717 0.609085 0.366846 0.0621131
0.316218 0.410941 0.382764 0.0495227
0.535267 0.775253 0.466358 0.0271421
0.636796 0.4327 0.393459 0.0192824
0.626427 0.3922 0.424364 0.0154858
0.566623 0.532274 0.247234 0.0148071
0.480291 0.447868 0.509228 0.0177876
0.540181 0.343784 0.5249 0.00874305
0.459752 0.124849 0.239574 0.0233367
0.583158 0.709929 0.394474 0.012288
0.3411 0.493323 0.409525 0.0138767
0.612845 0.752271 0.511014 0.0163448
0.496002 0.246564 0.291237 0.0453158
0.509674 0.623199 0.408504 0.040353
0.580525 0.705362 0.346914 0.0103013
0.524485 0.969331 0.377513 0.00890543
0.431215 0.577631 0.301101 0.0132599
0.556281 0.76769 0.468931 0.0189516
0.567302 0.544931 0.309582 0.0240669
0.533735 0.801578 0.423997 0.00385954
0.470226 0.175388 0.300181 0.0299149
0.449226 0.0410312 0.257689 0.0121009
0.40916 0.552689 0.226433 0.019077
0.642618 0.236578 0.0823287 0.0361139
0.197901 0.271053 0.370832 0.0785152
0.491665 0.194564 0.281088 0.0403057
0.50576 0.836706 0.415236 0.00992573
0.0528319 0.110546 0.0693226 0.0117522
0.64879 0.675649 0.4733 0.0202396
0.060393 0.209789 0.192682 0.0170707
0.607891 0.373939 0.454402 0.0160011
0.505882 0.449252 0.489716 0.0187989
0.226401 0.392687 0.311838 0.0891941
0.505402 0.501405 0.156065 0.0125524
0.155318 0.233282 0.191308 0.0482668
0.569185 0.581946 0.300352 0.0148127
0.461841 0.179152 0.255868 0.0265469
0.459516 0.0742933 0.217683 0.0191196
0.628868 0.189701 0.0456439 0.0138058
0.395753 0.531874 0.182077 0.0106395
0.235976 0.0516376 0.249225 0.0354936
0.591857 0.644951 0.423947 0.0283434
0.469978 0.510779 0.159895 0.0122946
0.629739 0.717389 0.490352 0.0194696
0.458601 0.319184 0.163988 0.028555
0.543386 0.794171 0.379898 0.0117664
0.108017 0.288031 0.307514 0.0365502
0.569255 0.750033 0.33852 0.0164646
0.114457 0.102051 0.0802175 0.0044596
0.278323 0.0339437 0.236973 0.00961728
0.423935 0.433946 0.56473 0.0185717
0.284601 0.280404 0.325991 0.137612
0.637158 0.351045 0.435491 0.00592719
0.490904 0.314406 0.194796 0.0594847
0.0976504 0.2081 0.157774 0.0365979
0.498887 0.580114 0.352186 0.0360729
0.454098 0.444322 0.530783 0.0168546
0.490665 0.622387 0.366219 0.0109736
0.504836 0.0722427 0.206854 0.00758817
0.547552 0.72066 0.421547 0.0267498
0.0686489 0.113908 0.0581001 0.00800969
0.535075 0.798385 0.448306 0.0159782
0.388559 0.376141 0.337915 0.104647
0.372741 0.302167 0.243406 0.0819593
0.581979 0.540049 0.285157 0.00846026
0.54889 0.95368 0.400963 0.021746
0.4674 0.57411 0.29455 0.015819
0.517211 0.456103 0.348077 0.0630325
0.0834891 0.108933 0.0811163 0.013626
0.46525 0.41668 0.544289 0.0187345
0.26808 0.172435 0.329415 0.0569844
0.520955 0.623692 0.441904 0.0224011
0.602567 0.26102 0.113352 0.0397285
0.456801 0.523455 0.388967 0.0314387
0.169439 0.217081 0.15961 0.0414518
0.400944 0.430376 0.365723 0.0775885
0.227778 0.053208 0.245202 0.0355515
0.568888 0.385154 0.480512 0.0173632
0.501448 0.607267 0.41177 0.0342306
0.423741 0.491959 0.38678 0.0431853
0.50998 0.842564 0.488592 0.0308189
0.266036 0.317984 0.282103 0.133926
0.456375 0.586415 0.331443 0.0188909
0.0975868 0.270655 0.301813 0.0296799
0.680327 0.171232 0.0731336 0.00680383
0.401738 0.411978 0.582726 0.00714356
0.640803 0.711198 0.49959 0.0141722
0.494205 0.564417 0.397351 0.0449866
0.494129 0.413537 0.52342 0.0186051
0.541345 0.945491 0.383641 0.00988817
0.39768 0.279489 0.330633 0.0667024
0.561873 0.276949 0.135189 0.0410689
0.0691173 0.239771 0.275681 0.0180414
0.408631 0.569596 0.266497 0.0173661
0.545136 0.555327 0.286558 0.0154091
0.0990186 0.172838 0.137928 0.0360666
0.445717 0.54228 0.39694 0.0127654
0.551097 0.523278 0.340671 0.0403534
0.539083 0.523537 0.211832 0.0192591
0.47226 0.388251 0.556013 0.0161862
0.456292 0.433367 0.348134 0.0791073
0.518182 0.82611 0.425175 0.0118187
0.512901 0.926343 0.486123 0.0188136
0.417265 0.342063 0.306214 0.112924
0.0456145 0.217475 0.241363 0.0125201
0.57886 0.593067 0.384326 0.0627597
0.522293 0.543869 0.248537 0.0178623
0.533272 0.414107 0.49232 0.0190859
0.435232 0.457523 0.539384 0.0167788
0.555495 0.800666 0.499351 0.0103763
0.562974 0.745707 0.421751 0.0150618
0.557999 0.683556 0.40682 0.0389577
0.0334591 0.0750092 0.124496 0.0109002
0.483445 0.577705 0.408098 0.0278964
0.0545283 0.209597 0.231383 0.0132479
0.626482 0.616647 0.370537 0.0181727
0.0779632 0.0775965 0.122128 0.00741499
0.207207 0.241916 0.363161 0.0706601
0.366934 0.545601 0.198697 0.0133471
0.548335 0.746127 0.45074 0.0283292
0.211723 0.0235016 0.250145 0.0134486
0.597832 0.758198 0.496791 0.0146597
0.540373 0.495142 0.157909 0.0148904
0.552484 0.550913 0.350367 0.0564205
0.525017 0.289909 0.139625 0.0328608
0.341491 0.580282 0.267658 0.0164862
0.254813 0.107151 0.287399 0.0348638
0.529449 0.836992 0.523777 0.00703001
0.609132 0.457016 0.400711 0.0220089
0.543932 0.366741 0.511454 0.0148689
0.521912 0.796725 0.460872 0.027291
0.550893 0.541103 0.355222 0.0569994
0.486987 0.537597 0.217794 0.0210998
0.580573 0.95606 0.379904 0.00926116
0.320039 0.394816 0.369903 0.0667164
0.491418 0.65244 0.387317 0.015603
0.506167 0.559945 0.391208 0.0564387
0.51419 0.551503 0.381482 0.0626704
0 160
0 213
0 232
0 252
1 53
1 80
1 97
1 130
1 175
1 203
1 233
1 267
1 273
2 33
2 40
2 59
2 68
2 113
2 229
2 259
2 285
2 290
2 293
2 299
3 29
3 31
3 264
4 47
4 52
4 122
4 143
4 189
4 274
5 30
5 64
5 104
5 108
6 41
6 50
6 287
7 45
7 66
7 129
8 27
8 212
8 231
8 247
9 131
9 238
9 282
10 31
10 82
10 91
10 227
10 251
10 295
11 63
11 98
11 191
12 33
12 48
12 68
12 235
12 249
12 258
12 298
12 299
13 14
13 39
13 111
13 213
13 225
13 243
14 24
14 141
14 213
14 224
14 225
14 243
14 252
14 265
15 128
15 267
15 285
15 299
16 24
16 26
16 62
16 71
16 76
16 93
16 149
16 160
16 186
16 194
16 208
16 213
16 279
17 20
17 32
17 74
17 119
17 123
17 141
17 151
17 174
17 265
18 36
18 56
18 60
18 260
19 42
19 46
19 61
19 130
19 162
20 32
20 141
20 161
20 206
20 215
20 225
20 265
21 158
21 191
21 196
21 216
21 236
21 257
22 75
22 165
22 166
23 92
23 144
23 167
23 226
24 62
24 79
24 93
24 163
24 186
24 194
24 213
24 224
24 243
24 296
25 29
25 101
25 145
26 71
26 76
26 117
26 149
26 208
26 245
27 148
27 231
27 261
28 41
28 50
28 280
29 101
29 145
29 242
29 264
30 64
30 83
30 104
30 108
30 124
31 227
31 264
32 54
32 74
32 155
32 161
32 215
32 265
33 48
33 68
33 229
33 235
33 241
33 262
33 293
33 299
34 94
34 217
34 244
34 249
34 298
34 299
35 44
35 90
35 145
35 147
35 164
35 179
35 242
35 271
35 289
35 292
36 144
36 167
36 260
37 155
37 161
37 224
37 237
37 262
37 265
38 114
38 139
38 213
38 232
38 279
38 288
39 71
39 105
39 196
39 243
40 59
40 68
40 85
40 86
40 150
40 290
41 50
41 109
41 184
41 255
41 280
41 287
42 61
42 130
42 176
43 76
43 111
43 194
43 243
44 101
44 134
44 136
44 223
44 242
44 263
44 292
45 57
45 66
45 129
45 170
45 183
45 199
45 220
46 102
46 130
46 153
46 162
46 267
46 277
47 95
47 135
47 143
47 158
47 189
47 230
47 274
47 278
48 68
48 99
48 249
48 298
49 132
49 192
49 214
51 94
51 109
51 178
51 255
52 122
52 274
53 97
53 162
53 175
53 233
53 273
53 297
54 74
54 113
54 155
55 80
55 106
55 154
55 190
55 203
56 60
56 284
57 170
57 182
57 187
57 198
58 118
58 148
58 169
58 261
58 291
59 165
59 290
60 81
60 195
60 260
60 284
60 294
61 78
61 176
61 209
62 93
62 160
62 186
62 213
63 191
63 266
63 276
64 83
64 104
65 91
65 295
66 183
67 210
67 222
67 230
68 87
68 99
68 150
68 299
69 146
69 181
69 188
69 207
69 263
70 120
70 126
70 162
70 180
70 197
70 217
70 256
70 285
71 76
71 105
71 196
71 213
71 243
72 110
72 202
72 211
73 138
73 172
73 237
73 241
74 142
74 215
75 166
75 214
76 111
76 194
76 208
76 243
76 245
77 87
77 89
77 99
77 156
77 168
77 193
78 115
78 176
78 209
79 194
80 106
80 154
80 203
80 267
81 112
81 159
81 195
81 204
81 294
82 177
82 227
83 104
83 246
84 127
84 179
84 271
84 281
84 283
85 86
85 165
85 166
85 192
85 239
85 290
86 150
86 239
86 269
87 99
87 150
87 193
88 104
88 140
88 200
89 156
89 168
89 218
89 270
90 145
90 242
90 289
91 227
91 251
91 295
92 167
92 180
92 197
92 226
92 256
92 285
93 186
94 178
94 244
95 157
95 158
95 230
95 278
96 103
96 159
96 178
96 184
96 228
96 255
96 294
97 179
97 221
97 272
97 273
97 281
98 191
98 216
99 156
100 132
100 169
100 239
100 291
101 125
101 136
101 145
101 242
102 267
102 277
103 120
103 228
103 268
103 294
104 108
104 124
104 140
104 185
104 200
104 246
105 196
105 236
106 267
107 133
107 142
107 234
107 253
108 200
109 178
109 255
109 287
110 202
110 238
110 282
111 194
111 243
112 121
112 159
112 204
113 155
113 229
114 139
114 213
114 232
114 288
115 146
115 152
115 209
116 124
116 133
116 185
116 234
117 208
118 250
118 261
118 269
118 291
119 123
119 252
119 265
120 126
120 228
120 256
120 268
121 159
121 201
122 143
123 141
123 151
123 174
123 182
123 187
123 265
124 133
124 185
125 136
126 217
126 228
126 244
126 285
126 299
127 147
127 173
127 179
127 271
127 283
128 267
129 220
130 162
130 171
130 176
130 203
130 267
130 273
131 139
131 202
131 211
131 238
132 192
132 239
133 185
133 234
134 136
134 188
134 223
134 242
134 263
134 292
135 143
135 189
135 222
136 188
136 242
137 164
137 179
137 181
137 221
137 223
137 272
137 281
137 292
138 163
138 172
138 224
138 237
138 296
139 202
139 238
139 288
140 200
140 246
141 151
141 213
141 225
141 252
141 265
142 215
142 253
142 286
143 189
144 167
145 242
146 152
146 207
147 271
147 289
148 261
149 186
149 208
149 245
150 193
150 269
151 174
151 182
151 187
151 198
151 252
152 207
152 209
153 162
153 197
153 267
153 285
154 190
154 203
154 205
155 161
155 229
155 262
157 210
157 230
157 278
158 216
158 230
158 257
159 184
159 201
159 294
160 213
161 224
161 265
162 175
162 197
162 217
162 219
162 267
162 273
162 277
162 285
162 297
162 299
163 296
164 179
164 271
164 281
164 292
165 166
165 290
166 192
166 214
167 256
167 260
167 268
168 193
168 218
168 231
168 250
169 291
170 198
170 199
171 221
171 272
171 273
173 205
173 248
173 283
174 187
175 219
175 233
175 240
175 267
175 297
175 298
176 209
177 227
177 251
178 228
178 244
178 255
179 271
179 281
180 197
180 226
180 256
180 259
180 285
180 293
181 207
181 223
181 263
181 292
182 187
182 198
183 199
184 201
184 255
184 280
186 213
186 279
187 198
188 263
189 222
189 230
190 205
190 248
191 216
191 276
192 214
192 239
193 250
193 269
194 243
195 204
195 284
196 216
196 236
197 285
199 220
201 280
202 211
202 238
202 282
202 288
203 267
205 248
205 283
206 215
206 286
207 263
208 245
210 230
212 218
212 231
212 247
212 270
213 224
213 225
213 232
213 243
213 252
213 279
213 296
215 253
215 286
216 257
217 219
217 244
217 298
217 299
218 231
218 270
219 240
219 297
219 298
221 272
221 273
221 281
222 230
223 263
223 292
224 237
224 243
224 252
224 265
224 296
227 251
228 244
229 262
231 250
231 261
232 279
232 288
233 240
233 267
233 298
233 299
234 253
235 241
235 258
237 241
237 262
238 282
239 269
239 291
240 249
240 275
240 298
240 299
241 262
242 289
245 254
249 275
249 298
250 261
250 269
252 265
253 286
254 266
254 276
256 268
256 285
259 293
260 268
260 294
263 292
266 276
267 277
267 285
267 298
267 299
268 294
269 291
271 289
272 273
272 281
274 278
275 298
285 293
285 299
293 299
298 299
3 0 160 213
3 0 213 232
3 0 213 252
3 1 53 97
3 1 53 175
3 1 53 233
3 1 53 273
3 1 80 203
3 1 80 267
3 1 97 273
3 1 130 203
3 1 130 267
3 1 130 273
3 1 175 233
3 1 175 267
3 1 203 267
3 1 233 267
3 2 33 68
3 2 33 229
3 2 33 293
3 2 33 299
3 2 40 59
3 2 40 68
3 2 40 290
3 2 59 290
3 2 68 299
3 2 113 229
3 2 259 293
3 2 285 293
3 2 285 299
3 2 293 299
3 3 29 264
3 3 31 264
3 4 47 143
3 4 47 189
3 4 47 274
3 4 52 122
3 4 52 274
3 4 122 143
3 4 143 189
3 5 30 64
3 5 30 104
3 5 30 108
3 5 64 104
3 5 104 108
3 6 41 50
3 6 41 287
3 7 45 66
3 7 45 129
3 8 27 231
3 8 212 231
3 8 212 247
3 9 131 238
3 9 238 282
3 10 31 227
3 10 82 227
3 10 91 227
3 10 91 251
3 10 91 295
3 10 227 251
3 11 63 191
3 11 98 191
3 12 33 48
3 12 33 68
3 12 33 235
3 12 33 299
3 12 48 68
3 12 48 249
3 12 48 298
3 12 68 299
3 12 235 258
3 12 249 298
3 12 298 299
3 13 14 213
3 13 14 225
3 13 14 243
3 13 39 243
3 13 111 243
3 13 213 225
3 13 213 243
3 14 24 213
3 14 24 224
3 14 24 243
3 14 141 213
3 14 141 225
3 14 141 252
3 14 141 265
3 14 213 224
3 14 213 225
3 14 213 243
3 14 213 252
3 14 224 243
3 14 224 252
3 14 224 265
3 14 252 265
3 15 128 267
3 15 267 285
3 15 267 299
3 15 285 299
3 16 24 62
3 16 24 93
3 16 24 186
3 16 24 194
3 16 24 213
3 16 26 71
3 16 26 76
3 16 26 149
3 16 26 208
3 16 62 93
3 16 62 160
3 16 62 186
3 16 62 213
3 16 71 76
3 16 71 213
3 16 76 194
3 16 76 208
3 16 93 186
3 16 149 186
3 16 149 208
3 16 160 213
3 16 186 213
3 16 186 279
3 16 213 279
3 17 20 32
3 17 20 141
3 17 20 265
3 17 32 74
3 17 32 265
3 17 119 123
3 17 119 265
3 17 123 141
3 17 123 151
3 17 123 174
3 17 123 265
3 17 141 151
3 17 141 265
3 17 151 174
3 18 36 260
3 18 56 60
3 18 60 260
3 19 42 61
3 19 42 130
3 19 46 130
3 19 46 162
3 19 130 162
3 20 32 161
3 20 32 215
3 20 32 265
3 20 141 225
3 20 141 265
3 20 161 265
3 20 206 215
3 21 158 216
3 21 158 257
3 21 191 216
3 21 196 216
3 21 196 236
3 21 216 257
3 22 75 166
3 22 165 166
3 23 92 167
3 23 92 226
3 23 144 167
3 24 62 93
3 24 62 186
3 24 62 213
3 24 79 194
3 24 93 186
3 24 163 296
3 24 186 213
3 24 194 243
3 24 213 224
3 24 213 243
3 24 213 296
3 24 224 243
3 24 224 296
3 25 29 101
3 25 29 145
3 25 101 145
3 26 71 76
3 26 76 208
3 26 76 245
3 26 117 208
3 26 149 208
3 26 149 245
3 26 208 245
3 27 148 261
3 27 231 261
3 28 41 50
3 28 41 280
3 29 101 145
3 29 101 242
3 29 145 242
3 30 64 83
3 30 64 104
3 30 83 104
3 30 104 108
3 30 104 124
3 32 54 74
3 32 54 155
3 32 74 215
3 32 155 161
3 32 161 265
3 33 48 68
3 33 68 299
3 33 229 262
3 33 235 241
3 33 241 262
3 33 293 299
3 34 94 244
3 34 217 244
3 34 217 298
3 34 217 299
3 34 249 298
3 34 298 299
3 35 44 242
3 35 44 292
3 35 90 145
3 35 90 242
3 35 90 289
3 35 145 242
3 35 147 271
3 35 147 289
3 35 164 179
3 35 164 271
3 35 164 292
3 35 179 271
3 35 242 289
3 35 271 289
3 36 144 167
3 36 167 260
3 37 155 161
3 37 155 262
3 37 161 224
3 37 161 265
3 37 224 237
3 37 224 265
3 37 237 262
3 38 114 139
3 38 114 213
3 38 114 232
3 38 114 288
3 38 139 288
3 38 213 232
3 38 213 279
3 38 232 279
3 38 232 288
3 39 71 105
3 39 71 196
3 39 71 243
3 39 105 196
3 40 59 290
3 40 68 150
3 40 85 86
3 40 85 290
3 40 86 150
3 41 109 255
3 41 109 287
3 41 184 255
3 41 184 280
3 42 61 176
3 42 130 176
3 43 76 111
3 43 76 194
3 43 76 243
3 43 111 194
3 43 111 243
3 43 194 243
3 44 101 136
3 44 101 242
3 44 134 136
3 44 134 223
3 44 134 242
3 44 134 263
3 44 134 292
3 44 136 242
3 44 223 263
3 44 223 292
3 44 263 292
3 45 57 170
3 45 66 183
3 45 129 220
3 45 170 199
3 45 183 199
3 45 199 220
3 46 102 267
3 46 102 277
3 46 130 162
3 46 130 267
3 46 153 162
3 46 153 267
3 46 162 267
3 46 162 277
3 46 267 277
3 47 95 158
3 47 95 230
3 47 95 278
3 47 135 143
3 47 135 189
3 47 143 189
3 47 158 230
3 47 189 230
3 47 274 278
3 48 68 99
3 48 249 298
3 49 132 192
3 49 192 214
3 51 94 178
3 51 109 178
3 51 109 255
3 51 178 255
3 53 97 273
3 53 162 175
3 53 162 273
3 53 162 297
3 53 175 233
3 53 175 297
3 54 113 155
3 55 80 106
3 55 80 154
3 55 80 203
3 55 154 190
3 55 154 203
3 56 60 284
3 57 170 198
3 57 182 187
3 57 182 198
3 57 187 198
3 58 118 261
3 58 118 291
3 58 148 261
3 58 169 291
3 59 165 290
3 60 81 195
3 60 81 294
3 60 195 284
3 60 260 294
3 61 78 176
3 61 78 209
3 61 176 209
3 62 93 186
3 62 160 213
3 62 186 213
3 63 191 276
3 63 266 276
3 64 83 104
3 65 91 295
3 67 210 230
3 67 222 230
3 68 87 99
3 68 87 150
3 69 146 207
3 69 181 207
3 69 181 263
3 69 188 263
3 69 207 263
3 70 120 126
3 70 120 256
3 70 126 217
3 70 126 285
3 70 162 197
3 70 162 217
3 70 162 285
3 70 180 197
3 70 180 256
3 70 180 285
3 70 197 285
3 70 256 285
3 71 76 243
3 71 105 196
3 71 213 243
3 72 110 202
3 72 202 211
3 73 138 172
3 73 138 237
3 73 237 241
3 74 142 215
3 75 166 214
3 76 111 194
3 76 111 243
3 76 194 243
3 76 208 245
3 77 87 99
3 77 87 193
3 77 89 156
3 77 89 168
3 77 99 156
3 77 168 193
3 78 115 209
3 78 176 209
3 80 106 267
3 80 154 203
3 80 203 267
3 81 112 159
3 81 112 204
3 81 159 294
3 81 195 204
3 82 177 227
3 83 104 246
3 84 127 179
3 84 127 271
3 84 127 283
3 84 179 271
3 84 179 281
3 85 86 239
3 85 165 166
3 85 165 290
3 85 166 192
3 85 192 239
3 86 150 269
3 86 239 269
3 87 150 193
3 88 104 140
3 88 104 200
3 88 140 200
3 89 168 218
3 89 218 270
3 90 145 242
3 90 242 289
3 91 227 251
3 92 167 256
3 92 180 197
3 92 180 226
3 92 180 256
3 92 180 285
3 92 197 285
3 92 256 285
3 94 178 244
3 95 157 230
3 95 157 278
3 95 158 230
3 96 103 228
3 96 103 294
3 96 159 184
3 96 159 294
3 96 178 228
3 96 178 255
3 96 184 255
3 97 179 281
3 97 221 272
3 97 221 273
3 97 221 281
3 97 272 273
3 97 272 281
3 98 191 216
3 100 132 239
3 100 169 291
3 100 239 291
3 101 125 136
3 101 136 242
3 101 145 242
3 102 267 277
3 103 120 228
3 103 120 268
3 103 268 294
3 104 108 200
3 104 124 185
3 104 140 200
3 104 140 246
3 105 196 236
3 107 133 234
3 107 142 253
3 107 234 253
3 109 178 255
3 110 202 238
3 110 202 282
3 110 238 282
3 111 194 243
3 112 121 159
3 113 155 229
3 114 139 288
3 114 213 232
3 114 232 288
3 115 146 152
3 115 152 209
3 116 124 133
3 116 124 185
3 116 133 185
3 116 133 234
3 118 250 261
3 118 250 269
3 118 269 291
3 119 123 265
3 119 252 265
3 120 126 228
3 120 256 268
3 121 159 201
3 123 141 151
3 123 141 265
3 123 151 174
3 123 151 182
3 123 151 187
3 123 174 187
3 123 182 187
3 124 133 185
3 126 217 244
3 126 217 299
3 126 228 244
3 126 285 299
3 127 147 271
3 127 173 283
3 127 179 271
3 130 162 267
3 130 162 273
3 130 171 273
3 130 203 267
3 131 139 202
3 131 139 238
3 131 202 211
3 131 202 238
3 132 192 239
3 134 136 188
3 134 136 242
3 134 188 263
3 134 223 263
3 134 223 292
3 134 263 292
3 135 143 189
3 135 189 222
3 137 164 179
3 137 164 281
3 137 164 292
3 137 179 281
3 137 181 223
3 137 181 292
3 137 221 272
3 137 221 281
3 137 223 292
3 137 272 281
3 138 163 296
3 138 224 237
3 138 224 296
3 139 202 238
3 139 202 288
3 141 151 252
3 141 213 225
3 141 213 252
3 141 252 265
3 142 215 253
3 142 215 286
3 142 253 286
3 146 152 207
3 147 271 289
3 149 208 245
3 150 193 269
3 151 174 187
3 151 182 187
3 151 182 198
3 151 187 198
3 153 162 197
3 153 162 267
3 153 162 285
3 153 197 285
3 153 267 285
3 154 190 205
3 155 229 262
3 157 210 230
3 158 216 257
3 159 184 201
3 161 224 265
3 162 175 219
3 162 175 267
3 162 175 297
3 162 197 285
3 162 217 219
3 162 217 299
3 162 219 297
3 162 267 277
3 162 267 285
3 162 267 299
3 162 285 299
3 164 179 271
3 164 179 281
3 166 192 214
3 167 256 268
3 167 260 268
3 168 193 250
3 168 218 231
3 168 231 250
3 171 221 272
3 171 221 273
3 171 272 273
3 173 205 248
3 173 205 283
3 175 219 240
3 175 219 297
3 175 219 298
3 175 233 240
3 175 233 267
3 175 233 298
3 175 240 298
3 175 267 298
3 177 227 251
3 178 228 244
3 180 197 285
3 180 256 285
3 180 259 293
3 180 285 293
3 181 207 263
3 181 223 263
3 181 223 292
3 181 263 292
3 182 187 198
3 184 201 280
3 186 213 279
3 189 222 230
3 190 205 248
3 193 250 269
3 202 238 282
3 206 215 286
3 212 218 231
3 212 218 270
3 213 224 243
3 213 224 252
3 213 224 296
3 213 232 279
3 215 253 286
3 217 219 298
3 217 298 299
3 219 240 298
3 221 272 273
3 221 272 281
3 223 263 292
3 224 252 265
3 231 250 261
3 233 240 298
3 233 240 299
3 233 267 298
3 233 267 299
3 233 298 299
3 237 241 262
3 239 269 291
3 240 249 275
3 240 249 298
3 240 275 298
3 240 298 299
3 249 275 298
3 254 266 276
3 260 268 294
3 267 285 299
3 267 298 299
3 285 293 299
