ply
format ascii 1.0
element vertex 300
property float x
property float y
property float z
property float radius
element edge 1098
property int vertex1
property int vertex2
element face 1393
property list uchar int vertex_indices
end_header
-0.296653135 -0.267253703 -0.0356679654 0.0153983362
-0.063882492 -0.243782208 0.042322448 0.113550745
0.158711951 0.404648679 0.190471644 0.0310105844
-0.339170847 -0.40798751 -0.193277302 0.0197868226
0.101999557 -0.277889292 -0.0321397687 0.0365623536
0.303117828 -0.271646127 -0.237863271 0.0328898844
0.10345559 0.0170777416 -0.130509138 0.0145975225
-0.143921747 -0.263243185 0.0544308379 0.0742877499
0.223305889 0.0837905912 0.0238724394 0.0360262367
0.114560263 -0.419115248 -0.0567487235 0.0385531304
0.0614167861 -0.0838092278 0.278867371 0.0192909354
-0.0661016798 -0.195498485 -0.0523355274 0.108590137
0.192692276 0.446692065 0.137107535 0.0241709148
0.161233152 0.0394914173 0.0374372995 0.0347212902
-0.110385895 -0.210431973 -0.0866492933 0.0751299644
0.247552611 0.128482948 0.118104432 0.0304676267
0.14161448 0.0787388836 0.0978580889 0.0455955561
0.0955246057 -0.176942395 -0.067595219 0.0783455259
0.223315063 -0.0072268443 -0.125335665 0.0141423262
0.216797926 0.0418031333 -0.0100942829 0.0115136462
0.0980751751 0.0386918426 0.0930990889 0.0234990618
-0.208857504 -0.194662172 0.0223352821 0.0680766436
-0.0290940065 0.0792043524 -0.0439912992 0.016567669
0.0925884513 -0.216603205 -0.0169339582 0.0792991477
0.259143787 0.11573125 0.11581226 0.0237511085
0.185676196 -0.0139720657 0.0511151107 0.0526700081
-0.156727492 -0.217676464 0.0621849016 0.0894858371
-0.048482071 -0.202385309 -0.0514913142 0.105358695
0.11704655 0.0825442557 0.036890768 0.0237330087
0.165990661 0.335231344 0.210553322 0.0146210543
0.147169297 0.376795254 0.197663518 0.0323847331
0.221225037 0.10884225 0.0499289266 0.0482610136
0.178993224 0.430046525 0.167090422 0.0276727747
-0.150274664 -0.0884911792 0.0842375749 0.0661526393
0.199281801 0.0518139074 0.0262696111 0.0405418715
0.288431915 0.156469999 0.153738957 0.0217750828
-0.198682222 -0.260138076 -0.107253228 0.0501871601
0.202337805 -0.207890801 -0.141858612 0.0388825956
0.151816355 0.333575266 0.182790157 0.030655102
0.229220914 0.20268402 0.0110794216 0.0181378801
0.160926293 0.0663790395 0.0141615071 0.0284706507
0.0113968845 -0.190500433 -0.0174516702 0.109573561
0.229312052 -0.0233004411 0.0810157669 0.0298213829
-0.127038793 -0.445553236 -0.0554760486 0.0374419311
-0.111440662 -0.17680936 0.0306679722 0.145390966
0.0453333164 -0.230305607 0.0429116268 0.0525722208
0.071202884 -0.0554197135 0.249593384 0.0183576831
0.120587554 0.0742129389 0.00186564471 0.0180352607
0.0865458139 0.0368280738 -0.0972585821 0.019989163
0.242365451 -0.149361309 0.16767657 0.0117349604
-0.166815828 -0.200615366 -0.052153345 0.0866642758
0.166161177 0.123901254 0.0982702587 0.054396338
0.190727168 0.282846694 0.0469012315 0.0139574355
-0.11228103 -0.172161161 -0.00365058711 0.139028973
0.152670366 -0.180860256 -0.094670157 0.0540601487
0.256092944 -0.242320039 -0.194587213 0.0373923471
0.0842664673 -0.111276295 0.278766446 0.0168400049
0.159986271 0.314028595 0.178069901 0.0290257833
0.210039276 0.0456448325 -0.0224412314 0.0126434763
0.0494432475 0.0845752138 0.0020039294 0.0118631038
-0.113450056 -0.108355125 -0.0677835872 0.0682545723
0.106010339 -0.0999311246 0.0244347003 0.0895603723
0.148764827 0.351946454 0.190582219 0.0331275616
0.0693837419 -0.214182368 -0.0384117173 0.0719126917
-0.259805275 -0.322053833 -0.159964198 0.0379963246
-0.142322296 -0.460834543 -0.0588542166 0.0241631645
0.269866548 0.125471239 0.12662636 0.0195115303
-0.325093045 -0.401199362 -0.184618452 0.0286171995
0.126148843 0.0412350338 -0.0759248258 0.0202369679
0.113671912 0.0262001497 0.157523349 0.0147359349
-0.216195649 -0.190796849 0.002177324 0.0619455712
0.109881616 -0.179278615 -0.0867662308 0.0671764388
0.0093787394 0.082942203 -0.0174851995 0.014418541
-0.287319945 -0.357093186 -0.168764714 0.0342718292
0.145991287 0.338043213 0.119753318 0.00999171264
0.113925424 -0.130272308 0.263086829 0.0135971792
0.294514833 -0.116423018 0.102968088 0.0119692033
0.23723866 0.0776554269 0.0856485979 0.0453561204
0.170118702 0.0180847244 -0.103743674 0.0191522024
0.139422849 0.0594541518 0.0958516317 0.0503099787
-0.0281031429 0.0659528008 -0.073923593 0.0139680069
-0.301736425 -0.375308311 -0.179948601 0.0360930865
-0.0994361835 -0.195334343 0.142147807 0.0603928718
-0.131426188 -0.224919906 -0.107577533 0.0580744753
0.136104013 -0.447197037 -0.041697634 0.0201631429
0.321135796 -0.287852155 -0.258945679 0.0276999396
0.209976461 -0.150983535 0.198091612 0.0117735743
0.188183415 0.454354321 0.0954088423 0.0202157669
-0.317018527 -0.3921955 -0.18622941 0.0352702902
0.149810798 -0.116052566 0.00209866159 0.0672259838
0.168648895 0.110872271 0.0938413208 0.058010268
0.142169267 0.0864334616 0.101310245 0.0422918045
0.167396264 0.318564645 0.196473327 0.0223251219
0.220510012 0.226561796 0.0120972981 0.0187961448
0.149352262 -0.200546527 -0.145169883 0.039844453
0.0708733778 -0.180106102 -0.0431518704 0.0927635516
0.257461485 0.114560521 0.0659195672 0.0263545895
-0.172981406 -0.269793754 -0.137741667 0.0418789808
-0.0523829866 -0.183113987 0.0496103059 0.104045972
0.187554795 -0.0697609741 0.0161876769 0.0401143224
0.261452931 -0.0482462288 0.0908062267 0.0191654581
-0.33321556 -0.398216096 -0.216641483 0.0157560864
0.0362533286 0.0355260795 -0.113326867 0.0126575749
0.0301925572 -0.075150075 0.0654898753 0.0785391967
0.057076746 0.0530643197 -0.0732477136 0.019506817
-0.140514791 -0.0861360935 -0.0452475352 0.0619693747
0.211435223 0.0841571045 -0.00132311323 0.0180499804
0.132730309 0.0786251071 0.0446371801 0.0332181695
0.127623225 0.021322028 0.0820520861 0.052414092
0.199698734 0.0406189929 0.0219964279 0.0316241232
0.179150504 0.0354036676 -0.0641909866 0.0175483917
0.136049204 0.356275865 0.181984175 0.0232356364
0.199393683 0.458744435 0.0981973437 0.0205736132
0.147382348 -0.137948697 0.246639445 0.0167864658
0.130709825 0.00933716372 -0.13737622 0.0143109147
0.190598302 -0.218629187 -0.161479271 0.0410314655
0.100400785 -0.453836157 -0.0412521783 0.0169991255
0.0245886322 0.0698461327 -0.0548442286 0.0215681505
0.156341541 0.0596439685 -0.0228497855 0.0162712162
0.0886029778 -0.178359912 -0.0782725668 0.0685079924
0.255034906 0.119851252 0.046056471 0.0217111089
0.223112906 0.154795131 0.0307246851 0.0270278001
0.113040564 -0.0821423081 0.234465207 0.0186635891
0.204148425 0.272236178 0.175957487 0.0128803261
0.00710822761 0.0475088393 -0.0990350328 0.0142458915
-0.0728463948 -0.226360052 0.0283173013 0.132302616
0.305026176 -0.287164817 -0.281192251 0.018193607
0.191960614 0.315539597 0.220047102 0.00947891319
0.161227048 0.1242309 0.124613529 0.0333490249
0.20994229 0.183502518 0.0887471412 0.0314401911
0.0747286188 0.0895181602 0.0229947481 0.0135447105
0.271889516 -0.139771968 0.135130512 0.00974935682
0.103931095 -0.00129093019 0.188040713 0.0162010231
0.163489054 0.318391178 0.0875587534 0.0109984465
0.0979471863 0.0604886631 -0.0427880142 0.0187705687
-0.120417975 -0.17610868 0.0374327526 0.137225718
-0.291696509 -0.39543976 -0.188211103 0.0286828875
-0.111209057 -0.356741454 -0.0082426645 0.0534807872
0.133615723 -0.267407043 -0.0125569016 0.0439395002
0.201451827 0.0998761001 0.0726287627 0.0746027434
0.199611166 -0.00852340401 -0.140128065 0.0138271793
0.280416539 0.148778474 0.147860003 0.0254534006
0.113030581 -0.152435897 -0.0128314298 0.0954649275
0.183699805 -0.0592491015 0.16453562 0.0191230156
0.135917416 0.350794348 0.155539612 0.0130149249
0.150847303 -0.435618731 -0.0645134991 0.0171827219
0.226650454 0.0246789611 -0.055162176 0.0114290864
0.180250146 0.484609007 0.0861262448 0.0103563458
0.165533019 0.000221501151 -0.142505973 0.0141938822
0.235365796 -0.113064911 0.155386297 0.0175298356
-0.326091458 -0.280117569 -0.120215823 0.015534626
0.271775031 0.217202205 0.1907959 0.0182838423
-0.317336785 -0.390837857 -0.232959193 0.0123733182
-0.0712624137 -0.237366236 0.121240144 0.0651767677
-0.00513522162 0.0605233661 -0.0809226977 0.0170114526
0.00156991332 -0.198223807 -0.0598822765 0.0832047578
0.162239172 -0.0922140966 0.203095914 0.0186184903
-0.13520478 -0.480155912 -0.0372906271 0.0165191769
0.118540084 -0.339618813 -0.0295565696 0.0420990097
0.17687426 -0.142387875 0.221442007 0.0134497765
0.112420824 -0.0235645929 0.0629931602 0.0620180547
-0.286343665 -0.415980644 -0.183568948 0.0130669904
-0.247602383 -0.300766274 -0.144283603 0.0452909713
0.28732488 0.129265264 0.0492049095 0.0097105534
-0.0504130639 -0.0997796773 0.0752945443 0.0606124443
0.297892766 -0.288399865 -0.246110516 0.0356960722
0.220398927 -0.0663355169 0.139319854 0.0203091526
0.164470743 0.0900014247 0.086752035 0.0605112264
0.124894803 -0.182024882 -0.0955989057 0.0638240729
-0.0830717985 -0.181286598 -0.0391360259 0.11786531
0.156098645 0.317916328 0.174618585 0.0289646873
-0.121632575 -0.410140693 -0.0405425049 0.0391709783
0.226352848 0.172721234 0.0316228998 0.0218823042
0.196115206 0.3058719 0.20576297 0.0111321156
0.153649799 0.052888353 0.081659564 0.0622821241
-0.138817184 -0.212640321 -0.0741409678 0.0831185381
0.278991173 -0.25687527 -0.212937246 0.0350726875
0.165153211 0.297368221 0.162297555 0.0285579401
-0.0834463934 -0.293682649 -0.023584596 0.0617447601
0.157743752 0.322360206 0.183125243 0.0289990517
0.13006447 0.0783245738 0.0634014754 0.0362812633
0.0861229611 -0.247017053 -0.0363225085 0.0472525633
0.104538201 0.0880176061 0.0492924853 0.0172827774
0.114716344 -0.187182557 -0.0136669891 0.0839677567
0.166496926 0.316504916 0.104303226 0.0114401774
0.195124459 0.457909518 0.101678526 0.0238089822
0.235566816 -0.235141705 -0.182238303 0.0387933547
0.0534116601 -0.184164524 -0.0546894084 0.0820290539
0.133431853 0.0466624227 0.109077173 0.0404184657
0.235890928 0.142540623 0.120299835 0.0300370085
0.119448184 0.0443819141 0.135711063 0.0176025661
0.293146276 -0.30432933 -0.240660873 0.025278393
0.217980902 0.29214374 0.217853791 0.0136430201
0.252179418 -0.0907442197 0.12593346 0.0191678739
-0.101909331 -0.470040158 -0.0385540216 0.0221988393
-0.262405229 -0.404916835 -0.200018481 0.0118114066
0.162093287 0.307676375 0.133782808 0.016060558
0.0524194475 -0.184578165 -0.0419029703 0.0924182959
-0.30806202 -0.386714355 -0.196298478 0.0336024318
0.0632687919 0.0726042838 -0.023197026 0.0165188008
0.28281048 -0.303438328 -0.248661615 0.0229698262
0.149511787 0.338728695 0.17929756 0.0306060224
0.119559932 -0.169288661 -0.0566282388 0.0808495318
0.231323607 0.180188371 0.0136908356 0.0170377483
0.202534217 -0.108279471 0.180346566 0.0180146821
-0.17483051 -0.182885822 0.0239137628 0.0952481202
0.333640262 -0.320064278 -0.237929487 0.00903323845
0.00196195782 -0.182734015 0.00224350891 0.119402422
0.282847099 -0.295454208 -0.272061727 0.0178609613
0.183619047 0.065111095 0.0624125913 0.0712077184
-0.292343488 -0.388066331 -0.237143048 0.0102017175
0.136563024 0.101714297 0.111293422 0.0305749325
0.144345614 -0.0464064175 0.187237621 0.0191484608
0.224715276 0.00920412025 -0.091462607 0.0146845249
0.169065443 0.0752792961 0.076789124 0.0680941428
0.213566895 0.242388958 0.0182940412 0.0178200185
0.170480362 0.468680121 0.0814350913 0.0112497009
0.231723228 -0.0402762335 0.106153713 0.0260517454
-0.00139655299 -0.0335010181 0.0983281121 0.041219449
0.101414517 -0.181831668 -0.133136762 0.0325248814
0.0463951834 -0.114186136 0.0332775351 0.102765483
-0.232297526 -0.298639605 -0.144900099 0.0458257633
0.217150031 0.197795863 0.0528675087 0.0128263946
-0.101933624 -0.305024884 0.0147586787 0.079558766
0.219250455 0.176325269 0.0461612733 0.0235883785
0.159609827 -0.0357942173 0.0502489737 0.0624485223
0.197233038 0.0830549479 0.0267423763 0.039651542
0.192479834 0.0663081399 0.0488047657 0.0623901556
-0.27094616 -0.391565038 -0.221900355 0.013019664
0.220513407 0.137670546 0.101741711 0.0502680753
0.288886938 -0.0844541894 0.0948937252 0.0179869649
-0.101375285 -0.342724294 -0.0266071797 0.0431335547
-0.0273631742 -0.173778591 0.0150367968 0.121870447
0.19762676 0.462949694 0.0977356998 0.0202296791
0.148984287 0.0682729909 0.00237312238 0.0213326432
0.0663789703 0.0254767921 -0.126505555 0.012807082
0.134405315 0.0445932601 0.111804012 0.0396884902
-0.016410414 -0.157050158 0.0238889584 0.112322557
0.176203716 0.279252183 0.163822485 0.0284399324
-0.116094756 -0.169318386 0.0395424219 0.137778288
0.153951996 -0.0991325438 0.214135373 0.0180203644
0.156178304 0.118872825 0.104468371 0.0461234974
-0.0282536283 -0.0917367339 0.0753206167 0.0602234264
0.108680217 -0.155200641 -0.0140366404 0.0986830719
-0.172465671 -0.182917123 -0.0326466242 0.0914025119
0.129449861 0.0338306427 0.133741686 0.0253091481
0.165587087 0.0642509842 0.012044706 0.0281325447
0.128829651 0.0212867415 0.150708072 0.0183528285
0.251202327 0.248473302 0.202508759 0.0165456358
0.183507815 0.0691170238 0.0634031379 0.0722276846
-0.262011112 -0.227903948 0.000812127801 0.0310324126
0.181612941 -0.000265716807 0.0668503832 0.0651273146
-0.24638624 -0.306669444 -0.146307461 0.0457624965
0.202254969 0.265041865 0.0298912655 0.014760475
0.199042425 0.154767761 0.0982497163 0.0526614795
0.191427197 0.282436428 0.0591039756 0.0122509297
0.0764535385 -0.00148594169 0.0763140128 0.0476435134
0.110677767 -0.360089865 -0.0454933397 0.0344654525
0.178282108 -0.0209050279 0.140890527 0.0224000649
0.215486451 0.451927966 0.07599832 0.00935959017
0.17568982 -0.00188187442 0.0858607469 0.0576622083
-0.320295169 -0.290043014 -0.100035981 0.0169121803
0.211512076 0.149398623 0.0583080138 0.0421254377
0.178113177 0.300913508 0.0746893814 0.0124516043
-0.241883835 -0.210577965 0.017640809 0.041616591
0.209987474 0.250235789 0.0342562706 0.0158989224
0.227874004 0.100922892 0.0903224982 0.0541211354
0.18758863 0.0230379236 0.0605082063 0.0607804619
0.109540961 0.0886311777 0.0616105191 0.0172946918
0.154752087 0.330340265 0.144533687 0.0157563576
-0.272642731 -0.288243657 -0.143955015 0.0306652032
0.156507683 -0.172973587 -0.0736818318 0.049625624
0.224304573 0.208742729 0.0352305208 0.0139321085
0.217067157 0.0970254583 0.081061637 0.0640484027
0.213313481 0.280130242 0.192829043 0.0108790195
0.0855289771 -0.152806148 -0.00607173209 0.108276408
0.186506081 0.243431483 0.140472324 0.0300467105
0.213590687 0.0434426657 -0.00178868236 0.0156186183
-0.133838676 -0.113860946 0.0172354752 0.0934092451
0.200594601 -0.029145329 0.120574143 0.0288199337
0.238591704 0.270765439 0.21193165 0.0153182078
0.0843479667 -0.178538023 -0.0623372114 0.0804949875
-0.111197957 -0.449129532 -0.0729134215 0.0241997989
0.0402031549 -0.150417381 0.0164680388 0.11261298
0.199152017 0.197849105 0.117987251 0.0369192975
-0.313884897 -0.289513319 -0.0735266549 0.0140971669
0.286088753 0.182953823 0.173080143 0.0198441442
0.0892181931 -0.0278581158 0.218017882 0.0170532533
-0.120850491 -0.156356933 0.0474660198 0.126355264
-0.239414751 -0.204347963 0.0101785599 0.0492924573
-0.285209121 -0.282791223 -0.142111389 0.0241900599
0.0255308814 -0.191456126 -0.0460353403 0.0910775013
0.184836088 0.293614562 0.181197854 0.020751306
0.289844526 0.144451298 0.145613125 0.019784692
0.199111154 0.0534394927 -0.00129068895 0.0213705139
0.0799903276 -0.222698935 0.0262029106 0.058477766
0.164811102 0.00460796315 0.113906982 0.0392813107
0.10063142 -0.260956596 0.0240115161 0.0368918857
0.139854558 0.0127726299 0.144383588 0.0195626143
0.265787718 0.144081072 0.133885005 0.0229270505
0 250
0 285
1 45
1 125
1 153
1 207
1 223
2 30
2 32
2 62
3 67
3 88
3 101
4 23
4 41
4 63
4 138
4 158
4 181
4 197
4 257
4 297
5 85
5 126
5 165
5 176
6 48
6 68
6 78
6 114
6 235
7 26
7 44
7 125
7 135
7 223
8 19
8 31
8 34
8 106
8 109
8 120
8 139
8 209
8 226
8 227
9 84
9 116
9 145
9 158
9 257
10 46
10 56
10 122
11 14
11 27
11 41
11 83
11 125
11 155
11 169
11 175
11 178
12 32
12 87
12 185
13 40
13 160
13 174
13 214
13 225
13 234
13 246
13 249
13 251
14 27
14 83
14 169
14 175
15 24
15 66
15 189
15 229
15 266
15 273
15 299
16 79
16 91
16 167
16 188
16 211
16 214
16 236
16 268
17 71
17 95
17 119
17 155
17 168
17 183
17 187
17 202
17 219
17 275
17 281
17 291
18 78
18 140
18 213
19 34
19 58
19 106
19 146
19 277
19 294
20 79
20 108
20 188
20 214
20 236
20 256
21 26
21 44
21 70
21 135
21 205
21 250
21 264
21 289
22 72
22 80
22 117
22 154
23 41
23 45
23 63
23 138
23 168
23 181
23 183
23 197
23 202
23 207
23 281
23 297
24 66
24 266
24 299
25 34
25 42
25 99
25 225
25 251
25 267
26 44
26 135
26 239
27 41
27 125
27 155
27 169
27 178
27 291
28 47
28 107
28 130
28 174
28 180
28 182
28 209
28 214
29 30
29 38
29 62
29 92
29 127
29 179
30 32
30 38
30 62
30 111
30 144
31 96
31 120
31 121
31 139
31 209
31 226
31 262
31 273
33 239
33 278
33 288
34 40
34 58
34 106
34 109
34 118
34 209
34 227
34 234
34 249
34 251
34 267
34 277
34 294
35 141
35 189
35 229
35 286
35 293
35 299
36 44
36 50
36 97
36 162
36 175
36 221
36 244
37 54
37 55
37 94
37 115
37 168
37 186
37 271
38 57
38 62
38 92
38 111
38 144
38 170
38 177
38 179
38 201
38 269
39 93
39 172
39 203
39 224
39 272
40 47
40 106
40 107
40 118
40 209
40 226
40 227
40 234
40 246
40 249
40 251
40 294
41 45
41 63
41 125
41 155
41 169
41 181
41 187
41 197
41 207
41 283
41 291
41 297
42 100
42 217
42 225
42 251
42 267
43 65
43 137
43 157
43 171
43 194
43 282
44 50
44 53
44 70
44 103
44 125
44 135
44 164
44 175
44 205
44 220
44 223
44 232
44 237
44 239
44 242
44 250
44 264
44 278
44 288
45 125
45 207
45 295
45 297
46 56
46 122
46 287
47 107
47 118
47 130
47 134
47 174
47 199
47 209
47 214
47 227
47 234
47 246
47 249
48 68
48 102
48 104
48 134
48 235
49 86
49 131
49 149
49 204
50 53
50 70
50 125
50 175
50 244
50 250
50 264
51 90
51 128
51 139
51 241
51 254
52 253
52 255
52 263
52 265
53 60
53 105
53 135
53 169
53 175
53 205
53 220
53 232
53 237
53 244
53 250
53 278
53 283
54 94
54 115
54 168
54 183
54 202
54 271
55 165
55 176
55 186
56 75
56 122
57 92
57 127
57 170
57 173
57 177
57 179
57 201
57 238
57 274
57 292
58 106
58 109
58 110
58 118
58 146
58 277
58 294
59 72
59 117
59 130
59 199
60 105
60 169
61 89
61 99
61 142
61 160
61 220
61 225
61 243
61 275
61 283
62 92
62 111
62 144
62 179
62 201
62 269
63 95
63 181
63 197
63 281
64 73
64 81
64 162
64 221
64 252
64 270
64 290
65 157
66 141
66 266
66 293
66 299
67 88
67 101
67 161
67 198
68 78
68 110
68 114
68 118
68 134
69 132
69 190
69 236
69 245
69 247
69 298
70 205
70 244
70 250
70 264
70 289
71 94
71 95
71 119
71 168
71 202
71 219
71 281
72 117
72 199
73 81
73 136
73 198
73 228
73 252
73 270
74 133
74 144
74 184
74 196
74 269
75 113
75 122
76 131
76 193
76 230
77 139
77 209
77 227
77 251
77 266
77 267
77 273
78 110
78 114
78 140
78 148
78 213
79 91
79 108
79 167
79 180
79 182
79 188
79 190
79 214
79 236
79 268
80 124
80 154
81 88
81 136
81 195
81 198
81 210
81 228
82 125
82 135
82 153
82 239
82 288
83 97
83 175
84 116
84 145
85 126
85 165
85 206
86 149
86 159
86 204
87 112
87 147
87 185
87 216
87 233
87 259
88 101
88 136
88 161
88 198
89 99
89 142
89 225
89 243
90 91
90 128
90 139
90 167
90 214
90 241
90 254
91 167
91 211
91 214
91 236
91 241
91 268
92 127
92 173
92 179
92 238
92 292
93 215
93 265
93 272
94 115
94 168
94 219
95 119
95 187
95 197
95 275
95 281
95 291
96 120
96 139
96 163
96 262
96 266
96 273
97 175
97 221
98 103
98 125
98 135
98 220
98 232
98 237
98 239
98 242
98 283
99 225
99 251
100 166
100 193
100 217
100 230
101 152
101 198
102 104
102 117
102 124
102 235
103 160
103 164
103 218
103 220
103 232
103 237
103 242
103 256
103 288
104 117
104 124
104 134
104 154
104 199
105 278
106 118
106 226
106 227
106 277
106 294
107 108
107 139
107 167
107 174
107 180
107 182
107 209
107 214
107 227
107 246
108 160
108 174
108 180
108 188
108 190
108 214
108 236
108 245
108 247
108 256
108 260
108 296
108 298
109 118
109 227
109 249
109 251
109 267
109 277
109 294
110 118
110 146
110 213
110 294
111 144
111 201
112 185
112 233
112 259
113 122
113 159
113 240
114 148
115 168
115 186
117 124
117 154
117 199
118 134
118 226
118 227
118 234
118 246
118 249
118 294
119 168
119 187
119 219
119 281
120 121
120 139
120 163
120 262
120 273
121 139
121 172
121 203
121 209
121 262
122 156
122 212
122 240
122 287
123 173
123 238
123 248
123 274
123 276
123 292
124 154
125 135
125 153
125 169
125 175
125 178
125 207
125 223
125 232
125 237
125 239
125 283
126 165
126 208
127 173
127 179
127 192
128 139
128 167
128 241
128 254
129 222
129 224
129 254
129 262
129 272
129 284
130 182
130 199
131 149
131 193
132 212
132 247
132 287
132 298
133 184
133 263
134 199
135 153
135 205
135 223
135 232
135 237
135 239
135 250
135 264
135 278
135 288
136 161
136 195
136 198
136 228
137 171
137 178
137 223
137 231
138 158
138 183
138 202
138 297
139 167
139 209
139 214
139 226
139 229
139 254
139 262
139 266
139 273
140 148
141 189
141 229
141 286
141 293
141 299
142 183
142 202
142 243
142 271
142 275
143 156
143 166
143 204
143 212
143 258
143 279
144 170
144 201
144 269
146 213
147 185
147 216
147 233
149 166
149 193
149 204
150 261
150 290
151 248
151 286
152 198
152 210
153 239
155 187
155 197
155 291
156 159
156 204
156 212
156 240
157 194
158 257
158 297
159 204
159 240
160 174
160 214
160 220
160 225
160 256
160 260
161 195
162 221
162 252
162 261
162 270
162 290
164 218
164 237
164 239
164 242
164 288
165 176
165 191
165 200
165 206
165 208
166 193
166 204
166 217
166 251
166 279
167 180
167 182
167 209
167 214
167 236
167 241
167 268
168 183
168 202
168 219
168 281
169 175
169 178
169 207
169 232
169 237
170 177
170 179
170 196
170 201
170 269
171 194
171 231
171 282
172 203
172 222
172 224
172 262
172 272
173 179
173 192
173 238
173 274
173 292
174 180
174 182
174 209
174 214
174 225
174 236
174 249
174 260
174 296
175 178
175 223
176 186
176 191
176 200
177 179
177 196
177 238
177 269
177 276
178 223
178 231
179 201
179 238
179 292
180 182
180 214
180 268
181 197
181 281
182 214
182 268
183 202
183 243
183 271
183 275
183 295
183 297
184 196
184 263
184 269
185 216
185 233
185 259
187 197
187 281
187 291
188 190
188 236
188 245
189 229
189 254
189 266
189 284
189 299
190 236
190 245
191 200
191 206
192 274
192 280
193 217
193 230
194 282
195 228
196 238
196 263
196 269
196 276
197 207
197 275
197 281
197 283
197 291
198 210
198 228
200 208
201 269
202 243
202 271
202 275
202 281
204 240
205 239
205 244
205 250
205 264
207 220
207 232
207 237
207 275
207 283
207 295
207 297
209 214
209 226
209 227
209 234
209 246
209 251
209 260
209 267
209 273
210 228
211 241
212 240
212 247
212 258
212 287
212 298
214 225
214 227
214 236
214 249
214 268
214 296
215 253
215 265
215 272
216 233
217 230
217 251
217 260
217 279
218 242
218 256
220 232
220 237
220 275
220 283
221 252
222 224
222 254
222 262
222 265
222 272
223 231
224 254
224 262
224 272
225 249
225 251
225 260
226 227
226 234
226 294
227 234
227 246
227 249
227 251
227 267
227 294
229 254
229 262
229 266
229 273
229 284
229 299
232 237
232 239
232 283
233 259
234 246
234 249
236 245
236 247
236 296
236 298
237 239
237 283
237 288
238 274
238 276
238 292
239 242
239 278
239 288
242 288
243 271
243 275
244 250
244 289
245 247
245 296
245 298
246 249
247 260
247 296
247 298
248 274
248 276
248 280
249 251
250 264
250 289
251 260
251 267
251 279
252 261
252 270
252 290
253 255
253 265
254 262
254 284
254 299
255 263
255 265
258 260
258 279
258 296
258 298
260 267
260 279
260 296
260 298
261 270
261 285
261 290
264 289
265 272
266 273
266 299
267 277
270 285
270 290
274 276
274 280
274 292
275 281
275 283
275 295
276 284
277 294
278 288
279 296
281 291
283 295
285 290
286 293
286 299
293 299
295 297
296 298
3 1 45 125
3 1 45 207
3 1 125 153
3 1 125 207
3 1 125 223
3 2 30 32
3 2 30 62
3 3 67 88
3 3 67 101
3 3 88 101
3 4 23 41
3 4 23 63
3 4 23 138
3 4 23 181
3 4 23 197
3 4 23 297
3 4 41 63
3 4 41 181
3 4 41 197
3 4 41 297
3 4 63 181
3 4 63 197
3 4 138 158
3 4 138 297
3 4 158 257
3 4 158 297
3 4 181 197
3 5 85 126
3 5 85 165
3 5 126 165
3 5 165 176
3 6 48 68
3 6 48 235
3 6 68 78
3 6 68 114
3 6 78 114
3 7 26 44
3 7 26 135
3 7 44 125
3 7 44 135
3 7 44 223
3 7 125 135
3 7 125 223
3 7 135 223
3 8 19 34
3 8 19 106
3 8 31 120
3 8 31 139
3 8 31 209
3 8 31 226
3 8 34 106
3 8 34 109
3 8 34 209
3 8 34 227
3 8 106 226
3 8 106 227
3 8 109 227
3 8 120 139
3 8 139 209
3 8 139 226
3 8 209 226
3 8 209 227
3 8 226 227
3 9 84 116
3 9 84 145
3 9 158 257
3 10 46 56
3 10 46 122
3 10 56 122
3 11 14 27
3 11 14 83
3 11 14 169
3 11 14 175
3 11 27 41
3 11 27 125
3 11 27 155
3 11 27 169
3 11 27 178
3 11 41 125
3 11 41 155
3 11 41 169
3 11 83 175
3 11 125 169
3 11 125 175
3 11 125 178
3 11 169 175
3 11 169 178
3 11 175 178
3 12 87 185
3 13 40 234
3 13 40 246
3 13 40 249
3 13 40 251
3 13 160 174
3 13 160 214
3 13 160 225
3 13 174 214
3 13 174 225
3 13 174 249
3 13 214 225
3 13 214 249
3 13 225 249
3 13 225 251
3 13 234 246
3 13 234 249
3 13 246 249
3 13 249 251
3 14 27 169
3 14 83 175
3 14 169 175
3 15 24 66
3 15 24 266
3 15 24 299
3 15 66 266
3 15 66 299
3 15 189 229
3 15 189 266
3 15 189 299
3 15 229 266
3 15 229 273
3 15 229 299
3 15 266 273
3 15 266 299
3 16 79 91
3 16 79 167
3 16 79 188
3 16 79 214
3 16 79 236
3 16 79 268
3 16 91 167
3 16 91 211
3 16 91 214
3 16 91 236
3 16 91 268
3 16 167 214
3 16 167 236
3 16 167 268
3 16 188 236
3 16 214 236
3 16 214 268
3 17 71 95
3 17 71 119
3 17 71 168
3 17 71 202
3 17 71 219
3 17 71 281
3 17 95 119
3 17 95 187
3 17 95 275
3 17 95 281
3 17 95 291
3 17 119 168
3 17 119 187
3 17 119 219
3 17 119 281
3 17 155 187
3 17 155 291
3 17 168 183
3 17 168 202
3 17 168 219
3 17 168 281
3 17 183 202
3 17 183 275
3 17 187 281
3 17 187 291
3 17 202 275
3 17 202 281
3 17 275 281
3 17 281 291
3 18 78 140
3 18 78 213
3 19 34 58
3 19 34 106
3 19 34 277
3 19 34 294
3 19 58 106
3 19 58 146
3 19 58 277
3 19 58 294
3 19 106 277
3 19 106 294
3 19 277 294
3 20 79 108
3 20 79 188
3 20 79 214
3 20 79 236
3 20 108 188
3 20 108 214
3 20 108 236
3 20 108 256
3 20 188 236
3 20 214 236
3 21 26 44
3 21 26 135
3 21 44 70
3 21 44 135
3 21 44 205
3 21 44 250
3 21 44 264
3 21 70 205
3 21 70 250
3 21 70 264
3 21 70 289
3 21 135 205
3 21 135 250
3 21 135 264
3 21 205 250
3 21 205 264
3 21 250 264
3 21 250 289
3 21 264 289
3 22 72 117
3 22 80 154
3 22 117 154
3 23 41 45
3 23 41 63
3 23 41 181
3 23 41 197
3 23 41 207
3 23 41 297
3 23 45 207
3 23 45 297
3 23 63 181
3 23 63 197
3 23 63 281
3 23 138 183
3 23 138 202
3 23 138 297
3 23 168 183
3 23 168 202
3 23 168 281
3 23 181 197
3 23 181 281
3 23 183 202
3 23 183 297
3 23 197 207
3 23 197 281
3 23 202 281
3 23 207 297
3 24 66 266
3 24 66 299
3 24 266 299
3 25 34 251
3 25 34 267
3 25 42 225
3 25 42 251
3 25 42 267
3 25 99 225
3 25 99 251
3 25 225 251
3 25 251 267
3 26 44 135
3 26 44 239
3 26 135 239
3 27 41 125
3 27 41 155
3 27 41 169
3 27 41 291
3 27 125 169
3 27 125 178
3 27 155 291
3 27 169 178
3 28 47 107
3 28 47 130
3 28 47 174
3 28 47 209
3 28 47 214
3 28 107 174
3 28 107 180
3 28 107 182
3 28 107 209
3 28 107 214
3 28 130 182
3 28 174 180
3 28 174 182
3 28 174 209
3 28 174 214
3 28 180 182
3 28 180 214
3 28 182 214
3 28 209 214
3 29 30 38
3 29 30 62
3 29 38 62
3 29 38 92
3 29 38 179
3 29 62 92
3 29 62 179
3 29 92 127
3 29 92 179
3 29 127 179
3 30 38 62
3 30 38 111
3 30 38 144
3 30 62 111
3 30 62 144
3 30 111 144
3 31 96 120
3 31 96 139
3 31 96 262
3 31 96 273
3 31 120 121
3 31 120 139
3 31 120 262
3 31 120 273
3 31 121 139
3 31 121 209
3 31 121 262
3 31 139 209
3 31 139 226
3 31 139 262
3 31 139 273
3 31 209 226
3 31 209 273
3 33 239 278
3 33 239 288
3 33 278 288
3 34 40 106
3 34 40 118
3 34 40 209
3 34 40 227
3 34 40 234
3 34 40 249
3 34 40 251
3 34 40 294
3 34 58 106
3 34 58 109
3 34 58 118
3 34 58 277
3 34 58 294
3 34 106 118
3 34 106 227
3 34 106 277
3 34 106 294
3 34 109 118
3 34 109 227
3 34 109 249
3 34 109 251
3 34 109 267
3 34 109 277
3 34 109 294
3 34 118 227
3 34 118 234
3 34 118 249
3 34 118 294
3 34 209 227
3 34 209 234
3 34 209 251
3 34 209 267
3 34 227 234
3 34 227 249
3 34 227 251
3 34 227 267
3 34 227 294
3 34 234 249
3 34 249 251
3 34 251 267
3 34 267 277
3 34 277 294
3 35 141 189
3 35 141 229
3 35 141 286
3 35 141 293
3 35 141 299
3 35 189 229
3 35 189 299
3 35 229 299
3 35 286 293
3 35 286 299
3 35 293 299
3 36 44 50
3 36 44 175
3 36 50 175
3 36 50 244
3 36 97 175
3 36 97 221
3 36 162 221
3 37 54 94
3 37 54 115
3 37 54 168
3 37 54 271
3 37 55 186
3 37 94 115
3 37 94 168
3 37 115 168
3 37 115 186
3 38 57 92
3 38 57 170
3 38 57 177
3 38 57 179
3 38 57 201
3 38 62 92
3 38 62 111
3 38 62 144
3 38 62 179
3 38 62 201
3 38 62 269
3 38 92 179
3 38 111 144
3 38 111 201
3 38 144 170
3 38 144 201
3 38 144 269
3 38 170 177
3 38 170 179
3 38 170 201
3 38 170 269
3 38 177 179
3 38 177 269
3 38 179 201
3 38 201 269
3 39 93 272
3 39 172 203
3 39 172 224
3 39 172 272
3 39 224 272
3 40 47 107
3 40 47 118
3 40 47 209
3 40 47 227
3 40 47 234
3 40 47 246
3 40 47 249
3 40 106 118
3 40 106 226
3 40 106 227
3 40 106 294
3 40 107 209
3 40 107 227
3 40 107 246
3 40 118 226
3 40 118 227
3 40 118 234
3 40 118 246
3 40 118 249
3 40 118 294
3 40 209 226
3 40 209 227
3 40 209 234
3 40 209 246
3 40 209 251
3 40 226 227
3 40 226 234
3 40 226 294
3 40 227 234
3 40 227 246
3 40 227 249
3 40 227 251
3 40 227 294
3 40 234 246
3 40 234 249
3 40 246 249
3 40 249 251
3 41 45 125
3 41 45 207
3 41 45 297
3 41 63 181
3 41 63 197
3 41 125 169
3 41 125 207
3 41 125 283
3 41 155 187
3 41 155 197
3 41 155 291
3 41 169 207
3 41 181 197
3 41 187 197
3 41 187 291
3 41 197 207
3 41 197 283
3 41 197 291
3 41 207 283
3 41 207 297
3 42 100 217
3 42 217 251
3 42 225 251
3 42 251 267
3 43 65 157
3 43 137 171
3 43 157 194
3 43 171 194
3 43 171 282
3 43 194 282
3 44 50 53
3 44 50 70
3 44 50 125
3 44 50 175
3 44 50 250
3 44 50 264
3 44 53 135
3 44 53 175
3 44 53 205
3 44 53 220
3 44 53 232
3 44 53 237
3 44 53 250
3 44 53 278
3 44 70 205
3 44 70 250
3 44 70 264
3 44 103 164
3 44 103 220
3 44 103 232
3 44 103 237
3 44 103 242
3 44 103 288
3 44 125 135
3 44 125 175
3 44 125 223
3 44 125 232
3 44 125 237
3 44 125 239
3 44 135 205
3 44 135 223
3 44 135 232
3 44 135 237
3 44 135 239
3 44 135 250
3 44 135 264
3 44 135 278
3 44 135 288
3 44 164 237
3 44 164 239
3 44 164 242
3 44 164 288
3 44 175 223
3 44 205 239
3 44 205 250
3 44 205 264
3 44 220 232
3 44 220 237
3 44 232 237
3 44 232 239
3 44 237 239
3 44 237 288
3 44 239 242
3 44 239 278
3 44 239 288
3 44 242 288
3 44 250 264
3 44 278 288
3 45 125 207
3 45 207 295
3 45 207 297
3 45 295 297
3 46 56 122
3 46 122 287
3 47 107 174
3 47 107 209
3 47 107 214
3 47 107 227
3 47 107 246
3 47 118 134
3 47 118 227
3 47 118 234
3 47 118 246
3 47 118 249
3 47 130 199
3 47 134 199
3 47 174 209
3 47 174 214
3 47 174 249
3 47 209 214
3 47 209 227
3 47 209 234
3 47 209 246
3 47 214 227
3 47 214 249
3 47 227 234
3 47 227 246
3 47 227 249
3 47 234 246
3 47 234 249
3 47 246 249
3 48 68 134
3 48 102 104
3 48 102 235
3 48 104 134
3 49 86 149
3 49 86 204
3 49 131 149
3 49 149 204
3 50 53 175
3 50 53 244
3 50 53 250
3 50 70 244
3 50 70 250
3 50 70 264
3 50 125 175
3 50 244 250
3 50 250 264
3 51 90 128
3 51 90 139
3 51 90 241
3 51 90 254
3 51 128 139
3 51 128 241
3 51 128 254
3 51 139 254
3 52 253 255
3 52 253 265
3 52 255 263
3 52 255 265
3 53 60 105
3 53 60 169
3 53 105 278
3 53 135 205
3 53 135 232
3 53 135 237
3 53 135 250
3 53 135 278
3 53 169 175
3 53 169 232
3 53 169 237
3 53 205 244
3 53 205 250
3 53 220 232
3 53 220 237
3 53 220 283
3 53 232 237
3 53 232 283
3 53 237 283
3 53 244 250
3 54 94 115
3 54 94 168
3 54 115 168
3 54 168 183
3 54 168 202
3 54 183 202
3 54 183 271
3 54 202 271
3 55 165 176
3 55 176 186
3 56 75 122
3 57 92 127
3 57 92 173
3 57 92 179
3 57 92 238
3 57 92 292
3 57 127 173
3 57 127 179
3 57 170 177
3 57 170 179
3 57 170 201
3 57 173 179
3 57 173 238
3 57 173 274
3 57 173 292
3 57 177 179
3 57 177 238
3 57 179 201
3 57 179 238
3 57 179 292
3 57 238 274
3 57 238 292
3 57 274 292
3 58 106 118
3 58 106 277
3 58 106 294
3 58 109 118
3 58 109 277
3 58 109 294
3 58 110 118
3 58 110 146
3 58 110 294
3 58 118 294
3 58 277 294
3 59 72 117
3 59 72 199
3 59 117 199
3 59 130 199
3 61 89 99
3 61 89 142
3 61 89 225
3 61 89 243
3 61 99 225
3 61 142 243
3 61 142 275
3 61 160 220
3 61 160 225
3 61 220 275
3 61 220 283
3 61 243 275
3 61 275 283
3 62 92 179
3 62 111 144
3 62 111 201
3 62 144 201
3 62 144 269
3 62 179 201
3 62 201 269
3 63 95 197
3 63 95 281
3 63 181 197
3 63 181 281
3 63 197 281
3 64 73 81
3 64 73 252
3 64 73 270
3 64 162 221
3 64 162 252
3 64 162 270
3 64 162 290
3 64 221 252
3 64 252 270
3 64 252 290
3 64 270 290
3 66 141 293
3 66 141 299
3 66 266 299
3 66 293 299
3 67 88 101
3 67 88 161
3 67 88 198
3 67 101 198
3 68 78 110
3 68 78 114
3 68 110 118
3 68 118 134
3 69 132 247
3 69 132 298
3 69 190 236
3 69 190 245
3 69 236 245
3 69 236 247
3 69 236 298
3 69 245 247
3 69 245 298
3 69 247 298
3 70 205 244
3 70 205 250
3 70 205 264
3 70 244 250
3 70 244 289
3 70 250 264
3 70 250 289
3 70 264 289
3 71 94 168
3 71 94 219
3 71 95 119
3 71 95 281
3 71 119 168
3 71 119 219
3 71 119 281
3 71 168 202
3 71 168 219
3 71 168 281
3 71 202 281
3 72 117 199
3 73 81 136
3 73 81 198
3 73 81 228
3 73 136 198
3 73 136 228
3 73 198 228
3 73 252 270
3 74 133 184
3 74 144 269
3 74 184 196
3 74 184 269
3 74 196 269
3 75 113 122
3 76 131 193
3 76 193 230
3 77 139 209
3 77 139 266
3 77 139 273
3 77 209 227
3 77 209 251
3 77 209 267
3 77 209 273
3 77 227 251
3 77 227 267
3 77 251 267
3 77 266 273
3 78 110 213
3 78 114 148
3 78 140 148
3 79 91 167
3 79 91 214
3 79 91 236
3 79 91 268
3 79 108 180
3 79 108 188
3 79 108 190
3 79 108 214
3 79 108 236
3 79 167 180
3 79 167 182
3 79 167 214
3 79 167 236
3 79 167 268
3 79 180 182
3 79 180 214
3 79 180 268
3 79 182 214
3 79 182 268
3 79 188 190
3 79 188 236
3 79 190 236
3 79 214 236
3 79 214 268
3 80 124 154
3 81 88 136
3 81 88 198
3 81 136 195
3 81 136 198
3 81 136 228
3 81 195 228
3 81 198 210
3 81 198 228
3 81 210 228
3 82 125 135
3 82 125 153
3 82 125 239
3 82 135 153
3 82 135 239
3 82 135 288
3 82 153 239
3 82 239 288
3 83 97 175
3 85 126 165
3 85 165 206
3 86 149 204
3 86 159 204
3 87 112 185
3 87 112 233
3 87 112 259
3 87 147 185
3 87 147 216
3 87 147 233
3 87 185 216
3 87 185 233
3 87 185 259
3 87 216 233
3 87 233 259
3 88 101 198
3 88 136 161
3 88 136 198
3 89 99 225
3 89 142 243
3 90 91 167
3 90 91 214
3 90 91 241
3 90 128 139
3 90 128 167
3 90 128 241
3 90 128 254
3 90 139 167
3 90 139 214
3 90 139 254
3 90 167 214
3 90 167 241
3 91 167 214
3 91 167 236
3 91 167 241
3 91 167 268
3 91 211 241
3 91 214 236
3 91 214 268
3 92 127 173
3 92 127 179
3 92 173 179
3 92 173 238
3 92 173 292
3 92 179 238
3 92 179 292
3 92 238 292
3 93 215 265
3 93 215 272
3 93 265 272
3 94 115 168
3 94 168 219
3 95 119 187
3 95 119 281
3 95 187 197
3 95 187 281
3 95 187 291
3 95 197 275
3 95 197 281
3 95 197 291
3 95 275 281
3 95 281 291
3 96 120 139
3 96 120 163
3 96 120 262
3 96 120 273
3 96 139 262
3 96 139 266
3 96 139 273
3 96 266 273
3 98 103 220
3 98 103 232
3 98 103 237
3 98 103 242
3 98 125 135
3 98 125 232
3 98 125 237
3 98 125 239
3 98 125 283
3 98 135 232
3 98 135 237
3 98 135 239
3 98 220 232
3 98 220 237
3 98 220 283
3 98 232 237
3 98 232 239
3 98 232 283
3 98 237 239
3 98 237 283
3 98 239 242
3 99 225 251
3 100 166 193
3 100 166 217
3 100 193 217
3 100 193 230
3 100 217 230
3 101 152 198
3 102 104 117
3 102 104 124
3 102 117 124
3 103 160 220
3 103 160 256
3 103 164 218
3 103 164 237
3 103 164 242
3 103 164 288
3 103 218 242
3 103 218 256
3 103 220 232
3 103 220 237
3 103 232 237
3 103 237 288
3 103 242 288
3 104 117 124
3 104 117 154
3 104 117 199
3 104 124 154
3 104 134 199
3 106 118 226
3 106 118 227
3 106 118 294
3 106 226 227
3 106 226 294
3 106 227 294
3 106 277 294
3 107 108 174
3 107 108 180
3 107 108 214
3 107 139 167
3 107 139 209
3 107 139 214
3 107 167 180
3 107 167 182
3 107 167 209
3 107 167 214
3 107 174 180
3 107 174 182
3 107 174 209
3 107 174 214
3 107 180 182
3 107 180 214
3 107 182 214
3 107 209 214
3 107 209 227
3 107 209 246
3 107 214 227
3 107 227 246
3 108 160 174
3 108 160 214
3 108 160 256
3 108 160 260
3 108 174 180
3 108 174 214
3 108 174 236
3 108 174 260
3 108 174 296
3 108 180 214
3 108 188 190
3 108 188 236
3 108 188 245
3 108 190 236
3 108 190 245
3 108 214 236
3 108 214 296
3 108 236 245
3 108 236 247
3 108 236 296
3 108 236 298
3 108 245 247
3 108 245 296
3 108 245 298
3 108 247 260
3 108 247 296
3 108 247 298
3 108 260 296
3 108 260 298
3 108 296 298
3 109 118 227
3 109 118 249
3 109 118 294
3 109 227 249
3 109 227 251
3 109 227 267
3 109 227 294
3 109 249 251
3 109 251 267
3 109 267 277
3 109 277 294
3 110 118 294
3 110 146 213
3 111 144 201
3 112 185 233
3 112 185 259
3 112 233 259
3 113 122 240
3 113 159 240
3 117 124 154
3 118 226 227
3 118 226 234
3 118 226 294
3 118 227 234
3 118 227 246
3 118 227 249
3 118 227 294
3 118 234 246
3 118 234 249
3 118 246 249
3 119 168 219
3 119 168 281
3 119 187 281
3 120 121 139
3 120 121 262
3 120 139 262
3 120 139 273
3 121 139 209
3 121 139 262
3 121 172 203
3 121 172 262
3 122 156 212
3 122 156 240
3 122 212 240
3 122 212 287
3 123 173 238
3 123 173 274
3 123 173 292
3 123 238 274
3 123 238 276
3 123 238 292
3 123 248 274
3 123 248 276
3 123 274 276
3 123 274 292
3 125 135 153
3 125 135 223
3 125 135 232
3 125 135 237
3 125 135 239
3 125 153 239
3 125 169 175
3 125 169 178
3 125 169 207
3 125 169 232
3 125 169 237
3 125 175 178
3 125 175 223
3 125 178 223
3 125 207 232
3 125 207 237
3 125 207 283
3 125 232 237
3 125 232 239
3 125 232 283
3 125 237 239
3 125 237 283
3 126 165 208
3 127 173 179
3 127 173 192
3 128 139 167
3 128 139 254
3 128 167 241
3 129 222 224
3 129 222 254
3 129 222 262
3 129 222 272
3 129 224 254
3 129 224 262
3 129 224 272
3 129 254 262
3 129 254 284
3 131 149 193
3 132 212 247
3 132 212 287
3 132 212 298
3 132 247 298
3 133 184 263
3 135 153 239
3 135 205 239
3 135 205 250
3 135 205 264
3 135 232 237
3 135 232 239
3 135 237 239
3 135 237 288
3 135 239 278
3 135 239 288
3 135 250 264
3 135 278 288
3 136 161 195
3 136 195 228
3 136 198 228
3 137 171 231
3 137 178 223
3 137 178 231
3 137 223 231
3 138 158 297
3 138 183 202
3 138 183 297
3 139 167 209
3 139 167 214
3 139 209 214
3 139 209 226
3 139 209 273
3 139 229 254
3 139 229 262
3 139 229 266
3 139 229 273
3 139 254 262
3 139 266 273
3 141 189 229
3 141 189 299
3 141 229 299
3 141 286 293
3 141 286 299
3 141 293 299
3 142 183 202
3 142 183 243
3 142 183 271
3 142 183 275
3 142 202 243
3 142 202 271
3 142 202 275
3 142 243 271
3 142 243 275
3 143 156 204
3 143 156 212
3 143 166 204
3 143 166 279
3 143 212 258
3 143 258 279
3 144 170 201
3 144 170 269
3 144 201 269
3 147 185 216
3 147 185 233
3 147 216 233
3 149 166 193
3 149 166 204
3 150 261 290
3 152 198 210
3 155 187 197
3 155 187 291
3 155 197 291
3 156 159 204
3 156 159 240
3 156 204 240
3 156 212 240
3 159 204 240
3 160 174 214
3 160 174 225
3 160 174 260
3 160 214 225
3 160 225 260
3 162 221 252
3 162 252 261
3 162 252 270
3 162 252 290
3 162 261 270
3 162 261 290
3 162 270 290
3 164 218 242
3 164 237 239
3 164 237 288
3 164 239 242
3 164 239 288
3 164 242 288
3 165 176 191
3 165 176 200
3 165 191 200
3 165 191 206
3 165 200 208
3 166 193 217
3 166 217 251
3 166 217 279
3 166 251 279
3 167 180 182
3 167 180 214
3 167 180 268
3 167 182 214
3 167 182 268
3 167 209 214
3 167 214 236
3 167 214 268
3 168 183 202
3 168 202 281
3 169 175 178
3 169 207 232
3 169 207 237
3 169 232 237
3 170 177 179
3 170 177 196
3 170 177 269
3 170 179 201
3 170 196 269
3 170 201 269
3 171 194 282
3 172 222 224
3 172 222 262
3 172 222 272
3 172 224 262
3 172 224 272
3 173 179 238
3 173 179 292
3 173 192 274
3 173 238 274
3 173 238 292
3 173 274 292
3 174 180 182
3 174 180 214
3 174 182 214
3 174 209 214
3 174 209 260
3 174 214 225
3 174 214 236
3 174 214 249
3 174 214 296
3 174 225 249
3 174 225 260
3 174 236 296
3 174 260 296
3 175 178 223
3 176 191 200
3 177 179 238
3 177 196 238
3 177 196 269
3 177 196 276
3 177 238 276
3 178 223 231
3 179 238 292
3 180 182 214
3 180 182 268
3 180 214 268
3 181 197 281
3 182 214 268
3 183 202 243
3 183 202 271
3 183 202 275
3 183 243 271
3 183 243 275
3 183 275 295
3 183 295 297
3 184 196 263
3 184 196 269
3 185 216 233
3 185 233 259
3 187 197 281
3 187 197 291
3 187 281 291
3 188 190 236
3 188 190 245
3 188 236 245
3 189 229 254
3 189 229 266
3 189 229 284
3 189 229 299
3 189 254 284
3 189 254 299
3 189 266 299
3 190 236 245
3 192 274 280
3 193 217 230
3 196 238 276
3 197 207 275
3 197 207 283
3 197 275 281
3 197 275 283
3 197 281 291
3 198 210 228
3 202 243 271
3 202 243 275
3 202 275 281
3 205 244 250
3 205 250 264
3 207 220 232
3 207 220 237
3 207 220 275
3 207 220 283
3 207 232 237
3 207 232 283
3 207 237 283
3 207 275 283
3 207 275 295
3 207 283 295
3 207 295 297
3 209 214 227
3 209 226 227
3 209 226 234
3 209 227 234
3 209 227 246
3 209 227 251
3 209 227 267
3 209 234 246
3 209 251 260
3 209 251 267
3 209 260 267
3 212 247 298
3 212 258 298
3 214 225 249
3 214 227 249
3 214 236 296
3 215 253 265
3 215 265 272
3 217 251 260
3 217 251 279
3 217 260 279
3 220 232 237
3 220 232 283
3 220 237 283
3 220 275 283
3 222 224 254
3 222 224 262
3 222 224 272
3 222 254 262
3 222 265 272
3 224 254 262
3 225 249 251
3 225 251 260
3 226 227 234
3 226 227 294
3 227 234 246
3 227 234 249
3 227 246 249
3 227 249 251
3 227 251 267
3 229 254 262
3 229 254 284
3 229 254 299
3 229 266 273
3 229 266 299
3 232 237 239
3 232 237 283
3 234 246 249
3 236 245 247
3 236 245 296
3 236 245 298
3 236 247 296
3 236 247 298
3 236 296 298
3 237 239 288
3 238 274 276
3 238 274 292
3 239 242 288
3 239 278 288
3 244 250 289
3 245 247 296
3 245 247 298
3 245 296 298
3 247 260 296
3 247 260 298
3 247 296 298
3 248 274 276
3 248 274 280
3 250 264 289
3 251 260 267
3 251 260 279
3 252 261 270
3 252 261 290
3 252 270 290
3 253 255 265
3 258 260 279
3 258 260 296
3 258 260 298
3 258 279 296
3 258 296 298
3 260 279 296
3 260 296 298
3 261 270 285
3 261 270 290
3 261 285 290
3 270 285 290
3 275 283 295
3 286 293 299
