ply
format ascii 1.0
element vertex 300
property float x
property float y
property float z
property float radius
element edge 1072
property int vertex1
property int vertex2
element face 1293
property list uchar int vertex_indices
end_header
-0.0512480363 -0.0998830416 0.076687796 0.0595633845
-0.305714932 -0.278844056 -0.0526446605 0.0137941729
0.151038912 0.388663672 0.195437505 0.0330414633
-0.332811121 -0.403434577 -0.188732992 0.0252940592
0.139259667 0.062474364 0.0957035378 0.0491228016
0.179173264 -0.191971975 -0.116404111 0.0418895185
0.208479189 0.0399155089 -0.0370278099 0.0134532516
-0.140917108 -0.459268611 -0.059638792 0.0253060964
-0.0313884565 0.0786496566 -0.0467364782 0.0161664164
0.118156356 -0.35545774 -0.0337031195 0.0403689939
0.0584398456 -0.0789450414 0.27564598 0.0179071661
-0.270347779 -0.289322853 -0.142220623 0.033137134
0.190303302 0.442180742 0.14580451 0.0257879564
-0.233749358 -0.206449664 0.0149127873 0.049831221
-0.12342342 -0.101807609 -0.0602198434 0.0688352682
0.233122658 0.0807470853 0.0854884183 0.0490756512
-0.291634108 -0.28175128 -0.139412192 0.0225371849
0.126934706 -0.0565399735 0.206301721 0.0183101668
0.211927499 -0.00910352794 -0.137545393 0.0138594717
0.22901891 0.203132155 0.0104159528 0.0183268928
0.0909720056 -0.115961867 0.275503483 0.0172312646
-0.21159799 -0.279081453 -0.123451476 0.0457966042
0.0425317457 -0.157770185 0.0108562697 0.11369056
0.21249965 0.0284228641 0.00395568897 0.00931423236
0.0316470135 -0.0709609232 0.0674850663 0.0764368854
0.0846731757 -0.178533212 -0.0546120256 0.0861824787
0.123264606 -0.182814437 -0.0969840482 0.0633078453
-0.0171701258 -0.167742916 0.0169059261 0.117511002
-0.0685646945 -0.234506019 0.0337155614 0.123618877
0.0831365905 -0.204044746 -0.0179979537 0.0896726422
0.200171366 0.307182045 0.219863372 0.011716633
0.222997737 0.15167497 0.0303443287 0.0269829437
-0.254420514 -0.315361846 -0.152384142 0.0425379591
-0.152935414 -0.083709333 0.0884178486 0.0604675591
0.123273358 0.0314212661 -0.0965175977 0.0200074769
0.100244056 0.0423682666 0.0937294234 0.0236678374
0.213320216 -0.0641960387 0.143449058 0.0202848061
0.149548582 -0.0644753453 0.0340430802 0.0666962389
0.170915541 0.421400535 0.177910702 0.0295444472
0.213726259 -0.229022204 -0.175179851 0.0384358682
-0.145098353 -0.077599911 -0.0517319561 0.051898183
0.040387225 0.0329910528 -0.117629079 0.0120154721
-0.00328201975 -0.189167251 -0.00430257688 0.119591587
0.197353472 0.204626884 0.117866371 0.0356183714
0.170657359 0.310428379 0.0805688645 0.011900061
0.124128462 -0.22334534 -0.0100930982 0.0632055227
-0.0972000738 -0.126705084 -0.0721247576 0.0730249419
0.164899279 0.12514603 0.0980784731 0.0532354553
0.22850057 0.0113819222 -0.0818812389 0.0133018654
-0.14424664 -0.203412111 0.0508280971 0.108357775
0.201791388 -0.149496468 0.203502829 0.013481015
-0.111574174 -0.174500259 -0.00168029737 0.141262628
0.16402772 0.121617901 0.100884495 0.0530739306
-0.014941282 0.0549515345 -0.0909454176 0.0116439607
0.1234789 -0.164671089 -0.042134312 0.0819526719
0.262077201 0.115280512 0.117898034 0.0218577123
0.181520712 -0.00572284678 0.0611954499 0.0613792764
0.103203909 -0.165892663 -0.027771312 0.100567713
0.0666156767 0.0459205306 -0.0840775955 0.0194097621
0.0725143624 -0.0537843314 0.247431941 0.0186174553
0.17359608 -0.00121250771 -0.140477797 0.014710387
0.195750726 0.0505295081 -0.0202239005 0.0153633548
0.148655149 0.354321161 0.191404788 0.0337582529
0.22327725 -0.0358856093 0.105140767 0.0296150867
0.130582798 -0.177196155 -0.0836091316 0.0675107482
0.210908705 -0.214837007 -0.15228158 0.0387693912
0.0931801285 -0.247471928 0.0317703796 0.0387939992
-0.294380453 -0.364813742 -0.174048503 0.0349514664
0.227102971 0.0257149327 -0.0517028255 0.0110187766
0.148185317 -0.0858823275 0.209633485 0.0188687409
-0.0341452521 -0.150188186 0.0329581727 0.107372373
0.168036712 0.334080666 0.210278782 0.0147821807
0.294581273 -0.289805949 -0.245861152 0.0349369279
0.339580516 -0.308008426 -0.249961128 0.0130852064
0.235781368 -0.149156621 0.173776535 0.0111456397
0.132946488 0.00818509663 -0.140235748 0.014359024
0.0840720522 0.0897227636 0.0302204356 0.0151366553
0.13943407 0.364798011 0.188673162 0.0272308377
0.129666371 -0.137032658 -0.00659873251 0.0822597248
0.118571774 -0.452646993 -0.0352156306 0.0182720636
-0.318467211 -0.392969653 -0.186213125 0.0345994663
-0.125447854 -0.444705232 -0.0551106923 0.0383650923
-0.0984928069 -0.193793926 0.147062307 0.0555922557
-0.00519381414 0.0814222221 -0.0261403347 0.0154785991
0.135621393 0.350305685 0.146857771 0.0113541685
0.259952099 0.129154 0.123923537 0.0247780172
0.218490237 0.460321701 0.080996805 0.00872762381
-0.0458806868 -0.201622915 -0.0477001132 0.107336569
0.0996918089 -0.177656283 -0.0783517623 0.0713627183
0.0897372757 -0.0248571557 0.215706858 0.0168337725
-0.291996801 -0.413578113 -0.182849572 0.0158613769
0.127865489 -0.19168035 -0.140351809 0.0364159077
0.175705722 0.0191380512 -0.0996233959 0.0191919833
0.254277937 0.243942949 0.201231298 0.0169431917
0.173963083 -0.0628225026 0.174220147 0.019122715
0.177731203 0.483309355 0.085300021 0.0109198796
0.123819997 -0.135088587 0.258053524 0.0128187952
0.0479876515 -0.186097818 -0.0425364408 0.0917536385
0.151285565 0.335125416 0.182761457 0.030940033
0.0850657681 -0.242396705 -0.0335358428 0.0523635691
-0.0635421129 -0.195876664 -0.0549311713 0.105863314
-0.339292175 -0.40432466 -0.204889882 0.0179985123
0.0427395417 -0.187906925 -0.0535888294 0.0826896934
-0.00129600773 -0.0321283944 0.0985618206 0.0406641196
0.123541043 0.0694302174 -0.0125564311 0.0173702231
0.231294969 0.180187365 0.013330057 0.0170911826
0.300927683 -0.287878741 -0.283960792 0.0164027542
-0.0982405666 -0.297888913 0.0172999543 0.0843526478
0.0932714335 -0.17733718 -0.10029005 0.0535862179
0.209789142 0.270685391 0.178896778 0.00971112804
0.219068941 0.22988227 0.0132750531 0.0188153486
0.187132038 0.0419170937 0.060226903 0.0639674078
0.217100329 0.0419798597 -0.00487238154 0.0126070145
0.17293045 -0.210124977 -0.148820121 0.044108135
0.340639725 -0.294929289 -0.270250635 0.0141148832
0.292883848 -0.280408447 -0.238240305 0.0349905878
0.191117567 0.0404241679 0.057867782 0.0597284609
0.182716949 0.00357701982 0.0656503128 0.0643215484
0.111659702 0.0873139724 0.06265758 0.0188359906
0.0264664439 0.083394562 -0.00806539384 0.0138480807
0.0938089046 -0.453275066 -0.0461712396 0.0159044304
0.193398347 0.0748623819 0.0649614267 0.0709964577
0.226953908 0.111443836 0.0440038247 0.0408289523
0.173342019 -0.103145236 0.201233422 0.0180512584
0.0674930545 0.0256530563 -0.125592315 0.0131259997
0.205717528 0.148668949 0.0709973986 0.0485412327
0.226117944 -0.00289532081 -0.114730621 0.0142992731
0.282574997 -0.317718626 -0.238367464 0.0159335822
0.0743459843 -0.134928909 0.0100121752 0.107331545
0.19396332 0.458644719 0.10002473 0.0235704945
0.254375303 0.124769236 0.118955705 0.0279100909
0.109299487 -0.0880445329 0.242520359 0.0183644892
0.16027671 0.0221196208 0.0757143132 0.0677654654
0.106366012 -0.355557377 -0.0500791971 0.030256521
0.251124579 0.11595909 0.0619340782 0.0303828787
0.0890323397 -0.27493019 -0.0505510566 0.0231514802
0.162269373 0.303759957 0.164475902 0.0281838556
-0.0708180316 -0.237829995 0.121328784 0.0649455283
0.159967186 -0.17531473 -0.0800453804 0.0471980692
0.153628189 0.0693054121 0.0544503792 0.0521320976
-0.276222993 -0.244260121 -0.0109991269 0.0241002861
0.194297365 -0.028691405 0.128639224 0.0261581412
0.232694431 0.27731259 0.213639088 0.0151612576
-0.109070715 -0.341688242 -7.02439507e-05 0.0596473356
-0.326644075 -0.394356509 -0.224589031 0.015061593
0.1040143 -0.285199253 -0.0325449313 0.0355574274
0.191884742 0.281418795 0.0474048008 0.0141202705
0.0582072675 0.066280232 -0.0388538074 0.0186318563
0.155025169 -0.0189523282 0.158959735 0.0199166732
-0.173623731 -0.182222178 -0.0345735781 0.0894741373
0.272542828 0.126354822 0.128270763 0.0189630787
0.0938228177 0.0728524328 -0.0124436909 0.0163993258
-0.134885455 -0.478287258 -0.0384592581 0.0178186817
0.257562403 -0.0703432471 0.111114331 0.020173722
0.28039709 -0.262570133 -0.217971026 0.0356625076
0.0889244846 -0.155807127 -0.00965441063 0.107875671
-0.303093485 -0.389153275 -0.231578686 0.0131785722
0.150431855 -0.247670068 -0.00707868728 0.0333630394
0.162387058 0.0748050657 0.0805875427 0.0651762686
0.282722019 -0.295580374 -0.271551139 0.0180723343
0.190083682 0.0515554575 0.0607354481 0.0652810749
0.13865819 0.0915632425 0.10625827 0.0364492953
-0.0965607182 -0.317036936 -0.0191560651 0.0553013803
0.223855422 0.16783602 0.0353955864 0.0244802684
0.106467269 0.0520332265 -0.0572424195 0.0204682522
0.218399506 0.0410485239 -0.022054898 0.0100716342
0.150747369 0.0652731034 0.0851523782 0.0593223162
0.020582734 0.0614808023 -0.0652345611 0.0182263317
0.313115937 -0.285152002 -0.254321966 0.0328268979
-0.130255503 -0.276105458 0.039660685 0.0773835498
-0.211023881 -0.196773482 0.0219967991 0.066338554
-0.101927853 -0.469629335 -0.03878201 0.0224750368
0.0820976787 0.0085376902 0.0842907728 0.0362852891
0.160973359 -0.144646151 0.235397174 0.0131062679
0.312086682 -0.31635069 -0.235772521 0.0156575992
0.135661113 0.0463861837 0.105306919 0.0443314328
0.28485377 0.128808299 0.049122355 0.0107224132
0.155269948 0.0638325364 -0.0133646782 0.0170977184
0.101104382 -0.0632889746 0.0468227995 0.0772862531
0.105406341 -0.297664998 0.0180628339 0.0250017688
0.199959365 0.159099255 0.100790613 0.0516844965
0.2459845 -0.241124639 -0.191208879 0.0383294238
0.219851495 0.191756379 0.0505503573 0.0176248981
0.227758732 0.0847614769 0.0186222515 0.0308231515
0.262355624 -0.144666494 0.146973399 0.00983231609
-0.168585748 -0.248070076 0.0718383449 0.0635715113
0.200725449 0.293170769 0.194628842 0.0120640557
0.211240991 0.443949326 0.0692073007 0.0076860331
0.0626515422 -0.181409435 -0.0347186078 0.0985524802
0.20459388 0.113200598 0.0671265847 0.0658024808
-0.118096352 -0.164734767 0.0443945383 0.132554248
0.114759803 -0.419459756 -0.0550113535 0.0388219433
0.289091107 0.142811679 0.144272873 0.0197740929
-0.233596624 -0.204082887 0.0100239283 0.0506525562
0.275696303 0.208610413 0.186951272 0.0188881999
0.171170018 0.466495555 0.0830208736 0.0124639579
0.206372591 0.059379786 0.0291799436 0.0406840321
0.184860981 0.306587004 0.197500445 0.0147068285
0.207535524 -0.00866433974 0.073096631 0.0440626792
0.201368866 0.08286875 -0.001189853 0.0144912102
0.242494368 0.10539839 0.0998220038 0.0391827665
-0.324939319 -0.282324726 -0.116191747 0.0170140714
0.108806941 -0.421199358 -0.067971906 0.031539419
0.0525535018 -0.201709494 0.0160049378 0.0840349033
0.20459976 0.25988053 0.0260059371 0.0156489276
0.12965609 0.0437184494 0.119408854 0.0317785605
-0.301630351 -0.376421439 -0.180603648 0.0368866759
0.231258322 0.131614423 0.111386878 0.0393752992
-0.0887784495 -0.189248818 0.0162981398 0.149357759
-0.0299377202 -0.0963712802 0.0721609847 0.0632985575
-0.27091906 -0.390105162 -0.229283002 0.0104988017
0.0093404168 -0.168371888 0.0109189854 0.115321771
0.286132543 -0.130431496 0.11720235 0.0106421498
0.244794935 -0.230554522 -0.176838608 0.0345834147
0.152864379 0.0449532576 -0.0559105541 0.0186216569
0.154798792 0.325443311 0.179368755 0.0301097101
0.120164649 0.03363763 0.145908462 0.0162420486
0.319657405 -0.287434471 -0.257419219 0.0290521723
0.151872348 -0.433402874 -0.0710892439 0.0150814699
-0.239092312 -0.301172974 -0.144623527 0.0466334066
0.0951750514 -0.164388469 -0.0183794606 0.107658544
-0.327152679 -0.410400551 -0.18361591 0.0221710934
0.247891962 -0.0333523438 0.0853849992 0.0209335774
0.182399261 0.254933793 0.144782401 0.0299764488
-0.118500219 -0.212729762 -0.0818266053 0.0790798257
0.150895547 0.0703109339 0.0741122147 0.0574406541
0.17102663 0.00992148398 0.0705831765 0.0670417114
0.269680247 -0.249166376 -0.203519146 0.0361457057
0.12512659 0.0759254448 0.0204370746 0.0212907375
0.19879768 0.0907458254 0.0692521194 0.0746962729
0.188157679 -0.0425536164 0.0350336756 0.0439960972
-0.31789728 -0.290411328 -0.0916414388 0.0169485279
-0.119906969 -0.402347381 -0.0366892497 0.0402551519
0.153325342 0.329306608 0.109112728 0.0113347317
-0.312971035 -0.389366035 -0.186537603 0.0365220095
0.324036248 -0.289336266 -0.282220698 0.0145394341
-0.213510561 -0.294791639 -0.150476718 0.0383763658
0.289341107 0.149592452 0.14958375 0.0213073573
0.0328530249 -0.127759457 0.0315768945 0.106820338
-0.0899022439 -0.202813901 0.0272803999 0.143697014
-0.117365071 -0.172620357 0.0383700285 0.138276192
0.156283084 0.0670499606 0.0104684566 0.0255871843
0.291186358 -0.262610704 -0.224781019 0.034240127
0.175988228 0.277739106 0.161859803 0.0286236688
0.160883379 0.312858676 0.178173765 0.0291800104
-0.10161203 -0.455176359 -0.0708779099 0.0190032238
0.0570366057 0.0838115761 0.00383612427 0.0127496643
-0.275781473 -0.405017709 -0.191793227 0.0179095194
-0.175595851 -0.222095365 -0.0748336818 0.0729177736
0.13851113 0.0563016348 0.0962756289 0.0499524211
0.155655303 0.328274119 0.151686262 0.0189320641
0.243421 -0.103015236 0.142256205 0.018096909
0.173362128 -0.0957774854 0.00407325703 0.0497356209
0.288593644 0.164895889 0.160280075 0.0216936124
0.280104135 -0.0730739428 0.0926601781 0.0181736974
0.308206402 -0.273899071 -0.244611244 0.0313483773
0.202677719 0.0525379677 -0.00441299345 0.0199508421
-0.305114747 -0.386142363 -0.189685424 0.0371626694
-0.137175955 -0.11294494 0.0596971711 0.0914340531
0.21066254 -0.110401892 0.174577299 0.0180137161
0.105450706 0.00285599242 0.183059845 0.0158578305
0.225703323 0.196328213 0.0318363978 0.0172348113
-0.215277526 -0.262496453 -0.025499284 0.0107086238
0.167387723 0.308314453 0.130344908 0.00953287949
-0.104168469 -0.188951943 -0.0331052835 0.121449702
-0.27195297 -0.399001493 -0.20320199 0.0165821026
0.170423591 0.0722385507 0.0738238314 0.0697325299
0.26531571 0.142091835 0.132409032 0.0229093606
0.133639789 -0.261408383 -0.0113151988 0.0446371984
0.197215483 0.0272166167 -0.0720501135 0.0170392228
0.299685045 -0.28716576 -0.24650617 0.0361289466
-0.173867099 -0.270756745 -0.137975966 0.0416887442
0.00649897612 -0.196897002 -0.0589175386 0.0826440901
0.136340156 0.353812002 0.177436459 0.021692786
0.0690392509 -0.0949624825 0.281022804 0.0186930842
0.110901171 -0.152091655 -0.0121085835 0.0968982509
0.0980407879 0.0188855735 -0.128418636 0.014527124
0.161541214 0.00752056649 0.113359078 0.0401273863
0.150098538 -0.44753692 -0.0454465652 0.0154580632
0.141493044 0.10544471 0.108018898 0.0354828167
0.12143751 0.0296737355 0.085021571 0.0460702833
0.245047813 0.13834907 0.121241217 0.0286851235
0.271674781 -0.311004319 -0.253205959 0.0149664616
0.0415368221 -0.188076988 -0.0423370695 0.0917645447
0.180326321 0.297758846 0.075513988 0.0126863368
0.148568972 -0.117751426 0.230032436 0.0168178575
0.204606229 0.162034102 0.0811949446 0.0444672511
0.2955287 -0.105326233 0.0983062234 0.0140623838
0.195988477 0.217095308 0.130847454 0.0321204582
-0.134612959 -0.109689761 0.00324692063 0.0891682678
0.129287265 -0.313493662 -0.0223532544 0.0396527751
0.210992293 0.248455637 0.0340959113 0.0159812027
0.225369729 0.104831983 0.0909894147 0.0554246179
0.0152553382 0.0455564359 -0.102810284 0.0146693139
-0.208847513 -0.191680912 0.0162190936 0.0691716609
0.138901381 0.0105635245 0.147444872 0.0189434609
0.116964872 -0.0163854185 0.0656017303 0.0597023032
-0.0303524349 0.0705205967 -0.0679065471 0.0148363156
0.125985323 0.075009814 0.0186037318 0.0211826532
-0.138695943 -0.231081695 -0.113069639 0.0551538688
0 51
0 70
0 103
0 190
0 208
0 209
0 258
1 140
1 231
2 38
2 62
2 77
3 80
3 101
3 221
4 35
4 161
4 166
4 175
4 205
4 249
4 279
4 280
5 26
5 54
5 57
5 64
5 65
5 113
5 138
6 61
6 68
6 112
6 165
6 214
6 256
6 269
7 81
7 152
8 83
8 167
8 297
9 133
9 145
9 179
9 191
9 290
10 59
10 131
10 274
11 16
11 21
11 32
11 67
11 201
11 219
11 231
12 38
12 129
13 49
13 51
13 140
13 149
13 170
13 193
13 208
13 248
13 262
13 294
14 40
14 46
14 51
14 264
14 289
15 111
15 116
15 117
15 121
15 134
15 160
15 198
15 200
15 226
15 229
15 266
15 292
16 32
16 201
16 219
16 231
17 59
17 69
17 89
17 94
17 131
17 148
17 260
18 60
18 92
18 126
19 105
19 110
19 163
19 182
19 261
20 96
20 131
20 274
21 219
21 236
21 248
21 271
21 299
22 27
22 42
22 51
22 66
22 128
22 155
22 188
22 203
22 211
22 220
22 238
22 239
22 283
23 56
23 111
23 112
23 116
23 117
23 121
23 256
24 51
24 70
24 103
24 172
24 178
24 209
24 238
24 296
25 26
25 57
25 88
25 97
25 99
25 102
25 108
25 188
25 220
25 272
25 283
26 57
26 64
26 88
26 91
26 108
26 113
26 188
27 42
27 51
27 70
27 208
27 211
27 238
27 239
28 42
28 87
28 107
28 137
28 143
28 162
28 169
28 203
28 211
28 239
29 42
29 66
29 99
29 145
29 179
29 203
30 71
30 142
30 186
30 197
30 244
31 105
31 122
31 125
31 134
31 163
31 189
31 229
32 67
32 219
32 236
33 190
33 258
34 58
34 75
34 92
34 124
34 164
34 214
34 276
35 166
35 172
35 205
35 249
35 280
36 56
36 63
36 94
36 141
36 153
36 251
36 259
37 56
37 78
37 117
37 128
37 132
37 155
37 178
37 226
37 230
37 252
37 275
37 296
38 62
39 65
39 113
39 181
39 213
40 51
40 289
41 58
41 124
41 293
42 46
42 51
42 66
42 87
42 99
42 100
42 145
42 179
42 188
42 203
42 211
42 238
42 239
42 272
42 283
43 180
43 223
43 286
43 288
44 146
44 233
44 263
44 284
45 57
45 66
45 99
45 145
45 157
45 220
45 268
45 275
45 290
46 51
46 87
46 100
46 264
47 52
47 125
47 158
47 161
47 166
47 180
47 189
47 207
47 225
47 266
47 279
47 292
48 68
48 92
48 126
48 269
49 82
49 169
49 170
49 185
49 208
49 239
49 240
49 262
49 294
50 74
50 123
50 173
50 259
50 285
51 70
51 87
51 140
51 149
51 190
51 193
51 209
51 211
51 238
51 240
51 248
51 258
51 264
51 289
51 294
52 125
52 158
52 161
52 166
52 180
52 279
52 292
53 167
53 293
53 297
54 57
54 64
54 78
54 138
54 220
54 275
55 85
55 130
55 150
55 200
55 292
56 63
56 111
56 116
56 117
56 132
56 141
56 178
56 198
56 222
56 226
56 230
56 296
57 64
57 78
57 88
57 99
57 138
57 155
57 220
57 268
57 275
58 124
58 147
58 164
58 167
58 276
58 293
59 89
59 131
59 274
60 75
60 92
60 126
61 112
61 121
61 165
61 177
61 183
61 199
61 214
61 241
61 256
61 269
62 71
62 77
62 84
62 98
62 197
62 215
62 244
62 250
62 273
63 117
63 141
63 153
63 198
63 222
63 226
63 254
64 88
64 113
64 138
64 220
65 113
65 181
65 213
66 155
66 179
66 203
66 220
66 268
67 206
67 210
67 234
67 247
67 257
67 265
68 165
68 269
69 94
69 123
69 131
69 285
70 190
70 208
70 209
70 238
70 239
71 98
71 197
71 215
71 244
72 106
72 115
72 127
72 154
72 159
72 168
72 174
72 270
72 282
73 114
73 168
73 174
73 217
73 270
74 184
74 251
74 259
75 92
75 276
76 118
76 139
76 151
76 225
76 246
76 298
77 84
77 98
77 273
78 252
78 275
79 120
79 191
79 278
80 90
80 101
80 144
80 156
80 206
80 221
80 234
80 257
81 152
81 171
81 232
81 245
82 137
82 190
82 208
82 239
82 240
83 119
83 147
83 167
83 297
84 98
84 215
84 233
84 250
84 273
85 130
85 150
85 192
85 200
85 207
85 267
85 281
85 292
86 129
86 187
87 100
87 107
87 162
87 239
87 272
87 283
88 91
88 97
88 99
88 108
88 188
88 220
89 131
89 260
90 206
90 221
90 234
90 247
90 257
91 108
91 113
92 126
92 214
92 269
93 109
93 142
93 194
94 123
94 141
94 148
94 259
95 129
95 195
96 131
96 173
96 285
97 102
97 108
97 188
97 272
97 283
98 136
98 215
98 244
98 250
98 273
99 102
99 135
99 145
99 179
99 188
99 211
99 268
99 283
100 107
100 162
100 224
100 239
100 264
100 272
100 299
101 144
101 221
101 234
102 108
102 188
102 272
102 283
103 172
103 209
104 121
104 139
104 151
104 164
104 177
104 214
104 228
104 241
104 298
105 163
105 261
106 159
106 168
106 235
106 270
107 143
107 162
107 169
107 239
107 264
109 142
109 186
109 223
109 243
109 288
110 182
110 204
110 261
110 291
111 112
111 116
111 117
111 121
111 132
111 158
111 160
111 196
111 226
111 229
111 256
111 266
112 116
112 121
112 165
112 183
112 196
112 256
114 217
114 235
115 127
115 154
115 159
115 174
115 242
115 255
115 270
115 282
116 117
116 121
116 160
116 198
117 121
117 132
117 141
117 160
117 198
117 222
117 226
117 230
118 139
118 158
118 166
118 225
119 147
119 167
119 246
120 191
120 202
121 132
121 139
121 158
121 160
121 177
121 183
121 196
121 198
121 199
121 226
121 229
121 241
121 256
121 266
122 134
122 176
122 183
122 189
122 229
123 173
123 259
123 285
124 276
125 134
125 163
125 180
125 182
125 189
125 207
125 261
125 286
126 269
127 174
127 270
127 282
128 155
128 178
128 188
128 220
128 238
128 275
128 283
129 187
129 195
130 150
130 200
130 207
130 267
130 281
130 292
131 274
131 285
132 139
132 158
132 160
132 166
132 175
132 226
132 241
132 266
132 277
132 280
132 296
133 145
133 191
133 202
133 290
134 176
134 189
134 200
134 229
134 292
135 145
135 188
135 283
136 215
136 223
136 243
136 244
136 250
136 263
137 208
137 239
137 240
139 158
139 166
139 177
139 225
139 226
139 228
139 229
139 241
139 266
139 280
139 296
139 298
140 149
140 193
140 262
140 294
141 148
141 226
141 277
142 186
143 162
143 169
143 232
144 156
144 234
144 257
145 179
145 211
145 268
145 283
145 290
146 204
146 284
146 291
147 151
147 164
147 167
147 246
148 226
148 260
148 277
148 295
149 193
149 240
149 248
149 264
149 294
150 192
150 200
150 237
150 267
151 164
151 228
151 246
151 298
152 171
153 198
153 212
153 222
153 251
153 254
153 287
154 181
154 227
154 242
154 270
155 188
155 220
155 275
156 210
156 257
156 265
157 268
158 161
158 166
158 175
158 189
158 225
158 226
158 249
158 266
158 277
158 292
159 168
159 270
159 282
160 177
160 198
160 229
160 241
161 166
161 175
161 225
161 249
161 279
162 232
162 239
162 264
163 182
163 189
163 261
163 286
164 177
164 214
165 256
166 175
166 225
166 249
166 279
166 280
166 298
167 293
167 297
168 174
168 217
168 235
168 255
168 270
169 185
169 208
169 239
170 193
170 208
170 240
170 294
171 232
171 245
172 175
172 226
172 280
172 296
173 285
174 217
174 270
175 205
175 216
175 226
175 249
175 277
175 280
175 295
175 296
176 189
177 199
177 214
177 228
177 229
177 241
177 256
178 226
178 238
178 296
179 203
179 268
179 290
180 189
180 207
180 267
180 281
180 286
180 288
180 292
181 213
181 227
182 261
182 286
182 291
183 196
183 199
183 229
183 256
184 212
184 251
185 208
185 239
186 197
186 243
186 244
188 220
188 272
188 283
189 207
189 229
189 266
189 286
189 292
190 208
190 209
190 240
190 258
191 202
191 218
191 278
192 237
192 267
193 294
194 253
196 256
197 243
197 244
198 222
198 230
199 229
199 241
199 256
200 292
201 231
202 218
203 211
204 291
205 216
205 249
205 280
205 295
206 210
206 234
206 247
206 257
206 265
207 253
207 267
207 281
207 292
208 209
208 238
208 239
208 240
208 248
208 262
208 264
210 257
210 265
211 238
211 239
211 283
212 251
212 287
213 227
214 269
215 244
215 250
215 273
216 226
216 260
216 277
216 280
216 295
217 235
217 255
217 270
218 278
219 236
220 275
221 234
222 254
223 243
223 263
223 288
224 239
224 248
224 264
224 271
224 299
225 266
225 279
225 280
225 298
226 266
226 277
226 280
226 295
226 296
227 242
228 241
228 298
229 241
229 266
230 252
232 245
233 250
233 263
233 284
234 257
236 271
237 253
237 267
238 239
239 240
239 248
239 262
239 264
239 299
240 258
240 289
240 294
241 298
242 255
242 270
243 244
243 263
247 257
247 265
248 262
248 264
248 271
248 294
248 299
249 280
250 263
250 273
251 259
251 287
253 267
253 281
254 287
255 270
257 265
258 289
260 277
260 295
261 286
261 291
262 294
263 284
264 299
266 277
266 292
267 281
268 290
270 282
271 299
272 283
277 280
277 295
280 295
280 296
281 292
3 0 51 70
3 0 51 190
3 0 51 209
3 0 51 258
3 0 70 190
3 0 70 208
3 0 70 209
3 0 103 209
3 0 190 208
3 0 190 209
3 0 190 258
3 0 208 209
3 2 38 62
3 2 62 77
3 3 80 101
3 3 80 221
3 3 101 221
3 4 35 166
3 4 35 205
3 4 35 249
3 4 35 280
3 4 161 166
3 4 161 175
3 4 161 249
3 4 161 279
3 4 166 175
3 4 166 249
3 4 166 279
3 4 166 280
3 4 175 205
3 4 175 249
3 4 175 280
3 4 205 249
3 4 205 280
3 4 249 280
3 5 26 57
3 5 26 64
3 5 26 113
3 5 54 57
3 5 54 64
3 5 54 138
3 5 57 64
3 5 57 138
3 5 64 113
3 5 64 138
3 5 65 113
3 6 61 112
3 6 61 165
3 6 61 214
3 6 61 256
3 6 61 269
3 6 68 165
3 6 68 269
3 6 112 165
3 6 112 256
3 6 165 256
3 6 214 269
3 7 81 152
3 8 83 167
3 8 83 297
3 8 167 297
3 9 133 145
3 9 133 191
3 9 133 290
3 9 145 179
3 9 145 290
3 9 179 290
3 10 59 131
3 10 59 274
3 10 131 274
3 11 16 32
3 11 16 201
3 11 16 219
3 11 16 231
3 11 21 219
3 11 32 67
3 11 32 219
3 11 201 231
3 13 49 170
3 13 49 208
3 13 49 262
3 13 49 294
3 13 51 140
3 13 51 149
3 13 51 193
3 13 51 248
3 13 51 294
3 13 140 149
3 13 140 193
3 13 140 262
3 13 140 294
3 13 149 193
3 13 149 248
3 13 149 294
3 13 170 193
3 13 170 208
3 13 170 294
3 13 193 294
3 13 208 248
3 13 208 262
3 13 248 262
3 13 248 294
3 13 262 294
3 14 40 51
3 14 40 289
3 14 46 51
3 14 46 264
3 14 51 264
3 14 51 289
3 15 111 116
3 15 111 117
3 15 111 121
3 15 111 160
3 15 111 226
3 15 111 229
3 15 111 266
3 15 116 117
3 15 116 121
3 15 116 160
3 15 116 198
3 15 117 121
3 15 117 160
3 15 117 198
3 15 117 226
3 15 121 160
3 15 121 198
3 15 121 226
3 15 121 229
3 15 121 266
3 15 134 200
3 15 134 229
3 15 134 292
3 15 160 198
3 15 160 229
3 15 200 292
3 15 226 266
3 15 229 266
3 15 266 292
3 16 32 219
3 16 201 231
3 17 59 89
3 17 59 131
3 17 69 94
3 17 69 131
3 17 89 131
3 17 89 260
3 17 94 148
3 17 148 260
3 18 60 92
3 18 60 126
3 18 92 126
3 19 105 163
3 19 105 261
3 19 110 182
3 19 110 261
3 19 163 182
3 19 163 261
3 19 182 261
3 20 96 131
3 20 131 274
3 21 219 236
3 21 236 271
3 21 248 271
3 21 248 299
3 21 271 299
3 22 27 42
3 22 27 51
3 22 27 211
3 22 27 238
3 22 27 239
3 22 42 51
3 22 42 66
3 22 42 188
3 22 42 203
3 22 42 211
3 22 42 238
3 22 42 239
3 22 42 283
3 22 51 211
3 22 51 238
3 22 66 155
3 22 66 203
3 22 66 220
3 22 128 155
3 22 128 188
3 22 128 220
3 22 128 238
3 22 128 283
3 22 155 188
3 22 155 220
3 22 188 220
3 22 188 283
3 22 203 211
3 22 211 238
3 22 211 239
3 22 211 283
3 22 238 239
3 23 56 111
3 23 56 116
3 23 56 117
3 23 111 112
3 23 111 116
3 23 111 117
3 23 111 121
3 23 111 256
3 23 112 116
3 23 112 121
3 23 112 256
3 23 116 117
3 23 116 121
3 23 117 121
3 23 121 256
3 24 51 70
3 24 51 209
3 24 51 238
3 24 70 209
3 24 70 238
3 24 103 172
3 24 103 209
3 24 172 296
3 24 178 238
3 24 178 296
3 25 26 57
3 25 26 88
3 25 26 108
3 25 26 188
3 25 57 88
3 25 57 99
3 25 57 220
3 25 88 97
3 25 88 99
3 25 88 108
3 25 88 188
3 25 88 220
3 25 97 102
3 25 97 108
3 25 97 188
3 25 97 272
3 25 97 283
3 25 99 102
3 25 99 188
3 25 99 283
3 25 102 108
3 25 102 188
3 25 102 272
3 25 102 283
3 25 188 220
3 25 188 272
3 25 188 283
3 25 272 283
3 26 57 64
3 26 57 88
3 26 64 88
3 26 64 113
3 26 88 91
3 26 88 108
3 26 88 188
3 26 91 108
3 26 91 113
3 27 42 51
3 27 42 211
3 27 42 238
3 27 42 239
3 27 51 70
3 27 51 211
3 27 51 238
3 27 70 208
3 27 70 238
3 27 70 239
3 27 208 238
3 27 208 239
3 27 211 238
3 27 211 239
3 27 238 239
3 28 42 87
3 28 42 203
3 28 42 211
3 28 42 239
3 28 87 107
3 28 87 162
3 28 87 239
3 28 107 143
3 28 107 162
3 28 107 169
3 28 107 239
3 28 137 239
3 28 143 162
3 28 143 169
3 28 162 239
3 28 169 239
3 28 203 211
3 28 211 239
3 29 42 66
3 29 42 99
3 29 42 145
3 29 42 179
3 29 42 203
3 29 66 179
3 29 66 203
3 29 99 145
3 29 99 179
3 29 145 179
3 29 179 203
3 30 71 197
3 30 71 244
3 30 142 186
3 30 186 197
3 30 186 244
3 30 197 244
3 31 105 163
3 31 122 134
3 31 122 189
3 31 122 229
3 31 125 134
3 31 125 163
3 31 125 189
3 31 134 189
3 31 134 229
3 31 163 189
3 31 189 229
3 32 219 236
3 33 190 258
3 34 58 124
3 34 58 164
3 34 58 276
3 34 75 92
3 34 75 276
3 34 92 214
3 34 124 276
3 34 164 214
3 35 166 249
3 35 166 280
3 35 172 280
3 35 205 249
3 35 205 280
3 35 249 280
3 36 56 63
3 36 56 141
3 36 63 141
3 36 63 153
3 36 94 141
3 36 94 259
3 36 153 251
3 36 251 259
3 37 56 117
3 37 56 132
3 37 56 178
3 37 56 226
3 37 56 230
3 37 56 296
3 37 78 252
3 37 78 275
3 37 117 132
3 37 117 226
3 37 117 230
3 37 128 155
3 37 128 178
3 37 128 275
3 37 132 226
3 37 132 296
3 37 155 275
3 37 178 226
3 37 178 296
3 37 226 296
3 37 230 252
3 39 65 113
3 39 65 181
3 39 65 213
3 39 181 213
3 40 51 289
3 41 58 124
3 41 58 293
3 42 46 51
3 42 46 87
3 42 46 100
3 42 51 87
3 42 51 211
3 42 51 238
3 42 66 179
3 42 66 203
3 42 87 100
3 42 87 239
3 42 87 272
3 42 87 283
3 42 99 145
3 42 99 179
3 42 99 188
3 42 99 211
3 42 99 283
3 42 100 239
3 42 100 272
3 42 145 179
3 42 145 211
3 42 145 283
3 42 179 203
3 42 188 272
3 42 188 283
3 42 203 211
3 42 211 238
3 42 211 239
3 42 211 283
3 42 238 239
3 42 272 283
3 43 180 286
3 43 180 288
3 43 223 288
3 44 146 284
3 44 233 263
3 44 233 284
3 44 263 284
3 45 57 99
3 45 57 220
3 45 57 268
3 45 57 275
3 45 66 220
3 45 66 268
3 45 99 145
3 45 99 268
3 45 145 268
3 45 145 290
3 45 157 268
3 45 220 275
3 45 268 290
3 46 51 87
3 46 51 264
3 46 87 100
3 46 100 264
3 47 52 125
3 47 52 158
3 47 52 161
3 47 52 166
3 47 52 180
3 47 52 279
3 47 52 292
3 47 125 180
3 47 125 189
3 47 125 207
3 47 158 161
3 47 158 166
3 47 158 189
3 47 158 225
3 47 158 266
3 47 158 292
3 47 161 166
3 47 161 225
3 47 161 279
3 47 166 225
3 47 166 279
3 47 180 189
3 47 180 207
3 47 180 292
3 47 189 207
3 47 189 266
3 47 189 292
3 47 207 292
3 47 225 266
3 47 225 279
3 47 266 292
3 48 68 269
3 48 92 126
3 48 92 269
3 48 126 269
3 49 82 208
3 49 82 239
3 49 82 240
3 49 169 185
3 49 169 208
3 49 169 239
3 49 170 208
3 49 170 240
3 49 170 294
3 49 185 208
3 49 185 239
3 49 208 239
3 49 208 240
3 49 208 262
3 49 239 240
3 49 239 262
3 49 240 294
3 49 262 294
3 50 74 259
3 50 123 173
3 50 123 259
3 50 123 285
3 50 173 285
3 51 70 190
3 51 70 209
3 51 70 238
3 51 140 149
3 51 140 193
3 51 140 294
3 51 149 193
3 51 149 240
3 51 149 248
3 51 149 264
3 51 149 294
3 51 190 209
3 51 190 240
3 51 190 258
3 51 193 294
3 51 211 238
3 51 240 258
3 51 240 289
3 51 240 294
3 51 248 264
3 51 248 294
3 51 258 289
3 52 125 180
3 52 158 161
3 52 158 166
3 52 158 292
3 52 161 166
3 52 161 279
3 52 166 279
3 52 180 292
3 53 167 293
3 53 167 297
3 54 57 64
3 54 57 78
3 54 57 138
3 54 57 220
3 54 57 275
3 54 64 138
3 54 64 220
3 54 78 275
3 54 220 275
3 55 85 130
3 55 85 150
3 55 85 200
3 55 85 292
3 55 130 150
3 55 130 200
3 55 130 292
3 55 150 200
3 55 200 292
3 56 63 117
3 56 63 141
3 56 63 198
3 56 63 222
3 56 63 226
3 56 111 116
3 56 111 117
3 56 111 132
3 56 111 226
3 56 116 117
3 56 116 198
3 56 117 132
3 56 117 141
3 56 117 198
3 56 117 222
3 56 117 226
3 56 117 230
3 56 132 226
3 56 132 296
3 56 141 226
3 56 178 226
3 56 178 296
3 56 198 222
3 56 198 230
3 56 226 296
3 57 64 88
3 57 64 138
3 57 64 220
3 57 78 275
3 57 88 99
3 57 88 220
3 57 99 268
3 57 155 220
3 57 155 275
3 57 220 275
3 58 124 276
3 58 147 164
3 58 147 167
3 58 167 293
3 59 89 131
3 59 131 274
3 60 75 92
3 60 92 126
3 61 112 121
3 61 112 165
3 61 112 183
3 61 112 256
3 61 121 177
3 61 121 183
3 61 121 199
3 61 121 241
3 61 121 256
3 61 165 256
3 61 177 199
3 61 177 214
3 61 177 241
3 61 177 256
3 61 183 199
3 61 183 256
3 61 199 241
3 61 199 256
3 61 214 269
3 62 71 98
3 62 71 197
3 62 71 215
3 62 71 244
3 62 77 84
3 62 77 98
3 62 77 273
3 62 84 98
3 62 84 215
3 62 84 250
3 62 84 273
3 62 98 215
3 62 98 244
3 62 98 250
3 62 98 273
3 62 197 244
3 62 215 244
3 62 215 250
3 62 215 273
3 62 250 273
3 63 117 141
3 63 117 198
3 63 117 222
3 63 117 226
3 63 141 226
3 63 153 198
3 63 153 222
3 63 153 254
3 63 198 222
3 63 222 254
3 64 88 220
3 65 181 213
3 66 155 220
3 66 179 203
3 66 179 268
3 67 206 210
3 67 206 234
3 67 206 247
3 67 206 257
3 67 206 265
3 67 210 257
3 67 210 265
3 67 234 257
3 67 247 257
3 67 247 265
3 67 257 265
3 69 94 123
3 69 123 285
3 69 131 285
3 70 190 208
3 70 190 209
3 70 208 209
3 70 208 238
3 70 208 239
3 70 238 239
3 71 98 215
3 71 98 244
3 71 197 244
3 71 215 244
3 72 106 159
3 72 106 168
3 72 106 270
3 72 115 127
3 72 115 154
3 72 115 159
3 72 115 174
3 72 115 270
3 72 115 282
3 72 127 174
3 72 127 270
3 72 127 282
3 72 154 270
3 72 159 168
3 72 159 270
3 72 159 282
3 72 168 174
3 72 168 270
3 72 174 270
3 72 270 282
3 73 114 217
3 73 168 174
3 73 168 217
3 73 168 270
3 73 174 217
3 73 174 270
3 73 217 270
3 74 184 251
3 74 251 259
3 76 118 139
3 76 118 225
3 76 139 225
3 76 139 298
3 76 151 246
3 76 151 298
3 76 225 298
3 77 84 98
3 77 84 273
3 77 98 273
3 79 120 191
3 79 191 278
3 80 90 206
3 80 90 221
3 80 90 234
3 80 90 257
3 80 101 144
3 80 101 221
3 80 101 234
3 80 144 156
3 80 144 234
3 80 144 257
3 80 156 257
3 80 206 234
3 80 206 257
3 80 221 234
3 80 234 257
3 81 152 171
3 81 171 232
3 81 171 245
3 81 232 245
3 82 137 208
3 82 137 239
3 82 137 240
3 82 190 208
3 82 190 240
3 82 208 239
3 82 208 240
3 82 239 240
3 83 119 147
3 83 119 167
3 83 147 167
3 83 167 297
3 84 98 215
3 84 98 250
3 84 98 273
3 84 215 250
3 84 215 273
3 84 233 250
3 84 250 273
3 85 130 150
3 85 130 200
3 85 130 207
3 85 130 267
3 85 130 281
3 85 130 292
3 85 150 192
3 85 150 200
3 85 150 267
3 85 192 267
3 85 200 292
3 85 207 267
3 85 207 281
3 85 207 292
3 85 267 281
3 85 281 292
3 86 129 187
3 87 100 107
3 87 100 162
3 87 100 239
3 87 100 272
3 87 107 162
3 87 107 239
3 87 162 239
3 87 272 283
3 88 91 108
3 88 97 108
3 88 97 188
3 88 99 188
3 88 188 220
3 90 206 234
3 90 206 247
3 90 206 257
3 90 221 234
3 90 234 257
3 90 247 257
3 92 126 269
3 92 214 269
3 93 109 142
3 94 123 259
3 94 141 148
3 95 129 195
3 96 131 285
3 96 173 285
3 97 102 108
3 97 102 188
3 97 102 272
3 97 102 283
3 97 188 272
3 97 188 283
3 97 272 283
3 98 136 215
3 98 136 244
3 98 136 250
3 98 215 244
3 98 215 250
3 98 215 273
3 98 250 273
3 99 102 188
3 99 102 283
3 99 135 145
3 99 135 188
3 99 135 283
3 99 145 179
3 99 145 211
3 99 145 268
3 99 145 283
3 99 179 268
3 99 188 283
3 99 211 283
3 100 107 162
3 100 107 239
3 100 107 264
3 100 162 239
3 100 162 264
3 100 224 239
3 100 224 264
3 100 224 299
3 100 239 264
3 100 239 299
3 100 264 299
3 101 144 234
3 101 221 234
3 102 188 272
3 102 188 283
3 102 272 283
3 104 121 139
3 104 121 177
3 104 121 241
3 104 139 177
3 104 139 228
3 104 139 241
3 104 139 298
3 104 151 164
3 104 151 228
3 104 151 298
3 104 164 177
3 104 164 214
3 104 177 214
3 104 177 228
3 104 177 241
3 104 228 241
3 104 228 298
3 104 241 298
3 105 163 261
3 106 159 168
3 106 159 270
3 106 168 235
3 106 168 270
3 107 143 162
3 107 143 169
3 107 162 239
3 107 162 264
3 107 169 239
3 107 239 264
3 109 142 186
3 109 186 243
3 109 223 243
3 109 223 288
3 110 182 261
3 110 182 291
3 110 204 291
3 110 261 291
3 111 112 116
3 111 112 121
3 111 112 196
3 111 112 256
3 111 116 117
3 111 116 121
3 111 116 160
3 111 117 121
3 111 117 132
3 111 117 160
3 111 117 226
3 111 121 132
3 111 121 158
3 111 121 160
3 111 121 196
3 111 121 226
3 111 121 229
3 111 121 256
3 111 121 266
3 111 132 158
3 111 132 160
3 111 132 226
3 111 132 266
3 111 158 226
3 111 158 266
3 111 160 229
3 111 196 256
3 111 226 266
3 111 229 266
3 112 116 121
3 112 121 183
3 112 121 196
3 112 121 256
3 112 165 256
3 112 183 196
3 112 183 256
3 112 196 256
3 114 217 235
3 115 127 174
3 115 127 270
3 115 127 282
3 115 154 242
3 115 154 270
3 115 159 270
3 115 159 282
3 115 174 270
3 115 242 255
3 115 242 270
3 115 255 270
3 115 270 282
3 116 117 121
3 116 117 160
3 116 117 198
3 116 121 160
3 116 121 198
3 116 160 198
3 117 121 132
3 117 121 160
3 117 121 198
3 117 121 226
3 117 132 160
3 117 132 226
3 117 141 226
3 117 160 198
3 117 198 222
3 117 198 230
3 118 139 158
3 118 139 166
3 118 139 225
3 118 158 166
3 118 158 225
3 118 166 225
3 119 147 167
3 119 147 246
3 120 191 202
3 121 132 139
3 121 132 158
3 121 132 160
3 121 132 226
3 121 132 241
3 121 132 266
3 121 139 158
3 121 139 177
3 121 139 226
3 121 139 229
3 121 139 241
3 121 139 266
3 121 158 226
3 121 158 266
3 121 160 177
3 121 160 198
3 121 160 229
3 121 160 241
3 121 177 199
3 121 177 229
3 121 177 241
3 121 177 256
3 121 183 196
3 121 183 199
3 121 183 229
3 121 183 256
3 121 196 256
3 121 199 229
3 121 199 241
3 121 199 256
3 121 226 266
3 121 229 241
3 121 229 266
3 122 134 176
3 122 134 189
3 122 134 229
3 122 176 189
3 122 183 229
3 122 189 229
3 123 173 285
3 125 134 189
3 125 163 182
3 125 163 189
3 125 163 261
3 125 163 286
3 125 180 189
3 125 180 207
3 125 180 286
3 125 182 261
3 125 182 286
3 125 189 207
3 125 189 286
3 125 261 286
3 127 174 270
3 127 270 282
3 128 155 188
3 128 155 220
3 128 155 275
3 128 178 238
3 128 188 220
3 128 188 283
3 128 220 275
3 130 150 200
3 130 150 267
3 130 200 292
3 130 207 267
3 130 207 281
3 130 207 292
3 130 267 281
3 130 281 292
3 132 139 158
3 132 139 166
3 132 139 226
3 132 139 241
3 132 139 266
3 132 139 280
3 132 139 296
3 132 158 166
3 132 158 175
3 132 158 226
3 132 158 266
3 132 158 277
3 132 160 241
3 132 166 175
3 132 166 280
3 132 175 226
3 132 175 277
3 132 175 280
3 132 175 296
3 132 226 266
3 132 226 277
3 132 226 280
3 132 226 296
3 132 266 277
3 132 277 280
3 132 280 296
3 133 145 290
3 133 191 202
3 134 176 189
3 134 189 229
3 134 189 292
3 134 200 292
3 135 145 283
3 135 188 283
3 136 215 244
3 136 215 250
3 136 223 243
3 136 223 263
3 136 243 244
3 136 243 263
3 136 250 263
3 137 208 239
3 137 208 240
3 137 239 240
3 139 158 166
3 139 158 225
3 139 158 226
3 139 158 266
3 139 166 225
3 139 166 280
3 139 166 298
3 139 177 228
3 139 177 229
3 139 177 241
3 139 225 266
3 139 225 280
3 139 225 298
3 139 226 266
3 139 226 280
3 139 226 296
3 139 228 241
3 139 228 298
3 139 229 241
3 139 229 266
3 139 241 298
3 139 280 296
3 140 149 193
3 140 149 294
3 140 193 294
3 140 262 294
3 141 148 226
3 141 148 277
3 141 226 277
3 143 162 232
3 144 156 257
3 144 234 257
3 145 179 268
3 145 179 290
3 145 211 283
3 145 268 290
3 146 204 291
3 147 151 164
3 147 151 246
3 148 226 277
3 148 226 295
3 148 260 277
3 148 260 295
3 148 277 295
3 149 193 294
3 149 240 294
3 149 248 264
3 149 248 294
3 150 192 237
3 150 192 267
3 150 237 267
3 151 228 298
3 153 198 222
3 153 212 251
3 153 212 287
3 153 222 254
3 153 251 287
3 153 254 287
3 154 181 227
3 154 227 242
3 154 242 270
3 155 188 220
3 155 220 275
3 156 210 257
3 156 210 265
3 156 257 265
3 158 161 166
3 158 161 175
3 158 161 225
3 158 161 249
3 158 166 175
3 158 166 225
3 158 166 249
3 158 175 226
3 158 175 249
3 158 175 277
3 158 189 266
3 158 189 292
3 158 225 266
3 158 226 266
3 158 226 277
3 158 266 277
3 158 266 292
3 159 168 270
3 159 270 282
3 160 177 229
3 160 177 241
3 160 229 241
3 161 166 175
3 161 166 225
3 161 166 249
3 161 166 279
3 161 175 249
3 161 225 279
3 162 239 264
3 163 182 261
3 163 182 286
3 163 189 286
3 163 261 286
3 164 177 214
3 166 175 249
3 166 175 280
3 166 225 279
3 166 225 280
3 166 225 298
3 166 249 280
3 168 174 217
3 168 174 270
3 168 217 235
3 168 217 255
3 168 217 270
3 168 255 270
3 169 185 208
3 169 185 239
3 169 208 239
3 170 193 294
3 170 208 240
3 170 240 294
3 171 232 245
3 172 175 226
3 172 175 280
3 172 175 296
3 172 226 280
3 172 226 296
3 172 280 296
3 174 217 270
3 175 205 216
3 175 205 249
3 175 205 280
3 175 205 295
3 175 216 226
3 175 216 277
3 175 216 280
3 175 216 295
3 175 226 277
3 175 226 280
3 175 226 295
3 175 226 296
3 175 249 280
3 175 277 280
3 175 277 295
3 175 280 295
3 175 280 296
3 177 199 229
3 177 199 241
3 177 199 256
3 177 228 241
3 177 229 241
3 178 226 296
3 179 268 290
3 180 189 207
3 180 189 286
3 180 189 292
3 180 207 267
3 180 207 281
3 180 207 292
3 180 267 281
3 180 281 292
3 181 213 227
3 182 261 286
3 182 261 291
3 183 196 256
3 183 199 229
3 183 199 256
3 184 212 251
3 185 208 239
3 186 197 243
3 186 197 244
3 186 243 244
3 188 272 283
3 189 207 292
3 189 229 266
3 189 266 292
3 190 208 209
3 190 208 240
3 190 240 258
3 191 202 218
3 191 218 278
3 192 237 267
3 197 243 244
3 199 229 241
3 205 216 280
3 205 216 295
3 205 249 280
3 205 280 295
3 206 210 257
3 206 210 265
3 206 234 257
3 206 247 257
3 206 247 265
3 206 257 265
3 207 253 267
3 207 253 281
3 207 267 281
3 207 281 292
3 208 238 239
3 208 239 240
3 208 239 248
3 208 239 262
3 208 239 264
3 208 248 262
3 208 248 264
3 210 257 265
3 211 238 239
3 212 251 287
3 215 250 273
3 216 226 277
3 216 226 280
3 216 226 295
3 216 260 277
3 216 260 295
3 216 277 280
3 216 277 295
3 216 280 295
3 217 255 270
3 223 243 263
3 224 239 248
3 224 239 264
3 224 239 299
3 224 248 264
3 224 248 271
3 224 248 299
3 224 264 299
3 224 271 299
3 226 266 277
3 226 277 280
3 226 277 295
3 226 280 295
3 226 280 296
3 228 241 298
3 233 250 263
3 233 263 284
3 237 253 267
3 239 248 262
3 239 248 264
3 239 248 299
3 239 264 299
3 240 258 289
3 242 255 270
3 247 257 265
3 248 262 294
3 248 264 299
3 248 271 299
3 253 267 281
3 260 277 295
3 277 280 295
