ply
format ascii 1.0
element vertex 300
property float x
property float y
property float z
property float radius
element edge 816
property int vertex1
property int vertex2
element face 626
property list uchar int vertex_indices
end_header
0.301187 0.256373 0.347817 0.109325
0.446102 0.541884 0.396982 0.01332
0.427417 0.371844 0.317957 0.108077
0.51076 0.884924 0.497116 0.033894
0.0517306 0.115433 0.116211 0.0384897
0.661602 0.213003 0.0172672 0.0163698
0.326385 0.578198 0.254208 0.0156863
0.474658 0.081309 0.246945 0.0384947
0.4303 0.399839 0.584106 0.017841
0.207481 0.031086 0.229412 0.0107953
0.557746 0.958401 0.402492 0.022247
0.0320178 0.215214 0.189718 0.0167535
0.55355 0.489907 0.374284 0.0558582
0.225826 0.278793 0.208344 0.0697883
0.458379 0.337412 0.283182 0.106713
0.656953 0.39938 0.395623 0.0151669
0.589782 0.645371 0.423412 0.0291977
0.573536 0.488749 0.16099 0.013873
0.452577 0.384698 0.577214 0.0183414
0.358466 0.547484 0.199631 0.0119624
0.589013 0.674433 0.324456 0.019126
0.449598 0.324293 0.242809 0.0835544
0.489991 0.500652 0.373515 0.0577021
0.170203 0.308015 0.333885 0.0803196
0.525112 0.840651 0.521794 0.0083235
0.575852 0.541605 0.304444 0.0153117
0.441866 0.589619 0.33097 0.0159081
0.526486 0.786458 0.455381 0.0265683
0.236576 0.349958 0.352035 0.121766
0.579582 0.454933 0.422778 0.024388
0.590523 0.491789 0.181652 0.0131411
0.123956 0.200707 0.157542 0.0473106
0.329608 0.566869 0.228778 0.0155591
0.587089 0.781562 0.517925 0.01616
0.280759 0.31183 0.258647 0.117009
0.509169 0.35587 0.546892 0.0139458
0.489165 0.53495 0.440493 0.021163
0.492453 0.537273 0.219168 0.0209854
0.550721 0.941968 0.443841 0.025841
0.495799 0.581192 0.34936 0.0328542
0.591224 0.686168 0.318268 0.0181048
0.494564 0.251624 0.291684 0.0476729
0.52835 0.497264 0.432791 0.0267494
0.244231 0.174365 0.311139 0.0617268
0.142659 0.312755 0.314147 0.0620434
0.686308 0.210983 0.0427254 0.0249201
0.457861 0.43447 0.348391 0.0784924
0.605417 0.469937 0.386764 0.0222102
0.569521 0.664525 0.415947 0.0385078
0.615583 0.348101 0.46029 0.0102036
0.253238 0.386635 0.231056 0.0699581
0.384449 0.584226 0.294451 0.014555
0.448766 0.480654 0.51399 0.0159242
0.0679936 0.136212 0.128205 0.0364113
0.524321 0.809452 0.483448 0.0271158
0.670161 0.225904 0.0571341 0.0321155
0.651818 0.661389 0.464046 0.0207051
0.474146 0.0453724 0.268562 0.0175872
0.586616 0.711481 0.315732 0.0198847
0.169639 0.320469 0.285075 0.0798147
0.353196 0.45345 0.39804 0.0465521
0.47248 0.518415 0.467451 0.0163009
0.0339282 0.101783 0.117247 0.0303566
0.581628 0.538953 0.277278 0.00908574
0.465524 0.464303 0.507969 0.0164469
0.523821 0.498631 0.156419 0.0142791
0.588907 0.951817 0.369234 0.00632048
0.699752 0.208373 0.0192476 0.00979347
0.508294 0.836274 0.480166 0.0298533
0.262298 0.304227 0.454119 0.0528114
0.489295 0.655865 0.384779 0.0120883
0.566316 0.346623 0.504891 0.0121674
0.464163 0.219873 0.333347 0.0216517
0.270332 0.0224456 0.268012 0.0164863
0.598563 0.418294 0.435883 0.0199426
0.467094 0.572393 0.290523 0.0167451
0.50036 0.32964 0.232552 0.0631461
0.476569 0.132143 0.263553 0.0402577
0.653924 0.630644 0.350451 0.00955003
0.204125 0.424802 0.395935 0.0524449
0.469743 0.511066 0.160021 0.0125681
0.0842411 0.108519 0.0816166 0.0134628
0.516711 0.379833 0.527524 0.0173064
0.520709 0.820096 0.388972 0.0113156
0.543028 0.99066 0.388363 0.0087187
0.0374808 0.210966 0.220984 0.0148787
0.479037 0.351926 0.29129 0.0911793
0.423181 0.568991 0.270469 0.0178079
0.548233 0.748144 0.45175 0.028105
0.476962 0.577456 0.318372 0.0169895
0.162139 0.243439 0.198664 0.0517602
0.519147 0.0647416 0.231791 0.0126934
0.619537 0.171944 0.0589948 0.00543034
0.495302 0.456802 0.492173 0.0183869
0.533649 0.403133 0.305591 0.0498286
0.655139 0.372501 0.408901 0.0109092
0.489158 0.864247 0.4851 0.0191076
0.0822259 0.0988376 0.110576 0.0203225
0.552395 0.715 0.42132 0.0304725
0.576963 0.762185 0.478338 0.00588622
0.224992 0.0122693 0.271844 0.0116097
0.655572 0.212032 0.057403 0.0361729
0.192528 0.322229 0.39476 0.0691878
0.532307 0.508484 0.180706 0.0184829
0.448416 0.265775 0.337497 0.0432169
0.509255 0.851245 0.505881 0.0239906
0.578258 0.729917 0.313211 0.018951
0.673265 0.171306 0.0737159 0.0079242
0.578992 0.592653 0.384301 0.0626584
0.615187 0.628177 0.423883 0.0263804
0.218108 0.418043 0.246148 0.0561205
0.201225 0.239808 0.166977 0.0426913
0.540613 0.454216 0.459275 0.0195451
0.537034 0.309084 0.185165 0.0438104
0.499521 0.843733 0.429955 0.0102869
0.56439 0.551661 0.295295 0.0169447
0.48223 0.86394 0.476736 0.0104015
0.528638 0.838686 0.524102 0.00723831
0.359108 0.309701 0.293341 0.116067
0.0452625 0.222167 0.173601 0.0171976
0.54854 0.595227 0.36362 0.0637484
0.579712 0.284609 0.148641 0.03677
0.263019 0.169666 0.27486 0.0441643
0.569143 0.581119 0.293395 0.00955425
0.595347 0.574953 0.38767 0.0461737
0.516729 0.0487776 0.260997 0.0121007
0.0155921 0.0867065 0.106673 0.0139462
0.49189 0.313916 0.192984 0.0584908
0.607724 0.374854 0.453763 0.0162408
0.251705 0.0522121 0.220296 0.0194291
0.377068 0.56805 0.251159 0.0174204
0.341522 0.492977 0.409076 0.0145217
0.540562 0.795198 0.356145 0.0122889
0.555661 0.812432 0.524413 0.0112184
0.424942 0.523517 0.171696 0.0121513
0.44517 0.578239 0.309382 0.0136429
0.108935 0.0924519 0.103657 0.00870916
0.559115 0.797106 0.498133 0.0100289
0.372204 0.479217 0.400767 0.0375787
0.228369 0.0534874 0.245631 0.0362205
0.417828 0.326469 0.381663 0.0451995
0.71073 0.19679 0.0399253 0.00915478
0.381439 0.304784 0.244142 0.0809485
0.0928098 0.30129 0.307467 0.0203304
0.539702 0.345376 0.524973 0.00963317
0.550409 0.554154 0.287281 0.0152268
0.637279 0.202584 0.0266699 0.0148776
0.463663 0.501781 0.487403 0.0165128
0.645067 0.627816 0.433368 0.0131192
0.548971 0.953444 0.401067 0.021776
0.536522 0.528024 0.220031 0.0191587
0.56198 0.762641 0.328102 0.015985
0.32246 0.399887 0.373277 0.062475
0.423899 0.554878 0.235519 0.0198295
0.583389 0.65647 0.33116 0.0248457
0.637571 0.351558 0.435085 0.00629624
0.459089 0.224247 0.266369 0.0341239
0.53306 0.483844 0.36309 0.0621601
0.563857 0.418633 0.464141 0.0191303
0.505851 0.43403 0.337021 0.0688205
0.621111 0.264226 0.114614 0.0329398
0.579374 0.703743 0.348682 0.0104085
0.4616 0.174373 0.254475 0.02613
0.0104036 0.0899477 0.0884333 0.00795586
0.290634 0.257995 0.429293 0.0602215
0.636313 0.432819 0.393839 0.0198339
0.646064 0.698029 0.491925 0.0156226
0.566217 0.934329 0.362335 0.00364113
0.597 0.582784 0.308922 0.0197275
0.434578 0.278752 0.267128 0.0679345
0.4601 0.318442 0.161677 0.027564
0.381716 0.374727 0.339265 0.103273
0.47057 0.364175 0.567938 0.0115564
0.521207 0.623911 0.443021 0.021725
0.0519044 0.206838 0.219334 0.0156288
0.529163 0.425199 0.488366 0.0193379
0.198207 0.270089 0.370227 0.0787622
0.470535 0.174557 0.299658 0.0302004
0.512909 0.83238 0.452268 0.0153911
0.50082 0.414811 0.516957 0.0187941
0.600793 0.499456 0.21529 0.00711467
0.459288 0.074383 0.217135 0.0189272
0.102272 0.111788 0.0576332 0.00466051
0.62573 0.392991 0.424225 0.0153774
0.646005 0.646673 0.447521 0.0232996
0.505145 0.48123 0.468223 0.018793
0.484788 0.858169 0.457539 0.00778956
0.613826 0.751136 0.510965 0.0162687
0.0393055 0.1096 0.0854743 0.02055
0.453956 0.538599 0.208848 0.0203462
0.555407 0.77632 0.35253 0.0146465
0.226486 0.392029 0.310676 0.0897497
0.563059 0.662109 0.379273 0.0428713
0.56903 0.750308 0.338537 0.0165691
0.421279 0.425268 0.573831 0.0192755
0.643853 0.681997 0.471038 0.0210257
0.47647 0.556601 0.25709 0.0189863
0.481959 0.520317 0.182345 0.0188073
0.456118 0.523183 0.388944 0.0312831
0.449407 0.041049 0.25761 0.0122995
0.23645 0.0514603 0.249474 0.0354256
0.524283 0.968465 0.377075 0.00878185
0.0768117 0.208031 0.180145 0.0202684
0.491995 0.19618 0.281332 0.0404559
0.533639 0.801207 0.424041 0.00398439
0.566213 0.534373 0.251765 0.0146215
0.0246993 0.103218 0.0685758 0.008044
0.535912 0.563534 0.334614 0.0433096
0.392698 0.532249 0.181514 0.00987036
0.560253 0.71735 0.437422 0.0285722
0.534642 0.919893 0.478488 0.0298562
0.176962 0.263128 0.272675 0.0498015
0.356287 0.58135 0.277799 0.0154222
0.591745 0.526419 0.257255 0.00870606
0.416286 0.58751 0.310623 0.0118785
0.514266 0.829787 0.426272 0.0124451
0.490811 0.623736 0.37285 0.0134011
0.278139 0.0338571 0.236964 0.00982059
0.476329 0.442491 0.516547 0.0182474
0.589306 0.342674 0.484391 0.00937459
0.572842 0.630001 0.351833 0.0474728
0.648402 0.242688 0.0842363 0.0344106
0.483983 0.575839 0.407161 0.0292759
0.53704 0.766833 0.443094 0.0259907
0.113661 0.284569 0.317887 0.0371321
0.289462 0.29033 0.317709 0.140549
0.546012 0.388021 0.497242 0.0176269
0.618548 0.622291 0.339286 0.0152782
0.509913 0.624867 0.407239 0.0405372
0.432936 0.456716 0.540894 0.0162421
0.504612 0.0718705 0.207235 0.00816572
0.171221 0.218441 0.160376 0.0418097
0.554249 0.473586 0.341957 0.0409315
0.544407 0.786046 0.477245 0.0224629
0.267244 0.179173 0.327714 0.0630417
0.183522 0.318387 0.26028 0.0845476
0.642597 0.236207 0.0820878 0.036069
0.539362 0.65828 0.414181 0.0362033
0.517103 0.814877 0.464988 0.0258004
0.543169 0.944869 0.383109 0.01004
0.312398 0.296708 0.247343 0.103233
0.507226 0.560694 0.390456 0.0571532
0.499289 0.606035 0.412688 0.0324565
0.042437 0.108858 0.0584354 0.00715072
0.512416 0.926478 0.486484 0.0185068
0.408768 0.540174 0.202945 0.0165381
0.490958 0.558368 0.33643 0.0202052
0.528741 0.552569 0.271263 0.0162309
0.469389 0.586509 0.37332 0.0170245
0.543617 0.794173 0.379296 0.0121064
0.409595 0.420359 0.356005 0.0853764
0.61442 0.255566 0.105657 0.0391088
0.114077 0.101377 0.0810005 0.00512692
0.073707 0.114076 0.0543558 0.00626226
0.2172 0.0404503 0.216994 0.0117239
0.467753 0.420702 0.539633 0.0188196
0.24062 0.10111 0.267331 0.0417304
0.7048 0.17883 0.0619483 0.0067256
0.0560143 0.111515 0.0712101 0.0132603
0.471543 0.547718 0.434951 0.0117597
0.627508 0.721802 0.49333 0.019582
0.582084 0.710614 0.39601 0.0130365
0.101568 0.276712 0.302746 0.03306
0.585586 0.521676 0.239886 0.0125249
0.10736 0.185371 0.150561 0.0437626
0.596176 0.514477 0.237175 0.00927553
0.551515 0.543101 0.353708 0.0563458
0.402747 0.411302 0.583618 0.00795683
0.494042 0.571971 0.300159 0.0182925
0.421855 0.491335 0.387274 0.0432036
0.599067 0.262176 0.115417 0.0400314
0.634744 0.654785 0.443424 0.0205715
0.62515 0.616095 0.370033 0.0192839
0.529026 0.812074 0.407458 0.0111622
0.576345 0.505958 0.195585 0.0172433
0.375451 0.553008 0.215347 0.0178113
0.209832 0.242071 0.361076 0.0729072
0.576679 0.377365 0.477379 0.016316
0.0609288 0.0765069 0.12353 0.00979744
0.0677331 0.223546 0.158646 0.0185528
0.551523 0.558383 0.35404 0.0618027
0.0630298 0.232094 0.266015 0.0157479
0.519817 0.554023 0.376485 0.0653868
0.458121 0.118087 0.23636 0.0214591
0.270676 0.298893 0.387171 0.0994219
0.438703 0.447343 0.54511 0.0191658
0.595394 0.76038 0.497075 0.014404
0.610785 0.457784 0.398403 0.0217735
0.0887586 0.259661 0.29462 0.025426
0.256623 0.114891 0.291973 0.0373139
0.497634 0.517989 0.443185 0.0191975
0.409635 0.2576 0.348246 0.0380859
0.514733 0.638489 0.378612 0.0257371
0.564209 0.746545 0.421415 0.0140711
0.644603 0.172021 0.0715127 0.0102051
0.21255 0.0232073 0.251376 0.0139379
0.559913 0.537721 0.324836 0.031713
0.498917 0.546009 0.393623 0.0536317
0.552002 0.280912 0.14009 0.0413565
0.47221 0.389015 0.555609 0.0162762
0 118
0 164
0 225
0 234
0 276
0 284
0 291
1 198
1 297
2 14
2 21
2 46
2 86
2 104
2 118
2 140
2 142
2 159
2 171
2 250
3 54
3 68
3 96
3 105
3 210
3 244
4 53
4 62
4 81
4 97
4 188
4 258
4 278
5 45
5 55
5 67
5 101
5 146
6 32
6 130
6 212
7 57
7 77
7 91
7 125
7 181
7 199
7 230
7 283
8 18
8 194
8 255
8 267
9 139
9 254
9 295
10 38
10 66
10 84
10 149
10 167
10 239
11 85
11 119
11 174
11 202
12 29
12 42
12 47
12 120
12 157
12 232
12 266
12 280
12 282
12 287
13 34
13 90
13 111
13 211
13 225
13 235
14 21
14 41
14 76
14 86
14 104
14 118
14 127
14 142
14 156
14 169
15 95
15 165
15 183
16 48
16 108
16 109
16 192
16 271
17 30
17 65
17 103
17 274
18 172
18 255
18 299
19 32
19 208
19 275
20 40
20 154
20 161
20 192
20 220
21 127
21 142
21 169
21 170
22 42
22 46
22 157
22 159
22 198
22 269
22 282
22 290
22 297
23 28
23 44
23 102
23 176
23 211
23 224
23 262
23 276
24 54
24 105
24 117
24 133
24 137
25 63
25 115
25 280
25 296
26 39
26 89
26 135
26 214
26 248
27 54
27 88
27 204
27 223
27 233
27 238
28 44
28 59
28 69
28 79
28 102
28 118
28 152
28 171
28 176
28 191
28 225
28 284
29 42
29 74
29 112
29 158
29 287
30 180
30 274
31 90
31 202
31 231
31 264
31 279
32 130
32 275
33 133
33 137
33 187
33 286
34 50
34 118
34 171
34 225
34 235
34 240
35 82
35 144
35 172
35 299
36 61
36 241
36 259
36 290
36 297
37 103
37 150
37 189
37 196
37 197
37 247
38 149
38 210
38 244
39 89
39 120
39 207
39 216
39 241
39 246
39 248
39 268
39 282
40 58
40 154
40 161
40 192
41 72
41 104
41 156
41 203
42 112
42 157
42 185
42 282
42 290
43 122
43 225
43 234
43 256
43 276
43 289
44 59
44 143
44 211
44 224
44 262
45 55
45 67
45 101
45 141
45 257
46 157
46 159
46 250
46 269
47 165
47 287
48 98
48 108
48 109
48 192
48 209
48 228
48 237
48 261
49 128
49 155
49 219
50 59
50 110
50 118
50 191
50 235
51 87
51 130
51 212
51 214
52 64
52 147
52 229
52 285
53 81
53 97
53 264
54 68
54 88
54 105
54 133
54 137
54 233
54 238
55 101
55 221
55 236
56 166
56 184
56 195
56 271
57 125
57 199
58 106
58 161
58 193
59 110
59 191
59 211
59 235
59 262
59 288
60 131
60 138
60 152
60 171
60 250
61 147
61 185
61 259
61 290
62 126
62 163
62 188
62 278
63 115
63 145
63 205
63 213
64 93
64 147
64 218
64 229
64 285
65 80
65 103
65 197
66 167
67 141
68 96
68 105
68 116
68 178
68 186
68 238
69 102
69 164
69 284
70 216
70 228
70 237
70 292
71 144
71 219
71 226
71 277
72 104
72 156
72 169
72 177
72 203
73 100
73 200
73 217
74 128
74 158
74 165
74 183
74 287
75 87
75 89
75 135
75 196
75 268
76 86
76 113
76 127
77 162
77 177
77 203
77 283
78 108
78 227
78 272
79 191
80 134
80 197
81 97
81 136
81 182
81 252
81 253
81 258
82 144
82 179
82 226
82 299
83 114
83 132
83 215
83 249
83 273
84 149
84 201
85 174
85 281
86 94
86 159
87 130
87 135
87 153
87 196
87 214
88 98
88 99
88 209
88 223
88 233
88 293
89 135
89 246
89 268
90 111
90 211
90 231
90 235
91 125
91 230
92 101
92 146
92 294
93 112
93 147
93 175
93 179
93 185
93 218
94 159
94 232
95 155
95 183
96 105
96 116
96 186
97 136
97 278
98 192
98 209
98 223
98 237
98 261
98 293
99 137
99 233
99 286
100 139
100 200
100 295
101 107
101 146
101 221
101 236
101 257
101 294
102 176
102 284
103 150
103 197
103 274
104 118
104 140
104 169
104 291
105 117
106 151
106 193
107 257
107 294
108 109
108 120
108 124
108 148
108 168
108 173
108 192
108 220
108 227
108 228
108 241
108 266
108 272
108 280
108 282
109 148
109 184
109 271
110 191
110 235
111 231
112 158
112 175
112 185
113 121
113 127
113 298
114 178
114 186
114 215
115 120
115 123
115 145
115 205
115 280
115 296
116 186
117 133
118 140
118 142
118 169
118 171
118 191
118 225
118 240
118 291
119 174
119 202
119 264
119 279
120 123
120 124
120 145
120 168
120 173
120 192
120 207
120 216
120 220
120 228
120 241
120 266
120 282
120 292
121 160
121 270
121 298
122 225
122 234
122 256
122 289
123 168
123 207
123 280
124 266
124 282
126 163
127 170
127 298
128 155
128 158
128 183
128 219
128 277
129 139
129 200
129 217
129 254
129 256
130 153
130 212
130 275
131 138
132 151
132 190
132 249
133 137
134 189
134 197
134 208
134 245
135 214
136 252
137 233
137 286
138 250
138 269
139 200
139 254
139 256
139 295
140 171
140 225
140 291
141 257
142 169
142 240
143 224
143 262
144 226
145 205
145 207
145 247
145 268
145 280
147 185
148 184
149 201
149 239
150 180
150 205
150 247
150 263
150 274
151 190
151 193
152 171
152 225
152 284
153 189
153 196
153 245
153 275
154 192
154 220
155 183
156 162
156 169
156 177
156 203
157 159
157 232
157 266
157 282
157 296
158 175
158 226
158 277
159 232
160 221
160 251
160 270
161 192
161 193
162 177
162 203
162 283
163 188
163 206
164 284
165 183
165 287
166 187
166 195
166 260
167 239
168 220
168 280
170 298
171 225
171 250
171 291
172 299
173 228
173 237
173 241
173 242
174 202
174 281
175 179
175 226
176 276
176 284
177 203
178 186
178 215
178 238
179 218
179 226
179 255
179 299
180 263
180 265
180 274
181 199
181 230
181 283
182 252
182 253
184 195
184 271
185 290
187 260
187 286
188 206
188 243
188 258
189 196
189 197
189 245
190 193
190 249
191 235
192 220
192 237
192 261
192 292
194 229
194 255
194 267
194 285
195 260
195 271
196 247
196 268
198 269
198 282
198 297
200 217
200 256
200 289
200 295
201 239
202 264
202 279
204 215
204 223
204 238
204 249
204 273
205 213
205 247
205 263
206 243
207 246
207 247
207 268
207 280
207 282
208 245
208 275
209 237
209 261
209 293
210 244
211 225
211 235
211 276
213 263
213 265
215 238
215 273
216 228
216 241
216 242
216 292
218 255
218 285
219 277
220 227
220 272
221 236
221 251
222 241
222 242
222 248
222 297
223 233
223 293
224 262
224 288
225 234
225 240
225 276
225 284
225 291
226 277
227 272
228 237
228 241
228 242
228 292
229 285
232 266
234 276
234 289
235 262
236 251
237 292
241 242
241 248
241 282
241 297
243 253
243 258
245 275
246 268
246 282
247 268
249 273
250 269
251 270
253 258
255 285
255 299
256 289
259 297
260 286
261 293
262 288
263 265
263 274
264 279
266 280
266 282
266 296
270 298
276 284
280 282
280 296
281 288
282 290
282 297
290 297
3 0 118 225
3 0 118 291
3 0 164 284
3 0 225 234
3 0 225 276
3 0 225 284
3 0 225 291
3 0 234 276
3 0 276 284
3 1 198 297
3 2 14 21
3 2 14 86
3 2 14 104
3 2 14 118
3 2 14 142
3 2 21 142
3 2 46 159
3 2 46 250
3 2 86 159
3 2 104 118
3 2 104 140
3 2 118 140
3 2 118 142
3 2 118 171
3 2 140 171
3 2 171 250
3 3 54 68
3 3 54 105
3 3 68 96
3 3 68 105
3 3 96 105
3 3 210 244
3 4 53 81
3 4 53 97
3 4 62 188
3 4 62 278
3 4 81 97
3 4 81 258
3 4 97 278
3 4 188 258
3 5 45 55
3 5 45 67
3 5 45 101
3 5 55 101
3 5 101 146
3 6 32 130
3 6 130 212
3 7 57 125
3 7 57 199
3 7 77 283
3 7 91 125
3 7 91 230
3 7 181 199
3 7 181 230
3 7 181 283
3 8 18 255
3 8 194 255
3 8 194 267
3 9 139 254
3 9 139 295
3 10 38 149
3 10 66 167
3 10 84 149
3 10 149 239
3 10 167 239
3 11 85 174
3 11 119 174
3 11 119 202
3 11 174 202
3 12 29 42
3 12 29 287
3 12 42 157
3 12 42 282
3 12 47 287
3 12 120 266
3 12 120 282
3 12 157 232
3 12 157 266
3 12 157 282
3 12 232 266
3 12 266 280
3 12 266 282
3 12 280 282
3 13 34 225
3 13 34 235
3 13 90 111
3 13 90 211
3 13 90 235
3 13 211 225
3 13 211 235
3 14 21 127
3 14 21 142
3 14 21 169
3 14 41 104
3 14 41 156
3 14 76 86
3 14 76 127
3 14 104 118
3 14 104 169
3 14 118 142
3 14 118 169
3 14 142 169
3 14 156 169
3 15 95 183
3 15 165 183
3 16 48 108
3 16 48 109
3 16 48 192
3 16 108 109
3 16 108 192
3 16 109 271
3 17 30 274
3 17 65 103
3 17 103 274
3 18 172 299
3 18 255 299
3 19 32 275
3 19 208 275
3 20 40 154
3 20 40 161
3 20 40 192
3 20 154 192
3 20 154 220
3 20 161 192
3 20 192 220
3 21 127 170
3 21 142 169
3 22 42 157
3 22 42 282
3 22 42 290
3 22 46 157
3 22 46 159
3 22 46 269
3 22 157 159
3 22 157 282
3 22 198 269
3 22 198 282
3 22 198 297
3 22 282 290
3 22 282 297
3 22 290 297
3 23 28 44
3 23 28 102
3 23 28 176
3 23 44 211
3 23 44 224
3 23 44 262
3 23 102 176
3 23 176 276
3 23 211 276
3 23 224 262
3 24 54 105
3 24 54 133
3 24 54 137
3 24 105 117
3 24 117 133
3 24 133 137
3 25 63 115
3 25 115 280
3 25 115 296
3 25 280 296
3 26 39 89
3 26 39 248
3 26 89 135
3 26 135 214
3 27 54 88
3 27 54 233
3 27 54 238
3 27 88 223
3 27 88 233
3 27 204 223
3 27 204 238
3 27 223 233
3 28 44 59
3 28 59 191
3 28 69 102
3 28 69 284
3 28 79 191
3 28 102 176
3 28 102 284
3 28 118 171
3 28 118 191
3 28 118 225
3 28 152 171
3 28 152 225
3 28 152 284
3 28 171 225
3 28 176 284
3 28 225 284
3 29 42 112
3 29 74 158
3 29 74 287
3 29 112 158
3 30 180 274
3 31 90 231
3 31 202 264
3 31 202 279
3 31 264 279
3 32 130 275
3 33 133 137
3 33 137 286
3 33 187 286
3 34 50 118
3 34 50 235
3 34 118 171
3 34 118 225
3 34 118 240
3 34 171 225
3 34 225 240
3 35 82 144
3 35 82 299
3 35 172 299
3 36 61 259
3 36 61 290
3 36 241 297
3 36 259 297
3 36 290 297
3 37 103 150
3 37 103 197
3 37 150 247
3 37 189 196
3 37 189 197
3 37 196 247
3 38 210 244
3 39 89 246
3 39 89 268
3 39 120 207
3 39 120 216
3 39 120 241
3 39 120 282
3 39 207 246
3 39 207 268
3 39 207 282
3 39 216 241
3 39 241 248
3 39 241 282
3 39 246 268
3 39 246 282
3 40 58 161
3 40 154 192
3 40 161 192
3 41 72 104
3 41 72 156
3 41 72 203
3 41 156 203
3 42 112 185
3 42 157 282
3 42 185 290
3 42 282 290
3 43 122 225
3 43 122 234
3 43 122 256
3 43 122 289
3 43 225 234
3 43 225 276
3 43 234 276
3 43 234 289
3 43 256 289
3 44 59 211
3 44 59 262
3 44 143 224
3 44 143 262
3 44 224 262
3 45 55 101
3 45 67 141
3 45 101 257
3 45 141 257
3 46 157 159
3 46 250 269
3 47 165 287
3 48 98 192
3 48 98 209
3 48 98 237
3 48 98 261
3 48 108 109
3 48 108 192
3 48 108 228
3 48 192 237
3 48 192 261
3 48 209 237
3 48 209 261
3 48 228 237
3 49 128 155
3 49 128 219
3 50 59 110
3 50 59 191
3 50 59 235
3 50 110 191
3 50 110 235
3 50 118 191
3 50 191 235
3 51 87 130
3 51 87 214
3 51 130 212
3 52 64 147
3 52 64 229
3 52 64 285
3 52 229 285
3 53 81 97
3 54 68 105
3 54 68 238
3 54 88 233
3 54 133 137
3 54 137 233
3 55 101 221
3 55 101 236
3 55 221 236
3 56 166 195
3 56 184 195
3 56 184 271
3 56 195 271
3 58 106 193
3 58 161 193
3 59 110 191
3 59 110 235
3 59 191 235
3 59 211 235
3 59 235 262
3 59 262 288
3 60 131 138
3 60 138 250
3 60 152 171
3 60 171 250
3 61 147 185
3 61 185 290
3 62 126 163
3 62 163 188
3 63 115 145
3 63 115 205
3 63 145 205
3 63 205 213
3 64 93 147
3 64 93 218
3 64 218 285
3 64 229 285
3 65 80 197
3 65 103 197
3 68 96 105
3 68 96 116
3 68 96 186
3 68 116 186
3 68 178 186
3 68 178 238
3 69 102 284
3 69 164 284
3 70 216 228
3 70 216 292
3 70 228 237
3 70 228 292
3 70 237 292
3 71 144 226
3 71 219 277
3 71 226 277
3 72 104 169
3 72 156 169
3 72 156 177
3 72 156 203
3 72 177 203
3 73 100 200
3 73 200 217
3 74 128 158
3 74 128 183
3 74 165 183
3 74 165 287
3 75 87 135
3 75 87 196
3 75 89 135
3 75 89 268
3 75 196 268
3 76 113 127
3 77 162 177
3 77 162 203
3 77 162 283
3 77 177 203
3 78 108 227
3 78 108 272
3 78 227 272
3 80 134 197
3 81 97 136
3 81 136 252
3 81 182 252
3 81 182 253
3 81 253 258
3 82 144 226
3 82 179 226
3 82 179 299
3 83 114 215
3 83 132 249
3 83 215 273
3 83 249 273
3 84 149 201
3 85 174 281
3 86 94 159
3 87 130 153
3 87 135 214
3 87 153 196
3 88 98 209
3 88 98 223
3 88 98 293
3 88 99 233
3 88 209 293
3 88 223 233
3 88 223 293
3 89 246 268
3 90 111 231
3 90 211 235
3 92 101 146
3 92 101 294
3 93 112 175
3 93 112 185
3 93 147 185
3 93 175 179
3 93 179 218
3 94 159 232
3 95 155 183
3 96 116 186
3 98 192 237
3 98 192 261
3 98 209 237
3 98 209 261
3 98 209 293
3 98 223 293
3 98 261 293
3 99 137 233
3 99 137 286
3 100 139 200
3 100 139 295
3 100 200 295
3 101 107 257
3 101 107 294
3 101 221 236
3 102 176 284
3 103 150 274
3 104 118 140
3 104 118 169
3 104 118 291
3 104 140 291
3 106 151 193
3 108 109 148
3 108 120 124
3 108 120 168
3 108 120 173
3 108 120 192
3 108 120 220
3 108 120 228
3 108 120 241
3 108 120 266
3 108 120 282
3 108 124 266
3 108 124 282
3 108 168 220
3 108 168 280
3 108 173 228
3 108 173 241
3 108 192 220
3 108 220 227
3 108 220 272
3 108 227 272
3 108 228 241
3 108 241 282
3 108 266 280
3 108 266 282
3 108 280 282
3 109 148 184
3 109 184 271
3 110 191 235
3 112 158 175
3 113 121 298
3 113 127 298
3 114 178 186
3 114 178 215
3 115 120 123
3 115 120 145
3 115 123 280
3 115 145 205
3 115 145 280
3 115 280 296
3 118 140 171
3 118 140 225
3 118 140 291
3 118 142 169
3 118 142 240
3 118 171 225
3 118 171 291
3 118 225 240
3 118 225 291
3 119 174 202
3 119 202 264
3 119 202 279
3 119 264 279
3 120 123 168
3 120 123 207
3 120 124 266
3 120 124 282
3 120 145 207
3 120 168 220
3 120 173 228
3 120 173 241
3 120 192 220
3 120 192 292
3 120 207 282
3 120 216 228
3 120 216 241
3 120 216 292
3 120 228 241
3 120 228 292
3 120 241 282
3 120 266 282
3 121 160 270
3 121 270 298
3 122 225 234
3 122 234 289
3 122 256 289
3 123 168 280
3 123 207 280
3 124 266 282
3 127 170 298
3 128 155 183
3 128 158 277
3 128 219 277
3 129 139 200
3 129 139 254
3 129 139 256
3 129 200 217
3 129 200 256
3 130 153 275
3 132 151 190
3 132 190 249
3 134 189 197
3 134 189 245
3 134 208 245
3 138 250 269
3 139 200 256
3 139 200 295
3 140 171 225
3 140 171 291
3 140 225 291
3 143 224 262
3 145 205 247
3 145 207 247
3 145 207 268
3 145 207 280
3 145 247 268
3 149 201 239
3 150 180 263
3 150 180 274
3 150 205 247
3 150 205 263
3 150 263 274
3 151 190 193
3 152 171 225
3 152 225 284
3 153 189 196
3 153 189 245
3 153 245 275
3 154 192 220
3 156 162 177
3 156 162 203
3 156 177 203
3 157 159 232
3 157 232 266
3 157 266 282
3 157 266 296
3 158 175 226
3 158 226 277
3 160 221 251
3 160 251 270
3 162 177 203
3 163 188 206
3 166 187 260
3 166 195 260
3 171 225 291
3 173 228 237
3 173 228 241
3 173 228 242
3 173 241 242
3 175 179 226
3 176 276 284
3 178 215 238
3 179 218 255
3 179 255 299
3 180 263 265
3 180 263 274
3 184 195 271
3 187 260 286
3 188 206 243
3 188 243 258
3 192 237 292
3 194 229 285
3 194 255 285
3 196 247 268
3 198 282 297
3 200 256 289
3 202 264 279
3 204 215 238
3 204 215 273
3 204 249 273
3 205 213 263
3 207 246 268
3 207 246 282
3 207 247 268
3 207 280 282
3 208 245 275
3 209 261 293
3 211 225 276
3 213 263 265
3 216 228 241
3 216 228 242
3 216 228 292
3 216 241 242
3 218 255 285
3 220 227 272
3 221 236 251
3 222 241 242
3 222 241 248
3 222 241 297
3 224 262 288
3 225 234 276
3 225 276 284
3 228 237 292
3 228 241 242
3 241 282 297
3 243 253 258
3 266 280 282
3 266 280 296
3 282 290 297
