ply
format ascii 1.0
element vertex 300
property float x
property float y
property float z
property float radius
element edge 877
property int vertex1
property int vertex2
element face 759
property list uchar int vertex_indices
end_header
0.129302703 -0.171754034 -0.0679198175 0.0714391544
-0.0669359236 -0.234725072 0.0358402197 0.122184332
0.16926583 0.419367497 0.179768371 0.0297024163
-0.338049502 -0.407377869 -0.192156218 0.0207441544
0.308278073 -0.273943022 -0.244666456 0.0313106488
0.114699452 -0.419378475 -0.0548122631 0.0387705773
0.0611153644 -0.084433049 0.278443646 0.0199932854
-0.12277075 -0.276864176 0.0358035941 0.0817437847
0.202153243 -0.00876923897 -0.140253366 0.0138349627
-0.065605839 -0.194707168 -0.0524606009 0.108267565
0.178371119 0.0668207304 0.0647117822 0.0720662757
0.00311155184 -0.156336839 0.0206535437 0.111814754
0.238485609 0.0757484085 0.0856138974 0.0438271986
0.161390896 0.124332395 0.13512666 0.0259218189
-0.112975657 -0.170037622 -0.00447083668 0.137222253
0.194820831 0.458327421 0.100714559 0.0241500502
0.242263547 -0.0287456035 0.0835665561 0.0223198017
0.158231412 -0.182559256 -0.0973560728 0.0509708899
0.223659009 0.155560183 0.0302262471 0.0265244826
-0.136163154 -0.196811481 0.0446048104 0.119121197
0.0906214117 0.0536060965 -0.0612497979 0.0197931602
-0.109813446 -0.202824962 -0.0652707354 0.0937447091
0.234783794 -0.114775479 0.157309076 0.0172132263
0.23876897 0.119629383 0.109810716 0.0386543827
0.0933137844 -0.177013356 -0.0629055435 0.0812574736
0.129778714 0.0688261729 -0.011158039 0.0177164538
0.0982137404 -0.162942519 -0.0179322066 0.105986393
0.158960478 0.121320802 0.104751278 0.0475893528
0.122183164 0.0418861121 0.128534899 0.024599678
0.185881131 0.0491912503 -0.0286126358 0.015771051
0.152044659 0.391580727 0.195079725 0.0326075882
-0.118782896 -0.161690275 0.0451865341 0.130681535
0.223854435 -0.00879036607 -0.127391431 0.0135979105
0.200575851 -0.0316287287 0.123728574 0.0275891867
-0.0695526439 -0.11638204 0.0652791129 0.0776077039
0.153707634 0.13391225 0.0949298653 0.0411172453
0.196742202 0.274476659 0.0410896161 0.0145693749
0.187321249 0.438388263 0.152682755 0.0265667441
0.0716479536 0.0240538472 -0.130445685 0.0120562948
-0.140983696 -0.465033304 -0.0543132207 0.0232611334
0.075668971 -0.0478345675 0.241205558 0.0174771204
-0.177453428 -0.224274223 -0.0769726667 0.0711301714
0.281698651 -0.259182543 -0.216226801 0.0353652306
0.130670558 0.0339250109 0.131345806 0.026830039
-0.120819459 -0.103148767 -0.0628131107 0.0682170779
0.173604295 0.305312306 0.0713077976 0.0116306725
-0.0331605976 0.0782181618 -0.0496934755 0.0157247987
0.231160791 0.177201818 0.0138475371 0.0168783414
0.246529043 -0.149882506 0.165667476 0.0107370573
0.122417419 0.0301155641 -0.0995468313 0.0199352858
-0.0480917463 -0.202445196 -0.0525747877 0.104434448
0.152149363 0.0280758466 0.0798247733 0.0671354741
0.084341758 -0.112113339 0.278501287 0.0166546759
0.199297277 0.199344094 0.120442795 0.0362495946
0.209406299 0.0855349098 0.045226453 0.0550329872
0.263278028 -0.246339907 -0.200476713 0.0368084717
-0.185384557 -0.278467046 -0.141678003 0.0397966167
-0.00879939855 0.0807874492 -0.0287707584 0.0152411377
0.228337052 -0.0436892852 0.112538817 0.0253910089
0.225107392 0.0837089956 0.0202257764 0.0328388208
0.280577954 -0.0733137514 0.0924295906 0.0180544084
-0.287695382 -0.357521042 -0.169293125 0.0344764356
-0.00189339692 0.0500984775 -0.0960074834 0.0130958608
0.224616065 0.00242069735 -0.10610883 0.0148335646
0.169101364 0.333317642 0.212957926 0.0123923742
0.0878257722 -0.177929086 -0.0645004267 0.0793882763
0.124714232 0.0755800336 0.0190471391 0.0208597812
-0.325591597 -0.281909817 -0.116870436 0.0165952298
-0.150121976 -0.0887098127 0.0840430499 0.0664185665
0.218278429 -0.151937969 0.191791842 0.0115545087
0.147013298 -0.0713239725 0.201281469 0.0186508068
0.113656982 0.0264032615 0.157345012 0.0147079276
0.100298069 -0.182188573 -0.137063395 0.0292804819
-0.127222213 -0.445845872 -0.0555491343 0.0373869304
0.229449263 0.201379255 0.0112294812 0.0180489526
0.222268737 0.458768793 0.0762519924 0.00689532357
0.3337321 -0.292187053 -0.268239566 0.0176367147
0.131380558 0.361100026 0.18410911 0.0203548842
0.121004735 -0.135258897 0.259992615 0.0125652459
0.134606252 -0.272412627 -0.0133208472 0.0425734331
-0.0985433636 -0.193280982 0.144168627 0.0577492091
-0.299752758 -0.372945798 -0.179214431 0.0362735384
0.216896993 -0.0746288263 0.147628803 0.0196663065
0.27981541 0.153193663 0.145189007 0.0218283206
0.157270585 0.0676792207 0.0132281889 0.0269531828
0.170635293 0.469661897 0.0807826106 0.0115800887
0.253077939 0.11713421 0.060186823 0.0285326468
0.268765272 0.147811238 0.136563342 0.0222115402
-0.318932262 -0.39367898 -0.185784565 0.0339244024
0.138252416 0.00594553168 -0.140704759 0.0137751016
0.101939374 -0.455513497 -0.0401929149 0.0173583422
0.161368562 0.092446614 0.0902849269 0.056669602
0.126084352 -0.183651351 -0.0993980144 0.0623926611
0.146908029 0.365268754 0.195404055 0.0333904652
0.2576551 -0.0505802714 0.0973163862 0.0208631931
0.103097145 0.0148580068 0.0834540589 0.0398676163
0.0151593707 -0.0220523761 0.0972778394 0.0394416691
0.18750057 0.0352080238 0.0595475124 0.0617550303
-0.31502033 -0.390102315 -0.227457256 0.015495549
0.142908737 -0.44796971 -0.0407809176 0.0183383664
0.0366219367 -0.188996695 -0.0340784938 0.0976552617
-0.141189904 -0.0854294078 -0.0446653401 0.0615108546
0.156068862 0.0352586361 -0.0752392512 0.0197839055
-0.256927045 -0.314781877 -0.152003357 0.0444379086
0.217382764 0.170679326 0.0488377126 0.027102245
0.199303037 0.160255082 0.102035018 0.0507440446
-0.0969701742 -0.335301139 0.0126595703 0.0583060812
0.294202202 -0.10229458 0.0965412319 0.014721428
0.118488979 -0.347233864 -0.031810766 0.0410452155
-0.33187261 -0.397346626 -0.216447605 0.0164628772
-0.0505781328 -0.195700358 0.00536217645 0.138679282
0.226322564 0.28416555 0.215726009 0.0145743335
0.304691719 -0.287225409 -0.282747987 0.0173921684
0.147999778 -0.0520539421 0.0431633115 0.0665768621
0.164820197 0.00205729092 0.120447108 0.0348256323
0.0358138717 0.0677928478 -0.0447460198 0.0174756865
0.159451366 0.323356781 0.0943173945 0.0105202369
-0.0714515599 -0.237089236 0.12125367 0.0652975862
0.130038962 0.0307481381 0.135860794 0.0242666216
0.187823797 -0.217357823 -0.15894321 0.0415778545
0.141938429 0.0648956603 0.0941350157 0.0512012805
0.198154857 0.130707607 0.0857630863 0.062710298
-0.286576524 -0.39678674 -0.18956002 0.0263737832
0.226267446 0.027307981 -0.0496891054 0.0107341439
0.137980231 -0.106727603 0.230688924 0.0177702929
0.0467525482 -0.186405838 -0.0472971816 0.0878326057
0.219661871 0.193748405 0.0501345044 0.0160699162
0.0188967049 0.0414174579 -0.107415983 0.0127927763
0.0963737634 -0.00946982739 0.199075517 0.015347479
0.141297729 -0.0324727322 0.179197982 0.0183967237
0.196080583 0.0803130656 0.0585851808 0.0684821556
0.19778306 -0.203148615 -0.13386722 0.0382006966
0.0725803547 0.0701442351 -0.023561318 0.0181011418
0.204840688 0.291086231 0.19767801 0.0125560848
0.105649146 0.0136825264 -0.136548868 0.0129447774
-0.222843264 -0.201389664 0.0203709216 0.0573069321
-0.289278903 -0.41171528 -0.184281727 0.0165361925
0.288865144 0.129575071 0.0489584221 0.0091359298
0.169431035 0.0133322071 -0.113279215 0.0184329185
0.0148025295 -0.179661421 0.00227650496 0.11720956
-0.0475194821 -0.158587497 0.0303648056 0.114058977
0.107207861 -0.045399618 0.212138506 0.0167797791
0.289080721 -0.130991438 0.114462116 0.0099311594
0.095024181 -0.177058491 -0.10717546 0.0492086381
0.106098631 0.0877697134 0.0529232927 0.0179787986
0.132256199 0.35311232 0.157176225 0.0117272109
0.148553489 -0.118811623 0.000951987803 0.068096507
0.282705175 -0.295515563 -0.272723535 0.0174850123
0.158105276 0.3172121 0.178023619 0.02892936
0.170855074 -0.00185919475 -0.143093452 0.0139618889
0.203122978 0.104635654 0.0707752408 0.0721200306
-0.165647106 -0.24244935 0.0659572853 0.0721534875
-0.110557011 -0.449127319 -0.074368793 0.0231719828
0.0971605863 -0.248765999 0.0255947216 0.0418405007
0.0505791465 -0.160435198 0.00409941749 0.115145412
0.210859502 0.299362372 0.219979199 0.0119814858
0.11144701 -0.0754711995 0.233304696 0.0193112084
0.131973447 0.0528964325 -0.0466515072 0.0194846149
0.0532086561 -0.184341862 -0.0420220356 0.09236325
-0.148097312 -0.241203048 -0.120283933 0.0519737709
0.202930461 0.139107918 0.0723717471 0.054272282
0.182202813 -0.00682999212 0.0930205629 0.0502384054
0.187876372 -0.148796811 0.21507688 0.0117027793
-0.121072145 -0.405787575 -0.0383807272 0.0394552655
0.0967664468 -0.262530986 -0.0399107887 0.03989768
0.181400167 0.488369831 0.0861792461 0.00890528936
0.2672643 0.230565466 0.200442514 0.0165725803
0.298486553 -0.287795152 -0.246359819 0.0360270786
0.154304989 -0.14252308 0.240243913 0.0137165636
0.148701828 0.349533856 0.189166205 0.0326751172
0.254921683 -0.0920582851 0.12535243 0.017954179
-0.0288260791 0.0639522948 -0.077448703 0.0129568386
0.0578819982 0.0854494523 0.00723403694 0.0118992852
0.315342693 -0.31852901 -0.23742916 0.0149767988
0.10634652 -0.422574586 -0.0716216296 0.0286086134
-0.223334502 -0.195306905 0.00764561466 0.058162816
0.180879051 -0.0123359283 0.057397652 0.0594595893
-0.0965552338 -0.304533958 -0.00742174908 0.069107285
0.0459252998 0.0310792209 -0.120026206 0.0121144189
-0.0319539554 -0.137348896 0.0425891976 0.097555947
0.192914678 0.224456948 0.12838368 0.0310765459
0.208342221 0.0814654839 -0.00142004858 0.0153398534
0.151670155 -0.435331893 -0.0679087806 0.0166824353
0.0685699642 -0.0616427206 0.25678229 0.0184013278
0.167878529 0.301045118 0.171073164 0.0301639799
-0.11511395 -0.470726753 -0.0388245032 0.0232665734
0.104935606 -0.283210572 -0.030984821 0.0370817149
0.184316326 -0.0305002823 0.143301252 0.0215810343
0.215727816 0.0436128174 -0.00857784445 0.0137541463
0.210930876 0.189623677 0.0916756246 0.0281963061
0.179714491 0.297929295 0.0802225271 0.0119966441
-0.293185698 -0.388935891 -0.219113727 0.0187676315
0.231290482 0.0133692736 -0.0756022012 0.0116060003
-0.282337049 -0.249946514 -0.0162370752 0.0201350509
0.26769049 -0.14147157 0.140892765 0.0104002568
0.220316314 0.227092797 0.0123868369 0.0188047675
-0.00241143129 -0.199083868 -0.0586545589 0.0854366544
0.149231687 -0.20107484 -0.147594095 0.0381002748
0.0622355519 -0.00547238106 0.0861459036 0.0408317544
-0.27245895 -0.389275305 -0.24436229 0.00600504473
0.0819059107 -0.228876809 -0.0306436408 0.0639405231
0.190351234 0.300886606 0.194152492 0.0133891264
0.0415013216 -0.0880367333 0.0514369277 0.0890095411
0.110287997 -0.0239317424 0.0634118852 0.0618718759
0.233297578 -0.235701248 -0.183426261 0.0385612956
0.287084828 0.172647767 0.165775866 0.0214642375
0.277823982 0.20262212 0.184390589 0.0197469587
0.29449828 -0.282194337 -0.2403744 0.0350139849
0.223782109 0.20904356 0.0367861321 0.0132983556
0.0535354115 -0.220496907 0.0304973581 0.0615276917
0.179837424 0.0936403507 0.0816755236 0.0660030674
0.144214068 0.339884962 0.122505686 0.00985733093
0.177150414 0.275284688 0.161016142 0.0287964799
0.0414976717 0.051871481 -0.079321315 0.0190326425
-0.17461586 -0.181801418 -0.0353497545 0.0881934987
0.193556466 0.449247468 0.13011073 0.0239789397
0.264479113 0.116244229 0.119758983 0.0203511324
-0.111494555 -0.350402804 -0.00741923357 0.0560443748
0.119834421 0.0467441682 0.132092318 0.0181745983
0.202737705 0.0511180863 0.00137780504 0.022836321
-0.2929241 -0.292897016 -0.11814521 0.0188403786
0.166485211 0.309987875 0.128739296 0.00925472157
0.204657777 0.047391292 0.00908591545 0.027739617
0.16876339 0.0739926373 0.0762007921 0.0683800218
0.170898725 0.300026602 0.137284135 0.0128824648
-0.26034015 -0.407215275 -0.195638004 0.0108220254
0.107537622 -0.358699594 -0.0493598362 0.0314694175
0.285882549 -0.320819648 -0.235287145 0.0145154904
0.113537779 -0.193447589 -0.0136134977 0.0825742537
0.215426238 0.0425498836 -0.0250831437 0.0114180831
0.270696653 -0.315440995 -0.249088345 0.0135267371
0.154491178 0.331007497 0.149572747 0.0171867249
0.292435222 0.15960629 0.159289195 0.0197659742
-0.0921087053 -0.47465422 -0.0380234557 0.0168695272
0.20722643 0.271110009 0.177130873 0.0110893434
-0.00672391591 -0.0659011266 0.0859409775 0.0572289301
-0.134278231 -0.112131073 0.0196373111 0.0917607443
-0.251988832 -0.218622281 0.00506970569 0.0372944037
0.153138826 0.0659913249 -0.00482674358 0.0194986107
0.109791311 0.00251902414 0.180685348 0.0169276707
0.215996994 0.138000922 0.10525164 0.0466096782
0.188028556 0.454601922 0.0949280285 0.0202033089
0.338494795 -0.305982891 -0.250516694 0.0140689349
0.187935338 -0.062855191 0.0201142541 0.0405663724
0.0214507642 0.0831827469 -0.00939922747 0.013283609
0.0809228202 0.0371509649 -0.0968739791 0.0203347937
0.168829072 0.313830928 0.104432973 0.0109899262
0.195575635 0.0221171395 -0.0822841382 0.0183845557
0.223051993 0.113816874 0.050521537 0.0472901265
-0.0476554404 -0.0994983007 0.073352883 0.0626348635
0.1070305 -0.297564903 0.0139477097 0.0278961665
0.211203739 0.245407758 0.0371618292 0.0144984322
0.24674428 0.260358158 0.211503926 0.0148415888
0.289040364 0.142175644 0.144070016 0.0194797524
0.00211200325 0.0648423282 -0.064438153 0.0168823069
0.186177556 0.288121469 0.0495680714 0.0125394362
0.141341327 0.0847752688 0.100965613 0.0424746395
-0.238105498 -0.30053576 -0.144449087 0.0466900652
0.191482468 0.283080881 0.0616129251 0.0114201992
0.154581789 0.0688402376 0.0304134903 0.036151894
0.19594274 -0.00754692779 0.071501642 0.0541813765
-0.197800061 -0.189397189 0.0222552742 0.0771042757
0.201870404 0.266577157 0.0285279397 0.0138712252
-0.284468163 -0.282724765 -0.142365443 0.0242750466
0.103144498 -0.105030087 0.259942584 0.0184116709
0.234797437 -0.223567921 -0.167118354 0.0338526591
0.0905704448 0.0720410634 -0.0162008645 0.016735261
0.259144908 0.13137525 0.125115845 0.0249480844
0.213256878 0.242354339 0.0176324494 0.0176356733
0.219275001 0.0974053078 0.0822962129 0.0625320302
0.161722835 0.304844675 0.164309635 0.0280679561
0.0861453704 -0.0281098404 0.220827178 0.0164403127
-0.0155188396 0.065506945 -0.0695428743 0.0161317244
0.242940335 0.143854689 0.123707365 0.0263976887
-0.107417529 -0.409986918 -0.0203035816 0.0280452735
0.171984574 -0.113010632 0.206285026 0.0191311901
0.19812437 -0.109985101 0.184939246 0.0179852384
0.233882649 0.267009409 0.200883447 0.0148810267
-0.262427914 -0.293147194 -0.142246694 0.0371351477
0.138331705 0.0548382898 0.0956031397 0.0504132201
0.160809095 0.328343241 0.190548655 0.0261101417
0.207952406 0.254580386 0.029898044 0.016374797
0.193036622 0.31466982 0.219169675 0.00989151735
0.150760216 0.335056909 0.17935701 0.0303222965
0.0753371816 -0.118420017 0.0196054135 0.102029526
-0.212067488 -0.278779587 -0.121887838 0.0455718033
-0.314327375 -0.291205894 -0.0799711674 0.015175966
-0.118013356 -0.174414009 0.036968181 0.138897407
-0.0984179157 -0.129739156 -0.0703089935 0.0765064797
0.0827892846 0.0900003696 0.0285106906 0.0148777776
0.213694952 0.444024154 0.0676598427 0.00705145463
0.151427916 0.110272434 0.103899037 0.043119381
0.126264108 0.0807717545 0.057806886 0.0319921514
0.183469817 0.250556317 0.144049201 0.0305155151
-0.304141092 -0.276019115 -0.0487900787 0.01425553
0.258962853 0.235650015 0.194275759 0.0172603268
0.142739638 0.00673396141 0.148283719 0.0184711529
-0.0168501049 -0.160544858 0.0213313604 0.114326247
0.18027486 -0.0697117139 0.174068461 0.0189915432
-0.260360508 -0.395593755 -0.219188425 0.00994220038
0 17
0 24
0 26
0 65
0 92
0 146
0 200
0 228
1 7
1 31
1 80
1 106
1 110
1 117
1 139
1 140
1 151
1 177
1 209
1 287
2 30
2 37
2 93
3 88
3 109
4 42
4 76
4 112
4 167
4 173
4 207
4 242
5 90
5 99
5 108
5 174
5 182
5 226
6 52
6 183
6 264
7 14
7 19
7 106
7 151
7 177
7 217
7 287
8 32
8 63
8 138
8 149
8 247
9 14
9 21
9 50
9 110
9 177
9 196
9 288
10 12
10 51
10 66
10 84
10 91
10 97
10 130
10 150
10 161
10 223
10 238
10 259
10 260
10 292
11 14
11 110
11 139
11 140
11 154
11 179
11 202
11 284
11 297
12 23
12 97
12 130
12 161
12 216
12 260
12 269
13 27
13 91
13 105
13 121
13 210
13 240
13 291
14 19
14 21
14 34
14 41
14 44
14 101
14 110
14 140
14 177
14 179
14 214
14 236
14 237
14 261
14 287
14 288
14 297
15 75
15 85
15 165
15 215
15 241
15 290
16 58
16 60
16 94
16 260
17 26
17 92
17 119
17 131
17 197
18 47
18 74
18 104
18 126
18 150
18 160
18 208
18 248
19 41
19 80
19 135
19 151
19 214
19 237
19 261
19 287
20 49
20 115
20 132
20 157
20 213
20 245
20 266
21 41
21 50
21 159
21 177
21 288
22 48
22 69
22 82
22 170
22 194
22 276
23 105
23 121
23 150
23 216
23 240
23 267
23 269
23 273
24 26
24 65
24 72
24 79
24 92
24 125
24 143
24 158
24 228
25 66
25 84
25 157
25 238
25 259
25 266
26 146
26 154
26 158
26 228
26 284
27 35
27 91
27 105
27 121
27 210
27 240
27 291
28 43
28 51
28 71
28 118
28 218
28 279
29 84
29 102
29 123
29 157
29 219
29 229
29 238
29 247
30 77
30 93
30 169
31 34
31 68
31 80
31 140
31 179
31 236
31 287
32 63
33 58
33 82
33 161
33 187
34 68
34 179
34 235
34 236
34 249
34 297
35 91
35 105
35 121
35 150
35 210
36 251
36 255
36 258
36 262
36 281
37 215
38 134
38 178
38 245
39 73
39 185
40 141
40 156
40 183
40 271
41 56
41 159
41 214
41 237
41 285
41 287
42 55
42 204
42 207
43 51
43 71
43 118
43 218
43 279
44 101
44 288
45 116
45 190
45 246
45 255
45 258
46 57
46 171
46 254
46 272
47 74
47 104
47 126
47 208
48 69
48 194
49 89
49 102
49 134
49 138
49 157
49 245
50 110
50 177
50 196
51 95
51 97
51 113
51 114
51 118
51 161
51 203
51 210
51 223
51 279
51 292
51 296
52 78
52 264
53 105
53 180
53 189
53 240
53 293
54 59
54 130
54 150
54 181
54 219
54 222
54 248
54 269
55 204
55 207
55 265
56 159
56 257
56 285
57 115
57 244
57 254
58 82
58 94
58 161
58 170
58 176
58 260
59 130
59 150
59 181
59 188
59 222
59 248
60 94
60 107
60 170
61 81
61 103
61 122
62 127
62 171
62 213
62 254
62 272
63 138
63 192
63 247
64 93
64 169
64 280
64 282
65 92
65 100
65 125
65 143
65 158
65 200
66 84
66 144
66 223
66 259
66 266
66 289
66 292
67 220
67 263
67 286
68 236
69 162
69 276
70 124
70 129
70 141
70 156
70 275
70 298
71 118
71 218
71 239
71 279
71 296
72 92
72 143
72 197
73 152
73 163
73 185
73 233
73 274
74 104
74 126
74 195
74 208
75 290
76 112
76 167
76 242
77 93
77 145
77 169
77 283
78 124
78 168
78 264
79 108
79 153
79 186
79 200
79 228
79 250
80 117
80 140
80 287
81 88
81 98
81 103
81 122
81 191
82 170
82 187
82 276
82 298
83 87
83 205
83 232
83 253
83 267
83 273
84 97
84 130
84 238
84 259
85 165
85 241
86 137
86 150
86 160
86 248
86 269
87 105
87 205
87 253
87 267
87 273
88 98
88 109
88 122
88 136
88 191
89 134
89 138
89 149
90 99
90 174
91 120
91 144
91 210
91 223
91 256
91 291
91 292
92 119
92 143
92 197
93 169
93 280
94 170
95 118
95 198
95 203
95 279
96 198
96 202
96 235
97 113
97 130
97 161
97 176
97 219
97 222
97 223
97 260
98 109
98 191
98 199
99 182
100 110
100 125
100 139
100 154
100 158
100 164
100 196
100 200
101 236
102 138
102 157
102 247
103 220
103 257
103 263
103 278
104 126
104 160
104 189
104 208
105 121
105 160
105 180
105 189
105 240
105 273
106 177
106 217
106 274
107 142
107 170
108 186
108 226
108 250
110 117
110 139
110 140
110 154
110 177
110 196
110 200
110 209
110 288
110 297
111 133
111 155
111 252
111 277
112 147
112 167
113 146
113 161
113 176
113 202
113 203
113 243
113 260
113 284
114 118
114 161
114 187
114 296
115 132
115 172
115 213
115 244
115 254
116 211
116 246
117 140
117 287
118 279
118 296
119 131
119 197
119 204
119 265
120 144
120 210
120 223
120 256
120 279
120 292
121 150
121 160
121 210
121 240
122 136
122 191
122 225
122 299
123 188
123 192
123 229
123 247
124 156
124 168
124 264
124 275
125 143
125 158
125 196
125 200
126 160
126 189
126 208
127 178
127 213
128 129
128 141
128 239
128 271
129 141
129 187
129 239
129 296
129 298
130 150
130 181
130 219
130 222
130 238
131 197
131 204
131 265
132 172
132 244
132 266
133 155
133 201
133 212
133 234
133 277
133 282
134 245
135 175
135 237
135 261
136 225
137 150
137 269
138 149
138 247
139 153
139 154
139 164
139 200
139 209
139 297
140 179
140 297
141 156
141 271
142 170
142 194
144 223
144 259
144 289
144 292
145 169
145 211
145 231
145 283
146 243
146 284
147 167
147 230
148 169
148 184
148 201
148 270
148 280
148 283
150 160
150 210
150 240
150 248
150 269
151 287
152 163
152 185
152 233
153 154
153 200
153 209
153 228
153 250
154 158
154 209
154 284
155 201
155 282
156 183
156 264
157 238
157 266
158 196
158 200
159 285
160 189
161 176
161 187
161 203
161 223
161 260
161 296
162 168
162 275
162 276
163 185
163 217
163 274
164 186
164 200
166 206
166 252
166 295
167 173
167 207
167 227
167 230
167 242
168 275
169 231
169 280
169 283
170 194
171 272
172 244
172 266
172 289
173 227
173 242
174 182
174 226
175 193
175 214
175 237
175 261
176 222
176 243
176 260
177 217
178 213
178 245
179 202
179 235
179 249
179 297
180 189
180 234
180 293
181 219
183 264
184 201
184 212
184 270
184 280
185 233
185 274
186 200
186 226
186 250
187 298
188 219
188 222
188 229
190 246
190 258
191 199
191 299
192 247
193 237
193 294
195 208
195 251
195 268
198 202
198 203
199 299
200 250
201 212
201 234
201 280
201 282
202 203
202 235
202 284
203 284
204 265
205 206
205 232
206 295
207 227
207 230
208 251
210 223
210 240
210 269
210 279
211 221
211 231
211 246
212 224
212 234
212 270
212 293
213 245
213 254
214 237
214 261
215 241
216 253
216 267
216 269
217 274
218 279
219 222
219 229
220 263
220 278
220 286
221 224
221 231
221 246
221 270
222 229
223 256
223 259
223 269
223 279
223 292
224 246
224 270
224 293
225 299
227 230
231 270
231 283
232 253
233 274
234 277
234 293
235 249
235 297
236 287
237 261
239 296
240 269
240 273
241 290
248 269
251 268
251 281
252 277
252 295
253 267
254 272
255 258
255 262
256 279
256 291
256 292
257 278
257 285
259 292
261 287
262 268
262 281
263 278
266 289
267 273
268 281
270 283
270 293
275 276
275 298
276 298
277 295
278 285
280 282
280 283
286 294
3 0 17 26
3 0 17 92
3 0 24 26
3 0 24 65
3 0 24 92
3 0 24 228
3 0 26 146
3 0 26 228
3 0 65 92
3 0 65 200
3 1 7 106
3 1 7 151
3 1 7 177
3 1 7 287
3 1 31 80
3 1 31 140
3 1 31 287
3 1 80 117
3 1 80 140
3 1 80 287
3 1 106 177
3 1 110 117
3 1 110 139
3 1 110 140
3 1 110 177
3 1 110 209
3 1 117 140
3 1 117 287
3 1 139 209
3 1 151 287
3 2 30 93
3 3 88 109
3 4 42 207
3 4 76 112
3 4 76 167
3 4 76 242
3 4 112 167
3 4 167 173
3 4 167 207
3 4 167 242
3 4 173 242
3 5 90 99
3 5 90 174
3 5 99 182
3 5 108 226
3 5 174 182
3 5 174 226
3 6 52 264
3 6 183 264
3 7 14 19
3 7 14 177
3 7 14 287
3 7 19 151
3 7 19 287
3 7 106 177
3 7 106 217
3 7 151 287
3 7 177 217
3 8 32 63
3 8 63 138
3 8 63 247
3 8 138 149
3 8 138 247
3 9 14 21
3 9 14 110
3 9 14 177
3 9 14 288
3 9 21 50
3 9 21 177
3 9 21 288
3 9 50 110
3 9 50 177
3 9 50 196
3 9 110 177
3 9 110 196
3 9 110 288
3 10 12 97
3 10 12 130
3 10 12 161
3 10 12 260
3 10 51 97
3 10 51 161
3 10 51 223
3 10 51 292
3 10 66 84
3 10 66 223
3 10 66 259
3 10 66 292
3 10 84 97
3 10 84 130
3 10 84 238
3 10 84 259
3 10 91 223
3 10 91 292
3 10 97 130
3 10 97 161
3 10 97 223
3 10 97 260
3 10 130 150
3 10 130 238
3 10 161 223
3 10 161 260
3 10 223 259
3 10 223 292
3 10 259 292
3 11 14 110
3 11 14 140
3 11 14 179
3 11 14 297
3 11 110 139
3 11 110 140
3 11 110 154
3 11 110 297
3 11 139 154
3 11 139 297
3 11 140 179
3 11 140 297
3 11 154 284
3 11 179 202
3 11 179 297
3 11 202 284
3 12 23 216
3 12 23 269
3 12 97 130
3 12 97 161
3 12 97 260
3 12 161 260
3 12 216 269
3 13 27 91
3 13 27 105
3 13 27 121
3 13 27 210
3 13 27 240
3 13 27 291
3 13 91 210
3 13 91 291
3 13 105 121
3 13 105 240
3 13 121 210
3 13 121 240
3 13 210 240
3 14 19 41
3 14 19 214
3 14 19 237
3 14 19 261
3 14 19 287
3 14 21 41
3 14 21 177
3 14 21 288
3 14 34 179
3 14 34 236
3 14 34 297
3 14 41 214
3 14 41 237
3 14 41 287
3 14 44 101
3 14 44 288
3 14 101 236
3 14 110 140
3 14 110 177
3 14 110 288
3 14 110 297
3 14 140 179
3 14 140 297
3 14 179 297
3 14 214 237
3 14 214 261
3 14 236 287
3 14 237 261
3 14 261 287
3 15 75 290
3 15 85 165
3 15 85 241
3 15 215 241
3 15 241 290
3 16 58 94
3 16 58 260
3 16 60 94
3 17 92 119
3 17 92 197
3 17 119 131
3 17 119 197
3 17 131 197
3 18 47 74
3 18 47 104
3 18 47 126
3 18 47 208
3 18 74 104
3 18 74 126
3 18 74 208
3 18 104 126
3 18 104 160
3 18 104 208
3 18 126 160
3 18 126 208
3 18 150 160
3 18 150 248
3 19 41 214
3 19 41 237
3 19 41 287
3 19 80 287
3 19 135 237
3 19 135 261
3 19 151 287
3 19 214 237
3 19 214 261
3 19 237 261
3 19 261 287
3 20 49 157
3 20 49 245
3 20 115 132
3 20 115 213
3 20 132 266
3 20 157 266
3 20 213 245
3 21 41 159
3 21 50 177
3 22 48 69
3 22 48 194
3 22 69 276
3 22 82 170
3 22 82 276
3 22 170 194
3 23 105 121
3 23 105 240
3 23 105 273
3 23 121 150
3 23 121 240
3 23 150 240
3 23 150 269
3 23 216 267
3 23 216 269
3 23 240 269
3 23 240 273
3 23 267 273
3 24 26 158
3 24 26 228
3 24 65 92
3 24 65 125
3 24 65 143
3 24 65 158
3 24 72 92
3 24 72 143
3 24 79 228
3 24 92 143
3 24 125 143
3 24 125 158
3 25 66 84
3 25 66 259
3 25 66 266
3 25 84 238
3 25 84 259
3 25 157 238
3 25 157 266
3 26 146 284
3 26 154 158
3 26 154 284
3 27 35 91
3 27 35 105
3 27 35 121
3 27 35 210
3 27 91 210
3 27 91 291
3 27 105 121
3 27 105 240
3 27 121 210
3 27 121 240
3 27 210 240
3 28 43 51
3 28 43 71
3 28 43 118
3 28 43 218
3 28 43 279
3 28 51 118
3 28 51 279
3 28 71 118
3 28 71 218
3 28 71 279
3 28 118 279
3 28 218 279
3 29 84 238
3 29 102 157
3 29 102 247
3 29 123 229
3 29 123 247
3 29 157 238
3 29 219 229
3 30 77 93
3 30 77 169
3 30 93 169
3 31 34 68
3 31 34 179
3 31 34 236
3 31 68 236
3 31 80 140
3 31 80 287
3 31 140 179
3 31 236 287
3 33 58 82
3 33 58 161
3 33 82 187
3 33 161 187
3 34 68 236
3 34 179 235
3 34 179 249
3 34 179 297
3 34 235 249
3 34 235 297
3 35 91 210
3 35 105 121
3 35 121 150
3 35 121 210
3 35 150 210
3 36 251 281
3 36 255 258
3 36 255 262
3 36 262 281
3 38 134 245
3 38 178 245
3 39 73 185
3 40 141 156
3 40 141 271
3 40 156 183
3 41 56 159
3 41 56 285
3 41 159 285
3 41 214 237
3 42 55 204
3 42 55 207
3 43 51 118
3 43 51 279
3 43 71 118
3 43 71 218
3 43 71 279
3 43 118 279
3 43 218 279
3 45 116 246
3 45 190 246
3 45 190 258
3 45 255 258
3 46 57 254
3 46 171 272
3 46 254 272
3 47 74 104
3 47 74 126
3 47 74 208
3 47 104 126
3 47 104 208
3 47 126 208
3 49 89 134
3 49 89 138
3 49 102 138
3 49 102 157
3 49 134 245
3 50 110 177
3 50 110 196
3 51 95 118
3 51 95 203
3 51 95 279
3 51 97 113
3 51 97 161
3 51 97 223
3 51 113 161
3 51 113 203
3 51 114 118
3 51 114 161
3 51 114 296
3 51 118 279
3 51 118 296
3 51 161 203
3 51 161 223
3 51 161 296
3 51 210 223
3 51 210 279
3 51 223 279
3 51 223 292
3 52 78 264
3 53 105 180
3 53 105 189
3 53 105 240
3 53 180 189
3 53 180 293
3 54 59 130
3 54 59 150
3 54 59 181
3 54 59 222
3 54 59 248
3 54 130 150
3 54 130 181
3 54 130 219
3 54 130 222
3 54 150 248
3 54 150 269
3 54 181 219
3 54 219 222
3 54 248 269
3 55 204 265
3 56 159 285
3 56 257 285
3 57 115 244
3 57 115 254
3 58 82 170
3 58 94 170
3 58 161 176
3 58 161 260
3 58 176 260
3 59 130 150
3 59 130 181
3 59 130 222
3 59 150 248
3 59 188 222
3 60 94 170
3 60 107 170
3 61 81 103
3 61 81 122
3 62 127 213
3 62 171 272
3 62 213 254
3 62 254 272
3 63 138 247
3 63 192 247
3 64 93 169
3 64 93 280
3 64 169 280
3 64 280 282
3 65 92 143
3 65 100 125
3 65 100 158
3 65 100 200
3 65 125 143
3 65 125 158
3 65 125 200
3 65 158 200
3 66 84 259
3 66 144 223
3 66 144 259
3 66 144 289
3 66 144 292
3 66 223 259
3 66 223 292
3 66 259 292
3 66 266 289
3 67 220 263
3 67 220 286
3 69 162 276
3 70 124 156
3 70 124 275
3 70 129 141
3 70 129 298
3 70 141 156
3 70 275 298
3 71 118 279
3 71 118 296
3 71 218 279
3 71 239 296
3 72 92 143
3 72 92 197
3 73 152 163
3 73 152 185
3 73 152 233
3 73 163 185
3 73 163 274
3 73 185 233
3 73 185 274
3 73 233 274
3 74 104 126
3 74 104 208
3 74 126 208
3 74 195 208
3 76 112 167
3 76 167 242
3 77 93 169
3 77 145 169
3 77 145 283
3 77 169 283
3 78 124 168
3 78 124 264
3 79 108 186
3 79 108 250
3 79 153 200
3 79 153 228
3 79 153 250
3 79 186 200
3 79 186 250
3 79 200 250
3 80 117 140
3 80 117 287
3 81 88 98
3 81 88 122
3 81 88 191
3 81 98 191
3 81 122 191
3 82 187 298
3 82 276 298
3 83 87 205
3 83 87 253
3 83 87 267
3 83 87 273
3 83 205 232
3 83 232 253
3 83 253 267
3 83 267 273
3 84 97 130
3 84 130 238
3 86 137 150
3 86 137 269
3 86 150 160
3 86 150 248
3 86 150 269
3 86 248 269
3 87 105 273
3 87 253 267
3 87 267 273
3 88 98 109
3 88 98 191
3 88 122 136
3 88 122 191
3 89 138 149
3 91 120 144
3 91 120 210
3 91 120 223
3 91 120 256
3 91 120 292
3 91 144 223
3 91 144 292
3 91 210 223
3 91 223 256
3 91 223 292
3 91 256 291
3 91 256 292
3 92 119 197
3 93 169 280
3 95 118 279
3 95 198 203
3 96 198 202
3 96 202 235
3 97 113 161
3 97 113 176
3 97 113 260
3 97 130 219
3 97 130 222
3 97 161 176
3 97 161 223
3 97 161 260
3 97 176 222
3 97 176 260
3 97 219 222
3 98 191 199
3 100 110 139
3 100 110 154
3 100 110 196
3 100 110 200
3 100 125 158
3 100 125 196
3 100 125 200
3 100 139 154
3 100 139 164
3 100 139 200
3 100 154 158
3 100 158 196
3 100 158 200
3 100 164 200
3 102 138 247
3 103 220 263
3 103 220 278
3 103 257 278
3 103 263 278
3 104 126 160
3 104 126 189
3 104 126 208
3 104 160 189
3 105 121 160
3 105 121 240
3 105 160 189
3 105 180 189
3 105 240 273
3 106 177 217
3 106 217 274
3 107 142 170
3 108 186 226
3 108 186 250
3 110 117 140
3 110 139 154
3 110 139 200
3 110 139 209
3 110 139 297
3 110 140 297
3 110 154 209
3 111 133 155
3 111 133 277
3 111 252 277
3 112 147 167
3 113 146 243
3 113 146 284
3 113 161 176
3 113 161 203
3 113 161 260
3 113 176 243
3 113 176 260
3 113 202 203
3 113 202 284
3 113 203 284
3 114 118 296
3 114 161 187
3 114 161 296
3 115 132 172
3 115 132 244
3 115 172 244
3 115 213 254
3 116 211 246
3 119 131 197
3 119 131 204
3 119 131 265
3 119 204 265
3 120 144 223
3 120 144 292
3 120 210 223
3 120 210 279
3 120 223 256
3 120 223 279
3 120 223 292
3 120 256 279
3 120 256 292
3 121 150 160
3 121 150 210
3 121 150 240
3 121 210 240
3 122 136 225
3 122 191 299
3 122 225 299
3 123 188 229
3 123 192 247
3 124 156 264
3 124 168 275
3 125 158 196
3 125 158 200
3 126 160 189
3 127 178 213
3 128 129 141
3 128 129 239
3 128 141 271
3 129 187 298
3 129 239 296
3 130 181 219
3 130 219 222
3 131 204 265
3 132 172 244
3 132 172 266
3 133 155 201
3 133 155 282
3 133 201 212
3 133 201 234
3 133 201 282
3 133 212 234
3 133 234 277
3 135 175 237
3 135 175 261
3 135 237 261
3 137 150 269
3 139 153 154
3 139 153 200
3 139 153 209
3 139 154 209
3 139 164 200
3 140 179 297
3 142 170 194
3 144 223 259
3 144 223 292
3 144 259 292
3 145 169 231
3 145 169 283
3 145 211 231
3 145 231 283
3 147 167 230
3 148 169 280
3 148 169 283
3 148 184 201
3 148 184 270
3 148 184 280
3 148 201 280
3 148 270 283
3 148 280 283
3 150 210 240
3 150 210 269
3 150 240 269
3 150 248 269
3 152 163 185
3 152 185 233
3 153 154 209
3 153 200 250
3 155 201 282
3 156 183 264
3 161 176 260
3 162 168 275
3 162 275 276
3 163 185 274
3 163 217 274
3 164 186 200
3 166 206 295
3 166 252 295
3 167 173 227
3 167 173 242
3 167 207 227
3 167 207 230
3 167 227 230
3 169 231 283
3 169 280 283
3 172 266 289
3 175 193 237
3 175 214 237
3 175 214 261
3 175 237 261
3 178 213 245
3 179 202 235
3 179 235 249
3 179 235 297
3 180 234 293
3 184 201 212
3 184 201 280
3 184 212 270
3 185 233 274
3 186 200 250
3 188 219 222
3 188 219 229
3 188 222 229
3 191 199 299
3 195 208 251
3 195 251 268
3 198 202 203
3 201 212 234
3 201 280 282
3 202 203 284
3 207 227 230
3 210 223 269
3 210 223 279
3 210 240 269
3 211 221 231
3 211 221 246
3 212 224 270
3 212 224 293
3 212 234 293
3 212 270 293
3 214 237 261
3 216 253 267
3 219 222 229
3 220 263 278
3 221 224 246
3 221 224 270
3 221 231 270
3 223 256 279
3 223 256 292
3 223 259 292
3 224 270 293
3 231 270 283
3 251 268 281
3 252 277 295
3 257 278 285
3 262 268 281
3 275 276 298
