ply
format ascii 1.0
element vertex 300
property float x
property float y
property float z
property float radius
element edge 1057
property int vertex1
property int vertex2
element face 1245
property list uchar int vertex_indices
end_header
-0.0485703103 -0.203025724 -0.0548558916 0.102785175
0.21564911 0.0421692502 -0.00241434543 0.0141625523
0.170304525 0.313332733 0.190175105 0.0227828983
-0.327939465 -0.40290665 -0.185381937 0.0270277585
0.230904648 0.129659457 0.110868933 0.0399404859
0.114339706 -0.418864611 -0.0564343266 0.0383478573
0.0602116939 -0.0833728354 0.277764791 0.01960517
-0.134286698 -0.451749409 -0.05808163 0.0317174513
-0.0326234128 0.0784350597 -0.0486130619 0.0157680972
-0.156824017 -0.181959782 0.0284863158 0.109691077
0.14935377 0.0769263581 0.0909549522 0.0540218593
0.268904915 -0.250295521 -0.204658279 0.0367084984
0.170309355 0.421106422 0.178428607 0.0294463306
0.155504728 0.0692501718 0.0555002032 0.0536341375
-0.108458637 -0.20780945 -0.0775448112 0.0834154562
0.117406523 -0.105210239 0.0168997676 0.0869670066
0.141167098 0.0488354944 0.0919710641 0.0546618147
0.107054447 -0.168982349 -0.0465123147 0.090185041
0.223764974 -0.007365823 -0.125075768 0.0139966749
0.231269787 0.179092904 0.0137133949 0.0169758549
0.1903377 -0.147761327 0.21138008 0.0133086237
-0.254188406 -0.298224698 -0.142610276 0.0426189899
0.024850397 0.0386406638 -0.110130479 0.0123119218
-0.0641506792 -0.242922716 0.0414315357 0.11458768
0.155088983 0.322348564 0.177820679 0.029210498
0.218579708 -0.149611698 0.19022676 0.012157204
0.122935182 -0.180909511 -0.092633138 0.0650226875
-0.11805416 -0.163291547 0.0434279029 0.132526526
0.0284023559 -0.0772129549 0.0641892328 0.0799221991
0.151838006 0.33111927 0.178786839 0.0298898639
0.167684771 0.335252785 0.213062923 0.0128486392
0.0902312888 -0.0242256956 0.214836207 0.0167612036
0.1528556 0.392874332 0.194837452 0.0326490344
0.207513607 0.048256963 -0.0068282981 0.0174175811
0.0819765484 -0.239823169 -0.0413406627 0.0489859375
0.108699865 -0.155169485 -0.0142730146 0.0986800663
-0.159611361 -0.200187197 -0.0486616228 0.0920546135
0.198681073 0.033668173 0.00654187477 0.0155147247
0.24066564 0.115436906 0.0514103023 0.0342903153
-0.142495925 -0.201815818 0.0493537063 0.110769295
0.160534924 0.00144532531 -0.141693249 0.0144159507
-0.193885583 -0.183722261 -0.0108650229 0.0782052299
0.0831423857 -0.110186413 0.278894344 0.0171765023
0.199353122 0.187100606 0.107532766 0.038280984
0.236981726 -0.226278576 -0.170757172 0.0349438807
0.218679085 0.0991327816 0.0823199225 0.0632993789
0.188684496 0.285311883 0.0482168623 0.0133676228
-0.200244618 -0.262804235 -0.109386238 0.0494703008
0.0946699411 0.0885505463 0.0409786873 0.0155769854
-0.13658632 -0.0877207271 -0.0547096918 0.0605151019
0.151452827 0.121385262 0.106485141 0.0411290244
0.159240661 0.323501614 0.0939959195 0.0104695075
0.121573851 0.0508175601 -0.0562623971 0.019727086
0.141214709 -0.448314716 -0.0412053944 0.0182014013
0.149814452 0.347399653 0.189515587 0.0323936508
-0.323480274 -0.290791228 -0.0952153558 0.0156119277
0.190242181 0.0616878872 0.0537626966 0.0646645348
0.181454618 -0.008293885 0.0593510524 0.0602325773
-0.00291159402 0.050810536 -0.0948025229 0.0131858683
0.229533923 0.0178527315 -0.0664108999 0.0113996157
0.123418696 0.0461132373 0.127933026 0.02255033
0.140944446 0.0883197718 0.103238246 0.0401512678
0.197914751 -0.0987325657 0.178202902 0.0184448643
0.103095096 -0.455298194 -0.0395430844 0.0175911061
0.282260724 -0.25902517 -0.21651133 0.0352753644
0.189718195 0.441482983 0.147232038 0.0258334984
-0.255154528 -0.315627113 -0.151309863 0.0428867782
0.146991109 0.368334035 0.196085053 0.0331697155
0.061703499 0.0856797309 0.00875486189 0.0120260159
-0.0523997928 -0.101336051 0.0745354934 0.0619709229
0.289754698 -0.0861695683 0.0955184856 0.0179044471
0.204250601 0.0564654809 0.0278315856 0.0406815091
0.105901267 0.0146475515 -0.13466485 0.0136450444
0.199197293 0.162471819 0.10342246 0.0498912115
0.173333698 0.0379071984 -0.0617368666 0.0177529768
-0.0755059525 -0.222060723 0.0260991732 0.136557658
0.282899325 -0.295486926 -0.270238936 0.0187575175
0.194792261 0.458056438 0.101756371 0.0239833181
0.209324078 0.159238506 0.10660478 0.0457400509
0.139780969 0.0560096882 0.0943217909 0.0520742225
0.177592576 0.327474556 0.215405126 0.0100152892
-0.0999731216 -0.194605319 0.142891597 0.0599092725
0.248283369 -0.147924808 0.162254558 0.0121020619
0.302861432 -0.271070751 -0.237241123 0.0328117101
0.0480468895 -0.184823507 -0.0496581871 0.0865171742
0.128434569 -0.170341759 -0.062181411 0.0732822385
-0.134855535 -0.47389032 -0.0415022648 0.020553291
-0.292994443 -0.36309425 -0.173536951 0.0346168195
-0.316342441 -0.391328969 -0.186325545 0.0354318693
0.222861389 0.150966143 0.0319462073 0.028635936
0.0630872548 0.0624220764 -0.0476301793 0.0192812442
-0.148831664 -0.091355754 0.0824123833 0.0689641602
0.153281957 -0.142064248 0.240912428 0.0138735096
0.128460937 0.0799936119 0.0582073636 0.0337308195
0.223112918 -0.0666127492 0.13666972 0.02072875
0.100096345 -0.180995313 -0.130618668 0.0338812172
0.139918264 0.0537338688 0.0938424917 0.05197834
-0.134940382 -0.215952373 -0.0819115138 0.07815831
0.0539940528 0.0480104735 -0.0827850453 0.0195941606
0.159887989 0.0670335608 0.0132977314 0.0274021061
0.281704438 0.134282948 0.137062667 0.0192861032
-0.174653487 -0.193440415 -0.0478658447 0.084276989
0.131800577 0.371117994 0.185792181 0.0198934459
0.218970499 -0.0323857352 0.103712278 0.0313309896
0.188557515 -0.0579629987 0.0217804933 0.0405038531
-0.336453018 -0.403591024 -0.200903505 0.0213201212
0.144199808 0.0700737425 0.00561824561 0.0217789317
0.236436997 0.0781343121 0.0860151894 0.0458344042
0.307948488 -0.287281039 -0.279523158 0.0186706933
-0.279026705 -0.403555307 -0.190627695 0.0193356192
0.15681114 -0.112878696 0.0011556524 0.0618635722
0.0951458224 0.0701204716 -0.0190227693 0.0172326946
-0.11349743 -0.17022439 -0.00525658768 0.136616686
0.0997104856 0.0288271576 0.0898601824 0.0294461791
0.228939794 0.165716768 0.0185740359 0.0158535213
0.196003676 0.463156133 0.0982635836 0.0206018333
0.179007713 -0.212519492 -0.153143016 0.0432262746
0.13269976 -0.0374240626 0.190725458 0.0193944775
0.166614928 0.0912434767 0.0862092459 0.0613358932
0.161047171 -0.00393256254 0.141957358 0.0228001498
-0.101606351 -0.122522241 -0.0690401176 0.0735359796
0.200713021 0.26933384 0.171674204 0.0154544411
0.159075686 -0.181265352 -0.0950770184 0.0496952575
-0.270189952 -0.236904325 -0.00585190791 0.0270718465
-0.00421375081 0.0814648274 -0.0258073428 0.0153315711
0.0725690071 -0.0525328163 0.246690097 0.0182230376
0.196244297 -0.029684962 0.127869219 0.0260976125
0.230044099 0.200474473 0.0102418661 0.01759575
0.155781427 0.312952457 0.169560112 0.0296849064
0.0501089146 -0.105589218 0.0372506009 0.0995463941
0.200012454 0.267392112 0.0382895326 0.0158174527
0.335305112 -0.293548998 -0.265111691 0.0178858304
0.197037253 0.462004785 0.0972410565 0.0216176685
0.2304193 0.0024750758 -0.100311614 0.0128988021
0.0887764853 -0.157481111 -0.010867046 0.108288447
0.139532037 0.354493151 0.184854686 0.0268560808
-0.0713828087 -0.237443407 0.122083711 0.0645434896
0.1887393 0.0467239933 0.0594916931 0.0637516061
0.148170599 0.0619314491 -0.0209862095 0.0168249471
0.154964936 0.0691310753 0.0255277993 0.0335620818
0.266511515 0.121837793 0.122780482 0.0205163222
0.0399587507 -0.152750193 0.0150706615 0.11295814
0.215613831 0.173607346 0.0551618522 0.0274359438
-0.321052294 -0.392498831 -0.223319851 0.0169781558
0.13900551 -0.22434135 -0.00753616099 0.0504149781
0.32776032 -0.312479448 -0.242502069 0.0139122335
0.164314932 0.0644064811 0.0723187591 0.0695002024
0.233928435 -0.0263440311 0.0835190577 0.0269054069
0.13894171 0.102927302 0.111302741 0.0326334927
0.216425524 0.459613445 0.0828083985 0.00989242786
0.214898153 0.295546133 0.219027065 0.0127237504
0.292725298 -0.321349269 -0.233882981 0.0142196393
0.209880866 -0.0096435893 -0.140376363 0.0132447078
-0.134689263 -0.108453797 -0.000149290086 0.0880120744
-0.119427608 -0.4462742 -0.065352395 0.0313794058
0.0418018977 -0.182057345 -0.0146663806 0.1104573
-0.304547884 -0.385980335 -0.187572553 0.0382972592
0.126247801 -0.103987437 0.237960321 0.0177293819
-0.289820422 -0.387952816 -0.23788008 0.00977494959
0.259406457 0.140174931 0.128455723 0.0241118299
0.0744331861 0.0244110346 -0.12746547 0.0130385837
0.177621563 0.484119774 0.0867415466 0.0121477656
-0.0992839189 -0.298628155 0.0166823137 0.0838955743
0.163343703 -0.00203851615 0.135241751 0.0260658757
0.205537027 0.150324249 0.0716387361 0.0478440227
0.195234135 -0.202618376 -0.133626553 0.0392641501
0.175735893 0.279028539 0.163149495 0.028667596
-0.143880005 -0.235623545 -0.113803157 0.0552249658
0.161621878 0.125198224 0.116335973 0.0395717763
0.193362168 0.314404975 0.218828726 0.0100383581
0.21892125 0.0398764074 -0.0279021774 0.0104968972
0.170398148 0.00218107091 0.0859438529 0.0593144892
0.223989587 0.110125585 0.0467160377 0.0443343588
0.131714023 0.354833277 0.167853368 0.0144560012
0.116657932 -0.132535928 0.262477758 0.0132873472
0.0839298785 -0.178849671 -0.056861347 0.0845828254
0.314020989 -0.285399504 -0.254653347 0.0322363854
-0.119040073 -0.397437285 -0.0338578595 0.0413040627
0.156374205 0.0676742393 0.0807085624 0.0638218979
0.132335641 0.00713433942 -0.140931768 0.0133286832
0.245657684 0.135673401 0.120784549 0.0290258875
0.170522051 0.107560257 0.0915980706 0.0589911383
0.21452257 0.445768693 0.0700660327 0.00823681167
0.252391581 0.124577807 0.118231298 0.0288842867
0.119153557 -0.275449748 -0.0128675458 0.0501344185
0.236592589 -0.115340461 0.156129833 0.0171629948
-0.230698819 -0.301895389 -0.153436048 0.0398191381
0.191393898 0.0173440034 -0.0965815421 0.0183259421
0.200122961 0.0815882995 -0.000940994623 0.0145805482
0.182435012 0.00221015151 0.0651195454 0.0640842261
0.293428198 -0.117089976 0.10392342 0.0123150072
0.219965757 0.227932157 0.0125333471 0.0187874118
0.0162543624 0.0634654882 -0.0616360976 0.0180083474
-0.0266937163 -0.0977707434 0.0705179762 0.0655689802
-0.142391812 -0.263487931 0.0520300294 0.075378566
0.127857289 0.0306799365 0.142535375 0.0207612539
0.0210678345 -0.194523528 -0.0480868716 0.0882957286
0.141302248 0.0250626687 -0.102134973 0.0196888427
0.288316663 0.129634601 0.0489079366 0.00935557155
0.177701758 0.266695824 0.146872035 0.0288168624
0.118061128 0.0361835538 0.145131735 0.0149471862
-0.182066476 -0.276484813 -0.140795783 0.0402348704
-0.109026371 -0.339593315 0.000415534008 0.0607675457
0.145096692 0.340316315 0.154910523 0.0157728433
0.110919106 0.0879061613 0.0624819636 0.0180254936
0.202659812 0.0314216793 -0.0591426929 0.0152778215
0.185581513 0.00145926768 -0.12924632 0.0165207926
0.171066347 0.14048515 0.104011345 0.0449054008
-0.206741323 -0.193013035 0.0216395848 0.0699751978
0.0991030405 -0.177476754 -0.0816923042 0.0686322023
0.137113073 -0.273972438 -0.0132345394 0.040358535
-0.111041395 -0.425663877 -0.0309355318 0.0271088055
0.294346745 -0.290235294 -0.246127629 0.0344565692
0.289033055 0.146372773 0.1466576 0.0208320853
0.110866204 -0.0719213085 0.229534342 0.0181307954
0.17540339 0.304166628 0.0773662853 0.0122264263
0.239738262 0.26871162 0.210670226 0.0154604842
0.16652642 0.110435991 0.0942763959 0.0566526256
0.10695532 -0.347862378 -0.0477499634 0.0305342622
0.155900202 0.331152064 0.186140337 0.0288951235
0.0960804036 0.0386214554 -0.0922771785 0.0201075049
0.265186931 -0.054586087 0.0930091624 0.0191950144
0.189224868 0.455528989 0.0965428511 0.021230624
-0.287310073 -0.283276711 -0.140998879 0.0244485942
0.140844081 -0.195014879 -0.142236208 0.0402806191
0.227679803 -0.233746718 -0.180391828 0.0391510139
0.190730245 0.292321365 0.18577498 0.0162083685
0.258358106 0.118894794 0.0613592633 0.0255956197
0.163201413 0.304909927 0.172426456 0.0282205921
0.149291905 0.0255381461 0.0762224139 0.0638905506
-0.296487127 -0.266808899 -0.0350163222 0.0155168157
0.224995317 0.1697187 0.0345653363 0.0233573395
-0.242848186 -0.211341803 0.0108241926 0.0435650296
0.0938733371 -0.273608247 -0.0407340367 0.0312701908
0.224712152 0.188769922 0.0377482617 0.0178494488
0.148080763 -0.433823264 -0.0669336457 0.0179710566
0.0314900133 0.0828914682 -0.00694082138 0.0138637458
0.1614718 0.127502549 0.0970465728 0.0493634498
0.244099621 0.113606557 0.107748693 0.0359489677
-0.225445825 -0.202349233 0.0191953483 0.0554298854
0.294159921 -0.283701889 -0.2413028 0.0349271058
-0.230339479 -0.295343312 -0.140945875 0.0468910236
0.157724235 0.323003328 0.134993615 0.0126486237
0.153145119 -0.0781231704 0.20123135 0.0186710635
0.216520574 0.0623275903 0.00788357339 0.0194631755
-0.107570858 -0.470090778 -0.0376248229 0.0235693088
0.201195681 0.0975658576 0.0721075448 0.0747928227
0.272964344 -0.313993125 -0.248179399 0.0150766468
0.182785419 -0.00480446076 -0.142359573 0.0139572719
0.107348086 0.00539601765 0.17944704 0.015763642
-0.232982404 -0.20318866 -0.00202299028 0.0475632391
0.085045073 -0.178545241 -0.0599419828 0.0824225865
-0.00126366736 -0.158239595 0.0201833459 0.112456952
0.198483832 0.201611714 0.119813707 0.0359772587
0.12248907 0.0777947242 0.0252358304 0.022295416
0.276651716 0.205218319 0.185501675 0.0197362881
0.173167663 -0.0524002668 0.168289407 0.0191968512
-0.00192982439 -0.0357026922 0.0972507794 0.0427776216
0.227282753 0.0845909825 0.0193519555 0.0313340022
-0.0288682308 0.0665075842 -0.0742512861 0.0133519547
0.0936777318 -0.441219644 -0.0635448667 0.0174970594
0.198273251 0.0129632329 0.0631180769 0.0511024454
0.273702593 -0.141192445 0.134002335 0.0089375169
0.151935424 -0.0427107539 0.0476236635 0.0647846214
-0.26768217 -0.392965718 -0.219765598 0.0126020049
0.255906559 0.112298607 0.109764956 0.0266344517
0.210544737 0.280637847 0.190014688 0.0103787249
0.182975096 0.292459828 0.0656899488 0.0138394419
-0.0136510647 -0.180749554 0.00718040452 0.121529636
0.253707193 -0.0982193949 0.127977655 0.0183252965
0.0827649181 -0.240097804 -0.0345047872 0.0535653281
-0.297677572 -0.411693454 -0.182065871 0.0180128278
0.143572358 0.340781354 0.126208261 0.0100205228
0.04910204 -0.0105992639 0.0881819612 0.0416115784
0.115564312 -0.216388386 -0.0117770598 0.0723110746
-0.0878852493 -0.474794901 -0.0420927008 0.0149033354
0.220978298 0.222635774 0.0343867541 0.0144804688
-0.292929233 -0.290877727 -0.122144789 0.0207505493
0.148245632 0.0187078827 0.110404675 0.0426683361
0.285592468 0.161908772 0.160502081 0.0252974386
0.200267054 0.0528990831 -0.00967842104 0.0172850716
0.151115159 0.340437091 0.186982731 0.0314862265
0.16932332 0.468473768 0.080313717 0.0106683495
0.0710769308 -0.129198602 0.0143739786 0.106326607
0.100319864 0.0137738357 0.0834747012 0.0391985818
-0.326032537 -0.280322847 -0.119672327 0.0157544634
0.208834284 0.253176357 0.024019278 0.0166631817
-0.314909392 -0.289988531 -0.0758017511 0.014469892
0.0502678691 0.0299315143 -0.120868511 0.0123914246
0.0618241998 -0.188915433 0.00610821758 0.0969711507
0.257015619 0.240078908 0.198994924 0.0171484345
0.172626748 0.301051066 0.114334846 0.00460963
0.0990348418 -0.260640271 0.0297476293 0.0330350221
0.101490522 0.0866417627 0.0322640009 0.0186958137
0.170053266 -0.116441662 0.212164608 0.0169702276
0.19194297 0.22918805 0.136086232 0.0308059542
0.107565164 -0.020895579 0.065632201 0.0601063881
0.118557525 -0.351384135 -0.0326999202 0.0404837016
0.113873998 -0.183513181 -0.0132646213 0.0855849316
-0.0333765741 -0.14366798 0.0381954872 0.101989
0 14
0 75
0 84
0 97
0 112
0 120
0 155
0 196
0 268
1 33
1 37
1 71
1 137
1 170
1 189
1 244
1 258
1 280
2 24
2 30
2 54
2 80
2 150
2 166
2 169
2 219
2 226
2 228
2 281
3 88
3 105
3 156
3 271
4 45
4 73
4 78
4 159
4 164
4 180
4 183
4 213
4 217
4 238
4 246
4 265
4 279
5 53
5 63
5 218
5 235
5 260
5 297
6 42
6 125
6 214
7 86
7 154
7 177
7 211
7 245
8 124
8 192
8 259
9 27
9 36
9 39
9 41
9 112
9 208
9 232
9 239
10 16
10 48
10 61
10 79
10 93
10 96
10 118
10 178
10 181
10 204
10 217
10 229
11 44
11 64
11 212
11 225
11 240
12 32
12 65
12 67
13 48
13 56
13 57
13 93
13 99
13 106
13 137
13 138
13 139
13 146
13 178
13 189
13 229
13 246
13 254
13 263
13 293
14 75
14 97
14 112
14 120
14 167
15 35
15 104
15 110
15 129
15 134
15 263
15 283
15 296
16 60
16 61
16 79
16 96
16 113
16 118
16 195
16 200
16 284
17 26
17 34
17 35
17 85
17 122
17 134
17 175
17 184
17 209
17 251
17 270
17 274
17 298
18 133
18 152
18 187
18 206
19 89
19 114
19 127
19 231
19 234
20 25
20 62
20 92
20 294
21 47
21 66
21 87
21 223
21 241
21 277
22 58
22 98
22 192
22 288
23 75
23 136
23 141
23 155
23 162
23 268
23 289
24 29
24 54
24 128
24 203
24 219
24 228
24 281
25 62
25 82
25 185
26 85
26 95
26 116
26 122
26 165
26 175
26 209
26 224
26 274
26 298
27 28
27 39
27 69
27 75
27 81
27 91
27 112
27 153
27 193
27 252
27 268
27 299
28 69
28 112
28 129
28 193
28 252
28 257
28 268
28 273
28 296
28 299
29 32
29 54
29 128
29 135
29 173
29 203
29 219
29 228
29 242
29 281
30 54
30 67
30 80
30 169
30 219
30 281
31 117
31 125
31 214
31 249
32 54
32 67
32 102
32 135
33 37
33 71
33 170
33 188
33 205
33 244
33 258
33 280
34 84
34 155
34 175
34 184
34 196
34 233
34 270
34 274
35 85
35 110
35 122
35 134
35 298
36 39
36 47
36 75
36 97
36 101
36 112
36 167
36 250
37 57
37 71
37 99
37 137
37 170
37 189
37 280
38 45
38 89
38 164
38 172
38 198
38 227
38 246
38 258
39 75
39 81
39 112
39 136
39 194
39 208
39 232
39 239
40 179
40 187
40 197
40 206
40 248
41 47
41 101
41 112
41 123
41 208
41 250
42 125
42 157
42 174
42 214
43 73
43 78
43 142
43 164
43 234
43 253
43 295
44 116
44 165
44 225
45 107
45 164
45 172
45 183
45 198
45 217
45 227
45 238
45 246
45 265
46 130
46 215
46 267
46 286
47 97
47 101
47 112
47 167
47 201
47 241
48 68
48 93
48 96
48 204
48 293
49 112
49 120
49 153
50 61
50 148
50 168
50 207
50 217
50 237
51 128
51 215
51 242
51 267
51 272
51 291
52 74
52 90
52 111
52 138
52 197
52 220
53 63
53 235
54 67
54 80
54 102
54 135
54 173
54 203
54 219
54 281
55 277
55 285
55 287
56 71
56 99
56 106
56 107
56 137
56 139
56 146
56 172
56 188
56 244
56 246
56 258
56 261
57 103
57 104
57 126
57 137
57 147
57 171
57 189
57 229
57 261
57 263
58 98
58 192
58 259
59 133
59 170
59 187
59 205
60 79
60 96
60 113
60 195
60 200
60 278
60 284
61 79
61 96
61 118
61 148
61 181
61 217
61 237
62 94
62 185
62 243
62 256
62 294
63 260
64 83
64 212
64 240
65 77
65 222
66 87
66 186
66 223
66 241
66 277
67 102
67 135
67 173
68 90
68 111
68 236
68 254
68 293
69 193
69 257
69 299
70 190
70 221
70 269
71 137
71 244
71 258
72 160
72 179
72 197
72 220
73 78
73 142
73 164
73 168
73 207
73 217
73 234
73 237
73 246
73 253
73 276
74 99
74 138
74 187
74 197
74 205
74 280
75 81
75 97
75 112
75 136
75 141
75 155
75 162
75 167
75 194
75 196
75 202
75 252
75 268
75 289
75 299
76 108
76 176
76 212
76 240
76 247
77 115
77 132
77 149
77 161
77 182
77 222
77 282
78 159
78 164
78 168
78 180
78 207
78 213
78 217
78 237
78 253
78 295
79 96
79 113
79 200
80 169
80 219
81 136
82 185
82 262
83 176
83 212
83 240
84 134
84 155
84 175
84 196
84 209
84 251
85 110
85 122
85 274
85 298
86 154
86 177
86 211
86 245
87 88
87 109
87 156
87 264
88 105
88 143
88 156
88 271
89 114
89 142
89 164
89 172
89 231
89 234
89 246
90 98
90 111
90 192
90 220
90 236
91 153
92 157
92 174
92 294
93 96
93 118
93 146
93 178
93 204
93 229
93 254
93 293
94 103
94 126
94 185
94 221
94 256
94 269
95 175
95 209
95 224
95 251
96 113
96 178
96 195
96 200
96 204
96 229
96 278
96 284
97 112
97 167
98 160
98 192
98 220
98 288
99 106
99 137
99 138
99 139
99 188
99 280
100 140
100 159
100 180
100 183
100 213
100 265
101 112
101 123
101 250
102 135
102 173
103 126
103 147
103 171
103 189
103 221
103 261
103 263
104 110
104 189
104 263
105 143
105 156
106 111
106 137
106 138
106 139
106 146
106 254
107 137
107 140
107 146
107 171
107 178
107 189
107 238
107 246
107 261
107 265
108 131
108 176
108 212
108 240
109 156
109 264
109 271
110 263
111 138
111 236
111 254
111 293
112 120
112 123
112 153
112 162
112 194
112 202
112 232
112 250
112 252
112 268
112 299
113 195
113 229
113 273
113 278
113 284
114 231
115 132
115 149
115 161
115 222
115 282
116 122
116 165
116 224
116 225
117 119
117 163
117 214
117 243
117 249
117 256
118 168
118 178
118 181
118 204
118 217
118 237
118 246
119 163
119 171
119 195
119 200
119 249
119 256
119 278
121 166
121 199
121 226
121 266
121 290
121 295
122 165
122 298
123 230
123 232
123 239
123 250
124 192
124 236
125 214
126 163
126 171
126 189
126 256
127 142
127 191
127 231
127 234
127 276
128 166
128 199
128 203
128 228
128 242
128 272
128 291
129 141
129 252
129 263
129 268
129 283
129 296
129 299
130 267
130 276
130 286
131 145
131 176
132 149
132 161
132 222
133 187
133 205
133 206
134 141
134 155
134 175
134 274
134 283
134 289
134 298
135 173
135 203
135 281
136 194
137 138
137 139
137 146
137 189
137 229
137 244
137 261
137 280
138 139
138 254
138 280
139 146
139 229
139 246
139 254
140 159
140 180
140 183
140 238
140 265
141 155
141 252
141 268
141 283
141 289
142 164
142 231
142 234
142 276
143 156
143 158
144 210
144 274
144 298
145 151
145 176
145 212
145 240
146 171
146 178
146 181
146 189
146 246
146 254
146 278
146 293
147 189
147 221
147 261
148 168
148 217
149 182
149 222
150 169
150 216
150 226
150 266
151 176
151 212
151 240
151 247
152 206
152 248
154 177
154 211
154 245
154 275
155 184
155 196
155 233
155 252
155 268
155 270
155 289
155 292
156 158
156 264
156 271
157 174
157 214
157 243
157 294
158 264
159 180
159 183
159 213
159 238
159 265
159 279
160 220
160 288
161 222
161 282
162 177
162 194
162 202
163 171
163 256
163 278
164 207
164 217
164 227
164 231
164 234
164 237
164 246
164 276
165 225
166 199
166 226
166 228
166 242
166 266
166 291
166 295
167 201
168 181
168 207
168 217
168 237
169 219
169 226
170 205
170 244
170 280
171 178
171 189
171 246
171 256
171 263
171 278
171 296
172 227
172 246
172 258
173 203
173 272
175 196
175 209
175 251
176 212
176 240
177 202
177 211
178 181
178 189
178 204
178 217
178 246
178 278
179 197
180 183
180 213
180 238
180 279
181 217
181 237
181 246
182 222
183 238
183 265
184 210
184 218
184 233
184 270
184 274
184 289
184 292
184 297
185 262
185 269
186 201
186 241
187 197
187 205
187 206
188 244
188 258
188 280
189 229
189 261
189 263
190 262
190 269
191 234
191 276
191 286
192 236
192 259
193 257
193 299
194 202
195 200
195 249
195 278
196 270
197 206
197 220
198 227
199 228
199 242
199 253
199 291
199 295
200 249
200 278
201 241
202 211
203 242
203 272
205 280
206 248
207 217
207 237
207 246
208 232
208 239
208 250
209 224
209 251
210 274
210 297
211 245
211 275
212 240
212 247
213 279
214 243
215 267
215 291
216 266
216 290
217 237
217 246
218 233
218 297
219 228
219 281
220 288
221 269
222 282
223 277
223 285
226 228
226 266
227 246
228 266
228 281
229 254
229 263
229 284
229 296
230 287
231 234
232 239
232 250
233 270
234 276
237 246
238 265
240 247
242 272
242 291
243 256
243 294
244 258
244 280
245 275
246 258
249 278
252 268
252 283
252 299
253 295
254 293
255 279
255 290
257 273
258 280
262 269
263 283
263 296
266 290
267 291
268 289
268 299
270 274
270 289
273 284
273 296
274 289
274 292
274 298
276 286
277 285
277 287
278 284
278 296
284 296
289 292
289 298
292 297
292 298
3 0 14 75
3 0 14 97
3 0 14 112
3 0 14 120
3 0 75 97
3 0 75 112
3 0 75 155
3 0 75 196
3 0 75 268
3 0 84 155
3 0 84 196
3 0 97 112
3 0 112 120
3 0 112 268
3 0 155 196
3 0 155 268
3 1 33 37
3 1 33 71
3 1 33 170
3 1 33 244
3 1 33 258
3 1 33 280
3 1 37 71
3 1 37 137
3 1 37 170
3 1 37 189
3 1 37 280
3 1 71 137
3 1 71 244
3 1 71 258
3 1 137 189
3 1 137 244
3 1 137 280
3 1 170 244
3 1 170 280
3 1 244 258
3 1 244 280
3 1 258 280
3 2 24 54
3 2 24 219
3 2 24 228
3 2 24 281
3 2 30 54
3 2 30 80
3 2 30 169
3 2 30 219
3 2 30 281
3 2 54 80
3 2 54 219
3 2 54 281
3 2 80 169
3 2 80 219
3 2 150 169
3 2 150 226
3 2 166 226
3 2 166 228
3 2 169 219
3 2 169 226
3 2 219 228
3 2 219 281
3 2 226 228
3 2 228 281
3 3 88 105
3 3 88 156
3 3 88 271
3 3 105 156
3 3 156 271
3 4 45 164
3 4 45 183
3 4 45 217
3 4 45 238
3 4 45 246
3 4 45 265
3 4 73 78
3 4 73 164
3 4 73 217
3 4 73 246
3 4 78 159
3 4 78 164
3 4 78 180
3 4 78 213
3 4 78 217
3 4 159 180
3 4 159 183
3 4 159 213
3 4 159 238
3 4 159 265
3 4 159 279
3 4 164 217
3 4 164 246
3 4 180 183
3 4 180 213
3 4 180 238
3 4 180 279
3 4 183 238
3 4 183 265
3 4 213 279
3 4 217 246
3 4 238 265
3 5 53 63
3 5 53 235
3 5 63 260
3 5 218 297
3 6 42 125
3 6 42 214
3 6 125 214
3 7 86 154
3 7 86 177
3 7 86 211
3 7 86 245
3 7 154 177
3 7 154 211
3 7 154 245
3 7 177 211
3 7 211 245
3 8 124 192
3 8 192 259
3 9 27 39
3 9 27 112
3 9 36 39
3 9 36 112
3 9 39 112
3 9 39 208
3 9 39 232
3 9 39 239
3 9 41 112
3 9 41 208
3 9 112 232
3 9 208 232
3 9 208 239
3 9 232 239
3 10 16 61
3 10 16 79
3 10 16 96
3 10 16 118
3 10 48 93
3 10 48 96
3 10 48 204
3 10 61 79
3 10 61 96
3 10 61 118
3 10 61 181
3 10 61 217
3 10 79 96
3 10 93 96
3 10 93 118
3 10 93 178
3 10 93 204
3 10 93 229
3 10 96 178
3 10 96 204
3 10 96 229
3 10 118 178
3 10 118 181
3 10 118 204
3 10 118 217
3 10 178 181
3 10 178 204
3 10 178 217
3 10 181 217
3 11 44 225
3 11 64 212
3 11 64 240
3 11 212 240
3 12 32 67
3 13 48 93
3 13 48 293
3 13 56 99
3 13 56 106
3 13 56 137
3 13 56 139
3 13 56 146
3 13 56 246
3 13 57 137
3 13 57 189
3 13 57 229
3 13 57 263
3 13 93 146
3 13 93 178
3 13 93 229
3 13 93 254
3 13 93 293
3 13 99 106
3 13 99 137
3 13 99 138
3 13 99 139
3 13 106 137
3 13 106 138
3 13 106 139
3 13 106 146
3 13 106 254
3 13 137 138
3 13 137 139
3 13 137 146
3 13 137 189
3 13 137 229
3 13 138 139
3 13 138 254
3 13 139 146
3 13 139 229
3 13 139 246
3 13 139 254
3 13 146 178
3 13 146 189
3 13 146 246
3 13 146 254
3 13 146 293
3 13 178 189
3 13 178 246
3 13 189 229
3 13 189 263
3 13 229 254
3 13 229 263
3 13 254 293
3 14 75 97
3 14 75 112
3 14 75 167
3 14 97 112
3 14 97 167
3 14 112 120
3 15 35 110
3 15 35 134
3 15 104 110
3 15 104 263
3 15 110 263
3 15 129 263
3 15 129 283
3 15 129 296
3 15 134 283
3 15 263 283
3 15 263 296
3 16 60 79
3 16 60 96
3 16 60 113
3 16 60 195
3 16 60 200
3 16 60 284
3 16 61 79
3 16 61 96
3 16 61 118
3 16 79 96
3 16 79 113
3 16 79 200
3 16 96 113
3 16 96 195
3 16 96 200
3 16 96 284
3 16 113 195
3 16 113 284
3 16 195 200
3 17 26 85
3 17 26 122
3 17 26 175
3 17 26 209
3 17 26 274
3 17 26 298
3 17 34 175
3 17 34 184
3 17 34 270
3 17 34 274
3 17 35 85
3 17 35 122
3 17 35 134
3 17 35 298
3 17 85 122
3 17 85 274
3 17 85 298
3 17 122 298
3 17 134 175
3 17 134 274
3 17 134 298
3 17 175 209
3 17 175 251
3 17 184 270
3 17 184 274
3 17 209 251
3 17 270 274
3 17 274 298
3 18 133 187
3 18 133 206
3 18 152 206
3 18 187 206
3 19 89 114
3 19 89 231
3 19 89 234
3 19 114 231
3 19 127 231
3 19 127 234
3 19 231 234
3 20 25 62
3 20 62 294
3 20 92 294
3 21 47 241
3 21 66 87
3 21 66 223
3 21 66 241
3 21 66 277
3 21 223 277
3 22 58 98
3 22 58 192
3 22 98 192
3 22 98 288
3 23 75 136
3 23 75 141
3 23 75 155
3 23 75 162
3 23 75 268
3 23 75 289
3 23 141 155
3 23 141 268
3 23 141 289
3 23 155 268
3 23 155 289
3 23 268 289
3 24 29 54
3 24 29 128
3 24 29 203
3 24 29 219
3 24 29 228
3 24 29 281
3 24 54 203
3 24 54 219
3 24 54 281
3 24 128 203
3 24 128 228
3 24 219 228
3 24 219 281
3 24 228 281
3 25 62 185
3 25 82 185
3 26 85 122
3 26 85 274
3 26 85 298
3 26 95 175
3 26 95 209
3 26 95 224
3 26 116 122
3 26 116 165
3 26 116 224
3 26 122 165
3 26 122 298
3 26 175 209
3 26 209 224
3 26 274 298
3 27 28 69
3 27 28 112
3 27 28 193
3 27 28 252
3 27 28 268
3 27 28 299
3 27 39 75
3 27 39 81
3 27 39 112
3 27 69 193
3 27 69 299
3 27 75 81
3 27 75 112
3 27 75 252
3 27 75 268
3 27 75 299
3 27 91 153
3 27 112 153
3 27 112 252
3 27 112 268
3 27 112 299
3 27 193 299
3 27 252 268
3 27 252 299
3 27 268 299
3 28 69 193
3 28 69 257
3 28 69 299
3 28 112 252
3 28 112 268
3 28 112 299
3 28 129 252
3 28 129 268
3 28 129 296
3 28 129 299
3 28 193 257
3 28 193 299
3 28 252 268
3 28 252 299
3 28 257 273
3 28 268 299
3 28 273 296
3 29 32 54
3 29 32 135
3 29 54 135
3 29 54 173
3 29 54 203
3 29 54 219
3 29 54 281
3 29 128 203
3 29 128 228
3 29 128 242
3 29 135 173
3 29 135 203
3 29 135 281
3 29 173 203
3 29 203 242
3 29 219 228
3 29 219 281
3 29 228 281
3 30 54 67
3 30 54 80
3 30 54 219
3 30 54 281
3 30 80 169
3 30 80 219
3 30 169 219
3 30 219 281
3 31 117 214
3 31 117 249
3 31 125 214
3 32 54 67
3 32 54 102
3 32 54 135
3 32 67 102
3 32 67 135
3 32 102 135
3 33 37 71
3 33 37 170
3 33 37 280
3 33 71 244
3 33 71 258
3 33 170 205
3 33 170 244
3 33 170 280
3 33 188 244
3 33 188 258
3 33 188 280
3 33 205 280
3 33 244 258
3 33 244 280
3 33 258 280
3 34 84 155
3 34 84 175
3 34 84 196
3 34 155 184
3 34 155 196
3 34 155 233
3 34 155 270
3 34 175 196
3 34 184 233
3 34 184 270
3 34 184 274
3 34 196 270
3 34 233 270
3 34 270 274
3 35 85 110
3 35 85 122
3 35 85 298
3 35 122 298
3 35 134 298
3 36 39 75
3 36 39 112
3 36 47 97
3 36 47 101
3 36 47 112
3 36 47 167
3 36 75 97
3 36 75 112
3 36 75 167
3 36 97 112
3 36 97 167
3 36 101 112
3 36 101 250
3 36 112 250
3 37 57 137
3 37 57 189
3 37 71 137
3 37 99 137
3 37 99 280
3 37 137 189
3 37 137 280
3 37 170 280
3 38 45 164
3 38 45 172
3 38 45 198
3 38 45 227
3 38 45 246
3 38 89 164
3 38 89 172
3 38 89 246
3 38 164 227
3 38 164 246
3 38 172 227
3 38 172 246
3 38 172 258
3 38 198 227
3 38 227 246
3 38 246 258
3 39 75 81
3 39 75 112
3 39 75 136
3 39 75 194
3 39 81 136
3 39 112 194
3 39 112 232
3 39 136 194
3 39 208 232
3 39 208 239
3 39 232 239
3 40 179 197
3 40 187 197
3 40 187 206
3 40 197 206
3 40 206 248
3 41 47 101
3 41 47 112
3 41 101 112
3 41 101 123
3 41 101 250
3 41 112 123
3 41 112 250
3 41 123 250
3 41 208 250
3 42 125 214
3 42 157 174
3 42 157 214
3 43 73 78
3 43 73 142
3 43 73 164
3 43 73 234
3 43 73 253
3 43 78 164
3 43 78 253
3 43 78 295
3 43 142 164
3 43 142 234
3 43 164 234
3 43 253 295
3 44 116 165
3 44 116 225
3 44 165 225
3 45 107 238
3 45 107 246
3 45 107 265
3 45 164 217
3 45 164 227
3 45 164 246
3 45 172 227
3 45 172 246
3 45 183 238
3 45 183 265
3 45 198 227
3 45 217 246
3 45 227 246
3 45 238 265
3 46 130 267
3 46 130 286
3 46 215 267
3 47 97 112
3 47 97 167
3 47 101 112
3 47 167 201
3 47 201 241
3 48 68 293
3 48 93 96
3 48 93 204
3 48 93 293
3 48 96 204
3 49 112 120
3 49 112 153
3 50 61 148
3 50 61 217
3 50 61 237
3 50 148 168
3 50 148 217
3 50 168 207
3 50 168 217
3 50 168 237
3 50 207 217
3 50 207 237
3 50 217 237
3 51 128 242
3 51 128 272
3 51 128 291
3 51 215 267
3 51 215 291
3 51 242 272
3 51 242 291
3 51 267 291
3 52 74 138
3 52 74 197
3 52 90 111
3 52 90 220
3 52 111 138
3 52 197 220
3 54 67 102
3 54 67 135
3 54 67 173
3 54 80 219
3 54 102 135
3 54 102 173
3 54 135 173
3 54 135 203
3 54 135 281
3 54 173 203
3 54 219 281
3 55 277 285
3 55 277 287
3 56 71 137
3 56 71 244
3 56 71 258
3 56 99 106
3 56 99 137
3 56 99 139
3 56 99 188
3 56 106 137
3 56 106 139
3 56 106 146
3 56 107 137
3 56 107 146
3 56 107 246
3 56 107 261
3 56 137 139
3 56 137 146
3 56 137 244
3 56 137 261
3 56 139 146
3 56 139 246
3 56 146 246
3 56 172 246
3 56 172 258
3 56 188 244
3 56 188 258
3 56 244 258
3 56 246 258
3 57 103 126
3 57 103 147
3 57 103 171
3 57 103 189
3 57 103 261
3 57 103 263
3 57 104 189
3 57 104 263
3 57 126 171
3 57 126 189
3 57 137 189
3 57 137 229
3 57 137 261
3 57 147 189
3 57 147 261
3 57 171 189
3 57 171 263
3 57 189 229
3 57 189 261
3 57 189 263
3 57 229 263
3 58 98 192
3 58 192 259
3 59 133 187
3 59 133 205
3 59 170 205
3 59 187 205
3 60 79 96
3 60 79 113
3 60 79 200
3 60 96 113
3 60 96 195
3 60 96 200
3 60 96 278
3 60 96 284
3 60 113 195
3 60 113 278
3 60 113 284
3 60 195 200
3 60 195 278
3 60 200 278
3 60 278 284
3 61 79 96
3 61 118 181
3 61 118 217
3 61 118 237
3 61 148 217
3 61 181 217
3 61 181 237
3 61 217 237
3 62 94 185
3 62 94 256
3 62 243 256
3 62 243 294
3 64 83 212
3 64 83 240
3 64 212 240
3 65 77 222
3 66 186 241
3 66 223 277
3 67 102 135
3 67 102 173
3 67 135 173
3 68 90 111
3 68 90 236
3 68 111 236
3 68 111 254
3 68 111 293
3 68 254 293
3 69 193 257
3 69 193 299
3 70 190 269
3 70 221 269
3 71 137 244
3 71 244 258
3 72 160 220
3 72 179 197
3 72 197 220
3 73 78 164
3 73 78 168
3 73 78 207
3 73 78 217
3 73 78 237
3 73 78 253
3 73 142 164
3 73 142 234
3 73 142 276
3 73 164 207
3 73 164 217
3 73 164 234
3 73 164 237
3 73 164 246
3 73 164 276
3 73 168 207
3 73 168 217
3 73 168 237
3 73 207 217
3 73 207 237
3 73 207 246
3 73 217 237
3 73 217 246
3 73 234 276
3 73 237 246
3 74 99 138
3 74 99 280
3 74 138 280
3 74 187 197
3 74 187 205
3 74 205 280
3 75 81 136
3 75 97 112
3 75 97 167
3 75 112 162
3 75 112 194
3 75 112 202
3 75 112 252
3 75 112 268
3 75 112 299
3 75 136 194
3 75 141 155
3 75 141 252
3 75 141 268
3 75 141 289
3 75 155 196
3 75 155 252
3 75 155 268
3 75 155 289
3 75 162 194
3 75 162 202
3 75 194 202
3 75 252 268
3 75 252 299
3 75 268 289
3 75 268 299
3 76 108 176
3 76 108 212
3 76 108 240
3 76 176 212
3 76 176 240
3 76 212 240
3 76 212 247
3 76 240 247
3 77 115 132
3 77 115 149
3 77 115 161
3 77 115 222
3 77 115 282
3 77 132 149
3 77 132 161
3 77 132 222
3 77 149 182
3 77 149 222
3 77 161 222
3 77 161 282
3 77 182 222
3 77 222 282
3 78 159 180
3 78 159 213
3 78 164 207
3 78 164 217
3 78 164 237
3 78 168 207
3 78 168 217
3 78 168 237
3 78 180 213
3 78 207 217
3 78 207 237
3 78 217 237
3 78 253 295
3 79 96 113
3 79 96 200
3 80 169 219
3 82 185 262
3 83 176 212
3 83 176 240
3 83 212 240
3 84 134 155
3 84 134 175
3 84 155 196
3 84 175 196
3 84 175 209
3 84 175 251
3 84 209 251
3 85 122 298
3 85 274 298
3 86 154 177
3 86 154 211
3 86 154 245
3 86 177 211
3 86 211 245
3 87 88 156
3 87 109 156
3 87 109 264
3 87 156 264
3 88 105 143
3 88 105 156
3 88 143 156
3 88 156 271
3 89 114 231
3 89 142 164
3 89 142 231
3 89 142 234
3 89 164 231
3 89 164 234
3 89 164 246
3 89 172 246
3 89 231 234
3 90 98 192
3 90 98 220
3 90 111 236
3 90 192 236
3 92 157 174
3 92 157 294
3 93 96 178
3 93 96 204
3 93 96 229
3 93 118 178
3 93 118 204
3 93 146 178
3 93 146 254
3 93 146 293
3 93 178 204
3 93 229 254
3 93 254 293
3 94 103 126
3 94 103 221
3 94 126 256
3 94 185 269
3 94 221 269
3 95 175 209
3 95 175 251
3 95 209 224
3 95 209 251
3 96 113 195
3 96 113 229
3 96 113 278
3 96 113 284
3 96 178 204
3 96 178 278
3 96 195 200
3 96 195 278
3 96 200 278
3 96 229 284
3 96 278 284
3 98 160 220
3 98 160 288
3 98 220 288
3 99 106 137
3 99 106 138
3 99 106 139
3 99 137 138
3 99 137 139
3 99 137 280
3 99 138 139
3 99 138 280
3 99 188 280
3 100 140 159
3 100 140 180
3 100 140 183
3 100 140 265
3 100 159 180
3 100 159 183
3 100 159 213
3 100 159 265
3 100 180 183
3 100 180 213
3 100 183 265
3 101 112 123
3 101 112 250
3 101 123 250
3 102 135 173
3 103 126 171
3 103 126 189
3 103 147 189
3 103 147 221
3 103 147 261
3 103 171 189
3 103 171 263
3 103 189 261
3 103 189 263
3 104 110 263
3 104 189 263
3 105 143 156
3 106 111 138
3 106 111 254
3 106 137 138
3 106 137 139
3 106 137 146
3 106 138 139
3 106 138 254
3 106 139 146
3 106 139 254
3 106 146 254
3 107 137 146
3 107 137 189
3 107 137 261
3 107 140 238
3 107 140 265
3 107 146 171
3 107 146 178
3 107 146 189
3 107 146 246
3 107 171 178
3 107 171 189
3 107 171 246
3 107 178 189
3 107 178 246
3 107 189 261
3 107 238 265
3 108 131 176
3 108 176 212
3 108 176 240
3 108 212 240
3 109 156 264
3 109 156 271
3 111 138 254
3 111 254 293
3 112 123 232
3 112 123 250
3 112 162 194
3 112 162 202
3 112 194 202
3 112 232 250
3 112 252 268
3 112 252 299
3 112 268 299
3 113 195 278
3 113 229 284
3 113 273 284
3 113 278 284
3 115 132 149
3 115 132 161
3 115 132 222
3 115 149 222
3 115 161 222
3 115 161 282
3 115 222 282
3 116 122 165
3 116 165 225
3 117 119 163
3 117 119 249
3 117 119 256
3 117 163 256
3 117 214 243
3 117 243 256
3 118 168 181
3 118 168 217
3 118 168 237
3 118 178 181
3 118 178 204
3 118 178 217
3 118 178 246
3 118 181 217
3 118 181 237
3 118 181 246
3 118 217 237
3 118 217 246
3 118 237 246
3 119 163 171
3 119 163 256
3 119 163 278
3 119 171 256
3 119 171 278
3 119 195 200
3 119 195 249
3 119 195 278
3 119 200 249
3 119 200 278
3 119 249 278
3 121 166 199
3 121 166 226
3 121 166 266
3 121 166 295
3 121 199 295
3 121 226 266
3 121 266 290
3 123 232 239
3 123 232 250
3 124 192 236
3 126 163 171
3 126 163 256
3 126 171 189
3 126 171 256
3 127 142 231
3 127 142 234
3 127 142 276
3 127 191 234
3 127 191 276
3 127 231 234
3 127 234 276
3 128 166 199
3 128 166 228
3 128 166 242
3 128 166 291
3 128 199 228
3 128 199 242
3 128 199 291
3 128 203 242
3 128 203 272
3 128 242 272
3 128 242 291
3 129 141 252
3 129 141 268
3 129 141 283
3 129 252 268
3 129 252 283
3 129 252 299
3 129 263 283
3 129 263 296
3 129 268 299
3 130 276 286
3 131 145 176
3 132 149 222
3 132 161 222
3 133 187 205
3 133 187 206
3 134 141 155
3 134 141 283
3 134 141 289
3 134 155 289
3 134 274 289
3 134 274 298
3 134 289 298
3 135 173 203
3 137 138 139
3 137 138 280
3 137 139 146
3 137 139 229
3 137 146 189
3 137 189 229
3 137 189 261
3 137 244 280
3 138 139 254
3 139 146 246
3 139 146 254
3 139 229 254
3 140 159 180
3 140 159 183
3 140 159 238
3 140 159 265
3 140 180 183
3 140 180 238
3 140 183 238
3 140 183 265
3 140 238 265
3 141 155 252
3 141 155 268
3 141 155 289
3 141 252 268
3 141 252 283
3 141 268 289
3 142 164 231
3 142 164 234
3 142 164 276
3 142 231 234
3 142 234 276
3 143 156 158
3 144 210 274
3 144 274 298
3 145 151 176
3 145 151 212
3 145 151 240
3 145 176 212
3 145 176 240
3 145 212 240
3 146 171 178
3 146 171 189
3 146 171 246
3 146 171 278
3 146 178 181
3 146 178 189
3 146 178 246
3 146 178 278
3 146 181 246
3 146 254 293
3 147 189 261
3 148 168 217
3 149 182 222
3 150 169 226
3 150 216 266
3 150 226 266
3 151 176 212
3 151 176 240
3 151 212 240
3 151 212 247
3 151 240 247
3 152 206 248
3 154 177 211
3 154 211 245
3 154 211 275
3 154 245 275
3 155 184 233
3 155 184 270
3 155 184 289
3 155 184 292
3 155 196 270
3 155 233 270
3 155 252 268
3 155 268 289
3 155 270 289
3 155 289 292
3 156 158 264
3 157 214 243
3 157 243 294
3 159 180 183
3 159 180 213
3 159 180 238
3 159 180 279
3 159 183 238
3 159 183 265
3 159 213 279
3 159 238 265
3 160 220 288
3 161 222 282
3 162 177 202
3 162 194 202
3 163 171 256
3 163 171 278
3 164 207 217
3 164 207 237
3 164 207 246
3 164 217 237
3 164 217 246
3 164 227 246
3 164 231 234
3 164 234 276
3 164 237 246
3 166 199 228
3 166 199 242
3 166 199 291
3 166 199 295
3 166 226 228
3 166 226 266
3 166 228 266
3 166 242 291
3 168 181 217
3 168 181 237
3 168 207 217
3 168 207 237
3 168 217 237
3 170 205 280
3 170 244 280
3 171 178 189
3 171 178 246
3 171 178 278
3 171 189 263
3 171 263 296
3 171 278 296
3 172 227 246
3 172 246 258
3 173 203 272
3 175 209 251
3 176 212 240
3 177 202 211
3 178 181 217
3 178 181 246
3 178 217 246
3 180 183 238
3 180 213 279
3 181 217 237
3 181 217 246
3 181 237 246
3 183 238 265
3 184 210 274
3 184 210 297
3 184 218 233
3 184 218 297
3 184 233 270
3 184 270 274
3 184 270 289
3 184 274 289
3 184 274 292
3 184 289 292
3 184 292 297
3 185 262 269
3 186 201 241
3 187 197 206
3 188 244 258
3 188 244 280
3 188 258 280
3 189 229 263
3 190 262 269
3 191 234 276
3 191 276 286
3 195 200 249
3 195 200 278
3 195 249 278
3 199 242 291
3 199 253 295
3 200 249 278
3 203 242 272
3 207 217 237
3 207 217 246
3 207 237 246
3 208 232 239
3 208 232 250
3 211 245 275
3 212 240 247
3 215 267 291
3 216 266 290
3 217 237 246
3 219 228 281
3 223 277 285
3 226 228 266
3 229 263 296
3 229 284 296
3 244 258 280
3 252 268 299
3 270 274 289
3 273 284 296
3 274 289 292
3 274 289 298
3 274 292 298
3 278 284 296
3 289 292 298
