ply
format ascii 1.0
element vertex 300
property float x
property float y
property float z
property float radius
element edge 1057
property int vertex1
property int vertex2
element face 1253
property list uchar int vertex_indices
end_header
0.193115341 0.224712905 0.131424011 0.0310157301
-0.0594650278 -0.24729097 0.0476819055 0.105915303
0.149756569 0.383456698 0.196227107 0.0332072502
-0.343168062 -0.40719901 -0.205445821 0.0147149252
0.11529932 -0.162625798 -0.0321532805 0.0903695316
0.115127692 -0.419408866 -0.0549165839 0.0391938518
0.0577046263 -0.077286785 0.275256798 0.0170451724
-0.14434889 -0.262347956 0.0542294975 0.0743943374
0.221033548 -0.00872291246 -0.129300968 0.0147137808
0.299055657 -0.287562472 -0.246509422 0.0361159184
0.246218568 0.13833897 0.121683178 0.0282170817
-0.0726770114 -0.176145393 -0.0635167782 0.0946267682
0.179071688 0.430095359 0.166905572 0.0277262954
0.230616314 -0.0227859798 0.080068065 0.0288692519
0.222994669 0.110809707 0.0487305219 0.0462536691
-0.0329998747 0.0728620452 -0.0641254412 0.0153659088
-0.111848437 -0.176345474 0.0297592395 0.145114583
0.164511831 0.299196963 0.162852607 0.0286033724
0.222752524 0.155132222 0.0298669224 0.0260144729
0.044592435 -0.0138002845 0.089389329 0.0419592094
0.123506504 -0.183290452 -0.099035296 0.0622235806
-0.158402089 -0.18131345 -0.0272173299 0.10205975
0.109866808 -0.12807671 0.265226693 0.0143306924
0.00227049955 -0.161917765 0.0169571186 0.113834996
0.154206772 -0.18144948 -0.0958097351 0.0531842983
-0.0484524219 -0.202025716 -0.0518979027 0.105295646
0.106594318 -0.290515286 0.0188779697 0.026605247
0.0780968489 0.0466202885 -0.0800506209 0.0202410375
0.162513226 0.124416815 0.11222278 0.0434239379
-0.158408946 -0.221573973 0.0629702711 0.0864838307
0.19231308 -0.0666692501 0.162399967 0.0191780729
0.1485719 0.354995513 0.191686672 0.0338753663
-0.109461444 -0.19693794 -0.0495007371 0.106857438
0.140700186 0.0985867713 0.107718225 0.0356640123
0.0878282003 -0.0279081344 0.218992686 0.0168171975
0.0112733866 0.0462986241 -0.101826121 0.0141741099
0.206826086 0.256288172 0.0304099834 0.0162418208
0.159674831 0.406506125 0.189320085 0.030904973
-0.133728157 -0.451379536 -0.0575509934 0.0323038471
0.246086097 -0.231031044 -0.177711827 0.0344369119
0.165354264 0.124903506 0.0982626207 0.0536421129
0.228045362 -0.15012524 0.180001869 0.0116071231
0.148844986 0.00350200413 -0.140006389 0.0148692931
0.159302064 0.0672783547 0.0431961674 0.0470304968
-0.210400212 -0.189369652 0.000764552874 0.0668579042
-0.108589108 -0.210295119 -0.0902312896 0.0719635736
-0.0871528554 -0.183190937 -0.0303605201 0.12619634
0.0882828479 -0.178092063 -0.0595115525 0.083212407
0.167847346 0.333276882 0.211233467 0.0135516168
0.104158026 0.0875258484 0.0445314961 0.0177257932
0.156259915 0.0732867044 0.0830778783 0.062217783
0.192650505 -0.0200213462 0.0793848695 0.0478759488
0.189081791 -0.0660150989 0.0175599417 0.0390680398
0.157927305 0.321450096 0.182286953 0.0289589297
0.261093835 -0.0481201005 0.0906934149 0.0194050603
0.224621963 0.0277640446 -0.0480689365 0.0118516688
0.141795895 -0.139791507 0.246913258 0.014376546
-0.260807132 -0.322724555 -0.159575394 0.0382975761
-0.113282546 -0.109941762 -0.0660868551 0.0701343982
0.136532397 0.0138015721 0.147007993 0.0193131921
0.199118051 -0.0268935308 0.119334288 0.0295590183
0.17334842 0.314704592 0.193676655 0.0194831264
-0.0254577351 0.0803726598 -0.0396692118 0.0161099037
-0.304675624 -0.383095153 -0.18505915 0.0375905642
-0.235757941 -0.29873003 -0.14371839 0.0470082831
0.22783318 0.207860995 0.0108861298 0.0188501533
0.0740825212 0.0252568879 -0.125909427 0.0138029261
0.277306558 -0.255653703 -0.21176651 0.0353820346
-0.0340736238 -0.0955226315 0.0737655163 0.0611056329
0.184858943 -0.0178325926 0.0505565409 0.0530448638
0.135586323 0.364467268 0.186037198 0.0239135
0.0737341889 -0.171523938 -0.0124448486 0.112901614
0.279615575 -0.1388038 0.126895501 0.00875205605
0.201087218 0.0502158633 0.0203394658 0.0359774511
0.133519429 0.0459076707 -0.0641774148 0.0201554842
0.189944328 -0.218512677 -0.161019103 0.041026029
0.16907594 0.46947393 0.0800436426 0.0105059157
-0.119312948 -0.16025776 0.0460301581 0.129440491
0.152731736 0.11464664 0.105127199 0.0436750226
-0.150451116 -0.0880466204 0.0848730129 0.065394056
0.235642352 0.078553142 0.0856338766 0.0466296576
0.114004743 0.026936554 0.157109762 0.0146694943
-0.309345191 -0.383119353 -0.182069103 0.0352196962
0.200281975 0.307849538 0.219559638 0.0112327767
0.307625126 -0.27348238 -0.243816404 0.0315019718
-0.135667276 -0.473547349 -0.0421649185 0.0206267286
0.106442548 -0.178790998 -0.0862625922 0.0669583735
0.148327188 -0.449272256 -0.0428339739 0.0153004553
0.152262126 0.060908454 -0.0202563971 0.0171115511
0.158598026 0.0487704513 0.0760878221 0.0662780803
-0.0986466714 -0.193805875 0.144248999 0.0578873143
-0.337069246 -0.40783047 -0.190161426 0.0212210317
0.3028121 -0.287363431 -0.281255778 0.0182155866
0.252950645 0.245491105 0.201993158 0.0169799979
0.0399098901 0.0521586876 -0.0802518691 0.0184633464
0.220300973 0.137931357 0.108467873 0.0436205511
0.22576091 0.017313657 -0.070293771 0.0132840268
0.216084141 0.236813987 0.0154608638 0.0185568118
0.155901841 -0.117171803 -0.000556608789 0.0621966043
0.258783346 0.115099069 0.0662278752 0.0252402386
0.136778189 0.351492045 0.173470216 0.0203224651
0.0943964821 0.0114743346 0.0839651991 0.038082015
-0.139580461 -0.0895063533 -0.0433709528 0.0650476995
-0.327043321 -0.394330321 -0.226998512 0.013819702
-0.210290661 -0.192334495 0.0252655757 0.0655167338
0.122687126 0.0286365965 -0.102658524 0.0197641934
0.255324807 -0.146426205 0.155274304 0.0112134642
0.202143332 0.0519846768 -0.00337941337 0.0205496101
0.125437992 -0.173652403 -0.0739816595 0.072327879
0.134710363 0.0448255199 0.10874403 0.0417462824
-0.329086718 -0.41702271 -0.181894245 0.0169298818
0.286687386 -0.0828932654 0.0930742192 0.0168640639
0.167525769 0.114091727 0.0954406359 0.0571937458
0.094572511 -0.452096976 -0.0465232709 0.0167486457
0.153730336 0.331963989 0.153440245 0.018519322
0.188037726 -0.00550373965 -0.140460643 0.0143796221
-0.170004134 -0.200575398 -0.0534933252 0.084410709
0.150256536 -0.0625179678 0.192400372 0.019127521
0.231260109 0.181256616 0.0138767543 0.0171986939
0.200973121 0.0987139798 0.0724334098 0.0746894867
-0.0746913507 -0.223663556 0.0266450032 0.135102438
0.139046008 0.052299062 0.0951139799 0.051538467
0.0990385343 -0.177476592 -0.0785346147 0.0710088773
0.23588165 -0.237189074 -0.184382477 0.0387844511
0.192661198 0.447026412 0.136899673 0.0243960759
0.167939086 0.106922495 0.0915518675 0.0584270714
0.252766796 0.119052304 0.0511388021 0.0256917031
-0.310316173 -0.387583855 -0.203146345 0.0296089718
0.0756074844 0.0856992296 0.0144607918 0.0144779507
0.194946284 0.298367213 0.195140671 0.0123397433
0.104070883 7.6416899e-05 0.186213915 0.0162615604
0.289700606 0.143993375 0.1451575 0.0198013754
0.0523842655 -0.18493386 -0.0502381091 0.0858995664
-0.0138150675 0.056940368 -0.0871498364 0.01278976
-0.0725461588 -0.235831394 0.122793504 0.0648458512
0.157036112 -0.0370617909 0.0503351438 0.0637057737
0.180553791 0.484904463 0.0864661924 0.0104865155
0.157245138 0.0669003198 0.00824240537 0.0242430201
0.0285929364 -0.0864308063 0.0579730553 0.0848744862
0.158771417 -0.174008804 -0.0760649187 0.0480407137
0.183621749 0.00178145946 0.0642523998 0.0626546749
0.116804937 -0.040037291 0.201604163 0.0171394989
0.218471778 0.192677364 0.0507131423 0.0162009841
0.0189845165 -0.190329216 0.0063779704 0.108040034
0.0451488321 0.0322364546 -0.117653441 0.0126724878
0.174701544 0.0183753599 -0.101727352 0.0189727644
0.232447924 -0.0651000691 0.127380022 0.0213310134
0.146279495 0.0694760291 0.00477907188 0.0217764011
0.100408428 0.0660873216 -0.0272194685 0.0177236995
0.110745163 -0.0241372115 0.0631676531 0.062046294
0.187460997 0.0267745661 0.0607369949 0.0610389165
0.182087832 0.296229617 0.0667149536 0.012411133
-0.293036565 -0.362601943 -0.173570604 0.0348709139
0.17309701 -0.142990798 0.225046174 0.0129664529
0.286955936 0.128619898 0.0500710035 0.0101678592
0.200002356 0.275394305 0.175785501 0.0152355703
-0.198936097 -0.260464765 -0.107249901 0.0500126692
-0.138650723 -0.229289564 -0.109008188 0.0581406389
0.14181648 -0.00803518855 0.160277728 0.0183152019
0.150185556 -0.201820026 -0.146016978 0.0398521444
-0.3080124 -0.414527747 -0.180173243 0.0173573062
0.158846982 0.0143345224 0.087606262 0.0601550526
-0.034374094 -0.148059304 0.0347336822 0.105630648
-0.119776576 -0.44600364 -0.0647653346 0.0319460666
0.16916463 0.00378008388 0.0935860349 0.0536971324
0.167113789 0.300871576 0.173495739 0.0280437721
0.0917127525 -0.158167832 -0.0125653805 0.107540849
0.278349539 -0.299324058 -0.260811385 0.0196167928
0.142601312 0.0732780921 0.0947420112 0.0491322966
0.00500074415 -0.184115926 0.000553416359 0.119448532
0.192278961 0.0472939016 0.0603487849 0.0620919231
0.223892052 0.211638364 0.0342459419 0.0143405767
-0.100524238 -0.471537258 -0.0373701366 0.0210974332
0.19852842 -0.205042699 -0.137231319 0.0390842963
-0.281958756 -0.249881347 -0.0158263982 0.0203646861
0.315933913 -0.317006391 -0.236715277 0.0142719967
0.15048334 -0.434097961 -0.0668356855 0.0167064362
0.151001673 0.33721764 0.182948243 0.0314734618
0.331786401 -0.291415931 -0.267555117 0.01891515
0.117706532 -0.211173127 -0.0121672785 0.0729298562
0.198607237 0.0534826378 -0.00664990394 0.0187705371
-0.324270694 -0.280820769 -0.118724576 0.0167609393
0.163914156 0.119934317 0.101846128 0.0531372413
0.00491767755 -0.19768124 -0.0657442095 0.0775346814
0.282559081 0.194261014 0.179314716 0.0190277511
-0.0999919115 -0.299217665 0.0165848396 0.0833246831
0.189266355 0.455933218 0.0974651226 0.0216873921
0.143708561 0.340452108 0.125118382 0.0100538532
0.123728858 -0.101299829 0.0181699932 0.0834428851
0.123530121 0.0755942778 0.0186399418 0.020734525
0.0148293496 -0.211958225 -0.0679160543 0.0653038667
-0.285247007 -0.399792619 -0.189490785 0.0238901976
0.288606019 0.164458048 0.159917703 0.0216717288
0.152300251 -0.103657836 0.21775489 0.0181185775
0.294997432 -0.291062941 -0.244650158 0.0344389778
0.0948217266 -0.177343901 -0.0990100969 0.0550063065
0.110000035 0.0209819775 0.0845723611 0.0410754283
0.131949218 -0.274476045 -0.0144654551 0.0443910899
-0.272272968 -0.287435854 -0.14440158 0.0300941815
0.229415962 -0.108698493 0.158007343 0.0176071736
0.0722559348 -0.053554952 0.24821945 0.0179180844
0.1841193 0.000635289031 0.0665820194 0.0631207025
-0.297368805 -0.388962216 -0.235442624 0.0117403259
0.294374258 -0.114543149 0.101504986 0.0129887366
0.108880778 0.0136646078 -0.136525499 0.0136540294
0.162996831 0.318505223 0.0889270832 0.0114008496
0.187070053 0.0636253617 0.0611893398 0.0706867525
0.0466415322 -0.158589416 0.0086170114 0.114005096
0.181761256 0.0357232544 -0.0616688485 0.0174545024
0.0834763454 -0.178865817 -0.0679982459 0.0757471478
0.182205525 0.256293766 0.146734022 0.0298535014
0.128813241 0.0787768271 0.0640127798 0.0352264219
0.222038339 -0.0334939732 0.103155587 0.0303399753
0.225550261 0.172215321 0.0323091958 0.0227186409
0.195696272 0.459009979 0.100833351 0.0232911382
-0.118615951 -0.395266422 -0.0322412561 0.0416795532
-0.0164264217 -0.176384051 0.0110378519 0.120624366
0.203481689 0.066890029 0.0328810722 0.0464978091
-0.319329225 -0.393408806 -0.186081581 0.0340713774
-0.217299202 -0.198492776 0.0204946397 0.0617510375
-0.274899786 -0.390403476 -0.221870646 0.0144024771
0.222756336 0.0821812051 -0.00481303529 0.0126641187
0.225232281 0.00401081339 -0.101448344 0.0148594299
0.0149255428 0.0827411591 -0.0132461667 0.0134484251
0.164179673 0.319182341 0.107644672 0.0115785799
0.0834792622 -0.230651839 -0.0291549113 0.0634708445
0.0887191715 0.0678000185 -0.0272371284 0.0174533938
0.111257064 -0.152272472 -0.0124484189 0.0967811069
0.158900311 0.0693106224 0.0795768815 0.0653367933
0.145720009 0.04682601 0.0877426406 0.0582642016
0.110082949 -0.165631427 -0.0130577327 0.0938161322
0.164196612 0.3130252 0.129994149 0.0104779317
0.262102638 0.119705659 0.120569668 0.0229362624
-0.12022235 -0.436565697 -0.0422427189 0.032626357
-0.249534338 -0.310115929 -0.148209779 0.0448663526
0.211562799 0.0440838984 -0.0222441858 0.013323023
0.0310780442 -0.12924997 0.0315261041 0.107174068
0.119676328 0.0446871914 0.135044257 0.0178131801
0.0699771606 -0.111431995 0.0257188343 0.100818519
0.152417008 0.0682889648 0.039026832 0.0407417264
0.118338901 -0.345769002 -0.0315197022 0.0413593666
0.200856792 0.18176201 0.112942505 0.0397441672
0.258648985 -0.100566779 0.126124389 0.0166809996
-0.0981865196 -0.31710674 -0.0161758824 0.0576744741
-0.127434976 -0.179486195 0.0355858171 0.133174814
-0.246198423 -0.214341872 0.0087454675 0.0411544471
0.223980998 0.0840051892 0.0224962749 0.0346872656
0.193922413 0.278198275 0.0442204965 0.0145054667
0.184479567 0.453104653 0.0903062221 0.0167026913
0.192329311 -0.108265458 0.188847844 0.017889582
0.03948422 -0.188662413 -0.0396365119 0.0937050522
0.0555340075 0.0846799419 0.00466406823 0.0121850449
0.101354528 -0.182210844 -0.134840038 0.0313166475
0.231895825 0.270642396 0.204641473 0.0158782882
-0.180267604 -0.275468508 -0.140310749 0.04036623
0.138487001 0.0312617794 0.119141703 0.03545945
-0.282292909 -0.403102774 -0.189819546 0.0208191645
0.229347245 0.281110944 0.215854991 0.0148462241
0.285334272 -0.310091971 -0.240555258 0.0211168735
0.0102224452 0.0673294161 -0.0547302057 0.0173449073
0.135626355 0.044421621 0.109123115 0.0417670389
-0.242911114 -0.210188018 0.00778819071 0.0439070814
0.221297979 0.456483484 0.0750411782 0.00729489043
0.217993278 0.170432206 0.0476474901 0.0267487411
-0.00355361768 -0.0394761474 0.0966897159 0.0441759304
0.0851758863 -0.11237078 0.277966654 0.0172567826
0.0665559019 -0.0915523355 0.280700249 0.0187590725
0.269714194 0.220266343 0.192191936 0.0184690047
0.21647617 0.0431519445 -0.00973654089 0.01266478
0.172076437 -0.0132032788 0.138467898 0.0240857473
0.198622797 0.180259242 0.105433613 0.0412585053
-0.2251722 -0.298255717 -0.147670824 0.0426604393
0.0519584962 0.0684169134 -0.0381053711 0.0176877205
0.336992692 -0.304656437 -0.250822355 0.0152449081
0.129762359 0.0336434008 0.133385538 0.025523247
0.224487702 0.101161189 0.0871864477 0.0581028393
-0.107895692 -0.337710121 0.00219303911 0.0615991965
0.209546196 0.279602511 0.187958496 0.0100821101
-0.049709486 -0.0977066337 0.0762962685 0.0589340861
0.205584058 0.44472083 0.0726585039 0.00826480175
0.156313676 0.318545944 0.175372 0.0293318287
-0.307218186 -0.280749683 -0.0550041088 0.0130954946
0.0933140525 -0.245862795 0.0286270402 0.0418763819
0.112373388 -0.0846439254 0.236585442 0.0187477506
0.272670776 0.147694097 0.137785405 0.0209195012
-0.252608471 -0.402080845 -0.211191476 0.00774674355
0.108418658 -0.421313237 -0.0682091774 0.0312398523
0.178729232 0.300956831 0.0827321847 0.0118876365
-0.133326627 -0.114045003 0.0141160967 0.0935211189
0.115251978 -0.454440831 -0.0339801565 0.0173783904
-0.316027853 -0.291196933 -0.0841394147 0.0155433338
0.203832378 -0.15151566 0.20384895 0.011783166
0.0987039222 -0.281719783 -0.0370807008 0.031731021
0.0467844971 -0.185730559 -0.0329420283 0.0989680329
0.205840734 0.155464897 0.0741680116 0.0460924914
0.10909403 -0.357691307 -0.0472287335 0.0328911664
-0.289646026 -0.289350329 -0.125399885 0.0227089635
0.210550747 0.0440467233 0.00147727642 0.0189018559
0.0490042777 -0.2404138 0.0449110804 0.0417844672
0.195973059 -0.0328155448 0.13180233 0.0247271618
0 155
0 210
0 241
0 270
0 277
0 294
1 120
1 134
1 143
1 169
1 185
2 12
2 31
2 37
2 70
2 100
3 91
3 103
3 127
3 218
4 24
4 98
4 108
4 139
4 166
4 227
4 230
5 87
5 113
5 176
5 240
5 286
5 289
5 295
6 200
6 266
7 16
7 29
7 120
7 185
7 244
7 276
8 115
8 145
8 222
9 67
9 84
9 92
9 167
9 175
9 178
9 194
9 258
9 273
10 95
10 131
10 232
10 241
10 270
10 275
10 284
11 25
11 45
11 46
11 58
11 183
11 216
12 37
12 124
13 54
13 69
13 140
13 150
13 201
13 212
14 18
14 119
14 126
14 154
14 246
15 62
15 133
15 259
16 21
16 23
16 29
16 32
16 44
16 46
16 58
16 68
16 77
16 79
16 90
16 102
16 104
16 116
16 120
16 134
16 138
16 162
16 185
16 216
16 236
16 244
16 245
16 278
16 288
17 53
17 114
17 129
17 155
17 165
17 210
17 224
17 231
17 277
17 280
18 118
18 119
18 126
18 213
18 263
18 294
19 101
19 138
19 149
19 196
19 264
20 24
20 47
20 75
20 86
20 108
20 122
20 159
20 173
20 179
20 195
20 209
20 252
21 32
21 44
21 46
21 58
21 102
21 116
21 120
21 156
21 244
21 245
21 261
21 288
22 56
22 265
22 283
23 25
23 46
23 120
23 138
23 162
23 169
23 183
23 207
23 216
23 236
23 293
24 75
24 108
24 139
24 159
24 173
24 230
25 32
25 45
25 46
25 120
25 183
25 190
25 216
25 243
25 250
25 293
26 179
26 197
26 225
26 240
26 282
26 292
26 293
27 66
27 74
27 94
27 105
27 144
27 148
27 226
27 272
28 33
28 40
28 78
28 95
28 112
28 119
28 125
28 182
28 241
28 270
29 90
29 104
29 120
29 219
29 244
30 60
30 117
30 146
30 158
30 199
30 249
30 269
30 299
31 37
31 48
31 53
31 61
31 70
31 100
31 114
31 177
32 45
32 46
32 58
32 116
32 120
32 156
32 157
32 185
32 243
33 50
33 78
33 112
33 125
33 168
34 130
34 141
34 200
34 283
35 94
35 133
35 144
35 259
36 97
36 171
36 247
38 85
38 163
38 172
38 215
38 233
39 67
39 75
39 123
39 173
40 78
40 95
40 112
40 119
40 125
40 182
40 228
40 241
40 270
40 294
41 106
41 199
41 249
41 291
42 105
42 115
42 145
42 204
43 49
43 50
43 88
43 89
43 147
43 189
43 228
43 239
44 104
44 116
44 156
44 174
44 219
44 244
44 245
44 261
45 46
45 157
46 58
46 120
46 162
46 216
46 236
46 243
47 71
47 86
47 122
47 132
47 166
47 195
47 209
47 225
47 250
47 293
48 53
48 61
48 83
48 177
49 50
49 89
49 128
49 189
49 211
49 228
49 229
49 239
49 251
50 121
50 125
50 168
50 182
50 196
50 211
50 228
50 229
50 239
51 60
51 69
51 135
51 164
51 212
51 299
52 69
52 98
52 135
52 188
52 201
53 61
53 165
53 177
53 280
54 111
54 146
54 212
54 242
55 96
55 208
55 235
55 268
56 153
56 193
56 283
57 63
57 64
57 152
57 198
57 234
57 271
57 296
58 102
58 288
59 81
59 130
59 158
59 161
59 164
59 255
59 269
59 274
60 146
60 164
60 212
60 269
60 299
61 83
61 129
61 165
61 177
62 223
62 259
63 82
63 127
63 152
63 191
63 202
63 218
63 220
63 285
64 156
64 198
64 234
64 254
64 271
64 296
65 97
65 118
65 142
65 171
65 213
65 263
66 105
66 144
66 204
67 84
67 123
67 194
67 258
68 77
68 138
68 162
68 264
68 278
69 135
69 140
69 150
69 201
69 212
70 100
71 122
71 132
71 166
71 179
71 207
71 230
71 238
71 250
71 282
71 293
72 106
72 203
72 242
73 107
73 140
73 150
73 170
73 180
73 217
73 221
73 235
73 246
73 268
73 297
74 88
74 105
74 145
74 148
74 208
75 123
75 159
75 173
76 136
76 186
76 214
76 248
77 79
77 90
77 138
77 162
77 236
77 244
77 278
77 288
78 112
78 125
78 168
78 182
79 288
80 99
80 119
80 140
80 150
80 170
80 201
80 206
80 232
80 275
81 130
81 158
81 161
81 237
81 255
81 274
82 127
82 152
82 160
82 191
82 218
83 129
83 257
84 92
84 175
84 178
84 273
85 172
85 233
86 108
86 122
86 195
86 209
86 252
87 176
87 289
88 107
88 137
88 147
88 148
88 180
88 189
88 208
88 217
88 235
88 239
89 135
89 149
89 150
89 161
89 168
89 189
89 196
89 206
89 211
89 228
89 229
89 239
89 255
89 260
90 120
90 134
90 244
91 110
91 218
92 167
92 178
93 253
93 257
93 267
94 133
94 144
94 259
94 272
95 112
95 119
95 182
95 241
95 270
95 275
95 284
95 294
96 145
96 208
96 222
97 171
98 188
98 227
99 119
99 126
99 154
99 275
100 114
100 177
100 187
100 280
101 149
101 196
101 229
101 255
101 274
102 288
103 127
103 202
103 218
104 219
104 244
104 245
104 261
105 145
105 204
106 199
106 242
107 137
107 150
107 180
107 206
107 208
107 217
107 221
107 235
107 297
108 122
108 139
108 166
108 173
108 179
108 195
108 230
109 121
109 168
109 237
109 260
110 160
110 218
111 146
111 203
111 242
112 119
112 125
112 168
112 182
112 294
113 286
113 289
114 165
114 177
114 187
114 224
114 231
114 280
115 145
115 222
116 120
116 156
116 157
116 174
116 244
116 245
116 261
117 141
117 158
117 193
117 249
117 269
117 283
117 299
118 171
118 213
119 125
119 126
119 182
119 206
119 213
119 217
119 228
119 239
119 246
119 263
119 275
119 294
120 134
120 143
120 157
120 169
120 185
120 216
120 243
120 250
120 276
120 293
121 168
121 196
121 229
121 237
121 260
122 166
122 179
122 195
122 225
122 230
122 250
123 173
124 186
124 214
125 168
125 182
125 228
126 154
126 246
126 294
127 191
127 202
127 218
127 220
128 148
128 189
128 226
128 251
129 155
129 165
129 253
129 257
129 277
130 141
130 158
131 192
131 232
131 284
132 183
132 190
132 195
132 209
132 250
132 252
132 293
133 259
135 140
135 149
135 150
135 161
135 164
135 188
135 201
135 212
135 238
136 186
136 214
137 147
137 150
137 180
137 206
137 217
137 239
138 149
138 162
138 216
138 236
138 238
138 264
138 278
139 173
139 227
139 230
140 150
140 164
140 170
140 201
140 206
140 217
140 239
141 158
141 200
141 283
142 171
142 213
142 263
142 270
142 294
143 169
143 225
143 282
143 293
143 298
145 208
145 222
146 199
146 212
146 242
146 299
147 148
147 189
147 206
147 217
147 239
148 189
148 226
149 150
149 161
149 164
149 188
149 196
149 236
149 238
149 255
150 170
150 201
150 206
150 217
150 239
150 297
151 205
151 247
151 287
152 191
152 234
153 193
153 249
153 291
155 165
155 210
155 253
155 277
156 157
156 198
156 254
156 271
157 243
157 254
158 161
158 164
158 255
158 269
159 173
159 252
160 191
160 218
160 256
161 164
161 196
161 206
161 228
161 229
161 255
161 269
162 216
162 236
163 172
163 215
163 233
164 201
164 206
164 212
164 228
164 269
164 299
165 177
165 210
165 280
166 188
166 207
166 227
166 230
166 238
167 194
167 258
168 211
168 228
168 255
168 260
169 207
169 216
169 282
169 298
170 201
170 206
170 217
171 213
171 263
171 294
172 233
174 245
174 261
174 281
175 194
175 258
175 273
176 286
177 280
178 273
179 197
179 225
179 230
179 282
179 292
180 206
180 208
180 217
180 221
180 235
180 246
180 268
180 297
181 198
181 290
181 296
182 241
182 270
182 294
183 190
183 209
183 216
183 250
183 293
184 192
184 267
184 284
185 243
185 276
186 214
186 248
186 262
186 279
187 205
187 224
187 231
188 207
188 227
188 238
189 211
189 226
189 228
189 239
190 250
190 293
191 218
191 220
191 256
191 285
192 284
193 249
193 283
194 258
195 209
195 252
196 211
196 229
196 237
196 255
196 260
196 274
197 225
197 230
197 240
197 282
197 292
198 234
198 296
199 242
199 249
200 266
200 283
201 206
201 212
202 220
203 242
205 224
205 287
206 217
206 221
206 228
206 239
206 246
206 275
207 216
207 236
207 238
207 282
207 293
207 298
208 235
209 250
209 252
210 231
211 228
211 229
212 299
213 263
213 294
214 248
214 262
214 279
215 233
215 243
215 276
216 236
216 293
217 221
217 235
217 239
217 246
217 268
217 297
219 244
219 245
219 261
220 285
221 235
221 246
221 268
223 251
223 259
223 272
224 231
224 287
225 250
225 282
225 292
225 293
226 251
226 272
227 230
228 229
228 239
228 255
228 260
229 237
229 255
229 260
229 274
231 287
232 275
232 284
234 271
234 296
235 268
235 297
236 238
237 260
237 274
240 292
240 295
241 270
241 284
243 276
244 245
245 261
247 287
248 279
249 291
250 293
251 272
253 257
253 267
253 277
254 271
255 260
255 274
256 285
257 277
259 272
260 274
262 279
263 294
264 278
265 266
265 283
266 283
268 297
269 299
270 294
275 284
281 290
282 292
282 293
282 298
286 295
290 296
292 293
292 295
3 0 155 210
3 0 155 277
3 0 241 270
3 0 270 294
3 1 120 134
3 1 120 143
3 1 120 169
3 1 120 185
3 1 143 169
3 2 12 37
3 2 31 37
3 2 31 70
3 2 31 100
3 2 70 100
3 3 91 218
3 3 103 127
3 3 103 218
3 3 127 218
3 4 24 108
3 4 24 139
3 4 24 230
3 4 98 227
3 4 108 139
3 4 108 166
3 4 108 230
3 4 139 227
3 4 139 230
3 4 166 227
3 4 166 230
3 4 227 230
3 5 87 176
3 5 87 289
3 5 113 286
3 5 113 289
3 5 176 286
3 5 240 295
3 5 286 295
3 6 200 266
3 7 16 29
3 7 16 120
3 7 16 185
3 7 16 244
3 7 29 120
3 7 29 244
3 7 120 185
3 7 120 276
3 7 185 276
3 8 115 145
3 8 115 222
3 8 145 222
3 9 67 84
3 9 67 194
3 9 67 258
3 9 84 92
3 9 84 175
3 9 84 178
3 9 84 273
3 9 92 167
3 9 92 178
3 9 167 194
3 9 167 258
3 9 175 194
3 9 175 258
3 9 175 273
3 9 178 273
3 9 194 258
3 10 95 241
3 10 95 270
3 10 95 275
3 10 95 284
3 10 131 232
3 10 131 284
3 10 232 275
3 10 232 284
3 10 241 270
3 10 241 284
3 10 275 284
3 11 25 45
3 11 25 46
3 11 25 183
3 11 25 216
3 11 45 46
3 11 46 58
3 11 46 216
3 11 183 216
3 13 54 212
3 13 69 140
3 13 69 150
3 13 69 201
3 13 69 212
3 13 140 150
3 13 140 201
3 13 150 201
3 13 201 212
3 14 18 119
3 14 18 126
3 14 119 126
3 14 119 246
3 14 126 154
3 14 126 246
3 15 62 259
3 15 133 259
3 16 21 32
3 16 21 44
3 16 21 46
3 16 21 58
3 16 21 102
3 16 21 116
3 16 21 120
3 16 21 244
3 16 21 245
3 16 21 288
3 16 23 46
3 16 23 120
3 16 23 138
3 16 23 162
3 16 23 216
3 16 23 236
3 16 29 90
3 16 29 104
3 16 29 120
3 16 29 244
3 16 32 46
3 16 32 58
3 16 32 116
3 16 32 120
3 16 32 185
3 16 44 104
3 16 44 116
3 16 44 244
3 16 44 245
3 16 46 58
3 16 46 120
3 16 46 162
3 16 46 216
3 16 46 236
3 16 58 102
3 16 58 288
3 16 68 77
3 16 68 138
3 16 68 162
3 16 68 278
3 16 77 79
3 16 77 90
3 16 77 138
3 16 77 162
3 16 77 236
3 16 77 244
3 16 77 278
3 16 77 288
3 16 79 288
3 16 90 120
3 16 90 134
3 16 90 244
3 16 102 288
3 16 104 244
3 16 104 245
3 16 116 120
3 16 116 244
3 16 116 245
3 16 120 134
3 16 120 185
3 16 120 216
3 16 138 162
3 16 138 216
3 16 138 236
3 16 138 278
3 16 162 216
3 16 162 236
3 16 216 236
3 16 244 245
3 17 53 165
3 17 53 280
3 17 114 165
3 17 114 224
3 17 114 231
3 17 114 280
3 17 129 155
3 17 129 165
3 17 129 277
3 17 155 165
3 17 155 210
3 17 155 277
3 17 165 210
3 17 165 280
3 17 210 231
3 17 224 231
3 18 118 213
3 18 119 126
3 18 119 213
3 18 119 263
3 18 119 294
3 18 126 294
3 18 213 263
3 18 213 294
3 18 263 294
3 19 101 149
3 19 101 196
3 19 138 149
3 19 138 264
3 19 149 196
3 20 24 75
3 20 24 108
3 20 24 159
3 20 24 173
3 20 47 86
3 20 47 122
3 20 47 195
3 20 47 209
3 20 75 159
3 20 75 173
3 20 86 108
3 20 86 122
3 20 86 195
3 20 86 209
3 20 86 252
3 20 108 122
3 20 108 173
3 20 108 179
3 20 108 195
3 20 122 179
3 20 122 195
3 20 159 173
3 20 159 252
3 20 195 209
3 20 195 252
3 20 209 252
3 21 32 46
3 21 32 58
3 21 32 116
3 21 32 120
3 21 32 156
3 21 44 116
3 21 44 156
3 21 44 244
3 21 44 245
3 21 44 261
3 21 46 58
3 21 46 120
3 21 58 102
3 21 58 288
3 21 102 288
3 21 116 120
3 21 116 156
3 21 116 244
3 21 116 245
3 21 116 261
3 21 244 245
3 21 245 261
3 22 56 283
3 22 265 283
3 23 25 46
3 23 25 120
3 23 25 183
3 23 25 216
3 23 25 293
3 23 46 120
3 23 46 162
3 23 46 216
3 23 46 236
3 23 120 169
3 23 120 216
3 23 120 293
3 23 138 162
3 23 138 216
3 23 138 236
3 23 162 216
3 23 162 236
3 23 169 207
3 23 169 216
3 23 183 216
3 23 183 293
3 23 207 216
3 23 207 236
3 23 207 293
3 23 216 236
3 23 216 293
3 24 75 159
3 24 75 173
3 24 108 139
3 24 108 173
3 24 108 230
3 24 139 173
3 24 139 230
3 24 159 173
3 25 32 45
3 25 32 46
3 25 32 120
3 25 32 243
3 25 45 46
3 25 46 120
3 25 46 216
3 25 46 243
3 25 120 216
3 25 120 243
3 25 120 250
3 25 120 293
3 25 183 190
3 25 183 216
3 25 183 250
3 25 183 293
3 25 190 250
3 25 190 293
3 25 216 293
3 25 250 293
3 26 179 197
3 26 179 225
3 26 179 282
3 26 179 292
3 26 197 225
3 26 197 240
3 26 197 282
3 26 197 292
3 26 225 282
3 26 225 292
3 26 225 293
3 26 240 292
3 26 282 292
3 26 282 293
3 26 292 293
3 27 66 105
3 27 66 144
3 27 74 105
3 27 74 148
3 27 94 144
3 27 94 272
3 27 148 226
3 27 226 272
3 28 33 78
3 28 33 112
3 28 33 125
3 28 40 78
3 28 40 95
3 28 40 112
3 28 40 119
3 28 40 125
3 28 40 182
3 28 40 241
3 28 40 270
3 28 78 112
3 28 78 125
3 28 78 182
3 28 95 112
3 28 95 119
3 28 95 182
3 28 95 241
3 28 95 270
3 28 112 119
3 28 112 125
3 28 112 182
3 28 119 125
3 28 119 182
3 28 125 182
3 28 182 241
3 28 182 270
3 28 241 270
3 29 90 120
3 29 90 244
3 29 104 219
3 29 104 244
3 29 219 244
3 30 60 146
3 30 60 269
3 30 60 299
3 30 117 158
3 30 117 249
3 30 117 269
3 30 117 299
3 30 146 199
3 30 146 299
3 30 158 269
3 30 199 249
3 30 269 299
3 31 48 53
3 31 48 61
3 31 48 177
3 31 53 61
3 31 53 177
3 31 61 177
3 31 70 100
3 31 100 114
3 31 100 177
3 31 114 177
3 32 45 46
3 32 45 157
3 32 46 58
3 32 46 120
3 32 46 243
3 32 116 120
3 32 116 156
3 32 116 157
3 32 120 157
3 32 120 185
3 32 120 243
3 32 156 157
3 32 157 243
3 32 185 243
3 33 50 125
3 33 50 168
3 33 78 112
3 33 78 125
3 33 78 168
3 33 112 125
3 33 112 168
3 33 125 168
3 34 130 141
3 34 141 200
3 34 141 283
3 34 200 283
3 35 94 133
3 35 94 144
3 35 94 259
3 35 133 259
3 36 97 171
3 38 85 172
3 38 85 233
3 38 163 172
3 38 163 215
3 38 163 233
3 38 172 233
3 38 215 233
3 39 67 123
3 39 75 123
3 39 75 173
3 39 123 173
3 40 78 112
3 40 78 125
3 40 78 182
3 40 95 112
3 40 95 119
3 40 95 182
3 40 95 241
3 40 95 270
3 40 95 294
3 40 112 119
3 40 112 125
3 40 112 182
3 40 112 294
3 40 119 125
3 40 119 182
3 40 119 228
3 40 119 294
3 40 125 182
3 40 125 228
3 40 182 241
3 40 182 270
3 40 182 294
3 40 241 270
3 40 270 294
3 41 106 199
3 41 199 249
3 41 249 291
3 42 105 145
3 42 105 204
3 42 115 145
3 43 49 50
3 43 49 89
3 43 49 189
3 43 49 228
3 43 49 239
3 43 50 228
3 43 50 239
3 43 88 147
3 43 88 189
3 43 88 239
3 43 89 189
3 43 89 228
3 43 89 239
3 43 147 189
3 43 147 239
3 43 189 228
3 43 189 239
3 43 228 239
3 44 104 219
3 44 104 244
3 44 104 245
3 44 104 261
3 44 116 156
3 44 116 174
3 44 116 244
3 44 116 245
3 44 116 261
3 44 174 245
3 44 174 261
3 44 219 244
3 44 219 245
3 44 219 261
3 44 244 245
3 44 245 261
3 46 120 216
3 46 120 243
3 46 162 216
3 46 162 236
3 46 216 236
3 47 71 122
3 47 71 132
3 47 71 166
3 47 71 250
3 47 71 293
3 47 86 122
3 47 86 195
3 47 86 209
3 47 122 166
3 47 122 195
3 47 122 225
3 47 122 250
3 47 132 195
3 47 132 209
3 47 132 250
3 47 132 293
3 47 195 209
3 47 209 250
3 47 225 250
3 47 225 293
3 47 250 293
3 48 53 61
3 48 53 177
3 48 61 83
3 48 61 177
3 49 50 211
3 49 50 228
3 49 50 229
3 49 50 239
3 49 89 189
3 49 89 211
3 49 89 228
3 49 89 229
3 49 89 239
3 49 128 189
3 49 128 251
3 49 189 211
3 49 189 228
3 49 189 239
3 49 211 228
3 49 211 229
3 49 228 229
3 49 228 239
3 50 121 168
3 50 121 196
3 50 121 229
3 50 125 168
3 50 125 182
3 50 125 228
3 50 168 211
3 50 168 228
3 50 196 211
3 50 196 229
3 50 211 228
3 50 211 229
3 50 228 229
3 50 228 239
3 51 60 164
3 51 60 212
3 51 60 299
3 51 69 135
3 51 69 212
3 51 135 164
3 51 135 212
3 51 164 212
3 51 164 299
3 51 212 299
3 52 69 135
3 52 69 201
3 52 98 188
3 52 135 188
3 52 135 201
3 53 61 165
3 53 61 177
3 53 165 177
3 53 165 280
3 53 177 280
3 54 111 146
3 54 111 242
3 54 146 212
3 54 146 242
3 55 96 208
3 55 208 235
3 55 235 268
3 56 153 193
3 56 193 283
3 57 63 152
3 57 64 198
3 57 64 234
3 57 64 271
3 57 64 296
3 57 152 234
3 57 198 234
3 57 198 296
3 57 234 271
3 57 234 296
3 58 102 288
3 59 81 130
3 59 81 158
3 59 81 161
3 59 81 255
3 59 81 274
3 59 130 158
3 59 158 161
3 59 158 164
3 59 158 255
3 59 158 269
3 59 161 164
3 59 161 255
3 59 161 269
3 59 164 269
3 59 255 274
3 60 146 212
3 60 146 299
3 60 164 212
3 60 164 269
3 60 164 299
3 60 212 299
3 60 269 299
3 61 83 129
3 61 129 165
3 61 165 177
3 62 223 259
3 63 82 127
3 63 82 152
3 63 82 191
3 63 82 218
3 63 127 191
3 63 127 202
3 63 127 218
3 63 127 220
3 63 152 191
3 63 191 218
3 63 191 220
3 63 191 285
3 63 202 220
3 63 220 285
3 64 156 198
3 64 156 254
3 64 156 271
3 64 198 234
3 64 198 296
3 64 234 271
3 64 234 296
3 64 254 271
3 65 97 171
3 65 118 171
3 65 118 213
3 65 142 171
3 65 142 213
3 65 142 263
3 65 171 213
3 65 171 263
3 65 213 263
3 66 105 204
3 67 194 258
3 68 77 138
3 68 77 162
3 68 77 278
3 68 138 162
3 68 138 264
3 68 138 278
3 68 264 278
3 69 135 140
3 69 135 150
3 69 135 201
3 69 135 212
3 69 140 150
3 69 140 201
3 69 150 201
3 69 201 212
3 71 122 166
3 71 122 179
3 71 122 230
3 71 122 250
3 71 132 250
3 71 132 293
3 71 166 207
3 71 166 230
3 71 166 238
3 71 179 230
3 71 179 282
3 71 207 238
3 71 207 282
3 71 207 293
3 71 250 293
3 71 282 293
3 72 106 242
3 72 203 242
3 73 107 150
3 73 107 180
3 73 107 217
3 73 107 221
3 73 107 235
3 73 107 297
3 73 140 150
3 73 140 170
3 73 140 217
3 73 150 170
3 73 150 217
3 73 150 297
3 73 170 217
3 73 180 217
3 73 180 221
3 73 180 235
3 73 180 246
3 73 180 268
3 73 180 297
3 73 217 221
3 73 217 235
3 73 217 246
3 73 217 268
3 73 217 297
3 73 221 235
3 73 221 246
3 73 221 268
3 73 235 268
3 73 235 297
3 73 268 297
3 74 88 148
3 74 88 208
3 74 105 145
3 74 145 208
3 75 123 173
3 75 159 173
3 76 136 186
3 76 136 214
3 76 186 214
3 76 186 248
3 76 214 248
3 77 79 288
3 77 90 244
3 77 138 162
3 77 138 236
3 77 138 278
3 77 162 236
3 78 112 125
3 78 112 168
3 78 112 182
3 78 125 168
3 78 125 182
3 80 99 119
3 80 99 275
3 80 119 206
3 80 119 275
3 80 140 150
3 80 140 170
3 80 140 201
3 80 140 206
3 80 150 170
3 80 150 201
3 80 150 206
3 80 170 201
3 80 170 206
3 80 201 206
3 80 206 275
3 80 232 275
3 81 130 158
3 81 158 161
3 81 158 255
3 81 161 255
3 81 237 274
3 81 255 274
3 82 127 191
3 82 127 218
3 82 152 191
3 82 160 191
3 82 160 218
3 82 191 218
3 83 129 257
3 84 92 178
3 84 175 273
3 84 178 273
3 85 172 233
3 86 108 122
3 86 108 195
3 86 122 195
3 86 195 209
3 86 195 252
3 86 209 252
3 88 107 137
3 88 107 180
3 88 107 208
3 88 107 217
3 88 107 235
3 88 137 147
3 88 137 180
3 88 137 217
3 88 137 239
3 88 147 148
3 88 147 189
3 88 147 217
3 88 147 239
3 88 148 189
3 88 180 208
3 88 180 217
3 88 180 235
3 88 189 239
3 88 208 235
3 88 217 235
3 88 217 239
3 89 135 149
3 89 135 150
3 89 135 161
3 89 149 150
3 89 149 161
3 89 149 196
3 89 149 255
3 89 150 206
3 89 150 239
3 89 161 196
3 89 161 206
3 89 161 228
3 89 161 229
3 89 161 255
3 89 168 211
3 89 168 228
3 89 168 255
3 89 168 260
3 89 189 211
3 89 189 228
3 89 189 239
3 89 196 211
3 89 196 229
3 89 196 255
3 89 196 260
3 89 206 228
3 89 206 239
3 89 211 228
3 89 211 229
3 89 228 229
3 89 228 239
3 89 228 255
3 89 228 260
3 89 229 255
3 89 229 260
3 89 255 260
3 90 120 134
3 91 110 218
3 93 253 257
3 93 253 267
3 94 133 259
3 94 259 272
3 95 112 119
3 95 112 182
3 95 112 294
3 95 119 182
3 95 119 275
3 95 119 294
3 95 182 241
3 95 182 270
3 95 182 294
3 95 241 270
3 95 241 284
3 95 270 294
3 95 275 284
3 96 145 208
3 96 145 222
3 98 188 227
3 99 119 126
3 99 119 275
3 99 126 154
3 100 114 177
3 100 114 187
3 100 114 280
3 100 177 280
3 101 149 196
3 101 149 255
3 101 196 229
3 101 196 255
3 101 196 274
3 101 229 255
3 101 229 274
3 101 255 274
3 103 127 202
3 103 127 218
3 104 219 244
3 104 219 245
3 104 219 261
3 104 244 245
3 104 245 261
3 106 199 242
3 107 137 150
3 107 137 180
3 107 137 206
3 107 137 217
3 107 150 206
3 107 150 217
3 107 150 297
3 107 180 206
3 107 180 208
3 107 180 217
3 107 180 221
3 107 180 235
3 107 180 297
3 107 206 217
3 107 206 221
3 107 208 235
3 107 217 221
3 107 217 235
3 107 217 297
3 107 221 235
3 107 235 297
3 108 122 166
3 108 122 179
3 108 122 195
3 108 122 230
3 108 139 173
3 108 139 230
3 108 166 230
3 108 179 230
3 109 121 168
3 109 121 237
3 109 121 260
3 109 168 260
3 109 237 260
3 110 160 218
3 111 146 242
3 111 203 242
3 112 119 125
3 112 119 182
3 112 119 294
3 112 125 168
3 112 125 182
3 112 182 294
3 114 165 177
3 114 165 280
3 114 177 280
3 114 187 224
3 114 187 231
3 114 224 231
3 115 145 222
3 116 120 157
3 116 156 157
3 116 174 245
3 116 174 261
3 116 244 245
3 116 245 261
3 117 141 158
3 117 141 283
3 117 158 269
3 117 193 249
3 117 193 283
3 117 269 299
3 118 171 213
3 119 125 182
3 119 125 228
3 119 126 246
3 119 126 294
3 119 182 294
3 119 206 217
3 119 206 228
3 119 206 239
3 119 206 246
3 119 206 275
3 119 213 263
3 119 213 294
3 119 217 239
3 119 217 246
3 119 228 239
3 119 263 294
3 120 143 169
3 120 143 293
3 120 157 243
3 120 169 216
3 120 185 243
3 120 185 276
3 120 216 293
3 120 243 276
3 120 250 293
3 121 168 260
3 121 196 229
3 121 196 237
3 121 196 260
3 121 229 237
3 121 229 260
3 121 237 260
3 122 166 230
3 122 179 225
3 122 179 230
3 122 225 250
3 124 186 214
3 125 168 228
3 127 191 218
3 127 191 220
3 127 202 220
3 128 148 189
3 128 148 226
3 128 189 226
3 128 226 251
3 129 155 165
3 129 155 253
3 129 155 277
3 129 253 257
3 129 253 277
3 129 257 277
3 130 141 158
3 131 192 284
3 131 232 284
3 132 183 190
3 132 183 209
3 132 183 250
3 132 183 293
3 132 190 250
3 132 190 293
3 132 195 209
3 132 195 252
3 132 209 250
3 132 209 252
3 132 250 293
3 135 140 150
3 135 140 164
3 135 140 201
3 135 149 150
3 135 149 161
3 135 149 164
3 135 149 188
3 135 149 238
3 135 150 201
3 135 161 164
3 135 164 201
3 135 164 212
3 135 188 238
3 135 201 212
3 136 186 214
3 137 147 206
3 137 147 217
3 137 147 239
3 137 150 206
3 137 150 217
3 137 150 239
3 137 180 206
3 137 180 217
3 137 206 217
3 137 206 239
3 137 217 239
3 138 149 236
3 138 149 238
3 138 162 216
3 138 162 236
3 138 216 236
3 138 236 238
3 138 264 278
3 139 227 230
3 140 150 170
3 140 150 201
3 140 150 206
3 140 150 217
3 140 150 239
3 140 164 201
3 140 164 206
3 140 170 201
3 140 170 206
3 140 170 217
3 140 201 206
3 140 206 217
3 140 206 239
3 140 217 239
3 141 200 283
3 142 171 213
3 142 171 263
3 142 171 294
3 142 213 263
3 142 213 294
3 142 263 294
3 142 270 294
3 143 169 282
3 143 169 298
3 143 225 282
3 143 225 293
3 143 282 293
3 143 282 298
3 146 199 242
3 146 212 299
3 147 148 189
3 147 189 239
3 147 206 217
3 147 206 239
3 147 217 239
3 148 189 226
3 149 161 164
3 149 161 196
3 149 161 255
3 149 188 238
3 149 196 255
3 149 236 238
3 150 170 201
3 150 170 206
3 150 170 217
3 150 201 206
3 150 206 217
3 150 206 239
3 150 217 239
3 150 217 297
3 151 205 287
3 151 247 287
3 153 193 249
3 153 249 291
3 155 165 210
3 155 253 277
3 156 157 254
3 156 254 271
3 158 161 164
3 158 161 255
3 158 161 269
3 158 164 269
3 160 191 218
3 160 191 256
3 161 164 206
3 161 164 228
3 161 164 269
3 161 196 229
3 161 196 255
3 161 206 228
3 161 228 229
3 161 228 255
3 161 229 255
3 162 216 236
3 163 172 233
3 163 215 233
3 164 201 206
3 164 201 212
3 164 206 228
3 164 212 299
3 164 269 299
3 165 177 280
3 166 188 207
3 166 188 227
3 166 188 238
3 166 207 238
3 166 227 230
3 167 194 258
3 168 211 228
3 168 228 255
3 168 228 260
3 168 255 260
3 169 207 216
3 169 207 282
3 169 207 298
3 169 282 298
3 170 201 206
3 170 206 217
3 171 213 263
3 171 213 294
3 171 263 294
3 174 245 261
3 175 194 258
3 179 197 225
3 179 197 230
3 179 197 282
3 179 197 292
3 179 225 282
3 179 225 292
3 179 282 292
3 180 206 217
3 180 206 221
3 180 206 246
3 180 208 235
3 180 217 221
3 180 217 235
3 180 217 246
3 180 217 268
3 180 217 297
3 180 221 235
3 180 221 246
3 180 221 268
3 180 235 268
3 180 235 297
3 180 268 297
3 181 198 296
3 181 290 296
3 182 241 270
3 182 270 294
3 183 190 250
3 183 190 293
3 183 209 250
3 183 216 293
3 183 250 293
3 184 192 284
3 185 243 276
3 186 214 248
3 186 214 262
3 186 214 279
3 186 248 279
3 186 262 279
3 187 205 224
3 187 224 231
3 188 207 238
3 189 211 228
3 189 228 239
3 190 250 293
3 191 220 285
3 191 256 285
3 195 209 252
3 196 211 229
3 196 229 237
3 196 229 255
3 196 229 260
3 196 229 274
3 196 237 260
3 196 237 274
3 196 255 260
3 196 255 274
3 196 260 274
3 197 225 282
3 197 225 292
3 197 240 292
3 197 282 292
3 198 234 296
3 200 266 283
3 205 224 287
3 206 217 221
3 206 217 239
3 206 217 246
3 206 221 246
3 206 228 239
3 207 216 236
3 207 216 293
3 207 236 238
3 207 282 293
3 207 282 298
3 211 228 229
3 213 263 294
3 214 248 279
3 214 262 279
3 215 243 276
3 217 221 235
3 217 221 246
3 217 221 268
3 217 235 268
3 217 235 297
3 217 268 297
3 219 244 245
3 219 245 261
3 221 235 268
3 223 251 272
3 223 259 272
3 224 231 287
3 225 250 293
3 225 282 292
3 225 282 293
3 225 292 293
3 226 251 272
3 228 229 255
3 228 229 260
3 228 255 260
3 229 237 260
3 229 237 274
3 229 255 260
3 229 255 274
3 229 260 274
3 232 275 284
3 235 268 297
3 237 260 274
3 240 292 295
3 253 257 277
3 255 260 274
3 265 266 283
3 282 292 293
