ply
format ascii 1.0
element vertex 300
property float x
property float y
property float z
property float radius
element edge 833
property int vertex1
property int vertex2
element face 664
property list uchar int vertex_indices
end_header
0.298888 0.2592 0.343958 0.113786
0.569597 0.662455 0.415679 0.0387287
0.544141 0.496128 0.370483 0.0631167
0.513084 0.888414 0.497239 0.0332617
0.0495627 0.11356 0.116299 0.0380557
0.698308 0.209062 0.0194379 0.01019
0.326059 0.576078 0.248993 0.01629
0.474608 0.0813868 0.24687 0.0384755
0.429186 0.401574 0.584169 0.0181804
0.211657 0.0233707 0.250158 0.0133375
0.558534 0.958363 0.401949 0.021621
0.0323509 0.21775 0.186826 0.0169714
0.477024 0.588158 0.41677 0.01659
0.162843 0.245241 0.200664 0.052387
0.432702 0.359485 0.308394 0.109889
0.596124 0.646589 0.426503 0.0252311
0.159932 0.317629 0.306105 0.0749863
0.494295 0.251501 0.291711 0.0478006
0.588827 0.492508 0.180884 0.0139054
0.591498 0.676123 0.318497 0.0170909
0.503087 0.323642 0.214874 0.0602164
0.125247 0.20127 0.157683 0.0471436
0.658231 0.397115 0.395922 0.0144372
0.465878 0.511218 0.160169 0.01186
0.362006 0.311101 0.295672 0.116633
0.521301 0.816927 0.486269 0.0277369
0.0967491 0.299395 0.307731 0.0240677
0.452315 0.384588 0.577517 0.0180307
0.237379 0.348439 0.351172 0.123109
0.412207 0.587441 0.308436 0.0117447
0.617569 0.627063 0.424581 0.0252462
0.539463 0.926731 0.471768 0.0286221
0.6739 0.220615 0.0514397 0.0315265
0.470482 0.547336 0.436162 0.0106506
0.582362 0.53988 0.284602 0.00824615
0.589377 0.702786 0.314441 0.0193178
0.255231 0.383898 0.230917 0.0708977
0.330334 0.565216 0.226084 0.0148478
0.541161 0.753158 0.43898 0.0269178
0.476689 0.131871 0.263582 0.0400799
0.472429 0.517912 0.467792 0.0162213
0.598616 0.500646 0.210647 0.00921874
0.243068 0.171711 0.309941 0.0598248
0.307728 0.298314 0.244954 0.102439
0.491903 0.582472 0.344705 0.0286949
0.499372 0.886603 0.49621 0.0262494
0.0657377 0.134185 0.127094 0.036291
0.494759 0.648644 0.39079 0.0199989
0.581459 0.45776 0.417796 0.0257945
0.562311 0.762354 0.327766 0.0158531
0.373733 0.583154 0.28896 0.0149987
0.479823 0.491466 0.370962 0.0568417
0.655311 0.212095 0.0575423 0.0361537
0.23953 0.285423 0.211763 0.0720364
0.508882 0.852414 0.505933 0.0241267
0.653897 0.630964 0.350484 0.00924176
0.711403 0.197286 0.0386717 0.00834725
0.586385 0.945328 0.365273 0.00548984
0.615772 0.348058 0.460432 0.00996313
0.406462 0.575972 0.289111 0.0138615
0.577729 0.762566 0.479063 0.00548853
0.458219 0.337294 0.283207 0.106765
0.358624 0.54708 0.199365 0.0116906
0.0340901 0.100761 0.117681 0.0296793
0.270332 0.0223854 0.268015 0.0164261
0.471637 0.0436675 0.269268 0.0164261
0.037551 0.210311 0.216206 0.0159989
0.532196 0.510864 0.184526 0.0186534
0.564206 0.439969 0.450328 0.0197208
0.604586 0.469486 0.388149 0.0227761
0.258735 0.314679 0.448612 0.0557887
0.524548 0.816052 0.381964 0.0110366
0.466054 0.586745 0.368501 0.0148832
0.114457 0.102051 0.0802175 0.0044596
0.521824 0.501902 0.43594 0.0252076
0.543107 0.990206 0.388447 0.00918627
0.448282 0.324173 0.244988 0.0849178
0.566883 0.345921 0.504831 0.011785
0.433839 0.455406 0.541767 0.0168304
0.203712 0.425909 0.396881 0.0511364
0.574183 0.488427 0.161643 0.0136432
0.507178 0.481293 0.466852 0.0189085
0.56788 0.549894 0.288417 0.0133551
0.620388 0.171007 0.061175 0.00551724
0.57851 0.729884 0.31351 0.0188647
0.481927 0.520194 0.182585 0.018616
0.650655 0.652274 0.452958 0.0216852
0.602015 0.427536 0.427301 0.0201387
0.472213 0.475014 0.495064 0.0160561
0.066469 0.113821 0.0592835 0.00866152
0.372525 0.472769 0.398445 0.0421789
0.082653 0.0982341 0.110964 0.0196052
0.655177 0.238963 0.0772088 0.0331909
0.706263 0.183069 0.0594891 0.00716973
0.51944 0.0647556 0.232369 0.0124745
0.559621 0.718174 0.437651 0.0287804
0.204829 0.244857 0.170396 0.0447483
0.654518 0.370552 0.410403 0.0103563
0.475674 0.347993 0.288897 0.0938879
0.509633 0.355778 0.546726 0.0138145
0.493276 0.572249 0.3005 0.0182789
0.492421 0.850032 0.442242 0.00943933
0.485954 0.572644 0.295636 0.0167952
0.638725 0.204059 0.0247086 0.0147124
0.182661 0.319735 0.405074 0.0549591
0.515389 0.0482924 0.261792 0.0119185
0.541942 0.793508 0.354294 0.0122341
0.639803 0.240584 0.085893 0.0367865
0.172331 0.323344 0.262791 0.0751031
0.224953 0.0122806 0.271944 0.0115018
0.557038 0.457366 0.330409 0.0355639
0.449075 0.263288 0.339756 0.0401627
0.0613887 0.222835 0.163439 0.0183122
0.393758 0.531981 0.181533 0.00995502
0.488776 0.864189 0.484671 0.0186561
0.218951 0.417046 0.246915 0.0572761
0.586752 0.280815 0.142824 0.0359178
0.585899 0.783027 0.518105 0.0158536
0.566265 0.623341 0.361178 0.0558896
0.531883 0.432006 0.48142 0.0191787
0.594785 0.575402 0.387767 0.0467132
0.0154725 0.0865355 0.106663 0.0137751
0.263939 0.170782 0.27355 0.0432711
0.109014 0.092467 0.103708 0.00861368
0.555405 0.813142 0.524411 0.01082
0.587015 0.532177 0.264602 0.00935734
0.447857 0.537344 0.204784 0.0197961
0.578673 0.674711 0.376334 0.0279823
0.240664 0.101434 0.267452 0.0417477
0.101709 0.275534 0.306563 0.032374
0.46425 0.220341 0.333622 0.0217932
0.567665 0.753094 0.339545 0.0164999
0.562905 0.933932 0.36341 0.00398198
0.538209 0.761695 0.462624 0.0244164
0.548457 0.302691 0.175087 0.0408646
0.438392 0.589891 0.330325 0.0147142
0.353134 0.453828 0.39828 0.0462688
0.590056 0.342103 0.48437 0.00868058
0.549 0.95381 0.401049 0.0218646
0.676255 0.170698 0.073826 0.00700648
0.462943 0.500737 0.489039 0.0163138
0.453515 0.235979 0.263511 0.0360323
0.646395 0.635007 0.438955 0.0172585
0.5247 0.841599 0.523118 0.00726549
0.507233 0.441137 0.341547 0.0676469
0.0537155 0.207364 0.205888 0.0159505
0.471196 0.364131 0.567794 0.0111798
0.579222 0.701674 0.349305 0.0109439
0.635704 0.434278 0.393271 0.0194626
0.251712 0.0521718 0.220266 0.0193783
0.415451 0.558266 0.240307 0.0192544
0.388241 0.319024 0.296454 0.112911
0.381806 0.304818 0.243518 0.0803395
0.501509 0.420221 0.513239 0.0188821
0.479924 0.863291 0.472886 0.00715696
0.321169 0.401076 0.374569 0.0607769
0.646802 0.659244 0.456264 0.0236376
0.0110193 0.0901008 0.0915417 0.00923398
0.521237 0.623066 0.444335 0.020848
0.196117 0.266378 0.371736 0.0751032
0.470274 0.175534 0.300127 0.0299988
0.45423 0.538787 0.394762 0.0203652
0.297962 0.24949 0.418323 0.0624476
0.609777 0.756147 0.511954 0.0163461
0.543648 0.556699 0.291552 0.0168821
0.420579 0.382591 0.326695 0.105466
0.539788 0.343938 0.525226 0.00880007
0.555222 0.776629 0.352662 0.0146093
0.645533 0.172774 0.0713853 0.0106124
0.518917 0.852149 0.475071 0.0163369
0.626133 0.260507 0.109306 0.0332304
0.55463 0.399959 0.483547 0.0189085
0.459516 0.0742933 0.217683 0.0191196
0.510246 0.832532 0.408286 0.0103538
0.637074 0.351163 0.435479 0.00599446
0.0265714 0.104035 0.0705669 0.00981981
0.448729 0.518594 0.388299 0.0310345
0.375882 0.568181 0.250787 0.0173794
0.516356 0.811697 0.467362 0.0272064
0.424332 0.523831 0.171542 0.0118337
0.101141 0.113929 0.0562262 0.00304491
0.578462 0.594116 0.384275 0.0631367
0.515906 0.386678 0.523998 0.0179068
0.460427 0.124397 0.240219 0.0240864
0.505768 0.501456 0.156303 0.0126541
0.226421 0.392505 0.312879 0.0893822
0.514077 0.829828 0.453629 0.0169779
0.607829 0.375001 0.453789 0.0161041
0.489926 0.536112 0.21572 0.0211494
0.512238 0.564476 0.386417 0.0606223
0.463909 0.318334 0.164999 0.031262
0.0403437 0.109015 0.0571072 0.0053376
0.46158 0.181228 0.256147 0.026433
0.56137 0.660943 0.382205 0.044345
0.515871 0.925875 0.484766 0.0208854
0.554561 0.765491 0.465765 0.0211688
0.594925 0.518573 0.24354 0.009005
0.423144 0.428864 0.569707 0.0191173
0.450366 0.43064 0.347814 0.0807121
0.449166 0.0418024 0.256978 0.012399
0.235861 0.0523766 0.248887 0.0359633
0.524471 0.969327 0.377495 0.00889629
0.0792936 0.207647 0.177801 0.0218726
0.355032 0.344428 0.323941 0.111061
0.486914 0.568427 0.404326 0.0351363
0.649182 0.679354 0.477577 0.0190097
0.528415 0.785159 0.451947 0.0256736
0.504836 0.0722427 0.206854 0.00758817
0.627013 0.616951 0.3699 0.017824
0.176363 0.259985 0.285264 0.0474403
0.491812 0.195463 0.281295 0.0403648
0.52839 0.397376 0.304772 0.0537275
0.175535 0.220829 0.161169 0.0417293
0.5692 0.54401 0.306045 0.0211472
0.414526 0.332782 0.383094 0.0469136
0.295357 0.302398 0.308166 0.143699
0.664278 0.213475 0.0157733 0.0152222
0.478145 0.447175 0.51144 0.0178576
0.278323 0.0339437 0.236973 0.00961728
0.626856 0.395632 0.42182 0.0156641
0.453238 0.570736 0.283287 0.0171869
0.543588 0.793904 0.379901 0.0116995
0.510503 0.5234 0.381805 0.0663377
0.630787 0.715248 0.48938 0.0195027
0.448577 0.479446 0.515094 0.0160734
0.495176 0.845873 0.481356 0.0214221
0.0909706 0.263701 0.296872 0.0273527
0.539946 0.495278 0.157838 0.0148707
0.584366 0.406126 0.454465 0.0182905
0.53707 0.528676 0.221449 0.0189847
0.596866 0.583093 0.308899 0.0195118
0.567751 0.582696 0.301577 0.0154779
0.221986 0.234216 0.350173 0.0774126
0.468064 0.421222 0.538815 0.0186737
0.509593 0.621647 0.409222 0.0403722
0.10575 0.183218 0.149568 0.0428273
0.409681 0.541236 0.20539 0.0167817
0.410216 0.487836 0.390727 0.0416933
0.608493 0.258333 0.109603 0.0394403
0.346409 0.497588 0.409218 0.0134438
0.500764 0.54521 0.392848 0.0553618
0.53355 0.800679 0.423231 0.00419551
0.265729 0.187999 0.324186 0.0715069
0.274929 0.282951 0.439654 0.0623516
0.541008 0.946069 0.384215 0.010259
0.459482 0.554926 0.24668 0.0198204
0.228227 0.0536333 0.245548 0.0360337
0.543689 0.366315 0.511858 0.0148022
0.0553261 0.211966 0.236064 0.0129109
0.540537 0.547426 0.265884 0.0155673
0.51548 0.82913 0.430724 0.0122362
0.544563 0.508247 0.35965 0.0561037
0.491075 0.618749 0.362251 0.0110525
0.453227 0.443273 0.532236 0.0168847
0.555545 0.702633 0.417256 0.0346677
0.54931 0.472831 0.438484 0.021867
0.456723 0.580141 0.319499 0.015848
0.403291 0.410309 0.584049 0.00813741
0.560742 0.534376 0.319089 0.0256493
0.0680319 0.238155 0.273891 0.0174741
0.215412 0.0403688 0.221352 0.0139651
0.484732 0.310066 0.198288 0.0554332
0.606247 0.635433 0.387563 0.0210694
0.0877688 0.222014 0.151438 0.0236855
0.636842 0.718256 0.50245 0.014403
0.0834713 0.109021 0.0807606 0.0135176
0.488976 0.535283 0.440393 0.0211311
0.486603 0.555756 0.398002 0.0405251
0.57028 0.531311 0.24766 0.0143325
0.390189 0.40683 0.356556 0.0885571
0.472034 0.390147 0.554889 0.0162734
0.53233 0.652234 0.413224 0.0360813
0.58621 0.267027 0.121373 0.0396622
0.199548 0.29707 0.246121 0.0886845
0.551261 0.943197 0.441451 0.0256186
0.500624 0.456784 0.488498 0.0185303
0.553028 0.556637 0.34893 0.0575608
0.503346 0.55255 0.258895 0.0182568
0.375234 0.553215 0.215293 0.0176283
0.55436 0.801681 0.499661 0.0105284
0.26162 0.130127 0.303451 0.0410139
0.566547 0.743769 0.418826 0.0131949
0.341323 0.580536 0.267657 0.0162326
0.577381 0.37021 0.481246 0.0154415
0.566301 0.702238 0.431307 0.029113
0.55382 0.535493 0.342111 0.0449868
0.0466048 0.110129 0.0660417 0.0104679
0.255389 0.0769981 0.282436 0.0202196
0.538552 0.286789 0.148981 0.0431244
0.531157 0.809886 0.403274 0.0110279
0.618427 0.622245 0.339046 0.0151927
0.0489598 0.220292 0.247025 0.0126412
0.159154 0.30748 0.330227 0.0727087
0.564899 0.542991 0.313817 0.0259859
0.59594 0.760003 0.496939 0.0143343
0.626973 0.18658 0.0479185 0.0124127
0.582911 0.717858 0.334406 0.0150123
0.585674 0.955513 0.375349 0.0073786
0.50654 0.559144 0.390863 0.0568756
0.577331 0.507608 0.199335 0.016935
0 24
0 151
0 162
0 203
0 215
0 232
0 242
0 243
1 15
1 127
1 158
1 181
1 193
1 234
1 254
1 262
1 271
1 284
2 48
2 51
2 69
2 110
2 144
2 189
2 222
2 251
2 255
2 276
2 285
3 25
3 31
3 45
3 54
3 114
3 169
3 194
4 46
4 63
4 91
4 157
4 175
4 265
4 286
5 32
5 52
5 56
5 216
6 37
6 177
6 282
7 39
7 65
7 94
7 105
7 172
7 183
7 199
7 207
8 27
8 197
8 233
8 257
9 109
9 200
9 246
9 260
10 57
10 75
10 132
10 138
10 244
10 274
10 297
11 66
11 112
11 145
11 202
12 189
12 204
12 234
13 21
13 53
13 96
13 108
13 212
13 273
14 61
14 76
14 98
14 111
14 144
14 151
14 165
14 198
14 214
15 30
15 86
15 156
15 181
15 262
16 26
16 28
16 108
16 129
16 209
16 273
16 292
17 61
17 111
17 130
17 141
17 210
18 41
18 67
18 80
18 299
19 35
19 118
19 127
19 147
19 193
20 61
20 76
20 98
20 134
20 190
20 261
20 288
21 202
21 212
21 235
21 263
22 97
22 148
22 219
23 85
23 126
23 179
23 184
24 43
24 151
24 152
24 203
24 215
25 54
25 124
25 133
25 143
25 169
25 178
25 186
25 195
25 206
25 225
25 279
26 108
26 129
26 226
26 292
27 146
27 233
27 270
28 70
28 79
28 104
28 108
28 155
28 159
28 185
28 203
28 215
28 292
29 50
29 59
29 135
29 220
29 256
30 86
30 142
30 156
30 181
30 262
31 194
31 274
32 52
32 56
32 92
32 93
32 216
33 40
33 204
33 240
33 266
33 267
34 82
34 125
34 213
34 293
35 84
35 147
35 296
36 43
36 53
36 108
36 115
36 185
36 215
36 273
37 62
37 177
37 278
38 95
38 133
38 195
38 206
38 241
38 254
38 281
39 160
39 183
39 192
39 210
40 74
40 81
40 140
40 266
41 196
41 229
41 268
41 299
42 122
42 128
42 215
42 232
42 242
42 280
43 53
43 152
43 215
44 72
44 100
44 102
44 135
44 189
44 222
44 256
44 276
45 54
45 114
45 194
46 91
46 235
46 265
46 286
47 193
47 234
47 252
47 271
48 68
48 69
48 87
48 148
48 255
49 84
49 106
49 131
49 167
50 59
50 177
50 282
51 144
51 176
51 198
51 222
51 237
51 240
52 56
52 83
52 92
52 93
52 103
52 107
52 139
52 168
52 216
52 295
53 96
53 215
53 273
54 114
54 143
54 225
55 181
55 208
55 290
56 93
57 132
57 297
58 137
58 174
58 187
58 283
59 150
59 177
59 220
60 117
60 195
60 279
60 294
61 76
61 98
61 111
61 141
61 261
62 113
62 278
63 121
63 157
63 175
64 109
64 200
64 218
65 105
65 199
66 145
66 248
66 291
67 80
67 85
67 184
67 188
67 227
67 229
67 299
68 87
68 119
68 171
68 228
68 255
69 87
69 148
70 104
70 159
70 215
70 232
70 243
71 106
71 173
71 221
71 289
72 135
72 189
72 204
72 256
72 298
73 123
73 180
73 265
74 81
74 222
74 255
74 266
75 138
75 201
76 141
76 151
76 152
76 190
76 261
77 137
77 166
77 247
77 283
78 197
78 224
78 253
79 185
80 227
80 299
81 88
81 119
81 140
81 255
81 275
82 125
82 164
82 213
82 249
82 268
82 276
82 293
83 168
83 295
84 131
84 296
85 126
85 184
85 188
86 142
86 156
86 205
87 148
87 187
87 219
87 228
88 140
88 217
88 224
88 253
88 275
89 180
89 191
89 265
89 286
90 136
90 237
90 239
90 269
91 123
91 265
92 107
92 170
93 139
94 105
94 207
95 133
95 195
95 254
95 281
95 284
96 212
96 273
97 174
97 219
98 144
98 211
99 146
99 166
99 182
99 247
99 270
100 102
100 164
100 189
100 249
100 256
100 276
100 277
101 114
101 154
101 173
101 186
101 225
101 250
102 164
102 189
102 220
102 222
102 245
102 256
102 277
103 216
103 295
104 159
104 292
106 167
106 221
107 170
107 238
108 115
108 129
108 185
108 209
108 226
108 273
109 200
109 246
110 144
110 211
111 130
111 141
111 151
111 214
112 145
112 202
112 235
112 263
113 179
113 236
113 278
114 154
114 169
114 225
115 185
115 273
116 134
116 170
116 238
116 272
116 288
117 124
117 163
117 195
117 279
117 294
118 127
118 181
118 189
118 193
118 208
118 230
118 231
118 252
118 262
118 276
118 290
119 153
119 171
119 182
119 255
119 275
120 181
120 189
120 222
120 276
121 157
122 128
122 215
122 242
122 280
123 265
124 143
124 279
125 196
125 268
126 150
126 179
126 188
126 236
126 245
127 147
127 193
127 254
127 281
128 149
128 200
128 246
128 280
128 287
129 209
129 226
129 273
129 292
130 141
130 160
130 210
131 147
131 167
131 296
132 138
132 244
132 297
133 178
133 195
133 206
134 288
135 256
136 155
136 239
136 269
137 283
138 201
138 244
138 274
139 168
140 224
141 151
141 152
141 160
141 192
141 210
142 156
143 279
144 165
144 198
144 211
144 222
145 202
145 248
146 270
147 193
147 296
148 219
149 200
149 218
149 246
149 260
150 177
150 220
150 236
150 245
150 278
151 152
151 165
151 203
151 214
152 215
153 171
153 182
153 217
153 233
153 270
153 275
154 225
155 203
155 215
155 269
156 205
156 223
157 175
158 181
158 189
158 234
158 271
159 209
159 232
159 243
159 292
160 192
160 210
161 176
161 222
161 240
161 267
162 232
162 243
163 223
163 264
163 294
164 213
164 249
164 276
164 277
165 198
165 203
165 214
165 269
166 247
167 221
168 295
169 178
169 186
169 225
170 238
171 182
171 228
171 247
171 283
172 183
172 199
172 207
173 250
173 289
174 187
174 219
175 191
175 286
176 222
176 237
176 240
177 278
177 282
178 186
178 206
178 225
178 241
178 250
179 236
180 265
181 189
181 208
181 230
181 234
181 262
181 276
181 290
182 233
182 247
182 270
183 192
184 227
185 215
186 206
186 225
186 250
187 219
187 228
187 283
188 229
188 245
188 277
189 204
189 222
189 234
189 252
189 256
189 276
189 298
190 261
190 288
191 286
192 210
193 252
193 254
193 262
193 271
194 274
195 206
195 279
196 268
196 299
197 233
197 253
197 257
198 237
198 269
200 218
200 246
200 287
201 244
202 235
202 263
203 214
203 215
203 269
204 234
204 240
204 267
204 298
205 223
205 264
206 241
206 250
208 262
208 290
209 215
209 232
209 273
209 292
213 231
213 258
213 276
213 293
214 269
215 232
215 242
215 243
215 269
215 273
217 224
217 233
217 253
217 275
219 228
220 245
220 256
220 277
221 241
221 289
222 240
222 251
222 255
222 266
222 276
222 285
222 298
223 264
223 294
224 253
226 259
228 283
229 249
229 268
229 277
229 299
230 231
230 276
231 276
231 293
232 242
232 243
233 253
233 270
234 252
234 271
234 298
235 263
236 278
237 239
237 269
238 272
240 266
240 267
240 298
241 250
241 289
242 280
245 277
246 260
247 283
248 259
248 291
249 268
249 277
250 289
251 258
251 285
254 271
254 281
254 284
258 285
258 293
259 291
261 288
265 286
267 298
268 299
271 284
272 288
276 285
276 293
280 287
285 293
3 0 24 151
3 0 24 203
3 0 24 215
3 0 151 203
3 0 162 232
3 0 162 243
3 0 203 215
3 0 215 232
3 0 215 242
3 0 215 243
3 0 232 242
3 0 232 243
3 1 15 181
3 1 15 262
3 1 127 193
3 1 127 254
3 1 158 181
3 1 158 234
3 1 158 271
3 1 181 234
3 1 181 262
3 1 193 254
3 1 193 262
3 1 193 271
3 1 234 271
3 1 254 271
3 1 254 284
3 1 271 284
3 2 48 69
3 2 48 255
3 2 51 144
3 2 51 222
3 2 110 144
3 2 144 222
3 2 189 222
3 2 189 276
3 2 222 251
3 2 222 255
3 2 222 276
3 2 222 285
3 2 251 285
3 2 276 285
3 3 25 54
3 3 25 169
3 3 31 194
3 3 45 54
3 3 45 114
3 3 45 194
3 3 54 114
3 3 114 169
3 4 46 91
3 4 46 265
3 4 46 286
3 4 63 157
3 4 63 175
3 4 91 265
3 4 157 175
3 4 175 286
3 4 265 286
3 5 32 52
3 5 32 56
3 5 32 216
3 5 52 56
3 5 52 216
3 6 37 177
3 6 177 282
3 7 39 183
3 7 65 105
3 7 65 199
3 7 94 105
3 7 94 207
3 7 172 183
3 7 172 199
3 7 172 207
3 8 27 233
3 8 197 233
3 8 197 257
3 9 109 200
3 9 109 246
3 9 200 246
3 9 246 260
3 10 57 132
3 10 57 297
3 10 75 138
3 10 132 138
3 10 132 244
3 10 132 297
3 10 138 244
3 10 138 274
3 11 66 145
3 11 112 145
3 11 112 202
3 11 145 202
3 12 189 204
3 12 189 234
3 12 204 234
3 13 21 212
3 13 53 96
3 13 53 273
3 13 96 212
3 13 96 273
3 13 108 273
3 14 61 76
3 14 61 98
3 14 61 111
3 14 76 151
3 14 98 144
3 14 111 151
3 14 111 214
3 14 144 165
3 14 144 198
3 14 151 165
3 14 151 214
3 14 165 198
3 14 165 214
3 15 30 86
3 15 30 156
3 15 30 181
3 15 30 262
3 15 86 156
3 15 181 262
3 16 26 108
3 16 26 129
3 16 26 292
3 16 28 108
3 16 28 292
3 16 108 129
3 16 108 209
3 16 108 273
3 16 129 209
3 16 129 273
3 16 129 292
3 16 209 273
3 16 209 292
3 17 61 111
3 17 61 141
3 17 111 130
3 17 111 141
3 17 130 141
3 17 130 210
3 17 141 210
3 18 41 299
3 18 67 80
3 18 67 299
3 18 80 299
3 19 35 147
3 19 118 127
3 19 118 193
3 19 127 147
3 19 127 193
3 19 147 193
3 20 61 76
3 20 61 98
3 20 61 261
3 20 76 190
3 20 76 261
3 20 134 288
3 20 190 261
3 20 190 288
3 20 261 288
3 21 202 235
3 21 202 263
3 21 235 263
3 22 97 219
3 22 148 219
3 23 85 126
3 23 85 184
3 23 126 179
3 24 43 152
3 24 43 215
3 24 151 152
3 24 151 203
3 24 152 215
3 24 203 215
3 25 54 143
3 25 54 225
3 25 124 143
3 25 124 279
3 25 133 178
3 25 133 195
3 25 133 206
3 25 143 279
3 25 169 178
3 25 169 186
3 25 169 225
3 25 178 186
3 25 178 206
3 25 178 225
3 25 186 206
3 25 186 225
3 25 195 206
3 25 195 279
3 26 108 129
3 26 108 226
3 26 129 226
3 26 129 292
3 27 146 270
3 27 233 270
3 28 70 104
3 28 70 159
3 28 70 215
3 28 79 185
3 28 104 159
3 28 104 292
3 28 108 185
3 28 155 203
3 28 155 215
3 28 159 292
3 28 185 215
3 28 203 215
3 29 50 59
3 29 59 220
3 29 135 256
3 29 220 256
3 30 86 142
3 30 86 156
3 30 142 156
3 30 181 262
3 31 194 274
3 32 52 56
3 32 52 92
3 32 52 93
3 32 52 216
3 32 56 93
3 33 40 266
3 33 204 240
3 33 204 267
3 33 240 266
3 33 240 267
3 34 82 125
3 34 82 213
3 34 82 293
3 34 213 293
3 35 84 296
3 35 147 296
3 36 43 53
3 36 43 215
3 36 53 215
3 36 53 273
3 36 108 115
3 36 108 185
3 36 108 273
3 36 115 185
3 36 115 273
3 36 185 215
3 36 215 273
3 37 62 278
3 37 177 278
3 38 95 133
3 38 95 195
3 38 95 254
3 38 95 281
3 38 133 195
3 38 133 206
3 38 195 206
3 38 206 241
3 38 254 281
3 39 160 192
3 39 160 210
3 39 183 192
3 39 192 210
3 40 74 81
3 40 74 266
3 40 81 140
3 41 196 268
3 41 196 299
3 41 229 268
3 41 229 299
3 41 268 299
3 42 122 128
3 42 122 215
3 42 122 242
3 42 122 280
3 42 128 280
3 42 215 232
3 42 215 242
3 42 232 242
3 42 242 280
3 43 53 215
3 43 152 215
3 44 72 135
3 44 72 189
3 44 72 256
3 44 100 102
3 44 100 189
3 44 100 256
3 44 100 276
3 44 102 189
3 44 102 222
3 44 102 256
3 44 135 256
3 44 189 222
3 44 189 256
3 44 189 276
3 44 222 276
3 45 54 114
3 46 91 265
3 46 265 286
3 47 193 252
3 47 193 271
3 47 234 252
3 47 234 271
3 48 68 87
3 48 68 255
3 48 69 87
3 48 69 148
3 48 87 148
3 49 84 131
3 49 106 167
3 49 131 167
3 50 59 177
3 50 177 282
3 51 144 198
3 51 144 222
3 51 176 222
3 51 176 237
3 51 176 240
3 51 198 237
3 51 222 240
3 52 56 93
3 52 83 168
3 52 83 295
3 52 92 107
3 52 93 139
3 52 103 216
3 52 103 295
3 52 139 168
3 52 168 295
3 53 96 273
3 53 215 273
3 54 114 225
3 55 181 208
3 55 181 290
3 55 208 290
3 57 132 297
3 58 137 283
3 58 174 187
3 58 187 283
3 59 150 177
3 59 150 220
3 60 117 195
3 60 117 279
3 60 117 294
3 60 195 279
3 61 76 141
3 61 76 261
3 61 111 141
3 62 113 278
3 63 121 157
3 63 157 175
3 64 109 200
3 64 200 218
3 66 145 248
3 66 248 291
3 67 80 227
3 67 80 299
3 67 85 184
3 67 85 188
3 67 184 227
3 67 188 229
3 67 229 299
3 68 87 228
3 68 119 171
3 68 119 255
3 68 171 228
3 69 87 148
3 70 104 159
3 70 159 232
3 70 159 243
3 70 215 232
3 70 215 243
3 70 232 243
3 71 106 221
3 71 173 289
3 71 221 289
3 72 135 256
3 72 189 204
3 72 189 256
3 72 189 298
3 72 204 298
3 73 123 265
3 73 180 265
3 74 81 255
3 74 222 255
3 74 222 266
3 75 138 201
3 76 141 151
3 76 141 152
3 76 151 152
3 76 190 261
3 77 137 283
3 77 166 247
3 77 247 283
3 78 197 253
3 78 224 253
3 81 88 140
3 81 88 275
3 81 119 255
3 81 119 275
3 82 125 268
3 82 164 213
3 82 164 249
3 82 164 276
3 82 213 276
3 82 213 293
3 82 249 268
3 82 276 293
3 83 168 295
3 84 131 296
3 85 126 188
3 86 142 156
3 86 156 205
3 87 148 219
3 87 187 219
3 87 187 228
3 87 219 228
3 88 140 224
3 88 217 224
3 88 217 253
3 88 217 275
3 88 224 253
3 89 180 265
3 89 191 286
3 89 265 286
3 90 136 239
3 90 136 269
3 90 237 239
3 90 237 269
3 91 123 265
3 92 107 170
3 95 133 195
3 95 254 281
3 95 254 284
3 97 174 219
3 98 144 211
3 99 146 270
3 99 166 247
3 99 182 247
3 99 182 270
3 100 102 164
3 100 102 189
3 100 102 256
3 100 102 277
3 100 164 249
3 100 164 276
3 100 164 277
3 100 189 256
3 100 189 276
3 100 249 277
3 101 114 154
3 101 114 225
3 101 154 225
3 101 173 250
3 101 186 225
3 101 186 250
3 102 164 277
3 102 189 222
3 102 189 256
3 102 220 245
3 102 220 256
3 102 220 277
3 102 245 277
3 104 159 292
3 106 167 221
3 107 170 238
3 108 115 185
3 108 115 273
3 108 129 209
3 108 129 226
3 108 129 273
3 108 209 273
3 109 200 246
3 110 144 211
3 111 130 141
3 111 141 151
3 111 151 214
3 112 145 202
3 112 202 235
3 112 202 263
3 112 235 263
3 113 179 236
3 113 236 278
3 114 154 225
3 114 169 225
3 116 134 288
3 116 170 238
3 116 238 272
3 116 272 288
3 117 124 279
3 117 163 294
3 117 195 279
3 118 127 193
3 118 181 189
3 118 181 208
3 118 181 230
3 118 181 262
3 118 181 276
3 118 181 290
3 118 189 252
3 118 189 276
3 118 193 252
3 118 193 262
3 118 208 262
3 118 208 290
3 118 230 231
3 118 230 276
3 118 231 276
3 119 153 171
3 119 153 182
3 119 153 275
3 119 171 182
3 120 181 189
3 120 181 276
3 120 189 222
3 120 189 276
3 120 222 276
3 122 128 280
3 122 215 242
3 122 242 280
3 124 143 279
3 125 196 268
3 126 150 236
3 126 150 245
3 126 179 236
3 126 188 245
3 127 147 193
3 127 193 254
3 127 254 281
3 128 149 200
3 128 149 246
3 128 200 246
3 128 200 287
3 128 280 287
3 129 209 273
3 129 209 292
3 130 141 160
3 130 141 210
3 130 160 210
3 131 147 296
3 132 138 244
3 133 178 206
3 133 195 206
3 136 155 269
3 138 201 244
3 141 151 152
3 141 160 192
3 141 160 210
3 141 192 210
3 144 165 198
3 149 200 218
3 149 200 246
3 149 246 260
3 150 177 278
3 150 220 245
3 150 236 278
3 151 165 203
3 151 165 214
3 151 203 214
3 153 171 182
3 153 182 233
3 153 182 270
3 153 217 233
3 153 217 275
3 153 233 270
3 155 203 215
3 155 203 269
3 155 215 269
3 156 205 223
3 158 181 189
3 158 181 234
3 158 189 234
3 158 234 271
3 159 209 232
3 159 209 292
3 159 232 243
3 160 192 210
3 161 176 222
3 161 176 240
3 161 222 240
3 161 240 267
3 162 232 243
3 163 223 264
3 163 223 294
3 164 213 276
3 164 249 277
3 165 198 269
3 165 203 214
3 165 203 269
3 165 214 269
3 169 178 186
3 169 178 225
3 169 186 225
3 171 182 247
3 171 228 283
3 171 247 283
3 173 250 289
3 174 187 219
3 175 191 286
3 176 222 240
3 178 186 206
3 178 186 225
3 178 186 250
3 178 206 241
3 178 206 250
3 178 241 250
3 181 189 234
3 181 189 276
3 181 208 262
3 181 208 290
3 181 230 276
3 182 233 270
3 186 206 250
3 187 219 228
3 187 228 283
3 188 229 277
3 188 245 277
3 189 204 234
3 189 204 298
3 189 222 276
3 189 222 298
3 189 234 252
3 189 234 298
3 190 261 288
3 193 254 271
3 196 268 299
3 197 233 253
3 198 237 269
3 202 235 263
3 203 214 269
3 203 215 269
3 204 234 298
3 204 240 267
3 204 240 298
3 204 267 298
3 205 223 264
3 206 241 250
3 209 215 232
3 209 215 273
3 213 231 276
3 213 231 293
3 213 258 293
3 213 276 293
3 215 232 242
3 215 232 243
3 217 224 253
3 217 233 253
3 220 245 277
3 221 241 289
3 222 240 266
3 222 240 298
3 222 251 285
3 222 276 285
3 229 249 268
3 229 249 277
3 229 268 299
3 230 231 276
3 231 276 293
3 240 267 298
3 241 250 289
3 248 259 291
3 251 258 285
3 254 271 284
3 258 285 293
3 276 285 293
