ply
format ascii 1.0
comment Generated by the CGAL library
element vertex 162
property double x
property double y
property double z
element face 320
property list uchar int vertex_indices
end_header
0 0.5 0
0.44719999999999999 0.22359999999999999 0
0.13819999999999999 0.22359999999999999 -0.42535000000000001
-0.36180000000000001 0.22359999999999999 -0.26284999999999997
-0.36180000000000001 0.22359999999999999 0.26284999999999997
0.13819999999999999 0.22359999999999999 0.42535000000000001
0.36180000000000001 -0.22359999999999999 -0.26284999999999997
-0.13819999999999999 -0.22359999999999999 -0.42535000000000001
-0.44719999999999999 -0.22359999999999999 0
-0.13819999999999999 -0.22359999999999999 0.42535000000000001
0.36180000000000001 -0.22359999999999999 0.26284999999999997
0 -0.5 0
0.13664999999999999 0.48094999999999999 0
0.26284999999999997 0.42535000000000001 0
0.36909999999999998 0.33729999999999999 0
0.042220000000000001 0.48094999999999999 -0.12995000000000001
0.081250000000000003 0.42535000000000001 -0.25
0.11405 0.33729999999999999 -0.35099999999999998
-0.11055 0.48094999999999999 -0.080299999999999996
-0.21265000000000001 0.42535000000000001 -0.1545
-0.29859999999999998 0.33729999999999999 -0.21695
-0.11055 0.48094999999999999 0.080299999999999996
-0.21265000000000001 0.42535000000000001 0.1545
-0.29859999999999998 0.33729999999999999 0.21695
0.042220000000000001 0.48094999999999999 0.12995000000000001
0.081250000000000003 0.42535000000000001 0.25
0.11405 0.33729999999999999 0.35099999999999998
0.4113 0.25285000000000002 -0.12995000000000001
0.34410000000000002 0.26284999999999997 -0.25
0.25069999999999998 0.25285000000000002 -0.35099999999999998
0.0035155 0.25285000000000002 -0.43135000000000001
-0.13145000000000001 0.26284999999999997 -0.40450000000000003
-0.25640000000000002 0.25285000000000002 -0.34689999999999999
-0.40915000000000001 0.25285000000000002 -0.13664999999999999
-0.42535000000000001 0.26284999999999997 0
-0.40915000000000001 0.25285000000000002 0.13664999999999999
-0.25640000000000002 0.25285000000000002 0.34689999999999999
-0.13145000000000001 0.26284999999999997 0.40450000000000003
0.003516 0.25285000000000002 0.43135000000000001
0.25069999999999998 0.25285000000000002 0.35099999999999998
0.34410000000000002 0.26284999999999997 0.25
0.4113 0.25285000000000002 0.12995000000000001
0.47965000000000002 0.11625000000000001 -0.080299999999999996
0.47554999999999997 0 -0.1545
0.43525000000000003 -0.11625000000000001 -0.21695
0.071849999999999997 0.11625000000000001 -0.48094999999999999
0 0 -0.5
-0.071849999999999997 -0.11625000000000001 -0.48094999999999999
-0.43525000000000003 0.11625000000000001 -0.21695
-0.47554999999999997 0 -0.1545
-0.47965000000000002 -0.11625000000000001 -0.080299999999999996
-0.34079999999999999 0.11625000000000001 0.34689999999999999
-0.29389999999999999 0 0.40450000000000003
-0.22459999999999999 -0.11625000000000001 0.43135000000000001
0.22459999999999999 0.11625000000000001 0.43135000000000001
0.29389999999999999 0 0.40450000000000003
0.34079999999999999 -0.11625000000000001 0.34689999999999999
0.47965000000000002 0.11625000000000001 0.080299999999999996
0.47554999999999997 0 0.1545
0.43525000000000003 -0.11625000000000001 0.21695
0.22459999999999999 0.11625000000000001 -0.43135000000000001
0.29389999999999999 0 -0.40450000000000003
0.34079999999999999 -0.11625000000000001 -0.34689999999999999
-0.34079999999999999 0.11625000000000001 -0.34689999999999999
-0.29389999999999999 0 -0.40450000000000003
-0.22459999999999999 -0.11625000000000001 -0.43135000000000001
-0.43525000000000003 0.11625000000000001 0.21695
-0.47554999999999997 0 0.1545
-0.47965000000000002 -0.11625000000000001 0.080299999999999996
0.071849999999999997 0.11625000000000001 0.48094999999999999
0 0 0.5
-0.071849999999999997 -0.11625000000000001 0.48094999999999999
0.25640000000000002 -0.25285000000000002 -0.34689999999999999
0.13145000000000001 -0.26284999999999997 -0.40450000000000003
-0.0035155 -0.25285000000000002 -0.43135000000000001
-0.25069999999999998 -0.25285000000000002 -0.35099999999999998
-0.34410000000000002 -0.26284999999999997 -0.25
-0.4113 -0.25285000000000002 -0.12995000000000001
-0.4113 -0.25285000000000002 0.12995000000000001
-0.34410000000000002 -0.26284999999999997 0.25
-0.25069999999999998 -0.25285000000000002 0.35099999999999998
-0.0035155 -0.25285000000000002 0.43135000000000001
0.13145000000000001 -0.26284999999999997 0.40450000000000003
0.25640000000000002 -0.25285000000000002 0.34689999999999999
0.40915000000000001 -0.25285000000000002 0.13664999999999999
0.42535000000000001 -0.26284999999999997 0
0.40915000000000001 -0.25285000000000002 -0.13664999999999999
0.11055 -0.48094999999999999 -0.080299999999999996
0.21265000000000001 -0.42535000000000001 -0.1545
0.29859999999999998 -0.33729999999999999 -0.21695
-0.042220000000000001 -0.48094999999999999 -0.12995000000000001
-0.081250000000000003 -0.42535000000000001 -0.25
-0.11405 -0.33729999999999999 -0.35099999999999998
-0.13664999999999999 -0.48094999999999999 0
-0.26284999999999997 -0.42535000000000001 0
-0.36909999999999998 -0.33729999999999999 0
-0.042220000000000001 -0.48094999999999999 0.12995000000000001
-0.081250000000000003 -0.42535000000000001 0.25
-0.11405 -0.33729999999999999 0.35099999999999998
0.11055 -0.48094999999999999 0.080299999999999996
0.21265000000000001 -0.42535000000000001 0.1545
0.29859999999999998 -0.33729999999999999 0.21695
0.18090000000000001 0.44719999999999999 -0.13145000000000001
0.30895 0.37019999999999997 -0.13235
0.22134999999999999 0.37019999999999997 -0.25290000000000001
-0.069099999999999995 0.44719999999999999 -0.21265000000000001
-0.030394999999999998 0.37019999999999997 -0.3347
-0.17215 0.37019999999999997 -0.28865000000000002
-0.22359999999999999 0.44719999999999999 0
-0.32769999999999999 0.37019999999999997 -0.074499999999999997
-0.32769999999999999 0.37019999999999997 0.074499999999999997
-0.069099999999999995 0.44719999999999999 0.21265000000000001
-0.17215 0.37019999999999997 0.28865000000000002
-0.030394999999999998 0.37019999999999997 0.3347
0.18090000000000001 0.44719999999999999 0.13145000000000001
0.22134999999999999 0.37019999999999997 0.25290000000000001
0.30895 0.37019999999999997 0.13235
0.5 0 0
0.47770000000000001 -0.12755 0.074499999999999997
0.47770000000000001 -0.12755 -0.074499999999999997
0.1545 0 -0.47554999999999997
0.2185 -0.12755 -0.43125000000000002
0.076749999999999999 -0.12755 -0.47735
-0.40450000000000003 0 -0.29389999999999999
-0.34265000000000001 -0.12755 -0.34105000000000002
-0.43025000000000002 -0.12755 -0.2205
-0.40450000000000003 0 0.29389999999999999
-0.43025000000000002 -0.12755 0.2205
-0.34265000000000001 -0.12755 0.34105000000000002
0.1545 0 0.47554999999999997
0.076749999999999999 -0.12755 0.47735
0.2185 -0.12755 0.43125000000000002
0.40450000000000003 0 -0.29389999999999999
0.34265000000000001 0.12755 -0.34105000000000002
0.43025000000000002 0.12755 -0.2205
-0.1545 0 -0.47554999999999997
-0.2185 0.12755 -0.43125000000000002
-0.076749999999999999 0.12755 -0.47735
-0.5 0 0
-0.47770000000000001 0.12755 0.074499999999999997
-0.47770000000000001 0.12755 -0.074499999999999997
-0.1545 0 0.47554999999999997
-0.076749999999999999 0.12755 0.47735
-0.2185 0.12755 0.43125000000000002
0.40450000000000003 0 0.29389999999999999
0.43025000000000002 0.12755 0.2205
0.34265000000000001 0.12755 0.34105000000000002
0.069099999999999995 -0.44719999999999999 -0.21265000000000001
0.030394999999999998 -0.37019999999999997 -0.3347
0.17215 -0.37019999999999997 -0.28865000000000002
-0.18090000000000001 -0.44719999999999999 -0.13145000000000001
-0.30895 -0.37019999999999997 -0.13235
-0.22134999999999999 -0.37019999999999997 -0.25290000000000001
-0.18090000000000001 -0.44719999999999999 0.13145000000000001
-0.22134999999999999 -0.37019999999999997 0.25290000000000001
-0.30895 -0.37019999999999997 0.13235
0.069099999999999995 -0.44719999999999999 0.21265000000000001
0.17215 -0.37019999999999997 0.28865000000000002
0.030394999999999998 -0.37019999999999997 0.3347
0.22359999999999999 -0.44719999999999999 0
0.32769999999999999 -0.37019999999999997 -0.074499999999999997
0.32769999999999999 -0.37019999999999997 0.074499999999999997
3 15 0 12
3 102 12 13
3 15 12 102
3 16 15 102
3 103 13 14
3 102 13 103
3 104 102 103
3 16 102 104
3 17 16 104
3 27 14 1
3 103 14 27
3 28 103 27
3 104 103 28
3 29 104 28
3 17 104 29
3 2 17 29
3 18 0 15
3 105 15 16
3 18 15 105
3 19 18 105
3 106 16 17
3 105 16 106
3 107 105 106
3 19 105 107
3 20 19 107
3 30 17 2
3 106 17 30
3 31 106 30
3 107 106 31
3 32 107 31
3 20 107 32
3 3 20 32
3 21 0 18
3 108 18 19
3 21 18 108
3 22 21 108
3 109 19 20
3 108 19 109
3 110 108 109
3 22 108 110
3 23 22 110
3 33 20 3
3 109 20 33
3 34 109 33
3 110 109 34
3 35 110 34
3 23 110 35
3 4 23 35
3 24 0 21
3 111 21 22
3 24 21 111
3 25 24 111
3 112 22 23
3 111 22 112
3 113 111 112
3 25 111 113
3 26 25 113
3 36 23 4
3 112 23 36
3 37 112 36
3 113 112 37
3 38 113 37
3 26 113 38
3 5 26 38
3 12 0 24
3 114 24 25
3 12 24 114
3 13 12 114
3 115 25 26
3 114 25 115
3 116 114 115
3 13 114 116
3 14 13 116
3 39 26 5
3 115 26 39
3 40 115 39
3 116 115 40
3 41 116 40
3 14 116 41
3 1 14 41
3 42 1 57
3 117 57 58
3 42 57 117
3 43 42 117
3 118 58 59
3 117 58 118
3 119 117 118
3 43 117 119
3 44 43 119
3 84 59 10
3 118 59 84
3 85 118 84
3 119 118 85
3 86 119 85
3 44 119 86
3 6 44 86
3 45 2 60
3 120 60 61
3 45 60 120
3 46 45 120
3 121 61 62
3 120 61 121
3 122 120 121
3 46 120 122
3 47 46 122
3 72 62 6
3 121 62 72
3 73 121 72
3 122 121 73
3 74 122 73
3 47 122 74
3 7 47 74
3 48 3 63
3 123 63 64
3 48 63 123
3 49 48 123
3 124 64 65
3 123 64 124
3 125 123 124
3 49 123 125
3 50 49 125
3 75 65 7
3 124 65 75
3 76 124 75
3 125 124 76
3 77 125 76
3 50 125 77
3 8 50 77
3 51 4 66
3 126 66 67
3 51 66 126
3 52 51 126
3 127 67 68
3 126 67 127
3 128 126 127
3 52 126 128
3 53 52 128
3 78 68 8
3 127 68 78
3 79 127 78
3 128 127 79
3 80 128 79
3 53 128 80
3 9 53 80
3 54 5 69
3 129 69 70
3 54 69 129
3 55 54 129
3 130 70 71
3 129 70 130
3 131 129 130
3 55 129 131
3 56 55 131
3 81 71 9
3 130 71 81
3 82 130 81
3 131 130 82
3 83 131 82
3 56 131 83
3 10 56 83
3 44 6 62
3 132 62 61
3 44 62 132
3 43 44 132
3 133 61 60
3 132 61 133
3 134 132 133
3 43 132 134
3 42 43 134
3 29 60 2
3 133 60 29
3 28 133 29
3 134 133 28
3 27 134 28
3 42 134 27
3 1 42 27
3 47 7 65
3 135 65 64
3 47 65 135
3 46 47 135
3 136 64 63
3 135 64 136
3 137 135 136
3 46 135 137
3 45 46 137
3 32 63 3
3 136 63 32
3 31 136 32
3 137 136 31
3 30 137 31
3 45 137 30
3 2 45 30
3 50 8 68
3 138 68 67
3 50 68 138
3 49 50 138
3 139 67 66
3 138 67 139
3 140 138 139
3 49 138 140
3 48 49 140
3 35 66 4
3 139 66 35
3 34 139 35
3 140 139 34
3 33 140 34
3 48 140 33
3 3 48 33
3 53 9 71
3 141 71 70
3 53 71 141
3 52 53 141
3 142 70 69
3 141 70 142
3 143 141 142
3 52 141 143
3 51 52 143
3 38 69 5
3 142 69 38
3 37 142 38
3 143 142 37
3 36 143 37
3 51 143 36
3 4 51 36
3 56 10 59
3 144 59 58
3 56 59 144
3 55 56 144
3 145 58 57
3 144 58 145
3 146 144 145
3 55 144 146
3 54 55 146
3 41 57 1
3 145 57 41
3 40 145 41
3 146 145 40
3 39 146 40
3 54 146 39
3 5 54 39
3 87 11 90
3 147 90 91
3 87 90 147
3 88 87 147
3 148 91 92
3 147 91 148
3 149 147 148
3 88 147 149
3 89 88 149
3 74 92 7
3 148 92 74
3 73 148 74
3 149 148 73
3 72 149 73
3 89 149 72
3 6 89 72
3 90 11 93
3 150 93 94
3 90 93 150
3 91 90 150
3 151 94 95
3 150 94 151
3 152 150 151
3 91 150 152
3 92 91 152
3 77 95 8
3 151 95 77
3 76 151 77
3 152 151 76
3 75 152 76
3 92 152 75
3 7 92 75
3 93 11 96
3 153 96 97
3 93 96 153
3 94 93 153
3 154 97 98
3 153 97 154
3 155 153 154
3 94 153 155
3 95 94 155
3 80 98 9
3 154 98 80
3 79 154 80
3 155 154 79
3 78 155 79
3 95 155 78
3 8 95 78
3 96 11 99
3 156 99 100
3 96 99 156
3 97 96 156
3 157 100 101
3 156 100 157
3 158 156 157
3 97 156 158
3 98 97 158
3 83 101 10
3 157 101 83
3 82 157 83
3 158 157 82
3 81 158 82
3 98 158 81
3 9 98 81
3 99 11 87
3 159 87 88
3 99 87 159
3 100 99 159
3 160 88 89
3 159 88 160
3 161 159 160
3 100 159 161
3 101 100 161
3 86 89 6
3 160 89 86
3 85 160 86
3 161 160 85
3 84 161 85
3 101 161 84
3 10 101 84
