/* XPM */ 
const char * axis_xpm[] = {
"32 32 3 1",
" 	c None",
"!	c black",
"#	c #0000FF",
"                                ",
"                                ",
"      #  #      #               ",
"     ##! ##    ##!              ",
"     ##!  ##  ##!!              ",
"     ##!   ####!!               ",
"     ##!    ##!!                ",
"     ##!    ##!                 ",
"     ##!    ##!                 ",
"     ##!    ##!                 ",
"     ##!    ##!                 ",
"     ##!     !!                 ",
"     ##!                        ",
"     ##!                        ",
"     ##!                        ",
"     ##!                        ",
"     ##!               ##   ##  ",
"     ##!                ## ##!! ",
"     ##!                 ###!!  ",
"     ##!                  #!!   ",
"     ##!                 ###!   ",
"     ##!                ##!##!  ",
"     ##!               ##!! ##! ",
"     ##!                !!   !! ",
"     ##!                        ",
"  ############################  ",
"  ###########################   ",
"     ##!!!!!!!!!!!!!!!!!!!!!    ",
"     ##!                        ",
"      !!                        ",
"                                ",
"                                "};
