ply
format ascii 1.0
element vertex 384
property double x
property double y
property double z
element face 40
property list uchar int vertex_indices
property uchar red
property uchar green
property uchar blue
property uchar alpha
end_header
03.29868532018736 393.5299726324156 21.80889597269399971
30.43944002094213 393.5381471058354 23.139587462290656106
30.44661123899277 417.4042486362159 22.993328973862105613
03.305856538238 417.3960741627961 21.662637484265449217
11.95831769844517 396.2328201103956 28.294205721002068543
11.66516924533062 396.60181907285 27.354071180336173796
10.76777932967525 398.8796317894012 26.740174206905063414
08.42645351670217 405.7806099280715 27.027606581919823014
08.28849473420996 406.6192669896409 27.896408416272603148
08.30528880935162 407.0143724363297 28.771011472796086395
08.78512516152114 406.7632776526734 31.005693720187988305
09.66730323340744 405.4849680690095 33.503852504771195697
10.36672410042956 403.4724039435387 33.514516960131004453
11.97644138394389 398.8209823416546 33.500601977983016866
12.04349625611212 396.3510358324274 29.01188164949416759
31.64162581833079 400.4716062713414 26.308578369288170506
31.49925644847099 400.8870130516589 24.812041777679500143
31.20062054879963 401.7728082975373 24.432037617953483277
29.51961759175174 406.768534982577 24.136002432398530715
26.2994834567653 416.3442336115986 24.691150469599055128
26.12519626447465 416.8626198163256 24.742064757566822664
26.11351498460863 416.9352899761871 31.996124021056861153
26.14477371040266 416.84700401593 32.883146439811760331
26.29246082087047 416.4139445247129 34.027120597282646486
26.48416705231648 415.8475459283218 34.69710175926366702
27.16982886847109 413.8172330595553 36.23002493464264262
30.71549923007842 403.27671257779 36.235069503100930888
31.51127581414767 400.8956648781896 33.29705406037010107
09.96794394159224 393.5845419801772 25.462325656801109375
09.59196252713446 394.2652920279652 23.067847779602740133
08.92245784553234 396.0885722236708 22.294101987077734606
06.58075666427612 402.9881431758404 22.571126564842412421
06.33355139067862 403.7206296017393 22.623916850192472339
05.15569547971245 407.2313878554851 22.993608996053804816
05.25199429236818 407.1149218408391 23.937538957325156019
05.54563176503871 406.5454468391836 25.591618494727295996
09.17227164178621 396.1855942578986 27.022489921495431275
09.30650311848149 395.7963385824114 27.042265768744979226
05.29625984642189 407.2173816617578 21.984000000000001762
09.19340264739003 395.4237939463928 21.984000000000001762
09.19340264739003 395.4237939463928 37.783000000000001251
05.29625984642189 407.2173816617578 37.783000000000001251
26.92756963765714 414.7398494333029 21.984000000000001762
30.84900872863363 402.8770360965282 21.984000000000001762
30.84900872863363 402.8770360965282 37.783000000000001251
26.92756963765714 414.7398494333029 37.783000000000001251
12.30659139517229 394.2659373255447 21.984000000000001762
16.94558888243046 395.7719450648874 21.984000000000001762
16.94558888243046 395.7719450648874 37.783000000000001251
12.30659139517229 394.2659373255447 37.783000000000001251
07.65509033796843 410.8346233814955 21.984000000000001762
23.74691606254783 416.1841798843816 21.984000000000001762
23.74691606254783 416.1841798843816 37.783000000000001251
07.65509033796843 410.8346233814955 37.783000000000001251
25.3789191886317 398.2966175414622 21.984000000000001762
29.0789147822652 399.4067870927975 21.984000000000001762
29.0789147822652 399.4067870927975 37.783000000000001251
25.3789191886317 398.2966175414622 37.783000000000001251
24.69913416169584 398.4604729581624 21.984000000000001762
23.12052289722487 394.1485271891579 21.984000000000001762
23.12052289722487 394.1485271891579 37.783000000000001251
24.69913416169584 398.4604729581624 37.783000000000001251
18.10733771696687 396.8055807435885 21.984000000000001762
21.71259050397202 393.9449482774362 21.984000000000001762
21.71259050397202 393.9449482774362 37.783000000000001251
18.10733771696687 396.8055807435885 37.783000000000001251
04.78117047424894 409.3697847705334 21.984000000000001762
07.15099212841596 410.804912161082 21.984000000000001762
07.15099212841596 410.804912161082 37.783000000000001251
04.78117047424894 409.3697847705334 37.783000000000001251
29.41121161729097 399.4289674684405 21.984000000000001762
31.64206198463216 400.8534375298768 21.984000000000001762
31.64206198463216 400.8534375298768 37.783000000000001251
29.41121161729097 399.4289674684405 37.783000000000001251
12.03708795062266 396.1833529956639 27.527064983727544956
11.87521254806779 396.6743886657059 27.320104436654222724
11.10706354642753 398.9980785492808 26.669613906293310635
09.34694079356268 404.2894131932408 26.888329679975871755
08.80703900079243 405.9123338526115 26.963083993558033313
08.53773760295007 406.7052164496854 27.858198002959401407
08.41652493539732 407.0524781392887 28.757203074732391457
08.52758264017757 406.6738497940823 31.053074612094864193
08.87626182776876 405.6203993018717 31.280143404408594421
10.76737655617762 399.9344173343852 31.089279419526068438
11.45857777469791 397.866535901092 30.485932862964549628
11.71811043436173 397.0950137358159 30.005155312608625451
11.97905500605702 396.329041252844 29.018845753107601837
12.00984423828777 396.2506101094186 28.286031205214388962
20.80346840480343 394.5582724893466 26.252471478292136453
20.83452274359297 394.8729069987312 26.251258579730347265
21.21817035262939 396.8859696928412 26.252499568428902421
21.90245209762361 397.704919565469 26.27871021963073872
23.85032996872906 398.3787633813918 26.367671578067529481
23.96741564373951 398.021926051937 26.376459282197174616
23.94998104381375 396.9036475494504 26.385293174258549698
23.86145736963954 395.9195628045127 26.389505548962915782
23.64098852674942 395.0058241290972 26.386687586549669504
23.41368229675572 394.7338786125183 26.37798005106014898
22.96944047545549 394.2039216337726 26.360949034067743924
21.23965976189356 393.663882621564 26.281443101899640169
20.93250534043182 393.7542659183964 26.265712519874796271
20.80562129733153 394.2402452873066 26.255329819316102657
31.64227601420134 400.4718440799043 26.308601208285377737
31.50001746148337 400.8872672170401 24.812038144656522576
31.20135234494228 401.7730528181419 24.43203426939589562
29.52001882740296 406.7686698706821 24.136001628475238334
26.29915334878024 416.3441157452762 24.69114248169261927
26.1248234231025 416.8624914428219 24.742061702833776593
26.11248733312823 416.9349386068061 31.996118691243278676
26.14367313263938 416.8466270966455 32.883139959273187003
26.2912882338278 416.4135445440188 34.027115702246646833
27.16864283324685 413.8168328749016 36.230025488649516774
30.71506579651032 403.276563603431 36.235066279730283156
31.51127557805739 400.8956623580307 33.297050994041001104
09.59564814821351 394.266237183474 23.070070483572628461
08.98182004480623 396.1089351205155 22.289983680547717171
06.67405171331484 403.0197057845071 22.568072978725464139
06.42911847715732 403.7530555464327 22.620053542422731141
05.25583994959015 407.2653012191877 22.990070824541810168
05.29908964328934 407.1307168509811 23.937067712976382694
05.49721778184175 406.5284369569272 25.598103495304709298
05.84691255330108 405.4806289412081 25.672971400915226781
06.42916319612414 403.7363835535944 25.72598606830432999
08.9856130204862 396.0788739966229 25.802009978416201363
09.36904216720723 394.9336818093434 25.190003630415041869
10.15165971359238 405.6163990423083 33.789335982455668272
10.37148975417949 405.8803684646264 33.783077011044952087
12.0010716955876 406.6901133377105 33.741511563301173737
12.18241358699743 406.7261748481542 33.737113780531217344
12.83117339585442 406.8113115467131 33.721565309762809193
13.29875867755618 406.5559565816075 33.711693086032028077
14.01517911243718 405.8388523114845 33.697939795762067661
14.22524788940791 405.1608646875247 33.695877275138627738
14.36998980306089 404.6679981648922 33.69456449045901536
15.31806151068304 401.2138311527669 33.686917011214973172
15.15848043421283 399.4771868744865 33.697968835818755906
14.88845390093047 399.1793620120734 33.705545703567622695
13.67576247791294 398.7554175294936 33.735725071888737148
13.11592012050096 398.8444458916783 33.748458006175496848
12.13463081652299 399.6353938421234 33.768101786241459195
11.4907712014392 400.6725990129635 33.778807767852413235
11.08449465525337 401.6680889939889 33.78412678188396967
10.92545679805335 402.1549022719264 33.785799785619019531
10.17481925431639 405.2944277450442 33.790150006148905959
24.09592059464194 404.9350041607395 33.655649064670797088
23.65366482082754 405.4009651616216 33.652468012895042193
23.34727713791654 405.5039854748175 33.650342741070289776
22.69172771042213 405.3030142690986 33.645946016562902514
21.12705132400151 404.7709973100573 33.635470535049989849
20.15541586140171 404.367978207767 33.628991401805706118
20.16600559651852 404.0449997065589 33.62917895499504084
20.71686616842635 402.0860070129856 33.633633620165710454
23.80807237396948 402.9879962084815 33.654382442354744853
24.04598021658603 403.2730010366067 33.655902321814664901
16.30886730283964 399.0485838828608 37.383880029374267906
16.05505506973714 400.1230322783813 35.79329137405147776
16.0527517106384 400.952840895392 34.653746826661517844
17.05309022823349 401.3127794396132 34.618906202565995045
18.81781646446325 401.9174010902643 34.599091457086615264
28.4063362107845 405.1661522341892 34.541396368062123656
29.48844987957273 405.5208615828305 34.551251482829684392
29.82462588546332 405.4303451469168 34.82968846065341495
29.82834649470169 404.3090427070856 36.369809397161589004
28.90587378223427 403.4075349662453 37.183404198702191934
28.10649059840944 403.0420899093151 37.31800513707275968
24.80114753521048 401.763745944947 37.55526928196195513
17.45412425382528 399.3909041853622 37.439705149954534136
27.98403379356023 406.2150578461587 33.63974307622629567
25.19196529197507 405.2919405875728 33.644397773788682571
25.1099953004159 404.6879919553176 33.645585668971989435
26.1279870554572 404.5019778413698 33.644840912326117177
26.54101301380433 404.5990222766995 33.644224354813331956
28.26099261292256 405.3299873536453 33.641061172168406301
28.63200675719418 405.5050115659833 33.640347230511792986
28.5250124570448 405.9220213247463 33.63970118112365526
31.12578812881839 401.010466940701 34.20225403872973402
30.14019220275804 400.7123725209385 34.206975818688079016
28.70433963113464 400.2712514922023 34.213637897622902528
19.82130767614581 397.3515258030966 34.248815124050452141
17.51184840325732 396.3741302173585 34.25104779755929485
18.54598947521299 396.3450231952593 34.235267489064426627
20.44490156602114 396.9060130519792 34.225747853592110914
31.02429209568072 400.3983562542126 34.184329492580218357
12.83047490182798 409.8276979653165 37.301745028627919964
12.73099151055794 410.045077146031 36.951467148057417944
12.52860016422346 410.9702720120549 35.564028248874819838
12.43777488998603 411.5709831416607 34.682175228430423886
13.68894848483615 412.2667654724792 34.295242627704283223
16.75632934679743 413.3165501356125 34.263254940509796143
25.46423992456403 416.198115022853 34.310277851545833983
25.64967550383881 416.2474643588066 34.328065942827379331
26.02825473761186 416.2724462365732 34.470251434337114915
26.98133600945584 414.3280222164467 37.633006195974303409
17.86789295799099 411.3135268893093 37.582024828647263348
16.00925202551298 410.7091953996569 37.557012233199202456
12.70881285716314 409.8854826185852 26.35909908402027213
12.41799780190922 411.1971517587081 26.35149347089100047
12.20115599653218 411.415824951604 26.34760929249387118
11.32714918686543 411.9581288369372 26.332751546116924146
08.39887227059808 411.120019341819 26.289219659567606868
07.64131585264113 410.8741035982966 26.278026254425640218
05.80604593711905 410.2209930438548 26.251043859687342774
05.20725857350044 409.95696084667 26.242360280382854398
04.75450039946008 409.606075652875 26.236150299191649538
04.75511477189139 409.4129826202989 26.236614212870335905
04.90493087808136 409.1980104669929 26.239448134670965374
11.0074223926058 408.6692388914526 26.335522219618724193
11.81245074269827 408.8112345989794 26.347697850069380365
16.00699518492911 398.2397992908955 31.834022784569242503
15.72654205991421 398.2219329783693 31.838362203432552633
15.5600269655697 398.2038861773908 31.840274126569056534
12.10687672731001 397.4350782707334 31.844675920816371217
12.31434874620754 396.5305279297754 31.75947836552222725
12.50871230196208 396.486214382574 31.751406192868671496
14.80485285457689 396.9366211052984 31.743047333889990114
15.5045500950655 397.2696780292317 31.757992157066837535
16.11687475908548 397.9250865774229 31.803582919941618457
21.24400211707689 415.3649937966838 34.221373337626516786
20.76801680563949 415.2369507532567 34.221335424372284706
16.20199049613439 413.7480278508738 34.221259107364630836
15.49297467514407 413.4630742128938 34.221306525021873313
14.1950002212543 412.9239993542433 34.221412537064963999
13.96100540529005 412.6429841602221 34.221634344188714749
14.22299253626261 412.5490218736231 34.221836523627530369
14.54503161227331 412.5259073628113 34.221983180784320666
16.68394469725899 413.2591620618477 34.221979476686499311
21.62200755579397 414.9989778585732 34.221919139503370388
16.27177142922301 397.4098354214802 26.380329670930223074
15.84392641438171 397.373166853562 26.390112569297343725
09.51510503934696 394.58267401997 26.349077292325091548
09.62544953019824 394.0914825974032 26.305188237547554309
10.31081303523388 393.6737568015233 26.250149228435475379
11.51109791407362 393.9939708076417 26.240662030762905488
13.8091999044409 394.7544484538957 26.234675300740491366
16.21612889831886 395.6586443642154 26.237304228587163379
16.4901551468065 395.7685719421133 26.238180734042543918
17.11912527575623 397.0248591434211 26.323145475311321206
16.68454568006564 397.262458274141 26.355791359703289345
11.93014367308933 408.4866758985445 31.791276846430264413
09.28215536219068 407.7173936963081 31.75605983633431606
08.74757413670886 407.4797048456967 31.756121767808508594
08.61412482708693 407.3882067482919 31.75893703239489696
09.05170323851053 406.4516927711666 31.857346675777080236
09.24047374923248 406.1099546290934 31.894379589299205691
12.85623958439101 407.9982270346954 31.869533666489587631
13.01573631656356 408.1685248427093 31.860864001089794328
12.60696733568329 408.3685853499919 31.827674651693087071
12.5537612909684 408.3870501527563 31.824014113088196609
26.09436442807782 411.1418359261006 33.613139895019230607
22.76559876604006 411.1088722394779 33.5871516782008257
22.39167954714503 411.0465058833361 33.593537769562317408
21.11190716864076 410.6785701820627 33.639898887096933322
18.3858401379548 409.5416183434427 33.794679730270217988
18.06981709052343 409.3120081759989 33.828137343183698249
18.49924923444632 408.2976987315342 33.993056488779984647
18.78232809819747 408.2413648013026 34.004646997062991431
21.8356563069392 408.9238989697769 33.92501590406664036
22.96910176088568 409.2903643958271 33.877515758465051476
25.84534085320774 410.4831490581855 33.715286898040176311
09.43863188964315 405.3597322963178 31.762247841048520058
09.89115137478802 405.181680591777 31.777478949341457337
10.17826394399162 404.8533465769142 31.783940076376893558
10.37235267239157 404.6110035898164 31.788004619942512363
10.6306758383289 403.8708779914305 31.787204625259619206
11.89047611737624 399.4353083558381 31.771018473955336958
12.08489108085632 398.7040881551802 31.767825920222094283
12.03206044901162 398.6396463699639 31.764780301818973385
11.79601710278075 398.3573828209192 31.751256837189430371
11.32837305520661 398.8131404118612 31.739557866923860274
11.09322579344735 399.108837752603 31.734664536954369396
09.60053287597839 404.0732005666941 31.749512755166506395
22.38012466148939 410.2717697853222 35.512808224564651027
21.76535009255167 410.0583534762263 35.515353234756730672
21.16399827261921 409.8030031882226 35.516850234233061201
18.70914852875285 408.7097257077694 35.521877533411498007
18.88266742322594 408.4416141761467 35.514165402064463706
19.26781342586037 408.446344550699 35.509823906101701141
19.40485333825927 408.4482708433643 35.508284325263048231
19.52424465096556 408.4625481972471 35.507211379973341536
22.42845231422689 409.3311647009104 35.492215933744773793
22.51874839002267 409.519464654848 35.495185251558723394
07.66731075686403 405.9165781596676 26.045615110313519835
08.10775040811859 406.0468677319586 26.191244866116903722
08.62209367996547 406.193032508716 26.360687590204179287
09.38062976091169 405.1466660387814 26.479257534607313573
12.16817101661582 396.1632100148126 26.380301777506247163
12.08555225213058 395.6253103781492 26.299552559503354132
11.72506791120395 395.4042473118752 26.168452374171465635
10.39215060905553 396.7210750905797 25.905791483819484711
07.82994132814929 405.2935093222186 26.029544222517870367
05.59181280178018 406.697630411014 26.130241364473477006
05.71033744746819 406.9111389126629 26.420678965747356415
05.96792367403395 406.9424428027123 26.832983688684180379
06.0822843904607 406.6657573990524 26.869036767864599824
06.74939188617282 404.9568413356319 27.031335173873230815
07.58642286830582 401.6892724130303 26.666695349849760532
07.28482181811705 401.8848574198782 26.301421149633824825
06.01104488689452 405.4353220108896 26.136943868827074766
05.81004733382724 405.9985682694241 26.112505188211798668
15.04790493741166 404.5012912554666 37.477588657115120441
14.64020109013654 404.7543642893434 36.944467098408495076
14.30796716420446 405.8120464729145 35.34264787744905334
14.3989862886956 406.265977458097 34.761845092114526778
16.45279925479554 407.2056752191857 34.411195288426824845
16.91541617247276 407.3847473813221 34.376898264425108209
24.54904939758126 409.8888082224876 34.429038441114244051
27.74898807646241 410.9189691953361 34.477650952685507946
28.57294878060929 409.8112522726879 36.372579813105403446
28.25475491897669 409.1197040956467 37.175444313543266617
27.10640522127505 408.5657455120236 37.410639556153910235
25.8794661895372 408.1435740171 37.429266919891233556
24.60806292074267 407.7107849912718 37.44215016947418917
07.38440433656797 400.9313132427633 26.120383454253897071
07.23960742726922 401.7865592353046 26.324537456966936588
07.53420250117779 401.793233146891 26.672524284571409225
07.71495402022265 401.7367494972423 26.859560764161869884
08.1986744357273 401.4598023481667 27.305128939915448427
08.89351076516323 399.9361853413284 27.453164787497371435
10.28881558030844 394.8661671532318 26.871835514204576612
10.03704017028213 394.8759261742234 26.581186483148485422
09.8059262256138 394.8859698623419 26.31486340262927115
09.43845552066341 395.0240454431623 25.944773125695064664
09.66778644081205 403.4647348187864 26.337618718344856461
08.8997445841087 403.6956828441471 26.333443882085703081
07.06372075318359 406.8888949789107 26.351912883042132307
06.69527769403066 407.9611030938104 26.360266123376277392
06.77834777918179 408.258190119639 26.364186821667317417
08.09166745655239 408.8183453446254 26.381613183995796135
09.03677122516092 409.2159576499835 26.394094553454124252
09.20211365749128 409.2243828577921 26.395619596917640592
09.61370015062857 409.0736276702955 26.397566103636563639
15.4682791858213 399.2634038729593 31.479548230476211756
14.80883755779359 399.1494604777545 31.433286550818593241
13.06189165648539 398.7613800894469 31.341803388626431115
12.61210298794322 398.039652923122 31.542296807514503598
12.4739399967948 397.646624116227 31.665617381368065253
12.69228640513029 397.4224994368851 31.775284764531534165
13.17649666231591 397.4756484823301 31.820249089199933223
15.15018516452983 398.2171205608174 31.814422523078974336
15.87209138239268 398.5394725268707 31.793862094564246945
28.47482733079232 408.4539570054039 37.457226056736544706
26.64186012768187 408.0440455144271 37.7303463601419935
23.92127509554848 407.1618094155565 37.758067429982475005
15.51361764210742 404.209619323723 37.532395488669862971
14.98390895675402 403.7298531495035 37.113011360270320438
15.13680858619045 402.519411591813 35.373628491215640679
15.62003063806333 402.1724260812625 34.674021707149222493
15.90693419333547 402.0676498580724 34.398273581871762872
17.4373902019579 402.5643118815497 34.383179915108485147
28.92778840148821 406.4030059529468 34.421353010489838198
29.09841634274926 406.6933534517884 34.74374837864888832
29.10631852201186 406.7495580958202 34.817651046163518913
29.11926705250517 407.2447516089305 35.494698643509764224
28.85813654132653 407.9069043342024 36.527390699804527685
30.26375315745827 403.1060210810974 37.419273910403717309
29.72118894685991 402.9403491765261 37.441250081261387095
27.37703220266849 402.1986325215548 37.500426853759563528
17.94393827067688 399.0468268487602 37.508064336841925979
16.60063665651251 398.3095294414088 37.111174231307813898
16.5283750644885 397.9964971924201 36.712679079661029391
16.83965840144083 396.9415150415152 35.11347122787265107
17.02770575834438 396.5115091884509 34.433395225365529768
17.30162658600602 396.5665348675102 34.38282125124533195
19.63386923552025 397.2746989382431 34.282856459161848761
22.84955634304788 398.3093501618132 34.225370394095079973
25.13768680905923 399.1083672726527 34.271117255120771006
30.171610408579 400.8717804849148 34.379435587601619773
30.79252238594927 401.1926858900115 34.535442984124529175
30.86113985301927 401.2371999248862 34.565169709268957376
30.44147782737855 402.8868560073897 37.034843245564843528
25.9360053059645 413.545240602456 37.482975690931198187
21.52375787985511 412.1020318977535 37.510900912238867022
14.98278726264834 409.9073546351865 37.475929563224781305
13.82306245248765 409.5052645234391 37.451778643415309489
13.1865007460583 409.1682788869366 37.27759104227880016
12.9883900124114 408.9704278400168 37.094706454357947223
13.51134748803452 407.5007107844576 34.820614318232401274
13.54922282882035 407.4640715504065 34.752521318441722542
13.82592372654472 407.5069092074409 34.684797710651764646
14.86175025370903 407.6851303623989 34.455991395661840215
15.38129317294806 407.8126745382324 34.394031222997000441
26.57955647364724 411.2675523795187 34.035319927003001794
27.20708823762834 412.062462261878 34.84740668126323726
26.88831128063612 413.6024539070204 37.125035057601053268
4 0 1 2 3 151 47 171 255
11 4 5 6 7 8 9 10 11 12 13 14 104 165 85 255
13 15 16 17 18 19 20 21 22 23 24 25 26 27 57 123 160 255
10 28 29 30 31 32 33 34 35 36 37 170 81 74 255
4 38 39 40 41 122 40 149 255
4 42 43 44 45 75 158 63 255
4 46 47 48 49 188 116 138 255
4 50 51 52 53 141 74 52 255
4 54 55 56 57 93 32 127 255
4 58 59 60 61 46 150 41 255
4 62 63 64 65 159 108 116 255
4 66 67 68 69 112 67 190 255
4 70 71 72 73 64 185 105 255
14 74 75 76 77 78 79 80 81 82 83 84 85 86 87 177 143 179 255
14 88 89 90 91 92 93 94 95 96 97 98 99 100 101 130 101 94 255
12 102 103 104 105 106 107 108 109 110 111 112 113 83 59 168 255
11 114 115 116 117 118 119 120 121 122 123 124 35 177 83 255
19 125 126 127 128 129 130 131 132 133 134 135 136 137 138 139 140 141 142 143 148 135 157 255
10 144 145 146 147 148 149 150 151 152 153 101 94 71 255
13 154 155 156 157 158 159 160 161 162 163 164 165 166 53 52 146 255
8 167 168 169 170 171 172 173 174 166 170 60 255
8 175 176 177 178 179 180 181 182 119 128 135 255
12 183 184 185 186 187 188 189 190 191 192 193 194 72 86 49 255
13 195 196 197 198 199 200 201 202 203 204 205 206 207 184 44 124 255
9 208 209 210 211 212 213 214 215 216 137 163 38 255
10 217 218 219 220 221 222 223 224 225 226 90 121 113 255
11 227 228 229 230 231 232 233 234 235 236 237 43 79 187 255
10 238 239 240 241 242 243 244 245 246 247 155 37 102 255
11 248 249 250 251 252 253 254 255 256 257 258 108 155 176 255
12 259 260 261 262 263 264 265 266 267 268 269 270 61 113 91 255
10 271 272 273 274 275 276 277 278 279 280 174 71 165 255
9 281 282 283 284 285 286 287 288 289 126 190 80 255
9 290 291 292 293 294 295 296 297 298 79 148 154 255
13 299 300 301 302 303 304 305 306 307 308 309 310 311 32 106 69 255
10 312 313 314 315 316 317 318 319 320 321 144 64 143 255
9 322 323 324 325 326 327 328 329 330 97 182 58 255
9 331 332 333 334 335 336 337 338 339 50 140 132 255
14 340 341 342 343 344 345 346 347 348 349 350 351 352 353 163 99 47 255
16 354 355 356 357 358 359 360 361 362 363 364 365 366 367 368 369 115 57 121 255
14 370 371 372 373 374 375 376 377 378 379 380 381 382 383 68 175 36 255
