/* XPM */
static char *removecircle_xpm[] = {
/* width height num_colors chars_per_pixel */
"    32    32       31            1",
/* colors */
". c #000000",
"# c #110000",
"a c #111111",
"b c #222222",
"c c #333333",
"d c #403030",
"e c #444444",
"f c #504040",
"g c #555555",
"h c #666666",
"i c #777777",
"j c #cc0000",
"k c #e01515",
"l c #ff0000",
"m c #ff0b0b",
"n c #ff1111",
"o c #f42929",
"p c #ff3232",
"q c #ff4444",
"r c #888888",
"s c #999999",
"t c #aaaaaa",
"u c #bbbbbb",
"v c #cccccc",
"w c #dddddd",
"x c #efdfdf",
"y c #ffcccc",
"z c #ffdddd",
"A c #eeeeee",
"B c #ffeeee",
"C c #ffffff",
/* pixels */
"CCCCCCCCCCCCCCCCCCCCCCCCCCCCCCCC",
"CCyCCCCCCCCCCCCCCCCCCCCCCCCCCCyC",
"CyllCCCCCCCCCCCCCCCCCCCCCCCCClly",
"CClllCCCCCCCCCCCCCCCCCCCCCCClllC",
"CCClllCCCCCCCCCCiCCCCCCCCCClllCC",
"CCCClllCCCCw.........wCCCClllCCC",
"CCCCClllCC......e......CClllCCCC",
"CCCCCClll...wCCCCCCCw...lllCCCCC",
"CCCCCCClll.CCCCCCCCCCC.lllCCCCCC",
"CCCCCCC.lllCCCCCCCCCCClll.CCCCCC",
"CCCCCC...lllCCCCCCCCClll...CCCCC",
"CCCCCC..CClllCCCCCCClllCC..CCCCC",
"CCCCCa.bCCClllCCCCClllCCCb.bCCCC",
"CCCCC..CCCCClllCCClllCCCCC..CCCC",
"CCCCC..CCCCCClllClllCCCCCC..CCCC",
"CCCCC..CCCCCCClllllCCCCCCC..CCCC",
"CCCCC..CCCCCCCClllCCCCCCCC..CCCC",
"CCCCC..CCCCCCClllllCCCCCCC..CCCC",
"CCCCC..CCCCCClllClllCCCCCC..CCCC",
"CCCCC..CCCCClllCCClllCCCCC..CCCC",
"CCCCCa.bCCClllCCCCClllCCCb.bCCCC",
"CCCCCC..CClllCCCCCCClllCC..CCCCC",
"CCCCCC...lllCCCCCCCCClll...CCCCC",
"CCCCCCC.lllCCCCCCCCCCClll.CCCCCC",
"CCCCCCClll.CCCCCCCCCCC.lllCCCCCC",
"CCCCCClll...wCCCCCCCw...lllCCCCC",
"CCCCClllCC......e......CClllCCCC",
"CCCClllCCCCw.........wCCCClllCCC",
"CCClllCCCCCCCCCCiCCCCCCCCCClllCC",
"CClllCCCCCCCCCCCCCCCCCCCCCCClllC",
"CyllCCCCCCCCCCCCCCCCCCCCCCCCClly",
"CCyCCCCCCCCCCCCCCCCCCCCCCCCCCCyC"
};
