ply
format ascii 1.0
comment Generated by the CGAL library
element vertex 68
property double x
property double y
property double z
property double nx
property double ny
property double nz
element face 85
property list uchar int vertex_indices
end_header
1395.31396484375 -1436.0400390625 1351.6204833984375 -0.70481601319601306 0.65221838897987128 0.27900817303258163 
1395.7672119140625 -1435.217529296875 1351.0574951171875 -0.72511677944160302 0.61356831916984589 0.31263328978745664 
1394.818115234375 -1436.766845703125 1352.2843017578125 -0.67341197725892332 0.70232394478720184 0.23077561713224995 
1394.301513671875 -1437.3736572265625 1353.0472412109375 -0.60370223150231084 0.78544501975664105 0.13645415573964706 
1387.9451904296875 -1440.90234375 1345.2374267578125 -0.60398791380802641 0.78514658142062443 0.13690670420886894 
1387.328369140625 -1441.4281005859375 1345.9635009765625 -0.57458274358159112 0.81230542902185887 0.10007277731663868 
1394.8099365234375 -1436.7779541015625 1352.2958984375 -0.64806010883509646 0.73625552368721037 0.19479707178680747 
1388.50244140625 -1440.2735595703125 1344.5269775390625 -0.6582213761598471 0.7232167681512075 0.2090505351133061 
1387.3819580078125 -1441.3983154296875 1346.0294189453125 -0.57442868302126215 0.81240206505081825 0.10017271496582573 
1393.7685546875 -1437.8525390625 1353.875244140625 -0.57427459772562506 0.81249866609716614 0.10027264830150436 
1388.97998046875 -1439.55712890625 1343.841796875 -0.70476554973811478 0.6523192265182356 0.27889988636961416 
1395.7076416015625 -1435.2506103515625 1350.9842529296875 -0.72497197004735114 0.61375974221200202 0.31259338042498519 
1389.36865234375 -1438.77001953125 1343.197021484375 -0.72482711773091713 0.61395112891632897 0.31255345255532918 
1395.9241943359375 -1432.222900390625 1360.7255859375 -0.8565192895737257 0.24911153348634571 -0.45201565290618134 
1396.5142822265625 -1432.7449951171875 1359.3197021484375 -0.85898710547242885 0.27481166754533115 -0.43199502313458749 
1396.0645751953125 -1433.1676025390625 1359.945068359375 -0.85838059340374329 0.27628891526116256 -0.43225824708343924 
1396.5450439453125 -1433.6226806640625 1358.461669921875 -0.85566900374090638 0.38759878822566635 -0.342925262124329 
1396.06494140625 -1434.0601806640625 1359.1185302734375 -0.84306081120189258 0.42790792336124317 -0.32579637465796812 
1396.44970703125 -1434.4339599609375 1357.58056640625 -0.8395110992799012 0.47299263270812025 -0.26739312554681194 
1395.94921875 -1434.88427734375 1358.2734375 -0.82218840748174538 0.50596053678481157 -0.26078757220975252 
1396.236572265625 -1435.1771240234375 1356.6826171875 -0.81153296084030713 0.55308909892393732 -0.18843222155796949 
1395.718505859375 -1435.6400146484375 1357.4091796875 -0.79045201941670551 0.58121230352181996 -0.19333355434303703 
1395.905029296875 -1435.8502197265625 1355.767333984375 -0.77368758202407373 0.62445206377680917 -0.10708475833014718 
1395.3782958984375 -1436.3201904296875 1356.531494140625 -0.74546600062884227 0.65775305295405784 -0.10789514927027756 
1394.9617919921875 -1436.8892822265625 1355.693115234375 -0.728298028798402 0.68033939564038648 -0.081977362656015199 
1394.4129638671875 -1437.421142578125 1354.7816162109375 -0.66572567094504254 0.74619586963312678 0.0010272230695764981 
1393.7685546875 -1437.8525390625 1353.875244140625 -0.61246577005893699 0.78801016322690332 0.062655112777989921 
1394.305419921875 -1437.3690185546875 1353.0419921875 -0.60100538395678216 0.79761715186983007 0.050984384844982439 
1396.3511962890625 -1431.8060302734375 1360.1485595703125 -0.86173205218140025 0.24169963160189351 -0.44609321708219402 
1396.9322509765625 -1432.2899169921875 1358.7464599609375 -0.87325870356547342 0.27708375219669662 -0.40080398066355111 
1396.9874267578125 -1433.14013671875 1357.8560791015625 -0.87380105183556966 0.36611052152913492 -0.32005438262382341 
1396.90869140625 -1433.9295654296875 1356.93798828125 -0.86417473057121352 0.44531668288149534 -0.23429700593390482 
1396.71435546875 -1434.647705078125 1356.013427734375 -0.84185184511164191 0.51868440974847674 -0.14917088846688023 
1396.4053955078125 -1435.293212890625 1355.0810546875 -0.80967116354599344 0.58362396683672446 -0.061771128011741359 
1395.473876953125 -1436.4420166015625 1354.8555908203125 -0.72771906695119415 0.68528383685949856 -0.028478457381104848 
1395.980712890625 -1435.8675537109375 1354.142333984375 -0.76953266130812936 0.63790751952873526 0.029891130937524518 
1394.94091796875 -1436.948974609375 1353.9471435546875 -0.66087978185721141 0.74932712847593641 0.041794359217149364 
1395.450927734375 -1436.3609619140625 1353.211669921875 -0.71791724852380245 0.68532683305783904 0.12215545899764632 
1394.81396484375 -1436.7701416015625 1352.2890625 -0.66604280175038244 0.73369919213469936 0.13443393060306724 
1397.3892822265625 -1432.6102294921875 1357.30322265625 -0.89622009626831722 0.33564681430602777 -0.29005302117203191 
1397.3399658203125 -1433.3572998046875 1356.3692626953125 -0.88871738519315824 0.41108997222870436 -0.20294443571687032 
1397.1611328125 -1434.0419921875 1355.4169921875 -0.87351063041103039 0.47511665331021508 -0.10603463729473143 
1395.9337158203125 -1435.6668701171875 1352.5595703125 -0.76238897467246869 0.62034971764025493 0.1841990204141101 
1395.300537109375 -1436.05517578125 1351.6246337890625 -0.72973223235694562 0.64522285522272416 0.22622629413395889 
1397.314697265625 -1431.7933349609375 1358.2244873046875 -0.89054258560877442 0.25300215883588628 -0.37805265617585565 
1397.652587890625 -1431.251708984375 1357.77294921875 -0.89374657626358811 0.24881690908879625 -0.37323880179934649 
1397.747802734375 -1432.019287109375 1356.8262939453125 -0.90420823069298517 0.32397864533745574 -0.27828997989932791 
1397.712158203125 -1432.7216796875 1355.861083984375 -0.90499184216945472 0.38470269463073525 -0.18164141144185178 
1397.5574951171875 -1433.3568115234375 1354.89404296875 -0.88831309588707974 0.45179312405831357 -0.082357857725545658 
1396.8646240234375 -1434.6563720703125 1354.46044921875 -0.84772357731223713 0.53036144410499508 -0.0090263545137361789 
1396.4564208984375 -1435.1983642578125 1353.50732421875 -0.80981264747397341 0.58009707843571445 0.087697523234937846 
1396.3836669921875 -1434.8612060546875 1351.9931640625 -0.78047144300037208 0.58705068320212683 0.21502516599885044 
1395.7672119140625 -1435.217529296875 1351.0574951171875 -0.75352652854883662 0.60222126039139923 0.26368034493631481 
1396.7403564453125 -1431.37451171875 1359.609375 -0.87246737895251669 0.2238770970035952 -0.43437278701706039 
1397.4127197265625 -1430.4232177734375 1358.6868896484375 -0.88397961987359019 0.20667967164251044 -0.41936087678500372 
1397.0958251953125 -1430.9151611328125 1359.1124267578125 -0.88127162172817541 0.20897037536455859 -0.4239005908896416 
1397.2789306640625 -1433.9281005859375 1353.9169921875 -0.86358042840246563 0.50392634428833383 0.016943530104724085 
1396.886474609375 -1434.43115234375 1352.9471435546875 -0.82788456371786145 0.54876978605033877 0.11601237466732468 
1395.302734375 -1436.0509033203125 1351.620849609375 -0.75301923043609198 0.60503674282615227 0.25863599599389914 
1394.8203125 -1436.7626953125 1352.280517578125 -0.69395199907536587 0.70017330497918517 0.16789272162255395 
1394.3094482421875 -1437.3658447265625 1353.0372314453125 -0.63128588118148987 0.7708858995618455 0.084929771444612903 
1394.3980712890625 -1437.4334716796875 1354.75830078125 -0.63278685071521046 0.7733252955412756 0.039354654590334916 
1394.936767578125 -1436.9205322265625 1355.6456298828125 -0.70064723862339806 0.71217413213773328 -0.043605647836874747 
1395.4150390625 -1436.261474609375 1356.6116943359375 -0.77093878684500394 0.62010076886190191 -0.14535619489664567 
1395.7493896484375 -1435.55517578125 1357.5096435546875 -0.81084311730924596 0.53730065102161628 -0.23203760368520376 
1395.9654541015625 -1434.81298828125 1358.35107421875 -0.83519700144918385 0.46265064142424955 -0.29732196817595324 
1396.07080078125 -1434.0064697265625 1359.17138671875 -0.84992375269957665 0.38498307051744984 -0.35974664697815495 
1396.0594482421875 -1433.14208984375 1359.965087890625 -0.85626172934115174 0.22535450503872279 -0.46479156395577192 
3 1 11 0 
3 2 0 7 
3 3 6 4 
3 5 8 4 
3 7 6 2 
3 6 7 4 
3 9 3 8 
3 4 8 3 
3 10 7 0 
3 12 10 11 
3 0 11 10 
3 28 14 13 
3 15 67 14 
3 14 16 15 
3 17 66 16 
3 16 18 17 
3 19 65 18 
3 18 20 19 
3 21 64 20 
3 20 22 21 
3 23 63 22 
3 23 34 24 
3 62 36 25 
3 61 27 26 
3 53 29 28 
3 14 28 29 
3 29 30 14 
3 16 14 30 
3 30 31 16 
3 18 16 31 
3 31 32 18 
3 20 18 32 
3 32 33 20 
3 22 20 33 
3 33 35 22 
3 34 22 35 
3 35 37 34 
3 36 34 37 
3 37 38 36 
3 60 36 38 
3 29 53 44 
3 44 39 29 
3 30 29 39 
3 39 40 30 
3 31 30 40 
3 40 41 31 
3 32 31 41 
3 41 49 32 
3 33 32 49 
3 49 50 33 
3 35 33 50 
3 50 42 35 
3 37 35 42 
3 42 43 37 
3 59 37 43 
3 44 55 45 
3 45 46 44 
3 39 44 46 
3 46 47 39 
3 40 39 47 
3 47 48 40 
3 41 40 48 
3 48 56 41 
3 49 41 56 
3 50 49 57 
3 42 50 51 
3 51 52 42 
3 58 42 52 
3 44 53 55 
3 45 55 54 
3 57 49 56 
3 51 50 57 
3 42 58 43 
3 37 59 38 
3 36 60 27 
3 27 61 36 
3 25 36 61 
3 36 62 34 
3 24 34 62 
3 34 23 22 
3 22 63 21 
3 19 20 64 
3 17 18 65 
3 15 16 66 
3 13 14 67 
