ply
format ascii 1.0
comment Generated by the CGAL library
element vertex 221
property double x
property double y
property double z
property double nx
property double ny
property double nz
element face 339
property list uchar int vertex_indices
end_header
2861.776611328125 -627.75640869140625 39.266639709472656 -0.42858273814174552 0.79447425010059824 -0.43026445646139094 
2868.34521484375 -628.4769287109375 31.589633941650391 -0.32674818248192478 0.86812272408443036 -0.37362890837432094 
2867.319091796875 -629.21697998046875 31.025058746337891 -0.4300568319933416 0.79471542701941988 -0.42834391709605474 
2887.54345703125 -631.5994873046875 8.0791397094726562 -0.10864774499390051 0.96818829074597601 -0.22540430601504866 
2894.40576171875 -632.6607666015625 0.57384109497070312 -0.0034397074581034716 0.98821806800940093 -0.15301378523639508 
2893.268798828125 -632.879150390625 -0.18439483642578125 -0.11720206450420655 0.96641875138445033 -0.22868859404979511 
2884.3369140625 -633.32696533203125 6.132354736328125 -0.43421727247025416 0.79444989196208704 -0.42462304394594652 
2891.08056640625 -633.86541748046875 -1.5573387145996094 -0.33497139226579042 0.86861687428732814 -0.36510120797777412 
2890.07275390625 -634.60833740234375 -2.1433792114257812 -0.4354104549039956 0.79435077008477406 -0.42358539850427102 
2894.96142578125 -632.7593994140625 -0.036693572998046875 0.049747247402213833 0.99211881843594596 -0.11500200642234669 
2900.14453125 -633.89801025390625 -7.66119384765625 -0.0044301173716376199 0.98843339324840118 -0.15159090068841544 
2873.96435546875 -629.884765625 23.314704895019531 -0.33098413528532505 0.86825534810149296 -0.36957022699695496 
2872.93896484375 -630.63372802734375 22.739959716796875 -0.43279937665064294 0.79351643645861825 -0.4278041194762281 
2899.009033203125 -634.1163330078125 -8.4219627380371094 -0.11814371118600098 0.96658307233370311 -0.22750654448858826 
2862.8076171875 -627.016845703125 39.824893951416016 -0.32572208166676558 0.86776802661018659 -0.37534487808911354 
2891.879638671875 -632.11114501953125 4.2032642364501953 -0.0071815822973476376 0.98741782484201268 -0.15796982009224048 
2888.2353515625 -631.32080078125 9.2445716857910156 -0.065160951532375153 0.97729377109848992 -0.20162077117074947 
2856.280517578125 -626.2308349609375 47.522132873535156 -0.42714172120495664 0.79407027048838086 -0.43243768976879976 
2881.841064453125 -630.279052734375 16.360662460327148 -0.11537022955174688 0.96499152752015638 -0.23554418258045037 
2882.622314453125 -630.11614990234375 16.870513916015625 -0.076793109913786489 0.97417184237224219 -0.21234886342723927 
2857.318603515625 -625.492431640625 48.071968078613281 -0.32351326090365762 0.86726427686687035 -0.37840698208419249 
2876.16650390625 -628.91845703125 24.653858184814453 -0.11794591629882346 0.96319650435512061 -0.24153934426197957 
2878.8916015625 -629.28704833984375 21.975526809692383 -0.089330253089417444 0.97038617387921478 -0.2244343543823871 
2850.840576171875 -624.6331787109375 55.789508819580078 -0.42520824530527462 0.79382766362416457 -0.43478223122548315 
2871.689453125 -627.6956787109375 31.658584594726562 -0.091226699010842502 0.96944877654092743 -0.22769883410084513 
2851.88720703125 -623.89593505859375 56.329235076904297 -0.31665432718564968 0.87005714214027408 -0.37779704403992165 
2870.562255859375 -627.5040283203125 32.920429229736328 -0.1180868225824396 0.9611902087082731 -0.24933689060331585 
2845.4912109375 -622.9580078125 64.03338623046875 -0.42272444938946768 0.79372293014238626 -0.43738764277761227 
2864.7158203125 -626.14056396484375 40.945457458496094 -0.1222912022905758 0.95943967286658882 -0.25400861397200369 
2869.479736328125 -627.20184326171875 34.639759063720703 -0.072842898754660948 0.9734598188408885 -0.21695597065598984 
2892.1533203125 -633.28314208984375 -0.89914703369140625 -0.22893958117323596 0.92600830738546169 -0.3001587626995677 
2897.89697265625 -634.52093505859375 -9.1404991149902344 -0.22975604788604051 0.92610762409342684 -0.29922704933848371 
2886.424560546875 -632.0029296875 7.3681716918945312 -0.22725761743997086 0.92565355514646708 -0.30252185236807966 
2889.145263671875 -635.51043701171875 -2.6515045166015625 -0.52883338701497973 0.70346686896315291 -0.4748364066175243 
2895.819091796875 -635.85546875 -10.396152496337891 -0.43669470675803318 0.79343279577051629 -0.42398364553989298 
2894.8955078125 -636.7581787109375 -10.908912658691406 -0.52934470306258019 0.70301724606242166 -0.47493256055823041 
2880.718994140625 -630.68255615234375 15.65477180480957 -0.22425482949880057 0.92595338458991594 -0.30384223046334929 
2883.405029296875 -634.228515625 5.6297111511230469 -0.52805730330744582 0.70374054247644091 -0.47529436489257143 
2875.044677734375 -629.31256103515625 23.955156326293945 -0.22072279995464048 0.92642023634815407 -0.30500326435107877 
2869.4306640625 -627.90576171875 32.225048065185547 -0.21862508511869788 0.92583062696365825 -0.3082867534178555 
2863.898681640625 -626.44635009765625 40.453140258789062 -0.21919462807593476 0.92466093551895179 -0.31137737449575453 
2858.41650390625 -624.92303466796875 48.692646026611328 -0.22251032812949909 0.92055921328437329 -0.32102942032305759 
2860.009521484375 -625.0762939453125 47.218723297119141 -0.18848402092499841 0.9348377960773675 -0.30091870809432075 
2855.76611328125 -624.16168212890625 52.702392578125 -0.23453995638730277 0.91322213427775822 -0.33319114982696985 
2896.827392578125 -635.103759765625 -9.8024787902832031 -0.33659743087596677 0.86794097558296712 -0.36521313288514989 
2885.347900390625 -632.5845947265625 6.7146129608154297 -0.33446200791680092 0.86783736897995023 -0.36741457001896294 
2879.64306640625 -631.25537109375 15.008844375610352 -0.33185121783580579 0.86846065081007529 -0.36830811451206585 
2850.42578125 -622.98199462890625 59.697555541992188 -0.30368184483176613 0.87409691542736234 -0.37911992767453639 
2846.542236328125 -622.23016357421875 64.558319091796875 -0.37822109846825963 0.82176633047071745 -0.42620288452584965 
2846.576904296875 -622.2083740234375 64.576622009277344 -0.33020131689116572 0.85724128119848686 -0.3951005898913803 
2878.622314453125 -632.00482177734375 14.428619384765625 -0.43335851111319335 0.7941966728240778 -0.42597188372112188 
2840.255126953125 -621.18994140625 72.241218566894531 -0.46127660287219607 0.73999437946966939 -0.48952243461968631 
2840.318115234375 -621.14013671875 72.270431518554688 -0.44439936844904471 0.76772426572088137 -0.46163692783985977 
2877.685791015625 -632.9052734375 13.93016242980957 -0.52707516716214564 0.70421324258767037 -0.47568421996651838 
2871.9970703125 -631.5335693359375 22.24867057800293 -0.5262762001245147 0.70424882615464002 -0.47651542686707787 
2866.371337890625 -630.11572265625 30.539648056030273 -0.52526235780754005 0.70449654853664156 -0.47726729258396 
2860.826904296875 -628.645751953125 38.791805267333984 -0.52374321102166921 0.70525746944540557 -0.47781267323102039 
2855.323486328125 -627.1190185546875 47.055717468261719 -0.52275145123841504 0.70523272855235808 -0.4789339399194078 
2849.874755859375 -625.52020263671875 55.334041595458984 -0.52148401874441741 0.70530607340689511 -0.48020595686592621 
2844.515625 -623.84332275390625 63.588436126708984 -0.51982279816434818 0.70560835756733864 -0.48156111163559501 
2839.26708984375 -622.07415771484375 71.813140869140625 -0.5172962122522563 0.70474494028390455 -0.48552981158081787 
2837.31494140625 -621.37408447265625 74.916763305664062 -0.50833076392929633 0.69324075983200772 -0.51089831018569487 
2839.28759765625 -621.1075439453125 73.316780090332031 -0.45154009039627307 0.76178030279252984 -0.46454527986219707 
2840.041748046875 -621.11639404296875 72.577178955078125 -0.42331337744974606 0.79085396828723198 -0.44199070727383705 
2888.3125 -636.55975341796875 -3.0713272094726562 -0.59863915113554045 0.61740256814841954 -0.51033835400786376 
2894.066650390625 -637.80865478515625 -11.332077026367188 -0.5987703134398985 0.6172261626792801 -0.51039786034749057 
2882.567626953125 -635.27728271484375 5.2153644561767578 -0.59787017993172831 0.61824721480106337 -0.51021723739906177 
2876.8486328125 -633.9451904296875 13.524293899536133 -0.59726487552415308 0.61881070669978222 -0.51024305751164711 
2871.15478515625 -632.5723876953125 21.847837448120117 -0.59682285664864865 0.61911785974114641 -0.51038765025349986 
2865.523193359375 -631.15338134765625 30.145542144775391 -0.59647109839033063 0.61888798017632429 -0.51107719258278594 
2859.97119140625 -629.6822509765625 38.406116485595703 -0.59609898559759877 0.61904443902388639 -0.51132179875604311 
2854.460693359375 -628.1544189453125 46.678443908691406 -0.59602451598716544 0.61869677053370764 -0.5118291535985674 
2849.003173828125 -626.554443359375 54.967723846435547 -0.59496269828476245 0.61997295847089107 -0.51152020332980541 
2843.638671875 -624.8681640625 63.237762451171875 -0.59423434337170045 0.62026341029875531 -0.51201449882025984 
2838.376708984375 -623.09674072265625 71.47760009765625 -0.59251574338740842 0.61907463320251466 -0.51543349945772698 
2836.41845703125 -622.8524169921875 74.079833984375 -0.62179786767685941 0.5832430595783169 -0.52268053838480977 
2834.662109375 -622.20654296875 76.88848876953125 -0.61155860267991879 0.59788257871206407 -0.51820121339186154 
2889.915771484375 -630.8553466796875 10.525472640991211 -0.185227412693764 0.93902627556263518 -0.28969028183516959 
2898.36865234375 -633.13482666015625 -2.8129043579101562 -0.08565569054642419 0.97283838770236652 -0.21505481647634675 
2889.070068359375 -631.13922119140625 9.9181671142578125 -0.10275889292911089 0.96763107977199125 -0.23050098347571912 
2891.9052734375 -637.76123046875 -8.6982803344726562 -0.62480553601394229 0.57994382338005535 -0.52276496046469423 
2899.2646484375 -632.86370849609375 -2.1833915710449219 -0.17378231320130264 0.944974250557017 -0.27717029675383387 
2886.150390625 -636.5035400390625 -0.42736053466796875 -0.62371835343525139 0.58137352954650146 -0.52247510441231737 
2890.73974609375 -630.46124267578125 11.097509384155273 -0.26513561984164608 0.9002514676217076 -0.3453265094604635 
2880.52490234375 -635.23297119140625 7.7028903961181641 -0.62359638728198785 0.58152829223125957 -0.52244845784387939 
2900.134033203125 -632.47906494140625 -1.5909538269042969 -0.25934521694702245 0.90545014600113538 -0.33600608856570519 
2876.5966796875 -634.315673828125 13.411645889282227 -0.62340810982947192 0.58176985113891244 -0.52240421983809893 
2891.53564453125 -629.9530029296875 11.63287353515625 -0.34470519958420981 0.84982119245219689 -0.3987258033269685 
2871.088134765625 -632.978759765625 21.473644256591797 -0.62274341761879559 0.58267230019602989 -0.52219117801503478 
2900.973388671875 -631.97735595703125 -1.0399322509765625 -0.33976143044707502 0.85595028953872565 -0.38975796620355196 
2869.057861328125 -632.478759765625 24.452417373657227 -0.62277592473736532 0.58257973019711184 -0.52225568980239923 
2892.288818359375 -629.35369873046875 12.11870002746582 -0.420646313000128 0.78911257463296081 -0.44761369942790885 
2863.458984375 -631.046142578125 32.72705078125 -0.6226213945493333 0.58272295338298707 -0.52228015341390532 
2901.771484375 -631.36248779296875 -0.53516769409179688 -0.41881000457416084 0.79437714937589288 -0.43995809416127529 
2857.8974609375 -629.5567626953125 41.019363403320312 -0.62330334409981947 0.58174659760858194 -0.52255510465865762 
2892.993408203125 -628.659423828125 12.5535888671875 -0.48957842734603813 0.72116852673658127 -0.49013153287864347 
2852.52294921875 -628.03375244140625 49.122226715087891 -0.62278654877963802 0.58228086743757246 -0.52257622035000384 
2902.516845703125 -630.648681640625 -0.0852813720703125 -0.49086512632124896 0.72449539867968116 -0.48389858963794702 
2848.745361328125 -626.91497802734375 54.870281219482422 -0.62191990773151884 0.58354630886434855 -0.52219664282529943 
2893.6435546875 -627.87725830078125 12.932804107666016 -0.55351541869880205 0.64447035820605514 -0.52752122104845112 
2847.97119140625 -626.6806640625 56.053596496582031 -0.62071132103000226 0.58510106788819771 -0.52189481344546829 
2843.468505859375 -625.2637939453125 62.998065948486328 -0.62114116592130175 0.58450980083098014 -0.52204592205135936 
2903.196044921875 -629.8502197265625 0.30280303955078125 -0.55615325076423849 0.64689120590388249 -0.52175217238511862 
2841.65380859375 -624.6640625 65.826629638671875 -0.62114829763275692 0.58423954274733236 -0.52233987885122857 
2894.227783203125 -627.0220947265625 13.249021530151367 -0.58766004971195174 0.60221260807021038 -0.54036620976317684 
2836.154296875 -621.66400146484375 75.791374206542969 -0.57182646657264469 0.64715775571977951 -0.50418382693099373 
2903.7919921875 -628.95428466796875 0.65476608276367188 -0.58807466969338007 0.6029482000877634 -0.53909336007406783 
2879.6884765625 -629.080322265625 22.573236465454102 -0.13087713263829071 0.95748675202375577 -0.25708032956914079 
2888.2060546875 -631.3173828125 9.2816562652587891 -0.084849012633733845 0.97781514476477482 -0.19151550256760685 
2878.89208984375 -629.28704833984375 21.974681854248047 -0.11439188454158697 0.96374248043571809 -0.24107038008563758 
2837.729736328125 -621.27606201171875 74.621505737304688 -0.53043603376655168 0.65422266835053922 -0.5391013951923237 
2888.2294921875 -631.32025146484375 9.2525844573974609 -0.070210465272293188 0.98147203650239201 -0.17827824356913408 
2838.522216796875 -621.16314697265625 73.985366821289062 -0.49765058378038673 0.70501155099951784 -0.50527478605239606 
2880.47509765625 -628.76300048828125 23.149089813232422 -0.20896239879249137 0.92604286288976678 -0.31429179432783849 
2881.23486328125 -628.3565673828125 23.68889045715332 -0.28298751967477009 0.88609141848078121 -0.36709680167911918 
2840.745361328125 -621.1783447265625 71.797500610351562 -0.42938204063221563 0.7789550645811093 -0.45701211203419345 
2845.639892578125 -622.0186767578125 65.775245666503906 -0.36114826563451929 0.83602442945108879 -0.41307999659891564 
2881.966064453125 -627.85919189453125 24.190471649169922 -0.35724821888773556 0.83533389508651623 -0.41784087141055243 
2882.658447265625 -627.27532958984375 24.648578643798828 -0.42479992856043131 0.77818812468592602 -0.46256703653941234 
2883.31201171875 -626.60430908203125 25.061931610107422 -0.48953920067315798 0.71189150446546245 -0.50354925963026298 
2883.909423828125 -625.8681640625 25.418468475341797 -0.54899348322230579 0.63870398662355932 -0.53913205511322737 
2884.45361328125 -625.05804443359375 25.722436904907227 -0.57837044103119928 0.5985913818866142 -0.5542345987688333 
2870.234619140625 -626.9493408203125 35.144725799560547 -0.15820742024771259 0.94640596401761268 -0.2815779882207714 
2866.111083984375 -625.53271484375 41.887588500976562 -0.25912927241834244 0.89648251597325357 -0.35940383794584818 
2870.929931640625 -626.619873046875 35.665306091308594 -0.23323995462590799 0.91203336996639905 -0.33733404161726405 
2890.032470703125 -637.3555908203125 -6.0092315673828125 -0.62489801846838577 0.57973698711527644 -0.52288382293276836 
2866.73681640625 -625.11798095703125 42.350994110107422 -0.32720954033922106 0.8519098318807784 -0.40888085679799124 
2871.610107421875 -626.19970703125 36.160671234130859 -0.30206862230633086 0.87105941511762475 -0.38731129954197935 
2867.34130859375 -624.63134765625 42.783260345458984 -0.38482651545109775 0.80549704446332604 -0.45064738362339657 
2872.25927734375 -625.71136474609375 36.617511749267578 -0.36712323543980846 0.82304743247340884 -0.43337449613369788 
2867.91162109375 -624.087646484375 43.179588317871094 -0.44071827898494109 0.75236359553882393 -0.48960843403320214 
2872.874267578125 -625.1531982421875 37.036197662353516 -0.43082871146617491 0.76632237269623416 -0.47658854631811026 
2861.7431640625 -630.59515380859375 35.275196075439453 -0.62263883327399816 0.58269664437204594 -0.5222887170299122 
2868.44775390625 -623.4857177734375 43.536563873291016 -0.49541240180608154 0.69132784520884405 -0.52595851792287396 
2873.4541015625 -624.5240478515625 37.414997100830078 -0.49029481627510257 0.7029525970686451 -0.51523648881674766 
2868.943115234375 -622.83331298828125 43.852424621582031 -0.54442435865606142 0.62772660003385206 -0.5563824523759503 
2873.9931640625 -623.83111572265625 37.750022888183594 -0.54726859709103381 0.63501709250373839 -0.54520672672492809 
2869.398193359375 -622.1298828125 44.125049591064453 -0.56905408436778571 0.59162267449035322 -0.57110424625739076 
2874.415283203125 -623.080078125 38.110584259033203 -0.57290140825424907 0.59342036329158954 -0.56536381989934248 
2839.030029296875 -623.7747802734375 69.941734313964844 -0.62093956554681762 0.58457969172057378 -0.52220746831734255 
2860.67041015625 -624.79473876953125 47.626419067382812 -0.2292723410743146 0.91349798883672029 -0.33608870556680476 
2864.79931640625 -626.15264892578125 40.879810333251953 -0.18440529850447906 0.93676717821858513 -0.2974255195773618 
2860.066650390625 -625.08367919921875 47.148368835449219 -0.3208784172142935 0.86892777316611902 -0.37683095200184857 
2865.46484375 -625.877197265625 41.396896362304688 -0.23348771168671165 0.91866363796458916 -0.3186543719658797 
2894.197265625 -627.01812744140625 13.286514282226562 -0.58398297771458318 0.60102519245775787 -0.54564878793114124 
2874.48046875 -623.0897216796875 38.033546447753906 -0.57529196738080968 0.59499717243366124 -0.56126421323924203 
2884.417724609375 -625.04412841796875 25.774288177490234 -0.57520580481907269 0.59651020066492444 -0.55974446187982452 
2869.517333984375 -627.20697021484375 34.593849182128906 -0.23577287263564217 0.91904912861221566 -0.31584783001670969 
2869.479736328125 -627.20184326171875 34.639759063720703 -0.24911895937551656 0.91168980060100291 -0.32674370928873786 
2861.259765625 -624.440673828125 48.081165313720703 -0.2883396446151863 0.87817123173935629 -0.3816746482130689 
2861.82275390625 -624.036865234375 48.507404327392578 -0.34480589783593818 0.83731855585980386 -0.4242717629425804 
2862.369384765625 -623.56561279296875 48.907722473144531 -0.4005272823028207 0.78955247103393333 -0.46495676316763762 
2862.888427734375 -623.04290771484375 49.276527404785156 -0.44928614018992641 0.74039021503788505 -0.49996429243436169 
2863.3740234375 -622.4759521484375 49.609920501708984 -0.49926769081454181 0.68225118594003631 -0.53410213647965221 
2863.82958984375 -621.85528564453125 49.910030364990234 -0.54140837368411443 0.62290265633540187 -0.56468509244978526 
2864.245849609375 -621.19744873046875 50.170001983642578 -0.56473637868075766 0.58810903757432542 -0.57896509611369884 
2869.3330078125 -622.11083984375 44.209281921386719 -0.56790294798112972 0.58997262114409244 -0.5739499524999645 
2855.838623046875 -623.72674560546875 53.821750640869141 -0.31917257410964966 0.86867815912042856 -0.37884973776335618 
2860.009521484375 -625.0762939453125 47.218723297119141 -0.34155576497731127 0.85490759210833756 -0.39047748765618756 
2856.3564453125 -623.37628173828125 54.233585357666016 -0.31841686606763109 0.85783557482873229 -0.40339661124249254 
2856.859375 -622.9727783203125 54.623046875 -0.36634931089481598 0.81924207613108224 -0.44116958542416268 
2857.34033203125 -622.5235595703125 54.987941741943359 -0.41615626322379029 0.7731123515345748 -0.4786556763314222 
2857.7998046875 -622.02789306640625 55.326133728027344 -0.46108719437520646 0.72483379878658338 -0.51187358138490735 
2858.2275390625 -621.50244140625 55.632472991943359 -0.50350545155048143 0.67256445200175075 -0.54234612394902448 
2858.630859375 -620.92889404296875 55.911628723144531 -0.54410016744655276 0.61532927230368262 -0.57037259263647444 
2859.00244140625 -620.32440185546875 56.156349182128906 -0.56556413998814148 0.58495189617394172 -0.5813505678349199 
2864.170654296875 -621.18499755859375 50.254978179931641 -0.56365070290698926 0.58626014058426457 -0.58189082539130565 
2850.9609375 -622.6903076171875 59.977325439453125 -0.29805586859827182 0.87412848413391653 -0.38348675651170944 
2855.300537109375 -624.03314208984375 53.387519836425781 -0.26689505567708743 0.89583489677806327 -0.35531235127667754 
2850.50390625 -623.0015869140625 59.594314575195312 -0.26470612627668727 0.89385769520570291 -0.36186888154846814 
2851.4033203125 -622.34002685546875 60.342758178710938 -0.34177554292164464 0.84092730643772406 -0.41956017869670253 
2851.825927734375 -621.9583740234375 60.686321258544922 -0.38870303111773069 0.80015829593049093 -0.45678950847573269 
2852.2333984375 -621.537109375 61.011867523193359 -0.43092525598205539 0.75760325472507117 -0.49024558354642922 
2852.62109375 -621.0838623046875 61.314254760742188 -0.47069959899990438 0.71199642331954227 -0.52105947902471583 
2852.98828125 -620.59820556640625 61.593051910400391 -0.50774925713156416 0.66374372098437118 -0.54921304130197601 
2853.333740234375 -620.07952880859375 61.848655700683594 -0.5468180393760359 0.61101888037368113 -0.57240366843674328 
2853.6533203125 -619.5360107421875 62.077217102050781 -0.56521829887461916 0.58170059794675111 -0.58493819243205003 
2858.929443359375 -620.3125 56.239234924316406 -0.56412515238552197 0.5836701944860575 -0.58403074963106116 
2848.508544921875 -622.19073486328125 63.027721405029297 -0.3108440320970946 0.86385236152836908 -0.39640268060582073 
2850.42578125 -622.98199462890625 59.697555541992188 -0.27840819429718183 0.8859995555010588 -0.37080138214428093 
2848.904296875 -621.85205078125 63.366050720214844 -0.3739979749810895 0.81617029294178678 -0.44044473845121856 
2849.283203125 -621.48486328125 63.685569763183594 -0.41061329017611164 0.78039385192220856 -0.47157413183164143 
2849.650390625 -621.08087158203125 63.989273071289062 -0.44672304751704806 0.74091072338568253 -0.50148760581811569 
2850.0009765625 -620.64776611328125 64.272880554199219 -0.48286215518029624 0.69656192210368573 -0.53070295624752106 
2850.32861328125 -620.19384765625 64.535072326660156 -0.51466666990466903 0.65240597736807981 -0.55631345443341462 
2850.638916015625 -619.710205078125 64.776725769042969 -0.54474373064961068 0.60500609225141677 -0.58070809901069442 
2850.927490234375 -619.205810546875 64.995277404785156 -0.56053953466397333 0.57885875081048377 -0.5922144684899403 
2853.580810546875 -619.532958984375 62.150779724121094 -0.56475027226867769 0.57987219745168506 -0.58720129818913769 
2846.028564453125 -621.7191162109375 66.065505981445312 -0.36191704717775053 0.83062709536727286 -0.42317216284139642 
2848.096435546875 -622.50140380859375 62.671863555908203 -0.3319404941798107 0.85558618052323332 -0.39722512007843647 
2845.668212890625 -622.02264404296875 65.741134643554688 -0.39181710212678267 0.81341583724469368 -0.42992328873938002 
2846.376220703125 -621.39093017578125 66.3758544921875 -0.39569799404975325 0.79847841136576048 -0.45371282116313705 
2846.710205078125 -621.03704833984375 66.670448303222656 -0.42692087887890767 0.7651152138141869 -0.48201376823419906 
2847.03125 -620.6580810546875 66.949714660644531 -0.46078603468063645 0.7256726765355912 -0.51095537649873735 
2847.333251953125 -620.2615966796875 67.211074829101562 -0.49161774447843648 0.68537842123753401 -0.53718564111104106 
2847.626220703125 -619.83056640625 67.4583740234375 -0.51957176840544284 0.64419983429168115 -0.56129470955515992 
2847.89599609375 -619.39031982421875 67.683914184570312 -0.54932840158359453 0.60070771820859747 -0.58085156838751295 
2848.15185546875 -618.923828125 67.892410278320312 -0.56356000121943894 0.57616148979532145 -0.59197809309330174 
2850.871826171875 -619.1961669921875 65.057098388671875 -0.560194344614522 0.57765448230650152 -0.59371507925360456 
2843.523681640625 -621.2843017578125 69.077995300292969 -0.39294050703120881 0.80695613446889825 -0.44093032893765655 
2845.639892578125 -622.0186767578125 65.775245666503906 -0.40666542670013733 0.80132769003292514 -0.43874498733693973 
2843.816650390625 -620.9737548828125 69.357315063476562 -0.42027894063359184 0.77764345460985085 -0.46758557458754291 
2844.098876953125 -620.64093017578125 69.625221252441406 -0.44961904815234865 0.74342199280859722 -0.49514286034140709 
2844.3671875 -620.29461669921875 69.878303527832031 -0.47631739987509353 0.70869022526514869 -0.52046123697146074 
2844.624755859375 -619.9259033203125 70.119964599609375 -0.5002799729586046 0.67400885030061253 -0.54353658420844542 
2844.867431640625 -619.54254150390625 70.345069885253906 -0.52670910189063547 0.63289539646131732 -0.56746888824289932 
2845.099609375 -619.13690185546875 70.558753967285156 -0.54495420184496646 0.59620870428712514 -0.58954227908079915 
2845.31689453125 -618.716552734375 70.755882263183594 -0.55793377936612032 0.57280080278346268 -0.60050740059790952 
2848.11474609375 -618.9176025390625 67.934059143066406 -0.56335191494638737 0.57476616080969878 -0.5935305218051703 
2840.982666015625 -620.91162109375 72.0523681640625 -0.40864156395752432 0.79478964013772213 -0.44868864498235167 
2843.221435546875 -621.572998046875 68.786849975585938 -0.39591888062384961 0.808752130982204 -0.43493474291817835 
2840.745361328125 -621.1783447265625 71.797500610351562 -0.41445321000429297 0.79389273613358491 -0.44493017455716333 
2841.21435546875 -620.62646484375 72.298919677734375 -0.43447402281739611 0.76542062882335715 -0.47472474600396114 
2841.43359375 -620.33062744140625 72.535385131835938 -0.46169517682872208 0.73207420611404173 -0.5009041030332958 
2841.646728515625 -620.015869140625 72.763084411621094 -0.48438936170325497 0.70022189894921072 -0.52445804265038642 
2841.85400390625 -619.6826171875 72.982452392578125 -0.50723529984094562 0.66551452844416648 -0.54754247600072525 
2842.044189453125 -619.346435546875 73.187454223632812 -0.52995907521091512 0.62813548868811198 -0.56972729130009081 
2842.228515625 -618.99127197265625 73.382835388183594 -0.54982235044201244 0.5917731130525431 -0.58949127696898362 
2842.402099609375 -618.6259765625 73.567733764648438 -0.56100333319391094 0.57053084270752719 -0.59980815071551052 
2845.301025390625 -618.7137451171875 70.773117065429688 -0.55825055985402627 0.57075878960045479 -0.60215506019337739 
2897.4609375 -633.2808837890625 -3.4678192138671875 -0.044430752027178347 0.9817480061154843 -0.18492366198669774 
3 0 1 2 
3 3 4 5 
3 6 7 8 
3 4 9 10 
3 2 11 12 
3 5 10 13 
3 11 2 1 
3 10 5 4 
3 1 0 14 
3 15 3 16 
3 17 14 0 
3 18 19 16 
3 14 17 20 
3 21 22 19 
3 23 20 17 
3 22 21 24 
3 20 23 25 
3 26 24 21 
3 27 25 23 
3 28 29 26 
3 30 13 31 
3 13 30 5 
3 32 5 30 
3 33 34 35 
3 5 32 3 
3 34 33 8 
3 36 3 32 
3 37 8 33 
3 3 36 18 
3 38 18 36 
3 18 38 21 
3 39 21 38 
3 21 39 26 
3 40 26 39 
3 26 40 28 
3 41 42 28 
3 42 41 43 
3 7 31 44 
3 31 7 30 
3 45 30 7 
3 30 45 32 
3 46 32 45 
3 32 46 36 
3 11 36 46 
3 36 11 38 
3 1 38 11 
3 38 1 39 
3 14 39 1 
3 39 14 40 
3 20 40 14 
3 40 20 41 
3 25 41 20 
3 43 25 47 
3 48 49 47 
3 8 44 34 
3 44 8 7 
3 7 6 45 
3 50 45 6 
3 45 50 46 
3 12 46 50 
3 46 12 11 
3 25 27 48 
3 51 48 27 
3 48 51 52 
3 8 37 6 
3 53 6 37 
3 6 53 50 
3 54 50 53 
3 50 54 12 
3 55 12 54 
3 12 55 2 
3 56 2 55 
3 2 56 0 
3 57 0 56 
3 0 57 17 
3 58 17 57 
3 17 58 23 
3 59 23 58 
3 23 59 27 
3 60 27 59 
3 27 60 51 
3 61 51 60 
3 51 62 63 
3 64 35 65 
3 35 64 33 
3 66 33 64 
3 33 66 37 
3 67 37 66 
3 37 67 53 
3 68 53 67 
3 53 68 54 
3 69 54 68 
3 54 69 55 
3 70 55 69 
3 55 70 56 
3 71 56 70 
3 56 71 57 
3 72 57 71 
3 57 72 58 
3 73 58 72 
3 58 73 59 
3 74 59 73 
3 59 74 60 
3 75 76 74 
3 77 78 79 
3 65 80 64 
3 78 77 81 
3 64 82 66 
3 83 81 77 
3 84 66 82 
3 81 83 85 
3 66 84 86 
3 87 85 83 
3 67 86 88 
3 85 87 89 
3 68 90 69 
3 91 89 87 
3 69 92 70 
3 89 91 93 
3 70 94 71 
3 95 93 91 
3 96 71 94 
3 93 95 97 
3 71 96 98 
3 99 97 95 
3 72 100 101 
3 97 99 102 
3 73 103 74 
3 104 102 99 
3 60 74 105 
3 102 104 106 
3 105 61 60 
3 107 108 109 
3 61 110 51 
3 111 108 79 
3 51 110 112 
3 113 79 107 
3 62 51 112 
3 79 113 77 
3 52 51 63 
3 114 77 113 
3 115 48 52 
3 77 114 83 
3 115 116 48 
3 117 83 114 
3 49 48 116 
3 83 117 87 
3 47 25 48 
3 118 87 117 
3 25 43 41 
3 87 118 91 
3 28 40 41 
3 119 91 118 
3 26 29 24 
3 91 119 95 
3 19 18 21 
3 120 95 119 
3 16 3 18 
3 95 120 99 
3 3 15 4 
3 121 99 120 
3 4 15 9 
3 122 123 124 
3 64 80 125 
3 126 124 123 
3 64 125 82 
3 124 126 127 
3 86 67 66 
3 128 127 126 
3 88 68 67 
3 127 128 129 
3 68 88 90 
3 130 129 128 
3 69 90 92 
3 129 130 131 
3 70 92 132 
3 133 131 130 
3 70 132 94 
3 131 133 134 
3 98 72 71 
3 135 134 133 
3 72 98 100 
3 134 135 136 
3 101 73 72 
3 137 136 135 
3 73 101 103 
3 136 137 138 
3 74 103 139 
3 140 141 142 
3 74 139 75 
3 141 140 143 
3 105 74 76 
3 99 121 144 
3 109 122 107 
3 124 107 122 
3 107 124 113 
3 127 113 124 
3 113 127 114 
3 129 114 127 
3 114 129 117 
3 131 117 129 
3 117 131 118 
3 134 118 131 
3 118 134 119 
3 136 119 134 
3 119 136 120 
3 145 120 136 
3 120 145 146 
3 143 147 148 
3 147 143 122 
3 123 122 143 
3 149 143 140 
3 143 149 123 
3 150 123 149 
3 123 150 126 
3 151 126 150 
3 126 151 128 
3 152 128 151 
3 128 152 130 
3 153 130 152 
3 130 153 133 
3 154 133 153 
3 133 154 135 
3 155 135 154 
3 135 155 156 
3 157 142 158 
3 142 157 140 
3 159 140 157 
3 140 159 149 
3 160 149 159 
3 149 160 150 
3 161 150 160 
3 150 161 151 
3 162 151 161 
3 151 162 152 
3 163 152 162 
3 152 163 153 
3 164 153 163 
3 153 164 154 
3 165 154 164 
3 154 165 166 
3 167 168 169 
3 168 167 157 
3 170 157 167 
3 157 170 159 
3 171 159 170 
3 159 171 160 
3 172 160 171 
3 160 172 161 
3 173 161 172 
3 161 173 162 
3 174 162 173 
3 162 174 163 
3 175 163 174 
3 163 175 164 
3 176 164 175 
3 164 176 177 
3 178 169 179 
3 169 178 167 
3 180 167 178 
3 167 180 170 
3 181 170 180 
3 170 181 171 
3 182 171 181 
3 171 182 172 
3 183 172 182 
3 172 183 173 
3 184 173 183 
3 173 184 174 
3 185 174 184 
3 174 185 175 
3 186 175 185 
3 175 186 187 
3 188 189 190 
3 189 188 178 
3 191 178 188 
3 178 191 180 
3 192 180 191 
3 180 192 181 
3 193 181 192 
3 181 193 182 
3 194 182 193 
3 182 194 183 
3 195 183 194 
3 183 195 184 
3 196 184 195 
3 184 196 185 
3 197 185 196 
3 185 197 198 
3 199 190 200 
3 190 199 188 
3 201 188 199 
3 188 201 191 
3 202 191 201 
3 191 202 192 
3 203 192 202 
3 192 203 193 
3 204 193 203 
3 193 204 194 
3 205 194 204 
3 194 205 195 
3 206 195 205 
3 195 206 196 
3 207 196 206 
3 196 207 208 
3 209 210 211 
3 210 209 199 
3 212 199 209 
3 199 212 201 
3 213 201 212 
3 201 213 202 
3 214 202 213 
3 202 214 203 
3 215 203 214 
3 203 215 204 
3 216 204 215 
3 204 216 205 
3 217 205 216 
3 205 217 206 
3 218 206 217 
3 206 218 219 
3 219 207 206 
3 208 197 196 
3 198 186 185 
3 187 176 175 
3 177 165 164 
3 166 155 154 
3 156 137 135 
3 138 145 136 
3 146 121 120 
3 144 104 99 
3 79 78 220 
3 220 111 79 
3 107 79 108 
3 109 147 122 
3 148 141 143 
3 158 168 157 
3 179 189 178 
3 200 210 199 
