ply
format ascii 1.0
comment Generated by the CGAL library
element vertex 270
property double x
property double y
property double z
property double nx
property double ny
property double nz
element face 447
property list uchar int vertex_indices
end_header
-141.13803100585938 -1082.7144775390625 693.753173828125 -0.47703838648808322 0.58030381467104764 0.66006201261326691 
-140.84176635742188 -1082.0028076171875 693.34161376953125 -0.514271641598253 0.65313721669742775 0.55582052392168402 
-141.2904052734375 -1082.9161376953125 693.81689453125 -0.60192515047369366 0.57132010915719522 0.55792422971209255 
-135.14471435546875 -1086.3553466796875 701.0489501953125 -0.54779023506235236 0.46757692652154825 0.69375620801186011 
-134.53419494628906 -1085.3753662109375 700.78582763671875 -0.49558488477522522 0.54891242860904033 0.67312017329809082 
-138.67488098144531 -1083.900390625 696.532958984375 -0.49140741687476119 0.55119695451144224 0.6743149620005372 
-138.00056457519531 -1082.9952392578125 696.20843505859375 -0.43682340555468924 0.62475541526745615 0.64719856570730427 
-142.98875427246094 -1080.533447265625 690.63946533203125 -0.4507158708085498 0.57285675045549544 0.68460963129279795 
-143.83192443847656 -1080.8988037109375 690.4639892578125 -0.47722804146152425 0.55658919519677941 0.68004548688525179 
-143.20797729492188 -1083.4747314453125 692.80926513671875 -0.526102146576654 0.46166589692032772 0.71419964364887933 
-142.40586853027344 -1084.76806640625 694.19610595703125 -0.5819338881062075 0.42632342864412287 0.69253251480541445 
-142.44874572753906 -1082.9151611328125 692.9879150390625 -0.47916154353815055 0.52839411750660503 0.70085938088788757 
-142.47914123535156 -1084.9010009765625 694.21636962890625 -0.57809955834613191 0.40399507420117919 0.70893503275066816 
-137.27774047851562 -1082.1641845703125 695.81024169921875 -0.40950183490804487 0.65863950951331574 0.63127034122870296 
-139.88505554199219 -1081.1871337890625 693.11566162109375 -0.46528040622559252 0.67936582892126873 0.5674294793863508 
-133.86843872070312 -1084.4630126953125 700.44580078125 -0.44020656824422699 0.62416251324873562 0.64547605248348494 
-141.78294372558594 -1083.6787109375 694.0113525390625 -0.5125728682083468 0.49869432073606945 0.69897999201855487 
-141.65725708007812 -1082.430908203125 693.165283203125 -0.43095705079120034 0.58985701784134903 0.68289436875453957 
-166.00209045410156 -1086.198974609375 673.87347412109375 -0.63879660107087555 0.29370303265774078 0.7111099992743336 
-165.72482299804688 -1086.0167236328125 674.04669189453125 -0.63771474401571904 0.28928979640034974 0.71388466783060278 
-164.92985534667969 -1084.15625 673.9615478515625 -0.64740495751211968 0.33503997591713774 0.68455462566998571 
-139.29350280761719 -1084.872314453125 696.78070068359375 -0.54351263300286445 0.47070819948974446 0.69500202064412486 
-140.61270141601562 -1082.0147705078125 693.5009765625 -0.44285917506684885 0.61686462950200149 0.65065642233706455 
-171.54150390625 -1092.2034912109375 671.36016845703125 -0.65068454711306822 0.29877292331508343 0.69810053748870637 
-171.64254760742188 -1091.85546875 671.12115478515625 -0.67130535150794146 0.31155044791263109 0.67252170481125595 
-172.19931030273438 -1093.2845458984375 671.21368408203125 -0.65298626431760287 0.2979239682430399 0.69631188971527824 
-140.04295349121094 -1081.3692626953125 693.20550537109375 -0.39735657539062957 0.72382329849675453 0.56408118613113578 
-140.45474243164062 -1081.8387451171875 693.42584228515625 -0.41456465466029374 0.65206930554794318 0.63477694339713886 
-166.81637573242188 -1086.810791015625 673.39434814453125 -0.63861195373470825 0.3027630796516706 0.70746681204631434 
-166.77139282226562 -1086.7669677734375 673.41619873046875 -0.63861195373470825 0.3027630796516706 0.70746681204631434 
-166.75527954101562 -1086.7315673828125 673.41650390625 -0.64662245207828628 0.30506604046541352 0.69915242645865072 
-160.640625 -1080.239501953125 675.965576171875 -0.62979919094727321 0.39570407197282459 0.66840950509869757 
-161.7159423828125 -1081.5201416015625 675.66668701171875 -0.63786972644461504 0.36133664362796342 0.68011619746713137 
-161.39398193359375 -1082.684814453125 676.5341796875 -0.64065321869662928 0.32737619092200759 0.69454177915446247 
-139.85194396972656 -1085.901123046875 696.9486083984375 -0.59167983864482587 0.38338667665270293 0.70917531309714144 
-141.90852355957031 -1083.8841552734375 694.05224609375 -0.55543505641413049 0.4469369031561331 0.70124125855759301 
-175.12490844726562 -1094.798828125 668.58544921875 -0.75840238090834833 0.36829993927235449 0.53775550519220972 
-173.22474670410156 -1092.5355224609375 669.701904296875 -0.75100750341956268 0.35628013635354566 0.55592463000609571 
-173.27372741699219 -1092.498046875 669.62042236328125 -0.75840238090834833 0.36829993927235449 0.53775550519220972 
-160.34959411621094 -1081.333251953125 676.83538818359375 -0.63346863880525861 0.35671501060798766 0.68663810326631003 
-135.69271850585938 -1087.394287109375 701.2314453125 -0.5935385135416219 0.38097422777061563 0.7089221894660831 
-174.71983337402344 -1095.1209716796875 669.42279052734375 -0.75114669891976438 0.37577279425728816 0.54274620569655829 
-161.05474853515625 -1083.86572265625 677.35125732421875 -0.63266477243321484 0.3198326333560601 0.70529594665116047 
-152.33720397949219 -1078.8729248046875 682.50762939453125 -0.58008782565427697 0.43857345237721707 0.68640472128156438 
-153.01925659179688 -1079.4749755859375 682.33758544921875 -0.59990335135296557 0.40804744858273673 0.68819564713866022 
-152.55865478515625 -1081.2197265625 683.74078369140625 -0.60323330913753681 0.37135914193229203 0.70583423156594538 
-172.77743530273438 -1092.871826171875 670.44610595703125 -0.6832117508053025 0.36590040240814503 0.63193243236845409 
-174.67071533203125 -1095.15771484375 669.5103759765625 -0.71693280115468216 0.33726590173456999 0.61013037144176685 
-172.64556884765625 -1092.9586181640625 670.62762451171875 -0.65550925841886543 0.3810023315310872 0.65203131481166188 
-160.95787048339844 -1083.788818359375 677.40594482421875 -0.64192320397842295 0.30476788083404566 0.70359870594395013 
-151.91900634765625 -1080.52001953125 683.9134521484375 -0.59324981178088498 0.40333634874503821 0.69668820185429103 
-131.49496459960938 -1088.794921875 705.50701904296875 -0.59412689945878283 0.38133539966639585 0.70823480590886212 
-174.24015808105469 -1095.47998046875 670.209228515625 -0.70088665189628074 0.33913685127509374 0.6274903164996547 
-140.33903503417969 -1086.974365234375 697.033203125 -0.63883745968465688 0.27814501531930319 0.71730192426667805 
-175.15985107421875 -1094.7713623046875 668.50555419921875 -0.78657159719094105 0.40216329191221428 0.46858276657472481 
-139.43122863769531 -1079.5667724609375 691.323486328125 -0.39735657539062957 0.72382329849675453 0.56408118613113578 
-153.17729187011719 -1081.9697265625 683.56854248046875 -0.61027180957463378 0.35849453556298633 0.70643470074026005 
-153.1817626953125 -1083.256591796875 684.12738037109375 -0.63030605385301153 0.30172430757052182 0.71531581885020101 
-152.97370910644531 -1083.2840576171875 684.32421875 -0.63306906170353572 0.30091314054108997 0.71321444528521927 
-140.3221435546875 -1079.7501220703125 691.156982421875 -0.35292170975583992 0.71005258781428993 0.60932059650174708 
-141.22824096679688 -1079.9715576171875 690.985107421875 -0.38164560614043674 0.66823806722725609 0.63859573818032922 
-139.20896911621094 -1087.40087890625 698.20721435546875 -0.66584286780403235 0.20319887573424317 0.71788821713052331 
-152.68893432617188 -1083.315673828125 684.59033203125 -0.62001608176982859 0.3110296309079093 0.72030592600927479 
-152.19134521484375 -1083.388671875 685.0626220703125 -0.6349414714531797 0.30996897600440926 0.70765002772814811 
-136.17108154296875 -1088.479248046875 701.3306884765625 -0.62442621769583884 0.31343793937015363 0.7154359208325094 
-173.32305908203125 -1092.4593505859375 669.5162353515625 -0.77661074366340388 0.3862267536859546 0.49769935459450193 
-135.41094970703125 -1088.74658203125 702.1116943359375 -0.62454500504306132 0.31355070195840345 0.71528280699116131 
-173.72824096679688 -1092.1295166015625 668.6287841796875 -0.81154853169982166 0.42046416966325817 0.40570785391122333 
-175.45478820800781 -1094.516845703125 667.70489501953125 -0.80890249518480672 0.42971747166629076 0.40127253560208215 
-145.99565124511719 -1079.4090576171875 687.7613525390625 -0.4925338502471634 0.53895534510713305 0.68332828299519111 
-146.81292724609375 -1079.861083984375 687.58306884765625 -0.51676819315104272 0.50881897295541778 0.68851571318888605 
-146.50650024414062 -1081.1363525390625 688.7554931640625 -0.53950240821640927 0.47348921274466499 0.69623639444023055 
-131.96287536621094 -1089.8900146484375 705.62078857421875 -0.62425916290764083 0.31360173442849681 0.71550992284474302 
-174.08193969726562 -1091.811279296875 667.571044921875 -0.83021061505794247 0.46633766618436245 0.30541695392174129 
-175.70388793945312 -1094.276611328125 666.789794921875 -0.83764390362897989 0.45561528471704776 0.30127629021449359 
-175.53610229492188 -1094.44140625 667.43865966796875 -0.8211631841727921 0.42934897727522237 0.37596606319177522 
-140.78099060058594 -1082.241455078125 693.587646484375 -0.45429836147730818 0.58597103856439692 0.67100740735314912 
-141.47128295898438 -1083.1968994140625 693.89227294921875 -0.58437723828526933 0.57304227191804047 0.57456574729885546 
-142.97563171386719 -1085.978515625 694.2957763671875 -0.62056637946480753 0.33262075950112557 0.71011322972244006 
-159.42936706542969 -1083.436767578125 678.62939453125 -0.62929326962695087 0.30571590192376952 0.71451225889634529 
-169.4483642578125 -1089.369384765625 672.078369140625 -0.64250251238531575 0.29617389011676643 0.7067330106848404 
-158.3756103515625 -1083.2803955078125 679.5054931640625 -0.61878759710921583 0.31505227474746839 0.71961376712806746 
-127.71868896484375 -1091.2103271484375 709.90264892578125 -0.63338371482578293 0.28965145083348764 0.71758421584058485 
-131.58009338378906 -1090.016845703125 706.01043701171875 -0.63358226342100599 0.29015982054253053 0.71720345371522121 
-141.59585571289062 -1100.43798828125 701.3785400390625 -0.6338247517359471 0.2901189682346117 0.71700569618194065 
-137.16278076171875 -1088.1307373046875 700.3116455078125 -0.66584286780403235 0.20319887573424317 0.71788821713052331 
-158.227294921875 -1083.2578125 679.629638671875 -0.64913995422740522 0.3107034152824445 0.69432032057074866 
-173.30532836914062 -1096.1351318359375 671.38983154296875 -0.65684982012728121 0.29979688287024697 0.69185991560433802 
-151.69816589355469 -1097.2877197265625 691.15380859375 -0.63504500531641206 0.29074455549999717 0.71567132447079873 
-142.11811828613281 -1080.2291259765625 690.81268310546875 -0.41302621482640633 0.62316991607695826 0.66412995833858302 
-148.30532836914062 -1084.3079833984375 688.89056396484375 -0.61700929469934573 0.30709723501465602 0.72456250144550605 
-148.5816650390625 -1083.2821044921875 688.20947265625 -0.60714115994251827 0.3532622515724379 0.71174812505381768 
-149.07986450195312 -1084.061279296875 688.10235595703125 -0.63344104183493255 0.29772434316144691 0.71422171768167364 
-174.07572937011719 -1095.5986328125 670.44171142578125 -0.67289479238370176 0.3158938203376494 0.66889737079418976 
-172.52406311035156 -1093.0537109375 670.79437255859375 -0.66304407677752009 0.37959385562829578 0.64519846328047825 
-171.49998474121094 -1092.1339111328125 671.36932373046875 -0.6678877230131911 0.30688630565493497 0.67804629993070586 
-146.28543090820312 -1084.92724609375 690.93408203125 -0.6700564809707461 0.19292461623400536 0.71680151001519365 
-147.46392822265625 -1084.1177978515625 689.55804443359375 -0.61308863725862628 0.33715169061336847 0.71445857849206917 
-147.92475891113281 -1082.4866943359375 688.39288330078125 -0.5972965757226899 0.37103436267415119 0.71103467028333811 
-147.71939086914062 -1084.4942626953125 689.48553466796875 -0.63626215425382304 0.3104723469036933 0.7062417382684183 
-159.76461791992188 -1083.5145263671875 678.36065673828125 -0.6372688255680059 0.29574949365871062 0.71163240578250142 
-168.98036193847656 -1088.83544921875 672.28021240234375 -0.63825765009005531 0.28409547208518798 0.71548370690199148 
-174.04513549804688 -1091.8543701171875 667.72015380859375 -0.83307928499989314 0.44207653229384952 0.33248645761761764 
-147.33515930175781 -1084.6163330078125 689.876708984375 -0.62180111311299679 0.300444610689652 0.72325404363818235 
-173.67904663085938 -1092.1734619140625 668.759765625 -0.78684835379040496 0.39618226800761702 0.47319053102705949 
-146.82029724121094 -1083.2913818359375 689.7420654296875 -0.59013901995816387 0.37070344160397722 0.71715751094566704 
-145.98867797851562 -1085.023681640625 691.2373046875 -0.60462051129645733 0.33392153296967025 0.72313929995457726 
-146.1400146484375 -1082.5484619140625 689.9251708984375 -0.56053105506581613 0.40686665477987699 0.72129360286573696 
-174.00108337402344 -1091.896240234375 667.87274169921875 -0.81384892832460598 0.43303432485483723 0.38746767008668703 
-174.23757934570312 -1091.66259765625 666.96722412109375 -0.83532790150097547 0.44371336786885607 0.32457009127221476 
-175.79812622070312 -1094.1732177734375 666.3243408203125 -0.84009035584000502 0.45254309854299096 0.29908684020819531 
-161.99720764160156 -1080.447509765625 674.79632568359375 -0.63807143185739323 0.40144236438021497 0.65704556609741971 
-160.89321899414062 -1079.2337646484375 675.09454345703125 -0.62643913262753925 0.43833758200011241 0.64454183519702657 
-161.12443542480469 -1078.2408447265625 674.14617919921875 -0.62351792291106967 0.45917158034548217 0.63276129749827292 
-173.88455200195312 -1091.9971923828125 668.20098876953125 -0.81864701831242359 0.41989545003373047 0.39179697605922048 
-160.23123168945312 -1083.6214599609375 677.98724365234375 -0.63731296229809198 0.29574789251853928 0.71159354420741716 
-160.02091979980469 -1082.51513671875 677.70281982421875 -0.63646422295483818 0.33400333525507403 0.69523741623777735 
-152.00543212890625 -1083.1771240234375 685.14068603515625 -0.61848264652972773 0.33164401159047702 0.71238435238132469 
-173.68858337402344 -1095.87353515625 670.93646240234375 -0.65021914222800892 0.29925269793286746 0.69832864029779873 
-151.40957641601562 -1082.3773193359375 685.3140869140625 -0.60799782146052606 0.36065009504234397 0.70729778597504656 
-151.43727111816406 -1083.499755859375 685.779052734375 -0.62991767619103456 0.29894409041516307 0.71682365476310672 
-151.99276733398438 -1083.41845703125 685.2506103515625 -0.63437837549759857 0.29089093290758705 0.71620286361699326 
-144.51496887207031 -1111.7850341796875 703.39422607421875 -0.63366293590402745 0.29038923219255669 0.71703931376745711 
-145.98947143554688 -1111.225341796875 701.86383056640625 -0.63399194441101925 0.29046360334480004 0.71671829162781231 
-143.19453430175781 -1079.4884033203125 689.46197509765625 -0.3806887468354383 0.64369241542717792 0.66387962188516436 
-144.07078552246094 -1079.778076171875 689.28826904296875 -0.40923712432766834 0.61748378500837464 0.67174306942740525 
-144.91323852539062 -1080.13720703125 689.1141357421875 -0.46480064782411645 0.5607842749673877 0.68518709469135708 
-144.63748168945312 -1081.343994140625 690.28887939453125 -0.52930396404316982 0.49496816924733167 0.68908912709469705 
-150.86555480957031 -1077.812744140625 682.85223388671875 -0.54259585566440149 0.50393787200680207 0.67203895614247844 
-151.63140869140625 -1078.3245849609375 682.67669677734375 -0.55473396763833382 0.48139533262658174 0.67862269257192898 
-151.25558471679688 -1079.874755859375 684.08355712890625 -0.57307406137655259 0.44330450267123944 0.68925121551491531 
-143.91824340820312 -1084.137939453125 692.6285400390625 -0.54372665357450967 0.43136609398165088 0.71991986995475998 
-150.53463745117188 -1079.25927734375 684.26177978515625 -0.5702672472945447 0.44813884125911718 0.68845250062588792 
-150.79188537597656 -1081.6282958984375 685.4874267578125 -0.59301762348315568 0.37764659923731453 0.71113510975262739 
-143.11602783203125 -1085.93505859375 694.15399169921875 -0.5996002043056734 0.32315194722661722 0.73215600386819235 
-143.81318664550781 -1085.717529296875 693.44683837890625 -0.62621214805392134 0.29698437399580568 0.72087351680583556 
-169.18807983398438 -1089.06201171875 672.18658447265625 -0.6423896088160379 0.29543573409440477 0.70714448135107311 
-169.1163330078125 -1088.9813232421875 672.21795654296875 -0.64171950767961949 0.29542705056368651 0.70775626543229408 
-168.94404602050781 -1087.9512939453125 671.93511962890625 -0.663314970733897 0.32458134151154411 0.67428495633734531 
-164.54698181152344 -1085.2803955078125 674.80224609375 -0.64313950402466769 0.29118366531372353 0.708225706549381 
-163.97712707519531 -1082.8826904296875 674.2392578125 -0.64713152141599151 0.34698212355541674 0.67884033463164062 
-150.8916015625 -1083.607177734375 686.30780029296875 -0.62047573810391288 0.31077663242922443 0.72001926582582154 
-145.73052978515625 -1080.58935546875 688.93585205078125 -0.51791860656062527 0.49811075686707967 0.69544661252435847 
-145.41120910644531 -1081.8944091796875 690.1083984375 -0.54883213707312828 0.44642769699883472 0.70674294950007077 
-163.45353698730469 -1084.7344970703125 675.5587158203125 -0.63891242978001095 0.29985544798492031 0.70843321307400975 
-163.64395141601562 -1084.0716552734375 675.10650634765625 -0.64881526320398342 0.31852224871332352 0.69107331833037322 
-163.93951416015625 -1084.9664306640625 675.2181396484375 -0.63840283609197468 0.29394854361644729 0.71136212478279504 
-150.32382202148438 -1083.2864990234375 686.6771240234375 -0.61472181291165207 0.33571747961171933 0.71373024779237626 
-170.72799682617188 -1090.9871826171875 671.5936279296875 -0.64160060926454099 0.29501393410196602 0.70803632454631216 
-170.73541259765625 -1090.5341796875 671.39532470703125 -0.66091554536047081 0.31613669220312884 0.68062341551237837 
-171.45936584472656 -1092.0701904296875 671.380859375 -0.66091716769703313 0.30367871303214933 0.68627089162696464 
-162.34849548339844 -1084.0106201171875 676.25213623046875 -0.64084087388825051 0.31217597903186578 0.70133382384542053 
-162.69804382324219 -1082.781982421875 675.3848876953125 -0.6433253391014303 0.33558819091404579 0.68812286271353285 
-162.5888671875 -1084.3421630859375 676.17181396484375 -0.64189533276145727 0.2860569914492751 0.7114364198029558 
-144.58363342285156 -1084.93994140625 692.44317626953125 -0.57011825507100045 0.3792905531987093 0.72876872290803929 
-162.28489685058594 -1084.2359619140625 676.40045166015625 -0.63724770301053046 0.29562030282331203 0.71170499616516392 
-172.90550231933594 -1091.7791748046875 669.65252685546875 -0.70620230497215442 0.40231812248658116 0.58259628626596016 
-162.15545654296875 -1084.191162109375 676.49774169921875 -0.63828369383079131 0.29809645712913513 0.70974109958264242 
-144.53903198242188 -1085.491943359375 692.71148681640625 -0.63734018042889229 0.2835249236439219 0.71652711887518628 
-145.26789855957031 -1085.2642822265625 691.97369384765625 -0.60288280041134268 0.30672332010244208 0.73651417764596494 
-145.74668884277344 -1085.0968017578125 691.48175048828125 -0.61446196867130243 0.34001453494340861 0.71191755497656106 
-147.06965637207031 -1078.6868896484375 686.38262939453125 -0.49005897558983724 0.55205152439793115 0.67459715004864929 
-147.88177490234375 -1079.126220703125 686.20697021484375 -0.51255183848961106 0.52337065013010542 0.68071563478688391 
-147.58433532714844 -1080.3924560546875 687.40447998046875 -0.53405138183999279 0.48869954150261347 0.68989990555871916 
-162.73558044433594 -1084.421630859375 676.07379150390625 -0.6356672179939219 0.28882911449923532 0.71589449682579309 
-147.23419189453125 -1081.769775390625 688.5753173828125 -0.57396665978998207 0.41824569135425149 0.70401194245064846 
-146.67875671386719 -1084.824951171875 690.5445556640625 -0.62976293582017773 0.30369014369718389 0.71496219570571307 
-166.57469177246094 -1086.6187744140625 673.532470703125 -0.64332666076266176 0.30443182035939537 0.70246143972792419 
-148.65974426269531 -1079.6439208984375 686.02899169921875 -0.55020274715587092 0.46845623781277929 0.69124936909658696 
-148.31990051269531 -1081.0079345703125 687.223876953125 -0.56763415922002836 0.43560679585394702 0.69859729507952517 
-161.7110595703125 -1093.9737548828125 680.895263671875 -0.63525730409434089 0.28887499914600673 0.71623975906339121 
-146.89698791503906 -1084.7288818359375 690.3115234375 -0.62980741456098255 0.30309795511080972 0.71517427957921997 
-164.80828857421875 -1085.4437255859375 674.6358642578125 -0.63685561170708271 0.28613337815363704 0.71592081946510344 
-150.33294677734375 -1083.71875 686.849365234375 -0.63380918381902795 0.2936600586522487 0.71557647282384529 
-149.87130737304688 -1083.854736328125 687.31561279296875 -0.63547689016134279 0.29310890170937232 0.71432226187456471 
-151.40480041503906 -1083.5045166015625 685.8095703125 -0.6347742903451653 0.28839462352373324 0.71686131255591967 
-154.95036315917969 -1083.1292724609375 682.50048828125 -0.6289278321515468 0.30467598071267271 0.71527779828674032 
-154.56829833984375 -1083.1358642578125 682.8443603515625 -0.63347759210719146 0.30190667156154599 0.71243140158523588 
-157.81837463378906 -1083.2174072265625 679.97833251953125 -0.63563288131877904 0.29936574725275428 0.71158343822645764 
-148.98204040527344 -1078.2176513671875 684.618408203125 -0.52338389143179709 0.52027616600621307 0.67481998582998726 
-149.77398681640625 -1078.7027587890625 684.44085693359375 -0.53972965272943585 0.49463327635496313 0.68119734577207314 
-149.40380859375 -1080.2376708984375 685.84869384765625 -0.55637971269814679 0.45982553318609076 0.69209977194625261 
-149.02133178710938 -1081.700927734375 687.04254150390625 -0.5916808618071504 0.38910006380498197 0.70605587464315223 
-171.59974670410156 -1086.2191162109375 666.59466552734375 -0.85484260534396639 0.44852647893958691 0.26089867339409034 
-172.42355346679688 -1087.7318115234375 666.31646728515625 -0.873615359065543 0.42758503242550672 0.23230851136034744 
-172.40216064453125 -1088.36181640625 667.52587890625 -0.85569963402025373 0.41764115289373316 0.3055388743633079 
-171.56330871582031 -1086.8843994140625 667.80316162109375 -0.83072102190279917 0.43617857014723299 0.34590582347379539 
-172.2828369140625 -1089.2193603515625 668.73016357421875 -0.80703337965656807 0.38988360306561559 0.44349509600521064 
-150.11669921875 -1080.9039306640625 685.6676025390625 -0.58310276327003596 0.41273661831328579 0.69974256078229335 
-149.69194030761719 -1082.4661865234375 686.8594970703125 -0.60114425902094049 0.36705626107233535 0.70985581708806345 
-149.20980834960938 -1084.019775390625 687.96954345703125 -0.61944844517705289 0.32471068684152193 0.71473533116716625 
-149.76486206054688 -1083.843505859375 687.40570068359375 -0.62731237416460883 0.30677064142694505 0.71580092119140393 
-167.13052368164062 -1085.4068603515625 672.47564697265625 -0.66377121619899737 0.34362023717206552 0.66432891337914635 
-167.47276306152344 -1087.35498046875 673.0279541015625 -0.64171280001026776 0.29552856040058123 0.70771996742393961 
-168.41896057128906 -1088.247802734375 672.5440673828125 -0.64054149159735707 0.29218221138769462 0.71016628538028281 
-168.27142333984375 -1088.098876953125 672.615966796875 -0.64213669696740072 0.29729880849938223 0.70659315088149866 
-167.61294555664062 -1087.48046875 672.95318603515625 -0.63984833450630618 0.28819552658388409 0.71241662479657497 
-153.39181518554688 -1077.9329833984375 680.92919921875 -0.57688900236460539 0.45727774421722822 0.67682800148514366 
-154.09225463867188 -1078.4935302734375 680.76068115234375 -0.58562840882800216 0.4386148608495099 0.68165707699366496 
-153.68025207519531 -1080.1280517578125 682.1663818359375 -0.59768682347796409 0.40426202275008238 0.69234577921933838 
-154.77070617675781 -1079.1041259765625 680.5899658203125 -0.60593571381112421 0.41642004838966185 0.67781727185677032 
-154.3187255859375 -1080.8284912109375 681.994140625 -0.60348551194478151 0.37644828494031496 0.70291672738542821 
-153.77561950683594 -1082.764404296875 683.393798828125 -0.63349555449762174 0.31738145802641837 0.70565741867621246 
-153.77177429199219 -1083.2049560546875 683.58160400390625 -0.63490548572264005 0.29456114809729123 0.71423298315808981 
-155.17672729492188 -1077.3912353515625 678.9886474609375 -0.58199408042001555 0.4651385113235722 0.667030026040621 
-155.87786865234375 -1077.9501953125 678.8199462890625 -0.58972207567856727 0.44796131470015194 0.67198105180836276 
-155.42982482910156 -1079.7596435546875 680.41937255859375 -0.59877165139377775 0.41294622267234243 0.68625645837967353 
-154.93867492675781 -1081.5740966796875 681.8209228515625 -0.61115440500915552 0.35929502464554425 0.70526404878092497 
-154.36140441894531 -1083.154541015625 683.03521728515625 -0.62322711043143941 0.31505998424093551 0.7157689397797169 
-156.55992126464844 -1078.5521240234375 678.64990234375 -0.60551830724253897 0.42093996487876817 0.67539405206293579 
-156.06983947753906 -1080.4581298828125 680.24737548828125 -0.60956464428726775 0.38310951435236579 0.69401588198515396 
-155.54141235351562 -1082.3597412109375 681.64727783203125 -0.62094551591694536 0.33946884736584693 0.70653207140988428 
-173.23918151855469 -1089.265869140625 666.037109375 -0.86912913571973704 0.43720016229433289 0.23123702889648065 
-173.22578430175781 -1089.8790283203125 667.24676513671875 -0.84162549580092738 0.43287408468626126 0.32293428375580485 
-155.53764343261719 -1083.1177978515625 681.9716796875 -0.63553785955999542 0.29649912535053052 0.71286737737974104 
-156.77847290039062 -1077.6260986328125 677.77716064453125 -0.59279364197473139 0.46250725093860079 0.65930474051348376 
-157.46336364746094 -1078.2218017578125 677.60638427734375 -0.59886653495415332 0.4471953729196057 0.66436072411853231 
-157.22367858886719 -1079.197021484375 678.4788818359375 -0.6125434157041133 0.41339506717368296 0.67371736085246015 
-156.69300842285156 -1081.1962890625 680.07415771484375 -0.61276289500052128 0.36830041988666479 0.69919699314419725 
-156.45785522460938 -1083.119873046875 681.152099609375 -0.63374234691996989 0.30504624202142472 0.71085682661769156 
-156.19493103027344 -1083.1158447265625 681.38580322265625 -0.63180676307477068 0.30480585176742764 0.71268057842297994 
-156.12608337402344 -1083.105712890625 681.4425048828125 -0.62792360274980707 0.32286426623320558 0.70814589930281757 
-158.13143920898438 -1078.8564453125 677.4359130859375 -0.61590750178166664 0.4151924238317784 0.66953207573779416 
-157.87167358398438 -1079.878662109375 678.30718994140625 -0.62449585382741868 0.38417488227696606 0.68001072666528029 
-157.30078125 -1081.97021484375 679.90081787109375 -0.62396013568821818 0.35184504274838219 0.69776702054864248 
-156.71502685546875 -1083.1341552734375 680.928955078125 -0.62654615372414368 0.30733362315916007 0.71623038285829865 
-157.40957641601562 -1083.174072265625 680.32489013671875 -0.63569271332838628 0.29938386721127852 0.71152236386132928 
-158.35679626464844 -1077.9141845703125 676.5638427734375 -0.61140003906611451 0.43595197907191452 0.66040583293398825 
-159.53009033203125 -1079.039306640625 676.26318359375 -0.62307403634523106 0.41495065926020469 0.66301937800639221 
-159.27139282226562 -1080.0596923828125 677.1334228515625 -0.62279849945467625 0.39570501095792088 0.67493671805569699 
-158.97488403320312 -1081.164306640625 678.00311279296875 -0.62946849139075434 0.36097002109548415 0.68809160888400145 
-159.95393371582031 -1077.1795654296875 674.44012451171875 -0.61527318041534707 0.48044190214879395 0.62499159364045231 
-159.75245666503906 -1078.1029052734375 675.3896484375 -0.61865934746966322 0.45737788405564006 0.63880050325997406 
-162.25755310058594 -1079.3880615234375 673.8499755859375 -0.64239719324107425 0.40445644440671774 0.65095378537486481 
-163.29171752929688 -1080.5299072265625 673.5706787109375 -0.64482481721709306 0.39049162830133827 0.65705193350869318 
-163.00637817382812 -1081.6495361328125 674.51611328125 -0.64381057591559188 0.37109981360836314 0.66917327403227334 
-164.28729248046875 -1081.7066650390625 673.29534912109375 -0.65699482429624623 0.3777580214384641 0.65242369522177956 
-164.60313415527344 -1080.3988037109375 672.099365234375 -0.66241114589262606 0.40276238981142209 0.63165966402059426 
-165.60406494140625 -1081.5633544921875 671.823486328125 -0.67788835356869659 0.403457248098473 0.61456458493207122 
-165.26422119140625 -1082.9273681640625 673.01837158203125 -0.65566943320294402 0.36215751010893726 0.66252511819177473 
-164.37628173828125 -1085.1837158203125 674.91595458984375 -0.63849096959348783 0.29234792812296706 0.71194239280279992 
-165.85270690917969 -1080.4088134765625 670.62493896484375 -0.69071203594160979 0.43193972168596573 0.57995254998598533 
-167.7901611328125 -1082.7252197265625 670.0860595703125 -0.71413731811495629 0.44481940229669853 0.54050308992269924 
-167.51194763183594 -1083.9454345703125 671.2828369140625 -0.68247272058018349 0.39045957313994478 0.61787725917633096 
-160.27507019042969 -1104.3389892578125 686.40081787109375 -0.63565310654548146 0.29129282174021465 0.71490812006977678 
-161.6844482421875 -1103.519775390625 684.8126220703125 -0.63617327462516049 0.29139346746421474 0.71440423555007138 
-167.96485900878906 -1081.7421875 668.8834228515625 -0.74630032414213177 0.45833706072568464 0.48266237159187053 
-169.81782531738281 -1084.1939697265625 668.3455810546875 -0.78694795765285908 0.46443977804153641 0.40621251152410642 
-169.644287109375 -1085.1763916015625 669.54779052734375 -0.74043953598437118 0.41658694964351944 0.52745104695882139 
-155.61314392089844 -1106.8319091796875 691.5576171875 -0.63521777330024187 0.29083466551944059 0.71548136091422931 
-153.42190551757812 -1107.898193359375 693.93438720703125 -0.63461986949807181 0.29074546477850088 0.71604797042445689 
-169.35433959960938 -1086.42578125 670.7442626953125 -0.68635841760013983 0.37444872825080699 0.62345831657039041 
-150.85076904296875 -1109.13330078125 696.71331787109375 -0.63425404818450071 0.2907173735022654 0.71638342464459448 
-131.41209411621094 -1103.408447265625 711.5765380859375 -0.63344781887236112 0.29030405414185545 0.71726384051801395 
-141.02670288085938 -1113.0908203125 707.0042724609375 -0.63344781887236112 0.29030405414185545 0.71726384051801395 
-135.9654541015625 -1114.715576171875 712.13043212890625 -0.63339161622372209 0.29020608880629933 0.7173531114571482 
-169.88302612304688 -1083.4632568359375 667.13836669921875 -0.83014963723400026 0.46692988129529966 0.30467698592741632 
-171.4190673828125 -1087.79638671875 669.0068359375 -0.77788238865733994 0.40078651620115496 0.48401359262741012 
-171.14894104003906 -1089.0010986328125 670.2044677734375 -0.71221996900447848 0.35499434015815468 0.60557553963724153 
-169.95382690429688 -1089.965087890625 671.8692626953125 -0.64161427383526637 0.29597093760458831 0.70762442559899286 
-127.32540130615234 -1091.32373046875 710.29534912109375 -0.63341410165480749 0.28980139804630245 0.71749684704202144 
-172.03851318359375 -1090.3636474609375 669.92919921875 -0.73459230332133518 0.35237727758964055 0.57983135663705609 
-145.05850219726562 -1085.3297119140625 692.185546875 -0.63001039281650029 0.30167706344327794 0.71559615310273961 
-173.12188720703125 -1090.7000732421875 668.45263671875 -0.81088354457341039 0.39843979852664246 0.42861824983324093 
-174.08763122558594 -1091.382080078125 666.96343994140625 -0.84117797999649413 0.4581013579505539 0.2873373484475627 
-150.71078491210938 -1083.64306640625 686.483642578125 -0.63442828695884046 0.2949086535253454 0.7145135651492831 
-164.84013366699219 -1101.6707763671875 681.24530029296875 -0.63714153169687093 0.29146575128105767 0.71351130643959237 
-161.09321594238281 -1083.8197021484375 677.29742431640625 -0.63818110162458208 0.29023148933071435 0.71308524324242628 
-169.44209289550781 -1098.7548828125 675.93511962890625 -0.63881036385075785 0.29322600916559138 0.71129447248357192 
-169.31011962890625 -1098.8433837890625 676.09027099609375 -0.63805797923377305 0.29313295577368093 0.71200778463124914 
3 0 1 2 
3 3 4 5 
3 6 5 4 
3 7 8 9 
3 10 11 12 
3 6 13 14 
3 4 15 6 
3 11 16 17 
3 13 6 15 
3 18 19 20 
3 5 21 3 
3 5 6 22 
3 23 24 25 
3 26 27 6 
3 28 29 30 
3 21 5 2 
3 31 32 33 
3 34 21 35 
3 36 37 38 
3 33 39 31 
3 21 34 40 
3 36 41 37 
3 39 33 42 
3 43 44 45 
3 40 3 21 
3 46 47 48 
3 42 49 39 
3 45 50 43 
3 3 40 51 
3 52 48 47 
3 53 34 12 
3 38 54 36 
3 14 55 26 
3 56 57 58 
3 59 60 1 
3 61 34 53 
3 62 63 45 
3 26 1 27 
3 64 40 34 
3 54 38 65 
3 66 40 64 
3 67 68 54 
3 69 70 71 
3 72 51 40 
3 73 74 75 
3 0 2 5 
3 6 14 26 
3 5 22 76 
3 21 2 77 
3 34 35 10 
3 53 12 78 
3 79 80 81 
3 82 83 84 
3 64 34 85 
3 85 34 61 
3 81 80 86 
3 84 83 72 
3 10 12 34 
3 72 40 66 
3 25 87 23 
3 84 85 88 
3 77 16 21 
3 89 7 11 
3 90 91 92 
3 93 25 94 
3 23 87 95 
3 96 61 53 
3 16 35 21 
3 11 17 89 
3 94 48 93 
3 97 98 99 
3 47 46 37 
3 100 101 79 
3 76 0 5 
3 27 22 6 
3 61 96 85 
3 35 11 10 
3 102 73 75 
3 103 97 99 
3 54 104 67 
3 105 106 107 
3 75 108 102 
3 27 1 22 
3 109 110 73 
3 111 112 113 
3 74 73 110 
3 112 111 32 
3 75 67 114 
3 32 31 112 
3 68 67 75 
3 115 100 116 
3 50 45 117 
3 25 93 118 
3 117 119 50 
3 48 52 93 
3 120 117 121 
3 37 41 47 
3 55 59 26 
3 85 96 88 
3 60 89 17 
3 122 84 123 
3 17 1 60 
3 1 17 77 
3 124 125 8 
3 8 7 124 
3 9 11 7 
3 12 9 78 
3 125 126 127 
3 127 8 125 
3 128 129 130 
3 8 127 131 
3 130 132 128 
3 131 9 8 
3 132 130 133 
3 134 131 135 
3 136 137 138 
3 20 139 140 
3 141 119 120 
3 126 142 143 
3 136 138 80 
3 144 145 146 
3 141 147 133 
3 143 127 126 
3 148 149 150 
3 151 152 153 
3 127 143 154 
3 155 151 153 
3 154 131 127 
3 94 156 48 
3 157 33 155 
3 135 154 158 
3 71 142 69 
3 142 71 107 
3 107 143 142 
3 159 107 160 
3 159 154 143 
3 152 145 144 
3 161 162 163 
3 152 144 164 
3 163 70 161 
3 70 163 165 
3 165 71 70 
3 71 165 105 
3 105 107 71 
3 105 166 96 
3 167 30 29 
3 162 168 169 
3 103 170 171 
3 19 172 20 
3 169 163 162 
3 173 170 174 
3 163 169 98 
3 170 175 120 
3 98 165 163 
3 57 170 58 
3 165 98 97 
3 176 170 177 
3 97 105 165 
3 170 178 80 
3 105 97 103 
3 136 80 79 
3 105 103 171 
3 179 180 181 
3 181 168 179 
3 168 181 182 
3 182 169 168 
3 169 182 91 
3 183 184 185 
3 91 98 169 
3 185 186 183 
3 98 91 90 
3 186 185 187 
3 90 99 98 
3 180 132 188 
3 188 181 180 
3 181 188 189 
3 189 182 181 
3 190 189 191 
3 190 91 182 
3 91 190 92 
3 133 188 132 
3 188 133 147 
3 147 189 188 
3 147 173 174 
3 30 192 193 
3 129 43 50 
3 194 195 138 
3 30 193 28 
3 50 130 129 
3 194 138 101 
3 30 167 20 
3 130 50 119 
3 196 193 192 
3 20 167 18 
3 119 133 130 
3 197 198 199 
3 199 44 197 
3 44 199 56 
3 56 45 44 
3 198 200 201 
3 201 199 198 
3 199 201 202 
3 202 56 199 
3 57 202 203 
3 58 170 62 
3 204 205 206 
3 62 170 63 
3 206 200 204 
3 63 170 121 
3 200 206 207 
3 121 170 120 
3 207 201 200 
3 177 170 208 
3 208 207 177 
3 208 170 203 
3 208 202 201 
3 205 209 210 
3 210 206 205 
3 206 210 211 
3 211 207 206 
3 184 212 213 
3 176 211 214 
3 215 216 217 
3 217 209 215 
3 209 217 218 
3 218 210 209 
3 218 219 220 
3 221 211 210 
3 216 222 223 
3 223 217 216 
3 217 223 224 
3 224 218 217 
3 225 224 226 
3 227 228 229 
3 229 222 227 
3 222 229 230 
3 230 223 222 
3 81 223 230 
3 81 86 223 
3 16 11 35 
3 224 86 178 
3 218 221 210 
3 231 113 112 
3 221 214 211 
3 112 232 231 
3 211 176 207 
3 232 112 31 
3 177 207 176 
3 31 228 232 
3 207 208 201 
3 228 31 39 
3 208 203 202 
3 39 229 228 
3 202 57 56 
3 229 39 116 
3 56 62 45 
3 116 230 229 
3 117 45 63 
3 79 116 100 
3 233 234 235 
3 235 111 233 
3 111 235 152 
3 152 32 111 
3 32 152 151 
3 151 33 32 
3 33 151 155 
3 234 236 140 
3 140 235 234 
3 235 140 145 
3 145 152 235 
3 237 238 239 
3 239 236 237 
3 236 239 20 
3 20 140 236 
3 139 20 172 
3 139 145 140 
3 145 139 240 
3 241 242 243 
3 243 238 241 
3 238 243 192 
3 192 239 238 
3 239 192 30 
3 30 20 239 
3 64 85 84 
3 244 88 245 
3 246 247 248 
3 244 249 88 
3 248 242 246 
3 88 250 84 
3 242 248 251 
3 252 84 250 
3 251 243 242 
3 252 123 84 
3 243 251 138 
3 174 170 191 
3 84 122 253 
3 138 192 243 
3 191 170 190 
3 254 253 122 
3 138 137 101 
3 190 170 92 
3 254 255 253 
3 192 195 196 
3 29 28 167 
3 256 183 186 
3 196 18 193 
3 186 247 256 
3 18 196 19 
3 247 186 257 
3 19 196 172 
3 257 248 247 
3 172 196 139 
3 248 257 258 
3 240 194 146 
3 258 251 248 
3 146 194 144 
3 251 258 149 
3 164 101 153 
3 149 138 251 
3 153 101 155 
3 259 149 148 
3 155 101 157 
3 253 260 84 
3 138 259 80 
3 187 257 186 
3 72 66 84 
3 257 187 261 
3 134 53 78 
3 261 258 257 
3 159 96 53 
3 258 261 24 
3 159 53 262 
3 24 149 258 
3 262 53 158 
3 149 24 23 
3 158 53 135 
3 149 95 150 
3 213 185 184 
3 185 213 263 
3 263 187 185 
3 187 263 156 
3 156 261 187 
3 48 156 46 
3 94 24 261 
3 25 24 94 
3 264 213 212 
3 213 264 102 
3 108 114 213 
3 104 65 263 
3 37 156 38 
3 58 62 56 
3 73 264 109 
3 108 213 102 
3 263 213 114 
3 220 221 218 
3 67 263 114 
3 156 263 65 
3 178 226 224 
3 38 156 65 
3 156 94 261 
3 164 153 152 
3 95 149 23 
3 240 146 145 
3 149 259 138 
3 138 195 192 
3 42 33 157 
3 46 156 37 
3 116 39 49 
3 49 115 116 
3 116 79 230 
3 81 230 79 
3 224 223 86 
3 224 225 218 
3 219 218 225 
3 63 121 117 
3 117 120 119 
3 119 141 133 
3 141 265 147 
3 265 173 147 
3 147 191 189 
3 189 190 182 
3 160 107 106 
3 107 159 143 
3 159 262 154 
3 262 158 154 
3 154 135 131 
3 131 134 9 
3 78 9 134 
3 9 12 11 
3 108 75 114 
3 77 17 16 
3 104 54 65 
3 2 1 77 
3 76 1 0 
3 22 1 76 
3 26 59 1 
3 148 170 259 
3 219 170 220 
3 245 170 266 
3 166 88 96 
3 250 88 249 
3 84 66 64 
3 194 101 164 
3 195 240 196 
3 167 28 18 
3 139 196 240 
3 144 194 164 
3 101 267 157 
3 137 79 101 
3 86 80 178 
3 259 170 80 
3 148 87 268 
3 178 170 226 
3 148 150 87 
3 226 170 225 
3 118 87 25 
3 225 170 219 
3 95 87 150 
3 49 267 101 
3 268 170 148 
3 49 101 115 
3 269 170 268 
3 115 101 100 
3 269 266 170 
3 171 88 166 
3 170 245 88 
3 136 79 137 
3 82 84 260 
3 88 171 170 
3 96 106 105 
3 171 166 105 
3 174 191 147 
3 102 264 73 
3 104 263 67 
3 92 170 90 
3 90 170 99 
3 99 170 103 
3 141 175 170 
3 141 170 265 
3 265 170 173 
3 203 170 57 
3 220 170 221 
3 221 170 214 
3 214 170 176 
3 194 240 195 
3 193 18 28 
3 135 53 134 
