ply
format ascii 1.0
comment Generated by the CGAL library
element vertex 19
property double x
property double y
property double z
property double nx
property double ny
property double nz
element face 15
property list uchar int vertex_indices
end_header
-672.48565673828125 744.99517822265625 602.18499755859375 -0.78473298677426939 0.59307324991399835 -0.18016175982927754 
-672.22344970703125 745.1685791015625 601.5870361328125 -0.78530042215523144 0.59477838240719128 -0.17187763898744962 
-672.6953125 744.556396484375 601.4781494140625 -0.76848380381399617 0.62028201597087873 -0.15710780992259479 
-672.41473388671875 745.1964111328125 602.4775390625 -0.79805072493171636 0.5616880244861403 -0.21822374661071808 
-676.42822265625 741.041015625 606.44610595703125 -0.7984137465566512 0.55933796332993946 -0.22288232789363738 
-672.2542724609375 746.04901123046875 603.58148193359375 -0.81719504359629169 0.46566480335285876 -0.33963002170008211 
-676.2510986328125 741.930908203125 607.53912353515625 -0.81702654818105536 0.46400072283445065 -0.34230242297777697 
-672.2713623046875 747.0006103515625 604.60736083984375 -0.81931631143632311 0.41347674171219101 -0.39718731837440152 
-671.212890625 747.06781005859375 602.4307861328125 -0.82614663133002686 0.45792179656666371 -0.32831291746016905 
-671.68475341796875 746.0689697265625 602.0179443359375 -0.8113952346770773 0.53613753451239088 -0.23279672942355847 
-672.291259765625 745.746337890625 603.22039794921875 -0.81301273037257371 0.50119162449617172 -0.29633976410029944 
-676.785888671875 740.2767333984375 605.3037109375 -0.78133630185355529 0.60404865924975593 -0.1569675146786183 
-672.39642333984375 745.2564697265625 602.56072998046875 -0.80345671367191795 0.5474910009509143 -0.23390364070122471 
-672.74981689453125 744.46795654296875 601.32391357421875 -0.78106343321071736 0.60488688492159326 -0.15508632999377689 
-672.2469482421875 746.68292236328125 604.287109375 -0.8249710080331778 0.39168978486794626 -0.40743336674212677 
-670.822509765625 748.14593505859375 602.80938720703125 -0.8249710080331778 0.39168978486794626 -0.40743336674212677 
-672.038330078125 747.70941162109375 604.71875 -0.83442467062069359 0.34895826516134743 -0.42657191449406245 
-672.2740478515625 747.02838134765625 604.6331787109375 -0.84500590781784013 0.3439250132788001 -0.4094882183825625 
-672.24554443359375 746.18865966796875 603.74371337890625 -0.82469075038436324 0.44234467567242508 -0.35244340557702708 
3 0 1 2 
3 3 4 5 
3 5 6 7 
3 4 6 5 
3 8 9 10 
3 9 1 0 
3 11 4 3 
3 10 9 12 
3 3 13 11 
3 8 14 15 
3 16 14 17 
3 14 16 15 
3 14 8 18 
3 12 9 0 
3 10 18 8 
