/* XPM */
static const char *planar_map_icon[] = {
/* width height num_colors chars_per_pixel */
"    33    33        3            1",
/* colors */
". c #ffffff",
"# c #00ff00",
"a c #ff0000",
/* pixels */
".................................",
".................................",
".................................",
".................................",
".................########........",
"................##.......aa......",
"...............#.........aa......",
".........######..................",
"........#.....###................",
".......#.....#..##...............",
".......#....aa...aa..............",
"......aa....aa...aa..............",
"......aa.....#...................",
"...........##########............",
"..........##..#.....##...........",
".........#....##......#...aa.....",
"........#......##......#.#aa.....",
".......#.........########........",
".......#................#........",
"......#..................#.......",
"......#.................aa.......",
".....aa.................aa.......",
".....aa..........................",
"......#..........................",
"......#..........................",
".......#.........................",
".......#.........................",
"........#........................",
".........aa......................",
".........aa......................",
".................................",
".................................",
"................................."
};
