/* XPM */
static const char *locate_xpm[] = {
/* width height ncolors chars_per_pixel */
"32 32 15 1",
/* colors */
"  c #000000",
". c #A9A9A9",
"X c #A3A3A3",
"o c #959595",
"O c #696969",
"+ c #FF0000",
"@ c #9C9C9C",
"# c #8E8E8E",
"$ c #808080",
"% c #7E7E7E",
"& c #4E4E4E",
"* c None",
"= c #3A3A3A",
"- c #B5B5B5",
"; c None",
/* pixels */
"********************************",
"********************************",
"***************  ***************",
"***************  ***************",
"***************  ***************",
"***************  ***************",
"***************  ***************",
"************#      #************",
"**********o  =@  @=  o**********",
"*********% =-**  **-= %*********",
"********o &****  ****& o********",
"********  -****$$****-  ********",
"*******o %************% o*******",
"*******O X************X O*******",
"*******  ******++******  *******",
"**          $*++++*$          **",
"**          $*++++*$          **",
"*******  ******++******  *******",
"*******O .************X O*******",
"*******o %************% o*******",
"********= -****$$****-  ********",
"********o &****  ****& o********",
"*********% =-**  **-= %*********",
"**********o  =@  @=  o**********",
"************#      #************",
"***************  ***************",
"***************  ***************",
"***************  ***************",
"***************  ***************",
"***************  ***************",
"********************************",
"********************************"
};
