<?xml version="1.0" standalone="no"?>
<!DOCTYPE svg PUBLIC "-//W3C//DTD SVG 1.1//EN"
"http://www.w3.org/Graphics/SVG/1.1/DTD/svg11.dtd">
<!-- Creator: fig2dev Version 3.2.6 -->
<!-- CreationDate: Mon Nov 21 08:47:43 2016 -->
<!-- Magnification: 1.050 -->
<svg	xmlns="http://www.w3.org/2000/svg"
	xmlns:xlink="http://www.w3.org/1999/xlink"
	width="8.8in" height="4.4in"
	viewBox="-5207 18 10518 5254">
<g style="stroke-width:.025in; fill:none">
<!-- Line -->
<polyline points="2376,1658
1177,1580
" style="stroke:#000000;stroke-width:32;
stroke-linejoin:round; stroke-linecap:butt;
"/>
<!-- Line -->
<polyline points="1560,3317
2747,3412
" style="stroke:#000000;stroke-width:32;
stroke-linejoin:round; stroke-linecap:butt;
"/>
<!-- Line -->
<polyline points="1827,1623
1597,1881
" style="stroke:#a0a0a0;stroke-width:16;
stroke-linejoin:round; stroke-linecap:butt;
"/>
<!-- Line -->
<polyline points="2149,3353
1718,3187
" style="stroke:#a0a0a0;stroke-width:16;
stroke-linejoin:round; stroke-linecap:butt;
"/>
<!-- Line -->
<polyline points="1177,1580
2330,349
" style="stroke:#000000;stroke-width:32;
stroke-linejoin:round; stroke-linecap:butt;
"/>
<!-- Line -->
<polyline points="3720,4339
1581,3323
" style="stroke:#000000;stroke-width:32;
stroke-linejoin:round; stroke-linecap:butt;
"/>
<!-- Line -->
<polyline points="941,1834
2272,1930
" style="stroke:#000000;stroke-width:32;
stroke-linejoin:round; stroke-linecap:butt;
"/>
<!-- Line -->
<polyline points="1614,1886
1718,3187
" style="stroke:#0000ff;stroke-width:16;
stroke-linejoin:round; stroke-linecap:butt;
"/>
<!-- Line -->
<polyline points="2395,3260
1048,3133
" style="stroke:#000000;stroke-width:32;
stroke-linejoin:round; stroke-linecap:butt;
"/>
<!-- Line -->
<polyline points="1564,834
1805,902
" style="stroke:#a0a0a0;stroke-width:16;
stroke-linejoin:round; stroke-linecap:butt;
"/>
<!-- Line -->
<polyline points="2625,3807
2504,3912
" style="stroke:#a0a0a0;stroke-width:16;
stroke-linejoin:round; stroke-linecap:butt;
"/>
<!-- Line -->
<polyline points="2339,356
2376,1672
" style="stroke:#000000;stroke-width:32;
stroke-linejoin:round; stroke-linecap:butt;
"/>
<!-- Line -->
<polyline points="2699,3383
3741,4333
" style="stroke:#000000;stroke-width:32;
stroke-linejoin:round; stroke-linecap:butt;
"/>
<!-- Line -->
<polyline points="2230,104
930,1528
" style="stroke:#000000;stroke-width:32;
stroke-linejoin:round; stroke-linecap:butt;
"/>
<!-- Line -->
<polyline points="1281,3336
3799,4522
" style="stroke:#000000;stroke-width:32;
stroke-linejoin:round; stroke-linecap:butt;
"/>
<!-- Line -->
<polyline points="2370,984
2549,880
" style="stroke:#a0a0a0;stroke-width:16;
stroke-linejoin:round; stroke-linecap:butt;
"/>
<!-- Line -->
<polyline points="3259,3888
3524,4024
" style="stroke:#a0a0a0;stroke-width:16;
stroke-linejoin:round; stroke-linecap:butt;
"/>
<!-- Line -->
<polyline points="573,1986
696,3321
" style="stroke:#0000ff;stroke-width:16;
stroke-linejoin:round; stroke-linecap:butt;
"/>
<!-- Line -->
<polyline points="545,1660
560,1982
" style="stroke:#a0a0a0;stroke-width:16;
stroke-linejoin:round; stroke-linecap:butt;
"/>
<!-- Line -->
<polyline points="140,2144
941,1834
" style="stroke:#000000;stroke-width:32;
stroke-linejoin:round; stroke-linecap:butt;
"/>
<!-- Line -->
<polyline points="1055,3124
299,3539
" style="stroke:#000000;stroke-width:32;
stroke-linejoin:round; stroke-linecap:butt;
"/>
<!-- Line -->
<polyline points="932,3544
696,3321
" style="stroke:#a0a0a0;stroke-width:16;
stroke-linejoin:round; stroke-linecap:butt;
"/>
<!-- Line -->
<polyline points="2563,1633
2534,187
" style="stroke:#000000;stroke-width:32;
stroke-linejoin:round; stroke-linecap:butt;
"/>
<!-- Line -->
<polyline points="930,1528
123,1808
" style="stroke:#000000;stroke-width:32;
stroke-linejoin:round; stroke-linecap:butt;
"/>
<!-- Line -->
<polyline points="545,3774
1281,3336
" style="stroke:#000000;stroke-width:32;
stroke-linejoin:round; stroke-linecap:butt;
"/>
<!-- Line -->
<polyline points="4117,4559
2945,3500
" style="stroke:#000000;stroke-width:32;
stroke-linejoin:round; stroke-linecap:butt;
"/>
<!-- Line -->
<polyline points="3926,2284
3925,931
" style="stroke:#000000;stroke-width:32;
stroke-linejoin:round; stroke-linecap:butt;
"/>
<!-- Line -->
<polyline points="5117,3323
3926,2284
" style="stroke:#000000;stroke-width:32;
stroke-linejoin:round; stroke-linecap:butt;
"/>
<!-- Line -->
<polyline points="3652,1337
2549,880
" style="stroke:#0000ff;stroke-width:16;
stroke-linejoin:round; stroke-linecap:butt;
"/>
<!-- Line -->
<polyline points="3926,1534
3652,1337
" style="stroke:#a0a0a0;stroke-width:16;
stroke-linejoin:round; stroke-linecap:butt;
"/>
<!-- Line -->
<polyline points="4499,3173
3524,4024
" style="stroke:#0000ff;stroke-width:16;
stroke-linejoin:round; stroke-linecap:butt;
"/>
<!-- Line -->
<polyline points="4514,2797
4507,3176
" style="stroke:#a0a0a0;stroke-width:16;
stroke-linejoin:round; stroke-linecap:butt;
"/>
<!-- Line -->
<polyline points="3939,927
5117,3323
" style="stroke:#000000;stroke-width:32;
stroke-linejoin:round; stroke-linecap:butt;
"/>
<!-- Line -->
<polyline points="3649,555
3654,2102
" style="stroke:#000000;stroke-width:32;
stroke-linejoin:round; stroke-linecap:butt;
"/>
<!-- Line -->
<polyline points="3907,2647
5122,3717
" style="stroke:#000000;stroke-width:32;
stroke-linejoin:round; stroke-linecap:butt;
"/>
<!-- Line -->
<polyline points="1916,2092
2099,3462
" style="stroke:#0000ff;stroke-width:16;
stroke-linejoin:round; stroke-linecap:butt;
"/>
<!-- Line -->
<polyline points="4600,1955
4516,2080
" style="stroke:#a0a0a0;stroke-width:16;
stroke-linejoin:round; stroke-linecap:butt;
"/>
<!-- Line -->
<polyline points="2272,1930
1584,2261
" style="stroke:#000000;stroke-width:32;
stroke-linejoin:round; stroke-linecap:butt;
"/>
<!-- Line -->
<polyline points="1763,3693
2403,3251
" style="stroke:#000000;stroke-width:16;
stroke-linejoin:round; stroke-linecap:butt;
"/>
<!-- Line -->
<polyline points="2246,1777
1946,2087
" style="stroke:#a0a0a0;stroke-width:16;
stroke-linejoin:round; stroke-linecap:butt;
"/>
<!-- Line -->
<polyline points="2666,3725
2099,3462
" style="stroke:#a0a0a0;stroke-width:16;
stroke-linejoin:round; stroke-linecap:butt;
"/>
<!-- Line -->
<polyline points="1897,1937
2563,1633
" style="stroke:#000000;stroke-width:32;
stroke-linejoin:round; stroke-linecap:butt;
"/>
<!-- Line -->
<polyline points="5223,3276
4003,724
" style="stroke:#000000;stroke-width:32;
stroke-linejoin:round; stroke-linecap:butt;
"/>
<!-- Line -->
<polyline points="2945,3500
2356,3974
" style="stroke:#000000;stroke-width:32;
stroke-linejoin:round; stroke-linecap:butt;
"/>
<!-- Line -->
<polyline points="3386,2275
2246,1777
" style="stroke:#0000ff;stroke-width:16;
stroke-linejoin:round; stroke-linecap:butt;
"/>
<!-- Line -->
<polyline points="3648,2860
2666,3725
" style="stroke:#0000ff;stroke-width:16;
stroke-linejoin:round; stroke-linecap:butt;
"/>
<!-- Line -->
<polyline points="1517,246
2230,104
" style="stroke:#000000;stroke-width:32;
stroke-linejoin:round; stroke-linecap:butt;
"/>
<!-- Line -->
<polyline points="1892,171
2233,241
" style="stroke:#a0a0a0;stroke-width:16;
stroke-linejoin:round; stroke-linecap:butt;
"/>
<!-- Text -->
<text xml:space="preserve" x="425" y="2971" fill="#343434"  font-family="Times" font-style="italic" font-weight="normal" font-size="252" text-anchor="start">3</text>
<!-- Text -->
<text xml:space="preserve" x="152" y="2826" fill="#343434"  font-family="Times,Symbol" font-style="normal" font-weight="normal" font-size="303" text-anchor="start">&#945;</text>
<!-- Text -->
<text xml:space="preserve" x="3812" y="433" fill="#343434"  font-family="Times,Symbol" font-style="normal" font-weight="normal" font-size="303" text-anchor="start">&#945;</text>
<!-- Text -->
<text xml:space="preserve" x="4117" y="556" fill="#343434"  font-family="Times" font-style="italic" font-weight="normal" font-size="252" text-anchor="start">2</text>
<!-- Text -->
<text xml:space="preserve" x="2737" y="2858" fill="#343434"  font-family="Times,Symbol" font-style="normal" font-weight="normal" font-size="303" text-anchor="start">&#945;</text>
<!-- Text -->
<text xml:space="preserve" x="2987" y="3003" fill="#343434"  font-family="Times" font-style="italic" font-weight="normal" font-size="252" text-anchor="start">1</text>
<!-- Text -->
<text xml:space="preserve" x="4582" y="1714" fill="#343434"  font-family="Times,Symbol" font-style="normal" font-weight="normal" font-size="303" text-anchor="start">&#945;</text>
<!-- Text -->
<text xml:space="preserve" x="4888" y="1837" fill="#343434"  font-family="Times" font-style="italic" font-weight="normal" font-size="252" text-anchor="start">0</text>
<!-- Line -->
<polyline points="1584,2261
140,2144
" style="stroke:#000000;stroke-width:32;
stroke-linejoin:round; stroke-linecap:butt;
"/>
<!-- Line -->
<polyline points="3799,4522
3291,5116
" style="stroke:#000000;stroke-width:32;
stroke-linejoin:round; stroke-linecap:butt;
"/>
<!-- Line -->
<polyline points="864,2194
1019,3613
" style="stroke:#0000ff;stroke-width:16;
stroke-linejoin:round; stroke-linecap:butt;
"/>
<!-- Line -->
<polyline points="3890,4845
3558,4804
" style="stroke:#a0a0a0;stroke-width:16;
stroke-linejoin:round; stroke-linecap:butt;
"/>
<!-- Line -->
<polyline points="299,3539
1763,3693
" style="stroke:#000000;stroke-width:32;
stroke-linejoin:round; stroke-linecap:butt;
"/>
<!-- Line -->
<polyline points="3386,2275
3653,2848
" style="stroke:#a0a0a0;stroke-width:16;
stroke-linejoin:round; stroke-linecap:butt;
"/>
<!-- Line -->
<polyline points="2544,182
1860,327
" style="stroke:#000000;stroke-width:32;
stroke-linejoin:round; stroke-linecap:butt;
"/>
<!-- Line -->
<polyline points="3654,2102
3088,2466
" style="stroke:#000000;stroke-width:32;
stroke-linejoin:round; stroke-linecap:butt;
"/>
<!-- Line -->
<polyline points="3449,3028
3907,2647
" style="stroke:#000000;stroke-width:32;
stroke-linejoin:round; stroke-linecap:butt;
"/>
<!-- Line -->
<polyline points="3640,5162
4117,4559
" style="stroke:#000000;stroke-width:32;
stroke-linejoin:round; stroke-linecap:butt;
"/>
<!-- Line -->
<polyline points="3374,649
2230,246
" style="stroke:#0000ff;stroke-width:16;
stroke-linejoin:round; stroke-linecap:butt;
"/>
<!-- Line -->
<polyline points="900,1953
850,2202
" style="stroke:#a0a0a0;stroke-width:16;
stroke-linejoin:round; stroke-linecap:butt;
"/>
<!-- Line -->
<polyline points="1130,3892
1019,3613
" style="stroke:#a0a0a0;stroke-width:16;
stroke-linejoin:round; stroke-linecap:butt;
"/>
<!-- Line -->
<polyline points="4918,3969
3890,4845
" style="stroke:#0000ff;stroke-width:16;
stroke-linejoin:round; stroke-linecap:butt;
"/>
<!-- Line -->
<polyline points="123,1808
1517,246
" style="stroke:#000000;stroke-width:32;
stroke-linejoin:round; stroke-linecap:butt;
"/>
<!-- Line -->
<polyline points="-4092,2412
-3891,2875
" style="stroke:#808080;stroke-width:16;
stroke-linejoin:miter; stroke-linecap:butt;
"/>
<!-- Line -->
<polyline points="-3208,1574
-2671,1582
" style="stroke:#808080;stroke-width:16;
stroke-linejoin:miter; stroke-linecap:butt;
"/>
<!-- Line -->
<polyline points="-2906,3054
-2396,2847
" style="stroke:#808080;stroke-width:16;
stroke-linejoin:miter; stroke-linecap:butt;
"/>
<!-- Line -->
<polyline points="-4065,896
-4076,1110
" style="stroke:#808080;stroke-width:16;
stroke-linejoin:miter; stroke-linecap:butt;
"/>
<!-- Line -->
<polyline points="-5153,1737
-4896,1771
" style="stroke:#808080;stroke-width:16;
stroke-linejoin:miter; stroke-linecap:butt;
"/>
<!-- Line -->
<polyline points="-3734,3330
-3809,3504
" style="stroke:#808080;stroke-width:16;
stroke-linejoin:miter; stroke-linecap:butt;
"/>
<!-- Line -->
<polyline points="-2376,1016
-2351,1238
" style="stroke:#808080;stroke-width:16;
stroke-linejoin:miter; stroke-linecap:butt;
"/>
<!-- Line -->
<polyline points="-1670,1901
-1471,1869
" style="stroke:#808080;stroke-width:16;
stroke-linejoin:miter; stroke-linecap:butt;
"/>
<!-- Line -->
<polyline points="-1746,2969
-1574,3179
" style="stroke:#808080;stroke-width:16;
stroke-linejoin:miter; stroke-linecap:butt;
"/>
<!-- Line -->
<polyline points="3291,5116
545,3774
" style="stroke:#000000;stroke-width:32;
stroke-linejoin:round; stroke-linecap:butt;
"/>
<!-- Line -->
<polyline points="-4916,952
-5158,2701
" style="stroke:#000000;stroke-width:32;
stroke-linejoin:miter; stroke-linecap:butt;
"/>
<!-- Line -->
<polyline points="-5144,2707
-3054,2299
" style="stroke:#000000;stroke-width:32;
stroke-linejoin:miter; stroke-linecap:butt;
"/>
<!-- Line -->
<polyline points="-3006,2580
-4983,2949
" style="stroke:#000000;stroke-width:32;
stroke-linejoin:miter; stroke-linecap:butt;
"/>
<!-- Line -->
<polyline points="-4983,2949
-2511,3860
" style="stroke:#000000;stroke-width:32;
stroke-linejoin:miter; stroke-linecap:butt;
"/>
<!-- Line -->
<polyline points="-2483,3866
-3006,2580
" style="stroke:#000000;stroke-width:32;
stroke-linejoin:miter; stroke-linecap:butt;
"/>
<!-- Line -->
<polyline points="-2745,2285
-2202,3779
" style="stroke:#000000;stroke-width:32;
stroke-linejoin:miter; stroke-linecap:butt;
"/>
<!-- Line -->
<polyline points="-2886,1085
-2745,2285
" style="stroke:#000000;stroke-width:32;
stroke-linejoin:miter; stroke-linecap:butt;
"/>
<!-- Line -->
<polyline points="-3054,2299
-3147,1065
" style="stroke:#000000;stroke-width:32;
stroke-linejoin:miter; stroke-linecap:butt;
"/>
<!-- Line -->
<polyline points="-3147,1065
-4916,952
" style="stroke:#000000;stroke-width:32;
stroke-linejoin:miter; stroke-linecap:butt;
"/>
<!-- Line -->
<polyline points="-1881,1152
-2899,1079
" style="stroke:#000000;stroke-width:32;
stroke-linejoin:miter; stroke-linecap:butt;
"/>
<!-- Line -->
<polyline points="-1291,2560
-1881,1152
" style="stroke:#000000;stroke-width:32;
stroke-linejoin:miter; stroke-linecap:butt;
"/>
<!-- Line -->
<polyline points="-2190,3779
-1291,2560
" style="stroke:#000000;stroke-width:32;
stroke-linejoin:miter; stroke-linecap:butt;
"/>
<!-- Line -->
<polyline points="800,1049
790,1294
" style="stroke:#a0a0a0;stroke-width:16;
stroke-linejoin:round; stroke-linecap:butt;
"/>
<!-- Line -->
<polyline points="3374,649
3646,879
" style="stroke:#a0a0a0;stroke-width:16;
stroke-linejoin:round; stroke-linecap:butt;
"/>
<!-- Line -->
<polyline points="265,1912
1524,1990
" style="stroke:#000000;stroke-width:32;
stroke-linejoin:round; stroke-linecap:butt;
"/>
<!-- Line -->
<polyline points="3069,753
3649,555
" style="stroke:#000000;stroke-width:32;
stroke-linejoin:round; stroke-linecap:butt;
"/>
<!-- Line -->
<polyline points="1898,3979
388,3811
" style="stroke:#000000;stroke-width:32;
stroke-linejoin:round; stroke-linecap:butt;
"/>
<!-- Line -->
<polyline points="1877,4424
1745,4477
" style="stroke:#a0a0a0;stroke-width:16;
stroke-linejoin:round; stroke-linecap:butt;
"/>
<!-- Line -->
<polyline points="4930,3638
4925,3980
" style="stroke:#a0a0a0;stroke-width:16;
stroke-linejoin:round; stroke-linecap:butt;
"/>
<!-- Line -->
<polyline points="5122,3717
4760,4193
" style="stroke:#000000;stroke-width:32;
stroke-linejoin:round; stroke-linecap:butt;
"/>
<!-- Line -->
<polyline points="4047,710
3354,998
" style="stroke:#000000;stroke-width:32;
stroke-linejoin:round; stroke-linecap:butt;
"/>
<!-- Line -->
<polyline points="4709,3911
5219,3276
" style="stroke:#000000;stroke-width:32;
stroke-linejoin:round; stroke-linecap:butt;
"/>
<!-- Line -->
<polyline points="1474,527
260,1906
" style="stroke:#000000;stroke-width:32;
stroke-linejoin:round; stroke-linecap:butt;
"/>
<!-- Line -->
<polyline points="1850,327
1897,1937
" style="stroke:#000000;stroke-width:32;
stroke-linejoin:round; stroke-linecap:butt;
"/>
<!-- Line -->
<polyline points="388,3811
3191,5186
" style="stroke:#000000;stroke-width:32;
stroke-linejoin:round; stroke-linecap:butt;
"/>
<!-- Line -->
<polyline points="2356,3974
3640,5162
" style="stroke:#000000;stroke-width:32;
stroke-linejoin:round; stroke-linecap:butt;
"/>
<!-- Line -->
<polyline points="1489,1271
1874,1107
" style="stroke:#a0a0a0;stroke-width:16;
stroke-linejoin:round; stroke-linecap:butt;
"/>
<!-- Line -->
<polyline points="2990,4560
2535,4574
" style="stroke:#a0a0a0;stroke-width:16;
stroke-linejoin:round; stroke-linecap:butt;
"/>
<!-- Line -->
<polyline points="3079,1619
1874,1107
" style="stroke:#0000ff;stroke-width:16;
stroke-linejoin:round; stroke-linecap:butt;
"/>
<!-- Line -->
<polyline points="4096,3605
2990,4560
" style="stroke:#0000ff;stroke-width:16;
stroke-linejoin:round; stroke-linecap:butt;
"/>
<!-- Line -->
<polyline points="1516,2001
1476,541
" style="stroke:#000000;stroke-width:16;
stroke-linejoin:round; stroke-linecap:butt;
"/>
<!-- Line -->
<polyline points="3191,5186
1898,3979
" style="stroke:#000000;stroke-width:32;
stroke-linejoin:round; stroke-linecap:butt;
"/>
<!-- Line -->
<polyline points="3088,2466
3069,753
" style="stroke:#000000;stroke-width:32;
stroke-linejoin:round; stroke-linecap:butt;
"/>
<!-- Line -->
<polyline points="4755,4201
3454,3038
" style="stroke:#000000;stroke-width:32;
stroke-linejoin:round; stroke-linecap:butt;
"/>
<!-- Line -->
<polyline points="3079,1619
3186,2017
" style="stroke:#a0a0a0;stroke-width:16;
stroke-linejoin:round; stroke-linecap:butt;
"/>
<!-- Line -->
<polyline points="3814,3449
4094,3600
" style="stroke:#a0a0a0;stroke-width:16;
stroke-linejoin:round; stroke-linecap:butt;
"/>
<!-- Line -->
<polyline points="3354,998
4709,3911
" style="stroke:#000000;stroke-width:32;
stroke-linejoin:round; stroke-linecap:butt;
"/>
<!-- Line -->
<polyline points="3186,1252
3220,2929
" style="stroke:#000000;stroke-width:32;
stroke-linejoin:round; stroke-linecap:butt;
"/>
<!-- Line -->
<polyline points="3200,2904
4506,4073
" style="stroke:#000000;stroke-width:32;
stroke-linejoin:round; stroke-linecap:butt;
"/>
<!-- Line -->
<polyline points="4031,2452
3813,2581
" style="stroke:#a0a0a0;stroke-width:16;
stroke-linejoin:round; stroke-linecap:butt;
"/>
<!-- Arc -->
<path style="stroke:#808080;stroke-width:32;stroke-linecap:butt;"
d="M 3401,3105 A 226 226  0  0  0  3220  2689 " />
<!-- Arc -->
<path style="stroke:#808080;stroke-width:16;stroke-linecap:butt;"
d="M 3491,608 A 209 209  0  1  1  3813  793 " />
<!-- Arc -->
<path style="stroke:#808080;stroke-width:32;stroke-linecap:butt;"
d="M 4713,2202 A 226 226  0  0  0  4533  1786 " />
<!-- Arc -->
<path style="stroke:#343434;stroke-width:16;stroke-linecap:butt;"
d="M -2678,3397 A 196 196  0  1  1 -2359  3287 " />
<!-- Arc -->
<path style="stroke:#343434;stroke-width:16;stroke-linecap:butt;"
d="M -3448,2409 A 311 311  0  0  1 -3070  1984 " />
<!-- Arc -->
<path style="stroke:#343434;stroke-width:16;stroke-linecap:butt;"
d="M -1484,2114 A 216 216  0  1  1 -1643  1719 " />
<!-- Text -->
<text xml:space="preserve" x="-3537" y="2093" fill="#000000"  font-family="Times,Symbol" font-style="normal" font-weight="normal" font-size="202" text-anchor="start">&#49;</text>
<!-- Text -->
<text xml:space="preserve" x="-3758" y="1994" fill="#000000"  font-family="Times,Symbol" font-style="normal" font-weight="normal" font-size="278" text-anchor="start">&#945;</text>
<!-- Text -->
<text xml:space="preserve" x="-2124" y="3241" fill="#000000"  font-family="Times,Symbol" font-style="normal" font-weight="normal" font-size="202" text-anchor="start">&#50;</text>
<!-- Text -->
<text xml:space="preserve" x="-2368" y="3155" fill="#000000"  font-family="Times,Symbol" font-style="normal" font-weight="normal" font-size="278" text-anchor="start">&#945;</text>
<!-- Text -->
<text xml:space="preserve" x="-1872" y="2290" fill="#000000"  font-family="Times,Symbol" font-style="normal" font-weight="normal" font-size="202" text-anchor="start">&#48;</text>
<!-- Text -->
<text xml:space="preserve" x="-2128" y="2183" fill="#000000"  font-family="Times,Symbol" font-style="normal" font-weight="normal" font-size="278" text-anchor="start">&#945;</text>
<!-- Line -->
<polyline points="4506,4073
3195,1252
" style="stroke:#000000;stroke-width:32;
stroke-linejoin:round; stroke-linecap:butt;
"/>
<!-- Circle -->
<circle cx="131" cy="1787" r="67"
 style="fill:#5d5d5d;stroke:#5d5d5d;stroke-width:0;"/>
<!-- Circle -->
<circle cx="277" cy="1912" r="67"
 style="fill:#5d5d5d;stroke:#5d5d5d;stroke-width:0;"/>
<!-- Circle -->
<circle cx="161" cy="2158" r="67"
 style="fill:#5d5d5d;stroke:#5d5d5d;stroke-width:0;"/>
<!-- Circle -->
<circle cx="955" cy="1812" r="67"
 style="fill:#5d5d5d;stroke:#5d5d5d;stroke-width:0;"/>
<!-- Circle -->
<circle cx="2285" cy="1942" r="67"
 style="fill:#5d5d5d;stroke:#5d5d5d;stroke-width:0;"/>
<!-- Circle -->
<circle cx="1576" cy="2266" r="67"
 style="fill:#5d5d5d;stroke:#5d5d5d;stroke-width:0;"/>
<!-- Circle -->
<circle cx="1504" cy="251" r="67"
 style="fill:#5d5d5d;stroke:#5d5d5d;stroke-width:0;"/>
<!-- Circle -->
<circle cx="1454" cy="548" r="67"
 style="fill:#5d5d5d;stroke:#5d5d5d;stroke-width:0;"/>
<!-- Circle -->
<circle cx="1837" cy="330" r="67"
 style="fill:#5d5d5d;stroke:#5d5d5d;stroke-width:0;"/>
<!-- Circle -->
<circle cx="2234" cy="85" r="67"
 style="fill:#5d5d5d;stroke:#5d5d5d;stroke-width:0;"/>
<!-- Circle -->
<circle cx="2552" cy="164" r="67"
 style="fill:#5d5d5d;stroke:#5d5d5d;stroke-width:0;"/>
<!-- Circle -->
<circle cx="2321" cy="395" r="67"
 style="fill:#5d5d5d;stroke:#5d5d5d;stroke-width:0;"/>
<!-- Circle -->
<circle cx="1208" cy="1573" r="67"
 style="fill:#5d5d5d;stroke:#5d5d5d;stroke-width:0;"/>
<!-- Circle -->
<circle cx="919" cy="1523" r="67"
 style="fill:#5d5d5d;stroke:#5d5d5d;stroke-width:0;"/>
<!-- Circle -->
<circle cx="2335" cy="1624" r="67"
 style="fill:#5d5d5d;stroke:#5d5d5d;stroke-width:0;"/>
<!-- Circle -->
<circle cx="2552" cy="1631" r="67"
 style="fill:#5d5d5d;stroke:#5d5d5d;stroke-width:0;"/>
<!-- Circle -->
<circle cx="1887" cy="1912" r="67"
 style="fill:#5d5d5d;stroke:#5d5d5d;stroke-width:0;"/>
<!-- Circle -->
<circle cx="1476" cy="1977" r="67"
 style="fill:#5d5d5d;stroke:#5d5d5d;stroke-width:0;"/>
<!-- Circle -->
<circle cx="1071" cy="3126" r="67"
 style="fill:#5d5d5d;stroke:#5d5d5d;stroke-width:0;"/>
<!-- Circle -->
<circle cx="327" cy="3538" r="67"
 style="fill:#5d5d5d;stroke:#5d5d5d;stroke-width:0;"/>
<!-- Circle -->
<circle cx="1280" cy="3342" r="67"
 style="fill:#5d5d5d;stroke:#5d5d5d;stroke-width:0;"/>
<!-- Circle -->
<circle cx="551" cy="3711" r="67"
 style="fill:#5d5d5d;stroke:#5d5d5d;stroke-width:0;"/>
<!-- Circle -->
<circle cx="407" cy="3805" r="67"
 style="fill:#5d5d5d;stroke:#5d5d5d;stroke-width:0;"/>
<!-- Circle -->
<circle cx="1872" cy="3979" r="67"
 style="fill:#5d5d5d;stroke:#5d5d5d;stroke-width:0;"/>
<!-- Circle -->
<circle cx="3144" cy="5207" r="67"
 style="fill:#5d5d5d;stroke:#5d5d5d;stroke-width:0;"/>
<!-- Circle -->
<circle cx="3281" cy="5105" r="67"
 style="fill:#5d5d5d;stroke:#5d5d5d;stroke-width:0;"/>
<!-- Circle -->
<circle cx="3614" cy="5149" r="67"
 style="fill:#5d5d5d;stroke:#5d5d5d;stroke-width:0;"/>
<!-- Circle -->
<circle cx="4112" cy="4535" r="67"
 style="fill:#5d5d5d;stroke:#5d5d5d;stroke-width:0;"/>
<!-- Circle -->
<circle cx="3765" cy="4550" r="67"
 style="fill:#5d5d5d;stroke:#5d5d5d;stroke-width:0;"/>
<!-- Circle -->
<circle cx="3693" cy="4340" r="67"
 style="fill:#5d5d5d;stroke:#5d5d5d;stroke-width:0;"/>
<!-- Circle -->
<circle cx="1606" cy="3321" r="67"
 style="fill:#5d5d5d;stroke:#5d5d5d;stroke-width:0;"/>
<!-- Circle -->
<circle cx="2349" cy="3241" r="67"
 style="fill:#5d5d5d;stroke:#5d5d5d;stroke-width:0;"/>
<!-- Circle -->
<circle cx="2704" cy="3394" r="67"
 style="fill:#5d5d5d;stroke:#5d5d5d;stroke-width:0;"/>
<!-- Circle -->
<circle cx="2985" cy="3509" r="67"
 style="fill:#5d5d5d;stroke:#5d5d5d;stroke-width:0;"/>
<!-- Circle -->
<circle cx="2364" cy="3979" r="67"
 style="fill:#5d5d5d;stroke:#5d5d5d;stroke-width:0;"/>
<!-- Circle -->
<circle cx="1760" cy="3697" r="67"
 style="fill:#5d5d5d;stroke:#5d5d5d;stroke-width:0;"/>
<!-- Circle -->
<circle cx="3231" cy="2932" r="67"
 style="fill:#5d5d5d;stroke:#5d5d5d;stroke-width:0;"/>
<!-- Circle -->
<circle cx="3082" cy="2441" r="67"
 style="fill:#5d5d5d;stroke:#5d5d5d;stroke-width:0;"/>
<!-- Circle -->
<circle cx="3224" cy="1306" r="67"
 style="fill:#5d5d5d;stroke:#5d5d5d;stroke-width:0;"/>
<!-- Circle -->
<circle cx="3089" cy="755" r="67"
 style="fill:#5d5d5d;stroke:#5d5d5d;stroke-width:0;"/>
<!-- Circle -->
<circle cx="3654" cy="577" r="67"
 style="fill:#5d5d5d;stroke:#5d5d5d;stroke-width:0;"/>
<!-- Circle -->
<circle cx="3372" cy="993" r="67"
 style="fill:#5d5d5d;stroke:#5d5d5d;stroke-width:0;"/>
<!-- Circle -->
<circle cx="4026" cy="733" r="67"
 style="fill:#5d5d5d;stroke:#5d5d5d;stroke-width:0;"/>
<!-- Circle -->
<circle cx="3929" cy="963" r="67"
 style="fill:#5d5d5d;stroke:#5d5d5d;stroke-width:0;"/>
<!-- Circle -->
<circle cx="5080" cy="3289" r="67"
 style="fill:#5d5d5d;stroke:#5d5d5d;stroke-width:0;"/>
<!-- Circle -->
<circle cx="5244" cy="3267" r="67"
 style="fill:#5d5d5d;stroke:#5d5d5d;stroke-width:0;"/>
<!-- Circle -->
<circle cx="4709" cy="3868" r="67"
 style="fill:#5d5d5d;stroke:#5d5d5d;stroke-width:0;"/>
<!-- Circle -->
<circle cx="5110" cy="3734" r="67"
 style="fill:#5d5d5d;stroke:#5d5d5d;stroke-width:0;"/>
<!-- Circle -->
<circle cx="4791" cy="4224" r="67"
 style="fill:#5d5d5d;stroke:#5d5d5d;stroke-width:0;"/>
<!-- Circle -->
<circle cx="4471" cy="4076" r="67"
 style="fill:#5d5d5d;stroke:#5d5d5d;stroke-width:0;"/>
<!-- Circle -->
<circle cx="3498" cy="3036" r="67"
 style="fill:#5d5d5d;stroke:#5d5d5d;stroke-width:0;"/>
<!-- Circle -->
<circle cx="3937" cy="2649" r="67"
 style="fill:#5d5d5d;stroke:#5d5d5d;stroke-width:0;"/>
<!-- Circle -->
<circle cx="3691" cy="2108" r="67"
 style="fill:#5d5d5d;stroke:#5d5d5d;stroke-width:0;"/>
<!-- Circle -->
<circle cx="3914" cy="2308" r="67"
 style="fill:#5d5d5d;stroke:#5d5d5d;stroke-width:0;"/>
<!-- Circle -->
<circle cx="-4906" cy="950" r="67"
 style="fill:#5d5d5d;stroke:#5d5d5d;stroke-width:0;"/>
<!-- Circle -->
<circle cx="-5140" cy="2702" r="67"
 style="fill:#5d5d5d;stroke:#5d5d5d;stroke-width:0;"/>
<!-- Circle -->
<circle cx="-4985" cy="2955" r="67"
 style="fill:#5d5d5d;stroke:#5d5d5d;stroke-width:0;"/>
<!-- Circle -->
<circle cx="-3016" cy="2591" r="67"
 style="fill:#5d5d5d;stroke:#5d5d5d;stroke-width:0;"/>
<!-- Circle -->
<circle cx="-3059" cy="2290" r="67"
 style="fill:#5d5d5d;stroke:#5d5d5d;stroke-width:0;"/>
<!-- Circle -->
<circle cx="-3149" cy="1071" r="67"
 style="fill:#5d5d5d;stroke:#5d5d5d;stroke-width:0;"/>
<!-- Circle -->
<circle cx="-2879" cy="1088" r="67"
 style="fill:#5d5d5d;stroke:#5d5d5d;stroke-width:0;"/>
<!-- Circle -->
<circle cx="-2733" cy="2286" r="67"
 style="fill:#5d5d5d;stroke:#5d5d5d;stroke-width:0;"/>
<!-- Circle -->
<circle cx="-2489" cy="3861" r="67"
 style="fill:#5d5d5d;stroke:#5d5d5d;stroke-width:0;"/>
<!-- Circle -->
<circle cx="-2183" cy="3779" r="67"
 style="fill:#5d5d5d;stroke:#5d5d5d;stroke-width:0;"/>
<!-- Circle -->
<circle cx="-1295" cy="2560" r="67"
 style="fill:#5d5d5d;stroke:#5d5d5d;stroke-width:0;"/>
<!-- Circle -->
<circle cx="-1879" cy="1158" r="67"
 style="fill:#5d5d5d;stroke:#5d5d5d;stroke-width:0;"/>
</g>
</svg>
