<?xml version="1.0" standalone="no"?>
<!DOCTYPE svg PUBLIC "-//W3C//DTD SVG 1.1//EN"
"http://www.w3.org/Graphics/SVG/1.1/DTD/svg11.dtd">
<!-- Creator: fig2dev Version 3.2.6 -->
<!-- CreationDate: Mon Nov 21 08:47:43 2016 -->
<!-- Magnification: 1.050 -->
<svg	xmlns="http://www.w3.org/2000/svg"
	xmlns:xlink="http://www.w3.org/1999/xlink"
	width="9.2in" height="3.1in"
	viewBox="-5628 409 11092 3673">
<g style="stroke-width:.025in; fill:none">
<!-- Line -->
<polyline points="1587,2266
3234,2636
" style="stroke:#000000;stroke-width:16;
stroke-linejoin:round; stroke-linecap:butt;
"/>
<!-- Line -->
<polyline points="1564,602
1587,2266
" style="stroke:#000000;stroke-width:16;
stroke-linejoin:round; stroke-linecap:butt;
"/>
<!-- Line -->
<polyline points="3169,2852
1518,2467
" style="stroke:#000000;stroke-width:16;
stroke-linejoin:round; stroke-linecap:butt;
"/>
<!-- Line -->
<polyline points="1379,2298
1339,626
" style="stroke:#000000;stroke-width:16;
stroke-linejoin:round; stroke-linecap:butt;
"/>
<!-- Line -->
<polyline points="1518,2467
582,3315
" style="stroke:#000000;stroke-width:16;
stroke-linejoin:round; stroke-linecap:butt;
"/>
<!-- Line -->
<polyline points="422,3123
1379,2298
" style="stroke:#000000;stroke-width:16;
stroke-linejoin:round; stroke-linecap:butt;
"/>
<!-- Line -->
<polyline points="3234,2636
3337,883
" style="stroke:#000000;stroke-width:16;
stroke-linejoin:round; stroke-linecap:butt;
"/>
<!-- Line -->
<polyline points="3337,883
1564,602
" style="stroke:#000000;stroke-width:16;
stroke-linejoin:round; stroke-linecap:butt;
"/>
<!-- Line -->
<polyline points="3446,966
3334,2744
" style="stroke:#000000;stroke-width:32;
stroke-linejoin:round; stroke-linecap:butt;
"/>
<!-- Line -->
<polyline points="1483,489
3286,769
" style="stroke:#000000;stroke-width:16;
stroke-linejoin:round; stroke-linecap:butt;
"/>
<!-- Line -->
<polyline points="3903,1026
3759,2808
" style="stroke:#000000;stroke-width:16;
stroke-linejoin:round; stroke-linecap:butt;
"/>
<!-- Line -->
<polyline points="3568,2826
3701,1035
" style="stroke:#000000;stroke-width:32;
stroke-linejoin:round; stroke-linecap:butt;
"/>
<!-- Line -->
<polyline points="2417,3824
3169,2852
" style="stroke:#000000;stroke-width:16;
stroke-linejoin:round; stroke-linecap:butt;
"/>
<!-- Line -->
<polyline points="1339,626
295,1258
" style="stroke:#000000;stroke-width:16;
stroke-linejoin:round; stroke-linecap:butt;
"/>
<!-- Line -->
<polyline points="3334,2744
2598,3713
" style="stroke:#000000;stroke-width:32;
stroke-linejoin:round; stroke-linecap:butt;
"/>
<!-- Line -->
<polyline points="447,1110
1483,489
" style="stroke:#000000;stroke-width:16;
stroke-linejoin:round; stroke-linecap:butt;
"/>
<!-- Line -->
<polyline points="3778,3007
3088,4013
" style="stroke:#000000;stroke-width:16;
stroke-linejoin:round; stroke-linecap:butt;
"/>
<!-- Line -->
<polyline points="2864,3815
3568,2826
" style="stroke:#000000;stroke-width:32;
stroke-linejoin:round; stroke-linecap:butt;
"/>
<!-- Line -->
<polyline points="582,3315
2417,3824
" style="stroke:#000000;stroke-width:16;
stroke-linejoin:round; stroke-linecap:butt;
"/>
<!-- Line -->
<polyline points="3759,2808
5335,2745
" style="stroke:#000000;stroke-width:16;
stroke-linejoin:round; stroke-linecap:butt;
"/>
<!-- Line -->
<polyline points="5353,2972
3778,3007
" style="stroke:#000000;stroke-width:16;
stroke-linejoin:round; stroke-linecap:butt;
"/>
<!-- Line -->
<polyline points="295,1258
422,3123
" style="stroke:#000000;stroke-width:16;
stroke-linejoin:round; stroke-linecap:butt;
"/>
<!-- Line -->
<polyline points="2344,3763
475,3249
" style="stroke:#000000;stroke-width:16;
stroke-linejoin:round; stroke-linecap:butt;
"/>
<!-- Line -->
<polyline points="475,3249
351,1357
" style="stroke:#000000;stroke-width:16;
stroke-linejoin:round; stroke-linecap:butt;
"/>
<!-- Line -->
<polyline points="5335,2745
3903,1026
" style="stroke:#000000;stroke-width:16;
stroke-linejoin:round; stroke-linecap:butt;
"/>
<!-- Line -->
<polyline points="3923,934
5374,2671
" style="stroke:#000000;stroke-width:16;
stroke-linejoin:round; stroke-linecap:butt;
"/>
<!-- Line -->
<polyline points="2661,1720
3446,966
" style="stroke:#000000;stroke-width:32;
stroke-linejoin:round; stroke-linecap:butt;
"/>
<!-- Line -->
<polyline points="3286,769
2472,1490
" style="stroke:#000000;stroke-width:16;
stroke-linejoin:round; stroke-linecap:butt;
"/>
<!-- Line -->
<polyline points="3701,1035
2954,1805
" style="stroke:#000000;stroke-width:32;
stroke-linejoin:round; stroke-linecap:butt;
"/>
<!-- Line -->
<polyline points="3088,4013
5353,2972
" style="stroke:#000000;stroke-width:16;
stroke-linejoin:round; stroke-linecap:butt;
"/>
<!-- Line -->
<polyline points="-4281,2223
-4080,2686
" style="stroke:#808080;stroke-width:16;
stroke-linejoin:miter; stroke-linecap:butt;
"/>
<!-- Line -->
<polyline points="-3397,1385
-2860,1393
" style="stroke:#808080;stroke-width:16;
stroke-linejoin:miter; stroke-linecap:butt;
"/>
<!-- Line -->
<polyline points="-3095,2865
-2585,2658
" style="stroke:#808080;stroke-width:16;
stroke-linejoin:miter; stroke-linecap:butt;
"/>
<!-- Line -->
<polyline points="-4254,707
-4265,921
" style="stroke:#808080;stroke-width:16;
stroke-linejoin:miter; stroke-linecap:butt;
"/>
<!-- Line -->
<polyline points="-5342,1548
-5085,1582
" style="stroke:#808080;stroke-width:16;
stroke-linejoin:miter; stroke-linecap:butt;
"/>
<!-- Line -->
<polyline points="-3923,3141
-3998,3315
" style="stroke:#808080;stroke-width:16;
stroke-linejoin:miter; stroke-linecap:butt;
"/>
<!-- Line -->
<polyline points="-2565,827
-2540,1049
" style="stroke:#808080;stroke-width:16;
stroke-linejoin:miter; stroke-linecap:butt;
"/>
<!-- Line -->
<polyline points="-1859,1712
-1660,1680
" style="stroke:#808080;stroke-width:16;
stroke-linejoin:miter; stroke-linecap:butt;
"/>
<!-- Line -->
<polyline points="-1935,2780
-1763,2990
" style="stroke:#808080;stroke-width:16;
stroke-linejoin:miter; stroke-linecap:butt;
"/>
<!-- Line -->
<polyline points="-5105,763
-5346,2512
" style="stroke:#000000;stroke-width:32;
stroke-linejoin:miter; stroke-linecap:butt;
"/>
<!-- Line -->
<polyline points="-5333,2518
-3243,2110
" style="stroke:#000000;stroke-width:32;
stroke-linejoin:miter; stroke-linecap:butt;
"/>
<!-- Line -->
<polyline points="-3195,2391
-5172,2760
" style="stroke:#000000;stroke-width:32;
stroke-linejoin:miter; stroke-linecap:butt;
"/>
<!-- Line -->
<polyline points="-5172,2760
-2700,3671
" style="stroke:#000000;stroke-width:32;
stroke-linejoin:miter; stroke-linecap:butt;
"/>
<!-- Line -->
<polyline points="-2672,3677
-3195,2391
" style="stroke:#000000;stroke-width:32;
stroke-linejoin:miter; stroke-linecap:butt;
"/>
<!-- Line -->
<polyline points="-2934,2096
-2391,3590
" style="stroke:#000000;stroke-width:32;
stroke-linejoin:miter; stroke-linecap:butt;
"/>
<!-- Line -->
<polyline points="-3075,896
-2934,2096
" style="stroke:#000000;stroke-width:32;
stroke-linejoin:miter; stroke-linecap:butt;
"/>
<!-- Line -->
<polyline points="-3243,2110
-3336,876
" style="stroke:#000000;stroke-width:32;
stroke-linejoin:miter; stroke-linecap:butt;
"/>
<!-- Line -->
<polyline points="-3336,876
-5105,763
" style="stroke:#000000;stroke-width:32;
stroke-linejoin:miter; stroke-linecap:butt;
"/>
<!-- Line -->
<polyline points="-2070,963
-3088,890
" style="stroke:#000000;stroke-width:32;
stroke-linejoin:miter; stroke-linecap:butt;
"/>
<!-- Line -->
<polyline points="-1480,2371
-2070,963
" style="stroke:#000000;stroke-width:32;
stroke-linejoin:miter; stroke-linecap:butt;
"/>
<!-- Line -->
<polyline points="-2379,3590
-1480,2371
" style="stroke:#000000;stroke-width:32;
stroke-linejoin:miter; stroke-linecap:butt;
"/>
<!-- Line -->
<polyline points="3187,1694
3923,934
" style="stroke:#000000;stroke-width:16;
stroke-linejoin:round; stroke-linecap:butt;
"/>
<!-- Line -->
<polyline points="5294,2879
2997,3939
" style="stroke:#000000;stroke-width:16;
stroke-linejoin:round; stroke-linecap:butt;
"/>
<!-- Line -->
<polyline points="2598,3713
2661,1720
" style="stroke:#000000;stroke-width:32;
stroke-linejoin:round; stroke-linecap:butt;
"/>
<!-- Line -->
<polyline points="2472,1490
447,1110
" style="stroke:#000000;stroke-width:16;
stroke-linejoin:round; stroke-linecap:butt;
"/>
<!-- Line -->
<polyline points="2383,1761
2344,3763
" style="stroke:#000000;stroke-width:16;
stroke-linejoin:round; stroke-linecap:butt;
"/>
<!-- Line -->
<polyline points="2954,1805
2864,3815
" style="stroke:#000000;stroke-width:32;
stroke-linejoin:round; stroke-linecap:butt;
"/>
<!-- Line -->
<polyline points="351,1357
2383,1761
" style="stroke:#000000;stroke-width:16;
stroke-linejoin:round; stroke-linecap:butt;
"/>
<!-- Line -->
<polyline points="2997,3939
3095,1909
" style="stroke:#000000;stroke-width:16;
stroke-linejoin:round; stroke-linecap:butt;
"/>
<!-- Line -->
<polyline points="5374,2671
3187,1694
" style="stroke:#000000;stroke-width:16;
stroke-linejoin:round; stroke-linecap:butt;
"/>
<!-- Line -->
<polyline points="3095,1909
5294,2879
" style="stroke:#000000;stroke-width:16;
stroke-linejoin:round; stroke-linecap:butt;
"/>
<!-- Line -->
<polyline points="4293,1690
4367,1461
" style="stroke:#ff0000;stroke-width:8;
stroke-linejoin:miter; stroke-linecap:butt;
"/>
<!-- Line -->
<polyline points="1897,551
1974,892
" style="stroke:#ff0000;stroke-width:8;
stroke-linejoin:miter; stroke-linecap:butt;
"/>
<!-- Line -->
<polyline points="2338,913
2560,644
" style="stroke:#ff0000;stroke-width:8;
stroke-linejoin:miter; stroke-linecap:butt;
"/>
<!-- Line -->
<polyline points="2338,955
3072,944
" style="stroke:#ff0000;stroke-width:8;
stroke-linejoin:miter; stroke-linecap:butt;
"/>
<!-- Line -->
<polyline points="2669,1322
2327,1063
" style="stroke:#ff0000;stroke-width:8;
stroke-linejoin:miter; stroke-linecap:butt;
"/>
<!-- Line -->
<polyline points="2073,1405
2068,1105
" style="stroke:#ff0000;stroke-width:8;
stroke-linejoin:miter; stroke-linecap:butt;
"/>
<!-- Line -->
<polyline points="1420,1286
1711,1116
" style="stroke:#ff0000;stroke-width:8;
stroke-linejoin:miter; stroke-linecap:butt;
"/>
<!-- Line -->
<polyline points="1633,1053
747,913
" style="stroke:#ff0000;stroke-width:8;
stroke-linejoin:miter; stroke-linecap:butt;
"/>
<!-- Line -->
<polyline points="1162,680
1436,856
1623,944
" style="stroke:#ff0000;stroke-width:8;
stroke-linejoin:miter; stroke-linecap:butt;
"/>
<!-- Line -->
<polyline points="4855,2043
4643,1871
" style="stroke:#ff0000;stroke-width:8;
stroke-linejoin:miter; stroke-linecap:butt;
"/>
<!-- Line -->
<polyline points="4653,2364
4513,1908
" style="stroke:#ff0000;stroke-width:8;
stroke-linejoin:miter; stroke-linecap:butt;
"/>
<!-- Line -->
<polyline points="3990,2048
4083,1898
" style="stroke:#ff0000;stroke-width:8;
stroke-linejoin:miter; stroke-linecap:butt;
"/>
<!-- Line -->
<polyline points="3762,1105
4223,1670
" style="stroke:#ff0000;stroke-width:8;
stroke-linejoin:miter; stroke-linecap:butt;
"/>
<!-- Line -->
<polyline points="3399,1478
4047,1679
" style="stroke:#ff0000;stroke-width:8;
stroke-linejoin:miter; stroke-linecap:butt;
"/>
<!-- Line -->
<polyline points="2643,2037
3005,2089
3026,2146
" style="stroke:#ff0000;stroke-width:8;
stroke-linejoin:miter; stroke-linecap:butt;
"/>
<!-- Line -->
<polyline points="2959,2027
3047,2073
3072,2141
" style="stroke:#ff0000;stroke-width:8;
stroke-linejoin:miter; stroke-linecap:butt;
"/>
<!-- Line -->
<polyline points="2617,2902
3021,2369
" style="stroke:#ff0000;stroke-width:8;
stroke-linejoin:miter; stroke-linecap:butt;
"/>
<!-- Line -->
<polyline points="2922,2851
3083,2369
" style="stroke:#ff0000;stroke-width:8;
stroke-linejoin:miter; stroke-linecap:butt;
"/>
<!-- Line -->
<polyline points="2855,1534
3141,1815
3141,2146
" style="stroke:#ff0000;stroke-width:8;
stroke-linejoin:miter; stroke-linecap:butt;
"/>
<!-- Line -->
<polyline points="3083,1665
3213,1820
3187,2156
" style="stroke:#ff0000;stroke-width:8;
stroke-linejoin:miter; stroke-linecap:butt;
"/>
<!-- Line -->
<polyline points="2908,3296
3161,2380
" style="stroke:#ff0000;stroke-width:8;
stroke-linejoin:miter; stroke-linecap:butt;
"/>
<!-- Line -->
<polyline points="3141,3430
3192,2374
" style="stroke:#ff0000;stroke-width:8;
stroke-linejoin:miter; stroke-linecap:butt;
"/>
<!-- Line -->
<polyline points="3233,2860
3275,2359
" style="stroke:#ff0000;stroke-width:8;
stroke-linejoin:miter; stroke-linecap:butt;
"/>
<!-- Line -->
<polyline points="3462,3012
3394,2359
" style="stroke:#ff0000;stroke-width:8;
stroke-linejoin:miter; stroke-linecap:butt;
"/>
<!-- Line -->
<polyline points="3337,2519
3291,2364
" style="stroke:#ff0000;stroke-width:8;
stroke-linejoin:miter; stroke-linecap:butt;
"/>
<!-- Line -->
<polyline points="3586,2509
3462,2359
" style="stroke:#ff0000;stroke-width:8;
stroke-linejoin:miter; stroke-linecap:butt;
"/>
<!-- Line -->
<polyline points="3399,1695
3477,1778
3425,2151
" style="stroke:#ff0000;stroke-width:8;
stroke-linejoin:miter; stroke-linecap:butt;
"/>
<!-- Line -->
<polyline points="3637,1732
3513,1892
3492,2141
" style="stroke:#ff0000;stroke-width:8;
stroke-linejoin:miter; stroke-linecap:butt;
"/>
<!-- Line -->
<polyline points="3224,1167
3337,1674
3296,2151
" style="stroke:#ff0000;stroke-width:8;
stroke-linejoin:miter; stroke-linecap:butt;
"/>
<!-- Line -->
<polyline points="3487,1245
3575,1472
3446,2161
" style="stroke:#ff0000;stroke-width:8;
stroke-linejoin:miter; stroke-linecap:butt;
"/>
<!-- Line: box -->
<rect x="-4651" y="1379" width="909" height="251" rx="0" 
style="stroke:#000000;stroke-width:16;
stroke-linejoin:miter; stroke-linecap:butt;
"/>
<!-- Line: box -->
<rect x="-5605" y="2656" width="370" height="254" rx="0" 
style="stroke:#000000;stroke-width:16;
stroke-linejoin:miter; stroke-linecap:butt;
"/>
<!-- Line: box -->
<rect x="-3380" y="521" width="360" height="241" rx="0" 
style="stroke:#000000;stroke-width:16;
stroke-linejoin:miter; stroke-linecap:butt;
"/>
<!-- Line: box -->
<rect x="-4138" y="2776" width="913" height="259" rx="0" 
style="stroke:#000000;stroke-width:16;
stroke-linejoin:miter; stroke-linecap:butt;
"/>
<!-- Line: box -->
<rect x="-2625" y="3699" width="380" height="255" rx="0" 
style="stroke:#000000;stroke-width:16;
stroke-linejoin:miter; stroke-linecap:butt;
"/>
<!-- Line: box -->
<rect x="-2718" y="1859" width="702" height="257" rx="0" 
style="stroke:#000000;stroke-width:16;
stroke-linejoin:miter; stroke-linecap:butt;
"/>
<!-- Line -->
<polyline points="-5154,2492
-5349,2661
" style="stroke:#ff0000;stroke-width:8;
stroke-linejoin:miter; stroke-linecap:butt;
"/>
<!-- Line -->
<polyline points="-4775,2682
-5104,2581
-5277,2690
" style="stroke:#ff0000;stroke-width:8;
stroke-linejoin:miter; stroke-linecap:butt;
"/>
<!-- Line -->
<polyline points="-3309,1158
-3194,970
-3222,775
" style="stroke:#ff0000;stroke-width:8;
stroke-linejoin:miter; stroke-linecap:butt;
"/>
<!-- Line -->
<polyline points="-3062,1021
-3151,961
-3167,777
" style="stroke:#ff0000;stroke-width:8;
stroke-linejoin:miter; stroke-linecap:butt;
"/>
<!-- Line -->
<polyline points="-2546,3212
-2592,3390
-2489,3692
" style="stroke:#ff0000;stroke-width:8;
stroke-linejoin:miter; stroke-linecap:butt;
"/>
<!-- Line -->
<polyline points="-3815,858
-4011,1378
" style="stroke:#ff0000;stroke-width:8;
stroke-linejoin:miter; stroke-linecap:butt;
"/>
<!-- Line -->
<polyline points="-3741,1574
-3279,1638
" style="stroke:#ff0000;stroke-width:8;
stroke-linejoin:miter; stroke-linecap:butt;
"/>
<!-- Line -->
<polyline points="-4074,1638
-3731,2222
" style="stroke:#ff0000;stroke-width:8;
stroke-linejoin:miter; stroke-linecap:butt;
"/>
<!-- Line -->
<polyline points="-5252,1863
-4654,1608
" style="stroke:#ff0000;stroke-width:8;
stroke-linejoin:miter; stroke-linecap:butt;
"/>
<!-- Line -->
<polyline points="-3608,2462
-3574,2781
" style="stroke:#ff0000;stroke-width:8;
stroke-linejoin:miter; stroke-linecap:butt;
"/>
<!-- Line -->
<polyline points="-3343,3443
-3432,3032
" style="stroke:#ff0000;stroke-width:8;
stroke-linejoin:miter; stroke-linecap:butt;
"/>
<!-- Line -->
<polyline points="-3220,2987
-2892,3149
" style="stroke:#ff0000;stroke-width:8;
stroke-linejoin:miter; stroke-linecap:butt;
"/>
<!-- Line -->
<polyline points="-2303,961
-2235,1854
" style="stroke:#ff0000;stroke-width:8;
stroke-linejoin:miter; stroke-linecap:butt;
"/>
<!-- Line -->
<polyline points="-2014,2065
-1587,2123
" style="stroke:#ff0000;stroke-width:8;
stroke-linejoin:miter; stroke-linecap:butt;
"/>
<!-- Line -->
<polyline points="-2088,2118
-1719,2692
" style="stroke:#ff0000;stroke-width:8;
stroke-linejoin:miter; stroke-linecap:butt;
"/>
<!-- Line -->
<polyline points="-2798,2448
-2436,2125
" style="stroke:#ff0000;stroke-width:8;
stroke-linejoin:miter; stroke-linecap:butt;
"/>
<!-- Line -->
<polyline points="-2760,3422
-2615,3527
-2565,3687
" style="stroke:#ff0000;stroke-width:8;
stroke-linejoin:miter; stroke-linecap:butt;
"/>
<!-- Line -->
<polyline points="-5120,1015
-4668,1432
" style="stroke:#ff0000;stroke-width:8;
stroke-linejoin:miter; stroke-linecap:butt;
"/>
<!-- Line -->
<polyline points="-4575,813
-4349,1377
" style="stroke:#ff0000;stroke-width:8;
stroke-linejoin:miter; stroke-linecap:butt;
"/>
<!-- Line -->
<polyline points="-4654,2368
-4325,1632
" style="stroke:#ff0000;stroke-width:8;
stroke-linejoin:miter; stroke-linecap:butt;
"/>
<!-- Line -->
<polyline points="-3731,1392
-3338,1142
" style="stroke:#ff0000;stroke-width:8;
stroke-linejoin:miter; stroke-linecap:butt;
"/>
<!-- Line -->
<polyline points="-3338,1142
" style="stroke:#ff0000;stroke-width:8;
stroke-linejoin:miter; stroke-linecap:butt;
"/>
<!-- Line -->
<polyline points="-2765,921
-2416,1843
" style="stroke:#ff0000;stroke-width:8;
stroke-linejoin:miter; stroke-linecap:butt;
"/>
<!-- Line -->
<polyline points="-2141,1854
-2073,1490
-1897,1406
" style="stroke:#ff0000;stroke-width:8;
stroke-linejoin:miter; stroke-linecap:butt;
"/>
<!-- Line -->
<polyline points="-2127,3217
-2284,2118
" style="stroke:#ff0000;stroke-width:8;
stroke-linejoin:miter; stroke-linecap:butt;
"/>
<!-- Line -->
<polyline points="-3020,1250
-2769,1353
-2529,1843
" style="stroke:#ff0000;stroke-width:8;
stroke-linejoin:miter; stroke-linecap:butt;
"/>
<!-- Line -->
<polyline points="-2971,1691
-2798,1691
-2632,1839
" style="stroke:#ff0000;stroke-width:8;
stroke-linejoin:miter; stroke-linecap:butt;
"/>
<!-- Line -->
<polyline points="-2622,2913
-2382,2711
-2358,2113
" style="stroke:#ff0000;stroke-width:8;
stroke-linejoin:miter; stroke-linecap:butt;
"/>
<!-- Line -->
<polyline points="-3279,2761
-3123,2619
" style="stroke:#ff0000;stroke-width:8;
stroke-linejoin:miter; stroke-linecap:butt;
"/>
<!-- Line -->
<polyline points="-4153,2819
-4408,2634
" style="stroke:#ff0000;stroke-width:8;
stroke-linejoin:miter; stroke-linecap:butt;
"/>
<!-- Line -->
<polyline points="-4266,3084
-4148,2977
" style="stroke:#ff0000;stroke-width:8;
stroke-linejoin:miter; stroke-linecap:butt;
"/>
<!-- Line -->
<polyline points="-5511,2653
-5522,2364
-5325,2212
" style="stroke:#ff0000;stroke-width:8;
stroke-linejoin:miter; stroke-linecap:butt;
"/>
<!-- Line -->
<polyline points="-4791,2918
-5050,3021
-5272,2903
" style="stroke:#ff0000;stroke-width:8;
stroke-linejoin:miter; stroke-linecap:butt;
"/>
<!-- Line -->
<polyline points="-3029,639
-2857,674
-2843,899
" style="stroke:#ff0000;stroke-width:8;
stroke-linejoin:miter; stroke-linecap:butt;
"/>
<!-- Line -->
<polyline points="-3628,840
-3589,708
-3397,648
-3382,644
" style="stroke:#ff0000;stroke-width:8;
stroke-linejoin:miter; stroke-linecap:butt;
"/>
<!-- Line -->
<polyline points="-2872,3626
-2813,3792
-2632,3861
" style="stroke:#ff0000;stroke-width:8;
stroke-linejoin:miter; stroke-linecap:butt;
"/>
<!-- Line -->
<polyline points="-2191,3375
-2141,3709
-2244,3802
" style="stroke:#ff0000;stroke-width:8;
stroke-linejoin:miter; stroke-linecap:butt;
"/>
<!-- Text -->
<text xml:space="preserve" x="3090" y="1164" fill="#000000"  font-family="Times" font-style="normal" font-weight="normal" font-size="202" text-anchor="start">2</text>
<!-- Text -->
<text xml:space="preserve" x="2775" y="1476" fill="#000000"  font-family="Times" font-style="normal" font-weight="normal" font-size="202" text-anchor="start">1</text>
<!-- Text -->
<text xml:space="preserve" x="3448" y="1679" fill="#000000"  font-family="Times" font-style="normal" font-weight="normal" font-size="177" text-anchor="start">3</text>
<!-- Text -->
<text xml:space="preserve" x="3374" y="2640" fill="#000000"  font-family="Times" font-style="normal" font-weight="normal" font-size="202" text-anchor="start">4</text>
<!-- Text -->
<text xml:space="preserve" x="2461" y="3219" fill="#000000"  font-family="Times" font-style="normal" font-weight="normal" font-size="202" text-anchor="start">7</text>
<!-- Text -->
<text xml:space="preserve" x="2473" y="2301" fill="#000000"  font-family="Times" font-style="normal" font-weight="normal" font-size="202" text-anchor="start">8</text>
<!-- Text -->
<text xml:space="preserve" x="3223" y="3088" fill="#000000"  font-family="Times" font-style="normal" font-weight="normal" font-size="202" text-anchor="start">5</text>
<!-- Text -->
<text xml:space="preserve" x="2710" y="3732" fill="#000000"  font-family="Times" font-style="normal" font-weight="normal" font-size="202" text-anchor="start">6</text>
<!-- Text -->
<text xml:space="preserve" x="3011" y="1587" fill="#000000"  font-family="Times" font-style="normal" font-weight="normal" font-size="202" text-anchor="start">a</text>
<!-- Text -->
<text xml:space="preserve" x="3488" y="1121" fill="#000000"  font-family="Times" font-style="normal" font-weight="normal" font-size="202" text-anchor="start">b</text>
<!-- Text -->
<text xml:space="preserve" x="3694" y="1571" fill="#000000"  font-family="Times" font-style="normal" font-weight="normal" font-size="202" text-anchor="start">c</text>
<!-- Text -->
<text xml:space="preserve" x="3616" y="2622" fill="#000000"  font-family="Times" font-style="normal" font-weight="normal" font-size="202" text-anchor="start">d</text>
<!-- Text -->
<text xml:space="preserve" x="3441" y="3146" fill="#000000"  font-family="Times" font-style="normal" font-weight="normal" font-size="202" text-anchor="start">e</text>
<!-- Text -->
<text xml:space="preserve" x="3130" y="3648" fill="#000000"  font-family="Times" font-style="normal" font-weight="normal" font-size="202" text-anchor="start">f</text>
<!-- Text -->
<text xml:space="preserve" x="2742" y="3088" fill="#000000"  font-family="Times" font-style="normal" font-weight="normal" font-size="202" text-anchor="start">g</text>
<!-- Text -->
<text xml:space="preserve" x="2772" y="2394" fill="#000000"  font-family="Times" font-style="normal" font-weight="normal" font-size="202" text-anchor="start">h</text>
<!-- Text -->
<text xml:space="preserve" x="-4613" y="1585" fill="#000000"  font-family="Times" font-style="normal" font-weight="normal" font-size="177" text-anchor="start">#808080</text>
<!-- Text -->
<text xml:space="preserve" x="-5566" y="2861" fill="#000000"  font-family="Times" font-style="normal" font-weight="normal" font-size="177" text-anchor="start">4.5</text>
<!-- Text -->
<text xml:space="preserve" x="-3341" y="727" fill="#000000"  font-family="Times" font-style="normal" font-weight="normal" font-size="177" text-anchor="start">2.6</text>
<!-- Text -->
<text xml:space="preserve" x="-4099" y="2982" fill="#000000"  font-family="Times" font-style="normal" font-weight="normal" font-size="177" text-anchor="start">#dddddd</text>
<!-- Text -->
<text xml:space="preserve" x="-2586" y="3905" fill="#000000"  font-family="Times" font-style="normal" font-weight="normal" font-size="177" text-anchor="start">4.9</text>
<!-- Text -->
<text xml:space="preserve" x="-2679" y="2065" fill="#000000"  font-family="Times" font-style="normal" font-weight="normal" font-size="177" text-anchor="start">#ffffff</text>
<!-- Line -->
<polyline points="4487,2732
4494,3019
" style="stroke:#9f9f9f;stroke-width:8;
stroke-linejoin:miter; stroke-linecap:butt;
"/>
<!-- Line -->
<polyline points="4090,3383
4198,3562
" style="stroke:#9f9f9f;stroke-width:8;
stroke-linejoin:miter; stroke-linecap:butt;
"/>
<!-- Line -->
<polyline points="2893,2696
3064,2753
" style="stroke:#9f9f9f;stroke-width:8;
stroke-linejoin:miter; stroke-linecap:butt;
"/>
<!-- Line -->
<polyline points="4138,2093
4004,2360
" style="stroke:#9f9f9f;stroke-width:8;
stroke-linejoin:miter; stroke-linecap:butt;
"/>
<!-- Line -->
<polyline points="3591,1987
3857,2040
" style="stroke:#9f9f9f;stroke-width:8;
stroke-linejoin:miter; stroke-linecap:butt;
"/>
<!-- Line -->
<polyline points="3176,3297
3540,3422
" style="stroke:#9f9f9f;stroke-width:8;
stroke-linejoin:miter; stroke-linecap:butt;
"/>
<!-- Line -->
<polyline points="3327,1394
3487,1385
" style="stroke:#9f9f9f;stroke-width:8;
stroke-linejoin:miter; stroke-linecap:butt;
"/>
<!-- Line -->
<polyline points="4512,1816
4637,1735
" style="stroke:#9f9f9f;stroke-width:16;
stroke-linejoin:miter; stroke-linecap:butt;
"/>
<!-- Line -->
<polyline points="1699,1332
1542,1648
" style="stroke:#9f9f9f;stroke-width:8;
stroke-linejoin:miter; stroke-linecap:butt;
"/>
<!-- Line -->
<polyline points="862,2682
1138,2861
" style="stroke:#9f9f9f;stroke-width:8;
stroke-linejoin:miter; stroke-linecap:butt;
"/>
<!-- Line -->
<polyline points="2300,2382
2237,2682
" style="stroke:#9f9f9f;stroke-width:8;
stroke-linejoin:miter; stroke-linecap:butt;
"/>
<!-- Line -->
<polyline points="2750,3328
2900,3328
" style="stroke:#9f9f9f;stroke-width:8;
stroke-linejoin:miter; stroke-linecap:butt;
"/>
<!-- Line -->
<polyline points="1549,3510
1367,3558
" style="stroke:#9f9f9f;stroke-width:8;
stroke-linejoin:miter; stroke-linecap:butt;
"/>
<!-- Line -->
<polyline points="2268,587
2355,769
" style="stroke:#9f9f9f;stroke-width:8;
stroke-linejoin:miter; stroke-linecap:butt;
"/>
<!-- Line -->
<polyline points="2908,1069
3130,1345
" style="stroke:#9f9f9f;stroke-width:8;
stroke-linejoin:miter; stroke-linecap:butt;
"/>
<!-- Line -->
<polyline points="1059,729
1059,769
1059,808
" style="stroke:#9f9f9f;stroke-width:8;
stroke-linejoin:miter; stroke-linecap:butt;
"/>
<!-- Line -->
<polyline points="317,2159
355,2175
381,2216
419,2232
" style="stroke:#9f9f9f;stroke-width:8;
stroke-linejoin:miter; stroke-linecap:butt;
"/>
<!-- Line -->
<polyline points="1328,1419
1564,1354
" style="stroke:#9f9f9f;stroke-width:8;
stroke-linejoin:miter; stroke-linecap:butt;
"/>
<!-- Line -->
<polyline points="2338,2607
2687,2618
" style="stroke:#9f9f9f;stroke-width:8;
stroke-linejoin:miter; stroke-linecap:butt;
"/>
<!-- Line -->
<polyline points="4228,3400
" style="stroke:#9f9f9f;stroke-width:8;
stroke-linejoin:miter; stroke-linecap:butt;
"/>
<!-- Line -->
<polyline points="3224,1851
3422,1875
" style="stroke:#9f9f9f;stroke-width:8;
stroke-linejoin:miter; stroke-linecap:butt;
"/>
<!-- Line: box -->
<rect x="3889" y="1686" width="762" height="239" rx="0" 
style="stroke:#000000;stroke-width:16;
stroke-linejoin:miter; stroke-linecap:butt;
fill:#ffffff;
"/>
<!-- Line: box -->
<rect x="2956" y="2144" width="745" height="223" rx="0" 
style="stroke:#000000;stroke-width:16;
stroke-linejoin:miter; stroke-linecap:butt;
fill:#ffffff;
"/>
<!-- Line: box -->
<rect x="1633" y="899" width="697" height="223" rx="0" 
style="stroke:#000000;stroke-width:16;
stroke-linejoin:miter; stroke-linecap:butt;
fill:#ffffff;
"/>
<!-- Text -->
<text xml:space="preserve" x="3913" y="1879" fill="#000000"  font-family="Times" font-style="normal" font-weight="bold" font-size="152" text-anchor="start">#82a0ff</text>
<!-- Text -->
<text xml:space="preserve" x="2987" y="2329" fill="#000000"  font-family="Times" font-style="normal" font-weight="bold" font-size="152" text-anchor="start">#00ff00</text>
<!-- Text -->
<text xml:space="preserve" x="1656" y="1085" fill="#000000"  font-family="Times" font-style="normal" font-weight="bold" font-size="152" text-anchor="start">#ff0000</text>
<!-- Circle -->
<circle cx="469" cy="3267" r="67"
 style="fill:#5d5d5d;stroke:#5d5d5d;stroke-width:0;"/>
<!-- Circle -->
<circle cx="392" cy="3113" r="67"
 style="fill:#5d5d5d;stroke:#5d5d5d;stroke-width:0;"/>
<!-- Circle -->
<circle cx="604" cy="3352" r="67"
 style="fill:#5d5d5d;stroke:#5d5d5d;stroke-width:0;"/>
<!-- Circle -->
<circle cx="1371" cy="2305" r="67"
 style="fill:#5d5d5d;stroke:#5d5d5d;stroke-width:0;"/>
<!-- Circle -->
<circle cx="1592" cy="2245" r="67"
 style="fill:#5d5d5d;stroke:#5d5d5d;stroke-width:0;"/>
<!-- Circle -->
<circle cx="1516" cy="2475" r="67"
 style="fill:#5d5d5d;stroke:#5d5d5d;stroke-width:0;"/>
<!-- Circle -->
<circle cx="460" cy="1088" r="67"
 style="fill:#5d5d5d;stroke:#5d5d5d;stroke-width:0;"/>
<!-- Circle -->
<circle cx="299" cy="1240" r="67"
 style="fill:#5d5d5d;stroke:#5d5d5d;stroke-width:0;"/>
<!-- Circle -->
<circle cx="409" cy="1385" r="67"
 style="fill:#5d5d5d;stroke:#5d5d5d;stroke-width:0;"/>
<!-- Circle -->
<circle cx="1490" cy="475" r="67"
 style="fill:#5d5d5d;stroke:#5d5d5d;stroke-width:0;"/>
<!-- Circle -->
<circle cx="1337" cy="670" r="67"
 style="fill:#5d5d5d;stroke:#5d5d5d;stroke-width:0;"/>
<!-- Circle -->
<circle cx="1601" cy="637" r="67"
 style="fill:#5d5d5d;stroke:#5d5d5d;stroke-width:0;"/>
<!-- Circle -->
<circle cx="3227" cy="730" r="67"
 style="fill:#5d5d5d;stroke:#5d5d5d;stroke-width:0;"/>
<!-- Circle -->
<circle cx="3295" cy="883" r="67"
 style="fill:#5d5d5d;stroke:#5d5d5d;stroke-width:0;"/>
<!-- Circle -->
<circle cx="3686" cy="994" r="67"
 style="fill:#5d5d5d;stroke:#5d5d5d;stroke-width:0;"/>
<!-- Circle -->
<circle cx="3916" cy="909" r="67"
 style="fill:#5d5d5d;stroke:#5d5d5d;stroke-width:0;"/>
<!-- Circle -->
<circle cx="3907" cy="1079" r="67"
 style="fill:#5d5d5d;stroke:#5d5d5d;stroke-width:0;"/>
<!-- Circle -->
<circle cx="2460" cy="1497" r="67"
 style="fill:#5d5d5d;stroke:#5d5d5d;stroke-width:0;"/>
<!-- Circle -->
<circle cx="2384" cy="1769" r="67"
 style="fill:#5d5d5d;stroke:#5d5d5d;stroke-width:0;"/>
<!-- Circle -->
<circle cx="2647" cy="1709" r="67"
 style="fill:#5d5d5d;stroke:#5d5d5d;stroke-width:0;"/>
<!-- Circle -->
<circle cx="2341" cy="3718" r="67"
 style="fill:#5d5d5d;stroke:#5d5d5d;stroke-width:0;"/>
<!-- Circle -->
<circle cx="2435" cy="3846" r="67"
 style="fill:#5d5d5d;stroke:#5d5d5d;stroke-width:0;"/>
<!-- Circle -->
<circle cx="2605" cy="3693" r="67"
 style="fill:#5d5d5d;stroke:#5d5d5d;stroke-width:0;"/>
<!-- Circle -->
<circle cx="2860" cy="3795" r="67"
 style="fill:#5d5d5d;stroke:#5d5d5d;stroke-width:0;"/>
<!-- Circle -->
<circle cx="3022" cy="3931" r="67"
 style="fill:#5d5d5d;stroke:#5d5d5d;stroke-width:0;"/>
<!-- Circle -->
<circle cx="3159" cy="4016" r="67"
 style="fill:#5d5d5d;stroke:#5d5d5d;stroke-width:0;"/>
<!-- Circle -->
<circle cx="3797" cy="3028" r="67"
 style="fill:#5d5d5d;stroke:#5d5d5d;stroke-width:0;"/>
<!-- Circle -->
<circle cx="3584" cy="2815" r="67"
 style="fill:#5d5d5d;stroke:#5d5d5d;stroke-width:0;"/>
<!-- Circle -->
<circle cx="3780" cy="2790" r="67"
 style="fill:#5d5d5d;stroke:#5d5d5d;stroke-width:0;"/>
<!-- Circle -->
<circle cx="2962" cy="1785" r="67"
 style="fill:#5d5d5d;stroke:#5d5d5d;stroke-width:0;"/>
<!-- Circle -->
<circle cx="3218" cy="1675" r="67"
 style="fill:#5d5d5d;stroke:#5d5d5d;stroke-width:0;"/>
<!-- Circle -->
<circle cx="3074" cy="1922" r="67"
 style="fill:#5d5d5d;stroke:#5d5d5d;stroke-width:0;"/>
<!-- Circle -->
<circle cx="5397" cy="2620" r="67"
 style="fill:#5d5d5d;stroke:#5d5d5d;stroke-width:0;"/>
<!-- Circle -->
<circle cx="5329" cy="2773" r="67"
 style="fill:#5d5d5d;stroke:#5d5d5d;stroke-width:0;"/>
<!-- Circle -->
<circle cx="5252" cy="2901" r="67"
 style="fill:#5d5d5d;stroke:#5d5d5d;stroke-width:0;"/>
<!-- Circle -->
<circle cx="5345" cy="3014" r="67"
 style="fill:#5d5d5d;stroke:#5d5d5d;stroke-width:0;"/>
<!-- Circle -->
<circle cx="3218" cy="2612" r="67"
 style="fill:#5d5d5d;stroke:#5d5d5d;stroke-width:0;"/>
<!-- Circle -->
<circle cx="3133" cy="2850" r="67"
 style="fill:#5d5d5d;stroke:#5d5d5d;stroke-width:0;"/>
<!-- Circle -->
<circle cx="3345" cy="2773" r="67"
 style="fill:#5d5d5d;stroke:#5d5d5d;stroke-width:0;"/>
<!-- Circle -->
<circle cx="3422" cy="952" r="67"
 style="fill:#5d5d5d;stroke:#5d5d5d;stroke-width:0;"/>
<!-- Circle -->
<circle cx="-5095" cy="761" r="67"
 style="fill:#5d5d5d;stroke:#5d5d5d;stroke-width:0;"/>
<!-- Circle -->
<circle cx="-5329" cy="2513" r="67"
 style="fill:#5d5d5d;stroke:#5d5d5d;stroke-width:0;"/>
<!-- Circle -->
<circle cx="-5174" cy="2766" r="67"
 style="fill:#5d5d5d;stroke:#5d5d5d;stroke-width:0;"/>
<!-- Circle -->
<circle cx="-3205" cy="2402" r="67"
 style="fill:#5d5d5d;stroke:#5d5d5d;stroke-width:0;"/>
<!-- Circle -->
<circle cx="-3248" cy="2101" r="67"
 style="fill:#5d5d5d;stroke:#5d5d5d;stroke-width:0;"/>
<!-- Circle -->
<circle cx="-3338" cy="882" r="67"
 style="fill:#5d5d5d;stroke:#5d5d5d;stroke-width:0;"/>
<!-- Circle -->
<circle cx="-3068" cy="899" r="67"
 style="fill:#5d5d5d;stroke:#5d5d5d;stroke-width:0;"/>
<!-- Circle -->
<circle cx="-2922" cy="2097" r="67"
 style="fill:#5d5d5d;stroke:#5d5d5d;stroke-width:0;"/>
<!-- Circle -->
<circle cx="-2678" cy="3672" r="67"
 style="fill:#5d5d5d;stroke:#5d5d5d;stroke-width:0;"/>
<!-- Circle -->
<circle cx="-2372" cy="3590" r="67"
 style="fill:#5d5d5d;stroke:#5d5d5d;stroke-width:0;"/>
<!-- Circle -->
<circle cx="-1484" cy="2371" r="67"
 style="fill:#5d5d5d;stroke:#5d5d5d;stroke-width:0;"/>
<!-- Circle -->
<circle cx="-2068" cy="969" r="67"
 style="fill:#5d5d5d;stroke:#5d5d5d;stroke-width:0;"/>
<!-- Line -->
<polyline points="3062,1320
3338,1415
" style="stroke:#0000ff;stroke-width:32;
stroke-linejoin:miter; stroke-linecap:butt;
"/>
<!-- Line -->
<polyline points="2642,2695
2921,2717
" style="stroke:#0000ff;stroke-width:32;
stroke-linejoin:miter; stroke-linecap:butt;
"/>
<!-- Line -->
<polyline points="3076,3068
3308,3192
" style="stroke:#0000ff;stroke-width:32;
stroke-linejoin:miter; stroke-linecap:butt;
"/>
<!-- Line -->
<polyline points="3399,1947
3634,1986
" style="stroke:#0000ff;stroke-width:32;
stroke-linejoin:miter; stroke-linecap:butt;
"/>
</g>
</svg>
