<?xml version="1.0" standalone="no"?>
<!DOCTYPE svg PUBLIC "-//W3C//DTD SVG 1.1//EN"
"http://www.w3.org/Graphics/SVG/1.1/DTD/svg11.dtd">
<!-- Creator: fig2dev Version 3.2.6 -->
<!-- CreationDate: Mon Nov 21 08:47:43 2016 -->
<!-- Magnification: 1.050 -->
<svg	xmlns="http://www.w3.org/2000/svg"
	xmlns:xlink="http://www.w3.org/1999/xlink"
	width="9.9in" height="3.9in"
	viewBox="-329 -61 11901 4672">
<g style="stroke-width:.025in; fill:none">
<!-- Line -->
<polyline points="7394,2392
9198,2798
" style="stroke:#5e5e5e;stroke-width:8;
stroke-linejoin:round; stroke-linecap:butt;
"/>
<!-- Line -->
<polyline points="1150,2228
2956,2634
" style="stroke:#5e5e5e;stroke-width:8;
stroke-linejoin:round; stroke-linecap:butt;
"/>
<!-- Line -->
<polyline points="7367,569
7394,2392
" style="stroke:#5e5e5e;stroke-width:8;
stroke-linejoin:round; stroke-linecap:butt;
"/>
<!-- Line -->
<polyline points="1125,404
1150,2228
" style="stroke:#5e5e5e;stroke-width:8;
stroke-linejoin:round; stroke-linecap:butt;
"/>
<!-- Line -->
<polyline points="9127,3036
7317,2614
" style="stroke:#5e5e5e;stroke-width:8;
stroke-linejoin:round; stroke-linecap:butt;
"/>
<!-- Line -->
<polyline points="2885,2871
1075,2449
" style="stroke:#5e5e5e;stroke-width:8;
stroke-linejoin:round; stroke-linecap:butt;
"/>
<!-- Line -->
<polyline points="7166,2428
7121,596
" style="stroke:#5e5e5e;stroke-width:8;
stroke-linejoin:round; stroke-linecap:butt;
"/>
<!-- Line -->
<polyline points="922,2263
878,431
" style="stroke:#5e5e5e;stroke-width:8;
stroke-linejoin:round; stroke-linecap:butt;
"/>
<!-- Line -->
<polyline points="7317,2614
6291,3543
" style="stroke:#5e5e5e;stroke-width:8;
stroke-linejoin:round; stroke-linecap:butt;
"/>
<!-- Line -->
<polyline points="1075,2449
49,3379
" style="stroke:#5e5e5e;stroke-width:8;
stroke-linejoin:round; stroke-linecap:butt;
"/>
<!-- Line -->
<polyline points="6117,3333
7166,2428
" style="stroke:#5e5e5e;stroke-width:8;
stroke-linejoin:round; stroke-linecap:butt;
"/>
<!-- Line -->
<polyline points="-127,3168
922,2263
" style="stroke:#5e5e5e;stroke-width:8;
stroke-linejoin:round; stroke-linecap:butt;
"/>
<!-- Line -->
<polyline points="9198,2798
9311,876
" style="stroke:#5e5e5e;stroke-width:8;
stroke-linejoin:round; stroke-linecap:butt;
"/>
<!-- Line -->
<polyline points="2956,2634
3067,712
" style="stroke:#5e5e5e;stroke-width:8;
stroke-linejoin:round; stroke-linecap:butt;
"/>
<!-- Line -->
<polyline points="9311,876
7367,569
" style="stroke:#5e5e5e;stroke-width:8;
stroke-linejoin:round; stroke-linecap:butt;
"/>
<!-- Line -->
<polyline points="3067,712
1125,404
" style="stroke:#5e5e5e;stroke-width:8;
stroke-linejoin:round; stroke-linecap:butt;
"/>
<!-- Line -->
<polyline points="9432,969
9308,2917
" style="stroke:#5e5e5e;stroke-width:8;
stroke-linejoin:round; stroke-linecap:butt;
"/>
<!-- Line -->
<polyline points="3188,804
3065,2752
" style="stroke:#5e5e5e;stroke-width:8;
stroke-linejoin:round; stroke-linecap:butt;
"/>
<!-- Line -->
<polyline points="7279,445
9256,752
" style="stroke:#5e5e5e;stroke-width:8;
stroke-linejoin:round; stroke-linecap:butt;
"/>
<!-- Line -->
<polyline points="1036,281
3013,587
" style="stroke:#5e5e5e;stroke-width:8;
stroke-linejoin:round; stroke-linecap:butt;
"/>
<!-- Line -->
<polyline points="9893,1006
9737,2961
" style="stroke:#5e5e5e;stroke-width:8;
stroke-linejoin:round; stroke-linecap:butt;
"/>
<!-- Line -->
<polyline points="3651,843
3493,2796
" style="stroke:#5e5e5e;stroke-width:8;
stroke-linejoin:round; stroke-linecap:butt;
"/>
<!-- Line -->
<polyline points="9527,2980
9673,1016
" style="stroke:#5e5e5e;stroke-width:8;
stroke-linejoin:round; stroke-linecap:butt;
"/>
<!-- Line -->
<polyline points="3283,2815
3430,851
" style="stroke:#5e5e5e;stroke-width:8;
stroke-linejoin:round; stroke-linecap:butt;
"/>
<!-- Line -->
<polyline points="8303,4102
9127,3036
" style="stroke:#5e5e5e;stroke-width:8;
stroke-linejoin:round; stroke-linecap:butt;
"/>
<!-- Line -->
<polyline points="2060,3938
2885,2871
" style="stroke:#5e5e5e;stroke-width:8;
stroke-linejoin:round; stroke-linecap:butt;
"/>
<!-- Line -->
<polyline points="7121,596
5976,1288
" style="stroke:#5e5e5e;stroke-width:8;
stroke-linejoin:round; stroke-linecap:butt;
"/>
<!-- Line -->
<polyline points="878,431
-265,1123
" style="stroke:#5e5e5e;stroke-width:8;
stroke-linejoin:round; stroke-linecap:butt;
"/>
<!-- Line -->
<polyline points="9308,2917
8501,3981
" style="stroke:#5e5e5e;stroke-width:8;
stroke-linejoin:round; stroke-linecap:butt;
"/>
<!-- Line -->
<polyline points="3065,2752
2258,3816
" style="stroke:#5e5e5e;stroke-width:8;
stroke-linejoin:round; stroke-linecap:butt;
"/>
<!-- Line -->
<polyline points="6142,1126
7279,445
" style="stroke:#5e5e5e;stroke-width:8;
stroke-linejoin:round; stroke-linecap:butt;
"/>
<!-- Line -->
<polyline points="9758,3180
9001,4283
" style="stroke:#5e5e5e;stroke-width:8;
stroke-linejoin:round; stroke-linecap:butt;
"/>
<!-- Line -->
<polyline points="-99,961
1036,281
" style="stroke:#5e5e5e;stroke-width:8;
stroke-linejoin:round; stroke-linecap:butt;
"/>
<!-- Line -->
<polyline points="3514,3015
2759,4118
" style="stroke:#5e5e5e;stroke-width:8;
stroke-linejoin:round; stroke-linecap:butt;
"/>
<!-- Line -->
<polyline points="8754,4065
9527,2980
" style="stroke:#5e5e5e;stroke-width:8;
stroke-linejoin:round; stroke-linecap:butt;
"/>
<!-- Line -->
<polyline points="2512,3900
3283,2815
" style="stroke:#5e5e5e;stroke-width:8;
stroke-linejoin:round; stroke-linecap:butt;
"/>
<!-- Line -->
<polyline points="6291,3543
8303,4102
" style="stroke:#5e5e5e;stroke-width:8;
stroke-linejoin:round; stroke-linecap:butt;
"/>
<!-- Line -->
<polyline points="49,3379
2060,3938
" style="stroke:#5e5e5e;stroke-width:8;
stroke-linejoin:round; stroke-linecap:butt;
"/>
<!-- Line -->
<polyline points="9737,2961
11464,2891
" style="stroke:#5e5e5e;stroke-width:8;
stroke-linejoin:round; stroke-linecap:butt;
"/>
<!-- Line -->
<polyline points="3493,2796
5219,2727
" style="stroke:#5e5e5e;stroke-width:8;
stroke-linejoin:round; stroke-linecap:butt;
"/>
<!-- Line -->
<polyline points="11484,3141
9758,3180
" style="stroke:#5e5e5e;stroke-width:8;
stroke-linejoin:round; stroke-linecap:butt;
"/>
<!-- Line -->
<polyline points="5241,2976
3514,3015
" style="stroke:#5e5e5e;stroke-width:8;
stroke-linejoin:round; stroke-linecap:butt;
"/>
<!-- Line -->
<polyline points="5976,1288
6117,3333
" style="stroke:#5e5e5e;stroke-width:8;
stroke-linejoin:round; stroke-linecap:butt;
"/>
<!-- Line -->
<polyline points="-265,1123
-127,3168
" style="stroke:#5e5e5e;stroke-width:8;
stroke-linejoin:round; stroke-linecap:butt;
"/>
<!-- Line -->
<polyline points="8223,4036
6174,3470
" style="stroke:#5e5e5e;stroke-width:8;
stroke-linejoin:round; stroke-linecap:butt;
"/>
<!-- Line -->
<polyline points="1979,3871
-68,3307
" style="stroke:#5e5e5e;stroke-width:8;
stroke-linejoin:round; stroke-linecap:butt;
"/>
<!-- Line -->
<polyline points="6174,3470
6038,1396
" style="stroke:#5e5e5e;stroke-width:8;
stroke-linejoin:round; stroke-linecap:butt;
"/>
<!-- Line -->
<polyline points="-68,3307
-204,1232
" style="stroke:#5e5e5e;stroke-width:8;
stroke-linejoin:round; stroke-linecap:butt;
"/>
<!-- Line -->
<polyline points="11464,2891
9893,1006
" style="stroke:#5e5e5e;stroke-width:8;
stroke-linejoin:round; stroke-linecap:butt;
"/>
<!-- Line -->
<polyline points="5219,2727
3651,843
" style="stroke:#5e5e5e;stroke-width:8;
stroke-linejoin:round; stroke-linecap:butt;
"/>
<!-- Line -->
<polyline points="9916,906
11506,2811
" style="stroke:#5e5e5e;stroke-width:8;
stroke-linejoin:round; stroke-linecap:butt;
"/>
<!-- Line -->
<polyline points="3672,741
5262,2646
" style="stroke:#5e5e5e;stroke-width:8;
stroke-linejoin:round; stroke-linecap:butt;
"/>
<!-- Line -->
<polyline points="8571,1795
9050,1335
" style="stroke:#000000;stroke-width:16;
stroke-linejoin:round; stroke-linecap:butt;
"/>
<!-- Line -->
<polyline points="9047,1338
9425,975
" style="stroke:#000000;stroke-width:16;
stroke-linejoin:round; stroke-linecap:butt;
"/>
<!-- Line -->
<polyline points="9256,756
8864,1103
" style="stroke:#000000;stroke-width:16;
stroke-linejoin:round; stroke-linecap:butt;
"/>
<!-- Line -->
<polyline points="8864,1103
8364,1543
" style="stroke:#000000;stroke-width:16;
stroke-linejoin:round; stroke-linecap:butt;
"/>
<!-- Line -->
<polyline points="9289,1415
8854,1861
" style="stroke:#000000;stroke-width:16;
stroke-linejoin:round; stroke-linecap:butt;
"/>
<!-- Line -->
<polyline points="9657,1032
9287,1418
" style="stroke:#000000;stroke-width:16;
stroke-linejoin:round; stroke-linecap:butt;
"/>
<!-- Line -->
<polyline points="3430,851
2611,1696
" style="stroke:#000000;stroke-width:16;
stroke-linejoin:round; stroke-linecap:butt;
"/>
<!-- Line -->
<polyline points="9001,4283
11484,3141
" style="stroke:#5e5e5e;stroke-width:8;
stroke-linejoin:round; stroke-linecap:butt;
"/>
<!-- Line -->
<polyline points="2759,4118
5241,2976
" style="stroke:#5e5e5e;stroke-width:8;
stroke-linejoin:round; stroke-linecap:butt;
"/>
<!-- Line -->
<polyline points="9497,1339
9916,906
" style="stroke:#000000;stroke-width:16;
stroke-linejoin:round; stroke-linecap:butt;
"/>
<!-- Line -->
<polyline points="9116,1728
9496,1338
" style="stroke:#000000;stroke-width:16;
stroke-linejoin:round; stroke-linecap:butt;
"/>
<!-- Line -->
<polyline points="2866,1574
3672,741
" style="stroke:#000000;stroke-width:16;
stroke-linejoin:round; stroke-linecap:butt;
"/>
<!-- Line -->
<polyline points="11420,3039
8901,4201
" style="stroke:#5e5e5e;stroke-width:8;
stroke-linejoin:round; stroke-linecap:butt;
"/>
<!-- Line -->
<polyline points="5175,2874
2658,4036
" style="stroke:#5e5e5e;stroke-width:8;
stroke-linejoin:round; stroke-linecap:butt;
"/>
<!-- Line -->
<polyline points="8501,3981
8571,1795
" style="stroke:#5e5e5e;stroke-width:8;
stroke-linejoin:round; stroke-linecap:butt;
"/>
<!-- Line -->
<polyline points="8657,1286
8854,1109
" style="stroke:#000000;stroke-width:48;
stroke-linejoin:round; stroke-linecap:butt;
"/>
<!-- Line -->
<polyline points="2258,3816
2327,1630
" style="stroke:#5e5e5e;stroke-width:8;
stroke-linejoin:round; stroke-linecap:butt;
"/>
<!-- Line -->
<polyline points="2327,1630
3188,804
" style="stroke:#000000;stroke-width:16;
stroke-linejoin:round; stroke-linecap:butt;
"/>
<!-- Line -->
<polyline points="2130,1371
2616,939
" style="stroke:#000000;stroke-width:48;
stroke-linejoin:round; stroke-linecap:butt;
"/>
<!-- Line -->
<polyline points="8364,1543
6142,1126
" style="stroke:#5e5e5e;stroke-width:8;
stroke-linejoin:round; stroke-linecap:butt;
"/>
<!-- Line -->
<polyline points="2120,1378
-99,961
" style="stroke:#5e5e5e;stroke-width:8;
stroke-linejoin:round; stroke-linecap:butt;
"/>
<!-- Line -->
<polyline points="3013,587
2120,1378
" style="stroke:#000000;stroke-width:16;
stroke-linejoin:round; stroke-linecap:butt;
"/>
<!-- Line -->
<polyline points="8265,1839
8223,4036
" style="stroke:#5e5e5e;stroke-width:8;
stroke-linejoin:round; stroke-linecap:butt;
"/>
<!-- Line -->
<polyline points="2022,1675
1979,3871
" style="stroke:#5e5e5e;stroke-width:8;
stroke-linejoin:round; stroke-linecap:butt;
"/>
<!-- Line -->
<polyline points="8854,1861
8754,4065
" style="stroke:#5e5e5e;stroke-width:8;
stroke-linejoin:round; stroke-linecap:butt;
"/>
<!-- Line -->
<polyline points="2611,1696
2512,3900
" style="stroke:#5e5e5e;stroke-width:8;
stroke-linejoin:round; stroke-linecap:butt;
"/>
<!-- Line -->
<polyline points="6038,1396
8265,1839
" style="stroke:#5e5e5e;stroke-width:8;
stroke-linejoin:round; stroke-linecap:butt;
"/>
<!-- Line -->
<polyline points="-204,1232
2022,1675
" style="stroke:#5e5e5e;stroke-width:8;
stroke-linejoin:round; stroke-linecap:butt;
"/>
<!-- Line -->
<polyline points="8901,4201
9007,1975
" style="stroke:#5e5e5e;stroke-width:8;
stroke-linejoin:round; stroke-linecap:butt;
"/>
<!-- Line -->
<polyline points="2658,4036
2764,1811
" style="stroke:#5e5e5e;stroke-width:8;
stroke-linejoin:round; stroke-linecap:butt;
"/>
<!-- Line -->
<polyline points="11506,2811
9108,1739
" style="stroke:#5e5e5e;stroke-width:8;
stroke-linejoin:round; stroke-linecap:butt;
"/>
<!-- Line -->
<polyline points="5262,2646
2866,1574
" style="stroke:#5e5e5e;stroke-width:8;
stroke-linejoin:round; stroke-linecap:butt;
"/>
<!-- Line -->
<polyline points="9007,1975
11420,3039
" style="stroke:#5e5e5e;stroke-width:8;
stroke-linejoin:round; stroke-linecap:butt;
"/>
<!-- Line -->
<polyline points="2764,1811
5175,2874
" style="stroke:#5e5e5e;stroke-width:8;
stroke-linejoin:round; stroke-linecap:butt;
"/>
<!-- Arc -->
<path style="stroke:#000000;stroke-width:16;stroke-linecap:butt;"
d="M 6796,3812 A 2893 2893  0  0  1  3794  3824 " />
<!-- Arrowhead on XXXpoint 3967 3920 - 3794 3824-->
<polygon points="4056 3860
3803 3829
3965 4027
3969 3921
4056 3860

" style="stroke:#000000;stroke-width:8;stroke-miterlimit:8;
fill:white;"/>
<!-- Arc -->
<path style="stroke:#000000;stroke-width:16;stroke-linecap:butt;"
d="M 3802,705 A 2504 2504  0  0  1  6553  738 " />
<!-- Arrowhead on XXXpoint 6385 634 - 6553 738-->
<polygon points="6291 687
6543 732
6391 527
6382 632
6291 687

" style="stroke:#000000;stroke-width:8;stroke-miterlimit:8;
fill:white;"/>
<!-- Text -->
<text xml:space="preserve" x="8332" y="1171" fill="#000000"  font-family="Times" font-style="normal" font-weight="normal" font-size="189" text-anchor="start">dh2</text>
<!-- Text -->
<text xml:space="preserve" x="3426" y="180" fill="#000000"  font-family="Times" font-style="normal" font-weight="normal" font-size="227" text-anchor="start">dh2=gm.insert_cell_0_in_cell_1(dh1)</text>
<!-- Text -->
<text xml:space="preserve" x="2044" y="1090" fill="#000000"  font-family="Times" font-style="normal" font-weight="normal" font-size="189" text-anchor="start">dh1</text>
<!-- Text -->
<text xml:space="preserve" x="4090" y="4510" fill="#000000"  font-family="Times" font-style="normal" font-weight="normal" font-size="227" text-anchor="start">gm.remove_cell&#60;0&#62;(dh2)</text>
<!-- Line -->
<polyline points="9471,3514
" style="stroke:#9f9f9f;stroke-width:8;
stroke-linejoin:miter; stroke-linecap:butt;
"/>
<!-- Line -->
<polyline points="10535,2877
10543,3192
" style="stroke:#9f9f9f;stroke-width:8;
stroke-linejoin:miter; stroke-linecap:butt;
"/>
<!-- Line -->
<polyline points="10100,3591
10218,3787
" style="stroke:#9f9f9f;stroke-width:8;
stroke-linejoin:miter; stroke-linecap:butt;
"/>
<!-- Line -->
<polyline points="8788,2838
8974,2901
" style="stroke:#9f9f9f;stroke-width:8;
stroke-linejoin:miter; stroke-linecap:butt;
"/>
<!-- Line -->
<polyline points="10152,2176
10005,2469
" style="stroke:#9f9f9f;stroke-width:8;
stroke-linejoin:miter; stroke-linecap:butt;
"/>
<!-- Line -->
<polyline points="10561,1872
10699,1783
" style="stroke:#9f9f9f;stroke-width:8;
stroke-linejoin:miter; stroke-linecap:butt;
"/>
<!-- Line -->
<polyline points="9551,2060
9843,2119
" style="stroke:#9f9f9f;stroke-width:8;
stroke-linejoin:miter; stroke-linecap:butt;
"/>
<!-- Line -->
<polyline points="9098,3498
9497,3633
" style="stroke:#9f9f9f;stroke-width:8;
stroke-linejoin:miter; stroke-linecap:butt;
"/>
<!-- Line -->
<polyline points="9063,1601
9238,1592
" style="stroke:#9f9f9f;stroke-width:8;
stroke-linejoin:miter; stroke-linecap:butt;
"/>
<!-- Line -->
<polyline points="9421,1225
9596,1216
" style="stroke:#9f9f9f;stroke-width:8;
stroke-linejoin:miter; stroke-linecap:butt;
"/>
<!-- Line -->
<polyline points="7517,1370
7344,1716
" style="stroke:#9f9f9f;stroke-width:8;
stroke-linejoin:miter; stroke-linecap:butt;
"/>
<!-- Line -->
<polyline points="6598,2849
6900,3046
" style="stroke:#9f9f9f;stroke-width:8;
stroke-linejoin:miter; stroke-linecap:butt;
"/>
<!-- Line -->
<polyline points="8175,2520
8106,2849
" style="stroke:#9f9f9f;stroke-width:8;
stroke-linejoin:miter; stroke-linecap:butt;
"/>
<!-- Line -->
<polyline points="8668,3558
8833,3558
" style="stroke:#9f9f9f;stroke-width:8;
stroke-linejoin:miter; stroke-linecap:butt;
"/>
<!-- Line -->
<polyline points="7352,3757
7152,3809
" style="stroke:#9f9f9f;stroke-width:8;
stroke-linejoin:miter; stroke-linecap:butt;
"/>
<!-- Line -->
<polyline points="8140,553
8235,752
" style="stroke:#9f9f9f;stroke-width:8;
stroke-linejoin:miter; stroke-linecap:butt;
"/>
<!-- Line -->
<polyline points="6814,707
6814,752
6814,794
" style="stroke:#9f9f9f;stroke-width:8;
stroke-linejoin:miter; stroke-linecap:butt;
"/>
<!-- Line -->
<polyline points="6001,2277
6044,2293
6071,2338
6113,2355
" style="stroke:#9f9f9f;stroke-width:8;
stroke-linejoin:miter; stroke-linecap:butt;
"/>
<!-- Line -->
<polyline points="7108,1464
7367,1393
" style="stroke:#9f9f9f;stroke-width:8;
stroke-linejoin:miter; stroke-linecap:butt;
"/>
<!-- Line -->
<polyline points="8216,2768
8599,2780
" style="stroke:#9f9f9f;stroke-width:8;
stroke-linejoin:miter; stroke-linecap:butt;
"/>
<!-- Line -->
<polyline points="9188,1939
9405,1964
" style="stroke:#9f9f9f;stroke-width:8;
stroke-linejoin:miter; stroke-linecap:butt;
"/>
<!-- Line -->
<polyline points="8625,1256
8875,1567
" style="stroke:#9f9f9f;stroke-width:8;
stroke-linejoin:miter; stroke-linecap:butt;
"/>
<!-- Line -->
<polyline points="9029,892
9273,1194
" style="stroke:#9f9f9f;stroke-width:8;
stroke-linejoin:miter; stroke-linecap:butt;
"/>
<!-- Line -->
<polyline points="3228,3350
" style="stroke:#9f9f9f;stroke-width:8;
stroke-linejoin:miter; stroke-linecap:butt;
"/>
<!-- Line -->
<polyline points="4291,2712
4300,3027
" style="stroke:#9f9f9f;stroke-width:8;
stroke-linejoin:miter; stroke-linecap:butt;
"/>
<!-- Line -->
<polyline points="3856,3426
3974,3623
" style="stroke:#9f9f9f;stroke-width:8;
stroke-linejoin:miter; stroke-linecap:butt;
"/>
<!-- Line -->
<polyline points="2544,2674
2731,2737
" style="stroke:#9f9f9f;stroke-width:8;
stroke-linejoin:miter; stroke-linecap:butt;
"/>
<!-- Line -->
<polyline points="3908,2011
3761,2304
" style="stroke:#9f9f9f;stroke-width:8;
stroke-linejoin:miter; stroke-linecap:butt;
"/>
<!-- Line -->
<polyline points="4319,1708
4456,1618
" style="stroke:#9f9f9f;stroke-width:8;
stroke-linejoin:miter; stroke-linecap:butt;
"/>
<!-- Line -->
<polyline points="3309,1896
3600,1954
" style="stroke:#9f9f9f;stroke-width:8;
stroke-linejoin:miter; stroke-linecap:butt;
"/>
<!-- Line -->
<polyline points="2854,3333
3254,3469
" style="stroke:#9f9f9f;stroke-width:8;
stroke-linejoin:miter; stroke-linecap:butt;
"/>
<!-- Line -->
<polyline points="3019,1245
3195,1236
" style="stroke:#9f9f9f;stroke-width:8;
stroke-linejoin:miter; stroke-linecap:butt;
"/>
<!-- Line -->
<polyline points="1274,1205
1102,1551
" style="stroke:#9f9f9f;stroke-width:8;
stroke-linejoin:miter; stroke-linecap:butt;
"/>
<!-- Line -->
<polyline points="355,2684
658,2882
" style="stroke:#9f9f9f;stroke-width:8;
stroke-linejoin:miter; stroke-linecap:butt;
"/>
<!-- Line -->
<polyline points="1931,2355
1862,2684
" style="stroke:#9f9f9f;stroke-width:8;
stroke-linejoin:miter; stroke-linecap:butt;
"/>
<!-- Line -->
<polyline points="2426,3393
2591,3393
" style="stroke:#9f9f9f;stroke-width:8;
stroke-linejoin:miter; stroke-linecap:butt;
"/>
<!-- Line -->
<polyline points="1109,3592
910,3645
" style="stroke:#9f9f9f;stroke-width:8;
stroke-linejoin:miter; stroke-linecap:butt;
"/>
<!-- Line -->
<polyline points="1897,388
1991,587
" style="stroke:#9f9f9f;stroke-width:8;
stroke-linejoin:miter; stroke-linecap:butt;
"/>
<!-- Line -->
<polyline points="2582,901
2841,1218
" style="stroke:#9f9f9f;stroke-width:8;
stroke-linejoin:miter; stroke-linecap:butt;
"/>
<!-- Line -->
<polyline points="572,542
572,587
572,630
" style="stroke:#9f9f9f;stroke-width:8;
stroke-linejoin:miter; stroke-linecap:butt;
"/>
<!-- Line -->
<polyline points="-241,2112
-199,2129
-173,2173
-130,2191
" style="stroke:#9f9f9f;stroke-width:8;
stroke-linejoin:miter; stroke-linecap:butt;
"/>
<!-- Line -->
<polyline points="866,1299
1125,1228
" style="stroke:#9f9f9f;stroke-width:8;
stroke-linejoin:miter; stroke-linecap:butt;
"/>
<!-- Line -->
<polyline points="1973,2603
2355,2615
" style="stroke:#9f9f9f;stroke-width:8;
stroke-linejoin:miter; stroke-linecap:butt;
"/>
<!-- Line -->
<polyline points="2944,1774
3162,1799
" style="stroke:#9f9f9f;stroke-width:8;
stroke-linejoin:miter; stroke-linecap:butt;
"/>
<!-- Circle -->
<circle cx="1078" cy="276" r="67"
 style="fill:#5d5d5d;stroke:#5d5d5d;stroke-width:0;"/>
<!-- Circle -->
<circle cx="887" cy="474" r="67"
 style="fill:#5d5d5d;stroke:#5d5d5d;stroke-width:0;"/>
<!-- Circle -->
<circle cx="1170" cy="438" r="67"
 style="fill:#5d5d5d;stroke:#5d5d5d;stroke-width:0;"/>
<!-- Circle -->
<circle cx="3002" cy="572" r="67"
 style="fill:#5d5d5d;stroke:#5d5d5d;stroke-width:0;"/>
<!-- Circle -->
<circle cx="3196" cy="828" r="67"
 style="fill:#5d5d5d;stroke:#5d5d5d;stroke-width:0;"/>
<!-- Circle -->
<circle cx="3064" cy="730" r="67"
 style="fill:#5d5d5d;stroke:#5d5d5d;stroke-width:0;"/>
<!-- Circle -->
<circle cx="3391" cy="872" r="67"
 style="fill:#5d5d5d;stroke:#5d5d5d;stroke-width:0;"/>
<!-- Circle -->
<circle cx="3656" cy="730" r="67"
 style="fill:#5d5d5d;stroke:#5d5d5d;stroke-width:0;"/>
<!-- Circle -->
<circle cx="3656" cy="925" r="67"
 style="fill:#5d5d5d;stroke:#5d5d5d;stroke-width:0;"/>
<!-- Circle -->
<circle cx="-50" cy="934" r="67"
 style="fill:#5d5d5d;stroke:#5d5d5d;stroke-width:0;"/>
<!-- Circle -->
<circle cx="-262" cy="1120" r="67"
 style="fill:#5d5d5d;stroke:#5d5d5d;stroke-width:0;"/>
<!-- Circle -->
<circle cx="-164" cy="1270" r="67"
 style="fill:#5d5d5d;stroke:#5d5d5d;stroke-width:0;"/>
<!-- Circle -->
<circle cx="932" cy="2287" r="67"
 style="fill:#5d5d5d;stroke:#5d5d5d;stroke-width:0;"/>
<!-- Circle -->
<circle cx="1170" cy="2217" r="67"
 style="fill:#5d5d5d;stroke:#5d5d5d;stroke-width:0;"/>
<!-- Circle -->
<circle cx="1100" cy="2465" r="67"
 style="fill:#5d5d5d;stroke:#5d5d5d;stroke-width:0;"/>
<!-- Circle -->
<circle cx="-130" cy="3172" r="67"
 style="fill:#5d5d5d;stroke:#5d5d5d;stroke-width:0;"/>
<!-- Circle -->
<circle cx="-76" cy="3322" r="67"
 style="fill:#5d5d5d;stroke:#5d5d5d;stroke-width:0;"/>
<!-- Circle -->
<circle cx="73" cy="3394" r="67"
 style="fill:#5d5d5d;stroke:#5d5d5d;stroke-width:0;"/>
<!-- Circle -->
<circle cx="1967" cy="3836" r="67"
 style="fill:#5d5d5d;stroke:#5d5d5d;stroke-width:0;"/>
<!-- Circle -->
<circle cx="2064" cy="3977" r="67"
 style="fill:#5d5d5d;stroke:#5d5d5d;stroke-width:0;"/>
<!-- Circle -->
<circle cx="2293" cy="3827" r="67"
 style="fill:#5d5d5d;stroke:#5d5d5d;stroke-width:0;"/>
<!-- Circle -->
<circle cx="2515" cy="3907" r="67"
 style="fill:#5d5d5d;stroke:#5d5d5d;stroke-width:0;"/>
<!-- Circle -->
<circle cx="2657" cy="4022" r="67"
 style="fill:#5d5d5d;stroke:#5d5d5d;stroke-width:0;"/>
<!-- Circle -->
<circle cx="2798" cy="4119" r="67"
 style="fill:#5d5d5d;stroke:#5d5d5d;stroke-width:0;"/>
<!-- Circle -->
<circle cx="3542" cy="3030" r="67"
 style="fill:#5d5d5d;stroke:#5d5d5d;stroke-width:0;"/>
<!-- Circle -->
<circle cx="3285" cy="2845" r="67"
 style="fill:#5d5d5d;stroke:#5d5d5d;stroke-width:0;"/>
<!-- Circle -->
<circle cx="3506" cy="2792" r="67"
 style="fill:#5d5d5d;stroke:#5d5d5d;stroke-width:0;"/>
<!-- Circle -->
<circle cx="3099" cy="2774" r="67"
 style="fill:#5d5d5d;stroke:#5d5d5d;stroke-width:0;"/>
<!-- Circle -->
<circle cx="2931" cy="2624" r="67"
 style="fill:#5d5d5d;stroke:#5d5d5d;stroke-width:0;"/>
<!-- Circle -->
<circle cx="2869" cy="2862" r="67"
 style="fill:#5d5d5d;stroke:#5d5d5d;stroke-width:0;"/>
<!-- Circle -->
<circle cx="2117" cy="1376" r="67"
 style="fill:#5d5d5d;stroke:#5d5d5d;stroke-width:0;"/>
<!-- Circle -->
<circle cx="2011" cy="1703" r="67"
 style="fill:#5d5d5d;stroke:#5d5d5d;stroke-width:0;"/>
<!-- Circle -->
<circle cx="2311" cy="1633" r="67"
 style="fill:#5d5d5d;stroke:#5d5d5d;stroke-width:0;"/>
<!-- Circle -->
<circle cx="2613" cy="1703" r="67"
 style="fill:#5d5d5d;stroke:#5d5d5d;stroke-width:0;"/>
<!-- Circle -->
<circle cx="2789" cy="1819" r="67"
 style="fill:#5d5d5d;stroke:#5d5d5d;stroke-width:0;"/>
<!-- Circle -->
<circle cx="2904" cy="1597" r="67"
 style="fill:#5d5d5d;stroke:#5d5d5d;stroke-width:0;"/>
<!-- Circle -->
<circle cx="5249" cy="2588" r="67"
 style="fill:#5d5d5d;stroke:#5d5d5d;stroke-width:0;"/>
<!-- Circle -->
<circle cx="5223" cy="2748" r="67"
 style="fill:#5d5d5d;stroke:#5d5d5d;stroke-width:0;"/>
<!-- Circle -->
<circle cx="5161" cy="2880" r="67"
 style="fill:#5d5d5d;stroke:#5d5d5d;stroke-width:0;"/>
<!-- Circle -->
<circle cx="5220" cy="2987" r="67"
 style="fill:#5d5d5d;stroke:#5d5d5d;stroke-width:0;"/>
<!-- Circle -->
<circle cx="6081" cy="3298" r="67"
 style="fill:#5d5d5d;stroke:#5d5d5d;stroke-width:0;"/>
<!-- Circle -->
<circle cx="6160" cy="3464" r="67"
 style="fill:#5d5d5d;stroke:#5d5d5d;stroke-width:0;"/>
<!-- Circle -->
<circle cx="6338" cy="3580" r="67"
 style="fill:#5d5d5d;stroke:#5d5d5d;stroke-width:0;"/>
<!-- Circle -->
<circle cx="7169" cy="2465" r="67"
 style="fill:#5d5d5d;stroke:#5d5d5d;stroke-width:0;"/>
<!-- Circle -->
<circle cx="7417" cy="2403" r="67"
 style="fill:#5d5d5d;stroke:#5d5d5d;stroke-width:0;"/>
<!-- Circle -->
<circle cx="7337" cy="2650" r="67"
 style="fill:#5d5d5d;stroke:#5d5d5d;stroke-width:0;"/>
<!-- Circle -->
<circle cx="5974" cy="1279" r="67"
 style="fill:#5d5d5d;stroke:#5d5d5d;stroke-width:0;"/>
<!-- Circle -->
<circle cx="6090" cy="1421" r="67"
 style="fill:#5d5d5d;stroke:#5d5d5d;stroke-width:0;"/>
<!-- Circle -->
<circle cx="6178" cy="1128" r="67"
 style="fill:#5d5d5d;stroke:#5d5d5d;stroke-width:0;"/>
<!-- Circle -->
<circle cx="7319" cy="465" r="67"
 style="fill:#5d5d5d;stroke:#5d5d5d;stroke-width:0;"/>
<!-- Circle -->
<circle cx="7142" cy="650" r="67"
 style="fill:#5d5d5d;stroke:#5d5d5d;stroke-width:0;"/>
<!-- Circle -->
<circle cx="7390" cy="616" r="67"
 style="fill:#5d5d5d;stroke:#5d5d5d;stroke-width:0;"/>
<!-- Circle -->
<circle cx="9239" cy="740" r="67"
 style="fill:#5d5d5d;stroke:#5d5d5d;stroke-width:0;"/>
<!-- Circle -->
<circle cx="9292" cy="908" r="67"
 style="fill:#5d5d5d;stroke:#5d5d5d;stroke-width:0;"/>
<!-- Circle -->
<circle cx="9425" cy="1014" r="67"
 style="fill:#5d5d5d;stroke:#5d5d5d;stroke-width:0;"/>
<!-- Circle -->
<circle cx="9646" cy="1040" r="67"
 style="fill:#5d5d5d;stroke:#5d5d5d;stroke-width:0;"/>
<!-- Circle -->
<circle cx="9929" cy="898" r="67"
 style="fill:#5d5d5d;stroke:#5d5d5d;stroke-width:0;"/>
<!-- Circle -->
<circle cx="9911" cy="1049" r="67"
 style="fill:#5d5d5d;stroke:#5d5d5d;stroke-width:0;"/>
<!-- Circle -->
<circle cx="11504" cy="2743" r="67"
 style="fill:#5d5d5d;stroke:#5d5d5d;stroke-width:0;"/>
<!-- Circle -->
<circle cx="11450" cy="2898" r="67"
 style="fill:#5d5d5d;stroke:#5d5d5d;stroke-width:0;"/>
<!-- Circle -->
<circle cx="11406" cy="3048" r="67"
 style="fill:#5d5d5d;stroke:#5d5d5d;stroke-width:0;"/>
<!-- Circle -->
<circle cx="11495" cy="3164" r="67"
 style="fill:#5d5d5d;stroke:#5d5d5d;stroke-width:0;"/>
<!-- Circle -->
<circle cx="8913" cy="4200" r="67"
 style="fill:#5d5d5d;stroke:#5d5d5d;stroke-width:0;"/>
<!-- Circle -->
<circle cx="9054" cy="4296" r="67"
 style="fill:#5d5d5d;stroke:#5d5d5d;stroke-width:0;"/>
<!-- Circle -->
<circle cx="8788" cy="4057" r="67"
 style="fill:#5d5d5d;stroke:#5d5d5d;stroke-width:0;"/>
<!-- Circle -->
<circle cx="8558" cy="3977" r="67"
 style="fill:#5d5d5d;stroke:#5d5d5d;stroke-width:0;"/>
<!-- Circle -->
<circle cx="8319" cy="4145" r="67"
 style="fill:#5d5d5d;stroke:#5d5d5d;stroke-width:0;"/>
<!-- Circle -->
<circle cx="8221" cy="4004" r="67"
 style="fill:#5d5d5d;stroke:#5d5d5d;stroke-width:0;"/>
<!-- Circle -->
<circle cx="8257" cy="1837" r="67"
 style="fill:#5d5d5d;stroke:#5d5d5d;stroke-width:0;"/>
<!-- Circle -->
<circle cx="8381" cy="1562" r="67"
 style="fill:#5d5d5d;stroke:#5d5d5d;stroke-width:0;"/>
<!-- Circle -->
<circle cx="8540" cy="1793" r="67"
 style="fill:#5d5d5d;stroke:#5d5d5d;stroke-width:0;"/>
<!-- Circle -->
<circle cx="9088" cy="3030" r="67"
 style="fill:#5d5d5d;stroke:#5d5d5d;stroke-width:0;"/>
<!-- Circle -->
<circle cx="9168" cy="2801" r="67"
 style="fill:#5d5d5d;stroke:#5d5d5d;stroke-width:0;"/>
<!-- Circle -->
<circle cx="9336" cy="2924" r="67"
 style="fill:#5d5d5d;stroke:#5d5d5d;stroke-width:0;"/>
<!-- Circle -->
<circle cx="9540" cy="2978" r="67"
 style="fill:#5d5d5d;stroke:#5d5d5d;stroke-width:0;"/>
<!-- Circle -->
<circle cx="9770" cy="2951" r="67"
 style="fill:#5d5d5d;stroke:#5d5d5d;stroke-width:0;"/>
<!-- Circle -->
<circle cx="9752" cy="3216" r="67"
 style="fill:#5d5d5d;stroke:#5d5d5d;stroke-width:0;"/>
<!-- Circle -->
<circle cx="8864" cy="1109" r="67"
 style="fill:#5d5d5d;stroke:#5d5d5d;stroke-width:0;"/>
<!-- Circle -->
<circle cx="9050" cy="1341" r="67"
 style="fill:#5d5d5d;stroke:#5d5d5d;stroke-width:0;"/>
<!-- Circle -->
<circle cx="9266" cy="1404" r="67"
 style="fill:#5d5d5d;stroke:#5d5d5d;stroke-width:0;"/>
<!-- Circle -->
<circle cx="9463" cy="1404" r="67"
 style="fill:#5d5d5d;stroke:#5d5d5d;stroke-width:0;"/>
<!-- Circle -->
<circle cx="8864" cy="1851" r="67"
 style="fill:#5d5d5d;stroke:#5d5d5d;stroke-width:0;"/>
<!-- Circle -->
<circle cx="9033" cy="2004" r="67"
 style="fill:#5d5d5d;stroke:#5d5d5d;stroke-width:0;"/>
<!-- Circle -->
<circle cx="9149" cy="1753" r="67"
 style="fill:#5d5d5d;stroke:#5d5d5d;stroke-width:0;"/>
</g>
</svg>
