<?xml version="1.0" standalone="no"?>
<!DOCTYPE svg PUBLIC "-//W3C//DTD SVG 1.1//EN"
"http://www.w3.org/Graphics/SVG/1.1/DTD/svg11.dtd">
<!-- Creator: fig2dev Version 3.2.6 -->
<!-- CreationDate: Mon Nov 21 08:47:43 2016 -->
<!-- Magnification: 1.050 -->
<svg	xmlns="http://www.w3.org/2000/svg"
	xmlns:xlink="http://www.w3.org/1999/xlink"
	width="14.4in" height="3.6in"
	viewBox="-11333 -810 17266 4314">
<g style="stroke-width:.025in; fill:none">
<!-- Line -->
<polyline points="4254,-136
3938,914
2955,1902
3053,990
4254,-136
" style="stroke:#000000;stroke-width:16;
stroke-linejoin:round; stroke-linecap:butt;
fill:#808080;
"/>
<!-- Line -->
<polyline points="-1616,3481
-1478,2242
-3069,779
-3651,1692
-1616,3481
" style="stroke:#000000;stroke-width:16;
stroke-linejoin:round; stroke-linecap:butt;
fill:#ffffff;
"/>
<!-- Line -->
<polyline points="1643,-54
1818,987
645,1989
146,1091
1643,-54
" style="stroke:#000000;stroke-width:16;
stroke-linejoin:round; stroke-linecap:butt;
fill:#dddddd;
"/>
<!-- Line -->
<polyline points="5233,1817
4287,2973
2955,1902
3938,914
5233,1817
" style="stroke:#000000;stroke-width:16;
stroke-linejoin:round; stroke-linecap:butt;
fill:#808080;
"/>
<!-- Line -->
<polyline points="-3069,779
-4656,1087
-5624,2041
-3651,1692
-3069,779
" style="stroke:#000000;stroke-width:16;
stroke-linejoin:round; stroke-linecap:butt;
fill:#ffffff;
"/>
<!-- Line -->
<polyline points="2955,1902
1787,3076
645,1989
1818,987
2955,1902
" style="stroke:#000000;stroke-width:16;
stroke-linejoin:round; stroke-linecap:butt;
fill:#dddddd;
"/>
<!-- Line -->
<polyline points="5909,890
5233,1817
3938,914
4254,-136
5909,890
" style="stroke:#000000;stroke-width:16;
stroke-linejoin:round; stroke-linecap:butt;
fill:#808080;
"/>
<!-- Line -->
<polyline points="3053,990
2955,1902
1818,987
1643,-54
3053,990
" style="stroke:#000000;stroke-width:16;
stroke-linejoin:round; stroke-linecap:butt;
fill:#dddddd;
"/>
<!-- Line -->
<polyline points="5909,890
5233,1817
4287,2973
4775,2265
5909,890
" style="stroke:#000000;stroke-width:16;
stroke-linejoin:round; stroke-linecap:butt;
fill:#808080;
"/>
<!-- Line -->
<polyline points="3053,990
2955,1902
1787,3076
1561,2390
3053,990
" style="stroke:#000000;stroke-width:16;
stroke-linejoin:round; stroke-linecap:butt;
fill:#dddddd;
"/>
<!-- Line -->
<polyline points="-1364,2156
-2965,675
-2977,-787
-1364,2156
" style="stroke:#000000;stroke-width:16;
stroke-linejoin:round; stroke-linecap:butt;
fill:#dddddd;
"/>
<!-- Line -->
<polyline points="-2977,-787
-1364,2156
-1476,3386
-3628,-215
-2977,-787
" style="stroke:#000000;stroke-width:16;
stroke-linejoin:round; stroke-linecap:butt;
fill:#dddddd;
"/>
<!-- Line -->
<polyline points="-9413,331
-9343,1371
-11106,1713
-10913,239
-9413,335
" style="stroke:#000000;stroke-width:8;
stroke-linejoin:round; stroke-linecap:butt;
fill:#808080;
"/>
<!-- Line -->
<polyline points="-8644,2585
-7886,1563
-8363,473
-9061,1454
-8644,2590
" style="stroke:#000000;stroke-width:8;
stroke-linejoin:round; stroke-linecap:butt;
fill:#ffffff;
"/>
<!-- Line -->
<polyline points="-1616,3481
-5624,2041
-3651,1692
-1616,3481
" style="stroke:#000000;stroke-width:16;
stroke-linejoin:round; stroke-linecap:butt;
fill:#ffffff;
"/>
<!-- Line -->
<polyline points="-1476,3386
-1364,2156
-1476,3386
" style="stroke:#000000;stroke-width:16;
stroke-linejoin:round; stroke-linecap:butt;
fill:#dddddd;
"/>
<!-- Line -->
<polyline points="3053,990
4775,2265
4287,2973
2955,1902
3053,990
" style="stroke:#000000;stroke-width:16;
stroke-linejoin:round; stroke-linecap:butt;
fill:#808080;
"/>
<!-- Line -->
<polyline points="146,1091
1561,2390
1787,3076
645,1989
146,1091
" style="stroke:#000000;stroke-width:16;
stroke-linejoin:round; stroke-linecap:butt;
fill:#dddddd;
"/>
<!-- Line -->
<polyline points="4775,2265
5909,890
4254,-136
3053,990
4775,2265
" style="stroke:#000000;stroke-width:16;
stroke-linejoin:round; stroke-linecap:butt;
fill:#808080;
"/>
<!-- Line -->
<polyline points="1561,2390
3053,990
1643,-54
146,1091
1561,2390
" style="stroke:#000000;stroke-width:16;
stroke-linejoin:round; stroke-linecap:butt;
fill:#dddddd;
"/>
<!-- Circle -->
<circle cx="-9225" cy="1472" r="113"
 style="fill:#000000;stroke:#000000;stroke-width:8;"/>
<!-- Circle -->
<circle cx="-8699" cy="2810" r="113"
 style="fill:#000000;stroke:#000000;stroke-width:8;"/>
<!-- Circle -->
<circle cx="-7733" cy="1518" r="113"
 style="fill:#000000;stroke:#000000;stroke-width:8;"/>
<!-- Circle -->
<circle cx="-8274" cy="303" r="113"
 style="fill:#000000;stroke:#000000;stroke-width:8;"/>
<!-- Circle -->
<circle cx="-9324" cy="221" r="113"
 style="fill:#000000;stroke:#000000;stroke-width:8;"/>
<!-- Circle -->
<circle cx="-11017" cy="128" r="113"
 style="fill:#000000;stroke:#000000;stroke-width:8;"/>
<!-- Circle -->
<circle cx="-11211" cy="1844" r="113"
 style="fill:#000000;stroke:#000000;stroke-width:8;"/>
<!-- Line -->
<polyline points="-9225,1315
-9320,396
" style="stroke:#000000;stroke-width:63;
stroke-linejoin:miter; stroke-linecap:butt;
"/>
<!-- Line -->
<polyline points="-8767,2629
-9155,1614
" style="stroke:#000000;stroke-width:63;
stroke-linejoin:miter; stroke-linecap:butt;
"/>
<!-- Line -->
<polyline points="-11020,1805
-9383,1493
" style="stroke:#000000;stroke-width:63;
stroke-linejoin:miter; stroke-linecap:butt;
"/>
<!-- Line -->
<polyline points="-10846,134
-9516,217
" style="stroke:#000000;stroke-width:63;
stroke-linejoin:miter; stroke-linecap:butt;
"/>
<!-- Line -->
<polyline points="-9137,1321
-8445,359
" style="stroke:#000000;stroke-width:63;
stroke-linejoin:miter; stroke-linecap:butt;
"/>
<!-- Line -->
<polyline points="-8206,439
-7815,1390
" style="stroke:#000000;stroke-width:63;
stroke-linejoin:miter; stroke-linecap:butt;
"/>
<!-- Line -->
<polyline points="-7791,1674
-8551,2697
" style="stroke:#000000;stroke-width:63;
stroke-linejoin:miter; stroke-linecap:butt;
"/>
<!-- Line -->
<polyline points="-11036,286
-11228,1650
" style="stroke:#000000;stroke-width:63;
stroke-linejoin:miter; stroke-linecap:butt;
"/>
<!-- Line -->
<polyline points="-3525,1572
-3628,-215
-1476,3386
-3525,1572
" style="stroke:#000000;stroke-width:16;
stroke-linejoin:round; stroke-linecap:butt;
fill:#dddddd;
"/>
<!-- Line -->
<polygon points="-5675,1935
-4725,1022
-5143,-423
-6056,110
-5675,1935
" style="stroke:#000000;stroke-width:16;
stroke-linejoin:miter; stroke-linecap:butt;
fill:#808080;
"/>
<!-- Line -->
<polyline points="646,1982
1825,983
2957,1902
" style="stroke:#000000;stroke-width:16;
stroke-linejoin:miter; stroke-linecap:butt;
stroke-dasharray:31 31;"/>
<!-- Line -->
<polyline points="1817,993
1644,-62
" style="stroke:#000000;stroke-width:16;
stroke-linejoin:miter; stroke-linecap:butt;
stroke-dasharray:31 31;"/>
<!-- Line -->
<polyline points="2950,1908
3938,915
5167,1773
" style="stroke:#000000;stroke-width:16;
stroke-linejoin:miter; stroke-linecap:butt;
stroke-dasharray:31 31;"/>
<!-- Line -->
<polyline points="4253,-130
3933,933
" style="stroke:#000000;stroke-width:16;
stroke-linejoin:miter; stroke-linecap:butt;
stroke-dasharray:31 31;"/>
</g>
</svg>
