<?xml version="1.0" standalone="no"?>
<!DOCTYPE svg PUBLIC "-//W3C//DTD SVG 1.1//EN"
"http://www.w3.org/Graphics/SVG/1.1/DTD/svg11.dtd">
<!-- Creator: fig2dev Version 3.2.6 -->
<!-- CreationDate: Mon Nov 21 08:47:43 2016 -->
<!-- Magnification: 1.050 -->
<svg	xmlns="http://www.w3.org/2000/svg"
	xmlns:xlink="http://www.w3.org/1999/xlink"
	width="8.9in" height="4.3in"
	viewBox="71 -295 10717 5188">
<g style="stroke-width:.025in; fill:none">
<!-- Line -->
<polyline points="1056,2430
3046,2622
" style="stroke:#535353;stroke-width:8;
stroke-linejoin:round; stroke-linecap:butt;
"/>
<!-- Line -->
<polyline points="2070,2742
2039,2524
" style="stroke:#9f9f9f;stroke-width:8;
stroke-linejoin:round; stroke-linecap:butt;
"/>
<!-- Line -->
<polyline points="3082,2841
1078,2644
" style="stroke:#535353;stroke-width:8;
stroke-linejoin:round; stroke-linecap:butt;
"/>
<!-- Line -->
<polyline points="6671,3007
8762,2441
" style="stroke:#535353;stroke-width:8;
stroke-linejoin:round; stroke-linecap:butt;
"/>
<!-- Line -->
<polyline points="7895,2934
7742,2718
" style="stroke:#9f9f9f;stroke-width:8;
stroke-linejoin:round; stroke-linecap:butt;
"/>
<!-- Line -->
<polyline points="8916,2650
6826,3232
" style="stroke:#535353;stroke-width:8;
stroke-linejoin:round; stroke-linecap:butt;
"/>
<!-- Line -->
<polyline points="999,597
1056,2430
" style="stroke:#535353;stroke-width:8;
stroke-linejoin:round; stroke-linecap:butt;
"/>
<!-- Line -->
<polyline points="851,1566
1027,1544
" style="stroke:#9f9f9f;stroke-width:8;
stroke-linejoin:round; stroke-linecap:butt;
"/>
<!-- Line -->
<polyline points="9162,2098
9216,118
" style="stroke:#535353;stroke-width:8;
stroke-linejoin:round; stroke-linecap:butt;
"/>
<!-- Line -->
<polyline points="9416,1287
9188,1151
" style="stroke:#9f9f9f;stroke-width:8;
stroke-linejoin:round; stroke-linecap:butt;
"/>
<!-- Line -->
<polyline points="9454,254
9380,2232
" style="stroke:#535353;stroke-width:8;
stroke-linejoin:round; stroke-linecap:butt;
"/>
<!-- Line -->
<polyline points="3046,2622
999,597
" style="stroke:#535353;stroke-width:8;
stroke-linejoin:round; stroke-linecap:butt;
"/>
<!-- Line -->
<polyline points="885,2460
815,608
" style="stroke:#535353;stroke-width:8;
stroke-linejoin:round; stroke-linecap:butt;
"/>
<!-- Line -->
<polyline points="2177,1527
2047,1634
" style="stroke:#9f9f9f;stroke-width:8;
stroke-linejoin:round; stroke-linecap:butt;
"/>
<!-- Line -->
<polyline points="10000,3998
8916,2650
" style="stroke:#535353;stroke-width:8;
stroke-linejoin:round; stroke-linecap:butt;
"/>
<!-- Line -->
<polyline points="9428,3287
9435,3112
" style="stroke:#9f9f9f;stroke-width:8;
stroke-linejoin:round; stroke-linecap:butt;
"/>
<!-- Line -->
<polyline points="1127,482
3180,2524
" style="stroke:#000000;stroke-width:32;
stroke-linejoin:round; stroke-linecap:butt;
"/>
<!-- Line -->
<polyline points="9916,2853
9716,2910
" style="stroke:#9f9f9f;stroke-width:8;
stroke-linejoin:round; stroke-linecap:butt;
"/>
<!-- Line -->
<polyline points="9380,2232
10511,3544
" style="stroke:#535353;stroke-width:8;
stroke-linejoin:round; stroke-linecap:butt;
"/>
<!-- Line -->
<polyline points="8918,2479
10013,3820
" style="stroke:#000000;stroke-width:16;
stroke-linejoin:round; stroke-linecap:butt;
"/>
<!-- Line -->
<polyline points="10304,3608
9190,2284
" style="stroke:#000000;stroke-width:16;
stroke-linejoin:round; stroke-linecap:butt;
"/>
<!-- Line -->
<polyline points="8762,2441
6504,1014
" style="stroke:#535353;stroke-width:8;
stroke-linejoin:round; stroke-linecap:butt;
"/>
<!-- Line -->
<polyline points="7866,1811
7712,1777
" style="stroke:#9f9f9f;stroke-width:8;
stroke-linejoin:round; stroke-linecap:butt;
"/>
<!-- Line -->
<polyline points="3180,2524
3272,649
" style="stroke:#535353;stroke-width:8;
stroke-linejoin:round; stroke-linecap:butt;
"/>
<!-- Line -->
<polyline points="8125,1408
8148,1602
" style="stroke:#9f9f9f;stroke-width:8;
stroke-linejoin:round; stroke-linecap:butt;
"/>
<!-- Line -->
<polyline points="6933,616
9162,2098
" style="stroke:#535353;stroke-width:8;
stroke-linejoin:round; stroke-linecap:butt;
"/>
<!-- Line -->
<polyline points="3225,1617
3334,1784
" style="stroke:#9f9f9f;stroke-width:8;
stroke-linejoin:round; stroke-linecap:butt;
"/>
<!-- Line -->
<polyline points="834,3196
629,3005
" style="stroke:#9f9f9f;stroke-width:8;
stroke-linejoin:round; stroke-linecap:butt;
"/>
<!-- Line -->
<polyline points="1078,2644
561,3815
" style="stroke:#535353;stroke-width:8;
stroke-linejoin:round; stroke-linecap:butt;
"/>
<!-- Line -->
<polyline points="6655,1042
8918,2479
" style="stroke:#000000;stroke-width:16;
stroke-linejoin:round; stroke-linecap:butt;
"/>
<!-- Line -->
<polyline points="9190,2284
6942,815
" style="stroke:#000000;stroke-width:16;
stroke-linejoin:round; stroke-linecap:butt;
"/>
<!-- Line -->
<polyline points="342,3617
885,2460
" style="stroke:#535353;stroke-width:8;
stroke-linejoin:round; stroke-linecap:butt;
"/>
<!-- Line -->
<polyline points="3386,811
3287,2696
" style="stroke:#535353;stroke-width:8;
stroke-linejoin:round; stroke-linecap:butt;
"/>
<!-- Line -->
<polyline points="6504,1014
6671,3007
" style="stroke:#535353;stroke-width:8;
stroke-linejoin:round; stroke-linecap:butt;
"/>
<!-- Line -->
<polyline points="6514,2151
6593,2056
" style="stroke:#9f9f9f;stroke-width:8;
stroke-linejoin:round; stroke-linecap:butt;
"/>
<!-- Line -->
<polyline points="3272,649
1127,482
" style="stroke:#535353;stroke-width:8;
stroke-linejoin:round; stroke-linecap:butt;
"/>
<!-- Line -->
<polyline points="2806,4067
3082,2841
" style="stroke:#535353;stroke-width:8;
stroke-linejoin:round; stroke-linecap:butt;
"/>
<!-- Line -->
<polyline points="2953,3420
3167,3268
" style="stroke:#9f9f9f;stroke-width:8;
stroke-linejoin:round; stroke-linecap:butt;
"/>
<!-- Line -->
<polyline points="2186,563
2085,516
" style="stroke:#9f9f9f;stroke-width:8;
stroke-linejoin:round; stroke-linecap:butt;
"/>
<!-- Line -->
<polyline points="6826,3232
7714,4726
" style="stroke:#535353;stroke-width:8;
stroke-linejoin:round; stroke-linecap:butt;
"/>
<!-- Line -->
<polyline points="6600,3114
6424,1095
" style="stroke:#535353;stroke-width:8;
stroke-linejoin:round; stroke-linecap:butt;
"/>
<!-- Line -->
<polyline points="7243,3937
7012,3822
" style="stroke:#9f9f9f;stroke-width:8;
stroke-linejoin:round; stroke-linecap:butt;
"/>
<!-- Line -->
<polyline points="9216,118
6933,616
" style="stroke:#535353;stroke-width:8;
stroke-linejoin:round; stroke-linecap:butt;
"/>
<!-- Line -->
<polyline points="3287,2696
3034,3914
" style="stroke:#000000;stroke-width:32;
stroke-linejoin:round; stroke-linecap:butt;
"/>
<!-- Line -->
<polyline points="1008,435
3184,599
" style="stroke:#535353;stroke-width:8;
stroke-linejoin:round; stroke-linecap:butt;
"/>
<!-- Line -->
<polyline points="7474,4617
6600,3114
" style="stroke:#535353;stroke-width:8;
stroke-linejoin:round; stroke-linecap:butt;
"/>
<!-- Line -->
<polyline points="8123,340
8104,361
" style="stroke:#9f9f9f;stroke-width:8;
stroke-linejoin:round; stroke-linecap:butt;
"/>
<!-- Line -->
<polyline points="6929,601
9254,94
" style="stroke:#535353;stroke-width:8;
stroke-linejoin:round; stroke-linecap:butt;
"/>
<!-- Line -->
<polyline points="7714,4726
10000,3998
" style="stroke:#535353;stroke-width:8;
stroke-linejoin:round; stroke-linecap:butt;
"/>
<!-- Line -->
<polyline points="8923,4410
8888,4352
" style="stroke:#9f9f9f;stroke-width:8;
stroke-linejoin:round; stroke-linecap:butt;
"/>
<!-- Line -->
<polyline points="10711,1446
9454,254
" style="stroke:#535353;stroke-width:8;
stroke-linejoin:round; stroke-linecap:butt;
"/>
<!-- Line -->
<polyline points="10056,4046
7729,4791
" style="stroke:#535353;stroke-width:8;
stroke-linejoin:round; stroke-linecap:butt;
"/>
<!-- Line -->
<polyline points="9840,651
10045,813
" style="stroke:#9f9f9f;stroke-width:8;
stroke-linejoin:round; stroke-linecap:butt;
"/>
<!-- Line -->
<polyline points="561,3815
2806,4067
" style="stroke:#535353;stroke-width:8;
stroke-linejoin:round; stroke-linecap:butt;
"/>
<!-- Line -->
<polyline points="10511,3544
10711,1446
" style="stroke:#535353;stroke-width:8;
stroke-linejoin:round; stroke-linecap:butt;
"/>
<!-- Line -->
<polyline points="9254,94
10501,1282
" style="stroke:#535353;stroke-width:8;
stroke-linejoin:round; stroke-linecap:butt;
"/>
<!-- Line -->
<polyline points="1553,3943
1670,3941
" style="stroke:#9f9f9f;stroke-width:8;
stroke-linejoin:round; stroke-linecap:butt;
"/>
<!-- Line -->
<polyline points="815,608
223,1608
" style="stroke:#535353;stroke-width:8;
stroke-linejoin:round; stroke-linecap:butt;
"/>
<!-- Line -->
<polyline points="742,896
537,1078
" style="stroke:#9f9f9f;stroke-width:8;
stroke-linejoin:round; stroke-linecap:butt;
"/>
<!-- Line -->
<polyline points="10597,2658
10606,2546
" style="stroke:#9f9f9f;stroke-width:8;
stroke-linejoin:round; stroke-linecap:butt;
"/>
<!-- Line -->
<polyline points="2708,4072
430,3817
" style="stroke:#535353;stroke-width:8;
stroke-linejoin:round; stroke-linecap:butt;
"/>
<!-- Line -->
<polyline points="437,1420
1008,435
" style="stroke:#000000;stroke-width:32;
stroke-linejoin:round; stroke-linecap:butt;
"/>
<!-- Line -->
<polyline points="10702,1542
10499,3667
" style="stroke:#535353;stroke-width:8;
stroke-linejoin:round; stroke-linecap:butt;
"/>
<!-- Line -->
<polyline points="223,1608
342,3617
" style="stroke:#535353;stroke-width:8;
stroke-linejoin:round; stroke-linecap:butt;
"/>
<!-- Line -->
<polyline points="8950,3411
8914,3172
" style="stroke:#9f9f9f;stroke-width:8;
stroke-linejoin:round; stroke-linecap:butt;
"/>
<!-- Line -->
<polyline points="10013,3820
7626,2413
" style="stroke:#000000;stroke-width:16;
stroke-linejoin:round; stroke-linecap:butt;
"/>
<!-- Line -->
<polyline points="3265,1306
3050,1085
" style="stroke:#9f9f9f;stroke-width:8;
stroke-linejoin:round; stroke-linecap:butt;
"/>
<!-- Line -->
<polyline points="373,2849
285,2650
" style="stroke:#9f9f9f;stroke-width:8;
stroke-linejoin:round; stroke-linecap:butt;
"/>
<!-- Line -->
<polyline points="7940,2165
10304,3608
" style="stroke:#000000;stroke-width:16;
stroke-linejoin:round; stroke-linecap:butt;
"/>
<!-- Line -->
<polyline points="9412,3001
9216,2945
" style="stroke:#9f9f9f;stroke-width:8;
stroke-linejoin:round; stroke-linecap:butt;
"/>
<!-- Line -->
<polyline points="3127,1870
3386,811
" style="stroke:#535353;stroke-width:8;
stroke-linejoin:round; stroke-linecap:butt;
"/>
<!-- Line -->
<polyline points="3184,599
2896,1637
" style="stroke:#535353;stroke-width:8;
stroke-linejoin:round; stroke-linecap:butt;
"/>
<!-- Line -->
<polyline points="7650,2663
10056,4046
" style="stroke:#535353;stroke-width:8;
stroke-linejoin:round; stroke-linecap:butt;
"/>
<!-- Line -->
<polyline points="430,3817
313,1801
" style="stroke:#535353;stroke-width:8;
stroke-linejoin:round; stroke-linecap:butt;
"/>
<!-- Line -->
<polyline points="7109,1682
6865,1744
" style="stroke:#9f9f9f;stroke-width:8;
stroke-linejoin:round; stroke-linecap:butt;
"/>
<!-- Line -->
<polyline points="7089,1654
7622,2406
" style="stroke:#000000;stroke-width:48;
stroke-linejoin:round; stroke-linecap:butt;
"/>
<!-- Line -->
<polyline points="7626,2413
6655,1042
" style="stroke:#000000;stroke-width:16;
stroke-linejoin:round; stroke-linecap:butt;
"/>
<!-- Line -->
<polyline points="10499,3667
8133,2215
" style="stroke:#535353;stroke-width:8;
stroke-linejoin:round; stroke-linecap:butt;
"/>
<!-- Line -->
<polyline points="6942,815
7940,2165
" style="stroke:#000000;stroke-width:16;
stroke-linejoin:round; stroke-linecap:butt;
"/>
<!-- Line -->
<polyline points="7398,1225
7409,1446
" style="stroke:#9f9f9f;stroke-width:8;
stroke-linejoin:round; stroke-linecap:butt;
"/>
<!-- Line -->
<polyline points="6424,1095
7366,2481
" style="stroke:#535353;stroke-width:8;
stroke-linejoin:round; stroke-linecap:butt;
"/>
<!-- Line -->
<polyline points="313,1801
2708,4072
" style="stroke:#535353;stroke-width:8;
stroke-linejoin:round; stroke-linecap:butt;
"/>
<!-- Line -->
<polyline points="7933,1937
6929,601
" style="stroke:#535353;stroke-width:8;
stroke-linejoin:round; stroke-linecap:butt;
"/>
<!-- Line -->
<polyline points="1542,2967
1692,2853
" style="stroke:#9f9f9f;stroke-width:8;
stroke-linejoin:round; stroke-linecap:butt;
"/>
<!-- Line -->
<polyline points="7690,3784
7423,3605
" style="stroke:#9f9f9f;stroke-width:8;
stroke-linejoin:round; stroke-linecap:butt;
"/>
<!-- Line -->
<polyline points="7366,2481
7474,4617
" style="stroke:#535353;stroke-width:8;
stroke-linejoin:round; stroke-linecap:butt;
"/>
<!-- Line -->
<polyline points="3034,3914
3127,1870
" style="stroke:#535353;stroke-width:8;
stroke-linejoin:round; stroke-linecap:butt;
"/>
<!-- Line -->
<polyline points="2860,3969
458,1677
" style="stroke:#000000;stroke-width:32;
stroke-linejoin:round; stroke-linecap:butt;
"/>
<!-- Line -->
<polyline points="7729,4791
7650,2663
" style="stroke:#535353;stroke-width:8;
stroke-linejoin:round; stroke-linecap:butt;
"/>
<!-- Line -->
<polyline points="3080,2932
2898,2975
" style="stroke:#9f9f9f;stroke-width:8;
stroke-linejoin:round; stroke-linecap:butt;
"/>
<!-- Line -->
<polyline points="2941,1901
2860,3969
" style="stroke:#535353;stroke-width:8;
stroke-linejoin:round; stroke-linecap:butt;
"/>
<!-- Line -->
<polyline points="10501,1282
7933,1937
" style="stroke:#535353;stroke-width:8;
stroke-linejoin:round; stroke-linecap:butt;
"/>
<!-- Line -->
<polyline points="9457,1867
9256,1598
" style="stroke:#9f9f9f;stroke-width:8;
stroke-linejoin:round; stroke-linecap:butt;
"/>
<!-- Line -->
<polyline points="8133,2215
10702,1542
" style="stroke:#535353;stroke-width:8;
stroke-linejoin:round; stroke-linecap:butt;
"/>
<!-- Line -->
<polyline points="2896,1637
437,1420
" style="stroke:#535353;stroke-width:8;
stroke-linejoin:round; stroke-linecap:butt;
"/>
<!-- Line -->
<polyline points="1685,1786
1651,1527
" style="stroke:#9f9f9f;stroke-width:8;
stroke-linejoin:round; stroke-linecap:butt;
"/>
<!-- Line -->
<polyline points="458,1677
2941,1901
" style="stroke:#535353;stroke-width:8;
stroke-linejoin:round; stroke-linecap:butt;
"/>
<!-- Arc -->
<path style="stroke:#000000;stroke-width:16;stroke-linecap:butt;"
d="M 6936,3952 A 4831 4831  0  0  1  3298  3869 " />
<!-- Arrowhead on XXXpoint 3571 3977 - 3298 3869-->
<polygon points="3693 3871
3309 3874
3588 4137
3573 3979
3693 3871

" style="stroke:#000000;stroke-width:8;stroke-miterlimit:8;
fill:white;"/>
<!-- Arc -->
<path style="stroke:#000000;stroke-width:16;stroke-linecap:butt;"
d="M 3612,768 A 3319 3319  0  0  1  6374  818 " />
<!-- Arrowhead on XXXpoint 6104 703 - 6374 818-->
<polygon points="5979 805
6364 814
6091 542
6100 701
5979 805

" style="stroke:#000000;stroke-width:8;stroke-miterlimit:8;
fill:white;"/>
<!-- Text -->
<text xml:space="preserve" x="2218" y="-52" fill="#000000"  font-family="Times" font-style="normal" font-weight="normal" font-size="227" text-anchor="start">dh9=gm.insert_cell_2_in_cell_3</text>
<!-- Text -->
<text xml:space="preserve" x="3640" y="4519" fill="#000000"  font-family="Times" font-style="normal" font-weight="normal" font-size="227" text-anchor="start">gm.remove_cell&#60;2&#62;(dh9)</text>
<!-- Text -->
<text xml:space="preserve" x="2104" y="3206" fill="#000000"  font-family="Times" font-style="normal" font-weight="normal" font-size="227" text-anchor="start">dh1</text>
<!-- Text -->
<text xml:space="preserve" x="1107" y="2240" fill="#000000"  font-family="Times" font-style="normal" font-weight="normal" font-size="227" text-anchor="start">dh2</text>
<!-- Text -->
<text xml:space="preserve" x="87" y="1214" fill="#000000"  font-family="Times" font-style="normal" font-weight="normal" font-size="227" text-anchor="start">dh3</text>
<!-- Text -->
<text xml:space="preserve" x="200" y="848" fill="#000000"  font-family="Times" font-style="normal" font-weight="normal" font-size="227" text-anchor="start">dh4</text>
<!-- Text -->
<text xml:space="preserve" x="4022" y="295" fill="#000000"  font-family="Times" font-style="normal" font-weight="normal" font-size="227" text-anchor="start">(std::vector{dh1,...,dh8})</text>
<!-- Text -->
<text xml:space="preserve" x="1586" y="931" fill="#000000"  font-family="Times" font-style="normal" font-weight="normal" font-size="227" text-anchor="start">dh5</text>
<!-- Text -->
<text xml:space="preserve" x="2510" y="1814" fill="#000000"  font-family="Times" font-style="normal" font-weight="normal" font-size="227" text-anchor="start">dh6</text>
<!-- Text -->
<text xml:space="preserve" x="3265" y="3126" fill="#000000"  font-family="Times" font-style="normal" font-weight="normal" font-size="227" text-anchor="start">dh7</text>
<!-- Text -->
<text xml:space="preserve" x="3152" y="3667" fill="#000000"  font-family="Times" font-style="normal" font-weight="normal" font-size="227" text-anchor="start">dh8</text>
<!-- Text -->
<text xml:space="preserve" x="6870" y="2260" fill="#000000"  font-family="Times" font-style="normal" font-weight="normal" font-size="227" text-anchor="start">dh9</text>
<!-- Circle -->
<circle cx="782" cy="612" r="67"
 style="fill:#5d5d5d;stroke:#5d5d5d;stroke-width:0;"/>
<!-- Circle -->
<circle cx="991" cy="435" r="67"
 style="fill:#5d5d5d;stroke:#5d5d5d;stroke-width:0;"/>
<!-- Circle -->
<circle cx="1023" cy="620" r="67"
 style="fill:#5d5d5d;stroke:#5d5d5d;stroke-width:0;"/>
<!-- Circle -->
<circle cx="1175" cy="523" r="67"
 style="fill:#5d5d5d;stroke:#5d5d5d;stroke-width:0;"/>
<!-- Circle -->
<circle cx="3152" cy="563" r="67"
 style="fill:#5d5d5d;stroke:#5d5d5d;stroke-width:0;"/>
<!-- Circle -->
<circle cx="3296" cy="651" r="67"
 style="fill:#5d5d5d;stroke:#5d5d5d;stroke-width:0;"/>
<!-- Circle -->
<circle cx="3393" cy="836" r="67"
 style="fill:#5d5d5d;stroke:#5d5d5d;stroke-width:0;"/>
<!-- Circle -->
<circle cx="3192" cy="2500" r="67"
 style="fill:#5d5d5d;stroke:#5d5d5d;stroke-width:0;"/>
<!-- Circle -->
<circle cx="3023" cy="2613" r="67"
 style="fill:#5d5d5d;stroke:#5d5d5d;stroke-width:0;"/>
<!-- Circle -->
<circle cx="3015" cy="2861" r="67"
 style="fill:#5d5d5d;stroke:#5d5d5d;stroke-width:0;"/>
<!-- Circle -->
<circle cx="3272" cy="2725" r="67"
 style="fill:#5d5d5d;stroke:#5d5d5d;stroke-width:0;"/>
<!-- Circle -->
<circle cx="3047" cy="3913" r="67"
 style="fill:#5d5d5d;stroke:#5d5d5d;stroke-width:0;"/>
<!-- Circle -->
<circle cx="2887" cy="3938" r="67"
 style="fill:#5d5d5d;stroke:#5d5d5d;stroke-width:0;"/>
<!-- Circle -->
<circle cx="2814" cy="4091" r="67"
 style="fill:#5d5d5d;stroke:#5d5d5d;stroke-width:0;"/>
<!-- Circle -->
<circle cx="2654" cy="4058" r="67"
 style="fill:#5d5d5d;stroke:#5d5d5d;stroke-width:0;"/>
<!-- Circle -->
<circle cx="420" cy="3834" r="67"
 style="fill:#5d5d5d;stroke:#5d5d5d;stroke-width:0;"/>
<!-- Circle -->
<circle cx="597" cy="3842" r="67"
 style="fill:#5d5d5d;stroke:#5d5d5d;stroke-width:0;"/>
<!-- Circle -->
<circle cx="324" cy="3601" r="67"
 style="fill:#5d5d5d;stroke:#5d5d5d;stroke-width:0;"/>
<!-- Circle -->
<circle cx="227" cy="1592" r="67"
 style="fill:#5d5d5d;stroke:#5d5d5d;stroke-width:0;"/>
<!-- Circle -->
<circle cx="331" cy="1849" r="67"
 style="fill:#5d5d5d;stroke:#5d5d5d;stroke-width:0;"/>
<!-- Circle -->
<circle cx="492" cy="1672" r="67"
 style="fill:#5d5d5d;stroke:#5d5d5d;stroke-width:0;"/>
<!-- Circle -->
<circle cx="468" cy="1407" r="67"
 style="fill:#5d5d5d;stroke:#5d5d5d;stroke-width:0;"/>
<!-- Circle -->
<circle cx="6414" cy="1142" r="67"
 style="fill:#5d5d5d;stroke:#5d5d5d;stroke-width:0;"/>
<!-- Circle -->
<circle cx="6494" cy="1005" r="67"
 style="fill:#5d5d5d;stroke:#5d5d5d;stroke-width:0;"/>
<!-- Circle -->
<circle cx="6679" cy="1054" r="67"
 style="fill:#5d5d5d;stroke:#5d5d5d;stroke-width:0;"/>
<!-- Circle -->
<circle cx="6952" cy="845" r="67"
 style="fill:#5d5d5d;stroke:#5d5d5d;stroke-width:0;"/>
<!-- Circle -->
<circle cx="6976" cy="668" r="67"
 style="fill:#5d5d5d;stroke:#5d5d5d;stroke-width:0;"/>
<!-- Circle -->
<circle cx="6969" cy="579" r="67"
 style="fill:#5d5d5d;stroke:#5d5d5d;stroke-width:0;"/>
<!-- Circle -->
<circle cx="9181" cy="183" r="67"
 style="fill:#5d5d5d;stroke:#5d5d5d;stroke-width:0;"/>
<!-- Circle -->
<circle cx="9267" cy="90" r="67"
 style="fill:#5d5d5d;stroke:#5d5d5d;stroke-width:0;"/>
<!-- Circle -->
<circle cx="9438" cy="265" r="67"
 style="fill:#5d5d5d;stroke:#5d5d5d;stroke-width:0;"/>
<!-- Circle -->
<circle cx="10464" cy="1287" r="67"
 style="fill:#5d5d5d;stroke:#5d5d5d;stroke-width:0;"/>
<!-- Circle -->
<circle cx="10721" cy="1447" r="67"
 style="fill:#5d5d5d;stroke:#5d5d5d;stroke-width:0;"/>
<!-- Circle -->
<circle cx="10672" cy="1568" r="67"
 style="fill:#5d5d5d;stroke:#5d5d5d;stroke-width:0;"/>
<!-- Circle -->
<circle cx="10508" cy="3483" r="67"
 style="fill:#5d5d5d;stroke:#5d5d5d;stroke-width:0;"/>
<!-- Circle -->
<circle cx="10512" cy="3673" r="67"
 style="fill:#5d5d5d;stroke:#5d5d5d;stroke-width:0;"/>
<!-- Circle -->
<circle cx="10270" cy="3625" r="67"
 style="fill:#5d5d5d;stroke:#5d5d5d;stroke-width:0;"/>
<!-- Circle -->
<circle cx="9989" cy="3777" r="67"
 style="fill:#5d5d5d;stroke:#5d5d5d;stroke-width:0;"/>
<!-- Circle -->
<circle cx="9973" cy="3962" r="67"
 style="fill:#5d5d5d;stroke:#5d5d5d;stroke-width:0;"/>
<!-- Circle -->
<circle cx="10070" cy="4058" r="67"
 style="fill:#5d5d5d;stroke:#5d5d5d;stroke-width:0;"/>
<!-- Circle -->
<circle cx="7769" cy="4827" r="67"
 style="fill:#5d5d5d;stroke:#5d5d5d;stroke-width:0;"/>
<!-- Circle -->
<circle cx="7683" cy="4693" r="67"
 style="fill:#5d5d5d;stroke:#5d5d5d;stroke-width:0;"/>
<!-- Circle -->
<circle cx="7483" cy="4613" r="67"
 style="fill:#5d5d5d;stroke:#5d5d5d;stroke-width:0;"/>
<!-- Circle -->
<circle cx="6591" cy="3126" r="67"
 style="fill:#5d5d5d;stroke:#5d5d5d;stroke-width:0;"/>
<!-- Circle -->
<circle cx="6687" cy="2982" r="67"
 style="fill:#5d5d5d;stroke:#5d5d5d;stroke-width:0;"/>
<!-- Circle -->
<circle cx="6824" cy="3239" r="67"
 style="fill:#5d5d5d;stroke:#5d5d5d;stroke-width:0;"/>
<!-- Circle -->
<circle cx="7370" cy="2468" r="67"
 style="fill:#5d5d5d;stroke:#5d5d5d;stroke-width:0;"/>
<!-- Circle -->
<circle cx="7603" cy="2395" r="67"
 style="fill:#5d5d5d;stroke:#5d5d5d;stroke-width:0;"/>
<!-- Circle -->
<circle cx="7627" cy="2677" r="67"
 style="fill:#5d5d5d;stroke:#5d5d5d;stroke-width:0;"/>
<!-- Circle -->
<circle cx="8929" cy="2644" r="67"
 style="fill:#5d5d5d;stroke:#5d5d5d;stroke-width:0;"/>
<!-- Circle -->
<circle cx="8728" cy="2459" r="67"
 style="fill:#5d5d5d;stroke:#5d5d5d;stroke-width:0;"/>
<!-- Circle -->
<circle cx="8920" cy="2476" r="67"
 style="fill:#5d5d5d;stroke:#5d5d5d;stroke-width:0;"/>
<!-- Circle -->
<circle cx="9186" cy="2299" r="67"
 style="fill:#5d5d5d;stroke:#5d5d5d;stroke-width:0;"/>
<!-- Circle -->
<circle cx="9153" cy="2090" r="67"
 style="fill:#5d5d5d;stroke:#5d5d5d;stroke-width:0;"/>
<!-- Circle -->
<circle cx="9395" cy="2226" r="67"
 style="fill:#5d5d5d;stroke:#5d5d5d;stroke-width:0;"/>
<!-- Circle -->
<circle cx="7908" cy="2186" r="67"
 style="fill:#5d5d5d;stroke:#5d5d5d;stroke-width:0;"/>
<!-- Circle -->
<circle cx="7948" cy="1922" r="67"
 style="fill:#5d5d5d;stroke:#5d5d5d;stroke-width:0;"/>
<!-- Circle -->
<circle cx="8190" cy="2195" r="67"
 style="fill:#5d5d5d;stroke:#5d5d5d;stroke-width:0;"/>
</g>
</svg>
