<?xml version="1.0" standalone="no"?>
<!DOCTYPE svg PUBLIC "-//W3C//DTD SVG 1.1//EN"
"http://www.w3.org/Graphics/SVG/1.1/DTD/svg11.dtd">
<!-- Creator: fig2dev Version 3.2.6 -->
<!-- CreationDate: Mon Nov 21 08:47:43 2016 -->
<!-- Magnification: 1.050 -->
<svg	xmlns="http://www.w3.org/2000/svg"
	xmlns:xlink="http://www.w3.org/1999/xlink"
	width="7.8in" height="3.9in"
	viewBox="-4733 62 9373 4712">
<g style="stroke-width:.025in; fill:none">
<!-- Line -->
<polyline points="-2043,4462
-2020,4128
-1636,4115
-1738,3674
-1340,3598
-1460,3070
-1213,3066
-2411,1951
-3303,3353
-2017,4487
" style="stroke:#b1b1b1;stroke-width:16;
stroke-linejoin:round; stroke-linecap:butt;
"/>
<!-- Line -->
<polyline points="-1839,3921
-1901,3466
-1541,3390
-1598,2911
-1132,2862
-1308,2521
-1026,2508
-1987,1628
-2826,3085
-1848,3947
" style="stroke:#b1b1b1;stroke-width:16;
stroke-linejoin:round; stroke-linecap:butt;
"/>
<!-- Line -->
<polyline points="4444,4544
4616,3006
2639,1189
1917,2324
4444,4544
" style="stroke:#b1b1b1;stroke-width:16;
stroke-linejoin:round; stroke-linecap:butt;
"/>
<!-- Line -->
<polyline points="3765,4752
3938,3214
1961,1397
1238,2532
3765,4752
" style="stroke:#b1b1b1;stroke-width:16;
stroke-linejoin:round; stroke-linecap:butt;
"/>
<!-- Line -->
<polyline points="-2411,1951
-3797,2207
-3986,2390
-3791,2604
-4289,2869
-4187,3266
-4646,3605
-3303,3353
-2411,1951
" style="stroke:#b1b1b1;stroke-width:16;
stroke-linejoin:round; stroke-linecap:butt;
"/>
<!-- Line -->
<polyline points="-2572,1673
-3759,1866
-3739,2080
-4087,2295
-4017,2579
-4408,2723
-4333,3020
-4710,3240
-3518,3019
-2578,1670
" style="stroke:#b1b1b1;stroke-width:16;
stroke-linejoin:round; stroke-linecap:butt;
"/>
<!-- Line -->
<polyline points="1964,1386
843,1593
689,1741
848,1914
445,2129
527,2450
155,2725
1241,2521
1964,1386
" style="stroke:#b1b1b1;stroke-width:16;
stroke-linejoin:round; stroke-linecap:butt;
"/>
<!-- Line -->
<polyline points="-2577,1673
-2604,453
-2708,858
-2941,775
-2961,1226
-3286,1126
-3350,1450
-3660,1403
-3526,3018
-2577,1673
" style="stroke:#b1b1b1;stroke-width:16;
stroke-linejoin:round; stroke-linecap:butt;
"/>
<!-- Line -->
<polyline points="-1972,1639
-2007,343
-2142,763
-2407,744
-2403,1102
-2656,1076
-2716,1352
-2906,1379
-2826,3092
-1982,1638
" style="stroke:#b1b1b1;stroke-width:16;
stroke-linejoin:round; stroke-linecap:butt;
"/>
<!-- Line -->
<polyline points="2640,1200
2578,86
2469,426
2255,410
2258,701
2053,679
2005,902
1851,924
1916,2311
2637,1188
" style="stroke:#b1b1b1;stroke-width:16;
stroke-linejoin:round; stroke-linecap:butt;
"/>
<!-- Line -->
<polyline points="-4056,3113
-4440,3183
" style="stroke:#2a2a2a;stroke-width:16;
stroke-linejoin:miter; stroke-linecap:butt;
stroke-dasharray:31 31;"/>
<!-- Line -->
<polyline points="-3950,3476
-4279,3527
" style="stroke:#2a2a2a;stroke-width:16;
stroke-linejoin:miter; stroke-linecap:butt;
stroke-dasharray:31 31;"/>
<!-- Line -->
<polyline points="-3634,3427
-3956,3480
" style="stroke:#2a2a2a;stroke-width:16;
stroke-linejoin:miter; stroke-linecap:butt;
"/>
<!-- Line -->
<polyline points="-2688,3885
-2449,4101
" style="stroke:#2a2a2a;stroke-width:16;
stroke-linejoin:miter; stroke-linecap:butt;
stroke-dasharray:31 31;"/>
<!-- Line -->
<polyline points="-2304,3554
-2064,3771
" style="stroke:#2a2a2a;stroke-width:16;
stroke-linejoin:miter; stroke-linecap:butt;
stroke-dasharray:31 31;"/>
<!-- Line -->
<polyline points="-2641,3243
-2298,3553
" style="stroke:#2a2a2a;stroke-width:16;
stroke-linejoin:miter; stroke-linecap:butt;
"/>
<!-- Line -->
<polyline points="-1820,2507
-2188,2151
" style="stroke:#2a2a2a;stroke-width:16;
stroke-linejoin:miter; stroke-linecap:butt;
"/>
<!-- Line -->
<polyline points="-1825,2501
-1586,2717
" style="stroke:#2a2a2a;stroke-width:16;
stroke-linejoin:miter; stroke-linecap:butt;
stroke-dasharray:31 31;"/>
<!-- Line -->
<polyline points="-1502,2062
-1262,2279
" style="stroke:#2a2a2a;stroke-width:16;
stroke-linejoin:miter; stroke-linecap:butt;
stroke-dasharray:31 31;"/>
<!-- Line -->
<polyline points="-1994,824
-1974,1105
" style="stroke:#2a2a2a;stroke-width:16;
stroke-linejoin:miter; stroke-linecap:butt;
stroke-dasharray:31 31;"/>
<!-- Line -->
<polyline points="-2603,641
-2592,945
" style="stroke:#2a2a2a;stroke-width:16;
stroke-linejoin:miter; stroke-linecap:butt;
stroke-dasharray:31 31;"/>
<!-- Line -->
<polyline points="-3630,1799
-3595,2155
" style="stroke:#2a2a2a;stroke-width:16;
stroke-linejoin:miter; stroke-linecap:butt;
stroke-dasharray:31 31;"/>
<!-- Line -->
<polyline points="-3576,2471
-3600,2143
" style="stroke:#2a2a2a;stroke-width:16;
stroke-linejoin:miter; stroke-linecap:butt;
"/>
<!-- Line -->
<polyline points="-3146,1767
-3510,1824
" style="stroke:#2a2a2a;stroke-width:16;
stroke-linejoin:miter; stroke-linecap:butt;
stroke-dasharray:31 31;"/>
<!-- Line -->
<polyline points="-2753,1704
-3150,1767
" style="stroke:#2a2a2a;stroke-width:16;
stroke-linejoin:miter; stroke-linecap:butt;
"/>
<!-- Line -->
<polyline points="-2874,2162
-2860,2447
" style="stroke:#2a2a2a;stroke-width:16;
stroke-linejoin:miter; stroke-linecap:butt;
stroke-dasharray:31 31;"/>
<!-- Line -->
<polyline points="-3680,3042
-4058,3113
" style="stroke:#2a2a2a;stroke-width:16;
stroke-linejoin:miter; stroke-linecap:butt;
"/>
<!-- Line -->
<polyline points="-2747,2029
-3082,2080
" style="stroke:#2a2a2a;stroke-width:16;
stroke-linejoin:miter; stroke-linecap:butt;
"/>
<!-- Line -->
<polyline points="-3070,2080
-3403,2137
" style="stroke:#2a2a2a;stroke-width:16;
stroke-linejoin:miter; stroke-linecap:butt;
stroke-dasharray:31 31;"/>
<!-- Line -->
<polyline points="-2575,1257
-2585,900
" style="stroke:#2a2a2a;stroke-width:16;
stroke-linejoin:miter; stroke-linecap:butt;
"/>
<!-- Line -->
<polyline points="-1976,1085
-1973,1417
" style="stroke:#2a2a2a;stroke-width:16;
stroke-linejoin:miter; stroke-linecap:butt;
"/>
<!-- Line -->
<polyline points="-2846,2811
-2869,2426
" style="stroke:#2a2a2a;stroke-width:16;
stroke-linejoin:miter; stroke-linecap:butt;
"/>
<!-- Line -->
<polyline points="-1812,1796
-1498,2069
" style="stroke:#2a2a2a;stroke-width:16;
stroke-linejoin:miter; stroke-linecap:butt;
"/>
<!-- Line -->
<polyline points="-3030,3595
-2683,3888
" style="stroke:#2a2a2a;stroke-width:16;
stroke-linejoin:miter; stroke-linecap:butt;
"/>
<!-- Line -->
<polyline points="-3042,3606
-2187,2138
" style="stroke:#000000;stroke-width:48;
stroke-linejoin:miter; stroke-linecap:butt;
"/>
<!-- Line -->
<polyline points="-2711,2017
-3656,3427
" style="stroke:#000000;stroke-width:48;
stroke-linejoin:miter; stroke-linecap:butt;
"/>
<!-- Line -->
<polyline points="-3238,2718
-2519,2829
" style="stroke:#828282;stroke-width:8;
stroke-linejoin:miter; stroke-linecap:butt;
"/>
<!-- Line -->
<polyline points="-3662,3030
-2683,1682
" style="stroke:#000000;stroke-width:48;
stroke-linejoin:miter; stroke-linecap:butt;
"/>
<!-- Line -->
<polyline points="-2570,1240
-3564,2512
" style="stroke:#000000;stroke-width:48;
stroke-linejoin:miter; stroke-linecap:butt;
"/>
<!-- Line -->
<polyline points="-2857,2846
-1965,1390
" style="stroke:#000000;stroke-width:48;
stroke-linejoin:miter; stroke-linecap:butt;
"/>
<!-- Line -->
<polyline points="-1820,1792
-2643,3255
" style="stroke:#000000;stroke-width:48;
stroke-linejoin:miter; stroke-linecap:butt;
"/>
<!-- Line -->
<polyline points="1558,2553
2037,1728
" style="stroke:#000000;stroke-width:48;
stroke-linejoin:miter; stroke-linecap:butt;
"/>
<!-- Line -->
<polyline points="2714,1411
2135,2328
" style="stroke:#000000;stroke-width:48;
stroke-linejoin:miter; stroke-linecap:butt;
"/>
<!-- Line -->
<polyline points="3614,4404
1575,2564
" style="stroke:#000000;stroke-width:48;
stroke-linejoin:miter; stroke-linecap:butt;
"/>
<!-- Line -->
<polyline points="2056,1699
3780,3250
" style="stroke:#000000;stroke-width:48;
stroke-linejoin:miter; stroke-linecap:butt;
"/>
<!-- Line -->
<polyline points="3793,3240
3619,4372
" style="stroke:#000000;stroke-width:48;
stroke-linejoin:miter; stroke-linecap:butt;
"/>
<!-- Line -->
<polyline points="2120,2348
4298,4194
" style="stroke:#000000;stroke-width:48;
stroke-linejoin:miter; stroke-linecap:butt;
"/>
<!-- Line -->
<polyline points="4326,4214
4447,3105
" style="stroke:#000000;stroke-width:48;
stroke-linejoin:miter; stroke-linecap:butt;
"/>
<!-- Line -->
<polyline points="4457,3079
2739,1435
" style="stroke:#000000;stroke-width:48;
stroke-linejoin:miter; stroke-linecap:butt;
"/>
<!-- Text -->
<text xml:space="preserve" x="-2351" y="3233" fill="#343434"  font-family="Times,Symbol" font-style="normal" font-weight="normal" font-size="278" text-anchor="start">&#945;</text>
<!-- Text -->
<text xml:space="preserve" x="-2095" y="3338" fill="#343434"  font-family="Times" font-style="italic" font-weight="normal" font-size="202" text-anchor="start">3</text>
<!-- Text -->
<text xml:space="preserve" x="-3628" y="3821" fill="#343434"  font-family="Times,Symbol" font-style="normal" font-weight="normal" font-size="278" text-anchor="start">&#945;</text>
<!-- Text -->
<text xml:space="preserve" x="-3401" y="3926" fill="#343434"  font-family="Times" font-style="italic" font-weight="normal" font-size="202" text-anchor="start">1</text>
<!-- Text -->
<text xml:space="preserve" x="-1528" y="1702" fill="#343434"  font-family="Times" font-style="italic" font-weight="normal" font-size="202" text-anchor="start">2</text>
<!-- Text -->
<text xml:space="preserve" x="-1796" y="1592" fill="#343434"  font-family="Times,Symbol" font-style="normal" font-weight="normal" font-size="278" text-anchor="start">&#945;</text>
<!-- Text -->
<text xml:space="preserve" x="-3449" y="1691" fill="#343434"  font-family="Times,Symbol" font-style="normal" font-weight="normal" font-size="278" text-anchor="start">&#945;</text>
<!-- Text -->
<text xml:space="preserve" x="-3193" y="1790" fill="#343434"  font-family="Times" font-style="italic" font-weight="normal" font-size="202" text-anchor="start">0</text>
<!-- Text -->
<text xml:space="preserve" x="1466" y="2376" fill="#343434"  font-family="Times" font-style="italic" font-weight="normal" font-size="202" text-anchor="start">3</text>
<!-- Text -->
<text xml:space="preserve" x="1213" y="2279" fill="#343434"  font-family="Times,Symbol" font-style="normal" font-weight="normal" font-size="278" text-anchor="start">&#945;</text>
<!-- Text -->
<text xml:space="preserve" x="2918" y="2153" fill="#343434"  font-family="Times,Symbol" font-style="normal" font-weight="normal" font-size="278" text-anchor="start">&#945;</text>
<!-- Text -->
<text xml:space="preserve" x="3172" y="2274" fill="#343434"  font-family="Times" font-style="italic" font-weight="normal" font-size="202" text-anchor="start">0</text>
<!-- Text -->
<text xml:space="preserve" x="2729" y="2662" fill="#343434"  font-family="Times" font-style="italic" font-weight="normal" font-size="202" text-anchor="start">1</text>
<!-- Text -->
<text xml:space="preserve" x="2488" y="2558" fill="#343434"  font-family="Times,Symbol" font-style="normal" font-weight="normal" font-size="278" text-anchor="start">&#945;</text>
<!-- Arc -->
<path style="stroke:#343434;stroke-width:16;stroke-linecap:butt;"
d="M -2440,2959 A 328 328  0  0  1 -2922  3399 " />
<!-- Arc -->
<path style="stroke:#343434;stroke-width:16;stroke-linecap:butt;"
d="M -3484,3241 A 200 200  0  1  1 -3800  3472 " />
<!-- Arc -->
<path style="stroke:#343434;stroke-width:16;stroke-linecap:butt;"
d="M -2109,1631 A 227 227  0  1  1 -1927  2001 " />
<!-- Arc -->
<path style="stroke:#343434;stroke-width:16;stroke-linecap:butt;"
d="M -3064,1850 A 185 185  0  0  0 -3273  2156 " />
<!-- Arc -->
<path style="stroke:#343434;stroke-width:16;stroke-linecap:butt;"
d="M 2293,2121 A 221 221  0  0  1  2363  2540 " />
<!-- Arc -->
<path style="stroke:#343434;stroke-width:16;stroke-linecap:butt;"
d="M 3408,2078 A 283 283  0  0  0  3799  2481 " />
<!-- Arc -->
<path style="stroke:#343434;stroke-width:16;stroke-linecap:butt;"
d="M 2222,2166 A 311 311  0  1  0  1649  2409 " />
<!-- Line -->
<polyline points="-2483,2103
-2088,2499
" style="stroke:#828282;stroke-width:8;
stroke-linejoin:miter; stroke-linecap:butt;
"/>
<!-- Line -->
<polyline points="-3168,1885
-3132,2333
" style="stroke:#828282;stroke-width:8;
stroke-linejoin:miter; stroke-linecap:butt;
"/>
<!-- Circle -->
<circle cx="-2578" cy="1260" r="67"
 style="fill:#9f9f9f;stroke:#9f9f9f;stroke-width:0;"/>
<!-- Circle -->
<circle cx="-2703" cy="1698" r="67"
 style="fill:#9f9f9f;stroke:#9f9f9f;stroke-width:0;"/>
<!-- Circle -->
<circle cx="-3574" cy="2475" r="67"
 style="fill:#9f9f9f;stroke:#9f9f9f;stroke-width:0;"/>
<!-- Circle -->
<circle cx="-3680" cy="3000" r="67"
 style="fill:#9f9f9f;stroke:#9f9f9f;stroke-width:0;"/>
<!-- Circle -->
<circle cx="-3662" cy="3419" r="67"
 style="fill:#9f9f9f;stroke:#9f9f9f;stroke-width:0;"/>
<!-- Circle -->
<circle cx="-2713" cy="2051" r="67"
 style="fill:#9f9f9f;stroke:#9f9f9f;stroke-width:0;"/>
<!-- Circle -->
<circle cx="-1976" cy="1396" r="67"
 style="fill:#9f9f9f;stroke:#9f9f9f;stroke-width:0;"/>
<!-- Circle -->
<circle cx="-2837" cy="2811" r="67"
 style="fill:#9f9f9f;stroke:#9f9f9f;stroke-width:0;"/>
<!-- Circle -->
<circle cx="-3020" cy="3614" r="67"
 style="fill:#9f9f9f;stroke:#9f9f9f;stroke-width:0;"/>
<!-- Circle -->
<circle cx="-2625" cy="3243" r="67"
 style="fill:#9f9f9f;stroke:#9f9f9f;stroke-width:0;"/>
<!-- Circle -->
<circle cx="-2171" cy="2151" r="67"
 style="fill:#9f9f9f;stroke:#9f9f9f;stroke-width:0;"/>
<!-- Circle -->
<circle cx="-1823" cy="1792" r="67"
 style="fill:#9f9f9f;stroke:#9f9f9f;stroke-width:0;"/>
<!-- Circle -->
<circle cx="2043" cy="1704" r="67"
 style="fill:#5d5d5d;stroke:#5d5d5d;stroke-width:0;"/>
<!-- Circle -->
<circle cx="1550" cy="2563" r="67"
 style="fill:#5d5d5d;stroke:#5d5d5d;stroke-width:0;"/>
<!-- Circle -->
<circle cx="3627" cy="4374" r="67"
 style="fill:#5d5d5d;stroke:#5d5d5d;stroke-width:0;"/>
<!-- Circle -->
<circle cx="3756" cy="3266" r="67"
 style="fill:#5d5d5d;stroke:#5d5d5d;stroke-width:0;"/>
<!-- Circle -->
<circle cx="2724" cy="1432" r="67"
 style="fill:#5d5d5d;stroke:#5d5d5d;stroke-width:0;"/>
<!-- Circle -->
<circle cx="2134" cy="2340" r="67"
 style="fill:#5d5d5d;stroke:#5d5d5d;stroke-width:0;"/>
<!-- Circle -->
<circle cx="4434" cy="3124" r="67"
 style="fill:#5d5d5d;stroke:#5d5d5d;stroke-width:0;"/>
<!-- Circle -->
<circle cx="4305" cy="4185" r="67"
 style="fill:#5d5d5d;stroke:#5d5d5d;stroke-width:0;"/>
<!-- Line -->
<polyline points="3538,2349
3668,2196
" style="stroke:#828282;stroke-width:8;
stroke-linejoin:miter; stroke-linecap:butt;
"/>
<!-- Line -->
<polyline points="3179,3117
3107,3322
" style="stroke:#828282;stroke-width:8;
stroke-linejoin:miter; stroke-linecap:butt;
"/>
<!-- Line -->
<polyline points="2488,3552
2588,3322
" style="stroke:#828282;stroke-width:8;
stroke-linejoin:miter; stroke-linecap:butt;
"/>
<!-- Line -->
<polyline points="2942,2639
3013,2432
" style="stroke:#828282;stroke-width:8;
stroke-linejoin:miter; stroke-linecap:butt;
"/>
<!-- Line -->
<polyline points="1692,2143
1863,2166
" style="stroke:#828282;stroke-width:8;
stroke-linejoin:miter; stroke-linecap:butt;
"/>
<!-- Line -->
<polyline points="2341,1824
2577,1878
" style="stroke:#828282;stroke-width:8;
stroke-linejoin:miter; stroke-linecap:butt;
"/>
<!-- Line -->
<polyline points="4287,3570
4493,3682
" style="stroke:#828282;stroke-width:8;
stroke-linejoin:miter; stroke-linecap:butt;
"/>
<!-- Line -->
<polyline points="3632,3723
3803,3854
" style="stroke:#828282;stroke-width:8;
stroke-linejoin:miter; stroke-linecap:butt;
"/>
</g>
</svg>
