<?xml version="1.0" encoding="UTF-8" standalone="no"?>
<!-- Creator: fig2dev Version 3.2.8b -->
<!-- CreationDate: 2024-05-13 16:38:04 -->
<!-- Magnification: 1.05 -->
<svg	xmlns="http://www.w3.org/2000/svg"
	xmlns:xlink="http://www.w3.org/1999/xlink"
	width="644pt" height="312pt"
	viewBox="68 -281 10208 4942">
<g fill="none">
<!-- Line -->
<polyline points=" 1006,2315 2902,2498"
	stroke="#535353" stroke-width="8px" stroke-linejoin="round"/>
<!-- Line -->
<polyline points=" 1972,2612 1943,2405"
	stroke="#9f9f9f" stroke-width="8px" stroke-linejoin="round"/>
<!-- Line -->
<polyline points=" 2936,2707 1027,2519"
	stroke="#535353" stroke-width="8px" stroke-linejoin="round"/>
<!-- Line -->
<polyline points=" 6355,2865 8346,2326"
	stroke="#535353" stroke-width="8px" stroke-linejoin="round"/>
<!-- Line -->
<polyline points=" 7520,2795 7375,2589"
	stroke="#9f9f9f" stroke-width="8px" stroke-linejoin="round"/>
<!-- Line -->
<polyline points=" 8493,2525 6502,3079"
	stroke="#535353" stroke-width="8px" stroke-linejoin="round"/>
<!-- Line -->
<polyline points=" 952,569 1006,2315"
	stroke="#535353" stroke-width="8px" stroke-linejoin="round"/>
<!-- Line -->
<polyline points=" 811,1492 979,1471"
	stroke="#9f9f9f" stroke-width="8px" stroke-linejoin="round"/>
<!-- Line -->
<polyline points=" 8727,1999 8779,113"
	stroke="#535353" stroke-width="8px" stroke-linejoin="round"/>
<!-- Line -->
<polyline points=" 8969,1226 8752,1097"
	stroke="#9f9f9f" stroke-width="8px" stroke-linejoin="round"/>
<!-- Line -->
<polyline points=" 9005,242 8935,2126"
	stroke="#535353" stroke-width="8px" stroke-linejoin="round"/>
<!-- Line -->
<polyline points=" 2902,2498 952,569"
	stroke="#535353" stroke-width="8px" stroke-linejoin="round"/>
<!-- Line -->
<polyline points=" 843,2344 777,580"
	stroke="#535353" stroke-width="8px" stroke-linejoin="round"/>
<!-- Line -->
<polyline points=" 2074,1455 1950,1557"
	stroke="#9f9f9f" stroke-width="8px" stroke-linejoin="round"/>
<!-- Line -->
<polyline points=" 9525,3809 8493,2525"
	stroke="#535353" stroke-width="8px" stroke-linejoin="round"/>
<!-- Line -->
<polyline points=" 8981,3131 8987,2965"
	stroke="#9f9f9f" stroke-width="8px" stroke-linejoin="round"/>
<!-- Line -->
<polyline points=" 1074,460 3029,2405"
	stroke="#000000" stroke-width="30px" stroke-linejoin="round"/>
<!-- Line -->
<polyline points=" 9445,2718 9255,2772"
	stroke="#9f9f9f" stroke-width="8px" stroke-linejoin="round"/>
<!-- Line -->
<polyline points=" 8935,2126 10012,3376"
	stroke="#535353" stroke-width="8px" stroke-linejoin="round"/>
<!-- Line -->
<polyline points=" 8495,2362 9538,3639"
	stroke="#000000" stroke-width="15px" stroke-linejoin="round"/>
<!-- Line -->
<polyline points=" 9815,3437 8754,2176"
	stroke="#000000" stroke-width="15px" stroke-linejoin="round"/>
<!-- Line -->
<polyline points=" 8346,2326 6196,966"
	stroke="#535353" stroke-width="8px" stroke-linejoin="round"/>
<!-- Line -->
<polyline points=" 7493,1725 7346,1693"
	stroke="#9f9f9f" stroke-width="8px" stroke-linejoin="round"/>
<!-- Line -->
<polyline points=" 3029,2405 3117,619"
	stroke="#535353" stroke-width="8px" stroke-linejoin="round"/>
<!-- Line -->
<polyline points=" 7740,1342 7761,1526"
	stroke="#9f9f9f" stroke-width="8px" stroke-linejoin="round"/>
<!-- Line -->
<polyline points=" 6604,587 8727,1999"
	stroke="#535353" stroke-width="8px" stroke-linejoin="round"/>
<!-- Line -->
<polyline points=" 3072,1541 3176,1700"
	stroke="#9f9f9f" stroke-width="8px" stroke-linejoin="round"/>
<!-- Line -->
<polyline points=" 795,3045 600,2863"
	stroke="#9f9f9f" stroke-width="8px" stroke-linejoin="round"/>
<!-- Line -->
<polyline points=" 1027,2519 535,3634"
	stroke="#535353" stroke-width="8px" stroke-linejoin="round"/>
<!-- Line -->
<polyline points=" 6339,993 8495,2362"
	stroke="#000000" stroke-width="15px" stroke-linejoin="round"/>
<!-- Line -->
<polyline points=" 8754,2176 6613,777"
	stroke="#000000" stroke-width="15px" stroke-linejoin="round"/>
<!-- Line -->
<polyline points=" 326,3446 843,2344"
	stroke="#535353" stroke-width="8px" stroke-linejoin="round"/>
<!-- Line -->
<polyline points=" 3226,773 3131,2568"
	stroke="#535353" stroke-width="8px" stroke-linejoin="round"/>
<!-- Line -->
<polyline points=" 6196,966 6355,2865"
	stroke="#535353" stroke-width="8px" stroke-linejoin="round"/>
<!-- Line -->
<polyline points=" 6205,2049 6280,1959"
	stroke="#9f9f9f" stroke-width="8px" stroke-linejoin="round"/>
<!-- Line -->
<polyline points=" 3117,619 1074,460"
	stroke="#535353" stroke-width="8px" stroke-linejoin="round"/>
<!-- Line -->
<polyline points=" 2673,3874 2936,2707"
	stroke="#535353" stroke-width="8px" stroke-linejoin="round"/>
<!-- Line -->
<polyline points=" 2813,3258 3017,3113"
	stroke="#9f9f9f" stroke-width="8px" stroke-linejoin="round"/>
<!-- Line -->
<polyline points=" 2083,537 1986,492"
	stroke="#9f9f9f" stroke-width="8px" stroke-linejoin="round"/>
<!-- Line -->
<polyline points=" 6502,3079 7348,4502"
	stroke="#535353" stroke-width="8px" stroke-linejoin="round"/>
<!-- Line -->
<polyline points=" 6287,2967 6119,1043"
	stroke="#535353" stroke-width="8px" stroke-linejoin="round"/>
<!-- Line -->
<polyline points=" 6899,3750 6679,3641"
	stroke="#9f9f9f" stroke-width="8px" stroke-linejoin="round"/>
<!-- Line -->
<polyline points=" 8779,113 6604,587"
	stroke="#535353" stroke-width="8px" stroke-linejoin="round"/>
<!-- Line -->
<polyline points=" 3131,2568 2890,3729"
	stroke="#000000" stroke-width="30px" stroke-linejoin="round"/>
<!-- Line -->
<polyline points=" 961,415 3033,571"
	stroke="#535353" stroke-width="8px" stroke-linejoin="round"/>
<!-- Line -->
<polyline points=" 7119,4398 6287,2967"
	stroke="#535353" stroke-width="8px" stroke-linejoin="round"/>
<!-- Line -->
<polyline points=" 7738,324 7720,344"
	stroke="#9f9f9f" stroke-width="8px" stroke-linejoin="round"/>
<!-- Line -->
<polyline points=" 6600,573 8815,90"
	stroke="#535353" stroke-width="8px" stroke-linejoin="round"/>
<!-- Line -->
<polyline points=" 7348,4502 9525,3809"
	stroke="#535353" stroke-width="8px" stroke-linejoin="round"/>
<!-- Line -->
<polyline points=" 8500,4201 8466,4146"
	stroke="#9f9f9f" stroke-width="8px" stroke-linejoin="round"/>
<!-- Line -->
<polyline points=" 10203,1378 9005,242"
	stroke="#535353" stroke-width="8px" stroke-linejoin="round"/>
<!-- Line -->
<polyline points=" 9579,3854 7362,4564"
	stroke="#535353" stroke-width="8px" stroke-linejoin="round"/>
<!-- Line -->
<polyline points=" 9373,621 9568,775"
	stroke="#9f9f9f" stroke-width="8px" stroke-linejoin="round"/>
<!-- Line -->
<polyline points=" 535,3634 2673,3874"
	stroke="#535353" stroke-width="8px" stroke-linejoin="round"/>
<!-- Line -->
<polyline points=" 10012,3376 10203,1378"
	stroke="#535353" stroke-width="8px" stroke-linejoin="round"/>
<!-- Line -->
<polyline points=" 8815,90 10003,1222"
	stroke="#535353" stroke-width="8px" stroke-linejoin="round"/>
<!-- Line -->
<polyline points=" 1480,3756 1591,3754"
	stroke="#9f9f9f" stroke-width="8px" stroke-linejoin="round"/>
<!-- Line -->
<polyline points=" 777,580 213,1532"
	stroke="#535353" stroke-width="8px" stroke-linejoin="round"/>
<!-- Line -->
<polyline points=" 707,854 512,1027"
	stroke="#9f9f9f" stroke-width="8px" stroke-linejoin="round"/>
<!-- Line -->
<polyline points=" 10094,2532 10103,2426"
	stroke="#9f9f9f" stroke-width="8px" stroke-linejoin="round"/>
<!-- Line -->
<polyline points=" 2580,3879 410,3636"
	stroke="#535353" stroke-width="8px" stroke-linejoin="round"/>
<!-- Line -->
<polyline points=" 417,1353 961,415"
	stroke="#000000" stroke-width="30px" stroke-linejoin="round"/>
<!-- Line -->
<polyline points=" 10194,1469 10001,3493"
	stroke="#535353" stroke-width="8px" stroke-linejoin="round"/>
<!-- Line -->
<polyline points=" 213,1532 326,3446"
	stroke="#535353" stroke-width="8px" stroke-linejoin="round"/>
<!-- Line -->
<polyline points=" 8525,3249 8491,3022"
	stroke="#9f9f9f" stroke-width="8px" stroke-linejoin="round"/>
<!-- Line -->
<polyline points=" 9538,3639 7264,2299"
	stroke="#000000" stroke-width="15px" stroke-linejoin="round"/>
<!-- Line -->
<polyline points=" 3110,1244 2906,1034"
	stroke="#9f9f9f" stroke-width="8px" stroke-linejoin="round"/>
<!-- Line -->
<polyline points=" 356,2714 272,2525"
	stroke="#9f9f9f" stroke-width="8px" stroke-linejoin="round"/>
<!-- Line -->
<polyline points=" 7563,2063 9815,3437"
	stroke="#000000" stroke-width="15px" stroke-linejoin="round"/>
<!-- Line -->
<polyline points=" 8965,2859 8779,2806"
	stroke="#9f9f9f" stroke-width="8px" stroke-linejoin="round"/>
<!-- Line -->
<polyline points=" 2979,1782 3226,773"
	stroke="#535353" stroke-width="8px" stroke-linejoin="round"/>
<!-- Line -->
<polyline points=" 3033,571 2759,1560"
	stroke="#535353" stroke-width="8px" stroke-linejoin="round"/>
<!-- Line -->
<polyline points=" 7287,2537 9579,3854"
	stroke="#535353" stroke-width="8px" stroke-linejoin="round"/>
<!-- Line -->
<polyline points=" 410,3636 299,1716"
	stroke="#535353" stroke-width="8px" stroke-linejoin="round"/>
<!-- Line -->
<polyline points=" 6772,1603 6539,1662"
	stroke="#9f9f9f" stroke-width="8px" stroke-linejoin="round"/>
<!-- Line -->
<polyline points=" 6753,1576 7260,2292"
	stroke="#000000" stroke-width="45px" stroke-linejoin="round"/>
<!-- Line -->
<polyline points=" 7264,2299 6339,993"
	stroke="#000000" stroke-width="15px" stroke-linejoin="round"/>
<!-- Line -->
<polyline points=" 10001,3493 7747,2110"
	stroke="#535353" stroke-width="8px" stroke-linejoin="round"/>
<!-- Line -->
<polyline points=" 6613,777 7563,2063"
	stroke="#000000" stroke-width="15px" stroke-linejoin="round"/>
<!-- Line -->
<polyline points=" 7047,1167 7058,1378"
	stroke="#9f9f9f" stroke-width="8px" stroke-linejoin="round"/>
<!-- Line -->
<polyline points=" 6119,1043 7017,2364"
	stroke="#535353" stroke-width="8px" stroke-linejoin="round"/>
<!-- Line -->
<polyline points=" 299,1716 2580,3879"
	stroke="#535353" stroke-width="8px" stroke-linejoin="round"/>
<!-- Line -->
<polyline points=" 7557,1845 6600,573"
	stroke="#535353" stroke-width="8px" stroke-linejoin="round"/>
<!-- Line -->
<polyline points=" 1469,2827 1612,2718"
	stroke="#9f9f9f" stroke-width="8px" stroke-linejoin="round"/>
<!-- Line -->
<polyline points=" 7325,3605 7071,3434"
	stroke="#9f9f9f" stroke-width="8px" stroke-linejoin="round"/>
<!-- Line -->
<polyline points=" 7017,2364 7119,4398"
	stroke="#535353" stroke-width="8px" stroke-linejoin="round"/>
<!-- Line -->
<polyline points=" 2890,3729 2979,1782"
	stroke="#535353" stroke-width="8px" stroke-linejoin="round"/>
<!-- Line -->
<polyline points=" 2725,3781 437,1598"
	stroke="#000000" stroke-width="30px" stroke-linejoin="round"/>
<!-- Line -->
<polyline points=" 7362,4564 7287,2537"
	stroke="#535353" stroke-width="8px" stroke-linejoin="round"/>
<!-- Line -->
<polyline points=" 2934,2793 2761,2834"
	stroke="#9f9f9f" stroke-width="8px" stroke-linejoin="round"/>
<!-- Line -->
<polyline points=" 2802,1811 2725,3781"
	stroke="#535353" stroke-width="8px" stroke-linejoin="round"/>
<!-- Line -->
<polyline points=" 10003,1222 7557,1845"
	stroke="#535353" stroke-width="8px" stroke-linejoin="round"/>
<!-- Line -->
<polyline points=" 9008,1779 8817,1523"
	stroke="#9f9f9f" stroke-width="8px" stroke-linejoin="round"/>
<!-- Line -->
<polyline points=" 7747,2110 10194,1469"
	stroke="#535353" stroke-width="8px" stroke-linejoin="round"/>
<!-- Line -->
<polyline points=" 2759,1560 417,1353"
	stroke="#535353" stroke-width="8px" stroke-linejoin="round"/>
<!-- Line -->
<polyline points=" 1605,1702 1573,1455"
	stroke="#9f9f9f" stroke-width="8px" stroke-linejoin="round"/>
<!-- Line -->
<polyline points=" 437,1598 2802,1811"
	stroke="#535353" stroke-width="8px" stroke-linejoin="round"/>
<!-- Arc -->
<defs>
<clipPath id="cp0">
	<path clip-rule="evenodd" d="M 68,-281 H 10276 V 4661 H 68 z
		M 3418,3942 3405,3790 3518,3689 3136,3672 3128,3692z"/>
</clipPath>
</defs>
<path d="M 6607,3765 A 4602 4602 0 0 1 3142 3686" clip-path="url(#cp0)"
	stroke="#000000" stroke-width="15px"/>
<!-- Forward arrow to point 3142,3686 -->
<polygon points=" 3518,3689 3152,3690 3418,3942 3405,3790 3518,3689"
	stroke="#000000" stroke-width="8px" stroke-miterlimit="8"/>
<!-- Arc -->
<defs>
<clipPath id="cp1">
	<path clip-rule="evenodd" d="M 68,-281 H 10276 V 4661 H 68 z
		M 5803,517 5812,669 5696,767 6078,794 6086,774z"/>
</clipPath>
</defs>
<path d="M 3441,732 A 3162 3162 0 0 1 6072 780" clip-path="url(#cp1)"
	stroke="#000000" stroke-width="15px"/>
<!-- Forward arrow to point 6072,780 -->
<polygon points=" 5696,767 6062,776 5803,517 5812,669 5696,767"
	stroke="#000000" stroke-width="8px" stroke-miterlimit="8"/>
<!-- Text -->
<text xml:space="preserve" x="2113" y="-50" fill="#000000" font-family="Times" font-style="normal" font-weight="normal" font-size="216" text-anchor="start">dh9=gm.insert_cell_2_in_cell_3</text>
<!-- Text -->
<text xml:space="preserve" x="3468" y="4305" fill="#000000" font-family="Times" font-style="normal" font-weight="normal" font-size="216" text-anchor="start">gm.remove_cell&lt;2&gt;(dh9)</text>
<!-- Text -->
<text xml:space="preserve" x="2005" y="3054" fill="#000000" font-family="Times" font-style="normal" font-weight="normal" font-size="216" text-anchor="start">dh1</text>
<!-- Text -->
<text xml:space="preserve" x="1055" y="2134" fill="#000000" font-family="Times" font-style="normal" font-weight="normal" font-size="216" text-anchor="start">dh2</text>
<!-- Text -->
<text xml:space="preserve" x="83" y="1157" fill="#000000" font-family="Times" font-style="normal" font-weight="normal" font-size="216" text-anchor="start">dh3</text>
<!-- Text -->
<text xml:space="preserve" x="191" y="808" fill="#000000" font-family="Times" font-style="normal" font-weight="normal" font-size="216" text-anchor="start">dh4</text>
<!-- Text -->
<text xml:space="preserve" x="1511" y="887" fill="#000000" font-family="Times" font-style="normal" font-weight="normal" font-size="216" text-anchor="start">dh5</text>
<!-- Text -->
<text xml:space="preserve" x="2391" y="1728" fill="#000000" font-family="Times" font-style="normal" font-weight="normal" font-size="216" text-anchor="start">dh6</text>
<!-- Text -->
<text xml:space="preserve" x="3110" y="2978" fill="#000000" font-family="Times" font-style="normal" font-weight="normal" font-size="216" text-anchor="start">dh7</text>
<!-- Text -->
<text xml:space="preserve" x="3003" y="3493" fill="#000000" font-family="Times" font-style="normal" font-weight="normal" font-size="216" text-anchor="start">dh8</text>
<!-- Text -->
<text xml:space="preserve" x="6544" y="2153" fill="#000000" font-family="Times" font-style="normal" font-weight="normal" font-size="216" text-anchor="start">dh9</text>
<!-- Text -->
<text xml:space="preserve" x="3750" y="281" fill="#000000" font-family="Times" font-style="normal" font-weight="normal" font-size="216" text-anchor="start">(std::vector{dh1,dh3,dh5,dh7})</text>
<!-- Circle -->
<circle cx="745" cy="583" r="64" fill="#5d5d5d"/>
<!-- Circle -->
<circle cx="944" cy="415" r="64" fill="#5d5d5d"/>
<!-- Circle -->
<circle cx="975" cy="591" r="64" fill="#5d5d5d"/>
<!-- Circle -->
<circle cx="1120" cy="499" r="64" fill="#5d5d5d"/>
<!-- Circle -->
<circle cx="3003" cy="537" r="64" fill="#5d5d5d"/>
<!-- Circle -->
<circle cx="3140" cy="621" r="64" fill="#5d5d5d"/>
<!-- Circle -->
<circle cx="3232" cy="797" r="64" fill="#5d5d5d"/>
<!-- Circle -->
<circle cx="3041" cy="2382" r="64" fill="#5d5d5d"/>
<!-- Circle -->
<circle cx="2880" cy="2489" r="64" fill="#5d5d5d"/>
<!-- Circle -->
<circle cx="2872" cy="2726" r="64" fill="#5d5d5d"/>
<!-- Circle -->
<circle cx="3117" cy="2596" r="64" fill="#5d5d5d"/>
<!-- Circle -->
<circle cx="2903" cy="3728" r="64" fill="#5d5d5d"/>
<!-- Circle -->
<circle cx="2750" cy="3751" r="64" fill="#5d5d5d"/>
<!-- Circle -->
<circle cx="2681" cy="3897" r="64" fill="#5d5d5d"/>
<!-- Circle -->
<circle cx="2528" cy="3866" r="64" fill="#5d5d5d"/>
<!-- Circle -->
<circle cx="401" cy="3652" r="64" fill="#5d5d5d"/>
<!-- Circle -->
<circle cx="569" cy="3660" r="64" fill="#5d5d5d"/>
<!-- Circle -->
<circle cx="309" cy="3430" r="64" fill="#5d5d5d"/>
<!-- Circle -->
<circle cx="217" cy="1517" r="64" fill="#5d5d5d"/>
<!-- Circle -->
<circle cx="316" cy="1762" r="64" fill="#5d5d5d"/>
<!-- Circle -->
<circle cx="469" cy="1593" r="64" fill="#5d5d5d"/>
<!-- Circle -->
<circle cx="446" cy="1341" r="64" fill="#5d5d5d"/>
<!-- Circle -->
<circle cx="6110" cy="1088" r="64" fill="#5d5d5d"/>
<!-- Circle -->
<circle cx="6186" cy="958" r="64" fill="#5d5d5d"/>
<!-- Circle -->
<circle cx="6362" cy="1004" r="64" fill="#5d5d5d"/>
<!-- Circle -->
<circle cx="6622" cy="805" r="64" fill="#5d5d5d"/>
<!-- Circle -->
<circle cx="6645" cy="637" r="64" fill="#5d5d5d"/>
<!-- Circle -->
<circle cx="6638" cy="552" r="64" fill="#5d5d5d"/>
<!-- Circle -->
<circle cx="8745" cy="175" r="64" fill="#5d5d5d"/>
<!-- Circle -->
<circle cx="8827" cy="86" r="64" fill="#5d5d5d"/>
<!-- Circle -->
<circle cx="8990" cy="253" r="64" fill="#5d5d5d"/>
<!-- Circle -->
<circle cx="9967" cy="1226" r="64" fill="#5d5d5d"/>
<!-- Circle -->
<circle cx="10212" cy="1379" r="64" fill="#5d5d5d"/>
<!-- Circle -->
<circle cx="10166" cy="1494" r="64" fill="#5d5d5d"/>
<!-- Circle -->
<circle cx="10009" cy="3318" r="64" fill="#5d5d5d"/>
<!-- Circle -->
<circle cx="10013" cy="3499" r="64" fill="#5d5d5d"/>
<!-- Circle -->
<circle cx="9783" cy="3453" r="64" fill="#5d5d5d"/>
<!-- Circle -->
<circle cx="9515" cy="3598" r="64" fill="#5d5d5d"/>
<!-- Circle -->
<circle cx="9500" cy="3774" r="64" fill="#5d5d5d"/>
<!-- Circle -->
<circle cx="9592" cy="3866" r="64" fill="#5d5d5d"/>
<!-- Circle -->
<circle cx="7400" cy="4598" r="64" fill="#5d5d5d"/>
<!-- Circle -->
<circle cx="7319" cy="4471" r="64" fill="#5d5d5d"/>
<!-- Circle -->
<circle cx="7128" cy="4394" r="64" fill="#5d5d5d"/>
<!-- Circle -->
<circle cx="6278" cy="2978" r="64" fill="#5d5d5d"/>
<!-- Circle -->
<circle cx="6370" cy="2841" r="64" fill="#5d5d5d"/>
<!-- Circle -->
<circle cx="6500" cy="3086" r="64" fill="#5d5d5d"/>
<!-- Circle -->
<circle cx="7020" cy="2351" r="64" fill="#5d5d5d"/>
<!-- Circle -->
<circle cx="7242" cy="2282" r="64" fill="#5d5d5d"/>
<!-- Circle -->
<circle cx="7265" cy="2550" r="64" fill="#5d5d5d"/>
<!-- Circle -->
<circle cx="8505" cy="2519" r="64" fill="#5d5d5d"/>
<!-- Circle -->
<circle cx="8314" cy="2343" r="64" fill="#5d5d5d"/>
<!-- Circle -->
<circle cx="8497" cy="2359" r="64" fill="#5d5d5d"/>
<!-- Circle -->
<circle cx="8750" cy="2190" r="64" fill="#5d5d5d"/>
<!-- Circle -->
<circle cx="8719" cy="1991" r="64" fill="#5d5d5d"/>
<!-- Circle -->
<circle cx="8949" cy="2121" r="64" fill="#5d5d5d"/>
<!-- Circle -->
<circle cx="7533" cy="2083" r="64" fill="#5d5d5d"/>
<!-- Circle -->
<circle cx="7571" cy="1831" r="64" fill="#5d5d5d"/>
<!-- Circle -->
<circle cx="7801" cy="2091" r="64" fill="#5d5d5d"/>
</g>
</svg>
