<?xml version="1.0" standalone="no"?>
<!DOCTYPE svg PUBLIC "-//W3C//DTD SVG 1.1//EN"
"http://www.w3.org/Graphics/SVG/1.1/DTD/svg11.dtd">
<!-- Creator: fig2dev Version 3.2.6 -->
<!-- CreationDate: Mon Nov 21 08:47:43 2016 -->
<!-- Magnification: 1.050 -->
<svg	xmlns="http://www.w3.org/2000/svg"
	xmlns:xlink="http://www.w3.org/1999/xlink"
	width="10.2in" height="2.5in"
	viewBox="-8708 4606 12215 3018">
<g style="stroke-width:.025in; fill:none">
<!-- Line: box -->
<rect x="-8503" y="5385" width="1889" height="1889" rx="0" 
style="stroke:#000000;stroke-width:0;
stroke-linejoin:miter; stroke-linecap:butt;
fill:#ff5900;
"/>
<!-- Line -->
<polyline points="-4951,5070
-4951,6963
-4907,7058
-4759,7170
-4541,7253
-4229,7348
-3861,7448
-3451,7558
-3455,5671
-3875,5563
-4353,5433
-4642,5328
-4867,5215
-4954,5085
" style="stroke:#000000;stroke-width:0;
stroke-linejoin:miter; stroke-linecap:butt;
fill:#00ff8a;
"/>
<!-- Line -->
<polyline points="-1565,5078
-1565,6971
-1609,7065
-1757,7177
-1974,7260
-2286,7355
-2655,7456
-3064,7565
-3061,5678
-2641,5570
-2162,5440
-1874,5335
-1649,5223
-1562,5092
" style="stroke:#000000;stroke-width:0;
stroke-linejoin:miter; stroke-linecap:butt;
fill:#00ff8a;
"/>
<!-- Line -->
<polyline points="-3437,6642
-3082,6642
-3075,5687
-2930,5632
-2134,5422
-1804,5299
-1605,5165
-1565,5042
-1677,4922
-2065,4820
-2637,4767
-3202,4755
-3897,4767
-4262,4795
-4675,4865
-4834,4933
-4929,5017
-4946,5107
-4859,5212
-4527,5375
-3937,5530
-3441,5682
-3441,6645
" style="stroke:#000000;stroke-width:0;
stroke-linejoin:miter; stroke-linecap:butt;
fill:#ff5900;
"/>
<!-- Line -->
<polyline points="247,4932
247,6562
212,6683
276,6843
452,7001
686,7129
986,7260
1348,7328
1645,7370
1645,5575
934,5398
616,5281
446,5183
311,5044
247,4932
" style="stroke:#000000;stroke-width:0;
stroke-linejoin:miter; stroke-linecap:butt;
fill:#00ff8a;
"/>
<!-- Line -->
<polyline points="3442,4939
3442,6570
3478,6690
3414,6850
3237,7008
3003,7137
2703,7268
2342,7335
2045,7377
2045,5583
2755,5405
3074,5289
3244,5190
3378,5051
3442,4939
" style="stroke:#000000;stroke-width:0;
stroke-linejoin:miter; stroke-linecap:butt;
fill:#ff5900;
"/>
<!-- Line -->
<polyline points="1854,5207
2360,4868
2675,4726
2916,4672
3167,4695
3361,4793
3433,4907
3404,5020
3216,5193
2876,5359
2506,5469
2275,5526
1858,5207
" style="stroke:#000000;stroke-width:0;
stroke-linejoin:miter; stroke-linecap:butt;
fill:#00ff8a;
"/>
<!-- Line -->
<polyline points="1836,5204
1330,4865
1015,4723
773,4669
522,4691
328,4790
257,4903
285,5017
473,5190
813,5356
1184,5466
1415,5523
1832,5204
" style="stroke:#000000;stroke-width:0;
stroke-linejoin:miter; stroke-linecap:butt;
fill:#ff5900;
"/>
<!-- Line -->
<polyline points="-8362,6330
-8645,6330
" style="stroke:#808080;stroke-width:16;
stroke-linejoin:miter; stroke-linecap:butt;
"/>
<!-- Line -->
<polyline points="-6472,6330
-6755,6330
" style="stroke:#808080;stroke-width:16;
stroke-linejoin:miter; stroke-linecap:butt;
"/>
<!-- Line -->
<polyline points="-7559,5527
-7559,5244
" style="stroke:#808080;stroke-width:16;
stroke-linejoin:miter; stroke-linecap:butt;
"/>
<!-- Line -->
<polyline points="-7559,7417
-7559,7133
" style="stroke:#808080;stroke-width:16;
stroke-linejoin:miter; stroke-linecap:butt;
"/>
<!-- Line -->
<polyline points="-3259,4913
-3259,4629
" style="stroke:#808080;stroke-width:16;
stroke-linejoin:miter; stroke-linecap:butt;
"/>
<!-- Line -->
<polyline points="-3259,6803
-3259,6519
" style="stroke:#808080;stroke-width:16;
stroke-linejoin:miter; stroke-linecap:butt;
"/>
<!-- Line -->
<polyline points="-2976,6377
-3543,6377
" style="stroke:#808080;stroke-width:16;
stroke-linejoin:miter; stroke-linecap:butt;
"/>
<!-- Line -->
<polyline points="1989,5474
1989,5190
" style="stroke:#808080;stroke-width:16;
stroke-linejoin:miter; stroke-linecap:butt;
"/>
<!-- Line -->
<polyline points="1645,5493
1645,5210
" style="stroke:#808080;stroke-width:16;
stroke-linejoin:miter; stroke-linecap:butt;
"/>
<!-- Line -->
<polyline points="2125,6425
1559,6425
" style="stroke:#808080;stroke-width:16;
stroke-linejoin:miter; stroke-linecap:butt;
"/>
<!-- Line: box -->
<rect x="-8503" y="5385" width="1889" height="1889" rx="0" 
style="stroke:#000000;stroke-width:32;
stroke-linejoin:miter; stroke-linecap:butt;
"/>
<!-- Line -->
<polyline points="-3070,5669
-3070,7559
" style="stroke:#000000;stroke-width:32;
stroke-linejoin:miter; stroke-linecap:butt;
"/>
<!-- Line -->
<polyline points="-3448,5669
-3448,7559
" style="stroke:#000000;stroke-width:32;
stroke-linejoin:miter; stroke-linecap:butt;
"/>
<!-- Line -->
<polyline points="2031,5574
2031,7370
" style="stroke:#000000;stroke-width:32;
stroke-linejoin:miter; stroke-linecap:butt;
"/>
<!-- Line -->
<polyline points="1653,5574
1653,7370
" style="stroke:#000000;stroke-width:32;
stroke-linejoin:miter; stroke-linecap:butt;
"/>
<!-- Line -->
<polyline points="-3448,5669
-3450,5669
-3456,5667
-3464,5665
-3478,5661
-3498,5656
-3524,5650
-3556,5641
-3594,5632
-3638,5620
-3688,5608
-3741,5594
-3799,5580
-3858,5564
-3920,5548
-3981,5531
-4041,5516
-4102,5499
-4161,5483
-4218,5466
-4271,5451
-4323,5436
-4372,5421
-4418,5407
-4461,5394
-4501,5380
-4540,5367
-4575,5355
-4608,5342
-4639,5331
-4668,5318
-4695,5307
-4720,5295
-4744,5283
-4766,5271
-4787,5259
-4804,5250
-4818,5239
-4834,5229
-4848,5219
-4861,5209
-4874,5198
-4886,5188
-4896,5176
-4907,5166
-4915,5154
-4923,5144
-4931,5132
-4936,5121
-4941,5109
-4945,5098
-4948,5086
-4949,5075
-4949,5063
-4948,5050
-4944,5039
-4940,5027
-4935,5016
-4928,5004
-4919,4994
-4910,4982
-4898,4972
-4886,4960
-4871,4950
-4856,4939
-4838,4930
-4820,4919
-4801,4910
-4780,4900
-4758,4892
-4733,4883
-4708,4875
-4681,4867
-4654,4859
-4624,4851
-4594,4845
-4561,4837
-4528,4831
-4493,4825
-4456,4818
-4419,4813
-4382,4808
-4342,4803
-4301,4797
-4258,4793
-4214,4789
-4167,4785
-4120,4781
-4071,4776
-4020,4773
-3968,4770
-3914,4767
-3860,4764
-3803,4762
-3746,4759
-3688,4756
-3628,4755
-3568,4753
-3507,4752
-3446,4751
-3384,4750
-3321,4750
-3259,4750
-3197,4750
-3134,4750
-3072,4751
-3012,4752
-2951,4753
-2891,4755
-2831,4756
-2772,4759
-2716,4762
-2659,4764
-2604,4767
-2551,4770
-2498,4773
-2448,4776
-2398,4781
-2351,4785
-2305,4789
-2261,4793
-2218,4797
-2177,4803
-2137,4808
-2099,4813
-2062,4818
-2026,4825
-1991,4831
-1958,4837
-1925,4845
-1895,4851
-1865,4859
-1838,4867
-1811,4875
-1785,4883
-1761,4892
-1739,4900
-1718,4910
-1698,4919
-1680,4930
-1662,4939
-1648,4950
-1633,4960
-1620,4972
-1609,4982
-1600,4994
-1591,5004
-1584,5016
-1579,5027
-1574,5039
-1571,5050
-1570,5063
-1570,5075
-1571,5086
-1573,5098
-1577,5109
-1583,5121
-1588,5132
-1595,5144
-1604,5154
-1612,5166
-1623,5176
-1633,5188
-1645,5198
-1657,5209
-1671,5219
-1685,5229
-1700,5239
-1715,5250
-1732,5259
-1753,5271
-1775,5283
-1799,5295
-1824,5307
-1850,5318
-1880,5331
-1910,5342
-1944,5355
-1979,5367
-2017,5380
-2057,5394
-2100,5407
-2146,5421
-2196,5436
-2247,5451
-2301,5466
-2358,5483
-2416,5499
-2477,5516
-2538,5531
-2599,5548
-2661,5564
-2720,5580
-2777,5594
-2831,5608
-2880,5620
-2924,5632
-2962,5641
-2995,5650
-3021,5656
-3041,5661
-3055,5665
-3063,5667
-3068,5669
-3070,5669
" style="stroke:#000000;stroke-width:32;
stroke-linejoin:bevel; stroke-linecap:butt;
"/>
<!-- Line -->
<polyline points="-3448,7559
-3450,7559
-3456,7556
-3464,7554
-3478,7551
-3498,7546
-3524,7540
-3556,7531
-3594,7522
-3638,7510
-3688,7498
-3741,7484
-3799,7469
-3858,7454
-3920,7438
-3981,7421
-4041,7405
-4102,7388
-4161,7373
-4218,7356
-4271,7341
-4323,7325
-4372,7311
-4418,7297
-4461,7283
-4501,7270
-4540,7257
-4575,7245
-4608,7232
-4639,7220
-4668,7208
-4695,7196
-4720,7185
-4744,7173
-4766,7161
-4787,7149
-4804,7140
-4818,7129
-4834,7119
-4848,7109
-4861,7099
-4874,7088
-4886,7078
-4896,7066
-4907,7056
-4915,7044
-4923,7034
-4931,7022
-4936,7011
-4941,6999
-4945,6987
-4948,6976
-4949,6964
-4949,6953
-4948,6940
-4944,6929
-4940,6917
-4935,6906
-4928,6894
-4919,6883
-4910,6872
-4898,6861
-4886,6850
-4871,6839
-4856,6829
-4838,6819
-4820,6809
-4801,6800
-4780,6790
-4758,6782
-4733,6773
-4708,6765
-4681,6756
-4654,6749
-4624,6741
-4594,6734
-4561,6727
-4528,6721
-4493,6714
-4456,6708
-4419,6703
-4382,6698
-4342,6692
-4301,6687
-4258,6683
-4214,6679
-4167,6675
-4120,6670
-4071,6666
-4020,6663
-3968,6660
-3914,6657
-3860,6654
-3803,6651
-3746,6648
-3688,6646
-3628,6645
-3568,6643
-3507,6642
-3446,6641
-3384,6640
-3321,6640
-3259,6640
-3197,6640
-3134,6640
-3072,6641
-3012,6642
-2951,6643
-2891,6645
-2831,6646
-2772,6648
-2716,6651
-2659,6654
-2604,6657
-2551,6660
-2498,6663
-2448,6666
-2398,6670
-2351,6675
-2305,6679
-2261,6683
-2218,6687
-2177,6692
-2137,6698
-2099,6703
-2062,6708
-2026,6714
-1991,6721
-1958,6727
-1925,6734
-1895,6741
-1865,6749
-1838,6756
-1811,6765
-1785,6773
-1761,6782
-1739,6790
-1718,6800
-1698,6809
-1680,6819
-1662,6829
-1648,6839
-1633,6850
-1620,6861
-1609,6872
-1600,6883
-1591,6894
-1584,6906
-1579,6917
-1574,6929
-1571,6940
-1570,6953
-1570,6964
-1571,6976
-1573,6987
-1577,6999
-1583,7011
-1588,7022
-1595,7034
-1604,7044
-1612,7056
-1623,7066
-1633,7078
-1645,7088
-1657,7099
-1671,7109
-1685,7119
-1700,7129
-1715,7140
-1732,7149
-1753,7161
-1775,7173
-1799,7185
-1824,7196
-1850,7208
-1880,7220
-1910,7232
-1944,7245
-1979,7257
-2017,7270
-2057,7283
-2100,7297
-2146,7311
-2196,7325
-2247,7341
-2301,7356
-2358,7373
-2416,7388
-2477,7405
-2538,7421
-2599,7438
-2661,7454
-2720,7469
-2777,7484
-2831,7498
-2880,7510
-2924,7522
-2962,7531
-2995,7540
-3021,7546
-3041,7551
-3055,7554
-3063,7556
-3068,7559
-3070,7559
" style="stroke:#000000;stroke-width:32;
stroke-linejoin:bevel; stroke-linecap:butt;
"/>
<!-- Line -->
<polyline points="2031,5574
2033,5573
2039,5572
2049,5570
2065,5567
2087,5562
2115,5554
2150,5547
2190,5538
2235,5527
2283,5516
2333,5503
2385,5490
2437,5478
2489,5464
2538,5451
2586,5439
2633,5427
2677,5416
2718,5404
2756,5393
2793,5382
2827,5372
2859,5361
2890,5351
2919,5340
2946,5331
2973,5320
2998,5310
3023,5299
3054,5285
3083,5271
3111,5256
3140,5240
3168,5225
3194,5209
3220,5191
3246,5174
3270,5155
3293,5138
3315,5119
3335,5100
3353,5081
3370,5062
3384,5043
3397,5024
3407,5006
3416,4987
3423,4971
3427,4953
3429,4937
3429,4920
3428,4904
3425,4890
3419,4874
3412,4859
3402,4844
3391,4829
3377,4814
3361,4801
3343,4786
3324,4772
3302,4759
3279,4746
3254,4734
3228,4723
3201,4713
3171,4704
3142,4696
3111,4688
3081,4683
3050,4678
3019,4675
2988,4672
2958,4671
2927,4672
2896,4674
2866,4677
2841,4680
2816,4684
2791,4689
2765,4696
2739,4702
2712,4710
2684,4720
2657,4729
2627,4741
2598,4752
2566,4766
2536,4780
2504,4795
2472,4811
2438,4829
2406,4847
2372,4866
2338,4885
2304,4904
2269,4925
2235,4948
2200,4969
2165,4991
2131,5014
2096,5037
2061,5060
2027,5084
1992,5107
1956,5132
1921,5158
1892,5177
1863,5197
1834,5218
1803,5240
1772,5262
1740,5285
1708,5308
1675,5332
1641,5356
1608,5381
1573,5406
1538,5432
1502,5458
1466,5485
1429,5511
1393,5539
1356,5566
1319,5594
1282,5622
1246,5649
1210,5677
1173,5704
1138,5732
1102,5758
1067,5785
1034,5812
1000,5837
967,5862
935,5887
904,5911
874,5935
845,5959
816,5981
788,6003
761,6025
734,6046
709,6066
685,6087
651,6113
620,6139
590,6165
559,6191
530,6216
501,6241
474,6266
448,6290
423,6316
397,6340
374,6364
352,6388
332,6412
312,6435
296,6458
280,6481
265,6503
253,6524
242,6545
233,6566
225,6586
220,6606
216,6625
214,6644
213,6662
214,6681
216,6699
220,6717
226,6735
234,6754
243,6774
255,6794
267,6814
282,6835
299,6855
317,6876
338,6897
359,6919
383,6940
407,6961
433,6982
459,7002
488,7022
516,7042
545,7061
575,7079
604,7097
634,7113
664,7129
693,7144
723,7159
752,7172
782,7185
811,7196
837,7207
865,7217
893,7227
921,7235
950,7245
980,7253
1012,7260
1045,7269
1080,7276
1118,7285
1156,7292
1197,7299
1239,7308
1283,7315
1329,7322
1375,7330
1419,7336
1463,7343
1503,7349
1541,7354
1572,7359
1600,7362
1620,7365
1635,7367
1646,7369
1651,7370
1653,7370
" style="stroke:#000000;stroke-width:32;
stroke-linejoin:bevel; stroke-linecap:butt;
"/>
<!-- Line -->
<polyline points="1653,5574
1651,5573
1645,5572
1635,5570
1619,5567
1597,5562
1569,5554
1534,5547
1495,5538
1449,5527
1401,5516
1351,5503
1299,5490
1247,5478
1195,5464
1146,5451
1098,5439
1051,5427
1007,5416
966,5404
928,5393
891,5382
857,5372
825,5361
794,5351
765,5340
738,5331
711,5320
686,5310
661,5299
630,5285
601,5271
573,5256
544,5240
516,5225
490,5209
464,5191
438,5174
414,5155
391,5138
369,5119
349,5100
331,5081
314,5062
300,5043
287,5024
277,5006
268,4987
261,4971
257,4953
255,4937
255,4920
256,4904
260,4890
265,4874
272,4859
282,4844
293,4829
307,4814
323,4801
341,4786
360,4772
382,4759
405,4746
430,4734
456,4723
483,4713
513,4704
542,4696
573,4688
603,4683
634,4678
665,4675
696,4672
726,4671
758,4672
788,4674
818,4677
843,4680
868,4684
893,4689
919,4696
945,4702
972,4710
1000,4720
1027,4729
1057,4741
1086,4752
1118,4766
1148,4780
1180,4795
1212,4811
1246,4829
1278,4847
1312,4866
1346,4885
1380,4904
1415,4925
1449,4948
1484,4969
1519,4991
1553,5014
1588,5037
1623,5060
1657,5084
1692,5107
1728,5132
1763,5158
1792,5177
1821,5197
1850,5218
1881,5240
1912,5262
1944,5285
1976,5308
2009,5332
2043,5356
2076,5381
2111,5406
2146,5432
2182,5458
2218,5485
2255,5511
2291,5539
2328,5566
2365,5594
2402,5622
2438,5649
2474,5677
2511,5704
2546,5732
2582,5758
2617,5785
2650,5812
2684,5837
2717,5862
2749,5887
2780,5911
2810,5935
2839,5959
2868,5981
2896,6003
2923,6025
2950,6046
2975,6066
3000,6087
3033,6113
3064,6139
3095,6165
3125,6191
3154,6216
3183,6241
3210,6266
3236,6290
3261,6316
3287,6340
3310,6364
3332,6388
3352,6412
3372,6435
3388,6458
3404,6481
3419,6503
3432,6524
3442,6545
3451,6566
3459,6586
3464,6606
3468,6625
3470,6644
3471,6662
3470,6681
3468,6699
3464,6717
3458,6735
3450,6754
3441,6774
3429,6794
3417,6814
3402,6835
3385,6855
3367,6876
3346,6897
3325,6919
3301,6940
3277,6961
3251,6982
3225,7002
3196,7022
3168,7042
3139,7061
3109,7079
3080,7097
3050,7113
3020,7129
2991,7144
2961,7159
2932,7172
2902,7185
2874,7196
2847,7207
2819,7217
2791,7227
2763,7235
2734,7245
2704,7253
2672,7260
2639,7269
2604,7276
2566,7285
2528,7292
2487,7299
2445,7308
2401,7315
2355,7322
2309,7330
2265,7336
2221,7343
2181,7349
2143,7354
2112,7359
2085,7362
2064,7365
2049,7367
2038,7369
2033,7370
2031,7370
" style="stroke:#000000;stroke-width:32;
stroke-linejoin:bevel; stroke-linecap:butt;
"/>
<!-- Text -->
<text xml:space="preserve" x="-3637" y="6141" fill="#000000"  font-family="Times" font-style="normal" font-weight="normal" font-size="215" text-anchor="start">1</text>
<!-- Text -->
<text xml:space="preserve" x="-3685" y="7133" fill="#000000"  font-family="Times" font-style="normal" font-weight="normal" font-size="215" text-anchor="start">2</text>
<!-- Text -->
<text xml:space="preserve" x="-3023" y="6141" fill="#000000"  font-family="Times" font-style="normal" font-weight="normal" font-size="215" text-anchor="start">3</text>
<!-- Text -->
<text xml:space="preserve" x="-3023" y="7133" fill="#000000"  font-family="Times" font-style="normal" font-weight="normal" font-size="215" text-anchor="start">4</text>
<!-- Text -->
<text xml:space="preserve" x="1464" y="6141" fill="#000000"  font-family="Times" font-style="normal" font-weight="normal" font-size="215" text-anchor="start">1</text>
<!-- Text -->
<text xml:space="preserve" x="1464" y="6897" fill="#000000"  font-family="Times" font-style="normal" font-weight="normal" font-size="215" text-anchor="start">2</text>
<!-- Text -->
<text xml:space="preserve" x="2078" y="6897" fill="#000000"  font-family="Times" font-style="normal" font-weight="normal" font-size="215" text-anchor="start">3</text>
<!-- Text -->
<text xml:space="preserve" x="2078" y="6141" fill="#000000"  font-family="Times" font-style="normal" font-weight="normal" font-size="215" text-anchor="start">4</text>
<!-- Text -->
<text xml:space="preserve" x="-8692" y="6000" fill="#000000"  font-family="Times" font-style="normal" font-weight="normal" font-size="215" text-anchor="start">1</text>
<!-- Text -->
<text xml:space="preserve" x="-8692" y="6897" fill="#000000"  font-family="Times" font-style="normal" font-weight="normal" font-size="215" text-anchor="start">2</text>
<!-- Text -->
<text xml:space="preserve" x="-6566" y="5952" fill="#000000"  font-family="Times" font-style="normal" font-weight="normal" font-size="215" text-anchor="start">3</text>
<!-- Text -->
<text xml:space="preserve" x="-6519" y="6850" fill="#000000"  font-family="Times" font-style="normal" font-weight="normal" font-size="215" text-anchor="start">4</text>
<!-- Circle -->
<circle cx="-6614" cy="5385" r="67"
 style="fill:#5d5d5d;stroke:#5d5d5d;stroke-width:0;"/>
<!-- Circle -->
<circle cx="-8503" cy="5385" r="67"
 style="fill:#5d5d5d;stroke:#5d5d5d;stroke-width:0;"/>
<!-- Circle -->
<circle cx="-8503" cy="7275" r="67"
 style="fill:#5d5d5d;stroke:#5d5d5d;stroke-width:0;"/>
<!-- Circle -->
<circle cx="-6614" cy="7275" r="67"
 style="fill:#5d5d5d;stroke:#5d5d5d;stroke-width:0;"/>
<!-- Circle -->
<circle cx="-3070" cy="5669" r="67"
 style="fill:#5d5d5d;stroke:#5d5d5d;stroke-width:0;"/>
<!-- Circle -->
<circle cx="-3070" cy="7559" r="67"
 style="fill:#5d5d5d;stroke:#5d5d5d;stroke-width:0;"/>
<!-- Circle -->
<circle cx="-3448" cy="5669" r="67"
 style="fill:#5d5d5d;stroke:#5d5d5d;stroke-width:0;"/>
<!-- Circle -->
<circle cx="-3448" cy="7559" r="67"
 style="fill:#5d5d5d;stroke:#5d5d5d;stroke-width:0;"/>
<!-- Circle -->
<circle cx="2031" cy="7370" r="67"
 style="fill:#5d5d5d;stroke:#5d5d5d;stroke-width:0;"/>
<!-- Circle -->
<circle cx="1653" cy="7370" r="67"
 style="fill:#5d5d5d;stroke:#5d5d5d;stroke-width:0;"/>
<!-- Circle -->
<circle cx="1653" cy="5574" r="67"
 style="fill:#5d5d5d;stroke:#5d5d5d;stroke-width:0;"/>
<!-- Circle -->
<circle cx="2031" cy="5574" r="67"
 style="fill:#5d5d5d;stroke:#5d5d5d;stroke-width:0;"/>
</g>
</svg>
