<?xml version="1.0" standalone="no"?>
<!DOCTYPE svg PUBLIC "-//W3C//DTD SVG 1.1//EN"
"http://www.w3.org/Graphics/SVG/1.1/DTD/svg11.dtd">
<!-- Creator: fig2dev Version 3.2.6 -->
<!-- CreationDate: Mon Nov 21 08:47:43 2016 -->
<!-- Magnification: 1.050 -->
<svg	xmlns="http://www.w3.org/2000/svg"
	xmlns:xlink="http://www.w3.org/1999/xlink"
	width="9.6in" height="2.9in"
	viewBox="-5766 573 11491 3522">
<g style="stroke-width:.025in; fill:none">
<!-- Line -->
<polyline points="-4620,2411
-3845,2592
" style="stroke:#5a5a5a;stroke-width:8;
stroke-linejoin:round; stroke-linecap:butt;
"/>
<!-- Line -->
<polyline points="-4620,2411
-3845,2592
" style="stroke:#5a5a5a;stroke-width:8;
stroke-linejoin:round; stroke-linecap:butt;
"/>
<!-- Line -->
<polyline points="-4620,2411
-4639,1628
" style="stroke:#5a5a5a;stroke-width:8;
stroke-linejoin:round; stroke-linecap:butt;
"/>
<!-- Line -->
<polyline points="-4620,2411
-4639,1628
" style="stroke:#5a5a5a;stroke-width:8;
stroke-linejoin:round; stroke-linecap:butt;
"/>
<!-- Line -->
<polyline points="1212,2321
2679,2650
" style="stroke:#444444;stroke-width:16;
stroke-linejoin:round; stroke-linecap:butt;
"/>
<!-- Line -->
<polyline points="-4620,2411
-5060,2798
" style="stroke:#5a5a5a;stroke-width:8;
stroke-linejoin:round; stroke-linecap:butt;
"/>
<!-- Line -->
<polyline points="-4620,2411
-5060,2798
" style="stroke:#5a5a5a;stroke-width:8;
stroke-linejoin:round; stroke-linecap:butt;
"/>
<!-- Line -->
<polyline points="1192,838
1212,2321
" style="stroke:#444444;stroke-width:16;
stroke-linejoin:round; stroke-linecap:butt;
"/>
<!-- Line -->
<polyline points="2621,2843
1150,2499
" style="stroke:#444444;stroke-width:16;
stroke-linejoin:round; stroke-linecap:butt;
"/>
<!-- Line -->
<polyline points="61,1423
175,3084
" style="stroke:#444444;stroke-width:16;
stroke-linejoin:round; stroke-linecap:butt;
"/>
<!-- Line -->
<polyline points="992,860
61,1423
" style="stroke:#444444;stroke-width:16;
stroke-linejoin:round; stroke-linecap:butt;
"/>
<!-- Line -->
<polyline points="1027,2349
992,860
" style="stroke:#444444;stroke-width:16;
stroke-linejoin:round; stroke-linecap:butt;
"/>
<!-- Line -->
<polyline points="175,3084
1027,2349
" style="stroke:#444444;stroke-width:16;
stroke-linejoin:round; stroke-linecap:butt;
"/>
<!-- Line -->
<polyline points="-3001,2788
-3845,2592
" style="stroke:#5a5a5a;stroke-width:8;
stroke-linejoin:round; stroke-linecap:butt;
"/>
<!-- Line -->
<polyline points="-3001,2788
-3845,2592
" style="stroke:#5a5a5a;stroke-width:8;
stroke-linejoin:round; stroke-linecap:butt;
"/>
<!-- Line -->
<polyline points="-4659,767
-4639,1628
" style="stroke:#5a5a5a;stroke-width:8;
stroke-linejoin:round; stroke-linecap:butt;
"/>
<!-- Line -->
<polyline points="-4659,767
-4639,1628
" style="stroke:#5a5a5a;stroke-width:8;
stroke-linejoin:round; stroke-linecap:butt;
"/>
<!-- Line -->
<polyline points="1150,2499
318,3255
" style="stroke:#444444;stroke-width:16;
stroke-linejoin:round; stroke-linecap:butt;
"/>
<!-- Line -->
<polyline points="-4620,2411
-3001,2788
-2867,1023
-4659,767
-4620,2411
" style="stroke:#5a5a5a;stroke-width:8;
stroke-linejoin:round; stroke-linecap:butt;
fill:#dfdfdf;
"/>
<!-- Line -->
<polyline points="-3001,2788
-2937,1951
" style="stroke:#5a5a5a;stroke-width:8;
stroke-linejoin:round; stroke-linecap:butt;
"/>
<!-- Line -->
<polyline points="-3001,2788
-2937,1951
" style="stroke:#5a5a5a;stroke-width:8;
stroke-linejoin:round; stroke-linecap:butt;
"/>
<!-- Line -->
<polyline points="-3001,2788
-2937,1951
" style="stroke:#5a5a5a;stroke-width:8;
stroke-linejoin:round; stroke-linecap:butt;
"/>
<!-- Line -->
<polyline points="-3001,2788
-2937,1951
" style="stroke:#5a5a5a;stroke-width:8;
stroke-linejoin:round; stroke-linecap:butt;
"/>
<!-- Line -->
<polyline points="-4659,767
-3805,890
" style="stroke:#5a5a5a;stroke-width:8;
stroke-linejoin:round; stroke-linecap:butt;
"/>
<!-- Line -->
<polyline points="-4659,767
-3805,890
" style="stroke:#5a5a5a;stroke-width:8;
stroke-linejoin:round; stroke-linecap:butt;
"/>
<!-- Line -->
<polyline points="2679,2650
2770,1089
" style="stroke:#444444;stroke-width:16;
stroke-linejoin:round; stroke-linecap:butt;
"/>
<!-- Line -->
<polyline points="2770,1089
1192,838
" style="stroke:#444444;stroke-width:16;
stroke-linejoin:round; stroke-linecap:butt;
"/>
<!-- Line -->
<polyline points="-3001,2788
-3321,3251
" style="stroke:#5a5a5a;stroke-width:8;
stroke-linejoin:round; stroke-linecap:butt;
"/>
<!-- Line -->
<polyline points="-3001,2788
-3321,3251
" style="stroke:#5a5a5a;stroke-width:8;
stroke-linejoin:round; stroke-linecap:butt;
"/>
<!-- Line -->
<polyline points="-3001,2788
-3321,3251
" style="stroke:#5a5a5a;stroke-width:8;
stroke-linejoin:round; stroke-linecap:butt;
"/>
<!-- Line -->
<polyline points="-3001,2788
-3321,3251
" style="stroke:#5a5a5a;stroke-width:8;
stroke-linejoin:round; stroke-linecap:butt;
"/>
<!-- Line -->
<polyline points="-5588,3264
-5060,2798
" style="stroke:#5a5a5a;stroke-width:8;
stroke-linejoin:round; stroke-linecap:butt;
"/>
<!-- Line -->
<polyline points="-5588,3264
-5060,2798
" style="stroke:#5a5a5a;stroke-width:8;
stroke-linejoin:round; stroke-linecap:butt;
"/>
<!-- Line -->
<polyline points="-3001,2788
-2292,2773
" style="stroke:#5a5a5a;stroke-width:8;
stroke-linejoin:round; stroke-linecap:butt;
"/>
<!-- Line -->
<polyline points="-3001,2788
-2292,2773
" style="stroke:#5a5a5a;stroke-width:8;
stroke-linejoin:round; stroke-linecap:butt;
"/>
<!-- Line -->
<polyline points="-3001,2788
-3714,3817
-5588,3264
-4620,2411
-3001,2788
" style="stroke:#5a5a5a;stroke-width:8;
stroke-linejoin:round; stroke-linecap:butt;
fill:#dfdfdf;
"/>
<!-- Line -->
<polyline points="-4659,767
-5151,1030
" style="stroke:#5a5a5a;stroke-width:8;
stroke-linejoin:round; stroke-linecap:butt;
"/>
<!-- Line -->
<polyline points="-4659,767
-5151,1030
" style="stroke:#5a5a5a;stroke-width:8;
stroke-linejoin:round; stroke-linecap:butt;
"/>
<!-- Line -->
<polyline points="2868,1164
2768,2746
" style="stroke:#000000;stroke-width:32;
stroke-linejoin:round; stroke-linecap:butt;
"/>
<!-- Line -->
<polyline points="-5588,3264
-5754,1354
-4659,767
-4620,2411
-5588,3264
" style="stroke:#5a5a5a;stroke-width:8;
stroke-linejoin:round; stroke-linecap:butt;
fill:#dfdfdf;
"/>
<!-- Line -->
<polyline points="1120,739
2725,987
" style="stroke:#000000;stroke-width:32;
stroke-linejoin:round; stroke-linecap:butt;
"/>
<!-- Line -->
<polyline points="4327,1421
4200,3008
" style="stroke:#444444;stroke-width:16;
stroke-linejoin:round; stroke-linecap:butt;
"/>
<!-- Line -->
<polyline points="3985,2973
4104,1377
" style="stroke:#000000;stroke-width:32;
stroke-linejoin:round; stroke-linecap:butt;
"/>
<!-- Line -->
<polyline points="-2867,1023
-2937,1951
" style="stroke:#5a5a5a;stroke-width:8;
stroke-linejoin:round; stroke-linecap:butt;
"/>
<!-- Line -->
<polyline points="-2867,1023
-2937,1951
" style="stroke:#5a5a5a;stroke-width:8;
stroke-linejoin:round; stroke-linecap:butt;
"/>
<!-- Line -->
<polyline points="-2867,1023
-2937,1951
" style="stroke:#5a5a5a;stroke-width:8;
stroke-linejoin:round; stroke-linecap:butt;
"/>
<!-- Line -->
<polyline points="-2867,1023
-2937,1951
" style="stroke:#5a5a5a;stroke-width:8;
stroke-linejoin:round; stroke-linecap:butt;
"/>
<!-- Line -->
<polyline points="-2867,1023
-3805,890
" style="stroke:#5a5a5a;stroke-width:8;
stroke-linejoin:round; stroke-linecap:butt;
"/>
<!-- Line -->
<polyline points="-2867,1023
-3805,890
" style="stroke:#5a5a5a;stroke-width:8;
stroke-linejoin:round; stroke-linecap:butt;
"/>
<!-- Line -->
<polyline points="1951,3710
2621,2843
" style="stroke:#444444;stroke-width:16;
stroke-linejoin:round; stroke-linecap:butt;
"/>
<!-- Line -->
<polyline points="2768,2746
2112,3610
" style="stroke:#000000;stroke-width:32;
stroke-linejoin:round; stroke-linecap:butt;
"/>
<!-- Line -->
<polyline points="4251,3124
3637,4020
" style="stroke:#444444;stroke-width:16;
stroke-linejoin:round; stroke-linecap:butt;
"/>
<!-- Line -->
<polyline points="197,1291
1120,739
" style="stroke:#000000;stroke-width:32;
stroke-linejoin:round; stroke-linecap:butt;
"/>
<!-- Line -->
<polyline points="-1388,2754
-3001,2788
-2867,1023
-1388,2754
" style="stroke:#5a5a5a;stroke-width:8;
stroke-linejoin:round; stroke-linecap:butt;
fill:#ffffff;
"/>
<!-- Line -->
<polyline points="3358,3854
3985,2973
" style="stroke:#000000;stroke-width:32;
stroke-linejoin:round; stroke-linecap:butt;
"/>
<!-- Line -->
<polyline points="-5588,3264
-4699,3526
" style="stroke:#5a5a5a;stroke-width:8;
stroke-linejoin:round; stroke-linecap:butt;
"/>
<!-- Line -->
<polyline points="-5588,3264
-4699,3526
" style="stroke:#5a5a5a;stroke-width:8;
stroke-linejoin:round; stroke-linecap:butt;
"/>
<!-- Line -->
<polyline points="-5588,3264
-5666,2364
" style="stroke:#5a5a5a;stroke-width:8;
stroke-linejoin:round; stroke-linecap:butt;
"/>
<!-- Line -->
<polyline points="-5588,3264
-5666,2364
" style="stroke:#5a5a5a;stroke-width:8;
stroke-linejoin:round; stroke-linecap:butt;
"/>
<!-- Line -->
<polyline points="318,3255
1951,3710
" style="stroke:#444444;stroke-width:16;
stroke-linejoin:round; stroke-linecap:butt;
"/>
<!-- Line -->
<polyline points="4200,3008
5603,2952
" style="stroke:#444444;stroke-width:16;
stroke-linejoin:round; stroke-linecap:butt;
"/>
<!-- Line -->
<polyline points="-2867,1023
-2179,1829
" style="stroke:#5a5a5a;stroke-width:8;
stroke-linejoin:round; stroke-linecap:butt;
"/>
<!-- Line -->
<polyline points="-2867,1023
-2179,1829
" style="stroke:#5a5a5a;stroke-width:8;
stroke-linejoin:round; stroke-linecap:butt;
"/>
<!-- Line -->
<polyline points="5654,3092
4251,3124
" style="stroke:#444444;stroke-width:16;
stroke-linejoin:round; stroke-linecap:butt;
"/>
<!-- Line -->
<polyline points="-3714,3817
-3321,3251
" style="stroke:#5a5a5a;stroke-width:8;
stroke-linejoin:round; stroke-linecap:butt;
"/>
<!-- Line -->
<polyline points="-3714,3817
-3321,3251
" style="stroke:#5a5a5a;stroke-width:8;
stroke-linejoin:round; stroke-linecap:butt;
"/>
<!-- Line -->
<polyline points="-3714,3817
-3321,3251
" style="stroke:#5a5a5a;stroke-width:8;
stroke-linejoin:round; stroke-linecap:butt;
"/>
<!-- Line -->
<polyline points="-3714,3817
-3321,3251
" style="stroke:#5a5a5a;stroke-width:8;
stroke-linejoin:round; stroke-linecap:butt;
"/>
<!-- Line -->
<polyline points="-3714,3817
-3001,2788
-1388,2754
-3714,3817
" style="stroke:#5a5a5a;stroke-width:8;
stroke-linejoin:round; stroke-linecap:butt;
fill:#ffffff;
"/>
<!-- Line -->
<polyline points="-2867,1023
-3211,1344
" style="stroke:#5a5a5a;stroke-width:8;
stroke-linejoin:round; stroke-linecap:butt;
"/>
<!-- Line -->
<polyline points="-2867,1023
-3211,1344
" style="stroke:#5a5a5a;stroke-width:8;
stroke-linejoin:round; stroke-linecap:butt;
"/>
<!-- Line -->
<polyline points="-2867,1023
-3211,1344
" style="stroke:#5a5a5a;stroke-width:8;
stroke-linejoin:round; stroke-linecap:butt;
"/>
<!-- Line -->
<polyline points="-2867,1023
-3211,1344
" style="stroke:#5a5a5a;stroke-width:8;
stroke-linejoin:round; stroke-linecap:butt;
"/>
<!-- Line -->
<polyline points="1886,3655
222,3196
" style="stroke:#444444;stroke-width:16;
stroke-linejoin:round; stroke-linecap:butt;
"/>
<!-- Line -->
<polyline points="-5754,1354
-5151,1030
" style="stroke:#5a5a5a;stroke-width:8;
stroke-linejoin:round; stroke-linecap:butt;
"/>
<!-- Line -->
<polyline points="-5754,1354
-5151,1030
" style="stroke:#5a5a5a;stroke-width:8;
stroke-linejoin:round; stroke-linecap:butt;
"/>
<!-- Line -->
<polyline points="222,3196
112,1511
" style="stroke:#444444;stroke-width:16;
stroke-linejoin:round; stroke-linecap:butt;
"/>
<!-- Line -->
<polyline points="-3714,3817
-3001,2788
-2867,1023
-3643,1746
-3714,3817
" style="stroke:#5a5a5a;stroke-width:8;
stroke-linejoin:round; stroke-linecap:butt;
fill:#ffffff;
"/>
<!-- Line -->
<polyline points="-3714,3817
-3643,1746
-2867,1023
-3001,2788
-3714,3817
" style="stroke:#5a5a5a;stroke-width:8;
stroke-linejoin:round; stroke-linecap:butt;
fill:#dfdfdf;
"/>
<!-- Line -->
<polyline points="-3643,1746
-2867,1023
-4659,767
-5754,1354
-3643,1746
" style="stroke:#5a5a5a;stroke-width:8;
stroke-linejoin:round; stroke-linecap:butt;
fill:#dfdfdf;
"/>
<!-- Line -->
<polyline points="-3714,3817
-4699,3526
" style="stroke:#5a5a5a;stroke-width:8;
stroke-linejoin:round; stroke-linecap:butt;
"/>
<!-- Line -->
<polyline points="-3714,3817
-4699,3526
" style="stroke:#5a5a5a;stroke-width:8;
stroke-linejoin:round; stroke-linecap:butt;
"/>
<!-- Line -->
<polyline points="5603,2952
4327,1421
" style="stroke:#444444;stroke-width:16;
stroke-linejoin:round; stroke-linecap:butt;
"/>
<!-- Line -->
<polyline points="-1388,2754
-2292,2773
" style="stroke:#5a5a5a;stroke-width:8;
stroke-linejoin:round; stroke-linecap:butt;
"/>
<!-- Line -->
<polyline points="-1388,2754
-2292,2773
" style="stroke:#5a5a5a;stroke-width:8;
stroke-linejoin:round; stroke-linecap:butt;
"/>
<!-- Line -->
<polyline points="-5754,1354
-5666,2364
" style="stroke:#5a5a5a;stroke-width:8;
stroke-linejoin:round; stroke-linecap:butt;
"/>
<!-- Line -->
<polyline points="-5754,1354
-5666,2364
" style="stroke:#5a5a5a;stroke-width:8;
stroke-linejoin:round; stroke-linecap:butt;
"/>
<!-- Text -->
<text xml:space="preserve" x="3357" y="1569" fill="#343434"  font-family="Times" font-style="italic" font-weight="normal" font-size="252" text-anchor="start">3</text>
<!-- Text -->
<text xml:space="preserve" x="3089" y="1423" fill="#343434"  font-family="Times,Symbol" font-style="normal" font-weight="normal" font-size="303" text-anchor="start">&#945;</text>
<!-- Line -->
<polyline points="4349,1333
5640,2880
" style="stroke:#444444;stroke-width:16;
stroke-linejoin:round; stroke-linecap:butt;
"/>
<!-- Line -->
<polyline points="-1388,2754
-2179,1829
" style="stroke:#5a5a5a;stroke-width:8;
stroke-linejoin:round; stroke-linecap:butt;
"/>
<!-- Line -->
<polyline points="-1388,2754
-2179,1829
" style="stroke:#5a5a5a;stroke-width:8;
stroke-linejoin:round; stroke-linecap:butt;
"/>
<!-- Line -->
<polyline points="2169,1835
2868,1164
" style="stroke:#000000;stroke-width:32;
stroke-linejoin:round; stroke-linecap:butt;
"/>
<!-- Line -->
<polyline points="-3714,3817
-2575,3297
" style="stroke:#5a5a5a;stroke-width:8;
stroke-linejoin:round; stroke-linecap:butt;
"/>
<!-- Line -->
<polyline points="-3714,3817
-2575,3297
" style="stroke:#5a5a5a;stroke-width:8;
stroke-linejoin:round; stroke-linecap:butt;
"/>
<!-- Line -->
<polyline points="2725,987
2001,1631
" style="stroke:#000000;stroke-width:32;
stroke-linejoin:round; stroke-linecap:butt;
"/>
<!-- Line -->
<polyline points="-3714,3817
-3643,1746
-5754,1354
-5588,3264
-3714,3817
" style="stroke:#5a5a5a;stroke-width:8;
stroke-linejoin:round; stroke-linecap:butt;
fill:#dfdfdf;
"/>
<!-- Line -->
<polyline points="4104,1377
3439,2064
" style="stroke:#000000;stroke-width:32;
stroke-linejoin:round; stroke-linecap:butt;
"/>
<!-- Line -->
<polyline points="3637,4020
5654,3092
" style="stroke:#444444;stroke-width:16;
stroke-linejoin:round; stroke-linecap:butt;
"/>
<!-- Line -->
<polyline points="-1388,2754
-3643,1746
-2867,1023
-1388,2754
" style="stroke:#5a5a5a;stroke-width:8;
stroke-linejoin:round; stroke-linecap:butt;
fill:#ffffff;
"/>
<!-- Line -->
<polyline points="-3714,3817
-3680,2848
" style="stroke:#5a5a5a;stroke-width:8;
stroke-linejoin:round; stroke-linecap:butt;
"/>
<!-- Line -->
<polyline points="-3714,3817
-3680,2848
" style="stroke:#5a5a5a;stroke-width:8;
stroke-linejoin:round; stroke-linecap:butt;
"/>
<!-- Line -->
<polyline points="-1388,2754
-2575,3297
" style="stroke:#5a5a5a;stroke-width:8;
stroke-linejoin:round; stroke-linecap:butt;
"/>
<!-- Line -->
<polyline points="-1388,2754
-2575,3297
" style="stroke:#5a5a5a;stroke-width:8;
stroke-linejoin:round; stroke-linecap:butt;
"/>
<!-- Line -->
<polyline points="-3714,3817
-3680,2848
" style="stroke:#5a5a5a;stroke-width:8;
stroke-linejoin:round; stroke-linecap:butt;
"/>
<!-- Line -->
<polyline points="-3714,3817
-3680,2848
" style="stroke:#5a5a5a;stroke-width:8;
stroke-linejoin:round; stroke-linecap:butt;
"/>
<!-- Line -->
<polyline points="2816,1986
4038,2222
" style="stroke:#0000ff;stroke-width:32;
stroke-linejoin:miter; stroke-linecap:butt;
"/>
<!-- Line -->
<polyline points="2529,3068
3728,3338
" style="stroke:#0000ff;stroke-width:32;
stroke-linejoin:miter; stroke-linecap:butt;
"/>
<!-- Line -->
<polyline points="3693,2010
4349,1333
" style="stroke:#000000;stroke-width:32;
stroke-linejoin:round; stroke-linecap:butt;
"/>
<!-- Line -->
<polyline points="-5754,1354
-4760,1539
" style="stroke:#5a5a5a;stroke-width:8;
stroke-linejoin:round; stroke-linecap:butt;
"/>
<!-- Line -->
<polyline points="-5754,1354
-4760,1539
" style="stroke:#5a5a5a;stroke-width:8;
stroke-linejoin:round; stroke-linecap:butt;
"/>
<!-- Line -->
<polyline points="5583,3032
3538,3975
" style="stroke:#444444;stroke-width:16;
stroke-linejoin:round; stroke-linecap:butt;
"/>
<!-- Line -->
<polyline points="2112,3610
2169,1835
" style="stroke:#000000;stroke-width:32;
stroke-linejoin:round; stroke-linecap:butt;
"/>
<!-- Line -->
<polyline points="2001,1631
197,1291
" style="stroke:#000000;stroke-width:32;
stroke-linejoin:round; stroke-linecap:butt;
"/>
<!-- Line -->
<polyline points="1888,3653
1903,2701
" style="stroke:#444444;stroke-width:16;
stroke-linejoin:round; stroke-linecap:butt;
"/>
<!-- Line -->
<polyline points="1916,1874
1906,2710
" style="stroke:#000000;stroke-width:32;
stroke-linejoin:round; stroke-linecap:butt;
"/>
<!-- Line -->
<polyline points="-3643,1746
-3714,3817
-1388,2754
-3643,1746
" style="stroke:#5a5a5a;stroke-width:8;
stroke-linejoin:round; stroke-linecap:butt;
fill:#ffffff;
"/>
<!-- Line -->
<polyline points="3439,2064
3358,3854
" style="stroke:#000000;stroke-width:32;
stroke-linejoin:round; stroke-linecap:butt;
"/>
<!-- Line -->
<polyline points="114,1508
1143,1715
" style="stroke:#444444;stroke-width:16;
stroke-linejoin:round; stroke-linecap:butt;
"/>
<!-- Line -->
<polyline points="1120,1712
1923,1871
" style="stroke:#000000;stroke-width:32;
stroke-linejoin:round; stroke-linecap:butt;
"/>
<!-- Line -->
<polyline points="-1388,2754
-2467,2272
" style="stroke:#5a5a5a;stroke-width:8;
stroke-linejoin:round; stroke-linecap:butt;
"/>
<!-- Line -->
<polyline points="-1388,2754
-2467,2272
" style="stroke:#5a5a5a;stroke-width:8;
stroke-linejoin:round; stroke-linecap:butt;
"/>
<!-- Line -->
<polyline points="-3643,1746
-3211,1344
" style="stroke:#5a5a5a;stroke-width:8;
stroke-linejoin:round; stroke-linecap:butt;
"/>
<!-- Line -->
<polyline points="-3643,1746
-3211,1344
" style="stroke:#5a5a5a;stroke-width:8;
stroke-linejoin:round; stroke-linecap:butt;
"/>
<!-- Line -->
<polyline points="-3643,1746
-3211,1344
" style="stroke:#5a5a5a;stroke-width:8;
stroke-linejoin:round; stroke-linecap:butt;
"/>
<!-- Line -->
<polyline points="-3643,1746
-3211,1344
" style="stroke:#5a5a5a;stroke-width:8;
stroke-linejoin:round; stroke-linecap:butt;
"/>
<!-- Line -->
<polyline points="3585,3023
3538,3965
" style="stroke:#444444;stroke-width:16;
stroke-linejoin:round; stroke-linecap:butt;
"/>
<!-- Line -->
<polyline points="3617,2166
3573,3027
" style="stroke:#000000;stroke-width:32;
stroke-linejoin:round; stroke-linecap:butt;
"/>
<!-- Line -->
<polyline points="4594,2414
5630,2876
" style="stroke:#444444;stroke-width:16;
stroke-linejoin:round; stroke-linecap:butt;
"/>
<!-- Line -->
<polyline points="3693,2015
4638,2437
" style="stroke:#000000;stroke-width:32;
stroke-linejoin:round; stroke-linecap:butt;
"/>
<!-- Line -->
<polyline points="4570,2588
5587,3032
" style="stroke:#444444;stroke-width:16;
stroke-linejoin:round; stroke-linecap:butt;
"/>
<!-- Line -->
<polyline points="3629,2166
4578,2588
" style="stroke:#000000;stroke-width:32;
stroke-linejoin:round; stroke-linecap:butt;
"/>
<!-- Line -->
<polyline points="-3643,1746
-3680,2848
" style="stroke:#5a5a5a;stroke-width:8;
stroke-linejoin:round; stroke-linecap:butt;
"/>
<!-- Line -->
<polyline points="-3643,1746
-3680,2848
" style="stroke:#5a5a5a;stroke-width:8;
stroke-linejoin:round; stroke-linecap:butt;
"/>
<!-- Line -->
<polyline points="-3643,1746
-3680,2848
" style="stroke:#5a5a5a;stroke-width:8;
stroke-linejoin:round; stroke-linecap:butt;
"/>
<!-- Line -->
<polyline points="-3643,1746
-3680,2848
" style="stroke:#5a5a5a;stroke-width:8;
stroke-linejoin:round; stroke-linecap:butt;
"/>
<!-- Line -->
<polyline points="-3643,1746
-4760,1539
" style="stroke:#5a5a5a;stroke-width:8;
stroke-linejoin:round; stroke-linecap:butt;
"/>
<!-- Line -->
<polyline points="-3643,1746
-4760,1539
" style="stroke:#5a5a5a;stroke-width:8;
stroke-linejoin:round; stroke-linecap:butt;
"/>
<!-- Line -->
<polyline points="-3643,1746
-2467,2272
" style="stroke:#5a5a5a;stroke-width:8;
stroke-linejoin:round; stroke-linecap:butt;
"/>
<!-- Line -->
<polyline points="-3643,1746
-2467,2272
" style="stroke:#5a5a5a;stroke-width:8;
stroke-linejoin:round; stroke-linecap:butt;
"/>
<!-- Line -->
<polyline points="-3005,2784
-1392,2756
" style="stroke:#5a5a5a;stroke-width:8;
stroke-linejoin:miter; stroke-linecap:butt;
stroke-dasharray:10 10;"/>
<!-- Line -->
<polyline points="-5595,3269
-4619,2411
-3000,2790
" style="stroke:#5a5a5a;stroke-width:8;
stroke-linejoin:miter; stroke-linecap:butt;
stroke-dasharray:10 10;"/>
<!-- Line -->
<polyline points="-4655,768
-4622,2414
" style="stroke:#5a5a5a;stroke-width:8;
stroke-linejoin:miter; stroke-linecap:butt;
stroke-dasharray:10 10;"/>
<!-- Line -->
<polyline points="-3706,3807
-2995,2786
-2872,1018
" style="stroke:#5a5a5a;stroke-width:8;
stroke-linejoin:miter; stroke-linecap:butt;
stroke-dasharray:10 10;"/>
<!-- Circle -->
<circle cx="-3648" cy="1746" r="98"
 style="fill:#000000;stroke:#000000;stroke-width:48;"/>
<!-- Line -->
<polyline points="-3081,1255
-3654,2435
" style="stroke:#5a5a5a;stroke-width:8;
stroke-linejoin:miter; stroke-linecap:butt;
stroke-dasharray:41 41;"/>
<!-- Line -->
<polyline points="-3401,1559
-3655,2070
" style="stroke:#5a5a5a;stroke-width:8;
stroke-linejoin:miter; stroke-linecap:butt;
stroke-dasharray:41 41;"/>
<!-- Line -->
<polyline points="-2942,2040
-3704,3575
" style="stroke:#5a5a5a;stroke-width:8;
stroke-linejoin:miter; stroke-linecap:butt;
stroke-dasharray:41 41;"/>
<!-- Line -->
<polyline points="-2972,2462
-3447,3446
" style="stroke:#5a5a5a;stroke-width:8;
stroke-linejoin:miter; stroke-linecap:butt;
stroke-dasharray:41 41;"/>
<!-- Line -->
<polyline points="-2870,1162
-3667,2828
" style="stroke:#5a5a5a;stroke-width:8;
stroke-linejoin:miter; stroke-linecap:butt;
stroke-dasharray:41 41;"/>
<!-- Line -->
<polyline points="-2908,1627
-3683,3208
" style="stroke:#5a5a5a;stroke-width:8;
stroke-linejoin:miter; stroke-linecap:butt;
stroke-dasharray:41 41;"/>
<!-- Text -->
<text xml:space="preserve" x="-3862" y="1641" fill="#000000"  font-family="Times" font-style="normal" font-weight="normal" font-size="252" text-anchor="start">v</text>
<!-- Text -->
<text xml:space="preserve" x="-4677" y="2220" fill="#000000"  font-family="Times" font-style="normal" font-weight="normal" font-size="252" text-anchor="start">vol1</text>
<!-- Text -->
<text xml:space="preserve" x="-4369" y="1338" fill="#000000"  font-family="Times" font-style="normal" font-weight="normal" font-size="252" text-anchor="start">f1</text>
<!-- Text -->
<text xml:space="preserve" x="-2787" y="2645" fill="#000000"  font-family="Times" font-style="normal" font-weight="normal" font-size="252" text-anchor="start">vol2</text>
<!-- Text -->
<text xml:space="preserve" x="267" y="1108" fill="#41ac33"  font-family="Times" font-style="normal" font-weight="bold" font-size="177" text-anchor="start">19</text>
<!-- Text -->
<text xml:space="preserve" x="664" y="1348" fill="#41ac33"  font-family="Times" font-style="normal" font-weight="bold" font-size="177" text-anchor="start">18</text>
<!-- Text -->
<text xml:space="preserve" x="1525" y="1521" fill="#41ac33"  font-family="Times" font-style="normal" font-weight="bold" font-size="177" text-anchor="start">17</text>
<!-- Text -->
<text xml:space="preserve" x="1401" y="1997" fill="#41ac33"  font-family="Times" font-style="normal" font-weight="bold" font-size="177" text-anchor="start">30</text>
<!-- Text -->
<text xml:space="preserve" x="2197" y="2311" fill="#41ac33"  font-family="Times" font-style="normal" font-weight="bold" font-size="177" text-anchor="start">8</text>
<!-- Text -->
<text xml:space="preserve" x="2324" y="1856" fill="#41ac33"  font-family="Times" font-style="normal" font-weight="bold" font-size="177" text-anchor="start">1</text>
<!-- Text -->
<text xml:space="preserve" x="704" y="830" fill="#41ac33"  font-family="Times" font-style="normal" font-weight="bold" font-size="177" text-anchor="start">20</text>
<!-- Text -->
<text xml:space="preserve" x="1497" y="762" fill="#41ac33"  font-family="Times" font-style="normal" font-weight="bold" font-size="177" text-anchor="start">21</text>
<!-- Text -->
<text xml:space="preserve" x="2222" y="888" fill="#41ac33"  font-family="Times" font-style="normal" font-weight="bold" font-size="177" text-anchor="start">22</text>
<!-- Text -->
<text xml:space="preserve" x="1960" y="1433" fill="#41ac33"  font-family="Times" font-style="normal" font-weight="bold" font-size="177" text-anchor="start">24</text>
<!-- Text -->
<text xml:space="preserve" x="2213" y="1216" fill="#41ac33"  font-family="Times" font-style="normal" font-weight="bold" font-size="177" text-anchor="start">23</text>
<!-- Text -->
<text xml:space="preserve" x="2560" y="1329" fill="#41ac33"  font-family="Times" font-style="normal" font-weight="bold" font-size="177" text-anchor="start">2</text>
<!-- Text -->
<text xml:space="preserve" x="2167" y="3075" fill="#41ac33"  font-family="Times" font-style="normal" font-weight="bold" font-size="177" text-anchor="start">7</text>
<!-- Text -->
<text xml:space="preserve" x="2299" y="3535" fill="#41ac33"  font-family="Times" font-style="normal" font-weight="bold" font-size="177" text-anchor="start">6</text>
<!-- Text -->
<text xml:space="preserve" x="2678" y="3037" fill="#41ac33"  font-family="Times" font-style="normal" font-weight="bold" font-size="177" text-anchor="start">5</text>
<!-- Text -->
<text xml:space="preserve" x="2828" y="2382" fill="#41ac33"  font-family="Times" font-style="normal" font-weight="bold" font-size="177" text-anchor="start">4</text>
<!-- Text -->
<text xml:space="preserve" x="2881" y="1803" fill="#41ac33"  font-family="Times" font-style="normal" font-weight="bold" font-size="177" text-anchor="start">3</text>
<!-- Text -->
<text xml:space="preserve" x="3446" y="1918" fill="#41ac33"  font-family="Times" font-style="normal" font-weight="bold" font-size="177" text-anchor="start">9</text>
<!-- Text -->
<text xml:space="preserve" x="3147" y="2647" fill="#41ac33"  font-family="Times" font-style="normal" font-weight="bold" font-size="177" text-anchor="start">16</text>
<!-- Text -->
<text xml:space="preserve" x="3748" y="2600" fill="#41ac33"  font-family="Times" font-style="normal" font-weight="bold" font-size="177" text-anchor="start">12</text>
<!-- Text -->
<text xml:space="preserve" x="3687" y="1552" fill="#41ac33"  font-family="Times" font-style="normal" font-weight="bold" font-size="177" text-anchor="start">10</text>
<!-- Text -->
<text xml:space="preserve" x="1651" y="2344" fill="#41ac33"  font-family="Times" font-style="normal" font-weight="bold" font-size="177" text-anchor="start">31</text>
<!-- Text -->
<text xml:space="preserve" x="3100" y="3465" fill="#41ac33"  font-family="Times" font-style="normal" font-weight="bold" font-size="177" text-anchor="start">15</text>
<!-- Text -->
<text xml:space="preserve" x="3590" y="3707" fill="#41ac33"  font-family="Times" font-style="normal" font-weight="bold" font-size="177" text-anchor="start">14</text>
<!-- Text -->
<text xml:space="preserve" x="3832" y="3354" fill="#41ac33"  font-family="Times" font-style="normal" font-weight="bold" font-size="177" text-anchor="start">13</text>
<!-- Text -->
<text xml:space="preserve" x="3608" y="2954" fill="#41ac33"  font-family="Times" font-style="normal" font-weight="bold" font-size="177" text-anchor="start">29</text>
<!-- Text -->
<text xml:space="preserve" x="4264" y="2744" fill="#41ac33"  font-family="Times" font-style="normal" font-weight="bold" font-size="177" text-anchor="start">28</text>
<!-- Text -->
<text xml:space="preserve" x="4420" y="2320" fill="#41ac33"  font-family="Times" font-style="normal" font-weight="bold" font-size="177" text-anchor="start">27</text>
<!-- Text -->
<text xml:space="preserve" x="4067" y="2124" fill="#41ac33"  font-family="Times" font-style="normal" font-weight="bold" font-size="177" text-anchor="start">11</text>
<!-- Text -->
<text xml:space="preserve" x="3807" y="1964" fill="#41ac33"  font-family="Times" font-style="normal" font-weight="bold" font-size="177" text-anchor="start">25</text>
<!-- Text -->
<text xml:space="preserve" x="4169" y="1697" fill="#41ac33"  font-family="Times" font-style="normal" font-weight="bold" font-size="177" text-anchor="start">26</text>
<!-- Circle -->
<circle cx="-3304" cy="2239" r="178"
 style="fill:#ffffff;stroke-dasharray:41 41;stroke:#000000;stroke-width:8;"/>
<!-- Line -->
<polyline points="566,2691
812,2852
" style="stroke:#9f9f9f;stroke-width:8;
stroke-linejoin:miter; stroke-linecap:butt;
"/>
<!-- Line -->
<polyline points="1847,2424
1791,2691
" style="stroke:#9f9f9f;stroke-width:8;
stroke-linejoin:miter; stroke-linecap:butt;
"/>
<!-- Line -->
<polyline points="1179,3429
1017,3471
" style="stroke:#9f9f9f;stroke-width:8;
stroke-linejoin:miter; stroke-linecap:butt;
"/>
<!-- Line -->
<polyline points="1819,826
1897,987
" style="stroke:#9f9f9f;stroke-width:8;
stroke-linejoin:miter; stroke-linecap:butt;
"/>
<!-- Line -->
<polyline points="2389,1255
2586,1501
" style="stroke:#9f9f9f;stroke-width:8;
stroke-linejoin:miter; stroke-linecap:butt;
"/>
<!-- Line -->
<polyline points="742,952
742,987
742,1022
" style="stroke:#9f9f9f;stroke-width:8;
stroke-linejoin:miter; stroke-linecap:butt;
"/>
<!-- Line -->
<polyline points="81,2226
116,2240
137,2276
173,2290
" style="stroke:#9f9f9f;stroke-width:8;
stroke-linejoin:miter; stroke-linecap:butt;
"/>
<!-- Line -->
<polyline points="2375,2677
2488,2740
" style="stroke:#9f9f9f;stroke-width:8;
stroke-linejoin:miter; stroke-linecap:butt;
"/>
<!-- Line -->
<polyline points="2670,1952
2846,1972
" style="stroke:#9f9f9f;stroke-width:8;
stroke-linejoin:miter; stroke-linecap:butt;
"/>
<!-- Line -->
<polyline points="3800,1674
4048,1692
" style="stroke:#9f9f9f;stroke-width:8;
stroke-linejoin:miter; stroke-linecap:butt;
"/>
<!-- Line -->
<polyline points="4791,2897
4797,3152
" style="stroke:#9f9f9f;stroke-width:8;
stroke-linejoin:miter; stroke-linecap:butt;
"/>
<!-- Line -->
<polyline points="3672,3444
3908,3499
" style="stroke:#9f9f9f;stroke-width:8;
stroke-linejoin:miter; stroke-linecap:butt;
"/>
<!-- Line -->
<polyline points="4408,3488
4504,3648
" style="stroke:#9f9f9f;stroke-width:8;
stroke-linejoin:miter; stroke-linecap:butt;
"/>
<!-- Line -->
<polyline points="4840,2118
4975,2028
" style="stroke:#9f9f9f;stroke-width:8;
stroke-linejoin:miter; stroke-linecap:butt;
"/>
<!-- Line -->
<polyline points="2292,3218
2426,3218
" style="stroke:#9f9f9f;stroke-width:8;
stroke-linejoin:miter; stroke-linecap:butt;
"/>
<!-- Line -->
<polyline points="4045,2232
4240,2283
" style="stroke:#9f9f9f;stroke-width:8;
stroke-linejoin:miter; stroke-linecap:butt;
"/>
<!-- Line -->
<polyline points="1874,2706
2184,2716
" style="stroke:#9f9f9f;stroke-width:8;
stroke-linejoin:miter; stroke-linecap:butt;
"/>
<!-- Line -->
<polyline points="4686,2361
4533,2661
" style="stroke:#9f9f9f;stroke-width:8;
stroke-linejoin:miter; stroke-linecap:butt;
"/>
<!-- Line -->
<polyline points="3317,2980
3660,3044
" style="stroke:#9f9f9f;stroke-width:8;
stroke-linejoin:miter; stroke-linecap:butt;
"/>
<!-- Line -->
<polyline points="999,1583
1210,1525
" style="stroke:#9f9f9f;stroke-width:8;
stroke-linejoin:miter; stroke-linecap:butt;
"/>
<!-- Line -->
<polyline points="1253,1450
1112,1732
" style="stroke:#9f9f9f;stroke-width:8;
stroke-linejoin:miter; stroke-linecap:butt;
"/>
<!-- Line -->
<polyline points="2149,2643
3390,2900
" style="stroke:#0000ff;stroke-width:32;
stroke-linejoin:miter; stroke-linecap:butt;
"/>
<!-- Line -->
<polyline points="2524,1486
3816,1683
" style="stroke:#0000ff;stroke-width:32;
stroke-linejoin:miter; stroke-linecap:butt;
"/>
<!-- Line -->
<polyline points="-3639,1749
-2872,1028
" style="stroke:#000000;stroke-width:48;
stroke-linejoin:miter; stroke-linecap:butt;
"/>
<!-- Text -->
<text xml:space="preserve" x="-3436" y="1363" fill="#000000"  font-family="Times" font-style="normal" font-weight="normal" font-size="252" text-anchor="start">e</text>
<!-- Text -->
<text xml:space="preserve" x="-3445" y="2339" fill="#000000"  font-family="Times" font-style="normal" font-weight="normal" font-size="252" text-anchor="start">f2</text>
<!-- Circle -->
<circle cx="1997" cy="1605" r="67"
 style="fill:#5d5d5d;stroke:#5d5d5d;stroke-width:0;"/>
<!-- Circle -->
<circle cx="1921" cy="1870" r="67"
 style="fill:#5d5d5d;stroke:#5d5d5d;stroke-width:0;"/>
<!-- Circle -->
<circle cx="2166" cy="1822" r="67"
 style="fill:#5d5d5d;stroke:#5d5d5d;stroke-width:0;"/>
<!-- Circle -->
<circle cx="1872" cy="3613" r="67"
 style="fill:#5d5d5d;stroke:#5d5d5d;stroke-width:0;"/>
<!-- Circle -->
<circle cx="1984" cy="3729" r="67"
 style="fill:#5d5d5d;stroke:#5d5d5d;stroke-width:0;"/>
<!-- Circle -->
<circle cx="2142" cy="3589" r="67"
 style="fill:#5d5d5d;stroke:#5d5d5d;stroke-width:0;"/>
<!-- Circle -->
<circle cx="2572" cy="2848" r="67"
 style="fill:#5d5d5d;stroke:#5d5d5d;stroke-width:0;"/>
<!-- Circle -->
<circle cx="2654" cy="2612" r="67"
 style="fill:#5d5d5d;stroke:#5d5d5d;stroke-width:0;"/>
<!-- Circle -->
<circle cx="2793" cy="2708" r="67"
 style="fill:#5d5d5d;stroke:#5d5d5d;stroke-width:0;"/>
<!-- Circle -->
<circle cx="3341" cy="3849" r="67"
 style="fill:#5d5d5d;stroke:#5d5d5d;stroke-width:0;"/>
<!-- Circle -->
<circle cx="3423" cy="2068" r="67"
 style="fill:#5d5d5d;stroke:#5d5d5d;stroke-width:0;"/>
<!-- Circle -->
<circle cx="4078" cy="1350" r="67"
 style="fill:#5d5d5d;stroke:#5d5d5d;stroke-width:0;"/>
<!-- Circle -->
<circle cx="4165" cy="3143" r="67"
 style="fill:#5d5d5d;stroke:#5d5d5d;stroke-width:0;"/>
<!-- Circle -->
<circle cx="4160" cy="2944" r="67"
 style="fill:#5d5d5d;stroke:#5d5d5d;stroke-width:0;"/>
<!-- Circle -->
<circle cx="3992" cy="2987" r="67"
 style="fill:#5d5d5d;stroke:#5d5d5d;stroke-width:0;"/>
<!-- Circle -->
<circle cx="2860" cy="1195" r="67"
 style="fill:#5d5d5d;stroke:#5d5d5d;stroke-width:0;"/>
<!-- Circle -->
<circle cx="2788" cy="1076" r="67"
 style="fill:#5d5d5d;stroke:#5d5d5d;stroke-width:0;"/>
<!-- Circle -->
<circle cx="2706" cy="950" r="67"
 style="fill:#5d5d5d;stroke:#5d5d5d;stroke-width:0;"/>
<!-- Circle -->
<circle cx="1218" cy="864" r="67"
 style="fill:#5d5d5d;stroke:#5d5d5d;stroke-width:0;"/>
<!-- Circle -->
<circle cx="1117" cy="752" r="67"
 style="fill:#5d5d5d;stroke:#5d5d5d;stroke-width:0;"/>
<!-- Circle -->
<circle cx="1020" cy="912" r="67"
 style="fill:#5d5d5d;stroke:#5d5d5d;stroke-width:0;"/>
<!-- Circle -->
<circle cx="240" cy="1292" r="67"
 style="fill:#5d5d5d;stroke:#5d5d5d;stroke-width:0;"/>
<!-- Circle -->
<circle cx="62" cy="1413" r="67"
 style="fill:#5d5d5d;stroke:#5d5d5d;stroke-width:0;"/>
<!-- Circle -->
<circle cx="154" cy="1556" r="67"
 style="fill:#5d5d5d;stroke:#5d5d5d;stroke-width:0;"/>
<!-- Circle -->
<circle cx="1040" cy="2356" r="67"
 style="fill:#5d5d5d;stroke:#5d5d5d;stroke-width:0;"/>
<!-- Circle -->
<circle cx="1213" cy="2327" r="67"
 style="fill:#5d5d5d;stroke:#5d5d5d;stroke-width:0;"/>
<!-- Circle -->
<circle cx="1165" cy="2506" r="67"
 style="fill:#5d5d5d;stroke:#5d5d5d;stroke-width:0;"/>
<!-- Circle -->
<circle cx="169" cy="3079" r="67"
 style="fill:#5d5d5d;stroke:#5d5d5d;stroke-width:0;"/>
<!-- Circle -->
<circle cx="226" cy="3204" r="67"
 style="fill:#5d5d5d;stroke:#5d5d5d;stroke-width:0;"/>
<!-- Circle -->
<circle cx="351" cy="3271" r="67"
 style="fill:#5d5d5d;stroke:#5d5d5d;stroke-width:0;"/>
<!-- Circle -->
<circle cx="3704" cy="2007" r="67"
 style="fill:#5d5d5d;stroke:#5d5d5d;stroke-width:0;"/>
<!-- Circle -->
<circle cx="3620" cy="2171" r="67"
 style="fill:#5d5d5d;stroke:#5d5d5d;stroke-width:0;"/>
<!-- Circle -->
<circle cx="3673" cy="4029" r="67"
 style="fill:#5d5d5d;stroke:#5d5d5d;stroke-width:0;"/>
<!-- Circle -->
<circle cx="3513" cy="3953" r="67"
 style="fill:#5d5d5d;stroke:#5d5d5d;stroke-width:0;"/>
<!-- Circle -->
<circle cx="4350" cy="1472" r="67"
 style="fill:#5d5d5d;stroke:#5d5d5d;stroke-width:0;"/>
<!-- Circle -->
<circle cx="4359" cy="1310" r="67"
 style="fill:#5d5d5d;stroke:#5d5d5d;stroke-width:0;"/>
<!-- Circle -->
<circle cx="5657" cy="2841" r="67"
 style="fill:#5d5d5d;stroke:#5d5d5d;stroke-width:0;"/>
<!-- Circle -->
<circle cx="5595" cy="2928" r="67"
 style="fill:#5d5d5d;stroke:#5d5d5d;stroke-width:0;"/>
<!-- Circle -->
<circle cx="5651" cy="3098" r="67"
 style="fill:#5d5d5d;stroke:#5d5d5d;stroke-width:0;"/>
<!-- Circle -->
<circle cx="5559" cy="3022" r="67"
 style="fill:#5d5d5d;stroke:#5d5d5d;stroke-width:0;"/>
</g>
</svg>
