/* XPM */
static const char *computer_xpm[] = {
/* width height ncolors chars_per_pixel */
"32 32 11 1",
/* colors */
"` c #000000",
"a c #000080",
"b c #0000FF",
"c c #FFFFFF",
"d c #00FF00",
"e c #00FFFF",
"f c #BBBBBB",
"g c #008000",
"h c #008080",
"i c None",
"j c #777777",
/* pixels */
"iiiiiiiiijjjjjjjjjjjjjjjjjjiiiii",
"iiiiiiiijffffffffffffffffcj`iiii",
"iiiiiiijcccccccccccccccccjj`iiii",
"iiiiiijcfffffffffffffffffjj`iiii",
"iiiiiijcfjjjjjjjjjjjjjjcfjj`iiii",
"iiiiiijcf`````````````jcfjj`iiii",
"iiiiiijcf`hhhhhhhhhhhhjcfjj`iiii",
"iiiiiijcf`he``````hhhhjcfjj`iiii",
"iiiiiijcf`hejcccc`hhhhjcfjj`iiii",
"iiiiiijcf`hhjcabbbb`hhjcfjj`iiii",
"iiiiiijcf`hhjcjcccc`hhjcfjj`iiii",
"iiiiiijcf`hh``jcccc`hhjcfjj`iiii",
"iiiiiijcf`hhhhjcccc`hhjcfjj`iiii",
"iiiiiijcf`hhhh``````hhjcfjj`iiii",
"iiiiiijcfjjjjjjjjjjjjjjcfjj`iiii",
"iiiiiijcfcccccccccccccccfjj`iiii",
"iiiiiijcfffffffffffffffffjj`jjii",
"iiiiiijjjjjjjjjjjjjjjjjjjj`jjf`i",
"iiiiii````````````````````jjfj`i",
"iiiijjjjjjjjjjjjjjjjjjjjjjjfjj`i",
"iiijcccccccccccccccccccccccjjj`i",
"iiijcffffffffffffffffffffffjjj`i",
"iiijcffffffffffjjjjjjjjjjffjjj`i",
"iiijcffddffffff``````````ffjjj`i",
"iiijcffggffffffffffffjfffffjjj`i",
"iiijcffffffffffffffffffffffjjj`i",
"iiijjj`cj`cj`cj`cj`cj`cj`c`jj`ii",
"iijcj`cj`cj`cj`cj`cj`cj`cjj``iii",
"ijcj`jj`jj`jj`jj`jj`jj`jjjj`iiii",
"jcccccccccccccccccccccccfj`iiiii",
"jfffffffffffffffffffffffj`iiiiii",
"i````````````````````````iiiiiii"
};
