/* XPM */
static const char * continue_xpm[] = {
"32 32 6 1",
" 	c None",
".	c #000000",
"+	c #FFFFFF",
"@	c #999999",
"#	c #CCCCCC",
"$	c #000099",
"                                ",
"                                ",
"                                ",
"                                ",
" .............................. ",
".+++++++++++++++++++++++++++++@.",
".+############################@.",
".+#@@@@@@@@@@@@@@@@@@@@@@@@@@#@.",
".+#@$$$$$$$$$$$$$$$$$$$$$$$$+#@.",
".+#@$$$$$$$$$$$$$$$$$$$$$$$$+#@.",
".+#@$$$$$$$$$$$$$$$$$$$$$$$$+#@.",
".+#@$$$$$$$$$$$$$$$$$$$$$$$$+#@.",
".+#@$$$+++.$$$$$$$$$$$$+.$$$+#@.",
".+#@$$+.$$+.$$$$$$$$$$$+.$$$+#@.",
".+#@$$+.$$$$$++.$+++.$+++.$$+#@.",
".+#@$$+.$$$$+.$+.+.$+.$+.$$$+#@.",
".+#@$$+.$$$$+.$+.+.$+.$+.$$$+#@.",
".+#@$$+.$$+.+.$+.+.$+.$+.+.$+#@.",
".+#@$$$+++.$$++.$+.$+.$$+.$$+#@.",
".+#@$$$$$$$$$$$$$$$$$$$$$$$$+#@.",
".+#@$$$$$$$$$$$$$$$$$$$$$$$$+#@.",
".+#@$$$$$$$$$$$$$$$$$$$$$$$$+#@.",
".+#@$$$$$$$$$$$$$$$$$$$$$$$$+#@.",
".+#@$$$$$$$$$$$$$$$$$$$$$$$$+#@.",
".+#@+++++++++++++++++++++++++#@.",
".+############################@.",
".+@@@@@@@@@@@@@@@@@@@@@@@@@@@@@.",
" .............................. ",
"                                ",
"                                ",
"                                ",
"                                "};
