/* XPM */
static const char *flag_xpm[] = {
/* width height ncolors chars_per_pixel */
"32 32 5 1",
/* colors */
"` c #000000",
"a c #999999",
"b c #00FFFF",
"c c None",
"d c #FFFFFF",
/* pixels */
"cccccccccccccccccccccccccccccccc",
"ccccccccccccc````ccccccccccccccc",
"cccccccccccc`bbbb``````ccccccccc",
"ccccccccccc`bbbba`a`bbb`cccccccc",
"cccccccccc`a`a`a`a`bbbbb`ccccccc",
"ccccccccc`a`a`bbbbb`bbb`a`cccccc",
"cccccccc`a`a`bbbba`a`a`a`a`ccccc",
"ccccccc`bbbba`a`a`a`abb`a`a``ccc",
"cccccc`bbbba`a`bbb`abbbb`a`d`ccc",
"ccccc`a`a`a`a`bbbbb`bbbbb`d`cccc",
"cccc`a`a`bbbba`bbb`a`bbb`d`ccccc",
"ccccc```bbbba`a`a`a`a`b`d`cccccc",
"cccccccc`````a`abb`a`a`d`ccccccc",
"ccccccccccccc`abbbb`a`d`cccccccc",
"cccccccccccccc`bbbbb`d`ccccccccc",
"ccccccccccccccc`bbb`d`cccccccccc",
"ccccccccccccccc``b`d`ccccccccccc",
"cccccccccccccccc``d`cccccccccccc",
"cccccccccccccccc`d`ccccccccccccc",
"ccccccccccccccc`d`cccccccccccccc",
"cccccccccccccc`d`ccccccccccccccc",
"ccccccccccccc`d`cccccccccccccccc",
"cccccccccccc`d`ccccccccccccccccc",
"ccccccccccc`d`cccccccccccccccccc",
"cccccccccc`d`ccccccccccccccccccc",
"ccccccccc`d`cccccccccccccccccccc",
"cccccccc`d`ccccccccccccccccccccc",
"ccccccc`d`cccccccccccccccccccccc",
"cccccc`d`ccccccccccccccccccccccc",
"ccccc`d`cccccccccccccccccccccccc",
"cccccc`ccccccccccccccccccccccccc",
"cccccccccccccccccccccccccccccccc"
};
