/* XPM */
static const char *intersect_xpm[] = {
/* width height ncolors chars_per_pixel */
"32 32 8 1",
/* colors */
"` c #000000",
"a c #00FFFF",
"b c #00FF00",
"c c #CCCCCC",
"d c None",
"e c #FF00FF",
"f c #FF0000",
"g c #FFFF00",
/* pixels */
"dddddddddddddddd```ddddddddddddd",
"ddddddddddddddd`aaa``ddddddddddd",
"ddddddddddddddd`aaaaa``ddddddddd",
"dddddddddddddd`aaaaaaaa``ddddddd",
"dddddddddddddd`aaaaaaaaaa``ddddd",
"ddddddddddddd`aaaaaaaaaaaaa``ddd",
"dddddddd```````aaaaaaaaaa``ccddd",
"dddddd``gggg`bb``aaaaaa``ccccccd",
"ddddd`gggggg`bbbb`aaa``ccccccddd",
"dddd`gggggg`bbbbbb```ccccccddddd",
"ddd`ggggggg`bbbbb```cccccddddddd",
"dd`ggggggg`bbbb``ggg`ccddddddddd",
"dd`ggggggg`bb``ggggg`cdddddddddd",
"d`ggggggg`b``gggggggg`cddddddddd",
"d`ggggggg``ggg````````````````dd",
"d`gggggggggggg`ffffff`eeeeeee`dd",
"d`gggggggggggg`ffffff`eeeeeee`cd",
"d`gggggggggggg`ffffff`eeeeeee`cd",
"d`gggggggggggg`ffffff`eeeeeee`cd",
"d`gggggggggggg`ffffff`eeeeeee`cd",
"dd`ggggggggggg`fffff`eeeeeeee`cd",
"dd`ggggggggggg`fffff`eeeeeeee`cd",
"ddd`gggggggggg`ffff`eeeeeeeee`cd",
"dddd`ggggggggg`fff`eeeeeeeeee`cd",
"ddddd`gggggggg`ff`eeeeeeeeeee`cd",
"dddddd``gggggg```eeeeeeeeeeee`cd",
"dddddddc```````eeeeeeeeeeeeee`cd",
"ddddddddcccccc`eeeeeeeeeeeeee`cd",
"ddddddddddcccc`eeeeeeeeeeeeee`cd",
"dddddddddddddd````````````````cd",
"ddddddddddddddddcccccccccccccccd",
"dddddddddddddddddddddddddddddddd"
};
