/* XPM */
static const char *intersect2_xpm[] = {
/* width height ncolors chars_per_pixel */
"32 32 8 1",
/* colors */
"` c #000099",
"a c #FFFF00",
"b c #00FF00",
"c c #00FFFF",
"d c #999999",
"e c None",
"f c #FF0000",
"g c #FF00FF",
/* pixels */
"eeeeeeeeeeeeeeeeeeeeeeeeeeeeeeee",
"eeeeeeeeeeeeeeeeeeeeeeeeeeeeeeee",
"eeeeeeeeeeee`````eeeeeeeeeeeeeee",
"eeeeeeeeee``ccccc``eeeeeeeeeeeee",
"eeeeeeeee`ccccccccc`eeeeeeeeeeee",
"eeeeeeee`ccccccccccc`eeeeeeeeeee",
"eeeeeee`ccccccccccccc`eeeeeeeeee",
"eeeeeee`ccccccccccccc`deeeeeeeee",
"eeeeee`ccccccccccccccc`deeeeeeee",
"eeeeee`ccccccccccccccc`deeeeeeee",
"eeeeee`cccccccccc``````ddeeeeeee",
"eeeeee``````ccc``ggggg``deeeeeee",
"eeeee``bbbbb```ggggggg`f`eeeeeee",
"eeee`aa`bbbbb``gggggg`fff`eeeeee",
"eee`aaa`bbbb`ee`ggggg`ffff`eeeee",
"ee`aaaaa`bb`eeee`ggg`ffffff`eeee",
"ee`aaaaaa`b`eeee`gg`fffffff`deee",
"e`aaaaaaaa``eeeee``fffffffff`dee",
"e`aaaaaaaa`a``````ffffffffff`dee",
"e`aaaaaaaa`fafafa`ffffffffff`dde",
"e`aaaaaaaa`afafaf`ffffffffff`dde",
"e`aaaaaaaa`fafafa`ffffffffff`dde",
"ee`aaaaaaaa`fafa`ffffffffff`ddde",
"ee`aaaaaaaa`afaf`ffffffffff`ddde",
"eee`aaaaaaaa`af`ffffffffff`dddde",
"eeee`aaaaaaaa``ffffffffff`ddddee",
"eeeee``aaaaa```fffffffff`dddddee",
"eeeeeed`````ddd``fffff``dddddeee",
"eeeeeeedddddddddd`````ddddddeeee",
"eeeeeeeeedddddeedddddddddddeeeee",
"eeeeeeeeeeeeeeeeeedddddddeeeeeee",
"eeeeeeeeeeeeeeeeeeeeeeeeeeeeeeee"
};
