/* XPM */
static const char *lightning_xpm[] = {
/* width height ncolors chars_per_pixel */
"32 32 7 1",
/* colors */
"` c #000000",
"a c #FFFF99",
"b c #FFFF66",
"c c None",
"d c #FFFF00",
"e c #FF9900",
"f c #FFFFCC",
/* pixels */
"ccccccccccccccccccc`cccccccccccc",
"cccccccccccccccccc```ccccccccccc",
"ccccccccccccccccc``e```ccccccccc",
"cccccccccccccccc``eeee``cccccccc",
"ccccccccccccccc``eeeeee```cccccc",
"cccccccccccccc``eeeeeeeee```cccc",
"ccccccccccccc``eeeeeeeeeeee```cc",
"ccccccccccc```eeeeeeeeeeeeeee``c",
"cccccccccc``eeeeeeeeeeeeeeeee```",
"cccccccc```eeeeeeeeeeeeeee````cc",
"ccccccc``eeeeeeeeeeeeee````ccccc",
"cccccc`````eeeeeeeeee```cccccccc",
"cccccccccc````eeeeee``cccccccccc",
"ccccccccccccc``eeeeee``ccccccccc",
"ccccccccccc```eeeeeeee```ccccccc",
"cccccccccc```dedeeeeeeee```ccccc",
"cccccccc```ddddededede````cccccc",
"cccccc```dddddddddd````ccccccccc",
"cccc```ddddddddd````cccccccccccc",
"ccc``ddddddddd```ccccccccccccccc",
"cccc```dddd````ccccccccccccccccc",
"cccccc``dddd``cccccccccccccccccc",
"ccccccc```ddd``ccccccccccccccccc",
"ccccccccc``ddd``cccccccccccccccc",
"ccccccc```ddd````ccccccccccccccc",
"cccccc``bb````cccccccccccccccccc",
"cccc``ab```ccccccccccccccccccccc",
"ccc`fa```ccccccccccccccccccccccc",
"cc````cccccccccccccccccccccccccc",
"c``ccccccccccccccccccccccccccccc",
"cccccccccccccccccccccccccccccccc",
"cccccccccccccccccccccccccccccccc"
};
