/* XPM */
static const char *light_on_xpm[] = {
/* width height ncolors chars_per_pixel */
"32 32 5 1",
/* colors */
"` c #000000",
"a c #FFFF00",
"b c #FFFFFF",
"c c #CCCCCC",
"d c None",
/* pixels */
"ddaddd`cccccccccccccccccccc`dddd",
"dddadd````cccccccccccccc````ddda",
"ddddaddddd``cccccccccc``ddddddad",
"ddddaddddddd`cccccccc`ddddddddad",
"dddddaddddddd`cccccc`dd`dddddadd",
"ddddddadddddd`cccccc`d`dddddaddd",
"dadddddaddddd`cccccc````dddadddd",
"ddadddddadddd`cccccc```d`ddaddda",
"dddadddddaddd`cccccc`d`d`dadddad",
"dddadddddaddd````````dd`dadddadd",
"ddddadddddaddd`bbbb`ddddad`ddadd",
"dddddadddddadd`bbbb`dddda`ddaddd",
"ddddddadddddad`bbbb`dddadd`adddd",
"ddddddaddddddd`bbbb`ddddd`addddd",
"adddddbaddddd`bbbbbb`dddddaddddd",
"daadddddaddd`bbbbbbbb`dddadddddd",
"dddaddddddd`bbbbbbbbbb`dad`ddddd",
"ddddaadddd`bbbbbbbbbbbb`d`ddddaa",
"ddddddaddd`bbbbbbbbbbbb`dd`aaadd",
"ddddddddd`bbbbbbbbbbbbbb`aaddddd",
"ddddddddd`bbbbbbbbbbbbbb`d`ddddd",
"aaaaddddd`bbbbbbbbbbbbbb``dddddd",
"ddddaaadd`bbbbbbbbbbbbbb`d`ddddd",
"ddddddddd`bbbbbbbbbbbbbb`aaaaaaa",
"ddddaaaadd`bbbbbbbbbbbb`dd`ddddd",
"aaaadddddd`bbbbbbbbbbbb`d`dddddd",
"ddddddddddd`bbbbbbbbbb`ddd`ddddd",
"ddddddddaadd``bbbbbb``daa`dddddd",
"ddddddaadddddd``````dddddaaddddd",
"ddddaaddddaddadddadddaddd`daaddd",
"ddaadddddadddadddadddadddd`ddaad",
"aaddddddadddddaddaddddadd```ddda"
};
