/* XPM */
static const char *make_file_xpm[] = {
/* width height ncolors chars_per_pixel */
"32 32 6 1",
/* colors */
"` c #000000",
"a c None",
"b c #00FFFF",
"c c #D3B68E",
"d c #BEBEBE",
"e c #FFFBCF",
/* pixels */
"aaaa``````````````````aaaaaaaaaa",
"aaaa`eeeeeeeeeeeeeeee``aaaaaaaaa",
"aaaa`eeeeee```eeeeeee`c`aaaaaaaa",
"aaaa`eeee```a```eeeee`cc`aaaaaaa",
"aaaa`eeee`dd`dd`eeeee`ccc`aaaaaa",
"aaaa`eee``d```d``eeee`cccc`aaaaa",
"aaaa`eee`dd`dddd`eeee`ccccc`aaaa",
"aaaa`eee``dd`dd``eeee```````daaa",
"aaaa`eeee`ddddd````eeeccccc`daaa",
"aaaa`eeee```d````b`ee`ecccc`daaa",
"aaaa`eeeeee```b`bbb``b`eeee`daaa",
"aaaa`eeeeee`bbbbbbbbbb``eee`daaa",
"aaaa`eeeeeee`bbb```bbb`eeee`daaa",
"aaaa`eeeeeee`bb`b`e`bb`eeee`daaa",
"aaaa`eeeee``bb`b`eee`bb``ee`daaa",
"aaaa`eeeee`bbb``eeee`bbb`ee`daaa",
"aaaa`eeeee```b`b`eee`b```ee`daaa",
"aaaa`eeeeeee`bb`b`e`bb`eeee`daaa",
"aaaa`eeeeeee`bbb```bbb`eeee`daaa",
"aaaa`eeeeee`bbbbbbbbbbb`eee`daaa",
"aaaa`eeeeee``b``bb`````eeee`daaa",
"aaaa`eeee```d```bb`ee`eeeee`daaa",
"aaaa`eeee`dd`dd````eeeeeeee`daaa",
"aaaa`eee``d```d``eeeeeeeeee`daaa",
"aaaa`eee`dd`dddd`eeeeeeeeee`daaa",
"aaaa`eee``dd`dd``eeeeeeeeee`daaa",
"aaaa`eeee`ddddd`eeeeeeeeeee`daaa",
"aaaa`eeee```d```eeeeeeeeeee`daaa",
"aaaa`eeeeee```eeeeeeeeeeeee`daaa",
"aaaa`eeeeeeeeeeeeeeeeeeeeee`daaa",
"aaaa````````````````````````daaa",
"aaaaaddddddddddddddddddddddddaaa"
};
