/* XPM */
static const char *pen_xpm[] = {
/* width height ncolors chars_per_pixel */
"32 32 10 1",
/* colors */
"` c #000000",
"a c #999999",
"b c #00FFFF",
"c c #000099",
"d c #CCCCCC",
"e c None",
"f c #999900",
"g c #FFFFFF",
"h c #FFFF00",
"i c #0000FF",
/* pixels */
"eeeeeeeeeeeeeeeeeeeeeeeeeeeeeecb",
"eeeeeeeeeeeeeeeeeeeeeeeeeeeeecbb",
"eeeeeeeeeeeeeeeeeeeeeeeeeeeecbbg",
"eeeeeeeeeeeeeeeeeeeeeeeeeeecbbgb",
"eeeeeeeeeeeeeeeeeeeeeeeeee`bbgbb",
"eeeeeeeeeeeeeeeeeeeeeeeee`bbgbbb",
"eeeeeeeeeeeeeeeeeeeeeeee`bbgbbbc",
"eeeeeeeeeeeeeeeeeeeeeee`bbgbbbci",
"eeeeeeeeeeeeeeeeeeeeee`bbgbbbcic",
"eeeeeeeeeeeeeeeeeeeee`bbgbbbcici",
"eeeeeeeeeeeeeeeeeeee`bbgbbbcicic",
"eeeeeeeeeeeeeeeeeeee`bbbbbcicicc",
"eeeeeeeeeeeeeeeeeee``bbbbciciccc",
"eeeeeeeeeeeeeeeeee``g`bbcicicccc",
"eeeeeeeeeeeeeeeee``g````icicccce",
"eeeeeeeeeeeeeeeee`g``````iccccee",
"eeeeeeeeeeeeeeee`h````````cc`eee",
"eeeeeeeeeeeeeee`ghh`````````eeee",
"eeeeeeeeeeeeee`ghhgd``````eeeeee",
"eeeeeeeeeeeee`ghhgddf````eeeeeee",
"eeeeeeeeeeee`ghhgddfff``eeeeeeee",
"eeeeeeeeeee`ghhgddfff`eeeeeeeeee",
"eeeeeeeeee`ghhgddfff`eeeeeeeeeee",
"eeeeeeeee`ghhgddfff`eeeeeeeeeeee",
"eeeeeeee`ghhgddfff`eeeeeeeeeeeee",
"eeeeeee`gha```````eeeeeeeeeeeeee",
"eeeeee`g``eeeeeeeeeeeeeeeeeeeeee",
"eeeee```eeeeeeeeeeeeeeeeeeeeeeee",
"eeeeeeeeeeeeeeeeeeeeeeeeeeeeeeee",
"eeeeeeeeeeeeeeeeeeeeeeeeeeeeeeee",
"eeeeeeeeeeeeeeeeeeeeeeeeeeeeeeee",
"eeeeeeeeeeeeeeeeeeeeeeeeeeeeeeee"
};
