/* XPM */
static const char *pencils_xpm[] = {
/* width height ncolors chars_per_pixel */
"32 32 14 1",
/* colors */
"` c #000000",
"a c #777777",
"b c #00FF00",
"c c None",
"d c #008080",
"e c #FF00FF",
"f c #000080",
"g c #990099",
"h c #FFFFFF",
"i c #FFFF00",
"j c #008000",
"k c #808000",
"l c #BBBBBB",
"m c #0000FF",
/* pixels */
"cccc`ccccccccccccccccccccccccccc",
"ccc```cccccccccccccccccccccccccc",
"cc`hhh`cccccccccccc`cccccccccccc",
"c`hhhhl`cccccccccc```ccccccccccc",
"c````````cccccccc`hhl`cccccccccc",
"c`jbhbjj`ccccccc`hhhhl`ccccccccc",
"c`jbhbjj`ccc`ccc````````cccccccc",
"c`jbhbjj`cc```cc`fmdmff`cccccccc",
"c`jbhbjj`c`hhl`c`fmdmff`cccccccc",
"c`jbhbjj``hhhhl``fmdmff`cccccccc",
"c`jbhbjj`````````fmdmff`ccc`cccc",
"c`jbhbjj`kiiikk``fmdmff`cc```ccc",
"c`jbhbjj`kiiikk``fmdmff`c`hhl`cc",
"c`jbhbjj`kihikk``fmdmff``hhhhl`c",
"c`jbhbjj`kihikk``fmdmff````````c",
"c`jbhbjj`kihikk``fmdmff`geeegg`c",
"c`jbhbjj`kihikk``fmdmff`geeegg`c",
"c`jbhbjj`kihikk``fmdmff`geeegg`c",
"c`jbhbjj`kihikk``fmdmff`geeegg`c",
"c`jbhbjj`kihikk``fmdmff`geeegg`c",
"c`jbhbjj`kihikk``fmdmff`geeegg`c",
"c`jbhbjj`kihikk``fmdmff`geeegg`c",
"c`jbhbjj`kihikk``fmdmff`geeegg`c",
"c`jbhbjj`kiiikk``fmdmff`geeegg`c",
"c`jbhbjj`kiiikk``fmdmff`geeegg`c",
"c`jbbbjj`kiiikk``fmdmff`geeegg`c",
"c`jbbbjj`kiiikk``fmdmff`geeegg`c",
"c`jjjjjj`kkkkkk``ffffff`gggggg`c",
"c``````````````````````````````c",
"cccccccccccccccccccccccccccccccc",
"cccccccccccccccccccccccccccccccc",
"cccccccccccccccccccccccccccccccc"
};
