/* XPM */
static const char *puzzle_xpm[] = {
/* width height ncolors chars_per_pixel */
"32 32 6 1",
/* colors */
"` c #000000",
"a c #0000FF",
"b c #FFFF00",
"c c #00FF00",
"d c #999999",
"e c #FF0000",
/* pixels */
"````````````````````````````````",
"`eeeeeeeeeeeeeeee`ccccccccccccc`",
"`eeeeeeeeeeeeeeee`ccccccccccccc`",
"`eeeeeeeeeeeeeeee`ccccccccccccc`",
"`eeeeeeeeeeee`````ccccccccccccc`",
"`eeeeeeeeeee`cccccccccccccccccc`",
"`eeeeeeeeeee`cccccccccccccccccc`",
"`eeeeeeeeeee`cccccccccccccccccc`",
"`eeeeeeeeeee`ccddcccccccccccccc`",
"`eeeeeeeeeeedcdee`ccccccccccccc`",
"`eeeeeeeeeeee``ee`ccccccccccccc`",
"`eeeeeeeeeeeeeeee`ccccccccccccc`",
"`eeeeeeeeeeeeeeee````````cccc```",
"`eeeeeeeeeeeeeeee`aaaaaa`ccc`aa`",
"`eeeeeeeeeeeeeeee`aaaaaa`ccc`aa`",
"`eeeeeeeeeeeeeeee`aaaaa`ccccc`a`",
"``````eeeee```````aaaaa`ccccc`a`",
"`bbbb`eeeee`bbb`aaaaaaaa`ccc``a`",
"`bbbd`eeeee`bbb`aaaaaaaaa```aaa`",
"`bbb`eeeeeeedbb`a`````aaaaaaaaa`",
"`bbb`eeeeeeedbb```bbbb`aaaaaaaa`",
"`bbbdeeeeee`bbb``bbbbbd`aaaaaaa`",
"`bbbbd`````bbbbbbbbbbbb`aaaaaaa`",
"`bbbbbbbbbbbbbbbbbbbbbb`aaaaaaa`",
"`bbbbbbbbbbbbbbbbbbbbbb`aaaaaaa`",
"`bbbbbbbbbbbbbbbbbbbbb`aaaaaaaa`",
"`bbbbbbbbbbb```bbbbbbddaaaaaaaa`",
"`bbbbbbbbbbb`aa```````aaaaaaaaa`",
"`bbbbbbbbbbb`aaaaaaaaaaaaaaaaaa`",
"`bbbbbbbbbbb`aaaaaaaaaaaaaaaaaa`",
"`bbbbbbbbbbb`aaaaaaaaaaaaaaaaaa`",
"````````````````````````````````"
};
