/* XPM */
static const char *scissors_xpm[] = {
/* width height ncolors chars_per_pixel */
"32 32 5 1",
/* colors */
"` c #000000",
"a c #999999",
"b c #CCCCCC",
"c c None",
"d c #FFFF00",
/* pixels */
"ccccccccccccc`````cccccccccccccc",
"cccccccccccc``ab`b`ccccccccccccc",
"cccccccccccc`abb`b`ccccccccccccc",
"cccccccccccc`abb`b`ccccccccccccc",
"cccccccccccc`abb`b`ccccccccccccc",
"cccccccccccc`abb`b`ccccccccccccc",
"cccccccccccc`abb`b`ccccccccccccc",
"cccccccccccc`abb`b`ccccccccccccc",
"cccccccccccc`abb`b`ccccccccccccc",
"cccccccccccc`abb`b`ccccccccccccc",
"cccccccccccc`abb`b`ccccccccccccc",
"cccccccccccc`abb`b`ccccccccccccc",
"cccccccccccc`abb`b`ccccccccccccc",
"cccccccccccc`abb```ccccccccccccc",
"cccccccccccc`abbb``ccccccccccccc",
"cccccccccccc`abbbb`ccccccccccccc",
"cccccccccccc`ab`````cccccccccccc",
"ccccccccccc``ab`a`b`cccccccccccc",
"ccccccccc```d`a```b```cccccccccc",
"cccccccc``ddd`abb``dd``ccccccccc",
"cccccc``dddddd```dddddd``ccccccc",
"ccccc``ddddddd`ddddddddd``cccccc",
"ccccc`ddd````dd`dd````ddd`cccccc",
"cccc`dd```cc`dd`dd`ccc``dd`ccccc",
"cccc`dd`cccc`dd`dd`cccc`dd`ccccc",
"cccc`dd`cccc`dd`dd`cccc`dd`ccccc",
"cccc`dd`cccc`dd`dd`cccc`dd`ccccc",
"cccc`dd``ccc`dd`dd`ccc``dd`ccccc",
"ccccc`ddd````dd`dd`````dd`cccccc",
"ccccc``dddddddd`dddddddd``cccccc",
"ccccccc``ddddd````dddd``cccccccc",
"ccccccccc``````cc`````cccccccccc"
};
