/* XPM */
static const char *win95_xpm[] = {
/* width height ncolors chars_per_pixel */
"32 32 10 1",
/* colors */
"` c #000000",
"a c #000099",
"b c #0000FF",
"c c #FFFF00",
"d c #00FF00",
"e c #CC0000",
"f c #999900",
"g c #009900",
"h c None",
"i c #FF0000",
/* pixels */
"hhhhhhhhhhhhhhhhhhh````hhhhhhhhh",
"hhhhhhhhhhhhhhhhhh``````hhhhhhhh",
"hhhhhhhhhhhhhhhhh````````hhhhhhh",
"hhhhhhhhhhhhhhhh```ii`````hhhhhh",
"hhhhhhhhhhhhhhhh``iii``d```hhhhh",
"hhhhhhhhhhhhhh`h`iiii``dd```hhhh",
"hhhhhhhhhhhhh``hiiiii``ddg```hhh",
"hhhhhhhhhhhhh`hhiiiii``ddgg```hh",
"hhhhhhhhhhhhhh`hiiiii``ddggg```h",
"hhhhhhhhhhh`h``hiiiii``ddggg```h",
"h``hhhhhhh``h`hhiii````ddggg```h",
"hh`hhhhh`h`hhh`hi``````ddggg```h",
"hhhh``h``hheh``h```bb```dggg```h",
"heih``h`hheeh`hh`bbbb````ggg```h",
"heihhhhhehehhh`hbbbbb``c``gg```h",
"hhhhiiheehheh``hbbbbb``cc``g```h",
"heihiihehheeh`hhbbbbb``ccf`````h",
"heihhhhhehehhh`hbbbbb``ccff````h",
"hhhhiiheehh`h``hbbbbb``ccfff```h",
"h``hiihehh``h`hhbbbbb``ccfff```h",
"hh`hhhhh`h`hhh`hbb`````ccfff```h",
"hhhh``h``hhah``hb``````ccfff```h",
"habh``h`hhaah`hh```hh```cfff```h",
"habhhhhhahahhh`h``hhhh```fff```h",
"hhhhbbhaahhah``h`hhhhhh```ff```h",
"habhbbhahhaah`hhhhhhhhhh```f```h",
"habhhhhhahahhh`hhhhhhhhhh``````h",
"hhhhaahaahhhh``hhhhhhhhhhh`````h",
"h``haahahhh`h`hhhhhhhhhhhhh````h",
"hh`hhhhh`h``hhhhhhhhhhhhhhhh```h",
"hhhh``h``h`hhhhhhhhhhhhhhhhhh``h",
"hhhh``h`hhhhhhhhhhhhhhhhhhhhhhhh"
};
