/* XPM */
static const char *blocks_xpm[] = {
/* width height ncolors chars_per_pixel */
"32 32 15 1",
/* colors */
"` c #000000",
"a c #999999",
"b c #00004E",
"c c #CCCCFF",
"d c #FF9999",
"e c #990000",
"f c #CC6600",
"g c #FFCC00",
"h c None",
"i c #B20000",
"j c #000066",
"k c #9999FF",
"l c #FFFFFF",
"m c #FFFF00",
"n c #FF9900",
/* pixels */
"hhhhhhhhhhhhhhhhhhhhhhhhhhhhhhhh",
"hhhhhhhhhhhhhhh`hhhhhhhhhhhhhhhh",
"hhhhhhhhhhhhhh`m``hhhhhhhhhhhhhh",
"hhhhhhhhhhhhh`mmmm``hhhhhhhhhhhh",
"hhhhhhhhhhhh`mmmmmmm``hhhhhhhhhh",
"hhhhhhhhhhh`mmmmmmmmmm``hhhhhhhh",
"hhhhhhhhhh`mmmmmmmmmmmmn`hhhhhhh",
"hhhhhhhhh`mmmmmmmmmmmmnn`hhhhhhh",
"hhhhhhhhh`llmmmmmmmmmnnn`hhhhhhh",
"hhhhhhhhh`ggllmmmmmmnnnn`hhhhhhh",
"hhhhhhhhh`ggggllmmmnnnnn`hhhhhhh",
"hhhhhhh`h`ggggggllnnnnnn`hhhhhhh",
"hhhhhh`c``ggggggggnnnnnn`hhhhhhh",
"hhhhh`ccc`ggggggggnnnnnn``hhhhhh",
"hhhh`cccc`ggggggggnnnnnn`f``hhhh",
"hhh`ccccc`ggggggggnnnnnn`fff``hh",
"hh`cccccc`ggggggggnnnnn`fffffe`h",
"h`ccccccc``gggggggnnnn`fffffei`h",
"h`llccccccc``gggggnnn`fffddiei`h",
"h`kkllccccccbb`gggnn`fffddieii`h",
"h`kkkkllcccjjbb``gn`ddfddieiie`h",
"h`kkkkkklljjjbb`e``effllieiiei`h",
"h`kkkkkkkkjjjbb`eeefffffiieiie`h",
"h`kkkkkkkkjjjjb`eeffffffiieiie`h",
"h`kkkkkkkkjjjjb`efffffffiieiie`h",
"h`kkkkkkkkjjjjj`ffffffffiieiie`a",
"h`kkkkkkkkjjjjj`ffffffffiiiei`aa",
"h``kkkkkkkjjjj```fffffffiiie`aaa",
"hhh``kkkkkjjj`aaa``fffffiie`aaaa",
"hhhhh``kkkjj`aaaaaa``fffii`aaaah",
"hhhhhhh``kj`aaaaahhhh``fi`aaaahh",
"hhhhhhhhh``aaaaahhhhhhh``aaaahhh"
};
