/* XPM */
static const char *c_file_xpm[] = {
/* width height ncolors chars_per_pixel */
"32 32 6 1",
/* colors */
"` c #000000",
"a c None",
"b c #BEBEBE",
"c c #718292",
"d c #BEBEBE",
"e c #FFFFFF",
/* pixels */
"aaaa``````````````````aaaaaaaaaa",
"aaaa`eeeeeeeeeeeeeeee``aaaaaaaaa",
"aaaa`eeeeeeeeeeeeeeee`b`aaaaaaaa",
"aaaa`eeeeeeeeeeeeeeee`bb`aaaaaaa",
"aaaa`eeccccccccccccee`bbb`aaaaaa",
"aaaa`eeeeeeeeeeeeeeee`bbbb`aaaaa",
"aaaa`eeccccccccccccee`bbbbb`aaaa",
"aaaa`eeeeeeeeeeeeeeee```````daaa",
"aaaa`eeeeeecccccceeeeebbbbb`daaa",
"aaaa`eeeeeeeeeeeeeeeeeebbbb`daaa",
"aaaa`eeeeeecccccccceeeeeeee`daaa",
"aaaa`eeeeeeeeeeeeeeeeeeeeee`daaa",
"aaaa`eeeeeeeeeeccccccceeeee`daaa",
"aaaa`eeeeeeeeeeeeeeeeeeeeee`daaa",
"aaaa`eeeeeeeeeeccccccccceee`daaa",
"aaaa`eeeeeeeeeeeeeeeeeeeeee`daaa",
"aaaa`eeeeeeccccccccceeeeeee`daaa",
"aaaa`eeeeeeeeeeeeeeeeeeeeee`daaa",
"aaaa`eeeeeecccccccceeeeeeee`daaa",
"aaaa`eeeeeeeeeeeeeee````eee`daaa",
"aaaa`eeeeeeeeeecce````````e`daaa",
"aaaa`eeeeeeeeeeeee```ee```e`daaa",
"aaaa`eeccccccccce```eeeeeee`daaa",
"aaaa`eeeeeeeeeeee```eeeeeee`daaa",
"aaaa`eeeeeeccccce```eeeeeee`daaa",
"aaaa`eeeeeeeeeeee```eeeeeee`daaa",
"aaaa`eeeeeeccce``e```ee```e`daaa",
"aaaa`eeeeeeeeee``e````````e`daaa",
"aaaa`eeeeeeeeee``eee````eee`daaa",
"aaaa`eeeeeeeeeeeeeeeeeeeeee`daaa",
"aaaa````````````````````````daaa",
"aaaaaddddddddddddddddddddddddaaa"
};
