/* XPM */
static const char *clock_xpm[] = {
/* width height ncolors chars_per_pixel */
"32 32 6 1",
/* colors */
"` c #000000",
"a c #CCCCCC",
"b c #CC0000",
"c c None",
"d c #FF0000",
"e c #FFFFFF",
/* pixels */
"c``````````````````````````````c",
"`dddddddddddddddddddddddddddddb`",
"`dbbbbbbbbbbbbbbbbbbbbbbbbbbbdb`",
"`db``````````````````````````db`",
"`db`aaaaaaaaaaaaaaaaaaaaaaaabdb`",
"`db`aaaaaaaaaaae`aaaaaaaaaaabdb`",
"`db`aaaaaae`aaa``aaae`aaaaaabdb`",
"`db`aaaaaa``aaaaaaaa``aaaaaabdb`",
"`db`aaaaaaaaaaaaaaaaaaaaaaaabdb`",
"`db`aaaaaaaaaaaa`aaaaaaaaaaabdb`",
"`db`aae`aaaaaaaa`aaaaaaae`aabdb`",
"`db`aa``aaaaaaaa`aaaaaaa``aabdb`",
"`db`aaaaaaaaaaaa`aaaaaaaaaaabdb`",
"`db`aaaaaaaaaaaa`aaaaaaaaaaabdb`",
"`db`aaaaaaaaaaaa`a`aaaaaaaaabdb`",
"`db`ae`aaaaaaaaa``aaaaaaae`abdb`",
"`db`a``aaaaaaa`````````aa``abdb`",
"`db`aaaaaaaaaaa``aaaaaaaaaaabdb`",
"`db`aaaaaaaaaa`a`aaaaaaaaaaabdb`",
"`db`aaaaaaaaa`aa`aaaaaaaaaaabdb`",
"`db`aae`aaaaaaaaaaaaaaaae`aabdb`",
"`db`aa``aaaaaaaaaaaaaaaa``aabdb`",
"`db`aaaaaaaaaaaaaaaaaaaaaaaabdb`",
"`db`aaaaaaaaaaaaaaaaaaaaaaaabdb`",
"`db`aaaaaae`aaaaaaaae`aaaaaabdb`",
"`db`aaaaaa``aaae`aaa``aaaaaabdb`",
"`db`aaaaaaaaaaa``aaaaaaaaaaabdb`",
"`db`aaaaaaaaaaaaaaaaaaaaaaaabdb`",
"`db`bbbbbbbbbbbbbbbbbbbbbbbbbdb`",
"`dddddddddddddddddddddddddddddb`",
"`bbbbbbbbbbbbbbbbbbbbbbbbbbbbbb`",
"c``````````````````````````````c"
};
