/* XPM */
static const char *eye_xpm[] = {
/* width height ncolors chars_per_pixel */
"32 32 10 1",
/* colors */
"` c #000000",
"a c #999999",
"b c #0066CC",
"c c #000099",
"d c #CCCCCC",
"e c None",
"f c #FFFFFF",
"g c #339999",
"h c #BBBBBB",
"i c #0000FF",
/* pixels */
"eeeeeeeeeeeeeeeeeeeeeeeeeeeeeeee",
"eeeeeeeed```````````deeeeeeeeeee",
"eeeeeed````````````````deeeeeeee",
"eeeed````````````````````deeeeee",
"eed```````gdgddedddddg`````deeee",
"ed`````ggadgddedeeeeedddg```deee",
"d````gaadaadagdddeeeeeeeddg``dee",
"```ggdgdadaadaggddddeeeeeeddgccd",
"`ghgdgdaaahggaaagagaddeeeeeedddd",
"ghddadgadgadaaaaaaaa``ddeeeeeedd",
"hddgdgadaddddhdhdhddaa``deeeeeee",
"ddgdaddadag``````gaadda``deeeeee",
"dgdaddg``````````````ada``deeeee",
"ggdgdg````cccccccccc``gda``deeee",
"gdgag``ccggciiiiiibgcccgda``deee",
"dga```ccggciiiiiiifbggcc`aa``dee",
"ggg``ccggcbiii``icfi`gdgcgaa``ee",
"ga``ccgcacbii````fgicdddgc`g`d`e",
"ag`ccgcc`bcbi````iiicddddggcg`dd",
"``acddcdaabbii``iiiicddfdfggc``a",
"aad``ddddabcbiiiiiicddfdfddgc`ad",
"ahdg``ddddabcbbiiiccdfdffdac`ada",
"hdgggg`dfddabccccccdfffddac`adad",
"d``aadg```fdd`````dfddg``c`adadd",
"da```adddg``fddfddf```gaa`adadde",
"hdda```aadddg`````ggdda``adadded",
"dhdda`````adddddddddaa``adaddede",
"ededddaa``````aaaaaa``adaaddedee",
"eedededaa```````````adaaddeddede",
"eeedededdaa```````adaadddedeeeee",
"eeeeeeddeddadadaadaaddedededeeee",
"eeeeeeeededeededdeddeddededeeeee"
};
