/* XPM */
static const char *hand_xpm[] = {
/* width height ncolors chars_per_pixel */
"32 32 6 1",
/* colors */
"` c #000000",
"a c #999999",
"b c #990000",
"c c None",
"d c #FF0000",
"e c #FFFFFF",
/* pixels */
"cccccccccccccccc``cccccccccccccc",
"ccccccccccccc```ea```ccccccccccc",
"cccccccccccc`ea`ea`ea`cccccccccc",
"cccccccccccc`ea`ea`ea`cccccccccc",
"cccccccccccc`ea`ea`ea```cccccccc",
"cccccccccccc`ea`ea`ea`ea`ccccccc",
"cccccccccccc`ea`ea`ea`ea`ccccccc",
"cccccccccccc`ea`ea`ea`ea`ccccccc",
"cccccccccccc`ea`ea`ea`ea`ccccccc",
"ccccccc```cc`ee`ee`ea`ea`ccccccc",
"ccccccc`ea`c`eeeeeeee`ea`ccccccc",
"cccccccc`ea``eeeeeeeeeea`ccccccc",
"cccccccc`eea`aaeeeeeeeea`ccccccc",
"ccccccccc`eeeeaaeeeeeeea`ccccccc",
"ccccccccc`eeeeeaeeeeeeea`ccccccc",
"cccccccccc`eeeeaeeeeeeaa`ccccccc",
"cccccccccc`eeeeeeeeeeea`cccccccc",
"cccccccccc`eeeeeeeeeeea`cccccccc",
"ccccccccccc`eeeeeeeeeaa`cccccccc",
"ccccccccccc`eeeeeeeeea`ccccccccc",
"cccccccccccc`eeeeeeeaa`ccccccccc",
"ccccccccccccc`eeeeeea`cccccccccc",
"cccccccccccccc`eeeeaa`cccccccccc",
"cccccccccccccc`eeeeaa`cccccccccc",
"ccccccccccccc`````````cccccccccc",
"ccccccccccccc`dddddbbb`ccccccccc",
"ccccccccccccc`ddddbdbb`ccccccccc",
"ccccccccccccc`dddddbbb`ccccccccc",
"ccccccccccccc`ddddbdbb`ccccccccc",
"ccccccccccccc`dddddbbb`ccccccccc",
"ccccccccccccc`ddddbdbb`ccccccccc",
"cccccccccccccccccccccccccccccccc"
};
