/* XPM */
static const char *notebook_xpm[] = {
/* width height ncolors chars_per_pixel */
"32 32 5 1",
/* colors */
"` c #000000",
"a c None",
"b c #00FFFF",
"c c #BEBEBE",
"d c #86CFEB",
/* pixels */
"aaaaaaaaaaaaaaaaaaaaaaaaaaaaaaaa",
"aaaaaaaaaa``a``a``a``a``a``aaaaa",
"aaaaaaaaa`a``a``a``a``a``a````aa",
"aaaaaaaa`b`bb`bb`bb`bb`bb`bb``aa",
"aaaaaaaa`bbbbbbbbbbbbbbbbbbb``cc",
"aaaaaaa`bbbbbbbbbbbbbbbbbbb`a`cc",
"aaaaaaa`bbbbbbbbbbbbbbbbbbb`a`cc",
"aaaaaa`bbbbbbbbbbbbbbbbbbb`aa`cc",
"aaaaaa`bbbb```````````bbbb`dd`cc",
"aaaaa`bbbbbbbbbbbbbbbbbbb`aaa`cc",
"aaaaa`bbb```````````bbbbb`aaa`cc",
"aaaa`bbbbbbbbbbbbbbbbbbb`dddd`cc",
"aaaa`bbbbbbbbbbbbbbbbbbb`aaaa`cc",
"aaa`bbbbbbbbbbbbbbbbbbb`aaaaa`cc",
"aaa`bbbbbbbbbbbbbbbbbbb`ddddd`cc",
"aa`bbbbbbbbbbbbbbbbbbb`aaaaaa`cc",
"aa`bbbbbbbbbbbbbbbbbbb`aaaaaa`cc",
"a`bbbbbbbbbbbbbbbbbbb`ddddddd`cc",
"a`bbbbbbbbbbbbbbbbbbb`aaaaaaa`cc",
"`bbbbbbbbbbbbbbbbbbb`aaaaaaaa`cc",
"`bbbbbbbbbbbbbbbbbbb`dddddddd`cc",
"`bbbbbbbbbbbbbbbbb``aaaaaaaaa`cc",
"a`````````````````aaaaaaaaaaa`cc",
"aaaaaaaaa`ddddddddddddddddddd`cc",
"aaaaaaaaa`aaadaaaaaaaaaaaaaaa`cc",
"aaaaaaaaa`aaadaaaaaaaaaaaaaaa`cc",
"aaaaaaaaa`ddddddddddddddddddd`cc",
"aaaaaaaaa`aaadaaaaaaaaaaaaaaa`cc",
"aaaaaaaaa`aaadaaaaaaaaaaaaaaa`cc",
"aaaaaaaaaa```````````````````ccc",
"aaaaaaaaaaaccccccccccccccccccccc",
"aaaaaaaaaaaaccccccccccccccccccca"
};
