/* XPM */
static const char *pencil_xpm[] = {
/* width height ncolors chars_per_pixel */
"32 32 8 1",
/* colors */
"` c #000000",
"a c #999999",
"b c #CCCCCC",
"c c #CC0000",
"d c None",
"e c #999900",
"f c #FFFFFF",
"g c #FFFF00",
/* pixels */
"dddddddddddddddddddddegggggagege",
"ddddddddddddddddddddegggggagegeg",
"dddddddddddddddddddegggggagegege",
"ddddddddddddddddddegggggagegegeg",
"dddddddddddddddddegggggagegegega",
"ddddddddddddddddeggggeegegegegae",
"ddddddddddddddddgggbebgegegegaec",
"dddddddddddddddebebfbeegegegaece",
"ddddddddddddddebfbfbfegegegaecec",
"ddddddddddddddbfbfbfbeegegeecec`",
"dddddddddddddbfbfbfbeegeg`ccec`d",
"ddddddddddddbfbfbfbfege``acec`dd",
"dddddddddddddbfbfbfb```babec`ddd",
"ddddddddddddbfbfbfb`bababec`dddd",
"dddddddddddbfbfbfb`bababac`ddddd",
"ddddddddddbfbfbfb`bababaa`dddddd",
"dddddddddbfbfbfb`bababaa`ddddddd",
"ddddddddd`bfbfb`bababa``dddddddd",
"dddddddd```bfb`babab``dddddddddd",
"dddddddd``fab`babab`dddddddddddd",
"ddddddd``faa`baba``ddddddddddddd",
"dddddd``faa```ba`ddddddddddddddd",
"dddddd`aaa``````dddddddddddddddd",
"ddddd``ba`````dddddddddddddddddd",
"ddddd`ba````dddddddddddddddddddd",
"dddd`ba````ddddddddddddddddddddd",
"ddd`ba```ddddddddddddddddddddddd",
"ddd````ddddddddddddddddddddddddd",
"dd````dddddddddddddddddddddddddd",
"d```dddddddddddddddddddddddddddd",
"d``aaaaaaaaaaaaaaaaaaaaaaaaaaaaa",
"`aaaaaaaaaaaaaaaaaaaaaaaaaaaaaaa"
};
