/* XPM */
static const char *ruler_xpm[] = {
/* width height ncolors chars_per_pixel */
"32 32 5 1",
/* colors */
"` c #000000",
"a c #FFFF00",
"b c #999900",
"c c #999999",
"d c None",
/* pixels */
"dddddddd````````cddddddddddddddd",
"dddddddd`aaaaaa`cddddddddddddddd",
"dddddddd`aaaaa``cddddddddddddddd",
"dddddddd`aaaaaa`cddddddddddddddd",
"dddddddd`aaaa```cddddddddddddddd",
"dddddddd`aaaaaa`cddddddddddddddd",
"dddddddd`aaaaa``cddddddddddddddd",
"dddddddd`aaaaaa`cddddddddddddddd",
"````````````````````````````````",
"`a`a`a`a`a`a`a`a`a`a`a`a`a`a`a`a",
"`aaa`aaa`aaa`aaa`aaa`aaa`aaa`aaa",
"`aaaaaaaaaaaaaaa`aaaaaaa`aaaaaaa",
"`aaaaaaaaaaaaaaaaaaaaaaaaaaaaaaa",
"`aaaaaaaaaaaaaaaaaaaaaaaaaaaaaaa",
"`aaaaaaaaaaaaaaaaaaaaaaaaaaaaaaa",
"`aaaaaaaaaaaaaaaaaaaaaaaaaaaaaaa",
"````````````````````````````````",
"cccccccc`bbbbbb`cccccccccccccccc",
"dddddddd`aaaaa``cddddddddddddddd",
"dddddddd`aaaaaa`cddddddddddddddd",
"dddddddd`aaa````cddddddddddddddd",
"dddddddd`aaaaaa`cddddddddddddddd",
"dddddddd`aaaaa``cddddddddddddddd",
"dddddddd`aaaaaa`cddddddddddddddd",
"dddddddd`aaaa```cddddddddddddddd",
"dddddddd`aaaaaa`cddddddddddddddd",
"dddddddd`aaaaa``cddddddddddddddd",
"dddddddd`aaaaaa`cddddddddddddddd",
"dddddddd`aaa````cddddddddddddddd",
"dddddddd`aaaaaa`cddddddddddddddd",
"dddddddd`aaaaa``cddddddddddddddd",
"dddddddd`aaaaaa`cddddddddddddddd"
};
