/* XPM */
static const char *small_earth_xpm[] = {
/* width height ncolors chars_per_pixel */
"32 32 8 1",
/* colors */
"` c #000000",
"a c #999999",
"b c #00FFFF",
"c c #00FF00",
"d c #009900",
"e c #000099",
"f c None",
"g c #339999",
/* pixels */
"ffffffffffffffffffffffffffffffff",
"ffffffffffffffffffffffffffffffff",
"ffffffffffffffffffffffffffffffff",
"ffffffffffffffffffffffffffffffff",
"ffffffffffffcccccccbffffffffffff",
"ffffffffffgcgcccccgcbbffffffffff",
"ffffffffggcgcccccccgcgbfffffffff",
"fffffffgbgccccccccccccgbffffffff",
"ffffffgbgccccccccccccgbggfffffff",
"ffffffabgccccccccccccgbgbfffffff",
"fffffgbbgccccccggggccggbggffffff",
"fffffabbbgccccgbbbbgggbgbgffffff",
"ffffabbbbbggggcgbbbbbbgbgggfffff",
"ffffgbbbbbbbbbggcgggggbgbggfffff",
"ffffgbbbbbbbbbbggcgcdggbgggfffff",
"ffffgbbbbbbbbbggcgcdcdggggefffff",
"ffffgbbbbbbbbbgcdcdcdcdcgegfffff",
"ffffgbbbbbbbbbbgcdcdcdcdggefffff",
"ffffagbbbbbbbbbgggdcdcddd`afffff",
"fffffgbgbbbbbbbbbggdcddddeffffff",
"fffffagbgbbbbbbbgbgcdddd`effffff",
"ffffffggbgbgbgbgbggdddd`gaffffff",
"ffffffaggggbgbgbgggddd`gefffffff",
"fffffffeegggggggggddd`geffffffff",
"ffffffffeegegegegdd``gefffffffff",
"fffffffffaeeeeee```eeaffffffffff",
"fffffffffffaeeeeeeeaffffffffffff",
"ffffffffffffffffffffffffffffffff",
"ffffffffffffffffffffffffffffffff",
"ffffffffffffffffffffffffffffffff",
"ffffffffffffffffffffffffffffffff",
"ffffffffffffffffffffffffffffffff"
};
