/* XPM */
static const char *tex_file_xpm[] = {
/* width height ncolors chars_per_pixel */
"32 32 5 1",
/* colors */
"` c #000000",
"a c None",
"b c #D3B68E",
"c c #BEBEBE",
"d c #FFFBCF",
/* pixels */
"aaa````````````````````aaaaaaaaa",
"aaa`dddddddddddddddddd``aaaaaaaa",
"aaa`dddddddddddddddddd`b`aaaaaaa",
"aaa`dddddddddddddddddd`bb`aaaaaa",
"aaa`dddddddddddddddddd`bbb`aaaaa",
"aaa`dddddddddddddddddd`bbbb`aaaa",
"aaa`dddddddddddddddddd``````caaa",
"aaa`dddddddddddddddddddbbbb`caaa",
"aaa`ddddddddddddddddddddbbb`caaa",
"aaa`ddddddddddddddddddddddd`caaa",
"aaa`ddddddddddddddddddddddd`caaa",
"aaa`d```````dddddd````````d`caaa",
"aaa`d`dd`dd`ddddddd``dd``dd`caaa",
"aaa`d`dd`dd`dddddddd`dd`ddd`caaa",
"aaa`dddd`ddddddddddd`dd`ddd`caaa",
"aaa`dddd`dd```````ddd``dddd`caaa",
"aaa`dddd`ddd`dddd`ddd``dddd`caaa",
"aaa`dddd`ddd`ddddddd`dd`ddd`caaa",
"aaa`dddd`ddd`ddd`ddd`dd`ddd`caaa",
"aaa`dddd`ddd`````dd``dd``dd`caaa",
"aaa`ddd```dd`ddd`d````````d`caaa",
"aaa`dddddddd`dddddddddddddd`caaa",
"aaa`dddddddd`dddddddddddddd`caaa",
"aaa`dddddddd`dddd`ddddddddd`caaa",
"aaa`ddddddd```````ddddddddd`caaa",
"aaa`ddddddddddddddddddddddd`caaa",
"aaa`ddddddddddddddddddddddd`caaa",
"aaa`ddddddddddddddddddddddd`caaa",
"aaa`ddddddddddddddddddddddd`caaa",
"aaa`ddddddddddddddddddddddd`caaa",
"aaa`````````````````````````caaa",
"aaaacccccccccccccccccccccccccaaa"
};
