<?xml version="1.0" encoding="UTF-8"?>
<svg width="101.21mm" height="66.077mm" version="1.1" viewBox="0 0 101.21 66.077" xmlns="http://www.w3.org/2000/svg" xmlns:cc="http://creativecommons.org/ns#" xmlns:dc="http://purl.org/dc/elements/1.1/" xmlns:rdf="http://www.w3.org/1999/02/22-rdf-syntax-ns#">
<metadata>
<rdf:RDF>
<cc:Work rdf:about="">
<dc:format>image/svg+xml</dc:format>
<dc:type rdf:resource="http://purl.org/dc/dcmitype/StillImage"/>
<dc:title/>
</cc:Work>
</rdf:RDF>
</metadata>
<rect transform="translate(-40.11 -85.557)" x="39.361" y="84.559" width="102.57" height="67.883" fill="#fff" stroke="#fc0000" stroke-width=".076"/>
<g transform="translate(-40.11 -85.557)">
<g transform="translate(-222.6 -102.73)">
<path d="m290.76 200.99c0.23897 0.10881 0.47294 0.22844 0.71112 0.33916 0.96647 0.4399 1.8833 0.97407 2.7836 1.5345 1.7141 1.0938 3.2526 2.4274 4.753 3.792 2.0394 1.854 3.7696 3.9665 5.4172 6.166 1.796 2.4517 3.3422 5.0693 4.7851 7.74 1.4129 2.6116 2.5253 5.3648 3.5464 8.148 0.86154 2.4209 1.626 4.8747 2.3834 7.3297 0.48988 1.5675 0.94716 3.1445 1.2767 4.7538 9e-3 0.0217-0.29811 0.14886-0.3071 0.12715-0.11909-0.25623-0.2463-0.50883-0.3573-0.76868-0.53006-1.241-0.91273-2.5394-1.3483-3.8146-0.79597-2.4282-1.5938-4.8563-2.4668-7.2582-1.0234-2.7444-2.1272-5.4614-3.5025-8.052-1.418-2.6459-2.9265-5.2463-4.6713-7.693-1.5841-2.1903-3.2492-4.3296-5.1839-6.2258-1.4403-1.3916-2.9273-2.742-4.5722-3.8913-0.86632-0.59371-1.7525-1.155-2.6607-1.6827-0.22235-0.14171-0.45664-0.27408-0.64658-0.45946-6e-3 -4e-3 0.0542-0.0889 0.0602-0.0846z" fill="#5050dc" style="paint-order:stroke markers fill"/>
<path d="m290.87 200.92c0.1779 0.0806 0.36568 0.12478 0.55748 0.15672 0.69506 0.0741 1.3964 0.0625 2.0946 0.0691 1.2986 0.0158 2.597 0.0365 3.8957 0.0412 1.9038 0.0267 3.805-0.0717 5.7042-0.19057 2.7086-0.18588 5.4146-0.40701 8.1204-0.62991 3.2528-0.26129 6.5009-0.5757 9.7446-0.93175 3.0094-0.33488 6.0106-0.73644 9.0045-1.1883 2.2585-0.34334 4.5109-0.72513 6.7609-1.1198 1.6127-0.28436 3.2233-0.57987 4.834-0.87534 1.113-0.21079 2.2244-0.42969 3.3398-0.62789 0.76676-0.14634 1.5398-0.25849 2.3161-0.34031 0.41442-0.0307 0.21075-9e-3 0.61117-0.0642 8e-3 -2.6e-4 0.014 0.11768 6e-3 0.11807-0.39978 0.11211-0.19791 0.0492-0.60521 0.19004-0.75919 0.23816-1.5269 0.45033-2.3037 0.6233-1.1091 0.26094-2.2236 0.49779-3.341 0.72081-1.6106 0.33502-3.2216 0.6683-4.8349 0.99061-2.2545 0.44834-4.5109 0.88957-6.7794 1.2622-3.0051 0.48032-6.016 0.92869-9.0403 1.2722-3.2502 0.35794-6.5062 0.66073-9.7687 0.88278-2.7078 0.18911-5.4166 0.3703-8.129 0.48243-1.9082 0.066-3.8183 0.10359-5.7268 0.0222-1.2927-0.0575-2.585-0.12461-3.8779-0.17868-0.71125-0.0361-1.4312-0.0551-2.1287-0.21084-0.20839-0.0609-0.42754-0.11968-0.6023-0.25459-0.0156-0.0105 0.13327-0.22987 0.14878-0.21935z" style="paint-order:stroke markers fill"/>
<path d="m347.73 195.51c-0.13067 0.10558-0.26087 0.21172-0.389 0.32043-0.32006 0.27339-0.62534 0.56345-0.93101 0.8528-0.59276 0.57336-1.182 1.1504-1.7767 1.7216-0.92283 0.89032-1.8548 1.771-2.7865 2.6519-1.2227 1.1458-2.3986 2.3402-3.5674 3.5411-1.2517 1.2851-2.4927 2.5806-3.728 3.8816-1.3156 1.375-2.5572 2.8168-3.7577 4.2937-1.145 1.4202-2.2341 2.8843-3.3004 4.3649-1.0204 1.4316-2.0433 2.8616-3.031 4.3164-0.88861 1.3085-1.6887 2.6736-2.4561 4.0565-0.67046 1.2228-1.3027 2.4661-1.913 3.7202-0.49652 1.0104-0.92381 2.052-1.3139 3.1079-0.29235 0.81558-0.55781 1.6406-0.81374 2.4684-0.19838 0.64231-0.38738 1.2876-0.56113 1.9371-0.13811 0.51717-0.25559 1.0396-0.36829 1.5628-0.0797 0.38609-0.16624 0.77066-0.24971 1.1559-0.0562 0.27223-0.11441 0.544-0.18421 0.81308-0.0599 0.19109-0.0985 0.38909-0.21431 0.55498-0.0173 0.0229-0.0345 0.0457-0.0518 0.0686 1.5e-4 2e-3 -0.026 4e-3 -0.0262 2e-3 -0.0154-0.0221-0.0308-0.0442-0.0461-0.0661-0.0833-0.18346-0.0321-0.37923-0.0164-0.57375 0.0378-0.27312 0.0878-0.54414 0.13939-0.81493 0.0702-0.38714 0.13695-0.77494 0.21549-1.1605 0.10659-0.53002 0.21749-1.0594 0.34842-1.584 0.16938-0.65422 0.35253-1.3046 0.5415-1.9533 0.24564-0.83593 0.49532-1.6709 0.77699-2.4954 0.37282-1.0749 0.78528-2.1357 1.2705-3.165 0.59419-1.269 1.2143-2.5257 1.8777-3.7597 0.76089-1.4017 1.5528-2.7873 2.4381-4.1142 0.9795-1.4685 1.9939-2.9126 3.0401-4.3339 1.0826-1.4791 2.1646-2.9595 3.3036-4.3955 1.2054-1.4947 2.4563-2.952 3.8026-4.3211 1.3169-1.3648 2.6506-2.7129 3.9855-4.0598 1.1864-1.1828 2.3828-2.3557 3.6251-3.4794 0.94255-0.85518 1.8935-1.7008 2.8402-2.5514 0.60678-0.54749 1.2126-1.0963 1.8302-1.6314 0.31798-0.27302 0.63784-0.54432 0.97209-0.79709 0.13516-0.10147 0.27053-0.20434 0.41754-0.28806 0.0108-4e-3 0.0682 0.14789 0.0575 0.15197z" style="paint-order:stroke markers fill"/>
<path d="m291.03 200.92c0.0571 0.19348 0.0768 0.39542 0.10051 0.59497 0.0893 0.72837 0.0109 1.4584-0.0835 2.1815-0.2063 1.3833-0.60947 2.7252-1.0341 4.0542-0.60028 1.8187-1.3133 3.597-2.0479 5.3648-0.82233 1.9765-1.7441 3.9086-2.6986 5.824-0.87437 1.7432-1.8212 3.4483-2.799 5.1352-0.81348 1.3885-1.6491 2.7638-2.469 4.1486-0.59018 1.0102-1.1961 2.0108-1.8371 2.9896-0.23632 0.37497-0.50826 0.72519-0.77581 1.0778-4e-3 0.0106-0.15338-0.0415-0.1497-0.0521 0.18272-0.38597 0.36142-0.77448 0.57428-1.1452 0.55401-1.0167 1.1216-2.0258 1.6955-3.0314 0.79116-1.3905 1.572-2.7869 2.3586-4.1799 0.94387-1.6891 1.8784-3.3842 2.7321-5.1212 0.93938-1.9104 1.8524-3.834 2.6963-5.7888 0.75258-1.7524 1.4864-3.5137 2.1338-5.3082 0.46027-1.3016 0.9045-2.613 1.173-3.9702 0.13102-0.70043 0.25503-1.4082 0.24458-2.1236-7e-3 -0.20691-0.0266-0.41709 9e-3 -0.62238-3e-3 -0.0125 0.17511-0.0402 0.17706-0.0276z" style="paint-order:stroke markers fill"/>
<path d="m277.18 232.11c0.24487-0.12718 0.51645-0.18852 0.78204-0.25312 0.82983-0.18298 1.6769-0.26529 2.5215-0.34039 1.3582-0.13407 2.7223-0.1322 4.0852-0.12033 1.9185-5e-3 3.8337 0.10788 5.7448 0.26931 2.1715 0.18473 4.3149 0.58509 6.4442 1.0427 1.8536 0.40269 3.6775 0.9277 5.4859 1.5012 1.3902 0.44253 2.7513 0.97056 4.1047 1.5163 0.98635 0.41016 1.9747 0.81544 2.9634 1.2197 0.75064 0.29979 1.4942 0.61692 2.229 0.95486 0.5505 0.25786 1.0949 0.52876 1.6379 0.80246 0.40403 0.20311 0.80753 0.40702 1.2057 0.62168 0.30082 0.1652 0.59596 0.34141 0.8809 0.53354 0.20193 0.14174 0.40001 0.28875 0.59753 0.43671 0.15374 0.0946 0.26674 0.2264 0.37524 0.3683 0.0577 0.0859 0.0333 0.0397 0.0721 0.13915 3e-3 1e-3 -0.0144 0.0226-0.0157 0.0214-0.10503-5e-3 -0.0539 2e-3 -0.15347-0.0205-0.17268-0.0466-0.33858-0.10057-0.48672-0.20698-0.21035-0.1238-0.41972-0.24947-0.6329-0.36813-0.28869-0.16789-0.5737-0.34271-0.87123-0.49435-0.39959-0.20504-0.80573-0.39638-1.2099-0.59185-0.54402-0.26108-1.0878-0.52293-1.6396-0.7668-0.73533-0.32151-1.4791-0.62207-2.2312-0.90074-0.99984-0.37818-1.9959-0.76661-2.9965-1.1425-1.3548-0.50833-2.7156-1.0016-4.0974-1.43-1.797-0.54763-3.6093-1.045-5.4494-1.4216-2.1087-0.429-4.2287-0.80977-6.3712-1.018-1.8903-0.18117-3.7842-0.31191-5.6798-0.42162-1.3395-0.0583-2.6818-0.0984-4.022-0.038-0.82717 0.0496-1.655 0.10592-2.4765 0.21906-0.2517 0.0403-0.50152 0.0885-0.74881 0.15106-0.0182 3e-3 -0.0658-0.25901-0.0475-0.26242z" style="paint-order:stroke markers fill"/>
<ellipse transform="rotate(22.62)" cx="346.1" cy="73.888" rx="2.2836" ry="2.3896" style="paint-order:stroke markers fill"/>
<ellipse transform="rotate(22.62)" cx="345.32" cy="107.8" rx="2.2836" ry="2.3896" style="paint-order:stroke markers fill"/>
<ellipse transform="rotate(22.62)" cx="384.8" cy="100.76" rx="2.2836" ry="2.3896" style="paint-order:stroke markers fill"/>
<ellipse transform="rotate(22.62)" cx="396.38" cy="46.565" rx="2.2836" ry="2.3896" style="paint-order:stroke markers fill"/>
<g transform="translate(231.28 151.03)">
<g transform="matrix(.3 0 0 -.3 -52.5 222.75)" fill-rule="evenodd" stroke="#000" stroke-miterlimit="10.433" stroke-width="0" xml:space="preserve"><path d="m462.14 410.34 0.25 0.27 0.48 0.5 0.23 0.24 0.22 0.23 0.22 0.22 0.21 0.22 0.2 0.21 0.2 0.2 0.2 0.19 0.38 0.38 0.18 0.17 0.19 0.18 0.35 0.33 0.34 0.32 0.33 0.3 0.33 0.29 0.32 0.29 0.65 0.56 0.33 0.29 0.33 0.28c0 0.05 3.08 2.69 4.88 4.49 4.73 4.64 5.83 7.03 5.83 7.21 0 0.5-0.46 0.5-0.55 0.5-0.35 0-0.5-0.09-0.75-0.54-1.49-2.39-2.53-3.19-3.74-3.19-1.2 0-1.79 0.75-2.54 1.59-0.94 1.16-1.78 2.14-3.44 2.14-3.73 0-6.02-4.62-6.02-5.67 0-0.25 0.14-0.54 0.6-0.54 0.45 0 0.54 0.25 0.64 0.54 0.95 2.3 3.84 2.35 4.23 2.35 1.05 0 2-0.36 3.14-0.75 2-0.75 2.55-0.75 3.85-0.75-1.8-2.14-5.99-5.74-6.92-6.53l-4.49-4.18c-3.39-3.34-5.14-6.18-5.14-6.53 0-0.5 0.5-0.5 0.59-0.5 0.41 0 0.5 0.1 0.8 0.64 1.16 1.75 2.64 3.1 4.24 3.1 1.15 0 1.65-0.46 2.89-1.89 0.86-1.05 1.75-1.85 3.18-1.85 4.94 0 7.83 6.33 7.83 7.67 0 0.25-0.2 0.5-0.59 0.5-0.46 0-0.55-0.29-0.71-0.65-1.14-3.24-4.32-4.17-5.98-4.17-0.98 0-1.89 0.29-2.94 0.64-1.68 0.64-2.43 0.84-3.48 0.84-0.1 0-0.89 0-1.35-0.14z"/><path d="m496.66 409.87v0.71l-0.02 0.68-0.03 0.66-0.04 0.64-0.06 0.62-0.07 0.6-0.09 0.57-0.11 0.56-0.13 0.55-0.15 0.53-0.17 0.51-0.19 0.5-0.21 0.49-0.24 0.48-0.26 0.47-0.14 0.23-0.15 0.23c-1.08 1.61-3.23 3-6.03 3v-0.98c1.89 0 3.7-1.14 4.33-3.17 0.56-1.88 0.59-4.39 0.59-7.43 0-2.57 0-5.15-0.45-7.34-0.7-3.17-3.06-3.94-4.47-3.94-1.59 0-3.72 0.94-4.42 3.8-0.49 2.05-0.49 4.91-0.49 7.48 0 2.55 0 5.21 0.52 7.11 0.73 2.75 2.97 3.49 4.39 3.49v0.98c-8.08 0-8.08-9.51-8.08-12.03 0-2.5 0-11.81 8.08-11.81 8.09 0 8.09 9.31 8.09 11.81z"/></g>
</g>
<g transform="translate(267.87 94.212)">
<g transform="matrix(.3 0 0 -.3 -52.5 222.75)" fill-rule="evenodd" stroke="#000" stroke-miterlimit="10.433" stroke-width="0" xml:space="preserve"><path d="m462.14 410.34 0.25 0.27 0.48 0.5 0.23 0.24 0.22 0.23 0.22 0.22 0.21 0.22 0.2 0.21 0.2 0.2 0.2 0.19 0.38 0.38 0.18 0.17 0.19 0.18 0.35 0.33 0.34 0.32 0.33 0.3 0.33 0.29 0.32 0.29 0.65 0.56 0.33 0.29 0.33 0.28c0 0.05 3.08 2.69 4.88 4.49 4.73 4.64 5.83 7.03 5.83 7.21 0 0.5-0.46 0.5-0.55 0.5-0.35 0-0.5-0.09-0.75-0.54-1.49-2.39-2.53-3.19-3.74-3.19-1.2 0-1.79 0.75-2.54 1.59-0.94 1.16-1.78 2.14-3.44 2.14-3.73 0-6.02-4.62-6.02-5.67 0-0.25 0.14-0.54 0.6-0.54 0.45 0 0.54 0.25 0.64 0.54 0.95 2.3 3.84 2.35 4.23 2.35 1.05 0 2-0.36 3.14-0.75 2-0.75 2.55-0.75 3.85-0.75-1.8-2.14-5.99-5.74-6.92-6.53l-4.49-4.18c-3.39-3.34-5.14-6.18-5.14-6.53 0-0.5 0.5-0.5 0.59-0.5 0.41 0 0.5 0.1 0.8 0.64 1.16 1.75 2.64 3.1 4.24 3.1 1.15 0 1.65-0.46 2.89-1.89 0.86-1.05 1.75-1.85 3.18-1.85 4.94 0 7.83 6.33 7.83 7.67 0 0.25-0.2 0.5-0.59 0.5-0.46 0-0.55-0.29-0.71-0.65-1.14-3.24-4.32-4.17-5.98-4.17-0.98 0-1.89 0.29-2.94 0.64-1.68 0.64-2.43 0.84-3.48 0.84-0.1 0-0.89 0-1.35-0.14z"/><path d="m490.35 420.92v0.35l-0.01 0.03v0.09l-0.01 0.03v0.05l-0.01 0.03v0.02l-0.01 0.03v0.02l-0.02 0.04-0.01 0.04-0.08 0.12-0.09 0.06-0.08 0.02-0.05 0.02h-0.04l-0.03 0.01h-0.03l-0.02 0.01h-0.12l-0.04 0.01h-0.4c-2.23-2.2-5.39-2.23-6.82-2.23v-1.25c0.84 0 3.14 0 5.04 0.97v-17.77c0-1.16 0-1.61-3.48-1.61h-1.31v-1.25c0.62 0.03 4.9 0.14 6.2 0.14 1.08 0 5.47-0.11 6.23-0.14v1.25h-1.32c-3.49 0-3.49 0.45-3.49 1.61z"/></g>
</g>
<g transform="translate(193.98 93.995)">
<g transform="matrix(.3 0 0 -.3 -52.5 222.75)" fill-rule="evenodd" stroke="#000" stroke-miterlimit="10.433" stroke-width="0" xml:space="preserve"><path d="m462.14 410.34 0.25 0.27 0.48 0.5 0.23 0.24 0.22 0.23 0.22 0.22 0.21 0.22 0.2 0.21 0.2 0.2 0.2 0.19 0.38 0.38 0.18 0.17 0.19 0.18 0.35 0.33 0.34 0.32 0.33 0.3 0.33 0.29 0.32 0.29 0.65 0.56 0.33 0.29 0.33 0.28c0 0.05 3.08 2.69 4.88 4.49 4.73 4.64 5.83 7.03 5.83 7.21 0 0.5-0.46 0.5-0.55 0.5-0.35 0-0.5-0.09-0.75-0.54-1.49-2.39-2.53-3.19-3.74-3.19-1.2 0-1.79 0.75-2.54 1.59-0.94 1.16-1.78 2.14-3.44 2.14-3.73 0-6.02-4.62-6.02-5.67 0-0.25 0.14-0.54 0.6-0.54 0.45 0 0.54 0.25 0.64 0.54 0.95 2.3 3.84 2.35 4.23 2.35 1.05 0 2-0.36 3.14-0.75 2-0.75 2.55-0.75 3.85-0.75-1.8-2.14-5.99-5.74-6.92-6.53l-4.49-4.18c-3.39-3.34-5.14-6.18-5.14-6.53 0-0.5 0.5-0.5 0.59-0.5 0.41 0 0.5 0.1 0.8 0.64 1.16 1.75 2.64 3.1 4.24 3.1 1.15 0 1.65-0.46 2.89-1.89 0.86-1.05 1.75-1.85 3.18-1.85 4.94 0 7.83 6.33 7.83 7.67 0 0.25-0.2 0.5-0.59 0.5-0.46 0-0.55-0.29-0.71-0.65-1.14-3.24-4.32-4.17-5.98-4.17-0.98 0-1.89 0.29-2.94 0.64-1.68 0.64-2.43 0.84-3.48 0.84-0.1 0-0.89 0-1.35-0.14z"/><path d="m496.27 405.11h-1.18c-0.1-0.77-0.46-2.83-0.91-3.18-0.27-0.2-2.95-0.2-3.44-0.2h-6.42c3.66 3.23 4.88 4.2 6.97 5.84 2.58 2.07 4.98 4.22 4.98 7.54 0 4.21-3.68 6.79-8.15 6.79-4.32 0-7.25-3.03-7.25-6.23 0-1.78 1.5-1.96 1.86-1.96 0.82 0 1.84 0.6 1.84 1.85 0 0.62-0.25 1.84-2.06 1.84 1.08 2.47 3.45 3.24 5.09 3.24 3.49 0 5.3-2.71 5.3-5.53 0-3.04-2.16-5.44-3.28-6.69l-8.39-8.3c-0.36-0.31-0.36-0.39-0.36-1.36h14.36z"/></g>
</g>
<g transform="translate(177.91 139.86)">
<g transform="matrix(.3 0 0 -.3 -52.5 222.75)" fill-rule="evenodd" stroke="#000" stroke-miterlimit="10.433" stroke-width="0" xml:space="preserve"><path d="m462.14 410.34 0.25 0.27 0.48 0.5 0.23 0.24 0.22 0.23 0.22 0.22 0.21 0.22 0.2 0.21 0.2 0.2 0.2 0.19 0.38 0.38 0.18 0.17 0.19 0.18 0.35 0.33 0.34 0.32 0.33 0.3 0.33 0.29 0.32 0.29 0.65 0.56 0.33 0.29 0.33 0.28c0 0.05 3.08 2.69 4.88 4.49 4.73 4.64 5.83 7.03 5.83 7.21 0 0.5-0.46 0.5-0.55 0.5-0.35 0-0.5-0.09-0.75-0.54-1.49-2.39-2.53-3.19-3.74-3.19-1.2 0-1.79 0.75-2.54 1.59-0.94 1.16-1.78 2.14-3.44 2.14-3.73 0-6.02-4.62-6.02-5.67 0-0.25 0.14-0.54 0.6-0.54 0.45 0 0.54 0.25 0.64 0.54 0.95 2.3 3.84 2.35 4.23 2.35 1.05 0 2-0.36 3.14-0.75 2-0.75 2.55-0.75 3.85-0.75-1.8-2.14-5.99-5.74-6.92-6.53l-4.49-4.18c-3.39-3.34-5.14-6.18-5.14-6.53 0-0.5 0.5-0.5 0.59-0.5 0.41 0 0.5 0.1 0.8 0.64 1.16 1.75 2.64 3.1 4.24 3.1 1.15 0 1.65-0.46 2.89-1.89 0.86-1.05 1.75-1.85 3.18-1.85 4.94 0 7.83 6.33 7.83 7.67 0 0.25-0.2 0.5-0.59 0.5-0.46 0-0.55-0.29-0.71-0.65-1.14-3.24-4.32-4.17-5.98-4.17-0.98 0-1.89 0.29-2.94 0.64-1.68 0.64-2.43 0.84-3.48 0.84-0.1 0-0.89 0-1.35-0.14z"/><path d="m488.2 410.4h0.25l0.25-0.02 0.24-0.03 0.24-0.04 0.23-0.05 0.23-0.06 0.22-0.07 0.21-0.08 0.21-0.1 0.2-0.1 0.2-0.12 0.19-0.12 0.18-0.14 0.17-0.15 0.17-0.16 0.16-0.17 0.15-0.18 0.14-0.19 0.14-0.2 0.13-0.22 0.11-0.22 0.11-0.24 0.1-0.24 0.09-0.26 0.08-0.27 0.07-0.28 0.06-0.29 0.05-0.3 0.04-0.31 0.02-0.32 0.02-0.33 0.01-0.35c0-4.33-2.52-5.61-4.53-5.61-1.39 0-4.47 0.38-5.93 2.44 1.63 0.06 2.02 1.22 2.02 1.95 0 1.11-0.84 1.91-1.92 1.91-0.97 0-1.96-0.59-1.96-2.02 0-3.28 3.63-5.4 7.85-5.4 4.84 0 8.19 3.25 8.19 6.73 0 2.72-2.22 5.44-6.07 6.24 3.66 1.33 4.99 3.93 4.99 6.06 0 2.75-3.17 4.81-7.03 4.81-3.88 0-6.83-1.89-6.83-4.67 0-1.19 0.76-1.84 1.81-1.84 1.08 0 1.77 0.79 1.77 1.76 0 1.02-0.69 1.75-1.77 1.81 1.22 1.55 3.61 1.93 4.91 1.93 1.56 0 3.76-0.77 3.76-3.8 0-1.47-0.48-3.06-1.39-4.14-1.15-1.33-2.12-1.41-3.87-1.5-0.88-0.08-0.94-0.08-1.11-0.11-0.08 0-0.36-0.06-0.36-0.45 0-0.49 0.31-0.49 0.9-0.49z"/></g>
</g>
<g transform="translate(225.58 116.93)" fill="#5050dc">
<g transform="matrix(.3 0 0 -.3 -52.5 222.75)" fill="#5050dc" fill-rule="evenodd" stroke="#000" stroke-miterlimit="10.433" stroke-width="0" xml:space="preserve"><path d="m483.07 442.17-0.46-0.38-0.46-0.36-0.47-0.35-0.47-0.33-0.47-0.31-0.48-0.29-0.48-0.27-0.48-0.25-0.48-0.22-0.48-0.2-0.24-0.08-0.24-0.09-0.25-0.07-0.24-0.07-0.24-0.06-0.48-0.1-0.24-0.04-0.24-0.02-0.24-0.03-0.24-0.01h-0.24c-1.99 0-3.44 0.84-5.17 1.84-1.46 0.84-3 1.69-4.99 1.69-1.25 0-2.54-0.39-3.64-0.89-1-0.5-2-1.05-2.84-1.75l-2.69-2.19 0.7-0.84c2.44 2.03 5.08 3.53 7.61 3.53 2 0 3.46-0.85 5.19-1.85 1.45-0.84 2.99-1.68 4.99-1.68 1.25 0 2.54 0.39 3.64 0.89 0.98 0.5 1.98 1.04 2.82 1.75l2.71 2.18z"/><path d="m464.83 417.71 0.14 0.01h0.5l0.19 0.01h0.2l0.21 0.01 0.44 0.02 0.23 0.01 0.24 0.01 0.75 0.06 0.53 0.05 0.53 0.07 0.55 0.07 0.54 0.1 0.54 0.11 0.54 0.12 0.26 0.07 0.26 0.08 0.5 0.16 0.24 0.09 0.24 0.1c3.48 1.5 3.73 4.43 3.73 5.12 0 2.2-1.89 4.23-5.33 4.23v-1.09c2.35 0 3.69-1.44 3.69-3.14 0-5.17-7.97-5.17-10.01-5.17h-2.05c1.95 7.56 7.08 8.31 8.37 8.31v1.09c-5.53 0-13.04-4.82-13.04-13.54 0-5.08 2.93-9.02 7.81-9.02 7.12 0 11.31 5.28 11.31 5.88 0 0.29-0.3 0.65-0.59 0.65-0.25 0-0.35-0.11-0.66-0.5-3.94-4.93-9.36-4.93-9.95-4.93-3.89 0-4.35 4.18-4.35 5.78 0 0.59 0.05 2.14 0.8 5.18z"/></g>
</g>
</g>
</g>
</svg>
