<?xml version="1.0" encoding="UTF-8"?>
<svg width="164.78mm" height="156.08mm" version="1.1" viewBox="0 0 164.78 156.08" xmlns="http://www.w3.org/2000/svg" xmlns:cc="http://creativecommons.org/ns#" xmlns:dc="http://purl.org/dc/elements/1.1/" xmlns:rdf="http://www.w3.org/1999/02/22-rdf-syntax-ns#">
<metadata>
<rdf:RDF>
<cc:Work rdf:about="">
<dc:format>image/svg+xml</dc:format>
<dc:type rdf:resource="http://purl.org/dc/dcmitype/StillImage"/>
<dc:title/>
</cc:Work>
</rdf:RDF>
</metadata>
<rect x="-4.5357" y="-7.5595" width="172.36" height="172.36" fill="#fff" stroke="#fc0000" stroke-width=".076"/>
<g transform="translate(-11.849 -14.534)">
<g transform="translate(.37798 -77.863)">
<g transform="rotate(22.62 93.825 170.85)">
<path d="m67.909 111.4c0.15285 0.15806 0.30098 0.31908 0.46294 0.4686 0.69532 0.57384 1.5083 0.98126 2.3115 1.3797 1.4914 0.71788 3.0686 1.2228 4.6544 1.683 2.0616 0.59347 4.1794 0.93422 6.3051 1.1932 2.4261 0.27854 4.8686 0.33413 7.3081 0.32892 2.4817-0.01 4.9545-0.22484 7.4191-0.49712 2.184-0.24192 4.3531-0.59224 6.513-0.99246 1.6727-0.31601 3.3306-0.70268 4.9766-1.1352 1.242-0.32639 2.4642-0.72084 3.6731-1.1528 0.91499-0.32875 1.81-0.70891 2.7095-1.0769 0.64138-0.27075 1.2918-0.51909 1.9358-0.78342 0.38757-0.17948 0.79264-0.30223 1.2101-0.38664 8e-3 -2e-3 0.0314 0.1094 0.0236 0.11106-0.36689 0.24265-0.74728 0.46177-1.1544 0.63102-0.63896 0.29429-1.2706 0.6044-1.9141 0.88886-0.89648 0.40482-1.8019 0.79002-2.7194 1.145-1.218 0.46138-2.4502 0.88427-3.7024 1.2436-1.6561 0.4739-3.324 0.90702-5.0105 1.2599-2.1741 0.45217-4.3623 0.83752-6.5674 1.1061-2.4905 0.28936-4.9911 0.49685-7.5006 0.49193-2.4674-7e-3 -4.938-0.0804-7.387-0.40604-2.1484-0.3078-4.2882-0.69621-6.3626-1.3488-1.5961-0.51409-3.1814-1.0817-4.6614-1.8795-0.80628-0.4553-1.6234-0.92838-2.2563-1.6174-0.14604-0.17744-0.31728-0.3697-0.35303-0.60549-0.0035-6e-3 0.08274-0.0554 0.08623-0.0493z" style="paint-order:stroke markers fill"/>
<path d="m33.608 147.08c0.21985 4e-3 0.43845 0.0128 0.6587 4e-3 0.89743-0.0859 1.7604-0.3727 2.6101-0.65888 1.5622-0.54696 3.0345-1.3052 4.4813-2.1011 1.8774-1.0381 3.6159-2.2947 5.3021-3.6146 1.9125-1.5186 3.6789-3.2063 5.4002-4.935 1.7478-1.7619 3.3444-3.6624 4.8946-5.5976 1.3733-1.7154 2.6593-3.4968 3.9036-5.3071 0.95932-1.4062 1.8582-2.852 2.7163-4.3217 0.64747-1.109 1.2328-2.2522 1.7822-3.4124 0.41453-0.87946 0.77857-1.7811 1.1544-2.6774 0.26207-0.64497 0.5464-1.2805 0.81487-1.9228 0.14713-0.40096 0.34676-0.77418 0.58226-1.129 4e-3 -7e-3 0.0996 0.0551 0.0952 0.0618-0.0879 0.43102-0.20189 0.85494-0.37012 1.2625-0.24372 0.65992-0.47106 1.3258-0.72493 1.982-0.34765 0.92016-0.7155 1.8328-1.1132 2.7325-0.53498 1.1875-1.1073 2.3578-1.7386 3.4974-0.83595 1.5062-1.7091 2.9918-2.6521 4.4339-1.2176 1.8571-2.4924 3.6768-3.8617 5.426-1.5564 1.9656-3.1779 3.8806-4.9559 5.6516-1.7496 1.7398-3.5486 3.4348-5.5105 4.9363-1.7368 1.3015-3.5245 2.5399-5.4527 3.5453-1.4921 0.76507-3.0145 1.4847-4.6252 1.9671-0.89207 0.24818-1.8044 0.49147-2.7391 0.45178-0.22874-0.0222-0.48577-0.0371-0.67778-0.17851-0.0067-2e-3 0.01933-0.0977 0.02611-0.0958z" style="paint-order:stroke markers fill"/>
<path d="m34.468 196.58c0.15828-0.15262 0.31909-0.30098 0.4686-0.46294 0.57383-0.69532 0.98126-1.5083 1.3797-2.3115 0.71789-1.4914 1.2228-3.0686 1.6831-4.6544 0.59347-2.0616 0.93422-4.1794 1.1932-6.3051 0.27854-2.4261 0.33413-4.8686 0.32892-7.3081-0.01-2.4817-0.22484-4.9545-0.49712-7.4191-0.24192-2.184-0.59224-4.3531-0.99246-6.513-0.31601-1.6727-0.70268-3.3306-1.1352-4.9766-0.32639-1.242-0.72084-2.4642-1.1528-3.6731-0.32875-0.91499-0.70891-1.81-1.0769-2.7095-0.27075-0.64137-0.51909-1.2918-0.78342-1.9358-0.17948-0.38756-0.30223-0.79262-0.38664-1.2101-2e-3 -8e-3 0.10939-0.0315 0.11102-0.0236 0.24262 0.36693 0.46177 0.74729 0.63101 1.1544 0.2943 0.63897 0.6044 1.2706 0.88887 1.9141 0.40482 0.89647 0.79002 1.8019 1.145 2.7194 0.46138 1.218 0.88427 2.4502 1.2436 3.7024 0.4739 1.6561 0.90702 3.324 1.2599 5.0106 0.45217 2.1741 0.83751 4.3623 1.1061 6.5674 0.28936 2.4905 0.49685 4.9911 0.49193 7.5006-7e-3 2.4674-0.0804 4.938-0.40604 7.387-0.3078 2.1484-0.69621 4.2882-1.3488 6.3626-0.51409 1.5961-1.0817 3.1814-1.8795 4.6614-0.4553 0.80627-0.92837 1.6234-1.6174 2.2563-0.17744 0.14604-0.36973 0.31726-0.60549 0.35303-6e-3 4e-3 -0.0554-0.0827-0.0493-0.0862z" style="paint-order:stroke markers fill"/>
<path d="m70.13 231.06c4e-3 -0.21984 0.0128-0.43846 4e-3 -0.6587-0.0859-0.89742-0.3727-1.7604-0.65888-2.6101-0.54696-1.5622-1.3052-3.0345-2.1011-4.4813-1.0382-1.8774-2.2947-3.6159-3.6146-5.3021-1.5186-1.9125-3.2063-3.6789-4.935-5.4002-1.7619-1.7478-3.6624-3.3444-5.5976-4.8946-1.7154-1.3733-3.4969-2.6593-5.3071-3.9036-1.4062-0.95931-2.8519-1.8582-4.3217-2.7163-1.109-0.64747-2.2522-1.2328-3.4124-1.7822-0.87945-0.41453-1.7811-0.77857-2.6774-1.1544-0.64497-0.26207-1.2805-0.5464-1.9228-0.81487-0.40095-0.14714-0.77417-0.34676-1.129-0.58226-7e-3 -4e-3 0.0551-0.0996 0.0618-0.0952 0.43102 0.0879 0.85493 0.20189 1.2625 0.37012 0.65992 0.24371 1.3258 0.47106 1.982 0.72492 0.92015 0.34765 1.8328 0.7155 2.7325 1.1132 1.1875 0.53498 2.3578 1.1073 3.4974 1.7386 1.5062 0.83596 2.9918 1.7091 4.4339 2.6521 1.8571 1.2176 3.6768 2.4924 5.426 3.8617 1.9656 1.5564 3.8806 3.1779 5.6516 4.9559 1.7398 1.7496 3.4348 3.5486 4.9363 5.5105 1.3015 1.7368 2.5399 3.5245 3.5453 5.4527 0.76508 1.4921 1.4847 3.0145 1.9671 4.6252 0.24818 0.89206 0.49147 1.8044 0.45179 2.7391-0.0222 0.22874-0.0371 0.48578-0.17852 0.67778-1e-3 7e-3 -0.0976-0.0193-0.0958-0.0261z" style="paint-order:stroke markers fill"/>
<path d="m119.73 230.23c-0.15262-0.15828-0.30098-0.31908-0.46293-0.46859-0.69532-0.57384-1.5083-0.98126-2.3115-1.3797-1.4914-0.71788-3.0686-1.2228-4.6544-1.6831-2.0616-0.59346-4.1794-0.93421-6.3051-1.1932-2.4261-0.27855-4.8686-0.33415-7.3081-0.32892-2.4817 0.01-4.9545 0.22483-7.4191 0.49711-2.184 0.24192-4.3531 0.59224-6.513 0.99246-1.6727 0.31601-3.3306 0.70268-4.9766 1.1352-1.242 0.32639-2.4642 0.72084-3.6731 1.1528-0.91498 0.32875-1.81 0.70891-2.7095 1.0769-0.64138 0.27075-1.2918 0.51909-1.9358 0.78343-0.38756 0.17947-0.79262 0.30222-1.2101 0.38664-8e-3 2e-3 -0.0315-0.10939-0.0236-0.11102 0.36693-0.24262 0.74728-0.46177 1.1544-0.63101 0.63896-0.2943 1.2706-0.6044 1.9141-0.88887 0.89647-0.40482 1.8019-0.79002 2.7194-1.145 1.218-0.46139 2.4502-0.88427 3.7024-1.2436 1.6561-0.4739 3.324-0.90702 5.0106-1.2599 2.1741-0.45218 4.3623-0.83751 6.5674-1.1061 2.4905-0.28936 4.9911-0.49685 7.5006-0.49193 2.4674 7e-3 4.938 0.0804 7.387 0.40604 2.1484 0.30781 4.2882 0.69621 6.3626 1.3488 1.5961 0.51408 3.1814 1.0817 4.6614 1.8796 0.80626 0.45528 1.6234 0.92836 2.2563 1.6174 0.14604 0.17745 0.31726 0.36974 0.35304 0.60551 4e-3 6e-3 -0.0827 0.0554-0.0862 0.0493z" style="paint-order:stroke markers fill"/>
<path d="m154.12 194.62c-0.21984-4e-3 -0.43845-0.0128-0.65868-4e-3 -0.89743 0.0859-1.7604 0.37271-2.6101 0.65889-1.5622 0.54696-3.0345 1.3052-4.4813 2.1011-1.8774 1.0382-3.6159 2.2947-5.3021 3.6146-1.9125 1.5186-3.6789 3.2063-5.4002 4.935-1.7478 1.7619-3.3444 3.6624-4.8946 5.5976-1.3733 1.7154-2.6593 3.4969-3.9036 5.3071-0.95932 1.4062-1.8582 2.852-2.7163 4.3217-0.64747 1.1091-1.2328 2.2522-1.7822 3.4124-0.41452 0.87945-0.77856 1.7811-1.1544 2.6774-0.26208 0.64497-0.54641 1.2805-0.81487 1.9228-0.14715 0.40095-0.34677 0.77416-0.58226 1.129-4e-3 7e-3 -0.0996-0.0551-0.0952-0.0618 0.0879-0.43102 0.20188-0.85493 0.37011-1.2625 0.24371-0.65991 0.47106-1.3258 0.72493-1.982 0.34764-0.92015 0.7155-1.8328 1.1132-2.7325 0.53498-1.1875 1.1073-2.3578 1.7386-3.4974 0.83597-1.5062 1.7091-2.9918 2.6521-4.4339 1.2176-1.8571 2.4924-3.6768 3.8617-5.426 1.5564-1.9656 3.1779-3.8806 4.9559-5.6516 1.7496-1.7398 3.5486-3.4348 5.5105-4.9363 1.7368-1.3015 3.5245-2.5399 5.4527-3.5453 1.4921-0.76509 3.0145-1.4847 4.6252-1.9671 0.89204-0.24818 1.8044-0.49147 2.7391-0.45179 0.22874 0.0222 0.48578 0.0371 0.6778 0.17852 7e-3 1e-3 -0.0193 0.0977-0.0261 0.0958z" style="paint-order:stroke markers fill"/>
<path d="m153.29 145.02c-0.15828 0.15262-0.31907 0.30097-0.46858 0.46292-0.57384 0.69532-0.98126 1.5083-1.3797 2.3115-0.71787 1.4914-1.2228 3.0686-1.683 4.6544-0.59346 2.0616-0.93421 4.1794-1.1932 6.3051-0.27855 2.4262-0.33415 4.8686-0.32892 7.3081 0.01 2.4817 0.22483 4.9545 0.49711 7.4191 0.24192 2.184 0.59224 4.3531 0.99246 6.513 0.316 1.6727 0.70268 3.3306 1.1352 4.9766 0.32639 1.2421 0.72085 2.4642 1.1528 3.6731 0.32876 0.91498 0.70892 1.81 1.0769 2.7095 0.27076 0.64139 0.51909 1.2918 0.78344 1.9358 0.17947 0.38757 0.30221 0.79262 0.38663 1.2101 2e-3 8e-3 -0.10938 0.0315-0.11101 0.0236-0.24262-0.36693-0.46177-0.74727-0.63102-1.1544-0.29429-0.63895-0.60439-1.2706-0.88886-1.9141-0.40482-0.89646-0.79001-1.8019-1.145-2.7193-0.46139-1.218-0.88427-2.4502-1.2436-3.7024-0.4739-1.6561-0.90701-3.324-1.2599-5.0106-0.45218-2.1741-0.83751-4.3623-1.1061-6.5674-0.28935-2.4905-0.49684-4.9911-0.49193-7.5006 7e-3 -2.4674 0.0804-4.938 0.40604-7.387 0.30782-2.1484 0.69622-4.2882 1.3488-6.3626 0.51407-1.5961 1.0817-3.1814 1.8796-4.6614 0.45528-0.80626 0.92835-1.6234 1.6174-2.2563 0.17745-0.14603 0.36974-0.31725 0.60552-0.35304 6e-3 -4e-3 0.0554 0.0827 0.0493 0.0862z" style="paint-order:stroke markers fill"/>
<path d="m117.41 110.54c-4e-3 0.21984-0.0128 0.43844-4e-3 0.65867 0.0859 0.89744 0.3727 1.7604 0.65889 2.6101 0.54696 1.5622 1.3052 3.0345 2.1011 4.4813 1.0382 1.8774 2.2947 3.6159 3.6146 5.3021 1.5186 1.9125 3.2063 3.6789 4.935 5.4002 1.7619 1.7478 3.6624 3.3444 5.5976 4.8946 1.7154 1.3733 3.4969 2.6593 5.3072 3.9036 1.4062 0.95932 2.8519 1.8582 4.3217 2.7163 1.1091 0.64748 2.2522 1.2328 3.4124 1.7822 0.87945 0.41452 1.7811 0.77856 2.6774 1.1544 0.64499 0.26207 1.2805 0.54641 1.9228 0.81487 0.40096 0.14715 0.77416 0.34677 1.129 0.58226 7e-3 4e-3 -0.0551 0.0996-0.0618 0.0952-0.43102-0.0879-0.85492-0.20188-1.2625-0.37011-0.6599-0.24371-1.3258-0.47106-1.982-0.72493-0.92015-0.34764-1.8328-0.7155-2.7325-1.1132-1.1875-0.53498-2.3578-1.1073-3.4974-1.7386-1.5062-0.83596-2.9918-1.7091-4.4339-2.6521-1.8571-1.2176-3.6768-2.4924-5.426-3.8617-1.9656-1.5564-3.8806-3.1779-5.6516-4.9559-1.7398-1.7497-3.4349-3.5486-4.9363-5.5105-1.3015-1.7368-2.5399-3.5245-3.5453-5.4527-0.76508-1.4921-1.4847-3.0145-1.9671-4.6252-0.24818-0.89205-0.49147-1.8044-0.45179-2.7391 0.0222-0.22874 0.0371-0.48578 0.17852-0.67782 1e-3 -7e-3 0.0977 0.0193 0.0958 0.0261z" style="paint-order:stroke markers fill"/>
<ellipse cx="33.435" cy="147.39" rx="2.2836" ry="2.3896" style="paint-order:stroke markers fill"/>
<ellipse cx="68.036" cy="111.79" rx="2.2836" ry="2.3896" style="paint-order:stroke markers fill"/>
<ellipse cx="117.36" cy="110.85" rx="2.2836" ry="2.3896" style="paint-order:stroke markers fill"/>
<ellipse cx="153.27" cy="145.43" rx="2.2836" ry="2.3896" style="paint-order:stroke markers fill"/>
<ellipse cx="154.21" cy="194.19" rx="2.2836" ry="2.3896" style="paint-order:stroke markers fill"/>
<ellipse cx="119.63" cy="230.1" rx="2.2836" ry="2.3896" style="paint-order:stroke markers fill"/>
<ellipse cx="70.493" cy="230.85" rx="2.2836" ry="2.3896" style="paint-order:stroke markers fill"/>
<ellipse cx="34.585" cy="196.65" rx="2.2836" ry="2.3896" style="paint-order:stroke markers fill"/>
</g>
<g transform="translate(79.753 72.193)">
<g transform="matrix(.3 0 0 -.3 -52.5 222.75)" fill-rule="evenodd" stroke="#000" stroke-miterlimit="10.433" stroke-width="0" xml:space="preserve"><path d="m462.14 410.34 0.25 0.27 0.48 0.5 0.23 0.24 0.22 0.23 0.22 0.22 0.21 0.22 0.2 0.21 0.2 0.2 0.2 0.19 0.38 0.38 0.18 0.17 0.19 0.18 0.35 0.33 0.34 0.32 0.33 0.3 0.33 0.29 0.32 0.29 0.65 0.56 0.33 0.29 0.33 0.28c0 0.05 3.08 2.69 4.88 4.49 4.73 4.64 5.83 7.03 5.83 7.21 0 0.5-0.46 0.5-0.55 0.5-0.35 0-0.5-0.09-0.75-0.54-1.49-2.39-2.53-3.19-3.74-3.19-1.2 0-1.79 0.75-2.54 1.59-0.94 1.16-1.78 2.14-3.44 2.14-3.73 0-6.02-4.62-6.02-5.67 0-0.25 0.14-0.54 0.6-0.54 0.45 0 0.54 0.25 0.64 0.54 0.95 2.3 3.84 2.35 4.23 2.35 1.05 0 2-0.36 3.14-0.75 2-0.75 2.55-0.75 3.85-0.75-1.8-2.14-5.99-5.74-6.92-6.53l-4.49-4.18c-3.39-3.34-5.14-6.18-5.14-6.53 0-0.5 0.5-0.5 0.59-0.5 0.41 0 0.5 0.1 0.8 0.64 1.16 1.75 2.64 3.1 4.24 3.1 1.15 0 1.65-0.46 2.89-1.89 0.86-1.05 1.75-1.85 3.18-1.85 4.94 0 7.83 6.33 7.83 7.67 0 0.25-0.2 0.5-0.59 0.5-0.46 0-0.55-0.29-0.71-0.65-1.14-3.24-4.32-4.17-5.98-4.17-0.98 0-1.89 0.29-2.94 0.64-1.68 0.64-2.43 0.84-3.48 0.84-0.1 0-0.89 0-1.35-0.14z"/><path d="m496.66 409.87v0.71l-0.02 0.68-0.03 0.66-0.04 0.64-0.06 0.62-0.07 0.6-0.09 0.57-0.11 0.56-0.13 0.55-0.15 0.53-0.17 0.51-0.19 0.5-0.21 0.49-0.24 0.48-0.26 0.47-0.14 0.23-0.15 0.23c-1.08 1.61-3.23 3-6.03 3v-0.98c1.89 0 3.7-1.14 4.33-3.17 0.56-1.88 0.59-4.39 0.59-7.43 0-2.57 0-5.15-0.45-7.34-0.7-3.17-3.06-3.94-4.47-3.94-1.59 0-3.72 0.94-4.42 3.8-0.49 2.05-0.49 4.91-0.49 7.48 0 2.55 0 5.21 0.52 7.11 0.73 2.75 2.97 3.49 4.39 3.49v0.98c-8.08 0-8.08-9.51-8.08-12.03 0-2.5 0-11.81 8.08-11.81 8.09 0 8.09 9.31 8.09 11.81z"/></g>
</g>
<g transform="translate(57.452 20.033)">
<g transform="matrix(.3 0 0 -.3 -52.5 222.75)" fill-rule="evenodd" stroke="#000" stroke-miterlimit="10.433" stroke-width="0" xml:space="preserve"><path d="m462.14 410.34 0.25 0.27 0.48 0.5 0.23 0.24 0.22 0.23 0.22 0.22 0.21 0.22 0.2 0.21 0.2 0.2 0.2 0.19 0.38 0.38 0.18 0.17 0.19 0.18 0.35 0.33 0.34 0.32 0.33 0.3 0.33 0.29 0.32 0.29 0.65 0.56 0.33 0.29 0.33 0.28c0 0.05 3.08 2.69 4.88 4.49 4.73 4.64 5.83 7.03 5.83 7.21 0 0.5-0.46 0.5-0.55 0.5-0.35 0-0.5-0.09-0.75-0.54-1.49-2.39-2.53-3.19-3.74-3.19-1.2 0-1.79 0.75-2.54 1.59-0.94 1.16-1.78 2.14-3.44 2.14-3.73 0-6.02-4.62-6.02-5.67 0-0.25 0.14-0.54 0.6-0.54 0.45 0 0.54 0.25 0.64 0.54 0.95 2.3 3.84 2.35 4.23 2.35 1.05 0 2-0.36 3.14-0.75 2-0.75 2.55-0.75 3.85-0.75-1.8-2.14-5.99-5.74-6.92-6.53l-4.49-4.18c-3.39-3.34-5.14-6.18-5.14-6.53 0-0.5 0.5-0.5 0.59-0.5 0.41 0 0.5 0.1 0.8 0.64 1.16 1.75 2.64 3.1 4.24 3.1 1.15 0 1.65-0.46 2.89-1.89 0.86-1.05 1.75-1.85 3.18-1.85 4.94 0 7.83 6.33 7.83 7.67 0 0.25-0.2 0.5-0.59 0.5-0.46 0-0.55-0.29-0.71-0.65-1.14-3.24-4.32-4.17-5.98-4.17-0.98 0-1.89 0.29-2.94 0.64-1.68 0.64-2.43 0.84-3.48 0.84-0.1 0-0.89 0-1.35-0.14z"/><path d="m490.35 420.92v0.35l-0.01 0.03v0.09l-0.01 0.03v0.05l-0.01 0.03v0.02l-0.01 0.03v0.02l-0.02 0.04-0.01 0.04-0.08 0.12-0.09 0.06-0.08 0.02-0.05 0.02h-0.04l-0.03 0.01h-0.03l-0.02 0.01h-0.12l-0.04 0.01h-0.4c-2.23-2.2-5.39-2.23-6.82-2.23v-1.25c0.84 0 3.14 0 5.04 0.97v-17.77c0-1.16 0-1.61-3.48-1.61h-1.31v-1.25c0.62 0.03 4.9 0.14 6.2 0.14 1.08 0 5.47-0.11 6.23-0.14v1.25h-1.32c-3.49 0-3.49 0.45-3.49 1.61z"/></g>
</g>
<g transform="translate(1.5119 -1.8899)">
<g transform="matrix(.3 0 0 -.3 -52.5 222.75)" fill-rule="evenodd" stroke="#000" stroke-miterlimit="10.433" stroke-width="0" xml:space="preserve"><path d="m462.14 410.34 0.25 0.27 0.48 0.5 0.23 0.24 0.22 0.23 0.22 0.22 0.21 0.22 0.2 0.21 0.2 0.2 0.2 0.19 0.38 0.38 0.18 0.17 0.19 0.18 0.35 0.33 0.34 0.32 0.33 0.3 0.33 0.29 0.32 0.29 0.65 0.56 0.33 0.29 0.33 0.28c0 0.05 3.08 2.69 4.88 4.49 4.73 4.64 5.83 7.03 5.83 7.21 0 0.5-0.46 0.5-0.55 0.5-0.35 0-0.5-0.09-0.75-0.54-1.49-2.39-2.53-3.19-3.74-3.19-1.2 0-1.79 0.75-2.54 1.59-0.94 1.16-1.78 2.14-3.44 2.14-3.73 0-6.02-4.62-6.02-5.67 0-0.25 0.14-0.54 0.6-0.54 0.45 0 0.54 0.25 0.64 0.54 0.95 2.3 3.84 2.35 4.23 2.35 1.05 0 2-0.36 3.14-0.75 2-0.75 2.55-0.75 3.85-0.75-1.8-2.14-5.99-5.74-6.92-6.53l-4.49-4.18c-3.39-3.34-5.14-6.18-5.14-6.53 0-0.5 0.5-0.5 0.59-0.5 0.41 0 0.5 0.1 0.8 0.64 1.16 1.75 2.64 3.1 4.24 3.1 1.15 0 1.65-0.46 2.89-1.89 0.86-1.05 1.75-1.85 3.18-1.85 4.94 0 7.83 6.33 7.83 7.67 0 0.25-0.2 0.5-0.59 0.5-0.46 0-0.55-0.29-0.71-0.65-1.14-3.24-4.32-4.17-5.98-4.17-0.98 0-1.89 0.29-2.94 0.64-1.68 0.64-2.43 0.84-3.48 0.84-0.1 0-0.89 0-1.35-0.14z"/><path d="m496.27 405.11h-1.18c-0.1-0.77-0.46-2.83-0.91-3.18-0.27-0.2-2.95-0.2-3.44-0.2h-6.42c3.66 3.23 4.88 4.2 6.97 5.84 2.58 2.07 4.98 4.22 4.98 7.54 0 4.21-3.68 6.79-8.15 6.79-4.32 0-7.25-3.03-7.25-6.23 0-1.78 1.5-1.96 1.86-1.96 0.82 0 1.84 0.6 1.84 1.85 0 0.62-0.25 1.84-2.06 1.84 1.08 2.47 3.45 3.24 5.09 3.24 3.49 0 5.3-2.71 5.3-5.53 0-3.04-2.16-5.44-3.28-6.69l-8.39-8.3c-0.36-0.31-0.36-0.39-0.36-1.36h14.36z"/></g>
</g>
<g transform="translate(-53.673 19.277)">
<g transform="matrix(.3 0 0 -.3 -52.5 222.75)" fill-rule="evenodd" stroke="#000" stroke-miterlimit="10.433" stroke-width="0" xml:space="preserve"><path d="m462.14 410.34 0.25 0.27 0.48 0.5 0.23 0.24 0.22 0.23 0.22 0.22 0.21 0.22 0.2 0.21 0.2 0.2 0.2 0.19 0.38 0.38 0.18 0.17 0.19 0.18 0.35 0.33 0.34 0.32 0.33 0.3 0.33 0.29 0.32 0.29 0.65 0.56 0.33 0.29 0.33 0.28c0 0.05 3.08 2.69 4.88 4.49 4.73 4.64 5.83 7.03 5.83 7.21 0 0.5-0.46 0.5-0.55 0.5-0.35 0-0.5-0.09-0.75-0.54-1.49-2.39-2.53-3.19-3.74-3.19-1.2 0-1.79 0.75-2.54 1.59-0.94 1.16-1.78 2.14-3.44 2.14-3.73 0-6.02-4.62-6.02-5.67 0-0.25 0.14-0.54 0.6-0.54 0.45 0 0.54 0.25 0.64 0.54 0.95 2.3 3.84 2.35 4.23 2.35 1.05 0 2-0.36 3.14-0.75 2-0.75 2.55-0.75 3.85-0.75-1.8-2.14-5.99-5.74-6.92-6.53l-4.49-4.18c-3.39-3.34-5.14-6.18-5.14-6.53 0-0.5 0.5-0.5 0.59-0.5 0.41 0 0.5 0.1 0.8 0.64 1.16 1.75 2.64 3.1 4.24 3.1 1.15 0 1.65-0.46 2.89-1.89 0.86-1.05 1.75-1.85 3.18-1.85 4.94 0 7.83 6.33 7.83 7.67 0 0.25-0.2 0.5-0.59 0.5-0.46 0-0.55-0.29-0.71-0.65-1.14-3.24-4.32-4.17-5.98-4.17-0.98 0-1.89 0.29-2.94 0.64-1.68 0.64-2.43 0.84-3.48 0.84-0.1 0-0.89 0-1.35-0.14z"/><path d="m488.2 410.4h0.25l0.25-0.02 0.24-0.03 0.24-0.04 0.23-0.05 0.23-0.06 0.22-0.07 0.21-0.08 0.21-0.1 0.2-0.1 0.2-0.12 0.19-0.12 0.18-0.14 0.17-0.15 0.17-0.16 0.16-0.17 0.15-0.18 0.14-0.19 0.14-0.2 0.13-0.22 0.11-0.22 0.11-0.24 0.1-0.24 0.09-0.26 0.08-0.27 0.07-0.28 0.06-0.29 0.05-0.3 0.04-0.31 0.02-0.32 0.02-0.33 0.01-0.35c0-4.33-2.52-5.61-4.53-5.61-1.39 0-4.47 0.38-5.93 2.44 1.63 0.06 2.02 1.22 2.02 1.95 0 1.11-0.84 1.91-1.92 1.91-0.97 0-1.96-0.59-1.96-2.02 0-3.28 3.63-5.4 7.85-5.4 4.84 0 8.19 3.25 8.19 6.73 0 2.72-2.22 5.44-6.07 6.24 3.66 1.33 4.99 3.93 4.99 6.06 0 2.75-3.17 4.81-7.03 4.81-3.88 0-6.83-1.89-6.83-4.67 0-1.19 0.76-1.84 1.81-1.84 1.08 0 1.77 0.79 1.77 1.76 0 1.02-0.69 1.75-1.77 1.81 1.22 1.55 3.61 1.93 4.91 1.93 1.56 0 3.76-0.77 3.76-3.8 0-1.47-0.48-3.06-1.39-4.14-1.15-1.33-2.12-1.41-3.87-1.5-0.88-0.08-0.94-0.08-1.11-0.11-0.08 0-0.36-0.06-0.36-0.45 0-0.49 0.31-0.49 0.9-0.49z"/></g>
</g>
<g transform="translate(-73.327 73.705)">
<g transform="matrix(.3 0 0 -.3 -52.5 222.75)" fill-rule="evenodd" stroke="#000" stroke-miterlimit="10.433" stroke-width="0" xml:space="preserve"><path d="m462.14 410.34 0.25 0.27 0.48 0.5 0.23 0.24 0.22 0.23 0.22 0.22 0.21 0.22 0.2 0.21 0.2 0.2 0.2 0.19 0.38 0.38 0.18 0.17 0.19 0.18 0.35 0.33 0.34 0.32 0.33 0.3 0.33 0.29 0.32 0.29 0.65 0.56 0.33 0.29 0.33 0.28c0 0.05 3.08 2.69 4.88 4.49 4.73 4.64 5.83 7.03 5.83 7.21 0 0.5-0.46 0.5-0.55 0.5-0.35 0-0.5-0.09-0.75-0.54-1.49-2.39-2.53-3.19-3.74-3.19-1.2 0-1.79 0.75-2.54 1.59-0.94 1.16-1.78 2.14-3.44 2.14-3.73 0-6.02-4.62-6.02-5.67 0-0.25 0.14-0.54 0.6-0.54 0.45 0 0.54 0.25 0.64 0.54 0.95 2.3 3.84 2.35 4.23 2.35 1.05 0 2-0.36 3.14-0.75 2-0.75 2.55-0.75 3.85-0.75-1.8-2.14-5.99-5.74-6.92-6.53l-4.49-4.18c-3.39-3.34-5.14-6.18-5.14-6.53 0-0.5 0.5-0.5 0.59-0.5 0.41 0 0.5 0.1 0.8 0.64 1.16 1.75 2.64 3.1 4.24 3.1 1.15 0 1.65-0.46 2.89-1.89 0.86-1.05 1.75-1.85 3.18-1.85 4.94 0 7.83 6.33 7.83 7.67 0 0.25-0.2 0.5-0.59 0.5-0.46 0-0.55-0.29-0.71-0.65-1.14-3.24-4.32-4.17-5.98-4.17-0.98 0-1.89 0.29-2.94 0.64-1.68 0.64-2.43 0.84-3.48 0.84-0.1 0-0.89 0-1.35-0.14z"/><path d="m497.12 404.48v1.25h-3.88v15.55c0 0.72 0 0.97-0.76 0.97-0.43 0-0.57 0-0.91-0.49l-11.53-16.03v-1.25h10.25l0.23 1.25h-9.2l9.2 12.75v-12.75l-0.23-1.25v-2.86c0-1.19 0-1.61-2.83-1.61h-0.94v-1.25c1.74 0.06 3.97 0.14 5.22 0.14 1.3 0 3.52-0.08 5.27-0.14v1.25h-0.94c-2.83 0-2.83 0.42-2.83 1.61v2.86z"/></g>
</g>
<g transform="translate(-50.649 126.62)">
<g transform="matrix(.3 0 0 -.3 -52.5 222.75)" fill-rule="evenodd" stroke="#000" stroke-miterlimit="10.433" stroke-width="0" xml:space="preserve"><path d="m462.14 410.34 0.25 0.27 0.48 0.5 0.23 0.24 0.22 0.23 0.22 0.22 0.21 0.22 0.2 0.21 0.2 0.2 0.2 0.19 0.38 0.38 0.18 0.17 0.19 0.18 0.35 0.33 0.34 0.32 0.33 0.3 0.33 0.29 0.32 0.29 0.65 0.56 0.33 0.29 0.33 0.28c0 0.05 3.08 2.69 4.88 4.49 4.73 4.64 5.83 7.03 5.83 7.21 0 0.5-0.46 0.5-0.55 0.5-0.35 0-0.5-0.09-0.75-0.54-1.49-2.39-2.53-3.19-3.74-3.19-1.2 0-1.79 0.75-2.54 1.59-0.94 1.16-1.78 2.14-3.44 2.14-3.73 0-6.02-4.62-6.02-5.67 0-0.25 0.14-0.54 0.6-0.54 0.45 0 0.54 0.25 0.64 0.54 0.95 2.3 3.84 2.35 4.23 2.35 1.05 0 2-0.36 3.14-0.75 2-0.75 2.55-0.75 3.85-0.75-1.8-2.14-5.99-5.74-6.92-6.53l-4.49-4.18c-3.39-3.34-5.14-6.18-5.14-6.53 0-0.5 0.5-0.5 0.59-0.5 0.41 0 0.5 0.1 0.8 0.64 1.16 1.75 2.64 3.1 4.24 3.1 1.15 0 1.65-0.46 2.89-1.89 0.86-1.05 1.75-1.85 3.18-1.85 4.94 0 7.83 6.33 7.83 7.67 0 0.25-0.2 0.5-0.59 0.5-0.46 0-0.55-0.29-0.71-0.65-1.14-3.24-4.32-4.17-5.98-4.17-0.98 0-1.89 0.29-2.94 0.64-1.68 0.64-2.43 0.84-3.48 0.84-0.1 0-0.89 0-1.35-0.14z"/><path d="m484.09 418.2 0.32-0.08 0.15-0.04 0.3-0.06 0.28-0.06 0.14-0.02 0.13-0.03 0.13-0.02 0.12-0.02 0.12-0.01 0.12-0.02 0.11-0.01 0.11-0.02 0.1-0.01 0.11-0.01 0.09-0.01h0.1l0.18-0.02h0.17l0.07-0.01h0.52c4.59 0 7.31 3.14 7.31 3.67 0 0.37-0.23 0.48-0.4 0.48-0.08 0-0.14 0-0.28-0.11-0.85-0.31-2.69-1.01-5.27-1.01-0.97 0-2.83 0.08-5.09 0.95-0.35 0.17-0.41 0.17-0.46 0.17-0.45 0-0.45-0.39-0.45-0.94v-10.28c0-0.59 0-1.01 0.56-1.01 0.32 0 0.35 0.06 0.71 0.48 1.5 1.92 3.62 2.21 4.84 2.21 2.08 0 3.03-1.68 3.2-1.96 0.63-1.15 0.83-2.47 0.83-4.5 0-1.04 0-3.09-1.05-4.62-0.86-1.27-2.36-2.1-4.06-2.1-2.26 0-4.61 1.25-5.48 3.55 1.33-0.09 1.98 0.77 1.98 1.7 0 1.5-1.28 1.78-1.73 1.78-0.07 0-1.75 0-1.75-1.87 0-3.14 2.86-6.28 7.04-6.28 4.46 0 8.36 3.31 8.36 7.7 0 3.94-3 7.56-7.31 7.56-1.53 0-3.34-0.37-4.87-1.7z"/></g>
</g>
<g transform="translate(4.5357 145.14)">
<g transform="matrix(.3 0 0 -.3 -52.5 222.75)" fill-rule="evenodd" stroke="#000" stroke-miterlimit="10.433" stroke-width="0" xml:space="preserve"><path d="m462.14 410.34 0.25 0.27 0.48 0.5 0.23 0.24 0.22 0.23 0.22 0.22 0.21 0.22 0.2 0.21 0.2 0.2 0.2 0.19 0.38 0.38 0.18 0.17 0.19 0.18 0.35 0.33 0.34 0.32 0.33 0.3 0.33 0.29 0.32 0.29 0.65 0.56 0.33 0.29 0.33 0.28c0 0.05 3.08 2.69 4.88 4.49 4.73 4.64 5.83 7.03 5.83 7.21 0 0.5-0.46 0.5-0.55 0.5-0.35 0-0.5-0.09-0.75-0.54-1.49-2.39-2.53-3.19-3.74-3.19-1.2 0-1.79 0.75-2.54 1.59-0.94 1.16-1.78 2.14-3.44 2.14-3.73 0-6.02-4.62-6.02-5.67 0-0.25 0.14-0.54 0.6-0.54 0.45 0 0.54 0.25 0.64 0.54 0.95 2.3 3.84 2.35 4.23 2.35 1.05 0 2-0.36 3.14-0.75 2-0.75 2.55-0.75 3.85-0.75-1.8-2.14-5.99-5.74-6.92-6.53l-4.49-4.18c-3.39-3.34-5.14-6.18-5.14-6.53 0-0.5 0.5-0.5 0.59-0.5 0.41 0 0.5 0.1 0.8 0.64 1.16 1.75 2.64 3.1 4.24 3.1 1.15 0 1.65-0.46 2.89-1.89 0.86-1.05 1.75-1.85 3.18-1.85 4.94 0 7.83 6.33 7.83 7.67 0 0.25-0.2 0.5-0.59 0.5-0.46 0-0.55-0.29-0.71-0.65-1.14-3.24-4.32-4.17-5.98-4.17-0.98 0-1.89 0.29-2.94 0.64-1.68 0.64-2.43 0.84-3.48 0.84-0.1 0-0.89 0-1.35-0.14z"/><path d="m483.91 410.15 0.02 1.06 0.01 0.52 0.03 0.51 0.04 0.51 0.05 0.49 0.06 0.49 0.08 0.48 0.09 0.47 0.11 0.46 0.13 0.46 0.14 0.44 0.08 0.22 0.09 0.21 0.09 0.22 0.2 0.42 0.11 0.2 0.24 0.4c1.18 1.9 3.06 3.18 5.29 3.18 1.05 0 2.44-0.28 3.14-1.22-0.87-0.06-1.61-0.66-1.61-1.67 0-0.88 0.6-1.64 1.65-1.64 1.04 0 1.67 0.7 1.67 1.7 0 2.03-1.47 3.84-4.92 3.84-5.02 0-10.15-4.61-10.15-12.09 0-9.03 4.25-11.75 8.1-11.75 4.25 0 7.94 3.25 7.94 7.81 0 4.42-3.52 7.7-7.6 7.7l-0.17-0.98c1.61 0 2.69-0.63 3.55-1.91 0.84-1.32 0.87-2.79 0.87-4.81 0-1.98 0-3.45-0.94-4.81-0.84-1.22-1.95-1.88-3.65-1.88-1.75 0-3.11 1-3.85 2.55-0.51 1.03-0.79 2.78-0.79 4.88 0 3.37 2.03 5.98 4.81 5.98l0.17 0.98c-2.78 0-4.31-1.84-5.08-3.42z"/></g>
</g>
<g transform="translate(58.208 124.73)">
<g transform="matrix(.3 0 0 -.3 -52.5 222.75)" fill-rule="evenodd" stroke="#000" stroke-miterlimit="10.433" stroke-width="0" xml:space="preserve"><path d="m462.14 410.34 0.25 0.27 0.48 0.5 0.23 0.24 0.22 0.23 0.22 0.22 0.21 0.22 0.2 0.21 0.2 0.2 0.2 0.19 0.38 0.38 0.18 0.17 0.19 0.18 0.35 0.33 0.34 0.32 0.33 0.3 0.33 0.29 0.32 0.29 0.65 0.56 0.33 0.29 0.33 0.28c0 0.05 3.08 2.69 4.88 4.49 4.73 4.64 5.83 7.03 5.83 7.21 0 0.5-0.46 0.5-0.55 0.5-0.35 0-0.5-0.09-0.75-0.54-1.49-2.39-2.53-3.19-3.74-3.19-1.2 0-1.79 0.75-2.54 1.59-0.94 1.16-1.78 2.14-3.44 2.14-3.73 0-6.02-4.62-6.02-5.67 0-0.25 0.14-0.54 0.6-0.54 0.45 0 0.54 0.25 0.64 0.54 0.95 2.3 3.84 2.35 4.23 2.35 1.05 0 2-0.36 3.14-0.75 2-0.75 2.55-0.75 3.85-0.75-1.8-2.14-5.99-5.74-6.92-6.53l-4.49-4.18c-3.39-3.34-5.14-6.18-5.14-6.53 0-0.5 0.5-0.5 0.59-0.5 0.41 0 0.5 0.1 0.8 0.64 1.16 1.75 2.64 3.1 4.24 3.1 1.15 0 1.65-0.46 2.89-1.89 0.86-1.05 1.75-1.85 3.18-1.85 4.94 0 7.83 6.33 7.83 7.67 0 0.25-0.2 0.5-0.59 0.5-0.46 0-0.55-0.29-0.71-0.65-1.14-3.24-4.32-4.17-5.98-4.17-0.98 0-1.89 0.29-2.94 0.64-1.68 0.64-2.43 0.84-3.48 0.84-0.1 0-0.89 0-1.35-0.14z"/><path d="m497.32 419.81 0.03 0.04 0.03 0.03 0.03 0.04 0.02 0.03 0.03 0.03 0.02 0.04 0.06 0.09 0.01 0.03 0.02 0.03 0.01 0.02 0.01 0.04 0.03 0.09 0.01 0.04 0.01 0.03v0.04l0.01 0.04v0.09l0.01 0.05v0.59h-9.12c-1.39 0-1.78 0.03-3.03 0.14-1.81 0.14-1.88 0.39-1.99 0.98h-1.18l-1.22-7.46h1.18c0.07 0.53 0.43 2.82 0.97 3.17 0.28 0.22 3.11 0.22 3.63 0.22h7.59c-1.11-1.47-2.89-3.63-3.61-4.61-4.58-5.99-4.98-11.53-4.98-13.58 0-0.39 0-2 1.62-2 1.68 0 1.68 1.58 1.68 2.03v1.39c0 6.77 1.4 9.86 2.9 11.73z"/></g>
</g>
<g transform="translate(65.012 47.247)">
<g transform="matrix(.3 0 0 -.3 -52.5 222.75)" fill="none" fill-rule="evenodd" stroke="#000" stroke-miterlimit="10.433" xml:space="preserve"><path d="m464.44 411.93-0.19-0.3-0.18-0.29-0.19-0.28-0.19-0.26-0.18-0.25-0.19-0.23-0.19-0.22-0.18-0.21-0.19-0.2-0.19-0.18-0.18-0.17-0.19-0.16-0.19-0.15-0.18-0.14-0.19-0.13-0.19-0.12-0.19-0.11-0.19-0.1-0.38-0.18-0.19-0.07-0.2-0.07-0.19-0.07-0.2-0.05-0.19-0.05-0.4-0.08-0.19-0.03-0.41-0.05-0.4-0.03c-0.61-0.05-1.05-0.05-1.05-1 0-0.3 0.25-0.55 0.64-0.55 1.34 0 2.89 0.16 4.28 0.16 1.64 0 3.39-0.16 4.99-0.16 0.29 0 0.95 0 0.95 0.95 0 0.55-0.45 0.6-0.8 0.6-1.15 0.09-2.34 0.5-2.34 1.73 0 0.61 0.3 1.16 0.69 1.84l3.79 6.39h12.5l-0.14 1.54h-11.42l9.83 16.45 1.59-16.45 0.14-1.54c0.11-1.04 0.8-7.82 0.8-8.32 0-1.5-2.59-1.64-3.58-1.64-0.7 0-1.2 0-1.2-1 0-0.55 0.59-0.55 0.7-0.55 2.03 0 4.19 0.16 6.22 0.16 1.25 0 4.39-0.16 5.64-0.16 0.3 0 0.89 0 0.89 1 0 0.55-0.5 0.55-1.14 0.55-3.09 0-3.09 0.34-3.25 1.79l-3.03 31.13c-0.11 1-0.11 1.2-0.95 1.2-0.8 0-0.99-0.34-1.3-0.84z" fill="#000" stroke-width="0"/></g>
</g>
<g transform="translate(28.726 13.985)">
<g transform="matrix(.3 0 0 -.3 -52.5 222.75)" fill="none" fill-rule="evenodd" stroke="#000" stroke-miterlimit="10.433" xml:space="preserve"><path d="m463.49 410.09-0.05-0.18-0.04-0.17-0.05-0.16-0.08-0.3-0.1-0.26-0.05-0.12-0.05-0.11-0.06-0.11-0.07-0.1-0.14-0.18-0.09-0.07-0.09-0.08-0.11-0.06-0.11-0.07-0.26-0.1-0.15-0.05-0.16-0.04-0.09-0.02-0.09-0.01-0.09-0.02-0.1-0.02-0.2-0.02-0.11-0.01-0.12-0.02-0.11-0.01-0.13-0.01h-0.12l-0.13-0.01-0.14-0.01h-0.14l-0.14-0.01h-0.15l-0.16-0.01h-0.85c-0.85 0-1.35 0-1.35-1 0-0.55 0.46-0.55 1.35-0.55h17.78c7.87 0 13.75 5.87 13.75 10.76 0 3.58-2.89 6.47-7.72 7.02 5.19 0.95 10.42 4.64 10.42 9.38 0 3.68-3.3 6.87-9.28 6.87l-0.69-1.55c4.38 0 5.42-2.93 5.42-5.12 0-4.39-4.28-9.13-10.35-9.13h-7.27l-0.3-1.09h9.41c4.78 0 5.73-3.69 5.73-5.83 0-4.94-4.43-9.76-10.31-9.76h-6.78c-0.69 0-0.8 0-1.09 0.04-0.5 0.05-0.64 0.1-0.64 0.5 0 0.14 0 0.25 0.25 1.14l3.43 13.91 0.3 1.09 3.08 12.36c0.45 1.74 0.54 1.89 2.7 1.89h6.42l0.69 1.55h-16.73c-0.94 0-1.44 0-1.44-1 0-0.55 0.44-0.55 1.39-0.55 0.09 0 1.05 0 1.89-0.09 0.89-0.11 1.34-0.16 1.34-0.8 0-0.2-0.04-0.36-0.2-0.95z" fill="#000" stroke-width="0"/></g>
</g>
<g transform="translate(-20.789 12.851)">
<g transform="matrix(.3 0 0 -.3 -52.5 222.75)" fill="none" fill-rule="evenodd" stroke="#000" stroke-miterlimit="10.433" xml:space="preserve"><path d="m493.38 440.82v0.05l-0.01 0.02v0.04l-0.01 0.02v0.02l-0.03 0.06v0.02l-0.02 0.02-0.03 0.06-0.08 0.08-0.02 0.01-0.02 0.02-0.03 0.01-0.02 0.02-0.03 0.01-0.01 0.01h-0.02l-0.01 0.01h-0.02l-0.02 0.01h-0.03l-0.02 0.01h-0.12c-0.14 0-0.2-0.04-0.75-0.59l-3.48-3.84c-0.44 0.7-2.74 4.43-8.27 4.43-11.11 0-22.33-11.01-22.33-22.56 0-8.23 5.89-13.65 13.52-13.65 4.33 0 8.11 1.98 10.75 4.28 4.64 4.09 5.48 8.62 5.48 8.76 0 0.5-0.5 0.5-0.59 0.5-0.3 0-0.55-0.09-0.66-0.5-0.43-1.44-1.59-4.98-5.03-7.87-3.43-2.78-6.58-3.63-9.15-3.63-4.49 0-9.77 2.6-9.77 10.36 0 2.85 1.05 10.91 6.02 16.74 3.04 3.54 7.73 6.03 12.15 6.03 5.1 0 8.03-3.83 8.03-9.61 0-2-0.15-2.05-0.15-2.55s0.54-0.5 0.75-0.5c0.64 0 0.64 0.11 0.89 1z" fill="#000" stroke-width="0"/></g>
</g>
<g transform="translate(-56.318 48.381)">
<g transform="matrix(.3 0 0 -.3 -52.5 222.75)" fill="none" fill-rule="evenodd" stroke="#000" stroke-miterlimit="10.433" xml:space="preserve"><path d="m463.44 410.09-0.04-0.18-0.05-0.17-0.04-0.16-0.05-0.15-0.04-0.15-0.05-0.13-0.04-0.13-0.05-0.12-0.12-0.22-0.06-0.1-0.07-0.09-0.08-0.09-0.09-0.07-0.09-0.08-0.11-0.06-0.11-0.07-0.12-0.05-0.14-0.05-0.15-0.05-0.16-0.04-0.09-0.02-0.08-0.01-0.2-0.04-0.2-0.02-0.11-0.01-0.11-0.02-0.24-0.02h-0.13l-0.26-0.02h-0.15l-0.14-0.01h-0.15l-0.16-0.01h-0.85c-0.84 0-1.39 0-1.39-0.96 0-0.59 0.44-0.59 1.39-0.59h16.48l-0.89 1.55h-5.62c-0.7 0-0.8 0-1.11 0.04-0.48 0.05-0.64 0.1-0.64 0.5 0 0.14 0 0.25 0.25 1.14l6.83 27.36c0.43 1.74 0.54 1.89 2.68 1.89h5.33c4.89 0 9.02-2.64 9.02-9.22 0-2.43-1-10.6-5.24-16.09-1.43-1.84-5.37-5.62-11.5-5.62l0.89-1.55c10.36 0 20.19 10.51 20.19 21.42 0 7.03-4.23 12.61-11.72 12.61h-16.73c-0.95 0-1.5 0-1.5-0.95 0-0.6 0.45-0.6 1.45-0.6 0.64 0 1.55-0.04 2.14-0.09 0.8-0.11 1.1-0.25 1.1-0.8 0-0.2-0.05-0.36-0.21-0.95z" fill="#000" stroke-width="0"/></g>
</g>
<g transform="translate(-56.696 99.03)">
<g transform="matrix(.3 0 0 -.3 -52.5 222.75)" fill-rule="evenodd" stroke="#000" stroke-miterlimit="10.433" stroke-width="0" xml:space="preserve"><polyline points="456 446 493.44 446 493.44 448.04 456 448.04" fill-rule="nonzero"/><path d="m464.44 411.93-0.19-0.3-0.18-0.29-0.19-0.28-0.19-0.26-0.18-0.25-0.19-0.23-0.19-0.22-0.18-0.21-0.19-0.2-0.19-0.18-0.18-0.17-0.19-0.16-0.19-0.15-0.18-0.14-0.19-0.13-0.19-0.12-0.19-0.11-0.19-0.1-0.38-0.18-0.19-0.07-0.2-0.07-0.19-0.07-0.2-0.05-0.19-0.05-0.4-0.08-0.19-0.03-0.41-0.05-0.4-0.03c-0.61-0.05-1.05-0.05-1.05-1 0-0.3 0.25-0.55 0.64-0.55 1.34 0 2.89 0.16 4.28 0.16 1.64 0 3.39-0.16 4.99-0.16 0.29 0 0.95 0 0.95 0.95 0 0.55-0.45 0.6-0.8 0.6-1.15 0.09-2.34 0.5-2.34 1.73 0 0.61 0.3 1.16 0.69 1.84l3.79 6.39h12.5l-0.14 1.54h-11.42l9.83 16.45 1.59-16.45 0.14-1.54c0.11-1.04 0.8-7.82 0.8-8.32 0-1.5-2.59-1.64-3.58-1.64-0.7 0-1.2 0-1.2-1 0-0.55 0.59-0.55 0.7-0.55 2.03 0 4.19 0.16 6.22 0.16 1.25 0 4.39-0.16 5.64-0.16 0.3 0 0.89 0 0.89 1 0 0.55-0.5 0.55-1.14 0.55-3.09 0-3.09 0.34-3.25 1.79l-3.03 31.13c-0.11 1-0.11 1.2-0.95 1.2-0.8 0-0.99-0.34-1.3-0.84z"/></g>
</g>
<g transform="translate(-23.435 136.07)">
<g transform="matrix(.3 0 0 -.3 -52.5 222.75)" fill-rule="evenodd" stroke="#000" stroke-miterlimit="10.433" stroke-width="0" xml:space="preserve"><polyline points="456 446 496.32 446 496.32 448.04 456 448.04" fill-rule="nonzero"/><path d="m463.49 410.09-0.05-0.18-0.04-0.17-0.05-0.16-0.08-0.3-0.1-0.26-0.05-0.12-0.05-0.11-0.06-0.11-0.07-0.1-0.14-0.18-0.09-0.07-0.09-0.08-0.11-0.06-0.11-0.07-0.26-0.1-0.15-0.05-0.16-0.04-0.09-0.02-0.09-0.01-0.09-0.02-0.1-0.02-0.2-0.02-0.11-0.01-0.12-0.02-0.11-0.01-0.13-0.01h-0.12l-0.13-0.01-0.14-0.01h-0.14l-0.14-0.01h-0.15l-0.16-0.01h-0.85c-0.85 0-1.35 0-1.35-1 0-0.55 0.46-0.55 1.35-0.55h17.78c7.87 0 13.75 5.87 13.75 10.76 0 3.58-2.89 6.47-7.72 7.02 5.19 0.95 10.42 4.64 10.42 9.38 0 3.68-3.3 6.87-9.28 6.87l-0.69-1.55c4.38 0 5.42-2.93 5.42-5.12 0-4.39-4.28-9.13-10.35-9.13h-7.27l-0.3-1.09h9.41c4.78 0 5.73-3.69 5.73-5.83 0-4.94-4.43-9.76-10.31-9.76h-6.78c-0.69 0-0.8 0-1.09 0.04-0.5 0.05-0.64 0.1-0.64 0.5 0 0.14 0 0.25 0.25 1.14l3.43 13.91 0.3 1.09 3.08 12.36c0.45 1.74 0.54 1.89 2.7 1.89h6.42l0.69 1.55h-16.73c-0.94 0-1.44 0-1.44-1 0-0.55 0.44-0.55 1.39-0.55 0.09 0 1.05 0 1.89-0.09 0.89-0.11 1.34-0.16 1.34-0.8 0-0.2-0.04-0.36-0.2-0.95z"/></g>
</g>
<g transform="translate(30.994 135.69)">
<g transform="matrix(.3 0 0 -.3 -52.5 222.75)" fill-rule="evenodd" stroke="#000" stroke-miterlimit="10.433" stroke-width="0" xml:space="preserve"><polyline points="456 446 495.24 446 495.24 448.04 456 448.04" fill-rule="nonzero"/><path d="m493.38 440.82v0.05l-0.01 0.02v0.04l-0.01 0.02v0.02l-0.03 0.06v0.02l-0.02 0.02-0.03 0.06-0.08 0.08-0.02 0.01-0.02 0.02-0.03 0.01-0.02 0.02-0.03 0.01-0.01 0.01h-0.02l-0.01 0.01h-0.02l-0.02 0.01h-0.03l-0.02 0.01h-0.12c-0.14 0-0.2-0.04-0.75-0.59l-3.48-3.84c-0.44 0.7-2.74 4.43-8.27 4.43-11.11 0-22.33-11.01-22.33-22.56 0-8.23 5.89-13.65 13.52-13.65 4.33 0 8.11 1.98 10.75 4.28 4.64 4.09 5.48 8.62 5.48 8.76 0 0.5-0.5 0.5-0.59 0.5-0.3 0-0.55-0.09-0.66-0.5-0.43-1.44-1.59-4.98-5.03-7.87-3.43-2.78-6.58-3.63-9.15-3.63-4.49 0-9.77 2.6-9.77 10.36 0 2.85 1.05 10.91 6.02 16.74 3.04 3.54 7.73 6.03 12.15 6.03 5.1 0 8.03-3.83 8.03-9.61 0-2-0.15-2.05-0.15-2.55s0.54-0.5 0.75-0.5c0.64 0 0.64 0.11 0.89 1z"/></g>
</g>
<g transform="translate(63.878 98.274)">
<g transform="matrix(.3 0 0 -.3 -52.5 222.75)" fill-rule="evenodd" stroke="#000" stroke-miterlimit="10.433" stroke-width="0" xml:space="preserve"><polyline points="456 446 498.72 446 498.72 448.04 456 448.04" fill-rule="nonzero"/><path d="m463.44 410.09-0.04-0.18-0.05-0.17-0.04-0.16-0.05-0.15-0.04-0.15-0.05-0.13-0.04-0.13-0.05-0.12-0.12-0.22-0.06-0.1-0.07-0.09-0.08-0.09-0.09-0.07-0.09-0.08-0.11-0.06-0.11-0.07-0.12-0.05-0.14-0.05-0.15-0.05-0.16-0.04-0.09-0.02-0.08-0.01-0.2-0.04-0.2-0.02-0.11-0.01-0.11-0.02-0.24-0.02h-0.13l-0.26-0.02h-0.15l-0.14-0.01h-0.15l-0.16-0.01h-0.85c-0.84 0-1.39 0-1.39-0.96 0-0.59 0.44-0.59 1.39-0.59h16.48l-0.89 1.55h-5.62c-0.7 0-0.8 0-1.11 0.04-0.48 0.05-0.64 0.1-0.64 0.5 0 0.14 0 0.25 0.25 1.14l6.83 27.36c0.43 1.74 0.54 1.89 2.68 1.89h5.33c4.89 0 9.02-2.64 9.02-9.22 0-2.43-1-10.6-5.24-16.09-1.43-1.84-5.37-5.62-11.5-5.62l0.89-1.55c10.36 0 20.19 10.51 20.19 21.42 0 7.03-4.23 12.61-11.72 12.61h-16.73c-0.95 0-1.5 0-1.5-0.95 0-0.6 0.45-0.6 1.45-0.6 0.64 0 1.55-0.04 2.14-0.09 0.8-0.11 1.1-0.25 1.1-0.8 0-0.2-0.05-0.36-0.21-0.95z"/></g>
</g>
</g>
</g>
</svg>
