/* XPM */
static const char * filenew[] = {
"10 14 5 1",
" 	c None",
".	c #000000",
"+	c #FFFFFF",
"@	c #DCDCDC",
"#	c #C0C0C0",
".......   ",
".++++@@.  ",
".++++#+@. ",
".++++#++@.",
".++++#....",
".+++++###.",
".++++++++.",
".++++++++.",
".++++++++.",
".++++++++.",
".++++++++.",
".++++++++.",
".++++++++.",
".........."};
