/* XPM */
const char * marked_xpm[] = {
"32 32 4 1",
" 	c None",
".	c #000080",
"+	c #0CFF00",
"@	c #FFFFFF",
"                                ",
"                                ",
"                                ",
"          .............         ",
"         ..++++++++++...        ",
"         .+.++++++++.@.+.       ",
"        .++.+++++++.+.++.       ",
"        .+++.+++++.++.+++.      ",
"        .+++.++++.+++.++++.     ",
"       .+++++.++.++++.+++++.    ",
"       .++++++..++++.++++...    ",
"      .+++++++...+++.++..@..    ",
"      .+++++....@......++.+.    ",
"      .++++.+.@.@@@@.++++.+.    ",
"     .+++..++.@@.@@@.+++.++.    ",
"     .++.++++.@@.@@@.+++.+++.   ",
"     ...+++++.@@@.@@.++.++++.   ",
"    ..++++++.@@@@@.@.++.++++.   ",
"    ...+++++.@@@@@.@.+.+++++.   ",
"    .++......@@@@@@..+.+++++.   ",
"    .+++++++.....@@..........   ",
"    .+++++..+.+++.....++++.     ",
"    .++++.++++.++++++.+++.      ",
"    .+++.++++++.+++++.++.       ",
"    .+..++++++++.+++.++.        ",
"    ..+++++++++++.++.++.        ",
"    .....+++++++++.+.+.         ",
"         ........++...          ",
"                 ....           ",
"                                ",
"                                ",
"                                "};
