/* XPM */
const char * seeds_xpm[] = {
"32 32 4 1",
" 	c None",
".	c #FF0000",
"+	c #00FF00",
"@	c #000000",
"                ..++++++++++++++",
"               ..+++++++++++++++",
"              ..++++++++++++++++",
"            ..++++++++++++++++++",
"           ..+++++++++++++++++++",
"          ..++++++++++++++++++++",
"         ..++++++++++++@++++++++",
"      @ ..++++++++++++@+++++++++",
"      ..++++++++++++@@++++++++++",
"     ..@@++++++++++@@+++++++++++",
"    ..+++@+++++++++@++++++++++++",
"   ..+++++@@+++++@@+++++++++++++",
" ..++++++++@@+++@@++++++++++++++",
"..++++++++++@@+@@+++++++++++++++",
".++++++++++++@@@++++++++++++++++",
"+++++++++++++@@@++++++++++++++++",
"++++++++++++@@+@@+++++++++++++++",
"+++++++++++@@+++@@@+++++++++++++",
"++++++++++@@++++++@@++++++++++++",
"+++++++++@@++++++++@@+++++++++++",
"++++++++@@++++++++++@@++++++++++",
"+++++++@@++++++++++++@@+++++++++",
"++++++@@++++++++++++++@@++++++++",
"..+++++++++++++++++++++@@+++++++",
" .....++++++++++++++++++++++++++",
"     ....+++++++++++++++++++++++",
"        ....++++++++++++++++++++",
"            ...+++++++++++++++++",
"               ....+++++++++++++",
"                  ....++++++++++",
"                     ....+++++++",
"                         ....+++"};
