<?xml version="1.0" encoding="UTF-8" standalone="no"?>
<!-- Created with Inkscape (http://www.inkscape.org/) -->

<svg
   xmlns:dc="http://purl.org/dc/elements/1.1/"
   xmlns:cc="http://creativecommons.org/ns#"
   xmlns:rdf="http://www.w3.org/1999/02/22-rdf-syntax-ns#"
   xmlns:svg="http://www.w3.org/2000/svg"
   xmlns="http://www.w3.org/2000/svg"
   xmlns:sodipodi="http://sodipodi.sourceforge.net/DTD/sodipodi-0.dtd"
   xmlns:inkscape="http://www.inkscape.org/namespaces/inkscape"
   width="164.78035mm"
   height="156.07774mm"
   viewBox="0 0 164.78035 156.07774"
   version="1.1"
   id="svg8"
   inkscape:version="0.92.5 (2060ec1f9f, 2020-04-08)"
   sodipodi:docname="octagon.svg">
  <defs
     id="defs2" />
  <sodipodi:namedview
     id="base"
     pagecolor="#ffffff"
     bordercolor="#666666"
     borderopacity="1.0"
     inkscape:pageopacity="0.0"
     inkscape:pageshadow="2"
     inkscape:zoom="0.175"
     inkscape:cx="1853.5869"
     inkscape:cy="-383.83658"
     inkscape:document-units="mm"
     inkscape:current-layer="layer1"
     showgrid="false"
     inkscape:window-width="1920"
     inkscape:window-height="1043"
     inkscape:window-x="1920"
     inkscape:window-y="0"
     inkscape:window-maximized="1"
     inkscape:snap-global="false" />
  <metadata
     id="metadata5">
    <rdf:RDF>
      <cc:Work
         rdf:about="">
        <dc:format>image/svg+xml</dc:format>
        <dc:type
           rdf:resource="http://purl.org/dc/dcmitype/StillImage" />
        <dc:title />
      </cc:Work>
    </rdf:RDF>
  </metadata>
  <g
     inkscape:label="Layer 1"
     inkscape:groupmode="layer"
     id="layer1"
     transform="translate(-11.848595,-14.534024)">
    <g
       id="g6409"
       transform="translate(0.37797619,-77.863095)">
      <g
         transform="rotate(22.619593,93.824738,170.85044)"
         id="g5329">
        <path
           style="opacity:1;fill:#000000;fill-opacity:1;stroke:none;stroke-width:0;stroke-linecap:round;stroke-linejoin:round;stroke-miterlimit:4;stroke-dasharray:none;stroke-dashoffset:0;stroke-opacity:1;paint-order:stroke markers fill"
           id="path4759"
           d="m 67.909087,111.40426 c 0.15285,0.15806 0.300985,0.31908 0.462936,0.4686 0.695317,0.57384 1.508345,0.98126 2.311527,1.37973 1.491406,0.71788 3.068648,1.22276 4.65445,1.68305 2.061625,0.59347 4.179419,0.93422 6.3051,1.19322 2.426123,0.27854 4.868553,0.33413 7.308083,0.32892 2.481725,-0.01 4.954508,-0.22484 7.419122,-0.49712 2.184019,-0.24192 4.353055,-0.59224 6.512955,-0.99246 1.67269,-0.31601 3.33058,-0.70268 4.97664,-1.13518 1.24205,-0.32639 2.46421,-0.72084 3.67311,-1.15278 0.91499,-0.32875 1.80999,-0.70891 2.70953,-1.07689 0.64138,-0.27075 1.29182,-0.51909 1.93581,-0.78342 0.38757,-0.17948 0.79264,-0.30223 1.21008,-0.38664 0.008,-0.002 0.0314,0.1094 0.0236,0.11106 v 0 c -0.36689,0.24265 -0.74728,0.46177 -1.15444,0.63102 -0.63896,0.29429 -1.27057,0.6044 -1.91407,0.88886 -0.89648,0.40482 -1.80188,0.79002 -2.71935,1.14498 -1.21795,0.46138 -2.45018,0.88427 -3.70245,1.24363 -1.6561,0.4739 -3.32401,0.90702 -5.01053,1.25989 -2.17414,0.45217 -4.362275,0.83752 -6.567353,1.10613 -2.490472,0.28936 -4.991107,0.49685 -7.500622,0.49193 -2.467372,-0.007 -4.938006,-0.0804 -7.387019,-0.40604 -2.148371,-0.3078 -4.288207,-0.69621 -6.362557,-1.34875 -1.596061,-0.51409 -3.181394,-1.0817 -4.661421,-1.87953 -0.806283,-0.4553 -1.623422,-0.92838 -2.256306,-1.61739 -0.146044,-0.17744 -0.317283,-0.3697 -0.35303,-0.60549 -0.0035,-0.006 0.08274,-0.0554 0.08623,-0.0493 z"
           inkscape:connector-curvature="0" />
        <path
           style="opacity:1;fill:#000000;fill-opacity:1;stroke:none;stroke-width:0;stroke-linecap:round;stroke-linejoin:round;stroke-miterlimit:4;stroke-dasharray:none;stroke-dashoffset:0;stroke-opacity:1;paint-order:stroke markers fill"
           id="path4759-8"
           d="m 33.608483,147.07802 c 0.219847,0.004 0.438452,0.0128 0.658696,0.004 0.897429,-0.0859 1.760416,-0.3727 2.610113,-0.65888 1.562201,-0.54696 3.034485,-1.30523 4.481285,-2.10109 1.87744,-1.03814 3.61589,-2.2947 5.30211,-3.61464 1.91249,-1.51858 3.67886,-3.20633 5.40018,-4.93502 1.74777,-1.76191 3.34439,-3.66236 4.8946,-5.59763 1.37327,-1.7154 2.6593,-3.49685 3.90358,-5.30713 0.95932,-1.40623 1.85821,-2.85195 2.71632,-4.32171 0.64747,-1.10905 1.23275,-2.25217 1.78215,-3.41242 0.41453,-0.87946 0.77857,-1.78113 1.15444,-2.6774 0.26207,-0.64497 0.5464,-1.2805 0.81487,-1.92279 0.14713,-0.40096 0.34676,-0.77418 0.58226,-1.12905 0.004,-0.007 0.0996,0.0551 0.0952,0.0618 v 0 c -0.0879,0.43102 -0.20189,0.85494 -0.37012,1.26251 -0.24372,0.65992 -0.47106,1.32581 -0.72493,1.98197 -0.34765,0.92016 -0.7155,1.83276 -1.11325,2.7325 -0.53498,1.18747 -1.10726,2.35781 -1.73864,3.4974 -0.83595,1.50615 -1.70908,2.9918 -2.65211,4.43387 -1.21762,1.85708 -2.49238,3.6768 -3.86167,5.42597 -1.55642,1.96563 -3.17792,3.88057 -4.95589,5.65158 -1.74965,1.73975 -3.54855,3.43485 -5.51053,4.9363 -1.73677,1.30148 -3.52451,2.53993 -5.45271,3.5453 -1.49211,0.76507 -3.014467,1.48471 -4.625156,1.96709 -0.892074,0.24818 -1.804396,0.49147 -2.739116,0.45178 -0.228738,-0.0222 -0.485771,-0.0371 -0.677776,-0.17851 -0.0067,-0.002 0.01933,-0.0977 0.02611,-0.0958 z"
           inkscape:connector-curvature="0" />
        <path
           style="opacity:1;fill:#000000;fill-opacity:1;stroke:none;stroke-width:0;stroke-linecap:round;stroke-linejoin:round;stroke-miterlimit:4;stroke-dasharray:none;stroke-dashoffset:0;stroke-opacity:1;paint-order:stroke markers fill"
           id="path4759-8-5"
           d="m 34.468449,196.58097 c 0.15828,-0.15262 0.31909,-0.30098 0.4686,-0.46294 0.57383,-0.69532 0.98126,-1.50834 1.37972,-2.31152 0.71789,-1.4914 1.22278,-3.06865 1.68306,-4.65445 0.59347,-2.06163 0.93422,-4.17942 1.19322,-6.30509 0.27854,-2.42614 0.33413,-4.86857 0.32892,-7.30809 -0.01,-2.48172 -0.22484,-4.95452 -0.49712,-7.41913 -0.24192,-2.18402 -0.59224,-4.35306 -0.99246,-6.51296 -0.31601,-1.67269 -0.70268,-3.33058 -1.13518,-4.97663 -0.32639,-1.24205 -0.72084,-2.46422 -1.15278,-3.67312 -0.32875,-0.91499 -0.70891,-1.80998 -1.07689,-2.70952 -0.27075,-0.64137 -0.51909,-1.29181 -0.78342,-1.93582 -0.17948,-0.38756 -0.30223,-0.79262 -0.38664,-1.21008 -0.002,-0.008 0.10939,-0.0315 0.11102,-0.0236 v 0 c 0.24262,0.36693 0.46177,0.74729 0.63101,1.15444 0.2943,0.63897 0.6044,1.27058 0.88887,1.91407 0.40482,0.89647 0.79002,1.80189 1.14498,2.71935 0.46138,1.21796 0.88427,2.45018 1.24363,3.70244 0.4739,1.65612 0.90702,3.32403 1.25989,5.01055 0.45217,2.17414 0.83751,4.36227 1.10613,6.56735 0.28936,2.49047 0.49685,4.99111 0.49193,7.50061 -0.007,2.46738 -0.0804,4.93801 -0.40604,7.38703 -0.3078,2.14837 -0.69621,4.2882 -1.34875,6.36255 -0.51409,1.59607 -1.0817,3.1814 -1.87954,4.66143 -0.4553,0.80627 -0.92837,1.62341 -1.61738,2.2563 -0.17744,0.14604 -0.36973,0.31726 -0.60549,0.35303 -0.006,0.004 -0.0554,-0.0827 -0.0493,-0.0862 z"
           inkscape:connector-curvature="0" />
        <path
           style="opacity:1;fill:#000000;fill-opacity:1;stroke:none;stroke-width:0;stroke-linecap:round;stroke-linejoin:round;stroke-miterlimit:4;stroke-dasharray:none;stroke-dashoffset:0;stroke-opacity:1;paint-order:stroke markers fill"
           id="path4759-8-5-0"
           d="m 70.129709,231.06297 c 0.004,-0.21984 0.0128,-0.43846 0.004,-0.6587 -0.0859,-0.89742 -0.3727,-1.76041 -0.65888,-2.6101 -0.54696,-1.5622 -1.30523,-3.0345 -2.10109,-4.48129 -1.03815,-1.87744 -2.29471,-3.61589 -3.61464,-5.30211 -1.51858,-1.9125 -3.20633,-3.67887 -4.93502,-5.40018 -1.76191,-1.74777 -3.66236,-3.34439 -5.59763,-4.8946 -1.7154,-1.37327 -3.49686,-2.6593 -5.30714,-3.90359 -1.40622,-0.95931 -2.85194,-1.8582 -4.3217,-2.71631 -1.10905,-0.64747 -2.25218,-1.23276 -3.41243,-1.78215 -0.87945,-0.41453 -1.78112,-0.77857 -2.67739,-1.15444 -0.64497,-0.26207 -1.2805,-0.5464 -1.9228,-0.81487 -0.40095,-0.14714 -0.77417,-0.34676 -1.12905,-0.58226 -0.007,-0.004 0.0551,-0.0996 0.0618,-0.0952 v 0 c 0.43102,0.0879 0.85493,0.20189 1.2625,0.37012 0.65992,0.24371 1.32581,0.47106 1.98198,0.72492 0.92015,0.34765 1.83276,0.7155 2.73249,1.11325 1.18748,0.53498 2.35782,1.10727 3.4974,1.73864 1.50616,0.83596 2.99181,1.70909 4.43387,2.65212 1.85709,1.21761 3.6768,2.49238 5.42597,3.86166 1.96564,1.55642 3.88058,3.17793 5.65158,4.95589 1.73975,1.74965 3.43485,3.54855 4.93631,5.51053 1.30148,1.73678 2.53992,3.52451 3.54529,5.45271 0.76508,1.49211 1.48471,3.01447 1.96709,4.62517 0.24818,0.89206 0.49147,1.80438 0.45179,2.7391 -0.0222,0.22874 -0.0371,0.48578 -0.17852,0.67778 -10e-4,0.007 -0.0976,-0.0193 -0.0958,-0.0261 z"
           inkscape:connector-curvature="0" />
        <path
           style="opacity:1;fill:#000000;fill-opacity:1;stroke:none;stroke-width:0;stroke-linecap:round;stroke-linejoin:round;stroke-miterlimit:4;stroke-dasharray:none;stroke-dashoffset:0;stroke-opacity:1;paint-order:stroke markers fill"
           id="path4759-8-5-0-9"
           d="m 119.72844,230.2291 c -0.15262,-0.15828 -0.30098,-0.31908 -0.46293,-0.46859 -0.69532,-0.57384 -1.50834,-0.98126 -2.31153,-1.37973 -1.4914,-0.71788 -3.06864,-1.22277 -4.65444,-1.68306 -2.06163,-0.59346 -4.17942,-0.93421 -6.30509,-1.19321 -2.42614,-0.27855 -4.86858,-0.33415 -7.308088,-0.32892 -2.48172,0.01 -4.95453,0.22483 -7.41913,0.49711 -2.18402,0.24192 -4.35307,0.59224 -6.512973,0.99246 -1.67269,0.31601 -3.33058,0.70268 -4.97663,1.13518 -1.24205,0.32639 -2.46422,0.72084 -3.67312,1.15278 -0.91498,0.32875 -1.80997,0.70891 -2.70951,1.07689 -0.64138,0.27075 -1.29182,0.51909 -1.93583,0.78343 -0.38756,0.17947 -0.79262,0.30222 -1.21008,0.38664 -0.008,0.002 -0.0315,-0.10939 -0.0236,-0.11102 v 0 c 0.36693,-0.24262 0.74728,-0.46177 1.15443,-0.63101 0.63896,-0.2943 1.27058,-0.6044 1.91407,-0.88887 0.89647,-0.40482 1.80189,-0.79002 2.71935,-1.14498 1.21796,-0.46139 2.45019,-0.88427 3.70244,-1.24363 1.65613,-0.4739 3.32404,-0.90702 5.01055,-1.25989 2.174143,-0.45218 4.362273,-0.83751 6.567353,-1.10613 2.49047,-0.28936 4.99112,-0.49685 7.50061,-0.49193 2.467378,0.007 4.938018,0.0804 7.387028,0.40604 2.14838,0.30781 4.28821,0.69621 6.36255,1.34875 1.59607,0.51408 3.1814,1.0817 4.66144,1.87955 0.80626,0.45528 1.6234,0.92836 2.25629,1.61736 0.14604,0.17745 0.31726,0.36974 0.35304,0.60551 0.004,0.006 -0.0827,0.0554 -0.0862,0.0493 z"
           inkscape:connector-curvature="0" />
        <path
           style="opacity:1;fill:#000000;fill-opacity:1;stroke:none;stroke-width:0;stroke-linecap:round;stroke-linejoin:round;stroke-miterlimit:4;stroke-dasharray:none;stroke-dashoffset:0;stroke-opacity:1;paint-order:stroke markers fill"
           id="path4759-8-5-0-9-6"
           d="m 154.12423,194.61715 c -0.21984,-0.004 -0.43845,-0.0128 -0.65868,-0.004 -0.89743,0.0859 -1.76041,0.37271 -2.61012,0.65889 -1.56219,0.54696 -3.03448,1.30522 -4.48128,2.10108 -1.87744,1.03815 -3.61589,2.29471 -5.3021,3.61464 -1.91251,1.51858 -3.67889,3.20633 -5.40019,4.93502 -1.74777,1.76191 -3.3444,3.66236 -4.8946,5.59763 -1.37327,1.7154 -2.65931,3.49686 -3.90359,5.30714 -0.95932,1.40622 -1.85821,2.85195 -2.71632,4.3217 -0.64747,1.10906 -1.23275,2.25218 -1.78215,3.41243 -0.41452,0.87945 -0.77856,1.78112 -1.15443,2.67739 -0.26208,0.64497 -0.54641,1.2805 -0.81487,1.92281 -0.14715,0.40095 -0.34677,0.77416 -0.58226,1.12905 -0.004,0.007 -0.0996,-0.0551 -0.0952,-0.0618 v 0 c 0.0879,-0.43102 0.20188,-0.85493 0.37011,-1.2625 0.24371,-0.65991 0.47106,-1.32581 0.72493,-1.98197 0.34764,-0.92015 0.7155,-1.83276 1.11324,-2.7325 0.53498,-1.18748 1.10728,-2.35782 1.73864,-3.4974 0.83597,-1.50616 1.7091,-2.99181 2.65212,-4.43387 1.21761,-1.85709 2.49238,-3.6768 3.86167,-5.42597 1.55642,-1.96563 3.17793,-3.88058 4.95588,-5.65158 1.74965,-1.73975 3.54856,-3.43485 5.51053,-4.9363 1.73679,-1.30148 3.52452,-2.53993 5.45272,-3.54529 1.4921,-0.76509 3.01446,-1.48472 4.62518,-1.9671 0.89204,-0.24818 1.80436,-0.49147 2.73908,-0.45179 0.22874,0.0222 0.48578,0.0371 0.6778,0.17852 0.007,0.001 -0.0193,0.0977 -0.0261,0.0958 z"
           inkscape:connector-curvature="0" />
        <path
           style="opacity:1;fill:#000000;fill-opacity:1;stroke:none;stroke-width:0;stroke-linecap:round;stroke-linejoin:round;stroke-miterlimit:4;stroke-dasharray:none;stroke-dashoffset:0;stroke-opacity:1;paint-order:stroke markers fill"
           id="path4759-8-5-0-9-6-3"
           d="m 153.29037,145.01844 c -0.15828,0.15262 -0.31907,0.30097 -0.46858,0.46292 -0.57384,0.69532 -0.98126,1.50833 -1.37974,2.31154 -0.71787,1.49139 -1.22277,3.06863 -1.68305,4.65443 -0.59346,2.06163 -0.93421,4.17942 -1.19321,6.30508 -0.27855,2.42615 -0.33415,4.86859 -0.32892,7.3081 0.01,2.48172 0.22483,4.95453 0.49711,7.41914 0.24192,2.18402 0.59224,4.35307 0.99246,6.51297 0.316,1.67269 0.70268,3.33058 1.13517,4.97662 0.32639,1.24206 0.72085,2.46423 1.15278,3.67313 0.32876,0.91498 0.70892,1.80997 1.07689,2.7095 0.27076,0.64139 0.51909,1.29183 0.78344,1.93584 0.17947,0.38757 0.30221,0.79262 0.38663,1.21007 0.002,0.008 -0.10938,0.0315 -0.11101,0.0236 v 0 c -0.24262,-0.36693 -0.46177,-0.74727 -0.63102,-1.15443 -0.29429,-0.63895 -0.60439,-1.27057 -0.88886,-1.91407 -0.40482,-0.89646 -0.79001,-1.80188 -1.14498,-2.71934 -0.46139,-1.21797 -0.88427,-2.45019 -1.24363,-3.70244 -0.4739,-1.65613 -0.90701,-3.32404 -1.25989,-5.01055 -0.45218,-2.17414 -0.83751,-4.36227 -1.10613,-6.56735 -0.28935,-2.49047 -0.49684,-4.99112 -0.49193,-7.50061 0.007,-2.46739 0.0804,-4.93803 0.40604,-7.38703 0.30782,-2.14839 0.69622,-4.28822 1.34876,-6.36256 0.51407,-1.59607 1.08169,-3.18139 1.87955,-4.66144 0.45528,-0.80626 0.92835,-1.62339 1.61735,-2.25629 0.17745,-0.14603 0.36974,-0.31725 0.60552,-0.35304 0.006,-0.004 0.0554,0.0827 0.0493,0.0862 z"
           inkscape:connector-curvature="0" />
        <path
           style="opacity:1;fill:#000000;fill-opacity:1;stroke:none;stroke-width:0;stroke-linecap:round;stroke-linejoin:round;stroke-miterlimit:4;stroke-dasharray:none;stroke-dashoffset:0;stroke-opacity:1;paint-order:stroke markers fill"
           id="path4759-8-5-0-9-6-3-8"
           d="m 117.41203,110.54435 c -0.004,0.21984 -0.0128,0.43844 -0.004,0.65867 0.0859,0.89744 0.3727,1.76041 0.65889,2.61013 0.54696,1.56219 1.30522,3.03448 2.10108,4.48128 1.03815,1.87743 2.29471,3.61588 3.61464,5.30209 1.51858,1.91251 3.20633,3.67889 4.93502,5.40018 1.76191,1.74777 3.66236,3.3444 5.59763,4.89462 1.7154,1.37327 3.49687,2.6593 5.30715,3.90359 1.40621,0.95932 2.85194,1.8582 4.32168,2.71631 1.10907,0.64748 2.2522,1.23276 3.41244,1.78216 0.87945,0.41452 1.78112,0.77856 2.67738,1.15443 0.64499,0.26207 1.28051,0.54641 1.92282,0.81487 0.40096,0.14715 0.77416,0.34677 1.12904,0.58226 0.007,0.004 -0.0551,0.0996 -0.0618,0.0952 v 0 c -0.43102,-0.0879 -0.85492,-0.20188 -1.2625,-0.37011 -0.6599,-0.24371 -1.3258,-0.47106 -1.98197,-0.72493 -0.92015,-0.34764 -1.83275,-0.7155 -2.73249,-1.11324 -1.18749,-0.53498 -2.35782,-1.10727 -3.4974,-1.73864 -1.50616,-0.83596 -2.99181,-1.7091 -4.43387,-2.65212 -1.85709,-1.21761 -3.6768,-2.49238 -5.42597,-3.86166 -1.96563,-1.55643 -3.88058,-3.17794 -5.65158,-4.95589 -1.73976,-1.74966 -3.43486,-3.54856 -4.9363,-5.51053 -1.30148,-1.7368 -2.53993,-3.52453 -3.5453,-5.45272 -0.76508,-1.49209 -1.48471,-3.01446 -1.96709,-4.62518 -0.24818,-0.89205 -0.49147,-1.80436 -0.45179,-2.73907 0.0222,-0.22874 0.0371,-0.48578 0.17852,-0.67782 0.001,-0.007 0.0977,0.0193 0.0958,0.0261 z"
           inkscape:connector-curvature="0" />
        <ellipse
           style="opacity:1;fill:#000000;fill-opacity:1;stroke:none;stroke-width:0;stroke-linecap:round;stroke-linejoin:round;stroke-miterlimit:4;stroke-dasharray:none;stroke-dashoffset:0;stroke-opacity:1;paint-order:stroke markers fill"
           id="path4866"
           cx="33.435196"
           cy="147.38873"
           rx="2.283556"
           ry="2.3895614" />
        <ellipse
           style="opacity:1;fill:#000000;fill-opacity:1;stroke:none;stroke-width:0;stroke-linecap:round;stroke-linejoin:round;stroke-miterlimit:4;stroke-dasharray:none;stroke-dashoffset:0;stroke-opacity:1;paint-order:stroke markers fill"
           id="path4866-6"
           cx="68.035713"
           cy="111.79166"
           rx="2.283556"
           ry="2.3895614" />
        <ellipse
           style="opacity:1;fill:#000000;fill-opacity:1;stroke:none;stroke-width:0;stroke-linecap:round;stroke-linejoin:round;stroke-miterlimit:4;stroke-dasharray:none;stroke-dashoffset:0;stroke-opacity:1;paint-order:stroke markers fill"
           id="path4866-1"
           cx="117.36161"
           cy="110.84673"
           rx="2.283556"
           ry="2.3895614" />
        <ellipse
           style="opacity:1;fill:#000000;fill-opacity:1;stroke:none;stroke-width:0;stroke-linecap:round;stroke-linejoin:round;stroke-miterlimit:4;stroke-dasharray:none;stroke-dashoffset:0;stroke-opacity:1;paint-order:stroke markers fill"
           id="path4866-15"
           cx="153.26935"
           cy="145.43155"
           rx="2.283556"
           ry="2.3895614" />
        <ellipse
           style="opacity:1;fill:#000000;fill-opacity:1;stroke:none;stroke-width:0;stroke-linecap:round;stroke-linejoin:round;stroke-miterlimit:4;stroke-dasharray:none;stroke-dashoffset:0;stroke-opacity:1;paint-order:stroke markers fill"
           id="path4866-9"
           cx="154.21428"
           cy="194.19048"
           rx="2.283556"
           ry="2.3895614" />
        <ellipse
           style="opacity:1;fill:#000000;fill-opacity:1;stroke:none;stroke-width:0;stroke-linecap:round;stroke-linejoin:round;stroke-miterlimit:4;stroke-dasharray:none;stroke-dashoffset:0;stroke-opacity:1;paint-order:stroke markers fill"
           id="path4866-8"
           cx="119.62946"
           cy="230.09822"
           rx="2.283556"
           ry="2.3895614" />
        <ellipse
           style="opacity:1;fill:#000000;fill-opacity:1;stroke:none;stroke-width:0;stroke-linecap:round;stroke-linejoin:round;stroke-miterlimit:4;stroke-dasharray:none;stroke-dashoffset:0;stroke-opacity:1;paint-order:stroke markers fill"
           id="path4866-4"
           cx="70.492561"
           cy="230.85417"
           rx="2.283556"
           ry="2.3895614" />
        <ellipse
           style="opacity:1;fill:#000000;fill-opacity:1;stroke:none;stroke-width:0;stroke-linecap:round;stroke-linejoin:round;stroke-miterlimit:4;stroke-dasharray:none;stroke-dashoffset:0;stroke-opacity:1;paint-order:stroke markers fill"
           id="path4866-81"
           cx="34.58482"
           cy="196.64732"
           rx="2.283556"
           ry="2.3895614" />
      </g>
      <g
         transform="translate(79.752976,72.193452)"
         id="g4962">
        <g
           style="font-style:normal;font-variant:normal;font-weight:normal;font-stretch:normal;letter-spacing:normal;word-spacing:normal;text-anchor:start;fill:none;fill-opacity:1;fill-rule:evenodd;stroke:#000000;stroke-linecap:butt;stroke-linejoin:miter;stroke-miterlimit:10.43299961;stroke-dasharray:none;stroke-dashoffset:0;stroke-opacity:1"
           id="content"
           transform="matrix(0.3,0,0,-0.3,-52.5,222.75)"
           xml:space="preserve"
           stroke-miterlimit="10.433"
           font-style="normal"
           font-variant="normal"
           font-weight="normal"
           font-stretch="normal"
           font-size-adjust="none"
           letter-spacing="normal"
           word-spacing="normal"><path
             style="fill:#000000;stroke-width:0"
             inkscape:connector-curvature="0"
             d="m 462.14,410.34 0.25,0.27 0.24,0.25 0.24,0.25 0.23,0.24 0.22,0.23 0.22,0.22 0.21,0.22 0.2,0.21 0.2,0.2 0.2,0.19 0.19,0.19 0.19,0.19 0.18,0.17 0.19,0.18 0.35,0.33 0.34,0.32 0.33,0.3 0.33,0.29 0.32,0.29 0.65,0.56 0.33,0.29 0.33,0.28 c 0,0.05 3.08,2.69 4.88,4.49 4.73,4.64 5.83,7.03 5.83,7.21 0,0.5 -0.46,0.5 -0.55,0.5 -0.35,0 -0.5,-0.09 -0.75,-0.54 -1.49,-2.39 -2.53,-3.19 -3.74,-3.19 -1.2,0 -1.79,0.75 -2.54,1.59 -0.94,1.16 -1.78,2.14 -3.44,2.14 -3.73,0 -6.02,-4.62 -6.02,-5.67 0,-0.25 0.14,-0.54 0.6,-0.54 0.45,0 0.54,0.25 0.64,0.54 0.95,2.3 3.84,2.35 4.23,2.35 1.05,0 2,-0.36 3.14,-0.75 2,-0.75 2.55,-0.75 3.85,-0.75 -1.8,-2.14 -5.99,-5.74 -6.92,-6.53 l -4.49,-4.18 c -3.39,-3.34 -5.14,-6.18 -5.14,-6.53 0,-0.5 0.5,-0.5 0.59,-0.5 0.41,0 0.5,0.1 0.8,0.64 1.16,1.75 2.64,3.1 4.24,3.1 1.15,0 1.65,-0.46 2.89,-1.89 0.86,-1.05 1.75,-1.85 3.18,-1.85 4.94,0 7.83,6.33 7.83,7.67 0,0.25 -0.2,0.5 -0.59,0.5 -0.46,0 -0.55,-0.29 -0.71,-0.65 -1.14,-3.24 -4.32,-4.17 -5.98,-4.17 -0.98,0 -1.89,0.29 -2.94,0.64 -1.68,0.64 -2.43,0.84 -3.48,0.84 -0.1,0 -0.89,0 -1.35,-0.14 z"
             id="path4957" /><path
             style="fill:#000000;stroke-width:0"
             inkscape:connector-curvature="0"
             d="m 496.66,409.87 v 0.71 l -0.02,0.68 -0.03,0.66 -0.04,0.64 -0.06,0.62 -0.07,0.6 -0.09,0.57 -0.11,0.56 -0.13,0.55 -0.15,0.53 -0.17,0.51 -0.19,0.5 -0.21,0.49 -0.24,0.48 -0.26,0.47 -0.14,0.23 -0.15,0.23 c -1.08,1.61 -3.23,3 -6.03,3 v -0.98 c 1.89,0 3.7,-1.14 4.33,-3.17 0.56,-1.88 0.59,-4.39 0.59,-7.43 0,-2.57 0,-5.15 -0.45,-7.34 -0.7,-3.17 -3.06,-3.94 -4.47,-3.94 v 0 c -1.59,0 -3.72,0.94 -4.42,3.8 -0.49,2.05 -0.49,4.91 -0.49,7.48 0,2.55 0,5.21 0.52,7.11 0.73,2.75 2.97,3.49 4.39,3.49 v 0.98 c -8.08,0 -8.08,-9.51 -8.08,-12.03 0,-2.5 0,-11.81 8.08,-11.81 8.09,0 8.09,9.31 8.09,11.81 z"
             id="path4959" /></g>      </g>
      <g
         transform="translate(57.452381,20.032738)"
         id="g4999">
        <g
           style="font-style:normal;font-variant:normal;font-weight:normal;font-stretch:normal;letter-spacing:normal;word-spacing:normal;text-anchor:start;fill:none;fill-opacity:1;fill-rule:evenodd;stroke:#000000;stroke-linecap:butt;stroke-linejoin:miter;stroke-miterlimit:10.43299961;stroke-dasharray:none;stroke-dashoffset:0;stroke-opacity:1"
           id="g4997"
           transform="matrix(0.3,0,0,-0.3,-52.5,222.75)"
           xml:space="preserve"
           stroke-miterlimit="10.433"
           font-style="normal"
           font-variant="normal"
           font-weight="normal"
           font-stretch="normal"
           font-size-adjust="none"
           letter-spacing="normal"
           word-spacing="normal"><path
             style="fill:#000000;stroke-width:0"
             inkscape:connector-curvature="0"
             d="m 462.14,410.34 0.25,0.27 0.24,0.25 0.24,0.25 0.23,0.24 0.22,0.23 0.22,0.22 0.21,0.22 0.2,0.21 0.2,0.2 0.2,0.19 0.19,0.19 0.19,0.19 0.18,0.17 0.19,0.18 0.35,0.33 0.34,0.32 0.33,0.3 0.33,0.29 0.32,0.29 0.65,0.56 0.33,0.29 0.33,0.28 c 0,0.05 3.08,2.69 4.88,4.49 4.73,4.64 5.83,7.03 5.83,7.21 0,0.5 -0.46,0.5 -0.55,0.5 -0.35,0 -0.5,-0.09 -0.75,-0.54 -1.49,-2.39 -2.53,-3.19 -3.74,-3.19 -1.2,0 -1.79,0.75 -2.54,1.59 -0.94,1.16 -1.78,2.14 -3.44,2.14 -3.73,0 -6.02,-4.62 -6.02,-5.67 0,-0.25 0.14,-0.54 0.6,-0.54 0.45,0 0.54,0.25 0.64,0.54 0.95,2.3 3.84,2.35 4.23,2.35 1.05,0 2,-0.36 3.14,-0.75 2,-0.75 2.55,-0.75 3.85,-0.75 -1.8,-2.14 -5.99,-5.74 -6.92,-6.53 l -4.49,-4.18 c -3.39,-3.34 -5.14,-6.18 -5.14,-6.53 0,-0.5 0.5,-0.5 0.59,-0.5 0.41,0 0.5,0.1 0.8,0.64 1.16,1.75 2.64,3.1 4.24,3.1 1.15,0 1.65,-0.46 2.89,-1.89 0.86,-1.05 1.75,-1.85 3.18,-1.85 4.94,0 7.83,6.33 7.83,7.67 0,0.25 -0.2,0.5 -0.59,0.5 -0.46,0 -0.55,-0.29 -0.71,-0.65 -1.14,-3.24 -4.32,-4.17 -5.98,-4.17 -0.98,0 -1.89,0.29 -2.94,0.64 -1.68,0.64 -2.43,0.84 -3.48,0.84 -0.1,0 -0.89,0 -1.35,-0.14 z"
             id="path4993" /><path
             style="fill:#000000;stroke-width:0"
             inkscape:connector-curvature="0"
             d="m 490.35,420.92 v 0.04 0.04 0.05 0.04 0.03 0.04 0.04 0.03 0.04 l -0.01,0.03 v 0.03 0.03 0.03 l -0.01,0.03 v 0.03 0.02 l -0.01,0.03 v 0.02 l -0.01,0.03 v 0.02 l -0.02,0.04 -0.01,0.04 -0.02,0.03 -0.02,0.03 -0.02,0.03 -0.02,0.03 -0.03,0.02 -0.03,0.02 -0.03,0.02 -0.04,0.01 -0.04,0.01 -0.05,0.02 h -0.02 -0.02 l -0.03,0.01 h -0.03 l -0.02,0.01 h -0.03 -0.03 -0.03 -0.03 l -0.04,0.01 h -0.03 -0.04 -0.03 -0.04 -0.04 -0.04 -0.04 -0.05 -0.04 -0.05 c -2.23,-2.2 -5.39,-2.23 -6.82,-2.23 v -1.25 c 0.84,0 3.14,0 5.04,0.97 v -17.77 c 0,-1.16 0,-1.61 -3.48,-1.61 h -1.31 v -1.25 c 0.62,0.03 4.9,0.14 6.2,0.14 1.08,0 5.47,-0.11 6.23,-0.14 v 1.25 h -1.32 c -3.49,0 -3.49,0.45 -3.49,1.61 z"
             id="path4995" /></g>      </g>
      <g
         transform="translate(1.511905,-1.8898809)"
         id="g5040">
        <g
           style="font-style:normal;font-variant:normal;font-weight:normal;font-stretch:normal;letter-spacing:normal;word-spacing:normal;text-anchor:start;fill:none;fill-opacity:1;fill-rule:evenodd;stroke:#000000;stroke-linecap:butt;stroke-linejoin:miter;stroke-miterlimit:10.43299961;stroke-dasharray:none;stroke-dashoffset:0;stroke-opacity:1"
           id="g5038"
           transform="matrix(0.3,0,0,-0.3,-52.5,222.75)"
           xml:space="preserve"
           stroke-miterlimit="10.433"
           font-style="normal"
           font-variant="normal"
           font-weight="normal"
           font-stretch="normal"
           font-size-adjust="none"
           letter-spacing="normal"
           word-spacing="normal"><path
             style="fill:#000000;stroke-width:0"
             inkscape:connector-curvature="0"
             d="m 462.14,410.34 0.25,0.27 0.24,0.25 0.24,0.25 0.23,0.24 0.22,0.23 0.22,0.22 0.21,0.22 0.2,0.21 0.2,0.2 0.2,0.19 0.19,0.19 0.19,0.19 0.18,0.17 0.19,0.18 0.35,0.33 0.34,0.32 0.33,0.3 0.33,0.29 0.32,0.29 0.65,0.56 0.33,0.29 0.33,0.28 c 0,0.05 3.08,2.69 4.88,4.49 4.73,4.64 5.83,7.03 5.83,7.21 0,0.5 -0.46,0.5 -0.55,0.5 -0.35,0 -0.5,-0.09 -0.75,-0.54 -1.49,-2.39 -2.53,-3.19 -3.74,-3.19 -1.2,0 -1.79,0.75 -2.54,1.59 -0.94,1.16 -1.78,2.14 -3.44,2.14 -3.73,0 -6.02,-4.62 -6.02,-5.67 0,-0.25 0.14,-0.54 0.6,-0.54 0.45,0 0.54,0.25 0.64,0.54 0.95,2.3 3.84,2.35 4.23,2.35 1.05,0 2,-0.36 3.14,-0.75 2,-0.75 2.55,-0.75 3.85,-0.75 -1.8,-2.14 -5.99,-5.74 -6.92,-6.53 l -4.49,-4.18 c -3.39,-3.34 -5.14,-6.18 -5.14,-6.53 0,-0.5 0.5,-0.5 0.59,-0.5 0.41,0 0.5,0.1 0.8,0.64 1.16,1.75 2.64,3.1 4.24,3.1 1.15,0 1.65,-0.46 2.89,-1.89 0.86,-1.05 1.75,-1.85 3.18,-1.85 4.94,0 7.83,6.33 7.83,7.67 0,0.25 -0.2,0.5 -0.59,0.5 -0.46,0 -0.55,-0.29 -0.71,-0.65 -1.14,-3.24 -4.32,-4.17 -5.98,-4.17 -0.98,0 -1.89,0.29 -2.94,0.64 -1.68,0.64 -2.43,0.84 -3.48,0.84 -0.1,0 -0.89,0 -1.35,-0.14 z"
             id="path5034" /><path
             style="fill:#000000;stroke-width:0"
             inkscape:connector-curvature="0"
             d="m 496.27,405.11 h -1.18 c -0.1,-0.77 -0.46,-2.83 -0.91,-3.18 -0.27,-0.2 -2.95,-0.2 -3.44,-0.2 h -6.42 c 3.66,3.23 4.88,4.2 6.97,5.84 2.58,2.07 4.98,4.22 4.98,7.54 0,4.21 -3.68,6.79 -8.15,6.79 -4.32,0 -7.25,-3.03 -7.25,-6.23 0,-1.78 1.5,-1.96 1.86,-1.96 0.82,0 1.84,0.6 1.84,1.85 0,0.62 -0.25,1.84 -2.06,1.84 1.08,2.47 3.45,3.24 5.09,3.24 3.49,0 5.3,-2.71 5.3,-5.53 0,-3.04 -2.16,-5.44 -3.28,-6.69 l -8.39,-8.3 c -0.36,-0.31 -0.36,-0.39 -0.36,-1.36 h 14.36 z"
             id="path5036" /></g>      </g>
      <g
         transform="translate(-53.672619,19.276786)"
         id="g5085">
        <g
           style="font-style:normal;font-variant:normal;font-weight:normal;font-stretch:normal;letter-spacing:normal;word-spacing:normal;text-anchor:start;fill:none;fill-opacity:1;fill-rule:evenodd;stroke:#000000;stroke-linecap:butt;stroke-linejoin:miter;stroke-miterlimit:10.43299961;stroke-dasharray:none;stroke-dashoffset:0;stroke-opacity:1"
           id="g5083"
           transform="matrix(0.3,0,0,-0.3,-52.5,222.75)"
           xml:space="preserve"
           stroke-miterlimit="10.433"
           font-style="normal"
           font-variant="normal"
           font-weight="normal"
           font-stretch="normal"
           font-size-adjust="none"
           letter-spacing="normal"
           word-spacing="normal"><path
             style="fill:#000000;stroke-width:0"
             inkscape:connector-curvature="0"
             d="m 462.14,410.34 0.25,0.27 0.24,0.25 0.24,0.25 0.23,0.24 0.22,0.23 0.22,0.22 0.21,0.22 0.2,0.21 0.2,0.2 0.2,0.19 0.19,0.19 0.19,0.19 0.18,0.17 0.19,0.18 0.35,0.33 0.34,0.32 0.33,0.3 0.33,0.29 0.32,0.29 0.65,0.56 0.33,0.29 0.33,0.28 c 0,0.05 3.08,2.69 4.88,4.49 4.73,4.64 5.83,7.03 5.83,7.21 0,0.5 -0.46,0.5 -0.55,0.5 -0.35,0 -0.5,-0.09 -0.75,-0.54 -1.49,-2.39 -2.53,-3.19 -3.74,-3.19 -1.2,0 -1.79,0.75 -2.54,1.59 -0.94,1.16 -1.78,2.14 -3.44,2.14 -3.73,0 -6.02,-4.62 -6.02,-5.67 0,-0.25 0.14,-0.54 0.6,-0.54 0.45,0 0.54,0.25 0.64,0.54 0.95,2.3 3.84,2.35 4.23,2.35 1.05,0 2,-0.36 3.14,-0.75 2,-0.75 2.55,-0.75 3.85,-0.75 -1.8,-2.14 -5.99,-5.74 -6.92,-6.53 l -4.49,-4.18 c -3.39,-3.34 -5.14,-6.18 -5.14,-6.53 0,-0.5 0.5,-0.5 0.59,-0.5 0.41,0 0.5,0.1 0.8,0.64 1.16,1.75 2.64,3.1 4.24,3.1 1.15,0 1.65,-0.46 2.89,-1.89 0.86,-1.05 1.75,-1.85 3.18,-1.85 4.94,0 7.83,6.33 7.83,7.67 0,0.25 -0.2,0.5 -0.59,0.5 -0.46,0 -0.55,-0.29 -0.71,-0.65 -1.14,-3.24 -4.32,-4.17 -5.98,-4.17 -0.98,0 -1.89,0.29 -2.94,0.64 -1.68,0.64 -2.43,0.84 -3.48,0.84 -0.1,0 -0.89,0 -1.35,-0.14 z"
             id="path5079" /><path
             style="fill:#000000;stroke-width:0"
             inkscape:connector-curvature="0"
             d="m 488.2,410.4 h 0.25 l 0.25,-0.02 0.24,-0.03 0.24,-0.04 0.23,-0.05 0.23,-0.06 0.22,-0.07 0.21,-0.08 0.21,-0.1 0.2,-0.1 0.2,-0.12 0.19,-0.12 0.18,-0.14 0.17,-0.15 0.17,-0.16 0.16,-0.17 0.15,-0.18 0.14,-0.19 0.14,-0.2 0.13,-0.22 0.11,-0.22 0.11,-0.24 0.1,-0.24 0.09,-0.26 0.08,-0.27 0.07,-0.28 0.06,-0.29 0.05,-0.3 0.04,-0.31 0.02,-0.32 0.02,-0.33 0.01,-0.35 c 0,-4.33 -2.52,-5.61 -4.53,-5.61 -1.39,0 -4.47,0.38 -5.93,2.44 1.63,0.06 2.02,1.22 2.02,1.95 0,1.11 -0.84,1.91 -1.92,1.91 -0.97,0 -1.96,-0.59 -1.96,-2.02 0,-3.28 3.63,-5.4 7.85,-5.4 4.84,0 8.19,3.25 8.19,6.73 0,2.72 -2.22,5.44 -6.07,6.24 3.66,1.33 4.99,3.93 4.99,6.06 0,2.75 -3.17,4.81 -7.03,4.81 -3.88,0 -6.83,-1.89 -6.83,-4.67 0,-1.19 0.76,-1.84 1.81,-1.84 1.08,0 1.77,0.79 1.77,1.76 0,1.02 -0.69,1.75 -1.77,1.81 1.22,1.55 3.61,1.93 4.91,1.93 1.56,0 3.76,-0.77 3.76,-3.8 0,-1.47 -0.48,-3.06 -1.39,-4.14 -1.15,-1.33 -2.12,-1.41 -3.87,-1.5 -0.88,-0.08 -0.94,-0.08 -1.11,-0.11 -0.08,0 -0.36,-0.06 -0.36,-0.45 0,-0.49 0.31,-0.49 0.9,-0.49 z"
             id="path5081" /></g>      </g>
      <g
         transform="translate(-73.327381,73.705357)"
         id="g5134">
        <g
           style="font-style:normal;font-variant:normal;font-weight:normal;font-stretch:normal;letter-spacing:normal;word-spacing:normal;text-anchor:start;fill:none;fill-opacity:1;fill-rule:evenodd;stroke:#000000;stroke-linecap:butt;stroke-linejoin:miter;stroke-miterlimit:10.43299961;stroke-dasharray:none;stroke-dashoffset:0;stroke-opacity:1"
           id="g5132"
           transform="matrix(0.3,0,0,-0.3,-52.5,222.75)"
           xml:space="preserve"
           stroke-miterlimit="10.433"
           font-style="normal"
           font-variant="normal"
           font-weight="normal"
           font-stretch="normal"
           font-size-adjust="none"
           letter-spacing="normal"
           word-spacing="normal"><path
             style="fill:#000000;stroke-width:0"
             inkscape:connector-curvature="0"
             d="m 462.14,410.34 0.25,0.27 0.24,0.25 0.24,0.25 0.23,0.24 0.22,0.23 0.22,0.22 0.21,0.22 0.2,0.21 0.2,0.2 0.2,0.19 0.19,0.19 0.19,0.19 0.18,0.17 0.19,0.18 0.35,0.33 0.34,0.32 0.33,0.3 0.33,0.29 0.32,0.29 0.65,0.56 0.33,0.29 0.33,0.28 c 0,0.05 3.08,2.69 4.88,4.49 4.73,4.64 5.83,7.03 5.83,7.21 0,0.5 -0.46,0.5 -0.55,0.5 -0.35,0 -0.5,-0.09 -0.75,-0.54 -1.49,-2.39 -2.53,-3.19 -3.74,-3.19 -1.2,0 -1.79,0.75 -2.54,1.59 -0.94,1.16 -1.78,2.14 -3.44,2.14 -3.73,0 -6.02,-4.62 -6.02,-5.67 0,-0.25 0.14,-0.54 0.6,-0.54 0.45,0 0.54,0.25 0.64,0.54 0.95,2.3 3.84,2.35 4.23,2.35 1.05,0 2,-0.36 3.14,-0.75 2,-0.75 2.55,-0.75 3.85,-0.75 -1.8,-2.14 -5.99,-5.74 -6.92,-6.53 l -4.49,-4.18 c -3.39,-3.34 -5.14,-6.18 -5.14,-6.53 0,-0.5 0.5,-0.5 0.59,-0.5 0.41,0 0.5,0.1 0.8,0.64 1.16,1.75 2.64,3.1 4.24,3.1 1.15,0 1.65,-0.46 2.89,-1.89 0.86,-1.05 1.75,-1.85 3.18,-1.85 4.94,0 7.83,6.33 7.83,7.67 0,0.25 -0.2,0.5 -0.59,0.5 -0.46,0 -0.55,-0.29 -0.71,-0.65 -1.14,-3.24 -4.32,-4.17 -5.98,-4.17 -0.98,0 -1.89,0.29 -2.94,0.64 -1.68,0.64 -2.43,0.84 -3.48,0.84 -0.1,0 -0.89,0 -1.35,-0.14 z"
             id="path5128" /><path
             style="fill:#000000;stroke-width:0"
             inkscape:connector-curvature="0"
             d="m 497.12,404.48 v 1.25 h -3.88 v 15.55 c 0,0.72 0,0.97 -0.76,0.97 -0.43,0 -0.57,0 -0.91,-0.49 l -11.53,-16.03 v -1.25 h 10.25 l 0.23,1.25 h -9.2 l 9.2,12.75 v -12.75 l -0.23,-1.25 v -2.86 c 0,-1.19 0,-1.61 -2.83,-1.61 h -0.94 v -1.25 c 1.74,0.06 3.97,0.14 5.22,0.14 1.3,0 3.52,-0.08 5.27,-0.14 v 1.25 h -0.94 c -2.83,0 -2.83,0.42 -2.83,1.61 v 2.86 z"
             id="path5130" /></g>      </g>
      <g
         transform="translate(-50.64881,126.62202)"
         id="g5187">
        <g
           style="font-style:normal;font-variant:normal;font-weight:normal;font-stretch:normal;letter-spacing:normal;word-spacing:normal;text-anchor:start;fill:none;fill-opacity:1;fill-rule:evenodd;stroke:#000000;stroke-linecap:butt;stroke-linejoin:miter;stroke-miterlimit:10.43299961;stroke-dasharray:none;stroke-dashoffset:0;stroke-opacity:1"
           id="g5185"
           transform="matrix(0.3,0,0,-0.3,-52.5,222.75)"
           xml:space="preserve"
           stroke-miterlimit="10.433"
           font-style="normal"
           font-variant="normal"
           font-weight="normal"
           font-stretch="normal"
           font-size-adjust="none"
           letter-spacing="normal"
           word-spacing="normal"><path
             style="fill:#000000;stroke-width:0"
             inkscape:connector-curvature="0"
             d="m 462.14,410.34 0.25,0.27 0.24,0.25 0.24,0.25 0.23,0.24 0.22,0.23 0.22,0.22 0.21,0.22 0.2,0.21 0.2,0.2 0.2,0.19 0.19,0.19 0.19,0.19 0.18,0.17 0.19,0.18 0.35,0.33 0.34,0.32 0.33,0.3 0.33,0.29 0.32,0.29 0.65,0.56 0.33,0.29 0.33,0.28 c 0,0.05 3.08,2.69 4.88,4.49 4.73,4.64 5.83,7.03 5.83,7.21 0,0.5 -0.46,0.5 -0.55,0.5 -0.35,0 -0.5,-0.09 -0.75,-0.54 -1.49,-2.39 -2.53,-3.19 -3.74,-3.19 -1.2,0 -1.79,0.75 -2.54,1.59 -0.94,1.16 -1.78,2.14 -3.44,2.14 -3.73,0 -6.02,-4.62 -6.02,-5.67 0,-0.25 0.14,-0.54 0.6,-0.54 0.45,0 0.54,0.25 0.64,0.54 0.95,2.3 3.84,2.35 4.23,2.35 1.05,0 2,-0.36 3.14,-0.75 2,-0.75 2.55,-0.75 3.85,-0.75 -1.8,-2.14 -5.99,-5.74 -6.92,-6.53 l -4.49,-4.18 c -3.39,-3.34 -5.14,-6.18 -5.14,-6.53 0,-0.5 0.5,-0.5 0.59,-0.5 0.41,0 0.5,0.1 0.8,0.64 1.16,1.75 2.64,3.1 4.24,3.1 1.15,0 1.65,-0.46 2.89,-1.89 0.86,-1.05 1.75,-1.85 3.18,-1.85 4.94,0 7.83,6.33 7.83,7.67 0,0.25 -0.2,0.5 -0.59,0.5 -0.46,0 -0.55,-0.29 -0.71,-0.65 -1.14,-3.24 -4.32,-4.17 -5.98,-4.17 -0.98,0 -1.89,0.29 -2.94,0.64 -1.68,0.64 -2.43,0.84 -3.48,0.84 -0.1,0 -0.89,0 -1.35,-0.14 z"
             id="path5181" /><path
             style="fill:#000000;stroke-width:0"
             inkscape:connector-curvature="0"
             d="m 484.09,418.2 0.16,-0.04 0.16,-0.04 0.15,-0.04 0.15,-0.03 0.15,-0.03 0.14,-0.03 0.14,-0.03 0.14,-0.02 0.13,-0.03 0.13,-0.02 0.12,-0.02 0.12,-0.01 0.12,-0.02 0.11,-0.01 0.11,-0.02 0.1,-0.01 0.11,-0.01 0.09,-0.01 h 0.1 l 0.09,-0.01 0.09,-0.01 h 0.08 0.09 l 0.07,-0.01 h 0.08 0.07 0.07 0.07 0.06 0.06 0.06 0.05 c 4.59,0 7.31,3.14 7.31,3.67 0,0.37 -0.23,0.48 -0.4,0.48 -0.08,0 -0.14,0 -0.28,-0.11 -0.85,-0.31 -2.69,-1.01 -5.27,-1.01 -0.97,0 -2.83,0.08 -5.09,0.95 -0.35,0.17 -0.41,0.17 -0.46,0.17 -0.45,0 -0.45,-0.39 -0.45,-0.94 v -10.28 c 0,-0.59 0,-1.01 0.56,-1.01 0.32,0 0.35,0.06 0.71,0.48 1.5,1.92 3.62,2.21 4.84,2.21 2.08,0 3.03,-1.68 3.2,-1.96 0.63,-1.15 0.83,-2.47 0.83,-4.5 0,-1.04 0,-3.09 -1.05,-4.62 -0.86,-1.27 -2.36,-2.1 -4.06,-2.1 -2.26,0 -4.61,1.25 -5.48,3.55 1.33,-0.09 1.98,0.77 1.98,1.7 0,1.5 -1.28,1.78 -1.73,1.78 -0.07,0 -1.75,0 -1.75,-1.87 0,-3.14 2.86,-6.28 7.04,-6.28 4.46,0 8.36,3.31 8.36,7.7 0,3.94 -3,7.56 -7.31,7.56 -1.53,0 -3.34,-0.37 -4.87,-1.7 z"
             id="path5183" /></g>      </g>
      <g
         transform="translate(4.5357143,145.14286)"
         id="g5244">
        <g
           style="font-style:normal;font-variant:normal;font-weight:normal;font-stretch:normal;letter-spacing:normal;word-spacing:normal;text-anchor:start;fill:none;fill-opacity:1;fill-rule:evenodd;stroke:#000000;stroke-linecap:butt;stroke-linejoin:miter;stroke-miterlimit:10.43299961;stroke-dasharray:none;stroke-dashoffset:0;stroke-opacity:1"
           id="g5242"
           transform="matrix(0.3,0,0,-0.3,-52.5,222.75)"
           xml:space="preserve"
           stroke-miterlimit="10.433"
           font-style="normal"
           font-variant="normal"
           font-weight="normal"
           font-stretch="normal"
           font-size-adjust="none"
           letter-spacing="normal"
           word-spacing="normal"><path
             style="fill:#000000;stroke-width:0"
             inkscape:connector-curvature="0"
             d="m 462.14,410.34 0.25,0.27 0.24,0.25 0.24,0.25 0.23,0.24 0.22,0.23 0.22,0.22 0.21,0.22 0.2,0.21 0.2,0.2 0.2,0.19 0.19,0.19 0.19,0.19 0.18,0.17 0.19,0.18 0.35,0.33 0.34,0.32 0.33,0.3 0.33,0.29 0.32,0.29 0.65,0.56 0.33,0.29 0.33,0.28 c 0,0.05 3.08,2.69 4.88,4.49 4.73,4.64 5.83,7.03 5.83,7.21 0,0.5 -0.46,0.5 -0.55,0.5 -0.35,0 -0.5,-0.09 -0.75,-0.54 -1.49,-2.39 -2.53,-3.19 -3.74,-3.19 -1.2,0 -1.79,0.75 -2.54,1.59 -0.94,1.16 -1.78,2.14 -3.44,2.14 -3.73,0 -6.02,-4.62 -6.02,-5.67 0,-0.25 0.14,-0.54 0.6,-0.54 0.45,0 0.54,0.25 0.64,0.54 0.95,2.3 3.84,2.35 4.23,2.35 1.05,0 2,-0.36 3.14,-0.75 2,-0.75 2.55,-0.75 3.85,-0.75 -1.8,-2.14 -5.99,-5.74 -6.92,-6.53 l -4.49,-4.18 c -3.39,-3.34 -5.14,-6.18 -5.14,-6.53 0,-0.5 0.5,-0.5 0.59,-0.5 0.41,0 0.5,0.1 0.8,0.64 1.16,1.75 2.64,3.1 4.24,3.1 1.15,0 1.65,-0.46 2.89,-1.89 0.86,-1.05 1.75,-1.85 3.18,-1.85 4.94,0 7.83,6.33 7.83,7.67 0,0.25 -0.2,0.5 -0.59,0.5 -0.46,0 -0.55,-0.29 -0.71,-0.65 -1.14,-3.24 -4.32,-4.17 -5.98,-4.17 -0.98,0 -1.89,0.29 -2.94,0.64 -1.68,0.64 -2.43,0.84 -3.48,0.84 -0.1,0 -0.89,0 -1.35,-0.14 z"
             id="path5238" /><path
             style="fill:#000000;stroke-width:0"
             inkscape:connector-curvature="0"
             d="m 483.91,410.15 0.01,0.53 0.01,0.53 0.01,0.52 0.03,0.51 0.04,0.51 0.05,0.49 0.06,0.49 0.08,0.48 0.09,0.47 0.11,0.46 0.13,0.46 0.14,0.44 0.08,0.22 0.09,0.21 0.09,0.22 0.1,0.21 0.1,0.21 0.11,0.2 0.12,0.2 0.12,0.2 c 1.18,1.9 3.06,3.18 5.29,3.18 1.05,0 2.44,-0.28 3.14,-1.22 -0.87,-0.06 -1.61,-0.66 -1.61,-1.67 0,-0.88 0.6,-1.64 1.65,-1.64 1.04,0 1.67,0.7 1.67,1.7 0,2.03 -1.47,3.84 -4.92,3.84 -5.02,0 -10.15,-4.61 -10.15,-12.09 0,-9.03 4.25,-11.75 8.1,-11.75 4.25,0 7.94,3.25 7.94,7.81 0,4.42 -3.52,7.7 -7.6,7.7 l -0.17,-0.98 c 1.61,0 2.69,-0.63 3.55,-1.91 0.84,-1.32 0.87,-2.79 0.87,-4.81 0,-1.98 0,-3.45 -0.94,-4.81 -0.84,-1.22 -1.95,-1.88 -3.65,-1.88 v 0 c -1.75,0 -3.11,1 -3.85,2.55 -0.51,1.03 -0.79,2.78 -0.79,4.88 0,3.37 2.03,5.98 4.81,5.98 l 0.17,0.98 c -2.78,0 -4.31,-1.84 -5.08,-3.42 z"
             id="path5240" /></g>      </g>
      <g
         transform="translate(58.208333,124.73214)"
         id="g5305">
        <g
           style="font-style:normal;font-variant:normal;font-weight:normal;font-stretch:normal;letter-spacing:normal;word-spacing:normal;text-anchor:start;fill:none;fill-opacity:1;fill-rule:evenodd;stroke:#000000;stroke-linecap:butt;stroke-linejoin:miter;stroke-miterlimit:10.43299961;stroke-dasharray:none;stroke-dashoffset:0;stroke-opacity:1"
           id="g5303"
           transform="matrix(0.3,0,0,-0.3,-52.5,222.75)"
           xml:space="preserve"
           stroke-miterlimit="10.433"
           font-style="normal"
           font-variant="normal"
           font-weight="normal"
           font-stretch="normal"
           font-size-adjust="none"
           letter-spacing="normal"
           word-spacing="normal"><path
             style="fill:#000000;stroke-width:0"
             inkscape:connector-curvature="0"
             d="m 462.14,410.34 0.25,0.27 0.24,0.25 0.24,0.25 0.23,0.24 0.22,0.23 0.22,0.22 0.21,0.22 0.2,0.21 0.2,0.2 0.2,0.19 0.19,0.19 0.19,0.19 0.18,0.17 0.19,0.18 0.35,0.33 0.34,0.32 0.33,0.3 0.33,0.29 0.32,0.29 0.65,0.56 0.33,0.29 0.33,0.28 c 0,0.05 3.08,2.69 4.88,4.49 4.73,4.64 5.83,7.03 5.83,7.21 0,0.5 -0.46,0.5 -0.55,0.5 -0.35,0 -0.5,-0.09 -0.75,-0.54 -1.49,-2.39 -2.53,-3.19 -3.74,-3.19 -1.2,0 -1.79,0.75 -2.54,1.59 -0.94,1.16 -1.78,2.14 -3.44,2.14 -3.73,0 -6.02,-4.62 -6.02,-5.67 0,-0.25 0.14,-0.54 0.6,-0.54 0.45,0 0.54,0.25 0.64,0.54 0.95,2.3 3.84,2.35 4.23,2.35 1.05,0 2,-0.36 3.14,-0.75 2,-0.75 2.55,-0.75 3.85,-0.75 -1.8,-2.14 -5.99,-5.74 -6.92,-6.53 l -4.49,-4.18 c -3.39,-3.34 -5.14,-6.18 -5.14,-6.53 0,-0.5 0.5,-0.5 0.59,-0.5 0.41,0 0.5,0.1 0.8,0.64 1.16,1.75 2.64,3.1 4.24,3.1 1.15,0 1.65,-0.46 2.89,-1.89 0.86,-1.05 1.75,-1.85 3.18,-1.85 4.94,0 7.83,6.33 7.83,7.67 0,0.25 -0.2,0.5 -0.59,0.5 -0.46,0 -0.55,-0.29 -0.71,-0.65 -1.14,-3.24 -4.32,-4.17 -5.98,-4.17 -0.98,0 -1.89,0.29 -2.94,0.64 -1.68,0.64 -2.43,0.84 -3.48,0.84 -0.1,0 -0.89,0 -1.35,-0.14 z"
             id="path5299" /><path
             style="fill:#000000;stroke-width:0"
             inkscape:connector-curvature="0"
             d="m 497.32,419.81 0.03,0.04 0.03,0.03 0.03,0.04 0.02,0.03 0.03,0.03 0.02,0.04 0.02,0.03 0.02,0.03 0.02,0.03 0.01,0.03 0.02,0.03 0.01,0.02 0.01,0.04 0.01,0.03 0.01,0.03 0.01,0.03 0.01,0.04 0.01,0.03 v 0.04 l 0.01,0.04 v 0.04 0.05 l 0.01,0.05 v 0.05 0.05 0.06 0.06 0.07 0.07 0.03 0.04 0.04 0.04 0.04 0.04 h -9.12 c -1.39,0 -1.78,0.03 -3.03,0.14 -1.81,0.14 -1.88,0.39 -1.99,0.98 h -1.18 l -1.22,-7.46 h 1.18 c 0.07,0.53 0.43,2.82 0.97,3.17 0.28,0.22 3.11,0.22 3.63,0.22 h 7.59 c -1.11,-1.47 -2.89,-3.63 -3.61,-4.61 -4.58,-5.99 -4.98,-11.53 -4.98,-13.58 0,-0.39 0,-2 1.62,-2 1.68,0 1.68,1.58 1.68,2.03 v 1.39 c 0,6.77 1.4,9.86 2.9,11.73 z"
             id="path5301" /></g>      </g>
      <g
         transform="translate(65.011905,47.247024)"
         id="g5782">
        <g
           style="font-style:normal;font-variant:normal;font-weight:normal;font-stretch:normal;letter-spacing:normal;word-spacing:normal;text-anchor:start;fill:none;fill-opacity:1;fill-rule:evenodd;stroke:#000000;stroke-linecap:butt;stroke-linejoin:miter;stroke-miterlimit:10.43299961;stroke-dasharray:none;stroke-dashoffset:0;stroke-opacity:1"
           id="g5780"
           transform="matrix(0.3,0,0,-0.3,-52.5,222.75)"
           xml:space="preserve"
           stroke-miterlimit="10.433"
           font-style="normal"
           font-variant="normal"
           font-weight="normal"
           font-stretch="normal"
           font-size-adjust="none"
           letter-spacing="normal"
           word-spacing="normal"><path
             style="fill:#000000;stroke-width:0"
             inkscape:connector-curvature="0"
             d="m 464.44,411.93 -0.19,-0.3 -0.18,-0.29 -0.19,-0.28 -0.19,-0.26 -0.18,-0.25 -0.19,-0.23 -0.19,-0.22 -0.18,-0.21 -0.19,-0.2 -0.19,-0.18 -0.18,-0.17 -0.19,-0.16 -0.19,-0.15 -0.18,-0.14 -0.19,-0.13 -0.19,-0.12 -0.19,-0.11 -0.19,-0.1 -0.19,-0.09 -0.19,-0.09 -0.19,-0.07 -0.2,-0.07 -0.19,-0.07 -0.2,-0.05 -0.19,-0.05 -0.2,-0.04 -0.2,-0.04 -0.19,-0.03 -0.41,-0.05 -0.4,-0.03 c -0.61,-0.05 -1.05,-0.05 -1.05,-1 0,-0.3 0.25,-0.55 0.64,-0.55 1.34,0 2.89,0.16 4.28,0.16 1.64,0 3.39,-0.16 4.99,-0.16 0.29,0 0.95,0 0.95,0.95 0,0.55 -0.45,0.6 -0.8,0.6 -1.15,0.09 -2.34,0.5 -2.34,1.73 0,0.61 0.3,1.16 0.69,1.84 l 3.79,6.39 h 12.5 l -0.14,1.54 h -11.42 l 9.83,16.45 1.59,-16.45 0.14,-1.54 c 0.11,-1.04 0.8,-7.82 0.8,-8.32 0,-1.5 -2.59,-1.64 -3.58,-1.64 -0.7,0 -1.2,0 -1.2,-1 0,-0.55 0.59,-0.55 0.7,-0.55 2.03,0 4.19,0.16 6.22,0.16 1.25,0 4.39,-0.16 5.64,-0.16 0.3,0 0.89,0 0.89,1 0,0.55 -0.5,0.55 -1.14,0.55 -3.09,0 -3.09,0.34 -3.25,1.79 l -3.03,31.13 c -0.11,1 -0.11,1.2 -0.95,1.2 -0.8,0 -0.99,-0.34 -1.3,-0.84 z"
             id="path5778" /></g>      </g>
      <g
         transform="translate(28.72619,13.985119)"
         id="g5848">
        <g
           style="font-style:normal;font-variant:normal;font-weight:normal;font-stretch:normal;letter-spacing:normal;word-spacing:normal;text-anchor:start;fill:none;fill-opacity:1;fill-rule:evenodd;stroke:#000000;stroke-linecap:butt;stroke-linejoin:miter;stroke-miterlimit:10.43299961;stroke-dasharray:none;stroke-dashoffset:0;stroke-opacity:1"
           id="g5846"
           transform="matrix(0.3,0,0,-0.3,-52.5,222.75)"
           xml:space="preserve"
           stroke-miterlimit="10.433"
           font-style="normal"
           font-variant="normal"
           font-weight="normal"
           font-stretch="normal"
           font-size-adjust="none"
           letter-spacing="normal"
           word-spacing="normal"><path
             style="fill:#000000;stroke-width:0"
             inkscape:connector-curvature="0"
             d="m 463.49,410.09 -0.05,-0.18 -0.04,-0.17 -0.05,-0.16 -0.04,-0.15 -0.04,-0.15 -0.05,-0.13 -0.05,-0.13 -0.05,-0.12 -0.05,-0.11 -0.06,-0.11 -0.07,-0.1 -0.07,-0.09 -0.07,-0.09 -0.09,-0.07 -0.09,-0.08 -0.11,-0.06 -0.11,-0.07 -0.13,-0.05 -0.13,-0.05 -0.15,-0.05 -0.16,-0.04 -0.09,-0.02 -0.09,-0.01 -0.09,-0.02 -0.1,-0.02 -0.1,-0.01 -0.1,-0.01 -0.11,-0.01 -0.12,-0.02 -0.11,-0.01 -0.13,-0.01 h -0.12 l -0.13,-0.01 -0.14,-0.01 h -0.14 l -0.14,-0.01 h -0.15 l -0.16,-0.01 h -0.16 -0.16 -0.17 -0.18 -0.18 c -0.85,0 -1.35,0 -1.35,-1 0,-0.55 0.46,-0.55 1.35,-0.55 h 17.78 c 7.87,0 13.75,5.87 13.75,10.76 0,3.58 -2.89,6.47 -7.72,7.02 5.19,0.95 10.42,4.64 10.42,9.38 0,3.68 -3.3,6.87 -9.28,6.87 l -0.69,-1.55 c 4.38,0 5.42,-2.93 5.42,-5.12 0,-4.39 -4.28,-9.13 -10.35,-9.13 h -7.27 l -0.3,-1.09 h 9.41 c 4.78,0 5.73,-3.69 5.73,-5.83 0,-4.94 -4.43,-9.76 -10.31,-9.76 h -6.78 c -0.69,0 -0.8,0 -1.09,0.04 -0.5,0.05 -0.64,0.1 -0.64,0.5 0,0.14 0,0.25 0.25,1.14 l 3.43,13.91 0.3,1.09 3.08,12.36 c 0.45,1.74 0.54,1.89 2.7,1.89 h 6.42 l 0.69,1.55 h -16.73 c -0.94,0 -1.44,0 -1.44,-1 0,-0.55 0.44,-0.55 1.39,-0.55 0.09,0 1.05,0 1.89,-0.09 0.89,-0.11 1.34,-0.16 1.34,-0.8 0,-0.2 -0.04,-0.36 -0.2,-0.95 z"
             id="path5844" /></g>      </g>
      <g
         transform="translate(-20.78869,12.85119)"
         id="g5917">
        <g
           style="font-style:normal;font-variant:normal;font-weight:normal;font-stretch:normal;letter-spacing:normal;word-spacing:normal;text-anchor:start;fill:none;fill-opacity:1;fill-rule:evenodd;stroke:#000000;stroke-linecap:butt;stroke-linejoin:miter;stroke-miterlimit:10.43299961;stroke-dasharray:none;stroke-dashoffset:0;stroke-opacity:1"
           id="g5915"
           transform="matrix(0.3,0,0,-0.3,-52.5,222.75)"
           xml:space="preserve"
           stroke-miterlimit="10.433"
           font-style="normal"
           font-variant="normal"
           font-weight="normal"
           font-stretch="normal"
           font-size-adjust="none"
           letter-spacing="normal"
           word-spacing="normal"><path
             style="fill:#000000;stroke-width:0"
             inkscape:connector-curvature="0"
             d="m 493.38,440.82 v 0.02 0.02 0.01 l -0.01,0.02 v 0.02 0.02 l -0.01,0.02 v 0.02 l -0.01,0.02 -0.01,0.02 -0.01,0.02 v 0.02 l -0.02,0.02 -0.01,0.02 -0.01,0.02 -0.01,0.02 -0.02,0.02 -0.02,0.02 -0.02,0.02 -0.02,0.02 -0.02,0.01 -0.02,0.02 -0.03,0.01 -0.02,0.02 -0.03,0.01 -0.01,0.01 h -0.02 l -0.01,0.01 h -0.02 l -0.02,0.01 h -0.01 -0.02 l -0.02,0.01 h -0.02 -0.02 -0.02 -0.02 -0.02 -0.02 c -0.14,0 -0.2,-0.04 -0.75,-0.59 l -3.48,-3.84 c -0.44,0.7 -2.74,4.43 -8.27,4.43 -11.11,0 -22.33,-11.01 -22.33,-22.56 0,-8.23 5.89,-13.65 13.52,-13.65 4.33,0 8.11,1.98 10.75,4.28 4.64,4.09 5.48,8.62 5.48,8.76 0,0.5 -0.5,0.5 -0.59,0.5 -0.3,0 -0.55,-0.09 -0.66,-0.5 -0.43,-1.44 -1.59,-4.98 -5.03,-7.87 -3.43,-2.78 -6.58,-3.63 -9.15,-3.63 -4.49,0 -9.77,2.6 -9.77,10.36 0,2.85 1.05,10.91 6.02,16.74 3.04,3.54 7.73,6.03 12.15,6.03 5.1,0 8.03,-3.83 8.03,-9.61 0,-2 -0.15,-2.05 -0.15,-2.55 0,-0.5 0.54,-0.5 0.75,-0.5 0.64,0 0.64,0.11 0.89,1 z"
             id="path5913" /></g>      </g>
      <g
         transform="translate(-56.318452,48.380952)"
         id="g5989">
        <g
           style="font-style:normal;font-variant:normal;font-weight:normal;font-stretch:normal;letter-spacing:normal;word-spacing:normal;text-anchor:start;fill:none;fill-opacity:1;fill-rule:evenodd;stroke:#000000;stroke-linecap:butt;stroke-linejoin:miter;stroke-miterlimit:10.43299961;stroke-dasharray:none;stroke-dashoffset:0;stroke-opacity:1"
           id="g5987"
           transform="matrix(0.3,0,0,-0.3,-52.5,222.75)"
           xml:space="preserve"
           stroke-miterlimit="10.433"
           font-style="normal"
           font-variant="normal"
           font-weight="normal"
           font-stretch="normal"
           font-size-adjust="none"
           letter-spacing="normal"
           word-spacing="normal"><path
             style="fill:#000000;stroke-width:0"
             inkscape:connector-curvature="0"
             d="m 463.44,410.09 -0.04,-0.18 -0.05,-0.17 -0.04,-0.16 -0.05,-0.15 -0.04,-0.15 -0.05,-0.13 -0.04,-0.13 -0.05,-0.12 -0.06,-0.11 -0.06,-0.11 -0.06,-0.1 -0.07,-0.09 -0.08,-0.09 -0.09,-0.07 -0.09,-0.08 -0.11,-0.06 -0.11,-0.07 -0.12,-0.05 -0.14,-0.05 -0.15,-0.05 -0.16,-0.04 -0.09,-0.02 -0.08,-0.01 -0.1,-0.02 -0.1,-0.02 -0.1,-0.01 -0.1,-0.01 -0.11,-0.01 -0.11,-0.02 -0.12,-0.01 -0.12,-0.01 h -0.13 l -0.13,-0.01 -0.13,-0.01 h -0.15 l -0.14,-0.01 h -0.15 l -0.16,-0.01 h -0.16 -0.16 -0.17 -0.18 -0.18 c -0.84,0 -1.39,0 -1.39,-0.96 0,-0.59 0.44,-0.59 1.39,-0.59 h 16.48 l -0.89,1.55 h -5.62 c -0.7,0 -0.8,0 -1.11,0.04 -0.48,0.05 -0.64,0.1 -0.64,0.5 0,0.14 0,0.25 0.25,1.14 l 6.83,27.36 c 0.43,1.74 0.54,1.89 2.68,1.89 h 5.33 c 4.89,0 9.02,-2.64 9.02,-9.22 0,-2.43 -1,-10.6 -5.24,-16.09 -1.43,-1.84 -5.37,-5.62 -11.5,-5.62 l 0.89,-1.55 c 10.36,0 20.19,10.51 20.19,21.42 0,7.03 -4.23,12.61 -11.72,12.61 h -16.73 c -0.95,0 -1.5,0 -1.5,-0.95 0,-0.6 0.45,-0.6 1.45,-0.6 0.64,0 1.55,-0.04 2.14,-0.09 0.8,-0.11 1.1,-0.25 1.1,-0.8 0,-0.2 -0.05,-0.36 -0.21,-0.95 z"
             id="path5985" /></g>      </g>
      <g
         transform="translate(-56.696429,99.029762)"
         id="g6066">
        <g
           style="font-style:normal;font-variant:normal;font-weight:normal;font-stretch:normal;letter-spacing:normal;word-spacing:normal;text-anchor:start;fill:none;fill-opacity:1;fill-rule:evenodd;stroke:#000000;stroke-linecap:butt;stroke-linejoin:miter;stroke-miterlimit:10.43299961;stroke-dasharray:none;stroke-dashoffset:0;stroke-opacity:1"
           id="g6064"
           transform="matrix(0.3,0,0,-0.3,-52.5,222.75)"
           xml:space="preserve"
           stroke-miterlimit="10.433"
           font-style="normal"
           font-variant="normal"
           font-weight="normal"
           font-stretch="normal"
           font-size-adjust="none"
           letter-spacing="normal"
           word-spacing="normal"><polyline
             style="fill:#000000;fill-rule:nonzero;stroke-width:0"
             points="456,446 493.44,446 493.44,448.04 456,448.04 "
             id="polyline6060" /><path
             style="fill:#000000;stroke-width:0"
             inkscape:connector-curvature="0"
             d="m 464.44,411.93 -0.19,-0.3 -0.18,-0.29 -0.19,-0.28 -0.19,-0.26 -0.18,-0.25 -0.19,-0.23 -0.19,-0.22 -0.18,-0.21 -0.19,-0.2 -0.19,-0.18 -0.18,-0.17 -0.19,-0.16 -0.19,-0.15 -0.18,-0.14 -0.19,-0.13 -0.19,-0.12 -0.19,-0.11 -0.19,-0.1 -0.19,-0.09 -0.19,-0.09 -0.19,-0.07 -0.2,-0.07 -0.19,-0.07 -0.2,-0.05 -0.19,-0.05 -0.2,-0.04 -0.2,-0.04 -0.19,-0.03 -0.41,-0.05 -0.4,-0.03 c -0.61,-0.05 -1.05,-0.05 -1.05,-1 0,-0.3 0.25,-0.55 0.64,-0.55 1.34,0 2.89,0.16 4.28,0.16 1.64,0 3.39,-0.16 4.99,-0.16 0.29,0 0.95,0 0.95,0.95 0,0.55 -0.45,0.6 -0.8,0.6 -1.15,0.09 -2.34,0.5 -2.34,1.73 0,0.61 0.3,1.16 0.69,1.84 l 3.79,6.39 h 12.5 l -0.14,1.54 h -11.42 l 9.83,16.45 1.59,-16.45 0.14,-1.54 c 0.11,-1.04 0.8,-7.82 0.8,-8.32 0,-1.5 -2.59,-1.64 -3.58,-1.64 -0.7,0 -1.2,0 -1.2,-1 0,-0.55 0.59,-0.55 0.7,-0.55 2.03,0 4.19,0.16 6.22,0.16 1.25,0 4.39,-0.16 5.64,-0.16 0.3,0 0.89,0 0.89,1 0,0.55 -0.5,0.55 -1.14,0.55 -3.09,0 -3.09,0.34 -3.25,1.79 l -3.03,31.13 c -0.11,1 -0.11,1.2 -0.95,1.2 -0.8,0 -0.99,-0.34 -1.3,-0.84 z"
             id="path6062" /></g>      </g>
      <g
         transform="translate(-23.434524,136.07143)"
         id="g6148">
        <g
           style="font-style:normal;font-variant:normal;font-weight:normal;font-stretch:normal;letter-spacing:normal;word-spacing:normal;text-anchor:start;fill:none;fill-opacity:1;fill-rule:evenodd;stroke:#000000;stroke-linecap:butt;stroke-linejoin:miter;stroke-miterlimit:10.43299961;stroke-dasharray:none;stroke-dashoffset:0;stroke-opacity:1"
           id="g6146"
           transform="matrix(0.3,0,0,-0.3,-52.5,222.75)"
           xml:space="preserve"
           stroke-miterlimit="10.433"
           font-style="normal"
           font-variant="normal"
           font-weight="normal"
           font-stretch="normal"
           font-size-adjust="none"
           letter-spacing="normal"
           word-spacing="normal"><polyline
             style="fill:#000000;fill-rule:nonzero;stroke-width:0"
             points="456,446 496.32,446 496.32,448.04 456,448.04 "
             id="polyline6142" /><path
             style="fill:#000000;stroke-width:0"
             inkscape:connector-curvature="0"
             d="m 463.49,410.09 -0.05,-0.18 -0.04,-0.17 -0.05,-0.16 -0.04,-0.15 -0.04,-0.15 -0.05,-0.13 -0.05,-0.13 -0.05,-0.12 -0.05,-0.11 -0.06,-0.11 -0.07,-0.1 -0.07,-0.09 -0.07,-0.09 -0.09,-0.07 -0.09,-0.08 -0.11,-0.06 -0.11,-0.07 -0.13,-0.05 -0.13,-0.05 -0.15,-0.05 -0.16,-0.04 -0.09,-0.02 -0.09,-0.01 -0.09,-0.02 -0.1,-0.02 -0.1,-0.01 -0.1,-0.01 -0.11,-0.01 -0.12,-0.02 -0.11,-0.01 -0.13,-0.01 h -0.12 l -0.13,-0.01 -0.14,-0.01 h -0.14 l -0.14,-0.01 h -0.15 l -0.16,-0.01 h -0.16 -0.16 -0.17 -0.18 -0.18 c -0.85,0 -1.35,0 -1.35,-1 0,-0.55 0.46,-0.55 1.35,-0.55 h 17.78 c 7.87,0 13.75,5.87 13.75,10.76 0,3.58 -2.89,6.47 -7.72,7.02 5.19,0.95 10.42,4.64 10.42,9.38 0,3.68 -3.3,6.87 -9.28,6.87 l -0.69,-1.55 c 4.38,0 5.42,-2.93 5.42,-5.12 0,-4.39 -4.28,-9.13 -10.35,-9.13 h -7.27 l -0.3,-1.09 h 9.41 c 4.78,0 5.73,-3.69 5.73,-5.83 0,-4.94 -4.43,-9.76 -10.31,-9.76 h -6.78 c -0.69,0 -0.8,0 -1.09,0.04 -0.5,0.05 -0.64,0.1 -0.64,0.5 0,0.14 0,0.25 0.25,1.14 l 3.43,13.91 0.3,1.09 3.08,12.36 c 0.45,1.74 0.54,1.89 2.7,1.89 h 6.42 l 0.69,1.55 h -16.73 c -0.94,0 -1.44,0 -1.44,-1 0,-0.55 0.44,-0.55 1.39,-0.55 0.09,0 1.05,0 1.89,-0.09 0.89,-0.11 1.34,-0.16 1.34,-0.8 0,-0.2 -0.04,-0.36 -0.2,-0.95 z"
             id="path6144" /></g>      </g>
      <g
         transform="translate(30.994048,135.69345)"
         id="g6234">
        <g
           style="font-style:normal;font-variant:normal;font-weight:normal;font-stretch:normal;letter-spacing:normal;word-spacing:normal;text-anchor:start;fill:none;fill-opacity:1;fill-rule:evenodd;stroke:#000000;stroke-linecap:butt;stroke-linejoin:miter;stroke-miterlimit:10.43299961;stroke-dasharray:none;stroke-dashoffset:0;stroke-opacity:1"
           id="g6232"
           transform="matrix(0.3,0,0,-0.3,-52.5,222.75)"
           xml:space="preserve"
           stroke-miterlimit="10.433"
           font-style="normal"
           font-variant="normal"
           font-weight="normal"
           font-stretch="normal"
           font-size-adjust="none"
           letter-spacing="normal"
           word-spacing="normal"><polyline
             style="fill:#000000;fill-rule:nonzero;stroke-width:0"
             points="456,446 495.24,446 495.24,448.04 456,448.04 "
             id="polyline6228" /><path
             style="fill:#000000;stroke-width:0"
             inkscape:connector-curvature="0"
             d="m 493.38,440.82 v 0.02 0.02 0.01 l -0.01,0.02 v 0.02 0.02 l -0.01,0.02 v 0.02 l -0.01,0.02 -0.01,0.02 -0.01,0.02 v 0.02 l -0.02,0.02 -0.01,0.02 -0.01,0.02 -0.01,0.02 -0.02,0.02 -0.02,0.02 -0.02,0.02 -0.02,0.02 -0.02,0.01 -0.02,0.02 -0.03,0.01 -0.02,0.02 -0.03,0.01 -0.01,0.01 h -0.02 l -0.01,0.01 h -0.02 l -0.02,0.01 h -0.01 -0.02 l -0.02,0.01 h -0.02 -0.02 -0.02 -0.02 -0.02 -0.02 c -0.14,0 -0.2,-0.04 -0.75,-0.59 l -3.48,-3.84 c -0.44,0.7 -2.74,4.43 -8.27,4.43 -11.11,0 -22.33,-11.01 -22.33,-22.56 0,-8.23 5.89,-13.65 13.52,-13.65 4.33,0 8.11,1.98 10.75,4.28 4.64,4.09 5.48,8.62 5.48,8.76 0,0.5 -0.5,0.5 -0.59,0.5 -0.3,0 -0.55,-0.09 -0.66,-0.5 -0.43,-1.44 -1.59,-4.98 -5.03,-7.87 -3.43,-2.78 -6.58,-3.63 -9.15,-3.63 -4.49,0 -9.77,2.6 -9.77,10.36 0,2.85 1.05,10.91 6.02,16.74 3.04,3.54 7.73,6.03 12.15,6.03 5.1,0 8.03,-3.83 8.03,-9.61 0,-2 -0.15,-2.05 -0.15,-2.55 0,-0.5 0.54,-0.5 0.75,-0.5 0.64,0 0.64,0.11 0.89,1 z"
             id="path6230" /></g>      </g>
      <g
         transform="translate(63.877976,98.27381)"
         id="g6324">
        <g
           style="font-style:normal;font-variant:normal;font-weight:normal;font-stretch:normal;letter-spacing:normal;word-spacing:normal;text-anchor:start;fill:none;fill-opacity:1;fill-rule:evenodd;stroke:#000000;stroke-linecap:butt;stroke-linejoin:miter;stroke-miterlimit:10.43299961;stroke-dasharray:none;stroke-dashoffset:0;stroke-opacity:1"
           id="g6322"
           transform="matrix(0.3,0,0,-0.3,-52.5,222.75)"
           xml:space="preserve"
           stroke-miterlimit="10.433"
           font-style="normal"
           font-variant="normal"
           font-weight="normal"
           font-stretch="normal"
           font-size-adjust="none"
           letter-spacing="normal"
           word-spacing="normal"><polyline
             style="fill:#000000;fill-rule:nonzero;stroke-width:0"
             points="456,446 498.72,446 498.72,448.04 456,448.04 "
             id="polyline6318" /><path
             style="fill:#000000;stroke-width:0"
             inkscape:connector-curvature="0"
             d="m 463.44,410.09 -0.04,-0.18 -0.05,-0.17 -0.04,-0.16 -0.05,-0.15 -0.04,-0.15 -0.05,-0.13 -0.04,-0.13 -0.05,-0.12 -0.06,-0.11 -0.06,-0.11 -0.06,-0.1 -0.07,-0.09 -0.08,-0.09 -0.09,-0.07 -0.09,-0.08 -0.11,-0.06 -0.11,-0.07 -0.12,-0.05 -0.14,-0.05 -0.15,-0.05 -0.16,-0.04 -0.09,-0.02 -0.08,-0.01 -0.1,-0.02 -0.1,-0.02 -0.1,-0.01 -0.1,-0.01 -0.11,-0.01 -0.11,-0.02 -0.12,-0.01 -0.12,-0.01 h -0.13 l -0.13,-0.01 -0.13,-0.01 h -0.15 l -0.14,-0.01 h -0.15 l -0.16,-0.01 h -0.16 -0.16 -0.17 -0.18 -0.18 c -0.84,0 -1.39,0 -1.39,-0.96 0,-0.59 0.44,-0.59 1.39,-0.59 h 16.48 l -0.89,1.55 h -5.62 c -0.7,0 -0.8,0 -1.11,0.04 -0.48,0.05 -0.64,0.1 -0.64,0.5 0,0.14 0,0.25 0.25,1.14 l 6.83,27.36 c 0.43,1.74 0.54,1.89 2.68,1.89 h 5.33 c 4.89,0 9.02,-2.64 9.02,-9.22 0,-2.43 -1,-10.6 -5.24,-16.09 -1.43,-1.84 -5.37,-5.62 -11.5,-5.62 l 0.89,-1.55 c 10.36,0 20.19,10.51 20.19,21.42 0,7.03 -4.23,12.61 -11.72,12.61 h -16.73 c -0.95,0 -1.5,0 -1.5,-0.95 0,-0.6 0.45,-0.6 1.45,-0.6 0.64,0 1.55,-0.04 2.14,-0.09 0.8,-0.11 1.1,-0.25 1.1,-0.8 0,-0.2 -0.05,-0.36 -0.21,-0.95 z"
             id="path6320" /></g>      </g>
    </g>
  </g>
</svg>
