/* XPM */
static char * play_xpm[] = {
"27 27 9 1",
" 	c None",
".	c #333333",
"+	c #B3B3B3",
"@	c #000000",
"#	c #999999",
"$	c #1A1A1A",
"%	c #808080",
"&	c #CCCCCC",
"*	c #666666",
"                           ",
"                           ",
"                           ",
"                           ",
"    .+                     ",
"    @@.#                   ",
"    @@@@$%                 ",
"    @@@@@@$%               ",
"    @@@@@@@@$%&            ",
"    @@@@@@@@@@@*&          ",
"    @@@@@@@@@@@@@*&        ",
"    @@@@@@@@@@@@@@@*+      ",
"    @@@@@@@@@@@@@@@@@.+    ",
"    @@@@@@@@@@@@@@@@@.+    ",
"    @@@@@@@@@@@@@@@$+      ",
"    @@@@@@@@@@@@@$%        ",
"    @@@@@@@@@@@$%          ",
"    @@@@@@@@@@%            ",
"    @@@@@@@@*&             ",
"    @@@@@@*&               ",
"    @@@@*&                 ",
"    @@.&                   ",
"    .+                     ",
"                           ",
"                           ",
"                           ",
"                           "};
