/* XPM */
static char * faster_xpm[] = {
"27 27 10 1",
" 	c None",
".	c #CCCCCC",
"+	c #4C4C4C",
"@	c #B3B3B3",
"#	c #1A1A1A",
"$	c #000000",
"%	c #666666",
"&	c #808080",
"*	c #333333",
"=	c #999999",
"                           ",
"                           ",
"                           ",
"            .++.           ",
"           @#$$#@          ",
"          %$$$$$$%         ",
"        .#$$$$$$$$#.       ",
"       &$$$$$$$$$$$$&      ",
"     .*$$$$$$$$$$$$$$*.    ",
"    =#$$$$$$#==#$$$$$$#=   ",
"    +$$$$$$*.  .*$$$$$$+   ",
"     #$$$$%      %$$$$#    ",
"     .$$#@        @#$$.    ",
"      =+    .++.    +=     ",
"           @#$$#@          ",
"          %$$$$$$%         ",
"        .#$$$$$$$$#.       ",
"       &$$$$$$$$$$$$&      ",
"     .*$$$$$$$$$$$$$$*.    ",
"    =#$$$$$$#==#$$$$$$#=   ",
"    +$$$$$$*.  .*$$$$$$+   ",
"     #$$$$%      %$$$$#    ",
"     .$$#@        @#$$.    ",
"      =+            +=     ",
"                           ",
"                           ",
"                           "};
