/* XPM */
static char * slower_xpm[] = {
"27 27 10 1",
" 	c None",
".	c #999999",
"+	c #4C4C4C",
"@	c #CCCCCC",
"#	c #000000",
"$	c #1A1A1A",
"%	c #B3B3B3",
"&	c #666666",
"*	c #333333",
"=	c #808080",
"                           ",
"                           ",
"                           ",
"     .+            +.      ",
"    @##$%        %$##@     ",
"    $####&      &####$     ",
"   +######*@  @*######+    ",
"   .$######$..$######$.    ",
"    @*##############*@     ",
"      =############=       ",
"       @$########$@        ",
"         &######&          ",
"          %$##$%           ",
"     .+    @++@    +.      ",
"    @##$%        %$##@     ",
"    $####&      &####$     ",
"   +######*@  @*######+    ",
"   .$######$..$######$.    ",
"    @*##############*@     ",
"      =############=       ",
"       @$########$@        ",
"         &######&          ",
"          %$##$%           ",
"           @++@            ",
"                           ",
"                           ",
"                           "};
