/* XPM */
static char * pause_xpm[] = {
"27 27 2 1",
" 	c None",
".	c #000000",
"                           ",
"                           ",
"                           ",
"                           ",
"    ........   ........    ",
"    ........   ........    ",
"    ........   ........    ",
"    ........   ........    ",
"    ........   ........    ",
"    ........   ........    ",
"    ........   ........    ",
"    ........   ........    ",
"    ........   ........    ",
"    ........   ........    ",
"    ........   ........    ",
"    ........   ........    ",
"    ........   ........    ",
"    ........   ........    ",
"    ........   ........    ",
"    ........   ........    ",
"    ........   ........    ",
"    ........   ........    ",
"    ........   ........    ",
"                           ",
"                           ",
"                           ",
"                           "};
