/* XPM */
static char * play_through_xpm[] = {
"27 27 10 1",
" 	c None",
".	c #4C4C4C",
"+	c #000000",
"@	c #CCCCCC",
"#	c #1A1A1A",
"$	c #999999",
"%	c #A3A3A3",
"&	c #141414",
"*	c #040404",
"=	c #C4C4C4",
"                           ",
"                           ",
"                           ",
"   .              +++++    ",
"   +.@            +++++    ",
"   ++#@           +++++    ",
"   +++#$          +++++    ",
"   +++++$         +++++    ",
"   ++++++.        +++++    ",
"   +++++++.@      +++++    ",
"   ++++++++#@     +++++    ",
"   +++++++++#%    +++++    ",
"   ++++++++++&@   +++++    ",
"   ++++++++++*=   +++++    ",
"   ++++++++++$    +++++    ",
"   +++++++++$     +++++    ",
"   +++++++#$      +++++    ",
"   ++++++#@       +++++    ",
"   +++++#@        +++++    ",
"   ++++#@         +++++    ",
"   +++.@          +++++    ",
"   ++.            +++++    ",
"   +.             +++++    ",
"   .              +++++    ",
"                           ",
"                           ",
"                           "};
