/* XPM */
static char *comp_Q_xpm[] = {
/* width height ncolors chars_per_pixel */
"32 32 17 1",
/* colors */
"- c None",
"  c #000000",
". c #FFF0F0",
"X c #FFE9E9",
"o c #FFA7A7",
"O c #FF8C8C",
"+ c #FFC7C7",
"@ c #FFE1E1",
"# c #FFB2B2",
"$ c #FFD9D9",
"% c #FF0000",
"& c #808080",
"* c #FF7C7C",
"= c #FF6868",
"; c #FFBDBD",
": c #FFD0D0",
"> c None",
/* pixels */
"--------------------------------",
"--------------------------------",
"--------------------------------",
"--------------------------------",
"----------            ----------",
"----------&&&&&&&&&&&&----------",
"--------------------------------",
"--------------------------------",
"-------------+*%%*;-------------",
"-----------.**$--$**X-----------",
"-----------*=------=*-----------",
"----------;%:------+%;----------",
"----------*%.------X%*----------",
"----------%%--------%%----------",
"----------%%--------%%----------",
"----------%%--------%%----------",
"----------=%.-------%*----------",
"----------o%:------:%;----------",
"----------.%=------=*-----------",
"-----------:%*$--$**------------",
"------------@O%%%=+-------------",
"---------------;%%--------------",
"----------------:%%-------------",
"-----------------.#*%-----------",
"--------------------------------",
"--------------------------------",
"--------------------------------",
"--------------------------------",
"--------------------------------",
"--------------------------------",
"--------------------------------",
"--------------------------------"
};
