/* XPM */
static char *del_P_xpm[] = {
/* width height ncolors chars_per_pixel */
"32 32 15 1",
/* colors */
"* c None",
"  c #E1E1F0",
". c #800000",
"X c #6868B4",
"o c #7C7CBD",
"O c #4D4DA6",
"+ c #9A9ACD",
"@ c #D0D0E7",
"# c #D9D9EC",
"$ c #E9E9F4",
"% c #C7C7E3",
"& c #F0F0F7",
"= c #808000",
"- c #0000FF",
"; c None",
/* pixels */
"********************************",
"********************************",
"********************************",
"********************************",
"**************....**************",
"***********...====...***********",
"*********..=********=..*********",
"********.=************=.********",
"*******...=************=.*******",
"******.=*..=------O+$***=.******",
"******.=**..=--*** o-#**=.******",
"*****.=****..=-****$-X***=.*****",
"*****.=*****..=*****--***=.*****",
"****.=*******..=****--****=.****",
"****.=*******-..=**&-X****=.****",
"****.=*******--..=&o-%****=.****",
"****.=*******---..=o@*****=.****",
"****.=*******--**..=******=.****",
"****.=*******--***..=*****=.****",
"*****.=******--****..=***=.*****",
"*****.=******--*****..=**=.*****",
"******.=****&--$*****..==.******",
"******.=***------*****..=.******",
"*******.=**************..*******",
"********.=************=.********",
"*********..=********=..*********",
"***********...====...***********",
"**************....**************",
"********************************",
"********************************",
"********************************",
"********************************"
};
