/* XPM */
static char *symm_diff_xpm[] = {
/* width height ncolors chars_per_pixel */
"32 32 29 1",
/* colors */
"6 c None",
"  c #000000",
". c #FFF0F0",
"X c #E1E1F0",
"o c #FFE9E9",
"O c #FFA7A7",
"+ c #6868B4",
"@ c #FF8C8C",
"# c #FFC7C7",
"$ c #7C7CBD",
"% c #FFE1E1",
"& c #4D4DA6",
"* c #9A9ACD",
"= c #D0D0E7",
"- c #C0C0C0",
"; c #FFB2B2",
": c #D9D9EC",
"> c #FFD9D9",
", c #FF0000",
"< c #808080",
"1 c #E9E9F4",
"2 c #FF7C7C",
"3 c #C7C7E3",
"4 c #FF6868",
"5 c #F0F0F7",
"7 c #FFBDBD",
"8 c #FFD0D0",
"9 c #0000FF",
"0 c None",
/* pixels */
"66666666666666666666666666666666",
"66666666666666666666666666666666",
"66666666666666666666666666666666",
"66666666666666666666666666666666",
"66666666666666666666666666666666",
"66666666666666666666666666666666",
"66666666666666666666666666666666",
"66666666666666666666666666666666",
"66666666666666666666666666666666",
"999999&*1666666666666666#2,27666",
"619966X$9:666666666666.22>6>22o6",
"669966619+666<   <66662466666426",
"669966669966  666  667,866666#,7",
"669966669966 6< <6 662,.66666o,2",
"669966659+6 66< <66 6,,6666666,,",
"6699=65$936 -     - 6,,6666666,,",
"6699999$=66 -     - 6,,6666666,,",
"66996666666 66< <66 64,.666666,2",
"669966666666 6< <6 66O,8666668,7",
"669966666666  666  66.,466666426",
"6699666666666<   <66668,2>6>2266",
"65991666666666666666666%@,,4#666",
"99999966666666666666666667,,6666",
"666666666666666666666666668,,666",
"666666666666666666666666666.;2,6",
"66666666666666666666666666666666",
"66666666666666666666666666666666",
"66666666666666666666666666666666",
"66666666666666666666666666666666",
"66666666666666666666666666666666",
"66666666666666666666666666666666",
"66666666666666666666666666666666"
};
