<svg version="1.1" xmlns="http://www.w3.org/2000/svg" xmlns:xlink="http://www.w3.org/1999/xlink" width="416" height="320"><defs></defs><g><g transform="translate(-146,-86) scale(1,1)"><rect fill="#C0C0C0" stroke="none" x="163" y="111" width="88" height="76" opacity="0.2"></rect></g><g transform="translate(-146,-86) scale(1,1)"><rect fill="#ffffff" stroke="none" x="156" y="104" width="88" height="76"></rect></g><g transform="translate(-146,-86) scale(1,1)"><path fill="none" stroke="#000000" d="M 156 104 L 244 104 L 244 180 L 156 180 L 156 104 Z Z" stroke-miterlimit="10"></path></g><g transform="translate(-146,-86) scale(1,1)"><path fill="none" stroke="#000000" d="M 156 129 L 244 129" stroke-miterlimit="10"></path></g><g transform="translate(-146,-86) scale(1,1)"><path fill="none" stroke="#000000" d="M 156 139 L 244 139" stroke-miterlimit="10"></path></g><g transform="translate(-146,-86) scale(1,1)"><g><path fill="none" stroke="none"></path><text fill="#000000" stroke="none" font-family="Arial" font-size="13px" font-style="normal" font-weight="bold" text-decoration="none" x="185" y="123.5">Base</text></g></g><g transform="translate(-146,-86) scale(1,1)"><g><path fill="none" stroke="none"></path><text fill="#000000" stroke="none" font-family="Arial" font-size="13px" font-style="normal" font-weight="normal" text-decoration="none" x="161" y="156.5">+void one()</text></g></g><g transform="translate(-146,-86) scale(1,1)"><rect fill="#C0C0C0" stroke="none" x="163" y="319" width="88" height="57" opacity="0.2"></rect></g><g transform="translate(-146,-86) scale(1,1)"><rect fill="#ffffff" stroke="none" x="156" y="312" width="88" height="57"></rect></g><g transform="translate(-146,-86) scale(1,1)"><path fill="none" stroke="#000000" d="M 156 312 L 244 312 L 244 369 L 156 369 L 156 312 Z Z" stroke-miterlimit="10"></path></g><g transform="translate(-146,-86) scale(1,1)"><path fill="none" stroke="#000000" d="M 156 337 L 244 337" stroke-miterlimit="10"></path></g><g transform="translate(-146,-86) scale(1,1)"><path fill="none" stroke="#000000" d="M 156 347 L 244 347" stroke-miterlimit="10"></path></g><g transform="translate(-146,-86) scale(1,1)"><g><path fill="none" stroke="none"></path><text fill="#000000" stroke="none" font-family="Arial" font-size="13px" font-style="normal" font-weight="bold" text-decoration="none" x="179" y="331.5">Derived</text></g></g><g transform="translate(-146,-86) scale(1,1)"><g><path fill="none" stroke="none"></path><text fill="#000000" stroke="none" font-family="Arial" font-size="13px" font-style="normal" font-weight="normal" text-decoration="none" x="161" y="364.5">+void two()</text></g></g><g transform="translate(-146,-86) scale(1,1)"><path fill="none" stroke="#000000" d="M 200 311 L 200 181" stroke-miterlimit="10"></path></g><g transform="translate(-146,-86) scale(1,1)"><path fill="#FFFFFF" stroke="none" d="M 208.41903551203197 201.3253497152483 L 200 181 L 191.58096448796803 201.3253497152483"></path></g><g transform="translate(-146,-86) scale(1,1)"><path fill="none" stroke="#000000" d="M 208.41903551203197 201.3253497152483 L 200 181 L 191.58096448796803 201.3253497152483 L 208.41903551203197 201.3253497152483" stroke-miterlimit="10"></path></g><g transform="translate(-146,-86) scale(1,1)"><rect fill="#C0C0C0" stroke="none" x="415" y="103" width="92" height="92" opacity="0.2"></rect></g><g transform="translate(-146,-86) scale(1,1)"><rect fill="#ffffff" stroke="none" x="408" y="96" width="92" height="92"></rect></g><g transform="translate(-146,-86) scale(1,1)"><path fill="none" stroke="#000000" d="M 408 96 L 500 96 L 500 188 L 408 188 L 408 96 Z Z" stroke-miterlimit="10"></path></g><g transform="translate(-146,-86) scale(1,1)"><path fill="none" stroke="#000000" d="M 408 134 L 500 134" stroke-miterlimit="10"></path></g><g transform="translate(-146,-86) scale(1,1)"><path fill="none" stroke="#000000" d="M 408 157 L 500 157" stroke-miterlimit="10"></path></g><g transform="translate(-146,-86) scale(1,1)"><g><path fill="none" stroke="none"></path><text fill="#000000" stroke="none" font-family="Arial" font-size="13px" font-style="normal" font-weight="normal" text-decoration="none" x="424" y="113.5">«concept»</text></g></g><g transform="translate(-146,-86) scale(1,1)"><g><path fill="none" stroke="none"></path><text fill="#000000" stroke="none" font-family="Arial" font-size="13px" font-style="normal" font-weight="bold" text-decoration="none" x="415" y="128.5">BaseConcept</text></g></g><g transform="translate(-146,-86) scale(1,1)"><g><path fill="none" stroke="none"></path><text fill="#000000" stroke="none" font-family="Arial" font-size="13px" font-style="normal" font-weight="normal" text-decoration="none" x="413" y="151.5">+typedef .. X;</text></g></g><g transform="translate(-146,-86) scale(1,1)"><g><path fill="none" stroke="none"></path><text fill="#000000" stroke="none" font-family="Arial" font-size="13px" font-style="normal" font-weight="normal" text-decoration="none" x="413" y="174.5">+void eins()</text></g></g><g transform="translate(-146,-86) scale(1,1)"><path fill="none" stroke="#000000" d="M 245 142 L 407 142" stroke-miterlimit="10"></path></g><g transform="translate(-146,-86) scale(1,1)"><path fill="none" stroke="#000000" d="M 396.83732514237585 146.209517756016 L 407 142 L 396.83732514237585 137.790482243984" stroke-miterlimit="10"></path></g><g transform="translate(-146,-86) scale(1,1)"><g><path fill="none" stroke="none"></path><text fill="#000000" stroke="none" font-family="Arial" font-size="13px" font-style="normal" font-weight="normal" text-decoration="none" x="298" y="134">+modelOf</text></g></g><g transform="translate(-146,-86) scale(1,1)"><rect fill="#C0C0C0" stroke="none" x="367" y="291" width="192" height="112" opacity="0.2"></rect></g><g transform="translate(-146,-86) scale(1,1)"><rect fill="#ffffff" stroke="none" x="360" y="284" width="192" height="112"></rect></g><g transform="translate(-146,-86) scale(1,1)"><path fill="none" stroke="#000000" d="M 360 284 L 552 284 L 552 396 L 360 396 L 360 284 Z Z" stroke-miterlimit="10"></path></g><g transform="translate(-146,-86) scale(1,1)"><path fill="none" stroke="#000000" d="M 360 322 L 552 322" stroke-miterlimit="10"></path></g><g transform="translate(-146,-86) scale(1,1)"><path fill="none" stroke="#000000" d="M 360 332 L 552 332" stroke-miterlimit="10"></path></g><g transform="translate(-146,-86) scale(1,1)"><g><path fill="none" stroke="none"></path><text fill="#000000" stroke="none" font-family="Arial" font-size="13px" font-style="normal" font-weight="normal" text-decoration="none" x="426" y="301.5">«concept»</text></g></g><g transform="translate(-146,-86) scale(1,1)"><g><path fill="none" stroke="none"></path><text fill="#000000" stroke="none" font-family="Arial" font-size="13px" font-style="normal" font-weight="bold" text-decoration="none" x="410.5" y="316.5">RefinedConcept</text></g></g><g transform="translate(-146,-86) scale(1,1)"><g><path fill="none" stroke="none"></path><text fill="#000000" stroke="none" font-family="Arial" font-size="13px" font-style="normal" font-weight="normal" text-decoration="none" x="365" y="349.5">+void zwei()</text></g></g><g transform="translate(-146,-86) scale(1,1)"><path fill="none" stroke="#000000" d="M 455.42424242424244 283 L 454.47474747474746 189" stroke-miterlimit="10"></path></g><g transform="translate(-146,-86) scale(1,1)"><path fill="#FFFFFF" stroke="none" d="M 463.09864961066717 209.23927646804796 L 454.47474747474746 189 L 446.2614375184794 209.409349317464"></path></g><g transform="translate(-146,-86) scale(1,1)"><path fill="none" stroke="#000000" d="M 463.09864961066717 209.23927646804796 L 454.47474747474746 189 L 446.2614375184794 209.409349317464 L 463.09864961066717 209.23927646804796" stroke-miterlimit="10"></path></g><g transform="translate(-146,-86) scale(1,1)"><path fill="none" stroke="#000000" d="M 245 340 L 359 340" stroke-miterlimit="10"></path></g><g transform="translate(-146,-86) scale(1,1)"><path fill="none" stroke="#000000" d="M 348.83732514237585 344.209517756016 L 359 340 L 348.83732514237585 335.790482243984" stroke-miterlimit="10"></path></g><g transform="translate(-146,-86) scale(1,1)"><g><path fill="none" stroke="none"></path><text fill="#000000" stroke="none" font-family="Arial" font-size="13px" font-style="normal" font-weight="normal" text-decoration="none" x="274" y="332">+modelOf</text></g></g></g></svg>