<svg version="1.1" xmlns="http://www.w3.org/2000/svg" xmlns:xlink="http://www.w3.org/1999/xlink" width="378" height="316"><defs></defs><g><g transform="translate(-146,-82) scale(1,1)"><rect fill="#C0C0C0" stroke="none" x="163" y="111" width="88" height="76" opacity="0.2"></rect></g><g transform="translate(-146,-82) scale(1,1)"><rect fill="#ffffff" stroke="none" x="156" y="104" width="88" height="76"></rect></g><g transform="translate(-146,-82) scale(1,1)"><path fill="none" stroke="#000000" d="M 156 104 L 244 104 L 244 180 L 156 180 L 156 104 Z Z" stroke-miterlimit="10"></path></g><g transform="translate(-146,-82) scale(1,1)"><path fill="none" stroke="#000000" d="M 156 129 L 244 129" stroke-miterlimit="10"></path></g><g transform="translate(-146,-82) scale(1,1)"><path fill="none" stroke="#000000" d="M 156 139 L 244 139" stroke-miterlimit="10"></path></g><g transform="translate(-146,-82) scale(1,1)"><g><path fill="none" stroke="none"></path><text fill="#000000" stroke="none" font-family="Arial" font-size="13px" font-style="normal" font-weight="bold" text-decoration="none" x="185" y="123.5">Base</text></g></g><g transform="translate(-146,-82) scale(1,1)"><g><path fill="none" stroke="none"></path><text fill="#000000" stroke="none" font-family="Arial" font-size="13px" font-style="normal" font-weight="normal" text-decoration="none" x="161" y="156.5">+void one()</text></g></g><g transform="translate(-146,-82) scale(1,1)"><rect fill="#C0C0C0" stroke="none" x="163" y="319" width="88" height="57" opacity="0.2"></rect></g><g transform="translate(-146,-82) scale(1,1)"><rect fill="#ffffff" stroke="none" x="156" y="312" width="88" height="57"></rect></g><g transform="translate(-146,-82) scale(1,1)"><path fill="none" stroke="#000000" d="M 156 312 L 244 312 L 244 369 L 156 369 L 156 312 Z Z" stroke-miterlimit="10"></path></g><g transform="translate(-146,-82) scale(1,1)"><path fill="none" stroke="#000000" d="M 156 337 L 244 337" stroke-miterlimit="10"></path></g><g transform="translate(-146,-82) scale(1,1)"><path fill="none" stroke="#000000" d="M 156 347 L 244 347" stroke-miterlimit="10"></path></g><g transform="translate(-146,-82) scale(1,1)"><g><path fill="none" stroke="none"></path><text fill="#000000" stroke="none" font-family="Arial" font-size="13px" font-style="normal" font-weight="bold" text-decoration="none" x="179" y="331.5">Derived</text></g></g><g transform="translate(-146,-82) scale(1,1)"><g><path fill="none" stroke="none"></path><text fill="#000000" stroke="none" font-family="Arial" font-size="13px" font-style="normal" font-weight="normal" text-decoration="none" x="161" y="364.5">+void two()</text></g></g><g transform="translate(-146,-82) scale(1,1)"><path fill="none" stroke="#000000" d="M 200 311 L 200 181" stroke-miterlimit="10"></path></g><g transform="translate(-146,-82) scale(1,1)"><path fill="#FFFFFF" stroke="none" d="M 208.41903551203197 201.3253497152483 L 200 181 L 191.58096448796803 201.3253497152483"></path></g><g transform="translate(-146,-82) scale(1,1)"><path fill="none" stroke="#000000" d="M 208.41903551203197 201.3253497152483 L 200 181 L 191.58096448796803 201.3253497152483 L 208.41903551203197 201.3253497152483" stroke-miterlimit="10"></path></g><g transform="translate(-146,-82) scale(1,1)"><rect fill="#C0C0C0" stroke="none" x="419" y="99" width="92" height="92" opacity="0.2"></rect></g><g transform="translate(-146,-82) scale(1,1)"><rect fill="#ffffff" stroke="none" x="412" y="92" width="92" height="92"></rect></g><g transform="translate(-146,-82) scale(1,1)"><path fill="none" stroke="#000000" d="M 412 92 L 504 92 L 504 184 L 412 184 L 412 92 Z Z" stroke-miterlimit="10"></path></g><g transform="translate(-146,-82) scale(1,1)"><path fill="none" stroke="#000000" d="M 412 130 L 504 130" stroke-miterlimit="10"></path></g><g transform="translate(-146,-82) scale(1,1)"><path fill="none" stroke="#000000" d="M 412 153 L 504 153" stroke-miterlimit="10"></path></g><g transform="translate(-146,-82) scale(1,1)"><g><path fill="none" stroke="none"></path><text fill="#000000" stroke="none" font-family="Arial" font-size="13px" font-style="normal" font-weight="normal" text-decoration="none" x="428" y="109.5">«concept»</text></g></g><g transform="translate(-146,-82) scale(1,1)"><g><path fill="none" stroke="none"></path><text fill="#000000" stroke="none" font-family="Arial" font-size="13px" font-style="normal" font-weight="bold" text-decoration="none" x="419" y="124.5">BaseConcept</text></g></g><g transform="translate(-146,-82) scale(1,1)"><g><path fill="none" stroke="none"></path><text fill="#000000" stroke="none" font-family="Arial" font-size="13px" font-style="normal" font-weight="normal" text-decoration="none" x="417" y="147.5">+typedef .. X;</text></g></g><g transform="translate(-146,-82) scale(1,1)"><g><path fill="none" stroke="none"></path><text fill="#000000" stroke="none" font-family="Arial" font-size="13px" font-style="normal" font-weight="normal" text-decoration="none" x="417" y="170.5">+void eins()</text></g></g><g transform="translate(-146,-82) scale(1,1)"><path fill="none" stroke="#000000" d="M 245 141.30232558139534 L 411 138.72868217054264" stroke-miterlimit="10"></path></g><g transform="translate(-146,-82) scale(1,1)"><path fill="none" stroke="#000000" d="M 400.90380232302243 143.09523601395193 L 411 138.72868217054264 L 400.7732903253184 134.6772121620428" stroke-miterlimit="10"></path></g><g transform="translate(-146,-82) scale(1,1)"><g><path fill="none" stroke="none"></path><text fill="#000000" stroke="none" font-family="Arial" font-size="13px" font-style="normal" font-weight="normal" text-decoration="none" x="299" y="132">+modelOf</text></g></g><g transform="translate(-146,-82) scale(1,1)"><rect fill="#C0C0C0" stroke="none" x="411" y="299" width="110" height="96" opacity="0.2"></rect></g><g transform="translate(-146,-82) scale(1,1)"><rect fill="#ffffff" stroke="none" x="404" y="292" width="110" height="96"></rect></g><g transform="translate(-146,-82) scale(1,1)"><path fill="none" stroke="#000000" d="M 404 292 L 514 292 L 514 388 L 404 388 L 404 292 Z Z" stroke-miterlimit="10"></path></g><g transform="translate(-146,-82) scale(1,1)"><path fill="none" stroke="#000000" d="M 404 330 L 514 330" stroke-miterlimit="10"></path></g><g transform="translate(-146,-82) scale(1,1)"><path fill="none" stroke="#000000" d="M 404 340 L 514 340" stroke-miterlimit="10"></path></g><g transform="translate(-146,-82) scale(1,1)"><g><path fill="none" stroke="none"></path><text fill="#000000" stroke="none" font-family="Arial" font-size="13px" font-style="normal" font-weight="normal" text-decoration="none" x="429" y="309.5">«concept»</text></g></g><g transform="translate(-146,-82) scale(1,1)"><g><path fill="none" stroke="none"></path><text fill="#000000" stroke="none" font-family="Arial" font-size="13px" font-style="normal" font-weight="bold" text-decoration="none" x="414" y="324.5">DerivedConcept</text></g></g><g transform="translate(-146,-82) scale(1,1)"><g><path fill="none" stroke="none"></path><text fill="#000000" stroke="none" font-family="Arial" font-size="13px" font-style="normal" font-weight="normal" text-decoration="none" x="409" y="357.5">+void zwei()</text></g></g><g transform="translate(-146,-82) scale(1,1)"><path fill="none" stroke="#000000" d="M 458.75742574257424 291 L 458.23267326732673 185" stroke-miterlimit="10"></path></g><g transform="translate(-146,-82) scale(1,1)"><path fill="#FFFFFF" stroke="none" d="M 466.75222492710765 205.28342277615698 L 458.23267326732673 185 L 449.91436022793266 205.36677854199448"></path></g><g transform="translate(-146,-82) scale(1,1)"><path fill="none" stroke="#000000" d="M 466.75222492710765 205.28342277615698 L 458.23267326732673 185 L 449.91436022793266 205.36677854199448 L 466.75222492710765 205.28342277615698" stroke-miterlimit="10"></path></g><g transform="translate(-146,-82) scale(1,1)"><path fill="none" stroke="#000000" d="M 245 340 L 403 340" stroke-miterlimit="10"></path></g><g transform="translate(-146,-82) scale(1,1)"><path fill="none" stroke="#000000" d="M 392.83732514237585 344.209517756016 L 403 340 L 392.83732514237585 335.790482243984" stroke-miterlimit="10"></path></g><g transform="translate(-146,-82) scale(1,1)"><g><path fill="none" stroke="none"></path><text fill="#000000" stroke="none" font-family="Arial" font-size="13px" font-style="normal" font-weight="normal" text-decoration="none" x="296" y="332">+modelOf</text></g></g></g></svg>