#Produced by Art of Illusion 2.9.1, Thu Sep 06 19:19:31 CEST 2012
g Cube_13
v -4.68592 9.05131 -3.97398
v -0.96974 -4.2827 -0.10946
v 3.98009 9.05131 -3.97398
v 13.00719 -7.6346 -8.84113
v -13.89356 -7.6346 -8.84113
v -4.22137 -7.87521 12.17275
v -1.43617 9.05131 2.47783
vn 0 0.27837 0.96047
vn 0.88689 0.11771 -0.44673
vn -0.8279 0.37508 0.41701
vn -0.84835 0.35306 0.39452
vn 0 0.28002 -0.95999
vn 0.88689 0.11771 -0.44673
vn 0 0.27837 0.96047
vn -0.76225 0.0975 -0.6399
vn 0 0.27837 0.96047
vn -0.76225 0.0975 -0.6399
vn 0.74437 0.23543 0.62489
vn 0.752 0.22624 0.61913
vn 0 0.28002 -0.95999
vn 0.752 0.22624 0.61913
vn 0 -0.99993 -0.01145
vn 0 0.28002 -0.95999
vn 0 -0.99993 -0.01145
vn -0.84835 0.35306 0.39452
vn 0 0.28002 -0.95999
vn 0 -0.99993 -0.01145
vn 0.752 0.22624 0.61913
vn 0.74437 0.23543 0.62489
vn -0.8279 0.37508 0.41701
vn -0.84835 0.35306 0.39452
vn -0.8279 0.37508 0.41701
vn 0.74437 0.23543 0.62489
vn -0.76225 0.0975 -0.6399
vn 0.88689 0.11771 -0.44673
f 1//1 2//7 3//9
f 1//5 3//13 4//16
f 5//17 4//15 6//20
f 6//23 7//25 1//3
f 5//19 1//5 4//16
f 4//14 3//12 6//21
f 3//11 7//26 6//22
f 6//24 1//4 5//18
f 1//2 7//28 2//6
f 3//10 2//8 7//27
