/* XPM */
static const char *polyline_xpm[] = {
/* columns rows colors chars-per-pixel */
"32 32 4 1",
"  c opaque",
". c navy",
"X c #c0c0c0",
"o c None",
/* pixels */
"oooooooooooooooooooooooooooooooo",
"oooooooooooooooooooooooooooooooo",
"oooooo                   ooooooo",
"oooooo                   ooooooo",
"oooooo  oooooooooooooooooooooooo",
"oooooo  oooooooooooooooooooooooo",
"oooooo  oooooooooooooooooooooooo",
"oooooo  oooooooooooooooooooooooo",
"oooooo  oooooooooooooooooooooooo",
"oooooo          oooooooooooooooo",
"oooooo          oooooooooooooooo",
"oooooooooooooo  oooooooooooooooo",
"oooooooooooooo  oooooooooooooooo",
"oooooooooooooo  oooooooooooooooo",
"oooooooooooooo  oooooooooooooooo",
"oooooooooooooo            oooooo",
"oooooooooooooo            oooooo",
"oooooooooooooooooooooooo  oooooo",
"oooooooooooooooooooooooo  oooooo",
"oooooooooooooooooooooooo  oooooo",
"ooooo........ooooooooooo  oooooo",
"ooooooo......ooooooooooo  oooooo",
"ooooooo......ooooooooooo  oooooo",
"oooooo.......ooooooooooo  oooooo",
"ooooo........ooooooooooo  oooooo",
"oooo.........ooooooooooooooooooo",
"ooo.......oo.ooooooooooooooooooo",
"ooo......ooo.ooooooooooooooooooo",
"ooo.....oooooooooooooooooooooooo",
"ooo....ooooooooooooooooooooooooo",
"oooooooooooooooooooooooooooooooo",
"oooooooooooooooooooooooooooooooo",
"oooooooooooooooooooooooooooooooo"
};

#if 0

/* XPM */
static const char * polyline_small_xpm[] = {
"16 16 4 1",
" 	c None",
".	c #EDA1A1",
"+	c #000000",
"@	c #1F0670",
"    ........    ",
"   ..........   ",
"  ...+........  ",
" ....+......... ",
".....++++.......",
"........+.......",
"........+.......",
"........+++.....",
"..........+.....",
"..@@@@@...+.....",
"...@@@@...+..+..",
"...@@@@...++++..",
" .@@@@@........ ",
" @@@..@.......  ",
"@@@..........   ",
"@@  ........    "};

#endif
