/* XPM */
static const char *upper_env_xpm[] = {
/* width height ncolors chars_per_pixel */
"32 32 5 1",
/* colors */
"  c #000000",
". c #00FFFF",
"X c #FF0000",
"o c None",
"O c None",
/* pixels */
"oooooooooooooooooooooooooooooooo",
"oooooooooooooooooooooooooooooooo",
"oooooooooooooooooooooooooooooooo",
"oooooooooooooooooooooooooooooooo",
"oooooooooooooooooooooooooooooooo",
"oooooooooooooooooooooooooooooooo",
"oooXXXXXXXXXXXXXXXXXXXXXXXXXoooo",
"ooXXXXXXXXXXXXXXXXXXXXXXXXXXXooo",
"oo                           ooo",
"oo   .....................   ooo",
"oo .  ...................  . ooo",
"oo ..   ................  .. ooo",
"oo ....  .............  .... ooo",
"oo .....  ...........  ..... ooo",
"oo ......  .........  ...... ooo",
"oo .......  .......  ....... ooo",
"oo ......     ...     ...... ooo",
"oo .....  ..      ...  ..... ooo",
"oo ....  .....  ......  .... ooo",
"oo ...  ...............  ... ooo",
"oo ..  .................  .. ooo",
"oo .  ...................  . ooo",
"oo   .....................   ooo",
"oo                           ooo",
"oooooooooooooooooooooooooooooooo",
"oooooooooooooooooooooooooooooooo",
"oooooooooooooooooooooooooooooooo",
"oooooooooooooooooooooooooooooooo",
"oooooooooooooooooooooooooooooooo",
"oooooooooooooooooooooooooooooooo",
"oooooooooooooooooooooooooooooooo",
"oooooooooooooooooooooooooooooooo"
};
